<svg id="Layer_1" data-name="Layer 1" xmlns="http://www.w3.org/2000/svg" xmlns:xlink="http://www.w3.org/1999/xlink" width="110mm" height="220mm" viewBox="0 0 311.81 623.62" data-rating-increment="23.9357" data-supplier-model-chars-per-row="15">
  <defs>
    <style>
      .dryingClassA #dryingClassALetter,
      .dryingClassB #dryingClassBLetter,
      .dryingClassC #dryingClassCLetter,
      .dryingClassD #dryingClassDLetter,
      .dryingClassE #dryingClassELetter,
      .dryingClassF #dryingClassFLetter,
      .dryingClassG #dryingClassGLetter {
        font-size: 16.5px;
        font-weight: 700;
        font-family: Calibri-Bold, Calibri;
      }

      .cls-1, .cls-12, .cls-18, .cls-21, .cls-22, .cls-23, .cls-25, .cls-26, .cls-3, .cls-4 {
        fill: none;
      }

      .cls-2 {
        clip-path: url(#clip-path);
      }

      .cls-12, .cls-21, .cls-22, .cls-23, .cls-25, .cls-26, .cls-3, .cls-4 {
        stroke: #00aeef;
      }

      .cls-3 {
        stroke-width: 5px;
      }

      .cls-4 {
        stroke-width: 2px;
      }

      .cls-5 {
        font-size: 16px;
      }

      .cls-38, .cls-41, .cls-42, .cls-43, .cls-44, .cls-5, .cls-6 {
        fill: #231f20;
      }

      .cls-40, .cls-44, .cls-5 {
        font-family: Calibri;
      }

      .cls-7 {
        fill: #034ea2;
      }

      .cls-8 {
        fill: #00aeef;
      }

      .cls-9 {
        fill: #fff200;
      }

      .cls-10, .cls-33, .cls-34, .cls-37, .cls-39, .cls-40 {
        fill: #fff;
      }

      .cls-11 {
        clip-path: url(#clip-path-3);
      }

      .cls-13 {
        clip-path: url(#clip-path-5);
      }

      .cls-14, .cls-15 {
        fill: #00c0f3;
      }

      .cls-14 {
        fill-rule: evenodd;
      }

      .cls-16 {
        clip-path: url(#clip-path-7);
      }

      .cls-17 {
        fill: #6dcff6;
      }

      .cls-18 {
        stroke: #fff;
        stroke-width: 2.161px;
      }

      .cls-19 {
        fill: #44c8f5;
      }

      .cls-20 {
        clip-path: url(#clip-path-9);
      }

      .cls-21 {
        stroke-width: 0.95px;
      }

      .cls-22 {
        stroke-width: 0.57px;
      }

      .cls-23 {
        stroke-width: 1.9px;
      }

      .cls-24 {
        clip-path: url(#clip-path-11);
      }

      .cls-25 {
        stroke-width: 0.585px;
      }

      .cls-26 {
        stroke-width: 1.95px;
      }

      .cls-27 {
        fill: #00a651;
      }

      .cls-28 {
        fill: #50b848;
      }

      .cls-29 {
        fill: #bfd730;
      }

      .cls-30 {
        fill: #fdb913;
      }

      .cls-31 {
        fill: #f37021;
      }

      .cls-32 {
        fill: #ed1c24;
      }

      .cls-33 {
        font-size: 19.4158px;
      }

      .cls-33, .cls-34, .cls-38, .cls-39, .cls-41, .cls-42, .cls-43 {
        font-family: Calibri-Bold, Calibri;
      }

      .cls-33, .cls-34, .cls-37, .cls-38, .cls-39, .cls-41, .cls-42, .cls-43 {
        font-weight: 700;
      }

      .cls-34 {
        font-size: 13.2845px;
      }

      .cls-35 {
        letter-spacing: 0.01em;
      }

      .cls-36 {
        clip-path: url(#clip-path-13);
      }

      .cls-37 {
        font-size: 18.3939px;
        font-family: MyriadPro-Bold, Myriad Pro;
      }

      .cls-38, .cls-44 {
        font-size: 12px;
      }

      .cls-39 {
        font-size: 29px;
      }

      .cls-40 {
        font-size: 18px;
      }

      .cls-41 {
        font-size: 37px;
      }

      .cls-42 {
        font-size: 24px;
      }

      .cls-43 {
        font-size: 16.5px;
      }
    </style>
    <clipPath id="clip-path">
      <rect class="cls-1" y="-0.00201" width="311.811" height="623.62201"/>
    </clipPath>
    <clipPath id="clip-path-3">
      <rect class="cls-1" x="25.512" y="25.508" width="260.78698" height="51.02502"/>
    </clipPath>
    <clipPath id="clip-path-5">
      <rect class="cls-1" x="31.451" y="489.825" width="43.158" height="43.157"/>
    </clipPath>
    <clipPath id="clip-path-7">
      <rect class="cls-1" x="243.998" y="487.55701" width="27.62401" height="46.61299"/>
    </clipPath>
    <clipPath id="clip-path-9">
      <rect class="cls-1" x="100.022" y="491.606" width="46.09601" height="45.75999"/>
    </clipPath>
    <clipPath id="clip-path-11">
      <rect class="cls-1" x="166.43401" y="496.061" width="46.77" height="34.016"/>
    </clipPath>
    <clipPath id="clip-path-13">
      <rect class="cls-1" x="25.132" y="157.32098" width="197.24401" height="168.02301"/>
    </clipPath>
  </defs>
  <title>dishwashers</title>
  <g class="cls-2">
    <path class="cls-3" d="M26.5945,16.67108s-9.921,0-9.921,9.921v570.433s0,9.922,9.921,9.922h258.622s9.921,0,9.921-9.922V26.5921s0-9.921-9.921-9.921Z"/>
    <path class="cls-4" d="M36.4331,482.8877s-9.921,0-9.921,9.921v80.205s0,9.921,9.921,9.921h39.132s9.921,0,9.921-9.921v-80.205s0-9.921-9.921-9.921Z"/>
    <path class="cls-4" d="M170.1143,482.8877s-9.921,0-9.921,9.921v80.205s0,9.921,9.921,9.921h39.132s9.921,0,9.921-9.921v-80.205s0-9.921-9.921-9.921Z"/>
    <path class="cls-4" d="M103.2737,482.8877s-9.921,0-9.921,9.921v80.205s0,9.921,9.921,9.921h39.132s9.921,0,9.921-9.921v-80.205s0-9.921-9.921-9.921Z"/>
    <path class="cls-4" d="M236.955,482.8877s-9.921,0-9.921,9.921v80.205s0,9.921,9.921,9.921h39.132s9.921,0,9.921-9.921v-80.205s0-9.921-9.921-9.921Z"/>
  </g>
  <g class="cls-2">
    <path class="cls-4" d="M195.10789,402.35739s-9.921,0-9.921,9.921v51.601s0,9.922,9.921,9.922h80.979s9.921,0,9.921-9.922v-51.601s0-9.921-9.921-9.921Z"/>
    <path class="cls-6" d="M56.1398,458.84421a.13258.13258,0,0,0-.022-.075.13542.13542,0,0,0-.075-.051.77225.77225,0,0,0-.142-.033,1.54631,1.54631,0,0,0-.223-.013,1.45464,1.45464,0,0,0-.213.013.85637.85637,0,0,0-.145.033.15453.15453,0,0,0-.08.051.12015.12015,0,0,0-.024.075v6.671a.1367.1367,0,0,0,.021.075.15067.15067,0,0,0,.075.051.89351.89351,0,0,0,.145.032,1.76586,1.76586,0,0,0,.444,0,.87194.87194,0,0,0,.142-.032.14621.14621,0,0,0,.075-.051.13745.13745,0,0,0,.022-.075Zm-2.63.542a.37325.37325,0,0,0-.097-.161,1.49944,1.49944,0,0,0-.255-.18,2.573,2.573,0,0,0-.457-.204,4.71535,4.71535,0,0,0-.62-.164,3.85163,3.85163,0,0,0-.747-.07,3.67921,3.67921,0,0,0-1.409.261,3.14567,3.14567,0,0,0-1.091.733,3.2818,3.2818,0,0,0-.703,1.144,4.6085,4.6085,0,0,0-.019,2.938,3.12276,3.12276,0,0,0,.668,1.107,2.92652,2.92652,0,0,0,1.072.711,3.88729,3.88729,0,0,0,1.439.25,4.46647,4.46647,0,0,0,1.064-.129,4.70957,4.70957,0,0,0,.51-.156,4.12009,4.12009,0,0,0,.403-.169.41926.41926,0,0,0,.204-.18.56157.56157,0,0,0,.048-.242v-2.647a.53152.53152,0,0,0-.026-.172.28126.28126,0,0,0-.076-.119.3349.3349,0,0,0-.107-.064.34992.34992,0,0,0-.118-.021h-2.208a.14212.14212,0,0,0-.08.021.1746.1746,0,0,0-.057.067.40344.40344,0,0,0-.035.118,1.26228,1.26228,0,0,0-.01.175.67929.67929,0,0,0,.045.285.14777.14777,0,0,0,.137.091h1.612v2.025a2.40589,2.40589,0,0,1-.615.233,2.84015,2.84015,0,0,1-.653.078,2.65489,2.65489,0,0,1-.996-.182,2.14624,2.14624,0,0,1-.782-.537,2.54021,2.54021,0,0,1-.513-.871,3.7871,3.7871,0,0,1-.016-2.288,2.59916,2.59916,0,0,1,.486-.88,2.213,2.213,0,0,1,.774-.581,2.4537,2.4537,0,0,1,1.031-.209,3.0173,3.0173,0,0,1,.835.102,3.68555,3.68555,0,0,1,.604.226,3.281,3.281,0,0,1,.403.225.48521.48521,0,0,0,.215.102.12735.12735,0,0,0,.07-.021.172.172,0,0,0,.054-.073.52707.52707,0,0,0,.032-.129,1.35712,1.35712,0,0,0,.011-.18.98271.98271,0,0,0-.027-.263m-7.866,1.714a.97281.97281,0,0,1-.261.373,1.23979,1.23979,0,0,1-.443.247,2.00059,2.00059,0,0,1-.631.089h-.902v-2.342h.779c.182,0,.33.005.443.016a1.77024,1.77024,0,0,1,.303.054,1.02486,1.02486,0,0,1,.612.405,1.24094,1.24094,0,0,1,.183.69,1.297,1.297,0,0,1-.083.468m1.453,4.294c-.015-.052-.047-.143-.097-.271l-.623-1.531c-.072-.176-.143-.333-.215-.473a2.60942,2.60942,0,0,0-.228-.37,1.61381,1.61381,0,0,0-.261-.277,1.31233,1.31233,0,0,0-.311-.191,2.691,2.691,0,0,0,.553-.263,1.776,1.776,0,0,0,.424-.368,1.497,1.497,0,0,0,.272-.489,2.11939,2.11939,0,0,0-.011-1.283,1.548,1.548,0,0,0-.314-.529,1.70639,1.70639,0,0,0-.519-.382,2.68464,2.68464,0,0,0-.711-.22c-.093-.011-.198-.021-.315-.029-.116-.009-.262-.014-.437-.014h-1.477a.38253.38253,0,0,0-.234.083.34717.34717,0,0,0-.11.293v6.435a.1367.1367,0,0,0,.021.075.154.154,0,0,0,.076.051.84775.84775,0,0,0,.142.032,1.78177,1.78177,0,0,0,.446,0,.78149.78149,0,0,0,.139-.032.17523.17523,0,0,0,.076-.051.1243.1243,0,0,0,.024-.075v-2.96h.617a1.419,1.419,0,0,1,.543.094,1.20125,1.20125,0,0,1,.392.263,1.63423,1.63423,0,0,1,.287.403q.1215.234.234.513l.639,1.638a.4173.4173,0,0,0,.051.108.20545.20545,0,0,0,.083.067.50573.50573,0,0,0,.143.035,1.98958,1.98958,0,0,0,.228.011,2.49555,2.49555,0,0,0,.258-.011.61148.61148,0,0,0,.15-.032.13159.13159,0,0,0,.07-.054.16529.16529,0,0,0,.016-.075.49983.49983,0,0,0-.021-.121m-5.964-.301a.32179.32179,0,0,0-.037-.118.18458.18458,0,0,0-.062-.067.13924.13924,0,0,0-.078-.022h-2.755v-2.487h2.331a.17211.17211,0,0,0,.078-.018.15416.15416,0,0,0,.059-.062.3591.3591,0,0,0,.035-.113,1.13694,1.13694,0,0,0,.01-.166,1.31873,1.31873,0,0,0-.01-.178.36856.36856,0,0,0-.035-.118.19406.19406,0,0,0-.059-.067.13781.13781,0,0,0-.078-.024h-2.331v-2.181h2.717a.14693.14693,0,0,0,.078-.021.15827.15827,0,0,0,.057-.067.51618.51618,0,0,0,.035-.119.929.929,0,0,0,.013-.169,1.02189,1.02189,0,0,0-.013-.18.5875.5875,0,0,0-.035-.121.14784.14784,0,0,0-.057-.069.13926.13926,0,0,0-.078-.022h-3.297a.38253.38253,0,0,0-.234.083.34717.34717,0,0,0-.11.293v6.198a.34589.34589,0,0,0,.11.293.37639.37639,0,0,0,.234.083h3.335a.14711.14711,0,0,0,.078-.021.18769.18769,0,0,0,.062-.07.35223.35223,0,0,0,.037-.121,1.18744,1.18744,0,0,0,.011-.169,1.27213,1.27213,0,0,0-.011-.18m-5.655-6.233a.122.122,0,0,0-.023-.07.18694.18694,0,0,0-.074-.056.46482.46482,0,0,0-.142-.035,1.88392,1.88392,0,0,0-.215-.011,1.9861,1.9861,0,0,0-.229.011.49792.49792,0,0,0-.142.035.19211.19211,0,0,0-.077.056.12082.12082,0,0,0-.022.07v3.77q0,.42451.002.884c.002.306.007.601.014.883h-.006q-.1245-.252-.251-.502-.1275-.249-.257-.507-.1305-.258-.27-.524c-.094-.177-.19-.359-.291-.545l-1.63-3.051a2.47507,2.47507,0,0,0-.168-.277.77847.77847,0,0,0-.167-.171.54639.54639,0,0,0-.194-.089,1.13329,1.13329,0,0,0-.269-.027h-.454a.439.439,0,0,0-.266.091.357.357,0,0,0-.122.307v6.413a.12922.12922,0,0,0,.022.072.14784.14784,0,0,0,.074.054.78149.78149,0,0,0,.139.032,1.50354,1.50354,0,0,0,.224.014,1.52281,1.52281,0,0,0,.224-.014.88179.88179,0,0,0,.141-.032.14822.14822,0,0,0,.077-.054.12922.12922,0,0,0,.022-.072v-4.195c0-.265-.001-.532-.005-.8q-.006-.40348-.016-.79h.011c.097.211.201.429.314.653.113.223.224.437.335.641l2.121,3.954a2.68687,2.68687,0,0,0,.206.343,1.04425,1.04425,0,0,0,.194.212.57584.57584,0,0,0,.206.108.99473.99473,0,0,0,.253.029h.305a.51244.51244,0,0,0,.144-.021.36121.36121,0,0,0,.131-.07.3537.3537,0,0,0,.094-.123.42322.42322,0,0,0,.037-.183Zm-6.603,6.233a.32129.32129,0,0,0-.038-.118.18272.18272,0,0,0-.061-.067.14393.14393,0,0,0-.078-.022h-2.756v-2.487h2.331a.16621.16621,0,0,0,.078-.018.14788.14788,0,0,0,.059-.062.31388.31388,0,0,0,.035-.113,1.12327,1.12327,0,0,0,.011-.166,1.30365,1.30365,0,0,0-.011-.178.32405.32405,0,0,0-.035-.118.18444.18444,0,0,0-.059-.067.13328.13328,0,0,0-.078-.024h-2.331v-2.181h2.718a.14693.14693,0,0,0,.078-.021.15643.15643,0,0,0,.056-.067.471.471,0,0,0,.035-.119.92134.92134,0,0,0,.014-.169,1.01158,1.01158,0,0,0-.014-.18.53117.53117,0,0,0-.035-.121.14631.14631,0,0,0-.056-.069.13926.13926,0,0,0-.078-.022h-3.298a.38193.38193,0,0,0-.233.083.34431.34431,0,0,0-.11.293v6.198a.343.343,0,0,0,.11.293.37576.37576,0,0,0,.233.083h3.336a.15222.15222,0,0,0,.078-.021.186.186,0,0,0,.061-.07.35185.35185,0,0,0,.038-.121,1.18744,1.18744,0,0,0,.011-.169,1.27213,1.27213,0,0,0-.011-.18"/>
    <path class="cls-6" d="M155.7448,452.0932a.34209.34209,0,0,0-.037-.118.18465.18465,0,0,0-.062-.067.144.144,0,0,0-.078-.022h-2.755v-2.487h2.331a.16508.16508,0,0,0,.077-.018.15605.15605,0,0,0,.06-.062.33626.33626,0,0,0,.034-.113,1.00255,1.00255,0,0,0,.011-.166,1.16227,1.16227,0,0,0-.011-.178.34664.34664,0,0,0-.034-.118.19626.19626,0,0,0-.06-.067.13249.13249,0,0,0-.077-.024h-2.331v-2.181h2.717a.14693.14693,0,0,0,.078-.021.1655.1655,0,0,0,.057-.067.52025.52025,0,0,0,.034-.119.92142.92142,0,0,0,.014-.169,1.01168,1.01168,0,0,0-.014-.18.59144.59144,0,0,0-.034-.121.1539.1539,0,0,0-.057-.069.13926.13926,0,0,0-.078-.022h-3.298a.382.382,0,0,0-.233.083.34431.34431,0,0,0-.11.293v6.198a.343.343,0,0,0,.11.293.37578.37578,0,0,0,.233.083h3.336a.15226.15226,0,0,0,.078-.021.18776.18776,0,0,0,.062-.07.37566.37566,0,0,0,.037-.121,1.18917,1.18917,0,0,0,.011-.169,1.274,1.274,0,0,0-.011-.18m-5.653-6.249a.13258.13258,0,0,0-.022-.075.13543.13543,0,0,0-.075-.051.77252.77252,0,0,0-.142-.033,1.5366,1.5366,0,0,0-.223-.013,1.4308,1.4308,0,0,0-.212.013.812.812,0,0,0-.145.033.15359.15359,0,0,0-.081.051.12021.12021,0,0,0-.024.075v6.671a.13662.13662,0,0,0,.021.075.15536.15536,0,0,0,.075.051.8936.8936,0,0,0,.145.032,1.53762,1.53762,0,0,0,.221.014,1.51737,1.51737,0,0,0,.223-.014.87225.87225,0,0,0,.142-.032.14622.14622,0,0,0,.075-.051.13746.13746,0,0,0,.022-.075Zm-2.63.542a.37325.37325,0,0,0-.097-.161,1.4191,1.4191,0,0,0-.255-.18,2.573,2.573,0,0,0-.457-.204,4.71535,4.71535,0,0,0-.62-.164,3.85153,3.85153,0,0,0-.747-.07,3.6793,3.6793,0,0,0-1.409.261,3.14563,3.14563,0,0,0-1.091.733,3.28182,3.28182,0,0,0-.703,1.144,4.6084,4.6084,0,0,0-.019,2.938,3.11044,3.11044,0,0,0,.669,1.107,2.92258,2.92258,0,0,0,1.071.711,3.89274,3.89274,0,0,0,1.44.25,4.46634,4.46634,0,0,0,1.063-.129,4.64153,4.64153,0,0,0,.51-.156,4.12009,4.12009,0,0,0,.403-.169.41938.41938,0,0,0,.204-.18.56134.56134,0,0,0,.049-.242v-2.647a.50489.50489,0,0,0-.027-.172.28125.28125,0,0,0-.076-.119.33516.33516,0,0,0-.107-.064.34992.34992,0,0,0-.118-.021h-2.208a.14205.14205,0,0,0-.08.021.18346.18346,0,0,0-.057.067.40344.40344,0,0,0-.035.118,1.26384,1.26384,0,0,0-.01.175.67929.67929,0,0,0,.045.285.14777.14777,0,0,0,.137.091h1.612v2.025a2.406,2.406,0,0,1-.615.233,2.84021,2.84021,0,0,1-.653.078,2.65489,2.65489,0,0,1-.996-.182,2.14633,2.14633,0,0,1-.782-.537,2.54006,2.54006,0,0,1-.513-.871,3.7871,3.7871,0,0,1-.016-2.288,2.59916,2.59916,0,0,1,.486-.88,2.222,2.222,0,0,1,.774-.581,2.45366,2.45366,0,0,1,1.031-.209,3.01735,3.01735,0,0,1,.835.102,3.68569,3.68569,0,0,1,.604.226,3.28248,3.28248,0,0,1,.403.225.48514.48514,0,0,0,.215.102.12727.12727,0,0,0,.07-.021.17182.17182,0,0,0,.054-.073.52665.52665,0,0,0,.032-.129,1.35542,1.35542,0,0,0,.011-.18.98237.98237,0,0,0-.027-.263m-7.866,1.714a.962.962,0,0,1-.261.373,1.23112,1.23112,0,0,1-.443.247,2.00052,2.00052,0,0,1-.631.089h-.902v-2.342h.779c.182,0,.33.005.443.016a1.75286,1.75286,0,0,1,.303.054,1.03056,1.03056,0,0,1,.613.405,1.249,1.249,0,0,1,.182.69,1.297,1.297,0,0,1-.083.468m1.453,4.294c-.015-.052-.047-.143-.097-.271l-.623-1.531c-.072-.176-.143-.333-.215-.473a2.60849,2.60849,0,0,0-.228-.37,1.61381,1.61381,0,0,0-.261-.277,1.31247,1.31247,0,0,0-.311-.191,2.69087,2.69087,0,0,0,.553-.263,1.77618,1.77618,0,0,0,.424-.368,1.497,1.497,0,0,0,.272-.489,2.11959,2.11959,0,0,0-.011-1.283,1.54789,1.54789,0,0,0-.314-.529,1.70647,1.70647,0,0,0-.519-.382,2.68487,2.68487,0,0,0-.711-.22c-.093-.011-.198-.021-.314-.029-.117-.009-.263-.014-.438-.014h-1.477a.38256.38256,0,0,0-.234.083.3472.3472,0,0,0-.11.293v6.435a.13663.13663,0,0,0,.021.075.15393.15393,0,0,0,.076.051.84805.84805,0,0,0,.142.032,1.78177,1.78177,0,0,0,.446,0,.78156.78156,0,0,0,.139-.032.1694.1694,0,0,0,.076-.051.12438.12438,0,0,0,.024-.075v-2.96h.617a1.41891,1.41891,0,0,1,.543.094,1.20133,1.20133,0,0,1,.392.263,1.63443,1.63443,0,0,1,.287.403q.12151.234.234.513l.639,1.638a.45194.45194,0,0,0,.051.108.20521.20521,0,0,0,.083.067.50564.50564,0,0,0,.143.035,1.98945,1.98945,0,0,0,.228.011,2.48188,2.48188,0,0,0,.258-.011.61168.61168,0,0,0,.15-.032.1316.1316,0,0,0,.07-.054.16529.16529,0,0,0,.016-.075.50021.50021,0,0,0-.021-.121m-5.964-.301a.3216.3216,0,0,0-.037-.118.18458.18458,0,0,0-.062-.067.13929.13929,0,0,0-.078-.022h-2.755v-2.487h2.331a.172.172,0,0,0,.078-.018.154.154,0,0,0,.059-.062.35858.35858,0,0,0,.035-.113,1.13554,1.13554,0,0,0,.01-.166,1.31709,1.31709,0,0,0-.01-.178.368.368,0,0,0-.035-.118.19388.19388,0,0,0-.059-.067.1377.1377,0,0,0-.078-.024h-2.331v-2.181h2.717a.14686.14686,0,0,0,.078-.021.15822.15822,0,0,0,.057-.067.51667.51667,0,0,0,.035-.119.928.928,0,0,0,.013-.169,1.02082,1.02082,0,0,0-.013-.18.58812.58812,0,0,0-.035-.121.1478.1478,0,0,0-.057-.069.13919.13919,0,0,0-.078-.022h-3.297a.38253.38253,0,0,0-.234.083.34717.34717,0,0,0-.11.293v6.198a.34589.34589,0,0,0,.11.293.37639.37639,0,0,0,.234.083h3.335a.14716.14716,0,0,0,.078-.021.18769.18769,0,0,0,.062-.07.352.352,0,0,0,.037-.121,1.186,1.186,0,0,0,.011-.169,1.27063,1.27063,0,0,0-.011-.18m-5.655-6.233a.122.122,0,0,0-.023-.07.1869.1869,0,0,0-.074-.056.46519.46519,0,0,0-.141-.035,1.91592,1.91592,0,0,0-.216-.011,1.98571,1.98571,0,0,0-.229.011.49774.49774,0,0,0-.142.035.19208.19208,0,0,0-.077.056.12083.12083,0,0,0-.022.07v3.77q0,.42451.002.884c.002.306.007.601.014.883h-.005c-.084-.168-.167-.335-.252-.502q-.1275-.249-.257-.507-.13052-.258-.27-.524c-.094-.177-.19-.359-.291-.545l-1.63-3.051a2.47507,2.47507,0,0,0-.168-.277.77847.77847,0,0,0-.167-.171.54647.54647,0,0,0-.194-.089,1.13338,1.13338,0,0,0-.269-.027h-.454a.439.439,0,0,0-.266.091.357.357,0,0,0-.122.307v6.413a.12921.12921,0,0,0,.022.072.14782.14782,0,0,0,.074.054.78106.78106,0,0,0,.139.032,1.50345,1.50345,0,0,0,.224.014,1.52267,1.52267,0,0,0,.224-.014.88179.88179,0,0,0,.141-.032.14821.14821,0,0,0,.077-.054.13047.13047,0,0,0,.023-.072v-4.195q0-.3975-.006-.8c-.003-.269-.009-.532-.016-.79h.011q.1455.3165.314.653c.113.223.224.437.335.641l2.121,3.954a2.68565,2.68565,0,0,0,.206.343,1.07287,1.07287,0,0,0,.194.212.57555.57555,0,0,0,.206.108.99487.99487,0,0,0,.253.029h.305a.52458.52458,0,0,0,.145-.021.36408.36408,0,0,0,.225-.193.42341.42341,0,0,0,.036-.183Zm-6.603,6.233a.32166.32166,0,0,0-.038-.118.18274.18274,0,0,0-.061-.067.14387.14387,0,0,0-.078-.022h-2.756v-2.487h2.331a.16628.16628,0,0,0,.078-.018.14786.14786,0,0,0,.059-.062.31406.31406,0,0,0,.035-.113,1.12477,1.12477,0,0,0,.011-.166,1.30541,1.30541,0,0,0-.011-.178.32424.32424,0,0,0-.035-.118.18442.18442,0,0,0-.059-.067.13333.13333,0,0,0-.078-.024h-2.331v-2.181h2.718a.147.147,0,0,0,.078-.021.1565.1565,0,0,0,.056-.067.47061.47061,0,0,0,.035-.119.92134.92134,0,0,0,.014-.169,1.01158,1.01158,0,0,0-.014-.18.53069.53069,0,0,0-.035-.121.14637.14637,0,0,0-.056-.069.13931.13931,0,0,0-.078-.022h-3.298a.38191.38191,0,0,0-.233.083.34431.34431,0,0,0-.11.293v6.198a.34305.34305,0,0,0,.11.293.37574.37574,0,0,0,.233.083h3.336a.15216.15216,0,0,0,.078-.021.186.186,0,0,0,.061-.07.35228.35228,0,0,0,.038-.121,1.189,1.189,0,0,0,.011-.169,1.27381,1.27381,0,0,0-.011-.18m-8.202-3.07a.62658.62658,0,0,0-.445-.123.64915.64915,0,0,0-.46.126.7368.7368,0,0,0-.126.508.7125.7125,0,0,0,.124.494.62656.62656,0,0,0,.445.123.6492.6492,0,0,0,.46-.126.73554.73554,0,0,0,.126-.507.71377.71377,0,0,0-.124-.495m-4.587-2.991a.7836.7836,0,0,0,.073-.188.10605.10605,0,0,0-.03-.108.28825.28825,0,0,0-.153-.051,2.64287,2.64287,0,0,0-.303-.013,1.85431,1.85431,0,0,0-.231.011.67012.67012,0,0,0-.142.029.18618.18618,0,0,0-.081.057.26866.26866,0,0,0-.046.091l-.966,2.009c-.09.197-.178.396-.265.599-.088.202-.172.405-.254.609h-.011c-.092-.211-.183-.421-.272-.628q-.13352-.312-.267-.596l-.962-1.999a.44617.44617,0,0,0-.056-.088.19307.19307,0,0,0-.089-.054.86814.86814,0,0,0-.158-.029,2.29638,2.29638,0,0,0-.261-.011,2.64737,2.64737,0,0,0-.282.011.25548.25548,0,0,0-.145.048.11041.11041,0,0,0-.026.107.84454.84454,0,0,0,.072.194l1.966,3.921v2.562a.13669.13669,0,0,0,.021.075.14748.14748,0,0,0,.078.051.92911.92911,0,0,0,.144.032,1.73431,1.73431,0,0,0,.44,0,.83172.83172,0,0,0,.144-.032.1462.1462,0,0,0,.075-.051.1296.1296,0,0,0,.022-.075v-2.562Zm-5.939.354a.37305.37305,0,0,0-.097-.161,1.45781,1.45781,0,0,0-.255-.18,2.57313,2.57313,0,0,0-.457-.204,4.71535,4.71535,0,0,0-.62-.164,3.85156,3.85156,0,0,0-.747-.07,3.67925,3.67925,0,0,0-1.409.261,3.14567,3.14567,0,0,0-1.091.733,3.28193,3.28193,0,0,0-.703,1.144,4.60859,4.60859,0,0,0-.019,2.938,3.11063,3.11063,0,0,0,.669,1.107,2.91421,2.91421,0,0,0,1.071.711,3.891,3.891,0,0,0,1.439.25,4.46631,4.46631,0,0,0,1.064-.129,4.70906,4.70906,0,0,0,.51-.156,4.12115,4.12115,0,0,0,.403-.169.41928.41928,0,0,0,.204-.18.56142.56142,0,0,0,.048-.242v-2.647a.50568.50568,0,0,0-.026-.172.28125.28125,0,0,0-.076-.119.335.335,0,0,0-.107-.064.35.35,0,0,0-.118-.021h-2.208a.14206.14206,0,0,0-.08.021.17462.17462,0,0,0-.057.067.40375.40375,0,0,0-.035.118,1.26228,1.26228,0,0,0-.01.175.67929.67929,0,0,0,.045.285.14778.14778,0,0,0,.137.091h1.612v2.025a2.40575,2.40575,0,0,1-.615.233,2.84008,2.84008,0,0,1-.653.078,2.65489,2.65489,0,0,1-.996-.182,2.14641,2.14641,0,0,1-.782-.537,2.54021,2.54021,0,0,1-.513-.871,3.78731,3.78731,0,0,1-.016-2.288,2.59933,2.59933,0,0,1,.486-.88,2.22213,2.22213,0,0,1,.774-.581,2.45366,2.45366,0,0,1,1.031-.209,3.0173,3.0173,0,0,1,.835.102,3.686,3.686,0,0,1,.604.226,3.28172,3.28172,0,0,1,.403.225.48519.48519,0,0,0,.215.102.1273.1273,0,0,0,.07-.021.17189.17189,0,0,0,.054-.073.52662.52662,0,0,0,.032-.129,1.35542,1.35542,0,0,0,.011-.18.98271.98271,0,0,0-.027-.263m-7.866,1.714a.96207.96207,0,0,1-.261.373,1.2397,1.2397,0,0,1-.443.247,2.00057,2.00057,0,0,1-.631.089h-.902v-2.342h.779c.182,0,.33.005.443.016a1.75281,1.75281,0,0,1,.303.054,1.02489,1.02489,0,0,1,.612.405,1.241,1.241,0,0,1,.183.69,1.297,1.297,0,0,1-.083.468m1.453,4.294c-.015-.052-.047-.143-.097-.271l-.623-1.531c-.072-.176-.143-.333-.215-.473a2.61032,2.61032,0,0,0-.228-.37,1.61381,1.61381,0,0,0-.261-.277,1.31239,1.31239,0,0,0-.311-.191,2.691,2.691,0,0,0,.553-.263,1.77623,1.77623,0,0,0,.424-.368,1.497,1.497,0,0,0,.272-.489,2.11949,2.11949,0,0,0-.011-1.283,1.54807,1.54807,0,0,0-.314-.529,1.70647,1.70647,0,0,0-.519-.382,2.6846,2.6846,0,0,0-.711-.22c-.093-.011-.198-.021-.314-.029-.117-.009-.263-.014-.438-.014h-1.477a.38253.38253,0,0,0-.234.083.3472.3472,0,0,0-.11.293v6.435a.1367.1367,0,0,0,.021.075.154.154,0,0,0,.076.051.848.848,0,0,0,.142.032,1.78185,1.78185,0,0,0,.446,0,.7817.7817,0,0,0,.139-.032.16936.16936,0,0,0,.076-.051.12431.12431,0,0,0,.024-.075v-2.96h.617a1.419,1.419,0,0,1,.543.094,1.20125,1.20125,0,0,1,.392.263,1.63423,1.63423,0,0,1,.287.403q.1215.234.234.513l.639,1.638a.417.417,0,0,0,.051.108.20531.20531,0,0,0,.083.067.50565.50565,0,0,0,.143.035,1.9897,1.9897,0,0,0,.228.011,2.49555,2.49555,0,0,0,.258-.011.61157.61157,0,0,0,.15-.032.13167.13167,0,0,0,.07-.054.16528.16528,0,0,0,.016-.075.49983.49983,0,0,0-.021-.121m-5.964-.301a.3216.3216,0,0,0-.037-.118.18466.18466,0,0,0-.062-.067.13927.13927,0,0,0-.078-.022h-2.755v-2.487h2.331a.17211.17211,0,0,0,.078-.018.15422.15422,0,0,0,.059-.062.35886.35886,0,0,0,.035-.113,1.1354,1.1354,0,0,0,.01-.166,1.31694,1.31694,0,0,0-.01-.178.36832.36832,0,0,0-.035-.118.19416.19416,0,0,0-.059-.067.13781.13781,0,0,0-.078-.024h-2.331v-2.181h2.717a.14687.14687,0,0,0,.078-.021.1582.1582,0,0,0,.057-.067.51663.51663,0,0,0,.035-.119.929.929,0,0,0,.013-.169,1.02189,1.02189,0,0,0-.013-.18.58808.58808,0,0,0-.035-.121.14779.14779,0,0,0-.057-.069.1392.1392,0,0,0-.078-.022h-3.297a.38251.38251,0,0,0-.234.083.34714.34714,0,0,0-.11.293v6.198a.34586.34586,0,0,0,.11.293.37637.37637,0,0,0,.234.083h3.335a.14714.14714,0,0,0,.078-.021.18778.18778,0,0,0,.062-.07.352.352,0,0,0,.037-.121,1.18585,1.18585,0,0,0,.011-.169,1.27045,1.27045,0,0,0-.011-.18m-5.655-6.233a.122.122,0,0,0-.023-.07.1869.1869,0,0,0-.074-.056.46535.46535,0,0,0-.141-.035,1.91592,1.91592,0,0,0-.216-.011,1.986,1.986,0,0,0-.229.011.49783.49783,0,0,0-.142.035.19215.19215,0,0,0-.077.056.12088.12088,0,0,0-.022.07v3.77q0,.42451.002.884c.002.306.007.601.014.883h-.005c-.084-.168-.167-.335-.252-.502q-.12749-.249-.257-.507-.13052-.258-.27-.524c-.094-.177-.19-.359-.291-.545l-1.63-3.051a2.47507,2.47507,0,0,0-.168-.277.77847.77847,0,0,0-.167-.171.54639.54639,0,0,0-.194-.089,1.13338,1.13338,0,0,0-.269-.027h-.454a.439.439,0,0,0-.266.091.357.357,0,0,0-.122.307v6.413a.12921.12921,0,0,0,.022.072.14787.14787,0,0,0,.074.054.78127.78127,0,0,0,.139.032,1.50345,1.50345,0,0,0,.224.014,1.52291,1.52291,0,0,0,.224-.014.88164.88164,0,0,0,.141-.032.14821.14821,0,0,0,.077-.054.13047.13047,0,0,0,.023-.072v-4.195q0-.3975-.006-.8c-.003-.269-.009-.532-.016-.79h.011q.1455.3165.314.653c.113.223.224.437.335.641l2.121,3.954a2.68456,2.68456,0,0,0,.206.343,1.07347,1.07347,0,0,0,.194.212.57576.57576,0,0,0,.206.108.99473.99473,0,0,0,.253.029h.305a.52456.52456,0,0,0,.145-.021.36414.36414,0,0,0,.225-.193.42356.42356,0,0,0,.036-.183Zm-6.603,6.233a.32166.32166,0,0,0-.038-.118.1828.1828,0,0,0-.061-.067.14393.14393,0,0,0-.078-.022h-2.756v-2.487h2.331a.16628.16628,0,0,0,.078-.018.1478.1478,0,0,0,.059-.062.31406.31406,0,0,0,.035-.113,1.12477,1.12477,0,0,0,.011-.166,1.30541,1.30541,0,0,0-.011-.178.32424.32424,0,0,0-.035-.118.18433.18433,0,0,0-.059-.067.13333.13333,0,0,0-.078-.024h-2.331v-2.181h2.718a.147.147,0,0,0,.078-.021.1565.1565,0,0,0,.056-.067.47061.47061,0,0,0,.035-.119.92046.92046,0,0,0,.014-.169,1.01064,1.01064,0,0,0-.014-.18.53069.53069,0,0,0-.035-.121.14637.14637,0,0,0-.056-.069.13931.13931,0,0,0-.078-.022h-3.298a.38191.38191,0,0,0-.233.083.34431.34431,0,0,0-.11.293v6.198a.343.343,0,0,0,.11.293.37574.37574,0,0,0,.233.083h3.336a.15222.15222,0,0,0,.078-.021.18608.18608,0,0,0,.061-.07.35228.35228,0,0,0,.038-.121,1.189,1.189,0,0,0,.011-.169,1.27381,1.27381,0,0,0-.011-.18m-8.202-3.07a.62661.62661,0,0,0-.445-.123.6492.6492,0,0,0-.46.126.7368.7368,0,0,0-.126.508.7125.7125,0,0,0,.124.494.62656.62656,0,0,0,.445.123.6492.6492,0,0,0,.46-.126.73548.73548,0,0,0,.126-.507.71377.71377,0,0,0-.124-.495m-6.343,1.069h-2.417l1.198-3.464h.005Zm-.553-4.221a.28209.28209,0,0,0-.059-.1.24436.24436,0,0,0-.108-.062.834.834,0,0,0-.182-.029c-.075-.005-.17-.008-.285-.008-.107,0-.196.003-.266.008a.773.773,0,0,0-.172.029.2508.2508,0,0,0-.102.06.2796.2796,0,0,0-.056.096l-2.331,6.456a.668.668,0,0,0-.046.191.1351.1351,0,0,0,.038.11.256.256,0,0,0,.139.051,1.96806,1.96806,0,0,0,.256.014,2.26905,2.26905,0,0,0,.244-.011.47164.47164,0,0,0,.145-.035.21114.21114,0,0,0,.078-.059.28305.28305,0,0,0,.043-.083l.569-1.671h2.89l.596,1.692a.43221.43221,0,0,0,.046.081.16577.16577,0,0,0,.075.051.61356.61356,0,0,0,.15.026c.066.006.155.009.266.009a2.62823,2.62823,0,0,0,.266-.011.24837.24837,0,0,0,.142-.049.13207.13207,0,0,0,.041-.11.65522.65522,0,0,0-.046-.19Zm-4.607-.033a.11134.11134,0,0,0-.024-.069.17906.17906,0,0,0-.076-.054.54592.54592,0,0,0-.142-.032,2.2355,2.2355,0,0,0-.443,0,.57745.57745,0,0,0-.142.032.157.157,0,0,0-.076.054.12181.12181,0,0,0-.021.069v4.974a2.99819,2.99819,0,0,1-.043.567.92078.92078,0,0,1-.129.341.43464.43464,0,0,1-.215.169.94869.94869,0,0,1-.311.046.93088.93088,0,0,1-.29-.041,1.5188,1.5188,0,0,1-.218-.088c-.063-.033-.116-.062-.161-.089a.231.231,0,0,0-.11-.04.13016.13016,0,0,0-.073.019.1566.1566,0,0,0-.051.064.39.39,0,0,0-.029.124,1.77879,1.77879,0,0,0-.008.196c0,.064.001.119.005.163a.58638.58638,0,0,0,.019.113.31567.31567,0,0,0,.032.078.45138.45138,0,0,0,.048.065.45856.45856,0,0,0,.121.077,1.54687,1.54687,0,0,0,.215.086,1.79239,1.79239,0,0,0,.271.065,1.86062,1.86062,0,0,0,.298.024,1.82626,1.82626,0,0,0,.739-.132,1.18813,1.18813,0,0,0,.481-.373,1.50437,1.50437,0,0,0,.258-.585,3.56027,3.56027,0,0,0,.075-.758Zm-3.619.006a.13258.13258,0,0,0-.022-.075.13542.13542,0,0,0-.075-.051.77225.77225,0,0,0-.142-.033,1.54631,1.54631,0,0,0-.223-.013,1.45464,1.45464,0,0,0-.213.013.85637.85637,0,0,0-.145.033.15453.15453,0,0,0-.08.051.12015.12015,0,0,0-.024.075v6.671a.1367.1367,0,0,0,.021.075.15067.15067,0,0,0,.075.051.89351.89351,0,0,0,.145.032,1.76586,1.76586,0,0,0,.444,0,.87194.87194,0,0,0,.142-.032.14621.14621,0,0,0,.075-.051.13745.13745,0,0,0,.022-.075Zm-2.63.542a.37325.37325,0,0,0-.097-.161,1.49944,1.49944,0,0,0-.255-.18,2.573,2.573,0,0,0-.457-.204,4.71535,4.71535,0,0,0-.62-.164,3.85163,3.85163,0,0,0-.747-.07,3.67921,3.67921,0,0,0-1.409.261,3.14567,3.14567,0,0,0-1.091.733,3.2818,3.2818,0,0,0-.703,1.144,4.6085,4.6085,0,0,0-.019,2.938,3.12276,3.12276,0,0,0,.668,1.107,2.92652,2.92652,0,0,0,1.072.711,3.88729,3.88729,0,0,0,1.439.25,4.46647,4.46647,0,0,0,1.064-.129,4.70957,4.70957,0,0,0,.51-.156,4.12009,4.12009,0,0,0,.403-.169.41926.41926,0,0,0,.204-.18.56157.56157,0,0,0,.048-.242v-2.647a.53152.53152,0,0,0-.026-.172.28126.28126,0,0,0-.076-.119.3349.3349,0,0,0-.107-.064.34992.34992,0,0,0-.118-.021h-2.208a.14212.14212,0,0,0-.08.021.1746.1746,0,0,0-.057.067.40344.40344,0,0,0-.035.118,1.26228,1.26228,0,0,0-.01.175.67929.67929,0,0,0,.045.285.14777.14777,0,0,0,.137.091h1.612v2.025a2.40589,2.40589,0,0,1-.615.233,2.84015,2.84015,0,0,1-.653.078,2.65489,2.65489,0,0,1-.996-.182,2.14624,2.14624,0,0,1-.782-.537,2.54021,2.54021,0,0,1-.513-.871,3.7871,3.7871,0,0,1-.016-2.288,2.59916,2.59916,0,0,1,.486-.88,2.213,2.213,0,0,1,.774-.581,2.4537,2.4537,0,0,1,1.031-.209,3.0173,3.0173,0,0,1,.835.102,3.68555,3.68555,0,0,1,.604.226,3.281,3.281,0,0,1,.403.225.48521.48521,0,0,0,.215.102.12735.12735,0,0,0,.07-.021.172.172,0,0,0,.054-.073.52707.52707,0,0,0,.032-.129,1.35712,1.35712,0,0,0,.011-.18.98271.98271,0,0,0-.027-.263m-7.866,1.714a.97281.97281,0,0,1-.261.373,1.23979,1.23979,0,0,1-.443.247,2.00059,2.00059,0,0,1-.631.089h-.902v-2.342h.779c.182,0,.33.005.443.016a1.77024,1.77024,0,0,1,.303.054,1.02486,1.02486,0,0,1,.612.405,1.24094,1.24094,0,0,1,.183.69,1.297,1.297,0,0,1-.083.468m1.453,4.294c-.015-.052-.047-.143-.097-.271l-.623-1.531c-.072-.176-.143-.333-.215-.473a2.60942,2.60942,0,0,0-.228-.37,1.61381,1.61381,0,0,0-.261-.277,1.31233,1.31233,0,0,0-.311-.191,2.691,2.691,0,0,0,.553-.263,1.776,1.776,0,0,0,.424-.368,1.497,1.497,0,0,0,.272-.489,2.11939,2.11939,0,0,0-.011-1.283,1.548,1.548,0,0,0-.314-.529,1.70639,1.70639,0,0,0-.519-.382,2.68464,2.68464,0,0,0-.711-.22c-.093-.011-.198-.021-.315-.029-.116-.009-.262-.014-.437-.014h-1.477a.38253.38253,0,0,0-.234.083.34717.34717,0,0,0-.11.293v6.435a.1367.1367,0,0,0,.021.075.154.154,0,0,0,.076.051.84775.84775,0,0,0,.142.032,1.78177,1.78177,0,0,0,.446,0,.78149.78149,0,0,0,.139-.032.17523.17523,0,0,0,.076-.051.1243.1243,0,0,0,.024-.075v-2.96h.617a1.419,1.419,0,0,1,.543.094,1.20125,1.20125,0,0,1,.392.263,1.63423,1.63423,0,0,1,.287.403q.1215.234.234.513l.639,1.638a.4173.4173,0,0,0,.051.108.20545.20545,0,0,0,.083.067.50573.50573,0,0,0,.143.035,1.98958,1.98958,0,0,0,.228.011,2.49555,2.49555,0,0,0,.258-.011.61148.61148,0,0,0,.15-.032.13159.13159,0,0,0,.07-.054.16529.16529,0,0,0,.016-.075.49983.49983,0,0,0-.021-.121m-5.964-.301a.32179.32179,0,0,0-.037-.118.18458.18458,0,0,0-.062-.067.13924.13924,0,0,0-.078-.022h-2.755v-2.487h2.331a.17211.17211,0,0,0,.078-.018.15416.15416,0,0,0,.059-.062.3591.3591,0,0,0,.035-.113,1.13694,1.13694,0,0,0,.01-.166,1.31873,1.31873,0,0,0-.01-.178.36856.36856,0,0,0-.035-.118.19406.19406,0,0,0-.059-.067.13781.13781,0,0,0-.078-.024h-2.331v-2.181h2.717a.14693.14693,0,0,0,.078-.021.15827.15827,0,0,0,.057-.067.51618.51618,0,0,0,.035-.119.929.929,0,0,0,.013-.169,1.02189,1.02189,0,0,0-.013-.18.5875.5875,0,0,0-.035-.121.14784.14784,0,0,0-.057-.069.13926.13926,0,0,0-.078-.022h-3.297a.38253.38253,0,0,0-.234.083.34717.34717,0,0,0-.11.293v6.198a.34589.34589,0,0,0,.11.293.37639.37639,0,0,0,.234.083h3.335a.14711.14711,0,0,0,.078-.021.18769.18769,0,0,0,.062-.07.35223.35223,0,0,0,.037-.121,1.18744,1.18744,0,0,0,.011-.169,1.27213,1.27213,0,0,0-.011-.18m-5.655-6.233a.122.122,0,0,0-.023-.07.18694.18694,0,0,0-.074-.056.46482.46482,0,0,0-.142-.035,1.88392,1.88392,0,0,0-.215-.011,1.9861,1.9861,0,0,0-.229.011.49792.49792,0,0,0-.142.035.19211.19211,0,0,0-.077.056.12082.12082,0,0,0-.022.07v3.77q0,.42451.002.884c.002.306.007.601.014.883h-.006q-.1245-.252-.251-.502-.1275-.249-.257-.507-.1305-.258-.27-.524c-.094-.177-.19-.359-.291-.545l-1.63-3.051a2.47507,2.47507,0,0,0-.168-.277.77847.77847,0,0,0-.167-.171.54639.54639,0,0,0-.194-.089,1.13329,1.13329,0,0,0-.269-.027h-.454a.439.439,0,0,0-.266.091.357.357,0,0,0-.122.307v6.413a.12922.12922,0,0,0,.022.072.14784.14784,0,0,0,.074.054.78149.78149,0,0,0,.139.032,1.50354,1.50354,0,0,0,.224.014,1.52281,1.52281,0,0,0,.224-.014.88179.88179,0,0,0,.141-.032.14822.14822,0,0,0,.077-.054.12922.12922,0,0,0,.022-.072v-4.195c0-.265-.001-.532-.005-.8q-.006-.40348-.016-.79h.011c.097.211.201.429.314.653.113.223.224.437.335.641l2.121,3.954a2.68687,2.68687,0,0,0,.206.343,1.04425,1.04425,0,0,0,.194.212.57584.57584,0,0,0,.206.108.99473.99473,0,0,0,.253.029h.305a.51244.51244,0,0,0,.144-.021.36121.36121,0,0,0,.131-.07.3537.3537,0,0,0,.094-.123.42322.42322,0,0,0,.037-.183Zm-6.603,6.233a.32129.32129,0,0,0-.038-.118.18272.18272,0,0,0-.061-.067.14393.14393,0,0,0-.078-.022h-2.756v-2.487h2.331a.16621.16621,0,0,0,.078-.018.14788.14788,0,0,0,.059-.062.31388.31388,0,0,0,.035-.113,1.12327,1.12327,0,0,0,.011-.166,1.30365,1.30365,0,0,0-.011-.178.32405.32405,0,0,0-.035-.118.18444.18444,0,0,0-.059-.067.13328.13328,0,0,0-.078-.024h-2.331v-2.181h2.718a.14693.14693,0,0,0,.078-.021.15643.15643,0,0,0,.056-.067.471.471,0,0,0,.035-.119.92134.92134,0,0,0,.014-.169,1.01158,1.01158,0,0,0-.014-.18.53117.53117,0,0,0-.035-.121.14631.14631,0,0,0-.056-.069.13926.13926,0,0,0-.078-.022h-3.298a.38193.38193,0,0,0-.233.083.34431.34431,0,0,0-.11.293v6.198a.343.343,0,0,0,.11.293.37576.37576,0,0,0,.233.083h3.336a.15222.15222,0,0,0,.078-.021.186.186,0,0,0,.061-.07.35185.35185,0,0,0,.038-.121,1.18744,1.18744,0,0,0,.011-.169,1.27213,1.27213,0,0,0-.011-.18"/>
    <path class="cls-6" d="M159.17879,437.09221h-2.417l1.198-3.464h.005Zm-.553-4.221a.28222.28222,0,0,0-.059-.1.24452.24452,0,0,0-.108-.062.834.834,0,0,0-.182-.029c-.075-.005-.17-.008-.285-.008-.107,0-.196.003-.266.008a.773.773,0,0,0-.172.029.25077.25077,0,0,0-.102.06.27991.27991,0,0,0-.056.096l-2.331,6.456a.66906.66906,0,0,0-.046.191.13511.13511,0,0,0,.038.11.256.256,0,0,0,.139.051,1.96812,1.96812,0,0,0,.256.014,2.26885,2.26885,0,0,0,.244-.011.47164.47164,0,0,0,.145-.035.21114.21114,0,0,0,.078-.059.28329.28329,0,0,0,.043-.083l.569-1.671h2.89l.596,1.692a.43221.43221,0,0,0,.046.081.16575.16575,0,0,0,.075.051.61328.61328,0,0,0,.15.026c.066.006.155.009.266.009a2.62829,2.62829,0,0,0,.266-.011.24834.24834,0,0,0,.142-.049.13213.13213,0,0,0,.041-.11.65581.65581,0,0,0-.046-.19Zm-4.741-.027a.12532.12532,0,0,0-.022-.075.13543.13543,0,0,0-.075-.051.77265.77265,0,0,0-.142-.033,1.53709,1.53709,0,0,0-.223-.013,1.44035,1.44035,0,0,0-.212.013.83344.83344,0,0,0-.145.033.15359.15359,0,0,0-.081.051.12022.12022,0,0,0-.024.075v6.671a.12962.12962,0,0,0,.022.075.14625.14625,0,0,0,.075.051.86951.86951,0,0,0,.145.032,1.758,1.758,0,0,0,.443,0,.87244.87244,0,0,0,.142-.032.14622.14622,0,0,0,.075-.051.12962.12962,0,0,0,.022-.075Zm-2.274,6.249a.3216.3216,0,0,0-.037-.118.18465.18465,0,0,0-.062-.067.13934.13934,0,0,0-.078-.022h-2.755v-2.487h2.331a.172.172,0,0,0,.078-.018.15418.15418,0,0,0,.059-.062.3347.3347,0,0,0,.035-.113,1.12191,1.12191,0,0,0,.011-.166,1.30205,1.30205,0,0,0-.011-.178.34461.34461,0,0,0-.035-.118.19409.19409,0,0,0-.059-.067.1377.1377,0,0,0-.078-.024h-2.331v-2.181h2.718a.14593.14593,0,0,0,.077-.021.15173.15173,0,0,0,.057-.067.51713.51713,0,0,0,.035-.119.93075.93075,0,0,0,.013-.169,1.02381,1.02381,0,0,0-.013-.18.58871.58871,0,0,0-.035-.121.14233.14233,0,0,0-.057-.069.13828.13828,0,0,0-.077-.022h-3.298a.38253.38253,0,0,0-.234.083.34717.34717,0,0,0-.11.293v6.198a.34589.34589,0,0,0,.11.293.37639.37639,0,0,0,.234.083h3.335a.14722.14722,0,0,0,.078-.021.18776.18776,0,0,0,.062-.07.352.352,0,0,0,.037-.121,1.0564,1.0564,0,0,0,.011-.169,1.138,1.138,0,0,0-.011-.18m-4.926-6.179a.38924.38924,0,0,0-.035-.121.16359.16359,0,0,0-.059-.067.144.144,0,0,0-.078-.022h-3.072a.39494.39494,0,0,0-.253.091.37408.37408,0,0,0-.113.307v6.413a.12962.12962,0,0,0,.022.075.14622.14622,0,0,0,.075.051.86966.86966,0,0,0,.145.032,1.78145,1.78145,0,0,0,.446,0,.851.851,0,0,0,.139-.032.154.154,0,0,0,.076-.051.13662.13662,0,0,0,.021-.075v-6.043h2.514a.152.152,0,0,0,.078-.021.17752.17752,0,0,0,.059-.067.40666.40666,0,0,0,.035-.121,1.317,1.317,0,0,0,.01-.178,1.248,1.248,0,0,0-.01-.171m-5.972,2.478a1.25523,1.25523,0,0,1-.285.457,1.30576,1.30576,0,0,1-.465.298,1.92608,1.92608,0,0,1-.695.107h-.833v-2.787h.854a3.25863,3.25863,0,0,1,.486.037,1.32311,1.32311,0,0,1,.484.178,1.10059,1.10059,0,0,1,.392.424,1.44958,1.44958,0,0,1,.158.709,1.68325,1.68325,0,0,1-.096.577m.958-1.369a1.773,1.773,0,0,0-.314-.572,1.81871,1.81871,0,0,0-.497-.417,2.05611,2.05611,0,0,0-.574-.231,3.96092,3.96092,0,0,0-.489-.08c-.138-.013-.282-.019-.432-.019h-1.488a.39691.39691,0,0,0-.253.091.37411.37411,0,0,0-.113.307v6.413a.13737.13737,0,0,0,.022.075.14617.14617,0,0,0,.075.051.86284.86284,0,0,0,.143.032,1.77381,1.77381,0,0,0,.445,0,.7954.7954,0,0,0,.14-.032.16581.16581,0,0,0,.075-.051.12435.12435,0,0,0,.024-.075v-2.503h.79a3.40669,3.40669,0,0,0,1.109-.161,2.20456,2.20456,0,0,0,.784-.457,1.99329,1.99329,0,0,0,.492-.714,2.47118,2.47118,0,0,0,.172-.94,2.20088,2.20088,0,0,0-.111-.717m-5.509,5.07a.32147.32147,0,0,0-.038-.118.1765.1765,0,0,0-.062-.067.13821.13821,0,0,0-.077-.022h-2.756v-2.487h2.331a.16622.16622,0,0,0,.078-.018.15409.15409,0,0,0,.059-.062.33537.33537,0,0,0,.035-.113,1.12628,1.12628,0,0,0,.011-.166,1.30717,1.30717,0,0,0-.011-.178.34526.34526,0,0,0-.035-.118.194.194,0,0,0-.059-.067.13329.13329,0,0,0-.078-.024h-2.331v-2.181h2.718a.147.147,0,0,0,.078-.021.15656.15656,0,0,0,.056-.067.47064.47064,0,0,0,.035-.119.92039.92039,0,0,0,.014-.169,1.01054,1.01054,0,0,0-.014-.18.53072.53072,0,0,0-.035-.121.14643.14643,0,0,0-.056-.069.13933.13933,0,0,0-.078-.022h-3.298a.38683.38683,0,0,0-.234.083.3472.3472,0,0,0-.11.293v6.198a.34592.34592,0,0,0,.11.293.38053.38053,0,0,0,.234.083h3.336a.146.146,0,0,0,.077-.021.17958.17958,0,0,0,.062-.07.35206.35206,0,0,0,.038-.121,1.18744,1.18744,0,0,0,.011-.169,1.27213,1.27213,0,0,0-.011-.18m-5.607-6.233a.122.122,0,0,0-.023-.07.1869.1869,0,0,0-.074-.056.46475.46475,0,0,0-.142-.035,1.88443,1.88443,0,0,0-.215-.011,1.98571,1.98571,0,0,0-.229.011.49774.49774,0,0,0-.142.035.18517.18517,0,0,0-.077.056.12083.12083,0,0,0-.022.07v3.77q0,.42451.002.884c.002.306.007.601.014.883h-.006q-.1245-.252-.251-.502-.1275-.249-.257-.507-.13051-.258-.27-.524-.141-.2655-.291-.545l-1.63-3.051a2.32745,2.32745,0,0,0-.169-.277.75422.75422,0,0,0-.166-.171.54647.54647,0,0,0-.194-.089,1.13338,1.13338,0,0,0-.269-.027h-.454a.439.439,0,0,0-.266.091.357.357,0,0,0-.122.307v6.413a.12921.12921,0,0,0,.022.072.14782.14782,0,0,0,.074.054.78106.78106,0,0,0,.139.032,1.50345,1.50345,0,0,0,.224.014,1.52267,1.52267,0,0,0,.224-.014.88179.88179,0,0,0,.141-.032.14821.14821,0,0,0,.077-.054.12921.12921,0,0,0,.022-.072v-4.195c0-.265-.001-.532-.005-.8q-.006-.40348-.016-.79h.011c.097.211.201.429.314.653.113.223.224.437.335.641l2.12,3.954a2.798,2.798,0,0,0,.207.343,1.04339,1.04339,0,0,0,.194.212.57555.57555,0,0,0,.206.108.99487.99487,0,0,0,.253.029h.305a.51239.51239,0,0,0,.144-.021.36117.36117,0,0,0,.131-.07.35391.35391,0,0,0,.094-.123.42322.42322,0,0,0,.037-.183Zm-6.603,6.233a.32166.32166,0,0,0-.038-.118.18274.18274,0,0,0-.061-.067.14387.14387,0,0,0-.078-.022h-2.756v-2.487h2.331a.16628.16628,0,0,0,.078-.018.14786.14786,0,0,0,.059-.062.33514.33514,0,0,0,.035-.113,1.12477,1.12477,0,0,0,.011-.166,1.30541,1.30541,0,0,0-.011-.178.345.345,0,0,0-.035-.118.18442.18442,0,0,0-.059-.067.13333.13333,0,0,0-.078-.024h-2.331v-2.181h2.718a.147.147,0,0,0,.078-.021.1565.1565,0,0,0,.056-.067.47061.47061,0,0,0,.035-.119.92134.92134,0,0,0,.014-.169,1.01158,1.01158,0,0,0-.014-.18.53069.53069,0,0,0-.035-.121.14637.14637,0,0,0-.056-.069.13931.13931,0,0,0-.078-.022h-3.298a.38191.38191,0,0,0-.233.083.34431.34431,0,0,0-.11.293v6.198a.34305.34305,0,0,0,.11.293.37574.37574,0,0,0,.233.083h3.336a.15216.15216,0,0,0,.078-.021.186.186,0,0,0,.061-.07.35228.35228,0,0,0,.038-.121,1.189,1.189,0,0,0,.011-.169,1.27381,1.27381,0,0,0-.011-.18m-8.104-3.07a.62946.62946,0,0,0-.446-.123.6463.6463,0,0,0-.459.126.73086.73086,0,0,0-.127.508.7125.7125,0,0,0,.124.494.62778.62778,0,0,0,.446.123.6463.6463,0,0,0,.459-.126.73554.73554,0,0,0,.126-.507.71978.71978,0,0,0-.123-.495m-6.08-.161h-.908a2.55366,2.55366,0,0,1-.781-.094,1.21365,1.21365,0,0,1-.459-.26,1.01718,1.01718,0,0,1-.261-.387,1.33625,1.33625,0,0,1-.083-.473,1.384,1.384,0,0,1,.078-.47.92578.92578,0,0,1,.252-.376,1.21513,1.21513,0,0,1,.454-.247,2.91451,2.91451,0,0,1,.827-.088h.881Zm.924-2.782a.34953.34953,0,0,0-.108-.293.37754.37754,0,0,0-.236-.083h-1.439a4.23567,4.23567,0,0,0-1.271.148,2.06584,2.06584,0,0,0-.744.411,1.65935,1.65935,0,0,0-.44.625,2.11084,2.11084,0,0,0-.145.793,1.85383,1.85383,0,0,0,.094.607,1.54145,1.54145,0,0,0,.271.486,1.51538,1.51538,0,0,0,.435.354,2.42012,2.42012,0,0,0,.58.223,1.35231,1.35231,0,0,0-.333.185,1.57276,1.57276,0,0,0-.279.28,2.51064,2.51064,0,0,0-.242.378,4.53954,4.53954,0,0,0-.214.484l-.57,1.477a1.61381,1.61381,0,0,0-.08.233.58549.58549,0,0,0-.016.127.14462.14462,0,0,0,.016.072.12381.12381,0,0,0,.067.051.57233.57233,0,0,0,.142.035,1.75759,1.75759,0,0,0,.247.014,1.98951,1.98951,0,0,0,.228-.011.56534.56534,0,0,0,.148-.035.19464.19464,0,0,0,.089-.067.66933.66933,0,0,0,.056-.108l.596-1.6a5.57952,5.57952,0,0,1,.223-.516,1.501,1.501,0,0,1,.28-.395,1.09681,1.09681,0,0,1,.386-.249,1.84879,1.84879,0,0,1,.642-.086h.693v2.9a.1125.1125,0,0,0,.024.073.20441.20441,0,0,0,.075.051.55.55,0,0,0,.14.032,2.26591,2.26591,0,0,0,.446,0,.59071.59071,0,0,0,.142-.032.17483.17483,0,0,0,.075-.051.11721.11721,0,0,0,.022-.073Zm-6.005-.231a.14091.14091,0,0,0-.019-.078.16762.16762,0,0,0-.064-.053.35342.35342,0,0,0-.124-.035,1.38661,1.38661,0,0,0-.201-.011,1.08046,1.08046,0,0,0-.177.011.652.652,0,0,0-.121.029.26277.26277,0,0,0-.083.048.38469.38469,0,0,0-.059.068l-3.003,4.527q-.129.189-.244.379c-.077.127-.144.236-.202.325h-.01c.01-.104.017-.211.018-.322q.003-.1665.003-.312v-4.587a.12181.12181,0,0,0-.021-.069.157.157,0,0,0-.076-.054.57747.57747,0,0,0-.142-.032,1.7277,1.7277,0,0,0-.223-.011,1.626,1.626,0,0,0-.212.011.64216.64216,0,0,0-.145.032.17426.17426,0,0,0-.081.054.11134.11134,0,0,0-.024.069v6.666a.15053.15053,0,0,0,.019.08.15412.15412,0,0,0,.065.057.36989.36989,0,0,0,.123.035,1.54819,1.54819,0,0,0,.201.011,1.44738,1.44738,0,0,0,.178-.009.55744.55744,0,0,0,.121-.026.24326.24326,0,0,0,.083-.051.72949.72949,0,0,0,.064-.076l3.008-4.522c.039-.061.079-.123.118-.185.04-.063.079-.126.118-.188.04-.063.076-.123.111-.18.033-.058.065-.111.094-.161h.01c-.007.096-.012.205-.016.325-.003.12-.005.235-.005.346v4.56a.12333.12333,0,0,0,.021.073.187.187,0,0,0,.073.051.54767.54767,0,0,0,.142.032,2.2355,2.2355,0,0,0,.443,0,.60026.60026,0,0,0,.143-.032.18851.18851,0,0,0,.075-.051.12333.12333,0,0,0,.021-.073Zm-6.336-.048a.14533.14533,0,0,0-.137-.097h-3.206a.34135.34135,0,0,0-.245.094.37235.37235,0,0,0-.099.282v6.44a.12333.12333,0,0,0,.021.073.18845.18845,0,0,0,.075.051.606.606,0,0,0,.146.032,2.2355,2.2355,0,0,0,.443,0,.59048.59048,0,0,0,.142-.032.17485.17485,0,0,0,.075-.051.12381.12381,0,0,0,.022-.073v-6.021h2.626a.14711.14711,0,0,0,.078-.021.17352.17352,0,0,0,.059-.07.41662.41662,0,0,0,.035-.124,1.28987,1.28987,0,0,0,.011-.177.76434.76434,0,0,0-.046-.306m-6.05,2.591a1.2296,1.2296,0,0,1-.285.457,1.31051,1.31051,0,0,1-.464.298,1.932,1.932,0,0,1-.696.107h-.832v-2.787h.854a3.27847,3.27847,0,0,1,.486.037,1.31836,1.31836,0,0,1,.483.178,1.093,1.093,0,0,1,.392.424,1.43819,1.43819,0,0,1,.159.709,1.66,1.66,0,0,1-.097.577m.959-1.369a1.79193,1.79193,0,0,0-.314-.572,1.81832,1.81832,0,0,0-.497-.417,2.06149,2.06149,0,0,0-.575-.231,3.95994,3.95994,0,0,0-.489-.08c-.138-.013-.282-.019-.432-.019h-1.488a.39426.39426,0,0,0-.252.091.374.374,0,0,0-.113.307v6.413a.1367.1367,0,0,0,.021.075.154.154,0,0,0,.076.051.8479.8479,0,0,0,.142.032,1.78177,1.78177,0,0,0,.446,0,.7817.7817,0,0,0,.139-.032.16936.16936,0,0,0,.076-.051.12431.12431,0,0,0,.024-.075v-2.503h.789a3.40251,3.40251,0,0,0,1.109-.161,2.209,2.209,0,0,0,.785-.457,1.99124,1.99124,0,0,0,.491-.714,2.452,2.452,0,0,0,.172-.94,2.22885,2.22885,0,0,0-.11-.717m-5.51,5.07a.3216.3216,0,0,0-.037-.118.1846.1846,0,0,0-.062-.067.13921.13921,0,0,0-.078-.022h-2.755v-2.487h2.331a.17211.17211,0,0,0,.078-.018.15422.15422,0,0,0,.059-.062.35886.35886,0,0,0,.035-.113,1.1354,1.1354,0,0,0,.01-.166,1.31694,1.31694,0,0,0-.01-.178.36832.36832,0,0,0-.035-.118.19416.19416,0,0,0-.059-.067.13781.13781,0,0,0-.078-.024h-2.331v-2.181h2.717a.14687.14687,0,0,0,.078-.021.1582.1582,0,0,0,.057-.067.51663.51663,0,0,0,.035-.119.929.929,0,0,0,.013-.169,1.02189,1.02189,0,0,0-.013-.18.58808.58808,0,0,0-.035-.121.14779.14779,0,0,0-.057-.069.1392.1392,0,0,0-.078-.022h-3.297a.38251.38251,0,0,0-.234.083.34714.34714,0,0,0-.11.293v6.198a.34586.34586,0,0,0,.11.293.37637.37637,0,0,0,.234.083h3.335a.14707.14707,0,0,0,.078-.021.18771.18771,0,0,0,.062-.07.352.352,0,0,0,.037-.121,1.18585,1.18585,0,0,0,.011-.169,1.27045,1.27045,0,0,0-.011-.18m-5.61-6.249a.1253.1253,0,0,0-.022-.075.13542.13542,0,0,0-.075-.051.77205.77205,0,0,0-.142-.033,1.49049,1.49049,0,0,0-.218-.013,1.5116,1.5116,0,0,0-.225.013.76641.76641,0,0,0-.14.033.13543.13543,0,0,0-.075.051.12532.12532,0,0,0-.022.075v2.782h-3.163v-2.782a.13257.13257,0,0,0-.022-.075.13542.13542,0,0,0-.075-.051.77205.77205,0,0,0-.142-.033,1.89342,1.89342,0,0,0-.443,0,.754.754,0,0,0-.145.033.14214.14214,0,0,0-.076.051.132.132,0,0,0-.021.075v6.671a.13669.13669,0,0,0,.021.075.154.154,0,0,0,.076.051.84652.84652,0,0,0,.145.032,1.7579,1.7579,0,0,0,.443,0,.87169.87169,0,0,0,.142-.032.1462.1462,0,0,0,.075-.051.13744.13744,0,0,0,.022-.075v-3.083h3.163v3.083a.12962.12962,0,0,0,.022.075.14622.14622,0,0,0,.075.051.86681.86681,0,0,0,.14.032,1.48989,1.48989,0,0,0,.225.014,1.47311,1.47311,0,0,0,.218-.014.87169.87169,0,0,0,.142-.032.1462.1462,0,0,0,.075-.051.1296.1296,0,0,0,.022-.075Zm-6.356,6.249a.34231.34231,0,0,0-.037-.118.18466.18466,0,0,0-.062-.067.13924.13924,0,0,0-.078-.022h-2.755v-2.487h2.331a.17218.17218,0,0,0,.078-.018.15414.15414,0,0,0,.059-.062.35935.35935,0,0,0,.035-.113,1.13835,1.13835,0,0,0,.01-.166,1.32038,1.32038,0,0,0-.01-.178.36879.36879,0,0,0-.035-.118.194.194,0,0,0-.059-.067.13787.13787,0,0,0-.078-.024h-2.331v-2.181h2.717a.147.147,0,0,0,.078-.021.15827.15827,0,0,0,.057-.067.51572.51572,0,0,0,.035-.119,1.0272,1.0272,0,0,0,.013-.169,1.12683,1.12683,0,0,0-.013-.18.58691.58691,0,0,0-.035-.121.14784.14784,0,0,0-.057-.069.13931.13931,0,0,0-.078-.022h-3.297a.38251.38251,0,0,0-.234.083.34431.34431,0,0,0-.11.293v6.198a.343.343,0,0,0,.11.293.37637.37637,0,0,0,.234.083h3.335a.14711.14711,0,0,0,.078-.021.18778.18778,0,0,0,.062-.07.37592.37592,0,0,0,.037-.121,1.189,1.189,0,0,0,.011-.169,1.27381,1.27381,0,0,0-.011-.18m-8.104-3.07a.62943.62943,0,0,0-.446-.123.6463.6463,0,0,0-.459.126.7368.7368,0,0,0-.126.508.7185.7185,0,0,0,.123.494.62778.62778,0,0,0,.446.123.6463.6463,0,0,0,.459-.126.73548.73548,0,0,0,.126-.507.71972.71972,0,0,0-.123-.495m-6.246,1.069h-2.417l1.198-3.464h.005Zm-.553-4.221a.29939.29939,0,0,0-.06-.1.24055.24055,0,0,0-.107-.062.84442.84442,0,0,0-.183-.029c-.075-.005-.17-.008-.284-.008-.108,0-.196.003-.266.008a.773.773,0,0,0-.172.029.23791.23791,0,0,0-.102.06.2796.2796,0,0,0-.056.096l-2.331,6.456a.668.668,0,0,0-.046.191.13807.13807,0,0,0,.037.11.25983.25983,0,0,0,.14.051,1.94034,1.94034,0,0,0,.255.014,2.28965,2.28965,0,0,0,.245-.011.47937.47937,0,0,0,.145-.035.21114.21114,0,0,0,.078-.059.28153.28153,0,0,0,.042-.083l.57-1.671h2.889l.597,1.692a.43233.43233,0,0,0,.045.081.164.164,0,0,0,.076.051.61338.61338,0,0,0,.15.026c.066.006.155.009.266.009a2.64219,2.64219,0,0,0,.266-.011.25124.25124,0,0,0,.142-.049.12869.12869,0,0,0,.04-.11.68214.68214,0,0,0-.045-.19Zm-4.741-.027a.13258.13258,0,0,0-.022-.075.13542.13542,0,0,0-.075-.051.77225.77225,0,0,0-.142-.033,1.54631,1.54631,0,0,0-.223-.013,1.45464,1.45464,0,0,0-.213.013.85637.85637,0,0,0-.145.033.15453.15453,0,0,0-.08.051.12015.12015,0,0,0-.024.075v6.671a.1367.1367,0,0,0,.021.075.15067.15067,0,0,0,.075.051.89351.89351,0,0,0,.145.032,1.76586,1.76586,0,0,0,.444,0,.87194.87194,0,0,0,.142-.032.14621.14621,0,0,0,.075-.051.13745.13745,0,0,0,.022-.075Zm-2.63.542a.37325.37325,0,0,0-.097-.161,1.49944,1.49944,0,0,0-.255-.18,2.573,2.573,0,0,0-.457-.204,4.71535,4.71535,0,0,0-.62-.164,3.85163,3.85163,0,0,0-.747-.07,3.67921,3.67921,0,0,0-1.409.261,3.14567,3.14567,0,0,0-1.091.733,3.2818,3.2818,0,0,0-.703,1.144,4.6085,4.6085,0,0,0-.019,2.938,3.12276,3.12276,0,0,0,.668,1.107,2.92652,2.92652,0,0,0,1.072.711,3.88729,3.88729,0,0,0,1.439.25,4.46647,4.46647,0,0,0,1.064-.129,4.70957,4.70957,0,0,0,.51-.156,4.12009,4.12009,0,0,0,.403-.169.41926.41926,0,0,0,.204-.18.56157.56157,0,0,0,.048-.242v-2.647a.53152.53152,0,0,0-.026-.172.28126.28126,0,0,0-.076-.119.3349.3349,0,0,0-.107-.064.34992.34992,0,0,0-.118-.021h-2.208a.14212.14212,0,0,0-.08.021.1746.1746,0,0,0-.057.067.40344.40344,0,0,0-.035.118,1.26228,1.26228,0,0,0-.01.175.67929.67929,0,0,0,.045.285.14777.14777,0,0,0,.137.091h1.612v2.025a2.40589,2.40589,0,0,1-.615.233,2.84015,2.84015,0,0,1-.653.078,2.65489,2.65489,0,0,1-.996-.182,2.14624,2.14624,0,0,1-.782-.537,2.54021,2.54021,0,0,1-.513-.871,3.7871,3.7871,0,0,1-.016-2.288,2.59916,2.59916,0,0,1,.486-.88,2.213,2.213,0,0,1,.774-.581,2.4537,2.4537,0,0,1,1.031-.209,3.0173,3.0173,0,0,1,.835.102,3.68555,3.68555,0,0,1,.604.226,3.281,3.281,0,0,1,.403.225.48521.48521,0,0,0,.215.102.12735.12735,0,0,0,.07-.021.172.172,0,0,0,.054-.073.52707.52707,0,0,0,.032-.129,1.35712,1.35712,0,0,0,.011-.18.98271.98271,0,0,0-.027-.263m-7.866,1.714a.97281.97281,0,0,1-.261.373,1.23979,1.23979,0,0,1-.443.247,2.00059,2.00059,0,0,1-.631.089h-.902v-2.342h.779c.182,0,.33.005.443.016a1.77024,1.77024,0,0,1,.303.054,1.02486,1.02486,0,0,1,.612.405,1.24094,1.24094,0,0,1,.183.69,1.297,1.297,0,0,1-.083.468m1.453,4.294c-.015-.052-.047-.143-.097-.271l-.623-1.531c-.072-.176-.143-.333-.215-.473a2.60942,2.60942,0,0,0-.228-.37,1.61381,1.61381,0,0,0-.261-.277,1.31233,1.31233,0,0,0-.311-.191,2.691,2.691,0,0,0,.553-.263,1.776,1.776,0,0,0,.424-.368,1.497,1.497,0,0,0,.272-.489,2.11939,2.11939,0,0,0-.011-1.283,1.548,1.548,0,0,0-.314-.529,1.70639,1.70639,0,0,0-.519-.382,2.68464,2.68464,0,0,0-.711-.22c-.093-.011-.198-.021-.315-.029-.116-.009-.262-.014-.437-.014h-1.477a.38253.38253,0,0,0-.234.083.34717.34717,0,0,0-.11.293v6.435a.1367.1367,0,0,0,.021.075.154.154,0,0,0,.076.051.84775.84775,0,0,0,.142.032,1.78177,1.78177,0,0,0,.446,0,.78149.78149,0,0,0,.139-.032.17523.17523,0,0,0,.076-.051.1243.1243,0,0,0,.024-.075v-2.96h.617a1.419,1.419,0,0,1,.543.094,1.20125,1.20125,0,0,1,.392.263,1.63423,1.63423,0,0,1,.287.403q.1215.234.234.513l.639,1.638a.4173.4173,0,0,0,.051.108.20545.20545,0,0,0,.083.067.50573.50573,0,0,0,.143.035,1.98958,1.98958,0,0,0,.228.011,2.49555,2.49555,0,0,0,.258-.011.61148.61148,0,0,0,.15-.032.13159.13159,0,0,0,.07-.054.16529.16529,0,0,0,.016-.075.49983.49983,0,0,0-.021-.121m-5.964-.301a.32179.32179,0,0,0-.037-.118.18458.18458,0,0,0-.062-.067.13924.13924,0,0,0-.078-.022h-2.755v-2.487h2.331a.17211.17211,0,0,0,.078-.018.15416.15416,0,0,0,.059-.062.3591.3591,0,0,0,.035-.113,1.13694,1.13694,0,0,0,.01-.166,1.31873,1.31873,0,0,0-.01-.178.36856.36856,0,0,0-.035-.118.19406.19406,0,0,0-.059-.067.13781.13781,0,0,0-.078-.024h-2.331v-2.181h2.717a.14693.14693,0,0,0,.078-.021.15827.15827,0,0,0,.057-.067.51618.51618,0,0,0,.035-.119.929.929,0,0,0,.013-.169,1.02189,1.02189,0,0,0-.013-.18.5875.5875,0,0,0-.035-.121.14784.14784,0,0,0-.057-.069.13926.13926,0,0,0-.078-.022h-3.297a.38253.38253,0,0,0-.234.083.34717.34717,0,0,0-.11.293v6.198a.34589.34589,0,0,0,.11.293.37639.37639,0,0,0,.234.083h3.335a.14711.14711,0,0,0,.078-.021.18769.18769,0,0,0,.062-.07.35223.35223,0,0,0,.037-.121,1.18744,1.18744,0,0,0,.011-.169,1.27213,1.27213,0,0,0-.011-.18m-5.655-6.233a.122.122,0,0,0-.023-.07.18694.18694,0,0,0-.074-.056.46482.46482,0,0,0-.142-.035,1.88392,1.88392,0,0,0-.215-.011,1.9861,1.9861,0,0,0-.229.011.49792.49792,0,0,0-.142.035.19211.19211,0,0,0-.077.056.12082.12082,0,0,0-.022.07v3.77q0,.42451.002.884c.002.306.007.601.014.883h-.006q-.1245-.252-.251-.502-.1275-.249-.257-.507-.1305-.258-.27-.524c-.094-.177-.19-.359-.291-.545l-1.63-3.051a2.47507,2.47507,0,0,0-.168-.277.77847.77847,0,0,0-.167-.171.54639.54639,0,0,0-.194-.089,1.13329,1.13329,0,0,0-.269-.027h-.454a.439.439,0,0,0-.266.091.357.357,0,0,0-.122.307v6.413a.12922.12922,0,0,0,.022.072.14784.14784,0,0,0,.074.054.78149.78149,0,0,0,.139.032,1.50354,1.50354,0,0,0,.224.014,1.52281,1.52281,0,0,0,.224-.014.88179.88179,0,0,0,.141-.032.14822.14822,0,0,0,.077-.054.12922.12922,0,0,0,.022-.072v-4.195c0-.265-.001-.532-.005-.8q-.006-.40348-.016-.79h.011c.097.211.201.429.314.653.113.223.224.437.335.641l2.121,3.954a2.68687,2.68687,0,0,0,.206.343,1.04425,1.04425,0,0,0,.194.212.57584.57584,0,0,0,.206.108.99473.99473,0,0,0,.253.029h.305a.51244.51244,0,0,0,.144-.021.36121.36121,0,0,0,.131-.07.3537.3537,0,0,0,.094-.123.42322.42322,0,0,0,.037-.183Zm-6.603,6.233a.32129.32129,0,0,0-.038-.118.18272.18272,0,0,0-.061-.067.14393.14393,0,0,0-.078-.022h-2.756v-2.487h2.331a.16621.16621,0,0,0,.078-.018.14788.14788,0,0,0,.059-.062.31388.31388,0,0,0,.035-.113,1.12327,1.12327,0,0,0,.011-.166,1.30365,1.30365,0,0,0-.011-.178.32405.32405,0,0,0-.035-.118.18444.18444,0,0,0-.059-.067.13328.13328,0,0,0-.078-.024h-2.331v-2.181h2.718a.14693.14693,0,0,0,.078-.021.15643.15643,0,0,0,.056-.067.471.471,0,0,0,.035-.119.92134.92134,0,0,0,.014-.169,1.01158,1.01158,0,0,0-.014-.18.53117.53117,0,0,0-.035-.121.14631.14631,0,0,0-.056-.069.13926.13926,0,0,0-.078-.022h-3.298a.38193.38193,0,0,0-.233.083.34431.34431,0,0,0-.11.293v6.198a.343.343,0,0,0,.11.293.37576.37576,0,0,0,.233.083h3.336a.15222.15222,0,0,0,.078-.021.186.186,0,0,0,.061-.07.35185.35185,0,0,0,.038-.121,1.18744,1.18744,0,0,0,.011-.169,1.27213,1.27213,0,0,0-.011-.18"/>
    <rect class="cls-7" x="25.532" y="25.646" width="76.082" height="50.815"/>
    <rect class="cls-8" x="104.131" y="25.646" width="182.16801" height="50.815"/>
    <polygon class="cls-9" points="79.294 42.587 80.929 41.399 78.908 41.399 78.283 39.476 77.658 41.399 75.636 41.399 77.272 42.587 76.647 44.51 78.283 43.321 79.918 44.51 79.294 42.587"/>
    <polygon class="cls-9" points="72.927 36.49 74.562 35.302 72.541 35.302 71.916 33.379 71.291 35.302 69.27 35.302 70.905 36.49 70.28 38.413 71.916 37.224 73.552 38.413 72.927 36.49"/>
    <polygon class="cls-9" points="64.713 34.309 66.349 33.121 64.327 33.121 63.702 31.198 63.077 33.121 61.055 33.121 62.691 34.309 62.067 36.232 63.702 35.044 65.338 36.232 64.713 34.309"/>
    <polygon class="cls-9" points="56.064 36.49 57.699 35.302 55.678 35.302 55.053 33.379 54.428 35.302 52.406 35.302 54.042 36.49 53.417 38.413 55.053 37.224 56.689 38.413 56.064 36.49"/>
    <polygon class="cls-9" points="49.885 42.886 51.521 41.698 49.499 41.698 48.874 39.775 48.249 41.698 46.227 41.698 47.863 42.886 47.239 44.809 48.874 43.621 50.51 44.809 49.885 42.886"/>
    <polygon class="cls-9" points="47.912 51.29 49.548 50.102 47.526 50.102 46.901 48.179 46.276 50.102 44.254 50.102 45.89 51.29 45.265 53.213 46.901 52.024 48.537 53.213 47.912 51.29"/>
    <polygon class="cls-9" points="49.947 59.804 51.583 58.616 49.561 58.616 48.936 56.693 48.311 58.616 46.289 58.616 47.925 59.804 47.301 61.727 48.936 60.539 50.572 61.727 49.947 59.804"/>
    <polygon class="cls-9" points="56.064 65.855 57.699 64.666 55.678 64.666 55.053 62.744 54.428 64.666 52.406 64.666 54.042 65.855 53.417 67.778 55.053 66.589 56.689 67.777 56.064 65.855"/>
    <polygon class="cls-9" points="64.713 68.109 66.348 66.92 64.326 66.92 63.702 64.998 63.077 66.92 61.055 66.92 62.691 68.109 62.066 70.032 63.702 68.843 65.338 70.032 64.713 68.109"/>
    <polygon class="cls-9" points="73.129 65.824 74.765 64.635 72.742 64.635 72.118 62.713 71.493 64.635 69.471 64.635 71.107 65.824 70.483 67.747 72.118 66.559 73.753 67.747 73.129 65.824"/>
    <polygon class="cls-9" points="79.251 59.75 80.886 58.562 78.865 58.562 78.24 56.639 77.615 58.562 75.594 58.562 77.229 59.75 76.604 61.673 78.24 60.484 79.876 61.673 79.251 59.75"/>
    <polygon class="cls-9" points="81.504 51.172 83.139 49.984 81.118 49.984 80.493 48.061 79.869 49.984 77.846 49.984 79.482 51.172 78.857 53.095 80.493 51.906 82.128 53.095 81.504 51.172"/>
    <polygon class="cls-10" points="126.197 46.386 118.035 46.386 118.035 52.748 127.161 52.748 127.161 55.994 114.083 55.994 114.083 34.336 126.679 34.336 126.679 37.582 118.035 37.582 118.035 43.173 126.197 43.173 126.197 46.386"/>
  </g>
  <g class="cls-11">
    <path class="cls-10" d="M132.2375,55.9939v-21.658h4.499l5.591,9.287a59.51523,59.51523,0,0,1,3.695,7.262h.064c-.257-2.892-.353-5.68805-.353-8.997v-7.552h3.663v21.658h-4.081l-5.655-9.543a71.48873,71.48873,0,0,1-3.888-7.455l-.097.032c.161,2.795.193,5.655.193,9.222v7.744Z"/>
    <polygon class="cls-10" points="167.68 46.386 159.518 46.386 159.518 52.748 168.643 52.748 168.643 55.994 155.565 55.994 155.565 34.336 168.161 34.336 168.161 37.582 159.518 37.582 159.518 43.173 167.68 43.173 167.68 46.386"/>
    <path class="cls-10" d="M173.71959,34.62518a37.54578,37.54578,0,0,1,5.977-.45c3.117,0,5.238.515,6.684,1.736a5.48013,5.48013,0,0,1,1.864,4.338,5.77678,5.77678,0,0,1-3.92,5.43v.096c1.542.579,2.473,2.089,3.02,4.178a43.27412,43.27412,0,0,0,1.703,6.041h-4.081a30.58216,30.58216,0,0,1-1.446-5.11c-.61-2.827-1.639-3.727-3.888-3.791h-1.992v8.901h-3.921Zm3.921,9.576h2.346c2.666,0,4.338-1.41394,4.338-3.56695,0-2.378-1.672-3.47-4.242-3.47a11.31682,11.31682,0,0,0-2.442.193Z"/>
    <path class="cls-10" d="M210.9615,54.99768a21.45709,21.45709,0,0,1-6.973,1.221c-3.663,0-6.427-.932-8.483-2.892a10.72671,10.72671,0,0,1-3.02-7.969c0-6.844,4.884-11.246,12.05-11.246a14.37,14.37,0,0,1,5.751,1.028l-.868,3.181a11.66194,11.66194,0,0,0-4.916-.932c-4.627,0-7.872,2.732-7.872,7.776,0,4.917,3.02,7.841,7.519,7.841a7.57459,7.57459,0,0,0,2.988-.45v-5.398h-3.824v-3.117h7.648Z"/>
    <path class="cls-10" d="M113.6934,64.8288c.037,1.012.89,1.449,1.855,1.449a4.83772,4.83772,0,0,0,1.669-.253l.223.977a6.01689,6.01689,0,0,1-2.103.357c-1.954,0-3.104-1.127-3.104-2.841a2.85917,2.85917,0,0,1,2.943-3.013,2.49307,2.49307,0,0,1,2.597,2.726,3.22788,3.22788,0,0,1-.049.598Zm2.646-.989a1.23014,1.23014,0,0,0-1.249-1.368,1.42857,1.42857,0,0,0-1.397,1.368Z"/>
    <polygon class="cls-10" points="120.567 61.632 120.567 63.771 122.892 63.771 122.892 61.632 124.413 61.632 124.413 67.232 122.892 67.232 122.892 64.875 120.567 64.875 120.567 67.232 119.046 67.232 119.046 61.632 120.567 61.632"/>
    <path class="cls-10" d="M127.1693,64.8288c.037,1.012.89,1.449,1.855,1.449a4.82965,4.82965,0,0,0,1.669-.253l.223.977a6.01514,6.01514,0,0,1-2.102.357c-1.954,0-3.104-1.127-3.104-2.841a2.85859,2.85859,0,0,1,2.943-3.013,2.49363,2.49363,0,0,1,2.597,2.726,3.20883,3.20883,0,0,1-.05.598Zm2.646-.989a1.22956,1.22956,0,0,0-1.249-1.368,1.42858,1.42858,0,0,0-1.397,1.368Z"/>
    <path class="cls-10" d="M132.53479,63.49432c0-.736-.025-1.333-.049-1.863h1.335l.074.863h.025a2.40057,2.40057,0,0,1,2.065-.989,2.61274,2.61274,0,0,1,2.535,2.852,2.747,2.747,0,0,1-2.745,3.001,2.03428,2.03428,0,0,1-1.694-.747h-.025v2.897h-1.521Zm1.521,1.392a1.35111,1.35111,0,0,0,1.385,1.38c.964,0,1.533-.74695,1.533-1.851,0-.99005-.519-1.795-1.496-1.795a1.39567,1.39567,0,0,0-1.36,1.047,1.20207,1.20207,0,0,0-.062.357Z"/>
    <polygon class="cls-10" points="143.799 61.632 143.799 62.747 141.338 62.747 141.338 67.232 139.817 67.232 139.817 61.632 143.799 61.632"/>
    <path class="cls-10" d="M146.2215,61.63177v2.013c0,.885-.037,1.483-.087,2.265h.038c.321-.656.507-1.07.816-1.656l1.484-2.622h1.842v5.6h-1.447v-2.001c0-.89605.037-1.31.099-2.369h-.049c-.297.668-.495,1.07-.792,1.611-.47.827-1.014,1.83905-1.533,2.759h-1.818v-5.6Z"/>
    <path class="cls-10" d="M156.94128,67.23181h-1.509v-2.219h-.569a1.22458,1.22458,0,0,0-.927.368,3.56671,3.56671,0,0,0-.742,1.39105,4.00253,4.00253,0,0,1-.235.46h-1.632a2.88412,2.88412,0,0,0,.371-.621,4.69753,4.69753,0,0,1,.902-1.61,1.45775,1.45775,0,0,1,.718-.379v-.035c-.718-.069-1.571-.505-1.571-1.379a1.41136,1.41136,0,0,1,.927-1.3,5.25585,5.25585,0,0,1,2.128-.356,17.40325,17.40325,0,0,1,2.139.126Zm-1.509-4.726a4.35249,4.35249,0,0,0-.754-.057c-.668,0-1.348.218-1.348.839,0,.586.754.839,1.348.839.358,0,.556,0,.754-.011Z"/>
    <path class="cls-10" d="M161.8734,65.13928a.88282.88282,0,0,1-.927-.909.89253.89253,0,0,1,.939-.908.909.909,0,1,1,0,1.81695Z"/>
    <path class="cls-10" d="M167.86929,64.2193c-.717-.184-1.113-.621-1.113-1.173,0-.759.816-1.541,2.535-1.541a3.81861,3.81861,0,0,1,1.93.425l-.285.909a3.42741,3.42741,0,0,0-1.459-.334c-.73,0-1.188.277-1.188.667,0,.449.607.63306,1.509.64405h.656v.943h-.668c-.965.012-1.694.196-1.694.736,0,.529.655.805,1.397.805a4.304,4.304,0,0,0,1.694-.391l.223.94306a4.91277,4.91277,0,0,1-2.288.506c-1.274,0-2.646-.448-2.646-1.713a1.52822,1.52822,0,0,1,1.397-1.38Z"/>
    <path class="cls-10" d="M173.4079,61.63177l.965,2.841c.173.494.284.943.433,1.425h.049a9.55448,9.55448,0,0,0,1.261-3.783v-.483h1.422a2.26136,2.26136,0,0,1,.038.425c0,1.588-1.089,3.462-2.189,5.175h-1.472l-2.139-5.6Z"/>
    <path class="cls-10" d="M179.6514,64.2193c-.717-.184-1.113-.621-1.113-1.173,0-.759.816-1.541,2.535-1.541a3.81865,3.81865,0,0,1,1.93.425l-.285.909a3.42737,3.42737,0,0,0-1.459-.334c-.73,0-1.188.277-1.188.667,0,.449.607.63306,1.509.64405h.656v.943h-.668c-.965.012-1.694.196-1.694.736,0,.529.655.805,1.397.805a4.30394,4.30394,0,0,0,1.694-.391l.223.94306a4.91281,4.91281,0,0,1-2.288.506c-1.274,0-2.646-.448-2.646-1.713a1.52823,1.52823,0,0,1,1.397-1.38Z"/>
    <path class="cls-10" d="M185.73421,66.69183v.793a14.13911,14.13911,0,0,0,.087,2.024h-1.472a9.67622,9.67622,0,0,1-.136-2.001v-2.564a3.1471,3.1471,0,0,1,1.026-2.702,3.007,3.007,0,0,1,2.053-.737,2.71758,2.71758,0,0,1,2.881,2.876,2.77343,2.77343,0,0,1-2.782,2.978,2.01279,2.01279,0,0,1-1.632-.667Zm0-1.679a1.76094,1.76094,0,0,0,.037.368,1.40381,1.40381,0,0,0,1.335.886c.965,0,1.521-.794,1.521-1.852,0-.989-.531-1.748-1.434-1.748-.767,0-1.459.621-1.459,1.909Z"/>
    <path class="cls-10" d="M192.74409,69.50861a11.83457,11.83457,0,0,0-.21-3.231,15.11521,15.11521,0,0,0-2.102-4.646h1.706a13.00042,13.00042,0,0,1,1.608,4.071h.05a8.7037,8.7037,0,0,0,1.137-3.622c0-.218-.012-.334-.012-.449h1.447a2.21377,2.21377,0,0,1,.024.415,9.52174,9.52174,0,0,1-2.127,4.932.45206.45206,0,0,0-.074.276c.025.564.025,1.483.037,2.254Z"/>
    <path class="cls-10" d="M198.44341,64.2193c-.717-.184-1.113-.621-1.113-1.173,0-.759.816-1.541,2.535-1.541a3.812,3.812,0,0,1,1.929.425l-.284.909a3.43118,3.43118,0,0,0-1.459-.334c-.73,0-1.188.277-1.188.667,0,.449.607.63306,1.509.64405h.656v.943h-.668c-.965.012-1.694.196-1.694.736,0,.529.655.805,1.397.805a4.304,4.304,0,0,0,1.694-.391l.223.94306a4.91848,4.91848,0,0,1-2.288.506c-1.274,0-2.646-.448-2.646-1.713a1.52822,1.52822,0,0,1,1.397-1.38Z"/>
    <path class="cls-10" d="M204.57629,65.6568c0,.46.148.644.569.621l-.087.989a2.01546,2.01546,0,0,1-.655.092c-.816,0-1.36-.322-1.36-1.564v-4.163h1.533Z"/>
    <path class="cls-10" d="M211.84679,61.63135c-.074.76-.173,2.484-.173,3.818,0,.633.21.851.581.84l-.099,1a1.9157,1.9157,0,0,1-.531.069,1.11716,1.11716,0,0,1-1.175-1.092h-.037a2.24738,2.24738,0,0,1-1.991,1.092,2.55146,2.55146,0,0,1-2.486-2.817,2.86407,2.86407,0,0,1,2.721-3.036,1.86878,1.86878,0,0,1,1.731.977h.05a8.53,8.53,0,0,1,.135-.851Zm-4.365,2.864c0,.943.519,1.736,1.348,1.736a1.50983,1.50983,0,0,0,1.335-1.207,3.65854,3.65854,0,0,0,.05-.656,2.27978,2.27978,0,0,0-.038-.529,1.37883,1.37883,0,0,0-1.273-1.241c-.853,0-1.422.839-1.422,1.885Z"/>
    <path class="cls-10" d="M219.1864,38.9328a11.026,11.026,0,1,1,11.027,11.025,11.02617,11.02617,0,0,1-11.027-11.025"/>
    <path class="cls-8" d="M229.4613,43.06561v-3.801l-2.882-5.316h1.894l1.096,2.34c.311.676.541,1.19.785,1.812h.027c.23-.581.487-1.149.798-1.812l1.095-2.34h1.881l-3.03,5.275v3.842Z"/>
    <path class="cls-10" d="M244.55409,38.9328a11.026,11.026,0,1,1,11.026,11.025,11.026,11.026,0,0,1-11.026-11.025"/>
    <path class="cls-10" d="M219.1864,63.38147a11.026,11.026,0,1,1,11.027,11.026,11.0268,11.0268,0,0,1-11.027-11.026"/>
    <rect class="cls-8" x="226.01199" y="58.39703" width="1.664" height="9.11798"/>
    <polygon class="cls-8" points="234.683 63.47 231.247 63.47 231.247 66.148 235.09 66.148 235.09 67.515 229.584 67.515 229.584 58.397 234.886 58.397 234.886 59.764 231.247 59.764 231.247 62.117 234.683 62.117 234.683 63.47"/>
    <path class="cls-10" d="M244.55409,63.38147a11.026,11.026,0,1,1,11.026,11.026,11.02658,11.02658,0,0,1-11.026-11.026"/>
    <rect class="cls-8" x="247.909" y="33.94897" width="1.664" height="9.117"/>
    <path class="cls-8" d="M253.2932,33.94818h1.664v5.911c0,2.516-1.218,3.355-3.03,3.355a4.43577,4.43577,0,0,1-1.393-.216l.202-1.339a3.651,3.651,0,0,0,1.029.162c.947,0,1.528-.43305,1.528-2.016Z"/>
    <path class="cls-8" d="M258.61008,40.48193l-.785,2.584h-1.717l2.922-9.118h2.124l2.962,9.118h-1.786l-.825-2.584Zm2.611-1.258-.717-2.246c-.176-.554-.325-1.176-.46-1.704h-.027c-.135.52795-.27,1.163-.433,1.704l-.704,2.246Z"/>
    <rect class="cls-8" x="250.561" y="58.39801" width="1.664" height="9.117"/>
    <path class="cls-8" d="M255.9586,64.93176l-.785,2.58295h-1.717l2.922-9.11694h2.123l2.963,9.11694h-1.786l-.825-2.58295Zm2.611-1.258-.717-2.246c-.176-.555-.325-1.177-.46-1.704h-.027c-.135.527-.271,1.163-.433,1.704l-.704,2.246Z"/>
  </g>
  <g class="cls-2">
    <line class="cls-12" x1="24.8031" y1="126.63971" x2="287.00809" y2="126.63971"/>
    <rect class="cls-10" x="31.451" y="489.825" width="43.158" height="43.157"/>
  </g>
  <g class="cls-13">
    <path class="cls-14" d="M37.0721,512.0835l20.905.115v-.345l1.723.058c5.697,1.806,8.908,2.842,9.477,9.304l.287,6.145h-6.95v-5.111l-.401-.346-.517-.803-.862-.459-.747-.345-.861-.115h-.69v-.345l-21.364.173Z"/>
    <path class="cls-15" d="M37.0721,512.0835l20.905.115v-.345l1.723.058c5.697,1.806,8.908,2.842,9.477,9.304l.287,6.145h-6.95v-5.111l-.401-.346-.517-.803-.862-.459-.747-.345-.861-.115h-.69v-.345l-21.364.173Z"/>
    <rect class="cls-15" x="43.83341" y="500.11028" width="17.05569" height="2.12552" transform="translate(-2.35836 0.25201) rotate(-0.26968)"/>
    <path class="cls-14" d="M46.5442,501.17249a2.8185,2.8185,0,0,0-2.798-2.843,2.78862,2.78862,0,0,0-2.796,2.843,2.81737,2.81737,0,0,0,2.796,2.843,2.84843,2.84843,0,0,0,2.798-2.843"/>
    <path class="cls-14" d="M63.7731,501.17249a2.81894,2.81894,0,0,0-2.797-2.843,2.78883,2.78883,0,0,0-2.797,2.843,2.81758,2.81758,0,0,0,2.797,2.843,2.84891,2.84891,0,0,0,2.797-2.843"/>
    <path class="cls-14" d="M55.8944,501.17249a3.54065,3.54065,0,0,0-3.561-3.56,3.4928,3.4928,0,0,0-3.503,3.56,3.52929,3.52929,0,0,0,3.503,3.561,3.578,3.578,0,0,0,3.561-3.561"/>
    <path class="cls-15" d="M55.8929,501.17249a3.54106,3.54106,0,0,0-3.56-3.56,3.49363,3.49363,0,0,0-3.504,3.56,3.53013,3.53013,0,0,0,3.504,3.561,3.57846,3.57846,0,0,0,3.56-3.561"/>
    <rect class="cls-15" x="51.127" y="501.229" width="2.468" height="9.131"/>
    <path class="cls-14" d="M59.9148,515.5537a7.56066,7.56066,0,1,0-7.579,7.878,7.70641,7.70641,0,0,0,7.579-7.878"/>
  </g>
  <g class="cls-2">
    <rect class="cls-10" x="243.998" y="487.55701" width="27.62401" height="46.61299"/>
  </g>
  <g class="cls-16">
    <path class="cls-17" d="M276.34961,510.40309c-.003.106-.008.212-.008.32a11.8945,11.8945,0,0,0,23.789,0c0-.108-.005-.214-.008-.32Z"/>
    <path class="cls-8" d="M252.4456,517.84019q-2.1735-1.93948-4.349-3.879h-3.101v-6.198h3.101q2.1735-1.938,4.349-3.877l1.8-1.604v17.162Z"/>
    <path class="cls-18" d="M252.4456,517.84019q-2.1735-1.93948-4.349-3.879h-3.101v-6.198h3.101q2.1735-1.938,4.349-3.877l1.8-1.604v17.162Z"/>
    <path class="cls-19" d="M263.40048,523.9396a1.23531,1.23531,0,0,1-.312-1.718,20.75571,20.75571,0,0,0-.037-22.713,1.23421,1.23421,0,1,1,2.024-1.413,23.21853,23.21853,0,0,1,.043,25.532,1.23384,1.23384,0,0,1-1.718.312m-4.003-3.383a1.23378,1.23378,0,0,1-.248-1.728,13.88357,13.88357,0,0,0-.043-15.954,1.23462,1.23462,0,1,1,1.966-1.494,16.346,16.346,0,0,1,.053,18.928,1.23288,1.23288,0,0,1-1.728.248m-3.879-3.386a1.23355,1.23355,0,0,1-.113-1.742,7.30332,7.30332,0,0,0-.06-9.173v.001a1.235,1.235,0,0,1,1.828-1.661,9.76392,9.76392,0,0,1,.088,12.462,1.23521,1.23521,0,0,1-1.743.113"/>
    <path class="cls-8" d="M287.8826,497.428a13.435,13.435,0,1,0,13.435,13.435,13.435,13.435,0,0,0-13.435-13.435m0,2.469a10.96665,10.96665,0,0,1,10.802,9.083c-.211-.02-.424-.035-.642-.035a6.03413,6.03413,0,0,0-3.13.84,3.74688,3.74688,0,0,1-3.632-.001,6.258,6.258,0,0,0-6.26,0,3.74529,3.74529,0,0,1-3.633,0,6.03673,6.03673,0,0,0-3.129-.839,6.55586,6.55586,0,0,0-1.192.111,10.96779,10.96779,0,0,1,10.816-9.159m0,21.933a10.96612,10.96612,0,0,1-10.932-10.128,3.75088,3.75088,0,0,1,1.308-.23,3.5371,3.5371,0,0,1,1.816.47,6.258,6.258,0,0,0,6.26,0,3.74141,3.74141,0,0,1,3.631,0,6.26306,6.26306,0,0,0,6.261.001,3.52728,3.52728,0,0,1,1.816-.471,3.9371,3.9371,0,0,1,.783.078,10.96461,10.96461,0,0,1-10.943,10.28"/>
  </g>
  <g class="cls-2">
    <rect class="cls-10" x="100.022" y="491.606" width="46.097" height="45.75999"/>
  </g>
  <g class="cls-20">
    <path class="cls-21" d="M118.1791,495.82259c-1.297,1.256-2.038,3.769-.741,6.853s2.408,6.739.556,9.594"/>
    <path class="cls-21" d="M122.0584,495.82259c-1.297,1.256-2.038,3.769-.741,6.853s2.408,6.739.556,9.594"/>
    <path class="cls-21" d="M125.9374,495.82259c-1.297,1.256-2.038,3.769-.741,6.853s2.408,6.739.556,9.594"/>
    <path class="cls-22" d="M114.7166,514.2792a7.0295,7.0295,0,1,1,7.029,7.03A7.02922,7.02922,0,0,1,114.7166,514.2792Z"/>
    <path class="cls-23" d="M110.975,514.2792a10.7715,10.7715,0,1,1,10.771,10.772A10.77206,10.77206,0,0,1,110.975,514.2792Z"/>
  </g>
  <g class="cls-2">
    <rect class="cls-10" x="166.43401" y="496.061" width="46.771" height="34.016"/>
  </g>
  <g class="cls-24">
    <path class="cls-8" d="M208.7588,502.7859h-7.137c-.862,2.341-5.352,11.359,3.033,13.5l.008,6.735-4.504.558a.5047.5047,0,0,0-.439.564.52084.52084,0,0,0,.564.44h9.813a.52023.52023,0,0,0,.564-.44.50475.50475,0,0,0-.44-.564l-4.503-.558.008-6.735c8.385-2.141,3.895-11.159,3.033-13.5"/>
    <circle class="cls-25" cx="189.90489" cy="514.55139" r="7.215"/>
    <circle class="cls-26" cx="189.9049" cy="514.55139" r="11.055"/>
    <path class="cls-8" d="M178.0406,502.97649c-.06-.097-.13-.097-.213,0v5.926a.27775.27775,0,0,1-.403,0l-.157-5.907q-.0975-.1605-.195,0l-.101,5.972a.2924.2924,0,0,1-.362,0l-.171-5.991c-.069-.097-.139-.097-.213,0v5.991a.42122.42122,0,0,1-.453,0l-.13-5.991c-.065-.097-.125-.097-.181,0l-.366,5.667a3.31029,3.31029,0,0,0,0,.675,4.23854,4.23854,0,0,0,.917,1.653,1.26218,1.26218,0,0,1,.195.755l.046,1.842-.241,13.301,1.695-.042-.514-14.921a1.35194,1.35194,0,0,1,.194-.634,4.98383,4.98383,0,0,1,.482-.805,2.68783,2.68783,0,0,0,.537-.991,2.57787,2.57787,0,0,0,.092-.764Z"/>
    <path class="cls-8" d="M173.2157,506.384a6.5821,6.5821,0,0,0-.148-.662,10.188,10.188,0,0,0-.458-1.268,4.817,4.817,0,0,0-.556-.931,1.60131,1.60131,0,0,0-1.204-.639,1.40123,1.40123,0,0,0-.481.056,2.00977,2.00977,0,0,0-1.232,1.014,6.89285,6.89285,0,0,0-.638,1.648,8.24755,8.24755,0,0,0-.181.93,4.882,4.882,0,0,0-.051.63,6.328,6.328,0,0,0,.181,1.615,2.03567,2.03567,0,0,0,.393.806c.116.143.232.287.347.426a4.48173,4.48173,0,0,0,.63.625,1.21849,1.21849,0,0,1,.366.495,2.047,2.047,0,0,1,.139.75q.01352,1.3755.013,2.75l-.374,12.236,1.902-.097-.523-12.597c0-.681.005-1.356.01-2.033,0-.064,0-.129.004-.198.005-.065.014-.13.019-.195a1.68794,1.68794,0,0,1,.416-1.079c.26-.301.523-.597.792-.889a2.77252,2.77252,0,0,0,.449-.657,2.59036,2.59036,0,0,0,.259-1.13,7.44288,7.44288,0,0,0-.074-1.606"/>
    <path class="cls-8" d="M174.9841,503.4164a.67146.67146,0,0,0-1.005-.454c-.388.112-.759,1.093-1.106,2.94-.088.542-.19,1.259-.306,2.162a22.89614,22.89614,0,0,0-.19,2.866q.021,1.167.223,2.889l.009.139a1.4044,1.4044,0,0,1,1.014.768l-.19,7.801-.042,4.347h1.917q-.48-10.6665-.324-23.458"/>
    <rect class="cls-10" x="168.12299" y="524.59699" width="10.77901" height="7.038"/>
  </g>
  <g class="cls-2">
    <path class="cls-6" d="M263.67517,569.1477a1.49159,1.49159,0,0,1-.409.536,1.81179,1.81179,0,0,1-.604.324,2.65275,2.65275,0,0,1-.803.109h-1.95v-3.562h1.607a3.81923,3.81923,0,0,1,1.048.121,1.86469,1.86469,0,0,1,.694.355,1.50471,1.50471,0,0,1,.421.578,2.0532,2.0532,0,0,1,.144.797,1.74249,1.74249,0,0,1-.148.742m-.558-4.707a1.422,1.422,0,0,1-.308.539,1.5114,1.5114,0,0,1-.53.368,2.175,2.175,0,0,1-.842.136h-1.528v-3.273h1.388a3.20235,3.20235,0,0,1,.927.109,1.428,1.428,0,0,1,.569.317,1.23028,1.23028,0,0,1,.32.504,2.06106,2.06106,0,0,1,.101.664,2.09693,2.09693,0,0,1-.097.636m1.964,2.942a2.43469,2.43469,0,0,0-.426-.75,2.355,2.355,0,0,0-.628-.528,2.47651,2.47651,0,0,0-.774-.285,2.19712,2.19712,0,0,0,.582-.359,2.07054,2.07054,0,0,0,.422-.496,2.26517,2.26517,0,0,0,.254-.606,2.71068,2.71068,0,0,0,.086-.687,2.82188,2.82188,0,0,0-.195-1.078,2.08385,2.08385,0,0,0-.582-.805,2.63465,2.63465,0,0,0-.965-.5,5.35553,5.35553,0,0,0-1.485-.172h-2.297a.5563.5563,0,0,0-.339.121.50277.50277,0,0,0-.161.426v9.016a.49933.49933,0,0,0,.161.425.55133.55133,0,0,0,.339.122h2.641a5.65342,5.65342,0,0,0,1.012-.082,3.96185,3.96185,0,0,0,.828-.247,3.01258,3.01258,0,0,0,.695-.406,2.51341,2.51341,0,0,0,.528-.562,2.61364,2.61364,0,0,0,.339-.723,3.0273,3.0273,0,0,0,.122-.879,2.74711,2.74711,0,0,0-.157-.945m-10.179,1.515a6.37761,6.37761,0,0,1-.578.645,3.75911,3.75911,0,0,1-.523.426,1.87244,1.87244,0,0,1-.489.234,1.739,1.739,0,0,1-.496.07,1.42342,1.42342,0,0,1-.844-.238,1.73841,1.73841,0,0,1-.539-.633,3.02228,3.02228,0,0,1-.285-.902,6.59148,6.59148,0,0,1-.082-1.039,4.9757,4.9757,0,0,1,.098-.984,2.96775,2.96775,0,0,1,.312-.868,1.80848,1.80848,0,0,1,.559-.617,1.45028,1.45028,0,0,1,.836-.234,1.75384,1.75384,0,0,1,1.019.34,5.06484,5.06484,0,0,1,1.012.988Zm1.297-8.273a.18361.18361,0,0,0-.035-.105.23032.23032,0,0,0-.106-.079.98659.98659,0,0,0-.195-.046,2.13175,2.13175,0,0,0-.32-.02,2.00188,2.00188,0,0,0-.309.02,1.20893,1.20893,0,0,0-.199.046.18771.18771,0,0,0-.106.079.21889.21889,0,0,0-.027.105v4.086a4.00675,4.00675,0,0,0-1.012-.793,2.37983,2.37983,0,0,0-1.129-.27,2.93685,2.93685,0,0,0-1.308.278,2.57537,2.57537,0,0,0-.949.793,3.62212,3.62212,0,0,0-.578,1.246,6.30161,6.30161,0,0,0-.196,1.637,6.54679,6.54679,0,0,0,.157,1.457,3.56456,3.56456,0,0,0,.496,1.203,2.47849,2.47849,0,0,0,.886.812,2.70064,2.70064,0,0,0,1.321.301,2.62138,2.62138,0,0,0,1.308-.336,4.74694,4.74694,0,0,0,1.153-.937v.929a.19416.19416,0,0,0,.031.11.21041.21041,0,0,0,.101.074.88207.88207,0,0,0,.18.043,2.07236,2.07236,0,0,0,.274.015,1.98846,1.98846,0,0,0,.265-.015.79244.79244,0,0,0,.176-.043.18975.18975,0,0,0,.094-.074.21863.21863,0,0,0,.027-.11Z"/>
    <path class="cls-6" d="M276.7645,453.2562a5.40747,5.40747,0,0,0-.129-1.199,2.71459,2.71459,0,0,0-.432-.992,2.1947,2.1947,0,0,0-.792-.677,2.61948,2.61948,0,0,0-1.212-.253,2.27048,2.27048,0,0,0-.594.079,2.6464,2.6464,0,0,0-.606.253,4.198,4.198,0,0,0-.647.457,7.70187,7.70187,0,0,0-.71.688,2.70339,2.70339,0,0,0-.332-.601,2.025,2.025,0,0,0-.481-.465,2.26174,2.26174,0,0,0-.652-.303,2.969,2.969,0,0,0-.834-.108,2.45568,2.45568,0,0,0-1.2.328,4.84435,4.84435,0,0,0-1.224,1.033v-.988a.20984.20984,0,0,0-.029-.112.26859.26859,0,0,0-.096-.083.47956.47956,0,0,0-.186-.049,2.841,2.841,0,0,0-.303-.013,2.78411,2.78411,0,0,0-.307.013.54753.54753,0,0,0-.191.049.18922.18922,0,0,0-.125.195v7.471a.20486.20486,0,0,0,.029.112.22037.22037,0,0,0,.108.079.82707.82707,0,0,0,.212.05,2.77479,2.77479,0,0,0,.332.016,2.87512,2.87512,0,0,0,.34-.016.7624.7624,0,0,0,.208-.05.26658.26658,0,0,0,.108-.079.1836.1836,0,0,0,.033-.112v-5.221a6.26184,6.26184,0,0,1,1.046-1.071,1.58026,1.58026,0,0,1,.954-.365,1.38012,1.38012,0,0,1,.66.149,1.26,1.26,0,0,1,.461.432,2.13214,2.13214,0,0,1,.274.672,3.79347,3.79347,0,0,1,.091.864v4.54a.2047.2047,0,0,0,.029.112.2203.2203,0,0,0,.108.079.84154.84154,0,0,0,.216.05,3.41312,3.41312,0,0,0,.66,0,.81776.81776,0,0,0,.211-.05.25018.25018,0,0,0,.112-.079.184.184,0,0,0,.034-.112v-5.221a6.57536,6.57536,0,0,1,1.05-1.071,1.56528,1.56528,0,0,1,.95-.365,1.405,1.405,0,0,1,.664.149,1.24786,1.24786,0,0,1,.465.432,1.99483,1.99483,0,0,1,.266.672,4.18923,4.18923,0,0,1,.083.864v4.54a.18359.18359,0,0,0,.033.112.25029.25029,0,0,0,.112.079.81643.81643,0,0,0,.212.05,2.86364,2.86364,0,0,0,.34.016,2.78587,2.78587,0,0,0,.332-.016.772.772,0,0,0,.208-.05.25583.25583,0,0,0,.107-.079.184.184,0,0,0,.034-.112Zm-13.44-2.748a.17261.17261,0,0,0-.038-.112.34352.34352,0,0,0-.112-.083.58746.58746,0,0,0-.207-.049c-.089-.009-.199-.013-.332-.013a3.35743,3.35743,0,0,0-.336.013.66929.66929,0,0,0-.212.049.25458.25458,0,0,0-.112.083.20124.20124,0,0,0-.029.112v5.222a5.82965,5.82965,0,0,1-1.083,1.07,1.75447,1.75447,0,0,1-1.026.366,1.49773,1.49773,0,0,1-.697-.154,1.34166,1.34166,0,0,1-.494-.432,1.94549,1.94549,0,0,1-.29-.672,4.60624,4.60624,0,0,1-.096-1.05v-4.35a.18783.18783,0,0,0-.033-.112.28832.28832,0,0,0-.112-.083.6368.6368,0,0,0-.212-.049c-.088-.009-.199-.013-.332-.013s-.243.004-.332.013a.68965.68965,0,0,0-.216.049.26055.26055,0,0,0-.112.083.20958.20958,0,0,0-.029.112v4.533a6.00791,6.00791,0,0,0,.137,1.382,2.73606,2.73606,0,0,0,.453.996,2.20139,2.20139,0,0,0,.826.676,2.85022,2.85022,0,0,0,1.257.249,2.71874,2.71874,0,0,0,1.262-.323,4.66376,4.66376,0,0,0,1.262-1.03v.988a.22367.22367,0,0,0,.025.112.19324.19324,0,0,0,.095.079.67918.67918,0,0,0,.191.05,2.38472,2.38472,0,0,0,.311.016,2.23387,2.23387,0,0,0,.295-.016.74273.74273,0,0,0,.195-.05.22724.22724,0,0,0,.104-.079.205.205,0,0,0,.029-.112Zm-8.69,2.914a5.8638,5.8638,0,0,0-.137-1.365,2.6936,2.6936,0,0,0-.452-.992,2.26012,2.26012,0,0,0-.826-.677,2.807,2.807,0,0,0-1.257-.253,2.6962,2.6962,0,0,0-1.266.328,4.591,4.591,0,0,0-1.258,1.033v-.988a.20966.20966,0,0,0-.029-.112.264.264,0,0,0-.095-.083.49043.49043,0,0,0-.187-.049,2.81563,2.81563,0,0,0-.303-.013,2.78431,2.78431,0,0,0-.307.013.55366.55366,0,0,0-.191.049.22707.22707,0,0,0-.1.083.24051.24051,0,0,0-.025.112v7.471a.20478.20478,0,0,0,.029.112.23033.23033,0,0,0,.108.079.82677.82677,0,0,0,.212.05,2.77467,2.77467,0,0,0,.332.016,2.86417,2.86417,0,0,0,.34-.016.76222.76222,0,0,0,.208-.05.25324.25324,0,0,0,.108-.079.1836.1836,0,0,0,.033-.112v-5.221a5.59787,5.59787,0,0,1,1.079-1.071,1.7729,1.7729,0,0,1,1.029-.365,1.57649,1.57649,0,0,1,.702.149,1.27033,1.27033,0,0,1,.494.432,2.12427,2.12427,0,0,1,.29.672,4.27941,4.27941,0,0,1,.1,1.03v4.374a.18366.18366,0,0,0,.033.112.25324.25324,0,0,0,.108.079.76336.76336,0,0,0,.207.05,2.88254,2.88254,0,0,0,.341.016,2.78609,2.78609,0,0,0,.332-.016.76317.76317,0,0,0,.207-.05.25318.25318,0,0,0,.108-.079.1836.1836,0,0,0,.033-.112Zm-8.761,0a5.918,5.918,0,0,0-.137-1.365,2.69475,2.69475,0,0,0-.453-.992,2.25174,2.25174,0,0,0-.826-.677,2.807,2.807,0,0,0-1.257-.253,2.70231,2.70231,0,0,0-1.266.328,4.59075,4.59075,0,0,0-1.258,1.033v-.988a.201.201,0,0,0-.029-.112.26412.26412,0,0,0-.095-.083.48536.48536,0,0,0-.187-.049,3.58423,3.58423,0,0,0-.61,0,.55973.55973,0,0,0-.191.049.21785.21785,0,0,0-.099.083.22894.22894,0,0,0-.025.112v7.471a.19653.19653,0,0,0,.029.112.22037.22037,0,0,0,.108.079.818.818,0,0,0,.211.05,2.79723,2.79723,0,0,0,.332.016,2.88247,2.88247,0,0,0,.341-.016.76317.76317,0,0,0,.207-.05.25324.25324,0,0,0,.108-.079.18366.18366,0,0,0,.033-.112v-5.221a5.62645,5.62645,0,0,1,1.079-1.071,1.77334,1.77334,0,0,1,1.03-.365,1.575,1.575,0,0,1,.701.149,1.26321,1.26321,0,0,1,.494.432,2.14841,2.14841,0,0,1,.291.672,4.33835,4.33835,0,0,1,.099,1.03v4.374a.1836.1836,0,0,0,.033.112.25318.25318,0,0,0,.108.079.762.762,0,0,0,.208.05,2.86405,2.86405,0,0,0,.34.016,2.77485,2.77485,0,0,0,.332-.016.76213.76213,0,0,0,.208-.05.26644.26644,0,0,0,.108-.079.1836.1836,0,0,0,.033-.112Zm-10.133,2.739a4.3185,4.3185,0,0,1-.967.839,1.929,1.929,0,0,1-1,.274,1.45643,1.45643,0,0,1-1.034-.345,1.20376,1.20376,0,0,1-.369-.925,1.343,1.343,0,0,1,.129-.602,1.15542,1.15542,0,0,1,.402-.448,2.01618,2.01618,0,0,1,.689-.283,4.45708,4.45708,0,0,1,.98-.095h1.17Zm1.361-3.212a4.24139,4.24139,0,0,0-.157-1.22,2.07446,2.07446,0,0,0-.507-.876,2.208,2.208,0,0,0-.913-.535,4.47478,4.47478,0,0,0-1.369-.183,4.61769,4.61769,0,0,0-.855.079,5.66058,5.66058,0,0,0-.781.199,4.21777,4.21777,0,0,0-.631.266,1.836,1.836,0,0,0-.386.253.48561.48561,0,0,0-.141.228,1.48376,1.48376,0,0,0-.029.328,1.45036,1.45036,0,0,0,.017.228.50753.50753,0,0,0,.054.17.27978.27978,0,0,0,.087.1.205.205,0,0,0,.116.033.69507.69507,0,0,0,.303-.12c.136-.08.304-.169.507-.266a4.78109,4.78109,0,0,1,.705-.265,3.14081,3.14081,0,0,1,.909-.121,2.48043,2.48043,0,0,1,.797.112,1.27674,1.27674,0,0,1,.527.332,1.3101,1.3101,0,0,1,.295.552,2.89029,2.89029,0,0,1,.091.764v.581h-1.029a7.28024,7.28024,0,0,0-1.569.154,3.63878,3.63878,0,0,0-1.179.46,2.14533,2.14533,0,0,0-.739.772,2.23354,2.23354,0,0,0-.257,1.096,2.35381,2.35381,0,0,0,.187.963,1.99266,1.99266,0,0,0,.523.714,2.29521,2.29521,0,0,0,.813.444,3.48488,3.48488,0,0,0,1.067.153,2.88854,2.88854,0,0,0,1.274-.29,3.7,3.7,0,0,0,1.092-.814v.747a.18529.18529,0,0,0,.058.15.41183.41183,0,0,0,.186.075,1.96842,1.96842,0,0,0,.345.024,1.801,1.801,0,0,0,.34-.024.4715.4715,0,0,0,.183-.075.17539.17539,0,0,0,.066-.15Zm-6.343-6.533a.352.352,0,0,0,.025-.191.2098.2098,0,0,0-.092-.133.60591.60591,0,0,0-.207-.078,1.60309,1.60309,0,0,0-.341-.029c-.116,0-.215.004-.298.012a.6216.6216,0,0,0-.204.05.41308.41308,0,0,0-.133.099.47262.47262,0,0,0-.087.171l-5.022,13.771a.30179.30179,0,0,0-.033.186.21877.21877,0,0,0,.091.133.56125.56125,0,0,0,.212.083,1.72779,1.72779,0,0,0,.345.029,2.21744,2.21744,0,0,0,.294-.016.95093.95093,0,0,0,.204-.05.34688.34688,0,0,0,.137-.096.45906.45906,0,0,0,.087-.17Zm-7.436,7.014a5.96134,5.96134,0,0,0-.137-1.373,2.67872,2.67872,0,0,0-.453-.992,2.2566,2.2566,0,0,0-.825-.677,2.81449,2.81449,0,0,0-1.258-.253,2.64169,2.64169,0,0,0-1.204.303,4.42707,4.42707,0,0,0-1.187.925v-4.474a.20494.20494,0,0,0-.033-.116.24287.24287,0,0,0-.108-.083.76307.76307,0,0,0-.207-.05,2.88145,2.88145,0,0,0-.341-.016,2.7967,2.7967,0,0,0-.332.016.81776.81776,0,0,0-.211.05.213.213,0,0,0-.108.083.21984.21984,0,0,0-.029.116v11.09a.1966.1966,0,0,0,.029.112.22037.22037,0,0,0,.108.079.81776.81776,0,0,0,.211.05,2.79723,2.79723,0,0,0,.332.016,2.88205,2.88205,0,0,0,.341-.016.76307.76307,0,0,0,.207-.05.25311.25311,0,0,0,.108-.079.18354.18354,0,0,0,.033-.112v-5.221a5.62641,5.62641,0,0,1,1.079-1.071,1.77809,1.77809,0,0,1,1.03-.365,1.57515,1.57515,0,0,1,.701.149,1.26342,1.26342,0,0,1,.494.432,2.14817,2.14817,0,0,1,.291.672,4.3388,4.3388,0,0,1,.099,1.03v4.374a.1836.1836,0,0,0,.033.112.2595.2595,0,0,0,.108.079.762.762,0,0,0,.208.05,2.86368,2.86368,0,0,0,.34.016,2.77463,2.77463,0,0,0,.332-.016.762.762,0,0,0,.208-.05.25963.25963,0,0,0,.108-.079.1836.1836,0,0,0,.033-.112Zm-8.135-5.47a1.94781,1.94781,0,0,0,.046-.299.20167.20167,0,0,0-.063-.166.41608.41608,0,0,0-.211-.079,3.11521,3.11521,0,0,0-.395-.02,3.60658,3.60658,0,0,0-.386.016.85319.85319,0,0,0-.224.05.18027.18027,0,0,0-.104.096c-.016.041-.033.09-.049.145l-2.366,8.99h-.017l-2.465-8.982a.60791.60791,0,0,0-.062-.153.2334.2334,0,0,0-.121-.096.88916.88916,0,0,0-.22-.05,3.25124,3.25124,0,0,0-.369-.016,3.96705,3.96705,0,0,0-.403.016.93319.93319,0,0,0-.236.05.2335.2335,0,0,0-.121.096.648.648,0,0,0-.062.153l-2.291,8.982h-.008l-2.416-8.999a.58645.58645,0,0,0-.045-.149.20316.20316,0,0,0-.108-.091.78006.78006,0,0,0-.228-.046c-.1-.008-.236-.012-.407-.012-.177,0-.318.005-.424.016a.42912.42912,0,0,0-.228.075.192.192,0,0,0-.066.166,1.52928,1.52928,0,0,0,.054.299l2.839,9.919a.35642.35642,0,0,0,.265.295,1.41539,1.41539,0,0,0,.299.054c.122.011.274.016.457.016.177,0,.322-.005.435-.016a1.22092,1.22092,0,0,0,.278-.054.35937.35937,0,0,0,.166-.108.41984.41984,0,0,0,.083-.187l2.076-8.11h.016l2.25,8.11a.50245.50245,0,0,0,.091.187.36642.36642,0,0,0,.174.108,1.40939,1.40939,0,0,0,.295.054c.119.011.264.016.436.016.166,0,.306-.005.419-.016a1.37655,1.37655,0,0,0,.286-.054.42071.42071,0,0,0,.183-.108.44537.44537,0,0,0,.1-.187Zm-14.771,9.849a1.68993,1.68993,0,0,0-.154-.228l-3.038-3.943,2.706-2.706a1.19394,1.19394,0,0,0,.179-.233.41119.41119,0,0,0,.054-.199.18162.18162,0,0,0-.038-.12.26074.26074,0,0,0-.124-.075,1.03193,1.03193,0,0,0-.228-.041c-.094-.009-.211-.013-.349-.013-.133,0-.246.004-.34.013a.96473.96473,0,0,0-.245.049.7331.7331,0,0,0-.179.092.75378.75378,0,0,0-.141.137l-2.822,3.104v-6.757a.205.205,0,0,0-.033-.116.24289.24289,0,0,0-.108-.083.762.762,0,0,0-.208-.05,2.86326,2.86326,0,0,0-.34-.016,2.7739,2.7739,0,0,0-.332.016.827.827,0,0,0-.212.05.2222.2222,0,0,0-.108.083.22954.22954,0,0,0-.029.116v11.09a.20478.20478,0,0,0,.029.112.23038.23038,0,0,0,.108.079.827.827,0,0,0,.212.05,2.77445,2.77445,0,0,0,.332.016,2.86387,2.86387,0,0,0,.34-.016.762.762,0,0,0,.208-.05.25314.25314,0,0,0,.108-.079.1836.1836,0,0,0,.033-.112v-4.142l3.154,4.134a.67483.67483,0,0,0,.112.129.44169.44169,0,0,0,.162.083,1.29627,1.29627,0,0,0,.245.041q.1455.012.369.012a3.18633,3.18633,0,0,0,.357-.016.837.837,0,0,0,.22-.05.24046.24046,0,0,0,.112-.083.19822.19822,0,0,0,.034-.116.35772.35772,0,0,0-.046-.162"/>
    <path class="cls-6" d="M83.0038,567.2156a5.211,5.211,0,0,0-.119-1.129,2.55721,2.55721,0,0,0-.403-.934,2.05662,2.05662,0,0,0-.738-.636,2.42085,2.42085,0,0,0-1.129-.239,2.09493,2.09493,0,0,0-.554.075,2.43641,2.43641,0,0,0-.564.238,3.9164,3.9164,0,0,0-.603.43,7.19767,7.19767,0,0,0-.662.648,2.50493,2.50493,0,0,0-.309-.566,1.88784,1.88784,0,0,0-.449-.438,2.08628,2.08628,0,0,0-.607-.285,2.72893,2.72893,0,0,0-.777-.102,2.27035,2.27035,0,0,0-1.118.309,4.547,4.547,0,0,0-1.141.973v-.93a.19042.19042,0,0,0-.027-.105.24156.24156,0,0,0-.089-.079.44517.44517,0,0,0-.174-.046,3.36638,3.36638,0,0,0-.568,0,.51251.51251,0,0,0-.178.046.215.215,0,0,0-.093.079.22041.22041,0,0,0-.023.105v7.031a.19642.19642,0,0,0,.027.106.21925.21925,0,0,0,.101.074.76942.76942,0,0,0,.197.047,2.62853,2.62853,0,0,0,.309.015,2.7186,2.7186,0,0,0,.317-.015.72259.72259,0,0,0,.194-.047.24612.24612,0,0,0,.1-.074.17493.17493,0,0,0,.031-.106v-4.914a5.91968,5.91968,0,0,1,.975-1.008,1.46206,1.46206,0,0,1,.889-.343,1.281,1.281,0,0,1,.615.14,1.159,1.159,0,0,1,.429.407,1.9981,1.9981,0,0,1,.256.632,3.65018,3.65018,0,0,1,.085.813v4.273a.19641.19641,0,0,0,.027.106.21559.21559,0,0,0,.1.074.7842.7842,0,0,0,.201.047,2.66915,2.66915,0,0,0,.306.015,2.62853,2.62853,0,0,0,.309-.015.76942.76942,0,0,0,.197-.047.25286.25286,0,0,0,.105-.074.18188.18188,0,0,0,.031-.106v-4.914a6.24123,6.24123,0,0,1,.978-1.008,1.44989,1.44989,0,0,1,.886-.343,1.30573,1.30573,0,0,1,.619.14,1.1621,1.1621,0,0,1,.433.407,1.88044,1.88044,0,0,1,.247.632,3.923,3.923,0,0,1,.078.813v4.273a.18143.18143,0,0,0,.03.106.25286.25286,0,0,0,.105.074.78012.78012,0,0,0,.197.047,2.73056,2.73056,0,0,0,.317.015,2.65888,2.65888,0,0,0,.31-.015.7139.7139,0,0,0,.193-.047.24612.24612,0,0,0,.1-.074.17493.17493,0,0,0,.031-.106Zm-12.369-2.586a.15509.15509,0,0,0-.035-.105.31881.31881,0,0,0-.104-.079.5457.5457,0,0,0-.193-.046c-.083-.008-.186-.012-.31-.012-.129,0-.233.004-.313.012a.61429.61429,0,0,0-.197.046.2358.2358,0,0,0-.105.079.19042.19042,0,0,0-.027.105v4.914a5.42045,5.42045,0,0,1-1.009,1.008,1.62493,1.62493,0,0,1-.955.344,1.38437,1.38437,0,0,1-.65-.145,1.26344,1.26344,0,0,1-.46-.406,1.86449,1.86449,0,0,1-.271-.633,4.4147,4.4147,0,0,1-.089-.988v-4.094a.16985.16985,0,0,0-.031-.105.2648.2648,0,0,0-.104-.079.58884.58884,0,0,0-.197-.046c-.083-.008-.186-.012-.31-.012-.123,0-.227.004-.309.012a.62154.62154,0,0,0-.201.046.23582.23582,0,0,0-.105.079.1905.1905,0,0,0-.027.105v4.266a5.68559,5.68559,0,0,0,.128,1.3,2.584,2.584,0,0,0,.422.938,2.0653,2.0653,0,0,0,.769.637,2.64052,2.64052,0,0,0,1.172.234,2.50118,2.50118,0,0,0,1.175-.305,4.34738,4.34738,0,0,0,1.176-.968v.929a.2275.2275,0,0,0,.023.106.19387.19387,0,0,0,.089.074.6379.6379,0,0,0,.178.047,2.27712,2.27712,0,0,0,.29.015,2.13143,2.13143,0,0,0,.275-.015.71345.71345,0,0,0,.182-.047.218.218,0,0,0,.096-.074.19641.19641,0,0,0,.027-.106Zm-7.942,2.742a5.61345,5.61345,0,0,0-.128-1.285,2.55,2.55,0,0,0-.422-.934,2.11941,2.11941,0,0,0-.769-.636,2.59783,2.59783,0,0,0-1.172-.239,2.49586,2.49586,0,0,0-1.179.309,4.28157,4.28157,0,0,0-1.172.973v-.93a.1905.1905,0,0,0-.027-.105.25007.25007,0,0,0-.089-.079.45543.45543,0,0,0-.174-.046,2.7457,2.7457,0,0,0-.283-.012,2.71556,2.71556,0,0,0-.286.012.51871.51871,0,0,0-.178.046.20576.20576,0,0,0-.092.079.20913.20913,0,0,0-.024.105v7.031a.19641.19641,0,0,0,.027.106.21925.21925,0,0,0,.101.074.78023.78023,0,0,0,.197.047,2.65906,2.65906,0,0,0,.31.015,2.74258,2.74258,0,0,0,.317-.015.71392.71392,0,0,0,.193-.047.25742.25742,0,0,0,.101-.074.18188.18188,0,0,0,.031-.106v-4.914a5.2399,5.2399,0,0,1,1.005-1.008,1.63913,1.63913,0,0,1,.959-.343,1.46035,1.46035,0,0,1,.654.14,1.17791,1.17791,0,0,1,.46.407,2.035,2.035,0,0,1,.271.632,4.14343,4.14343,0,0,1,.092.969v4.117a.18188.18188,0,0,0,.031.106.25018.25018,0,0,0,.101.074.71392.71392,0,0,0,.193.047,2.73056,2.73056,0,0,0,.317.015,2.65906,2.65906,0,0,0,.31-.015.71392.71392,0,0,0,.193-.047.25742.25742,0,0,0,.101-.074.18188.18188,0,0,0,.031-.106Zm-8.011,0a5.61839,5.61839,0,0,0-.127-1.285,2.55,2.55,0,0,0-.422-.934,2.11941,2.11941,0,0,0-.769-.636,2.59783,2.59783,0,0,0-1.172-.239,2.50263,2.50263,0,0,0-1.18.309,4.27873,4.27873,0,0,0-1.171.973v-.93a.1905.1905,0,0,0-.027-.105.25907.25907,0,0,0-.089-.079.45543.45543,0,0,0-.174-.046,2.7457,2.7457,0,0,0-.283-.012,2.71556,2.71556,0,0,0-.286.012.51871.51871,0,0,0-.178.046.215.215,0,0,0-.093.079.22041.22041,0,0,0-.023.105v7.031a.19641.19641,0,0,0,.027.106.21925.21925,0,0,0,.101.074.78023.78023,0,0,0,.197.047,2.6524,2.6524,0,0,0,.309.015,2.74949,2.74949,0,0,0,.318-.015.71392.71392,0,0,0,.193-.047.24612.24612,0,0,0,.1-.074.17493.17493,0,0,0,.031-.106v-4.914a5.27011,5.27011,0,0,1,1.006-1.008,1.63913,1.63913,0,0,1,.959-.343,1.46336,1.46336,0,0,1,.654.14,1.17791,1.17791,0,0,1,.46.407,2.01069,2.01069,0,0,1,.27.632,4.08271,4.08271,0,0,1,.093.969v4.117a.17493.17493,0,0,0,.031.106.25018.25018,0,0,0,.101.074.71392.71392,0,0,0,.193.047,2.7186,2.7186,0,0,0,.317.015,2.65906,2.65906,0,0,0,.31-.015.72385.72385,0,0,0,.193-.047.24612.24612,0,0,0,.1-.074.17493.17493,0,0,0,.031-.106Zm-9.286,2.578a3.9761,3.9761,0,0,1-.901.789,1.77661,1.77661,0,0,1-.932.258,1.35178,1.35178,0,0,1-.963-.324,1.14169,1.14169,0,0,1-.344-.871,1.28092,1.28092,0,0,1,.12-.567,1.09339,1.09339,0,0,1,.375-.421,1.8536,1.8536,0,0,1,.642-.266,4.06842,4.06842,0,0,1,.913-.09h1.09Zm1.269-3.023a4.03352,4.03352,0,0,0-.147-1.149,1.95549,1.95549,0,0,0-.472-.824,2.0701,2.0701,0,0,0-.851-.504,4.15891,4.15891,0,0,0-1.276-.172,4.26052,4.26052,0,0,0-.797.075,5.30772,5.30772,0,0,0-.727.187,4.01338,4.01338,0,0,0-.587.25,1.67064,1.67064,0,0,0-.36.238.44952.44952,0,0,0-.132.215,1.39879,1.39879,0,0,0-.027.309,1.29816,1.29816,0,0,0,.016.215.48659.48659,0,0,0,.05.16.26227.26227,0,0,0,.081.094.19638.19638,0,0,0,.109.031.65882.65882,0,0,0,.282-.113q.189-.114.472-.25a4.4445,4.4445,0,0,1,.657-.25,2.908,2.908,0,0,1,.847-.114,2.2451,2.2451,0,0,1,.742.106,1.17622,1.17622,0,0,1,.492.312,1.24517,1.24517,0,0,1,.274.52,2.733,2.733,0,0,1,.085.719v.546h-.959a6.78513,6.78513,0,0,0-1.462.145,3.34734,3.34734,0,0,0-1.098.434,1.99657,1.99657,0,0,0-.688.726,2.114,2.114,0,0,0-.24,1.031,2.24716,2.24716,0,0,0,.174.907,1.87062,1.87062,0,0,0,.487.671,2.13347,2.13347,0,0,0,.758.418,3.18954,3.18954,0,0,0,.994.145,2.67621,2.67621,0,0,0,1.187-.273,3.44977,3.44977,0,0,0,1.017-.766v.703a.17464.17464,0,0,0,.055.141.38474.38474,0,0,0,.174.07,1.70526,1.70526,0,0,0,.321.023,1.59027,1.59027,0,0,0,.317-.023.4399.4399,0,0,0,.17-.07.167.167,0,0,0,.062-.141Zm-5.756-6.149a.31663.31663,0,0,0,.023-.179.18752.18752,0,0,0-.085-.125.54766.54766,0,0,0-.193-.074,1.4579,1.4579,0,0,0-.317-.028,2.78469,2.78469,0,0,0-.279.012.567.567,0,0,0-.189.047.36118.36118,0,0,0-.124.094.45158.45158,0,0,0-.081.16l-4.679,12.961a.27975.27975,0,0,0-.031.175.19955.19955,0,0,0,.085.125.52732.52732,0,0,0,.197.079,1.58816,1.58816,0,0,0,.321.027,1.94831,1.94831,0,0,0,.275-.016.77784.77784,0,0,0,.189-.047.31785.31785,0,0,0,.128-.089.466.466,0,0,0,.081-.161Zm-6.301,10.227a.55235.55235,0,0,0-.05-.176.27752.27752,0,0,0-.085-.101.20208.20208,0,0,0-.12-.035h-3.589v-8.743a.19083.19083,0,0,0-.031-.109.20964.20964,0,0,0-.108-.074,1.19143,1.19143,0,0,0-.205-.047,2.55393,2.55393,0,0,0-.638,0,1.16186,1.16186,0,0,0-.209.047.20147.20147,0,0,0-.108.074.19083.19083,0,0,0-.031.109v9.36a.5042.5042,0,0,0,.158.425.54591.54591,0,0,0,.337.122h4.424a.20273.20273,0,0,0,.12-.036.263.263,0,0,0,.085-.109.63206.63206,0,0,0,.05-.18,1.89373,1.89373,0,0,0,.015-.261,1.9941,1.9941,0,0,0-.015-.266"/>
    <polygon class="cls-27" points="25.132 161.891 25.132 182.014 125.426 182.014 135.393 171.953 125.426 161.891 25.132 161.891"/>
    <polygon class="cls-28" points="25.132 185.781 25.132 205.903 137.301 205.903 147.278 195.843 137.301 185.781 25.132 185.781"/>
    <polygon class="cls-29" points="25.132 209.669 25.132 229.794 148.898 229.794 158.88 219.733 148.898 209.669 25.132 209.669"/>
    <polygon class="cls-9" points="25.132 233.56 25.132 253.681 160.496 253.681 170.48 243.619 160.496 233.56 25.132 233.56"/>
    <polygon class="cls-30" points="25.132 257.448 25.132 277.568 172.094 277.568 182.082 267.51 172.094 257.448 25.132 257.448"/>
    <polygon class="cls-31" points="25.132 281.336 25.132 301.46 183.692 301.46 193.685 291.398 183.692 281.336 25.132 281.336"/>
    <polygon class="cls-32" points="25.132 305.223 25.132 325.343 194.695 325.343 205.341 315.285 194.695 305.223 25.132 305.223"/>
  </g>
  <text class="cls-33" transform="translate(31.31396 178.20398)"><tspan xml:space="preserve"> A</tspan></text>
  <text class="cls-34" transform="translate(48.33252 173.03259)"><tspan class="cls-35">+</tspan><tspan x="6.74902" y="0">+</tspan></text>
  <text class="cls-34" transform="translate(61.85596 173.03259)">+</text>
  <text class="cls-33" transform="translate(31.44043 202.21863)"><tspan xml:space="preserve"> A</tspan></text>
  <text class="cls-34" transform="translate(47.83203 197.05066)">+</text>
  <text class="cls-34" transform="translate(54.59375 197.05066)">+</text>
  <text class="cls-33" transform="translate(31.44043 225.98621)"><tspan xml:space="preserve"> A</tspan></text>
  <text class="cls-33" transform="translate(31.07129 250.00378)"><tspan xml:space="preserve"> A</tspan></text>
  <text class="cls-33" transform="translate(31.26562 273.6908)"><tspan xml:space="preserve"> B</tspan></text>
  <text class="cls-33" transform="translate(31.26562 297.45593)"><tspan xml:space="preserve"> C</tspan></text>
  <g class="cls-36">
    <text class="cls-33" transform="translate(30.89697 321.47351)"><tspan xml:space="preserve"> D</tspan></text>
  </g>
  <text class="cls-34" transform="translate(47.83203 220.81824)">+</text>
  <text class="cls-38" transform="translate(27.6377 598.60437)">2010/1059</text>
  <g id="rating">
    <polyline id="ratingArrow" class="cls-6" points="208.23 171.95 227.74 152.25 286.7 152.25 286.7 191.62 227.74 191.62 208.23 171.95"/>
    <text id="ratingLetter" class="cls-39" transform="translate(222.41016 180.45007)">A</text>
    <text id="ratingPlusses" class="cls-40" transform="translate(241.40039 171.24011)">+++</text>
  </g>
  <text id="kwhAnnum" class="cls-41" transform="translate(234.4502 441.99988)" text-anchor="middle">X</text>
  <text id="lAnnum" class="cls-42" transform="translate(56.02979 557.86023)" text-anchor="middle">X</text>
  <text transform="translate(191 557.85632)" text-anchor="middle">
    <tspan class="cls-5">x</tspan><tspan id="placeSettingsCapacity" class="cls-42" transform="translate(183.59961 557.86023)">X</tspan>
  </text>
  <text id="db" class="cls-42" transform="translate(257.30957 557.86023)" text-anchor="middle">X</text>
  <text id="dryingClass" class="cls-44" transform="translate(122.5 555.53015) scale(1 1.33333)" text-anchor="middle">
    <!-- Do not pretty-print these spans - they need to be all on one line to avoid whitespace between them when rendering -->
    <tspan id="dryingClassALetter">A</tspan><tspan id="dryingClassBLetter">B</tspan><tspan id="dryingClassCLetter">C</tspan><tspan id="dryingClassDLetter">D</tspan><tspan id="dryingClassELetter">E</tspan><tspan id="dryingClassFLetter">F</tspan><tspan id="dryingClassGLetter">G</tspan>
  </text>  
  <text id="supplierLine2" class="cls-5" transform="translate(25.51182 119.05041)">X</text>
  <text id="supplierLine1" class="cls-5" transform="translate(25.51182 102.79204)">X</text>
  <text id="modelLine2" class="cls-5" transform="translate(164.41221 119.05041)">X</text>
  <text id="modelLine1" class="cls-5" transform="translate(164.41221 102.79204)">X</text>
</svg>
