<svg xmlns="http://www.w3.org/2000/svg" xmlns:xlink="http://www.w3.org/1999/xlink" id="Layer_1" data-name="Layer 1" width="110mm" height="220mm" viewBox="0 0 311.81 623.62" data-rating-increment="23.9357" data-supplier-model-chars-per-row="15">
  <defs>
    <style>
      .dryingClassA #dryingClassALetter,
      .dryingClassB #dryingClassBLetter,
      .dryingClassC #dryingClassCLetter,
      .dryingClassD #dryingClassDLetter,
      .dryingClassE #dryingClassELetter,
      .dryingClassF #dryingClassFLetter,
      .dryingClassG #dryingClassGLetter {
        font-size: 16.5px;
        font-weight: 700;
        font-family: Calibri-Bold, Calibri;
      }

      .cls-1, .cls-12, .cls-18, .cls-21, .cls-22, .cls-23, .cls-25, .cls-26, .cls-3, .cls-4 {
        fill: none;
      }

      .cls-2 {
        clip-path: url(#clip-path);
      }

      .cls-12, .cls-21, .cls-22, .cls-23, .cls-25, .cls-26, .cls-3, .cls-4 {
        stroke: #00aeef;
      }

      .cls-3 {
        stroke-width: 5px;
      }

      .cls-4 {
        stroke-width: 2px;
      }

      .cls-5 {
        font-size: 16px;
      }

      .cls-38, .cls-41, .cls-42, .cls-43, .cls-44, .cls-5, .cls-6 {
        fill: #231f20;
      }

      .cls-40, .cls-44, .cls-5 {
        font-family: Calibri;
      }

      .cls-7 {
        fill: #034ea2;
      }

      .cls-8 {
        fill: #00aeef;
      }

      .cls-9 {
        fill: #fff200;
      }

      .cls-10, .cls-33, .cls-34, .cls-37, .cls-39, .cls-40 {
        fill: #fff;
      }

      .cls-11 {
        clip-path: url(#clip-path-3);
      }

      .cls-13 {
        clip-path: url(#clip-path-5);
      }

      .cls-14, .cls-15 {
        fill: #00c0f3;
      }

      .cls-14 {
        fill-rule: evenodd;
      }

      .cls-16 {
        clip-path: url(#clip-path-7);
      }

      .cls-17 {
        fill: #6dcff6;
      }

      .cls-18 {
        stroke: #fff;
        stroke-width: 2.161px;
      }

      .cls-19 {
        fill: #44c8f5;
      }

      .cls-20 {
        clip-path: url(#clip-path-9);
      }

      .cls-21 {
        stroke-width: 0.95px;
      }

      .cls-22 {
        stroke-width: 0.57px;
      }

      .cls-23 {
        stroke-width: 1.9px;
      }

      .cls-24 {
        clip-path: url(#clip-path-11);
      }

      .cls-25 {
        stroke-width: 0.585px;
      }

      .cls-26 {
        stroke-width: 1.95px;
      }

      .cls-27 {
        fill: #00a651;
      }

      .cls-28 {
        fill: #50b848;
      }

      .cls-29 {
        fill: #bfd730;
      }

      .cls-30 {
        fill: #fdb913;
      }

      .cls-31 {
        fill: #f37021;
      }

      .cls-32 {
        fill: #ed1c24;
      }

      .cls-33 {
        font-size: 19.4158px;
      }

      .cls-33, .cls-34, .cls-38, .cls-39, .cls-41, .cls-42, .cls-43 {
        font-family: Calibri-Bold, Calibri;
      }

      .cls-33, .cls-34, .cls-37, .cls-38, .cls-39, .cls-41, .cls-42, .cls-43 {
        font-weight: 700;
      }

      .cls-34 {
        font-size: 13.2845px;
      }

      .cls-35 {
        letter-spacing: 0.01em;
      }

      .cls-36 {
        clip-path: url(#clip-path-13);
      }

      .cls-37 {
        font-size: 18.3939px;
        font-family: MyriadPro-Bold, Myriad Pro;
      }

      .cls-38, .cls-44 {
        font-size: 12px;
      }

      .cls-39 {
        font-size: 29px;
      }

      .cls-40 {
        font-size: 18px;
      }

      .cls-41 {
        font-size: 37px;
      }

      .cls-42 {
        font-size: 24px;
      }

      .cls-43 {
        font-size: 16.5px;
      }
    </style>
    <clipPath id="clip-path">
      <rect class="cls-1" y="-0.00201" width="311.811" height="623.62201"/>
    </clipPath>
    <clipPath id="clip-path-3">
      <rect class="cls-1" x="25.512" y="25.508" width="260.78698" height="51.02502"/>
    </clipPath>
    <clipPath id="clip-path-5">
      <rect class="cls-1" x="31.451" y="489.825" width="43.158" height="43.157"/>
    </clipPath>
    <clipPath id="clip-path-7">
      <rect class="cls-1" x="243.998" y="487.55701" width="27.62401" height="46.61299"/>
    </clipPath>
    <clipPath id="clip-path-9">
      <rect class="cls-1" x="100.022" y="491.606" width="46.09601" height="45.75999"/>
    </clipPath>
    <clipPath id="clip-path-11">
      <rect class="cls-1" x="166.43401" y="496.061" width="46.77" height="34.016"/>
    </clipPath>
    <clipPath id="clip-path-13">
      <rect class="cls-1" x="25.132" y="157.32098" width="197.24401" height="168.02301"/>
    </clipPath>
  </defs>
  <title>dishwashers</title>
  <g class="cls-2">
    <path class="cls-3" d="M26.5945,16.67108s-9.921,0-9.921,9.921v570.433s0,9.922,9.921,9.922h258.622s9.921,0,9.921-9.922V26.5921s0-9.921-9.921-9.921Z"/>
    <path class="cls-4" d="M36.4331,482.8877s-9.921,0-9.921,9.921v80.205s0,9.921,9.921,9.921h39.132s9.921,0,9.921-9.921v-80.205s0-9.921-9.921-9.921Z"/>
    <path class="cls-4" d="M170.1143,482.8877s-9.921,0-9.921,9.921v80.205s0,9.921,9.921,9.921h39.132s9.921,0,9.921-9.921v-80.205s0-9.921-9.921-9.921Z"/>
    <path class="cls-4" d="M103.2737,482.8877s-9.921,0-9.921,9.921v80.205s0,9.921,9.921,9.921h39.132s9.921,0,9.921-9.921v-80.205s0-9.921-9.921-9.921Z"/>
    <path class="cls-4" d="M236.955,482.8877s-9.921,0-9.921,9.921v80.205s0,9.921,9.921,9.921h39.132s9.921,0,9.921-9.921v-80.205s0-9.921-9.921-9.921Z"/>
  </g>
  <g class="cls-2">
    <path class="cls-4" d="M195.10789,402.35739s-9.921,0-9.921,9.921v51.601s0,9.922,9.921,9.922h80.979s9.921,0,9.921-9.922v-51.601s0-9.921-9.921-9.921Z"/>



    <rect class="cls-7" x="25.532" y="25.646" width="76.082" height="50.815"/>
    <rect class="cls-8" x="104.131" y="25.646" width="182.16801" height="50.815"/>
    <polygon class="cls-9" points="79.294 42.587 80.929 41.399 78.908 41.399 78.283 39.476 77.658 41.399 75.636 41.399 77.272 42.587 76.647 44.51 78.283 43.321 79.918 44.51 79.294 42.587"/>
    <polygon class="cls-9" points="72.927 36.49 74.562 35.302 72.541 35.302 71.916 33.379 71.291 35.302 69.27 35.302 70.905 36.49 70.28 38.413 71.916 37.224 73.552 38.413 72.927 36.49"/>
    <polygon class="cls-9" points="64.713 34.309 66.349 33.121 64.327 33.121 63.702 31.198 63.077 33.121 61.055 33.121 62.691 34.309 62.067 36.232 63.702 35.044 65.338 36.232 64.713 34.309"/>
    <polygon class="cls-9" points="56.064 36.49 57.699 35.302 55.678 35.302 55.053 33.379 54.428 35.302 52.406 35.302 54.042 36.49 53.417 38.413 55.053 37.224 56.689 38.413 56.064 36.49"/>
    <polygon class="cls-9" points="49.885 42.886 51.521 41.698 49.499 41.698 48.874 39.775 48.249 41.698 46.227 41.698 47.863 42.886 47.239 44.809 48.874 43.621 50.51 44.809 49.885 42.886"/>
    <polygon class="cls-9" points="47.912 51.29 49.548 50.102 47.526 50.102 46.901 48.179 46.276 50.102 44.254 50.102 45.89 51.29 45.265 53.213 46.901 52.024 48.537 53.213 47.912 51.29"/>
    <polygon class="cls-9" points="49.947 59.804 51.583 58.616 49.561 58.616 48.936 56.693 48.311 58.616 46.289 58.616 47.925 59.804 47.301 61.727 48.936 60.539 50.572 61.727 49.947 59.804"/>
    <polygon class="cls-9" points="56.064 65.855 57.699 64.666 55.678 64.666 55.053 62.744 54.428 64.666 52.406 64.666 54.042 65.855 53.417 67.778 55.053 66.589 56.689 67.777 56.064 65.855"/>
    <polygon class="cls-9" points="64.713 68.109 66.348 66.92 64.326 66.92 63.702 64.998 63.077 66.92 61.055 66.92 62.691 68.109 62.066 70.032 63.702 68.843 65.338 70.032 64.713 68.109"/>
    <polygon class="cls-9" points="73.129 65.824 74.765 64.635 72.742 64.635 72.118 62.713 71.493 64.635 69.471 64.635 71.107 65.824 70.483 67.747 72.118 66.559 73.753 67.747 73.129 65.824"/>
    <polygon class="cls-9" points="79.251 59.75 80.886 58.562 78.865 58.562 78.24 56.639 77.615 58.562 75.594 58.562 77.229 59.75 76.604 61.673 78.24 60.484 79.876 61.673 79.251 59.75"/>
    <polygon class="cls-9" points="81.504 51.172 83.139 49.984 81.118 49.984 80.493 48.061 79.869 49.984 77.846 49.984 79.482 51.172 78.857 53.095 80.493 51.906 82.128 53.095 81.504 51.172"/>

  </g>

  <g class="cls-2">
    <line class="cls-12" x1="24.8031" y1="126.63971" x2="287.00809" y2="126.63971"/>
    <rect class="cls-10" x="31.451" y="489.825" width="43.158" height="43.157"/>
  </g>
  <g class="cls-13">
    <path class="cls-14" d="M37.0721,512.0835l20.905.115v-.345l1.723.058c5.697,1.806,8.908,2.842,9.477,9.304l.287,6.145h-6.95v-5.111l-.401-.346-.517-.803-.862-.459-.747-.345-.861-.115h-.69v-.345l-21.364.173Z"/>
    <path class="cls-15" d="M37.0721,512.0835l20.905.115v-.345l1.723.058c5.697,1.806,8.908,2.842,9.477,9.304l.287,6.145h-6.95v-5.111l-.401-.346-.517-.803-.862-.459-.747-.345-.861-.115h-.69v-.345l-21.364.173Z"/>
    <rect class="cls-15" x="43.83341" y="500.11028" width="17.05569" height="2.12552" transform="translate(-2.35836 0.25201) rotate(-0.26968)"/>
    <path class="cls-14" d="M46.5442,501.17249a2.8185,2.8185,0,0,0-2.798-2.843,2.78862,2.78862,0,0,0-2.796,2.843,2.81737,2.81737,0,0,0,2.796,2.843,2.84843,2.84843,0,0,0,2.798-2.843"/>
    <path class="cls-14" d="M63.7731,501.17249a2.81894,2.81894,0,0,0-2.797-2.843,2.78883,2.78883,0,0,0-2.797,2.843,2.81758,2.81758,0,0,0,2.797,2.843,2.84891,2.84891,0,0,0,2.797-2.843"/>
    <path class="cls-14" d="M55.8944,501.17249a3.54065,3.54065,0,0,0-3.561-3.56,3.4928,3.4928,0,0,0-3.503,3.56,3.52929,3.52929,0,0,0,3.503,3.561,3.578,3.578,0,0,0,3.561-3.561"/>
    <path class="cls-15" d="M55.8929,501.17249a3.54106,3.54106,0,0,0-3.56-3.56,3.49363,3.49363,0,0,0-3.504,3.56,3.53013,3.53013,0,0,0,3.504,3.561,3.57846,3.57846,0,0,0,3.56-3.561"/>
    <rect class="cls-15" x="51.127" y="501.229" width="2.468" height="9.131"/>
    <path class="cls-14" d="M59.9148,515.5537a7.56066,7.56066,0,1,0-7.579,7.878,7.70641,7.70641,0,0,0,7.579-7.878"/>
  </g>
  <g class="cls-2">
    <rect class="cls-10" x="243.998" y="487.55701" width="27.62401" height="46.61299"/>
  </g>
  <g class="cls-16">
    <path class="cls-17" d="M276.34961,510.40309c-.003.106-.008.212-.008.32a11.8945,11.8945,0,0,0,23.789,0c0-.108-.005-.214-.008-.32Z"/>
    <path class="cls-8" d="M252.4456,517.84019q-2.1735-1.93948-4.349-3.879h-3.101v-6.198h3.101q2.1735-1.938,4.349-3.877l1.8-1.604v17.162Z"/>
    <path class="cls-18" d="M252.4456,517.84019q-2.1735-1.93948-4.349-3.879h-3.101v-6.198h3.101q2.1735-1.938,4.349-3.877l1.8-1.604v17.162Z"/>
    <path class="cls-19" d="M263.40048,523.9396a1.23531,1.23531,0,0,1-.312-1.718,20.75571,20.75571,0,0,0-.037-22.713,1.23421,1.23421,0,1,1,2.024-1.413,23.21853,23.21853,0,0,1,.043,25.532,1.23384,1.23384,0,0,1-1.718.312m-4.003-3.383a1.23378,1.23378,0,0,1-.248-1.728,13.88357,13.88357,0,0,0-.043-15.954,1.23462,1.23462,0,1,1,1.966-1.494,16.346,16.346,0,0,1,.053,18.928,1.23288,1.23288,0,0,1-1.728.248m-3.879-3.386a1.23355,1.23355,0,0,1-.113-1.742,7.30332,7.30332,0,0,0-.06-9.173v.001a1.235,1.235,0,0,1,1.828-1.661,9.76392,9.76392,0,0,1,.088,12.462,1.23521,1.23521,0,0,1-1.743.113"/>
    <path class="cls-8" d="M287.8826,497.428a13.435,13.435,0,1,0,13.435,13.435,13.435,13.435,0,0,0-13.435-13.435m0,2.469a10.96665,10.96665,0,0,1,10.802,9.083c-.211-.02-.424-.035-.642-.035a6.03413,6.03413,0,0,0-3.13.84,3.74688,3.74688,0,0,1-3.632-.001,6.258,6.258,0,0,0-6.26,0,3.74529,3.74529,0,0,1-3.633,0,6.03673,6.03673,0,0,0-3.129-.839,6.55586,6.55586,0,0,0-1.192.111,10.96779,10.96779,0,0,1,10.816-9.159m0,21.933a10.96612,10.96612,0,0,1-10.932-10.128,3.75088,3.75088,0,0,1,1.308-.23,3.5371,3.5371,0,0,1,1.816.47,6.258,6.258,0,0,0,6.26,0,3.74141,3.74141,0,0,1,3.631,0,6.26306,6.26306,0,0,0,6.261.001,3.52728,3.52728,0,0,1,1.816-.471,3.9371,3.9371,0,0,1,.783.078,10.96461,10.96461,0,0,1-10.943,10.28"/>
  </g>
  <g class="cls-2">
    <rect class="cls-10" x="100.022" y="491.606" width="46.097" height="45.75999"/>
  </g>
  <g class="cls-20">
    <path class="cls-21" d="M118.1791,495.82259c-1.297,1.256-2.038,3.769-.741,6.853s2.408,6.739.556,9.594"/>
    <path class="cls-21" d="M122.0584,495.82259c-1.297,1.256-2.038,3.769-.741,6.853s2.408,6.739.556,9.594"/>
    <path class="cls-21" d="M125.9374,495.82259c-1.297,1.256-2.038,3.769-.741,6.853s2.408,6.739.556,9.594"/>
    <path class="cls-22" d="M114.7166,514.2792a7.0295,7.0295,0,1,1,7.029,7.03A7.02922,7.02922,0,0,1,114.7166,514.2792Z"/>
    <path class="cls-23" d="M110.975,514.2792a10.7715,10.7715,0,1,1,10.771,10.772A10.77206,10.77206,0,0,1,110.975,514.2792Z"/>
  </g>
  <g class="cls-2">
    <rect class="cls-10" x="166.43401" y="496.061" width="46.771" height="34.016"/>
  </g>
  <g class="cls-24">
    <path class="cls-8" d="M208.7588,502.7859h-7.137c-.862,2.341-5.352,11.359,3.033,13.5l.008,6.735-4.504.558a.5047.5047,0,0,0-.439.564.52084.52084,0,0,0,.564.44h9.813a.52023.52023,0,0,0,.564-.44.50475.50475,0,0,0-.44-.564l-4.503-.558.008-6.735c8.385-2.141,3.895-11.159,3.033-13.5"/>
    <circle class="cls-25" cx="189.90489" cy="514.55139" r="7.215"/>
    <circle class="cls-26" cx="189.9049" cy="514.55139" r="11.055"/>
    <path class="cls-8" d="M178.0406,502.97649c-.06-.097-.13-.097-.213,0v5.926a.27775.27775,0,0,1-.403,0l-.157-5.907q-.0975-.1605-.195,0l-.101,5.972a.2924.2924,0,0,1-.362,0l-.171-5.991c-.069-.097-.139-.097-.213,0v5.991a.42122.42122,0,0,1-.453,0l-.13-5.991c-.065-.097-.125-.097-.181,0l-.366,5.667a3.31029,3.31029,0,0,0,0,.675,4.23854,4.23854,0,0,0,.917,1.653,1.26218,1.26218,0,0,1,.195.755l.046,1.842-.241,13.301,1.695-.042-.514-14.921a1.35194,1.35194,0,0,1,.194-.634,4.98383,4.98383,0,0,1,.482-.805,2.68783,2.68783,0,0,0,.537-.991,2.57787,2.57787,0,0,0,.092-.764Z"/>
    <path class="cls-8" d="M173.2157,506.384a6.5821,6.5821,0,0,0-.148-.662,10.188,10.188,0,0,0-.458-1.268,4.817,4.817,0,0,0-.556-.931,1.60131,1.60131,0,0,0-1.204-.639,1.40123,1.40123,0,0,0-.481.056,2.00977,2.00977,0,0,0-1.232,1.014,6.89285,6.89285,0,0,0-.638,1.648,8.24755,8.24755,0,0,0-.181.93,4.882,4.882,0,0,0-.051.63,6.328,6.328,0,0,0,.181,1.615,2.03567,2.03567,0,0,0,.393.806c.116.143.232.287.347.426a4.48173,4.48173,0,0,0,.63.625,1.21849,1.21849,0,0,1,.366.495,2.047,2.047,0,0,1,.139.75q.01352,1.3755.013,2.75l-.374,12.236,1.902-.097-.523-12.597c0-.681.005-1.356.01-2.033,0-.064,0-.129.004-.198.005-.065.014-.13.019-.195a1.68794,1.68794,0,0,1,.416-1.079c.26-.301.523-.597.792-.889a2.77252,2.77252,0,0,0,.449-.657,2.59036,2.59036,0,0,0,.259-1.13,7.44288,7.44288,0,0,0-.074-1.606"/>
    <path class="cls-8" d="M174.9841,503.4164a.67146.67146,0,0,0-1.005-.454c-.388.112-.759,1.093-1.106,2.94-.088.542-.19,1.259-.306,2.162a22.89614,22.89614,0,0,0-.19,2.866q.021,1.167.223,2.889l.009.139a1.4044,1.4044,0,0,1,1.014.768l-.19,7.801-.042,4.347h1.917q-.48-10.6665-.324-23.458"/>
    <rect class="cls-10" x="168.12299" y="524.59699" width="10.77901" height="7.038"/>
  </g>
  <g class="cls-2">
    <path class="cls-6" d="M263.67517,569.1477a1.49159,1.49159,0,0,1-.409.536,1.81179,1.81179,0,0,1-.604.324,2.65275,2.65275,0,0,1-.803.109h-1.95v-3.562h1.607a3.81923,3.81923,0,0,1,1.048.121,1.86469,1.86469,0,0,1,.694.355,1.50471,1.50471,0,0,1,.421.578,2.0532,2.0532,0,0,1,.144.797,1.74249,1.74249,0,0,1-.148.742m-.558-4.707a1.422,1.422,0,0,1-.308.539,1.5114,1.5114,0,0,1-.53.368,2.175,2.175,0,0,1-.842.136h-1.528v-3.273h1.388a3.20235,3.20235,0,0,1,.927.109,1.428,1.428,0,0,1,.569.317,1.23028,1.23028,0,0,1,.32.504,2.06106,2.06106,0,0,1,.101.664,2.09693,2.09693,0,0,1-.097.636m1.964,2.942a2.43469,2.43469,0,0,0-.426-.75,2.355,2.355,0,0,0-.628-.528,2.47651,2.47651,0,0,0-.774-.285,2.19712,2.19712,0,0,0,.582-.359,2.07054,2.07054,0,0,0,.422-.496,2.26517,2.26517,0,0,0,.254-.606,2.71068,2.71068,0,0,0,.086-.687,2.82188,2.82188,0,0,0-.195-1.078,2.08385,2.08385,0,0,0-.582-.805,2.63465,2.63465,0,0,0-.965-.5,5.35553,5.35553,0,0,0-1.485-.172h-2.297a.5563.5563,0,0,0-.339.121.50277.50277,0,0,0-.161.426v9.016a.49933.49933,0,0,0,.161.425.55133.55133,0,0,0,.339.122h2.641a5.65342,5.65342,0,0,0,1.012-.082,3.96185,3.96185,0,0,0,.828-.247,3.01258,3.01258,0,0,0,.695-.406,2.51341,2.51341,0,0,0,.528-.562,2.61364,2.61364,0,0,0,.339-.723,3.0273,3.0273,0,0,0,.122-.879,2.74711,2.74711,0,0,0-.157-.945m-10.179,1.515a6.37761,6.37761,0,0,1-.578.645,3.75911,3.75911,0,0,1-.523.426,1.87244,1.87244,0,0,1-.489.234,1.739,1.739,0,0,1-.496.07,1.42342,1.42342,0,0,1-.844-.238,1.73841,1.73841,0,0,1-.539-.633,3.02228,3.02228,0,0,1-.285-.902,6.59148,6.59148,0,0,1-.082-1.039,4.9757,4.9757,0,0,1,.098-.984,2.96775,2.96775,0,0,1,.312-.868,1.80848,1.80848,0,0,1,.559-.617,1.45028,1.45028,0,0,1,.836-.234,1.75384,1.75384,0,0,1,1.019.34,5.06484,5.06484,0,0,1,1.012.988Zm1.297-8.273a.18361.18361,0,0,0-.035-.105.23032.23032,0,0,0-.106-.079.98659.98659,0,0,0-.195-.046,2.13175,2.13175,0,0,0-.32-.02,2.00188,2.00188,0,0,0-.309.02,1.20893,1.20893,0,0,0-.199.046.18771.18771,0,0,0-.106.079.21889.21889,0,0,0-.027.105v4.086a4.00675,4.00675,0,0,0-1.012-.793,2.37983,2.37983,0,0,0-1.129-.27,2.93685,2.93685,0,0,0-1.308.278,2.57537,2.57537,0,0,0-.949.793,3.62212,3.62212,0,0,0-.578,1.246,6.30161,6.30161,0,0,0-.196,1.637,6.54679,6.54679,0,0,0,.157,1.457,3.56456,3.56456,0,0,0,.496,1.203,2.47849,2.47849,0,0,0,.886.812,2.70064,2.70064,0,0,0,1.321.301,2.62138,2.62138,0,0,0,1.308-.336,4.74694,4.74694,0,0,0,1.153-.937v.929a.19416.19416,0,0,0,.031.11.21041.21041,0,0,0,.101.074.88207.88207,0,0,0,.18.043,2.07236,2.07236,0,0,0,.274.015,1.98846,1.98846,0,0,0,.265-.015.79244.79244,0,0,0,.176-.043.18975.18975,0,0,0,.094-.074.21863.21863,0,0,0,.027-.11Z"/>
    <path class="cls-6" d="M276.7645,453.2562a5.40747,5.40747,0,0,0-.129-1.199,2.71459,2.71459,0,0,0-.432-.992,2.1947,2.1947,0,0,0-.792-.677,2.61948,2.61948,0,0,0-1.212-.253,2.27048,2.27048,0,0,0-.594.079,2.6464,2.6464,0,0,0-.606.253,4.198,4.198,0,0,0-.647.457,7.70187,7.70187,0,0,0-.71.688,2.70339,2.70339,0,0,0-.332-.601,2.025,2.025,0,0,0-.481-.465,2.26174,2.26174,0,0,0-.652-.303,2.969,2.969,0,0,0-.834-.108,2.45568,2.45568,0,0,0-1.2.328,4.84435,4.84435,0,0,0-1.224,1.033v-.988a.20984.20984,0,0,0-.029-.112.26859.26859,0,0,0-.096-.083.47956.47956,0,0,0-.186-.049,2.841,2.841,0,0,0-.303-.013,2.78411,2.78411,0,0,0-.307.013.54753.54753,0,0,0-.191.049.18922.18922,0,0,0-.125.195v7.471a.20486.20486,0,0,0,.029.112.22037.22037,0,0,0,.108.079.82707.82707,0,0,0,.212.05,2.77479,2.77479,0,0,0,.332.016,2.87512,2.87512,0,0,0,.34-.016.7624.7624,0,0,0,.208-.05.26658.26658,0,0,0,.108-.079.1836.1836,0,0,0,.033-.112v-5.221a6.26184,6.26184,0,0,1,1.046-1.071,1.58026,1.58026,0,0,1,.954-.365,1.38012,1.38012,0,0,1,.66.149,1.26,1.26,0,0,1,.461.432,2.13214,2.13214,0,0,1,.274.672,3.79347,3.79347,0,0,1,.091.864v4.54a.2047.2047,0,0,0,.029.112.2203.2203,0,0,0,.108.079.84154.84154,0,0,0,.216.05,3.41312,3.41312,0,0,0,.66,0,.81776.81776,0,0,0,.211-.05.25018.25018,0,0,0,.112-.079.184.184,0,0,0,.034-.112v-5.221a6.57536,6.57536,0,0,1,1.05-1.071,1.56528,1.56528,0,0,1,.95-.365,1.405,1.405,0,0,1,.664.149,1.24786,1.24786,0,0,1,.465.432,1.99483,1.99483,0,0,1,.266.672,4.18923,4.18923,0,0,1,.083.864v4.54a.18359.18359,0,0,0,.033.112.25029.25029,0,0,0,.112.079.81643.81643,0,0,0,.212.05,2.86364,2.86364,0,0,0,.34.016,2.78587,2.78587,0,0,0,.332-.016.772.772,0,0,0,.208-.05.25583.25583,0,0,0,.107-.079.184.184,0,0,0,.034-.112Zm-13.44-2.748a.17261.17261,0,0,0-.038-.112.34352.34352,0,0,0-.112-.083.58746.58746,0,0,0-.207-.049c-.089-.009-.199-.013-.332-.013a3.35743,3.35743,0,0,0-.336.013.66929.66929,0,0,0-.212.049.25458.25458,0,0,0-.112.083.20124.20124,0,0,0-.029.112v5.222a5.82965,5.82965,0,0,1-1.083,1.07,1.75447,1.75447,0,0,1-1.026.366,1.49773,1.49773,0,0,1-.697-.154,1.34166,1.34166,0,0,1-.494-.432,1.94549,1.94549,0,0,1-.29-.672,4.60624,4.60624,0,0,1-.096-1.05v-4.35a.18783.18783,0,0,0-.033-.112.28832.28832,0,0,0-.112-.083.6368.6368,0,0,0-.212-.049c-.088-.009-.199-.013-.332-.013s-.243.004-.332.013a.68965.68965,0,0,0-.216.049.26055.26055,0,0,0-.112.083.20958.20958,0,0,0-.029.112v4.533a6.00791,6.00791,0,0,0,.137,1.382,2.73606,2.73606,0,0,0,.453.996,2.20139,2.20139,0,0,0,.826.676,2.85022,2.85022,0,0,0,1.257.249,2.71874,2.71874,0,0,0,1.262-.323,4.66376,4.66376,0,0,0,1.262-1.03v.988a.22367.22367,0,0,0,.025.112.19324.19324,0,0,0,.095.079.67918.67918,0,0,0,.191.05,2.38472,2.38472,0,0,0,.311.016,2.23387,2.23387,0,0,0,.295-.016.74273.74273,0,0,0,.195-.05.22724.22724,0,0,0,.104-.079.205.205,0,0,0,.029-.112Zm-8.69,2.914a5.8638,5.8638,0,0,0-.137-1.365,2.6936,2.6936,0,0,0-.452-.992,2.26012,2.26012,0,0,0-.826-.677,2.807,2.807,0,0,0-1.257-.253,2.6962,2.6962,0,0,0-1.266.328,4.591,4.591,0,0,0-1.258,1.033v-.988a.20966.20966,0,0,0-.029-.112.264.264,0,0,0-.095-.083.49043.49043,0,0,0-.187-.049,2.81563,2.81563,0,0,0-.303-.013,2.78431,2.78431,0,0,0-.307.013.55366.55366,0,0,0-.191.049.22707.22707,0,0,0-.1.083.24051.24051,0,0,0-.025.112v7.471a.20478.20478,0,0,0,.029.112.23033.23033,0,0,0,.108.079.82677.82677,0,0,0,.212.05,2.77467,2.77467,0,0,0,.332.016,2.86417,2.86417,0,0,0,.34-.016.76222.76222,0,0,0,.208-.05.25324.25324,0,0,0,.108-.079.1836.1836,0,0,0,.033-.112v-5.221a5.59787,5.59787,0,0,1,1.079-1.071,1.7729,1.7729,0,0,1,1.029-.365,1.57649,1.57649,0,0,1,.702.149,1.27033,1.27033,0,0,1,.494.432,2.12427,2.12427,0,0,1,.29.672,4.27941,4.27941,0,0,1,.1,1.03v4.374a.18366.18366,0,0,0,.033.112.25324.25324,0,0,0,.108.079.76336.76336,0,0,0,.207.05,2.88254,2.88254,0,0,0,.341.016,2.78609,2.78609,0,0,0,.332-.016.76317.76317,0,0,0,.207-.05.25318.25318,0,0,0,.108-.079.1836.1836,0,0,0,.033-.112Zm-8.761,0a5.918,5.918,0,0,0-.137-1.365,2.69475,2.69475,0,0,0-.453-.992,2.25174,2.25174,0,0,0-.826-.677,2.807,2.807,0,0,0-1.257-.253,2.70231,2.70231,0,0,0-1.266.328,4.59075,4.59075,0,0,0-1.258,1.033v-.988a.201.201,0,0,0-.029-.112.26412.26412,0,0,0-.095-.083.48536.48536,0,0,0-.187-.049,3.58423,3.58423,0,0,0-.61,0,.55973.55973,0,0,0-.191.049.21785.21785,0,0,0-.099.083.22894.22894,0,0,0-.025.112v7.471a.19653.19653,0,0,0,.029.112.22037.22037,0,0,0,.108.079.818.818,0,0,0,.211.05,2.79723,2.79723,0,0,0,.332.016,2.88247,2.88247,0,0,0,.341-.016.76317.76317,0,0,0,.207-.05.25324.25324,0,0,0,.108-.079.18366.18366,0,0,0,.033-.112v-5.221a5.62645,5.62645,0,0,1,1.079-1.071,1.77334,1.77334,0,0,1,1.03-.365,1.575,1.575,0,0,1,.701.149,1.26321,1.26321,0,0,1,.494.432,2.14841,2.14841,0,0,1,.291.672,4.33835,4.33835,0,0,1,.099,1.03v4.374a.1836.1836,0,0,0,.033.112.25318.25318,0,0,0,.108.079.762.762,0,0,0,.208.05,2.86405,2.86405,0,0,0,.34.016,2.77485,2.77485,0,0,0,.332-.016.76213.76213,0,0,0,.208-.05.26644.26644,0,0,0,.108-.079.1836.1836,0,0,0,.033-.112Zm-10.133,2.739a4.3185,4.3185,0,0,1-.967.839,1.929,1.929,0,0,1-1,.274,1.45643,1.45643,0,0,1-1.034-.345,1.20376,1.20376,0,0,1-.369-.925,1.343,1.343,0,0,1,.129-.602,1.15542,1.15542,0,0,1,.402-.448,2.01618,2.01618,0,0,1,.689-.283,4.45708,4.45708,0,0,1,.98-.095h1.17Zm1.361-3.212a4.24139,4.24139,0,0,0-.157-1.22,2.07446,2.07446,0,0,0-.507-.876,2.208,2.208,0,0,0-.913-.535,4.47478,4.47478,0,0,0-1.369-.183,4.61769,4.61769,0,0,0-.855.079,5.66058,5.66058,0,0,0-.781.199,4.21777,4.21777,0,0,0-.631.266,1.836,1.836,0,0,0-.386.253.48561.48561,0,0,0-.141.228,1.48376,1.48376,0,0,0-.029.328,1.45036,1.45036,0,0,0,.017.228.50753.50753,0,0,0,.054.17.27978.27978,0,0,0,.087.1.205.205,0,0,0,.116.033.69507.69507,0,0,0,.303-.12c.136-.08.304-.169.507-.266a4.78109,4.78109,0,0,1,.705-.265,3.14081,3.14081,0,0,1,.909-.121,2.48043,2.48043,0,0,1,.797.112,1.27674,1.27674,0,0,1,.527.332,1.3101,1.3101,0,0,1,.295.552,2.89029,2.89029,0,0,1,.091.764v.581h-1.029a7.28024,7.28024,0,0,0-1.569.154,3.63878,3.63878,0,0,0-1.179.46,2.14533,2.14533,0,0,0-.739.772,2.23354,2.23354,0,0,0-.257,1.096,2.35381,2.35381,0,0,0,.187.963,1.99266,1.99266,0,0,0,.523.714,2.29521,2.29521,0,0,0,.813.444,3.48488,3.48488,0,0,0,1.067.153,2.88854,2.88854,0,0,0,1.274-.29,3.7,3.7,0,0,0,1.092-.814v.747a.18529.18529,0,0,0,.058.15.41183.41183,0,0,0,.186.075,1.96842,1.96842,0,0,0,.345.024,1.801,1.801,0,0,0,.34-.024.4715.4715,0,0,0,.183-.075.17539.17539,0,0,0,.066-.15Zm-6.343-6.533a.352.352,0,0,0,.025-.191.2098.2098,0,0,0-.092-.133.60591.60591,0,0,0-.207-.078,1.60309,1.60309,0,0,0-.341-.029c-.116,0-.215.004-.298.012a.6216.6216,0,0,0-.204.05.41308.41308,0,0,0-.133.099.47262.47262,0,0,0-.087.171l-5.022,13.771a.30179.30179,0,0,0-.033.186.21877.21877,0,0,0,.091.133.56125.56125,0,0,0,.212.083,1.72779,1.72779,0,0,0,.345.029,2.21744,2.21744,0,0,0,.294-.016.95093.95093,0,0,0,.204-.05.34688.34688,0,0,0,.137-.096.45906.45906,0,0,0,.087-.17Zm-7.436,7.014a5.96134,5.96134,0,0,0-.137-1.373,2.67872,2.67872,0,0,0-.453-.992,2.2566,2.2566,0,0,0-.825-.677,2.81449,2.81449,0,0,0-1.258-.253,2.64169,2.64169,0,0,0-1.204.303,4.42707,4.42707,0,0,0-1.187.925v-4.474a.20494.20494,0,0,0-.033-.116.24287.24287,0,0,0-.108-.083.76307.76307,0,0,0-.207-.05,2.88145,2.88145,0,0,0-.341-.016,2.7967,2.7967,0,0,0-.332.016.81776.81776,0,0,0-.211.05.213.213,0,0,0-.108.083.21984.21984,0,0,0-.029.116v11.09a.1966.1966,0,0,0,.029.112.22037.22037,0,0,0,.108.079.81776.81776,0,0,0,.211.05,2.79723,2.79723,0,0,0,.332.016,2.88205,2.88205,0,0,0,.341-.016.76307.76307,0,0,0,.207-.05.25311.25311,0,0,0,.108-.079.18354.18354,0,0,0,.033-.112v-5.221a5.62641,5.62641,0,0,1,1.079-1.071,1.77809,1.77809,0,0,1,1.03-.365,1.57515,1.57515,0,0,1,.701.149,1.26342,1.26342,0,0,1,.494.432,2.14817,2.14817,0,0,1,.291.672,4.3388,4.3388,0,0,1,.099,1.03v4.374a.1836.1836,0,0,0,.033.112.2595.2595,0,0,0,.108.079.762.762,0,0,0,.208.05,2.86368,2.86368,0,0,0,.34.016,2.77463,2.77463,0,0,0,.332-.016.762.762,0,0,0,.208-.05.25963.25963,0,0,0,.108-.079.1836.1836,0,0,0,.033-.112Zm-8.135-5.47a1.94781,1.94781,0,0,0,.046-.299.20167.20167,0,0,0-.063-.166.41608.41608,0,0,0-.211-.079,3.11521,3.11521,0,0,0-.395-.02,3.60658,3.60658,0,0,0-.386.016.85319.85319,0,0,0-.224.05.18027.18027,0,0,0-.104.096c-.016.041-.033.09-.049.145l-2.366,8.99h-.017l-2.465-8.982a.60791.60791,0,0,0-.062-.153.2334.2334,0,0,0-.121-.096.88916.88916,0,0,0-.22-.05,3.25124,3.25124,0,0,0-.369-.016,3.96705,3.96705,0,0,0-.403.016.93319.93319,0,0,0-.236.05.2335.2335,0,0,0-.121.096.648.648,0,0,0-.062.153l-2.291,8.982h-.008l-2.416-8.999a.58645.58645,0,0,0-.045-.149.20316.20316,0,0,0-.108-.091.78006.78006,0,0,0-.228-.046c-.1-.008-.236-.012-.407-.012-.177,0-.318.005-.424.016a.42912.42912,0,0,0-.228.075.192.192,0,0,0-.066.166,1.52928,1.52928,0,0,0,.054.299l2.839,9.919a.35642.35642,0,0,0,.265.295,1.41539,1.41539,0,0,0,.299.054c.122.011.274.016.457.016.177,0,.322-.005.435-.016a1.22092,1.22092,0,0,0,.278-.054.35937.35937,0,0,0,.166-.108.41984.41984,0,0,0,.083-.187l2.076-8.11h.016l2.25,8.11a.50245.50245,0,0,0,.091.187.36642.36642,0,0,0,.174.108,1.40939,1.40939,0,0,0,.295.054c.119.011.264.016.436.016.166,0,.306-.005.419-.016a1.37655,1.37655,0,0,0,.286-.054.42071.42071,0,0,0,.183-.108.44537.44537,0,0,0,.1-.187Zm-14.771,9.849a1.68993,1.68993,0,0,0-.154-.228l-3.038-3.943,2.706-2.706a1.19394,1.19394,0,0,0,.179-.233.41119.41119,0,0,0,.054-.199.18162.18162,0,0,0-.038-.12.26074.26074,0,0,0-.124-.075,1.03193,1.03193,0,0,0-.228-.041c-.094-.009-.211-.013-.349-.013-.133,0-.246.004-.34.013a.96473.96473,0,0,0-.245.049.7331.7331,0,0,0-.179.092.75378.75378,0,0,0-.141.137l-2.822,3.104v-6.757a.205.205,0,0,0-.033-.116.24289.24289,0,0,0-.108-.083.762.762,0,0,0-.208-.05,2.86326,2.86326,0,0,0-.34-.016,2.7739,2.7739,0,0,0-.332.016.827.827,0,0,0-.212.05.2222.2222,0,0,0-.108.083.22954.22954,0,0,0-.029.116v11.09a.20478.20478,0,0,0,.029.112.23038.23038,0,0,0,.108.079.827.827,0,0,0,.212.05,2.77445,2.77445,0,0,0,.332.016,2.86387,2.86387,0,0,0,.34-.016.762.762,0,0,0,.208-.05.25314.25314,0,0,0,.108-.079.1836.1836,0,0,0,.033-.112v-4.142l3.154,4.134a.67483.67483,0,0,0,.112.129.44169.44169,0,0,0,.162.083,1.29627,1.29627,0,0,0,.245.041q.1455.012.369.012a3.18633,3.18633,0,0,0,.357-.016.837.837,0,0,0,.22-.05.24046.24046,0,0,0,.112-.083.19822.19822,0,0,0,.034-.116.35772.35772,0,0,0-.046-.162"/>
    <path class="cls-6" d="M83.0038,567.2156a5.211,5.211,0,0,0-.119-1.129,2.55721,2.55721,0,0,0-.403-.934,2.05662,2.05662,0,0,0-.738-.636,2.42085,2.42085,0,0,0-1.129-.239,2.09493,2.09493,0,0,0-.554.075,2.43641,2.43641,0,0,0-.564.238,3.9164,3.9164,0,0,0-.603.43,7.19767,7.19767,0,0,0-.662.648,2.50493,2.50493,0,0,0-.309-.566,1.88784,1.88784,0,0,0-.449-.438,2.08628,2.08628,0,0,0-.607-.285,2.72893,2.72893,0,0,0-.777-.102,2.27035,2.27035,0,0,0-1.118.309,4.547,4.547,0,0,0-1.141.973v-.93a.19042.19042,0,0,0-.027-.105.24156.24156,0,0,0-.089-.079.44517.44517,0,0,0-.174-.046,3.36638,3.36638,0,0,0-.568,0,.51251.51251,0,0,0-.178.046.215.215,0,0,0-.093.079.22041.22041,0,0,0-.023.105v7.031a.19642.19642,0,0,0,.027.106.21925.21925,0,0,0,.101.074.76942.76942,0,0,0,.197.047,2.62853,2.62853,0,0,0,.309.015,2.7186,2.7186,0,0,0,.317-.015.72259.72259,0,0,0,.194-.047.24612.24612,0,0,0,.1-.074.17493.17493,0,0,0,.031-.106v-4.914a5.91968,5.91968,0,0,1,.975-1.008,1.46206,1.46206,0,0,1,.889-.343,1.281,1.281,0,0,1,.615.14,1.159,1.159,0,0,1,.429.407,1.9981,1.9981,0,0,1,.256.632,3.65018,3.65018,0,0,1,.085.813v4.273a.19641.19641,0,0,0,.027.106.21559.21559,0,0,0,.1.074.7842.7842,0,0,0,.201.047,2.66915,2.66915,0,0,0,.306.015,2.62853,2.62853,0,0,0,.309-.015.76942.76942,0,0,0,.197-.047.25286.25286,0,0,0,.105-.074.18188.18188,0,0,0,.031-.106v-4.914a6.24123,6.24123,0,0,1,.978-1.008,1.44989,1.44989,0,0,1,.886-.343,1.30573,1.30573,0,0,1,.619.14,1.1621,1.1621,0,0,1,.433.407,1.88044,1.88044,0,0,1,.247.632,3.923,3.923,0,0,1,.078.813v4.273a.18143.18143,0,0,0,.03.106.25286.25286,0,0,0,.105.074.78012.78012,0,0,0,.197.047,2.73056,2.73056,0,0,0,.317.015,2.65888,2.65888,0,0,0,.31-.015.7139.7139,0,0,0,.193-.047.24612.24612,0,0,0,.1-.074.17493.17493,0,0,0,.031-.106Zm-12.369-2.586a.15509.15509,0,0,0-.035-.105.31881.31881,0,0,0-.104-.079.5457.5457,0,0,0-.193-.046c-.083-.008-.186-.012-.31-.012-.129,0-.233.004-.313.012a.61429.61429,0,0,0-.197.046.2358.2358,0,0,0-.105.079.19042.19042,0,0,0-.027.105v4.914a5.42045,5.42045,0,0,1-1.009,1.008,1.62493,1.62493,0,0,1-.955.344,1.38437,1.38437,0,0,1-.65-.145,1.26344,1.26344,0,0,1-.46-.406,1.86449,1.86449,0,0,1-.271-.633,4.4147,4.4147,0,0,1-.089-.988v-4.094a.16985.16985,0,0,0-.031-.105.2648.2648,0,0,0-.104-.079.58884.58884,0,0,0-.197-.046c-.083-.008-.186-.012-.31-.012-.123,0-.227.004-.309.012a.62154.62154,0,0,0-.201.046.23582.23582,0,0,0-.105.079.1905.1905,0,0,0-.027.105v4.266a5.68559,5.68559,0,0,0,.128,1.3,2.584,2.584,0,0,0,.422.938,2.0653,2.0653,0,0,0,.769.637,2.64052,2.64052,0,0,0,1.172.234,2.50118,2.50118,0,0,0,1.175-.305,4.34738,4.34738,0,0,0,1.176-.968v.929a.2275.2275,0,0,0,.023.106.19387.19387,0,0,0,.089.074.6379.6379,0,0,0,.178.047,2.27712,2.27712,0,0,0,.29.015,2.13143,2.13143,0,0,0,.275-.015.71345.71345,0,0,0,.182-.047.218.218,0,0,0,.096-.074.19641.19641,0,0,0,.027-.106Zm-7.942,2.742a5.61345,5.61345,0,0,0-.128-1.285,2.55,2.55,0,0,0-.422-.934,2.11941,2.11941,0,0,0-.769-.636,2.59783,2.59783,0,0,0-1.172-.239,2.49586,2.49586,0,0,0-1.179.309,4.28157,4.28157,0,0,0-1.172.973v-.93a.1905.1905,0,0,0-.027-.105.25007.25007,0,0,0-.089-.079.45543.45543,0,0,0-.174-.046,2.7457,2.7457,0,0,0-.283-.012,2.71556,2.71556,0,0,0-.286.012.51871.51871,0,0,0-.178.046.20576.20576,0,0,0-.092.079.20913.20913,0,0,0-.024.105v7.031a.19641.19641,0,0,0,.027.106.21925.21925,0,0,0,.101.074.78023.78023,0,0,0,.197.047,2.65906,2.65906,0,0,0,.31.015,2.74258,2.74258,0,0,0,.317-.015.71392.71392,0,0,0,.193-.047.25742.25742,0,0,0,.101-.074.18188.18188,0,0,0,.031-.106v-4.914a5.2399,5.2399,0,0,1,1.005-1.008,1.63913,1.63913,0,0,1,.959-.343,1.46035,1.46035,0,0,1,.654.14,1.17791,1.17791,0,0,1,.46.407,2.035,2.035,0,0,1,.271.632,4.14343,4.14343,0,0,1,.092.969v4.117a.18188.18188,0,0,0,.031.106.25018.25018,0,0,0,.101.074.71392.71392,0,0,0,.193.047,2.73056,2.73056,0,0,0,.317.015,2.65906,2.65906,0,0,0,.31-.015.71392.71392,0,0,0,.193-.047.25742.25742,0,0,0,.101-.074.18188.18188,0,0,0,.031-.106Zm-8.011,0a5.61839,5.61839,0,0,0-.127-1.285,2.55,2.55,0,0,0-.422-.934,2.11941,2.11941,0,0,0-.769-.636,2.59783,2.59783,0,0,0-1.172-.239,2.50263,2.50263,0,0,0-1.18.309,4.27873,4.27873,0,0,0-1.171.973v-.93a.1905.1905,0,0,0-.027-.105.25907.25907,0,0,0-.089-.079.45543.45543,0,0,0-.174-.046,2.7457,2.7457,0,0,0-.283-.012,2.71556,2.71556,0,0,0-.286.012.51871.51871,0,0,0-.178.046.215.215,0,0,0-.093.079.22041.22041,0,0,0-.023.105v7.031a.19641.19641,0,0,0,.027.106.21925.21925,0,0,0,.101.074.78023.78023,0,0,0,.197.047,2.6524,2.6524,0,0,0,.309.015,2.74949,2.74949,0,0,0,.318-.015.71392.71392,0,0,0,.193-.047.24612.24612,0,0,0,.1-.074.17493.17493,0,0,0,.031-.106v-4.914a5.27011,5.27011,0,0,1,1.006-1.008,1.63913,1.63913,0,0,1,.959-.343,1.46336,1.46336,0,0,1,.654.14,1.17791,1.17791,0,0,1,.46.407,2.01069,2.01069,0,0,1,.27.632,4.08271,4.08271,0,0,1,.093.969v4.117a.17493.17493,0,0,0,.031.106.25018.25018,0,0,0,.101.074.71392.71392,0,0,0,.193.047,2.7186,2.7186,0,0,0,.317.015,2.65906,2.65906,0,0,0,.31-.015.72385.72385,0,0,0,.193-.047.24612.24612,0,0,0,.1-.074.17493.17493,0,0,0,.031-.106Zm-9.286,2.578a3.9761,3.9761,0,0,1-.901.789,1.77661,1.77661,0,0,1-.932.258,1.35178,1.35178,0,0,1-.963-.324,1.14169,1.14169,0,0,1-.344-.871,1.28092,1.28092,0,0,1,.12-.567,1.09339,1.09339,0,0,1,.375-.421,1.8536,1.8536,0,0,1,.642-.266,4.06842,4.06842,0,0,1,.913-.09h1.09Zm1.269-3.023a4.03352,4.03352,0,0,0-.147-1.149,1.95549,1.95549,0,0,0-.472-.824,2.0701,2.0701,0,0,0-.851-.504,4.15891,4.15891,0,0,0-1.276-.172,4.26052,4.26052,0,0,0-.797.075,5.30772,5.30772,0,0,0-.727.187,4.01338,4.01338,0,0,0-.587.25,1.67064,1.67064,0,0,0-.36.238.44952.44952,0,0,0-.132.215,1.39879,1.39879,0,0,0-.027.309,1.29816,1.29816,0,0,0,.016.215.48659.48659,0,0,0,.05.16.26227.26227,0,0,0,.081.094.19638.19638,0,0,0,.109.031.65882.65882,0,0,0,.282-.113q.189-.114.472-.25a4.4445,4.4445,0,0,1,.657-.25,2.908,2.908,0,0,1,.847-.114,2.2451,2.2451,0,0,1,.742.106,1.17622,1.17622,0,0,1,.492.312,1.24517,1.24517,0,0,1,.274.52,2.733,2.733,0,0,1,.085.719v.546h-.959a6.78513,6.78513,0,0,0-1.462.145,3.34734,3.34734,0,0,0-1.098.434,1.99657,1.99657,0,0,0-.688.726,2.114,2.114,0,0,0-.24,1.031,2.24716,2.24716,0,0,0,.174.907,1.87062,1.87062,0,0,0,.487.671,2.13347,2.13347,0,0,0,.758.418,3.18954,3.18954,0,0,0,.994.145,2.67621,2.67621,0,0,0,1.187-.273,3.44977,3.44977,0,0,0,1.017-.766v.703a.17464.17464,0,0,0,.055.141.38474.38474,0,0,0,.174.07,1.70526,1.70526,0,0,0,.321.023,1.59027,1.59027,0,0,0,.317-.023.4399.4399,0,0,0,.17-.07.167.167,0,0,0,.062-.141Zm-5.756-6.149a.31663.31663,0,0,0,.023-.179.18752.18752,0,0,0-.085-.125.54766.54766,0,0,0-.193-.074,1.4579,1.4579,0,0,0-.317-.028,2.78469,2.78469,0,0,0-.279.012.567.567,0,0,0-.189.047.36118.36118,0,0,0-.124.094.45158.45158,0,0,0-.081.16l-4.679,12.961a.27975.27975,0,0,0-.031.175.19955.19955,0,0,0,.085.125.52732.52732,0,0,0,.197.079,1.58816,1.58816,0,0,0,.321.027,1.94831,1.94831,0,0,0,.275-.016.77784.77784,0,0,0,.189-.047.31785.31785,0,0,0,.128-.089.466.466,0,0,0,.081-.161Zm-6.301,10.227a.55235.55235,0,0,0-.05-.176.27752.27752,0,0,0-.085-.101.20208.20208,0,0,0-.12-.035h-3.589v-8.743a.19083.19083,0,0,0-.031-.109.20964.20964,0,0,0-.108-.074,1.19143,1.19143,0,0,0-.205-.047,2.55393,2.55393,0,0,0-.638,0,1.16186,1.16186,0,0,0-.209.047.20147.20147,0,0,0-.108.074.19083.19083,0,0,0-.031.109v9.36a.5042.5042,0,0,0,.158.425.54591.54591,0,0,0,.337.122h4.424a.20273.20273,0,0,0,.12-.036.263.263,0,0,0,.085-.109.63206.63206,0,0,0,.05-.18,1.89373,1.89373,0,0,0,.015-.261,1.9941,1.9941,0,0,0-.015-.266"/>
    <polygon class="cls-27" points="25.132 161.891 25.132 182.014 125.426 182.014 135.393 171.953 125.426 161.891 25.132 161.891"/>
    <polygon class="cls-28" points="25.132 185.781 25.132 205.903 137.301 205.903 147.278 195.843 137.301 185.781 25.132 185.781"/>
    <polygon class="cls-29" points="25.132 209.669 25.132 229.794 148.898 229.794 158.88 219.733 148.898 209.669 25.132 209.669"/>
    <polygon class="cls-9" points="25.132 233.56 25.132 253.681 160.496 253.681 170.48 243.619 160.496 233.56 25.132 233.56"/>
    <polygon class="cls-30" points="25.132 257.448 25.132 277.568 172.094 277.568 182.082 267.51 172.094 257.448 25.132 257.448"/>
    <polygon class="cls-31" points="25.132 281.336 25.132 301.46 183.692 301.46 193.685 291.398 183.692 281.336 25.132 281.336"/>
    <polygon class="cls-32" points="25.132 305.223 25.132 325.343 194.695 325.343 205.341 315.285 194.695 305.223 25.132 305.223"/>
  </g>
  <text class="cls-33" transform="translate(31.31396 178.20398)"><tspan xml:space="preserve"> A</tspan></text>
  <text class="cls-34" transform="translate(48.33252 173.03259)"><tspan class="cls-35">+</tspan><tspan x="6.74902" y="0">+</tspan></text>
  <text class="cls-34" transform="translate(61.85596 173.03259)">+</text>
  <text class="cls-33" transform="translate(31.44043 202.21863)"><tspan xml:space="preserve"> A</tspan></text>
  <text class="cls-34" transform="translate(47.83203 197.05066)">+</text>
  <text class="cls-34" transform="translate(54.59375 197.05066)">+</text>
  <text class="cls-33" transform="translate(31.44043 225.98621)"><tspan xml:space="preserve"> A</tspan></text>
  <text class="cls-33" transform="translate(31.07129 250.00378)"><tspan xml:space="preserve"> A</tspan></text>
  <text class="cls-33" transform="translate(31.26562 273.6908)"><tspan xml:space="preserve"> B</tspan></text>
  <text class="cls-33" transform="translate(31.26562 297.45593)"><tspan xml:space="preserve"> C</tspan></text>
  <g class="cls-36">
    <text class="cls-33" transform="translate(30.89697 321.47351)"><tspan xml:space="preserve"> D</tspan></text>
  </g>
  <text class="cls-34" transform="translate(47.83203 220.81824)">+</text>
  <text class="cls-38" transform="translate(27.6377 598.60437)">2010/1059</text>
  <g id="rating">
    <polyline id="ratingArrow" class="cls-6" points="208.23 171.95 227.74 152.25 286.7 152.25 286.7 191.62 227.74 191.62 208.23 171.95"/>
    <text id="ratingLetter" class="cls-39" transform="translate(222.41016 180.45007)">A</text>
    <text id="ratingPlusses" class="cls-40" transform="translate(241.40039 171.24011)">+++</text>
  </g>
  <text id="kwhAnnum" class="cls-41" transform="translate(234.4502 441.99988)" text-anchor="middle">X</text>
  <text id="lAnnum" class="cls-42" transform="translate(56.02979 557.86023)" text-anchor="middle">X</text>
  <text transform="translate(191 557.85632)" text-anchor="middle">
    <tspan class="cls-5">x</tspan><tspan id="placeSettingsCapacity" class="cls-42" transform="translate(183.59961 557.86023)">X</tspan>
  </text>
  <text id="db" class="cls-42" transform="translate(257.30957 557.86023)" text-anchor="middle">X</text>
  <text id="dryingClass" class="cls-44" transform="translate(122.5 555.53015) scale(1 1.33333)" text-anchor="middle">
    <!-- Do not pretty-print these spans - they need to be all on one line to avoid whitespace between them when rendering -->
    <tspan id="dryingClassALetter">A</tspan><tspan id="dryingClassBLetter">B</tspan><tspan id="dryingClassCLetter">C</tspan><tspan id="dryingClassDLetter">D</tspan><tspan id="dryingClassELetter">E</tspan><tspan id="dryingClassFLetter">F</tspan><tspan id="dryingClassGLetter">G</tspan>
  </text>
  <text id="supplierLine2" class="cls-5" transform="translate(25.51182 119.05041)">X</text>
  <text id="supplierLine1" class="cls-5" transform="translate(25.51182 102.79204)">X</text>
  <text id="modelLine2" class="cls-5" transform="translate(164.41221 119.05041)">X</text>
  <text id="modelLine1" class="cls-5" transform="translate(164.41221 102.79204)">X</text>
</svg>
