<svg id="Layer_1" data-name="Layer 1" xmlns="http://www.w3.org/2000/svg" xmlns:xlink="http://www.w3.org/1999/xlink" width="110mm" height="220mm" viewBox="0 0 311.81 623.62" data-rating-increment="23.37" data-supplier-model-chars-per-row="15">
  <defs>
    <style>
      #climateClass>* {
        visibility: hidden;
      }

      #climateClass.climateClass3 #class3,
      #climateClass.climateClass4 #class4,
      #climateClass.climateClass5 #class5 { 
        visibility: visible 
      }

      .cls-1, .cls-10, .cls-12, .cls-14, .cls-23, .cls-26, .cls-5, .cls-6 {
        fill: none;
      }

      .cls-2 {
        font-size: 25px;
      }

      .cls-19, .cls-2, .cls-27, .cls-28, .cls-3, .cls-41, .cls-42, .cls-43, .cls-46, .cls-47 {
        fill: #231f20;
      }

      .cls-2, .cls-27, .cls-38, .cls-39, .cls-41, .cls-43, .cls-44, .cls-46 {
        font-family: Calibri-Bold, Calibri;
      }

      .cls-2, .cls-27, .cls-36, .cls-37, .cls-38, .cls-39, .cls-41, .cls-43, .cls-44, .cls-46 {
        font-weight: 700;
      }

      .cls-3 {
        font-size: 14px;
      }

      .cls-28, .cls-3, .cls-42, .cls-45, .cls-47 {
        font-family: Calibri;
      }

      .cls-4 {
        clip-path: url(#clip-path);
      }

      .cls-10, .cls-14, .cls-23, .cls-5, .cls-6 {
        stroke: #00aeef;
      }

      .cls-5 {
        stroke-width: 5px;
      }

      .cls-6 {
        stroke-width: 2px;
      }

      .cls-36, .cls-37, .cls-38, .cls-39, .cls-44, .cls-45, .cls-7 {
        fill: #fff;
      }

      .cls-8 {
        clip-path: url(#clip-path-2);
      }

      .cls-9 {
        fill: #00aeef;
      }

      .cls-10 {
        stroke-width: 1.215px;
      }

      .cls-11 {
        fill: #5bcbf5;
      }

      .cls-12 {
        stroke: #231f20;
      }

      .cls-12, .cls-14 {
        stroke-width: 0.318px;
      }

      .cls-13 {
        fill: #00b9f2;
      }

      .cls-15 {
        fill: #abe1fa;
      }

      .cls-16 {
        fill: #6dcff6;
      }

      .cls-17 {
        fill: #d4effc;
      }

      .cls-18 {
        fill: #1b75bc;
      }

      .cls-20 {
        fill: #034ea2;
      }

      .cls-21 {
        fill: #fff200;
      }

      .cls-22 {
        clip-path: url(#clip-path-4);
      }

      .cls-24 {
        clip-path: url(#clip-path-6);
      }

      .cls-25 {
        fill: #1e9ed9;
        fill-rule: evenodd;
      }

      .cls-26 {
        stroke: #29ade4;
        stroke-linejoin: round;
        stroke-width: 0.531px;
      }

      .cls-27 {
        font-size: 15.1931px;
      }

      .cls-28 {
        font-size: 6.647px;
      }

      .cls-29 {
        fill: #bfd730;
      }

      .cls-30 {
        fill: #50b848;
      }

      .cls-31 {
        fill: #00a651;
      }

      .cls-32 {
        fill: #fdb913;
      }

      .cls-33 {
        fill: #f37021;
      }

      .cls-34 {
        fill: #ed1c24;
      }

      .cls-35 {
        clip-path: url(#clip-path-9);
      }

      .cls-36, .cls-45 {
        font-size: 18px;
      }

      .cls-36, .cls-37 {
        font-family: MyriadPro-Bold, Myriad Pro;
      }

      .cls-37 {
        font-size: 12px;
      }

      .cls-38 {
        font-size: 19px;
      }

      .cls-39 {
        font-size: 13px;
      }

      .cls-40 {
        letter-spacing: 0.00999em;
      }

      .cls-41 {
        font-size: 24px;
      }

      .cls-42 {
        font-size: 17px;
      }

      .cls-43 {
        font-size: 11px;
      }

      .cls-44 {
        font-size: 29px;
      }

      .cls-46 {
        font-size: 32px;
      }

      .cls-47 {
        font-size: 16px;
      }
    </style>
    <clipPath id="clip-path">
      <rect class="cls-1" y="-0.00201" width="311.811" height="623.62201"/>
    </clipPath>
    <clipPath id="clip-path-2">
      <rect class="cls-1" x="124.725" y="487.55699" width="62.36201" height="56.693"/>
    </clipPath>
    <clipPath id="clip-path-4">
      <rect class="cls-1" x="25.512" y="25.508" width="260.78698" height="51.02502"/>
    </clipPath>
    <clipPath id="clip-path-6">
      <rect class="cls-1" x="215.22099" y="494.07599" width="63.071" height="45.355"/>
    </clipPath>
    <clipPath id="clip-path-9">
      <rect class="cls-1" x="28.103" y="148.10901" width="185.25999" height="233.14899"/>
    </clipPath>
  </defs>
  <title>professional-refrigerated-storage-cabinets-2019</title>
  <g id="climateClass">
    <g id="class3">
      <text class="cls-2" transform="translate(236.91992 561.79968)">3</text>
      <text class="cls-3" transform="translate(215.96973 578.79968)">25°C-60%</text>
    </g>
    <g id="class4">
      <text class="cls-2" transform="translate(236.91992 561.79968)">4</text>
      <text class="cls-3" transform="translate(215.96973 578.79968)">30°C-55%</text>
    </g>
    <g id="class5">
      <text class="cls-2" transform="translate(236.91992 561.79968)">5</text>
      <text class="cls-3" transform="translate(215.96973 578.79968)">40°C-40%</text>
    </g>
  </g>
  <g class="cls-4">
    <path class="cls-5" d="M26.5945,16.67108s-9.921,0-9.921,9.921v570.433s0,9.922,9.921,9.922h258.622s9.921,0,9.921-9.922V26.5921s0-9.921-9.921-9.921Z"/>
    <path class="cls-6" d="M39.2677,482.8877s-9.921,0-9.921,9.921v80.205s0,9.921,9.921,9.921h57.528s9.921,0,9.921-9.921v-80.205s0-9.921-9.921-9.921Z"/>
    <path class="cls-6" d="M127.1417,482.8877s-9.921,0-9.921,9.921v80.205s0,9.921,9.921,9.921h57.528s9.921,0,9.921-9.921v-80.205s0-9.921-9.921-9.921Z"/>
    <rect class="cls-7" x="124.725" y="487.55699" width="62.36201" height="56.693"/>
  </g>
  <g class="cls-8">
    <path class="cls-9" d="M174.058,525.0182a.82927.82927,0,0,1,.301,1.159l-.319.517a.87864.87864,0,0,1-1.189.297l-4.631-2.743c-.407-.241-.716-.052-.687.421l.307,4.838a.63537.63537,0,0,1-.79.698l-.326-.062a1.15225,1.15225,0,0,1-.888-1.023l-.273-5.608a1.78834,1.78834,0,0,0-.783-1.298l-7.152-4.227c-.407-.241-.737-.051-.731.422l.099,8.307a1.79084,1.79084,0,0,0,.733,1.328l4.755,3.072a1.1152,1.1152,0,0,1,.417,1.272l-.1.26a.65544.65544,0,0,1-1.021.323l-4-2.688c-.394-.263-.711-.092-.708.382l.047,5.458a.8604.8604,0,0,1-.856.863h-.622a.85742.85742,0,0,1-.854-.863l.045-5.458c.004-.474-.314-.645-.707-.382l-4.001,2.688a.65559.65559,0,0,1-1.021-.323l-.098-.26a1.11333,1.11333,0,0,1,.416-1.272l4.755-3.072a1.7866,1.7866,0,0,0,.732-1.328l.099-8.307c.005-.473-.323-.663-.731-.422l-7.15,4.227a1.78335,1.78335,0,0,0-.784,1.298l-.273,5.608a1.15242,1.15242,0,0,1-.887,1.023l-.327.062a.63607.63607,0,0,1-.791-.698l.307-4.838c.03-.473-.28-.662-.687-.421l-4.63,2.743a.8815.8815,0,0,1-1.191-.297l-.317-.517a.82926.82926,0,0,1,.301-1.159l4.76-2.684c.413-.234.402-.595-.023-.804l-4.359-2.147a.64251.64251,0,0,1-.217-1.038l.165-.196a1.14968,1.14968,0,0,1,1.325-.273l5.077,2.551a1.81232,1.81232,0,0,0,1.519-.039l7.195-4.076a.44609.44609,0,0,0,0-.849l-7.195-4.076a1.80045,1.80045,0,0,0-1.517-.036l-5.08,2.575a1.1457,1.1457,0,0,1-1.324-.27l-.165-.196a.64231.64231,0,0,1,.217-1.038l4.359-2.147c.425-.21.436-.572.023-.804l-4.76-2.685a.83465.83465,0,0,1-.306-1.161l.327-.542a.86787.86787,0,0,1,1.184-.296l4.634,2.766c.407.244.715.055.685-.418l-.307-4.838a.64762.64762,0,0,1,.793-.71l.322.057a1.132,1.132,0,0,1,.889,1.01l.274,5.639a1.78447,1.78447,0,0,0,.784,1.297l7.15,4.227c.408.241.736.051.731-.422l-.099-8.307a1.7866,1.7866,0,0,0-.732-1.328l-4.755-3.072a1.12137,1.12137,0,0,1-.421-1.273l.107-.286a.65091.65091,0,0,1,1.017-.326l4.001,2.689c.393.264.711.092.707-.381l-.045-5.429a.85571.85571,0,0,1,.854-.861h.622a.85868.85868,0,0,1,.856.861l-.047,5.429c-.003.473.314.645.708.381l4-2.689a.65091.65091,0,0,1,1.017.326l.108.286a1.12139,1.12139,0,0,1-.421,1.273l-4.755,3.072a1.79084,1.79084,0,0,0-.733,1.328l-.099,8.307c-.006.473.324.663.731.422l7.152-4.227a1.78642,1.78642,0,0,0,.783-1.297l.273-5.639a1.13311,1.13311,0,0,1,.889-1.01l.321-.057a.64735.64735,0,0,1,.794.71l-.307,4.838c-.029.473.279.662.685.418l4.634-2.766a.86884.86884,0,0,1,1.185.296l.326.542a.83437.83437,0,0,1-.305,1.161l-4.76,2.685c-.413.232-.403.594.022.804l4.36,2.147a.64232.64232,0,0,1,.217,1.038l-.166.196a1.14537,1.14537,0,0,1-1.324.27l-5.079-2.575a1.80262,1.80262,0,0,0-1.518.036l-7.194,4.076a.44575.44575,0,0,0,0,.849l7.194,4.076a1.81232,1.81232,0,0,0,1.519.039l5.077-2.551a1.14936,1.14936,0,0,1,1.325.273l.166.196a.64251.64251,0,0,1-.217,1.038l-4.36,2.147c-.425.209-.435.57-.022.804Z"/>
    <path class="cls-10" d="M174.058,525.0182a.82927.82927,0,0,1,.301,1.159l-.319.517a.87864.87864,0,0,1-1.189.297l-4.631-2.743c-.407-.241-.716-.052-.687.421l.307,4.838a.63537.63537,0,0,1-.79.698l-.326-.062a1.15225,1.15225,0,0,1-.888-1.023l-.273-5.608a1.78834,1.78834,0,0,0-.783-1.298l-7.152-4.227c-.407-.241-.737-.051-.731.422l.099,8.307a1.79084,1.79084,0,0,0,.733,1.328l4.755,3.072a1.1152,1.1152,0,0,1,.417,1.272l-.1.26a.65544.65544,0,0,1-1.021.323l-4-2.688c-.394-.263-.711-.092-.708.382l.047,5.458a.8604.8604,0,0,1-.856.863h-.622a.85742.85742,0,0,1-.854-.863l.045-5.458c.004-.474-.314-.645-.707-.382l-4.001,2.688a.65559.65559,0,0,1-1.021-.323l-.098-.26a1.11333,1.11333,0,0,1,.416-1.272l4.755-3.072a1.7866,1.7866,0,0,0,.732-1.328l.099-8.307c.005-.473-.323-.663-.731-.422l-7.15,4.227a1.78335,1.78335,0,0,0-.784,1.298l-.273,5.608a1.15242,1.15242,0,0,1-.887,1.023l-.327.062a.63607.63607,0,0,1-.791-.698l.307-4.838c.03-.473-.28-.662-.687-.421l-4.63,2.743a.8815.8815,0,0,1-1.191-.297l-.317-.517a.82926.82926,0,0,1,.301-1.159l4.76-2.684c.413-.234.402-.595-.023-.804l-4.359-2.147a.64251.64251,0,0,1-.217-1.038l.165-.196a1.14968,1.14968,0,0,1,1.325-.273l5.077,2.551a1.81232,1.81232,0,0,0,1.519-.039l7.195-4.076a.44609.44609,0,0,0,0-.849l-7.195-4.076a1.80045,1.80045,0,0,0-1.517-.036l-5.08,2.575a1.1457,1.1457,0,0,1-1.324-.27l-.165-.196a.64231.64231,0,0,1,.217-1.038l4.359-2.147c.425-.21.436-.572.023-.804l-4.76-2.685a.83465.83465,0,0,1-.306-1.161l.327-.542a.86787.86787,0,0,1,1.184-.296l4.634,2.766c.407.244.715.055.685-.418l-.307-4.838a.64762.64762,0,0,1,.793-.71l.322.057a1.132,1.132,0,0,1,.889,1.01l.274,5.639a1.78447,1.78447,0,0,0,.784,1.297l7.15,4.227c.408.241.736.051.731-.422l-.099-8.307a1.7866,1.7866,0,0,0-.732-1.328l-4.755-3.072a1.12137,1.12137,0,0,1-.421-1.273l.107-.286a.65091.65091,0,0,1,1.017-.326l4.001,2.689c.393.264.711.092.707-.381l-.045-5.429a.85571.85571,0,0,1,.854-.861h.622a.85868.85868,0,0,1,.856.861l-.047,5.429c-.003.473.314.645.708.381l4-2.689a.65091.65091,0,0,1,1.017.326l.108.286a1.12139,1.12139,0,0,1-.421,1.273l-4.755,3.072a1.79084,1.79084,0,0,0-.733,1.328l-.099,8.307c-.006.473.324.663.731.422l7.152-4.227a1.78642,1.78642,0,0,0,.783-1.297l.273-5.639a1.13311,1.13311,0,0,1,.889-1.01l.321-.057a.64735.64735,0,0,1,.794.71l-.307,4.838c-.029.473.279.662.685.418l4.634-2.766a.86884.86884,0,0,1,1.185.296l.326.542a.83437.83437,0,0,1-.305,1.161l-4.76,2.685c-.413.232-.403.594.022.804l4.36,2.147a.64232.64232,0,0,1,.217,1.038l-.166.196a1.14537,1.14537,0,0,1-1.324.27l-5.079-2.575a1.80262,1.80262,0,0,0-1.518.036l-7.194,4.076a.44575.44575,0,0,0,0,.849l7.194,4.076a1.81232,1.81232,0,0,0,1.519.039l5.077-2.551a1.14936,1.14936,0,0,1,1.325.273l.166.196a.64251.64251,0,0,1-.217,1.038l-4.36,2.147c-.425.209-.435.57-.022.804Z"/>
  </g>
  <g class="cls-4">
    <rect class="cls-7" x="55.877" y="490.392" width="24.308" height="49.936"/>
    <polygon class="cls-11" points="68.232 495.578 73.931 495.078 79.23 499.578 78.13 500.977 63.432 502.777 68.232 495.578"/>
    <polygon class="cls-12" points="68.232 495.578 73.931 495.078 79.23 499.578 78.13 500.977 63.432 502.777 68.232 495.578"/>
    <polygon class="cls-13" points="73.031 494.178 79.23 499.577 71.431 495.978 63.632 492.978 73.031 494.178"/>
    <polygon class="cls-14" points="73.031 494.178 79.23 499.577 71.431 495.978 63.632 492.978 73.031 494.178"/>
    <polygon class="cls-15" points="79.23 535.773 79.23 499.577 67.232 500.927 67.232 539.373 79.23 535.773"/>
    <polygon class="cls-14" points="79.23 535.773 79.23 499.577 67.232 500.927 67.232 539.373 79.23 535.773"/>
    <polygon class="cls-16" points="67.232 539.373 67.232 500.927 56.833 499.378 56.833 535.773 67.232 539.373"/>
    <polygon class="cls-14" points="67.232 539.373 67.232 500.927 56.833 499.378 56.833 535.773 67.232 539.373"/>
    <polygon class="cls-17" points="73.031 494.178 67.232 500.927 56.833 499.377 63.632 492.978 73.031 494.178"/>
    <polygon class="cls-14" points="73.031 494.178 67.232 500.927 56.833 499.377 63.632 492.978 73.031 494.178"/>
    <polygon class="cls-7" points="73.031 494.178 73.031 491.978 63.632 491.028 63.632 492.978 73.031 494.178"/>
    <polygon class="cls-14" points="73.031 494.178 73.031 491.978 63.632 491.028 63.632 492.978 73.031 494.178"/>
    <polygon class="cls-18" points="70.711 514.143 70.683 514.149 69.016 515.355 68.722 514.106 70.935 512.531 72.378 512.222 72.378 521.368 70.711 521.737 70.711 514.143"/>
    <polygon class="cls-18" points="74.89 514.789 75.665 514.621 75.665 519.988 78.233 519.421 78.233 520.072 74.89 520.812 74.89 514.789"/>
    <path class="cls-19" d="M60.8467,451.419a.132.132,0,0,0-.021-.075.14314.14314,0,0,0-.075-.051.78472.78472,0,0,0-.143-.033,1.52763,1.52763,0,0,0-.223-.013,1.44012,1.44012,0,0,0-.212.013.8554.8554,0,0,0-.145.033.15453.15453,0,0,0-.08.051.1151.1151,0,0,0-.025.075v6.671a.13745.13745,0,0,0,.022.075.14627.14627,0,0,0,.075.051.87052.87052,0,0,0,.145.032,1.7579,1.7579,0,0,0,.443,0,.88847.88847,0,0,0,.143-.032.15546.15546,0,0,0,.075-.051.1367.1367,0,0,0,.021-.075Zm-2.669.542a.37327.37327,0,0,0-.097-.161,1.41948,1.41948,0,0,0-.255-.18,2.57229,2.57229,0,0,0-.457-.204,4.71684,4.71684,0,0,0-.62-.164,3.85243,3.85243,0,0,0-.747-.07,3.67921,3.67921,0,0,0-1.409.261,3.14554,3.14554,0,0,0-1.091.733,3.2818,3.2818,0,0,0-.703,1.144,4.6085,4.6085,0,0,0-.019,2.938,3.11046,3.11046,0,0,0,.669,1.107,2.92269,2.92269,0,0,0,1.071.711,3.8925,3.8925,0,0,0,1.44.25,4.4658,4.4658,0,0,0,1.063-.129,4.64219,4.64219,0,0,0,.51-.156,4.12009,4.12009,0,0,0,.403-.169.41926.41926,0,0,0,.204-.18.56134.56134,0,0,0,.049-.242v-2.647a.50489.50489,0,0,0-.027-.172.28126.28126,0,0,0-.076-.119.3349.3349,0,0,0-.107-.064.34992.34992,0,0,0-.118-.021h-2.208a.14212.14212,0,0,0-.08.021.18354.18354,0,0,0-.057.067.40344.40344,0,0,0-.035.118,1.26223,1.26223,0,0,0-.01.175.67931.67931,0,0,0,.045.285.14777.14777,0,0,0,.137.091h1.612v2.025a2.40589,2.40589,0,0,1-.615.233,2.84013,2.84013,0,0,1-.653.078,2.65489,2.65489,0,0,1-.996-.182,2.14624,2.14624,0,0,1-.782-.537,2.54021,2.54021,0,0,1-.513-.871,3.7871,3.7871,0,0,1-.016-2.288,2.59916,2.59916,0,0,1,.486-.88,2.2221,2.2221,0,0,1,.774-.581,2.4537,2.4537,0,0,1,1.031-.209,3.0173,3.0173,0,0,1,.835.102,3.68555,3.68555,0,0,1,.604.226,3.27964,3.27964,0,0,1,.403.225.48515.48515,0,0,0,.215.102.12733.12733,0,0,0,.07-.021.172.172,0,0,0,.054-.073.52687.52687,0,0,0,.032-.129,1.35717,1.35717,0,0,0,.011-.18.98281.98281,0,0,0-.027-.263m-7.904,1.714a.95953.95953,0,0,1-.26.373,1.23965,1.23965,0,0,1-.443.247,2.00967,2.00967,0,0,1-.631.089h-.903v-2.342h.779c.183,0,.33.005.443.016a1.78367,1.78367,0,0,1,.304.054,1.031,1.031,0,0,1,.612.405,1.24062,1.24062,0,0,1,.182.69,1.27591,1.27591,0,0,1-.083.468m1.453,4.294a2.85139,2.85139,0,0,0-.097-.271l-.623-1.531c-.071-.176-.143-.333-.214-.473a2.52251,2.52251,0,0,0-.229-.37,1.57164,1.57164,0,0,0-.26-.277,1.29885,1.29885,0,0,0-.312-.191,2.66689,2.66689,0,0,0,.553-.263,1.78155,1.78155,0,0,0,.425-.368,1.51326,1.51326,0,0,0,.271-.489,1.92682,1.92682,0,0,0,.094-.625,1.96587,1.96587,0,0,0-.105-.658,1.53237,1.53237,0,0,0-.314-.529,1.7016,1.7016,0,0,0-.518-.382,2.68059,2.68059,0,0,0-.712-.22c-.093-.011-.198-.021-.314-.029-.117-.009-.262-.014-.438-.014h-1.477a.38685.38685,0,0,0-.234.083.34716.34716,0,0,0-.11.293v6.435a.12961.12961,0,0,0,.022.075.14627.14627,0,0,0,.075.051.873.873,0,0,0,.142.032,1.78177,1.78177,0,0,0,.446,0,.79667.79667,0,0,0,.14-.032.16587.16587,0,0,0,.075-.051.1243.1243,0,0,0,.024-.075v-2.96h.618a1.41739,1.41739,0,0,1,.542.094,1.191,1.191,0,0,1,.392.263,1.66374,1.66374,0,0,1,.288.403q.12.234.233.513l.64,1.638a.4173.4173,0,0,0,.051.108.19288.19288,0,0,0,.083.067.49792.49792,0,0,0,.142.035,1.98958,1.98958,0,0,0,.228.011,2.468,2.468,0,0,0,.258-.011.61039.61039,0,0,0,.151-.032.12869.12869,0,0,0,.069-.054.16562.16562,0,0,0,.017-.075.51147.51147,0,0,0-.022-.121m-6.128-.301a.34115.34115,0,0,0-.038-.118.17649.17649,0,0,0-.062-.067.13925.13925,0,0,0-.078-.022h-2.755v-2.487h2.331a.16621.16621,0,0,0,.078-.018.15422.15422,0,0,0,.059-.062.33493.33493,0,0,0,.035-.113,1.12327,1.12327,0,0,0,.011-.166,1.30365,1.30365,0,0,0-.011-.178.34483.34483,0,0,0-.035-.118.20367.20367,0,0,0-.059-.067.13334.13334,0,0,0-.078-.024h-2.331v-2.181h2.718a.152.152,0,0,0,.078-.021.15649.15649,0,0,0,.056-.067.51618.51618,0,0,0,.035-.119.929.929,0,0,0,.013-.169,1.02189,1.02189,0,0,0-.013-.18.5875.5875,0,0,0-.035-.121.14631.14631,0,0,0-.056-.069.144.144,0,0,0-.078-.022h-3.298a.38685.38685,0,0,0-.234.083.34716.34716,0,0,0-.11.293v6.198a.34589.34589,0,0,0,.11.293.38054.38054,0,0,0,.234.083h3.335a.1471.1471,0,0,0,.078-.021.17956.17956,0,0,0,.062-.07.3748.3748,0,0,0,.038-.121,1.20019,1.20019,0,0,0,.01-.169,1.29113,1.29113,0,0,0-.01-.18m-5.704-6.233a.12194.12194,0,0,0-.023-.07.18694.18694,0,0,0-.074-.056.46482.46482,0,0,0-.142-.035,1.88392,1.88392,0,0,0-.215-.011,1.9861,1.9861,0,0,0-.229.011.49792.49792,0,0,0-.142.035.19211.19211,0,0,0-.077.056.1208.1208,0,0,0-.022.07v3.77q0,.42451.002.884c.002.306.007.601.014.883h-.006q-.1245-.252-.251-.502-.1275-.249-.257-.507-.1305-.258-.27-.524c-.094-.177-.19-.359-.291-.545l-1.63-3.051a2.32745,2.32745,0,0,0-.169-.277.75428.75428,0,0,0-.166-.171.54654.54654,0,0,0-.194-.089,1.13329,1.13329,0,0,0-.269-.027h-.454a.439.439,0,0,0-.266.091.357.357,0,0,0-.122.307v6.413a.12922.12922,0,0,0,.022.072.14784.14784,0,0,0,.074.054.78237.78237,0,0,0,.139.032,1.5049,1.5049,0,0,0,.224.014,1.5242,1.5242,0,0,0,.224-.014.88289.88289,0,0,0,.141-.032.14822.14822,0,0,0,.077-.054.12922.12922,0,0,0,.022-.072v-4.195c0-.265-.001-.532-.005-.8-.003-.269-.009-.532-.016-.79h.011c.097.211.201.429.314.653.113.223.224.437.335.641l2.121,3.954a2.68687,2.68687,0,0,0,.206.343,1.04425,1.04425,0,0,0,.194.212.57616.57616,0,0,0,.206.108.99473.99473,0,0,0,.253.029h.305a.52428.52428,0,0,0,.145-.021.36517.36517,0,0,0,.13-.07.3537.3537,0,0,0,.094-.123.42322.42322,0,0,0,.037-.183Zm-6.768,6.233a.32129.32129,0,0,0-.038-.118.18272.18272,0,0,0-.061-.067.14394.14394,0,0,0-.078-.022h-2.756v-2.487h2.331a.16621.16621,0,0,0,.078-.018.14794.14794,0,0,0,.059-.062.31388.31388,0,0,0,.035-.113,1.12327,1.12327,0,0,0,.011-.166,1.30365,1.30365,0,0,0-.011-.178.32405.32405,0,0,0-.035-.118.193.193,0,0,0-.059-.067.13334.13334,0,0,0-.078-.024h-2.331v-2.181h2.718a.14693.14693,0,0,0,.078-.021.15649.15649,0,0,0,.056-.067.471.471,0,0,0,.035-.119.92134.92134,0,0,0,.014-.169,1.01158,1.01158,0,0,0-.014-.18.53117.53117,0,0,0-.035-.121.14631.14631,0,0,0-.056-.069.13926.13926,0,0,0-.078-.022h-3.298a.38193.38193,0,0,0-.233.083.3443.3443,0,0,0-.11.293v6.198a.343.343,0,0,0,.11.293.37574.37574,0,0,0,.233.083h3.336a.15221.15221,0,0,0,.078-.021.186.186,0,0,0,.061-.07.35185.35185,0,0,0,.038-.121,1.18744,1.18744,0,0,0,.011-.169,1.27213,1.27213,0,0,0-.011-.18"/>
    <path class="cls-19" d="M161.0127,444.668a.32166.32166,0,0,0-.038-.118.17656.17656,0,0,0-.062-.067.13929.13929,0,0,0-.078-.022h-2.755v-2.487h2.331a.16615.16615,0,0,0,.078-.018.15424.15424,0,0,0,.059-.062.33515.33515,0,0,0,.035-.113,1.12464,1.12464,0,0,0,.011-.166,1.30526,1.30526,0,0,0-.011-.178.34505.34505,0,0,0-.035-.118.2037.2037,0,0,0-.059-.067.13329.13329,0,0,0-.078-.024h-2.331v-2.181h2.718a.14948.14948,0,0,0,.078-.021.15656.15656,0,0,0,.056-.067.51622.51622,0,0,0,.035-.119.92127.92127,0,0,0,.014-.169,1.01148,1.01148,0,0,0-.014-.18.58754.58754,0,0,0-.035-.121.14637.14637,0,0,0-.056-.069.1416.1416,0,0,0-.078-.022h-3.298a.3868.3868,0,0,0-.234.083.34716.34716,0,0,0-.11.293v6.198a.34589.34589,0,0,0,.11.293.38049.38049,0,0,0,.234.083h3.335a.14715.14715,0,0,0,.078-.021.17964.17964,0,0,0,.062-.07.35228.35228,0,0,0,.038-.121,1.20006,1.20006,0,0,0,.01-.169,1.29094,1.29094,0,0,0-.01-.18m-5.704-6.249a.13258.13258,0,0,0-.022-.075.13539.13539,0,0,0-.075-.051.77163.77163,0,0,0-.142-.033,1.537,1.537,0,0,0-.223-.013,1.43083,1.43083,0,0,0-.212.013.81149.81149,0,0,0-.145.033.15363.15363,0,0,0-.081.051.1202.1202,0,0,0-.024.075v6.671a.13661.13661,0,0,0,.021.075.15541.15541,0,0,0,.075.051.88562.88562,0,0,0,.146.032,1.758,1.758,0,0,0,.443,0,.87325.87325,0,0,0,.142-.032.14623.14623,0,0,0,.075-.051.13745.13745,0,0,0,.022-.075Zm-2.67.542a.38094.38094,0,0,0-.096-.161,1.476,1.476,0,0,0-.256-.18,2.52761,2.52761,0,0,0-.456-.204,4.7767,4.7767,0,0,0-.621-.164,3.83452,3.83452,0,0,0-.746-.07,3.68067,3.68067,0,0,0-1.41.261,3.14145,3.14145,0,0,0-1.09.733,3.28374,3.28374,0,0,0-.704,1.144,4.60859,4.60859,0,0,0-.019,2.938,3.11048,3.11048,0,0,0,.669,1.107,2.93094,2.93094,0,0,0,1.071.711,3.89621,3.89621,0,0,0,1.44.25,4.4494,4.4494,0,0,0,1.063-.129,4.65866,4.65866,0,0,0,.511-.156,4.22993,4.22993,0,0,0,.403-.169.42867.42867,0,0,0,.204-.18.56157.56157,0,0,0,.048-.242v-2.647a.50489.50489,0,0,0-.027-.172.28976.28976,0,0,0-.075-.119.329.329,0,0,0-.108-.064.34568.34568,0,0,0-.118-.021h-2.207a.14794.14794,0,0,0-.081.021.182.182,0,0,0-.056.067.37518.37518,0,0,0-.035.118,1.24686,1.24686,0,0,0-.011.175.66117.66117,0,0,0,.046.285.1468.1468,0,0,0,.137.091h1.611v2.025a2.40582,2.40582,0,0,1-.615.233,2.83173,2.83173,0,0,1-.652.078,2.66377,2.66377,0,0,1-.997-.182,2.14264,2.14264,0,0,1-.781-.537,2.50934,2.50934,0,0,1-.513-.871,3.76689,3.76689,0,0,1-.016-2.288,2.56556,2.56556,0,0,1,.486-.88,2.21835,2.21835,0,0,1,.773-.581,2.45375,2.45375,0,0,1,1.031-.209,3.02483,3.02483,0,0,1,.836.102,3.72049,3.72049,0,0,1,.604.226,3.43776,3.43776,0,0,1,.403.225.48518.48518,0,0,0,.215.102.12178.12178,0,0,0,.069-.021.15721.15721,0,0,0,.054-.073.526.526,0,0,0,.032-.129,1.35534,1.35534,0,0,0,.011-.18.98323.98323,0,0,0-.027-.263m-7.903,1.714a.9727.9727,0,0,1-.261.373,1.2397,1.2397,0,0,1-.443.247,2.00525,2.00525,0,0,1-.631.089h-.902v-2.342h.778c.183,0,.331.005.444.016a1.78913,1.78913,0,0,1,.303.054,1.028,1.028,0,0,1,.612.405,1.241,1.241,0,0,1,.183.69,1.297,1.297,0,0,1-.083.468m1.453,4.294c-.015-.052-.047-.143-.097-.271l-.623-1.531c-.072-.176-.143-.333-.215-.473a2.60849,2.60849,0,0,0-.228-.37,1.61347,1.61347,0,0,0-.261-.277,1.31227,1.31227,0,0,0-.311-.191,2.69173,2.69173,0,0,0,.553-.263,1.77638,1.77638,0,0,0,.424-.368,1.49479,1.49479,0,0,0,.271-.489,1.92682,1.92682,0,0,0,.094-.625,1.96609,1.96609,0,0,0-.104-.658,1.53484,1.53484,0,0,0-.315-.529,1.68933,1.68933,0,0,0-.518-.382,2.6848,2.6848,0,0,0-.711-.22c-.094-.011-.198-.021-.315-.029-.116-.009-.262-.014-.437-.014h-1.477a.38254.38254,0,0,0-.234.083.34433.34433,0,0,0-.11.293v6.435a.1367.1367,0,0,0,.021.075.15546.15546,0,0,0,.075.051.88857.88857,0,0,0,.143.032,1.50963,1.50963,0,0,0,.223.014,1.529,1.529,0,0,0,.223-.014.78237.78237,0,0,0,.139-.032.16583.16583,0,0,0,.075-.051.119.119,0,0,0,.025-.075v-2.96h.617a1.42271,1.42271,0,0,1,.543.094,1.20137,1.20137,0,0,1,.392.263,1.6342,1.6342,0,0,1,.287.403q.12151.234.234.513l.639,1.638a.41762.41762,0,0,0,.051.108.1989.1989,0,0,0,.083.067.50564.50564,0,0,0,.143.035,1.98945,1.98945,0,0,0,.228.011,2.49548,2.49548,0,0,0,.258-.011.61157.61157,0,0,0,.15-.032.13168.13168,0,0,0,.07-.054.16529.16529,0,0,0,.016-.075.49937.49937,0,0,0-.021-.121m-6.129-.301a.3419.3419,0,0,0-.037-.118.18462.18462,0,0,0-.062-.067.14394.14394,0,0,0-.078-.022h-2.756v-2.487h2.332a.165.165,0,0,0,.077-.018.1562.1562,0,0,0,.06-.062.33626.33626,0,0,0,.034-.113,1.00147,1.00147,0,0,0,.011-.166,1.161,1.161,0,0,0-.011-.178.34664.34664,0,0,0-.034-.118.20617.20617,0,0,0-.06-.067.13247.13247,0,0,0-.077-.024h-2.332v-2.181h2.718a.14693.14693,0,0,0,.078-.021.16563.16563,0,0,0,.057-.067.5197.5197,0,0,0,.034-.119.92054.92054,0,0,0,.014-.169,1.01074,1.01074,0,0,0-.014-.18.59076.59076,0,0,0-.034-.121.154.154,0,0,0-.057-.069.13926.13926,0,0,0-.078-.022h-3.298a.382.382,0,0,0-.233.083.34432.34432,0,0,0-.11.293v6.198a.34307.34307,0,0,0,.11.293.37577.37577,0,0,0,.233.083h3.336a.15221.15221,0,0,0,.078-.021.18773.18773,0,0,0,.062-.07.37543.37543,0,0,0,.037-.121,1.186,1.186,0,0,0,.011-.169,1.27063,1.27063,0,0,0-.011-.18m-5.704-6.233a.12194.12194,0,0,0-.023-.07.18289.18289,0,0,0-.073-.056.4728.4728,0,0,0-.142-.035,1.89654,1.89654,0,0,0-.215-.011,2.00517,2.00517,0,0,0-.23.011.49783.49783,0,0,0-.142.035.18112.18112,0,0,0-.076.056.12194.12194,0,0,0-.023.07v3.77q0,.42451.003.884c.002.306.006.601.013.883h-.005q-.1245-.252-.252-.502c-.085-.166-.17-.335-.257-.507q-.129-.258-.27-.524-.13951-.2655-.29-.545l-1.63-3.051a2.467,2.467,0,0,0-.169-.277.77571.77571,0,0,0-.166-.171.55459.55459,0,0,0-.194-.089,1.13907,1.13907,0,0,0-.269-.027h-.455a.439.439,0,0,0-.266.091.35972.35972,0,0,0-.122.307v6.413a.1305.1305,0,0,0,.023.072.14488.14488,0,0,0,.073.054.80423.80423,0,0,0,.139.032,1.79773,1.79773,0,0,0,.448,0,.87315.87315,0,0,0,.142-.032.14522.14522,0,0,0,.076-.054.1305.1305,0,0,0,.023-.072v-4.195q0-.3975-.005-.8c-.004-.269-.009-.532-.017-.79h.011q.1455.3165.315.653.168.33448.335.641l2.12,3.954a2.80926,2.80926,0,0,0,.206.343,1.04657,1.04657,0,0,0,.195.212.56422.56422,0,0,0,.205.108,1.00039,1.00039,0,0,0,.253.029h.305a.51382.51382,0,0,0,.145-.021.35756.35756,0,0,0,.225-.193.42356.42356,0,0,0,.036-.183Zm-6.768,6.233a.32179.32179,0,0,0-.037-.118.18458.18458,0,0,0-.062-.067.13925.13925,0,0,0-.078-.022h-2.755v-2.487h2.331a.1721.1721,0,0,0,.078-.018.15422.15422,0,0,0,.059-.062.33493.33493,0,0,0,.035-.113,1.13694,1.13694,0,0,0,.01-.166,1.31873,1.31873,0,0,0-.01-.178.34483.34483,0,0,0-.035-.118.20367.20367,0,0,0-.059-.067.13788.13788,0,0,0-.078-.024h-2.331v-2.181h2.718a.14593.14593,0,0,0,.077-.021.15172.15172,0,0,0,.057-.067.51618.51618,0,0,0,.035-.119.929.929,0,0,0,.013-.169,1.02189,1.02189,0,0,0-.013-.18.5875.5875,0,0,0-.035-.121.14228.14228,0,0,0-.057-.069.13828.13828,0,0,0-.077-.022h-3.298a.38253.38253,0,0,0-.234.083.34716.34716,0,0,0-.11.293v6.198a.34589.34589,0,0,0,.11.293.37638.37638,0,0,0,.234.083h3.335a.1471.1471,0,0,0,.078-.021.18769.18769,0,0,0,.062-.07.35223.35223,0,0,0,.037-.121,1.0565,1.0565,0,0,0,.011-.169,1.13817,1.13817,0,0,0-.011-.18m-8.201-3.07a.62946.62946,0,0,0-.446-.123.6463.6463,0,0,0-.459.126.73684.73684,0,0,0-.126.508.71852.71852,0,0,0,.123.494.62779.62779,0,0,0,.446.123.64635.64635,0,0,0,.459-.126.73554.73554,0,0,0,.126-.507.71978.71978,0,0,0-.123-.495m-4.587-2.991a.81662.81662,0,0,0,.072-.188.10786.10786,0,0,0-.029-.108.29521.29521,0,0,0-.153-.051,2.67408,2.67408,0,0,0-.304-.013,1.85421,1.85421,0,0,0-.231.011.67.67,0,0,0-.142.029.18606.18606,0,0,0-.081.057.28681.28681,0,0,0-.045.091l-.967,2.009c-.089.197-.178.396-.265.599q-.1305.303-.254.609h-.01c-.093-.211-.184-.421-.273-.628q-.1335-.312-.267-.596l-.961-1.999a.447.447,0,0,0-.057-.088.18949.18949,0,0,0-.088-.054.89857.89857,0,0,0-.159-.029,2.28869,2.28869,0,0,0-.26-.011,2.64728,2.64728,0,0,0-.282.011.25263.25263,0,0,0-.145.048.10836.10836,0,0,0-.027.107.89478.89478,0,0,0,.072.194l1.966,3.921v2.562a.12961.12961,0,0,0,.022.075.14846.14846,0,0,0,.077.051.93.93,0,0,0,.144.032,1.74212,1.74212,0,0,0,.441,0,.87914.87914,0,0,0,.144-.032.15541.15541,0,0,0,.075-.051.1367.1367,0,0,0,.021-.075v-2.562Zm-5.763.354a.38333.38333,0,0,0-.097-.161,1.49944,1.49944,0,0,0-.255-.18,2.57229,2.57229,0,0,0-.457-.204,4.75927,4.75927,0,0,0-.62-.164,3.85243,3.85243,0,0,0-.747-.07,3.688,3.688,0,0,0-1.41.261,3.15078,3.15078,0,0,0-1.09.733,3.2818,3.2818,0,0,0-.703,1.144,4.6085,4.6085,0,0,0-.019,2.938,3.12276,3.12276,0,0,0,.668,1.107,2.92662,2.92662,0,0,0,1.072.711,3.88708,3.88708,0,0,0,1.439.25,4.46577,4.46577,0,0,0,1.064-.129,4.70957,4.70957,0,0,0,.51-.156,4.12009,4.12009,0,0,0,.403-.169.41926.41926,0,0,0,.204-.18.56157.56157,0,0,0,.048-.242v-2.647a.53152.53152,0,0,0-.026-.172.28126.28126,0,0,0-.076-.119.3349.3349,0,0,0-.107-.064.35424.35424,0,0,0-.118-.021h-2.208a.14212.14212,0,0,0-.08.021.1746.1746,0,0,0-.057.067.40344.40344,0,0,0-.035.118,1.26223,1.26223,0,0,0-.01.175.67931.67931,0,0,0,.045.285.14777.14777,0,0,0,.137.091h1.612v2.025a2.406,2.406,0,0,1-.615.233,2.84028,2.84028,0,0,1-.653.078,2.65493,2.65493,0,0,1-.996-.182,2.14624,2.14624,0,0,1-.782-.537,2.54021,2.54021,0,0,1-.513-.871,3.7871,3.7871,0,0,1-.016-2.288,2.59933,2.59933,0,0,1,.486-.88,2.213,2.213,0,0,1,.774-.581,2.4537,2.4537,0,0,1,1.031-.209,3.01725,3.01725,0,0,1,.835.102,3.68555,3.68555,0,0,1,.604.226,3.27964,3.27964,0,0,1,.403.225.48515.48515,0,0,0,.215.102.12733.12733,0,0,0,.07-.021.172.172,0,0,0,.054-.073.52687.52687,0,0,0,.032-.129,1.35717,1.35717,0,0,0,.011-.18.9833.9833,0,0,0-.027-.263m-7.904,1.714a.95953.95953,0,0,1-.26.373,1.24436,1.24436,0,0,1-.444.247,2.00088,2.00088,0,0,1-.631.089h-.902v-2.342h.779c.182,0,.33.005.443.016a1.75355,1.75355,0,0,1,.303.054,1.03047,1.03047,0,0,1,.613.405,1.24888,1.24888,0,0,1,.182.69,1.27591,1.27591,0,0,1-.083.468m1.453,4.294c-.014-.052-.047-.143-.097-.271l-.623-1.531c-.071-.176-.143-.333-.215-.473a2.43839,2.43839,0,0,0-.228-.37,1.57164,1.57164,0,0,0-.26-.277,1.31865,1.31865,0,0,0-.312-.191,2.66689,2.66689,0,0,0,.553-.263,1.80117,1.80117,0,0,0,.425-.368,1.51307,1.51307,0,0,0,.271-.489,1.92682,1.92682,0,0,0,.094-.625,1.96587,1.96587,0,0,0-.105-.658,1.53237,1.53237,0,0,0-.314-.529,1.7016,1.7016,0,0,0-.518-.382,2.68059,2.68059,0,0,0-.712-.22c-.093-.011-.198-.021-.314-.029-.117-.009-.263-.014-.438-.014h-1.477a.38685.38685,0,0,0-.234.083.34719.34719,0,0,0-.11.293v6.435a.12961.12961,0,0,0,.022.075.14627.14627,0,0,0,.075.051.873.873,0,0,0,.142.032,1.78177,1.78177,0,0,0,.446,0,.79667.79667,0,0,0,.14-.032.16587.16587,0,0,0,.075-.051.1243.1243,0,0,0,.024-.075v-2.96h.618a1.41739,1.41739,0,0,1,.542.094,1.191,1.191,0,0,1,.392.263,1.66374,1.66374,0,0,1,.288.403q.12.234.233.513l.639,1.638a.49482.49482,0,0,0,.051.108.20211.20211,0,0,0,.084.067.48927.48927,0,0,0,.142.035,1.98958,1.98958,0,0,0,.228.011,2.468,2.468,0,0,0,.258-.011.61039.61039,0,0,0,.151-.032.12869.12869,0,0,0,.069-.054.16529.16529,0,0,0,.016-.075.49975.49975,0,0,0-.021-.121m-6.128-.301a.34115.34115,0,0,0-.038-.118.18458.18458,0,0,0-.062-.067.13925.13925,0,0,0-.078-.022h-2.755v-2.487h2.331a.16621.16621,0,0,0,.078-.018.15422.15422,0,0,0,.059-.062.33493.33493,0,0,0,.035-.113,1.12327,1.12327,0,0,0,.011-.166,1.30365,1.30365,0,0,0-.011-.178.34483.34483,0,0,0-.035-.118.20367.20367,0,0,0-.059-.067.13334.13334,0,0,0-.078-.024h-2.331v-2.181h2.718a.152.152,0,0,0,.078-.021.15649.15649,0,0,0,.056-.067.51618.51618,0,0,0,.035-.119.929.929,0,0,0,.013-.169,1.02189,1.02189,0,0,0-.013-.18.5875.5875,0,0,0-.035-.121.14631.14631,0,0,0-.056-.069.144.144,0,0,0-.078-.022h-3.298a.38468.38468,0,0,0-.234.083.34716.34716,0,0,0-.11.293v6.198a.34589.34589,0,0,0,.11.293.37845.37845,0,0,0,.234.083h3.335a.1471.1471,0,0,0,.078-.021.18769.18769,0,0,0,.062-.07.3748.3748,0,0,0,.038-.121,1.20019,1.20019,0,0,0,.01-.169,1.29113,1.29113,0,0,0-.01-.18m-5.705-6.233a.1208.1208,0,0,0-.022-.07.18694.18694,0,0,0-.074-.056.46482.46482,0,0,0-.142-.035,1.88392,1.88392,0,0,0-.215-.011,2.01794,2.01794,0,0,0-.23.011.499.499,0,0,0-.141.035.18519.18519,0,0,0-.077.056.1208.1208,0,0,0-.022.07v3.77c0,.283,0,.578.002.884s.007.601.014.883h-.006q-.1245-.252-.251-.502-.1275-.249-.257-.507-.1305-.258-.27-.524-.141-.2655-.291-.545l-1.63-3.051a2.32745,2.32745,0,0,0-.169-.277.75428.75428,0,0,0-.166-.171.54654.54654,0,0,0-.194-.089,1.13329,1.13329,0,0,0-.269-.027h-.454a.444.444,0,0,0-.267.091.35934.35934,0,0,0-.121.307v6.413a.12922.12922,0,0,0,.022.072.14784.14784,0,0,0,.074.054.78237.78237,0,0,0,.139.032,1.5049,1.5049,0,0,0,.224.014,1.5242,1.5242,0,0,0,.224-.014.88289.88289,0,0,0,.141-.032.14822.14822,0,0,0,.077-.054.12922.12922,0,0,0,.022-.072v-4.195c0-.265-.001-.532-.005-.8q-.006-.4035-.016-.79h.011c.097.211.201.429.314.653.113.223.224.437.335.641l2.12,3.954a2.80053,2.80053,0,0,0,.207.343,1.01634,1.01634,0,0,0,.194.212.56807.56807,0,0,0,.206.108.99208.99208,0,0,0,.252.029h.306a.51209.51209,0,0,0,.144-.021.36118.36118,0,0,0,.131-.07.3537.3537,0,0,0,.094-.123.42356.42356,0,0,0,.036-.183Zm-6.767,6.233a.32129.32129,0,0,0-.038-.118.18272.18272,0,0,0-.061-.067.14394.14394,0,0,0-.078-.022h-2.756v-2.487h2.331a.16621.16621,0,0,0,.078-.018.15422.15422,0,0,0,.059-.062.33493.33493,0,0,0,.035-.113,1.12327,1.12327,0,0,0,.011-.166,1.30365,1.30365,0,0,0-.011-.178.34483.34483,0,0,0-.035-.118.20367.20367,0,0,0-.059-.067.13334.13334,0,0,0-.078-.024h-2.331v-2.181h2.718a.14693.14693,0,0,0,.078-.021.15649.15649,0,0,0,.056-.067.471.471,0,0,0,.035-.119.92134.92134,0,0,0,.014-.169,1.01158,1.01158,0,0,0-.014-.18.53117.53117,0,0,0-.035-.121.14631.14631,0,0,0-.056-.069.13926.13926,0,0,0-.078-.022h-3.298a.38193.38193,0,0,0-.233.083.34461.34461,0,0,0-.111.293v6.198a.34335.34335,0,0,0,.111.293.37574.37574,0,0,0,.233.083h3.336a.15221.15221,0,0,0,.078-.021.186.186,0,0,0,.061-.07.35185.35185,0,0,0,.038-.121,1.18744,1.18744,0,0,0,.011-.169,1.27213,1.27213,0,0,0-.011-.18m-8.202-3.07a.62779.62779,0,0,0-.446-.123.6463.6463,0,0,0-.459.126.73678.73678,0,0,0-.126.508.71252.71252,0,0,0,.124.494.62491.62491,0,0,0,.445.123.65087.65087,0,0,0,.46-.126.73548.73548,0,0,0,.126-.507.71377.71377,0,0,0-.124-.495m-6.343,1.069h-2.417l1.198-3.464h.005Zm-.553-4.221a.29763.29763,0,0,0-.059-.1.24446.24446,0,0,0-.108-.062.83386.83386,0,0,0-.182-.029c-.076-.005-.17-.008-.285-.008-.107,0-.196.003-.266.008a.773.773,0,0,0-.172.029.23791.23791,0,0,0-.102.06.2796.2796,0,0,0-.056.096l-2.331,6.456a.668.668,0,0,0-.046.191.1351.1351,0,0,0,.038.11.256.256,0,0,0,.139.051,1.964,1.964,0,0,0,.255.014,2.27626,2.27626,0,0,0,.245-.011.47937.47937,0,0,0,.145-.035.21114.21114,0,0,0,.078-.059.28305.28305,0,0,0,.043-.083l.569-1.671h2.89l.596,1.692a.38322.38322,0,0,0,.046.081.16588.16588,0,0,0,.075.051.61386.61386,0,0,0,.15.026c.066.006.155.009.266.009a2.628,2.628,0,0,0,.266-.011.25124.25124,0,0,0,.142-.049.12869.12869,0,0,0,.04-.11.64807.64807,0,0,0-.045-.19Zm-4.517-.033a.10669.10669,0,0,0-.025-.069.16944.16944,0,0,0-.075-.054.54592.54592,0,0,0-.142-.032,2.2355,2.2355,0,0,0-.443,0,.57745.57745,0,0,0-.142.032.157.157,0,0,0-.076.054.12181.12181,0,0,0-.021.069v4.974a3.0842,3.0842,0,0,1-.043.567.92085.92085,0,0,1-.129.341.43462.43462,0,0,1-.215.169.94841.94841,0,0,1-.311.046.93088.93088,0,0,1-.29-.041,1.5188,1.5188,0,0,1-.218-.088c-.063-.033-.116-.062-.161-.089a.23108.23108,0,0,0-.11-.04.13017.13017,0,0,0-.073.019.15654.15654,0,0,0-.051.064.39.39,0,0,0-.029.124,1.77859,1.77859,0,0,0-.008.196c0,.064.001.119.005.163a.58638.58638,0,0,0,.019.113.31567.31567,0,0,0,.032.078.45138.45138,0,0,0,.048.065.45856.45856,0,0,0,.121.077,1.54687,1.54687,0,0,0,.215.086,1.79239,1.79239,0,0,0,.271.065,1.86061,1.86061,0,0,0,.298.024,1.82627,1.82627,0,0,0,.739-.132,1.18807,1.18807,0,0,0,.481-.373,1.48871,1.48871,0,0,0,.257-.585,3.49427,3.49427,0,0,0,.076-.758Zm-3.524.006a.132.132,0,0,0-.021-.075.14314.14314,0,0,0-.075-.051.78472.78472,0,0,0-.143-.033,1.52763,1.52763,0,0,0-.223-.013,1.44012,1.44012,0,0,0-.212.013.8554.8554,0,0,0-.145.033.15453.15453,0,0,0-.08.051.1151.1151,0,0,0-.025.075v6.671a.13745.13745,0,0,0,.022.075.14627.14627,0,0,0,.075.051.87052.87052,0,0,0,.145.032,1.7579,1.7579,0,0,0,.443,0,.88847.88847,0,0,0,.143-.032.15546.15546,0,0,0,.075-.051.1367.1367,0,0,0,.021-.075Zm-2.669.542a.37327.37327,0,0,0-.097-.161,1.41948,1.41948,0,0,0-.255-.18,2.57229,2.57229,0,0,0-.457-.204,4.71684,4.71684,0,0,0-.62-.164,3.85243,3.85243,0,0,0-.747-.07,3.67921,3.67921,0,0,0-1.409.261,3.14554,3.14554,0,0,0-1.091.733,3.2818,3.2818,0,0,0-.703,1.144,4.6085,4.6085,0,0,0-.019,2.938,3.11046,3.11046,0,0,0,.669,1.107,2.92269,2.92269,0,0,0,1.071.711,3.8925,3.8925,0,0,0,1.44.25,4.4658,4.4658,0,0,0,1.063-.129,4.64219,4.64219,0,0,0,.51-.156,4.12009,4.12009,0,0,0,.403-.169.41926.41926,0,0,0,.204-.18.56134.56134,0,0,0,.049-.242v-2.647a.50489.50489,0,0,0-.027-.172.28126.28126,0,0,0-.076-.119.3349.3349,0,0,0-.107-.064.34992.34992,0,0,0-.118-.021h-2.208a.14212.14212,0,0,0-.08.021.18354.18354,0,0,0-.057.067.40344.40344,0,0,0-.035.118,1.26223,1.26223,0,0,0-.01.175.67931.67931,0,0,0,.045.285.14777.14777,0,0,0,.137.091h1.612v2.025a2.40589,2.40589,0,0,1-.615.233,2.84013,2.84013,0,0,1-.653.078,2.65489,2.65489,0,0,1-.996-.182,2.14624,2.14624,0,0,1-.782-.537,2.54021,2.54021,0,0,1-.513-.871,3.7871,3.7871,0,0,1-.016-2.288,2.59916,2.59916,0,0,1,.486-.88,2.2221,2.2221,0,0,1,.774-.581,2.4537,2.4537,0,0,1,1.031-.209,3.0173,3.0173,0,0,1,.835.102,3.68555,3.68555,0,0,1,.604.226,3.27964,3.27964,0,0,1,.403.225.48515.48515,0,0,0,.215.102.12733.12733,0,0,0,.07-.021.172.172,0,0,0,.054-.073.52687.52687,0,0,0,.032-.129,1.35717,1.35717,0,0,0,.011-.18.98281.98281,0,0,0-.027-.263m-7.904,1.714a.95953.95953,0,0,1-.26.373,1.23965,1.23965,0,0,1-.443.247,2.00967,2.00967,0,0,1-.631.089h-.903v-2.342h.779c.183,0,.33.005.443.016a1.78367,1.78367,0,0,1,.304.054,1.031,1.031,0,0,1,.612.405,1.24062,1.24062,0,0,1,.182.69,1.27591,1.27591,0,0,1-.083.468m1.453,4.294a2.85139,2.85139,0,0,0-.097-.271l-.623-1.531c-.071-.176-.143-.333-.214-.473a2.52251,2.52251,0,0,0-.229-.37,1.57164,1.57164,0,0,0-.26-.277,1.29885,1.29885,0,0,0-.312-.191,2.66689,2.66689,0,0,0,.553-.263,1.78155,1.78155,0,0,0,.425-.368,1.51326,1.51326,0,0,0,.271-.489,1.92682,1.92682,0,0,0,.094-.625,1.96587,1.96587,0,0,0-.105-.658,1.53237,1.53237,0,0,0-.314-.529,1.7016,1.7016,0,0,0-.518-.382,2.68059,2.68059,0,0,0-.712-.22c-.093-.011-.198-.021-.314-.029-.117-.009-.262-.014-.438-.014h-1.477a.38685.38685,0,0,0-.234.083.34716.34716,0,0,0-.11.293v6.435a.12961.12961,0,0,0,.022.075.14627.14627,0,0,0,.075.051.873.873,0,0,0,.142.032,1.78177,1.78177,0,0,0,.446,0,.79667.79667,0,0,0,.14-.032.16587.16587,0,0,0,.075-.051.1243.1243,0,0,0,.024-.075v-2.96h.618a1.41739,1.41739,0,0,1,.542.094,1.191,1.191,0,0,1,.392.263,1.66374,1.66374,0,0,1,.288.403q.12.234.233.513l.64,1.638a.4173.4173,0,0,0,.051.108.19288.19288,0,0,0,.083.067.49792.49792,0,0,0,.142.035,1.98958,1.98958,0,0,0,.228.011,2.468,2.468,0,0,0,.258-.011.61039.61039,0,0,0,.151-.032.12869.12869,0,0,0,.069-.054.16562.16562,0,0,0,.017-.075.51147.51147,0,0,0-.022-.121m-6.128-.301a.34115.34115,0,0,0-.038-.118.17649.17649,0,0,0-.062-.067.13925.13925,0,0,0-.078-.022h-2.755v-2.487h2.331a.16621.16621,0,0,0,.078-.018.15422.15422,0,0,0,.059-.062.33493.33493,0,0,0,.035-.113,1.12327,1.12327,0,0,0,.011-.166,1.30365,1.30365,0,0,0-.011-.178.34483.34483,0,0,0-.035-.118.20367.20367,0,0,0-.059-.067.13334.13334,0,0,0-.078-.024h-2.331v-2.181h2.718a.152.152,0,0,0,.078-.021.15649.15649,0,0,0,.056-.067.51618.51618,0,0,0,.035-.119.929.929,0,0,0,.013-.169,1.02189,1.02189,0,0,0-.013-.18.5875.5875,0,0,0-.035-.121.14631.14631,0,0,0-.056-.069.144.144,0,0,0-.078-.022h-3.298a.38685.38685,0,0,0-.234.083.34716.34716,0,0,0-.11.293v6.198a.34589.34589,0,0,0,.11.293.38054.38054,0,0,0,.234.083h3.335a.1471.1471,0,0,0,.078-.021.17956.17956,0,0,0,.062-.07.3748.3748,0,0,0,.038-.121,1.20019,1.20019,0,0,0,.01-.169,1.29113,1.29113,0,0,0-.01-.18m-5.704-6.233a.12194.12194,0,0,0-.023-.07.18694.18694,0,0,0-.074-.056.46482.46482,0,0,0-.142-.035,1.88392,1.88392,0,0,0-.215-.011,1.9861,1.9861,0,0,0-.229.011.49792.49792,0,0,0-.142.035.19211.19211,0,0,0-.077.056.1208.1208,0,0,0-.022.07v3.77q0,.42451.002.884c.002.306.007.601.014.883h-.006q-.1245-.252-.251-.502-.1275-.249-.257-.507-.1305-.258-.27-.524c-.094-.177-.19-.359-.291-.545l-1.63-3.051a2.32745,2.32745,0,0,0-.169-.277.75428.75428,0,0,0-.166-.171.54654.54654,0,0,0-.194-.089,1.13329,1.13329,0,0,0-.269-.027h-.454a.439.439,0,0,0-.266.091.357.357,0,0,0-.122.307v6.413a.12922.12922,0,0,0,.022.072.14784.14784,0,0,0,.074.054.78237.78237,0,0,0,.139.032,1.5049,1.5049,0,0,0,.224.014,1.5242,1.5242,0,0,0,.224-.014.88289.88289,0,0,0,.141-.032.14822.14822,0,0,0,.077-.054.12922.12922,0,0,0,.022-.072v-4.195c0-.265-.001-.532-.005-.8-.003-.269-.009-.532-.016-.79h.011c.097.211.201.429.314.653.113.223.224.437.335.641l2.121,3.954a2.68687,2.68687,0,0,0,.206.343,1.04425,1.04425,0,0,0,.194.212.57616.57616,0,0,0,.206.108.99473.99473,0,0,0,.253.029h.305a.52428.52428,0,0,0,.145-.021.36517.36517,0,0,0,.13-.07.3537.3537,0,0,0,.094-.123.42322.42322,0,0,0,.037-.183Zm-6.768,6.233a.32129.32129,0,0,0-.038-.118.18272.18272,0,0,0-.061-.067.14394.14394,0,0,0-.078-.022h-2.756v-2.487h2.331a.16621.16621,0,0,0,.078-.018.14794.14794,0,0,0,.059-.062.31388.31388,0,0,0,.035-.113,1.12327,1.12327,0,0,0,.011-.166,1.30365,1.30365,0,0,0-.011-.178.32405.32405,0,0,0-.035-.118.193.193,0,0,0-.059-.067.13334.13334,0,0,0-.078-.024h-2.331v-2.181h2.718a.14693.14693,0,0,0,.078-.021.15649.15649,0,0,0,.056-.067.471.471,0,0,0,.035-.119.92134.92134,0,0,0,.014-.169,1.01158,1.01158,0,0,0-.014-.18.53117.53117,0,0,0-.035-.121.14631.14631,0,0,0-.056-.069.13926.13926,0,0,0-.078-.022h-3.298a.38193.38193,0,0,0-.233.083.3443.3443,0,0,0-.11.293v6.198a.343.343,0,0,0,.11.293.37574.37574,0,0,0,.233.083h3.336a.15221.15221,0,0,0,.078-.021.186.186,0,0,0,.061-.07.35185.35185,0,0,0,.038-.121,1.18744,1.18744,0,0,0,.011-.169,1.27213,1.27213,0,0,0-.011-.18"/>
    <path class="cls-19" d="M165.39569,429.667h-2.417l1.197-3.464h.006Zm-.554-4.221a.28205.28205,0,0,0-.059-.1.24641.24641,0,0,0-.107-.062.855.855,0,0,0-.183-.029c-.075-.005-.17-.008-.284-.008-.108,0-.197.003-.266.008a.77308.77308,0,0,0-.172.029.23786.23786,0,0,0-.102.06.28109.28109,0,0,0-.057.096l-2.331,6.456a.66031.66031,0,0,0-.045.191.13474.13474,0,0,0,.037.11.25994.25994,0,0,0,.14.051,1.9422,1.9422,0,0,0,.255.014,2.25581,2.25581,0,0,0,.244-.011.47156.47156,0,0,0,.145-.035.211.211,0,0,0,.078-.059.26107.26107,0,0,0,.043-.083l.57-1.671h2.889l.596,1.692a.49739.49739,0,0,0,.046.081.16586.16586,0,0,0,.075.051.61435.61435,0,0,0,.151.026c.066.006.155.009.266.009a2.60569,2.60569,0,0,0,.265-.011.252.252,0,0,0,.143-.049.13161.13161,0,0,0,.04-.11.65573.65573,0,0,0-.046-.19Zm-4.721-.027a.13211.13211,0,0,0-.021-.075.14219.14219,0,0,0-.076-.051.75211.75211,0,0,0-.142-.033,1.52778,1.52778,0,0,0-.223-.013,1.43988,1.43988,0,0,0-.212.013.85517.85517,0,0,0-.145.033.15776.15776,0,0,0-.081.051.12015.12015,0,0,0-.024.075v6.671a.12961.12961,0,0,0,.022.075.14623.14623,0,0,0,.075.051.8706.8706,0,0,0,.145.032,1.758,1.758,0,0,0,.443,0,.849.849,0,0,0,.142-.032.15411.15411,0,0,0,.076-.051.13678.13678,0,0,0,.021-.075Zm-2.438,6.249a.34095.34095,0,0,0-.038-.118.17656.17656,0,0,0-.062-.067.13929.13929,0,0,0-.078-.022h-2.755v-2.487h2.331a.16614.16614,0,0,0,.078-.018.15424.15424,0,0,0,.059-.062.33493.33493,0,0,0,.035-.113,1.12327,1.12327,0,0,0,.011-.166,1.30365,1.30365,0,0,0-.011-.178.34483.34483,0,0,0-.035-.118.2037.2037,0,0,0-.059-.067.13329.13329,0,0,0-.078-.024h-2.331v-2.181h2.718a.152.152,0,0,0,.078-.021.15656.15656,0,0,0,.056-.067.51667.51667,0,0,0,.035-.119.92985.92985,0,0,0,.013-.169,1.02285,1.02285,0,0,0-.013-.18.58812.58812,0,0,0-.035-.121.14637.14637,0,0,0-.056-.069.144.144,0,0,0-.078-.022h-3.298a.38682.38682,0,0,0-.234.083.34716.34716,0,0,0-.11.293v6.198a.34589.34589,0,0,0,.11.293.38051.38051,0,0,0,.234.083h3.335a.14715.14715,0,0,0,.078-.021.17964.17964,0,0,0,.062-.07.37456.37456,0,0,0,.038-.121,1.19856,1.19856,0,0,0,.01-.169,1.28939,1.28939,0,0,0-.01-.18m-4.818-6.179a.36388.36388,0,0,0-.035-.121.16344.16344,0,0,0-.059-.067.14154.14154,0,0,0-.078-.022h-3.072a.395.395,0,0,0-.253.091.37406.37406,0,0,0-.113.307v6.413a.13745.13745,0,0,0,.022.075.14627.14627,0,0,0,.075.051.87052.87052,0,0,0,.145.032,1.52365,1.52365,0,0,0,.22.014,1.506,1.506,0,0,0,.226-.014.89414.89414,0,0,0,.14-.032.15551.15551,0,0,0,.075-.051.13678.13678,0,0,0,.021-.075v-6.043h2.514a.14942.14942,0,0,0,.078-.021.17743.17743,0,0,0,.059-.067.379.379,0,0,0,.035-.121,1.29326,1.29326,0,0,0,.011-.178,1.23836,1.23836,0,0,0-.011-.171m-6.091,2.478a1.22943,1.22943,0,0,1-.285.457,1.31051,1.31051,0,0,1-.464.298,1.93571,1.93571,0,0,1-.696.107h-.832v-2.787h.854a3.2788,3.2788,0,0,1,.486.037,1.325,1.325,0,0,1,.483.178,1.09323,1.09323,0,0,1,.392.424,1.4383,1.4383,0,0,1,.159.709,1.68387,1.68387,0,0,1-.097.577m.959-1.369a1.79191,1.79191,0,0,0-.314-.572,1.83352,1.83352,0,0,0-.497-.417,2.07351,2.07351,0,0,0-.575-.231,3.96238,3.96238,0,0,0-.489-.08c-.138-.013-.282-.019-.432-.019h-1.488a.39426.39426,0,0,0-.252.091.371.371,0,0,0-.113.307v6.413a.1367.1367,0,0,0,.021.075.15546.15546,0,0,0,.075.051.88857.88857,0,0,0,.143.032,1.78177,1.78177,0,0,0,.446,0,.7823.7823,0,0,0,.139-.032.16583.16583,0,0,0,.075-.051.119.119,0,0,0,.025-.075v-2.503h.789a3.4028,3.4028,0,0,0,1.109-.161,2.20461,2.20461,0,0,0,.784-.457,1.99385,1.99385,0,0,0,.492-.714,2.45225,2.45225,0,0,0,.172-.94,2.22885,2.22885,0,0,0-.11-.717m-5.675,5.07a.34145.34145,0,0,0-.037-.118.18441.18441,0,0,0-.062-.067.14154.14154,0,0,0-.078-.022h-2.755v-2.487h2.331a.16494.16494,0,0,0,.077-.018.15627.15627,0,0,0,.06-.062.336.336,0,0,0,.034-.113,1.00147,1.00147,0,0,0,.011-.166,1.161,1.161,0,0,0-.011-.178.34642.34642,0,0,0-.034-.118.20628.20628,0,0,0-.06-.067.13244.13244,0,0,0-.077-.024h-2.331v-2.181h2.717a.14691.14691,0,0,0,.078-.021.16555.16555,0,0,0,.057-.067.474.474,0,0,0,.034-.119.92222.92222,0,0,0,.014-.169,1.01252,1.01252,0,0,0-.014-.18.534.534,0,0,0-.034-.121.15388.15388,0,0,0-.057-.069.13923.13923,0,0,0-.078-.022h-3.298a.382.382,0,0,0-.233.083.34433.34433,0,0,0-.11.293v6.198a.34308.34308,0,0,0,.11.293.37577.37577,0,0,0,.233.083h3.336a.1496.1496,0,0,0,.078-.021.18752.18752,0,0,0,.062-.07.37493.37493,0,0,0,.037-.121,1.18585,1.18585,0,0,0,.011-.169,1.27045,1.27045,0,0,0-.011-.18m-5.704-6.233a.12194.12194,0,0,0-.023-.07.18286.18286,0,0,0-.073-.056.47265.47265,0,0,0-.142-.035,1.88373,1.88373,0,0,0-.215-.011,2.00512,2.00512,0,0,0-.23.011.50685.50685,0,0,0-.142.035.18112.18112,0,0,0-.076.056.12194.12194,0,0,0-.023.07v3.77q0,.42451.003.884c.002.306.006.601.013.883h-.005q-.1245-.252-.252-.502c-.085-.166-.17-.335-.257-.507q-.129-.258-.27-.524-.1395-.2655-.29-.545l-1.63-3.051a2.32871,2.32871,0,0,0-.169-.277.77571.77571,0,0,0-.166-.171.55459.55459,0,0,0-.194-.089,1.13314,1.13314,0,0,0-.269-.027h-.455a.439.439,0,0,0-.266.091.35972.35972,0,0,0-.122.307v6.413a.1305.1305,0,0,0,.023.072.14488.14488,0,0,0,.073.054.80423.80423,0,0,0,.139.032,1.79773,1.79773,0,0,0,.448,0,.87315.87315,0,0,0,.142-.032.14522.14522,0,0,0,.076-.054.1305.1305,0,0,0,.023-.072v-4.195q0-.3975-.005-.8c-.004-.269-.009-.532-.017-.79h.011q.1455.3165.315.653.168.33448.335.641l2.12,3.954a2.9421,2.9421,0,0,0,.206.343,1.04628,1.04628,0,0,0,.195.212.57221.57221,0,0,0,.205.108,1.00039,1.00039,0,0,0,.253.029h.306a.51214.51214,0,0,0,.144-.021.35756.35756,0,0,0,.225-.193.42371.42371,0,0,0,.036-.183Zm-6.768,6.233a.32141.32141,0,0,0-.037-.118.18441.18441,0,0,0-.062-.067.1392.1392,0,0,0-.078-.022h-2.755v-2.487h2.331a.16911.16911,0,0,0,.078-.018.15429.15429,0,0,0,.059-.062.33471.33471,0,0,0,.035-.113,1.12191,1.12191,0,0,0,.011-.166,1.30205,1.30205,0,0,0-.011-.178.34463.34463,0,0,0-.035-.118.20379.20379,0,0,0-.059-.067.13558.13558,0,0,0-.078-.024h-2.331v-2.181h2.718a.152.152,0,0,0,.078-.021.15635.15635,0,0,0,.056-.067.51614.51614,0,0,0,.035-.119.929.929,0,0,0,.013-.169,1.02189,1.02189,0,0,0-.013-.18.58746.58746,0,0,0-.035-.121.1462.1462,0,0,0-.056-.069.14389.14389,0,0,0-.078-.022h-3.298a.38253.38253,0,0,0-.234.083.34716.34716,0,0,0-.11.293v6.198a.34589.34589,0,0,0,.11.293.37638.37638,0,0,0,.234.083h3.335a.147.147,0,0,0,.078-.021.18752.18752,0,0,0,.062-.07.3518.3518,0,0,0,.037-.121,1.05534,1.05534,0,0,0,.011-.169,1.137,1.137,0,0,0-.011-.18m-8.201-3.07a.62946.62946,0,0,0-.446-.123.6463.6463,0,0,0-.459.126.73678.73678,0,0,0-.126.508.71852.71852,0,0,0,.123.494.62779.62779,0,0,0,.446.123.6463.6463,0,0,0,.459-.126.73548.73548,0,0,0,.126-.507.71978.71978,0,0,0-.123-.495m-6.177-.161h-.908a2.55378,2.55378,0,0,1-.781-.094,1.2138,1.2138,0,0,1-.459-.26,1.01737,1.01737,0,0,1-.261-.387,1.33637,1.33637,0,0,1-.083-.473,1.38371,1.38371,0,0,1,.078-.47.926.926,0,0,1,.252-.376,1.22344,1.22344,0,0,1,.454-.247,2.91482,2.91482,0,0,1,.827-.088h.881Zm.924-2.782a.34952.34952,0,0,0-.108-.293.37754.37754,0,0,0-.236-.083h-1.439a4.23567,4.23567,0,0,0-1.271.148,2.05264,2.05264,0,0,0-.743.411,1.65085,1.65085,0,0,0-.441.625,2.11084,2.11084,0,0,0-.145.793,1.85383,1.85383,0,0,0,.094.607,1.54127,1.54127,0,0,0,.271.486,1.51551,1.51551,0,0,0,.435.354,2.42086,2.42086,0,0,0,.58.223,1.35268,1.35268,0,0,0-.333.185,1.57309,1.57309,0,0,0-.279.28,2.51062,2.51062,0,0,0-.242.378,4.53748,4.53748,0,0,0-.214.484l-.57,1.477a1.61216,1.61216,0,0,0-.08.233.58557.58557,0,0,0-.016.127.14462.14462,0,0,0,.016.072.12378.12378,0,0,0,.067.051.57287.57287,0,0,0,.142.035,1.75906,1.75906,0,0,0,.247.014,2.02153,2.02153,0,0,0,.229-.011.56683.56683,0,0,0,.147-.035.19472.19472,0,0,0,.089-.067.67013.67013,0,0,0,.056-.108l.596-1.6a5.57681,5.57681,0,0,1,.223-.516,1.50094,1.50094,0,0,1,.28-.395,1.09684,1.09684,0,0,1,.386-.249,1.84879,1.84879,0,0,1,.642-.086h.693v2.9a.1125.1125,0,0,0,.024.073.2045.2045,0,0,0,.075.051.55.55,0,0,0,.14.032,2.26591,2.26591,0,0,0,.446,0,.5906.5906,0,0,0,.142-.032.17481.17481,0,0,0,.075-.051.1172.1172,0,0,0,.022-.073Zm-6.107-.231a.14091.14091,0,0,0-.019-.078.1677.1677,0,0,0-.064-.053.36.36,0,0,0-.124-.035,1.38646,1.38646,0,0,0-.201-.011,1.08039,1.08039,0,0,0-.177.011.65231.65231,0,0,0-.121.029.28068.28068,0,0,0-.084.048.48884.48884,0,0,0-.059.068l-3.002,4.527q-.129.189-.245.379c-.077.127-.144.236-.201.325h-.011c.011-.104.017-.211.019-.322s.003-.215.003-.312v-4.587a.11563.11563,0,0,0-.022-.069.14912.14912,0,0,0-.075-.054.58868.58868,0,0,0-.142-.032,1.73764,1.73764,0,0,0-.223-.011,1.61572,1.61572,0,0,0-.212.011.62957.62957,0,0,0-.145.032.16913.16913,0,0,0-.081.054.11134.11134,0,0,0-.024.069v6.666a.13977.13977,0,0,0,.083.137.38366.38366,0,0,0,.124.035,1.548,1.548,0,0,0,.201.011,1.41823,1.41823,0,0,0,.177-.009.53312.53312,0,0,0,.121-.026.24845.24845,0,0,0,.084-.051.72823.72823,0,0,0,.064-.076l3.008-4.522c.039-.061.079-.123.118-.185.039-.063.079-.126.118-.188.04-.063.076-.123.11-.18.034-.058.066-.111.094-.161h.011c-.007.096-.013.205-.016.325-.004.12-.006.235-.006.346v4.56a.12382.12382,0,0,0,.022.073.17534.17534,0,0,0,.072.051.55662.55662,0,0,0,.143.032,2.2355,2.2355,0,0,0,.443,0,.5906.5906,0,0,0,.142-.032.17481.17481,0,0,0,.075-.051.1172.1172,0,0,0,.022-.073Zm-6.249-.048a.14626.14626,0,0,0-.137-.097h-3.207a.33894.33894,0,0,0-.244.094.3689.3689,0,0,0-.1.282v6.44a.12382.12382,0,0,0,.022.073.17481.17481,0,0,0,.075.051.59654.59654,0,0,0,.145.032,2.2356,2.2356,0,0,0,.443,0,.60019.60019,0,0,0,.143-.032.18848.18848,0,0,0,.075-.051.12333.12333,0,0,0,.021-.073v-6.021h2.627a.15222.15222,0,0,0,.078-.021.1736.1736,0,0,0,.059-.07.44836.44836,0,0,0,.035-.124,1.30324,1.30324,0,0,0,.01-.177.7677.7677,0,0,0-.045-.306m-6.169,2.591a1.22954,1.22954,0,0,1-.285.457,1.31046,1.31046,0,0,1-.464.298,1.93568,1.93568,0,0,1-.696.107h-.832v-2.787h.854a3.27857,3.27857,0,0,1,.486.037,1.325,1.325,0,0,1,.483.178,1.09316,1.09316,0,0,1,.392.424,1.4383,1.4383,0,0,1,.159.709,1.68363,1.68363,0,0,1-.097.577m.959-1.369a1.79172,1.79172,0,0,0-.314-.572,1.83347,1.83347,0,0,0-.497-.417,2.07363,2.07363,0,0,0-.575-.231,3.9625,3.9625,0,0,0-.489-.08c-.138-.013-.282-.019-.432-.019h-1.488a.39426.39426,0,0,0-.252.091.371.371,0,0,0-.113.307v6.413a.1367.1367,0,0,0,.021.075.15546.15546,0,0,0,.075.051.88847.88847,0,0,0,.143.032,1.78177,1.78177,0,0,0,.446,0,.78237.78237,0,0,0,.139-.032.16587.16587,0,0,0,.075-.051.119.119,0,0,0,.025-.075v-2.503h.789a3.40273,3.40273,0,0,0,1.109-.161,2.20461,2.20461,0,0,0,.784-.457,1.9936,1.9936,0,0,0,.492-.714,2.45207,2.45207,0,0,0,.172-.94,2.22857,2.22857,0,0,0-.11-.717m-5.675,5.07a.34188.34188,0,0,0-.037-.118.18458.18458,0,0,0-.062-.067.14156.14156,0,0,0-.078-.022h-2.755v-2.487h2.331a.165.165,0,0,0,.077-.018.15618.15618,0,0,0,.06-.062.336.336,0,0,0,.034-.113,1.00147,1.00147,0,0,0,.011-.166,1.161,1.161,0,0,0-.011-.178.34642.34642,0,0,0-.034-.118.20615.20615,0,0,0-.06-.067.1325.1325,0,0,0-.077-.024h-2.331v-2.181h2.717a.14693.14693,0,0,0,.078-.021.16557.16557,0,0,0,.057-.067.51618.51618,0,0,0,.035-.119,1.0283,1.0283,0,0,0,.013-.169,1.128,1.128,0,0,0-.013-.18.5875.5875,0,0,0-.035-.121.1539.1539,0,0,0-.057-.069.13926.13926,0,0,0-.078-.022h-3.298a.38193.38193,0,0,0-.233.083.3443.3443,0,0,0-.11.293v6.198a.343.343,0,0,0,.11.293.37574.37574,0,0,0,.233.083h3.336a.14962.14962,0,0,0,.078-.021.18769.18769,0,0,0,.062-.07.37542.37542,0,0,0,.037-.121,1.18744,1.18744,0,0,0,.011-.169,1.27213,1.27213,0,0,0-.011-.18m-5.704-6.249a.132.132,0,0,0-.021-.075.14215.14215,0,0,0-.076-.051.75192.75192,0,0,0-.142-.033,1.48526,1.48526,0,0,0-.217-.013,1.51727,1.51727,0,0,0-.226.013.78609.78609,0,0,0-.14.033.13542.13542,0,0,0-.075.051.132.132,0,0,0-.021.075v2.782h-3.164v-2.782a.132.132,0,0,0-.021-.075.14215.14215,0,0,0-.076-.051.75192.75192,0,0,0-.142-.033,1.89342,1.89342,0,0,0-.443,0,.772.772,0,0,0-.145.033.13542.13542,0,0,0-.075.051.12531.12531,0,0,0-.022.075v6.671a.12961.12961,0,0,0,.022.075.14627.14627,0,0,0,.075.051.87052.87052,0,0,0,.145.032,1.7579,1.7579,0,0,0,.443,0,.84875.84875,0,0,0,.142-.032.15407.15407,0,0,0,.076-.051.1367.1367,0,0,0,.021-.075v-3.083h3.164v3.083a.1367.1367,0,0,0,.021.075.14627.14627,0,0,0,.075.051.8936.8936,0,0,0,.14.032,1.49638,1.49638,0,0,0,.226.014,1.46979,1.46979,0,0,0,.217-.014.84875.84875,0,0,0,.142-.032.15407.15407,0,0,0,.076-.051.1367.1367,0,0,0,.021-.075Zm-6.52,6.249a.34115.34115,0,0,0-.038-.118.18458.18458,0,0,0-.062-.067.13925.13925,0,0,0-.078-.022h-2.755v-2.487h2.331a.16621.16621,0,0,0,.078-.018.15422.15422,0,0,0,.059-.062.33493.33493,0,0,0,.035-.113,1.12327,1.12327,0,0,0,.011-.166,1.30365,1.30365,0,0,0-.011-.178.34483.34483,0,0,0-.035-.118.20367.20367,0,0,0-.059-.067.13334.13334,0,0,0-.078-.024h-2.331v-2.181h2.718a.152.152,0,0,0,.078-.021.15649.15649,0,0,0,.056-.067.51618.51618,0,0,0,.035-.119.929.929,0,0,0,.013-.169,1.02189,1.02189,0,0,0-.013-.18.5875.5875,0,0,0-.035-.121.14631.14631,0,0,0-.056-.069.144.144,0,0,0-.078-.022h-3.298a.38468.38468,0,0,0-.234.083.34716.34716,0,0,0-.11.293v6.198a.34589.34589,0,0,0,.11.293.37845.37845,0,0,0,.234.083h3.335a.1471.1471,0,0,0,.078-.021.18769.18769,0,0,0,.062-.07.3748.3748,0,0,0,.038-.121,1.20019,1.20019,0,0,0,.01-.169,1.29113,1.29113,0,0,0-.01-.18m-8.202-3.07a.62946.62946,0,0,0-.446-.123.6463.6463,0,0,0-.459.126.73678.73678,0,0,0-.126.508.71852.71852,0,0,0,.123.494.62946.62946,0,0,0,.446.123.6463.6463,0,0,0,.459-.126.73548.73548,0,0,0,.126-.507.71978.71978,0,0,0-.123-.495m-6.343,1.069h-2.417l1.197-3.464h.006Zm-.554-4.221a.28207.28207,0,0,0-.059-.1.24632.24632,0,0,0-.107-.062.855.855,0,0,0-.183-.029c-.075-.005-.17-.008-.284-.008-.108,0-.196.003-.266.008a.773.773,0,0,0-.172.029.23791.23791,0,0,0-.102.06.28108.28108,0,0,0-.057.096l-2.331,6.456a.66023.66023,0,0,0-.045.191.1347.1347,0,0,0,.037.11.25991.25991,0,0,0,.14.051,1.94209,1.94209,0,0,0,.255.014,2.25573,2.25573,0,0,0,.244-.011.47164.47164,0,0,0,.145-.035.21114.21114,0,0,0,.078-.059.26107.26107,0,0,0,.043-.083l.57-1.671h2.889l.597,1.692a.43265.43265,0,0,0,.045.081.16588.16588,0,0,0,.075.051.61435.61435,0,0,0,.151.026c.066.006.155.009.266.009a2.606,2.606,0,0,0,.265-.011.252.252,0,0,0,.143-.049.13161.13161,0,0,0,.04-.11.65548.65548,0,0,0-.046-.19Zm-4.721-.027a.132.132,0,0,0-.021-.075.14314.14314,0,0,0-.075-.051.78472.78472,0,0,0-.143-.033,1.52763,1.52763,0,0,0-.223-.013,1.44012,1.44012,0,0,0-.212.013.8554.8554,0,0,0-.145.033.15453.15453,0,0,0-.08.051.1151.1151,0,0,0-.025.075v6.671a.13745.13745,0,0,0,.022.075.14627.14627,0,0,0,.075.051.87052.87052,0,0,0,.145.032,1.7579,1.7579,0,0,0,.443,0,.88847.88847,0,0,0,.143-.032.15546.15546,0,0,0,.075-.051.1367.1367,0,0,0,.021-.075Zm-2.669.542a.37327.37327,0,0,0-.097-.161,1.41948,1.41948,0,0,0-.255-.18,2.57229,2.57229,0,0,0-.457-.204,4.71684,4.71684,0,0,0-.62-.164,3.85243,3.85243,0,0,0-.747-.07,3.67921,3.67921,0,0,0-1.409.261,3.14554,3.14554,0,0,0-1.091.733,3.2818,3.2818,0,0,0-.703,1.144,4.6085,4.6085,0,0,0-.019,2.938,3.11046,3.11046,0,0,0,.669,1.107,2.92269,2.92269,0,0,0,1.071.711,3.8925,3.8925,0,0,0,1.44.25,4.4658,4.4658,0,0,0,1.063-.129,4.64219,4.64219,0,0,0,.51-.156,4.12009,4.12009,0,0,0,.403-.169.41926.41926,0,0,0,.204-.18.56134.56134,0,0,0,.049-.242v-2.647a.50489.50489,0,0,0-.027-.172.28126.28126,0,0,0-.076-.119.3349.3349,0,0,0-.107-.064.34992.34992,0,0,0-.118-.021h-2.208a.14212.14212,0,0,0-.08.021.18354.18354,0,0,0-.057.067.40344.40344,0,0,0-.035.118,1.26223,1.26223,0,0,0-.01.175.67931.67931,0,0,0,.045.285.14777.14777,0,0,0,.137.091h1.612v2.025a2.40589,2.40589,0,0,1-.615.233,2.84013,2.84013,0,0,1-.653.078,2.65489,2.65489,0,0,1-.996-.182,2.14624,2.14624,0,0,1-.782-.537,2.54021,2.54021,0,0,1-.513-.871,3.7871,3.7871,0,0,1-.016-2.288,2.59916,2.59916,0,0,1,.486-.88,2.2221,2.2221,0,0,1,.774-.581,2.4537,2.4537,0,0,1,1.031-.209,3.0173,3.0173,0,0,1,.835.102,3.68555,3.68555,0,0,1,.604.226,3.27964,3.27964,0,0,1,.403.225.48515.48515,0,0,0,.215.102.12733.12733,0,0,0,.07-.021.172.172,0,0,0,.054-.073.52687.52687,0,0,0,.032-.129,1.35717,1.35717,0,0,0,.011-.18.98281.98281,0,0,0-.027-.263m-7.904,1.714a.95953.95953,0,0,1-.26.373,1.23965,1.23965,0,0,1-.443.247,2.00967,2.00967,0,0,1-.631.089h-.903v-2.342h.779c.183,0,.33.005.443.016a1.78367,1.78367,0,0,1,.304.054,1.031,1.031,0,0,1,.612.405,1.24062,1.24062,0,0,1,.182.69,1.27591,1.27591,0,0,1-.083.468m1.453,4.294a2.85139,2.85139,0,0,0-.097-.271l-.623-1.531c-.071-.176-.143-.333-.214-.473a2.52251,2.52251,0,0,0-.229-.37,1.57164,1.57164,0,0,0-.26-.277,1.29885,1.29885,0,0,0-.312-.191,2.66689,2.66689,0,0,0,.553-.263,1.78155,1.78155,0,0,0,.425-.368,1.51326,1.51326,0,0,0,.271-.489,1.92682,1.92682,0,0,0,.094-.625,1.96587,1.96587,0,0,0-.105-.658,1.53237,1.53237,0,0,0-.314-.529,1.7016,1.7016,0,0,0-.518-.382,2.68059,2.68059,0,0,0-.712-.22c-.093-.011-.198-.021-.314-.029-.117-.009-.262-.014-.438-.014h-1.477a.38685.38685,0,0,0-.234.083.34716.34716,0,0,0-.11.293v6.435a.12961.12961,0,0,0,.022.075.14627.14627,0,0,0,.075.051.873.873,0,0,0,.142.032,1.78177,1.78177,0,0,0,.446,0,.79667.79667,0,0,0,.14-.032.16587.16587,0,0,0,.075-.051.1243.1243,0,0,0,.024-.075v-2.96h.618a1.41739,1.41739,0,0,1,.542.094,1.191,1.191,0,0,1,.392.263,1.66374,1.66374,0,0,1,.288.403q.12.234.233.513l.64,1.638a.4173.4173,0,0,0,.051.108.19288.19288,0,0,0,.083.067.49792.49792,0,0,0,.142.035,1.98958,1.98958,0,0,0,.228.011,2.468,2.468,0,0,0,.258-.011.61039.61039,0,0,0,.151-.032.12869.12869,0,0,0,.069-.054.16562.16562,0,0,0,.017-.075.51147.51147,0,0,0-.022-.121m-6.128-.301a.34115.34115,0,0,0-.038-.118.17649.17649,0,0,0-.062-.067.13925.13925,0,0,0-.078-.022h-2.755v-2.487h2.331a.16621.16621,0,0,0,.078-.018.15422.15422,0,0,0,.059-.062.33493.33493,0,0,0,.035-.113,1.12327,1.12327,0,0,0,.011-.166,1.30365,1.30365,0,0,0-.011-.178.34483.34483,0,0,0-.035-.118.20367.20367,0,0,0-.059-.067.13334.13334,0,0,0-.078-.024h-2.331v-2.181h2.718a.152.152,0,0,0,.078-.021.15649.15649,0,0,0,.056-.067.51618.51618,0,0,0,.035-.119.929.929,0,0,0,.013-.169,1.02189,1.02189,0,0,0-.013-.18.5875.5875,0,0,0-.035-.121.14631.14631,0,0,0-.056-.069.144.144,0,0,0-.078-.022h-3.298a.38685.38685,0,0,0-.234.083.34716.34716,0,0,0-.11.293v6.198a.34589.34589,0,0,0,.11.293.38054.38054,0,0,0,.234.083h3.335a.1471.1471,0,0,0,.078-.021.17956.17956,0,0,0,.062-.07.3748.3748,0,0,0,.038-.121,1.20019,1.20019,0,0,0,.01-.169,1.29113,1.29113,0,0,0-.01-.18m-5.704-6.233a.12194.12194,0,0,0-.023-.07.18694.18694,0,0,0-.074-.056.46482.46482,0,0,0-.142-.035,1.88392,1.88392,0,0,0-.215-.011,1.9861,1.9861,0,0,0-.229.011.49792.49792,0,0,0-.142.035.19211.19211,0,0,0-.077.056.1208.1208,0,0,0-.022.07v3.77q0,.42451.002.884c.002.306.007.601.014.883h-.006q-.1245-.252-.251-.502-.1275-.249-.257-.507-.1305-.258-.27-.524c-.094-.177-.19-.359-.291-.545l-1.63-3.051a2.32745,2.32745,0,0,0-.169-.277.75428.75428,0,0,0-.166-.171.54654.54654,0,0,0-.194-.089,1.13329,1.13329,0,0,0-.269-.027h-.454a.439.439,0,0,0-.266.091.357.357,0,0,0-.122.307v6.413a.12922.12922,0,0,0,.022.072.14784.14784,0,0,0,.074.054.78237.78237,0,0,0,.139.032,1.5049,1.5049,0,0,0,.224.014,1.5242,1.5242,0,0,0,.224-.014.88289.88289,0,0,0,.141-.032.14822.14822,0,0,0,.077-.054.12922.12922,0,0,0,.022-.072v-4.195c0-.265-.001-.532-.005-.8-.003-.269-.009-.532-.016-.79h.011c.097.211.201.429.314.653.113.223.224.437.335.641l2.121,3.954a2.68687,2.68687,0,0,0,.206.343,1.04425,1.04425,0,0,0,.194.212.57616.57616,0,0,0,.206.108.99473.99473,0,0,0,.253.029h.305a.52428.52428,0,0,0,.145-.021.36517.36517,0,0,0,.13-.07.3537.3537,0,0,0,.094-.123.42322.42322,0,0,0,.037-.183Zm-6.768,6.233a.32129.32129,0,0,0-.038-.118.18272.18272,0,0,0-.061-.067.14394.14394,0,0,0-.078-.022h-2.756v-2.487h2.331a.16621.16621,0,0,0,.078-.018.14794.14794,0,0,0,.059-.062.31388.31388,0,0,0,.035-.113,1.12327,1.12327,0,0,0,.011-.166,1.30365,1.30365,0,0,0-.011-.178.32405.32405,0,0,0-.035-.118.193.193,0,0,0-.059-.067.13334.13334,0,0,0-.078-.024h-2.331v-2.181h2.718a.14693.14693,0,0,0,.078-.021.15649.15649,0,0,0,.056-.067.471.471,0,0,0,.035-.119.92134.92134,0,0,0,.014-.169,1.01158,1.01158,0,0,0-.014-.18.53117.53117,0,0,0-.035-.121.14631.14631,0,0,0-.056-.069.13926.13926,0,0,0-.078-.022h-3.298a.38193.38193,0,0,0-.233.083.3443.3443,0,0,0-.11.293v6.198a.343.343,0,0,0,.11.293.37574.37574,0,0,0,.233.083h3.336a.15221.15221,0,0,0,.078-.021.186.186,0,0,0,.061-.07.35185.35185,0,0,0,.038-.121,1.18744,1.18744,0,0,0,.011-.169,1.27213,1.27213,0,0,0-.011-.18"/>
    <rect class="cls-20" x="25.532" y="25.646" width="76.082" height="50.815"/>
    <rect class="cls-9" x="104.131" y="25.646" width="182.16801" height="50.815"/>
    <polygon class="cls-21" points="79.294 42.587 80.929 41.399 78.908 41.399 78.283 39.476 77.658 41.399 75.636 41.399 77.272 42.587 76.647 44.51 78.283 43.321 79.918 44.51 79.294 42.587"/>
    <polygon class="cls-21" points="72.927 36.49 74.562 35.302 72.541 35.302 71.916 33.379 71.291 35.302 69.27 35.302 70.905 36.49 70.28 38.413 71.916 37.224 73.552 38.413 72.927 36.49"/>
    <polygon class="cls-21" points="64.713 34.309 66.349 33.121 64.327 33.121 63.702 31.198 63.077 33.121 61.055 33.121 62.691 34.309 62.067 36.232 63.702 35.044 65.338 36.232 64.713 34.309"/>
    <polygon class="cls-21" points="56.064 36.49 57.699 35.302 55.678 35.302 55.053 33.379 54.428 35.302 52.406 35.302 54.042 36.49 53.417 38.413 55.053 37.224 56.689 38.413 56.064 36.49"/>
    <polygon class="cls-21" points="49.885 42.886 51.521 41.698 49.499 41.698 48.874 39.775 48.249 41.698 46.227 41.698 47.863 42.886 47.239 44.809 48.874 43.621 50.51 44.809 49.885 42.886"/>
    <polygon class="cls-21" points="47.912 51.29 49.548 50.102 47.526 50.102 46.901 48.179 46.276 50.102 44.254 50.102 45.89 51.29 45.265 53.213 46.901 52.024 48.537 53.213 47.912 51.29"/>
    <polygon class="cls-21" points="49.947 59.804 51.583 58.616 49.561 58.616 48.936 56.693 48.311 58.616 46.289 58.616 47.925 59.804 47.301 61.727 48.936 60.539 50.572 61.727 49.947 59.804"/>
    <polygon class="cls-21" points="56.064 65.855 57.699 64.666 55.678 64.666 55.053 62.744 54.428 64.666 52.406 64.666 54.042 65.855 53.417 67.778 55.053 66.589 56.689 67.777 56.064 65.855"/>
    <polygon class="cls-21" points="64.713 68.109 66.348 66.92 64.326 66.92 63.702 64.998 63.077 66.92 61.055 66.92 62.691 68.109 62.066 70.032 63.702 68.843 65.338 70.032 64.713 68.109"/>
    <polygon class="cls-21" points="73.129 65.824 74.765 64.635 72.742 64.635 72.118 62.713 71.493 64.635 69.471 64.635 71.107 65.824 70.483 67.747 72.118 66.559 73.753 67.747 73.129 65.824"/>
    <polygon class="cls-21" points="79.251 59.75 80.886 58.562 78.865 58.562 78.24 56.639 77.615 58.562 75.594 58.562 77.229 59.75 76.604 61.673 78.24 60.484 79.876 61.673 79.251 59.75"/>
    <polygon class="cls-21" points="81.504 51.172 83.139 49.984 81.118 49.984 80.493 48.061 79.869 49.984 77.846 49.984 79.482 51.172 78.857 53.095 80.493 51.906 82.128 53.095 81.504 51.172"/>
    <polygon class="cls-7" points="126.197 46.386 118.035 46.386 118.035 52.748 127.161 52.748 127.161 55.994 114.083 55.994 114.083 34.336 126.679 34.336 126.679 37.582 118.035 37.582 118.035 43.173 126.197 43.173 126.197 46.386"/>
  </g>
  <g class="cls-22">
    <path class="cls-7" d="M132.2375,55.9939v-21.658h4.499l5.591,9.287a59.51523,59.51523,0,0,1,3.695,7.262h.064c-.257-2.892-.353-5.68805-.353-8.997v-7.552h3.663v21.658h-4.081l-5.655-9.543a71.48873,71.48873,0,0,1-3.888-7.455l-.097.032c.161,2.795.193,5.655.193,9.222v7.744Z"/>
    <polygon class="cls-7" points="167.68 46.386 159.518 46.386 159.518 52.748 168.643 52.748 168.643 55.994 155.565 55.994 155.565 34.336 168.161 34.336 168.161 37.582 159.518 37.582 159.518 43.173 167.68 43.173 167.68 46.386"/>
    <path class="cls-7" d="M173.71959,34.62518a37.54578,37.54578,0,0,1,5.977-.45c3.117,0,5.238.515,6.684,1.736a5.48013,5.48013,0,0,1,1.864,4.338,5.77678,5.77678,0,0,1-3.92,5.43v.096c1.542.579,2.473,2.089,3.02,4.178a43.27412,43.27412,0,0,0,1.703,6.041h-4.081a30.58216,30.58216,0,0,1-1.446-5.11c-.61-2.827-1.639-3.727-3.888-3.791h-1.992v8.901h-3.921Zm3.921,9.576h2.346c2.666,0,4.338-1.41394,4.338-3.56695,0-2.378-1.672-3.47-4.242-3.47a11.31682,11.31682,0,0,0-2.442.193Z"/>
    <path class="cls-7" d="M210.9615,54.99768a21.45709,21.45709,0,0,1-6.973,1.221c-3.663,0-6.427-.932-8.483-2.892a10.72671,10.72671,0,0,1-3.02-7.969c0-6.844,4.884-11.246,12.05-11.246a14.37,14.37,0,0,1,5.751,1.028l-.868,3.181a11.66194,11.66194,0,0,0-4.916-.932c-4.627,0-7.872,2.732-7.872,7.776,0,4.917,3.02,7.841,7.519,7.841a7.57459,7.57459,0,0,0,2.988-.45v-5.398h-3.824v-3.117h7.648Z"/>
    <path class="cls-7" d="M113.6934,64.8288c.037,1.012.89,1.449,1.855,1.449a4.83772,4.83772,0,0,0,1.669-.253l.223.977a6.01689,6.01689,0,0,1-2.103.357c-1.954,0-3.104-1.127-3.104-2.841a2.85917,2.85917,0,0,1,2.943-3.013,2.49307,2.49307,0,0,1,2.597,2.726,3.22788,3.22788,0,0,1-.049.598Zm2.646-.989a1.23014,1.23014,0,0,0-1.249-1.368,1.42857,1.42857,0,0,0-1.397,1.368Z"/>
    <polygon class="cls-7" points="120.567 61.632 120.567 63.771 122.892 63.771 122.892 61.632 124.413 61.632 124.413 67.232 122.892 67.232 122.892 64.875 120.567 64.875 120.567 67.232 119.046 67.232 119.046 61.632 120.567 61.632"/>
    <path class="cls-7" d="M127.1693,64.8288c.037,1.012.89,1.449,1.855,1.449a4.82965,4.82965,0,0,0,1.669-.253l.223.977a6.01514,6.01514,0,0,1-2.102.357c-1.954,0-3.104-1.127-3.104-2.841a2.85859,2.85859,0,0,1,2.943-3.013,2.49363,2.49363,0,0,1,2.597,2.726,3.20883,3.20883,0,0,1-.05.598Zm2.646-.989a1.22956,1.22956,0,0,0-1.249-1.368,1.42858,1.42858,0,0,0-1.397,1.368Z"/>
    <path class="cls-7" d="M132.53479,63.49432c0-.736-.025-1.333-.049-1.863h1.335l.074.863h.025a2.40057,2.40057,0,0,1,2.065-.989,2.61274,2.61274,0,0,1,2.535,2.852,2.747,2.747,0,0,1-2.745,3.001,2.03428,2.03428,0,0,1-1.694-.747h-.025v2.897h-1.521Zm1.521,1.392a1.35111,1.35111,0,0,0,1.385,1.38c.964,0,1.533-.74695,1.533-1.851,0-.99005-.519-1.795-1.496-1.795a1.39567,1.39567,0,0,0-1.36,1.047,1.20207,1.20207,0,0,0-.062.357Z"/>
    <polygon class="cls-7" points="143.799 61.632 143.799 62.747 141.338 62.747 141.338 67.232 139.817 67.232 139.817 61.632 143.799 61.632"/>
    <path class="cls-7" d="M146.2215,61.63177v2.013c0,.885-.037,1.483-.087,2.265h.038c.321-.656.507-1.07.816-1.656l1.484-2.622h1.842v5.6h-1.447v-2.001c0-.89605.037-1.31.099-2.369h-.049c-.297.668-.495,1.07-.792,1.611-.47.827-1.014,1.83905-1.533,2.759h-1.818v-5.6Z"/>
    <path class="cls-7" d="M156.94128,67.23181h-1.509v-2.219h-.569a1.22458,1.22458,0,0,0-.927.368,3.56671,3.56671,0,0,0-.742,1.39105,4.00253,4.00253,0,0,1-.235.46h-1.632a2.88412,2.88412,0,0,0,.371-.621,4.69753,4.69753,0,0,1,.902-1.61,1.45775,1.45775,0,0,1,.718-.379v-.035c-.718-.069-1.571-.505-1.571-1.379a1.41136,1.41136,0,0,1,.927-1.3,5.25585,5.25585,0,0,1,2.128-.356,17.40325,17.40325,0,0,1,2.139.126Zm-1.509-4.726a4.35249,4.35249,0,0,0-.754-.057c-.668,0-1.348.218-1.348.839,0,.586.754.839,1.348.839.358,0,.556,0,.754-.011Z"/>
    <path class="cls-7" d="M161.8734,65.13928a.88282.88282,0,0,1-.927-.909.89253.89253,0,0,1,.939-.908.909.909,0,1,1,0,1.81695Z"/>
    <path class="cls-7" d="M167.86929,64.2193c-.717-.184-1.113-.621-1.113-1.173,0-.759.816-1.541,2.535-1.541a3.81861,3.81861,0,0,1,1.93.425l-.285.909a3.42741,3.42741,0,0,0-1.459-.334c-.73,0-1.188.277-1.188.667,0,.449.607.63306,1.509.64405h.656v.943h-.668c-.965.012-1.694.196-1.694.736,0,.529.655.805,1.397.805a4.304,4.304,0,0,0,1.694-.391l.223.94306a4.91277,4.91277,0,0,1-2.288.506c-1.274,0-2.646-.448-2.646-1.713a1.52822,1.52822,0,0,1,1.397-1.38Z"/>
    <path class="cls-7" d="M173.4079,61.63177l.965,2.841c.173.494.284.943.433,1.425h.049a9.55448,9.55448,0,0,0,1.261-3.783v-.483h1.422a2.26136,2.26136,0,0,1,.038.425c0,1.588-1.089,3.462-2.189,5.175h-1.472l-2.139-5.6Z"/>
    <path class="cls-7" d="M179.6514,64.2193c-.717-.184-1.113-.621-1.113-1.173,0-.759.816-1.541,2.535-1.541a3.81865,3.81865,0,0,1,1.93.425l-.285.909a3.42737,3.42737,0,0,0-1.459-.334c-.73,0-1.188.277-1.188.667,0,.449.607.63306,1.509.64405h.656v.943h-.668c-.965.012-1.694.196-1.694.736,0,.529.655.805,1.397.805a4.30394,4.30394,0,0,0,1.694-.391l.223.94306a4.91281,4.91281,0,0,1-2.288.506c-1.274,0-2.646-.448-2.646-1.713a1.52823,1.52823,0,0,1,1.397-1.38Z"/>
    <path class="cls-7" d="M185.73421,66.69183v.793a14.13911,14.13911,0,0,0,.087,2.024h-1.472a9.67622,9.67622,0,0,1-.136-2.001v-2.564a3.1471,3.1471,0,0,1,1.026-2.702,3.007,3.007,0,0,1,2.053-.737,2.71758,2.71758,0,0,1,2.881,2.876,2.77343,2.77343,0,0,1-2.782,2.978,2.01279,2.01279,0,0,1-1.632-.667Zm0-1.679a1.76094,1.76094,0,0,0,.037.368,1.40381,1.40381,0,0,0,1.335.886c.965,0,1.521-.794,1.521-1.852,0-.989-.531-1.748-1.434-1.748-.767,0-1.459.621-1.459,1.909Z"/>
    <path class="cls-7" d="M192.74409,69.50861a11.83457,11.83457,0,0,0-.21-3.231,15.11521,15.11521,0,0,0-2.102-4.646h1.706a13.00042,13.00042,0,0,1,1.608,4.071h.05a8.7037,8.7037,0,0,0,1.137-3.622c0-.218-.012-.334-.012-.449h1.447a2.21377,2.21377,0,0,1,.024.415,9.52174,9.52174,0,0,1-2.127,4.932.45206.45206,0,0,0-.074.276c.025.564.025,1.483.037,2.254Z"/>
    <path class="cls-7" d="M198.44341,64.2193c-.717-.184-1.113-.621-1.113-1.173,0-.759.816-1.541,2.535-1.541a3.812,3.812,0,0,1,1.929.425l-.284.909a3.43118,3.43118,0,0,0-1.459-.334c-.73,0-1.188.277-1.188.667,0,.449.607.63306,1.509.64405h.656v.943h-.668c-.965.012-1.694.196-1.694.736,0,.529.655.805,1.397.805a4.304,4.304,0,0,0,1.694-.391l.223.94306a4.91848,4.91848,0,0,1-2.288.506c-1.274,0-2.646-.448-2.646-1.713a1.52822,1.52822,0,0,1,1.397-1.38Z"/>
    <path class="cls-7" d="M204.57629,65.6568c0,.46.148.644.569.621l-.087.989a2.01546,2.01546,0,0,1-.655.092c-.816,0-1.36-.322-1.36-1.564v-4.163h1.533Z"/>
    <path class="cls-7" d="M211.84679,61.63135c-.074.76-.173,2.484-.173,3.818,0,.633.21.851.581.84l-.099,1a1.9157,1.9157,0,0,1-.531.069,1.11716,1.11716,0,0,1-1.175-1.092h-.037a2.24738,2.24738,0,0,1-1.991,1.092,2.55146,2.55146,0,0,1-2.486-2.817,2.86407,2.86407,0,0,1,2.721-3.036,1.86878,1.86878,0,0,1,1.731.977h.05a8.53,8.53,0,0,1,.135-.851Zm-4.365,2.864c0,.943.519,1.736,1.348,1.736a1.50983,1.50983,0,0,0,1.335-1.207,3.65854,3.65854,0,0,0,.05-.656,2.27978,2.27978,0,0,0-.038-.529,1.37883,1.37883,0,0,0-1.273-1.241c-.853,0-1.422.839-1.422,1.885Z"/>
    <path class="cls-7" d="M219.1864,38.9328a11.026,11.026,0,1,1,11.027,11.025,11.02617,11.02617,0,0,1-11.027-11.025"/>
    <path class="cls-9" d="M229.4613,43.06561v-3.801l-2.882-5.316h1.894l1.096,2.34c.311.676.541,1.19.785,1.812h.027c.23-.581.487-1.149.798-1.812l1.095-2.34h1.881l-3.03,5.275v3.842Z"/>
    <path class="cls-7" d="M244.55409,38.9328a11.026,11.026,0,1,1,11.026,11.025,11.026,11.026,0,0,1-11.026-11.025"/>
    <path class="cls-7" d="M219.1864,63.38147a11.026,11.026,0,1,1,11.027,11.026,11.0268,11.0268,0,0,1-11.027-11.026"/>
    <rect class="cls-9" x="226.01199" y="58.39703" width="1.664" height="9.11798"/>
    <polygon class="cls-9" points="234.683 63.47 231.247 63.47 231.247 66.148 235.09 66.148 235.09 67.515 229.584 67.515 229.584 58.397 234.886 58.397 234.886 59.764 231.247 59.764 231.247 62.117 234.683 62.117 234.683 63.47"/>
    <path class="cls-7" d="M244.55409,63.38147a11.026,11.026,0,1,1,11.026,11.026,11.02658,11.02658,0,0,1-11.026-11.026"/>
    <rect class="cls-9" x="247.909" y="33.94897" width="1.664" height="9.117"/>
    <path class="cls-9" d="M253.2932,33.94818h1.664v5.911c0,2.516-1.218,3.355-3.03,3.355a4.43577,4.43577,0,0,1-1.393-.216l.202-1.339a3.651,3.651,0,0,0,1.029.162c.947,0,1.528-.43305,1.528-2.016Z"/>
    <path class="cls-9" d="M258.61008,40.48193l-.785,2.584h-1.717l2.922-9.118h2.124l2.962,9.118h-1.786l-.825-2.584Zm2.611-1.258-.717-2.246c-.176-.554-.325-1.176-.46-1.704h-.027c-.135.52795-.27,1.163-.433,1.704l-.704,2.246Z"/>
    <rect class="cls-9" x="250.561" y="58.39801" width="1.664" height="9.117"/>
    <path class="cls-9" d="M255.9586,64.93176l-.785,2.58295h-1.717l2.922-9.11694h2.123l2.963,9.11694h-1.786l-.825-2.58295Zm2.611-1.258-.717-2.246c-.176-.555-.325-1.177-.46-1.704h-.027c-.135.527-.271,1.163-.433,1.704l-.704,2.246Z"/>
  </g>
  <g class="cls-4">
    <line class="cls-23" x1="24.8031" y1="126.63971" x2="287.00809" y2="126.63971"/>
    <path class="cls-6" d="M215.0157,405.6436s-9.921,0-9.921,9.921v49.024s0,9.921,9.921,9.921h57.528s9.921,0,9.921-9.921v-49.024s0-9.921-9.921-9.921Z"/>
    <path class="cls-6" d="M215.0157,482.8877s-9.921,0-9.921,9.921v80.205s0,9.921,9.921,9.921h57.528s9.921,0,9.921-9.921v-80.205s0-9.921-9.921-9.921Z"/>
  </g>
  <g class="cls-24">
    <path class="cls-25" d="M266.85031,512.8756l-22.882-17.229-11.787,8.875v-3.953h-4.623v7.434l-6.472,4.873h6.498a4.71357,4.71357,0,0,0-.026.492v17.722a4.30147,4.30147,0,0,0,4.16,4.43h24.038a4.30147,4.30147,0,0,0,4.16-4.43v-17.722a4.71083,4.71083,0,0,0-.026-.492Z"/>
    <path class="cls-26" d="M204.0372,497.4388a7.30716,7.30716,0,0,1,7.068-7.526h65.727a7.307,7.307,0,0,1,7.067,7.526v64.261a7.30766,7.30766,0,0,1-7.067,7.526h-65.727a7.30781,7.30781,0,0,1-7.068-7.526Z"/>
  </g>
  <g class="cls-24">
    <text class="cls-27" transform="translate(240.125 553.44617) scale(1 1.06491)">5</text>
    <text class="cls-27" transform="translate(247.8125 553.44617) scale(1 1.06491)"> </text>
    <text class="cls-28" transform="translate(228.4082 564.34656) scale(1 1.0649)">40°C</text>
    <text class="cls-28" transform="translate(240.94434 564.34656) scale(1 1.0649)"> </text>
    <text class="cls-28" transform="translate(242.42676 564.34656) scale(1 1.0649)">| 40%</text>
    <text class="cls-28" transform="translate(258.47949 564.34656) scale(1 1.0649)"> </text>
    <text class="cls-28" transform="translate(263.62402 564.34656) scale(1 1.0649)"> </text>
    <path class="cls-7" d="M238.09879,525.3702v-7.275a1.99187,1.99187,0,1,0-3.976,0v7.275a3.26975,3.26975,0,0,0-1.008,2.382,3.00137,3.00137,0,1,0,5.991,0,3.269,3.269,0,0,0-1.007-2.382m-1.988,4.495a2.05217,2.05217,0,0,1-1.985-2.113,2.138,2.138,0,0,1,1.009-1.84v-7.817a.97791.97791,0,1,1,1.952,0v7.817a2.138,2.138,0,0,1,1.009,1.84,2.05217,2.05217,0,0,1-1.985,2.113"/>
    <path class="cls-7" d="M236.6171,526.24069v-4.655a.507.507,0,1,0-1.012,0v4.655a1.6017,1.6017,0,0,0-1.003,1.511,1.51146,1.51146,0,1,0,3.017,0,1.6023,1.6023,0,0,0-1.002-1.511"/>
    <path class="cls-7" d="M254.52228,522.1047a15.85833,15.85833,0,0,1-3.071-5.623c-.099-.299-.241-.574-.539-.574s-.443.247-.539.574a15.13549,15.13549,0,0,1-3.071,5.623,5.45243,5.45243,0,0,0-1.352,3.625,4.97128,4.97128,0,1,0,9.923,0,5.45165,5.45165,0,0,0-1.351-3.625m-3.61,7.751a3.9852,3.9852,0,0,1-3.854-4.105,4.24309,4.24309,0,0,1,1.049-2.816,15.51221,15.51221,0,0,0,2.805-4.656,15.52972,15.52972,0,0,0,2.804,4.656,4.23878,4.23878,0,0,1,1.05,2.816,3.9852,3.9852,0,0,1-3.854,4.105"/>
    <path class="cls-7" d="M247.78011,524.3606a3.80019,3.80019,0,0,0-.261,1.39,3.39976,3.39976,0,1,0,6.786,0,3.8006,3.8006,0,0,0-.261-1.39Z"/>
  </g>
  <g class="cls-4">
    <path class="cls-19" d="M278.41,454.7361a4.43705,4.43705,0,0,0-.106-.987,2.226,2.226,0,0,0-.355-.817,1.80033,1.80033,0,0,0-.653-.557,2.15517,2.15517,0,0,0-.998-.209,1.8993,1.8993,0,0,0-.489.065,2.15314,2.15314,0,0,0-.499.209,3.461,3.461,0,0,0-.533.376,6.44767,6.44767,0,0,0-.584.567,2.22311,2.22311,0,0,0-.274-.496,1.65427,1.65427,0,0,0-.396-.382,1.84361,1.84361,0,0,0-.537-.25,2.46047,2.46047,0,0,0-.687-.089,2.02377,2.02377,0,0,0-.988.27,3.99191,3.99191,0,0,0-1.008.851v-.813a.16574.16574,0,0,0-.024-.092.21891.21891,0,0,0-.079-.069.40912.40912,0,0,0-.153-.041,2.48739,2.48739,0,0,0-.25-.01,2.44556,2.44556,0,0,0-.253.01.477.477,0,0,0-.157.041.18815.18815,0,0,0-.082.069.18408.18408,0,0,0-.021.092v6.152a.16583.16583,0,0,0,.024.092.18294.18294,0,0,0,.089.065.64442.64442,0,0,0,.175.041,2.27014,2.27014,0,0,0,.273.014,2.35079,2.35079,0,0,0,.28-.014.59389.59389,0,0,0,.171-.041.20392.20392,0,0,0,.089-.065.152.152,0,0,0,.027-.092v-4.3a5.14924,5.14924,0,0,1,.862-.882,1.30177,1.30177,0,0,1,.786-.3,1.1308,1.1308,0,0,1,.543.123,1.0312,1.0312,0,0,1,.38.355,1.74892,1.74892,0,0,1,.225.554,3.12879,3.12879,0,0,1,.075.711v3.739a.16559.16559,0,0,0,.024.092.18265.18265,0,0,0,.089.065.6509.6509,0,0,0,.178.041,2.64128,2.64128,0,0,0,.543,0,.6539.6539,0,0,0,.175-.041.20362.20362,0,0,0,.092-.065.15187.15187,0,0,0,.027-.092v-4.3a5.46493,5.46493,0,0,1,.865-.882,1.2894,1.2894,0,0,1,.783-.3,1.15544,1.15544,0,0,1,.547.123,1.0238,1.0238,0,0,1,.383.355,1.63393,1.63393,0,0,1,.218.554,3.3903,3.3903,0,0,1,.069.711v3.739a.15207.15207,0,0,0,.027.092.20362.20362,0,0,0,.092.065.64439.64439,0,0,0,.175.041,2.33824,2.33824,0,0,0,.28.014,2.28215,2.28215,0,0,0,.273-.014.59447.59447,0,0,0,.171-.041.20434.20434,0,0,0,.089-.065.15194.15194,0,0,0,.027-.092Zm-11.211-2.262a.14136.14136,0,0,0-.03-.092.29621.29621,0,0,0-.093-.069.50912.50912,0,0,0-.171-.041c-.072-.007-.164-.01-.273-.01-.114,0-.206.003-.277.01a.57059.57059,0,0,0-.174.041.20773.20773,0,0,0-.092.069.16574.16574,0,0,0-.024.092v4.3a4.80986,4.80986,0,0,1-.892.881,1.4431,1.4431,0,0,1-.845.301,1.24474,1.24474,0,0,1-.574-.126,1.11543,1.11543,0,0,1-.407-.356,1.60555,1.60555,0,0,1-.239-.553,3.84772,3.84772,0,0,1-.078-.865v-3.582a.15227.15227,0,0,0-.028-.092.24234.24234,0,0,0-.092-.069.54945.54945,0,0,0-.174-.041c-.073-.007-.164-.01-.274-.01-.109,0-.2.003-.273.01a.58469.58469,0,0,0-.178.041.2078.2078,0,0,0-.092.069.16541.16541,0,0,0-.024.092v3.732a4.88341,4.88341,0,0,0,.113,1.138,2.2512,2.2512,0,0,0,.372.821,1.829,1.829,0,0,0,.68.557,2.35038,2.35038,0,0,0,1.036.205,2.228,2.228,0,0,0,1.039-.267,3.81943,3.81943,0,0,0,1.039-.847v.813a.18408.18408,0,0,0,.021.092.15325.15325,0,0,0,.078.065.52882.52882,0,0,0,.157.041,1.96725,1.96725,0,0,0,.257.014,1.82708,1.82708,0,0,0,.242-.014.57772.57772,0,0,0,.161-.041.18792.18792,0,0,0,.086-.065.17442.17442,0,0,0,.023-.092Zm-7.328,2.399a4.87551,4.87551,0,0,0-.112-1.124,2.23508,2.23508,0,0,0-.373-.817,1.85845,1.85845,0,0,0-.68-.557,2.31782,2.31782,0,0,0-1.036-.209,2.22577,2.22577,0,0,0-1.042.27,3.78477,3.78477,0,0,0-1.036.851v-.813a.16557.16557,0,0,0-.024-.092.219.219,0,0,0-.079-.069.40935.40935,0,0,0-.153-.041,2.47374,2.47374,0,0,0-.25-.01,2.44569,2.44569,0,0,0-.253.01.47722.47722,0,0,0-.157.041.1882.1882,0,0,0-.082.069.18419.18419,0,0,0-.021.092v6.152a.16566.16566,0,0,0,.024.092.18283.18283,0,0,0,.089.065.65388.65388,0,0,0,.175.041,2.26978,2.26978,0,0,0,.273.014,2.35055,2.35055,0,0,0,.28-.014.59413.59413,0,0,0,.171-.041.2041.2041,0,0,0,.089-.065.15194.15194,0,0,0,.027-.092v-4.3a4.60893,4.60893,0,0,1,.889-.882,1.46154,1.46154,0,0,1,.848-.3,1.28887,1.28887,0,0,1,.577.123,1.03306,1.03306,0,0,1,.407.355,1.73835,1.73835,0,0,1,.239.554,3.52639,3.52639,0,0,1,.082.848v3.602a.146.146,0,0,0,.028.092.20422.20422,0,0,0,.089.065.595.595,0,0,0,.17.041,2.36893,2.36893,0,0,0,.281.014,2.28191,2.28191,0,0,0,.273-.014.59429.59429,0,0,0,.171-.041.20422.20422,0,0,0,.089-.065.15188.15188,0,0,0,.027-.092Zm-7.355,0a4.86953,4.86953,0,0,0-.113-1.124,2.20267,2.20267,0,0,0-.373-.817,1.85034,1.85034,0,0,0-.68-.557,2.3133,2.3133,0,0,0-1.035-.209,2.22962,2.22962,0,0,0-1.043.27,3.78176,3.78176,0,0,0-1.035.851v-.813a.16565.16565,0,0,0-.024-.092.2279.2279,0,0,0-.079-.069.42089.42089,0,0,0-.154-.041,3.15171,3.15171,0,0,0-.502,0,.47709.47709,0,0,0-.157.041.15856.15856,0,0,0-.103.161v6.152a.16575.16575,0,0,0,.024.092.17806.17806,0,0,0,.089.065.63637.63637,0,0,0,.174.041,2.28858,2.28858,0,0,0,.274.014,2.36271,2.36271,0,0,0,.28-.014.59406.59406,0,0,0,.171-.041.21037.21037,0,0,0,.089-.065.15187.15187,0,0,0,.027-.092v-4.3a4.60951,4.60951,0,0,1,.889-.882,1.45874,1.45874,0,0,1,.847-.3,1.29346,1.29346,0,0,1,.578.123,1.04,1.04,0,0,1,.407.355,1.78421,1.78421,0,0,1,.239.554,3.5269,3.5269,0,0,1,.082.848v3.602a.152.152,0,0,0,.027.092.20429.20429,0,0,0,.089.065.59414.59414,0,0,0,.171.041,2.35055,2.35055,0,0,0,.28.014,2.28828,2.28828,0,0,0,.274-.014.594.594,0,0,0,.171-.041.21041.21041,0,0,0,.089-.065.152.152,0,0,0,.027-.092Zm-8.49,2.256a3.5342,3.5342,0,0,1-.797.69,1.57691,1.57691,0,0,1-.824.226,1.19733,1.19733,0,0,1-.851-.284.99423.99423,0,0,1-.304-.762,1.09916,1.09916,0,0,1,.106-.495.9629.9629,0,0,1,.332-.37,1.65718,1.65718,0,0,1,.567-.232,3.662,3.662,0,0,1,.807-.079h.964Zm1.121-2.645a3.51185,3.51185,0,0,0-.13-1.005,1.72145,1.72145,0,0,0-.417-.722,1.83146,1.83146,0,0,0-.752-.44,3.67077,3.67077,0,0,0-1.128-.151,3.8578,3.8578,0,0,0-.704.065,4.66882,4.66882,0,0,0-.643.164,3.43268,3.43268,0,0,0-.519.219,1.48043,1.48043,0,0,0-.318.208.391.391,0,0,0-.116.188,1.45869,1.45869,0,0,0-.011.458.4179.4179,0,0,0,.045.141.23306.23306,0,0,0,.072.082.16793.16793,0,0,0,.095.027.57761.57761,0,0,0,.25-.099q.16648-.099.417-.219a3.94755,3.94755,0,0,1,.581-.219,2.61068,2.61068,0,0,1,.748-.099,2.0439,2.0439,0,0,1,.657.092,1.05272,1.05272,0,0,1,.434.274,1.08118,1.08118,0,0,1,.242.455,2.33819,2.33819,0,0,1,.076.628v.479h-.848a6.04714,6.04714,0,0,0-1.292.126,3.00264,3.00264,0,0,0-.971.38,1.751,1.751,0,0,0-.608.636,1.83627,1.83627,0,0,0-.212.902,1.94139,1.94139,0,0,0,.154.793,1.6478,1.6478,0,0,0,.43.588,1.907,1.907,0,0,0,.67.365,2.84028,2.84028,0,0,0,.879.127,2.38771,2.38771,0,0,0,1.049-.239,3.05528,3.05528,0,0,0,.899-.67v.615a.15191.15191,0,0,0,.048.123.34315.34315,0,0,0,.154.062,1.61848,1.61848,0,0,0,.283.02,1.50858,1.50858,0,0,0,.281-.02.401.401,0,0,0,.15-.062.14443.14443,0,0,0,.055-.123Zm-5.551-5.38a.27581.27581,0,0,0,.02-.158.16642.16642,0,0,0-.075-.109.51316.51316,0,0,0-.171-.065,1.34205,1.34205,0,0,0-.28-.024c-.096,0-.178.004-.246.01a.54415.54415,0,0,0-.168.041.33268.33268,0,0,0-.109.083.36786.36786,0,0,0-.072.14l-4.135,11.34a.24813.24813,0,0,0-.028.154.1784.1784,0,0,0,.075.11.4802.4802,0,0,0,.175.068,1.38771,1.38771,0,0,0,.283.024,1.83054,1.83054,0,0,0,.243-.014.73655.73655,0,0,0,.168-.041.28277.28277,0,0,0,.112-.078.38082.38082,0,0,0,.072-.141Zm-6.296,5.776a4.90419,4.90419,0,0,0-.113-1.131,2.21688,2.21688,0,0,0-.372-.817,1.8618,1.8618,0,0,0-.681-.557,2.31329,2.31329,0,0,0-1.035-.209,2.16324,2.16324,0,0,0-.991.25,3.63841,3.63841,0,0,0-.978.762v-3.685a.168.168,0,0,0-.027-.095.208.208,0,0,0-.089-.069.62943.62943,0,0,0-.171-.041,2.3805,2.3805,0,0,0-.28-.013,2.31553,2.31553,0,0,0-.274.013.67547.67547,0,0,0-.174.041.18129.18129,0,0,0-.089.069.18368.18368,0,0,0-.024.095v9.133a.16566.16566,0,0,0,.024.092.18272.18272,0,0,0,.089.065.636.636,0,0,0,.174.041,2.2884,2.2884,0,0,0,.274.014,2.35055,2.35055,0,0,0,.28-.014.594.594,0,0,0,.171-.041.21041.21041,0,0,0,.089-.065.15194.15194,0,0,0,.027-.092v-4.3a4.60865,4.60865,0,0,1,.889-.882,1.45872,1.45872,0,0,1,.847-.3,1.29039,1.29039,0,0,1,.578.123,1.04,1.04,0,0,1,.407.355,1.76167,1.76167,0,0,1,.239.554,3.52741,3.52741,0,0,1,.082.848v3.602a.15188.15188,0,0,0,.027.092.21023.21023,0,0,0,.089.065.59413.59413,0,0,0,.171.041,2.36271,2.36271,0,0,0,.28.014,2.2884,2.2884,0,0,0,.274-.014.59413.59413,0,0,0,.171-.041.21023.21023,0,0,0,.089-.065.15188.15188,0,0,0,.027-.092Zm-6.809-4.505a1.47521,1.47521,0,0,0,.038-.246.166.166,0,0,0-.051-.137.35417.35417,0,0,0-.175-.065,2.47114,2.47114,0,0,0-.324-.017,2.95293,2.95293,0,0,0-.318.014.71352.71352,0,0,0-.185.041.145.145,0,0,0-.085.079c-.014.034-.027.074-.041.119l-1.948,7.404h-.014l-2.03-7.397a.493.493,0,0,0-.052-.126.18623.18623,0,0,0-.099-.079.74008.74008,0,0,0-.181-.041,2.67093,2.67093,0,0,0-.304-.014,3.24935,3.24935,0,0,0-.332.014.7664.7664,0,0,0-.194.041.19272.19272,0,0,0-.1.079.533.533,0,0,0-.051.126l-1.887,7.397h-.006l-1.99-7.411a.46156.46156,0,0,0-.037-.123.1694.1694,0,0,0-.089-.075.62555.62555,0,0,0-.188-.037c-.082-.007-.194-.011-.335-.011-.146,0-.262.005-.349.014a.3573.3573,0,0,0-.188.062.156.156,0,0,0-.054.136,1.2124,1.2124,0,0,0,.044.246l2.338,8.169a.3397.3397,0,0,0,.072.154.32255.32255,0,0,0,.147.089,1.17842,1.17842,0,0,0,.246.044c.1.009.225.014.376.014.146,0,.265-.005.359-.014a1.05752,1.05752,0,0,0,.229-.044.29966.29966,0,0,0,.136-.089.35958.35958,0,0,0,.069-.154l1.709-6.678h.013l1.853,6.678a.41811.41811,0,0,0,.075.154.30154.30154,0,0,0,.144.089,1.17228,1.17228,0,0,0,.242.044c.098.009.218.014.359.014.137,0,.252-.005.345-.014a1.172,1.172,0,0,0,.236-.044.35476.35476,0,0,0,.151-.089.38281.38281,0,0,0,.082-.154Zm-12.294,8.111a1.45239,1.45239,0,0,0-.126-.188l-2.502-3.247,2.228-2.229a.971.971,0,0,0,.147-.191.33819.33819,0,0,0,.045-.164.1541.1541,0,0,0-.031-.099.22386.22386,0,0,0-.103-.062.849.849,0,0,0-.188-.034c-.077-.007-.173-.01-.287-.01-.109,0-.203.003-.28.01a.83689.83689,0,0,0-.202.041.63158.63158,0,0,0-.147.075.6165.6165,0,0,0-.116.113l-2.324,2.557v-5.565a.16127.16127,0,0,0-.028-.095.19869.19869,0,0,0-.088-.069.62943.62943,0,0,0-.171-.041,2.39927,2.39927,0,0,0-.281-.013,2.30865,2.30865,0,0,0-.273.013.67547.67547,0,0,0-.174.041.17671.17671,0,0,0-.089.069.18368.18368,0,0,0-.024.095v9.133a.16566.16566,0,0,0,.024.092.178.178,0,0,0,.089.065.636.636,0,0,0,.174.041,2.28216,2.28216,0,0,0,.273.014,2.36917,2.36917,0,0,0,.281-.014.594.594,0,0,0,.171-.041.2006.2006,0,0,0,.088-.065.14606.14606,0,0,0,.028-.092v-3.411l2.597,3.404a.53573.53573,0,0,0,.093.106.3416.3416,0,0,0,.133.069,1.06942,1.06942,0,0,0,.202.034c.079.007.181.01.304.01a2.62937,2.62937,0,0,0,.294-.014.658.658,0,0,0,.181-.041.19976.19976,0,0,0,.092-.068.16945.16945,0,0,0,.028-.096.29115.29115,0,0,0-.038-.133"/>
  </g>
  <rect class="cls-7" x="28.103" y="148.10901" width="185.25999" height="233.14899"/>
  <polygon class="cls-21" points="28.103 221.557 28.103 241.249 120.143 241.249 129.896 231.403 120.143 221.557 28.103 221.557"/>
  <polygon class="cls-29" points="28.103 198.171 28.103 217.863 108.784 217.863 118.539 208.017 108.784 198.171 28.103 198.171"/>
  <polygon class="cls-30" points="28.103 174.786 28.103 194.476 97.429 194.476 107.183 184.632 97.429 174.786 28.103 174.786"/>
  <polygon class="cls-31" points="28.103 151.4 28.103 171.091 88.623 171.091 98.377 161.246 88.623 151.4 28.103 151.4"/>
  <polygon class="cls-32" points="28.103 244.934 28.103 264.625 131.763 264.625 141.526 254.78 131.763 244.934 28.103 244.934"/>
  <polygon class="cls-33" points="28.103 268.312 28.103 288.005 143.112 288.005 152.881 278.159 143.112 268.312 28.103 268.312"/>
  <polygon class="cls-34" points="28.103 291.69 28.103 311.38 154.462 311.38 164.232 301.534 154.462 291.69 28.103 291.69"/>
  <polygon class="cls-34" points="28.103 315.067 28.103 334.756 165.811 334.756 175.585 324.914 165.811 315.067 28.103 315.067"/>
  <polygon class="cls-34" points="28.103 338.442 28.103 358.135 177.162 358.135 186.94 348.289 177.162 338.442 28.103 338.442"/>
  <polygon class="cls-34" points="28.103 361.818 28.103 381.258 188.192 381.258 198.345 371.665 187.928 361.818 28.103 361.818"/>
  <g class="cls-35">
    <path class="cls-7" d="M249.18359,234.29333l-.863,3.131h-2.842l3.705-12.201h3.597l3.762,12.201h-2.953l-.934-3.131Zm3.076-2.064-.756-2.589c-.217-.724-.432-1.63-.611-2.353h-.035c-.18.723-.362,1.647-.559,2.353l-.719,2.589Z"/>
    <path class="cls-7" d="M245.568,248.79092a21.732,21.732,0,0,1,3.545-.253,6.64928,6.64928,0,0,1,3.58.688,2.65889,2.65889,0,0,1,1.457,2.389,2.75873,2.75873,0,0,1-1.996,2.608v.036a3.04777,3.04777,0,0,1,2.408,3.006,3.26064,3.26064,0,0,1-1.257,2.589c-.881.706-2.358,1.104-4.768,1.104a21.01361,21.01361,0,0,1-2.969-.182Zm2.717,4.671h.898c1.442,0,2.215-.598,2.215-1.502,0-.924-.703-1.412-1.943-1.412a7.363,7.363,0,0,0-1.17.072Zm0,5.413a8.20711,8.20711,0,0,0,1.063.038c1.24,0,2.337-.489,2.337-1.756,0-1.234-1.097-1.72-2.464-1.72h-.936Z"/>
    <path class="cls-7" d="M254.533,283.89151a7.66988,7.66988,0,0,1-3.113.545c-4.194,0-6.35-2.643-6.35-6.12,0-4.163,2.949-6.481,6.619-6.481a7.1435,7.1435,0,0,1,2.987.542l-.559,2.192a5.886,5.886,0,0,0-2.303-.454,4.01284,4.01284,0,0,0,.018,8.021,6.8307,6.8307,0,0,0,2.285-.398Z"/>
    <path class="cls-7" d="M244.79289,295.60153a24.60519,24.60519,0,0,1,3.705-.252,7.75458,7.75458,0,0,1,4.965,1.304,5.40564,5.40564,0,0,1,2.051,4.596,6.19829,6.19829,0,0,1-2.014,4.943,8.66048,8.66048,0,0,1-5.594,1.576,23.48154,23.48154,0,0,1-3.113-.182Zm2.752,9.958a4.8674,4.8674,0,0,0,.953.056c2.485.017,4.102-1.36,4.102-4.275a3.4874,3.4874,0,0,0-3.813-3.873,5.56636,5.56636,0,0,0-1.242.109Z"/>
    <polygon class="cls-7" points="251.947 325.786 247.484 325.786 247.484 328.683 252.468 328.683 252.468 330.945 244.734 330.945 244.734 318.743 252.217 318.743 252.217 321.008 247.484 321.008 247.484 323.542 251.947 323.542 251.947 325.786"/>
    <polygon class="cls-7" points="245.234 342.148 252.646 342.148 252.646 344.413 247.986 344.413 247.986 347.199 252.339 347.199 252.339 349.446 247.986 349.446 247.986 354.35 245.234 354.35 245.234 342.148"/>
    <path class="cls-7" d="M255.7869,377.0936a13.50016,13.50016,0,0,1-4.049.688,6.73084,6.73084,0,0,1-4.93-1.649,5.92714,5.92714,0,0,1-1.709-4.435c.018-4.055,2.952-6.373,6.926-6.373a8.29084,8.29084,0,0,1,3.364.598l-.575,2.209a6.67526,6.67526,0,0,0-2.824-.524,3.9756,3.9756,0,1,0,1.152,7.766v-2.554h-1.873v-2.154h4.518Z"/>
  </g>
  <g class="cls-35">
    <text class="cls-36" transform="translate(241.16504 144.62341)"><tspan xml:space="preserve"> A</tspan></text>
    <text class="cls-37" transform="translate(257.05078 139.56873)">-80%</text>
    <text class="cls-36" transform="translate(241.16504 168.18298)"><tspan xml:space="preserve"> A</tspan></text>
    <text class="cls-37" transform="translate(257.05078 163.12634)">-60%</text>
    <text class="cls-36" transform="translate(241.16504 191.89099)"><tspan xml:space="preserve"> A</tspan></text>
    <text class="cls-37" transform="translate(257.05078 186.83337)">-40%</text>
    <text class="cls-36" transform="translate(241.16504 214.90564)"><tspan xml:space="preserve"> A</tspan></text>
    <text class="cls-37" transform="translate(257.05078 209.84851)">-20%</text>
  </g>
  <g class="cls-35">
    <text class="cls-38" transform="translate(28.14258 167.13025)"><tspan xml:space="preserve"> A</tspan></text>
  </g>
  <text class="cls-39" transform="translate(44.81592 162.07312)"><tspan class="cls-40">+</tspan><tspan x="6.60449" y="0">+</tspan></text>
  <text class="cls-39" transform="translate(58.0498 162.07312)">+</text>
  <g class="cls-35">
    <text class="cls-38" transform="translate(28.28564 190.63416)"><tspan xml:space="preserve"> A</tspan></text>
  </g>
  <text class="cls-39" transform="translate(44.32617 185.57703)">+</text>
  <text class="cls-39" transform="translate(50.94336 185.57703)">+</text>
  <g class="cls-35">
    <text class="cls-38" transform="translate(28.28564 213.89197)"><tspan xml:space="preserve"> A</tspan></text>
    <text class="cls-38" transform="translate(27.9248 237.3949)"><tspan xml:space="preserve"> A</tspan></text>
    <text class="cls-38" transform="translate(28.11475 260.23279)"><tspan xml:space="preserve"> B</tspan></text>
    <text class="cls-38" transform="translate(28.11475 283.48914)"><tspan xml:space="preserve"> C</tspan></text>
    <text class="cls-38" transform="translate(27.75342 306.99207)"><tspan xml:space="preserve"> D</tspan></text>
    <text class="cls-38" transform="translate(28.11475 330.64734)"><tspan xml:space="preserve"> E</tspan></text>
    <text class="cls-38" transform="translate(27.75342 354.15027)"><tspan xml:space="preserve"> F</tspan></text>
    <text class="cls-38" transform="translate(27.75342 377.23523)"><tspan xml:space="preserve"> G</tspan></text>
  </g>
  <text class="cls-39" transform="translate(44.32617 208.83484)">+</text>
  <text class="cls-41" transform="translate(163.07227 577.7196)"> </text>
  <text class="cls-42" transform="translate(174.6582 577.7196)">L</text>
  <text class="cls-41" transform="translate(82.6792 577.7196)"> </text>
  <text class="cls-42" transform="translate(87.26514 577.7196)">L</text>
  <text class="cls-43" transform="translate(28.10352 598.70496)">2015/1094-IV</text>
  <g id="rating">
    <polyline id="ratingArrow" class="cls-19" points="205.06 161.23 224.56 141.05 283.52 141.05 283.52 180.99 224.56 180.99 205.06 161.23"/>
    <text id="ratingLetter" class="cls-44" transform="translate(219.23047 169.74011)">A</text>
    <text id="ratingPlusses" class="cls-45" transform="translate(238.21973 160.5199)">+++</text>
  </g>
  <text id="kwhAnnum" class="cls-46" transform="translate(243.08984 442.82996)" text-anchor="middle">X</text>
  <text id="fridgeLitres" class="cls-2" transform="translate(85.33984 577.16003)" text-anchor="end">-</text>
  <text id="freezerLitres" class="cls-2" transform="translate(173.20996 577.16003)" text-anchor="end">-</text>
  <text id="supplierLine2" class="cls-47" transform="translate(25.50977 119.05017)">X</text>
  <text id="supplierLine1" class="cls-47" transform="translate(25.50977 102.79181)">X</text>
  <text id="modelLine2" class="cls-47" transform="translate(164.41016 119.05017)">X</text>
  <text id="modelLine1" class="cls-47" transform="translate(164.41016 102.79181)">X</text>
</svg>
