<svg xmlns="http://www.w3.org/2000/svg" xmlns:xlink="http://www.w3.org/1999/xlink" id="Layer_1" data-name="Layer 1" width="110mm" height="220mm" viewBox="0 0 311.81 623.62" data-rating-increment="23.37" data-supplier-model-chars-per-row="15">
  <defs>
    <style>
      #climateClass>* {
        display: none;
      }

      #climateClass.climateClass3 #class3,
      #climateClass.climateClass4 #class4,
      #climateClass.climateClass5 #class5 {
        display: inline;
      }

      .cls-1, .cls-11, .cls-13, .cls-22, .cls-25, .cls-4, .cls-5, .cls-9 {
        fill: none;
      }

      .cls-2 {
        clip-path: url(#clip-path);
      }

      .cls-3 {
        clip-path: url(#clip-path-3);
      }

      .cls-13, .cls-22, .cls-4, .cls-5, .cls-9 {
        stroke: #00aeef;
      }

      .cls-4 {
        stroke-width: 5px;
      }

      .cls-5 {
        stroke-width: 2px;
      }

      .cls-29, .cls-30, .cls-40, .cls-6 {
        fill: #fff;
      }

      .cls-7 {
        clip-path: url(#clip-path-4);
      }

      .cls-8 {
        fill: #00aeef;
      }

      .cls-9 {
        stroke-width: 1.215px;
      }

      .cls-10 {
        fill: #5bcbf5;
      }

      .cls-11 {
        stroke: #231f20;
      }

      .cls-11, .cls-13 {
        stroke-width: 0.318px;
      }

      .cls-12 {
        fill: #00b9f2;
      }

      .cls-14 {
        fill: #abe1fa;
      }

      .cls-15 {
        fill: #6dcff6;
      }

      .cls-16 {
        fill: #d4effc;
      }

      .cls-17 {
        fill: #1b75bc;
      }

      .cls-18, .cls-26, .cls-27, .cls-37, .cls-38, .cls-39, .cls-41, .cls-42, .cls-43, .cls-44 {
        fill: #231f20;
      }

      .cls-19 {
        fill: #034ea2;
      }

      .cls-20 {
        fill: #fff200;
      }

      .cls-21 {
        clip-path: url(#clip-path-6);
      }

      .cls-23 {
        clip-path: url(#clip-path-8);
      }

      .cls-24 {
        fill: #1e9ed9;
        fill-rule: evenodd;
      }

      .cls-25 {
        stroke: #29ade4;
        stroke-linejoin: round;
        stroke-width: 0.531px;
      }

      .cls-26 {
        font-size: 15.1931px;
      }

      .cls-26, .cls-37, .cls-39, .cls-40, .cls-41, .cls-42 {
        font-family: Calibri-Bold, Calibri;
      }

      .cls-26, .cls-29, .cls-30, .cls-37, .cls-39, .cls-40, .cls-41, .cls-42 {
        font-weight: 700;
      }

      .cls-27 {
        font-size: 6.647px;
      }

      .cls-27, .cls-38, .cls-43, .cls-44 {
        font-family: Calibri;
      }

      .cls-28 {
        clip-path: url(#clip-path-11);
      }

      .cls-29 {
        font-size: 18px;
      }

      .cls-29, .cls-30 {
        font-family: MyriadPro-Bold, Myriad Pro;
      }

      .cls-30 {
        font-size: 12px;
      }

      .cls-31 {
        fill: #00a651;
      }

      .cls-32 {
        fill: #50b848;
      }

      .cls-33 {
        fill: #bfd730;
      }

      .cls-34 {
        fill: #fdb913;
      }

      .cls-35 {
        fill: #f37021;
      }

      .cls-36 {
        fill: #ed1c24;
      }

      .cls-37 {
        font-size: 24px;
      }

      .cls-38 {
        font-size: 17px;
      }

      .cls-39 {
        font-size: 11px;
      }

      .cls-40 {
        font-size: 29px;
      }

      .cls-41 {
        font-size: 32px;
      }

      .cls-42 {
        font-size: 25px;
      }

      .cls-43 {
        font-size: 14px;
      }

      .cls-44 {
        font-size: 16px;
      }
    </style>
    <clipPath id="clip-path">
      <rect class="cls-1" width="311.81" height="623.62"/>
    </clipPath>
    <clipPath id="clip-path-3">
      <rect class="cls-1" y="-0.00201" width="311.811" height="623.62201"/>
    </clipPath>
    <clipPath id="clip-path-4">
      <rect class="cls-1" x="124.725" y="487.55699" width="62.36201" height="56.693"/>
    </clipPath>
    <clipPath id="clip-path-6">
      <rect class="cls-1" x="25.512" y="25.508" width="260.78698" height="51.02502"/>
    </clipPath>
    <clipPath id="clip-path-8">
      <rect class="cls-1" x="215.22099" y="494.07599" width="63.071" height="45.355"/>
    </clipPath>
    <clipPath id="clip-path-11">
      <rect class="cls-1" x="28.103" y="148.34399" width="178.81199" height="186.85001"/>
    </clipPath>
  </defs>
  <title>professional-refrigerated-storage-cabinets-2016</title>
  <g class="cls-2">
    <g class="cls-2">
      <g class="cls-3">
        <path class="cls-4" d="M26.5945,16.67108s-9.921,0-9.921,9.921v570.433s0,9.922,9.921,9.922h258.622s9.921,0,9.921-9.922V26.5921s0-9.921-9.921-9.921Z"/>
        <path class="cls-5" d="M39.2677,482.8877s-9.921,0-9.921,9.921v80.205s0,9.921,9.921,9.921h57.528s9.921,0,9.921-9.921v-80.205s0-9.921-9.921-9.921Z"/>
        <path class="cls-5" d="M127.1417,482.8877s-9.921,0-9.921,9.921v80.205s0,9.921,9.921,9.921h57.528s9.921,0,9.921-9.921v-80.205s0-9.921-9.921-9.921Z"/>
        <rect class="cls-6" x="124.725" y="487.55699" width="62.36201" height="56.693"/>
      </g>
      <g class="cls-7">
        <path class="cls-8" d="M174.058,525.0182a.82927.82927,0,0,1,.301,1.159l-.319.517a.87864.87864,0,0,1-1.189.297l-4.631-2.743c-.407-.241-.716-.052-.687.421l.307,4.838a.63537.63537,0,0,1-.79.698l-.326-.062a1.15225,1.15225,0,0,1-.888-1.023l-.273-5.608a1.78834,1.78834,0,0,0-.783-1.298l-7.152-4.227c-.407-.241-.737-.051-.731.422l.099,8.307a1.79084,1.79084,0,0,0,.733,1.328l4.755,3.072a1.1152,1.1152,0,0,1,.417,1.272l-.1.26a.65544.65544,0,0,1-1.021.323l-4-2.688c-.394-.263-.711-.092-.708.382l.047,5.458a.8604.8604,0,0,1-.856.863h-.622a.85742.85742,0,0,1-.854-.863l.045-5.458c.004-.474-.314-.645-.707-.382l-4.001,2.688a.65559.65559,0,0,1-1.021-.323l-.098-.26a1.11333,1.11333,0,0,1,.416-1.272l4.755-3.072a1.7866,1.7866,0,0,0,.732-1.328l.099-8.307c.005-.473-.323-.663-.731-.422l-7.15,4.227a1.78335,1.78335,0,0,0-.784,1.298l-.273,5.608a1.15242,1.15242,0,0,1-.887,1.023l-.327.062a.63607.63607,0,0,1-.791-.698l.307-4.838c.03-.473-.28-.662-.687-.421l-4.63,2.743a.8815.8815,0,0,1-1.191-.297l-.317-.517a.82926.82926,0,0,1,.301-1.159l4.76-2.684c.413-.234.402-.595-.023-.804l-4.359-2.147a.64251.64251,0,0,1-.217-1.038l.165-.196a1.14968,1.14968,0,0,1,1.325-.273l5.077,2.551a1.81232,1.81232,0,0,0,1.519-.039l7.195-4.076a.44609.44609,0,0,0,0-.849l-7.195-4.076a1.80045,1.80045,0,0,0-1.517-.036l-5.08,2.575a1.1457,1.1457,0,0,1-1.324-.27l-.165-.196a.64231.64231,0,0,1,.217-1.038l4.359-2.147c.425-.21.436-.572.023-.804l-4.76-2.685a.83465.83465,0,0,1-.306-1.161l.327-.542a.86787.86787,0,0,1,1.184-.296l4.634,2.766c.407.244.715.055.685-.418l-.307-4.838a.64762.64762,0,0,1,.793-.71l.322.057a1.132,1.132,0,0,1,.889,1.01l.274,5.639a1.78447,1.78447,0,0,0,.784,1.297l7.15,4.227c.408.241.736.051.731-.422l-.099-8.307a1.7866,1.7866,0,0,0-.732-1.328l-4.755-3.072a1.12137,1.12137,0,0,1-.421-1.273l.107-.286a.65091.65091,0,0,1,1.017-.326l4.001,2.689c.393.264.711.092.707-.381l-.045-5.429a.85571.85571,0,0,1,.854-.861h.622a.85868.85868,0,0,1,.856.861l-.047,5.429c-.003.473.314.645.708.381l4-2.689a.65091.65091,0,0,1,1.017.326l.108.286a1.12139,1.12139,0,0,1-.421,1.273l-4.755,3.072a1.79084,1.79084,0,0,0-.733,1.328l-.099,8.307c-.006.473.324.663.731.422l7.152-4.227a1.78642,1.78642,0,0,0,.783-1.297l.273-5.639a1.13311,1.13311,0,0,1,.889-1.01l.321-.057a.64735.64735,0,0,1,.794.71l-.307,4.838c-.029.473.279.662.685.418l4.634-2.766a.86884.86884,0,0,1,1.185.296l.326.542a.83437.83437,0,0,1-.305,1.161l-4.76,2.685c-.413.232-.403.594.022.804l4.36,2.147a.64232.64232,0,0,1,.217,1.038l-.166.196a1.14537,1.14537,0,0,1-1.324.27l-5.079-2.575a1.80262,1.80262,0,0,0-1.518.036l-7.194,4.076a.44575.44575,0,0,0,0,.849l7.194,4.076a1.81232,1.81232,0,0,0,1.519.039l5.077-2.551a1.14936,1.14936,0,0,1,1.325.273l.166.196a.64251.64251,0,0,1-.217,1.038l-4.36,2.147c-.425.209-.435.57-.022.804Z"/>
        <path class="cls-9" d="M174.058,525.0182a.82927.82927,0,0,1,.301,1.159l-.319.517a.87864.87864,0,0,1-1.189.297l-4.631-2.743c-.407-.241-.716-.052-.687.421l.307,4.838a.63537.63537,0,0,1-.79.698l-.326-.062a1.15225,1.15225,0,0,1-.888-1.023l-.273-5.608a1.78834,1.78834,0,0,0-.783-1.298l-7.152-4.227c-.407-.241-.737-.051-.731.422l.099,8.307a1.79084,1.79084,0,0,0,.733,1.328l4.755,3.072a1.1152,1.1152,0,0,1,.417,1.272l-.1.26a.65544.65544,0,0,1-1.021.323l-4-2.688c-.394-.263-.711-.092-.708.382l.047,5.458a.8604.8604,0,0,1-.856.863h-.622a.85742.85742,0,0,1-.854-.863l.045-5.458c.004-.474-.314-.645-.707-.382l-4.001,2.688a.65559.65559,0,0,1-1.021-.323l-.098-.26a1.11333,1.11333,0,0,1,.416-1.272l4.755-3.072a1.7866,1.7866,0,0,0,.732-1.328l.099-8.307c.005-.473-.323-.663-.731-.422l-7.15,4.227a1.78335,1.78335,0,0,0-.784,1.298l-.273,5.608a1.15242,1.15242,0,0,1-.887,1.023l-.327.062a.63607.63607,0,0,1-.791-.698l.307-4.838c.03-.473-.28-.662-.687-.421l-4.63,2.743a.8815.8815,0,0,1-1.191-.297l-.317-.517a.82926.82926,0,0,1,.301-1.159l4.76-2.684c.413-.234.402-.595-.023-.804l-4.359-2.147a.64251.64251,0,0,1-.217-1.038l.165-.196a1.14968,1.14968,0,0,1,1.325-.273l5.077,2.551a1.81232,1.81232,0,0,0,1.519-.039l7.195-4.076a.44609.44609,0,0,0,0-.849l-7.195-4.076a1.80045,1.80045,0,0,0-1.517-.036l-5.08,2.575a1.1457,1.1457,0,0,1-1.324-.27l-.165-.196a.64231.64231,0,0,1,.217-1.038l4.359-2.147c.425-.21.436-.572.023-.804l-4.76-2.685a.83465.83465,0,0,1-.306-1.161l.327-.542a.86787.86787,0,0,1,1.184-.296l4.634,2.766c.407.244.715.055.685-.418l-.307-4.838a.64762.64762,0,0,1,.793-.71l.322.057a1.132,1.132,0,0,1,.889,1.01l.274,5.639a1.78447,1.78447,0,0,0,.784,1.297l7.15,4.227c.408.241.736.051.731-.422l-.099-8.307a1.7866,1.7866,0,0,0-.732-1.328l-4.755-3.072a1.12137,1.12137,0,0,1-.421-1.273l.107-.286a.65091.65091,0,0,1,1.017-.326l4.001,2.689c.393.264.711.092.707-.381l-.045-5.429a.85571.85571,0,0,1,.854-.861h.622a.85868.85868,0,0,1,.856.861l-.047,5.429c-.003.473.314.645.708.381l4-2.689a.65091.65091,0,0,1,1.017.326l.108.286a1.12139,1.12139,0,0,1-.421,1.273l-4.755,3.072a1.79084,1.79084,0,0,0-.733,1.328l-.099,8.307c-.006.473.324.663.731.422l7.152-4.227a1.78642,1.78642,0,0,0,.783-1.297l.273-5.639a1.13311,1.13311,0,0,1,.889-1.01l.321-.057a.64735.64735,0,0,1,.794.71l-.307,4.838c-.029.473.279.662.685.418l4.634-2.766a.86884.86884,0,0,1,1.185.296l.326.542a.83437.83437,0,0,1-.305,1.161l-4.76,2.685c-.413.232-.403.594.022.804l4.36,2.147a.64232.64232,0,0,1,.217,1.038l-.166.196a1.14537,1.14537,0,0,1-1.324.27l-5.079-2.575a1.80262,1.80262,0,0,0-1.518.036l-7.194,4.076a.44575.44575,0,0,0,0,.849l7.194,4.076a1.81232,1.81232,0,0,0,1.519.039l5.077-2.551a1.14936,1.14936,0,0,1,1.325.273l.166.196a.64251.64251,0,0,1-.217,1.038l-4.36,2.147c-.425.209-.435.57-.022.804Z"/>
      </g>
      <g class="cls-3">
        <rect class="cls-6" x="55.877" y="490.392" width="24.308" height="49.936"/>
        <polygon class="cls-10" points="68.232 495.578 73.931 495.078 79.23 499.578 78.13 500.977 63.432 502.777 68.232 495.578"/>
        <polygon class="cls-11" points="68.232 495.578 73.931 495.078 79.23 499.578 78.13 500.977 63.432 502.777 68.232 495.578"/>
        <polygon class="cls-12" points="73.031 494.178 79.23 499.577 71.431 495.978 63.632 492.978 73.031 494.178"/>
        <polygon class="cls-13" points="73.031 494.178 79.23 499.577 71.431 495.978 63.632 492.978 73.031 494.178"/>
        <polygon class="cls-14" points="79.23 535.773 79.23 499.577 67.232 500.927 67.232 539.373 79.23 535.773"/>
        <polygon class="cls-13" points="79.23 535.773 79.23 499.577 67.232 500.927 67.232 539.373 79.23 535.773"/>
        <polygon class="cls-15" points="67.232 539.373 67.232 500.927 56.833 499.378 56.833 535.773 67.232 539.373"/>
        <polygon class="cls-13" points="67.232 539.373 67.232 500.927 56.833 499.378 56.833 535.773 67.232 539.373"/>
        <polygon class="cls-16" points="73.031 494.178 67.232 500.927 56.833 499.377 63.632 492.978 73.031 494.178"/>
        <polygon class="cls-13" points="73.031 494.178 67.232 500.927 56.833 499.377 63.632 492.978 73.031 494.178"/>
        <polygon class="cls-6" points="73.031 494.178 73.031 491.978 63.632 491.028 63.632 492.978 73.031 494.178"/>
        <polygon class="cls-13" points="73.031 494.178 73.031 491.978 63.632 491.028 63.632 492.978 73.031 494.178"/>
        <polygon class="cls-17" points="70.711 514.143 70.683 514.149 69.016 515.355 68.722 514.106 70.935 512.531 72.378 512.222 72.378 521.368 70.711 521.737 70.711 514.143"/>
        <polygon class="cls-17" points="74.89 514.789 75.665 514.621 75.665 519.988 78.233 519.421 78.233 520.072 74.89 520.812 74.89 514.789"/>



        
        <rect class="cls-8" x="104.131" y="25.646" width="182.16801" height="50.815"/>
        
        
        
        
        
        
        
        
        
        
        
        

      <g id="union-flag" transform="translate(25.532, 25.646) scale(1.6938333333333333)">
	<path id="blue" fill="#004289" d="M9.59,20L0,26.39V20H9.59z M39.59,0H27.5v8.06L39.59,0z M0,3.61V10h9.59L0,3.61z M17.5,0H5.41
		L17.5,8.06V0z M27.5,30h12.09L27.5,21.94V30z M45,10V3.61L35.41,10H45z M45,26.39V20h-9.59L45,26.39z M5.41,30H17.5v-8.06L5.41,30z
		"/>
	<path id="red" fill="#DC2F34" d="M45,18H25.5v12h-6V18H0v-6h19.5V0h6v12H45V18z M0,2.42L11.38,10h3.61L0,0.01V2.42z M45,27.58
		L33.62,20h-3.61L45,29.99V27.58z M17.5,20.74V20H15L0,30h3.61L17.5,20.74z M27.5,9.26V10H30L45,0h-3.61L27.5,9.26z"/>
</g><path id="energy-heading" d="M7.1581,7.21791H2.33537v3.7413H7.72769v1.90845H0V.13234H7.44305V2.04079H2.33537V5.32836H7.1581Zm3.53413,5.64975V.13234h2.677L16.67314,5.593a37.85159,37.85159,0,0,1,2.18339,4.27032h.038a51.82706,51.82706,0,0,1-.20865-5.29055V.13234h2.1644V12.86766H18.41992L15.07833,7.25572a43.774,43.774,0,0,1-2.2787-4.38342l-.076.0189c.095,1.64379.133,3.32538.133,5.42289v4.55357ZM31.63845,7.21791H26.81573v3.7413h5.392v1.90845H24.48V.13234h7.44305V2.04079H26.81573V5.32836h4.82272ZM35.19126.32139A20.16965,20.16965,0,0,1,38.72282.03781a5.98372,5.98372,0,0,1,3.94949,1.02056,3.228,3.228,0,0,1,1.1012,2.56949,3.347,3.347,0,0,1-2.3357,3.17446V6.859a3.16007,3.16007,0,0,1,1.7851,2.45638,32.106,32.106,0,0,0,1.00653,3.55224H41.83707a16.17761,16.17761,0,0,1-.85455-3.00431c-.37994-1.66269-.96854-2.19171-2.2977-2.22952H37.50764v5.23383H35.19126ZM37.50764,5.933h1.38647c1.57581,0,2.5437-.83119,2.5437-2.09719,0-1.37943-.96789-2.04079-2.487-2.04079a6.74576,6.74576,0,0,0-1.44314.11343Zm19.67341,6.34892A12.70364,12.70364,0,0,1,53.08022,13a6.96331,6.96331,0,0,1-5.032-1.7005,6.3681,6.3681,0,0,1-1.78446-4.68623C46.28243,2.56982,49.1494,0,53.38353,0a8.52961,8.52961,0,0,1,3.3989.60464l-.5126,1.87065a6.6378,6.6378,0,0,0-2.905-.54793c-2.73432,0-4.65207,1.606-4.65207,4.5728,0,2.89088,1.78509,4.61029,4.44342,4.61029a4.91246,4.91246,0,0,0,1.76578-.24577v-3.193H52.66228V5.8388h4.51877Zm6.23045.58573V7.55821L59.36734.13234h2.677l1.51914,3.269c.43661.94462.75924,1.66269,1.11987,2.53169h.038c.304-.81228.66458-1.606,1.10184-2.53169L67.361.13234H70L65.74719,7.50149v5.36617Z" fill="#fff" transform="translate(117.99595584741246, 39.77372127209416) scale(1.6938333333333333)"/></g>

      <g class="cls-3">
        <line class="cls-22" x1="24.8031" y1="126.63971" x2="287.00809" y2="126.63971"/>
        <path class="cls-5" d="M215.0157,405.6436s-9.921,0-9.921,9.921v49.024s0,9.921,9.921,9.921h57.528s9.921,0,9.921-9.921v-49.024s0-9.921-9.921-9.921Z"/>
        <path class="cls-5" d="M215.0157,482.8877s-9.921,0-9.921,9.921v80.205s0,9.921,9.921,9.921h57.528s9.921,0,9.921-9.921v-80.205s0-9.921-9.921-9.921Z"/>
      </g>
      <g class="cls-23">
        <path class="cls-24" d="M266.85031,512.8756l-22.882-17.229-11.787,8.875v-3.953h-4.623v7.434l-6.472,4.873h6.498a4.71357,4.71357,0,0,0-.026.492v17.722a4.30147,4.30147,0,0,0,4.16,4.43h24.038a4.30147,4.30147,0,0,0,4.16-4.43v-17.722a4.71083,4.71083,0,0,0-.026-.492Z"/>
        <path class="cls-25" d="M204.0372,497.4388a7.30716,7.30716,0,0,1,7.068-7.526h65.727a7.307,7.307,0,0,1,7.067,7.526v64.261a7.30766,7.30766,0,0,1-7.067,7.526h-65.727a7.30781,7.30781,0,0,1-7.068-7.526Z"/>
      </g>
      <g class="cls-23">
        <text class="cls-26" transform="translate(240.125 553.44617) scale(1 1.06491)">5</text>
        <text class="cls-26" transform="translate(247.8125 553.44617) scale(1 1.06491)"> </text>
        <text class="cls-27" transform="translate(228.4082 564.34656) scale(1 1.0649)">40째C</text>
        <text class="cls-27" transform="translate(240.94434 564.34656) scale(1 1.0649)"> </text>
        <text class="cls-27" transform="translate(242.42676 564.34656) scale(1 1.0649)">| 40%</text>
        <text class="cls-27" transform="translate(258.47949 564.34656) scale(1 1.0649)"> </text>
        <text class="cls-27" transform="translate(263.62402 564.34656) scale(1 1.0649)"> </text>
        <path class="cls-6" d="M238.09879,525.3702v-7.275a1.99187,1.99187,0,1,0-3.976,0v7.275a3.26975,3.26975,0,0,0-1.008,2.382,3.00137,3.00137,0,1,0,5.991,0,3.269,3.269,0,0,0-1.007-2.382m-1.988,4.495a2.05217,2.05217,0,0,1-1.985-2.113,2.138,2.138,0,0,1,1.009-1.84v-7.817a.97791.97791,0,1,1,1.952,0v7.817a2.138,2.138,0,0,1,1.009,1.84,2.05217,2.05217,0,0,1-1.985,2.113"/>
        <path class="cls-6" d="M236.6171,526.24069v-4.655a.507.507,0,1,0-1.012,0v4.655a1.6017,1.6017,0,0,0-1.003,1.511,1.51146,1.51146,0,1,0,3.017,0,1.6023,1.6023,0,0,0-1.002-1.511"/>
        <path class="cls-6" d="M254.52228,522.1047a15.85833,15.85833,0,0,1-3.071-5.623c-.099-.299-.241-.574-.539-.574s-.443.247-.539.574a15.13549,15.13549,0,0,1-3.071,5.623,5.45243,5.45243,0,0,0-1.352,3.625,4.97128,4.97128,0,1,0,9.923,0,5.45165,5.45165,0,0,0-1.351-3.625m-3.61,7.751a3.9852,3.9852,0,0,1-3.854-4.105,4.24309,4.24309,0,0,1,1.049-2.816,15.51221,15.51221,0,0,0,2.805-4.656,15.52972,15.52972,0,0,0,2.804,4.656,4.23878,4.23878,0,0,1,1.05,2.816,3.9852,3.9852,0,0,1-3.854,4.105"/>
        <path class="cls-6" d="M247.78011,524.3606a3.80019,3.80019,0,0,0-.261,1.39,3.39976,3.39976,0,1,0,6.786,0,3.8006,3.8006,0,0,0-.261-1.39Z"/>
      </g>
      <g class="cls-3">
        <path class="cls-18" d="M278.41,454.7361a4.43705,4.43705,0,0,0-.106-.987,2.226,2.226,0,0,0-.355-.817,1.80033,1.80033,0,0,0-.653-.557,2.15517,2.15517,0,0,0-.998-.209,1.8993,1.8993,0,0,0-.489.065,2.15314,2.15314,0,0,0-.499.209,3.461,3.461,0,0,0-.533.376,6.44767,6.44767,0,0,0-.584.567,2.22311,2.22311,0,0,0-.274-.496,1.65427,1.65427,0,0,0-.396-.382,1.84361,1.84361,0,0,0-.537-.25,2.46047,2.46047,0,0,0-.687-.089,2.02377,2.02377,0,0,0-.988.27,3.99191,3.99191,0,0,0-1.008.851v-.813a.16574.16574,0,0,0-.024-.092.21891.21891,0,0,0-.079-.069.40912.40912,0,0,0-.153-.041,2.48739,2.48739,0,0,0-.25-.01,2.44556,2.44556,0,0,0-.253.01.477.477,0,0,0-.157.041.18815.18815,0,0,0-.082.069.18408.18408,0,0,0-.021.092v6.152a.16583.16583,0,0,0,.024.092.18294.18294,0,0,0,.089.065.64442.64442,0,0,0,.175.041,2.27014,2.27014,0,0,0,.273.014,2.35079,2.35079,0,0,0,.28-.014.59389.59389,0,0,0,.171-.041.20392.20392,0,0,0,.089-.065.152.152,0,0,0,.027-.092v-4.3a5.14924,5.14924,0,0,1,.862-.882,1.30177,1.30177,0,0,1,.786-.3,1.1308,1.1308,0,0,1,.543.123,1.0312,1.0312,0,0,1,.38.355,1.74892,1.74892,0,0,1,.225.554,3.12879,3.12879,0,0,1,.075.711v3.739a.16559.16559,0,0,0,.024.092.18265.18265,0,0,0,.089.065.6509.6509,0,0,0,.178.041,2.64128,2.64128,0,0,0,.543,0,.6539.6539,0,0,0,.175-.041.20362.20362,0,0,0,.092-.065.15187.15187,0,0,0,.027-.092v-4.3a5.46493,5.46493,0,0,1,.865-.882,1.2894,1.2894,0,0,1,.783-.3,1.15544,1.15544,0,0,1,.547.123,1.0238,1.0238,0,0,1,.383.355,1.63393,1.63393,0,0,1,.218.554,3.3903,3.3903,0,0,1,.069.711v3.739a.15207.15207,0,0,0,.027.092.20362.20362,0,0,0,.092.065.64439.64439,0,0,0,.175.041,2.33824,2.33824,0,0,0,.28.014,2.28215,2.28215,0,0,0,.273-.014.59447.59447,0,0,0,.171-.041.20434.20434,0,0,0,.089-.065.15194.15194,0,0,0,.027-.092Zm-11.211-2.262a.14136.14136,0,0,0-.03-.092.29621.29621,0,0,0-.093-.069.50912.50912,0,0,0-.171-.041c-.072-.007-.164-.01-.273-.01-.114,0-.206.003-.277.01a.57059.57059,0,0,0-.174.041.20773.20773,0,0,0-.092.069.16574.16574,0,0,0-.024.092v4.3a4.80986,4.80986,0,0,1-.892.881,1.4431,1.4431,0,0,1-.845.301,1.24474,1.24474,0,0,1-.574-.126,1.11543,1.11543,0,0,1-.407-.356,1.60555,1.60555,0,0,1-.239-.553,3.84772,3.84772,0,0,1-.078-.865v-3.582a.15227.15227,0,0,0-.028-.092.24234.24234,0,0,0-.092-.069.54945.54945,0,0,0-.174-.041c-.073-.007-.164-.01-.274-.01-.109,0-.2.003-.273.01a.58469.58469,0,0,0-.178.041.2078.2078,0,0,0-.092.069.16541.16541,0,0,0-.024.092v3.732a4.88341,4.88341,0,0,0,.113,1.138,2.2512,2.2512,0,0,0,.372.821,1.829,1.829,0,0,0,.68.557,2.35038,2.35038,0,0,0,1.036.205,2.228,2.228,0,0,0,1.039-.267,3.81943,3.81943,0,0,0,1.039-.847v.813a.18408.18408,0,0,0,.021.092.15325.15325,0,0,0,.078.065.52882.52882,0,0,0,.157.041,1.96725,1.96725,0,0,0,.257.014,1.82708,1.82708,0,0,0,.242-.014.57772.57772,0,0,0,.161-.041.18792.18792,0,0,0,.086-.065.17442.17442,0,0,0,.023-.092Zm-7.328,2.399a4.87551,4.87551,0,0,0-.112-1.124,2.23508,2.23508,0,0,0-.373-.817,1.85845,1.85845,0,0,0-.68-.557,2.31782,2.31782,0,0,0-1.036-.209,2.22577,2.22577,0,0,0-1.042.27,3.78477,3.78477,0,0,0-1.036.851v-.813a.16557.16557,0,0,0-.024-.092.219.219,0,0,0-.079-.069.40935.40935,0,0,0-.153-.041,2.47374,2.47374,0,0,0-.25-.01,2.44569,2.44569,0,0,0-.253.01.47722.47722,0,0,0-.157.041.1882.1882,0,0,0-.082.069.18419.18419,0,0,0-.021.092v6.152a.16566.16566,0,0,0,.024.092.18283.18283,0,0,0,.089.065.65388.65388,0,0,0,.175.041,2.26978,2.26978,0,0,0,.273.014,2.35055,2.35055,0,0,0,.28-.014.59413.59413,0,0,0,.171-.041.2041.2041,0,0,0,.089-.065.15194.15194,0,0,0,.027-.092v-4.3a4.60893,4.60893,0,0,1,.889-.882,1.46154,1.46154,0,0,1,.848-.3,1.28887,1.28887,0,0,1,.577.123,1.03306,1.03306,0,0,1,.407.355,1.73835,1.73835,0,0,1,.239.554,3.52639,3.52639,0,0,1,.082.848v3.602a.146.146,0,0,0,.028.092.20422.20422,0,0,0,.089.065.595.595,0,0,0,.17.041,2.36893,2.36893,0,0,0,.281.014,2.28191,2.28191,0,0,0,.273-.014.59429.59429,0,0,0,.171-.041.20422.20422,0,0,0,.089-.065.15188.15188,0,0,0,.027-.092Zm-7.355,0a4.86953,4.86953,0,0,0-.113-1.124,2.20267,2.20267,0,0,0-.373-.817,1.85034,1.85034,0,0,0-.68-.557,2.3133,2.3133,0,0,0-1.035-.209,2.22962,2.22962,0,0,0-1.043.27,3.78176,3.78176,0,0,0-1.035.851v-.813a.16565.16565,0,0,0-.024-.092.2279.2279,0,0,0-.079-.069.42089.42089,0,0,0-.154-.041,3.15171,3.15171,0,0,0-.502,0,.47709.47709,0,0,0-.157.041.15856.15856,0,0,0-.103.161v6.152a.16575.16575,0,0,0,.024.092.17806.17806,0,0,0,.089.065.63637.63637,0,0,0,.174.041,2.28858,2.28858,0,0,0,.274.014,2.36271,2.36271,0,0,0,.28-.014.59406.59406,0,0,0,.171-.041.21037.21037,0,0,0,.089-.065.15187.15187,0,0,0,.027-.092v-4.3a4.60951,4.60951,0,0,1,.889-.882,1.45874,1.45874,0,0,1,.847-.3,1.29346,1.29346,0,0,1,.578.123,1.04,1.04,0,0,1,.407.355,1.78421,1.78421,0,0,1,.239.554,3.5269,3.5269,0,0,1,.082.848v3.602a.152.152,0,0,0,.027.092.20429.20429,0,0,0,.089.065.59414.59414,0,0,0,.171.041,2.35055,2.35055,0,0,0,.28.014,2.28828,2.28828,0,0,0,.274-.014.594.594,0,0,0,.171-.041.21041.21041,0,0,0,.089-.065.152.152,0,0,0,.027-.092Zm-8.49,2.256a3.5342,3.5342,0,0,1-.797.69,1.57691,1.57691,0,0,1-.824.226,1.19733,1.19733,0,0,1-.851-.284.99423.99423,0,0,1-.304-.762,1.09916,1.09916,0,0,1,.106-.495.9629.9629,0,0,1,.332-.37,1.65718,1.65718,0,0,1,.567-.232,3.662,3.662,0,0,1,.807-.079h.964Zm1.121-2.645a3.51185,3.51185,0,0,0-.13-1.005,1.72145,1.72145,0,0,0-.417-.722,1.83146,1.83146,0,0,0-.752-.44,3.67077,3.67077,0,0,0-1.128-.151,3.8578,3.8578,0,0,0-.704.065,4.66882,4.66882,0,0,0-.643.164,3.43268,3.43268,0,0,0-.519.219,1.48043,1.48043,0,0,0-.318.208.391.391,0,0,0-.116.188,1.45869,1.45869,0,0,0-.011.458.4179.4179,0,0,0,.045.141.23306.23306,0,0,0,.072.082.16793.16793,0,0,0,.095.027.57761.57761,0,0,0,.25-.099q.16648-.099.417-.219a3.94755,3.94755,0,0,1,.581-.219,2.61068,2.61068,0,0,1,.748-.099,2.0439,2.0439,0,0,1,.657.092,1.05272,1.05272,0,0,1,.434.274,1.08118,1.08118,0,0,1,.242.455,2.33819,2.33819,0,0,1,.076.628v.479h-.848a6.04714,6.04714,0,0,0-1.292.126,3.00264,3.00264,0,0,0-.971.38,1.751,1.751,0,0,0-.608.636,1.83627,1.83627,0,0,0-.212.902,1.94139,1.94139,0,0,0,.154.793,1.6478,1.6478,0,0,0,.43.588,1.907,1.907,0,0,0,.67.365,2.84028,2.84028,0,0,0,.879.127,2.38771,2.38771,0,0,0,1.049-.239,3.05528,3.05528,0,0,0,.899-.67v.615a.15191.15191,0,0,0,.048.123.34315.34315,0,0,0,.154.062,1.61848,1.61848,0,0,0,.283.02,1.50858,1.50858,0,0,0,.281-.02.401.401,0,0,0,.15-.062.14443.14443,0,0,0,.055-.123Zm-5.551-5.38a.27581.27581,0,0,0,.02-.158.16642.16642,0,0,0-.075-.109.51316.51316,0,0,0-.171-.065,1.34205,1.34205,0,0,0-.28-.024c-.096,0-.178.004-.246.01a.54415.54415,0,0,0-.168.041.33268.33268,0,0,0-.109.083.36786.36786,0,0,0-.072.14l-4.135,11.34a.24813.24813,0,0,0-.028.154.1784.1784,0,0,0,.075.11.4802.4802,0,0,0,.175.068,1.38771,1.38771,0,0,0,.283.024,1.83054,1.83054,0,0,0,.243-.014.73655.73655,0,0,0,.168-.041.28277.28277,0,0,0,.112-.078.38082.38082,0,0,0,.072-.141Zm-6.296,5.776a4.90419,4.90419,0,0,0-.113-1.131,2.21688,2.21688,0,0,0-.372-.817,1.8618,1.8618,0,0,0-.681-.557,2.31329,2.31329,0,0,0-1.035-.209,2.16324,2.16324,0,0,0-.991.25,3.63841,3.63841,0,0,0-.978.762v-3.685a.168.168,0,0,0-.027-.095.208.208,0,0,0-.089-.069.62943.62943,0,0,0-.171-.041,2.3805,2.3805,0,0,0-.28-.013,2.31553,2.31553,0,0,0-.274.013.67547.67547,0,0,0-.174.041.18129.18129,0,0,0-.089.069.18368.18368,0,0,0-.024.095v9.133a.16566.16566,0,0,0,.024.092.18272.18272,0,0,0,.089.065.636.636,0,0,0,.174.041,2.2884,2.2884,0,0,0,.274.014,2.35055,2.35055,0,0,0,.28-.014.594.594,0,0,0,.171-.041.21041.21041,0,0,0,.089-.065.15194.15194,0,0,0,.027-.092v-4.3a4.60865,4.60865,0,0,1,.889-.882,1.45872,1.45872,0,0,1,.847-.3,1.29039,1.29039,0,0,1,.578.123,1.04,1.04,0,0,1,.407.355,1.76167,1.76167,0,0,1,.239.554,3.52741,3.52741,0,0,1,.082.848v3.602a.15188.15188,0,0,0,.027.092.21023.21023,0,0,0,.089.065.59413.59413,0,0,0,.171.041,2.36271,2.36271,0,0,0,.28.014,2.2884,2.2884,0,0,0,.274-.014.59413.59413,0,0,0,.171-.041.21023.21023,0,0,0,.089-.065.15188.15188,0,0,0,.027-.092Zm-6.809-4.505a1.47521,1.47521,0,0,0,.038-.246.166.166,0,0,0-.051-.137.35417.35417,0,0,0-.175-.065,2.47114,2.47114,0,0,0-.324-.017,2.95293,2.95293,0,0,0-.318.014.71352.71352,0,0,0-.185.041.145.145,0,0,0-.085.079c-.014.034-.027.074-.041.119l-1.948,7.404h-.014l-2.03-7.397a.493.493,0,0,0-.052-.126.18623.18623,0,0,0-.099-.079.74008.74008,0,0,0-.181-.041,2.67093,2.67093,0,0,0-.304-.014,3.24935,3.24935,0,0,0-.332.014.7664.7664,0,0,0-.194.041.19272.19272,0,0,0-.1.079.533.533,0,0,0-.051.126l-1.887,7.397h-.006l-1.99-7.411a.46156.46156,0,0,0-.037-.123.1694.1694,0,0,0-.089-.075.62555.62555,0,0,0-.188-.037c-.082-.007-.194-.011-.335-.011-.146,0-.262.005-.349.014a.3573.3573,0,0,0-.188.062.156.156,0,0,0-.054.136,1.2124,1.2124,0,0,0,.044.246l2.338,8.169a.3397.3397,0,0,0,.072.154.32255.32255,0,0,0,.147.089,1.17842,1.17842,0,0,0,.246.044c.1.009.225.014.376.014.146,0,.265-.005.359-.014a1.05752,1.05752,0,0,0,.229-.044.29966.29966,0,0,0,.136-.089.35958.35958,0,0,0,.069-.154l1.709-6.678h.013l1.853,6.678a.41811.41811,0,0,0,.075.154.30154.30154,0,0,0,.144.089,1.17228,1.17228,0,0,0,.242.044c.098.009.218.014.359.014.137,0,.252-.005.345-.014a1.172,1.172,0,0,0,.236-.044.35476.35476,0,0,0,.151-.089.38281.38281,0,0,0,.082-.154Zm-12.294,8.111a1.45239,1.45239,0,0,0-.126-.188l-2.502-3.247,2.228-2.229a.971.971,0,0,0,.147-.191.33819.33819,0,0,0,.045-.164.1541.1541,0,0,0-.031-.099.22386.22386,0,0,0-.103-.062.849.849,0,0,0-.188-.034c-.077-.007-.173-.01-.287-.01-.109,0-.203.003-.28.01a.83689.83689,0,0,0-.202.041.63158.63158,0,0,0-.147.075.6165.6165,0,0,0-.116.113l-2.324,2.557v-5.565a.16127.16127,0,0,0-.028-.095.19869.19869,0,0,0-.088-.069.62943.62943,0,0,0-.171-.041,2.39927,2.39927,0,0,0-.281-.013,2.30865,2.30865,0,0,0-.273.013.67547.67547,0,0,0-.174.041.17671.17671,0,0,0-.089.069.18368.18368,0,0,0-.024.095v9.133a.16566.16566,0,0,0,.024.092.178.178,0,0,0,.089.065.636.636,0,0,0,.174.041,2.28216,2.28216,0,0,0,.273.014,2.36917,2.36917,0,0,0,.281-.014.594.594,0,0,0,.171-.041.2006.2006,0,0,0,.088-.065.14606.14606,0,0,0,.028-.092v-3.411l2.597,3.404a.53573.53573,0,0,0,.093.106.3416.3416,0,0,0,.133.069,1.06942,1.06942,0,0,0,.202.034c.079.007.181.01.304.01a2.62937,2.62937,0,0,0,.294-.014.658.658,0,0,0,.181-.041.19976.19976,0,0,0,.092-.068.16945.16945,0,0,0,.028-.096.29115.29115,0,0,0-.038-.133"/>
      </g>
      <rect class="cls-6" x="28.103" y="148.34399" width="178.81199" height="186.85001"/>
      <g class="cls-28">
        <path class="cls-6" d="M250.49989,188.23032l-.865,3.131h-2.842l3.707-12.201h3.597l3.76,12.201h-2.951l-.935-3.131Zm3.076-2.064-.756-2.589c-.217-.724-.432-1.63-.613-2.353h-.035c-.18.723-.36,1.647-.558,2.353l-.72,2.589Z"/>
        <path class="cls-6" d="M246.88438,202.72781a21.71223,21.71223,0,0,1,3.545-.253,6.658,6.658,0,0,1,3.58.688,2.65719,2.65719,0,0,1,1.455,2.389,2.7562,2.7562,0,0,1-1.996,2.608v.036a3.0475,3.0475,0,0,1,2.41,3.006,3.26155,3.26155,0,0,1-1.258,2.589c-.882.706-2.357,1.104-4.769,1.104a20.957,20.957,0,0,1-2.967-.182Zm2.715,4.671h.9c1.44,0,2.213-.598,2.213-1.502,0-.924-.701-1.412-1.942-1.412a7.3882,7.3882,0,0,0-1.171.072Zm0,5.413a8.22313,8.22313,0,0,0,1.063.038c1.24,0,2.339-.489,2.339-1.756,0-1.234-1.099-1.72-2.465-1.72h-.937Z"/>
        <path class="cls-6" d="M255.8474,237.8284a7.66607,7.66607,0,0,1-3.113.545c-4.192,0-6.35-2.643-6.35-6.12,0-4.163,2.95-6.481,6.619-6.481a7.14544,7.14544,0,0,1,2.988.542l-.558,2.192a5.88608,5.88608,0,0,0-2.303-.454,4.01284,4.01284,0,0,0,.018,8.021,6.8403,6.8403,0,0,0,2.285-.398Z"/>
        <path class="cls-6" d="M246.1071,249.53851a24.61385,24.61385,0,0,1,3.707-.252,7.75326,7.75326,0,0,1,4.964,1.304,5.40563,5.40563,0,0,1,2.051,4.596,6.1955,6.1955,0,0,1-2.015,4.943,8.65686,8.65686,0,0,1-5.594,1.576,23.5053,23.5053,0,0,1-3.113-.182Zm2.753,9.958a4.86784,4.86784,0,0,0,.954.056c2.483.017,4.102-1.36,4.102-4.275a3.48858,3.48858,0,0,0-3.814-3.873,5.55937,5.55937,0,0,0-1.242.109Z"/>
        <polygon class="cls-6" points="253.262 279.723 248.8 279.723 248.8 282.62 253.783 282.62 253.783 284.882 246.048 284.882 246.048 272.68 253.531 272.68 253.531 274.945 248.8 274.945 248.8 277.479 253.262 277.479 253.262 279.723"/>
        <polygon class="cls-6" points="246.551 296.085 253.962 296.085 253.962 298.35 249.301 298.35 249.301 301.136 253.654 301.136 253.654 303.383 249.301 303.383 249.301 308.287 246.551 308.287 246.551 296.085"/>
        <path class="cls-6" d="M257.10129,331.03061a13.48516,13.48516,0,0,1-4.047.688,6.73754,6.73754,0,0,1-4.932-1.649,5.92962,5.92962,0,0,1-1.707-4.435c.018-4.055,2.95-6.373,6.926-6.373a8.29065,8.29065,0,0,1,3.364.598l-.575,2.209a6.68234,6.68234,0,0,0-2.824-.524,3.97573,3.97573,0,0,0-.199,7.948,3.63888,3.63888,0,0,0,1.349-.182v-2.554h-1.871v-2.154h4.516Z"/>
      </g>
      <g class="cls-28">
        <text class="cls-29" transform="translate(242.48145 168.84265)"><tspan xml:space="preserve"> A</tspan></text>
        <text class="cls-30" transform="translate(258.36523 163.78552)">-20%</text>
      </g>
      <polygon class="cls-31" points="28.103 175.494 28.103 195.186 121.457 195.186 131.21 185.34 121.457 175.494 28.103 175.494"/>
      <polygon class="cls-32" points="28.103 198.871 28.103 218.562 133.077 218.562 142.841 208.717 133.077 198.871 28.103 198.871"/>
      <polygon class="cls-33" points="28.103 222.249 28.103 241.942 144.426 241.942 154.194 232.096 144.426 222.249 28.103 222.249"/>
      <polygon class="cls-20" points="28.103 245.627 28.103 265.317 155.776 265.317 165.546 255.471 155.776 245.627 28.103 245.627"/>
      <polygon class="cls-34" points="28.103 269.003 28.103 288.693 167.125 288.693 176.899 278.851 167.125 269.003 28.103 269.003"/>
      <polygon class="cls-35" points="28.103 292.379 28.103 312.073 178.475 312.073 188.253 302.227 178.475 292.379 28.103 292.379"/>
      <polygon class="cls-36" points="28.103 315.755 28.103 335.194 189.507 335.194 199.66 325.602 189.242 315.755 28.103 315.755"/>
      <g class="cls-28">
        <path class="cls-6" d="M37.9003,188.23032l-.863,3.131h-2.842l3.705-12.201h3.597l3.761,12.201h-2.952l-.934-3.131Zm3.076-2.064-.756-2.589c-.217-.724-.432-1.63-.611-2.353h-.035c-.181.723-.362,1.647-.559,2.353l-.719,2.589Z"/>
        <path class="cls-6" d="M34.2847,202.72781a21.73069,21.73069,0,0,1,3.545-.253,6.64932,6.64932,0,0,1,3.58.688,2.6589,2.6589,0,0,1,1.457,2.389,2.75851,2.75851,0,0,1-1.997,2.608v.036a3.04763,3.04763,0,0,1,2.409,3.006,3.26068,3.26068,0,0,1-1.257,2.589c-.882.706-2.358,1.104-4.768,1.104a21.01332,21.01332,0,0,1-2.969-.182Zm2.717,4.671h.898c1.441,0,2.214-.598,2.214-1.502,0-.924-.702-1.412-1.942-1.412a7.36311,7.36311,0,0,0-1.17.072Zm0,5.413a8.1985,8.1985,0,0,0,1.062.038c1.241,0,2.338-.489,2.338-1.756,0-1.234-1.097-1.72-2.464-1.72h-.936Z"/>
        <path class="cls-6" d="M43.2488,237.8284a7.664,7.664,0,0,1-3.112.545c-4.194,0-6.351-2.643-6.351-6.12,0-4.163,2.95-6.481,6.62-6.481a7.14356,7.14356,0,0,1,2.987.542l-.559,2.192a5.886,5.886,0,0,0-2.303-.454,4.01284,4.01284,0,0,0,.018,8.021,6.8307,6.8307,0,0,0,2.285-.398Z"/>
        <path class="cls-6" d="M33.5095,249.53851a24.59532,24.59532,0,0,1,3.705-.252,7.75635,7.75635,0,0,1,4.965,1.304,5.40559,5.40559,0,0,1,2.051,4.596,6.19832,6.19832,0,0,1-2.014,4.943,8.66169,8.66169,0,0,1-5.595,1.576,23.47521,23.47521,0,0,1-3.112-.182Zm2.752,9.958a4.86243,4.86243,0,0,0,.953.056c2.484.017,4.102-1.36,4.102-4.275a3.4874,3.4874,0,0,0-3.813-3.873,5.55955,5.55955,0,0,0-1.242.109Z"/>
        <polygon class="cls-6" points="40.664 279.723 36.201 279.723 36.201 282.62 41.185 282.62 41.185 284.882 33.451 284.882 33.451 272.68 40.934 272.68 40.934 274.945 36.201 274.945 36.201 277.479 40.664 277.479 40.664 279.723"/>
        <polygon class="cls-6" points="33.951 296.085 41.363 296.085 41.363 298.35 36.703 298.35 36.703 301.136 41.056 301.136 41.056 303.383 36.703 303.383 36.703 308.287 33.951 308.287 33.951 296.085"/>
        <path class="cls-6" d="M44.5027,331.03061a13.48644,13.48644,0,0,1-4.048.688,6.73081,6.73081,0,0,1-4.93-1.649,5.92708,5.92708,0,0,1-1.709-4.435c.018-4.055,2.952-6.373,6.926-6.373a8.29084,8.29084,0,0,1,3.364.598l-.575,2.209a6.6754,6.6754,0,0,0-2.824-.524,3.9756,3.9756,0,1,0,1.152,7.766v-2.554h-1.873v-2.154h4.517Z"/>
      </g>
      <text class="cls-37" transform="translate(163.07227 577.7196)"> </text>
      <text class="cls-38" transform="translate(175.6582 577.7196)">L</text>
      <text class="cls-37" transform="translate(82.6792 577.7196)"> </text>
      <text class="cls-38" transform="translate(87.26514 577.7196)">L</text>
      <text class="cls-39" transform="translate(28.10352 598.70496)">2015/1094-l</text>
    </g>
  </g>
  <g id="rating">
    <polyline id="ratingArrow" class="cls-18" points="205.06 185.33 224.56 165.14 283.52 165.14 283.52 205.08 224.56 205.08 205.06 185.33"/>
    <text id="ratingLetter" class="cls-40" transform="translate(219.23047 193.82996)">A</text>
  </g>
  <text id="kwhAnnum" class="cls-41" transform="translate(243.08984 442.82996)" text-anchor="middle">X</text>
  <text id="fridgeLitres" class="cls-42" transform="translate(85.33984 577.16003)" text-anchor="end">-</text>
  <text id="freezerLitres" class="cls-42" transform="translate(173.20996 577.16003)" text-anchor="end">-</text>
  <g id="climateClass">
    <g id="class3">
      <text class="cls-42" transform="translate(236.91992 561.79968)">3</text>
      <text class="cls-43" transform="translate(215.96973 578.79968)">25째C-60%</text>
    </g>
    <g id="class4">
      <text class="cls-42" transform="translate(236.91992 561.79968)">4</text>
      <text class="cls-43" transform="translate(215.96973 578.79968)">30째C-55%</text>
    </g>
    <g id="class5">
      <text class="cls-42" transform="translate(236.91992 561.79968)">5</text>
      <text class="cls-43" transform="translate(215.96973 578.79968)">40째C-40%</text>
    </g>
  </g>
  <text id="supplierLine2" class="cls-44" transform="translate(25.50977 119.05017)">X</text>
  <text id="supplierLine1" class="cls-44" transform="translate(25.50977 102.79181)">X</text>
  <text id="modelLine2" class="cls-44" transform="translate(164.41016 119.05017)">X</text>
  <text id="modelLine1" class="cls-44" transform="translate(164.41016 102.79181)">X</text>
</svg>