<svg id="Layer_1" data-name="Layer 1" xmlns="http://www.w3.org/2000/svg" xmlns:xlink="http://www.w3.org/1999/xlink" width="60mm" height="120mm" viewBox="0 0 170.08 340.16" data-rating-increment="13" data-supplier-model-chars-per-row="15">
  <defs>
    <style>
      #powerSwitch {
        visibility: hiddenx;
      }

      #powerSwitch.hasPowerSwitch {
        visibility: visible;
      }

      .cls-1, .cls-11, .cls-13, .cls-14, .cls-3, .cls-9, .cls-31, .cls-32 {
        fill: none;
      }

      .cls-2 {
        clip-path: url(#clip-path);
      }

      .cls-11, .cls-14, .cls-3, .cls-9, .cls-31 {
        stroke: #00aeef;
      }

      .cls-3 {
        stroke-width: 2.636px;
      }

      .cls-4 {
        fill: #034ea2;
      }

      .cls-5 {
        fill: #00aeef;
      }

      .cls-6 {
        fill: #fff200;
      }

      .cls-24, .cls-25, .cls-27, .cls-28, .cls-7, .cls-99 {
        fill: #fff;
      }

      .cls-8 {
        clip-path: url(#clip-path-2);
      }

      .cls-10, .cls-15, .cls-16, .cls-28, .cls-29, .cls-34 {
        fill: #231f20;
      }

      .cls-11, .cls-31 {
        stroke-linecap: round;
        stroke-linejoin: round;
      }

      .cls-11, .cls-13 {
        stroke-width: 0.877px;
      }

      .cls-12 {
        fill: #6dcff6;
      }

      .cls-13 {
        stroke: #fff;
      }

      .cls-14 {
        stroke-width: 2px;
      }

      .cls-15, .cls-16 {
        font-size: 8px;
      }

      .cls-15, .cls-24, .cls-25, .cls-27, .cls-28, .cls-29 {
        font-family: Calibri-Bold, Calibri;
        font-weight: 700;
      }

      .cls-16, .cls-34, .cls-99 {
        font-family: Calibri;
      }

      .cls-17 {
        fill: #00a64f;
      }

      .cls-18 {
        fill: #4eb748;
      }

      .cls-19 {
        fill: #bed530;
      }

      .cls-20 {
        fill: #fcee21;
      }

      .cls-21 {
        fill: #fcb716;
      }

      .cls-22 {
        fill: #f36f23;
      }

      .cls-23 {
        fill: #ec2127;
      }

      .cls-24, .cls-28, .cls-99 {
        font-size: 10px;
      }

      .cls-25 {
        font-size: 6.413px;
      }

      .cls-26 {
        letter-spacing: 0.01005em;
      }

      .cls-27 {
        font-size: 15px;
      }

      .cls-28 {
        font-size: 14px;
      }

      .cls-29 {
        font-size: 25px;
      }

      .cls-30 {
        clip-path: url(#clip-path-4);
      }      

      .cls-31 {
        stroke-width: 1.467px;
      }

      .cls-32 {
        stroke: #231f20;
        stroke-width: 1.223px;
      }

      .cls-34 {
        font-size: 9.06989px;
      }      
    </style>
    <clipPath id="clip-path">
      <rect class="cls-1" y="0.00299" width="170.07899" height="340.15701"/>
    </clipPath>
    <clipPath id="clip-path-2">
      <rect class="cls-1" x="12.756" y="12.758" width="144.567" height="32.12601"/>
    </clipPath>
    <clipPath id="clip-path-4">
      <rect class="cls-1" x="25.277" y="254.22701" width="9.095" height="10.246"/>
    </clipPath>    
  </defs>
  <title>televisions-2020</title>
  <g class="cls-2">
    <path class="cls-3" d="M13.1222,7.07471c-.623.005-6.135.219-6.135,6.135v313.829c.005.623.219,6.134,6.135,6.134h143.822c.623-.005,6.135-.219,6.135-6.135l.012-313.828c-.005-.624-.219-6.135-6.134-6.135Z"/>
    <rect class="cls-4" x="12.767" y="12.83499" width="42.176" height="28.16901"/>
    <rect class="cls-5" x="56.338" y="12.83499" width="100.984" height="28.16901"/>
    <polygon class="cls-6" points="42.57 22.225 43.477 21.566 42.356 21.566 42.009 20.5 41.663 21.566 40.542 21.566 41.449 22.225 41.103 23.291 42.01 22.632 42.916 23.291 42.57 22.225"/>
    <polygon class="cls-6" points="39.041 18.845 39.947 18.186 38.826 18.186 38.48 17.12 38.133 18.186 37.014 18.186 37.919 18.845 37.573 19.911 38.48 19.252 39.386 19.911 39.041 18.845"/>
    <polygon class="cls-6" points="34.487 17.636 35.394 16.977 34.273 16.977 33.927 15.911 33.58 16.977 32.459 16.977 33.366 17.636 33.02 18.702 33.927 18.043 34.833 18.702 34.487 17.636"/>
    <polygon class="cls-6" points="29.692 18.845 30.599 18.186 29.478 18.186 29.131 17.12 28.785 18.186 27.664 18.186 28.571 18.845 28.225 19.911 29.132 19.252 30.038 19.911 29.692 18.845"/>
    <polygon class="cls-6" points="26.267 22.391 27.174 21.732 26.053 21.732 25.707 20.666 25.36 21.732 24.239 21.732 25.146 22.391 24.8 23.457 25.707 22.798 26.613 23.457 26.267 22.391"/>
    <polygon class="cls-6" points="25.173 27.049 26.08 26.39 24.959 26.39 24.612 25.324 24.266 26.39 23.145 26.39 24.052 27.049 23.706 28.115 24.613 27.456 25.519 28.115 25.173 27.049"/>
    <polygon class="cls-6" points="26.301 31.77 27.208 31.111 26.087 31.111 25.74 30.045 25.394 31.111 24.273 31.111 25.18 31.77 24.834 32.836 25.741 32.177 26.647 32.836 26.301 31.77"/>
    <polygon class="cls-6" points="29.692 35.124 30.599 34.465 29.478 34.465 29.131 33.399 28.785 34.465 27.664 34.465 28.571 35.124 28.225 36.19 29.132 35.531 30.038 36.19 29.692 35.124"/>
    <polygon class="cls-6" points="34.487 36.373 35.393 35.714 34.273 35.714 33.926 34.648 33.58 35.714 32.459 35.714 33.366 36.373 33.02 37.439 33.927 36.78 34.833 37.439 34.487 36.373"/>
    <polygon class="cls-6" points="39.152 35.107 40.059 34.448 38.938 34.448 38.591 33.382 38.245 34.448 37.124 34.448 38.031 35.107 37.685 36.173 38.592 35.514 39.498 36.173 39.152 35.107"/>
    <polygon class="cls-6" points="42.546 31.739 43.453 31.08 42.332 31.08 41.985 30.014 41.639 31.08 40.519 31.08 41.425 31.739 41.079 32.805 41.986 32.146 42.892 32.805 42.546 31.739"/>
    <polygon class="cls-6" points="43.795 26.984 44.702 26.325 43.581 26.325 43.234 25.259 42.888 26.325 41.767 26.325 42.674 26.984 42.328 28.05 43.235 27.391 44.141 28.05 43.795 26.984"/>
    <polygon class="cls-7" points="68.57 24.331 64.046 24.331 64.046 27.858 69.104 27.858 69.104 29.657 61.855 29.657 61.855 17.651 68.837 17.651 68.837 19.45 64.046 19.45 64.046 22.55 68.57 22.55 68.57 24.331"/>
  </g>
  <g class="cls-8">
    <path class="cls-7" d="M71.919,29.6572v-12.006h2.494l3.099,5.148a33.0315,33.0315,0,0,1,2.049,4.026h.035c-.142-1.603-.196-3.153-.196-4.988v-4.186h2.031v12.006H79.169l-3.135-5.29a39.76137,39.76137,0,0,1-2.156-4.133l-.053.018c.089,1.55.107,3.135.107,5.112v4.293Z"/>
    <polygon class="cls-7" points="91.566 24.331 87.041 24.331 87.041 27.858 92.1 27.858 92.1 29.657 84.85 29.657 84.85 17.651 91.833 17.651 91.833 19.45 87.041 19.45 87.041 22.55 91.566 22.55 91.566 24.331"/>
    <path class="cls-7" d="M94.9152,17.812a20.72106,20.72106,0,0,1,3.313-.25,5.56207,5.56207,0,0,1,3.705.962,3.03914,3.03914,0,0,1,1.033,2.405,3.20088,3.20088,0,0,1-2.173,3.01v.054a3.05463,3.05463,0,0,1,1.674,2.315,23.98249,23.98249,0,0,0,.944,3.349h-2.262a16.94578,16.94578,0,0,1-.801-2.832c-.339-1.568-.909-2.066-2.156-2.102h-1.104v4.934h-2.173Zm2.173,5.308h1.3c1.479,0,2.405-.784,2.405-1.977,0-1.318-.926-1.924-2.351-1.924a6.26065,6.26065,0,0,0-1.354.107Z"/>
    <path class="cls-7" d="M115.5596,29.105a11.89006,11.89006,0,0,1-3.865.677,6.47084,6.47084,0,0,1-4.703-1.603,5.94831,5.94831,0,0,1-1.674-4.418c0-3.794,2.707-6.234,6.679-6.234a7.96969,7.96969,0,0,1,3.189.57l-.481,1.763a6.46935,6.46935,0,0,0-2.726-.516,4.01758,4.01758,0,0,0-4.364,4.31c0,2.726,1.675,4.347,4.169,4.347a4.18565,4.18565,0,0,0,1.656-.25V24.759h-2.12V23.031h4.24Z"/>
    <path class="cls-7" d="M61.6389,34.5546c.021.561.494.804,1.028.804a2.688,2.688,0,0,0,.926-.141l.123.542a3.34877,3.34877,0,0,1-1.165.198,1.53327,1.53327,0,0,1-1.721-1.575,1.5847,1.5847,0,0,1,1.632-1.67,1.38178,1.38178,0,0,1,1.439,1.511,1.87012,1.87012,0,0,1-.027.331Zm1.467-.548a.68126.68126,0,0,0-.692-.758.79182.79182,0,0,0-.775.758Z"/>
    <polygon class="cls-7" points="65.45 32.783 65.45 33.969 66.739 33.969 66.739 32.783 67.582 32.783 67.582 35.887 66.739 35.887 66.739 34.581 65.45 34.581 65.45 35.887 64.607 35.887 64.607 32.783 65.45 32.783"/>
    <path class="cls-7" d="M69.1093,34.5546c.021.561.494.804,1.028.804a2.688,2.688,0,0,0,.926-.141l.123.542a3.34423,3.34423,0,0,1-1.165.198,1.53327,1.53327,0,0,1-1.721-1.575,1.5847,1.5847,0,0,1,1.632-1.67,1.38178,1.38178,0,0,1,1.439,1.511,1.778,1.778,0,0,1-.027.331Zm1.467-.548a.68126.68126,0,0,0-.692-.758.79182.79182,0,0,0-.775.758Z"/>
    <path class="cls-7" d="M72.084,33.8157c0-.408-.014-.74-.028-1.033h.741l.041.478h.014a1.32954,1.32954,0,0,1,1.144-.548,1.44877,1.44877,0,0,1,1.406,1.581,1.52229,1.52229,0,0,1-1.522,1.663,1.1253,1.1253,0,0,1-.939-.414h-.014v1.606h-.843Zm.843.771a.77364.77364,0,0,0,.027.217.7534.7534,0,0,0,.741.548c.534,0,.85-.414.85-1.026,0-.549-.288-.995-.83-.995a.77433.77433,0,0,0-.754.58.686.686,0,0,0-.034.198Z"/>
    <polygon class="cls-7" points="78.328 32.783 78.328 33.401 76.964 33.401 76.964 35.887 76.121 35.887 76.121 32.783 78.328 32.783"/>
    <path class="cls-7" d="M79.6711,32.78259v1.116c0,.491-.02.822-.048,1.256h.021c.178-.364.281-.593.452-.918l.823-1.454h1.021v3.104h-.802v-1.109c0-.497.02-.726.055-1.313h-.028c-.164.37-.274.593-.438.893-.261.458-.563,1.019-.85,1.529h-1.008v-3.104Z"/>
    <path class="cls-7" d="M85.6131,35.88712h-.836v-1.23h-.315a.67965.67965,0,0,0-.514.204,1.98293,1.98293,0,0,0-.412.771,2.19358,2.19358,0,0,1-.13.255h-.905a1.62428,1.62428,0,0,0,.206-.344,2.6082,2.6082,0,0,1,.5-.893.81205.81205,0,0,1,.398-.21v-.019c-.398-.038-.871-.281-.871-.765a.78249.78249,0,0,1,.514-.72,2.89813,2.89813,0,0,1,1.179-.198,9.672,9.672,0,0,1,1.186.07Zm-.836-2.62a2.39156,2.39156,0,0,0-.418-.032c-.37,0-.747.121-.747.466,0,.325.418.465.747.465.199,0,.308,0,.418-.007Z"/>
    <path class="cls-7" d="M88.3476,34.727a.48949.48949,0,0,1-.514-.504.49447.49447,0,0,1,.521-.503.50379.50379,0,1,1,0,1.007Z"/>
    <path class="cls-7" d="M91.6714,34.21689c-.398-.102-.617-.344-.617-.65,0-.421.453-.854,1.405-.854a2.11929,2.11929,0,0,1,1.07.235l-.158.504a1.90079,1.90079,0,0,0-.809-.185c-.404,0-.658.153-.658.37,0,.249.336.351.836.357h.364v.522h-.37c-.535.007-.939.109-.939.408,0,.294.363.447.774.447a2.39633,2.39633,0,0,0,.939-.217l.124.523a2.73026,2.73026,0,0,1-1.269.28c-.706,0-1.467-.248-1.467-.95a.84643.84643,0,0,1,.775-.764Z"/>
    <path class="cls-7" d="M94.7418,32.78259l.535,1.575c.096.274.157.522.24.79h.027a5.3059,5.3059,0,0,0,.699-2.097v-.268h.789a1.33182,1.33182,0,0,1,.02.236,6.11174,6.11174,0,0,1-1.213,2.868h-.816l-1.186-3.104Z"/>
    <path class="cls-7" d="M98.2029,34.21689c-.398-.102-.617-.344-.617-.65,0-.421.453-.854,1.405-.854a2.11929,2.11929,0,0,1,1.07.235l-.158.504a1.90079,1.90079,0,0,0-.809-.185c-.404,0-.658.153-.658.37,0,.249.336.351.836.357h.364v.522h-.37c-.535.007-.939.109-.939.408,0,.294.363.447.774.447a2.39633,2.39633,0,0,0,.939-.217l.123.523a2.72312,2.72312,0,0,1-1.268.28c-.706,0-1.467-.248-1.467-.95a.84643.84643,0,0,1,.775-.764Z"/>
    <path class="cls-7" d="M101.5749,35.58783v.439a7.86719,7.86719,0,0,0,.048,1.122h-.816a5.36048,5.36048,0,0,1-.075-1.109v-1.421a1.74269,1.74269,0,0,1,.569-1.498,1.66591,1.66591,0,0,1,1.138-.408,1.50586,1.50586,0,0,1,1.597,1.593,1.53727,1.53727,0,0,1-1.542,1.651,1.11654,1.11654,0,0,1-.905-.369Zm0-.931a1.03029,1.03029,0,0,0,.02.204.78013.78013,0,0,0,.741.491c.535,0,.843-.44.843-1.026,0-.549-.295-.97-.795-.97-.425,0-.809.345-.809,1.059Z"/>
    <path class="cls-7" d="M105.4608,37.14911a6.56682,6.56682,0,0,0-.116-1.791,8.36777,8.36777,0,0,0-1.166-2.576h.946a7.20669,7.20669,0,0,1,.891,2.257h.028a4.826,4.826,0,0,0,.631-2.008c0-.121-.007-.185-.007-.249h.802a1.26237,1.26237,0,0,1,.013.23,5.276,5.276,0,0,1-1.179,2.735.24787.24787,0,0,0-.041.153c.014.312.014.822.021,1.249Z"/>
    <path class="cls-7" d="M108.6202,34.21689c-.398-.102-.617-.344-.617-.65,0-.421.453-.854,1.405-.854a2.12192,2.12192,0,0,1,1.07.235l-.158.504a1.90847,1.90847,0,0,0-.809-.185c-.404,0-.658.153-.658.37,0,.249.336.351.836.357h.364v.522h-.37c-.535.007-.94.109-.94.408,0,.294.364.447.775.447a2.39633,2.39633,0,0,0,.939-.217l.124.523a2.73027,2.73027,0,0,1-1.269.28c-.706,0-1.467-.248-1.467-.95a.84643.84643,0,0,1,.775-.764Z"/>
    <path class="cls-7" d="M112.0199,35.01379c0,.255.082.357.315.344l-.048.548a1.104,1.104,0,0,1-.363.051c-.452,0-.754-.178-.754-.867v-2.307h.85Z"/>
    <path class="cls-7" d="M116.0506,32.783c-.041.421-.096,1.377-.096,2.116,0,.351.116.472.322.465l-.055.555a1.07985,1.07985,0,0,1-.294.038.62035.62035,0,0,1-.652-.605h-.02a1.24636,1.24636,0,0,1-1.104.605,1.41423,1.41423,0,0,1-1.378-1.562,1.5879,1.5879,0,0,1,1.508-1.683,1.037,1.037,0,0,1,.96.542h.027a4.71524,4.71524,0,0,1,.076-.471Zm-2.42,1.587c0,.523.288.962.747.962a.83681.83681,0,0,0,.74-.669,1.97444,1.97444,0,0,0,.028-.363,1.26055,1.26055,0,0,0-.021-.293.7647.7647,0,0,0-.706-.689c-.473,0-.788.465-.788,1.046Z"/>
    <path class="cls-7" d="M120.119,20.1994a6.112,6.112,0,1,1,6.113,6.112,6.11232,6.11232,0,0,1-6.113-6.112"/>
    <path class="cls-5" d="M125.8149,22.49042v-2.107l-1.597-2.947h1.05l.607,1.297c.172.375.3.66.435,1.005h.015c.128-.323.27-.637.443-1.005l.607-1.297h1.042l-1.679,2.924v2.13Z"/>
    <path class="cls-7" d="M134.1815,20.1994a6.112,6.112,0,1,1,6.113,6.112,6.11231,6.11231,0,0,1-6.113-6.112"/>
    <path class="cls-7" d="M120.119,33.7525a6.112,6.112,0,1,1,6.113,6.112,6.11232,6.11232,0,0,1-6.113-6.112"/>
    <rect class="cls-5" x="123.902" y="30.99002" width="0.923" height="5.05399"/>
    <polygon class="cls-5" points="128.709 33.802 126.804 33.802 126.804 35.287 128.934 35.287 128.934 36.044 125.882 36.044 125.882 30.99 128.822 30.99 128.822 31.747 126.804 31.747 126.804 33.052 128.709 33.052 128.709 33.802"/>
    <path class="cls-7" d="M134.1815,33.7525a6.112,6.112,0,1,1,6.113,6.112,6.11231,6.11231,0,0,1-6.113-6.112"/>
    <rect class="cls-5" x="136.041" y="17.436" width="0.923" height="5.05399"/>
    <path class="cls-5" d="M139.026,17.43631h.923v3.277c0,1.395-.676,1.86-1.68,1.86a2.46405,2.46405,0,0,1-.773-.12l.113-.743a2.01512,2.01512,0,0,0,.57.09c.525,0,.847-.24.847-1.117Z"/>
    <path class="cls-5" d="M141.9738,21.05783l-.435,1.433h-.952l1.619-5.055h1.178l1.642,5.055h-.99l-.458-1.433Zm1.447-.697-.397-1.245c-.098-.307-.181-.652-.256-.945h-.015c-.074.293-.149.645-.239.945l-.391,1.245Z"/>
    <rect class="cls-5" x="137.511" y="30.99002" width="0.923" height="5.05399"/>
    <path class="cls-5" d="M140.504,34.61151l-.435,1.432h-.953l1.62-5.054h1.177l1.643,5.054h-.99l-.458-1.432Zm1.447-.697-.398-1.245c-.097-.307-.18-.652-.255-.945h-.015c-.074.293-.15.645-.24.945l-.39,1.245Z"/>
  </g>
  <g class="cls-2">
    <line class="cls-9" x1="12.7559" y1="66.0538" x2="157.32289" y2="66.0538"/>
    <path class="cls-10" d="M33.4459,241.3672a.08647.08647,0,0,0-.013-.048.09408.09408,0,0,0-.048-.032.54126.54126,0,0,0-.091-.021,1.09156,1.09156,0,0,0-.142-.008,1.04266,1.04266,0,0,0-.135.008.60929.60929,0,0,0-.092.021.10438.10438,0,0,0-.051.032.08137.08137,0,0,0-.016.048v4.245a.08478.08478,0,0,0,.014.048.0894.0894,0,0,0,.048.033.56849.56849,0,0,0,.092.02.93939.93939,0,0,0,.14.009.92173.92173,0,0,0,.142-.009.55315.55315,0,0,0,.091-.02.0894.0894,0,0,0,.048-.033.08423.08423,0,0,0,.013-.048Zm-1.731.345a.23438.23438,0,0,0-.061-.102.91536.91536,0,0,0-.162-.115,1.67462,1.67462,0,0,0-.291-.13,3.24663,3.24663,0,0,0-.395-.104,2.46548,2.46548,0,0,0-.475-.044,2.3377,2.3377,0,0,0-.897.166,2.00163,2.00163,0,0,0-.694.466,2.09784,2.09784,0,0,0-.448.728,2.9346,2.9346,0,0,0-.012,1.87,1.981,1.981,0,0,0,.426.704,1.87025,1.87025,0,0,0,.682.453,2.48128,2.48128,0,0,0,.916.159,2.94787,2.94787,0,0,0,.677-.082,3.38557,3.38557,0,0,0,.324-.099,2.68035,2.68035,0,0,0,.257-.108.2678.2678,0,0,0,.13-.115.36.36,0,0,0,.03-.153v-1.685a.31015.31015,0,0,0-.017-.11.168.168,0,0,0-.048-.075.20652.20652,0,0,0-.068-.041.22092.22092,0,0,0-.075-.014h-1.405a.08791.08791,0,0,0-.051.014.10492.10492,0,0,0-.036.043.22267.22267,0,0,0-.022.075.71442.71442,0,0,0-.007.111.41616.41616,0,0,0,.029.181.09178.09178,0,0,0,.087.058h1.025v1.289a1.542,1.542,0,0,1-.391.148,1.75556,1.75556,0,0,1-.415.05,1.691,1.691,0,0,1-.634-.116,1.3696,1.3696,0,0,1-.498-.342,1.603,1.603,0,0,1-.326-.554,2.40248,2.40248,0,0,1-.01-1.456,1.66143,1.66143,0,0,1,.309-.56,1.39637,1.39637,0,0,1,.492-.369,1.55845,1.55845,0,0,1,.657-.134,1.9275,1.9275,0,0,1,.531.065,2.465,2.465,0,0,1,.385.144,2.16178,2.16178,0,0,1,.256.143.30008.30008,0,0,0,.137.065.08041.08041,0,0,0,.044-.013.10256.10256,0,0,0,.034-.047.34651.34651,0,0,0,.021-.082.9412.9412,0,0,0,.007-.114.60219.60219,0,0,0-.018-.168m-5.066,1.091a.60853.60853,0,0,1-.166.237.7855.7855,0,0,1-.282.158,1.28905,1.28905,0,0,1-.401.056h-.575v-1.49h.496c.116,0,.21.003.282.01a1.11676,1.11676,0,0,1,.193.034.66549.66549,0,0,1,.39.258.79559.79559,0,0,1,.116.439.82229.82229,0,0,1-.053.298m.925,2.732c-.01-.033-.03-.09-.062-.172l-.396-.974c-.046-.112-.092-.212-.137-.301a1.67716,1.67716,0,0,0-.145-.236,1.07878,1.07878,0,0,0-.166-.176.86792.86792,0,0,0-.198-.121,1.79169,1.79169,0,0,0,.352-.168,1.17355,1.17355,0,0,0,.27-.234.97159.97159,0,0,0,.172-.311,1.22817,1.22817,0,0,0,.06-.398,1.2442,1.2442,0,0,0-.067-.419.97594.97594,0,0,0-.2-.337,1.07676,1.07676,0,0,0-.329-.242,1.661,1.661,0,0,0-.453-.14c-.06-.007-.126-.013-.2-.019s-.167-.009-.279-.009h-.94a.24184.24184,0,0,0-.148.053.22139.22139,0,0,0-.071.187v4.094a.08478.08478,0,0,0,.014.048.0894.0894,0,0,0,.048.033.55315.55315,0,0,0,.091.02.90763.90763,0,0,0,.141.009.92173.92173,0,0,0,.142-.009.50133.50133,0,0,0,.089-.02.098.098,0,0,0,.048-.033.07839.07839,0,0,0,.015-.048v-1.883h.393a.89678.89678,0,0,1,.346.06.76237.76237,0,0,1,.249.167,1.04369,1.04369,0,0,1,.183.257c.051.099.101.208.149.326l.406,1.043a.28744.28744,0,0,0,.033.068.12762.12762,0,0,0,.053.043.34781.34781,0,0,0,.09.022,1.39346,1.39346,0,0,0,.146.007c.068,0,.123-.003.164-.007a.40994.40994,0,0,0,.096-.021.08.08,0,0,0,.044-.034.103.103,0,0,0,.01-.048.31225.31225,0,0,0-.013-.077m-3.857-.191a.2205.2205,0,0,0-.024-.075.11007.11007,0,0,0-.039-.043.09661.09661,0,0,0-.05-.014h-1.753v-1.582h1.483a.10539.10539,0,0,0,.05-.012.09326.09326,0,0,0,.037-.039.21782.21782,0,0,0,.023-.072.81012.81012,0,0,0,.006-.106.92884.92884,0,0,0-.006-.113.20776.20776,0,0,0-.023-.075.12078.12078,0,0,0-.037-.043.089.089,0,0,0-.05-.015h-1.483v-1.388h1.729a.08584.08584,0,0,0,.05-.014.094.094,0,0,0,.036-.042.35612.35612,0,0,0,.022-.075.57381.57381,0,0,0,.009-.108.61613.61613,0,0,0-.009-.115.39791.39791,0,0,0-.022-.077.09028.09028,0,0,0-.086-.058h-2.098a.24459.24459,0,0,0-.149.053.22108.22108,0,0,0-.07.187v3.944a.2177.2177,0,0,0,.07.186.23857.23857,0,0,0,.149.053h2.122a.09576.09576,0,0,0,.05-.013.11677.11677,0,0,0,.039-.045.24085.24085,0,0,0,.024-.077.67713.67713,0,0,0,.007-.107.74411.74411,0,0,0-.007-.115m-3.656-3.967a.08163.08163,0,0,0-.014-.044.11275.11275,0,0,0-.047-.036.32743.32743,0,0,0-.09-.022,1.09175,1.09175,0,0,0-.137-.007,1.15141,1.15141,0,0,0-.146.007.34568.34568,0,0,0-.091.022.11019.11019,0,0,0-.048.036.07533.07533,0,0,0-.015.044v2.4c0,.18.001.367.002.562s.004.382.009.562h-.004c-.053-.107-.106-.213-.16-.319s-.109-.214-.164-.323q-.0825-.165-.171-.333c-.06-.113-.121-.229-.185-.347l-1.038-1.942a1.49989,1.49989,0,0,0-.107-.176.48029.48029,0,0,0-.106-.109.36559.36559,0,0,0-.123-.057.74649.74649,0,0,0-.171-.017h-.29a.281.281,0,0,0-.169.058.22814.22814,0,0,0-.078.195v4.081a.07892.07892,0,0,0,.015.046.09161.09161,0,0,0,.047.035.48726.48726,0,0,0,.088.02,1.13136,1.13136,0,0,0,.285,0,.56238.56238,0,0,0,.09-.02.09319.09319,0,0,0,.049-.035.07781.07781,0,0,0,.014-.046v-2.669c0-.169-.001-.339-.003-.509-.002-.171-.006-.339-.01-.503h.007q.0915.20249.2.415.1065.21448.213.409l1.349,2.516a1.83275,1.83275,0,0,0,.131.218.72193.72193,0,0,0,.124.135.3686.3686,0,0,0,.131.069.63858.63858,0,0,0,.161.018h.194a.3242.3242,0,0,0,.092-.013.22422.22422,0,0,0,.083-.045.21461.21461,0,0,0,.06-.078.25826.25826,0,0,0,.023-.116Zm-4.263,3.967a.2205.2205,0,0,0-.024-.075.11007.11007,0,0,0-.039-.043.09661.09661,0,0,0-.05-.014h-1.753v-1.582h1.483a.10539.10539,0,0,0,.05-.012.09326.09326,0,0,0,.037-.039.21782.21782,0,0,0,.023-.072.81012.81012,0,0,0,.006-.106.92884.92884,0,0,0-.006-.113.20776.20776,0,0,0-.023-.075.12078.12078,0,0,0-.037-.043.089.089,0,0,0-.05-.015h-1.483v-1.388h1.729a.08584.08584,0,0,0,.05-.014.094.094,0,0,0,.036-.042.35612.35612,0,0,0,.022-.075.58035.58035,0,0,0,.008-.108.62623.62623,0,0,0-.008-.115.39791.39791,0,0,0-.022-.077.09028.09028,0,0,0-.086-.058h-2.098a.24459.24459,0,0,0-.149.053.22108.22108,0,0,0-.07.187v3.944a.2177.2177,0,0,0,.07.186.23857.23857,0,0,0,.149.053h2.122a.09576.09576,0,0,0,.05-.013.11677.11677,0,0,0,.039-.045.24085.24085,0,0,0,.024-.077.67713.67713,0,0,0,.007-.107.74411.74411,0,0,0-.007-.115"/>
    <path class="cls-10" d="M64.70989,238.3442a.1841.1841,0,0,0-.024-.075.11007.11007,0,0,0-.039-.043.094.094,0,0,0-.05-.014h-1.753v-1.582h1.483a.10258.10258,0,0,0,.05-.012.0932.0932,0,0,0,.037-.039.21781.21781,0,0,0,.023-.072.79394.79394,0,0,0,.007-.106.91117.91117,0,0,0-.007-.113.20775.20775,0,0,0-.023-.075.12068.12068,0,0,0-.037-.043.08666.08666,0,0,0-.05-.015h-1.483v-1.388h1.729a.0858.0858,0,0,0,.05-.014.09413.09413,0,0,0,.036-.042.35616.35616,0,0,0,.022-.075.57291.57291,0,0,0,.009-.108.61518.61518,0,0,0-.009-.115.398.398,0,0,0-.022-.077.0903.0903,0,0,0-.086-.058h-2.098a.24459.24459,0,0,0-.149.053.22108.22108,0,0,0-.07.187v3.944a.2177.2177,0,0,0,.07.186.23857.23857,0,0,0,.149.053h2.122a.09334.09334,0,0,0,.05-.013.11677.11677,0,0,0,.039-.045.19956.19956,0,0,0,.024-.077.67584.67584,0,0,0,.007-.107.7427.7427,0,0,0-.007-.115m-3.654-3.977a.08717.08717,0,0,0-.014-.048.09408.09408,0,0,0-.048-.032.55076.55076,0,0,0-.09-.021,1.10286,1.10286,0,0,0-.142-.008,1.02008,1.02008,0,0,0-.135.008.59745.59745,0,0,0-.093.021.10939.10939,0,0,0-.051.032.0805.0805,0,0,0-.015.048v4.245a.07775.07775,0,0,0,.014.048.09044.09044,0,0,0,.047.033.56006.56006,0,0,0,.093.02.92075.92075,0,0,0,.14.009.93081.93081,0,0,0,.142-.009.56238.56238,0,0,0,.09-.02.0894.0894,0,0,0,.048-.033.08478.08478,0,0,0,.014-.048Zm-1.731.345a.24667.24667,0,0,0-.062-.102.84354.84354,0,0,0-.162-.115,1.67462,1.67462,0,0,0-.291-.13,3.22776,3.22776,0,0,0-.394-.104,2.48068,2.48068,0,0,0-.475-.044,2.33924,2.33924,0,0,0-.898.166,2.00163,2.00163,0,0,0-.694.466,2.09575,2.09575,0,0,0-.447.728,2.9346,2.9346,0,0,0-.012,1.87,1.99331,1.99331,0,0,0,.425.704,1.87025,1.87025,0,0,0,.682.453,2.48128,2.48128,0,0,0,.916.159,2.77906,2.77906,0,0,0,.339-.021,2.82029,2.82029,0,0,0,.338-.061,3.31986,3.31986,0,0,0,.325-.099,2.76048,2.76048,0,0,0,.256-.108.2678.2678,0,0,0,.13-.115.35982.35982,0,0,0,.031-.153v-1.685a.33445.33445,0,0,0-.017-.11.187.187,0,0,0-.048-.075.22379.22379,0,0,0-.144-.055h-1.405a.09253.09253,0,0,0-.051.014.10492.10492,0,0,0-.036.043.2483.2483,0,0,0-.022.075.71442.71442,0,0,0-.007.111.43175.43175,0,0,0,.029.181.09369.09369,0,0,0,.087.058h1.026v1.289a1.54911,1.54911,0,0,1-.392.148,1.7494,1.7494,0,0,1-.415.05,1.69475,1.69475,0,0,1-.634-.116,1.36586,1.36586,0,0,1-.497-.342,1.60483,1.60483,0,0,1-.327-.554,2.40248,2.40248,0,0,1-.01-1.456,1.66143,1.66143,0,0,1,.309-.56,1.4,1.4,0,0,1,.493-.369,1.55057,1.55057,0,0,1,.656-.134,1.9275,1.9275,0,0,1,.531.065,2.39067,2.39067,0,0,1,.385.144,2.16178,2.16178,0,0,1,.256.143.30457.30457,0,0,0,.137.065.07585.07585,0,0,0,.044-.013.1114.1114,0,0,0,.035-.047.3507.3507,0,0,0,.02-.082.77393.77393,0,0,0,.007-.114.65048.65048,0,0,0-.017-.168m-5.067,1.091a.606.606,0,0,1-.165.237.80293.80293,0,0,1-.282.158,1.29572,1.29572,0,0,1-.402.056h-.574v-1.49h.495c.117,0,.211.003.282.01a1.11676,1.11676,0,0,1,.193.034.65917.65917,0,0,1,.39.258.78734.78734,0,0,1,.116.439.8016.8016,0,0,1-.053.298m.925,2.732c-.009-.033-.03-.09-.062-.172l-.396-.974c-.046-.112-.091-.212-.137-.301a1.58889,1.58889,0,0,0-.145-.236,1.03755,1.03755,0,0,0-.166-.176.82674.82674,0,0,0-.198-.121,1.76489,1.76489,0,0,0,.352-.168,1.13325,1.13325,0,0,0,.27-.234.97387.97387,0,0,0,.173-.311,1.2567,1.2567,0,0,0,.059-.398,1.26985,1.26985,0,0,0-.066-.419.99171.99171,0,0,0-.2-.337,1.09371,1.09371,0,0,0-.33-.242,1.661,1.661,0,0,0-.453-.14c-.059-.007-.126-.013-.2-.019s-.167-.009-.278-.009h-.94a.24459.24459,0,0,0-.149.053.22108.22108,0,0,0-.07.187v4.094a.07775.07775,0,0,0,.014.048.09044.09044,0,0,0,.047.033.55315.55315,0,0,0,.091.02,1.12348,1.12348,0,0,0,.284,0,.48726.48726,0,0,0,.088-.02.098.098,0,0,0,.048-.033.07323.07323,0,0,0,.016-.048v-1.883h.393a.895.895,0,0,1,.345.06.76668.76668,0,0,1,.25.167,1.06766,1.06766,0,0,1,.182.257c.052.099.101.208.149.326l.407,1.043a.28766.28766,0,0,0,.032.068.13432.13432,0,0,0,.053.043.34608.34608,0,0,0,.091.022,1.37231,1.37231,0,0,0,.145.007c.068,0,.123-.003.164-.007a.40994.40994,0,0,0,.096-.021.07647.07647,0,0,0,.044-.034.103.103,0,0,0,.011-.048.324.324,0,0,0-.014-.077m-3.857-.191a.1841.1841,0,0,0-.024-.075.11007.11007,0,0,0-.039-.043.09311.09311,0,0,0-.049-.014h-1.754v-1.582h1.484a.0952.0952,0,0,0,.087-.051.24511.24511,0,0,0,.022-.072.79379.79379,0,0,0,.007-.106.911.911,0,0,0-.007-.113.23161.23161,0,0,0-.022-.075.13385.13385,0,0,0-.038-.043.0858.0858,0,0,0-.049-.015h-1.484v-1.388h1.73a.08481.08481,0,0,0,.049-.014.094.094,0,0,0,.036-.042.30523.30523,0,0,0,.022-.075.57381.57381,0,0,0,.009-.108.61613.61613,0,0,0-.009-.115.33782.33782,0,0,0-.022-.077.09455.09455,0,0,0-.036-.044.093.093,0,0,0-.049-.014h-2.099a.24677.24677,0,0,0-.149.053.224.224,0,0,0-.07.187v3.944a.22055.22055,0,0,0,.07.186.24062.24062,0,0,0,.149.053h2.123a.09225.09225,0,0,0,.049-.013.11677.11677,0,0,0,.039-.045.19956.19956,0,0,0,.024-.077.67713.67713,0,0,0,.007-.107.74411.74411,0,0,0-.007-.115m-3.655-3.967a.07533.07533,0,0,0-.015-.044.10659.10659,0,0,0-.047-.036.30939.30939,0,0,0-.09-.022,1.08118,1.08118,0,0,0-.137-.007,1.15141,1.15141,0,0,0-.146.007.3474.3474,0,0,0-.09.022.1139.1139,0,0,0-.049.036.08163.08163,0,0,0-.014.044v2.4c0,.18,0,.367.001.562.002.195.004.382.009.562h-.003c-.053-.107-.107-.213-.161-.319s-.108-.214-.163-.323c-.055-.11-.113-.221-.172-.333-.059-.113-.121-.229-.185-.347l-1.037-1.942a1.49363,1.49363,0,0,0-.108-.176.49957.49957,0,0,0-.105-.109.38.38,0,0,0-.124-.057.74649.74649,0,0,0-.171-.017h-.289a.28389.28389,0,0,0-.17.058.23049.23049,0,0,0-.077.195v4.081a.08554.08554,0,0,0,.014.046.09161.09161,0,0,0,.047.035.50866.50866,0,0,0,.088.02.93593.93593,0,0,0,.143.009.91275.91275,0,0,0,.142-.009.55315.55315,0,0,0,.091-.02.09036.09036,0,0,0,.048-.035.07892.07892,0,0,0,.015-.046v-2.669c0-.169-.001-.339-.004-.509-.002-.171-.005-.339-.01-.503h.007c.062.135.128.273.2.415q.108.21448.213.409l1.349,2.516a1.96693,1.96693,0,0,0,.132.218.68762.68762,0,0,0,.123.135.37712.37712,0,0,0,.131.069.64415.64415,0,0,0,.161.018h.195a.31743.31743,0,0,0,.091-.013.22835.22835,0,0,0,.084-.045.23877.23877,0,0,0,.06-.078.27253.27253,0,0,0,.023-.116Zm-4.264,3.967a.1841.1841,0,0,0-.024-.075.11007.11007,0,0,0-.039-.043.09311.09311,0,0,0-.049-.014h-1.754v-1.582h1.484a.0952.0952,0,0,0,.087-.051.24511.24511,0,0,0,.022-.072.79379.79379,0,0,0,.007-.106.911.911,0,0,0-.007-.113.23161.23161,0,0,0-.022-.075.13385.13385,0,0,0-.038-.043.0858.0858,0,0,0-.049-.015h-1.484v-1.388h1.73a.08481.08481,0,0,0,.049-.014.094.094,0,0,0,.036-.042.30523.30523,0,0,0,.022-.075.57381.57381,0,0,0,.009-.108.61613.61613,0,0,0-.009-.115.33782.33782,0,0,0-.022-.077.09455.09455,0,0,0-.036-.044.093.093,0,0,0-.049-.014h-2.099a.24677.24677,0,0,0-.149.053.224.224,0,0,0-.07.187v3.944a.22055.22055,0,0,0,.07.186.24062.24062,0,0,0,.149.053h2.123a.09225.09225,0,0,0,.049-.013.11677.11677,0,0,0,.039-.045.19956.19956,0,0,0,.024-.077.67713.67713,0,0,0,.007-.107.74411.74411,0,0,0-.007-.115m-5.079-1.953a.3953.3953,0,0,0-.284-.079.41468.41468,0,0,0-.292.08.47386.47386,0,0,0-.08.323.45923.45923,0,0,0,.078.315.402.402,0,0,0,.284.078.40817.40817,0,0,0,.292-.08.4643.4643,0,0,0,.081-.323.45019.45019,0,0,0-.079-.314m-2.779-1.904a.46962.46962,0,0,0,.046-.12.0669.0669,0,0,0-.018-.068.19168.19168,0,0,0-.098-.033,1.89584,1.89584,0,0,0-.193-.008,1.2008,1.2008,0,0,0-.147.007.45308.45308,0,0,0-.091.018.11864.11864,0,0,0-.051.036.19692.19692,0,0,0-.029.058l-.615,1.279c-.057.125-.113.252-.169.381-.055.129-.109.258-.161.388h-.007c-.059-.135-.117-.268-.173-.4-.057-.132-.114-.259-.17-.379l-.612-1.272a.258.258,0,0,0-.036-.056.12.12,0,0,0-.056-.035.584.584,0,0,0-.101-.018,1.48863,1.48863,0,0,0-.166-.007,1.69258,1.69258,0,0,0-.179.007.16537.16537,0,0,0-.093.03.07.07,0,0,0-.017.069.59738.59738,0,0,0,.046.123l1.251,2.495v1.63a.08478.08478,0,0,0,.014.048.08857.08857,0,0,0,.049.033.62157.62157,0,0,0,.092.02,1.09213,1.09213,0,0,0,.28,0,.545.545,0,0,0,.092-.02.09349.09349,0,0,0,.048-.033.08423.08423,0,0,0,.013-.048v-1.63Zm-3.834.225a.23438.23438,0,0,0-.061-.102.91536.91536,0,0,0-.162-.115,1.67462,1.67462,0,0,0-.291-.13,3.24663,3.24663,0,0,0-.395-.104,2.46548,2.46548,0,0,0-.475-.044,2.3377,2.3377,0,0,0-.897.166,2.00163,2.00163,0,0,0-.694.466,2.09784,2.09784,0,0,0-.448.728,2.9346,2.9346,0,0,0-.012,1.87,1.981,1.981,0,0,0,.426.704,1.87025,1.87025,0,0,0,.682.453,2.48128,2.48128,0,0,0,.916.159,2.94787,2.94787,0,0,0,.677-.082,3.38557,3.38557,0,0,0,.324-.099,2.68035,2.68035,0,0,0,.257-.108.2678.2678,0,0,0,.13-.115.36.36,0,0,0,.03-.153v-1.685a.31015.31015,0,0,0-.017-.11.168.168,0,0,0-.048-.075.20652.20652,0,0,0-.068-.041.22092.22092,0,0,0-.075-.014h-1.405a.08791.08791,0,0,0-.051.014.10492.10492,0,0,0-.036.043.22267.22267,0,0,0-.022.075.71442.71442,0,0,0-.007.111.41616.41616,0,0,0,.029.181.09178.09178,0,0,0,.087.058h1.025v1.289a1.542,1.542,0,0,1-.391.148,1.75556,1.75556,0,0,1-.415.05,1.691,1.691,0,0,1-.634-.116,1.3696,1.3696,0,0,1-.498-.342,1.603,1.603,0,0,1-.326-.554,2.40248,2.40248,0,0,1-.01-1.456,1.66143,1.66143,0,0,1,.309-.56,1.39637,1.39637,0,0,1,.492-.369,1.55845,1.55845,0,0,1,.657-.134,1.9275,1.9275,0,0,1,.531.065,2.465,2.465,0,0,1,.385.144,2.16178,2.16178,0,0,1,.256.143.30008.30008,0,0,0,.137.065.08041.08041,0,0,0,.044-.013.10256.10256,0,0,0,.034-.047.34651.34651,0,0,0,.021-.082.9412.9412,0,0,0,.007-.114.60219.60219,0,0,0-.018-.168m-5.066,1.091a.60853.60853,0,0,1-.166.237.7855.7855,0,0,1-.282.158,1.28905,1.28905,0,0,1-.401.056h-.575v-1.49h.496c.116,0,.21.003.282.01a1.11676,1.11676,0,0,1,.193.034.66549.66549,0,0,1,.39.258.79559.79559,0,0,1,.116.439.82229.82229,0,0,1-.053.298m.925,2.732c-.01-.033-.03-.09-.062-.172l-.396-.974c-.046-.112-.092-.212-.137-.301a1.67716,1.67716,0,0,0-.145-.236,1.07878,1.07878,0,0,0-.166-.176.86792.86792,0,0,0-.198-.121,1.79169,1.79169,0,0,0,.352-.168,1.17355,1.17355,0,0,0,.27-.234.97159.97159,0,0,0,.172-.311,1.22817,1.22817,0,0,0,.06-.398,1.2442,1.2442,0,0,0-.067-.419.97594.97594,0,0,0-.2-.337,1.07676,1.07676,0,0,0-.329-.242,1.661,1.661,0,0,0-.453-.14c-.06-.007-.126-.013-.2-.019s-.167-.009-.279-.009h-.94a.24184.24184,0,0,0-.148.053.22139.22139,0,0,0-.071.187v4.094a.08478.08478,0,0,0,.014.048.0894.0894,0,0,0,.048.033.55315.55315,0,0,0,.091.02.90763.90763,0,0,0,.141.009.92173.92173,0,0,0,.142-.009.50133.50133,0,0,0,.089-.02.098.098,0,0,0,.048-.033.07839.07839,0,0,0,.015-.048v-1.883h.393a.89678.89678,0,0,1,.346.06.76237.76237,0,0,1,.249.167,1.04369,1.04369,0,0,1,.183.257c.051.099.101.208.149.326l.406,1.043a.28744.28744,0,0,0,.033.068.12762.12762,0,0,0,.053.043.34781.34781,0,0,0,.09.022,1.39346,1.39346,0,0,0,.146.007c.068,0,.123-.003.164-.007a.40994.40994,0,0,0,.096-.021.08.08,0,0,0,.044-.034.103.103,0,0,0,.01-.048.31225.31225,0,0,0-.013-.077m-3.857-.191a.2205.2205,0,0,0-.024-.075.11007.11007,0,0,0-.039-.043.09661.09661,0,0,0-.05-.014h-1.753v-1.582h1.483a.10539.10539,0,0,0,.05-.012.09326.09326,0,0,0,.037-.039.21782.21782,0,0,0,.023-.072.81012.81012,0,0,0,.006-.106.92884.92884,0,0,0-.006-.113.20776.20776,0,0,0-.023-.075.12078.12078,0,0,0-.037-.043.089.089,0,0,0-.05-.015h-1.483v-1.388h1.729a.08584.08584,0,0,0,.05-.014.094.094,0,0,0,.036-.042.35612.35612,0,0,0,.022-.075.57381.57381,0,0,0,.009-.108.61613.61613,0,0,0-.009-.115.39791.39791,0,0,0-.022-.077.09028.09028,0,0,0-.086-.058h-2.098a.24459.24459,0,0,0-.149.053.22108.22108,0,0,0-.07.187v3.944a.2177.2177,0,0,0,.07.186.23857.23857,0,0,0,.149.053h2.122a.09576.09576,0,0,0,.05-.013.11677.11677,0,0,0,.039-.045.24085.24085,0,0,0,.024-.077.67713.67713,0,0,0,.007-.107.74411.74411,0,0,0-.007-.115m-3.656-3.967a.08163.08163,0,0,0-.014-.044.11275.11275,0,0,0-.047-.036.32743.32743,0,0,0-.09-.022,1.09175,1.09175,0,0,0-.137-.007,1.15141,1.15141,0,0,0-.146.007.34568.34568,0,0,0-.091.022.11019.11019,0,0,0-.048.036.07533.07533,0,0,0-.015.044v2.4c0,.18.001.367.002.562s.004.382.009.562h-.004c-.053-.107-.106-.213-.16-.319s-.109-.214-.164-.323q-.0825-.165-.171-.333c-.06-.113-.121-.229-.185-.347l-1.038-1.942a1.49989,1.49989,0,0,0-.107-.176.48029.48029,0,0,0-.106-.109.36559.36559,0,0,0-.123-.057.74649.74649,0,0,0-.171-.017h-.29a.281.281,0,0,0-.169.058.22814.22814,0,0,0-.078.195v4.081a.07892.07892,0,0,0,.015.046.09161.09161,0,0,0,.047.035.48726.48726,0,0,0,.088.02,1.13136,1.13136,0,0,0,.285,0,.56238.56238,0,0,0,.09-.02.09319.09319,0,0,0,.049-.035.07781.07781,0,0,0,.014-.046v-2.669c0-.169-.001-.339-.003-.509-.002-.171-.006-.339-.01-.503h.007q.0915.20249.2.415.1065.21448.213.409l1.349,2.516a1.83275,1.83275,0,0,0,.131.218.72193.72193,0,0,0,.124.135.3686.3686,0,0,0,.131.069.63858.63858,0,0,0,.161.018h.194a.3242.3242,0,0,0,.092-.013.22422.22422,0,0,0,.083-.045.21461.21461,0,0,0,.06-.078.25826.25826,0,0,0,.023-.116Zm-4.263,3.967a.2205.2205,0,0,0-.024-.075.11007.11007,0,0,0-.039-.043.09661.09661,0,0,0-.05-.014h-1.753v-1.582h1.483a.10539.10539,0,0,0,.05-.012.09326.09326,0,0,0,.037-.039.21782.21782,0,0,0,.023-.072.81012.81012,0,0,0,.006-.106.92884.92884,0,0,0-.006-.113.20776.20776,0,0,0-.023-.075.12078.12078,0,0,0-.037-.043.089.089,0,0,0-.05-.015h-1.483v-1.388h1.729a.08584.08584,0,0,0,.05-.014.094.094,0,0,0,.036-.042.35612.35612,0,0,0,.022-.075.58035.58035,0,0,0,.008-.108.62623.62623,0,0,0-.008-.115.39791.39791,0,0,0-.022-.077.09028.09028,0,0,0-.086-.058h-2.098a.24459.24459,0,0,0-.149.053.22108.22108,0,0,0-.07.187v3.944a.2177.2177,0,0,0,.07.186.23857.23857,0,0,0,.149.053h2.122a.09576.09576,0,0,0,.05-.013.11677.11677,0,0,0,.039-.045.24085.24085,0,0,0,.024-.077.67713.67713,0,0,0,.007-.107.74411.74411,0,0,0-.007-.115"/>
    <path class="cls-10" d="M70.94689,230.07121h-1.538l.762-2.205h.003Zm-.352-2.687a.19588.19588,0,0,0-.038-.063.15464.15464,0,0,0-.068-.039.527.527,0,0,0-.117-.019c-.047-.003-.108-.005-.181-.005-.068,0-.125.002-.169.005a.46778.46778,0,0,0-.109.019.14486.14486,0,0,0-.065.037.17766.17766,0,0,0-.036.062l-1.484,4.108a.46313.46313,0,0,0-.029.122.08822.08822,0,0,0,.024.07.16613.16613,0,0,0,.089.032,1.19122,1.19122,0,0,0,.163.009c.063,0,.115-.003.155-.007a.317.317,0,0,0,.092-.022.14349.14349,0,0,0,.05-.038.18785.18785,0,0,0,.027-.053l.363-1.063h1.838l.38,1.077a.29786.29786,0,0,0,.029.051.09064.09064,0,0,0,.048.032.38922.38922,0,0,0,.095.018c.043.003.099.005.17.005.07,0,.127-.003.169-.007a.16546.16546,0,0,0,.09-.031.0817.0817,0,0,0,.026-.07.42141.42141,0,0,0-.029-.121Zm-2.992-.02a.076.076,0,0,0-.015-.045.114.114,0,0,0-.048-.034.33544.33544,0,0,0-.091-.02,1.111,1.111,0,0,0-.14-.007,1.12439,1.12439,0,0,0-.142.007.35556.35556,0,0,0-.09.02.10242.10242,0,0,0-.048.034.08236.08236,0,0,0-.014.045v3.165a1.94077,1.94077,0,0,1-.027.36.57252.57252,0,0,1-.082.217.27487.27487,0,0,1-.137.108.57826.57826,0,0,1-.198.029.60425.60425,0,0,1-.185-.025,1.00861,1.00861,0,0,1-.138-.057c-.04-.02-.074-.039-.103-.056a.1447.1447,0,0,0-.07-.026.0853.0853,0,0,0-.046.012.09975.09975,0,0,0-.032.041.24047.24047,0,0,0-.019.079c-.003.033-.005.074-.005.124q0,.0615.003.105a.49508.49508,0,0,0,.012.071.23512.23512,0,0,0,.021.05.22106.22106,0,0,0,.031.041.28709.28709,0,0,0,.076.05,1.09065,1.09065,0,0,0,.137.054,1.15544,1.15544,0,0,0,.173.041,1.08872,1.08872,0,0,0,.189.016,1.159,1.159,0,0,0,.47-.084.75118.75118,0,0,0,.306-.238.93033.93033,0,0,0,.164-.372,2.25521,2.25521,0,0,0,.048-.482Zm-2.354.003a.08709.08709,0,0,0-.014-.048.09526.09526,0,0,0-.047-.032.54141.54141,0,0,0-.091-.021,1.10269,1.10269,0,0,0-.142-.008,1.04271,1.04271,0,0,0-.135.008.58148.58148,0,0,0-.092.021.10438.10438,0,0,0-.051.032.07506.07506,0,0,0-.016.048v4.245a.0847.0847,0,0,0,.014.048.08941.08941,0,0,0,.048.033.5234.5234,0,0,0,.092.02,1.10765,1.10765,0,0,0,.282,0,.5533.5533,0,0,0,.091-.02.09041.09041,0,0,0,.047-.033.0847.0847,0,0,0,.014-.048Zm-1.731.345a.24436.24436,0,0,0-.061-.102.89429.89429,0,0,0-.163-.115,1.62849,1.62849,0,0,0-.29-.13,3.24663,3.24663,0,0,0-.395-.104,2.47306,2.47306,0,0,0-.475-.044,2.3377,2.3377,0,0,0-.897.166,1.99237,1.99237,0,0,0-.694.466,2.08308,2.08308,0,0,0-.448.728,2.9346,2.9346,0,0,0-.012,1.87,1.981,1.981,0,0,0,.426.704,1.8663,1.8663,0,0,0,.681.453,2.485,2.485,0,0,0,.916.159,2.77906,2.77906,0,0,0,.339-.021,2.75045,2.75045,0,0,0,.338-.061,3.31986,3.31986,0,0,0,.325-.099,2.64775,2.64775,0,0,0,.256-.108.26329.26329,0,0,0,.13-.115.34537.34537,0,0,0,.031-.153v-1.685a.33445.33445,0,0,0-.017-.11.177.177,0,0,0-.048-.075.21723.21723,0,0,0-.068-.041.22651.22651,0,0,0-.076-.014h-1.404a.09361.09361,0,0,0-.052.014.11155.11155,0,0,0-.035.043.22151.22151,0,0,0-.023.075.86415.86415,0,0,0-.007.111.41377.41377,0,0,0,.03.181.09178.09178,0,0,0,.087.058h1.025v1.289a1.55644,1.55644,0,0,1-.391.148,1.75759,1.75759,0,0,1-.416.05,1.69475,1.69475,0,0,1-.634-.116,1.37432,1.37432,0,0,1-.497-.342,1.58762,1.58762,0,0,1-.326-.554,2.20263,2.20263,0,0,1-.118-.752,2.24836,2.24836,0,0,1,.107-.704,1.64633,1.64633,0,0,1,.31-.56,1.38747,1.38747,0,0,1,.492-.369,1.5538,1.5538,0,0,1,.656-.134,1.94018,1.94018,0,0,1,.532.065,2.413,2.413,0,0,1,.384.144,2.18634,2.18634,0,0,1,.257.143.298.298,0,0,0,.136.065.08128.08128,0,0,0,.045-.013.11018.11018,0,0,0,.034-.047.307.307,0,0,0,.02-.082.77393.77393,0,0,0,.007-.114.65048.65048,0,0,0-.017-.168m-5.066,1.091a.61914.61914,0,0,1-.166.237.7855.7855,0,0,1-.282.158,1.29572,1.29572,0,0,1-.402.056h-.574v-1.49h.496c.116,0,.21.003.282.01a1.13428,1.13428,0,0,1,.193.034.65971.65971,0,0,1,.389.258.78767.78767,0,0,1,.117.439.82229.82229,0,0,1-.053.298m.924,2.732c-.009-.033-.029-.09-.061-.172l-.397-.974c-.045-.112-.091-.212-.137-.301a1.58889,1.58889,0,0,0-.145-.236.99938.99938,0,0,0-.166-.176.82674.82674,0,0,0-.198-.121,1.76489,1.76489,0,0,0,.352-.168,1.13325,1.13325,0,0,0,.27-.234.97387.97387,0,0,0,.173-.311,1.22817,1.22817,0,0,0,.06-.398,1.26964,1.26964,0,0,0-.067-.419.97594.97594,0,0,0-.2-.337,1.09371,1.09371,0,0,0-.33-.242,1.661,1.661,0,0,0-.453-.14c-.059-.007-.126-.013-.2-.019s-.167-.009-.278-.009h-.94a.24459.24459,0,0,0-.149.053.22108.22108,0,0,0-.07.187v4.094a.08478.08478,0,0,0,.014.048.0894.0894,0,0,0,.048.033.53807.53807,0,0,0,.09.02,1.12348,1.12348,0,0,0,.284,0,.50133.50133,0,0,0,.089-.02.10829.10829,0,0,0,.048-.033.07839.07839,0,0,0,.015-.048v-1.883h.393a.888.888,0,0,1,.345.06.76668.76668,0,0,1,.25.167,1.099,1.099,0,0,1,.183.257c.051.099.101.208.148.326l.407,1.043a.25353.25353,0,0,0,.033.068.12762.12762,0,0,0,.053.043.33754.33754,0,0,0,.09.022,1.3871,1.3871,0,0,0,.145.007c.069,0,.123-.003.164-.007a.40994.40994,0,0,0,.096-.021.07915.07915,0,0,0,.045-.034.11716.11716,0,0,0,.01-.048.324.324,0,0,0-.014-.077m-3.856-.191a.2205.2205,0,0,0-.024-.075.12.12,0,0,0-.04-.043.09056.09056,0,0,0-.049-.014h-1.754v-1.582h1.484a.09871.09871,0,0,0,.049-.012.09522.09522,0,0,0,.038-.039.21848.21848,0,0,0,.022-.072.65556.65556,0,0,0,.007-.106.751.751,0,0,0-.007-.113.20917.20917,0,0,0-.022-.075.12309.12309,0,0,0-.038-.043.08356.08356,0,0,0-.049-.015h-1.484v-1.388h1.73a.088.088,0,0,0,.05-.014.09884.09884,0,0,0,.035-.042.35224.35224,0,0,0,.023-.075.681.681,0,0,0,.008-.108.72938.72938,0,0,0-.008-.115.39392.39392,0,0,0-.023-.077.09934.09934,0,0,0-.035-.044.09652.09652,0,0,0-.05-.014h-2.099a.24184.24184,0,0,0-.148.053.22108.22108,0,0,0-.07.187v3.944a.2177.2177,0,0,0,.07.186.23589.23589,0,0,0,.148.053h2.123a.08987.08987,0,0,0,.049-.013.1274.1274,0,0,0,.04-.045.24085.24085,0,0,0,.024-.077.82215.82215,0,0,0,.007-.107.89507.89507,0,0,0-.007-.115m-3.656-3.967a.07533.07533,0,0,0-.015-.044.10908.10908,0,0,0-.046-.036.32636.32636,0,0,0-.091-.022,1.08118,1.08118,0,0,0-.137-.007,1.16188,1.16188,0,0,0-.146.007.3474.3474,0,0,0-.09.022.1139.1139,0,0,0-.049.036.08163.08163,0,0,0-.014.044v2.4c0,.18.001.367.002.562s.004.382.008.562h-.003c-.053-.107-.106-.213-.16-.319s-.109-.214-.164-.323c-.055-.11-.112-.221-.172-.333-.059-.113-.121-.229-.185-.347l-1.037-1.942a1.49989,1.49989,0,0,0-.107-.176.5022.5022,0,0,0-.106-.109.38.38,0,0,0-.124-.057.73427.73427,0,0,0-.171-.017h-.289a.27885.27885,0,0,0-.169.058.22814.22814,0,0,0-.078.195v4.081a.07892.07892,0,0,0,.015.046.08884.08884,0,0,0,.046.035.50133.50133,0,0,0,.089.02.92173.92173,0,0,0,.142.009.93593.93593,0,0,0,.143-.009.56238.56238,0,0,0,.09-.02.09319.09319,0,0,0,.049-.035.08554.08554,0,0,0,.014-.046v-2.669c0-.169-.001-.339-.003-.509-.003-.171-.006-.339-.011-.503h.007q.093.20249.2.415.108.21448.214.409l1.349,2.516a1.83275,1.83275,0,0,0,.131.218.68972.68972,0,0,0,.124.135.3686.3686,0,0,0,.131.069.63584.63584,0,0,0,.16.018h.195a.3242.3242,0,0,0,.092-.013.23229.23229,0,0,0,.083-.045.21461.21461,0,0,0,.06-.078.27253.27253,0,0,0,.023-.116Zm-4.263,3.967a.2205.2205,0,0,0-.024-.075.12.12,0,0,0-.04-.043.09056.09056,0,0,0-.049-.014h-1.754v-1.582h1.484a.09871.09871,0,0,0,.049-.012.09522.09522,0,0,0,.038-.039.21848.21848,0,0,0,.022-.072.65556.65556,0,0,0,.007-.106.751.751,0,0,0-.007-.113.20917.20917,0,0,0-.022-.075.12309.12309,0,0,0-.038-.043.08356.08356,0,0,0-.049-.015h-1.484v-1.388h1.73a.08272.08272,0,0,0,.049-.014.094.094,0,0,0,.036-.042.35224.35224,0,0,0,.023-.075.681.681,0,0,0,.008-.108.72938.72938,0,0,0-.008-.115.39392.39392,0,0,0-.023-.077.09455.09455,0,0,0-.036-.044.09047.09047,0,0,0-.049-.014h-2.099a.24184.24184,0,0,0-.148.053.22108.22108,0,0,0-.07.187v3.944a.2177.2177,0,0,0,.07.186.23589.23589,0,0,0,.148.053h2.123a.08987.08987,0,0,0,.049-.013.1274.1274,0,0,0,.04-.045.24085.24085,0,0,0,.024-.077.8375.8375,0,0,0,.006-.107.918.918,0,0,0-.006-.115m-5.08-1.953a.39409.39409,0,0,0-.283-.079.41591.41591,0,0,0-.293.08.47386.47386,0,0,0-.08.323.45322.45322,0,0,0,.079.315.39912.39912,0,0,0,.283.078.411.411,0,0,0,.293-.08.47032.47032,0,0,0,.08-.323.45019.45019,0,0,0-.079-.314m-3.896.68h-1.538l.762-2.205h.003Zm-.352-2.687a.17985.17985,0,0,0-.038-.063.15468.15468,0,0,0-.068-.039.527.527,0,0,0-.116-.019c-.048-.003-.109-.005-.182-.005-.068,0-.124.002-.169.005a.46778.46778,0,0,0-.109.019.14482.14482,0,0,0-.065.037.17783.17783,0,0,0-.036.062l-1.483,4.108a.39484.39484,0,0,0-.029.122.08189.08189,0,0,0,.024.07.16223.16223,0,0,0,.088.032,1.21172,1.21172,0,0,0,.163.009c.063,0,.115-.003.155-.007a.33412.33412,0,0,0,.093-.022.13915.13915,0,0,0,.049-.038.16518.16518,0,0,0,.027-.053l.363-1.063h1.839l.379,1.077a.29853.29853,0,0,0,.029.051.09063.09063,0,0,0,.048.032.39913.39913,0,0,0,.096.018c.042.003.098.005.169.005.07,0,.127-.003.169-.007a.17269.17269,0,0,0,.091-.031.08414.08414,0,0,0,.025-.07.42108.42108,0,0,0-.029-.121Zm-3.072-.017a.07972.07972,0,0,0-.014-.048.0953.0953,0,0,0-.047-.032.54126.54126,0,0,0-.091-.021,1.10286,1.10286,0,0,0-.142-.008,1.04266,1.04266,0,0,0-.135.008.60929.60929,0,0,0-.092.021.10438.10438,0,0,0-.051.032.07512.07512,0,0,0-.016.048v4.245a.08478.08478,0,0,0,.014.048.0894.0894,0,0,0,.048.033.545.545,0,0,0,.092.02,1.10772,1.10772,0,0,0,.282,0,.55315.55315,0,0,0,.091-.02.09044.09044,0,0,0,.047-.033.07775.07775,0,0,0,.014-.048Zm-1.508,3.977a.2205.2205,0,0,0-.024-.075.12753.12753,0,0,0-.039-.043.09661.09661,0,0,0-.05-.014h-1.753v-1.582h1.483a.10539.10539,0,0,0,.05-.012.09978.09978,0,0,0,.037-.039.21848.21848,0,0,0,.022-.072.65556.65556,0,0,0,.007-.106.751.751,0,0,0-.007-.113.20917.20917,0,0,0-.022-.075.13151.13151,0,0,0-.037-.043.089.089,0,0,0-.05-.015h-1.483v-1.388h1.729a.088.088,0,0,0,.05-.014.10818.10818,0,0,0,.036-.042.35612.35612,0,0,0,.022-.075.681.681,0,0,0,.008-.108.72938.72938,0,0,0-.008-.115.39791.39791,0,0,0-.022-.077.10822.10822,0,0,0-.036-.044.09652.09652,0,0,0-.05-.014h-2.099a.24184.24184,0,0,0-.148.053.22108.22108,0,0,0-.07.187v3.944a.2177.2177,0,0,0,.07.186.23589.23589,0,0,0,.148.053h2.123a.09576.09576,0,0,0,.05-.013.136.136,0,0,0,.039-.045.24085.24085,0,0,0,.024-.077.82215.82215,0,0,0,.007-.107.89507.89507,0,0,0-.007-.115m-3.186-3.932a.22815.22815,0,0,0-.022-.077.10106.10106,0,0,0-.038-.043.09047.09047,0,0,0-.049-.014h-1.955a.2526.2526,0,0,0-.161.058.23754.23754,0,0,0-.072.195v4.081a.08478.08478,0,0,0,.014.048.0894.0894,0,0,0,.048.033.545.545,0,0,0,.092.02,1.12326,1.12326,0,0,0,.284,0,.57285.57285,0,0,0,.089-.02.098.098,0,0,0,.048-.033.08423.08423,0,0,0,.013-.048v-3.845h1.6a.08272.08272,0,0,0,.049-.014.10432.10432,0,0,0,.038-.042.23543.23543,0,0,0,.022-.077.75079.75079,0,0,0,.007-.113.713.713,0,0,0-.007-.109m-3.86,1.577a.79406.79406,0,0,1-.182.291.8274.8274,0,0,1-.295.189,1.22609,1.22609,0,0,1-.443.069h-.53v-1.774h.544a2.06966,2.06966,0,0,1,.309.024.84421.84421,0,0,1,.308.112.711.711,0,0,1,.249.27.92417.92417,0,0,1,.101.452,1.06664,1.06664,0,0,1-.061.367m.61-.872a1.117,1.117,0,0,0-.516-.628,1.276,1.276,0,0,0-.366-.147,2.44553,2.44553,0,0,0-.311-.052c-.088-.008-.18-.012-.275-.012h-.947a.25462.25462,0,0,0-.161.058.23754.23754,0,0,0-.072.195v4.081a.08478.08478,0,0,0,.014.048.0894.0894,0,0,0,.048.033.55315.55315,0,0,0,.091.02.90763.90763,0,0,0,.141.009.92173.92173,0,0,0,.142-.009.50133.50133,0,0,0,.089-.02.098.098,0,0,0,.048-.033.07839.07839,0,0,0,.015-.048v-1.592h.503a2.17278,2.17278,0,0,0,.706-.103,1.39007,1.39007,0,0,0,.499-.291,1.26212,1.26212,0,0,0,.312-.454,1.56163,1.56163,0,0,0,.11-.598,1.43658,1.43658,0,0,0-.07-.457m-3.568,3.227a.2205.2205,0,0,0-.024-.075.11007.11007,0,0,0-.039-.043.09661.09661,0,0,0-.05-.014h-1.753v-1.582h1.483a.10539.10539,0,0,0,.05-.012.09326.09326,0,0,0,.037-.039.21782.21782,0,0,0,.023-.072.81012.81012,0,0,0,.006-.106.92884.92884,0,0,0-.006-.113.20776.20776,0,0,0-.023-.075.12078.12078,0,0,0-.037-.043.089.089,0,0,0-.05-.015h-1.483v-1.388h1.729a.08584.08584,0,0,0,.05-.014.094.094,0,0,0,.036-.042.35612.35612,0,0,0,.022-.075.57381.57381,0,0,0,.009-.108.61613.61613,0,0,0-.009-.115.39791.39791,0,0,0-.022-.077.09028.09028,0,0,0-.086-.058h-2.098a.24459.24459,0,0,0-.149.053.22108.22108,0,0,0-.07.187v3.944a.2177.2177,0,0,0,.07.186.23857.23857,0,0,0,.149.053h2.122a.09576.09576,0,0,0,.05-.013.11677.11677,0,0,0,.039-.045.24085.24085,0,0,0,.024-.077.67713.67713,0,0,0,.007-.107.74411.74411,0,0,0-.007-.115m-3.628-3.967a.08163.08163,0,0,0-.014-.044.11275.11275,0,0,0-.047-.036.32743.32743,0,0,0-.09-.022,1.09175,1.09175,0,0,0-.137-.007,1.15141,1.15141,0,0,0-.146.007.34568.34568,0,0,0-.091.022.11019.11019,0,0,0-.048.036.07533.07533,0,0,0-.015.044v2.4c0,.18.001.367.002.562s.004.382.009.562h-.004c-.053-.107-.106-.213-.16-.319s-.109-.214-.164-.323q-.0825-.165-.171-.333c-.06-.113-.121-.229-.185-.347l-1.038-1.942a1.49989,1.49989,0,0,0-.107-.176.48029.48029,0,0,0-.106-.109.36559.36559,0,0,0-.123-.057.74649.74649,0,0,0-.171-.017h-.29a.281.281,0,0,0-.169.058.22814.22814,0,0,0-.078.195v4.081a.07892.07892,0,0,0,.015.046.09161.09161,0,0,0,.047.035.48726.48726,0,0,0,.088.02,1.13136,1.13136,0,0,0,.285,0,.56238.56238,0,0,0,.09-.02.09319.09319,0,0,0,.049-.035.07781.07781,0,0,0,.014-.046v-2.669c0-.169-.001-.339-.003-.509-.002-.171-.006-.339-.01-.503h.007q.0915.20249.2.415.1065.21448.213.409l1.349,2.516a1.83275,1.83275,0,0,0,.131.218.72193.72193,0,0,0,.124.135.3686.3686,0,0,0,.131.069.63858.63858,0,0,0,.161.018h.194a.3242.3242,0,0,0,.092-.013.22422.22422,0,0,0,.083-.045.21461.21461,0,0,0,.06-.078.25826.25826,0,0,0,.023-.116Zm-4.263,3.967a.2205.2205,0,0,0-.024-.075.11007.11007,0,0,0-.039-.043.09661.09661,0,0,0-.05-.014h-1.753v-1.582h1.483a.10539.10539,0,0,0,.05-.012.09326.09326,0,0,0,.037-.039.21782.21782,0,0,0,.023-.072.81012.81012,0,0,0,.006-.106.92884.92884,0,0,0-.006-.113.20776.20776,0,0,0-.023-.075.12078.12078,0,0,0-.037-.043.089.089,0,0,0-.05-.015h-1.483v-1.388h1.729a.08584.08584,0,0,0,.05-.014.094.094,0,0,0,.036-.042.35612.35612,0,0,0,.022-.075.58035.58035,0,0,0,.008-.108.62623.62623,0,0,0-.008-.115.39791.39791,0,0,0-.022-.077.09028.09028,0,0,0-.086-.058h-2.098a.24459.24459,0,0,0-.149.053.22108.22108,0,0,0-.07.187v3.944a.2177.2177,0,0,0,.07.186.23857.23857,0,0,0,.149.053h2.122a.09576.09576,0,0,0,.05-.013.11677.11677,0,0,0,.039-.045.24085.24085,0,0,0,.024-.077.67713.67713,0,0,0,.007-.107.74411.74411,0,0,0-.007-.115"/>
    <path class="cls-10" d="M67.8249,222.2882h-.577a1.63585,1.63585,0,0,1-.498-.06.792.792,0,0,1-.292-.165.66184.66184,0,0,1-.166-.247.8451.8451,0,0,1-.053-.3.881.881,0,0,1,.05-.299.58927.58927,0,0,1,.161-.24.77383.77383,0,0,1,.289-.157,1.83063,1.83063,0,0,1,.526-.056h.56Zm.588-1.77a.22344.22344,0,0,0-.068-.187.24306.24306,0,0,0-.15-.053h-.916a2.728,2.728,0,0,0-.809.094,1.32171,1.32171,0,0,0-.473.262,1.0278,1.0278,0,0,0-.28.398,1.337,1.337,0,0,0-.093.504,1.17957,1.17957,0,0,0,.06.386.94337.94337,0,0,0,.45.535,1.484,1.484,0,0,0,.369.142.84273.84273,0,0,0-.212.118.99941.99941,0,0,0-.178.178,1.538,1.538,0,0,0-.154.241,2.70416,2.70416,0,0,0-.136.307l-.363.94a1.19818,1.19818,0,0,0-.051.149.36907.36907,0,0,0-.01.08.08953.08953,0,0,0,.01.046.08048.08048,0,0,0,.043.033.39148.39148,0,0,0,.09.022,1.0777,1.0777,0,0,0,.157.009,1.39325,1.39325,0,0,0,.146-.007.40744.40744,0,0,0,.094-.022.12546.12546,0,0,0,.056-.043.32992.32992,0,0,0,.036-.068l.379-1.019c.046-.121.093-.23.142-.328a.93651.93651,0,0,1,.178-.251.67837.67837,0,0,1,.246-.159,1.17507,1.17507,0,0,1,.409-.055h.44v1.846a.0733.0733,0,0,0,.016.046.12169.12169,0,0,0,.048.032.35338.35338,0,0,0,.089.021,1.31794,1.31794,0,0,0,.141.007,1.33863,1.33863,0,0,0,.142-.007.39646.39646,0,0,0,.091-.021.10838.10838,0,0,0,.048-.032.07772.07772,0,0,0,.013-.046Zm-3.88-.147a.09257.09257,0,0,0-.012-.05.111.111,0,0,0-.041-.034.24133.24133,0,0,0-.079-.022.89675.89675,0,0,0-.128-.007.70666.70666,0,0,0-.113.007.46139.46139,0,0,0-.077.018.18109.18109,0,0,0-.053.031.3101.3101,0,0,0-.037.043l-1.911,2.881c-.055.08-.107.16-.156.241s-.091.15-.128.207h-.007c.007-.066.011-.134.012-.205.002-.071.002-.137.002-.198v-2.919a.07487.07487,0,0,0-.014-.045.10421.10421,0,0,0-.047-.034.35443.35443,0,0,0-.091-.02,1.12422,1.12422,0,0,0-.142-.007,1.05813,1.05813,0,0,0-.135.007.38454.38454,0,0,0-.092.02.11352.11352,0,0,0-.051.034.07092.07092,0,0,0-.016.045v4.241a.10257.10257,0,0,0,.012.052.11393.11393,0,0,0,.041.036.26873.26873,0,0,0,.079.022,1.07622,1.07622,0,0,0,.128.007c.046,0,.083-.002.113-.005a.379.379,0,0,0,.077-.018.13451.13451,0,0,0,.053-.032c.013-.014.027-.03.041-.048l1.914-2.878c.025-.038.05-.078.075-.118s.05-.079.075-.119.049-.078.07-.115q.033-.054.06-.102h.007c-.005.061-.008.13-.01.206-.003.077-.004.15-.004.221v2.902a.07837.07837,0,0,0,.014.046.10634.10634,0,0,0,.046.032.37209.37209,0,0,0,.091.021,1.42158,1.42158,0,0,0,.282,0,.39933.39933,0,0,0,.09-.021.10834.10834,0,0,0,.048-.032.07844.07844,0,0,0,.014-.046Zm-4.084-.031a.09278.09278,0,0,0-.087-.062h-2.04a.21746.21746,0,0,0-.156.06.23742.23742,0,0,0-.063.18v4.098a.07837.07837,0,0,0,.014.046.10836.10836,0,0,0,.048.032.3819.3819,0,0,0,.092.021,1.42148,1.42148,0,0,0,.282,0,.38644.38644,0,0,0,.09-.021.10836.10836,0,0,0,.048-.032.07837.07837,0,0,0,.014-.046v-3.832h1.671a.09333.09333,0,0,0,.05-.013.10573.10573,0,0,0,.037-.045.24716.24716,0,0,0,.023-.079.8809.8809,0,0,0,.007-.112.47112.47112,0,0,0-.03-.195m-3.91,1.649a.79189.79189,0,0,1-.181.291.83631.83631,0,0,1-.295.189,1.22609,1.22609,0,0,1-.443.069h-.53v-1.774h.544a2.06966,2.06966,0,0,1,.309.024.85081.85081,0,0,1,.308.112.711.711,0,0,1,.249.27.92417.92417,0,0,1,.101.452,1.06683,1.06683,0,0,1-.062.367m.61-.872a1.10657,1.10657,0,0,0-.516-.628,1.27071,1.27071,0,0,0-.365-.147,2.47479,2.47479,0,0,0-.311-.052q-.132-.012-.276-.012h-.946a.2526.2526,0,0,0-.161.058.23754.23754,0,0,0-.072.195v4.081a.08478.08478,0,0,0,.014.048.0894.0894,0,0,0,.048.033.56238.56238,0,0,0,.09.02,1.12348,1.12348,0,0,0,.284,0,.50133.50133,0,0,0,.089-.02.098.098,0,0,0,.048-.033.07839.07839,0,0,0,.015-.048v-1.592h.503a2.16641,2.16641,0,0,0,.705-.103,1.38156,1.38156,0,0,0,.499-.291,1.25212,1.25212,0,0,0,.313-.454,1.56163,1.56163,0,0,0,.11-.598,1.40873,1.40873,0,0,0-.071-.457m-3.567,3.227a.2205.2205,0,0,0-.024-.075.12753.12753,0,0,0-.039-.043.09661.09661,0,0,0-.05-.014h-1.753v-1.582h1.483a.10539.10539,0,0,0,.05-.012.09978.09978,0,0,0,.037-.039.21848.21848,0,0,0,.022-.072.65556.65556,0,0,0,.007-.106.751.751,0,0,0-.007-.113.20917.20917,0,0,0-.022-.075.13151.13151,0,0,0-.037-.043.089.089,0,0,0-.05-.015h-1.483v-1.388h1.729a.088.088,0,0,0,.05-.014.10818.10818,0,0,0,.036-.042.35612.35612,0,0,0,.022-.075.681.681,0,0,0,.008-.108.72938.72938,0,0,0-.008-.115.39791.39791,0,0,0-.022-.077.10822.10822,0,0,0-.036-.044.09652.09652,0,0,0-.05-.014h-2.099a.24184.24184,0,0,0-.148.053.22108.22108,0,0,0-.07.187v3.944a.2177.2177,0,0,0,.07.186.23589.23589,0,0,0,.148.053h2.123a.09576.09576,0,0,0,.05-.013.136.136,0,0,0,.039-.045.24085.24085,0,0,0,.024-.077.82215.82215,0,0,0,.007-.107.89507.89507,0,0,0-.007-.115m-3.63-3.977a.08717.08717,0,0,0-.014-.048.09408.09408,0,0,0-.048-.032.52651.52651,0,0,0-.09-.021,1.24631,1.24631,0,0,0-.282,0,.53571.53571,0,0,0-.089.021.09408.09408,0,0,0-.048.032.08717.08717,0,0,0-.014.048v1.771h-2.013v-1.771a.08647.08647,0,0,0-.013-.048.10373.10373,0,0,0-.048-.032.54126.54126,0,0,0-.091-.021,1.09156,1.09156,0,0,0-.142-.008,1.11511,1.11511,0,0,0-.14.008.53286.53286,0,0,0-.092.021.09408.09408,0,0,0-.048.032.08717.08717,0,0,0-.014.048v4.245a.08478.08478,0,0,0,.014.048.0894.0894,0,0,0,.048.033.545.545,0,0,0,.092.02.93939.93939,0,0,0,.14.009.92173.92173,0,0,0,.142-.009.55315.55315,0,0,0,.091-.02.098.098,0,0,0,.048-.033.08423.08423,0,0,0,.013-.048v-1.962h2.013v1.962a.08478.08478,0,0,0,.014.048.0894.0894,0,0,0,.048.033.547.547,0,0,0,.089.02,1.10756,1.10756,0,0,0,.282,0,.53807.53807,0,0,0,.09-.02.0894.0894,0,0,0,.048-.033.08478.08478,0,0,0,.014-.048Zm-4.106,3.977a.2205.2205,0,0,0-.024-.075.11812.11812,0,0,0-.039-.043.09661.09661,0,0,0-.05-.014h-1.753v-1.582h1.483a.10539.10539,0,0,0,.05-.012.09978.09978,0,0,0,.037-.039.21848.21848,0,0,0,.022-.072.65556.65556,0,0,0,.007-.106.751.751,0,0,0-.007-.113.20917.20917,0,0,0-.022-.075.13151.13151,0,0,0-.037-.043.089.089,0,0,0-.05-.015h-1.483v-1.388h1.729a.088.088,0,0,0,.05-.014.10059.10059,0,0,0,.036-.042.35612.35612,0,0,0,.022-.075.681.681,0,0,0,.008-.108.72938.72938,0,0,0-.008-.115.39791.39791,0,0,0-.022-.077.10089.10089,0,0,0-.036-.044.09652.09652,0,0,0-.05-.014h-2.098a.24459.24459,0,0,0-.149.053.22108.22108,0,0,0-.07.187v3.944a.2177.2177,0,0,0,.07.186.23857.23857,0,0,0,.149.053h2.122a.09576.09576,0,0,0,.05-.013.12563.12563,0,0,0,.039-.045.24085.24085,0,0,0,.024-.077.82215.82215,0,0,0,.007-.107.89507.89507,0,0,0-.007-.115m-5.079-1.953a.39694.39694,0,0,0-.284-.079.413.413,0,0,0-.292.08.46776.46776,0,0,0-.081.323.45851.45851,0,0,0,.079.315.40034.40034,0,0,0,.284.078.40982.40982,0,0,0,.292-.08.47032.47032,0,0,0,.08-.323.45616.45616,0,0,0-.078-.314m-3.897.68h-1.538l.762-2.205h.004Zm-.352-2.687a.17985.17985,0,0,0-.038-.063.14915.14915,0,0,0-.068-.039.51676.51676,0,0,0-.116-.019c-.048-.003-.108-.005-.181-.005-.069,0-.125.002-.17.005a.47778.47778,0,0,0-.109.019.15057.15057,0,0,0-.065.037.17783.17783,0,0,0-.036.062l-1.483,4.108a.42624.42624,0,0,0-.029.122.08826.08826,0,0,0,.024.07.1628.1628,0,0,0,.089.032,1.18532,1.18532,0,0,0,.162.009,1.54417,1.54417,0,0,0,.155-.007.33412.33412,0,0,0,.093-.022.13915.13915,0,0,0,.049-.038.16671.16671,0,0,0,.028-.053l.362-1.063h1.839l.379,1.077a.29853.29853,0,0,0,.029.051.09476.09476,0,0,0,.048.032.40963.40963,0,0,0,.096.018c.042.003.098.005.169.005s.127-.003.169-.007a.1694.1694,0,0,0,.091-.031.08121.08121,0,0,0,.025-.07.39.39,0,0,0-.029-.121Zm-3.072-.017a.08647.08647,0,0,0-.013-.048.09408.09408,0,0,0-.048-.032.54126.54126,0,0,0-.091-.021,1.09156,1.09156,0,0,0-.142-.008,1.04266,1.04266,0,0,0-.135.008.60929.60929,0,0,0-.092.021.10438.10438,0,0,0-.051.032.08137.08137,0,0,0-.016.048v4.245a.08478.08478,0,0,0,.014.048.0894.0894,0,0,0,.048.033.56849.56849,0,0,0,.092.02.93939.93939,0,0,0,.14.009.92173.92173,0,0,0,.142-.009.55315.55315,0,0,0,.091-.02.0894.0894,0,0,0,.048-.033.08423.08423,0,0,0,.013-.048Zm-1.731.345a.23438.23438,0,0,0-.061-.102.91536.91536,0,0,0-.162-.115,1.67462,1.67462,0,0,0-.291-.13,3.24663,3.24663,0,0,0-.395-.104,2.46548,2.46548,0,0,0-.475-.044,2.3377,2.3377,0,0,0-.897.166,2.00163,2.00163,0,0,0-.694.466,2.09784,2.09784,0,0,0-.448.728,2.9346,2.9346,0,0,0-.012,1.87,1.981,1.981,0,0,0,.426.704,1.87025,1.87025,0,0,0,.682.453,2.48128,2.48128,0,0,0,.916.159,2.94787,2.94787,0,0,0,.677-.082,3.38557,3.38557,0,0,0,.324-.099,2.68035,2.68035,0,0,0,.257-.108.2678.2678,0,0,0,.13-.115.36.36,0,0,0,.03-.153v-1.685a.31015.31015,0,0,0-.017-.11.168.168,0,0,0-.048-.075.20652.20652,0,0,0-.068-.041.22092.22092,0,0,0-.075-.014h-1.405a.08791.08791,0,0,0-.051.014.10492.10492,0,0,0-.036.043.22267.22267,0,0,0-.022.075.71442.71442,0,0,0-.007.111.41616.41616,0,0,0,.029.181.09178.09178,0,0,0,.087.058h1.025v1.289a1.542,1.542,0,0,1-.391.148,1.75556,1.75556,0,0,1-.415.05,1.691,1.691,0,0,1-.634-.116,1.3696,1.3696,0,0,1-.498-.342,1.603,1.603,0,0,1-.326-.554,2.40248,2.40248,0,0,1-.01-1.456,1.66143,1.66143,0,0,1,.309-.56,1.39637,1.39637,0,0,1,.492-.369,1.55845,1.55845,0,0,1,.657-.134,1.9275,1.9275,0,0,1,.531.065,2.465,2.465,0,0,1,.385.144,2.16178,2.16178,0,0,1,.256.143.30008.30008,0,0,0,.137.065.08041.08041,0,0,0,.044-.013.10256.10256,0,0,0,.034-.047.34651.34651,0,0,0,.021-.082.9412.9412,0,0,0,.007-.114.60219.60219,0,0,0-.018-.168m-5.066,1.091a.60853.60853,0,0,1-.166.237.7855.7855,0,0,1-.282.158,1.28905,1.28905,0,0,1-.401.056h-.575v-1.49h.496c.116,0,.21.003.282.01a1.11676,1.11676,0,0,1,.193.034.66549.66549,0,0,1,.39.258.79559.79559,0,0,1,.116.439.82229.82229,0,0,1-.053.298m.925,2.732c-.01-.033-.03-.09-.062-.172l-.396-.974c-.046-.112-.092-.212-.137-.301a1.67716,1.67716,0,0,0-.145-.236,1.07878,1.07878,0,0,0-.166-.176.86792.86792,0,0,0-.198-.121,1.79169,1.79169,0,0,0,.352-.168,1.17355,1.17355,0,0,0,.27-.234.97159.97159,0,0,0,.172-.311,1.22817,1.22817,0,0,0,.06-.398,1.2442,1.2442,0,0,0-.067-.419.97594.97594,0,0,0-.2-.337,1.07676,1.07676,0,0,0-.329-.242,1.661,1.661,0,0,0-.453-.14c-.06-.007-.126-.013-.2-.019s-.167-.009-.279-.009h-.94a.24184.24184,0,0,0-.148.053.22139.22139,0,0,0-.071.187v4.094a.08478.08478,0,0,0,.014.048.0894.0894,0,0,0,.048.033.55315.55315,0,0,0,.091.02.90763.90763,0,0,0,.141.009.92173.92173,0,0,0,.142-.009.50133.50133,0,0,0,.089-.02.098.098,0,0,0,.048-.033.07839.07839,0,0,0,.015-.048v-1.883h.393a.89678.89678,0,0,1,.346.06.76237.76237,0,0,1,.249.167,1.04369,1.04369,0,0,1,.183.257c.051.099.101.208.149.326l.406,1.043a.28744.28744,0,0,0,.033.068.12762.12762,0,0,0,.053.043.34781.34781,0,0,0,.09.022,1.39346,1.39346,0,0,0,.146.007c.068,0,.123-.003.164-.007a.40994.40994,0,0,0,.096-.021.08.08,0,0,0,.044-.034.103.103,0,0,0,.01-.048.31225.31225,0,0,0-.013-.077m-3.857-.191a.2205.2205,0,0,0-.024-.075.11007.11007,0,0,0-.039-.043.09661.09661,0,0,0-.05-.014h-1.753v-1.582h1.483a.10539.10539,0,0,0,.05-.012.09326.09326,0,0,0,.037-.039.21782.21782,0,0,0,.023-.072.81012.81012,0,0,0,.006-.106.92884.92884,0,0,0-.006-.113.20776.20776,0,0,0-.023-.075.12078.12078,0,0,0-.037-.043.089.089,0,0,0-.05-.015h-1.483v-1.388h1.729a.08584.08584,0,0,0,.05-.014.094.094,0,0,0,.036-.042.35612.35612,0,0,0,.022-.075.57381.57381,0,0,0,.009-.108.61613.61613,0,0,0-.009-.115.39791.39791,0,0,0-.022-.077.09028.09028,0,0,0-.086-.058h-2.098a.24459.24459,0,0,0-.149.053.22108.22108,0,0,0-.07.187v3.944a.2177.2177,0,0,0,.07.186.23857.23857,0,0,0,.149.053h2.122a.09576.09576,0,0,0,.05-.013.11677.11677,0,0,0,.039-.045.24085.24085,0,0,0,.024-.077.67713.67713,0,0,0,.007-.107.74411.74411,0,0,0-.007-.115m-3.656-3.967a.08163.08163,0,0,0-.014-.044.11275.11275,0,0,0-.047-.036.32743.32743,0,0,0-.09-.022,1.09175,1.09175,0,0,0-.137-.007,1.15141,1.15141,0,0,0-.146.007.34568.34568,0,0,0-.091.022.11019.11019,0,0,0-.048.036.07533.07533,0,0,0-.015.044v2.4c0,.18.001.367.002.562s.004.382.009.562h-.004c-.053-.107-.106-.213-.16-.319s-.109-.214-.164-.323q-.0825-.165-.171-.333c-.06-.113-.121-.229-.185-.347l-1.038-1.942a1.49989,1.49989,0,0,0-.107-.176.48029.48029,0,0,0-.106-.109.36559.36559,0,0,0-.123-.057.74649.74649,0,0,0-.171-.017h-.29a.281.281,0,0,0-.169.058.22814.22814,0,0,0-.078.195v4.081a.07892.07892,0,0,0,.015.046.09161.09161,0,0,0,.047.035.48726.48726,0,0,0,.088.02,1.13136,1.13136,0,0,0,.285,0,.56238.56238,0,0,0,.09-.02.09319.09319,0,0,0,.049-.035.07781.07781,0,0,0,.014-.046v-2.669c0-.169-.001-.339-.003-.509-.002-.171-.006-.339-.01-.503h.007q.0915.20249.2.415.1065.21448.213.409l1.349,2.516a1.83275,1.83275,0,0,0,.131.218.72193.72193,0,0,0,.124.135.3686.3686,0,0,0,.131.069.63858.63858,0,0,0,.161.018h.194a.3242.3242,0,0,0,.092-.013.22422.22422,0,0,0,.083-.045.21461.21461,0,0,0,.06-.078.25826.25826,0,0,0,.023-.116Zm-4.263,3.967a.2205.2205,0,0,0-.024-.075.11007.11007,0,0,0-.039-.043.09661.09661,0,0,0-.05-.014h-1.753v-1.582h1.483a.10539.10539,0,0,0,.05-.012.09326.09326,0,0,0,.037-.039.21782.21782,0,0,0,.023-.072.81012.81012,0,0,0,.006-.106.92884.92884,0,0,0-.006-.113.20776.20776,0,0,0-.023-.075.12078.12078,0,0,0-.037-.043.089.089,0,0,0-.05-.015h-1.483v-1.388h1.729a.08584.08584,0,0,0,.05-.014.094.094,0,0,0,.036-.042.35612.35612,0,0,0,.022-.075.58035.58035,0,0,0,.008-.108.62623.62623,0,0,0-.008-.115.39791.39791,0,0,0-.022-.077.09028.09028,0,0,0-.086-.058h-2.098a.24459.24459,0,0,0-.149.053.22108.22108,0,0,0-.07.187v3.944a.2177.2177,0,0,0,.07.186.23857.23857,0,0,0,.149.053h2.122a.09576.09576,0,0,0,.05-.013.11677.11677,0,0,0,.039-.045.24085.24085,0,0,0,.024-.077.67713.67713,0,0,0,.007-.107.74411.74411,0,0,0-.007-.115"/>
    <path class="cls-9" d="M18.8555,288.5366c-.229.001-5.6.083-5.6,5.599v17.687c.001.228.083,5.599,5.599,5.599h132.37c.227-.001,5.598-.083,5.598-5.599v-17.687c-.001-.228-.083-5.599-5.598-5.599H18.8555Z"/>
    <rect class="cls-7" x="67.653" y="290.51701" width="35.066" height="24.762"/>
    <rect class="cls-5" x="77.82001" y="312.096" width="15.341" height="1.549"/>
    <rect class="cls-5" x="76.32" y="313.311" width="18.341" height="0.565"/>
    <rect class="cls-11" x="70.106" y="293.426" width="30.769" height="18.496"/>
    <rect class="cls-12" x="71.552" y="294.849" width="27.876" height="15.651"/>
    <line class="cls-13" x1="73.8212" y1="308.5909" x2="97.16019" y2="296.7569"/>
    <polygon class="cls-7" points="97.171 298.749 96.457 298.516 97.007 296.834 95.326 296.285 95.56 295.571 97.953 296.354 97.171 298.749"/>
    <polygon class="cls-7" points="73.81 306.599 74.523 306.832 73.973 308.514 75.655 309.063 75.421 309.777 73.027 308.994 73.81 306.599"/>
    <path class="cls-14" d="M95.3923,216.4356c-.529.004-5.101.183-5.101,5.099v55.834c.004.518.179,5.098,5.099,5.098h55.834c.518-.003,5.098-.178,5.098-5.098v-55.834c-.003-.519-.178-5.099-5.098-5.099Z"/>
    <path class="cls-9" d="M57.1233,249.9513c-.229.001-5.6.083-5.6,5.599v21.818c.001.228.083,5.599,5.599,5.599h21.818c.228-.001,5.599-.083,5.599-5.599v-21.818c-.001-.228-.083-5.599-5.599-5.599H57.1233Z"/>
    <path class="cls-10" d="M135.22269,309.08121a3.85034,3.85034,0,0,0-.088-.889,1.73473,1.73473,0,0,0-.293-.642,1.45927,1.45927,0,0,0-.534-.438,1.82761,1.82761,0,0,0-.814-.164,1.71568,1.71568,0,0,0-.779.196,2.872,2.872,0,0,0-.768.599v-2.895a.12747.12747,0,0,0-.022-.075.16353.16353,0,0,0-.069-.054.50507.50507,0,0,0-.135-.032,1.85016,1.85016,0,0,0-.22-.011,1.8188,1.8188,0,0,0-.215.011.5431.5431,0,0,0-.137.032.12755.12755,0,0,0-.088.129v7.176a.12454.12454,0,0,0,.019.072.14524.14524,0,0,0,.069.052.5431.5431,0,0,0,.137.032,1.844,1.844,0,0,0,.215.01,1.87958,1.87958,0,0,0,.22-.01.50507.50507,0,0,0,.135-.032.16893.16893,0,0,0,.069-.052.11233.11233,0,0,0,.022-.072v-3.378a3.56194,3.56194,0,0,1,.698-.693,1.14358,1.14358,0,0,1,.666-.237,1.0211,1.0211,0,0,1,.454.097.82025.82025,0,0,1,.32.279,1.39256,1.39256,0,0,1,.188.435,2.79216,2.79216,0,0,1,.064.666v2.831a.11233.11233,0,0,0,.022.072.16893.16893,0,0,0,.069.052.505.505,0,0,0,.135.032,1.87958,1.87958,0,0,0,.22.01,1.844,1.844,0,0,0,.215-.01.49639.49639,0,0,0,.134-.032.17273.17273,0,0,0,.07-.052.118.118,0,0,0,.021-.072Zm-5.385,2.022a.50069.50069,0,0,0-.027-.129.17309.17309,0,0,0-.046-.073.1005.1005,0,0,0-.064-.021.33457.33457,0,0,0-.18.094c-.077.063-.172.132-.285.209a2.25547,2.25547,0,0,1-.4.213,1.39132,1.39132,0,0,1-.537.096,1.34941,1.34941,0,0,1-.572-.115,1.07852,1.07852,0,0,1-.422-.352,1.71044,1.71044,0,0,1-.26-.588,3.38211,3.38211,0,0,1-.089-.819,2.49423,2.49423,0,0,1,.341-1.426,1.12116,1.12116,0,0,1,.981-.492,1.48816,1.48816,0,0,1,.539.089,1.99493,1.99493,0,0,1,.39.196,3.14971,3.14971,0,0,1,.266.196.30645.30645,0,0,0,.185.089.13891.13891,0,0,0,.118-.084.62992.62992,0,0,0,.048-.292c0-.065-.001-.119-.005-.162a.54905.54905,0,0,0-.021-.115.38645.38645,0,0,0-.041-.089.67781.67781,0,0,0-.088-.102,1.2451,1.2451,0,0,0-.207-.155,1.79063,1.79063,0,0,0-.325-.162,2.44557,2.44557,0,0,0-.4-.112,2.28666,2.28666,0,0,0-.449-.043,2.46633,2.46633,0,0,0-.889.158,1.90092,1.90092,0,0,0-.714.486,2.32088,2.32088,0,0,0-.478.841,3.83625,3.83625,0,0,0-.174,1.227,3.90849,3.90849,0,0,0,.142,1.109,2.28971,2.28971,0,0,0,.413.811,1.74426,1.74426,0,0,0,.674.502,2.33189,2.33189,0,0,0,.924.172,2.45042,2.45042,0,0,0,.489-.048,2.68145,2.68145,0,0,0,.438-.126,2.21693,2.21693,0,0,0,.362-.177,1.34789,1.34789,0,0,0,.229-.167.59813.59813,0,0,0,.086-.102.43991.43991,0,0,0,.032-.081.58856.58856,0,0,0,.019-.112c.003-.045.005-.098.005-.159,0-.071-.003-.133-.008-.185m-5.076-2.028a3.821,3.821,0,0,0-.089-.883,1.73378,1.73378,0,0,0-.292-.642,1.47094,1.47094,0,0,0-.535-.438,1.82172,1.82172,0,0,0-.814-.164,1.75947,1.75947,0,0,0-.819.212,2.99115,2.99115,0,0,0-.813.669v-.639a.13882.13882,0,0,0-.019-.073.1759.1759,0,0,0-.062-.053.315.315,0,0,0-.121-.032,2.16888,2.16888,0,0,0-.395,0,.35465.35465,0,0,0-.123.032.15091.15091,0,0,0-.065.053.1608.1608,0,0,0-.016.073v4.834a.13262.13262,0,0,0,.019.072.15409.15409,0,0,0,.07.052.54309.54309,0,0,0,.137.032,1.83252,1.83252,0,0,0,.215.01,1.89131,1.89131,0,0,0,.22-.01.49639.49639,0,0,0,.134-.032.17284.17284,0,0,0,.07-.052.11851.11851,0,0,0,.022-.072v-3.378a3.56192,3.56192,0,0,1,.698-.693,1.14358,1.14358,0,0,1,.666-.237,1.02119,1.02119,0,0,1,.454.097.81749.81749,0,0,1,.319.279,1.36972,1.36972,0,0,1,.188.435,2.78529,2.78529,0,0,1,.065.666v2.831a.1181.1181,0,0,0,.021.072.17284.17284,0,0,0,.07.052.49619.49619,0,0,0,.134.032,1.89124,1.89124,0,0,0,.22.01,1.83259,1.83259,0,0,0,.215-.01.50489.50489,0,0,0,.135-.032.16886.16886,0,0,0,.069-.052.11233.11233,0,0,0,.022-.072Zm-5.771-3.934a.88883.88883,0,0,0-.862.003.58051.58051,0,0,0-.119.424.57135.57135,0,0,0,.116.416.621.621,0,0,0,.427.11.63715.63715,0,0,0,.435-.112.58523.58523,0,0,0,.118-.425.5717.5717,0,0,0-.115-.416m.013,2.049a.12745.12745,0,0,0-.021-.07.174.174,0,0,0-.07-.054.505.505,0,0,0-.135-.032,1.85016,1.85016,0,0,0-.22-.011,1.81861,1.81861,0,0,0-.215.011.54309.54309,0,0,0-.137.032.14162.14162,0,0,0-.069.054.13409.13409,0,0,0-.019.07v4.834a.12454.12454,0,0,0,.019.072.14529.14529,0,0,0,.069.052.54309.54309,0,0,0,.137.032,1.84384,1.84384,0,0,0,.215.01,1.87958,1.87958,0,0,0,.22-.01.505.505,0,0,0,.135-.032.18018.18018,0,0,0,.07-.052.1181.1181,0,0,0,.021-.072Z"/>
    <path class="cls-10" d="M46.758,309.6767a3.53652,3.53652,0,0,0-.083-.776,1.78014,1.78014,0,0,0-.279-.642,1.43119,1.43119,0,0,0-.513-.438,1.70007,1.70007,0,0,0-.784-.164,1.52343,1.52343,0,0,0-.384.051,1.77081,1.77081,0,0,0-.393.164,2.786,2.786,0,0,0-.419.296,4.81415,4.81415,0,0,0-.459.446,1.72691,1.72691,0,0,0-.215-.39,1.32876,1.32876,0,0,0-.311-.301,1.464,1.464,0,0,0-.422-.196,1.94253,1.94253,0,0,0-.54-.07,1.58561,1.58561,0,0,0-.776.213,3.13,3.13,0,0,0-.792.668v-.639a.12671.12671,0,0,0-.019-.072.164.164,0,0,0-.061-.054.31506.31506,0,0,0-.121-.032,1.80176,1.80176,0,0,0-.196-.008,1.78,1.78,0,0,0-.199.008.36737.36737,0,0,0-.124.032.1419.1419,0,0,0-.064.054.14462.14462,0,0,0-.016.072v4.834a.13017.13017,0,0,0,.019.073.15108.15108,0,0,0,.069.051.5432.5432,0,0,0,.137.032,1.81906,1.81906,0,0,0,.215.011,1.85071,1.85071,0,0,0,.22-.011.49523.49523,0,0,0,.135-.032.18949.18949,0,0,0,.07-.051.12338.12338,0,0,0,.021-.073v-3.378a4.00142,4.00142,0,0,1,.677-.693,1.01612,1.01612,0,0,1,.617-.236.89427.89427,0,0,1,.427.096.81614.81614,0,0,1,.299.28,1.38646,1.38646,0,0,1,.177.435,2.469,2.469,0,0,1,.059.558v2.938a.13017.13017,0,0,0,.019.073.14936.14936,0,0,0,.07.051.54014.54014,0,0,0,.139.032,1.8257,1.8257,0,0,0,.212.011,1.80687,1.80687,0,0,0,.215-.011.5432.5432,0,0,0,.137-.032.18705.18705,0,0,0,.073-.051.12338.12338,0,0,0,.021-.073v-3.378a4.19256,4.19256,0,0,1,.68-.693,1.00434,1.00434,0,0,1,.615-.236.91094.91094,0,0,1,.429.096.80636.80636,0,0,1,.301.28,1.27359,1.27359,0,0,1,.172.435,2.668,2.668,0,0,1,.054.558v2.938a.12338.12338,0,0,0,.021.073.17972.17972,0,0,0,.073.051.53259.53259,0,0,0,.137.032,1.85071,1.85071,0,0,0,.22.011,1.81906,1.81906,0,0,0,.215-.011.49629.49629,0,0,0,.134-.032.18949.18949,0,0,0,.07-.051.12338.12338,0,0,0,.021-.073Zm-8.393,2.135a.50074.50074,0,0,0-.027-.129.15463.15463,0,0,0-.046-.072.094.094,0,0,0-.064-.022.33455.33455,0,0,0-.18.094q-.1155.0945-.285.21a2.25632,2.25632,0,0,1-.4.212,1.39131,1.39131,0,0,1-.537.096,1.34945,1.34945,0,0,1-.572-.115,1.06879,1.06879,0,0,1-.421-.352,1.67582,1.67582,0,0,1-.261-.588,3.37675,3.37675,0,0,1-.089-.819,2.49653,2.49653,0,0,1,.341-1.426,1.12233,1.12233,0,0,1,.981-.492,1.48811,1.48811,0,0,1,.539.089,2.05174,2.05174,0,0,1,.39.196,3.14841,3.14841,0,0,1,.266.196.30643.30643,0,0,0,.185.089.13772.13772,0,0,0,.118-.084.62719.62719,0,0,0,.049-.292c0-.065-.002-.118-.006-.161a.54586.54586,0,0,0-.021-.116.34112.34112,0,0,0-.041-.088.67345.67345,0,0,0-.088-.103,1.36631,1.36631,0,0,0-.207-.155,1.72645,1.72645,0,0,0-.325-.161,2.4459,2.4459,0,0,0-.4-.113,2.28673,2.28673,0,0,0-.449-.043,2.457,2.457,0,0,0-.888.158,1.89659,1.89659,0,0,0-.715.486,2.321,2.321,0,0,0-.478.841,3.83629,3.83629,0,0,0-.174,1.227,3.90849,3.90849,0,0,0,.142,1.109,2.28975,2.28975,0,0,0,.413.811,1.74265,1.74265,0,0,0,.675.503,2.34124,2.34124,0,0,0,.923.171,2.443,2.443,0,0,0,.489-.048,2.68058,2.68058,0,0,0,.438-.126,2.21693,2.21693,0,0,0,.362-.177,1.34844,1.34844,0,0,0,.229-.167.59858.59858,0,0,0,.086-.102.45954.45954,0,0,0,.032-.08.60052.60052,0,0,0,.019-.113c.003-.045.005-.098.005-.159,0-.071-.003-.133-.008-.185"/>
    <path class="cls-10" d="M150.05119,259.3477a3.47677,3.47677,0,0,0-.083-.776,1.74655,1.74655,0,0,0-.279-.642,1.43111,1.43111,0,0,0-.513-.438,1.69728,1.69728,0,0,0-.784-.164,1.47854,1.47854,0,0,0-.384.051,1.76329,1.76329,0,0,0-.392.164,2.68936,2.68936,0,0,0-.419.296,4.91889,4.91889,0,0,0-.459.445,1.75893,1.75893,0,0,0-.215-.389,1.31344,1.31344,0,0,0-.312-.301,1.47021,1.47021,0,0,0-.421-.196,1.95233,1.95233,0,0,0-.54-.07,1.58279,1.58279,0,0,0-.776.213,3.13291,3.13291,0,0,0-.793.668v-.639a.1325.1325,0,0,0-.018-.072.17651.17651,0,0,0-.062-.054.315.315,0,0,0-.121-.032,2.43871,2.43871,0,0,0-.395,0,.3549.3549,0,0,0-.123.032.14.14,0,0,0-.065.054.14217.14217,0,0,0-.016.072v4.834a.1302.1302,0,0,0,.019.073.155.155,0,0,0,.07.051.53287.53287,0,0,0,.137.032,1.8094,1.8094,0,0,0,.215.011,1.87757,1.87757,0,0,0,.22-.011.49643.49643,0,0,0,.134-.032.18964.18964,0,0,0,.07-.051.12348.12348,0,0,0,.021-.073v-3.378a4.00142,4.00142,0,0,1,.677-.693,1.0226,1.0226,0,0,1,.618-.237.89733.89733,0,0,1,.427.097.81926.81926,0,0,1,.298.279,1.35566,1.35566,0,0,1,.177.436,2.46888,2.46888,0,0,1,.059.558v2.938a.1302.1302,0,0,0,.019.073.155.155,0,0,0,.07.051.54042.54042,0,0,0,.139.032,1.84685,1.84685,0,0,0,.213.011,1.7907,1.7907,0,0,0,.214-.011.53315.53315,0,0,0,.137-.032.17988.17988,0,0,0,.073-.051.12347.12347,0,0,0,.021-.073v-3.378a4.193,4.193,0,0,1,.68-.693,1.0104,1.0104,0,0,1,.615-.237.91547.91547,0,0,1,.43.097.81685.81685,0,0,1,.3.279,1.2874,1.2874,0,0,1,.172.436,2.668,2.668,0,0,1,.054.558v2.938a.12334.12334,0,0,0,.021.073.18715.18715,0,0,0,.073.051.54349.54349,0,0,0,.137.032,1.86555,1.86555,0,0,0,.22.011,1.80946,1.80946,0,0,0,.215-.011.49663.49663,0,0,0,.134-.032.18161.18161,0,0,0,.07-.051.12347.12347,0,0,0,.021-.073Zm-8.761-1.778a.1079.1079,0,0,0-.024-.072.21177.21177,0,0,0-.072-.054.39309.39309,0,0,0-.135-.032c-.057-.006-.129-.008-.215-.008a2.13952,2.13952,0,0,0-.217.008.43158.43158,0,0,0-.137.032.16315.16315,0,0,0-.073.054.13268.13268,0,0,0-.018.072v3.379a3.76,3.76,0,0,1-.701.692,1.13563,1.13563,0,0,1-.664.237.96421.96421,0,0,1-.451-.1.86492.86492,0,0,1-.319-.279,1.25169,1.25169,0,0,1-.188-.435,2.94709,2.94709,0,0,1-.062-.679v-2.815a.11234.11234,0,0,0-.022-.072.17832.17832,0,0,0-.072-.054.41207.41207,0,0,0-.137-.032c-.057-.006-.129-.008-.215-.008s-.158.002-.215.008a.43163.43163,0,0,0-.139.032.16315.16315,0,0,0-.073.054.12461.12461,0,0,0-.019.072v2.933a3.87317,3.87317,0,0,0,.089.894,1.76232,1.76232,0,0,0,.293.645,1.42785,1.42785,0,0,0,.534.437,1.83676,1.83676,0,0,0,.814.161,1.74661,1.74661,0,0,0,.816-.209,3.02375,3.02375,0,0,0,.817-.666v.639a.14874.14874,0,0,0,.016.073.13386.13386,0,0,0,.061.051.452.452,0,0,0,.124.032,1.55006,1.55006,0,0,0,.201.011,1.4491,1.4491,0,0,0,.191-.011.47868.47868,0,0,0,.126-.032.15522.15522,0,0,0,.067-.051.1302.1302,0,0,0,.019-.073Zm-5.688,1.885a3.82145,3.82145,0,0,0-.089-.883,1.75,1.75,0,0,0-.293-.642,1.46923,1.46923,0,0,0-.534-.438,1.82461,1.82461,0,0,0-.814-.164,1.743,1.743,0,0,0-.819.213,2.97021,2.97021,0,0,0-.814.668v-.639a.1325.1325,0,0,0-.018-.072.17655.17655,0,0,0-.062-.054.31491.31491,0,0,0-.121-.032,2.43871,2.43871,0,0,0-.395,0,.3549.3549,0,0,0-.123.032.14.14,0,0,0-.065.054.14217.14217,0,0,0-.016.072v4.834a.1302.1302,0,0,0,.019.073.155.155,0,0,0,.07.051.53277.53277,0,0,0,.137.032,1.8094,1.8094,0,0,0,.215.011,1.87757,1.87757,0,0,0,.22-.011.49652.49652,0,0,0,.134-.032.18964.18964,0,0,0,.07-.051.12348.12348,0,0,0,.021-.073v-3.378a3.56352,3.56352,0,0,1,.699-.693,1.14365,1.14365,0,0,1,.666-.237,1.01685,1.01685,0,0,1,.453.097.82148.82148,0,0,1,.32.279,1.38846,1.38846,0,0,1,.188.436,2.78092,2.78092,0,0,1,.064.666v2.83a.12383.12383,0,0,0,.022.073.18136.18136,0,0,0,.07.051.49672.49672,0,0,0,.134.032,1.86543,1.86543,0,0,0,.22.011,1.80915,1.80915,0,0,0,.215-.011.49643.49643,0,0,0,.134-.032.17408.17408,0,0,0,.07-.051.124.124,0,0,0,.022-.073Zm-5.735,0a3.82509,3.82509,0,0,0-.088-.883,1.74968,1.74968,0,0,0-.293-.642,1.46911,1.46911,0,0,0-.534-.438,1.82466,1.82466,0,0,0-.814-.164,1.743,1.743,0,0,0-.819.213,2.97009,2.97009,0,0,0-.814.668v-.639a.12461.12461,0,0,0-.019-.072.16414.16414,0,0,0-.061-.054.315.315,0,0,0-.121-.032,1.80143,1.80143,0,0,0-.196-.008,1.78,1.78,0,0,0-.199.008.36728.36728,0,0,0-.124.032.12311.12311,0,0,0-.08.126v4.834a.1302.1302,0,0,0,.019.073.14942.14942,0,0,0,.07.051.53455.53455,0,0,0,.136.032,1.82149,1.82149,0,0,0,.215.011,1.884,1.884,0,0,0,.221-.011.49672.49672,0,0,0,.134-.032.18959.18959,0,0,0,.07-.051.1234.1234,0,0,0,.021-.073v-3.378a3.58964,3.58964,0,0,1,.698-.693,1.14365,1.14365,0,0,1,.666-.237,1.02124,1.02124,0,0,1,.454.097.8286.8286,0,0,1,.32.279,1.38846,1.38846,0,0,1,.188.436,2.78078,2.78078,0,0,1,.064.666v2.83a.11727.11727,0,0,0,.022.073.17408.17408,0,0,0,.07.051.49643.49643,0,0,0,.134.032,1.86519,1.86519,0,0,0,.22.011,1.8094,1.8094,0,0,0,.215-.011.49682.49682,0,0,0,.134-.032.18136.18136,0,0,0,.07-.051.12334.12334,0,0,0,.021-.073Zm-6.62,1.773a2.78,2.78,0,0,1-.626.542,1.24293,1.24293,0,0,1-.647.178.944.944,0,0,1-.668-.223.779.779,0,0,1-.239-.599.86709.86709,0,0,1,.083-.39.75977.75977,0,0,1,.26-.29,1.3135,1.3135,0,0,1,.446-.182,2.86423,2.86423,0,0,1,.634-.062h.757Zm.881-2.079a2.73724,2.73724,0,0,0-.102-.789,1.333,1.333,0,0,0-.328-.567,1.42423,1.42423,0,0,0-.59-.346,2.89828,2.89828,0,0,0-.887-.119,3.01739,3.01739,0,0,0-.553.051,3.826,3.826,0,0,0-.505.129,2.81545,2.81545,0,0,0-.408.172,1.23081,1.23081,0,0,0-.25.164.30735.30735,0,0,0-.091.148.91183.91183,0,0,0-.019.212.95979.95979,0,0,0,.011.148.33909.33909,0,0,0,.035.11.18735.18735,0,0,0,.056.064.12962.12962,0,0,0,.075.022.44824.44824,0,0,0,.196-.078c.088-.052.197-.109.328-.172a3.1178,3.1178,0,0,1,.457-.172,2.04245,2.04245,0,0,1,.588-.078,1.56492,1.56492,0,0,1,.515.073.8081.8081,0,0,1,.341.215.8351.8351,0,0,1,.191.357,1.88435,1.88435,0,0,1,.059.494v.376h-.666a4.75214,4.75214,0,0,0-1.015.099,2.35711,2.35711,0,0,0-.763.298,1.39189,1.39189,0,0,0-.478.5,1.44022,1.44022,0,0,0-.166.709,1.52207,1.52207,0,0,0,.121.623,1.29323,1.29323,0,0,0,.338.462,1.491,1.491,0,0,0,.526.287,2.25675,2.25675,0,0,0,.691.099,1.86263,1.86263,0,0,0,.824-.188,2.363,2.363,0,0,0,.706-.526v.483a.12076.12076,0,0,0,.038.097.24965.24965,0,0,0,.121.048,1.18733,1.18733,0,0,0,.223.017,1.09508,1.09508,0,0,0,.22-.017.28584.28584,0,0,0,.118-.048.11225.11225,0,0,0,.043-.097Zm-4.178-4.227a.22218.22218,0,0,0,.016-.123.12993.12993,0,0,0-.059-.086.38086.38086,0,0,0-.135-.051,1.0196,1.0196,0,0,0-.22-.019c-.075,0-.139.003-.193.008a.399.399,0,0,0-.132.032.26454.26454,0,0,0-.086.065.29041.29041,0,0,0-.056.11l-3.25,8.91a.20076.20076,0,0,0-.021.121.14.14,0,0,0,.059.086.37569.37569,0,0,0,.137.054,1.13575,1.13575,0,0,0,.223.019,1.45962,1.45962,0,0,0,.191-.011.58458.58458,0,0,0,.131-.032.23789.23789,0,0,0,.089-.062.30641.30641,0,0,0,.056-.11Zm-4.878,4.539a3.85078,3.85078,0,0,0-.088-.889,1.75017,1.75017,0,0,0-.293-.642,1.46439,1.46439,0,0,0-.535-.438,1.82015,1.82015,0,0,0-.813-.164,1.71586,1.71586,0,0,0-.779.196,2.87182,2.87182,0,0,0-.768.599v-2.895a.12966.12966,0,0,0-.022-.075.16364.16364,0,0,0-.069-.054.50527.50527,0,0,0-.135-.032,1.85284,1.85284,0,0,0-.22-.011,1.809,1.809,0,0,0-.215.011.54352.54352,0,0,0-.137.032.14993.14993,0,0,0-.07.054.15413.15413,0,0,0-.018.075v7.176a.13867.13867,0,0,0,.018.073.16081.16081,0,0,0,.07.051.54348.54348,0,0,0,.137.032,1.80927,1.80927,0,0,0,.215.011,1.85315,1.85315,0,0,0,.22-.011.50523.50523,0,0,0,.135-.032.17713.17713,0,0,0,.069-.051.11727.11727,0,0,0,.022-.073v-3.378a3.56191,3.56191,0,0,1,.698-.693,1.14365,1.14365,0,0,1,.666-.237,1.02132,1.02132,0,0,1,.454.097.82867.82867,0,0,1,.32.279,1.38846,1.38846,0,0,1,.188.436,2.78085,2.78085,0,0,1,.064.666v2.83a.12341.12341,0,0,0,.021.073.18951.18951,0,0,0,.07.051.50513.50513,0,0,0,.135.032,1.85309,1.85309,0,0,0,.22.011,1.82155,1.82155,0,0,0,.215-.011.49644.49644,0,0,0,.134-.032.18964.18964,0,0,0,.07-.051.12341.12341,0,0,0,.021-.073Zm-5.328-3.54a1.31276,1.31276,0,0,0,.029-.193.131.131,0,0,0-.04-.108.26932.26932,0,0,0-.137-.051,1.90772,1.90772,0,0,0-.255-.013,2.34262,2.34262,0,0,0-.25.011.55424.55424,0,0,0-.145.032.11468.11468,0,0,0-.067.062.849.849,0,0,0-.032.094l-1.531,5.817h-.011l-1.595-5.812a.41607.41607,0,0,0-.04-.099.15851.15851,0,0,0-.078-.062.59958.59958,0,0,0-.143-.032,2.10589,2.10589,0,0,0-.239-.011,2.55577,2.55577,0,0,0-.26.011.60813.60813,0,0,0-.153.032.1501.1501,0,0,0-.078.062.37749.37749,0,0,0-.04.099l-1.483,5.812h-.005l-1.563-5.823a.33986.33986,0,0,0-.03-.096.12725.12725,0,0,0-.07-.059.469.469,0,0,0-.147-.03c-.065-.005-.153-.008-.263-.008-.115,0-.206.004-.274.011a.27939.27939,0,0,0-.148.048.12224.12224,0,0,0-.043.107.95625.95625,0,0,0,.035.194l1.837,6.418a.2616.2616,0,0,0,.056.121.24583.24583,0,0,0,.116.07.90763.90763,0,0,0,.193.035c.079.007.177.011.295.011.115,0,.209-.004.282-.011a.78469.78469,0,0,0,.18-.035.22866.22866,0,0,0,.108-.07.27009.27009,0,0,0,.053-.121l1.343-5.247h.011l1.456,5.247a.3255.3255,0,0,0,.059.121.22744.22744,0,0,0,.112.07.92346.92346,0,0,0,.191.035c.077.007.171.011.282.011.107,0,.198-.004.271-.011a.90844.90844,0,0,0,.186-.035.26921.26921,0,0,0,.118-.07.29038.29038,0,0,0,.064-.121Zm-9.623,6.373a1.17479,1.17479,0,0,0-.099-.148l-1.966-2.551,1.751-1.751a.73276.73276,0,0,0,.115-.15.26114.26114,0,0,0,.035-.129.12109.12109,0,0,0-.024-.078.16455.16455,0,0,0-.081-.048.60406.60406,0,0,0-.147-.027c-.061-.006-.136-.008-.226-.008-.086,0-.159.002-.22.008a.62875.62875,0,0,0-.159.032.477.477,0,0,0-.115.059.44757.44757,0,0,0-.091.089l-1.826,2.008v-4.372a.13751.13751,0,0,0-.022-.075.16736.16736,0,0,0-.07-.054.49666.49666,0,0,0-.134-.032,1.86482,1.86482,0,0,0-.22-.011,1.80888,1.80888,0,0,0-.215.011.54363.54363,0,0,0-.137.032.14993.14993,0,0,0-.07.054.15455.15455,0,0,0-.019.075v7.176a.13877.13877,0,0,0,.019.073.16081.16081,0,0,0,.07.051.54358.54358,0,0,0,.137.032,1.80915,1.80915,0,0,0,.215.011,1.86512,1.86512,0,0,0,.22-.011.49661.49661,0,0,0,.134-.032.18156.18156,0,0,0,.07-.051.12389.12389,0,0,0,.022-.073v-2.68l2.041,2.675a.38766.38766,0,0,0,.072.083.28846.28846,0,0,0,.105.054.93585.93585,0,0,0,.158.027c.063.005.143.008.239.008a2.0762,2.0762,0,0,0,.231-.011.56659.56659,0,0,0,.143-.032.1622.1622,0,0,0,.072-.054.13742.13742,0,0,0,.022-.075.2281.2281,0,0,0-.03-.105"/>
    <path class="cls-10" d="M78.32309,274.8989a.87672.87672,0,0,0-.024-.102.09791.09791,0,0,0-.035-.051.10293.10293,0,0,0-.054-.013.2537.2537,0,0,0-.094.024q-.057.024-.132.051a1.70515,1.70515,0,0,1-.174.051.93338.93338,0,0,1-.218.024.55262.55262,0,0,1-.526-.255,1.5583,1.5583,0,0,1-.145-.755v-2.696h1.241a.14147.14147,0,0,0,.123-.086.60113.60113,0,0,0,.048-.279,1.19753,1.19753,0,0,0-.01-.172.391.391,0,0,0-.035-.115.15407.15407,0,0,0-.057-.065.149.149,0,0,0-.075-.019h-1.235v-1.38a.12537.12537,0,0,0-.022-.075.13434.13434,0,0,0-.072-.051.70641.70641,0,0,0-.137-.033,1.78438,1.78438,0,0,0-.43,0,.70629.70629,0,0,0-.137.033.13437.13437,0,0,0-.072.051.12536.12536,0,0,0-.022.075v1.38h-2.401v-1.149a.12743.12743,0,0,0-.021-.07.17823.17823,0,0,0-.07-.056.4221.4221,0,0,0-.134-.035,1.8726,1.8726,0,0,0-.22-.011,1.80448,1.80448,0,0,0-.215.011.45158.45158,0,0,0-.137.035.15314.15314,0,0,0-.07.056.13405.13405,0,0,0-.019.07v1.149h-.671a.16652.16652,0,0,0-.078.019.14185.14185,0,0,0-.057.065.46482.46482,0,0,0-.034.115.92571.92571,0,0,0-.014.172.60082.60082,0,0,0,.048.279.14725.14725,0,0,0,.129.086h.677v2.825a2.99593,2.99593,0,0,0,.078.728,1.23214,1.23214,0,0,0,.25.51,1.0287,1.0287,0,0,0,.44.301,2.08059,2.08059,0,0,0,.892.083c.082-.01.159-.024.231-.04a1.09867,1.09867,0,0,0,.188-.059.465.465,0,0,0,.121-.07.26475.26475,0,0,0,.059-.07.30088.30088,0,0,0,.027-.08c.005-.031.009-.064.013-.1.003-.035.005-.084.005-.145a1.03844,1.03844,0,0,0-.01-.161.68839.68839,0,0,0-.025-.102.08976.08976,0,0,0-.037-.051.10191.10191,0,0,0-.051-.013.24153.24153,0,0,0-.097.024q-.054.024-.129.051a1.73292,1.73292,0,0,1-.172.051.91482.91482,0,0,1-.22.024.55866.55866,0,0,1-.529-.255,1.54283,1.54283,0,0,1-.148-.755v-2.696h2.401v2.825a2.88934,2.88934,0,0,0,.081.728,1.28274,1.28274,0,0,0,.25.51,1.007,1.007,0,0,0,.437.301,2.09344,2.09344,0,0,0,.895.083,1.98313,1.98313,0,0,0,.236-.043,1.06673,1.06673,0,0,0,.191-.064.48959.48959,0,0,0,.126-.081.25716.25716,0,0,0,.067-.131,1.11629,1.11629,0,0,0,.021-.245,1.03859,1.03859,0,0,0-.01-.161m-8.197-.66a2.79876,2.79876,0,0,1-.625.542,1.24805,1.24805,0,0,1-.648.177.93946.93946,0,0,1-.668-.223.7753.7753,0,0,1-.239-.598.86709.86709,0,0,1,.083-.39.75261.75261,0,0,1,.26-.29,1.322,1.322,0,0,1,.446-.182,2.81159,2.81159,0,0,1,.634-.062h.757Zm.881-2.079a2.74924,2.74924,0,0,0-.102-.79,1.344,1.344,0,0,0-.327-.566,1.44693,1.44693,0,0,0-.591-.347,2.92934,2.92934,0,0,0-.886-.118,3.02088,3.02088,0,0,0-.554.051,3.71476,3.71476,0,0,0-.505.129,2.70836,2.70836,0,0,0-.408.172,1.18961,1.18961,0,0,0-.25.164.3105.3105,0,0,0-.091.148.964.964,0,0,0-.019.212.94489.94489,0,0,0,.011.147.33713.33713,0,0,0,.035.111.18739.18739,0,0,0,.056.064.13774.13774,0,0,0,.076.021.44743.44743,0,0,0,.196-.077c.087-.052.197-.11.327-.172a3.1178,3.1178,0,0,1,.457-.172,2.04734,2.04734,0,0,1,.588-.078,1.60437,1.60437,0,0,1,.516.072.83067.83067,0,0,1,.341.215.85072.85072,0,0,1,.19.357,1.85112,1.85112,0,0,1,.059.495v.376h-.666a4.75281,4.75281,0,0,0-1.015.099,2.34239,2.34239,0,0,0-.762.298,1.37527,1.37527,0,0,0-.478.5,1.427,1.427,0,0,0-.167.709,1.52523,1.52523,0,0,0,.121.623,1.29307,1.29307,0,0,0,.338.462,1.49581,1.49581,0,0,0,.527.287,2.25021,2.25021,0,0,0,.69.099,1.85957,1.85957,0,0,0,.824-.188,2.39669,2.39669,0,0,0,.707-.526v.483a.12168.12168,0,0,0,.037.097.25985.25985,0,0,0,.121.048,1.20081,1.20081,0,0,0,.223.016,1.10293,1.10293,0,0,0,.22-.016.29372.29372,0,0,0,.118-.048.11347.11347,0,0,0,.043-.097Zm-4.447-3.228a1.21362,1.21362,0,0,0,.03-.193.13037.13037,0,0,0-.041-.108.26207.26207,0,0,0-.137-.051,1.8876,1.8876,0,0,0-.255-.013,2.10148,2.10148,0,0,0-.25.011.525.525,0,0,0-.145.032.11471.11471,0,0,0-.067.062c-.01.026-.021.058-.032.093l-1.531,5.817h-.01l-1.596-5.811a.3522.3522,0,0,0-.04-.099.1501.1501,0,0,0-.078-.062.5459.5459,0,0,0-.142-.032,1.90237,1.90237,0,0,0-.239-.011,2.31065,2.31065,0,0,0-.261.011.57578.57578,0,0,0-.153.032.15007.15007,0,0,0-.078.062.38443.38443,0,0,0-.04.099l-1.482,5.811h-.006l-1.563-5.822a.40068.40068,0,0,0-.029-.097.1351.1351,0,0,0-.07-.059.5047.5047,0,0,0-.148-.029c-.064-.006-.152-.008-.263-.008a2.49783,2.49783,0,0,0-.274.011.28268.28268,0,0,0-.148.048.12765.12765,0,0,0-.043.107,1.03192,1.03192,0,0,0,.035.194l1.837,6.418a.26261.26261,0,0,0,.057.121.25588.25588,0,0,0,.115.07.989.989,0,0,0,.193.035c.079.007.178.01.296.01.114,0,.208-.003.282-.01a.86875.86875,0,0,0,.18-.035.23825.23825,0,0,0,.107-.07.282.282,0,0,0,.054-.121l1.343-5.247h.01l1.456,5.247a.32534.32534,0,0,0,.059.121.23816.23816,0,0,0,.113.07.98016.98016,0,0,0,.191.035c.077.007.171.01.282.01.107,0,.197-.003.271-.01a.96922.96922,0,0,0,.185-.035.27291.27291,0,0,0,.118-.07.29145.29145,0,0,0,.065-.121Z"/>
  </g>
  <line class="cls-9" x1="12.7559" y1="66.0538" x2="157.32289" y2="66.0538"/>
  <text class="cls-15" transform="translate(13.75586 327.78207)">2010/1062</text>
  <text class="cls-16" transform="translate(49.62793 327.78207)"><tspan xml:space="preserve"> - 2020 </tspan></text>
  <polygon class="cls-17" points="12.7 87.311 64.177 87.311 69.492 92.697 64.106 98.154 12.7 98.154 12.7 87.311"/>
  <polyline class="cls-18" points="19.035 100.28 70.512 100.28 75.827 105.666 70.441 111.123 12.728 111.123 12.728 100.28"/>
  <polyline class="cls-19" points="25.342 113.248 76.819 113.248 82.134 118.634 76.748 124.091 12.7 124.091 12.7 113.248"/>
  <polyline class="cls-20" points="31.535 126.217 83.012 126.217 88.327 131.603 82.941 137.06 12.728 137.06 12.728 126.217"/>
  <polyline class="cls-21" points="37.701 139.185 89.178 139.185 94.493 144.571 89.107 150.028 12.7 150.028 12.7 139.185"/>
  <polyline class="cls-22" points="43.894 152.154 95.371 152.154 100.686 157.54 95.3 162.997 12.728 162.997 12.728 152.154"/>
  <polyline class="cls-23" points="50.13 165.122 101.607 165.122 106.922 170.508 101.536 175.965 12.7 175.965 12.7 165.122"/>
  <text class="cls-24" transform="translate(14.86914 95.66)">A</text>
  <text class="cls-24" transform="translate(14.86914 108.66)">A</text>
  <text class="cls-24" transform="translate(14.86914 121.66)">A</text>
  <text class="cls-24" transform="translate(14.86914 134.66)">A</text>
  <text class="cls-24" transform="translate(14.86914 147.66)">B</text>
  <text class="cls-24" transform="translate(14.86914 160.66)">C</text>
  <text class="cls-24" transform="translate(14.86914 173.66)">D</text>
  <text class="cls-25" transform="translate(21.35645 93.22739)"><tspan class="cls-26">+</tspan><tspan x="3.2583" y="0">+</tspan></text>
  <text class="cls-25" transform="translate(27.88477 93.22739)">+</text>
  <text class="cls-25" transform="translate(21.35645 106.0726)">+</text>
  <text class="cls-25" transform="translate(24.62061 106.0726)">+</text>
  <text class="cls-25" transform="translate(21.35645 118.73178)">+</text>
  <rect class="cls-1" y="0.00299" width="170.07899" height="340.15701"/>
  <g id="rating">
    <polyline id="ratingArrow" class="cls-10" points="111.86 92.7 123.17 81.27 157.35 81.27 157.35 104.12 123.17 104.12 111.86 92.7"/>
    <text id="ratingLetter" class="cls-27" transform="translate(120.92969 96.95004)">A</text>
    <text id="ratingPlusses" class="cls-99" transform="translate(131.42969 92.70004)">+++</text>
  </g>
  <text id="watt" class="cls-28" transform="translate(68.12012 265.83969)" text-anchor="middle">X</text>
  <text id="kwhAnnum" class="cls-29" transform="translate(122.7998 252.53989)" text-anchor="middle">X</text>
  <text id="cm" class="cls-28" transform="translate(40.5 304.86996)" text-anchor="middle">X</text>
  <text id="inch" class="cls-28" transform="translate(126.65039 303.74008)" text-anchor="middle">X</text>
  <g id="powerSwitch">
    <path class="cls-9" d="M18.8556,249.9514c-.229.001-5.6.083-5.6,5.599v21.818c.001.228.083,5.599,5.599,5.599h21.818c.228-.001,5.599-.083,5.599-5.599v-21.818c-.001-.228-.083-5.599-5.599-5.599H18.8556Z"/>
    <g class="cls-30">
      <path class="cls-31" d="M29.8252,254.96091v4.918m2.697-2.652a3.8145,3.8145,0,1,1-5.395,0"/>
    </g>
    <rect class="cls-32" x="26.101" y="267.219" width="8.079" height="8.079"/>
    <g class="cls-33">
      <g class="cls-33">
        <polygon class="cls-10" points="32.784 268.302 29.366 271.714 27.468 269.821 27.468 272.099 29.366 273.998 32.784 270.58 32.784 268.302"/>
      </g>
    </g>
  </g>    
  <text id="supplierLine2" class="cls-34" transform="translate(12.8999 63.47006)">X</text>
  <text id="supplierLine1" class="cls-34" transform="translate(12.8999 54.25375)">X</text>
  <text id="modelLine2" class="cls-34" transform="translate(89.01025 63.47006)">X</text>
  <text id="modelLine1" class="cls-34" transform="translate(89.01025 54.25375)">X</text>  
</svg>
