<svg xmlns="http://www.w3.org/2000/svg" xmlns:xlink="http://www.w3.org/1999/xlink" id="Layer_1" data-name="Layer 1" width="60mm" height="120mm" viewBox="0 0 170.08 340.16" data-rating-increment="13" data-supplier-model-chars-per-row="15">
  <defs>
    <style>
      #powerSwitch {
        visibility: hidden;
      }

      #powerSwitch.hasPowerSwitch {
        visibility: visible;
      }

      .cls-1, .cls-11, .cls-13, .cls-14, .cls-3, .cls-31, .cls-32, .cls-9 {
        fill: none;
      }

      .cls-2 {
        clip-path: url(#clip-path);
      }

      .cls-11, .cls-14, .cls-3, .cls-31, .cls-9 {
        stroke: #00aeef;
      }

      .cls-3 {
        stroke-width: 2.636px;
      }

      .cls-4 {
        fill: #034ea2;
      }

      .cls-5 {
        fill: #00aeef;
      }

      .cls-6 {
        fill: #fff200;
      }

      .cls-24, .cls-25, .cls-26, .cls-27, .cls-7 {
        fill: #fff;
      }

      .cls-8 {
        clip-path: url(#clip-path-2);
      }

      .cls-10, .cls-15, .cls-16, .cls-28, .cls-29, .cls-34 {
        fill: #231f20;
      }

      .cls-11, .cls-31 {
        stroke-linecap: round;
      }

      .cls-11 {
        stroke-linejoin: round;
      }

      .cls-11, .cls-13 {
        stroke-width: 0.877px;
      }

      .cls-12 {
        fill: #6dcff6;
      }

      .cls-13 {
        stroke: #fff;
      }

      .cls-14 {
        stroke-width: 2px;
      }

      .cls-15, .cls-16 {
        font-size: 8px;
      }

      .cls-15, .cls-24, .cls-25, .cls-26, .cls-28, .cls-29 {
        font-family: Calibri-Bold, Calibri;
        font-weight: 700;
      }

      .cls-16, .cls-27, .cls-34 {
        font-family: Calibri;
      }

      .cls-17 {
        fill: #00a64f;
      }

      .cls-18 {
        fill: #4eb748;
      }

      .cls-19 {
        fill: #bed530;
      }

      .cls-20 {
        fill: #fcee21;
      }

      .cls-21 {
        fill: #fcb716;
      }

      .cls-22 {
        fill: #f36f23;
      }

      .cls-23 {
        fill: #ec2127;
      }

      .cls-24, .cls-27 {
        font-size: 10px;
      }

      .cls-25 {
        font-size: 6.413px;
      }

      .cls-26 {
        font-size: 15px;
      }

      .cls-28 {
        font-size: 14px;
      }

      .cls-29 {
        font-size: 25px;
      }

      .cls-30 {
        clip-path: url(#clip-path-4);
      }

      .cls-31 {
        stroke-width: 1.467px;
      }

      .cls-32 {
        stroke: #231f20;
        stroke-width: 1.223px;
      }

      .cls-33 {
        clip-path: url(#clip-path-5);
      }

      .cls-34 {
        font-size: 9.06989px;
      }
    </style>
    <clipPath id="clip-path">
      <rect class="cls-1" y="0.00299" width="170.07899" height="340.15701"/>
    </clipPath>
    <clipPath id="clip-path-2">
      <rect class="cls-1" x="12.756" y="12.758" width="144.567" height="32.12601"/>
    </clipPath>
    <clipPath id="clip-path-4">
      <rect class="cls-1" x="25.277" y="254.22701" width="9.095" height="10.246"/>
    </clipPath>
    <clipPath id="clip-path-5">
      <rect class="cls-1" x="27.4677" y="268.29821" width="5.32" height="5.7"/>
    </clipPath>
  </defs>
  <title>televisions-2017</title>
  <g class="cls-2">
    <path class="cls-3" d="M13.1222,7.07471c-.623.005-6.135.219-6.135,6.135v313.829c.005.623.219,6.134,6.135,6.134h143.822c.623-.005,6.135-.219,6.135-6.135l.012-313.828c-.005-.624-.219-6.135-6.134-6.135Z"/>
    <rect class="cls-4" x="12.767" y="12.83499" width="42.176" height="28.16901"/>
    <rect class="cls-5" x="56.338" y="12.83499" width="100.984" height="28.16901"/>
    <polygon class="cls-6" points="42.57 22.225 43.477 21.566 42.356 21.566 42.009 20.5 41.663 21.566 40.542 21.566 41.449 22.225 41.103 23.291 42.01 22.632 42.916 23.291 42.57 22.225"/>
    <polygon class="cls-6" points="39.041 18.845 39.947 18.186 38.826 18.186 38.48 17.12 38.133 18.186 37.014 18.186 37.919 18.845 37.573 19.911 38.48 19.252 39.386 19.911 39.041 18.845"/>
    <polygon class="cls-6" points="34.487 17.636 35.394 16.977 34.273 16.977 33.927 15.911 33.58 16.977 32.459 16.977 33.366 17.636 33.02 18.702 33.927 18.043 34.833 18.702 34.487 17.636"/>
    <polygon class="cls-6" points="29.692 18.845 30.599 18.186 29.478 18.186 29.131 17.12 28.785 18.186 27.664 18.186 28.571 18.845 28.225 19.911 29.132 19.252 30.038 19.911 29.692 18.845"/>
    <polygon class="cls-6" points="26.267 22.391 27.174 21.732 26.053 21.732 25.707 20.666 25.36 21.732 24.239 21.732 25.146 22.391 24.8 23.457 25.707 22.798 26.613 23.457 26.267 22.391"/>
    <polygon class="cls-6" points="25.173 27.049 26.08 26.39 24.959 26.39 24.612 25.324 24.266 26.39 23.145 26.39 24.052 27.049 23.706 28.115 24.613 27.456 25.519 28.115 25.173 27.049"/>
    <polygon class="cls-6" points="26.301 31.77 27.208 31.111 26.087 31.111 25.74 30.045 25.394 31.111 24.273 31.111 25.18 31.77 24.834 32.836 25.741 32.177 26.647 32.836 26.301 31.77"/>
    <polygon class="cls-6" points="29.692 35.124 30.599 34.465 29.478 34.465 29.131 33.399 28.785 34.465 27.664 34.465 28.571 35.124 28.225 36.19 29.132 35.531 30.038 36.19 29.692 35.124"/>
    <polygon class="cls-6" points="34.487 36.373 35.393 35.714 34.273 35.714 33.926 34.648 33.58 35.714 32.459 35.714 33.366 36.373 33.02 37.439 33.927 36.78 34.833 37.439 34.487 36.373"/>
    <polygon class="cls-6" points="39.152 35.107 40.059 34.448 38.938 34.448 38.591 33.382 38.245 34.448 37.124 34.448 38.031 35.107 37.685 36.173 38.592 35.514 39.498 36.173 39.152 35.107"/>
    <polygon class="cls-6" points="42.546 31.739 43.453 31.08 42.332 31.08 41.985 30.014 41.639 31.08 40.519 31.08 41.425 31.739 41.079 32.805 41.986 32.146 42.892 32.805 42.546 31.739"/>
    <polygon class="cls-6" points="43.795 26.984 44.702 26.325 43.581 26.325 43.234 25.259 42.888 26.325 41.767 26.325 42.674 26.984 42.328 28.05 43.235 27.391 44.141 28.05 43.795 26.984"/>

  </g>

  <g class="cls-2">
    <line class="cls-9" x1="12.7559" y1="66.0538" x2="157.32289" y2="66.0538"/>




    <path class="cls-9" d="M18.8555,288.5366c-.229.001-5.6.083-5.6,5.599v17.687c.001.228.083,5.599,5.599,5.599h132.37c.227-.001,5.598-.083,5.598-5.599v-17.687c-.001-.228-.083-5.599-5.598-5.599H18.8555Z"/>
    <rect class="cls-7" x="67.653" y="290.51701" width="35.066" height="24.762"/>
    <rect class="cls-5" x="77.82001" y="312.096" width="15.341" height="1.549"/>
    <rect class="cls-5" x="76.32" y="313.311" width="18.341" height="0.565"/>
    <rect class="cls-11" x="70.106" y="293.426" width="30.769" height="18.496"/>
    <rect class="cls-12" x="71.552" y="294.849" width="27.876" height="15.651"/>
    <line class="cls-13" x1="73.8212" y1="308.5909" x2="97.16019" y2="296.7569"/>
    <polygon class="cls-7" points="97.171 298.749 96.457 298.516 97.007 296.834 95.326 296.285 95.56 295.571 97.953 296.354 97.171 298.749"/>
    <polygon class="cls-7" points="73.81 306.599 74.523 306.832 73.973 308.514 75.655 309.063 75.421 309.777 73.027 308.994 73.81 306.599"/>
    <path class="cls-14" d="M95.3923,216.4356c-.529.004-5.101.183-5.101,5.099v55.834c.004.518.179,5.098,5.099,5.098h55.834c.518-.003,5.098-.178,5.098-5.098v-55.834c-.003-.519-.178-5.099-5.098-5.099Z"/>
    <path class="cls-9" d="M57.1233,249.9513c-.229.001-5.6.083-5.6,5.599v21.818c.001.228.083,5.599,5.599,5.599h21.818c.228-.001,5.599-.083,5.599-5.599v-21.818c-.001-.228-.083-5.599-5.599-5.599H57.1233Z"/>
    <path class="cls-10" d="M135.22269,309.08121a3.85034,3.85034,0,0,0-.088-.889,1.73473,1.73473,0,0,0-.293-.642,1.45927,1.45927,0,0,0-.534-.438,1.82761,1.82761,0,0,0-.814-.164,1.71568,1.71568,0,0,0-.779.196,2.872,2.872,0,0,0-.768.599v-2.895a.12747.12747,0,0,0-.022-.075.16353.16353,0,0,0-.069-.054.50507.50507,0,0,0-.135-.032,1.85016,1.85016,0,0,0-.22-.011,1.8188,1.8188,0,0,0-.215.011.5431.5431,0,0,0-.137.032.12755.12755,0,0,0-.088.129v7.176a.12454.12454,0,0,0,.019.072.14524.14524,0,0,0,.069.052.5431.5431,0,0,0,.137.032,1.844,1.844,0,0,0,.215.01,1.87958,1.87958,0,0,0,.22-.01.50507.50507,0,0,0,.135-.032.16893.16893,0,0,0,.069-.052.11233.11233,0,0,0,.022-.072v-3.378a3.56194,3.56194,0,0,1,.698-.693,1.14358,1.14358,0,0,1,.666-.237,1.0211,1.0211,0,0,1,.454.097.82025.82025,0,0,1,.32.279,1.39256,1.39256,0,0,1,.188.435,2.79216,2.79216,0,0,1,.064.666v2.831a.11233.11233,0,0,0,.022.072.16893.16893,0,0,0,.069.052.505.505,0,0,0,.135.032,1.87958,1.87958,0,0,0,.22.01,1.844,1.844,0,0,0,.215-.01.49639.49639,0,0,0,.134-.032.17273.17273,0,0,0,.07-.052.118.118,0,0,0,.021-.072Zm-5.385,2.022a.50069.50069,0,0,0-.027-.129.17309.17309,0,0,0-.046-.073.1005.1005,0,0,0-.064-.021.33457.33457,0,0,0-.18.094c-.077.063-.172.132-.285.209a2.25547,2.25547,0,0,1-.4.213,1.39132,1.39132,0,0,1-.537.096,1.34941,1.34941,0,0,1-.572-.115,1.07852,1.07852,0,0,1-.422-.352,1.71044,1.71044,0,0,1-.26-.588,3.38211,3.38211,0,0,1-.089-.819,2.49423,2.49423,0,0,1,.341-1.426,1.12116,1.12116,0,0,1,.981-.492,1.48816,1.48816,0,0,1,.539.089,1.99493,1.99493,0,0,1,.39.196,3.14971,3.14971,0,0,1,.266.196.30645.30645,0,0,0,.185.089.13891.13891,0,0,0,.118-.084.62992.62992,0,0,0,.048-.292c0-.065-.001-.119-.005-.162a.54905.54905,0,0,0-.021-.115.38645.38645,0,0,0-.041-.089.67781.67781,0,0,0-.088-.102,1.2451,1.2451,0,0,0-.207-.155,1.79063,1.79063,0,0,0-.325-.162,2.44557,2.44557,0,0,0-.4-.112,2.28666,2.28666,0,0,0-.449-.043,2.46633,2.46633,0,0,0-.889.158,1.90092,1.90092,0,0,0-.714.486,2.32088,2.32088,0,0,0-.478.841,3.83625,3.83625,0,0,0-.174,1.227,3.90849,3.90849,0,0,0,.142,1.109,2.28971,2.28971,0,0,0,.413.811,1.74426,1.74426,0,0,0,.674.502,2.33189,2.33189,0,0,0,.924.172,2.45042,2.45042,0,0,0,.489-.048,2.68145,2.68145,0,0,0,.438-.126,2.21693,2.21693,0,0,0,.362-.177,1.34789,1.34789,0,0,0,.229-.167.59813.59813,0,0,0,.086-.102.43991.43991,0,0,0,.032-.081.58856.58856,0,0,0,.019-.112c.003-.045.005-.098.005-.159,0-.071-.003-.133-.008-.185m-5.076-2.028a3.821,3.821,0,0,0-.089-.883,1.73378,1.73378,0,0,0-.292-.642,1.47094,1.47094,0,0,0-.535-.438,1.82172,1.82172,0,0,0-.814-.164,1.75947,1.75947,0,0,0-.819.212,2.99115,2.99115,0,0,0-.813.669v-.639a.13882.13882,0,0,0-.019-.073.1759.1759,0,0,0-.062-.053.315.315,0,0,0-.121-.032,2.16888,2.16888,0,0,0-.395,0,.35465.35465,0,0,0-.123.032.15091.15091,0,0,0-.065.053.1608.1608,0,0,0-.016.073v4.834a.13262.13262,0,0,0,.019.072.15409.15409,0,0,0,.07.052.54309.54309,0,0,0,.137.032,1.83252,1.83252,0,0,0,.215.01,1.89131,1.89131,0,0,0,.22-.01.49639.49639,0,0,0,.134-.032.17284.17284,0,0,0,.07-.052.11851.11851,0,0,0,.022-.072v-3.378a3.56192,3.56192,0,0,1,.698-.693,1.14358,1.14358,0,0,1,.666-.237,1.02119,1.02119,0,0,1,.454.097.81749.81749,0,0,1,.319.279,1.36972,1.36972,0,0,1,.188.435,2.78529,2.78529,0,0,1,.065.666v2.831a.1181.1181,0,0,0,.021.072.17284.17284,0,0,0,.07.052.49619.49619,0,0,0,.134.032,1.89124,1.89124,0,0,0,.22.01,1.83259,1.83259,0,0,0,.215-.01.50489.50489,0,0,0,.135-.032.16886.16886,0,0,0,.069-.052.11233.11233,0,0,0,.022-.072Zm-5.771-3.934a.88883.88883,0,0,0-.862.003.58051.58051,0,0,0-.119.424.57135.57135,0,0,0,.116.416.621.621,0,0,0,.427.11.63715.63715,0,0,0,.435-.112.58523.58523,0,0,0,.118-.425.5717.5717,0,0,0-.115-.416m.013,2.049a.12745.12745,0,0,0-.021-.07.174.174,0,0,0-.07-.054.505.505,0,0,0-.135-.032,1.85016,1.85016,0,0,0-.22-.011,1.81861,1.81861,0,0,0-.215.011.54309.54309,0,0,0-.137.032.14162.14162,0,0,0-.069.054.13409.13409,0,0,0-.019.07v4.834a.12454.12454,0,0,0,.019.072.14529.14529,0,0,0,.069.052.54309.54309,0,0,0,.137.032,1.84384,1.84384,0,0,0,.215.01,1.87958,1.87958,0,0,0,.22-.01.505.505,0,0,0,.135-.032.18018.18018,0,0,0,.07-.052.1181.1181,0,0,0,.021-.072Z"/>
    <path class="cls-10" d="M46.758,309.6767a3.53652,3.53652,0,0,0-.083-.776,1.78014,1.78014,0,0,0-.279-.642,1.43119,1.43119,0,0,0-.513-.438,1.70007,1.70007,0,0,0-.784-.164,1.52343,1.52343,0,0,0-.384.051,1.77081,1.77081,0,0,0-.393.164,2.786,2.786,0,0,0-.419.296,4.81415,4.81415,0,0,0-.459.446,1.72691,1.72691,0,0,0-.215-.39,1.32876,1.32876,0,0,0-.311-.301,1.464,1.464,0,0,0-.422-.196,1.94253,1.94253,0,0,0-.54-.07,1.58561,1.58561,0,0,0-.776.213,3.13,3.13,0,0,0-.792.668v-.639a.12671.12671,0,0,0-.019-.072.164.164,0,0,0-.061-.054.31506.31506,0,0,0-.121-.032,1.80176,1.80176,0,0,0-.196-.008,1.78,1.78,0,0,0-.199.008.36737.36737,0,0,0-.124.032.1419.1419,0,0,0-.064.054.14462.14462,0,0,0-.016.072v4.834a.13017.13017,0,0,0,.019.073.15108.15108,0,0,0,.069.051.5432.5432,0,0,0,.137.032,1.81906,1.81906,0,0,0,.215.011,1.85071,1.85071,0,0,0,.22-.011.49523.49523,0,0,0,.135-.032.18949.18949,0,0,0,.07-.051.12338.12338,0,0,0,.021-.073v-3.378a4.00142,4.00142,0,0,1,.677-.693,1.01612,1.01612,0,0,1,.617-.236.89427.89427,0,0,1,.427.096.81614.81614,0,0,1,.299.28,1.38646,1.38646,0,0,1,.177.435,2.469,2.469,0,0,1,.059.558v2.938a.13017.13017,0,0,0,.019.073.14936.14936,0,0,0,.07.051.54014.54014,0,0,0,.139.032,1.8257,1.8257,0,0,0,.212.011,1.80687,1.80687,0,0,0,.215-.011.5432.5432,0,0,0,.137-.032.18705.18705,0,0,0,.073-.051.12338.12338,0,0,0,.021-.073v-3.378a4.19256,4.19256,0,0,1,.68-.693,1.00434,1.00434,0,0,1,.615-.236.91094.91094,0,0,1,.429.096.80636.80636,0,0,1,.301.28,1.27359,1.27359,0,0,1,.172.435,2.668,2.668,0,0,1,.054.558v2.938a.12338.12338,0,0,0,.021.073.17972.17972,0,0,0,.073.051.53259.53259,0,0,0,.137.032,1.85071,1.85071,0,0,0,.22.011,1.81906,1.81906,0,0,0,.215-.011.49629.49629,0,0,0,.134-.032.18949.18949,0,0,0,.07-.051.12338.12338,0,0,0,.021-.073Zm-8.393,2.135a.50074.50074,0,0,0-.027-.129.15463.15463,0,0,0-.046-.072.094.094,0,0,0-.064-.022.33455.33455,0,0,0-.18.094q-.1155.0945-.285.21a2.25632,2.25632,0,0,1-.4.212,1.39131,1.39131,0,0,1-.537.096,1.34945,1.34945,0,0,1-.572-.115,1.06879,1.06879,0,0,1-.421-.352,1.67582,1.67582,0,0,1-.261-.588,3.37675,3.37675,0,0,1-.089-.819,2.49653,2.49653,0,0,1,.341-1.426,1.12233,1.12233,0,0,1,.981-.492,1.48811,1.48811,0,0,1,.539.089,2.05174,2.05174,0,0,1,.39.196,3.14841,3.14841,0,0,1,.266.196.30643.30643,0,0,0,.185.089.13772.13772,0,0,0,.118-.084.62719.62719,0,0,0,.049-.292c0-.065-.002-.118-.006-.161a.54586.54586,0,0,0-.021-.116.34112.34112,0,0,0-.041-.088.67345.67345,0,0,0-.088-.103,1.36631,1.36631,0,0,0-.207-.155,1.72645,1.72645,0,0,0-.325-.161,2.4459,2.4459,0,0,0-.4-.113,2.28673,2.28673,0,0,0-.449-.043,2.457,2.457,0,0,0-.888.158,1.89659,1.89659,0,0,0-.715.486,2.321,2.321,0,0,0-.478.841,3.83629,3.83629,0,0,0-.174,1.227,3.90849,3.90849,0,0,0,.142,1.109,2.28975,2.28975,0,0,0,.413.811,1.74265,1.74265,0,0,0,.675.503,2.34124,2.34124,0,0,0,.923.171,2.443,2.443,0,0,0,.489-.048,2.68058,2.68058,0,0,0,.438-.126,2.21693,2.21693,0,0,0,.362-.177,1.34844,1.34844,0,0,0,.229-.167.59858.59858,0,0,0,.086-.102.45954.45954,0,0,0,.032-.08.60052.60052,0,0,0,.019-.113c.003-.045.005-.098.005-.159,0-.071-.003-.133-.008-.185"/>
    <path class="cls-10" d="M150.05119,259.3477a3.47677,3.47677,0,0,0-.083-.776,1.74655,1.74655,0,0,0-.279-.642,1.43111,1.43111,0,0,0-.513-.438,1.69728,1.69728,0,0,0-.784-.164,1.47854,1.47854,0,0,0-.384.051,1.76329,1.76329,0,0,0-.392.164,2.68936,2.68936,0,0,0-.419.296,4.91889,4.91889,0,0,0-.459.445,1.75893,1.75893,0,0,0-.215-.389,1.31344,1.31344,0,0,0-.312-.301,1.47021,1.47021,0,0,0-.421-.196,1.95233,1.95233,0,0,0-.54-.07,1.58279,1.58279,0,0,0-.776.213,3.13291,3.13291,0,0,0-.793.668v-.639a.1325.1325,0,0,0-.018-.072.17651.17651,0,0,0-.062-.054.315.315,0,0,0-.121-.032,2.43871,2.43871,0,0,0-.395,0,.3549.3549,0,0,0-.123.032.14.14,0,0,0-.065.054.14217.14217,0,0,0-.016.072v4.834a.1302.1302,0,0,0,.019.073.155.155,0,0,0,.07.051.53287.53287,0,0,0,.137.032,1.8094,1.8094,0,0,0,.215.011,1.87757,1.87757,0,0,0,.22-.011.49643.49643,0,0,0,.134-.032.18964.18964,0,0,0,.07-.051.12348.12348,0,0,0,.021-.073v-3.378a4.00142,4.00142,0,0,1,.677-.693,1.0226,1.0226,0,0,1,.618-.237.89733.89733,0,0,1,.427.097.81926.81926,0,0,1,.298.279,1.35566,1.35566,0,0,1,.177.436,2.46888,2.46888,0,0,1,.059.558v2.938a.1302.1302,0,0,0,.019.073.155.155,0,0,0,.07.051.54042.54042,0,0,0,.139.032,1.84685,1.84685,0,0,0,.213.011,1.7907,1.7907,0,0,0,.214-.011.53315.53315,0,0,0,.137-.032.17988.17988,0,0,0,.073-.051.12347.12347,0,0,0,.021-.073v-3.378a4.193,4.193,0,0,1,.68-.693,1.0104,1.0104,0,0,1,.615-.237.91547.91547,0,0,1,.43.097.81685.81685,0,0,1,.3.279,1.2874,1.2874,0,0,1,.172.436,2.668,2.668,0,0,1,.054.558v2.938a.12334.12334,0,0,0,.021.073.18715.18715,0,0,0,.073.051.54349.54349,0,0,0,.137.032,1.86555,1.86555,0,0,0,.22.011,1.80946,1.80946,0,0,0,.215-.011.49663.49663,0,0,0,.134-.032.18161.18161,0,0,0,.07-.051.12347.12347,0,0,0,.021-.073Zm-8.761-1.778a.1079.1079,0,0,0-.024-.072.21177.21177,0,0,0-.072-.054.39309.39309,0,0,0-.135-.032c-.057-.006-.129-.008-.215-.008a2.13952,2.13952,0,0,0-.217.008.43158.43158,0,0,0-.137.032.16315.16315,0,0,0-.073.054.13268.13268,0,0,0-.018.072v3.379a3.76,3.76,0,0,1-.701.692,1.13563,1.13563,0,0,1-.664.237.96421.96421,0,0,1-.451-.1.86492.86492,0,0,1-.319-.279,1.25169,1.25169,0,0,1-.188-.435,2.94709,2.94709,0,0,1-.062-.679v-2.815a.11234.11234,0,0,0-.022-.072.17832.17832,0,0,0-.072-.054.41207.41207,0,0,0-.137-.032c-.057-.006-.129-.008-.215-.008s-.158.002-.215.008a.43163.43163,0,0,0-.139.032.16315.16315,0,0,0-.073.054.12461.12461,0,0,0-.019.072v2.933a3.87317,3.87317,0,0,0,.089.894,1.76232,1.76232,0,0,0,.293.645,1.42785,1.42785,0,0,0,.534.437,1.83676,1.83676,0,0,0,.814.161,1.74661,1.74661,0,0,0,.816-.209,3.02375,3.02375,0,0,0,.817-.666v.639a.14874.14874,0,0,0,.016.073.13386.13386,0,0,0,.061.051.452.452,0,0,0,.124.032,1.55006,1.55006,0,0,0,.201.011,1.4491,1.4491,0,0,0,.191-.011.47868.47868,0,0,0,.126-.032.15522.15522,0,0,0,.067-.051.1302.1302,0,0,0,.019-.073Zm-5.688,1.885a3.82145,3.82145,0,0,0-.089-.883,1.75,1.75,0,0,0-.293-.642,1.46923,1.46923,0,0,0-.534-.438,1.82461,1.82461,0,0,0-.814-.164,1.743,1.743,0,0,0-.819.213,2.97021,2.97021,0,0,0-.814.668v-.639a.1325.1325,0,0,0-.018-.072.17655.17655,0,0,0-.062-.054.31491.31491,0,0,0-.121-.032,2.43871,2.43871,0,0,0-.395,0,.3549.3549,0,0,0-.123.032.14.14,0,0,0-.065.054.14217.14217,0,0,0-.016.072v4.834a.1302.1302,0,0,0,.019.073.155.155,0,0,0,.07.051.53277.53277,0,0,0,.137.032,1.8094,1.8094,0,0,0,.215.011,1.87757,1.87757,0,0,0,.22-.011.49652.49652,0,0,0,.134-.032.18964.18964,0,0,0,.07-.051.12348.12348,0,0,0,.021-.073v-3.378a3.56352,3.56352,0,0,1,.699-.693,1.14365,1.14365,0,0,1,.666-.237,1.01685,1.01685,0,0,1,.453.097.82148.82148,0,0,1,.32.279,1.38846,1.38846,0,0,1,.188.436,2.78092,2.78092,0,0,1,.064.666v2.83a.12383.12383,0,0,0,.022.073.18136.18136,0,0,0,.07.051.49672.49672,0,0,0,.134.032,1.86543,1.86543,0,0,0,.22.011,1.80915,1.80915,0,0,0,.215-.011.49643.49643,0,0,0,.134-.032.17408.17408,0,0,0,.07-.051.124.124,0,0,0,.022-.073Zm-5.735,0a3.82509,3.82509,0,0,0-.088-.883,1.74968,1.74968,0,0,0-.293-.642,1.46911,1.46911,0,0,0-.534-.438,1.82466,1.82466,0,0,0-.814-.164,1.743,1.743,0,0,0-.819.213,2.97009,2.97009,0,0,0-.814.668v-.639a.12461.12461,0,0,0-.019-.072.16414.16414,0,0,0-.061-.054.315.315,0,0,0-.121-.032,1.80143,1.80143,0,0,0-.196-.008,1.78,1.78,0,0,0-.199.008.36728.36728,0,0,0-.124.032.12311.12311,0,0,0-.08.126v4.834a.1302.1302,0,0,0,.019.073.14942.14942,0,0,0,.07.051.53455.53455,0,0,0,.136.032,1.82149,1.82149,0,0,0,.215.011,1.884,1.884,0,0,0,.221-.011.49672.49672,0,0,0,.134-.032.18959.18959,0,0,0,.07-.051.1234.1234,0,0,0,.021-.073v-3.378a3.58964,3.58964,0,0,1,.698-.693,1.14365,1.14365,0,0,1,.666-.237,1.02124,1.02124,0,0,1,.454.097.8286.8286,0,0,1,.32.279,1.38846,1.38846,0,0,1,.188.436,2.78078,2.78078,0,0,1,.064.666v2.83a.11727.11727,0,0,0,.022.073.17408.17408,0,0,0,.07.051.49643.49643,0,0,0,.134.032,1.86519,1.86519,0,0,0,.22.011,1.8094,1.8094,0,0,0,.215-.011.49682.49682,0,0,0,.134-.032.18136.18136,0,0,0,.07-.051.12334.12334,0,0,0,.021-.073Zm-6.62,1.773a2.78,2.78,0,0,1-.626.542,1.24293,1.24293,0,0,1-.647.178.944.944,0,0,1-.668-.223.779.779,0,0,1-.239-.599.86709.86709,0,0,1,.083-.39.75977.75977,0,0,1,.26-.29,1.3135,1.3135,0,0,1,.446-.182,2.86423,2.86423,0,0,1,.634-.062h.757Zm.881-2.079a2.73724,2.73724,0,0,0-.102-.789,1.333,1.333,0,0,0-.328-.567,1.42423,1.42423,0,0,0-.59-.346,2.89828,2.89828,0,0,0-.887-.119,3.01739,3.01739,0,0,0-.553.051,3.826,3.826,0,0,0-.505.129,2.81545,2.81545,0,0,0-.408.172,1.23081,1.23081,0,0,0-.25.164.30735.30735,0,0,0-.091.148.91183.91183,0,0,0-.019.212.95979.95979,0,0,0,.011.148.33909.33909,0,0,0,.035.11.18735.18735,0,0,0,.056.064.12962.12962,0,0,0,.075.022.44824.44824,0,0,0,.196-.078c.088-.052.197-.109.328-.172a3.1178,3.1178,0,0,1,.457-.172,2.04245,2.04245,0,0,1,.588-.078,1.56492,1.56492,0,0,1,.515.073.8081.8081,0,0,1,.341.215.8351.8351,0,0,1,.191.357,1.88435,1.88435,0,0,1,.059.494v.376h-.666a4.75214,4.75214,0,0,0-1.015.099,2.35711,2.35711,0,0,0-.763.298,1.39189,1.39189,0,0,0-.478.5,1.44022,1.44022,0,0,0-.166.709,1.52207,1.52207,0,0,0,.121.623,1.29323,1.29323,0,0,0,.338.462,1.491,1.491,0,0,0,.526.287,2.25675,2.25675,0,0,0,.691.099,1.86263,1.86263,0,0,0,.824-.188,2.363,2.363,0,0,0,.706-.526v.483a.12076.12076,0,0,0,.038.097.24965.24965,0,0,0,.121.048,1.18733,1.18733,0,0,0,.223.017,1.09508,1.09508,0,0,0,.22-.017.28584.28584,0,0,0,.118-.048.11225.11225,0,0,0,.043-.097Zm-4.178-4.227a.22218.22218,0,0,0,.016-.123.12993.12993,0,0,0-.059-.086.38086.38086,0,0,0-.135-.051,1.0196,1.0196,0,0,0-.22-.019c-.075,0-.139.003-.193.008a.399.399,0,0,0-.132.032.26454.26454,0,0,0-.086.065.29041.29041,0,0,0-.056.11l-3.25,8.91a.20076.20076,0,0,0-.021.121.14.14,0,0,0,.059.086.37569.37569,0,0,0,.137.054,1.13575,1.13575,0,0,0,.223.019,1.45962,1.45962,0,0,0,.191-.011.58458.58458,0,0,0,.131-.032.23789.23789,0,0,0,.089-.062.30641.30641,0,0,0,.056-.11Zm-4.878,4.539a3.85078,3.85078,0,0,0-.088-.889,1.75017,1.75017,0,0,0-.293-.642,1.46439,1.46439,0,0,0-.535-.438,1.82015,1.82015,0,0,0-.813-.164,1.71586,1.71586,0,0,0-.779.196,2.87182,2.87182,0,0,0-.768.599v-2.895a.12966.12966,0,0,0-.022-.075.16364.16364,0,0,0-.069-.054.50527.50527,0,0,0-.135-.032,1.85284,1.85284,0,0,0-.22-.011,1.809,1.809,0,0,0-.215.011.54352.54352,0,0,0-.137.032.14993.14993,0,0,0-.07.054.15413.15413,0,0,0-.018.075v7.176a.13867.13867,0,0,0,.018.073.16081.16081,0,0,0,.07.051.54348.54348,0,0,0,.137.032,1.80927,1.80927,0,0,0,.215.011,1.85315,1.85315,0,0,0,.22-.011.50523.50523,0,0,0,.135-.032.17713.17713,0,0,0,.069-.051.11727.11727,0,0,0,.022-.073v-3.378a3.56191,3.56191,0,0,1,.698-.693,1.14365,1.14365,0,0,1,.666-.237,1.02132,1.02132,0,0,1,.454.097.82867.82867,0,0,1,.32.279,1.38846,1.38846,0,0,1,.188.436,2.78085,2.78085,0,0,1,.064.666v2.83a.12341.12341,0,0,0,.021.073.18951.18951,0,0,0,.07.051.50513.50513,0,0,0,.135.032,1.85309,1.85309,0,0,0,.22.011,1.82155,1.82155,0,0,0,.215-.011.49644.49644,0,0,0,.134-.032.18964.18964,0,0,0,.07-.051.12341.12341,0,0,0,.021-.073Zm-5.328-3.54a1.31276,1.31276,0,0,0,.029-.193.131.131,0,0,0-.04-.108.26932.26932,0,0,0-.137-.051,1.90772,1.90772,0,0,0-.255-.013,2.34262,2.34262,0,0,0-.25.011.55424.55424,0,0,0-.145.032.11468.11468,0,0,0-.067.062.849.849,0,0,0-.032.094l-1.531,5.817h-.011l-1.595-5.812a.41607.41607,0,0,0-.04-.099.15851.15851,0,0,0-.078-.062.59958.59958,0,0,0-.143-.032,2.10589,2.10589,0,0,0-.239-.011,2.55577,2.55577,0,0,0-.26.011.60813.60813,0,0,0-.153.032.1501.1501,0,0,0-.078.062.37749.37749,0,0,0-.04.099l-1.483,5.812h-.005l-1.563-5.823a.33986.33986,0,0,0-.03-.096.12725.12725,0,0,0-.07-.059.469.469,0,0,0-.147-.03c-.065-.005-.153-.008-.263-.008-.115,0-.206.004-.274.011a.27939.27939,0,0,0-.148.048.12224.12224,0,0,0-.043.107.95625.95625,0,0,0,.035.194l1.837,6.418a.2616.2616,0,0,0,.056.121.24583.24583,0,0,0,.116.07.90763.90763,0,0,0,.193.035c.079.007.177.011.295.011.115,0,.209-.004.282-.011a.78469.78469,0,0,0,.18-.035.22866.22866,0,0,0,.108-.07.27009.27009,0,0,0,.053-.121l1.343-5.247h.011l1.456,5.247a.3255.3255,0,0,0,.059.121.22744.22744,0,0,0,.112.07.92346.92346,0,0,0,.191.035c.077.007.171.011.282.011.107,0,.198-.004.271-.011a.90844.90844,0,0,0,.186-.035.26921.26921,0,0,0,.118-.07.29038.29038,0,0,0,.064-.121Zm-9.623,6.373a1.17479,1.17479,0,0,0-.099-.148l-1.966-2.551,1.751-1.751a.73276.73276,0,0,0,.115-.15.26114.26114,0,0,0,.035-.129.12109.12109,0,0,0-.024-.078.16455.16455,0,0,0-.081-.048.60406.60406,0,0,0-.147-.027c-.061-.006-.136-.008-.226-.008-.086,0-.159.002-.22.008a.62875.62875,0,0,0-.159.032.477.477,0,0,0-.115.059.44757.44757,0,0,0-.091.089l-1.826,2.008v-4.372a.13751.13751,0,0,0-.022-.075.16736.16736,0,0,0-.07-.054.49666.49666,0,0,0-.134-.032,1.86482,1.86482,0,0,0-.22-.011,1.80888,1.80888,0,0,0-.215.011.54363.54363,0,0,0-.137.032.14993.14993,0,0,0-.07.054.15455.15455,0,0,0-.019.075v7.176a.13877.13877,0,0,0,.019.073.16081.16081,0,0,0,.07.051.54358.54358,0,0,0,.137.032,1.80915,1.80915,0,0,0,.215.011,1.86512,1.86512,0,0,0,.22-.011.49661.49661,0,0,0,.134-.032.18156.18156,0,0,0,.07-.051.12389.12389,0,0,0,.022-.073v-2.68l2.041,2.675a.38766.38766,0,0,0,.072.083.28846.28846,0,0,0,.105.054.93585.93585,0,0,0,.158.027c.063.005.143.008.239.008a2.0762,2.0762,0,0,0,.231-.011.56659.56659,0,0,0,.143-.032.1622.1622,0,0,0,.072-.054.13742.13742,0,0,0,.022-.075.2281.2281,0,0,0-.03-.105"/>
    <path class="cls-10" d="M78.32309,274.8989a.87672.87672,0,0,0-.024-.102.09791.09791,0,0,0-.035-.051.10293.10293,0,0,0-.054-.013.2537.2537,0,0,0-.094.024q-.057.024-.132.051a1.70515,1.70515,0,0,1-.174.051.93338.93338,0,0,1-.218.024.55262.55262,0,0,1-.526-.255,1.5583,1.5583,0,0,1-.145-.755v-2.696h1.241a.14147.14147,0,0,0,.123-.086.60113.60113,0,0,0,.048-.279,1.19753,1.19753,0,0,0-.01-.172.391.391,0,0,0-.035-.115.15407.15407,0,0,0-.057-.065.149.149,0,0,0-.075-.019h-1.235v-1.38a.12537.12537,0,0,0-.022-.075.13434.13434,0,0,0-.072-.051.70641.70641,0,0,0-.137-.033,1.78438,1.78438,0,0,0-.43,0,.70629.70629,0,0,0-.137.033.13437.13437,0,0,0-.072.051.12536.12536,0,0,0-.022.075v1.38h-2.401v-1.149a.12743.12743,0,0,0-.021-.07.17823.17823,0,0,0-.07-.056.4221.4221,0,0,0-.134-.035,1.8726,1.8726,0,0,0-.22-.011,1.80448,1.80448,0,0,0-.215.011.45158.45158,0,0,0-.137.035.15314.15314,0,0,0-.07.056.13405.13405,0,0,0-.019.07v1.149h-.671a.16652.16652,0,0,0-.078.019.14185.14185,0,0,0-.057.065.46482.46482,0,0,0-.034.115.92571.92571,0,0,0-.014.172.60082.60082,0,0,0,.048.279.14725.14725,0,0,0,.129.086h.677v2.825a2.99593,2.99593,0,0,0,.078.728,1.23214,1.23214,0,0,0,.25.51,1.0287,1.0287,0,0,0,.44.301,2.08059,2.08059,0,0,0,.892.083c.082-.01.159-.024.231-.04a1.09867,1.09867,0,0,0,.188-.059.465.465,0,0,0,.121-.07.26475.26475,0,0,0,.059-.07.30088.30088,0,0,0,.027-.08c.005-.031.009-.064.013-.1.003-.035.005-.084.005-.145a1.03844,1.03844,0,0,0-.01-.161.68839.68839,0,0,0-.025-.102.08976.08976,0,0,0-.037-.051.10191.10191,0,0,0-.051-.013.24153.24153,0,0,0-.097.024q-.054.024-.129.051a1.73292,1.73292,0,0,1-.172.051.91482.91482,0,0,1-.22.024.55866.55866,0,0,1-.529-.255,1.54283,1.54283,0,0,1-.148-.755v-2.696h2.401v2.825a2.88934,2.88934,0,0,0,.081.728,1.28274,1.28274,0,0,0,.25.51,1.007,1.007,0,0,0,.437.301,2.09344,2.09344,0,0,0,.895.083,1.98313,1.98313,0,0,0,.236-.043,1.06673,1.06673,0,0,0,.191-.064.48959.48959,0,0,0,.126-.081.25716.25716,0,0,0,.067-.131,1.11629,1.11629,0,0,0,.021-.245,1.03859,1.03859,0,0,0-.01-.161m-8.197-.66a2.79876,2.79876,0,0,1-.625.542,1.24805,1.24805,0,0,1-.648.177.93946.93946,0,0,1-.668-.223.7753.7753,0,0,1-.239-.598.86709.86709,0,0,1,.083-.39.75261.75261,0,0,1,.26-.29,1.322,1.322,0,0,1,.446-.182,2.81159,2.81159,0,0,1,.634-.062h.757Zm.881-2.079a2.74924,2.74924,0,0,0-.102-.79,1.344,1.344,0,0,0-.327-.566,1.44693,1.44693,0,0,0-.591-.347,2.92934,2.92934,0,0,0-.886-.118,3.02088,3.02088,0,0,0-.554.051,3.71476,3.71476,0,0,0-.505.129,2.70836,2.70836,0,0,0-.408.172,1.18961,1.18961,0,0,0-.25.164.3105.3105,0,0,0-.091.148.964.964,0,0,0-.019.212.94489.94489,0,0,0,.011.147.33713.33713,0,0,0,.035.111.18739.18739,0,0,0,.056.064.13774.13774,0,0,0,.076.021.44743.44743,0,0,0,.196-.077c.087-.052.197-.11.327-.172a3.1178,3.1178,0,0,1,.457-.172,2.04734,2.04734,0,0,1,.588-.078,1.60437,1.60437,0,0,1,.516.072.83067.83067,0,0,1,.341.215.85072.85072,0,0,1,.19.357,1.85112,1.85112,0,0,1,.059.495v.376h-.666a4.75281,4.75281,0,0,0-1.015.099,2.34239,2.34239,0,0,0-.762.298,1.37527,1.37527,0,0,0-.478.5,1.427,1.427,0,0,0-.167.709,1.52523,1.52523,0,0,0,.121.623,1.29307,1.29307,0,0,0,.338.462,1.49581,1.49581,0,0,0,.527.287,2.25021,2.25021,0,0,0,.69.099,1.85957,1.85957,0,0,0,.824-.188,2.39669,2.39669,0,0,0,.707-.526v.483a.12168.12168,0,0,0,.037.097.25985.25985,0,0,0,.121.048,1.20081,1.20081,0,0,0,.223.016,1.10293,1.10293,0,0,0,.22-.016.29372.29372,0,0,0,.118-.048.11347.11347,0,0,0,.043-.097Zm-4.447-3.228a1.21362,1.21362,0,0,0,.03-.193.13037.13037,0,0,0-.041-.108.26207.26207,0,0,0-.137-.051,1.8876,1.8876,0,0,0-.255-.013,2.10148,2.10148,0,0,0-.25.011.525.525,0,0,0-.145.032.11471.11471,0,0,0-.067.062c-.01.026-.021.058-.032.093l-1.531,5.817h-.01l-1.596-5.811a.3522.3522,0,0,0-.04-.099.1501.1501,0,0,0-.078-.062.5459.5459,0,0,0-.142-.032,1.90237,1.90237,0,0,0-.239-.011,2.31065,2.31065,0,0,0-.261.011.57578.57578,0,0,0-.153.032.15007.15007,0,0,0-.078.062.38443.38443,0,0,0-.04.099l-1.482,5.811h-.006l-1.563-5.822a.40068.40068,0,0,0-.029-.097.1351.1351,0,0,0-.07-.059.5047.5047,0,0,0-.148-.029c-.064-.006-.152-.008-.263-.008a2.49783,2.49783,0,0,0-.274.011.28268.28268,0,0,0-.148.048.12765.12765,0,0,0-.043.107,1.03192,1.03192,0,0,0,.035.194l1.837,6.418a.26261.26261,0,0,0,.057.121.25588.25588,0,0,0,.115.07.989.989,0,0,0,.193.035c.079.007.178.01.296.01.114,0,.208-.003.282-.01a.86875.86875,0,0,0,.18-.035.23825.23825,0,0,0,.107-.07.282.282,0,0,0,.054-.121l1.343-5.247h.01l1.456,5.247a.32534.32534,0,0,0,.059.121.23816.23816,0,0,0,.113.07.98016.98016,0,0,0,.191.035c.077.007.171.01.282.01.107,0,.197-.003.271-.01a.96922.96922,0,0,0,.185-.035.27291.27291,0,0,0,.118-.07.29145.29145,0,0,0,.065-.121Z"/>
  </g>
  <text class="cls-15" transform="translate(13.75586 327.78207)">2010/1062</text>
  <text class="cls-16" transform="translate(49.62793 327.78207)"><tspan xml:space="preserve"> - 2017 </tspan></text>
  <polygon class="cls-17" points="12.756 97.589 64.233 97.589 69.548 102.975 64.162 108.432 12.756 108.432 12.756 97.589"/>
  <polyline class="cls-18" points="19.091 110.558 70.568 110.558 75.883 115.944 70.497 121.401 12.784 121.401 12.784 110.558"/>
  <polyline class="cls-19" points="25.398 123.526 76.875 123.526 82.19 128.912 76.804 134.369 12.756 134.369 12.756 123.526"/>
  <polyline class="cls-20" points="31.591 136.495 83.068 136.495 88.383 141.881 82.997 147.338 12.784 147.338 12.784 136.495"/>
  <polyline class="cls-21" points="37.757 149.463 89.234 149.463 94.549 154.849 89.163 160.306 12.756 160.306 12.756 149.463"/>
  <polyline class="cls-22" points="43.95 162.432 95.427 162.432 100.742 167.818 95.356 173.275 12.784 173.275 12.784 162.432"/>
  <polyline class="cls-23" points="50.186 175.4 101.663 175.4 106.978 180.786 101.592 186.243 12.756 186.243 12.756 175.4"/>
  <text class="cls-24" transform="translate(14.92529 105.93784)">A</text>
  <text class="cls-24" transform="translate(14.92529 118.93784)">A</text>
  <text class="cls-24" transform="translate(14.92529 131.93784)">A</text>
  <text class="cls-24" transform="translate(14.92529 144.93784)">B</text>
  <text class="cls-24" transform="translate(14.92529 157.93784)">C</text>
  <text class="cls-24" transform="translate(14.92529 170.93784)">D</text>
  <text class="cls-24" transform="translate(14.92529 183.93735)">E</text>
  <text class="cls-25" transform="translate(21.4126 102.88315)">+</text>
  <text class="cls-25" transform="translate(24.67676 102.88315)">+</text>
  <text class="cls-25" transform="translate(21.4126 115.54233)">+</text>
  <g id="rating">
    <polyline id="ratingArrow" class="cls-10" points="111.86 102.99 123.17 91.56 157.35 91.56 157.35 114.41 123.17 114.41 111.86 102.99"/>
    <text id="ratingLetter" class="cls-26" transform="translate(120.92969 107.24008)">A</text>
    <text id="ratingPlusses" class="cls-27" transform="translate(131.42969 102.99008)">++</text>
  </g>
  <text id="watt" class="cls-28" transform="translate(68.12012 265.83969)" text-anchor="middle">X</text>
  <text id="kwhAnnum" class="cls-29" transform="translate(122.7998 252.53989)" text-anchor="middle">X</text>
  <text id="cm" class="cls-28" transform="translate(40.5 304.86996)" text-anchor="middle">X</text>
  <text id="inch" class="cls-28" transform="translate(126.65039 303.74008)" text-anchor="middle">X</text>
  <g id="powerSwitch">
    <path class="cls-9" d="M18.8556,249.9514c-.229.001-5.6.083-5.6,5.599v21.818c.001.228.083,5.599,5.599,5.599h21.818c.228-.001,5.599-.083,5.599-5.599v-21.818c-.001-.228-.083-5.599-5.599-5.599H18.8556Z"/>
    <g class="cls-30">
      <path class="cls-31" d="M29.8252,254.96091v4.918m2.697-2.652a3.8145,3.8145,0,1,1-5.395,0"/>
    </g>
    <rect class="cls-32" x="26.101" y="267.219" width="8.079" height="8.079"/>
    <g class="cls-33">
      <g class="cls-33">
        <polygon class="cls-10" points="32.784 268.302 29.366 271.714 27.468 269.821 27.468 272.099 29.366 273.998 32.784 270.58 32.784 268.302"/>
      </g>
    </g>
  </g>
  <text id="supplierLine2" class="cls-34" transform="translate(12.8999 63.47006)">X</text>
  <text id="supplierLine1" class="cls-34" transform="translate(12.8999 54.25375)">X</text>
  <text id="modelLine2" class="cls-34" transform="translate(89.01025 63.47006)">X</text>
  <text id="modelLine1" class="cls-34" transform="translate(89.01025 54.25375)">X</text>
</svg>
