<svg id="Layer_1" data-name="Layer 1" xmlns="http://www.w3.org/2000/svg" width="290" height="201" viewBox="0 0 290 201">
  <defs>
    <style>
      #ratingLetter {
        font-size: 153px;
        fill: #fff;
        stroke: #000;
        stroke-miterlimit: 10;
        stroke-width: 3px;
      }

      #ratingArrow {
        fill: #009640;
        stroke: #000;
        stroke-linejoin: round;
        stroke-width: 3px;
      }

      #ratingArrow.rating0 { fill: #009640; }
      #ratingArrow.rating1 { fill: #52ae32; }
      #ratingArrow.rating2 { fill: #c8d400; }
      #ratingArrow.rating3 { fill: #ffed00; }
      #ratingArrow.rating4 { fill: #fbba00; }
      #ratingArrow.rating5 { fill: #ec6608; }
      #ratingArrow.rating6 { fill: #e30613; }

      .ratingLetterOption {
        display: none;
      }

      #ratingLetter.rating0 #ratingLetterA { display: block; }
      #ratingLetter.rating1 #ratingLetterB { display: block; }
      #ratingLetter.rating2 #ratingLetterC { display: block; }
      #ratingLetter.rating3 #ratingLetterD { display: block; }
      #ratingLetter.rating4 #ratingLetterE { display: block; }
      #ratingLetter.rating5 #ratingLetterF { display: block; }
      #ratingLetter.rating6 #ratingLetterG { display: block; }
    </style>
  </defs>
  <g>
    <polygon id="ratingArrow" points="288.5 199.5 91.5 199.5 1.5 100.5 91.5 1.5 288.5 1.5 288.5 199.5" shape-rendering="geometricPrecision" transform="rotate(180 145 100.5)"/>
    <g id="ratingLetter" transform="translate(-67 0)">
      <path id="ratingLetterA" class="ratingLetterOption" d="M222.44043,143.80078a26.05381,26.05381,0,0,1,1.12109,4.25879,2.57171,2.57171,0,0,1-.59765,2.35254,4.87007,4.87007,0,0,1-2.91407.97168q-2.09179.18458-5.75195.18652-3.81006,0-5.93945-.1123a14.62413,14.62413,0,0,1-3.25-.44824,2.95019,2.95019,0,0,1-1.56836-.9336,5.08477,5.08477,0,0,1-.74707-1.56933l-6.5-19.42383H159.98535l-6.126,18.90137a6.0228,6.0228,0,0,1-.78418,1.75585,3.196,3.196,0,0,1-1.56836,1.12012,11.49892,11.49892,0,0,1-3.06348.56055q-1.98047.14942-5.19238.14941a49.98743,49.98743,0,0,1-5.37891-.22363,4.10026,4.10026,0,0,1-2.68945-1.084,2.91588,2.91588,0,0,1-.52295-2.42774,24.366,24.366,0,0,1,1.1206-4.18359l29.8086-85.76367a7.49734,7.49734,0,0,1,1.0459-2.05469A3.70565,3.70565,0,0,1,168.54,54.6377a15.0627,15.0627,0,0,1,3.62305-.52247q2.31444-.11279,6.126-.1123,4.40625,0,7.02246.1123a18.75731,18.75731,0,0,1,4.07129.52247,3.88863,3.88863,0,0,1,2.0918,1.23242,7.25686,7.25686,0,0,1,1.083,2.24218Zm-44.376-70.89746h-.07422l-13.67187,41.08984h27.418Z"/>
      <path id="ratingLetterB" class="ratingLetterOption" d="M216.72559,122.13574a28.96257,28.96257,0,0,1-1.41993,9.33789,24.97188,24.97188,0,0,1-3.92187,7.39649,25.29621,25.29621,0,0,1-5.97656,5.52832A34.86,34.86,0,0,1,197.75,148.208a47.2072,47.2072,0,0,1-8.92773,2.2041,71.62513,71.62513,0,0,1-10.57129.71H152.55176a6.10287,6.10287,0,0,1-4.14551-1.457q-1.68164-1.456-1.68164-4.74414V60.65137q0-3.28565,1.68164-4.74317a6.10287,6.10287,0,0,1,4.14551-1.457H176.832a64.91849,64.91849,0,0,1,15.05371,1.49414,29.65287,29.65287,0,0,1,10.38379,4.51953,20.02647,20.02647,0,0,1,6.46192,7.65723,24.79984,24.79984,0,0,1,2.24121,10.9082,23.69236,23.69236,0,0,1-.89649,6.61133,19.83509,19.83509,0,0,1-2.61426,5.64063,19.47661,19.47661,0,0,1-4.2207,4.48242,21.45854,21.45854,0,0,1-5.71582,3.13672,25.61607,25.61607,0,0,1,7.583,2.61523,21.467,21.467,0,0,1,6.05176,4.81836,22.48354,22.48354,0,0,1,4.07129,6.91016A25.05556,25.05556,0,0,1,216.72559,122.13574ZM191.3252,81.4209a14.4006,14.4006,0,0,0-.89649-5.23047,9.45785,9.45785,0,0,0-2.68945-3.84668,12.36833,12.36833,0,0,0-4.51953-2.35352,26.07549,26.07549,0,0,0-7.28418-.82128H165.999V94.27051h10.98243a18.824,18.824,0,0,0,6.79785-1.00879,11.76036,11.76036,0,0,0,4.22168-2.76465,11.21689,11.21689,0,0,0,2.50195-4.1084A14.961,14.961,0,0,0,191.3252,81.4209Zm5.00488,41.38672A15.32588,15.32588,0,0,0,195.21,116.794a11.495,11.495,0,0,0-3.28711-4.44532,15.16409,15.16409,0,0,0-5.52832-2.76367,32.37075,32.37075,0,0,0-8.74121-.9707H165.999v27.49219h14.19434a23.86259,23.86259,0,0,0,6.91113-.85938,14.1075,14.1075,0,0,0,4.85547-2.54,11.65547,11.65547,0,0,0,3.21289-4.18359A13.4705,13.4705,0,0,0,196.33008,122.80762Z"/>
      <path id="ratingLetterC" class="ratingLetterOption" d="M215.97852,136.47949q0,1.86768-.11231,3.17481a15.29114,15.29114,0,0,1-.33594,2.24121,6.37833,6.37833,0,0,1-.59765,1.60644,7.88317,7.88317,0,0,1-1.19532,1.53125,15.20537,15.20537,0,0,1-3.1748,2.2041,37.36615,37.36615,0,0,1-5.75293,2.57715,50.02722,50.02722,0,0,1-7.76953,2.05469,51.17411,51.17411,0,0,1-9.4502.82129,49.77453,49.77453,0,0,1-17.92968-3.0625,35.39674,35.39674,0,0,1-13.59668-9.15137,40.88509,40.88509,0,0,1-8.5918-15.20312,68.1662,68.1662,0,0,1-2.98828-21.2168A67.17966,67.17966,0,0,1,147.77051,82.167,45.57416,45.57416,0,0,1,156.96,66.10547a38.44861,38.44861,0,0,1,14.15723-9.86133,47.78729,47.78729,0,0,1,18.19043-3.3623,43.799,43.799,0,0,1,7.76953.67285,47.54581,47.54581,0,0,1,6.91113,1.75586,34.70871,34.70871,0,0,1,5.71485,2.50293,17.14788,17.14788,0,0,1,3.54882,2.42773,8.42141,8.42141,0,0,1,1.38184,1.68067,6.30242,6.30242,0,0,1,.59766,1.71777,19.06527,19.06527,0,0,1,.33593,2.46582q.1128,1.41944.11231,3.51074,0,2.24121-.14942,3.81055a9.85515,9.85515,0,0,1-.52343,2.54,3.50426,3.50426,0,0,1-.89649,1.41894,1.78567,1.78567,0,0,1-1.19531.44922,5.173,5.173,0,0,1-2.83887-1.30762,46.775,46.775,0,0,0-4.44433-2.91406,36.31385,36.31385,0,0,0-6.5-2.91308,27.601,27.601,0,0,0-9.002-1.30762,21.26832,21.26832,0,0,0-17.96679,9.07715A31.50983,31.50983,0,0,0,167.34375,89.04a54.59994,54.59994,0,0,0-1.64355,13.9707,54.82265,54.82265,0,0,0,1.75585,14.75489,28.45766,28.45766,0,0,0,5.00586,10.27246,20.24778,20.24778,0,0,0,7.84375,6.01367,25.8906,25.8906,0,0,0,10.34668,1.97949,29.51485,29.51485,0,0,0,9.04-1.23242,38.04063,38.04063,0,0,0,6.53711-2.72754q2.72608-1.49268,4.48242-2.68945a5.55891,5.55891,0,0,1,2.72657-1.19532,2.13444,2.13444,0,0,1,1.19531.29883,2.25655,2.25655,0,0,1,.74707,1.19531,11.83508,11.83508,0,0,1,.44824,2.50293Q215.977,133.792,215.97852,136.47949Z"/>
      <path id="ratingLetterD" class="ratingLetterOption" d="M221.69336,101.36719q0,13.29785-3.47363,22.748a38.61119,38.61119,0,0,1-9.97364,15.42676,39.96849,39.96849,0,0,1-15.80078,8.77832,77.29581,77.29581,0,0,1-22.15039,2.80176H147.21a6.10416,6.10416,0,0,1-4.146-1.457q-1.68164-1.456-1.68115-4.74414V60.65137q0-3.28565,1.68115-4.74317a6.10416,6.10416,0,0,1,4.146-1.457H172.0127q12.92431,0,21.92675,3.02539a39.74628,39.74628,0,0,1,15.166,8.96485,38.45835,38.45835,0,0,1,9.375,14.68066A58.56788,58.56788,0,0,1,221.69336,101.36719Zm-20.32031.67285a48.53347,48.53347,0,0,0-1.60645-12.77539,27.22934,27.22934,0,0,0-5.1543-10.23438,23.92366,23.92366,0,0,0-9.11425-6.76172q-5.56641-2.42577-14.60547-2.42773h-9.93653V135.583h10.23536a38.63276,38.63276,0,0,0,13.59668-2.0918,22.73158,22.73158,0,0,0,9.22656-6.3125,27.26824,27.26824,0,0,0,5.52832-10.49609A52.5292,52.5292,0,0,0,201.37305,102.04Z"/>
      <path id="ratingLetterE" class="ratingLetterOption" d="M209.59082,143.42676a29.56588,29.56588,0,0,1-.18652,3.624,9.39413,9.39413,0,0,1-.56055,2.35254,3.00732,3.00732,0,0,1-.93359,1.30762,2.0384,2.0384,0,0,1-1.2334.41113H158.11719a6.10287,6.10287,0,0,1-4.14551-1.457Q152.29,148.209,152.29,144.9209V60.65137q0-3.28565,1.68164-4.74317a6.10287,6.10287,0,0,1,4.14551-1.457h48.26074a2.00521,2.00521,0,0,1,1.19531.374,2.88584,2.88584,0,0,1,.89649,1.30664,10.003,10.003,0,0,1,.56054,2.39062,30.12889,30.12889,0,0,1,.18653,3.69824,28.62859,28.62859,0,0,1-.18653,3.54883,9.35187,9.35187,0,0,1-.56054,2.35254,3.18689,3.18689,0,0,1-.89649,1.30762,1.87938,1.87938,0,0,1-1.19531.41113H171.86328V93.44824h29.21094a2.03978,2.03978,0,0,1,1.23242.41114,3.03506,3.03506,0,0,1,.93359,1.26953,8.76529,8.76529,0,0,1,.56055,2.3164,34.19786,34.19786,0,0,1,0,7.13379,8.68561,8.68561,0,0,1-.56055,2.2793,2.73911,2.73911,0,0,1-.93359,1.23242,2.166,2.166,0,0,1-1.23242.37305H171.86328v27.26855h34.81348a2.04475,2.04475,0,0,1,1.2334.41113,3.01558,3.01558,0,0,1,.93359,1.30665,9.40279,9.40279,0,0,1,.56055,2.35351A29.57108,29.57108,0,0,1,209.59082,143.42676Z"/>
      <path id="ratingLetterF" class="ratingLetterOption" d="M208.73145,62.51953a32.02956,32.02956,0,0,1-.18653,3.77246,8.42886,8.42886,0,0,1-.59765,2.42774,3.88931,3.88931,0,0,1-.9336,1.3457,1.78554,1.78554,0,0,1-1.19531.44727H174.2168v25.998H203.876a2.00732,2.00732,0,0,1,1.19531.374,3.13933,3.13933,0,0,1,.93359,1.2705,8.3616,8.3616,0,0,1,.59766,2.39063,37.49632,37.49632,0,0,1,0,7.4707,9.42713,9.42713,0,0,1-.59766,2.46485,3.42723,3.42723,0,0,1-.93359,1.38183,1.88126,1.88126,0,0,1-1.19531.41113H174.2168V148.2832a2.29341,2.29341,0,0,1-.44825,1.41895,3.35028,3.35028,0,0,1-1.60546,1.00879,14.49229,14.49229,0,0,1-3.02637.63574,50.81674,50.81674,0,0,1-9.52442,0,13.77144,13.77144,0,0,1-3.02636-.63574,3.61526,3.61526,0,0,1-1.60547-1.00879,2.16867,2.16867,0,0,1-.48633-1.41895V60.65137q0-3.28565,1.68164-4.74317a6.10287,6.10287,0,0,1,4.14551-1.457h45.49707a1.887,1.887,0,0,1,1.19531.41113,3.46324,3.46324,0,0,1,.9336,1.34473,9.02724,9.02724,0,0,1,.59765,2.50293A33.02365,33.02365,0,0,1,208.73145,62.51953Z"/>
      <path id="ratingLetterG" class="ratingLetterOption" d="M218.40625,69.46777a32.23533,32.23533,0,0,1-.18652,3.73438,11.76067,11.76067,0,0,1-.52246,2.50293,2.8176,2.8176,0,0,1-.82227,1.30762,1.8389,1.8389,0,0,1-1.1582.373,7.28343,7.28343,0,0,1-3.1377-1.34375,46.67815,46.67815,0,0,0-5.752-2.91406,61.88,61.88,0,0,0-8.55371-2.91406,44.41529,44.41529,0,0,0-11.543-1.34375,31.99739,31.99739,0,0,0-12.7002,2.42773,27.60129,27.60129,0,0,0-9.71191,6.87305,30.6248,30.6248,0,0,0-6.2002,10.68262,41.7663,41.7663,0,0,0-2.167,13.78418,44.2441,44.2441,0,0,0,2.2041,14.60449,29.59035,29.59035,0,0,0,6.16309,10.57129,25.39872,25.39872,0,0,0,9.52539,6.4248,33.58769,33.58769,0,0,0,12.28906,2.167,28.55793,28.55793,0,0,0,6.5-.748,23.86531,23.86531,0,0,0,5.97657-2.24024V111.00488H180.30566q-1.34472,0-2.09179-1.68164a15.42247,15.42247,0,0,1-.74707-5.71484,27.524,27.524,0,0,1,.1875-3.51172,8.59594,8.59594,0,0,1,.55957-2.27832,3.20985,3.20985,0,0,1,.89648-1.26953,1.883,1.883,0,0,1,1.19531-.41113h32.64747a5.24991,5.24991,0,0,1,2.1289.41113,4.62651,4.62651,0,0,1,1.64356,1.23242,5.66782,5.66782,0,0,1,1.083,1.97949,8.64187,8.64187,0,0,1,.374,2.65235V140.8877a9.19542,9.19542,0,0,1-.78418,3.92187,5.60158,5.60158,0,0,1-3.21289,2.65234q-2.42871.9712-6.01367,2.01661-3.58594,1.04736-7.4336,1.793-3.84814.74561-7.76953,1.12012-3.92139.37354-7.88184.374a60.47094,60.47094,0,0,1-20.73046-3.32422,40.704,40.704,0,0,1-25.21436-25.02735,58.9688,58.9688,0,0,1-3.36182-20.58105,59.77079,59.77079,0,0,1,3.58594-21.3291,45.16118,45.16118,0,0,1,10.16016-16.0625,43.93442,43.93442,0,0,1,15.876-10.12207,58.30369,58.30369,0,0,1,20.73047-3.51172,69.86454,69.86454,0,0,1,11.43067.85937,64.56029,64.56029,0,0,1,9.00195,2.0918,35.35208,35.35208,0,0,1,6.3877,2.65234A16.102,16.102,0,0,1,216.502,60.876a6.21466,6.21466,0,0,1,1.45606,2.95117A26.44828,26.44828,0,0,1,218.40625,69.46777Z"/>
    </g>
  </g>
</svg>
