<svg xmlns="http://www.w3.org/2000/svg" xmlns:xlink="http://www.w3.org/1999/xlink" id="Layer_1" data-name="Layer 1" width="110mm" height="220mm" viewBox="0 0 311.81 623.62" data-rating-increment="23.9357" data-supplier-model-chars-per-row="15">
  <defs>
    <style>
      .cls-1, .cls-11, .cls-13, .cls-16, .cls-22, .cls-23, .cls-28, .cls-29, .cls-3, .cls-31, .cls-34, .cls-39, .cls-40, .cls-41, .cls-42 {
        fill: none;
      }

      .cls-2 {
        clip-path: url(#clip-path);
      }

      .cls-11, .cls-13, .cls-16, .cls-3 {
        stroke: #00aeef;
      }

      .cls-3 {
        stroke-width: 5px;
      }

      .cls-4 {
        font-size: 11px;
      }

      .cls-12, .cls-14, .cls-17, .cls-24, .cls-26, .cls-4, .cls-5, .cls-56 {
        fill: #231f20;
      }

      .cls-12, .cls-14, .cls-24, .cls-26, .cls-4, .cls-55 {
        font-family: Calibri;
      }

      .cls-6 {
        fill: #034ea2;
      }

      .cls-7 {
        fill: #00aeef;
      }

      .cls-8 {
        fill: #fff200;
      }

      .cls-20, .cls-49, .cls-50, .cls-53, .cls-54, .cls-55, .cls-9 {
        fill: #fff;
      }

      .cls-10 {
        clip-path: url(#clip-path-5);
      }

      .cls-12 {
        font-size: 9px;
      }

      .cls-13 {
        stroke-width: 1.8px;
      }

      .cls-14 {
        font-size: 14px;
      }

      .cls-15 {
        letter-spacing: -0.009em;
      }

      .cls-16 {
        stroke-width: 2px;
      }

      .cls-17 {
        font-size: 24px;
      }

      .cls-17, .cls-49, .cls-50, .cls-54, .cls-56 {
        font-family: Calibri-Bold, Calibri;
      }

      .cls-17, .cls-20, .cls-49, .cls-50, .cls-53, .cls-54, .cls-56 {
        font-weight: 700;
      }

      .cls-18 {
        clip-path: url(#clip-path-10);
      }

      .cls-19 {
        fill: #00c0f3;
      }

      .cls-20 {
        font-size: 14.1521px;
      }

      .cls-20, .cls-53 {
        font-family: MyriadPro-Bold, Myriad Pro;
      }

      .cls-21 {
        clip-path: url(#clip-path-13);
      }

      .cls-22, .cls-28 {
        stroke: #fff;
      }

      .cls-22 {
        stroke-width: 3.78px;
      }

      .cls-23 {
        stroke: #44c8f5;
        stroke-width: 4.32px;
      }

      .cls-23, .cls-34 {
        stroke-linecap: round;
        stroke-linejoin: round;
      }

      .cls-24 {
        font-size: 8px;
      }

      .cls-25 {
        letter-spacing: 0.00195em;
      }

      .cls-26 {
        font-size: 12.6px;
      }

      .cls-27 {
        clip-path: url(#clip-path-16);
      }

      .cls-28 {
        stroke-width: 4.161px;
      }

      .cls-29, .cls-31 {
        stroke: #00c0f0;
      }

      .cls-29 {
        stroke-width: 2.056px;
      }

      .cls-30 {
        fill: #00c0f0;
      }

      .cls-31 {
        stroke-width: 0.332px;
      }

      .cls-32 {
        clip-path: url(#clip-path-17);
      }

      .cls-33 {
        fill: #24b9ec;
      }

      .cls-34 {
        stroke: #24b9ec;
        stroke-width: 0.139px;
      }

      .cls-35 {
        clip-path: url(#clip-path-18);
      }

      .cls-36 {
        fill: #23b9ec;
      }

      .cls-37 {
        fill: #00b9f2;
      }

      .cls-38 {
        clip-path: url(#clip-path-20);
      }

      .cls-39, .cls-40, .cls-41, .cls-42 {
        stroke: #00b9f2;
      }

      .cls-39 {
        stroke-width: 1.512px;
      }

      .cls-40 {
        stroke-width: 0.983px;
      }

      .cls-41 {
        stroke-width: 0.874px;
      }

      .cls-42 {
        stroke-width: 0.849px;
      }

      .cls-43 {
        fill: #00a651;
      }

      .cls-44 {
        fill: #50b848;
      }

      .cls-45 {
        fill: #bfd730;
      }

      .cls-46 {
        fill: #fdb913;
      }

      .cls-47 {
        fill: #f37021;
      }

      .cls-48 {
        fill: #ed1c24;
      }

      .cls-49 {
        font-size: 19.4158px;
      }

      .cls-50 {
        font-size: 13.2845px;
      }

      .cls-51 {
        letter-spacing: 0.01em;
      }

      .cls-52 {
        clip-path: url(#clip-path-24);
      }

      .cls-53 {
        font-size: 18.3939px;
      }

      .cls-54 {
        font-size: 29px;
      }

      .cls-55 {
        font-size: 18px;
      }

      .cls-56 {
        font-size: 30px;
      }

      .cls-99 {
        font-size: 16px;
        fill: #231f20;
        font-family: Calibri;
      }
    </style>
    <clipPath id="clip-path">
      <rect class="cls-1" y="-0.00201" width="311.811" height="623.62201"/>
    </clipPath>
    <clipPath id="clip-path-5">
      <rect class="cls-1" x="25.512" y="25.508" width="260.78698" height="51.02502"/>
    </clipPath>
    <clipPath id="clip-path-10">
      <rect class="cls-1" x="165.295" y="451.974" width="47.92101" height="51.52"/>
    </clipPath>
    <clipPath id="clip-path-13">
      <rect class="cls-1" x="232.27699" y="446.79999" width="47.92" height="56.69401"/>
    </clipPath>
    <clipPath id="clip-path-16">
      <rect class="cls-1" x="93.543" y="443.94901" width="57.638" height="55.17899"/>
    </clipPath>
    <clipPath id="clip-path-17">
      <rect class="cls-1" x="23.942" y="487.14301" width="59.837" height="59.83599"/>
    </clipPath>
    <clipPath id="clip-path-18">
      <rect class="cls-1" x="29.339" y="496.795" width="38.008" height="41.592"/>
    </clipPath>
    <clipPath id="clip-path-20">
      <rect class="cls-1" x="35.6" y="452.371" width="46.43999" height="47.659"/>
    </clipPath>
    <clipPath id="clip-path-24">
      <rect class="cls-1" x="25.132" y="147.11597" width="197.24401" height="168.02402"/>
    </clipPath>
  </defs>
  <title>air-vented-tumble-dryers</title>
  <g class="cls-2">
    <path class="cls-3" d="M26.5945,16.67108s-9.921,0-9.921,9.921v570.433s0,9.922,9.921,9.922h258.622s9.921,0,9.921-9.922V26.5921s0-9.921-9.921-9.921Z"/>
  </g>

























  <g class="cls-2">
    
    <rect class="cls-7" x="104.131" y="25.646" width="182.16801" height="50.815"/>
    
    
    
    
    
    
    
    
    
    
    
    

  <g id="union-flag" transform="translate(25.532, 25.646) scale(1.6938333333333333)">
	<path id="blue" fill="#004289" d="M9.59,20L0,26.39V20H9.59z M39.59,0H27.5v8.06L39.59,0z M0,3.61V10h9.59L0,3.61z M17.5,0H5.41
		L17.5,8.06V0z M27.5,30h12.09L27.5,21.94V30z M45,10V3.61L35.41,10H45z M45,26.39V20h-9.59L45,26.39z M5.41,30H17.5v-8.06L5.41,30z
		"/>
	<path id="red" fill="#DC2F34" d="M45,18H25.5v12h-6V18H0v-6h19.5V0h6v12H45V18z M0,2.42L11.38,10h3.61L0,0.01V2.42z M45,27.58
		L33.62,20h-3.61L45,29.99V27.58z M17.5,20.74V20H15L0,30h3.61L17.5,20.74z M27.5,9.26V10H30L45,0h-3.61L27.5,9.26z"/>
</g><path id="energy-heading" d="M7.1581,7.21791H2.33537v3.7413H7.72769v1.90845H0V.13234H7.44305V2.04079H2.33537V5.32836H7.1581Zm3.53413,5.64975V.13234h2.677L16.67314,5.593a37.85159,37.85159,0,0,1,2.18339,4.27032h.038a51.82706,51.82706,0,0,1-.20865-5.29055V.13234h2.1644V12.86766H18.41992L15.07833,7.25572a43.774,43.774,0,0,1-2.2787-4.38342l-.076.0189c.095,1.64379.133,3.32538.133,5.42289v4.55357ZM31.63845,7.21791H26.81573v3.7413h5.392v1.90845H24.48V.13234h7.44305V2.04079H26.81573V5.32836h4.82272ZM35.19126.32139A20.16965,20.16965,0,0,1,38.72282.03781a5.98372,5.98372,0,0,1,3.94949,1.02056,3.228,3.228,0,0,1,1.1012,2.56949,3.347,3.347,0,0,1-2.3357,3.17446V6.859a3.16007,3.16007,0,0,1,1.7851,2.45638,32.106,32.106,0,0,0,1.00653,3.55224H41.83707a16.17761,16.17761,0,0,1-.85455-3.00431c-.37994-1.66269-.96854-2.19171-2.2977-2.22952H37.50764v5.23383H35.19126ZM37.50764,5.933h1.38647c1.57581,0,2.5437-.83119,2.5437-2.09719,0-1.37943-.96789-2.04079-2.487-2.04079a6.74576,6.74576,0,0,0-1.44314.11343Zm19.67341,6.34892A12.70364,12.70364,0,0,1,53.08022,13a6.96331,6.96331,0,0,1-5.032-1.7005,6.3681,6.3681,0,0,1-1.78446-4.68623C46.28243,2.56982,49.1494,0,53.38353,0a8.52961,8.52961,0,0,1,3.3989.60464l-.5126,1.87065a6.6378,6.6378,0,0,0-2.905-.54793c-2.73432,0-4.65207,1.606-4.65207,4.5728,0,2.89088,1.78509,4.61029,4.44342,4.61029a4.91246,4.91246,0,0,0,1.76578-.24577v-3.193H52.66228V5.8388h4.51877Zm6.23045.58573V7.55821L59.36734.13234h2.677l1.51914,3.269c.43661.94462.75924,1.66269,1.11987,2.53169h.038c.304-.81228.66458-1.606,1.10184-2.53169L67.361.13234H70L65.74719,7.50149v5.36617Z" fill="#fff" transform="translate(117.99595584741246, 39.77372127209416) scale(1.6938333333333333)"/></g>

  <g class="cls-2">
    <line class="cls-11" x1="24.8031" y1="126.63971" x2="287.00809" y2="126.63971"/>
  </g>
  <text class="cls-12" transform="translate(28.34668 598.76355)">20../..</text>
  <g class="cls-2">
    <path class="cls-13" d="M210.837,366.21381s-8.929,0-8.929,8.929v49.348s0,8.929,8.929,8.929h66.058s8.929,0,8.929-8.929v-49.348s0-8.929-8.929-8.929Z"/>
  </g>
  <text class="cls-14" transform="translate(208.4082 413.6698)">k</text>
  <text class="cls-14" transform="translate(214.66602 413.6698)">W</text>
  <text class="cls-14" transform="translate(227.04199 413.6698)">h</text>
  <text class="cls-14" transform="translate(234.23828 413.6698)">/</text>
  <text class="cls-14" transform="translate(239.08203 413.6698)"><tspan class="cls-15">a</tspan><tspan x="6.58008" y="0">n</tspan></text>
  <text class="cls-14" transform="translate(252.88574 413.6698)">n</text>
  <text class="cls-14" transform="translate(260.0957 413.6698)">u</text>
  <text class="cls-14" transform="translate(267.32031 413.6698)">m</text>
  <g class="cls-2">
    <path class="cls-16" d="M169.6891,440.57289s-9.921,0-9.921,9.921v97.213s0,9.921,9.921,9.921h39.132s9.921,0,9.921-9.921v-97.213s0-9.921-9.921-9.921Z"/>
  </g>
  <text class="cls-17" transform="translate(203.5752 534.10828)"> </text>
  <text class="cls-14" transform="translate(182.52734 548.10828)">k</text>
  <text class="cls-14" transform="translate(189.10742 548.10828)">g</text>
  <g class="cls-2">
    <rect class="cls-9" x="165.295" y="451.974" width="47.92" height="51.52"/>
  </g>
  <g class="cls-18">
    <path class="cls-19" d="M203.4274,455.3262l-9.375-2.616a6.12215,6.12215,0,0,1-11.21.001l-9.372,2.615-7.853,8.943,5.162,6.763,2.763-.582.073,28.067,14.833.073,14.834-.073.072-28.067,2.764.582,5.162-6.763Z"/>
  </g>
  <text class="cls-20" transform="translate(181.0127 481.77527)">k</text>
  <text class="cls-20" transform="translate(188.49902 481.77527)">g</text>
  <g class="cls-2">
    <path class="cls-16" d="M236.67149,440.57289s-9.921,0-9.921,9.921v97.213s0,9.921,9.921,9.921h39.132s9.921,0,9.921-9.921v-97.213s0-9.921-9.921-9.921Z"/>
  </g>
  <text class="cls-17" transform="translate(269.66895 534.56921)"> </text>
  <text class="cls-14" transform="translate(248.81543 548.56921)">d</text>
  <text class="cls-14" transform="translate(256.03906 548.56921)">B</text>
  <g class="cls-2">
    <rect class="cls-9" x="232.27699" y="446.80099" width="47.92" height="56.693"/>
  </g>
  <g class="cls-21">
    <path class="cls-7" d="M247.6362,487.35429q-3.8025-3.393-7.609-6.786h-5.425v-10.844h5.425q3.804-3.3915,7.609-6.784l3.149-2.807v30.028Z"/>
    <path class="cls-22" d="M247.6362,487.35429q-3.8025-3.393-7.609-6.786h-5.425v-10.844h5.425q3.804-3.3915,7.609-6.784l3.149-2.807v30.028Z"/>
    <path class="cls-23" d="M267.96219,454.046a38.46811,38.46811,0,0,1,.071,42.204m-7.024-36.385a26.44309,26.44309,0,0,1,.085,30.514m-6.786-24.744a14.92166,14.92166,0,0,1,.129,18.925"/>
  </g>
  <g class="cls-2">
    <path class="cls-16" d="M35.7244,440.59109s-9.921,0-9.921,9.921v97.4s0,9.922,9.921,9.922h39.132s9.921,0,9.921-9.922v-97.4s0-9.921-9.921-9.921Z"/>

  </g>














  <g class="cls-2">
    <path class="cls-16" d="M102.7068,440.6261s-9.921,0-9.921,9.921v97.213s0,9.921,9.921,9.921h39.132s9.921,0,9.921-9.921v-97.213s0-9.921-9.921-9.921Z"/>
  </g>
  <text class="cls-26" transform="translate(98 547.89539) scale(1 1.11111)">min/cycle</text>









  <g class="cls-27">
    <path class="cls-9" d="M122.0341,493.7946a18.74,18.74,0,1,0-18.743-18.74,18.74,18.74,0,0,0,18.743,18.74"/>
    <path class="cls-28" d="M122.0341,493.7946a18.74,18.74,0,1,0-18.743-18.74A18.74,18.74,0,0,0,122.0341,493.7946Z"/>
    <path class="cls-9" d="M122.0341,493.7946a18.74,18.74,0,1,0-18.743-18.74,18.74,18.74,0,0,0,18.743,18.74"/>
    <path class="cls-29" d="M122.0341,493.7946a18.74,18.74,0,1,0-18.743-18.74A18.74,18.74,0,0,0,122.0341,493.7946Z"/>
    <line class="cls-29" x1="121.7666" y1="490.04869" x2="121.7666" y2="475.3027"/>
    <line class="cls-29" x1="121.7425" y1="474.76469" x2="126.43649" y2="465.2627"/>
    <path class="cls-30" d="M121.7425,476.2211a1.457,1.457,0,1,0-1.458-1.458,1.45957,1.45957,0,0,0,1.458,1.458"/>
    <path class="cls-9" d="M111.1823,458.63379c-5.78,3.191-2.566,9.598-2.566,16.669,0,10.349,1.46,13.132,13.418,16.46,0,0-15.587-.209-16.225-16.873-.417-10.872,6.209-14.553,6.209-14.553l2.202,4.367,4.976-8.978-10.047-1.778Z"/>
    <path class="cls-30" d="M112.0661,458.10829c-5.781,3.19-9.797,10.124-9.797,17.195,0,10.349,8.937,19.521,19.497,19.333,0,0-16.925-2.377-17.565-19.042-.415-10.872,8.801-15.888,8.801-15.888l1.269,2.639,3.317-5.914-6.808-1.144Z"/>
    <path class="cls-31" d="M112.0661,458.10829c-5.781,3.19-9.797,10.124-9.797,17.195,0,10.349,8.937,19.521,19.497,19.333,0,0-16.925-2.377-17.565-19.042-.415-10.872,8.801-15.888,8.801-15.888l1.269,2.639,3.317-5.914-6.808-1.144Z"/>
  </g>
  <g class="cls-32">
    <path class="cls-33" d="M62.5135,529.4311h5.686a.395.395,0,0,1,.395.395v14.949a.394.394,0,0,1-.394.394h-5.688a.394.394,0,0,1-.394-.394v-14.949A.395.395,0,0,1,62.5135,529.4311Z"/>
    <path class="cls-33" d="M55.9131,542.235v-5.404h6.362v8.14a13.47474,13.47474,0,0,0-6.362-2.736"/>
    <path class="cls-34" d="M55.9131,542.235v-5.404h6.362v8.14A13.47474,13.47474,0,0,0,55.9131,542.235Z"/>
    <path class="cls-33" d="M55.9131,532.3653v5.404h6.362v-8.14a13.47461,13.47461,0,0,1-6.362,2.736"/>
    <path class="cls-34" d="M55.9131,532.3653v5.404h6.362v-8.14A13.47461,13.47461,0,0,1,55.9131,532.3653Z"/>
    <path class="cls-33" d="M75.4196,532.53a1.184,1.184,0,1,1,0,2.368h-8.008a1.184,1.184,0,0,1,0-2.368Z"/>
    <path class="cls-33" d="M75.4196,539.8418a1.184,1.184,0,1,1,0,2.368h-8.008a1.184,1.184,0,0,1,0-2.368Z"/>
    <rect class="cls-33" x="52.1372" y="534.9266" width="4.968" height="4.74699" rx="0.395"/>
  </g>
  <g class="cls-35">
    <path class="cls-36" d="M38.8596,497.1237a.51826.51826,0,0,0-.099-.128.62276.62276,0,0,0-.146-.103.83278.83278,0,0,0-.194-.069,1.19581,1.19581,0,0,0-.243-.027,1.19581,1.19581,0,0,1,.243.027.83278.83278,0,0,1,.194.069.62276.62276,0,0,1,.146.103.51826.51826,0,0,1,.099.128"/>
    <path class="cls-36" d="M38.1778,496.79649a.84845.84845,0,0,1,.573.19.5.5,0,0,1,.168.408.56935.56935,0,0,1-.224.406.94518.94518,0,0,1-.604.183c-.372-.003-.806-.005-1.265.008a14.04369,14.04369,0,0,0-1.417.107,6.859,6.859,0,0,0-1.344.302,2.91393,2.91393,0,0,0-1.05.598,2.17288,2.17288,0,0,0-.471.646,2.317,2.317,0,0,0-.211.741,2.57086,2.57086,0,0,0,.028.764,2.51611,2.51611,0,0,0,.243.71,3.73112,3.73112,0,0,0,1.082,1.229,7.44973,7.44973,0,0,0,1.609.893,15.8937,15.8937,0,0,0,1.891.636c.652.178,1.308.328,1.929.465.951.208,1.91.394,2.877.564.968.17,1.943.323,2.922.466q1.47.213,2.949.4c.987.127,1.975.248,2.963.37.892.11,1.792.216,2.694.329.903.112,1.808.231,2.711.366.905.135,1.807.286,2.702.464.898.178,1.789.383,2.672.625.542.149,1.137.326,1.732.542a11.66077,11.66077,0,0,1,1.734.775,5.669,5.669,0,0,1,1.416,1.078,3.00865,3.00865,0,0,1,.767,1.46,4.54557,4.54557,0,0,1,.073,1.331,3.517,3.517,0,0,1-.339,1.209,3.41365,3.41365,0,0,1-.78,1.027,4.46123,4.46123,0,0,1-1.245.781,16.11928,16.11928,0,0,1-2.494.82c-.876.217-1.787.383-2.711.519-.928.136-1.87.242-2.806.338-.939.097-1.872.184-2.782.283-1.081.119-2.171.223-3.265.326-1.096.104-2.197.206-3.298.321-1.105.114-2.211.241-3.315.392-1.108.152-2.215.33-3.318.545-.739.145-1.523.31-2.31.517a18.04855,18.04855,0,0,0-2.34.772,10.3037,10.3037,0,0,0-2.123,1.166,6.63364,6.63364,0,0,0-1.659,1.715,6.91385,6.91385,0,0,0-.816,1.726,6.13993,6.13993,0,0,0-.284,1.85,5.10674,5.10674,0,0,0,.333,1.81,4.569,4.569,0,0,0,1.034,1.588,8.95,8.95,0,0,0,1.579,1.245,12.91235,12.91235,0,0,0,1.851.953,20.03512,20.03512,0,0,0,2.014.716c.686.206,1.38.382,2.064.538q1.4145.32548,2.868.563,1.452.24,2.929.394,1.4745.15451,2.957.225,1.4805.07048,2.952.059l.273-.003c.091-.001.182-.003.273-.004l.273-.006c.091-.002.182-.005.272-.007a1.03054,1.03054,0,0,1,.791.32,1.1381,1.1381,0,0,1,.291.721,1.09377,1.09377,0,0,1-.226.739.97484.97484,0,0,1-.765.357c-.077.003-.155.005-.232.007-.078.001-.155.003-.232.005l-.233.003-.233.003q-1.059.009-2.123-.027-1.065-.036-2.129-.112-1.062-.0765-2.121-.189-1.0575-.111-2.105-.255c-1.322-.18-2.813-.416-4.327-.76a25.48934,25.48934,0,0,1-4.437-1.398,12.04288,12.04288,0,0,1-3.627-2.306,6.51581,6.51581,0,0,1-1.931-3.421,7.29143,7.29143,0,0,1-.09-2.221,8.55846,8.55846,0,0,1,.546-2.202,8.89884,8.89884,0,0,1,1.101-1.998,8.22321,8.22321,0,0,1,1.585-1.632,12.60174,12.60174,0,0,1,2.249-1.373,17.61941,17.61941,0,0,1,2.455-.947c.839-.257,1.697-.464,2.553-.637.853-.173,1.705-.313,2.536-.436,1.138-.169,2.276-.314,3.413-.445,1.132-.131,2.264-.247,3.393-.358,1.127-.111,2.251-.216,3.37-.326,1.117-.11,2.229-.224,3.335-.351q.7365-.084,1.474-.172c.49-.06.98-.122,1.466-.191.487-.068.97-.142,1.449-.226.479-.083.953-.175,1.421-.279.259-.057.53-.117.802-.184s.546-.141.811-.227a6.025,6.025,0,0,0,.759-.301,3.29775,3.29775,0,0,0,.644-.403,2.27958,2.27958,0,0,0,.64-.844,2.21136,2.21136,0,0,0-.129-2.031,2.60714,2.60714,0,0,0-.85-.857,7.27571,7.27571,0,0,0-.852-.464c-.297-.137-.605-.26-.917-.37-.313-.11-.63-.208-.947-.298-.316-.09-.633-.172-.942-.249q-.6495-.1605-1.302-.299-.651-.13951-1.306-.26-.6525-.1215-1.309-.228c-.436-.072-.873-.139-1.31-.204-.955-.142-1.91-.27-2.866-.393-.955-.123-1.91-.239-2.864-.357-.954-.117-1.906-.234-2.856-.359s-1.897-.256-2.839-.401c-.886-.137-1.799-.272-2.716-.422-.916-.15-1.837-.315-2.741-.512-.903-.196-1.787-.422-2.632-.696a15.79152,15.79152,0,0,1-2.38-.971,7.24151,7.24151,0,0,1-1.408-.931,5.05541,5.05541,0,0,1-1.001-1.131,3.70435,3.70435,0,0,1-.52-1.29,3.45669,3.45669,0,0,1,.025-1.405,3.06054,3.06054,0,0,1,1.005-1.683,5.219,5.219,0,0,1,1.828-.982,11.20454,11.20454,0,0,1,2.27-.465,20.22328,20.22328,0,0,1,2.35-.11"/>
    <path class="cls-36" d="M61.7336,516.12319c.259-.058.529-.117.802-.184.272-.067.545-.141.81-.228a5.80384,5.80384,0,0,0,.758-.3,3.31871,3.31871,0,0,0,.643-.403,2.26091,2.26091,0,0,0,.64-.844,2.2118,2.2118,0,0,0-.129-2.031,2.61674,2.61674,0,0,0-.85-.857,7.27692,7.27692,0,0,0-.853-.464c-.296-.137-.603-.259-.916-.37-.312-.11-.63-.208-.947-.298-.316-.09-.632-.172-.942-.248-.433-.108-.867-.207-1.301-.3q-.6525-.1395-1.306-.26c-.436-.081-.873-.156-1.309-.228q-.6555-.1065-1.311-.204c-.955-.141-1.91-.27-2.866-.393-.955-.123-1.91-.239-2.864-.356-.953-.117-1.906-.235-2.856-.36q-1.425-.186-2.839-.401c-.886-.136-1.799-.272-2.716-.422-.916-.15-1.837-.315-2.741-.511-.902-.196-1.787-.423-2.632-.697a15.8354,15.8354,0,0,1-2.38-.971,15.8354,15.8354,0,0,0,2.38.971c.845.274,1.73.501,2.632.697.904.196,1.825.361,2.741.511.917.15,1.83.286,2.716.422q1.413.21749,2.839.401c.95.125,1.903.243,2.856.36.954.117,1.909.233,2.864.356.956.123,1.911.252,2.866.393q.6555.09749,1.311.204c.436.072.873.147,1.309.228s.871.167,1.306.26c.434.093.868.192,1.301.3.31.076.626.158.942.248.317.09.635.188.947.298.313.111.62.233.916.37a7.27692,7.27692,0,0,1,.853.464,2.61674,2.61674,0,0,1,.85.857,2.2118,2.2118,0,0,1,.129,2.031,2.26091,2.26091,0,0,1-.64.844,3.31871,3.31871,0,0,1-.643.403,5.80384,5.80384,0,0,1-.758.3c-.265.087-.538.161-.81.228-.273.067-.543.126-.802.184"/>
  </g>
  <g class="cls-2">
    <rect class="cls-9" x="35.6" y="452.373" width="46.439" height="47.657"/>
    <path class="cls-37" d="M37.261,497.482H73.274v-43.55H37.261Zm-1.532-45.043H74.805v46.535H35.729Z"/>
  </g>
  <g class="cls-38">
    <line class="cls-39" x1="73.5287" y1="492.20509" x2="80.0187" y2="492.20509"/>
    <line class="cls-39" x1="73.5287" y1="485.43649" x2="80.0187" y2="485.43649"/>
  </g>
  <g class="cls-2">
    <rect class="cls-9" x="72.972" y="486.161" width="2.093" height="5.27299"/>
    <polygon class="cls-37" points="77.315 490.466 79.004 488.82 77.315 487.175 78.747 487.175 80.436 488.82 78.747 490.466 77.315 490.466"/>
    <line class="cls-40" x1="73.2271" y1="488.821" x2="79.23909" y2="488.821"/>
  </g>
  <g class="cls-38">
    <path class="cls-41" d="M43.4674,482.9556a3.24859,3.24859,0,0,0,3.29,3.206h17.523a3.24859,3.24859,0,0,0,3.29-3.206v-16.234a3.24858,3.24858,0,0,0-3.29-3.206H46.7574a3.24858,3.24858,0,0,0-3.29,3.206Z"/>
    <line class="cls-42" x1="74.123" y1="461.4895" x2="36.412" y2="461.4895"/>
  </g>
  <g class="cls-2">
    <polygon class="cls-43" points="25.132 151.687 25.132 171.81 125.426 171.81 135.393 161.748 125.426 151.687 25.132 151.687"/>
    <polygon class="cls-44" points="25.132 175.577 25.132 195.698 137.301 195.698 147.278 185.638 137.301 175.577 25.132 175.577"/>
    <polygon class="cls-45" points="25.132 199.464 25.132 219.588 148.898 219.588 158.88 209.527 148.898 199.464 25.132 199.464"/>
    <polygon class="cls-8" points="25.132 223.356 25.132 243.476 160.496 243.476 170.48 233.415 160.496 223.356 25.132 223.356"/>
    <polygon class="cls-46" points="25.132 247.243 25.132 267.364 172.094 267.364 182.082 257.306 172.094 247.243 25.132 247.243"/>
    <polygon class="cls-47" points="25.132 271.13 25.132 291.255 183.692 291.255 193.685 281.194 183.692 271.13 25.132 271.13"/>
    <polygon class="cls-48" points="25.132 295.018 25.132 315.139 194.695 315.139 205.341 305.081 194.695 295.018 25.132 295.018"/>
  </g>
  <text class="cls-49" transform="translate(31.31396 167.99939)"><tspan xml:space="preserve"> A</tspan></text>
  <text class="cls-50" transform="translate(48.33252 162.82751)"><tspan class="cls-51">+</tspan><tspan x="6.74902" y="0">+</tspan></text>
  <text class="cls-50" transform="translate(61.85596 162.82751)">+</text>
  <text class="cls-49" transform="translate(31.44043 192.01355)"><tspan xml:space="preserve"> A</tspan></text>
  <text class="cls-50" transform="translate(47.83203 186.84607)">+</text>
  <text class="cls-50" transform="translate(54.59375 186.84607)">+</text>
  <text class="cls-49" transform="translate(31.44043 215.78162)"><tspan xml:space="preserve"> A</tspan></text>
  <text class="cls-49" transform="translate(31.07129 239.79871)"><tspan xml:space="preserve"> A</tspan></text>
  <text class="cls-49" transform="translate(31.26563 263.48621)"><tspan xml:space="preserve"> B</tspan></text>
  <text class="cls-49" transform="translate(31.26563 287.25134)"><tspan xml:space="preserve"> C</tspan></text>
  <g class="cls-52">
    <text class="cls-49" transform="translate(30.89697 311.26843)"><tspan xml:space="preserve"> D</tspan></text>
  </g>
  <text class="cls-50" transform="translate(47.83203 210.61365)">+</text>
  <g class="cls-52">
    <text class="cls-53" transform="translate(247.93359 167.99548)"><tspan xml:space="preserve"> A</tspan></text>
    <text class="cls-53" transform="translate(248.08105 192.01794)"><tspan xml:space="preserve"> A</tspan></text>
    <text class="cls-53" transform="translate(248.08105 215.78308)"><tspan xml:space="preserve"> A</tspan></text>
    <text class="cls-53" transform="translate(247.71289 239.78699)"><tspan xml:space="preserve"> A</tspan></text>
    <text class="cls-53" transform="translate(247.89648 263.47839)"><tspan xml:space="preserve"> A</tspan></text>
    <text class="cls-53" transform="translate(247.89648 287.24304)"><tspan xml:space="preserve"> A</tspan></text>
  </g>
  <g class="cls-52">
    <text class="cls-53" transform="translate(247.51758 311.25916)"><tspan xml:space="preserve"> A</tspan></text>
  </g>
  <g class="cls-2">
    <path class="cls-9" d="M29.8032,590.9586s-4,0-4,4v2.056s0,4,4,4h26.85s4,0,4-4v-2.056s0-4-4-4Z"/>
  </g>
  <text class="cls-12" transform="translate(28.34668 598.76355)">392/2012</text>
  <g id="rating">
    <polyline id="ratingArrow" class="cls-5" points="213.19 161.74 232.72 142.01 286.3 142.01 286.3 181.47 232.72 181.47 213.19 161.74"/>
    <text id="ratingLetter" class="cls-54" transform="translate(225.9502 170.24988)">A</text>
    <text id="ratingPlusses" class="cls-55" transform="translate(244.94043 161.32019)">+++</text>
  </g>
  <text id="supplierLine2" class="cls-99" transform="translate(25.50959 119.05041)">X</text>
  <text id="supplierLine1" class="cls-99" transform="translate(25.50959 102.79205)">X</text>
  <text id="modelLine2" class="cls-99" transform="translate(164.40998 119.05041)">X</text>
  <text id="modelLine1" class="cls-99" transform="translate(164.40998 102.79205)">X</text>
  <text id="kwhAnnum" class="cls-56" transform="translate(244 399.67957)" text-anchor="middle">X</text>
  <text id="minCycle" class="cls-17" transform="translate(122 533.90027)" text-anchor="middle">X</text>
  <text id="kg" class="cls-17" transform="translate(190 534.10046)" text-anchor="middle">X</text>
  <text id="db" class="cls-17" transform="translate(256 534.56042)" text-anchor="middle">X</text>
</svg>