<svg xmlns="http://www.w3.org/2000/svg" xmlns:xlink="http://www.w3.org/1999/xlink" id="Layer_1" data-name="Layer 1" width="110mm" height="220mm" viewBox="0 0 311.81 623.62" data-rating-increment="23.9357" data-supplier-model-chars-per-row="15">
  <defs>
    <style>
      .condensationEfficiencyClassA #condensationEfficiencyClassALetter,
      .condensationEfficiencyClassB #condensationEfficiencyClassBLetter,
      .condensationEfficiencyClassC #condensationEfficiencyClassCLetter,
      .condensationEfficiencyClassD #condensationEfficiencyClassDLetter,
      .condensationEfficiencyClassE #condensationEfficiencyClassELetter,
      .condensationEfficiencyClassF #condensationEfficiencyClassFLetter,
      .condensationEfficiencyClassG #condensationEfficiencyClassGLetter {
        font-size: 16.5px;
        font-weight: 700;
        font-family: Calibri-Bold, Calibri;
      }

      .cls-1, .cls-11, .cls-12, .cls-14, .cls-22, .cls-23, .cls-3, .cls-38, .cls-42, .cls-43, .cls-45, .cls-48, .cls-52, .cls-53, .cls-54 {
        fill: none;
      }

      .cls-2 {
        clip-path: url(#clip-path);
      }

      .cls-11, .cls-12, .cls-14, .cls-3 {
        stroke: #00aeef;
      }

      .cls-3 {
        stroke-width: 5px;
      }

      .cls-4 {
        font-size: 11px;
      }

      .cls-13, .cls-15, .cls-17, .cls-24, .cls-4, .cls-40, .cls-5, .cls-68, .cls-69, .cls-70 {
        fill: #231f20;
      }

      .cls-13, .cls-15, .cls-24, .cls-4, .cls-40, .cls-67, .cls-70 {
        font-family: Calibri;
      }

      .cls-6 {
        fill: #034ea2;
      }

      .cls-7 {
        fill: #00aeef;
      }

      .cls-8 {
        fill: #fff200;
      }

      .cls-20, .cls-61, .cls-62, .cls-65, .cls-66, .cls-67, .cls-9 {
        fill: #fff;
      }

      .cls-10 {
        clip-path: url(#clip-path-5);
      }

      .cls-12 {
        stroke-width: 2px;
      }

      .cls-13 {
        font-size: 9px;
      }

      .cls-14 {
        stroke-width: 1.8px;
      }

      .cls-15 {
        font-size: 14px;
      }

      .cls-16 {
        letter-spacing: -0.009em;
      }

      .cls-17 {
        font-size: 24px;
      }

      .cls-17, .cls-61, .cls-62, .cls-66, .cls-68, .cls-69 {
        font-family: Calibri-Bold, Calibri;
      }

      .cls-17, .cls-20, .cls-61, .cls-62, .cls-65, .cls-66, .cls-68, .cls-69 {
        font-weight: 700;
      }

      .cls-18 {
        clip-path: url(#clip-path-11);
      }

      .cls-19 {
        fill: #00c0f3;
      }

      .cls-20 {
        font-size: 14.1521px;
      }

      .cls-20, .cls-65 {
        font-family: MyriadPro-Bold, Myriad Pro;
      }

      .cls-21 {
        clip-path: url(#clip-path-13);
      }

      .cls-22, .cls-42 {
        stroke: #fff;
      }

      .cls-22 {
        stroke-width: 3.78px;
      }

      .cls-23 {
        stroke: #44c8f5;
        stroke-width: 4.32px;
      }

      .cls-23, .cls-48 {
        stroke-linecap: round;
        stroke-linejoin: round;
      }

      .cls-24 {
        font-size: 12.6px;
      }

      .cls-25 {
        clip-path: url(#clip-path-16);
      }

      .cls-26 {
        isolation: isolate;
      }

      .cls-27 {
        clip-path: url(#clip-path-17);
      }

      .cls-28 {
        fill: #8ed8f8;
      }

      .cls-29 {
        fill: #00b9f2;
      }

      .cls-30 {
        clip-path: url(#clip-path-19);
      }

      .cls-31 {
        opacity: 0.71001;
      }

      .cls-32 {
        clip-path: url(#clip-path-20);
      }

      .cls-33 {
        clip-path: url(#clip-path-21);
      }

      .cls-34 {
        opacity: 0.33;
      }

      .cls-35 {
        clip-path: url(#clip-path-22);
      }

      .cls-36 {
        clip-path: url(#clip-path-23);
      }

      .cls-37 {
        clip-path: url(#clip-path-24);
      }

      .cls-38, .cls-52, .cls-53, .cls-54 {
        stroke: #00b9f2;
      }

      .cls-38 {
        stroke-width: 1.463px;
      }

      .cls-39 {
        clip-path: url(#clip-path-26);
      }

      .cls-40 {
        font-size: 8px;
      }

      .cls-41 {
        clip-path: url(#clip-path-29);
      }

      .cls-42 {
        stroke-width: 4.161px;
      }

      .cls-43, .cls-45 {
        stroke: #00c0f0;
      }

      .cls-43 {
        stroke-width: 2.056px;
      }

      .cls-44 {
        fill: #00c0f0;
      }

      .cls-45 {
        stroke-width: 0.332px;
      }

      .cls-46 {
        clip-path: url(#clip-path-30);
      }

      .cls-47 {
        fill: #24b9ec;
      }

      .cls-48 {
        stroke: #24b9ec;
        stroke-width: 0.139px;
      }

      .cls-49 {
        clip-path: url(#clip-path-31);
      }

      .cls-50 {
        fill: #23b9ec;
      }

      .cls-51 {
        clip-path: url(#clip-path-33);
      }

      .cls-52 {
        stroke-width: 1.539px;
      }

      .cls-53 {
        stroke-width: 0.831px;
      }

      .cls-54 {
        stroke-width: 0.849px;
      }

      .cls-55 {
        fill: #00a651;
      }

      .cls-56 {
        fill: #50b848;
      }

      .cls-57 {
        fill: #bfd730;
      }

      .cls-58 {
        fill: #fdb913;
      }

      .cls-59 {
        fill: #f37021;
      }

      .cls-60 {
        fill: #ed1c24;
      }

      .cls-61 {
        font-size: 19.4158px;
      }

      .cls-62 {
        font-size: 13.2845px;
      }

      .cls-63 {
        letter-spacing: 0.01em;
      }

      .cls-64 {
        clip-path: url(#clip-path-37);
      }

      .cls-65 {
        font-size: 18.3939px;
      }

      .cls-66 {
        font-size: 29px;
      }

      .cls-67 {
        font-size: 18px;
      }

      .cls-68 {
        font-size: 30px;
      }

      .cls-69 {
        font-size: 16.5px;
      }

      .cls-70 {
        font-size: 12px;
      }

      .cls-99 {
        font-size: 16px;
        fill: #231f20;
        font-family: Calibri;
      }
    </style>
    <clipPath id="clip-path">
      <rect class="cls-1" y="-0.00201" width="311.811" height="623.62201"/>
    </clipPath>
    <clipPath id="clip-path-5">
      <rect class="cls-1" x="25.512" y="25.508" width="260.78698" height="51.02502"/>
    </clipPath>
    <clipPath id="clip-path-11">
      <rect class="cls-1" x="165.295" y="416.18599" width="47.92101" height="51.52"/>
    </clipPath>
    <clipPath id="clip-path-13">
      <rect class="cls-1" x="232.27699" y="411.013" width="47.92" height="56.69299"/>
    </clipPath>
    <clipPath id="clip-path-16">
      <rect class="cls-1" x="36.141" y="533.045" width="38.298" height="50.953"/>
    </clipPath>
    <clipPath id="clip-path-17">
      <rect class="cls-1" x="-1.87596" y="453.088" width="205.31695" height="205.317"/>
    </clipPath>
    <clipPath id="clip-path-19">
      <rect class="cls-1" x="-1.276" y="453.689" width="204.117" height="204.116"/>
    </clipPath>
    <clipPath id="clip-path-20">
      <rect class="cls-1" x="132.09599" y="554.48399" width="6.26901" height="8.8514"/>
    </clipPath>
    <clipPath id="clip-path-21">
      <rect class="cls-1" x="132.09599" y="554.48299" width="6.26801" height="8.852"/>
    </clipPath>
    <clipPath id="clip-path-22">
      <rect class="cls-1" x="139.897" y="542.77399" width="6.269" height="8.8502"/>
    </clipPath>
    <clipPath id="clip-path-23">
      <rect class="cls-1" x="139.897" y="542.77499" width="6.26801" height="8.849"/>
    </clipPath>
    <clipPath id="clip-path-24">
      <rect class="cls-1" x="132.74899" y="542.6657" width="4.96301" height="10.5915"/>
    </clipPath>
    <clipPath id="clip-path-26">
      <rect class="cls-1" x="140.55" y="530.97679" width="4.963" height="10.5914"/>
    </clipPath>
    <clipPath id="clip-path-29">
      <rect class="cls-1" x="93.543" y="408.12599" width="57.638" height="55.179"/>
    </clipPath>
    <clipPath id="clip-path-30">
      <rect class="cls-1" x="23.942" y="451.03699" width="59.837" height="59.83501"/>
    </clipPath>
    <clipPath id="clip-path-31">
      <rect class="cls-1" x="29.339" y="460.69" width="38.008" height="41.591"/>
    </clipPath>
    <clipPath id="clip-path-33">
      <rect class="cls-1" x="35.564" y="414.33398" width="39.452" height="49.936"/>
    </clipPath>
    <clipPath id="clip-path-37">
      <rect class="cls-1" x="25.132" y="147.11597" width="197.24401" height="168.02402"/>
    </clipPath>
  </defs>
  <title>condenser-tumble-dryers</title>
  <g class="cls-2">
    <path class="cls-3" d="M26.5945,16.67108s-9.921,0-9.921,9.921v570.433s0,9.922,9.921,9.922h258.622s9.921,0,9.921-9.922V26.5921s0-9.921-9.921-9.921Z"/>
  </g>

























  <g class="cls-2">
    <rect class="cls-6" x="25.532" y="25.646" width="76.082" height="50.815"/>
    <rect class="cls-7" x="104.131" y="25.646" width="182.16801" height="50.815"/>
    <polygon class="cls-8" points="79.294 42.587 80.929 41.399 78.908 41.399 78.283 39.476 77.658 41.399 75.636 41.399 77.272 42.587 76.647 44.51 78.283 43.321 79.918 44.51 79.294 42.587"/>
    <polygon class="cls-8" points="72.927 36.49 74.562 35.302 72.541 35.302 71.916 33.379 71.291 35.302 69.27 35.302 70.905 36.49 70.28 38.413 71.916 37.224 73.552 38.413 72.927 36.49"/>
    <polygon class="cls-8" points="64.713 34.309 66.349 33.121 64.327 33.121 63.702 31.198 63.077 33.121 61.055 33.121 62.691 34.309 62.067 36.232 63.702 35.044 65.338 36.232 64.713 34.309"/>
    <polygon class="cls-8" points="56.064 36.49 57.699 35.302 55.678 35.302 55.053 33.379 54.428 35.302 52.406 35.302 54.042 36.49 53.417 38.413 55.053 37.224 56.689 38.413 56.064 36.49"/>
    <polygon class="cls-8" points="49.885 42.886 51.521 41.698 49.499 41.698 48.874 39.775 48.249 41.698 46.227 41.698 47.863 42.886 47.239 44.809 48.874 43.621 50.51 44.809 49.885 42.886"/>
    <polygon class="cls-8" points="47.912 51.29 49.548 50.102 47.526 50.102 46.901 48.179 46.276 50.102 44.254 50.102 45.89 51.29 45.265 53.213 46.901 52.024 48.537 53.213 47.912 51.29"/>
    <polygon class="cls-8" points="49.947 59.804 51.583 58.616 49.561 58.616 48.936 56.693 48.311 58.616 46.289 58.616 47.925 59.804 47.301 61.727 48.936 60.539 50.572 61.727 49.947 59.804"/>
    <polygon class="cls-8" points="56.064 65.855 57.699 64.666 55.678 64.666 55.053 62.744 54.428 64.666 52.406 64.666 54.042 65.855 53.417 67.778 55.053 66.589 56.689 67.777 56.064 65.855"/>
    <polygon class="cls-8" points="64.713 68.109 66.348 66.92 64.326 66.92 63.702 64.998 63.077 66.92 61.055 66.92 62.691 68.109 62.066 70.032 63.702 68.843 65.338 70.032 64.713 68.109"/>
    <polygon class="cls-8" points="73.129 65.824 74.765 64.635 72.742 64.635 72.118 62.713 71.493 64.635 69.471 64.635 71.107 65.824 70.483 67.747 72.118 66.559 73.753 67.747 73.129 65.824"/>
    <polygon class="cls-8" points="79.251 59.75 80.886 58.562 78.865 58.562 78.24 56.639 77.615 58.562 75.594 58.562 77.229 59.75 76.604 61.673 78.24 60.484 79.876 61.673 79.251 59.75"/>
    <polygon class="cls-8" points="81.504 51.172 83.139 49.984 81.118 49.984 80.493 48.061 79.869 49.984 77.846 49.984 79.482 51.172 78.857 53.095 80.493 51.906 82.128 53.095 81.504 51.172"/>

  </g>

  <g class="cls-2">
    <line class="cls-11" x1="24.8031" y1="126.63971" x2="287.00809" y2="126.63971"/>
    <path class="cls-12" d="M102.7068,404.80269s-9.921,0-9.921,9.921v97.213s0,9.921,9.921,9.921h39.132s9.921,0,9.921-9.921v-97.213s0-9.921-9.921-9.921Z"/>
    <path class="cls-12" d="M35.7244,404.80269s-9.921,0-9.921,9.921v97.4s0,9.922,9.921,9.922h39.132s9.921,0,9.921-9.922v-97.4s0-9.921-9.921-9.921Z"/>
  </g>
  <text class="cls-13" transform="translate(28.34668 598.76355)">20../..</text>
  <g class="cls-2">
    <path class="cls-14" d="M210.837,330.42551s-8.929,0-8.929,8.929v49.348s0,8.929,8.929,8.929h66.058s8.929,0,8.929-8.929v-49.348s0-8.929-8.929-8.929Z"/>
  </g>
  <text class="cls-15" transform="translate(208.4082 377.88171)">k</text>
  <text class="cls-15" transform="translate(214.66602 377.88171)">W</text>
  <text class="cls-15" transform="translate(227.04199 377.88171)">h</text>
  <text class="cls-15" transform="translate(234.23828 377.88171)">/</text>
  <text class="cls-15" transform="translate(239.08203 377.88171)"><tspan class="cls-16">a</tspan><tspan x="6.58008" y="0">n</tspan></text>
  <text class="cls-15" transform="translate(252.88574 377.88171)">n</text>
  <text class="cls-15" transform="translate(260.0957 377.88171)">u</text>
  <text class="cls-15" transform="translate(267.32031 377.88171)">m</text>
  <g class="cls-2">
    <path class="cls-12" d="M236.67149,404.78459s-9.921,0-9.921,9.921v97.213s0,9.921,9.921,9.921h39.132s9.921,0,9.921-9.921v-97.213s0-9.921-9.921-9.921Z"/>
  </g>
  <text class="cls-17" transform="translate(269.66895 498.78113)"> </text>
  <text class="cls-15" transform="translate(248.81543 512.78113)">d</text>
  <text class="cls-15" transform="translate(256.03906 512.78113)">B</text>
  <g class="cls-2">
    <path class="cls-12" d="M169.6891,404.78459s-9.921,0-9.921,9.921v97.213s0,9.921,9.921,9.921h39.132s9.921,0,9.921-9.921v-97.213s0-9.921-9.921-9.921Z"/>
  </g>
  <text class="cls-17" transform="translate(203.5752 498.32019)"> </text>
  <text class="cls-15" transform="translate(182.52734 512.32019)">k</text>
  <text class="cls-15" transform="translate(189.10742 512.32019)">g</text>
  <g class="cls-2">
    <rect class="cls-9" x="165.295" y="416.18599" width="47.92" height="51.52"/>
  </g>
  <g class="cls-18">
    <path class="cls-19" d="M203.4274,419.53789l-9.375-2.616a6.12215,6.12215,0,0,1-11.21.001l-9.372,2.615-7.853,8.943,5.162,6.763,2.763-.582.073,28.067,14.833.073,14.834-.073.072-28.067,2.764.582,5.162-6.763Z"/>
  </g>
  <text class="cls-20" transform="translate(181.0127 445.98718)">k</text>
  <text class="cls-20" transform="translate(188.49902 445.98718)">g</text>
  <g class="cls-2">
    <rect class="cls-9" x="232.27699" y="411.013" width="47.92" height="56.69299"/>
  </g>
  <g class="cls-21">
    <path class="cls-7" d="M247.6362,451.566q-3.8025-3.393-7.609-6.786h-5.425V433.936h5.425q3.804-3.3915,7.609-6.784l3.149-2.807v30.028Z"/>
    <path class="cls-22" d="M247.6362,451.566q-3.8025-3.393-7.609-6.786h-5.425V433.936h5.425q3.804-3.3915,7.609-6.784l3.149-2.807v30.028Z"/>
    <path class="cls-23" d="M267.96219,418.2576a38.46811,38.46811,0,0,1,.071,42.204m-7.024-36.385a26.44309,26.44309,0,0,1,.085,30.514m-6.786-24.744a14.92165,14.92165,0,0,1,.129,18.925"/>
  </g>
  <g class="cls-2">
    <path class="cls-12" d="M151.7597,539.2679s0-9.921-9.921-9.921H35.8017s-9.921,0-9.921,9.921v39.132s0,9.921,9.921,9.921h106.037s9.921,0,9.921-9.921Z"/>
  </g>
  <text class="cls-24" transform="translate(98 512.07214) scale(1 1.11111)">min/cycle</text>









  <g class="cls-2">
    <rect class="cls-9" x="36.141" y="533.04599" width="38.298" height="50.952"/>
  </g>
  <g class="cls-25">
    <g class="cls-26">
      <g class="cls-27">
        <g class="cls-27">
          <polygon class="cls-28" points="153.436 578.889 131.931 578.889 130.131 566.519 154.636 566.519 153.436 578.889"/>
          <polygon class="cls-29" points="155.331 562.416 151.394 578.888 134.413 578.888 130.476 562.416 127.054 562.416 131.867 581.883 153.94 581.883 158.752 562.416 155.331 562.416"/>
        </g>
        <g class="cls-30">
          <g class="cls-31">
            <g class="cls-32">
              <g class="cls-33">
                <path class="cls-28" d="M132.0965,560.2014c0-1.732,3.134-5.717,3.134-5.717s3.134,3.985,3.134,5.717a3.134,3.134,0,1,1-6.268,0"/>
              </g>
            </g>
          </g>
          <g class="cls-34">
            <g class="cls-35">
              <g class="cls-36">
                <path class="cls-28" d="M139.8974,548.4901c0-1.731,3.134-5.716,3.134-5.716s3.134,3.985,3.134,5.716a3.134,3.134,0,1,1-6.268,0"/>
              </g>
            </g>
          </g>
          <path class="cls-28" d="M146.5625,563.65639c0-1.731,3.134-5.716,3.134-5.716s3.135,3.985,3.135,5.716a3.1345,3.1345,0,0,1-6.269,0"/>
          <g class="cls-31">
            <g class="cls-37">
              <g class="cls-37">
                <polygon class="cls-29" points="132.749 548.671 135.23 551.152 137.712 548.671 137.712 550.776 135.23 553.257 132.749 550.776 132.749 548.671"/>
                <line class="cls-38" x1="135.2305" y1="542.6657" x2="135.2305" y2="551.4977"/>
              </g>
            </g>
          </g>
          <g class="cls-34">
            <g class="cls-39">
              <g class="cls-39">
                <polygon class="cls-29" points="140.55 536.982 143.031 539.463 145.513 536.982 145.513 539.087 143.031 541.568 140.55 539.087 140.55 536.982"/>
                <line class="cls-38" x1="143.0313" y1="530.97679" x2="143.0313" y2="539.80879"/>
              </g>
            </g>
          </g>
          <polygon class="cls-29" points="147.328 552.049 149.809 554.53 152.291 552.049 152.291 554.154 149.809 556.635 147.328 554.154 147.328 552.049"/>
          <line class="cls-38" x1="149.80901" y1="546.0435" x2="149.80901" y2="554.8755"/>
          <polygon class="cls-28" points="109.051 578.889 87.546 578.889 85.746 566.519 110.251 566.519 109.051 578.889"/>
          <polygon class="cls-29" points="110.946 562.416 107.009 578.888 90.028 578.888 86.091 562.416 82.669 562.416 87.482 581.883 109.555 581.883 114.367 562.416 110.946 562.416"/>
          <path class="cls-28" d="M87.7114,560.2014c0-1.732,3.134-5.717,3.134-5.717s3.134,3.985,3.134,5.717a3.134,3.134,0,0,1-6.268,0"/>
          <path class="cls-28" d="M95.5123,554.2716c0-1.731,3.134-5.716,3.134-5.716s3.134,3.985,3.134,5.716a3.134,3.134,0,1,1-6.268,0"/>
          <path class="cls-28" d="M102.1775,563.65639c0-1.731,3.134-5.716,3.134-5.716s3.135,3.985,3.135,5.716a3.1345,3.1345,0,0,1-6.269,0"/>
          <polygon class="cls-29" points="88.364 548.671 90.845 551.152 93.327 548.671 93.327 550.776 90.845 553.257 88.364 550.776 88.364 548.671"/>
          <line class="cls-38" x1="90.8454" y1="542.6657" x2="90.8454" y2="551.4977"/>
          <polygon class="cls-29" points="96.165 542.764 98.646 545.245 101.128 542.764 101.128 544.869 98.646 547.35 96.165 544.869 96.165 542.764"/>
          <line class="cls-38" x1="98.6462" y1="536.75829" x2="98.6462" y2="545.59029"/>
          <polygon class="cls-29" points="102.943 552.049 105.424 554.53 107.906 552.049 107.906 554.154 105.424 556.635 102.943 554.154 102.943 552.049"/>
          <line class="cls-38" x1="105.424" y1="546.0435" x2="105.424" y2="554.8755"/>
          <polygon class="cls-28" points="66.142 578.889 44.637 578.889 42.837 566.519 67.342 566.519 66.142 578.889"/>
          <polygon class="cls-29" points="68.037 562.416 64.1 578.888 47.119 578.888 43.182 562.416 39.76 562.416 44.573 581.883 66.646 581.883 71.458 562.416 68.037 562.416"/>
          <path class="cls-28" d="M44.8019,560.2014c0-1.732,3.134-5.717,3.134-5.717s3.134,3.985,3.134,5.717a3.134,3.134,0,0,1-6.268,0"/>
          <path class="cls-28" d="M52.6028,554.2716c0-1.731,3.134-5.716,3.134-5.716s3.134,3.985,3.134,5.716a3.134,3.134,0,0,1-6.268,0"/>
          <path class="cls-28" d="M59.2679,563.65639c0-1.731,3.134-5.716,3.134-5.716s3.135,3.985,3.135,5.716a3.1345,3.1345,0,0,1-6.269,0"/>
          <polygon class="cls-29" points="52.655 542.764 55.136 545.245 57.618 542.764 57.618 544.869 55.136 547.35 52.655 544.869 52.655 542.764"/>
          <line class="cls-38" x1="55.1367" y1="536.75829" x2="55.1367" y2="545.59029"/>
          <polygon class="cls-29" points="45.454 542.764 47.935 545.245 50.417 542.764 50.417 544.869 47.935 547.35 45.454 544.869 45.454 542.764"/>
          <line class="cls-38" x1="47.9355" y1="536.75829" x2="47.9355" y2="545.59029"/>
          <polygon class="cls-29" points="59.922 542.764 62.403 545.245 64.885 542.764 64.885 544.869 62.403 547.35 59.922 544.869 59.922 542.764"/>
          <line class="cls-38" x1="62.4028" y1="536.75829" x2="62.4028" y2="545.59029"/>
        </g>
      </g>
    </g>
  </g>
  <g class="cls-2">

  </g>























  <g class="cls-41">
    <path class="cls-9" d="M122.0341,457.97119a18.74,18.74,0,1,0-18.743-18.74,18.74,18.74,0,0,0,18.743,18.74"/>
    <path class="cls-42" d="M122.0341,457.97119a18.74,18.74,0,1,0-18.743-18.74A18.74,18.74,0,0,0,122.0341,457.97119Z"/>
    <path class="cls-9" d="M122.0341,457.97119a18.74,18.74,0,1,0-18.743-18.74,18.74,18.74,0,0,0,18.743,18.74"/>
    <path class="cls-43" d="M122.0341,457.97119a18.74,18.74,0,1,0-18.743-18.74A18.74,18.74,0,0,0,122.0341,457.97119Z"/>
    <line class="cls-43" x1="121.7666" y1="454.2253" x2="121.7666" y2="439.47931"/>
    <line class="cls-43" x1="121.7425" y1="438.94139" x2="126.43649" y2="429.43939"/>
    <path class="cls-44" d="M121.7425,440.39769a1.457,1.457,0,1,0-1.458-1.458,1.45957,1.45957,0,0,0,1.458,1.458"/>
    <path class="cls-9" d="M111.1823,422.81039c-5.78,3.191-2.566,9.598-2.566,16.669,0,10.349,1.46,13.132,13.418,16.46,0,0-15.587-.209-16.225-16.873-.417-10.872,6.209-14.553,6.209-14.553l2.202,4.367,4.976-8.978-10.047-1.778Z"/>
    <path class="cls-44" d="M112.0661,422.2849c-5.781,3.19-9.797,10.124-9.797,17.195,0,10.349,8.937,19.521,19.497,19.333,0,0-16.925-2.377-17.565-19.042-.415-10.872,8.801-15.888,8.801-15.888l1.269,2.639,3.317-5.914-6.808-1.144Z"/>
    <path class="cls-45" d="M112.0661,422.2849c-5.781,3.19-9.797,10.124-9.797,17.195,0,10.349,8.937,19.521,19.497,19.333,0,0-16.925-2.377-17.565-19.042-.415-10.872,8.801-15.888,8.801-15.888l1.269,2.639,3.317-5.914-6.808-1.144Z"/>
  </g>
  <g class="cls-46">
    <path class="cls-47" d="M62.5135,493.3244h5.686a.395.395,0,0,1,.395.395v14.949a.394.394,0,0,1-.394.394h-5.688a.394.394,0,0,1-.394-.394v-14.949A.395.395,0,0,1,62.5135,493.3244Z"/>
    <path class="cls-47" d="M55.9131,506.1283v-5.404h6.362v8.14a13.47461,13.47461,0,0,0-6.362-2.736"/>
    <path class="cls-48" d="M55.9131,506.1283v-5.404h6.362v8.14A13.47461,13.47461,0,0,0,55.9131,506.1283Z"/>
    <path class="cls-47" d="M55.9131,496.2586v5.404h6.362v-8.14a13.47461,13.47461,0,0,1-6.362,2.736"/>
    <path class="cls-48" d="M55.9131,496.2586v5.404h6.362v-8.14A13.47461,13.47461,0,0,1,55.9131,496.2586Z"/>
    <path class="cls-47" d="M75.4196,496.42329a1.184,1.184,0,0,1,0,2.368h-8.008a1.184,1.184,0,0,1,0-2.368Z"/>
    <path class="cls-47" d="M75.4196,503.73509a1.184,1.184,0,0,1,0,2.368h-8.008a1.184,1.184,0,0,1,0-2.368Z"/>
    <rect class="cls-47" x="52.1372" y="498.8199" width="4.968" height="4.74699" rx="0.395"/>
  </g>
  <g class="cls-49">
    <path class="cls-50" d="M38.8596,461.017a.5184.5184,0,0,0-.099-.128.62276.62276,0,0,0-.146-.103.83233.83233,0,0,0-.194-.069,1.19578,1.19578,0,0,0-.243-.027,1.19578,1.19578,0,0,1,.243.027.83233.83233,0,0,1,.194.069.62276.62276,0,0,1,.146.103.5184.5184,0,0,1,.099.128"/>
    <path class="cls-50" d="M38.1778,460.68979a.84845.84845,0,0,1,.573.19.5.5,0,0,1,.168.408.56937.56937,0,0,1-.224.406.9453.9453,0,0,1-.604.183c-.372-.003-.806-.005-1.265.008a14.04656,14.04656,0,0,0-1.417.107,6.8597,6.8597,0,0,0-1.344.302,2.91409,2.91409,0,0,0-1.05.598,2.17288,2.17288,0,0,0-.471.646,2.31709,2.31709,0,0,0-.211.741,2.57092,2.57092,0,0,0,.028.764,2.516,2.516,0,0,0,.243.71,3.73108,3.73108,0,0,0,1.082,1.229,7.45013,7.45013,0,0,0,1.609.893,15.8937,15.8937,0,0,0,1.891.636c.652.178,1.308.328,1.929.465.951.208,1.91.394,2.877.564.968.17,1.943.323,2.922.466q1.47.213,2.949.4c.987.127,1.975.248,2.963.37.892.11,1.792.216,2.694.329.903.112,1.808.231,2.711.366.905.135,1.807.286,2.702.464.898.178,1.789.383,2.672.625.542.149,1.137.326,1.732.542a11.65978,11.65978,0,0,1,1.734.775,5.669,5.669,0,0,1,1.416,1.078,3.00867,3.00867,0,0,1,.767,1.46,4.54563,4.54563,0,0,1,.073,1.331,3.517,3.517,0,0,1-.339,1.209,3.41381,3.41381,0,0,1-.78,1.027,4.46121,4.46121,0,0,1-1.245.781,16.12033,16.12033,0,0,1-2.494.82c-.876.217-1.787.383-2.711.519-.928.136-1.87.242-2.806.338-.939.097-1.872.184-2.782.283-1.081.119-2.171.223-3.265.326-1.096.104-2.197.206-3.298.321-1.105.114-2.211.241-3.315.392-1.108.152-2.215.33-3.318.545-.739.145-1.523.31-2.31.517a18.05008,18.05008,0,0,0-2.34.772,10.3042,10.3042,0,0,0-2.123,1.166,6.63391,6.63391,0,0,0-1.659,1.715,6.91408,6.91408,0,0,0-.816,1.726,6.13988,6.13988,0,0,0-.284,1.85,5.1066,5.1066,0,0,0,.333,1.81,4.56886,4.56886,0,0,0,1.034,1.588,8.95,8.95,0,0,0,1.579,1.245,12.91342,12.91342,0,0,0,1.851.953,20.03506,20.03506,0,0,0,2.014.716c.686.206,1.38.382,2.064.538q1.4145.3255,2.868.563,1.452.24,2.929.394,1.4745.1545,2.957.225,1.4805.0705,2.952.059l.273-.003c.091-.001.182-.003.273-.004l.273-.006c.091-.002.182-.005.272-.007a1.03057,1.03057,0,0,1,.791.32,1.13812,1.13812,0,0,1,.291.721,1.09376,1.09376,0,0,1-.226.739.97485.97485,0,0,1-.765.357c-.077.003-.155.005-.232.007-.078.001-.155.003-.232.005l-.233.003-.233.003q-1.059.009-2.123-.027-1.065-.036-2.129-.112-1.062-.0765-2.121-.189-1.0575-.111-2.105-.255c-1.322-.18-2.813-.416-4.327-.76a25.48931,25.48931,0,0,1-4.437-1.398,12.04327,12.04327,0,0,1-3.627-2.306,6.51584,6.51584,0,0,1-1.931-3.421,7.29134,7.29134,0,0,1-.09-2.221,8.55826,8.55826,0,0,1,.546-2.202,8.89884,8.89884,0,0,1,1.101-1.998,8.22262,8.22262,0,0,1,1.585-1.632,12.6,12.6,0,0,1,2.249-1.373,17.617,17.617,0,0,1,2.455-.947c.839-.257,1.697-.464,2.553-.637.853-.173,1.705-.313,2.536-.436,1.138-.169,2.276-.314,3.413-.445,1.132-.131,2.264-.247,3.393-.358,1.127-.111,2.251-.216,3.37-.326,1.117-.11,2.229-.224,3.335-.351q.7365-.084,1.474-.172c.49-.06.98-.122,1.466-.191.487-.068.97-.142,1.449-.226.479-.083.953-.175,1.421-.279.259-.057.53-.117.802-.184s.546-.141.811-.227a6.025,6.025,0,0,0,.759-.301,3.2968,3.2968,0,0,0,.644-.403,2.27955,2.27955,0,0,0,.64-.844,2.21138,2.21138,0,0,0-.129-2.031,2.60721,2.60721,0,0,0-.85-.857,7.27571,7.27571,0,0,0-.852-.464c-.297-.137-.605-.26-.917-.37-.313-.11-.63-.208-.947-.298-.316-.09-.633-.172-.942-.249q-.6495-.16051-1.302-.299-.651-.1395-1.306-.26-.6525-.12151-1.309-.228c-.436-.072-.873-.139-1.31-.204-.955-.142-1.91-.27-2.866-.393-.955-.123-1.91-.239-2.864-.357-.954-.117-1.906-.234-2.856-.359s-1.897-.256-2.839-.401c-.886-.137-1.799-.272-2.716-.422-.916-.15-1.837-.315-2.741-.512-.903-.196-1.787-.422-2.632-.696a15.79046,15.79046,0,0,1-2.38-.971,7.24151,7.24151,0,0,1-1.408-.931,5.05519,5.05519,0,0,1-1.001-1.131,3.70432,3.70432,0,0,1-.52-1.29,3.45669,3.45669,0,0,1,.025-1.405,3.06051,3.06051,0,0,1,1.005-1.683,5.219,5.219,0,0,1,1.828-.982,11.20386,11.20386,0,0,1,2.27-.465,20.22108,20.22108,0,0,1,2.35-.11"/>
    <path class="cls-50" d="M61.7336,480.01649c.259-.058.529-.117.802-.184.272-.067.545-.141.81-.228a5.80525,5.80525,0,0,0,.758-.3,3.31871,3.31871,0,0,0,.643-.403,2.26091,2.26091,0,0,0,.64-.844,2.2118,2.2118,0,0,0-.129-2.031,2.61686,2.61686,0,0,0-.85-.857,7.2768,7.2768,0,0,0-.853-.464c-.296-.137-.603-.259-.916-.37-.312-.11-.63-.208-.947-.298-.316-.09-.632-.172-.942-.248-.433-.108-.867-.207-1.301-.3q-.6525-.1395-1.306-.26c-.436-.081-.873-.156-1.309-.228q-.6555-.1065-1.311-.204c-.955-.141-1.91-.27-2.866-.393-.955-.123-1.91-.239-2.864-.356-.953-.117-1.906-.235-2.856-.36q-1.425-.186-2.839-.401c-.886-.136-1.799-.272-2.716-.422-.916-.15-1.837-.315-2.741-.511-.902-.196-1.787-.423-2.632-.697a15.83537,15.83537,0,0,1-2.38-.971,15.83537,15.83537,0,0,0,2.38.971c.845.274,1.73.501,2.632.697.904.196,1.825.361,2.741.511.917.15,1.83.286,2.716.422q1.413.21749,2.839.401c.95.125,1.903.243,2.856.36.954.117,1.909.233,2.864.356.956.123,1.911.252,2.866.393q.6555.0975,1.311.204c.436.072.873.147,1.309.228s.871.167,1.306.26c.434.093.868.192,1.301.3.31.076.626.158.942.248.317.09.635.188.947.298.313.111.62.233.916.37a7.2768,7.2768,0,0,1,.853.464,2.61686,2.61686,0,0,1,.85.857,2.2118,2.2118,0,0,1,.129,2.031,2.26091,2.26091,0,0,1-.64.844,3.31871,3.31871,0,0,1-.643.403,5.80525,5.80525,0,0,1-.758.3c-.265.087-.538.161-.81.228-.273.067-.543.126-.802.184"/>
  </g>
  <g class="cls-2">
    <rect class="cls-9" x="35.564" y="414.33299" width="39.452" height="49.937"/>
  </g>
  <g class="cls-51">
    <rect class="cls-52" x="36.45" y="417.405" width="37.71099" height="44.907"/>
    <path class="cls-53" d="M43.5059,447.91679a3.08936,3.08936,0,0,0,3.128,3.048h17.846a3.08959,3.08959,0,0,0,3.129-3.048v-14.375a3.089,3.089,0,0,0-3.129-3.048H46.6339a3.08871,3.08871,0,0,0-3.128,3.048Z"/>
  </g>
  <g class="cls-2">
    <rect class="cls-28" x="41.065" y="421.62999" width="7.842" height="4.08299"/>
    <polygon class="cls-29" points="41.04 427.088 39.286 420.171 40.971 420.171 42.189 425.598 47.943 425.598 49.16 420.171 50.845 420.171 49.09 427.088 41.04 427.088"/>
  </g>
  <g class="cls-51">
    <line class="cls-54" x1="74.1612" y1="428.46779" x2="36.4502" y2="428.46779"/>
  </g>
  <g class="cls-2">
    <polygon class="cls-55" points="25.132 151.687 25.132 171.81 125.426 171.81 135.393 161.748 125.426 151.687 25.132 151.687"/>
    <polygon class="cls-56" points="25.132 175.577 25.132 195.698 137.301 195.698 147.278 185.638 137.301 175.577 25.132 175.577"/>
    <polygon class="cls-57" points="25.132 199.464 25.132 219.588 148.898 219.588 158.88 209.527 148.898 199.464 25.132 199.464"/>
    <polygon class="cls-8" points="25.132 223.356 25.132 243.476 160.496 243.476 170.48 233.415 160.496 223.356 25.132 223.356"/>
    <polygon class="cls-58" points="25.132 247.243 25.132 267.364 172.094 267.364 182.082 257.306 172.094 247.243 25.132 247.243"/>
    <polygon class="cls-59" points="25.132 271.13 25.132 291.255 183.692 291.255 193.685 281.194 183.692 271.13 25.132 271.13"/>
    <polygon class="cls-60" points="25.132 295.018 25.132 315.139 194.695 315.139 205.341 305.081 194.695 295.018 25.132 295.018"/>
  </g>
  <text class="cls-61" transform="translate(31.31396 167.99939)"><tspan xml:space="preserve"> A</tspan></text>
  <text class="cls-62" transform="translate(48.33252 162.82751)"><tspan class="cls-63">+</tspan><tspan x="6.74902" y="0">+</tspan></text>
  <text class="cls-62" transform="translate(61.85596 162.82751)">+</text>
  <text class="cls-61" transform="translate(31.44043 192.01355)"><tspan xml:space="preserve"> A</tspan></text>
  <text class="cls-62" transform="translate(47.83203 186.84607)">+</text>
  <text class="cls-62" transform="translate(54.59375 186.84607)">+</text>
  <text class="cls-61" transform="translate(31.44043 215.78162)"><tspan xml:space="preserve"> A</tspan></text>
  <text class="cls-61" transform="translate(31.07129 239.79871)"><tspan xml:space="preserve"> A</tspan></text>
  <text class="cls-61" transform="translate(31.26563 263.48621)"><tspan xml:space="preserve"> B</tspan></text>
  <text class="cls-61" transform="translate(31.26563 287.25134)"><tspan xml:space="preserve"> C</tspan></text>
  <g class="cls-64">
    <text class="cls-61" transform="translate(30.89697 311.26843)"><tspan xml:space="preserve"> D</tspan></text>
  </g>
  <text class="cls-62" transform="translate(47.83203 210.61365)">+</text>
  <g class="cls-64">
    <text class="cls-65" transform="translate(247.93359 167.99548)"><tspan xml:space="preserve"> A</tspan></text>
    <text class="cls-65" transform="translate(248.08105 192.01794)"><tspan xml:space="preserve"> A</tspan></text>
    <text class="cls-65" transform="translate(248.08105 215.78308)"><tspan xml:space="preserve"> A</tspan></text>
    <text class="cls-65" transform="translate(247.71289 239.78699)"><tspan xml:space="preserve"> A</tspan></text>
    <text class="cls-65" transform="translate(247.89648 263.47839)"><tspan xml:space="preserve"> A</tspan></text>
    <text class="cls-65" transform="translate(247.89648 287.24304)"><tspan xml:space="preserve"> A</tspan></text>
  </g>
  <g class="cls-64">
    <text class="cls-65" transform="translate(247.51758 311.25916)"><tspan xml:space="preserve"> A</tspan></text>
  </g>
  <g class="cls-2">
    <path class="cls-9" d="M28.8808,592.49509a2.93816,2.93816,0,0,0-3,3v3.865a2.93816,2.93816,0,0,0,3,3h30.298a2.93816,2.93816,0,0,0,3-3v-3.865a2.93816,2.93816,0,0,0-3-3Z"/>
  </g>
  <text class="cls-13" transform="translate(28.34668 598.76355)">392/2012</text>
  <g id="rating">
    <polyline id="ratingArrow" class="cls-5" points="213.19 161.74 232.72 142.01 286.3 142.01 286.3 181.47 232.72 181.47 213.19 161.74"/>
    <text id="ratingLetter" class="cls-66" transform="translate(225.9502 170.24988)">A</text>
    <text id="ratingPlusses" class="cls-67" transform="translate(244.94043 161.32019)">+++</text>
  </g>
  <text id="supplierLine2" class="cls-99" transform="translate(25.50959 119.05041)">X</text>
  <text id="supplierLine1" class="cls-99" transform="translate(25.50959 102.79205)">X</text>
  <text id="modelLine2" class="cls-99" transform="translate(164.40998 119.05041)">X</text>
  <text id="modelLine1" class="cls-99" transform="translate(164.40998 102.79205)">X</text>
  <text id="kwhAnnum" class="cls-68" transform="translate(244 364.87)" text-anchor="middle">X</text>
  <text id="minCycle" class="cls-17" transform="translate(122 498.07019)" text-anchor="middle">X</text>
  <text id="kg" class="cls-17" transform="translate(190 498.07019)" text-anchor="middle">X</text>
  <text id="db" class="cls-17" transform="translate(256 498.07019)" text-anchor="middle">X</text>

  <text id="condensationEfficiencyClass" class="cls-70" transform="translate(108.7 564.57019) scale(1 1.33333)" text-anchor="middle">
    <!-- Do not pretty-print these spans - they need to be all on one line to avoid whitespace between them when rendering -->
    <tspan id="condensationEfficiencyClassALetter">A</tspan><tspan id="condensationEfficiencyClassBLetter">B</tspan><tspan id="condensationEfficiencyClassCLetter">C</tspan><tspan id="condensationEfficiencyClassDLetter">D</tspan><tspan id="condensationEfficiencyClassELetter">E</tspan><tspan id="condensationEfficiencyClassFLetter">F</tspan><tspan id="condensationEfficiencyClassGLetter">G</tspan>
  </text>
</svg>
