<svg id="Layer_1" data-name="Layer 1" xmlns="http://www.w3.org/2000/svg" xmlns:xlink="http://www.w3.org/1999/xlink" width="110mm" height="220mm" viewBox="0 0 311.81 623.62" data-rating-increment="23.9357" data-supplier-model-chars-per-row="20">
  <defs>
    <style>
      .condensationEfficiencyClassA #condensationEfficiencyClassALetter,
      .condensationEfficiencyClassB #condensationEfficiencyClassBLetter,
      .condensationEfficiencyClassC #condensationEfficiencyClassCLetter,
      .condensationEfficiencyClassD #condensationEfficiencyClassDLetter,
      .condensationEfficiencyClassE #condensationEfficiencyClassELetter,
      .condensationEfficiencyClassF #condensationEfficiencyClassFLetter,
      .condensationEfficiencyClassG #condensationEfficiencyClassGLetter {
        font-size: 16.5px;
        font-weight: 700;
      }      

      .cls-1, .cls-11, .cls-12, .cls-14, .cls-22, .cls-23, .cls-3, .cls-38, .cls-42, .cls-43, .cls-45, .cls-48, .cls-52, .cls-53, .cls-54 {
        fill: none;
      }

      .cls-2 {
        clip-path: url(#clip-path);
      }

      .cls-11, .cls-12, .cls-14, .cls-3 {
        stroke: #00aeef;
      }

      .cls-3 {
        stroke-width: 5px;
      }

      .cls-4 {
        font-size: 11px;
      }

      .cls-13, .cls-15, .cls-17, .cls-24, .cls-4, .cls-40, .cls-5, .cls-68, .cls-69, .cls-70 {
        fill: #231f20;
      }

      .cls-13, .cls-15, .cls-24, .cls-4, .cls-40, .cls-67, .cls-70 {
        font-family: Calibri;
      }

      .cls-6 {
        fill: #034ea2;
      }

      .cls-7 {
        fill: #00aeef;
      }

      .cls-8 {
        fill: #fff200;
      }

      .cls-20, .cls-61, .cls-62, .cls-65, .cls-66, .cls-67, .cls-9 {
        fill: #fff;
      }

      .cls-10 {
        clip-path: url(#clip-path-5);
      }

      .cls-12 {
        stroke-width: 2px;
      }

      .cls-13 {
        font-size: 9px;
      }

      .cls-14 {
        stroke-width: 1.8px;
      }

      .cls-15 {
        font-size: 14px;
      }

      .cls-16 {
        letter-spacing: -0.009em;
      }

      .cls-17 {
        font-size: 24px;
      }

      .cls-17, .cls-61, .cls-62, .cls-66, .cls-68, .cls-69 {
        font-family: Calibri-Bold, Calibri;
      }

      .cls-17, .cls-20, .cls-61, .cls-62, .cls-65, .cls-66, .cls-68, .cls-69 {
        font-weight: 700;
      }

      .cls-18 {
        clip-path: url(#clip-path-11);
      }

      .cls-19 {
        fill: #00c0f3;
      }

      .cls-20 {
        font-size: 14.1521px;
      }

      .cls-20, .cls-65 {
        font-family: MyriadPro-Bold, Myriad Pro;
      }

      .cls-21 {
        clip-path: url(#clip-path-13);
      }

      .cls-22, .cls-42 {
        stroke: #fff;
      }

      .cls-22 {
        stroke-width: 3.78px;
      }

      .cls-23 {
        stroke: #44c8f5;
        stroke-width: 4.32px;
      }

      .cls-23, .cls-48 {
        stroke-linecap: round;
        stroke-linejoin: round;
      }

      .cls-24 {
        font-size: 12.6px;
      }

      .cls-25 {
        clip-path: url(#clip-path-16);
      }

      .cls-26 {
        isolation: isolate;
      }

      .cls-27 {
        clip-path: url(#clip-path-17);
      }

      .cls-28 {
        fill: #8ed8f8;
      }

      .cls-29 {
        fill: #00b9f2;
      }

      .cls-30 {
        clip-path: url(#clip-path-19);
      }

      .cls-31 {
        opacity: 0.71001;
      }

      .cls-32 {
        clip-path: url(#clip-path-20);
      }

      .cls-33 {
        clip-path: url(#clip-path-21);
      }

      .cls-34 {
        opacity: 0.33;
      }

      .cls-35 {
        clip-path: url(#clip-path-22);
      }

      .cls-36 {
        clip-path: url(#clip-path-23);
      }

      .cls-37 {
        clip-path: url(#clip-path-24);
      }

      .cls-38, .cls-52, .cls-53, .cls-54 {
        stroke: #00b9f2;
      }

      .cls-38 {
        stroke-width: 1.463px;
      }

      .cls-39 {
        clip-path: url(#clip-path-26);
      }

      .cls-40 {
        font-size: 8px;
      }

      .cls-41 {
        clip-path: url(#clip-path-29);
      }

      .cls-42 {
        stroke-width: 4.161px;
      }

      .cls-43, .cls-45 {
        stroke: #00c0f0;
      }

      .cls-43 {
        stroke-width: 2.056px;
      }

      .cls-44 {
        fill: #00c0f0;
      }

      .cls-45 {
        stroke-width: 0.332px;
      }

      .cls-46 {
        clip-path: url(#clip-path-30);
      }

      .cls-47 {
        fill: #24b9ec;
      }

      .cls-48 {
        stroke: #24b9ec;
        stroke-width: 0.139px;
      }

      .cls-49 {
        clip-path: url(#clip-path-31);
      }

      .cls-50 {
        fill: #23b9ec;
      }

      .cls-51 {
        clip-path: url(#clip-path-33);
      }

      .cls-52 {
        stroke-width: 1.539px;
      }

      .cls-53 {
        stroke-width: 0.831px;
      }

      .cls-54 {
        stroke-width: 0.849px;
      }

      .cls-55 {
        fill: #00a651;
      }

      .cls-56 {
        fill: #50b848;
      }

      .cls-57 {
        fill: #bfd730;
      }

      .cls-58 {
        fill: #fdb913;
      }

      .cls-59 {
        fill: #f37021;
      }

      .cls-60 {
        fill: #ed1c24;
      }

      .cls-61 {
        font-size: 19.4158px;
      }

      .cls-62 {
        font-size: 13.2845px;
      }

      .cls-63 {
        letter-spacing: 0.01em;
      }

      .cls-64 {
        clip-path: url(#clip-path-37);
      }

      .cls-65 {
        font-size: 18.3939px;
      }

      .cls-66 {
        font-size: 29px;
      }

      .cls-67 {
        font-size: 18px;
      }

      .cls-68 {
        font-size: 30px;
      }

      .cls-69 {
        font-size: 16.5px;
      }

      .cls-70 {
        font-size: 12px;
      }
    </style>
    <clipPath id="clip-path">
      <rect class="cls-1" y="-0.00201" width="311.811" height="623.62201"/>
    </clipPath>
    <clipPath id="clip-path-5">
      <rect class="cls-1" x="25.512" y="25.508" width="260.78698" height="51.02502"/>
    </clipPath>
    <clipPath id="clip-path-11">
      <rect class="cls-1" x="165.295" y="416.18599" width="47.92101" height="51.52"/>
    </clipPath>
    <clipPath id="clip-path-13">
      <rect class="cls-1" x="232.27699" y="411.013" width="47.92" height="56.69299"/>
    </clipPath>
    <clipPath id="clip-path-16">
      <rect class="cls-1" x="36.141" y="533.045" width="38.298" height="50.953"/>
    </clipPath>
    <clipPath id="clip-path-17">
      <rect class="cls-1" x="-1.87596" y="453.088" width="205.31695" height="205.317"/>
    </clipPath>
    <clipPath id="clip-path-19">
      <rect class="cls-1" x="-1.276" y="453.689" width="204.117" height="204.116"/>
    </clipPath>
    <clipPath id="clip-path-20">
      <rect class="cls-1" x="132.09599" y="554.48399" width="6.26901" height="8.8514"/>
    </clipPath>
    <clipPath id="clip-path-21">
      <rect class="cls-1" x="132.09599" y="554.48299" width="6.26801" height="8.852"/>
    </clipPath>
    <clipPath id="clip-path-22">
      <rect class="cls-1" x="139.897" y="542.77399" width="6.269" height="8.8502"/>
    </clipPath>
    <clipPath id="clip-path-23">
      <rect class="cls-1" x="139.897" y="542.77499" width="6.26801" height="8.849"/>
    </clipPath>
    <clipPath id="clip-path-24">
      <rect class="cls-1" x="132.74899" y="542.6657" width="4.96301" height="10.5915"/>
    </clipPath>
    <clipPath id="clip-path-26">
      <rect class="cls-1" x="140.55" y="530.97679" width="4.963" height="10.5914"/>
    </clipPath>
    <clipPath id="clip-path-29">
      <rect class="cls-1" x="93.543" y="408.12599" width="57.638" height="55.179"/>
    </clipPath>
    <clipPath id="clip-path-30">
      <rect class="cls-1" x="23.942" y="451.03699" width="59.837" height="59.83501"/>
    </clipPath>
    <clipPath id="clip-path-31">
      <rect class="cls-1" x="29.339" y="460.69" width="38.008" height="41.591"/>
    </clipPath>
    <clipPath id="clip-path-33">
      <rect class="cls-1" x="35.564" y="414.33398" width="39.452" height="49.936"/>
    </clipPath>
    <clipPath id="clip-path-37">
      <rect class="cls-1" x="25.132" y="147.11597" width="197.24401" height="168.02402"/>
    </clipPath>
  </defs>
  <title>condenser-tumble-dryers</title>
  <g class="cls-2">
    <path class="cls-3" d="M26.5945,16.67108s-9.921,0-9.921,9.921v570.433s0,9.922,9.921,9.922h258.622s9.921,0,9.921-9.922V26.5921s0-9.921-9.921-9.921Z"/>
  </g>
  <text class="cls-4" transform="translate(28.34668 366.75574)">ENE</text>
  <text class="cls-4" transform="translate(46.18896 366.75574)">R</text>
  <text class="cls-4" transform="translate(52.0625 366.75574)">GIA</text>
  <text class="cls-4" transform="translate(68.13379 366.75574)"> </text>
  <text class="cls-4" transform="translate(70.56445 366.75574)">路 </text>
  <g class="cls-2">
    <path class="cls-5" d="M80.7759,366.37384a1.1772,1.1772,0,0,1-.011.169.3447.3447,0,0,1-.038.121.17956.17956,0,0,1-.062.07.146.146,0,0,1-.077.021h-3.336a.37577.37577,0,0,1-.233-.083.34242.34242,0,0,1-.111-.292v-6.199a.34249.34249,0,0,1,.111-.292.377.377,0,0,1,.233-.084h3.298a.148.148,0,0,1,.078.022.14462.14462,0,0,1,.056.07.50715.50715,0,0,1,.035.12,1.01174,1.01174,0,0,1,.014.18.941.941,0,0,1-.014.17.47519.47519,0,0,1-.035.118.15086.15086,0,0,1-.056.067.14692.14692,0,0,1-.078.021h-2.718v2.181h2.331a.13321.13321,0,0,1,.078.024.20367.20367,0,0,1,.059.067.34411.34411,0,0,1,.035.119,1.28765,1.28765,0,0,1,.011.177,1.12278,1.12278,0,0,1-.011.166.33484.33484,0,0,1-.035.113.15416.15416,0,0,1-.059.062.16623.16623,0,0,1-.078.019h-2.331v2.486h2.756a.14678.14678,0,0,1,.077.022.18421.18421,0,0,1,.062.067.32731.32731,0,0,1,.038.118,1.293,1.293,0,0,1,.011.18m6.935.242a.132.132,0,0,1-.021.075.13905.13905,0,0,1-.075.051.79372.79372,0,0,1-.143.032,1.45919,1.45919,0,0,1-.217.014,1.50507,1.50507,0,0,1-.226-.014.76035.76035,0,0,1-.139-.032.142.142,0,0,1-.076-.051.132.132,0,0,1-.021-.075v-3.083h-3.164v3.083a.132.132,0,0,1-.021.075.13905.13905,0,0,1-.075.051.79372.79372,0,0,1-.143.032,1.76164,1.76164,0,0,1-.443,0,.78133.78133,0,0,1-.145-.032.13531.13531,0,0,1-.075-.051.132.132,0,0,1-.021-.075v-6.671a.13217.13217,0,0,1,.021-.075.13546.13546,0,0,1,.075-.051.70776.70776,0,0,1,.145-.032,1.75914,1.75914,0,0,1,.443,0,.7162.7162,0,0,1,.143.032.13921.13921,0,0,1,.075.051.13217.13217,0,0,1,.021.075v2.782h3.164v-2.782a.13217.13217,0,0,1,.021-.075.14218.14218,0,0,1,.076-.051.68549.68549,0,0,1,.139-.032,1.506,1.506,0,0,1,.226-.014,1.46024,1.46024,0,0,1,.217.014.7162.7162,0,0,1,.143.032.13921.13921,0,0,1,.075.051.13217.13217,0,0,1,.021.075Zm6.144-.242a1.1772,1.1772,0,0,1-.011.169.3447.3447,0,0,1-.038.121.186.186,0,0,1-.061.07.15212.15212,0,0,1-.078.021h-3.336a.37577.37577,0,0,1-.233-.083.34211.34211,0,0,1-.11-.292v-6.199a.34218.34218,0,0,1,.11-.292.377.377,0,0,1,.233-.084h3.298a.148.148,0,0,1,.078.022.14462.14462,0,0,1,.056.07.50715.50715,0,0,1,.035.12,1.01174,1.01174,0,0,1,.014.18.941.941,0,0,1-.014.17.47519.47519,0,0,1-.035.118.15086.15086,0,0,1-.056.067.14692.14692,0,0,1-.078.021h-2.718v2.181h2.331a.13321.13321,0,0,1,.078.024.193.193,0,0,1,.059.067.34411.34411,0,0,1,.035.119,1.28765,1.28765,0,0,1,.011.177,1.12278,1.12278,0,0,1-.011.166.33484.33484,0,0,1-.035.113.14788.14788,0,0,1-.059.062.16623.16623,0,0,1-.078.019h-2.331v2.486h2.756a.153.153,0,0,1,.078.022.19112.19112,0,0,1,.061.067.32731.32731,0,0,1,.038.118,1.293,1.293,0,0,1,.011.18m6.2-4.533a2.46738,2.46738,0,0,1-.172.94,1.99352,1.99352,0,0,1-.492.714,2.20416,2.20416,0,0,1-.784.457,3.40586,3.40586,0,0,1-1.109.161h-.79v2.503a.12017.12017,0,0,1-.024.075.15163.15163,0,0,1-.075.051.69946.69946,0,0,1-.14.032,1.77759,1.77759,0,0,1-.445,0,.79372.79372,0,0,1-.143-.032.13531.13531,0,0,1-.075-.051.132.132,0,0,1-.021-.075v-6.413a.37289.37289,0,0,1,.112-.306.39437.39437,0,0,1,.253-.092h1.488c.15,0,.294.007.432.019a4.18771,4.18771,0,0,1,.489.081,1.99748,1.99748,0,0,1,.574.231,1.7833,1.7833,0,0,1,.497.416,1.80469,1.80469,0,0,1,.315.572,2.23719,2.23719,0,0,1,.11.717m-.973.075a1.4384,1.4384,0,0,0-.158-.709,1.10027,1.10027,0,0,0-.392-.424,1.3226,1.3226,0,0,0-.483-.177,3.28442,3.28442,0,0,0-.487-.038h-.854v2.788h.833a1.93445,1.93445,0,0,0,.696-.108,1.29743,1.29743,0,0,0,.464-.298,1.26,1.26,0,0,0,.285-.456,1.69342,1.69342,0,0,0,.096-.578m6.552-1.708a1.28823,1.28823,0,0,1-.011.177.39941.39941,0,0,1-.035.124.17366.17366,0,0,1-.059.07.14953.14953,0,0,1-.078.021h-2.627v6.021a.12338.12338,0,0,1-.021.073.17462.17462,0,0,1-.075.051.58633.58633,0,0,1-.143.032,1.92769,1.92769,0,0,1-.222.011,1.97248,1.97248,0,0,1-.221-.011.59414.59414,0,0,1-.145-.032.17462.17462,0,0,1-.075-.051.12338.12338,0,0,1-.021-.073v-6.44a.37226.37226,0,0,1,.099-.282.34477.34477,0,0,1,.244-.094h3.207a.1477.1477,0,0,1,.137.097.76438.76438,0,0,1,.046.306m6.636,6.413a.12386.12386,0,0,1-.022.073.17462.17462,0,0,1-.075.051.58816.58816,0,0,1-.142.032,2.24767,2.24767,0,0,1-.444,0,.54546.54546,0,0,1-.142-.032.17514.17514,0,0,1-.072-.051.11724.11724,0,0,1-.022-.073v-4.56c0-.111.002-.226.005-.346.004-.12.009-.229.017-.325h-.011c-.029.05-.06.104-.094.161s-.071.117-.11.18c-.04.063-.079.125-.118.188-.04.063-.079.124-.119.185l-3.007,4.523a.83214.83214,0,0,1-.065.075.23376.23376,0,0,1-.083.051.6042.6042,0,0,1-.121.027,1.70565,1.70565,0,0,1-.177.008,1.556,1.556,0,0,1-.202-.011.36952.36952,0,0,1-.123-.035.15951.15951,0,0,1-.065-.056.16725.16725,0,0,1-.018-.081v-6.665a.11425.11425,0,0,1,.024-.07.171.171,0,0,1,.08-.054.64357.64357,0,0,1,.145-.032,1.82838,1.82838,0,0,1,.212-.011,1.93445,1.93445,0,0,1,.223.011.59957.59957,0,0,1,.143.032.154.154,0,0,1,.075.054.12514.12514,0,0,1,.021.07v4.586c0,.097-.001.201-.002.312-.002.111-.008.218-.019.322h.011c.057-.089.124-.198.201-.325s.159-.253.244-.378l3.003-4.528a.38332.38332,0,0,1,.059-.067.24671.24671,0,0,1,.083-.049.65132.65132,0,0,1,.121-.029,1.22813,1.22813,0,0,1,.177-.011,1.55625,1.55625,0,0,1,.202.011.37045.37045,0,0,1,.123.035.1718.1718,0,0,1,.065.053.14987.14987,0,0,1,.019.078Zm6.54,0a.11724.11724,0,0,1-.022.073.17462.17462,0,0,1-.075.051.58816.58816,0,0,1-.142.032,2.268,2.268,0,0,1-.446,0,.54784.54784,0,0,1-.14-.032.20415.20415,0,0,1-.075-.051.11254.11254,0,0,1-.024-.073v-2.9h-.693a1.8732,1.8732,0,0,0-.642.086,1.086,1.086,0,0,0-.386.25,1.479,1.479,0,0,0-.28.394,5.57279,5.57279,0,0,0-.223.516l-.596,1.601a.70206.70206,0,0,1-.056.107.18819.18819,0,0,1-.089.067.56479.56479,0,0,1-.148.035,1.99221,1.99221,0,0,1-.228.011,1.75829,1.75829,0,0,1-.247-.014.57416.57416,0,0,1-.142-.035.124.124,0,0,1-.067-.051.14224.14224,0,0,1-.016-.072.57.57,0,0,1,.016-.126,1.57282,1.57282,0,0,1,.08-.234l.57-1.477a4.42509,4.42509,0,0,1,.214-.483,2.47133,2.47133,0,0,1,.242-.379,1.6,1.6,0,0,1,.279-.279,1.35688,1.35688,0,0,1,.333-.186,2.3788,2.3788,0,0,1-.58-.223,1.49872,1.49872,0,0,1-.435-.354,1.541,1.541,0,0,1-.271-.486,1.8539,1.8539,0,0,1-.094-.607,2.10181,2.10181,0,0,1,.145-.792,1.65511,1.65511,0,0,1,.44-.626,2.081,2.081,0,0,1,.744-.411,4.26894,4.26894,0,0,1,1.271-.148h1.439a.37272.37272,0,0,1,.236.084.34735.34735,0,0,1,.108.292Zm-.924-6.053h-.881a2.90821,2.90821,0,0,0-.827.089,1.20126,1.20126,0,0,0-.454.247.91924.91924,0,0,0-.252.376,1.37962,1.37962,0,0,0-.078.47,1.33085,1.33085,0,0,0,.083.472,1.01714,1.01714,0,0,0,.261.387,1.22855,1.22855,0,0,0,.459.261,2.58535,2.58535,0,0,0,.781.094h.908Z"/>
  </g>
  <text class="cls-4" transform="translate(119.94678 366.75574)"> </text>
  <text class="cls-4" transform="translate(122.37793 366.75574)">路 </text>
  <g class="cls-2">
    <path class="cls-5" d="M132.58688,366.3739a1.18612,1.18612,0,0,1-.011.169.3456.3456,0,0,1-.037.121.18751.18751,0,0,1-.062.07.147.147,0,0,1-.078.021h-3.335a.37638.37638,0,0,1-.234-.083.34594.34594,0,0,1-.11-.293v-6.198a.34842.34842,0,0,1,.11-.293.3824.3824,0,0,1,.234-.083h3.297a.13918.13918,0,0,1,.078.022.14788.14788,0,0,1,.057.069.5868.5868,0,0,1,.035.121,1.02058,1.02058,0,0,1,.013.18.92824.92824,0,0,1-.013.169.516.516,0,0,1-.035.119.15849.15849,0,0,1-.057.067.1472.1472,0,0,1-.078.021h-2.717v2.181h2.331a.138.138,0,0,1,.078.024.2036.2036,0,0,1,.059.067.36829.36829,0,0,1,.035.118,1.329,1.329,0,0,1,.01.178,1.13623,1.13623,0,0,1-.01.166.359.359,0,0,1-.035.113.15432.15432,0,0,1-.059.062.172.172,0,0,1-.078.018h-2.331v2.487h2.755a.1476.1476,0,0,1,.078.022.19264.19264,0,0,1,.062.067.32172.32172,0,0,1,.037.118,1.27022,1.27022,0,0,1,.011.18m7.183,0a.42036.42036,0,0,1-.036.183.35617.35617,0,0,1-.095.123.36564.36564,0,0,1-.13.07.51434.51434,0,0,1-.145.021h-.305a.95581.95581,0,0,1-.253-.029.57712.57712,0,0,1-.205-.107,1.0829,1.0829,0,0,1-.195-.213,2.80856,2.80856,0,0,1-.206-.343l-2.12-3.954q-.16649-.306-.336-.641-.168-.336-.314-.653h-.011c.007.258.013.521.016.79q.006.402.006.8v4.195a.13056.13056,0,0,1-.023.072.14407.14407,0,0,1-.076.054.80149.80149,0,0,1-.142.032,1.799,1.799,0,0,1-.448,0,.72286.72286,0,0,1-.139-.032.13964.13964,0,0,1-.073-.054.123.123,0,0,1-.023-.072v-6.413a.3598.3598,0,0,1,.122-.307.439.439,0,0,1,.266-.091h.455a1.123,1.123,0,0,1,.268.027.55468.55468,0,0,1,.194.089.742.742,0,0,1,.167.172,2.23435,2.23435,0,0,1,.168.276l1.63,3.051q.15152.279.291.545.141.26551.27.524c.087.172.172.341.257.507.085.167.169.334.252.503h.005c-.007-.283-.012-.578-.013-.884q-.003-.459-.003-.884v-3.77a.12192.12192,0,0,1,.023-.07.18114.18114,0,0,1,.076-.056.49754.49754,0,0,1,.142-.035,1.98663,1.98663,0,0,1,.229-.011,1.903,1.903,0,0,1,.216.011.48059.48059,0,0,1,.142.035.1828.1828,0,0,1,.073.056.12192.12192,0,0,1,.023.07Zm6.149,0a1.18612,1.18612,0,0,1-.011.169.34539.34539,0,0,1-.037.121.1875.1875,0,0,1-.062.07.147.147,0,0,1-.078.021h-3.335a.37638.37638,0,0,1-.234-.083.34594.34594,0,0,1-.11-.293v-6.198a.34843.34843,0,0,1,.11-.293.3824.3824,0,0,1,.234-.083h3.298a.13822.13822,0,0,1,.077.022.14788.14788,0,0,1,.057.069.5868.5868,0,0,1,.035.121,1.02047,1.02047,0,0,1,.013.18.92817.92817,0,0,1-.013.169.516.516,0,0,1-.035.119.15849.15849,0,0,1-.057.067.14622.14622,0,0,1-.077.021h-2.718v2.181h2.331a.138.138,0,0,1,.078.024.2036.2036,0,0,1,.059.067.36829.36829,0,0,1,.035.118,1.32738,1.32738,0,0,1,.01.178,1.13483,1.13483,0,0,1-.01.166.359.359,0,0,1-.035.113.15432.15432,0,0,1-.059.062.172.172,0,0,1-.078.018h-2.331v2.487h2.755a.1476.1476,0,0,1,.078.022.19262.19262,0,0,1,.062.067.32153.32153,0,0,1,.037.118,1.27022,1.27022,0,0,1,.011.18m6.2-4.533a2.45176,2.45176,0,0,1-.172.94,1.97863,1.97863,0,0,1-.491.714,2.21347,2.21347,0,0,1-.784.457,3.41313,3.41313,0,0,1-1.11.161h-.789v2.503a.12431.12431,0,0,1-.024.075.16957.16957,0,0,1-.076.051.70473.70473,0,0,1-.139.032,1.783,1.783,0,0,1-.446,0,.76111.76111,0,0,1-.142-.032.154.154,0,0,1-.076-.051.13662.13662,0,0,1-.021-.075v-6.413a.37415.37415,0,0,1,.113-.307.39432.39432,0,0,1,.252-.091h1.488c.15,0,.295.006.432.019a3.97841,3.97841,0,0,1,.489.081,2.02712,2.02712,0,0,1,.575.23,1.81874,1.81874,0,0,1,.497.417,1.7913,1.7913,0,0,1,.314.572,2.22857,2.22857,0,0,1,.11.717m-.972.075a1.43811,1.43811,0,0,0-.159-.709,1.09288,1.09288,0,0,0-.392-.424,1.33709,1.33709,0,0,0-.483-.178,3.281,3.281,0,0,0-.486-.037h-.854v2.787h.832a1.93218,1.93218,0,0,0,.696-.107,1.3235,1.3235,0,0,0,.465-.298,1.23983,1.23983,0,0,0,.284-.457,1.66,1.66,0,0,0,.097-.577m6.438-1.729a1.14732,1.14732,0,0,1-.011.177.35475.35475,0,0,1-.035.121.16952.16952,0,0,1-.059.067.14722.14722,0,0,1-.078.021h-2.513v6.043a.12962.12962,0,0,1-.022.075.14624.14624,0,0,1-.075.051.77462.77462,0,0,1-.14.032,1.49155,1.49155,0,0,1-.225.014,1.524,1.524,0,0,1-.22-.014.7635.7635,0,0,1-.145-.032.154.154,0,0,1-.076-.051.1367.1367,0,0,1-.021-.075v-6.413a.37412.37412,0,0,1,.113-.307.39436.39436,0,0,1,.252-.091h3.072a.1392.1392,0,0,1,.078.022.15665.15665,0,0,1,.059.067.34818.34818,0,0,1,.035.121,1.10492,1.10492,0,0,1,.011.172m5.252,6.187a1.05547,1.05547,0,0,1-.011.169.3456.3456,0,0,1-.037.121.1875.1875,0,0,1-.062.07.147.147,0,0,1-.078.021h-3.335a.37638.37638,0,0,1-.234-.083.34594.34594,0,0,1-.11-.293v-6.198a.34843.34843,0,0,1,.11-.293.3824.3824,0,0,1,.234-.083h3.298a.13822.13822,0,0,1,.077.022.14226.14226,0,0,1,.057.069.5868.5868,0,0,1,.035.121,1.02058,1.02058,0,0,1,.013.18.92824.92824,0,0,1-.013.169.516.516,0,0,1-.035.119.15181.15181,0,0,1-.057.067.14622.14622,0,0,1-.077.021h-2.718v2.181h2.331a.13566.13566,0,0,1,.078.024.2036.2036,0,0,1,.059.067.34459.34459,0,0,1,.035.118,1.3148,1.3148,0,0,1,.011.178,1.12268,1.12268,0,0,1-.011.166.33485.33485,0,0,1-.035.113.15432.15432,0,0,1-.059.062.169.169,0,0,1-.078.018h-2.331v2.487h2.755a.1476.1476,0,0,1,.078.022.19262.19262,0,0,1,.062.067.32172.32172,0,0,1,.037.118,1.13662,1.13662,0,0,1,.011.18m2.854.242a.12962.12962,0,0,1-.022.075.14624.14624,0,0,1-.075.051.78122.78122,0,0,1-.142.032,1.75922,1.75922,0,0,1-.443,0,.78209.78209,0,0,1-.145-.032.1463.1463,0,0,1-.075-.051.1296.1296,0,0,1-.022-.075v-6.671a.1202.1202,0,0,1,.024-.075.15349.15349,0,0,1,.081-.051.83179.83179,0,0,1,.145-.033,1.43988,1.43988,0,0,1,.212-.013,1.53709,1.53709,0,0,1,.223.013.77052.77052,0,0,1,.142.033.13528.13528,0,0,1,.075.051.1253.1253,0,0,1,.022.075Zm7.482-.188a.65485.65485,0,0,1,.045.19.13187.13187,0,0,1-.04.111.259.259,0,0,1-.142.048,2.63582,2.63582,0,0,1-.266.011c-.111,0-.2-.003-.266-.008a.65728.65728,0,0,1-.15-.027.17536.17536,0,0,1-.076-.051.43453.43453,0,0,1-.045-.081l-.596-1.692h-2.89l-.569,1.671a.30835.30835,0,0,1-.043.083.21115.21115,0,0,1-.078.059.47832.47832,0,0,1-.145.035,2.27046,2.27046,0,0,1-.245.011,1.94251,1.94251,0,0,1-.255-.014.25289.25289,0,0,1-.139-.051.13509.13509,0,0,1-.038-.11.66864.66864,0,0,1,.046-.191l2.331-6.456a.27963.27963,0,0,1,.056-.096.22776.22776,0,0,1,.102-.059.71559.71559,0,0,1,.172-.03c.07-.005.158-.008.266-.008.114,0,.209.003.285.008a.77249.77249,0,0,1,.182.03.24007.24007,0,0,1,.108.061.29753.29753,0,0,1,.059.1Zm-2.992-5.699h-.005l-1.198,3.464h2.417Z"/>
  </g>
  <text class="cls-4" transform="translate(28.34668 379.75574)">ENE</text>
  <text class="cls-4" transform="translate(46.18896 379.75574)">R</text>
  <text class="cls-4" transform="translate(52.0625 379.75574)">GI</text>
  <text class="cls-4" transform="translate(61.77588 379.75574)">J</text>
  <text class="cls-4" transform="translate(65.09766 379.75574)">A 路 ENE</text>
  <text class="cls-4" transform="translate(97.05273 379.75574)">R</text>
  <text class="cls-4" transform="translate(102.9375 379.75574)">G</text>
  <text class="cls-4" transform="translate(109.72461 379.75574)">Y 路 ENE</text>
  <text class="cls-4" transform="translate(140.67871 379.75574)">R</text>
  <text class="cls-4" transform="translate(146.56348 379.75574)">GIE </text>
  <text class="cls-4" transform="translate(28.56689 392.75769)">E</text>
  <text class="cls-4" transform="translate(34.35254 392.75769)">N</text>
  <text class="cls-4" transform="translate(41.8877 392.75769)">E</text>
  <text class="cls-4" transform="translate(47.67383 392.75769)">R</text>
  <text class="cls-4" transform="translate(53.96582 392.75769)">G</text>
  <text class="cls-4" transform="translate(61.33545 392.75769)">I</text>
  <g class="cls-2">
    <rect class="cls-6" x="25.532" y="25.646" width="76.082" height="50.815"/>
    <rect class="cls-7" x="104.131" y="25.646" width="182.16801" height="50.815"/>
    <polygon class="cls-8" points="79.294 42.587 80.929 41.399 78.908 41.399 78.283 39.476 77.658 41.399 75.636 41.399 77.272 42.587 76.647 44.51 78.283 43.321 79.918 44.51 79.294 42.587"/>
    <polygon class="cls-8" points="72.927 36.49 74.562 35.302 72.541 35.302 71.916 33.379 71.291 35.302 69.27 35.302 70.905 36.49 70.28 38.413 71.916 37.224 73.552 38.413 72.927 36.49"/>
    <polygon class="cls-8" points="64.713 34.309 66.349 33.121 64.327 33.121 63.702 31.198 63.077 33.121 61.055 33.121 62.691 34.309 62.067 36.232 63.702 35.044 65.338 36.232 64.713 34.309"/>
    <polygon class="cls-8" points="56.064 36.49 57.699 35.302 55.678 35.302 55.053 33.379 54.428 35.302 52.406 35.302 54.042 36.49 53.417 38.413 55.053 37.224 56.689 38.413 56.064 36.49"/>
    <polygon class="cls-8" points="49.885 42.886 51.521 41.698 49.499 41.698 48.874 39.775 48.249 41.698 46.227 41.698 47.863 42.886 47.239 44.809 48.874 43.621 50.51 44.809 49.885 42.886"/>
    <polygon class="cls-8" points="47.912 51.29 49.548 50.102 47.526 50.102 46.901 48.179 46.276 50.102 44.254 50.102 45.89 51.29 45.265 53.213 46.901 52.024 48.537 53.213 47.912 51.29"/>
    <polygon class="cls-8" points="49.947 59.804 51.583 58.616 49.561 58.616 48.936 56.693 48.311 58.616 46.289 58.616 47.925 59.804 47.301 61.727 48.936 60.539 50.572 61.727 49.947 59.804"/>
    <polygon class="cls-8" points="56.064 65.855 57.699 64.666 55.678 64.666 55.053 62.744 54.428 64.666 52.406 64.666 54.042 65.855 53.417 67.778 55.053 66.589 56.689 67.777 56.064 65.855"/>
    <polygon class="cls-8" points="64.713 68.109 66.348 66.92 64.326 66.92 63.702 64.998 63.077 66.92 61.055 66.92 62.691 68.109 62.066 70.032 63.702 68.843 65.338 70.032 64.713 68.109"/>
    <polygon class="cls-8" points="73.129 65.824 74.765 64.635 72.742 64.635 72.118 62.713 71.493 64.635 69.471 64.635 71.107 65.824 70.483 67.747 72.118 66.559 73.753 67.747 73.129 65.824"/>
    <polygon class="cls-8" points="79.251 59.75 80.886 58.562 78.865 58.562 78.24 56.639 77.615 58.562 75.594 58.562 77.229 59.75 76.604 61.673 78.24 60.484 79.876 61.673 79.251 59.75"/>
    <polygon class="cls-8" points="81.504 51.172 83.139 49.984 81.118 49.984 80.493 48.061 79.869 49.984 77.846 49.984 79.482 51.172 78.857 53.095 80.493 51.906 82.128 53.095 81.504 51.172"/>
    <polygon class="cls-9" points="126.197 46.386 118.035 46.386 118.035 52.748 127.161 52.748 127.161 55.994 114.083 55.994 114.083 34.336 126.679 34.336 126.679 37.582 118.035 37.582 118.035 43.173 126.197 43.173 126.197 46.386"/>
  </g>
  <g class="cls-10">
    <path class="cls-9" d="M132.2375,55.9939v-21.658h4.499l5.591,9.287a59.51523,59.51523,0,0,1,3.695,7.262h.064c-.257-2.892-.353-5.68805-.353-8.997v-7.552h3.663v21.658h-4.081l-5.655-9.543a71.48873,71.48873,0,0,1-3.888-7.455l-.097.032c.161,2.795.193,5.655.193,9.222v7.744Z"/>
    <polygon class="cls-9" points="167.68 46.386 159.518 46.386 159.518 52.748 168.643 52.748 168.643 55.994 155.565 55.994 155.565 34.336 168.161 34.336 168.161 37.582 159.518 37.582 159.518 43.173 167.68 43.173 167.68 46.386"/>
    <path class="cls-9" d="M173.71959,34.62518a37.54578,37.54578,0,0,1,5.977-.45c3.117,0,5.238.515,6.684,1.736a5.48013,5.48013,0,0,1,1.864,4.338,5.77678,5.77678,0,0,1-3.92,5.43v.096c1.542.579,2.473,2.089,3.02,4.178a43.27412,43.27412,0,0,0,1.703,6.041h-4.081a30.58216,30.58216,0,0,1-1.446-5.11c-.61-2.827-1.639-3.727-3.888-3.791h-1.992v8.901h-3.921Zm3.921,9.576h2.346c2.666,0,4.338-1.41394,4.338-3.56695,0-2.378-1.672-3.47-4.242-3.47a11.31682,11.31682,0,0,0-2.442.193Z"/>
    <path class="cls-9" d="M210.9615,54.99768a21.45709,21.45709,0,0,1-6.973,1.221c-3.663,0-6.427-.932-8.483-2.892a10.72671,10.72671,0,0,1-3.02-7.969c0-6.844,4.884-11.246,12.05-11.246a14.37,14.37,0,0,1,5.751,1.028l-.868,3.181a11.66194,11.66194,0,0,0-4.916-.932c-4.627,0-7.872,2.732-7.872,7.776,0,4.917,3.02,7.841,7.519,7.841a7.57463,7.57463,0,0,0,2.988-.45v-5.398h-3.824v-3.117h7.648Z"/>
    <path class="cls-9" d="M113.6934,64.8288c.037,1.012.89,1.449,1.855,1.449a4.83772,4.83772,0,0,0,1.669-.253l.223.977a6.01689,6.01689,0,0,1-2.103.357c-1.954,0-3.104-1.127-3.104-2.841a2.85917,2.85917,0,0,1,2.943-3.013,2.49307,2.49307,0,0,1,2.597,2.726,3.22788,3.22788,0,0,1-.049.598Zm2.646-.989a1.23014,1.23014,0,0,0-1.249-1.368,1.42857,1.42857,0,0,0-1.397,1.368Z"/>
    <polygon class="cls-9" points="120.567 61.632 120.567 63.771 122.892 63.771 122.892 61.632 124.413 61.632 124.413 67.232 122.892 67.232 122.892 64.875 120.567 64.875 120.567 67.232 119.046 67.232 119.046 61.632 120.567 61.632"/>
    <path class="cls-9" d="M127.1693,64.8288c.037,1.012.89,1.449,1.855,1.449a4.82965,4.82965,0,0,0,1.669-.253l.223.977a6.01514,6.01514,0,0,1-2.102.357c-1.954,0-3.104-1.127-3.104-2.841a2.85859,2.85859,0,0,1,2.943-3.013,2.49363,2.49363,0,0,1,2.597,2.726,3.20883,3.20883,0,0,1-.05.598Zm2.646-.989a1.22956,1.22956,0,0,0-1.249-1.368,1.42858,1.42858,0,0,0-1.397,1.368Z"/>
    <path class="cls-9" d="M132.53479,63.49432c0-.736-.025-1.333-.049-1.863h1.335l.074.863h.025a2.40057,2.40057,0,0,1,2.065-.989,2.61274,2.61274,0,0,1,2.535,2.852,2.747,2.747,0,0,1-2.745,3.001,2.03428,2.03428,0,0,1-1.694-.747h-.025v2.897h-1.521Zm1.521,1.392a1.35111,1.35111,0,0,0,1.385,1.38c.964,0,1.533-.74695,1.533-1.851,0-.99005-.519-1.795-1.496-1.795a1.39567,1.39567,0,0,0-1.36,1.047,1.20207,1.20207,0,0,0-.062.357Z"/>
    <polygon class="cls-9" points="143.799 61.632 143.799 62.747 141.338 62.747 141.338 67.232 139.817 67.232 139.817 61.632 143.799 61.632"/>
    <path class="cls-9" d="M146.2215,61.63177v2.013c0,.885-.037,1.483-.087,2.265h.038c.321-.656.507-1.07.816-1.656l1.484-2.622h1.842v5.6h-1.447v-2.001c0-.89605.037-1.31.099-2.369h-.049c-.297.668-.495,1.07-.792,1.611-.47.827-1.014,1.83905-1.533,2.759h-1.818v-5.6Z"/>
    <path class="cls-9" d="M156.94128,67.23181h-1.509v-2.219h-.569a1.22458,1.22458,0,0,0-.927.368,3.56671,3.56671,0,0,0-.742,1.39105,4.00253,4.00253,0,0,1-.235.46h-1.632a2.88412,2.88412,0,0,0,.371-.621,4.69753,4.69753,0,0,1,.902-1.61,1.45775,1.45775,0,0,1,.718-.379v-.035c-.718-.069-1.571-.505-1.571-1.379a1.41136,1.41136,0,0,1,.927-1.3,5.25585,5.25585,0,0,1,2.128-.356,17.40325,17.40325,0,0,1,2.139.126Zm-1.509-4.726a4.35249,4.35249,0,0,0-.754-.057c-.668,0-1.348.218-1.348.839,0,.586.754.839,1.348.839.358,0,.556,0,.754-.011Z"/>
    <path class="cls-9" d="M161.8734,65.13928a.88282.88282,0,0,1-.927-.909.89253.89253,0,0,1,.939-.908.909.909,0,1,1,0,1.81695Z"/>
    <path class="cls-9" d="M167.86929,64.2193c-.717-.184-1.113-.621-1.113-1.173,0-.759.816-1.541,2.535-1.541a3.81861,3.81861,0,0,1,1.93.425l-.285.909a3.42741,3.42741,0,0,0-1.459-.334c-.73,0-1.188.277-1.188.667,0,.449.607.63306,1.509.64405h.656v.943h-.668c-.965.012-1.694.196-1.694.736,0,.529.655.805,1.397.805a4.304,4.304,0,0,0,1.694-.391l.223.94306a4.91277,4.91277,0,0,1-2.288.506c-1.274,0-2.646-.448-2.646-1.713a1.52822,1.52822,0,0,1,1.397-1.38Z"/>
    <path class="cls-9" d="M173.4079,61.63177l.965,2.841c.173.494.284.943.433,1.425h.049a9.55448,9.55448,0,0,0,1.261-3.783v-.483h1.422a2.26136,2.26136,0,0,1,.038.425c0,1.588-1.089,3.462-2.189,5.175h-1.472l-2.139-5.6Z"/>
    <path class="cls-9" d="M179.6514,64.2193c-.717-.184-1.113-.621-1.113-1.173,0-.759.816-1.541,2.535-1.541a3.81865,3.81865,0,0,1,1.93.425l-.285.909a3.42737,3.42737,0,0,0-1.459-.334c-.73,0-1.188.277-1.188.667,0,.449.607.63306,1.509.64405h.656v.943h-.668c-.965.012-1.694.196-1.694.736,0,.529.655.805,1.397.805a4.30394,4.30394,0,0,0,1.694-.391l.223.94306a4.91281,4.91281,0,0,1-2.288.506c-1.274,0-2.646-.448-2.646-1.713a1.52823,1.52823,0,0,1,1.397-1.38Z"/>
    <path class="cls-9" d="M185.73421,66.69183v.793a14.13911,14.13911,0,0,0,.087,2.024h-1.472a9.67622,9.67622,0,0,1-.136-2.001v-2.564a3.1471,3.1471,0,0,1,1.026-2.702,3.007,3.007,0,0,1,2.053-.737,2.71758,2.71758,0,0,1,2.881,2.876,2.77343,2.77343,0,0,1-2.782,2.978,2.01279,2.01279,0,0,1-1.632-.667Zm0-1.679a1.76094,1.76094,0,0,0,.037.368,1.40381,1.40381,0,0,0,1.335.886c.965,0,1.521-.794,1.521-1.852,0-.989-.531-1.748-1.434-1.748-.767,0-1.459.621-1.459,1.909Z"/>
    <path class="cls-9" d="M192.74409,69.50861a11.83457,11.83457,0,0,0-.21-3.231,15.11521,15.11521,0,0,0-2.102-4.646h1.706a13.00042,13.00042,0,0,1,1.608,4.071h.05a8.7037,8.7037,0,0,0,1.137-3.622c0-.218-.012-.334-.012-.449h1.447a2.21377,2.21377,0,0,1,.024.415,9.52174,9.52174,0,0,1-2.127,4.932.45206.45206,0,0,0-.074.276c.025.564.025,1.483.037,2.254Z"/>
    <path class="cls-9" d="M198.44341,64.2193c-.717-.184-1.113-.621-1.113-1.173,0-.759.816-1.541,2.535-1.541a3.812,3.812,0,0,1,1.929.425l-.284.909a3.43118,3.43118,0,0,0-1.459-.334c-.73,0-1.188.277-1.188.667,0,.449.607.63306,1.509.64405h.656v.943h-.668c-.965.012-1.694.196-1.694.736,0,.529.655.805,1.397.805a4.304,4.304,0,0,0,1.694-.391l.223.94306a4.91848,4.91848,0,0,1-2.288.506c-1.274,0-2.646-.448-2.646-1.713a1.52822,1.52822,0,0,1,1.397-1.38Z"/>
    <path class="cls-9" d="M204.57629,65.6568c0,.46.148.644.569.621l-.087.989a2.01546,2.01546,0,0,1-.655.092c-.816,0-1.36-.322-1.36-1.564v-4.163h1.533Z"/>
    <path class="cls-9" d="M211.84679,61.63135c-.074.76-.173,2.484-.173,3.818,0,.633.21.851.581.84l-.099,1a1.9157,1.9157,0,0,1-.531.069,1.11716,1.11716,0,0,1-1.175-1.092h-.037a2.24738,2.24738,0,0,1-1.991,1.092,2.55146,2.55146,0,0,1-2.486-2.817,2.86407,2.86407,0,0,1,2.721-3.036,1.86878,1.86878,0,0,1,1.731.977h.05a8.53,8.53,0,0,1,.135-.851Zm-4.365,2.864c0,.943.519,1.736,1.348,1.736a1.50983,1.50983,0,0,0,1.335-1.207,3.65854,3.65854,0,0,0,.05-.656,2.27978,2.27978,0,0,0-.038-.529,1.37883,1.37883,0,0,0-1.273-1.241c-.853,0-1.422.839-1.422,1.885Z"/>
    <path class="cls-9" d="M219.1864,38.9328a11.026,11.026,0,1,1,11.027,11.025,11.02617,11.02617,0,0,1-11.027-11.025"/>
    <path class="cls-7" d="M229.4613,43.06561v-3.801l-2.882-5.316h1.894l1.096,2.34c.311.676.541,1.19.785,1.812h.027c.23-.581.487-1.149.798-1.812l1.095-2.34h1.881l-3.03,5.275v3.842Z"/>
    <path class="cls-9" d="M244.55409,38.9328a11.026,11.026,0,1,1,11.026,11.025,11.026,11.026,0,0,1-11.026-11.025"/>
    <path class="cls-9" d="M219.1864,63.38147a11.026,11.026,0,1,1,11.027,11.026,11.0268,11.0268,0,0,1-11.027-11.026"/>
    <rect class="cls-7" x="226.01199" y="58.39703" width="1.664" height="9.11798"/>
    <polygon class="cls-7" points="234.683 63.47 231.247 63.47 231.247 66.148 235.09 66.148 235.09 67.515 229.584 67.515 229.584 58.397 234.886 58.397 234.886 59.764 231.247 59.764 231.247 62.117 234.683 62.117 234.683 63.47"/>
    <path class="cls-9" d="M244.55409,63.38147a11.026,11.026,0,1,1,11.026,11.026,11.02658,11.02658,0,0,1-11.026-11.026"/>
    <rect class="cls-7" x="247.909" y="33.94897" width="1.664" height="9.117"/>
    <path class="cls-7" d="M253.2932,33.94818h1.664v5.911c0,2.516-1.218,3.355-3.03,3.355a4.43577,4.43577,0,0,1-1.393-.216l.202-1.339a3.651,3.651,0,0,0,1.029.162c.947,0,1.528-.43305,1.528-2.016Z"/>
    <path class="cls-7" d="M258.61008,40.48193l-.785,2.584h-1.717l2.922-9.118h2.124l2.962,9.118h-1.786l-.825-2.584Zm2.611-1.258-.717-2.246c-.176-.554-.325-1.176-.46-1.704h-.027c-.135.52795-.27,1.163-.433,1.704l-.704,2.246Z"/>
    <rect class="cls-7" x="250.561" y="58.39801" width="1.664" height="9.117"/>
    <path class="cls-7" d="M255.9586,64.93176l-.785,2.58295h-1.717l2.922-9.11694h2.123l2.963,9.11694h-1.786l-.825-2.58295Zm2.611-1.258-.717-2.246c-.176-.555-.325-1.177-.46-1.704h-.027c-.135.527-.271,1.163-.433,1.704l-.704,2.246Z"/>
  </g>
  <g class="cls-2">
    <line class="cls-11" x1="24.8031" y1="126.63971" x2="287.00809" y2="126.63971"/>
    <path class="cls-12" d="M102.7068,404.80269s-9.921,0-9.921,9.921v97.213s0,9.921,9.921,9.921h39.132s9.921,0,9.921-9.921v-97.213s0-9.921-9.921-9.921Z"/>
    <path class="cls-12" d="M35.7244,404.80269s-9.921,0-9.921,9.921v97.4s0,9.922,9.921,9.922h39.132s9.921,0,9.921-9.922v-97.4s0-9.921-9.921-9.921Z"/>
  </g>
  <text class="cls-13" transform="translate(28.34668 598.76355)">20../..</text>
  <g class="cls-2">
    <path class="cls-14" d="M210.837,330.42551s-8.929,0-8.929,8.929v49.348s0,8.929,8.929,8.929h66.058s8.929,0,8.929-8.929v-49.348s0-8.929-8.929-8.929Z"/>
  </g>
  <text class="cls-15" transform="translate(208.4082 377.88171)">k</text>
  <text class="cls-15" transform="translate(214.66602 377.88171)">W</text>
  <text class="cls-15" transform="translate(227.04199 377.88171)">h</text>
  <text class="cls-15" transform="translate(234.23828 377.88171)">/</text>
  <text class="cls-15" transform="translate(239.08203 377.88171)"><tspan class="cls-16">a</tspan><tspan x="6.58008" y="0">n</tspan></text>
  <text class="cls-15" transform="translate(252.88574 377.88171)">n</text>
  <text class="cls-15" transform="translate(260.0957 377.88171)">u</text>
  <text class="cls-15" transform="translate(267.32031 377.88171)">m</text>
  <g class="cls-2">
    <path class="cls-12" d="M236.67149,404.78459s-9.921,0-9.921,9.921v97.213s0,9.921,9.921,9.921h39.132s9.921,0,9.921-9.921v-97.213s0-9.921-9.921-9.921Z"/>
  </g>
  <text class="cls-17" transform="translate(269.66895 498.78113)"> </text>
  <text class="cls-15" transform="translate(248.81543 512.78113)">d</text>
  <text class="cls-15" transform="translate(256.03906 512.78113)">B</text>
  <g class="cls-2">
    <path class="cls-12" d="M169.6891,404.78459s-9.921,0-9.921,9.921v97.213s0,9.921,9.921,9.921h39.132s9.921,0,9.921-9.921v-97.213s0-9.921-9.921-9.921Z"/>
  </g>
  <text class="cls-17" transform="translate(203.5752 498.32019)"> </text>
  <text class="cls-15" transform="translate(182.52734 512.32019)">k</text>
  <text class="cls-15" transform="translate(189.10742 512.32019)">g</text>
  <g class="cls-2">
    <rect class="cls-9" x="165.295" y="416.18599" width="47.92" height="51.52"/>
  </g>
  <g class="cls-18">
    <path class="cls-19" d="M203.4274,419.53789l-9.375-2.616a6.12215,6.12215,0,0,1-11.21.001l-9.372,2.615-7.853,8.943,5.162,6.763,2.763-.582.073,28.067,14.833.073,14.834-.073.072-28.067,2.764.582,5.162-6.763Z"/>
  </g>
  <text class="cls-20" transform="translate(181.0127 445.98718)">k</text>
  <text class="cls-20" transform="translate(188.49902 445.98718)">g</text>
  <g class="cls-2">
    <rect class="cls-9" x="232.27699" y="411.013" width="47.92" height="56.69299"/>
  </g>
  <g class="cls-21">
    <path class="cls-7" d="M247.6362,451.566q-3.8025-3.393-7.609-6.786h-5.425V433.936h5.425q3.804-3.3915,7.609-6.784l3.149-2.807v30.028Z"/>
    <path class="cls-22" d="M247.6362,451.566q-3.8025-3.393-7.609-6.786h-5.425V433.936h5.425q3.804-3.3915,7.609-6.784l3.149-2.807v30.028Z"/>
    <path class="cls-23" d="M267.96219,418.2576a38.46811,38.46811,0,0,1,.071,42.204m-7.024-36.385a26.44309,26.44309,0,0,1,.085,30.514m-6.786-24.744a14.92165,14.92165,0,0,1,.129,18.925"/>
  </g>
  <g class="cls-2">
    <path class="cls-12" d="M151.7597,539.2679s0-9.921-9.921-9.921H35.8017s-9.921,0-9.921,9.921v39.132s0,9.921,9.921,9.921h106.037s9.921,0,9.921-9.921Z"/>
  </g>
  <text class="cls-24" transform="translate(95.40674 512.07214) scale(1 1.11111)">m</text>
  <text class="cls-24" transform="translate(105.34814 512.07214) scale(1 1.11111)">i</text>
  <text class="cls-24" transform="translate(108.13281 512.07214) scale(1 1.11111)">n</text>
  <text class="cls-24" transform="translate(114.60889 512.07214) scale(1 1.11111)">/</text>
  <text class="cls-24" transform="translate(118.85547 512.07214) scale(1 1.11111)">c</text>
  <text class="cls-24" transform="translate(124.36133 512.07214) scale(1 1.11111)">y</text>
  <text class="cls-24" transform="translate(129.93066 512.07214) scale(1 1.11111)">c</text>
  <text class="cls-24" transform="translate(135.24805 512.07214) scale(1 1.11111)">l</text>
  <text class="cls-24" transform="translate(138.0957 512.07214) scale(1 1.11111)">e</text>
  <text class="cls-24" transform="translate(143.86621 512.07214) scale(1 1.11111)">*</text>
  <g class="cls-2">
    <rect class="cls-9" x="36.141" y="533.04599" width="38.298" height="50.952"/>
  </g>
  <g class="cls-25">
    <g class="cls-26">
      <g class="cls-27">
        <g class="cls-27">
          <polygon class="cls-28" points="153.436 578.889 131.931 578.889 130.131 566.519 154.636 566.519 153.436 578.889"/>
          <polygon class="cls-29" points="155.331 562.416 151.394 578.888 134.413 578.888 130.476 562.416 127.054 562.416 131.867 581.883 153.94 581.883 158.752 562.416 155.331 562.416"/>
        </g>
        <g class="cls-30">
          <g class="cls-31">
            <g class="cls-32">
              <g class="cls-33">
                <path class="cls-28" d="M132.0965,560.2014c0-1.732,3.134-5.717,3.134-5.717s3.134,3.985,3.134,5.717a3.134,3.134,0,1,1-6.268,0"/>
              </g>
            </g>
          </g>
          <g class="cls-34">
            <g class="cls-35">
              <g class="cls-36">
                <path class="cls-28" d="M139.8974,548.4901c0-1.731,3.134-5.716,3.134-5.716s3.134,3.985,3.134,5.716a3.134,3.134,0,1,1-6.268,0"/>
              </g>
            </g>
          </g>
          <path class="cls-28" d="M146.5625,563.65639c0-1.731,3.134-5.716,3.134-5.716s3.135,3.985,3.135,5.716a3.1345,3.1345,0,0,1-6.269,0"/>
          <g class="cls-31">
            <g class="cls-37">
              <g class="cls-37">
                <polygon class="cls-29" points="132.749 548.671 135.23 551.152 137.712 548.671 137.712 550.776 135.23 553.257 132.749 550.776 132.749 548.671"/>
                <line class="cls-38" x1="135.2305" y1="542.6657" x2="135.2305" y2="551.4977"/>
              </g>
            </g>
          </g>
          <g class="cls-34">
            <g class="cls-39">
              <g class="cls-39">
                <polygon class="cls-29" points="140.55 536.982 143.031 539.463 145.513 536.982 145.513 539.087 143.031 541.568 140.55 539.087 140.55 536.982"/>
                <line class="cls-38" x1="143.0313" y1="530.97679" x2="143.0313" y2="539.80879"/>
              </g>
            </g>
          </g>
          <polygon class="cls-29" points="147.328 552.049 149.809 554.53 152.291 552.049 152.291 554.154 149.809 556.635 147.328 554.154 147.328 552.049"/>
          <line class="cls-38" x1="149.80901" y1="546.0435" x2="149.80901" y2="554.8755"/>
          <polygon class="cls-28" points="109.051 578.889 87.546 578.889 85.746 566.519 110.251 566.519 109.051 578.889"/>
          <polygon class="cls-29" points="110.946 562.416 107.009 578.888 90.028 578.888 86.091 562.416 82.669 562.416 87.482 581.883 109.555 581.883 114.367 562.416 110.946 562.416"/>
          <path class="cls-28" d="M87.7114,560.2014c0-1.732,3.134-5.717,3.134-5.717s3.134,3.985,3.134,5.717a3.134,3.134,0,0,1-6.268,0"/>
          <path class="cls-28" d="M95.5123,554.2716c0-1.731,3.134-5.716,3.134-5.716s3.134,3.985,3.134,5.716a3.134,3.134,0,1,1-6.268,0"/>
          <path class="cls-28" d="M102.1775,563.65639c0-1.731,3.134-5.716,3.134-5.716s3.135,3.985,3.135,5.716a3.1345,3.1345,0,0,1-6.269,0"/>
          <polygon class="cls-29" points="88.364 548.671 90.845 551.152 93.327 548.671 93.327 550.776 90.845 553.257 88.364 550.776 88.364 548.671"/>
          <line class="cls-38" x1="90.8454" y1="542.6657" x2="90.8454" y2="551.4977"/>
          <polygon class="cls-29" points="96.165 542.764 98.646 545.245 101.128 542.764 101.128 544.869 98.646 547.35 96.165 544.869 96.165 542.764"/>
          <line class="cls-38" x1="98.6462" y1="536.75829" x2="98.6462" y2="545.59029"/>
          <polygon class="cls-29" points="102.943 552.049 105.424 554.53 107.906 552.049 107.906 554.154 105.424 556.635 102.943 554.154 102.943 552.049"/>
          <line class="cls-38" x1="105.424" y1="546.0435" x2="105.424" y2="554.8755"/>
          <polygon class="cls-28" points="66.142 578.889 44.637 578.889 42.837 566.519 67.342 566.519 66.142 578.889"/>
          <polygon class="cls-29" points="68.037 562.416 64.1 578.888 47.119 578.888 43.182 562.416 39.76 562.416 44.573 581.883 66.646 581.883 71.458 562.416 68.037 562.416"/>
          <path class="cls-28" d="M44.8019,560.2014c0-1.732,3.134-5.717,3.134-5.717s3.134,3.985,3.134,5.717a3.134,3.134,0,0,1-6.268,0"/>
          <path class="cls-28" d="M52.6028,554.2716c0-1.731,3.134-5.716,3.134-5.716s3.134,3.985,3.134,5.716a3.134,3.134,0,0,1-6.268,0"/>
          <path class="cls-28" d="M59.2679,563.65639c0-1.731,3.134-5.716,3.134-5.716s3.135,3.985,3.135,5.716a3.1345,3.1345,0,0,1-6.269,0"/>
          <polygon class="cls-29" points="52.655 542.764 55.136 545.245 57.618 542.764 57.618 544.869 55.136 547.35 52.655 544.869 52.655 542.764"/>
          <line class="cls-38" x1="55.1367" y1="536.75829" x2="55.1367" y2="545.59029"/>
          <polygon class="cls-29" points="45.454 542.764 47.935 545.245 50.417 542.764 50.417 544.869 47.935 547.35 45.454 544.869 45.454 542.764"/>
          <line class="cls-38" x1="47.9355" y1="536.75829" x2="47.9355" y2="545.59029"/>
          <polygon class="cls-29" points="59.922 542.764 62.403 545.245 64.885 542.764 64.885 544.869 62.403 547.35 59.922 544.869 59.922 542.764"/>
          <line class="cls-38" x1="62.4028" y1="536.75829" x2="62.4028" y2="545.59029"/>
        </g>
      </g>
    </g>
  </g>
  <g class="cls-2">
    <path class="cls-5" d="M175.53409,543.37939c-.003.029-.027.05-.071.064a.66393.66393,0,0,1-.199.022.71205.71205,0,0,1-.211-.023q-.066-.024-.066-.063v-1.195h-2.875a.18986.18986,0,0,1-.147-.057.24206.24206,0,0,1-.053-.17v-3.387a.096.096,0,0,1,.014-.052.1075.1075,0,0,1,.051-.039.299.299,0,0,1,.099-.024c.042-.004.094-.006.157-.006.065,0,.118.002.16.006a.2801.2801,0,0,1,.098.024.12144.12144,0,0,1,.05.039.08261.08261,0,0,1,.016.052v3.059h1.684v-3.059a.08865.08865,0,0,1,.015-.052.12623.12623,0,0,1,.053-.039.299.299,0,0,1,.1-.024q.0615-.006.156-.006c.065,0,.118.002.16.006a.2801.2801,0,0,1,.098.024.12144.12144,0,0,1,.05.039.08261.08261,0,0,1,.016.052v3.059h.488a.168.168,0,0,1,.125.035.18977.18977,0,0,1,.032.125Zm3.843-1.289a.09463.09463,0,0,1-.015.051.11288.11288,0,0,1-.051.037.41821.41821,0,0,1-.098.021,1.525,1.525,0,0,1-.312,0,.50157.50157,0,0,1-.102-.021.10349.10349,0,0,1-.054-.037.08788.08788,0,0,1-.016-.051v-2.023c0-.102.003-.206.008-.311.005-.106.011-.209.019-.311a3.46527,3.46527,0,0,1-.197.307c-.072.1-.144.2-.217.299l-1.492,2.039c-.018.021-.034.039-.049.055a.15238.15238,0,0,1-.054.037.34842.34842,0,0,1-.084.019,1.0996,1.0996,0,0,1-.125.006.908.908,0,0,1-.141-.008.367.367,0,0,1-.088-.021.09545.09545,0,0,1-.047-.037.103.103,0,0,1-.014-.051v-3.524a.09162.09162,0,0,1,.065-.089.331.331,0,0,1,.1-.022c.041-.004.092-.006.152-.006a.74806.74806,0,0,1,.258.03.09317.09317,0,0,1,.07.087v2.036c0,.101-.003.202-.008.302-.005.101-.012.2-.019.299.06-.099.12-.196.181-.291s.127-.188.198-.279l1.511-2.067a.4333.4333,0,0,1,.049-.054.17812.17812,0,0,1,.063-.037.38215.38215,0,0,1,.088-.02,1.16046,1.16046,0,0,1,.132-.006,1.35379,1.35379,0,0,1,.139.006.26859.26859,0,0,1,.09.022.09819.09819,0,0,1,.047.039.10536.10536,0,0,1,.013.054Zm4.067.023a.06356.06356,0,0,1-.014.041.10091.10091,0,0,1-.051.03.5761.5761,0,0,1-.097.017c-.041.004-.092.006-.155.006a1.42332,1.42332,0,0,1-.177-.008.607.607,0,0,1-.112-.021.14453.14453,0,0,1-.062-.035.14172.14172,0,0,1-.028-.049l-.375-.91a1.94231,1.94231,0,0,0-.15-.303.725.725,0,0,0-.186-.205.68.68,0,0,0-.238-.113,1.16558,1.16558,0,0,0-.305-.036h-.273v1.582a.05718.05718,0,0,1-.02.04.13744.13744,0,0,1-.058.031.60417.60417,0,0,1-.102.019,1.0297,1.0297,0,0,1-.144.008,1.0448,1.0448,0,0,1-.145-.008.60985.60985,0,0,1-.101-.019.12711.12711,0,0,1-.057-.031.05836.05836,0,0,1-.018-.04v-3.57a.05206.05206,0,0,1,.018-.037.13717.13717,0,0,1,.057-.029.52963.52963,0,0,1,.101-.018c.042-.004.09-.006.145-.006.054,0,.103.002.144.006a.52715.52715,0,0,1,.102.018.14909.14909,0,0,1,.058.029.05137.05137,0,0,1,.02.037v1.473h.273a1.05042,1.05042,0,0,0,.272-.033.65546.65546,0,0,0,.225-.11.78424.78424,0,0,0,.181-.197,1.53652,1.53652,0,0,0,.147-.293l.328-.809a.13094.13094,0,0,1,.027-.054.1384.1384,0,0,1,.059-.039.35351.35351,0,0,1,.103-.022c.043-.004.1-.006.17-.006.063,0,.114.002.154.006a.40035.40035,0,0,1,.094.018.08776.08776,0,0,1,.045.029.06519.06519,0,0,1,.012.037.27974.27974,0,0,1-.01.074.703.703,0,0,1-.029.09l-.336.774a1.69066,1.69066,0,0,1-.17.328,1.32366,1.32366,0,0,1-.186.22.78056.78056,0,0,1-.191.137,1.13992,1.13992,0,0,1-.188.076v.008a1.3839,1.3839,0,0,1,.252.113,1.05276,1.05276,0,0,1,.215.165,1.26085,1.26085,0,0,1,.186.232,2.14211,2.14211,0,0,1,.16.311l.387.89a.27992.27992,0,0,1,.023.051q.0075.024.012.045l.006.035.002.025m2.007-2.304c.097-.008.197-.014.301-.018s.216-.006.336-.006a2.75689,2.75689,0,0,1,.729.084,1.3587,1.3587,0,0,1,.496.24.95532.95532,0,0,1,.285.374,1.23467,1.23467,0,0,1,.092.486,1.30107,1.30107,0,0,1-.098.504,1.05105,1.05105,0,0,1-.305.406,1.50716,1.50716,0,0,1-.531.271,2.657,2.657,0,0,1-.781.1c-.07,0-.142-.001-.215-.002s-.145-.004-.217-.008c-.071-.004-.142-.008-.213-.013-.07-.006-.138-.012-.203-.02a.38443.38443,0,0,1-.244-.105.37672.37672,0,0,1-.08-.262v-2.789h-.988a.09363.09363,0,0,1-.055-.016.12488.12488,0,0,1-.041-.052.34608.34608,0,0,1-.027-.092.75326.75326,0,0,1-.01-.137.507.507,0,0,1,.035-.219.10838.10838,0,0,1,.098-.066h1.453a.1821.1821,0,0,1,.133.049.204.204,0,0,1,.05.154Zm1.559,1.203a.79353.79353,0,0,0-.051-.291.52784.52784,0,0,0-.164-.223.77718.77718,0,0,0-.299-.14,1.78776,1.78776,0,0,0-.455-.049c-.109,0-.214.002-.314.008-.1.005-.192.011-.276.019v1.352c.092.01.185.019.282.027.096.008.209.012.34.012a1.09664,1.09664,0,0,0,.711-.19.64612.64612,0,0,0,.226-.525m4.405,1.074a.09173.09173,0,0,1-.015.053.14031.14031,0,0,1-.051.037.37223.37223,0,0,1-.098.023,1.14994,1.14994,0,0,1-.156.008,1.17641,1.17641,0,0,1-.16-.008.4008.4008,0,0,1-.1-.023.1333.1333,0,0,1-.053-.037.09181.09181,0,0,1-.015-.053v-3.07h-.969q-.063.621-.15,1.105a7.66135,7.66135,0,0,1-.198.844,3.13068,3.13068,0,0,1-.246.605,1.56171,1.56171,0,0,1-.299.397,1.019,1.019,0,0,1-.351.217,1.218,1.218,0,0,1-.404.066.14123.14123,0,0,1-.061-.012.08226.08226,0,0,1-.041-.043.29083.29083,0,0,1-.023-.087.99441.99441,0,0,1-.008-.147c0-.062.002-.113.006-.152a.376.376,0,0,1,.019-.094.08576.08576,0,0,1,.035-.047.10921.10921,0,0,1,.053-.012.53191.53191,0,0,0,.246-.06.66173.66173,0,0,0,.219-.199,1.6721,1.6721,0,0,0,.191-.364,3.64282,3.64282,0,0,0,.164-.552q.075-.3285.141-.768t.125-1.01a.28937.28937,0,0,1,.057-.174.17282.17282,0,0,1,.138-.056h1.805a.19436.19436,0,0,1,.147.056.24963.24963,0,0,1,.052.174Zm3.833-2.184a.54093.54093,0,0,1-.091.37.47352.47352,0,0,1-.334.091.46122.46122,0,0,1-.325-.089.52729.52729,0,0,1-.089-.36.53608.53608,0,0,1,.091-.369.47324.47324,0,0,1,.334-.092.456.456,0,0,1,.325.09.52054.52054,0,0,1,.089.359m5.52,1.649c0,.044-.002.083-.004.115a.39471.39471,0,0,1-.014.082.29023.29023,0,0,1-.023.059.38161.38161,0,0,1-.063.074.91505.91505,0,0,1-.166.121,1.65059,1.65059,0,0,1-.263.129,2.02536,2.02536,0,0,1-.319.092,1.79591,1.79591,0,0,1-.355.035,1.70286,1.70286,0,0,1-.672-.125,1.26336,1.26336,0,0,1-.49-.365,1.65171,1.65171,0,0,1-.301-.59,2.84779,2.84779,0,0,1-.104-.807,2.79472,2.79472,0,0,1,.127-.892,1.69339,1.69339,0,0,1,.348-.612,1.3714,1.3714,0,0,1,.519-.353,1.78277,1.78277,0,0,1,.647-.115,1.66115,1.66115,0,0,1,.326.031,1.7528,1.7528,0,0,1,.291.082,1.2982,1.2982,0,0,1,.236.117.93967.93967,0,0,1,.151.113.51769.51769,0,0,1,.064.074.27908.27908,0,0,1,.03.065.40682.40682,0,0,1,.015.084c.003.031.004.07.004.117a.46209.46209,0,0,1-.035.213.10153.10153,0,0,1-.086.061.22484.22484,0,0,1-.135-.065,2.03422,2.03422,0,0,0-.193-.142,1.4353,1.4353,0,0,0-.283-.143,1.08581,1.08581,0,0,0-.393-.065.81684.81684,0,0,0-.713.358,1.815,1.815,0,0,0-.248,1.037,2.454,2.454,0,0,0,.065.596,1.234,1.234,0,0,0,.189.427.77752.77752,0,0,0,.307.256.981.981,0,0,0,.416.084,1.00161,1.00161,0,0,0,.39-.07,1.64253,1.64253,0,0,0,.291-.154q.123-.084.207-.153a.24925.24925,0,0,1,.131-.068.07059.07059,0,0,1,.047.016.11661.11661,0,0,1,.033.052.40287.40287,0,0,1,.02.094,1.31133,1.31133,0,0,1,.006.135m2.458.633-.469,1.293a.17617.17617,0,0,1-.119.095.95026.95026,0,0,1-.291.034,1.17356,1.17356,0,0,1-.164-.01.24341.24341,0,0,1-.096-.033.087.087,0,0,1-.037-.063.20165.20165,0,0,1,.02-.094l.484-1.222a.21779.21779,0,0,1-.066-.051.20159.20159,0,0,1-.043-.074l-1.254-3.36a.37848.37848,0,0,1-.031-.129.09243.09243,0,0,1,.031-.074.20355.20355,0,0,1,.101-.037,1.52529,1.52529,0,0,1,.188-.01c.078,0,.139.002.184.006a.36134.36134,0,0,1,.105.022.10931.10931,0,0,1,.057.045.57256.57256,0,0,1,.037.08l1.004,2.82h.011l.969-2.836a.18345.18345,0,0,1,.057-.096.26833.26833,0,0,1,.099-.031,1.50316,1.50316,0,0,1,.192-.01,1.41271,1.41271,0,0,1,.179.01.21644.21644,0,0,1,.104.037.0909.0909,0,0,1,.033.074.40389.40389,0,0,1-.023.118Zm4.909-.102a.10088.10088,0,0,1-.015.055.12621.12621,0,0,1-.053.039.406.406,0,0,1-.104.023,1.30842,1.30842,0,0,1-.168.008c-.07,0-.128-.002-.173-.006a.637.637,0,0,1-.116-.019.20212.20212,0,0,1-.076-.039.31845.31845,0,0,1-.053-.061l-1.484-1.945v1.949a.0855.0855,0,0,1-.016.053.12784.12784,0,0,1-.05.037.37226.37226,0,0,1-.098.023,1.18608,1.18608,0,0,1-.16.008,1.13151,1.13151,0,0,1-.156-.008.4005.4005,0,0,1-.1-.023.11231.11231,0,0,1-.051-.037.09958.09958,0,0,1-.014-.053v-5.219a.10321.10321,0,0,1,.014-.054.09662.09662,0,0,1,.051-.039.357.357,0,0,1,.1-.024,1.31567,1.31567,0,0,1,.156-.008,1.37847,1.37847,0,0,1,.16.008.33284.33284,0,0,1,.098.024.1072.1072,0,0,1,.05.039.08849.08849,0,0,1,.016.054v3.18l1.328-1.461a.33455.33455,0,0,1,.067-.064.30051.30051,0,0,1,.084-.043.43836.43836,0,0,1,.115-.024c.044-.004.097-.006.16-.006.065,0,.12.002.164.006a.48718.48718,0,0,1,.107.02.12629.12629,0,0,1,.059.035.08366.08366,0,0,1,.018.056.19354.19354,0,0,1-.026.094.58437.58437,0,0,1-.084.11l-1.273,1.273,1.429,1.856a.89708.89708,0,0,1,.073.107.16832.16832,0,0,1,.021.076m1.398.004a.0855.0855,0,0,1-.016.053.12784.12784,0,0,1-.05.037.37233.37233,0,0,1-.098.023,1.18557,1.18557,0,0,1-.16.008,1.13151,1.13151,0,0,1-.156-.008.40091.40091,0,0,1-.1-.023.11234.11234,0,0,1-.051-.037.09927.09927,0,0,1-.013-.053v-5.219a.10293.10293,0,0,1,.013-.054.09665.09665,0,0,1,.051-.039.35734.35734,0,0,1,.1-.024,1.31567,1.31567,0,0,1,.156-.008,1.37784,1.37784,0,0,1,.16.008.33291.33291,0,0,1,.098.024.1072.1072,0,0,1,.05.039.08849.08849,0,0,1,.016.054Zm4.199,0a.09927.09927,0,0,1-.013.053.12355.12355,0,0,1-.049.037.36159.36159,0,0,1-.092.023.92131.92131,0,0,1-.139.008.97973.97973,0,0,1-.146-.008.324.324,0,0,1-.09-.023.10188.10188,0,0,1-.045-.037.10933.10933,0,0,1-.012-.053v-.465a2.1842,2.1842,0,0,1-.593.485,1.28556,1.28556,0,0,1-.594.152,1.34326,1.34326,0,0,1-.592-.117,1.03469,1.03469,0,0,1-.389-.319,1.28586,1.28586,0,0,1-.213-.468,2.83006,2.83006,0,0,1-.064-.651v-2.133a.09608.09608,0,0,1,.014-.052.10593.10593,0,0,1,.052-.039.31869.31869,0,0,1,.102-.024q.063-.006.156-.006.0945,0,.156.006a.29888.29888,0,0,1,.1.024.12617.12617,0,0,1,.053.039.08865.08865,0,0,1,.015.052v2.047a2.168,2.168,0,0,0,.045.494.92786.92786,0,0,0,.137.317.63289.63289,0,0,0,.233.203.70806.70806,0,0,0,.328.072.82151.82151,0,0,0,.482-.172,2.71792,2.71792,0,0,0,.51-.504v-2.457a.09575.09575,0,0,1,.013-.052.11436.11436,0,0,1,.053-.039.312.312,0,0,1,.1-.024c.04-.004.093-.006.158-.006q.0945,0,.156.006a.2743.2743,0,0,1,.098.024.14923.14923,0,0,1,.053.039.08326.08326,0,0,1,.017.052Zm3.396-.957a1.1132,1.1132,0,0,1-.1.48.97334.97334,0,0,1-.283.356,1.30528,1.30528,0,0,1-.438.219,1.9979,1.9979,0,0,1-.558.074,2.16294,2.16294,0,0,1-.358-.029,2.11379,2.11379,0,0,1-.304-.075,1.6368,1.6368,0,0,1-.229-.093.695.695,0,0,1-.137-.088.23078.23078,0,0,1-.062-.11.73755.73755,0,0,1-.02-.191.87509.87509,0,0,1,.008-.125.39345.39345,0,0,1,.02-.082.079.079,0,0,1,.033-.045.08816.08816,0,0,1,.049-.014.28438.28438,0,0,1,.127.053c.056.035.125.074.207.115a1.95667,1.95667,0,0,0,.291.116,1.29256,1.29256,0,0,0,.386.052,1.13107,1.13107,0,0,0,.297-.035.71878.71878,0,0,0,.231-.103.46528.46528,0,0,0,.15-.174.55822.55822,0,0,0,.053-.25.41018.41018,0,0,0-.076-.25.72491.72491,0,0,0-.202-.18,1.70992,1.70992,0,0,0-.281-.139c-.104-.04-.211-.082-.322-.127a3.16913,3.16913,0,0,1-.324-.15,1.21251,1.21251,0,0,1-.283-.205.93275.93275,0,0,1-.202-.289.98054.98054,0,0,1-.076-.402,1.01668,1.01668,0,0,1,.08-.397.939.939,0,0,1,.24-.332,1.2062,1.2062,0,0,1,.401-.228,1.64359,1.64359,0,0,1,.56-.086,1.67636,1.67636,0,0,1,.282.023,1.94429,1.94429,0,0,1,.254.059,1.12585,1.12585,0,0,1,.193.076.79793.79793,0,0,1,.121.072.21587.21587,0,0,1,.055.055.16595.16595,0,0,1,.019.053q.006.0285.012.072a.77311.77311,0,0,1,.006.105.94049.94049,0,0,1-.006.115.26665.26665,0,0,1-.02.081.104.104,0,0,1-.033.044.06725.06725,0,0,1-.043.014.21185.21185,0,0,1-.101-.043,1.70535,1.70535,0,0,0-.172-.092,1.8764,1.8764,0,0,0-.248-.091,1.11952,1.11952,0,0,0-.326-.043,1.00417,1.00417,0,0,0-.289.037.57079.57079,0,0,0-.206.105.46575.46575,0,0,0-.121.162.51117.51117,0,0,0-.041.203.41252.41252,0,0,0,.078.256.75292.75292,0,0,0,.204.182,1.72041,1.72041,0,0,0,.285.141c.107.041.215.084.326.128.111.045.22.094.328.149a1.232,1.232,0,0,1,.287.199.89479.89479,0,0,1,.201.281.92141.92141,0,0,1,.077.391m3.561-1.227a.54025.54025,0,0,1-.092.37.47184.47184,0,0,1-.334.091.45831.45831,0,0,1-.324-.089.52119.52119,0,0,1-.09-.36.53008.53008,0,0,1,.092-.369.46863.46863,0,0,1,.333-.092.456.456,0,0,1,.325.09.51985.51985,0,0,1,.09.359m6.226.372a3.142,3.142,0,0,1-.1.828,1.8069,1.8069,0,0,1-.293.623,1.31062,1.31062,0,0,1-.478.394,1.468,1.468,0,0,1-.653.139,1.31335,1.31335,0,0,1-.289-.031,1.11856,1.11856,0,0,1-.259-.098,1.45312,1.45312,0,0,1-.252-.168c-.084-.068-.172-.147-.266-.238v1.758a.09056.09056,0,0,1-.016.054.107.107,0,0,1-.05.039.33275.33275,0,0,1-.098.024,1.37835,1.37835,0,0,1-.16.008,1.31548,1.31548,0,0,1-.156-.008.35708.35708,0,0,1-.1-.024.09653.09653,0,0,1-.051-.039.10583.10583,0,0,1-.014-.054v-4.911a.11338.11338,0,0,1,.012-.056.09172.09172,0,0,1,.047-.037.28894.28894,0,0,1,.09-.022,1.2432,1.2432,0,0,1,.133-.006,1.25823,1.25823,0,0,1,.135.006.27582.27582,0,0,1,.087.022.09783.09783,0,0,1,.049.037.10319.10319,0,0,1,.014.056v.473a3.87577,3.87577,0,0,1,.308-.285,1.82148,1.82148,0,0,1,.299-.201,1.36628,1.36628,0,0,1,.309-.121,1.29521,1.29521,0,0,1,.334-.041,1.33123,1.33123,0,0,1,.652.148,1.23254,1.23254,0,0,1,.44.406,1.81918,1.81918,0,0,1,.248.6,3.24891,3.24891,0,0,1,.078.725m-.668.074a3.28523,3.28523,0,0,0-.041-.522,1.51344,1.51344,0,0,0-.142-.447.8461.8461,0,0,0-.269-.313.723.723,0,0,0-.421-.117.86929.86929,0,0,0-.247.037,1.01261,1.01261,0,0,0-.248.118,1.697,1.697,0,0,0-.263.211,3.11924,3.11924,0,0,0-.291.322v1.398a2.76852,2.76852,0,0,0,.507.496.84909.84909,0,0,0,.503.172.7363.7363,0,0,0,.419-.117.88819.88819,0,0,0,.283-.312,1.57091,1.57091,0,0,0,.159-.438,2.35781,2.35781,0,0,0,.051-.488m4.903-.059a2.64746,2.64746,0,0,1-.113.791,1.74329,1.74329,0,0,1-.338.623,1.51512,1.51512,0,0,1-.563.408,1.94621,1.94621,0,0,1-.783.147,2.02816,2.02816,0,0,1-.756-.129,1.37865,1.37865,0,0,1-.537-.375,1.58357,1.58357,0,0,1-.32-.598,2.78152,2.78152,0,0,1-.106-.797,2.65254,2.65254,0,0,1,.112-.791,1.72577,1.72577,0,0,1,.336-.623,1.51883,1.51883,0,0,1,.56-.406,1.98151,1.98151,0,0,1,.785-.144,2.0284,2.0284,0,0,1,.756.129,1.3585,1.3585,0,0,1,.537.375,1.62063,1.62063,0,0,1,.323.597,2.7365,2.7365,0,0,1,.107.793m-.668.043a2.65672,2.65672,0,0,0-.053-.539,1.32064,1.32064,0,0,0-.176-.445.85735.85735,0,0,0-.331-.303,1.0968,1.0968,0,0,0-.52-.111,1.12348,1.12348,0,0,0-.495.101.92083.92083,0,0,0-.341.287,1.31507,1.31507,0,0,0-.199.44,2.24755,2.24755,0,0,0-.065.555,2.60076,2.60076,0,0,0,.054.542,1.26087,1.26087,0,0,0,.177.444.905.905,0,0,0,.333.301,1.09939,1.09939,0,0,0,.52.111,1.11267,1.11267,0,0,0,.493-.102.90526.90526,0,0,0,.343-.285,1.24213,1.24213,0,0,0,.197-.437,2.32657,2.32657,0,0,0,.063-.559m3.669-1.531c0,.057-.001.105-.004.144a.37285.37285,0,0,1-.015.092.13762.13762,0,0,1-.03.051.06417.06417,0,0,1-.049.018.21563.21563,0,0,1-.076-.018c-.03-.012-.064-.023-.101-.035-.038-.012-.08-.023-.127-.033a.6714.6714,0,0,0-.153-.016.49063.49063,0,0,0-.191.039.73535.73535,0,0,0-.197.129,1.57789,1.57789,0,0,0-.217.238c-.076.099-.159.22-.25.364v2.312a.08551.08551,0,0,1-.016.053.12754.12754,0,0,1-.05.037.38233.38233,0,0,1-.098.023,1.186,1.186,0,0,1-.16.008,1.15651,1.15651,0,0,1-.157-.008.40243.40243,0,0,1-.099-.023.11217.11217,0,0,1-.051-.037.09958.09958,0,0,1-.014-.053v-3.516a.10517.10517,0,0,1,.012-.052.09941.09941,0,0,1,.047-.039.255.255,0,0,1,.09-.024,1.36547,1.36547,0,0,1,.144-.006,1.39835,1.39835,0,0,1,.143.006.22675.22675,0,0,1,.088.024.11.11,0,0,1,.045.039.09566.09566,0,0,1,.013.052v.512a2.79115,2.79115,0,0,1,.272-.344,1.531,1.531,0,0,1,.24-.209.75784.75784,0,0,1,.225-.105.85569.85569,0,0,1,.224-.029c.034,0,.073.002.116.005a1.16553,1.16553,0,0,1,.134.022,1.04087,1.04087,0,0,1,.127.035.2558.2558,0,0,1,.08.039.12648.12648,0,0,1,.032.037.27555.27555,0,0,1,.013.045.45039.45039,0,0,1,.008.08c.001.035.002.083.002.143m3.796-.332a.19607.19607,0,0,1,.16.053.23567.23567,0,0,1,.043.154v3.41a.08551.08551,0,0,1-.016.053.129.129,0,0,1-.052.037.40081.40081,0,0,1-.1.023,1.10612,1.10612,0,0,1-.152.008,1.17641,1.17641,0,0,1-.16-.008.4008.4008,0,0,1-.1-.023.1333.1333,0,0,1-.053-.037.09174.09174,0,0,1-.015-.053v-3.082h-1.817v1.961a1.11425,1.11425,0,0,0,.108.549.40647.40647,0,0,0,.384.185.71026.71026,0,0,0,.161-.017c.046-.012.088-.024.125-.037.036-.013.067-.026.093-.037a.17274.17274,0,0,1,.071-.018.07109.07109,0,0,1,.037.01.06434.06434,0,0,1,.027.037.47283.47283,0,0,1,.018.074.74879.74879,0,0,1,.008.117.81136.81136,0,0,1-.016.178.21883.21883,0,0,1-.047.098.28223.28223,0,0,1-.094.06.79165.79165,0,0,1-.142.045,1.6699,1.6699,0,0,1-.17.029,1.50071,1.50071,0,0,1-.649-.06.75168.75168,0,0,1-.32-.219.9091.9091,0,0,1-.182-.371,2.22354,2.22354,0,0,1-.056-.529v-2.055h-.492a.10423.10423,0,0,1-.094-.063.42633.42633,0,0,1-.035-.203.73607.73607,0,0,1,.009-.125.37907.37907,0,0,1,.026-.084.09345.09345,0,0,1,.041-.046.10845.10845,0,0,1,.056-.014h.489v-.836a.1019.1019,0,0,1,.013-.051.10966.10966,0,0,1,.051-.041.32276.32276,0,0,1,.1-.025,1.328,1.328,0,0,1,.156-.008,1.36573,1.36573,0,0,1,.16.008.30154.30154,0,0,1,.098.025.13535.13535,0,0,1,.051.041.09469.09469,0,0,1,.015.051v.836Zm.277-1.086a.41847.41847,0,0,1-.086.308.45736.45736,0,0,1-.316.083.45192.45192,0,0,1-.311-.081.41452.41452,0,0,1-.084-.302.42742.42742,0,0,1,.086-.309.46263.46263,0,0,1,.317-.082.45477.45477,0,0,1,.31.08.41735.41735,0,0,1,.084.303m4.39,2.906a2.64778,2.64778,0,0,1-.113.791,1.74373,1.74373,0,0,1-.338.623,1.51528,1.51528,0,0,1-.563.408,1.94612,1.94612,0,0,1-.783.147,2.02825,2.02825,0,0,1-.756-.129,1.37869,1.37869,0,0,1-.537-.375,1.58355,1.58355,0,0,1-.32-.598,2.74652,2.74652,0,0,1-.106-.797,2.65319,2.65319,0,0,1,.112-.791,1.72638,1.72638,0,0,1,.336-.623,1.51892,1.51892,0,0,1,.56-.406,1.98157,1.98157,0,0,1,.785-.144,2.02837,2.02837,0,0,1,.756.129,1.35836,1.35836,0,0,1,.537.375,1.62,1.62,0,0,1,.323.597,2.73649,2.73649,0,0,1,.107.793m-.668.043a2.65528,2.65528,0,0,0-.053-.539,1.32021,1.32021,0,0,0-.176-.445.85748.85748,0,0,0-.331-.303,1.09672,1.09672,0,0,0-.52-.111,1.12357,1.12357,0,0,0-.495.101.92087.92087,0,0,0-.341.287,1.31506,1.31506,0,0,0-.199.44,2.24752,2.24752,0,0,0-.065.555,2.60142,2.60142,0,0,0,.054.542,1.26088,1.26088,0,0,0,.177.444.9049.9049,0,0,0,.333.301,1.09944,1.09944,0,0,0,.52.111,1.11261,1.11261,0,0,0,.493-.102.905.905,0,0,0,.343-.285,1.24215,1.24215,0,0,0,.197-.437,2.3276,2.3276,0,0,0,.063-.559m4.642,1.754a.09228.09228,0,0,1-.016.053.12459.12459,0,0,1-.051.037.36352.36352,0,0,1-.097.023,1.15685,1.15685,0,0,1-.157.008,1.18573,1.18573,0,0,1-.16-.008.36342.36342,0,0,1-.097-.023.12463.12463,0,0,1-.051-.037.08551.08551,0,0,1-.016-.053v-2.059a1.9823,1.9823,0,0,0-.047-.484,1.01308,1.01308,0,0,0-.136-.316.58481.58481,0,0,0-.233-.203.73525.73525,0,0,0-.33-.071.83642.83642,0,0,0-.484.172,2.63,2.63,0,0,0-.508.504v2.457a.0855.0855,0,0,1-.016.053.12773.12773,0,0,1-.05.037.38244.38244,0,0,1-.098.023,1.18592,1.18592,0,0,1-.16.008,1.15648,1.15648,0,0,1-.157-.008.40254.40254,0,0,1-.099-.023.11221.11221,0,0,1-.051-.037.09958.09958,0,0,1-.014-.053v-3.516a.10538.10538,0,0,1,.012-.052.09945.09945,0,0,1,.047-.039.2552.2552,0,0,1,.09-.024,1.36568,1.36568,0,0,1,.144-.006,1.39779,1.39779,0,0,1,.143.006.22675.22675,0,0,1,.088.024.11.11,0,0,1,.045.039.09575.09575,0,0,1,.013.052v.465a2.17928,2.17928,0,0,1,.592-.486,1.272,1.272,0,0,1,.596-.154,1.31772,1.31772,0,0,1,.592.119,1.05768,1.05768,0,0,1,.388.318,1.27355,1.27355,0,0,1,.213.467,2.7757,2.7757,0,0,1,.065.643Zm3.812-2.184a.54087.54087,0,0,1-.091.37.4735.4735,0,0,1-.334.091.46118.46118,0,0,1-.325-.089.52189.52189,0,0,1-.089-.36.53608.53608,0,0,1,.091-.369.47157.47157,0,0,1,.334-.092.456.456,0,0,1,.325.09.52587.52587,0,0,1,.089.359m5.234,2.008a.58238.58238,0,0,1-.011.127.39549.39549,0,0,1-.028.086.09045.09045,0,0,1-.043.047.12711.12711,0,0,1-.058.014h-2.164a.18081.18081,0,0,1-.135-.055.26091.26091,0,0,1-.053-.184v-.132a.57012.57012,0,0,1,.008-.098.46112.46112,0,0,1,.024-.086.53132.53132,0,0,1,.043-.092q.027-.048.066-.111l1.551-2.414h-1.504a.11284.11284,0,0,1-.1-.065.43476.43476,0,0,1-.037-.209.87641.87641,0,0,1,.008-.123.29349.29349,0,0,1,.025-.086.10724.10724,0,0,1,.043-.046.11719.11719,0,0,1,.061-.014h2.015a.23057.23057,0,0,1,.077.012.11468.11468,0,0,1,.056.039.186.186,0,0,1,.037.07.37063.37063,0,0,1,.014.109v.125a.6398.6398,0,0,1-.008.102.59023.59023,0,0,1-.023.092.70465.70465,0,0,1-.043.095c-.018.034-.041.072-.067.114l-1.543,2.414h1.649a.113.113,0,0,1,.056.013.11007.11007,0,0,1,.043.045.31139.31139,0,0,1,.03.084.58837.58837,0,0,1,.011.127m2.478.274-.469,1.293a.18087.18087,0,0,1-.119.095.95027.95027,0,0,1-.291.034,1.16268,1.16268,0,0,1-.164-.01.24335.24335,0,0,1-.096-.033.084.084,0,0,1-.037-.063.19856.19856,0,0,1,.019-.094l.485-1.222a.20969.20969,0,0,1-.067-.051.20117.20117,0,0,1-.043-.074l-1.254-3.36a.3786.3786,0,0,1-.031-.129.09244.09244,0,0,1,.031-.074.20385.20385,0,0,1,.102-.037,1.50734,1.50734,0,0,1,.187-.01c.079,0,.14.002.184.006a.36126.36126,0,0,1,.105.022.10935.10935,0,0,1,.057.045.4756.4756,0,0,1,.037.08l1.004,2.82h.012l.969-2.836a.17723.17723,0,0,1,.056-.096.27434.27434,0,0,1,.1-.031,1.48514,1.48514,0,0,1,.191-.01,1.44215,1.44215,0,0,1,.18.01.21211.21211,0,0,1,.103.037.08884.08884,0,0,1,.034.074.37879.37879,0,0,1-.024.118Zm4.909-.102a.10136.10136,0,0,1-.016.055.1199.1199,0,0,1-.053.039.39717.39717,0,0,1-.103.023,1.30842,1.30842,0,0,1-.168.008q-.105,0-.174-.006a.61.61,0,0,1-.115-.019.19484.19484,0,0,1-.076-.039.28718.28718,0,0,1-.053-.061l-1.484-1.945v1.949a.09249.09249,0,0,1-.016.053.1321.1321,0,0,1-.051.037.36224.36224,0,0,1-.098.023,1.17622,1.17622,0,0,1-.16.008,1.15057,1.15057,0,0,1-.156-.008.40041.40041,0,0,1-.1-.023.11419.11419,0,0,1-.05-.037.09151.09151,0,0,1-.014-.053v-5.219a.09482.09482,0,0,1,.014-.054.09778.09778,0,0,1,.05-.039.35692.35692,0,0,1,.1-.024,1.3411,1.3411,0,0,1,.156-.008,1.36541,1.36541,0,0,1,.16.008.32453.32453,0,0,1,.098.024.11031.11031,0,0,1,.051.039.09576.09576,0,0,1,.016.054v3.18l1.328-1.461a.331.331,0,0,1,.066-.064.30113.30113,0,0,1,.084-.043.45653.45653,0,0,1,.115-.024c.045-.004.098-.006.16-.006.065,0,.12.002.164.006a.48589.48589,0,0,1,.108.02.12258.12258,0,0,1,.058.035.08375.08375,0,0,1,.018.056.192.192,0,0,1-.025.094.58413.58413,0,0,1-.084.11l-1.274,1.273,1.43,1.856a.763.763,0,0,1,.072.107.17044.17044,0,0,1,.022.076m1.398.004a.09227.09227,0,0,1-.016.053.132.132,0,0,1-.051.037.36254.36254,0,0,1-.098.023,1.17659,1.17659,0,0,1-.16.008,1.15007,1.15007,0,0,1-.156-.008.40091.40091,0,0,1-.1-.023.11427.11427,0,0,1-.05-.037.09949.09949,0,0,1-.014-.053v-5.219a.10313.10313,0,0,1,.014-.054.09784.09784,0,0,1,.05-.039.35734.35734,0,0,1,.1-.024,1.3404,1.3404,0,0,1,.156-.008,1.36591,1.36591,0,0,1,.16.008.32478.32478,0,0,1,.098.024.11025.11025,0,0,1,.051.039.09553.09553,0,0,1,.016.054Zm4.199,0a.09949.09949,0,0,1-.014.053.11041.11041,0,0,1-.049.037.351.351,0,0,1-.092.023.90689.90689,0,0,1-.138.008.99441.99441,0,0,1-.147-.008.34448.34448,0,0,1-.09-.023.09317.09317,0,0,1-.044-.037.10922.10922,0,0,1-.012-.053v-.465a2.20159,2.20159,0,0,1-.594.485,1.27953,1.27953,0,0,1-.594.152,1.34168,1.34168,0,0,1-.591-.117,1.02693,1.02693,0,0,1-.389-.319,1.28654,1.28654,0,0,1-.213-.468,2.8251,2.8251,0,0,1-.065-.651v-2.133a.096.096,0,0,1,.014-.052.10934.10934,0,0,1,.053-.039.31866.31866,0,0,1,.101-.024c.042-.004.094-.006.157-.006q.093,0,.156.006a.29894.29894,0,0,1,.1.024.12253.12253,0,0,1,.052.039.08274.08274,0,0,1,.016.052v2.047a2.16788,2.16788,0,0,0,.045.494.90857.90857,0,0,0,.137.317.6298.6298,0,0,0,.232.203.71085.71085,0,0,0,.328.072.82437.82437,0,0,0,.483-.172,2.68705,2.68705,0,0,0,.509-.504v-2.457a.09633.09633,0,0,1,.014-.052.10939.10939,0,0,1,.053-.039.31209.31209,0,0,1,.099-.024c.041-.004.093-.006.159-.006q.093,0,.156.006a.274.274,0,0,1,.097.024.14065.14065,0,0,1,.053.039.07827.07827,0,0,1,.018.052Zm3.395-.957a1.0991,1.0991,0,0,1-.1.48.963.963,0,0,1-.283.356,1.29058,1.29058,0,0,1-.437.219,2.01051,2.01051,0,0,1-.559.074,2.1506,2.1506,0,0,1-.357-.029,2.12863,2.12863,0,0,1-.305-.075,1.68955,1.68955,0,0,1-.229-.093.68117.68117,0,0,1-.136-.088.22381.22381,0,0,1-.063-.11.97493.97493,0,0,1-.011-.316.40121.40121,0,0,1,.019-.082.08892.08892,0,0,1,.033-.045.09318.09318,0,0,1,.049-.014.28006.28006,0,0,1,.127.053c.056.035.125.074.207.115a1.95637,1.95637,0,0,0,.291.116,1.29958,1.29958,0,0,0,.387.052,1.14187,1.14187,0,0,0,.297-.035.72312.72312,0,0,0,.23-.103.477.477,0,0,0,.151-.174.55822.55822,0,0,0,.052-.25.40389.40389,0,0,0-.076-.25.735.735,0,0,0-.201-.18,1.70992,1.70992,0,0,0-.281-.139c-.104-.04-.212-.082-.323-.127a3.37952,3.37952,0,0,1-.324-.15,1.233,1.233,0,0,1-.283-.205.94716.94716,0,0,1-.201-.289.96474.96474,0,0,1-.076-.402.999.999,0,0,1,.08-.397.91481.91481,0,0,1,.24-.332,1.20112,1.20112,0,0,1,.4-.228,1.82232,1.82232,0,0,1,.842-.063,1.86939,1.86939,0,0,1,.254.059,1.09356,1.09356,0,0,1,.193.076.81787.81787,0,0,1,.122.072.20866.20866,0,0,1,.054.055.167.167,0,0,1,.02.053.70593.70593,0,0,1,.011.072.77349.77349,0,0,1,.006.105.94092.94092,0,0,1-.006.115.26843.26843,0,0,1-.019.081.104.104,0,0,1-.033.044.06924.06924,0,0,1-.043.014.2106.2106,0,0,1-.102-.043,1.5069,1.5069,0,0,0-.172-.092,1.87464,1.87464,0,0,0-.248-.091,1.11959,1.11959,0,0,0-.326-.043,1.00911,1.00911,0,0,0-.289.037.56595.56595,0,0,0-.205.105.4539.4539,0,0,0-.121.162.51133.51133,0,0,0-.041.203.41252.41252,0,0,0,.078.256.74828.74828,0,0,0,.203.182,1.72041,1.72041,0,0,0,.285.141c.107.041.216.084.326.128.111.045.22.094.329.149a1.25387,1.25387,0,0,1,.287.199.91058.91058,0,0,1,.201.281.92151.92151,0,0,1,.076.391"/>
  </g>
  <text class="cls-40" transform="translate(171.31445 551.18445)"></text>
  <text class="cls-40" transform="translate(184.02637 551.18445)">纬</text>
  <text class="cls-40" transform="translate(187.50684 551.18445)">伪渭</text>
  <text class="cls-40" transform="translate(200.51465 551.18445)">渭</text>
  <text class="cls-40" transform="translate(204.88281 551.18445)">伪 路 ciclo 路 ts眉k</text>
  <text class="cls-40" transform="translate(249.00293 551.18445)">k</text>
  <text class="cls-40" transform="translate(252.41016 551.18445)">el </text>
  <text class="cls-40" transform="translate(171.32227 560.18445)">ohjelma 路 ciklus 路 ciklas 路 cikls</text>
  <text class="cls-40" transform="translate(171.32227 569.18445)">iklu 路 c</text>
  <text class="cls-40" transform="translate(195.23438 569.18445)">y</text>
  <text class="cls-40" transform="translate(198.77051 569.18445)">clus 路 cykl 路 ciclu</text>
  <text class="cls-40" transform="translate(171.32227 578.18445)">p</text>
  <text class="cls-40" transform="translate(175.52246 578.18445)">r</text>
  <text class="cls-40" transform="translate(178.19434 578.18445)">og</text>
  <text class="cls-40" transform="translate(186.17871 578.18445)">r</text>
  <text class="cls-40" transform="translate(188.81055 578.18445)">am 路 </text>
  <text class="cls-40" transform="translate(204.66602 578.18445)">t</text>
  <text class="cls-40" transform="translate(207.27441 578.18445)">or</text>
  <text class="cls-40" transform="translate(214.28223 578.18445)">k</text>
  <text class="cls-40" transform="translate(217.65039 578.18445)">om</text>
  <text class="cls-40" transform="translate(228.25879 578.18445)">g</text>
  <text class="cls-40" transform="translate(231.88281 578.18445)">氓ng</text>
  <text class="cls-40" transform="translate(166.88281 541.86414)">*</text>
  <g class="cls-41">
    <path class="cls-9" d="M122.0341,457.97119a18.74,18.74,0,1,0-18.743-18.74,18.74,18.74,0,0,0,18.743,18.74"/>
    <path class="cls-42" d="M122.0341,457.97119a18.74,18.74,0,1,0-18.743-18.74A18.74,18.74,0,0,0,122.0341,457.97119Z"/>
    <path class="cls-9" d="M122.0341,457.97119a18.74,18.74,0,1,0-18.743-18.74,18.74,18.74,0,0,0,18.743,18.74"/>
    <path class="cls-43" d="M122.0341,457.97119a18.74,18.74,0,1,0-18.743-18.74A18.74,18.74,0,0,0,122.0341,457.97119Z"/>
    <line class="cls-43" x1="121.7666" y1="454.2253" x2="121.7666" y2="439.47931"/>
    <line class="cls-43" x1="121.7425" y1="438.94139" x2="126.43649" y2="429.43939"/>
    <path class="cls-44" d="M121.7425,440.39769a1.457,1.457,0,1,0-1.458-1.458,1.45957,1.45957,0,0,0,1.458,1.458"/>
    <path class="cls-9" d="M111.1823,422.81039c-5.78,3.191-2.566,9.598-2.566,16.669,0,10.349,1.46,13.132,13.418,16.46,0,0-15.587-.209-16.225-16.873-.417-10.872,6.209-14.553,6.209-14.553l2.202,4.367,4.976-8.978-10.047-1.778Z"/>
    <path class="cls-44" d="M112.0661,422.2849c-5.781,3.19-9.797,10.124-9.797,17.195,0,10.349,8.937,19.521,19.497,19.333,0,0-16.925-2.377-17.565-19.042-.415-10.872,8.801-15.888,8.801-15.888l1.269,2.639,3.317-5.914-6.808-1.144Z"/>
    <path class="cls-45" d="M112.0661,422.2849c-5.781,3.19-9.797,10.124-9.797,17.195,0,10.349,8.937,19.521,19.497,19.333,0,0-16.925-2.377-17.565-19.042-.415-10.872,8.801-15.888,8.801-15.888l1.269,2.639,3.317-5.914-6.808-1.144Z"/>
  </g>
  <g class="cls-46">
    <path class="cls-47" d="M62.5135,493.3244h5.686a.395.395,0,0,1,.395.395v14.949a.394.394,0,0,1-.394.394h-5.688a.394.394,0,0,1-.394-.394v-14.949A.395.395,0,0,1,62.5135,493.3244Z"/>
    <path class="cls-47" d="M55.9131,506.1283v-5.404h6.362v8.14a13.47461,13.47461,0,0,0-6.362-2.736"/>
    <path class="cls-48" d="M55.9131,506.1283v-5.404h6.362v8.14A13.47461,13.47461,0,0,0,55.9131,506.1283Z"/>
    <path class="cls-47" d="M55.9131,496.2586v5.404h6.362v-8.14a13.47461,13.47461,0,0,1-6.362,2.736"/>
    <path class="cls-48" d="M55.9131,496.2586v5.404h6.362v-8.14A13.47461,13.47461,0,0,1,55.9131,496.2586Z"/>
    <path class="cls-47" d="M75.4196,496.42329a1.184,1.184,0,0,1,0,2.368h-8.008a1.184,1.184,0,0,1,0-2.368Z"/>
    <path class="cls-47" d="M75.4196,503.73509a1.184,1.184,0,0,1,0,2.368h-8.008a1.184,1.184,0,0,1,0-2.368Z"/>
    <rect class="cls-47" x="52.1372" y="498.8199" width="4.968" height="4.74699" rx="0.395"/>
  </g>
  <g class="cls-49">
    <path class="cls-50" d="M38.8596,461.017a.5184.5184,0,0,0-.099-.128.62276.62276,0,0,0-.146-.103.83233.83233,0,0,0-.194-.069,1.19578,1.19578,0,0,0-.243-.027,1.19578,1.19578,0,0,1,.243.027.83233.83233,0,0,1,.194.069.62276.62276,0,0,1,.146.103.5184.5184,0,0,1,.099.128"/>
    <path class="cls-50" d="M38.1778,460.68979a.84845.84845,0,0,1,.573.19.5.5,0,0,1,.168.408.56937.56937,0,0,1-.224.406.9453.9453,0,0,1-.604.183c-.372-.003-.806-.005-1.265.008a14.04656,14.04656,0,0,0-1.417.107,6.8597,6.8597,0,0,0-1.344.302,2.91409,2.91409,0,0,0-1.05.598,2.17288,2.17288,0,0,0-.471.646,2.31709,2.31709,0,0,0-.211.741,2.57092,2.57092,0,0,0,.028.764,2.516,2.516,0,0,0,.243.71,3.73108,3.73108,0,0,0,1.082,1.229,7.45013,7.45013,0,0,0,1.609.893,15.8937,15.8937,0,0,0,1.891.636c.652.178,1.308.328,1.929.465.951.208,1.91.394,2.877.564.968.17,1.943.323,2.922.466q1.47.213,2.949.4c.987.127,1.975.248,2.963.37.892.11,1.792.216,2.694.329.903.112,1.808.231,2.711.366.905.135,1.807.286,2.702.464.898.178,1.789.383,2.672.625.542.149,1.137.326,1.732.542a11.65978,11.65978,0,0,1,1.734.775,5.669,5.669,0,0,1,1.416,1.078,3.00867,3.00867,0,0,1,.767,1.46,4.54563,4.54563,0,0,1,.073,1.331,3.517,3.517,0,0,1-.339,1.209,3.41381,3.41381,0,0,1-.78,1.027,4.46121,4.46121,0,0,1-1.245.781,16.12033,16.12033,0,0,1-2.494.82c-.876.217-1.787.383-2.711.519-.928.136-1.87.242-2.806.338-.939.097-1.872.184-2.782.283-1.081.119-2.171.223-3.265.326-1.096.104-2.197.206-3.298.321-1.105.114-2.211.241-3.315.392-1.108.152-2.215.33-3.318.545-.739.145-1.523.31-2.31.517a18.05008,18.05008,0,0,0-2.34.772,10.3042,10.3042,0,0,0-2.123,1.166,6.63391,6.63391,0,0,0-1.659,1.715,6.91408,6.91408,0,0,0-.816,1.726,6.13988,6.13988,0,0,0-.284,1.85,5.1066,5.1066,0,0,0,.333,1.81,4.56886,4.56886,0,0,0,1.034,1.588,8.95,8.95,0,0,0,1.579,1.245,12.91342,12.91342,0,0,0,1.851.953,20.03506,20.03506,0,0,0,2.014.716c.686.206,1.38.382,2.064.538q1.4145.3255,2.868.563,1.452.24,2.929.394,1.4745.1545,2.957.225,1.4805.0705,2.952.059l.273-.003c.091-.001.182-.003.273-.004l.273-.006c.091-.002.182-.005.272-.007a1.03057,1.03057,0,0,1,.791.32,1.13812,1.13812,0,0,1,.291.721,1.09376,1.09376,0,0,1-.226.739.97485.97485,0,0,1-.765.357c-.077.003-.155.005-.232.007-.078.001-.155.003-.232.005l-.233.003-.233.003q-1.059.009-2.123-.027-1.065-.036-2.129-.112-1.062-.0765-2.121-.189-1.0575-.111-2.105-.255c-1.322-.18-2.813-.416-4.327-.76a25.48931,25.48931,0,0,1-4.437-1.398,12.04327,12.04327,0,0,1-3.627-2.306,6.51584,6.51584,0,0,1-1.931-3.421,7.29134,7.29134,0,0,1-.09-2.221,8.55826,8.55826,0,0,1,.546-2.202,8.89884,8.89884,0,0,1,1.101-1.998,8.22262,8.22262,0,0,1,1.585-1.632,12.6,12.6,0,0,1,2.249-1.373,17.617,17.617,0,0,1,2.455-.947c.839-.257,1.697-.464,2.553-.637.853-.173,1.705-.313,2.536-.436,1.138-.169,2.276-.314,3.413-.445,1.132-.131,2.264-.247,3.393-.358,1.127-.111,2.251-.216,3.37-.326,1.117-.11,2.229-.224,3.335-.351q.7365-.084,1.474-.172c.49-.06.98-.122,1.466-.191.487-.068.97-.142,1.449-.226.479-.083.953-.175,1.421-.279.259-.057.53-.117.802-.184s.546-.141.811-.227a6.025,6.025,0,0,0,.759-.301,3.2968,3.2968,0,0,0,.644-.403,2.27955,2.27955,0,0,0,.64-.844,2.21138,2.21138,0,0,0-.129-2.031,2.60721,2.60721,0,0,0-.85-.857,7.27571,7.27571,0,0,0-.852-.464c-.297-.137-.605-.26-.917-.37-.313-.11-.63-.208-.947-.298-.316-.09-.633-.172-.942-.249q-.6495-.16051-1.302-.299-.651-.1395-1.306-.26-.6525-.12151-1.309-.228c-.436-.072-.873-.139-1.31-.204-.955-.142-1.91-.27-2.866-.393-.955-.123-1.91-.239-2.864-.357-.954-.117-1.906-.234-2.856-.359s-1.897-.256-2.839-.401c-.886-.137-1.799-.272-2.716-.422-.916-.15-1.837-.315-2.741-.512-.903-.196-1.787-.422-2.632-.696a15.79046,15.79046,0,0,1-2.38-.971,7.24151,7.24151,0,0,1-1.408-.931,5.05519,5.05519,0,0,1-1.001-1.131,3.70432,3.70432,0,0,1-.52-1.29,3.45669,3.45669,0,0,1,.025-1.405,3.06051,3.06051,0,0,1,1.005-1.683,5.219,5.219,0,0,1,1.828-.982,11.20386,11.20386,0,0,1,2.27-.465,20.22108,20.22108,0,0,1,2.35-.11"/>
    <path class="cls-50" d="M61.7336,480.01649c.259-.058.529-.117.802-.184.272-.067.545-.141.81-.228a5.80525,5.80525,0,0,0,.758-.3,3.31871,3.31871,0,0,0,.643-.403,2.26091,2.26091,0,0,0,.64-.844,2.2118,2.2118,0,0,0-.129-2.031,2.61686,2.61686,0,0,0-.85-.857,7.2768,7.2768,0,0,0-.853-.464c-.296-.137-.603-.259-.916-.37-.312-.11-.63-.208-.947-.298-.316-.09-.632-.172-.942-.248-.433-.108-.867-.207-1.301-.3q-.6525-.1395-1.306-.26c-.436-.081-.873-.156-1.309-.228q-.6555-.1065-1.311-.204c-.955-.141-1.91-.27-2.866-.393-.955-.123-1.91-.239-2.864-.356-.953-.117-1.906-.235-2.856-.36q-1.425-.186-2.839-.401c-.886-.136-1.799-.272-2.716-.422-.916-.15-1.837-.315-2.741-.511-.902-.196-1.787-.423-2.632-.697a15.83537,15.83537,0,0,1-2.38-.971,15.83537,15.83537,0,0,0,2.38.971c.845.274,1.73.501,2.632.697.904.196,1.825.361,2.741.511.917.15,1.83.286,2.716.422q1.413.21749,2.839.401c.95.125,1.903.243,2.856.36.954.117,1.909.233,2.864.356.956.123,1.911.252,2.866.393q.6555.0975,1.311.204c.436.072.873.147,1.309.228s.871.167,1.306.26c.434.093.868.192,1.301.3.31.076.626.158.942.248.317.09.635.188.947.298.313.111.62.233.916.37a7.2768,7.2768,0,0,1,.853.464,2.61686,2.61686,0,0,1,.85.857,2.2118,2.2118,0,0,1,.129,2.031,2.26091,2.26091,0,0,1-.64.844,3.31871,3.31871,0,0,1-.643.403,5.80525,5.80525,0,0,1-.758.3c-.265.087-.538.161-.81.228-.273.067-.543.126-.802.184"/>
  </g>
  <g class="cls-2">
    <rect class="cls-9" x="35.564" y="414.33299" width="39.452" height="49.937"/>
  </g>
  <g class="cls-51">
    <rect class="cls-52" x="36.45" y="417.405" width="37.71099" height="44.907"/>
    <path class="cls-53" d="M43.5059,447.91679a3.08936,3.08936,0,0,0,3.128,3.048h17.846a3.08959,3.08959,0,0,0,3.129-3.048v-14.375a3.089,3.089,0,0,0-3.129-3.048H46.6339a3.08871,3.08871,0,0,0-3.128,3.048Z"/>
  </g>
  <g class="cls-2">
    <rect class="cls-28" x="41.065" y="421.62999" width="7.842" height="4.08299"/>
    <polygon class="cls-29" points="41.04 427.088 39.286 420.171 40.971 420.171 42.189 425.598 47.943 425.598 49.16 420.171 50.845 420.171 49.09 427.088 41.04 427.088"/>
  </g>
  <g class="cls-51">
    <line class="cls-54" x1="74.1612" y1="428.46779" x2="36.4502" y2="428.46779"/>
  </g>
  <g class="cls-2">
    <polygon class="cls-55" points="25.132 151.687 25.132 171.81 125.426 171.81 135.393 161.748 125.426 151.687 25.132 151.687"/>
    <polygon class="cls-56" points="25.132 175.577 25.132 195.698 137.301 195.698 147.278 185.638 137.301 175.577 25.132 175.577"/>
    <polygon class="cls-57" points="25.132 199.464 25.132 219.588 148.898 219.588 158.88 209.527 148.898 199.464 25.132 199.464"/>
    <polygon class="cls-8" points="25.132 223.356 25.132 243.476 160.496 243.476 170.48 233.415 160.496 223.356 25.132 223.356"/>
    <polygon class="cls-58" points="25.132 247.243 25.132 267.364 172.094 267.364 182.082 257.306 172.094 247.243 25.132 247.243"/>
    <polygon class="cls-59" points="25.132 271.13 25.132 291.255 183.692 291.255 193.685 281.194 183.692 271.13 25.132 271.13"/>
    <polygon class="cls-60" points="25.132 295.018 25.132 315.139 194.695 315.139 205.341 305.081 194.695 295.018 25.132 295.018"/>
  </g>
  <text class="cls-61" transform="translate(31.31396 167.99939)"><tspan xml:space="preserve"> A</tspan></text>
  <text class="cls-62" transform="translate(48.33252 162.82751)"><tspan class="cls-63">+</tspan><tspan x="6.74902" y="0">+</tspan></text>
  <text class="cls-62" transform="translate(61.85596 162.82751)">+</text>
  <text class="cls-61" transform="translate(31.44043 192.01355)"><tspan xml:space="preserve"> A</tspan></text>
  <text class="cls-62" transform="translate(47.83203 186.84607)">+</text>
  <text class="cls-62" transform="translate(54.59375 186.84607)">+</text>
  <text class="cls-61" transform="translate(31.44043 215.78162)"><tspan xml:space="preserve"> A</tspan></text>
  <text class="cls-61" transform="translate(31.07129 239.79871)"><tspan xml:space="preserve"> A</tspan></text>
  <text class="cls-61" transform="translate(31.26563 263.48621)"><tspan xml:space="preserve"> B</tspan></text>
  <text class="cls-61" transform="translate(31.26563 287.25134)"><tspan xml:space="preserve"> C</tspan></text>
  <g class="cls-64">
    <text class="cls-61" transform="translate(30.89697 311.26843)"><tspan xml:space="preserve"> D</tspan></text>
  </g>
  <text class="cls-62" transform="translate(47.83203 210.61365)">+</text>
  <g class="cls-64">
    <text class="cls-65" transform="translate(247.93359 167.99548)"><tspan xml:space="preserve"> A</tspan></text>
    <text class="cls-65" transform="translate(248.08105 192.01794)"><tspan xml:space="preserve"> A</tspan></text>
    <text class="cls-65" transform="translate(248.08105 215.78308)"><tspan xml:space="preserve"> A</tspan></text>
    <text class="cls-65" transform="translate(247.71289 239.78699)"><tspan xml:space="preserve"> A</tspan></text>
    <text class="cls-65" transform="translate(247.89648 263.47839)"><tspan xml:space="preserve"> A</tspan></text>
    <text class="cls-65" transform="translate(247.89648 287.24304)"><tspan xml:space="preserve"> A</tspan></text>
  </g>
  <g class="cls-64">
    <text class="cls-65" transform="translate(247.51758 311.25916)"><tspan xml:space="preserve"> A</tspan></text>
  </g>
  <g class="cls-2">
    <path class="cls-9" d="M28.8808,592.49509a2.93816,2.93816,0,0,0-3,3v3.865a2.93816,2.93816,0,0,0,3,3h30.298a2.93816,2.93816,0,0,0,3-3v-3.865a2.93816,2.93816,0,0,0-3-3Z"/>
  </g>
  <text class="cls-13" transform="translate(28.34668 598.76355)">392/2012</text>
  <g id="rating">
    <polyline id="ratingArrow" class="cls-5" points="213.19 161.74 232.72 142.01 286.3 142.01 286.3 181.47 232.72 181.47 213.19 161.74"/>
    <text id="ratingLetter" class="cls-66" transform="translate(225.9502 170.24988)">A</text>
    <text id="ratingPlusses" class="cls-67" transform="translate(244.94043 161.32019)">+++</text>
  </g>
  <text id="supplierLine1" class="cls-15" transform="translate(25.50977 104.47009)">X</text>
  <text id="supplierLine2" class="cls-15" transform="translate(25.50977 120.47009)">X</text>
  <text id="modelLine1" class="cls-15" transform="translate(164.41016 104.47009)">X</text>
  <text id="modelLine2" class="cls-15" transform="translate(164.41016 120.47009)">X</text>
  <text id="kwhAnnum" class="cls-68" transform="translate(244 364.87)" text-anchor="middle">X</text>
  <text id="minCycle" class="cls-17" transform="translate(122 498.07019)" text-anchor="middle">X</text>
  <text id="kg" class="cls-17" transform="translate(190 498.07019)" text-anchor="middle">X</text>
  <text id="db" class="cls-17" transform="translate(256 498.07019)" text-anchor="middle">X</text>

  <text id="condensationEfficiencyClass" class="cls-70" transform="translate(108.7 564.57019) scale(1 1.33333)" text-anchor="middle">
    <!-- Do not pretty-print these spans - they need to be all on one line to avoid whitespace between them when rendering -->
    <tspan id="condensationEfficiencyClassALetter">A</tspan><tspan id="condensationEfficiencyClassBLetter">B</tspan><tspan id="condensationEfficiencyClassCLetter">C</tspan><tspan id="condensationEfficiencyClassDLetter">D</tspan><tspan id="condensationEfficiencyClassELetter">E</tspan><tspan id="condensationEfficiencyClassFLetter">F</tspan><tspan id="condensationEfficiencyClassGLetter">G</tspan>
  </text>  
</svg>
