<svg xmlns="http://www.w3.org/2000/svg" xmlns:xlink="http://www.w3.org/1999/xlink" id="Layer_1" data-name="Layer 1" width="110mm" height="220mm" viewBox="0 0 311.81 623.62" data-rating-increment="23.9357" data-supplier-model-chars-per-row="15">
  <defs>
    <style>
      .cls-1, .cls-11, .cls-13, .cls-16, .cls-22, .cls-23, .cls-28, .cls-29, .cls-3, .cls-31, .cls-48, .cls-49, .cls-50, .cls-51 {
        fill: none;
      }

      .cls-2 {
        clip-path: url(#clip-path);
      }

      .cls-11, .cls-13, .cls-16, .cls-3 {
        stroke: #00aeef;
      }

      .cls-3 {
        stroke-width: 5px;
      }

      .cls-4 {
        font-size: 11px;
      }

      .cls-12, .cls-14, .cls-17, .cls-24, .cls-26, .cls-4, .cls-45, .cls-5 {
        fill: #231f20;
      }

      .cls-12, .cls-14, .cls-24, .cls-26, .cls-4, .cls-44 {
        font-family: Calibri;
      }

      .cls-6 {
        fill: #034ea2;
      }

      .cls-7 {
        fill: #00aeef;
      }

      .cls-8 {
        fill: #fff200;
      }

      .cls-20, .cls-38, .cls-39, .cls-42, .cls-43, .cls-44, .cls-9 {
        fill: #fff;
      }

      .cls-10 {
        clip-path: url(#clip-path-5);
      }

      .cls-12 {
        font-size: 9px;
      }

      .cls-13 {
        stroke-width: 1.8px;
      }

      .cls-14 {
        font-size: 14px;
      }

      .cls-15 {
        letter-spacing: -0.009em;
      }

      .cls-16 {
        stroke-width: 2px;
      }

      .cls-17 {
        font-size: 24px;
      }

      .cls-17, .cls-38, .cls-39, .cls-43, .cls-45 {
        font-family: Calibri-Bold, Calibri;
      }

      .cls-17, .cls-20, .cls-38, .cls-39, .cls-42, .cls-43, .cls-45 {
        font-weight: 700;
      }

      .cls-18 {
        clip-path: url(#clip-path-10);
      }

      .cls-19 {
        fill: #00c0f3;
      }

      .cls-20 {
        font-size: 14.1521px;
      }

      .cls-20, .cls-42 {
        font-family: MyriadPro-Bold, Myriad Pro;
      }

      .cls-21 {
        clip-path: url(#clip-path-13);
      }

      .cls-22, .cls-28 {
        stroke: #fff;
      }

      .cls-22 {
        stroke-width: 3.78px;
      }

      .cls-23 {
        stroke: #44c8f5;
        stroke-linecap: round;
        stroke-linejoin: round;
        stroke-width: 4.32px;
      }

      .cls-24 {
        font-size: 8px;
      }

      .cls-25 {
        letter-spacing: 0.00195em;
      }

      .cls-26 {
        font-size: 12.6px;
      }

      .cls-27 {
        clip-path: url(#clip-path-15);
      }

      .cls-28 {
        stroke-width: 4.161px;
      }

      .cls-29, .cls-31 {
        stroke: #00c0f0;
      }

      .cls-29 {
        stroke-width: 2.056px;
      }

      .cls-30 {
        fill: #00c0f0;
      }

      .cls-31 {
        stroke-width: 0.332px;
      }

      .cls-32 {
        fill: #00a651;
      }

      .cls-33 {
        fill: #50b848;
      }

      .cls-34 {
        fill: #bfd730;
      }

      .cls-35 {
        fill: #fdb913;
      }

      .cls-36 {
        fill: #f37021;
      }

      .cls-37 {
        fill: #ed1c24;
      }

      .cls-38 {
        font-size: 19.4158px;
      }

      .cls-39 {
        font-size: 13.2845px;
      }

      .cls-40 {
        letter-spacing: 0.01em;
      }

      .cls-41 {
        clip-path: url(#clip-path-17);
      }

      .cls-42 {
        font-size: 18.3939px;
      }

      .cls-43 {
        font-size: 29px;
      }

      .cls-44 {
        font-size: 18px;
      }

      .cls-45 {
        font-size: 30px;
      }

      .cls-46 {
        fill: #00b9f2;
      }

      .cls-47 {
        clip-path: url(#clip-path-20);
      }

      .cls-48, .cls-49, .cls-50, .cls-51 {
        stroke: #00b9f2;
      }

      .cls-48 {
        stroke-width: 1.512px;
      }

      .cls-49 {
        stroke-width: 0.983px;
      }

      .cls-50 {
        stroke-width: 0.874px;
      }

      .cls-51 {
        stroke-width: 0.849px;
      }

      .cls-52 {
        clip-path: url(#clip-path-24);
      }

      .cls-53 {
        fill: #8ed8f8;
      }
    </style>
    <clipPath id="clip-path">
      <rect class="cls-1" y="-0.00201" width="311.811" height="623.62201"/>
    </clipPath>
    <clipPath id="clip-path-5">
      <rect class="cls-1" x="25.512" y="25.508" width="260.78698" height="51.02502"/>
    </clipPath>
    <clipPath id="clip-path-10">
      <rect class="cls-1" x="165.295" y="451.974" width="47.92101" height="51.52"/>
    </clipPath>
    <clipPath id="clip-path-13">
      <rect class="cls-1" x="232.27699" y="446.79999" width="47.92" height="56.69401"/>
    </clipPath>
    <clipPath id="clip-path-15">
      <rect class="cls-1" x="93.543" y="443.94901" width="57.638" height="55.17899"/>
    </clipPath>
    <clipPath id="clip-path-17">
      <rect class="cls-1" x="25.132" y="147.11597" width="197.24401" height="168.02402"/>
    </clipPath>
    <clipPath id="clip-path-20">
      <rect class="cls-1" x="32.386" y="452.371" width="49.655" height="47.659"/>
    </clipPath>
    <clipPath id="clip-path-24">
      <rect class="cls-1" x="42.508" y="509.41899" width="24.565" height="33.659"/>
    </clipPath>
  </defs>
  <title>gas-fired-tumble-dryers</title>
  <g class="cls-2">
    <path class="cls-3" d="M26.5945,16.67108s-9.921,0-9.921,9.921v570.433s0,9.922,9.921,9.922h258.622s9.921,0,9.921-9.922V26.5921s0-9.921-9.921-9.921Z"/>
  </g>

























  <g class="cls-2">
    
    <rect class="cls-7" x="104.131" y="25.646" width="182.16801" height="50.815"/>
    
    
    
    
    
    
    
    
    
    
    
    

  <g id="union-flag" transform="translate(25.532, 25.646) scale(1.6938333333333333)">
	<path id="blue" fill="#004289" d="M9.59,20L0,26.39V20H9.59z M39.59,0H27.5v8.06L39.59,0z M0,3.61V10h9.59L0,3.61z M17.5,0H5.41
		L17.5,8.06V0z M27.5,30h12.09L27.5,21.94V30z M45,10V3.61L35.41,10H45z M45,26.39V20h-9.59L45,26.39z M5.41,30H17.5v-8.06L5.41,30z
		"/>
	<path id="red" fill="#DC2F34" d="M45,18H25.5v12h-6V18H0v-6h19.5V0h6v12H45V18z M0,2.42L11.38,10h3.61L0,0.01V2.42z M45,27.58
		L33.62,20h-3.61L45,29.99V27.58z M17.5,20.74V20H15L0,30h3.61L17.5,20.74z M27.5,9.26V10H30L45,0h-3.61L27.5,9.26z"/>
</g><path id="energy-heading" d="M7.1581,7.21791H2.33537v3.7413H7.72769v1.90845H0V.13234H7.44305V2.04079H2.33537V5.32836H7.1581Zm3.53413,5.64975V.13234h2.677L16.67314,5.593a37.85159,37.85159,0,0,1,2.18339,4.27032h.038a51.82706,51.82706,0,0,1-.20865-5.29055V.13234h2.1644V12.86766H18.41992L15.07833,7.25572a43.774,43.774,0,0,1-2.2787-4.38342l-.076.0189c.095,1.64379.133,3.32538.133,5.42289v4.55357ZM31.63845,7.21791H26.81573v3.7413h5.392v1.90845H24.48V.13234h7.44305V2.04079H26.81573V5.32836h4.82272ZM35.19126.32139A20.16965,20.16965,0,0,1,38.72282.03781a5.98372,5.98372,0,0,1,3.94949,1.02056,3.228,3.228,0,0,1,1.1012,2.56949,3.347,3.347,0,0,1-2.3357,3.17446V6.859a3.16007,3.16007,0,0,1,1.7851,2.45638,32.106,32.106,0,0,0,1.00653,3.55224H41.83707a16.17761,16.17761,0,0,1-.85455-3.00431c-.37994-1.66269-.96854-2.19171-2.2977-2.22952H37.50764v5.23383H35.19126ZM37.50764,5.933h1.38647c1.57581,0,2.5437-.83119,2.5437-2.09719,0-1.37943-.96789-2.04079-2.487-2.04079a6.74576,6.74576,0,0,0-1.44314.11343Zm19.67341,6.34892A12.70364,12.70364,0,0,1,53.08022,13a6.96331,6.96331,0,0,1-5.032-1.7005,6.3681,6.3681,0,0,1-1.78446-4.68623C46.28243,2.56982,49.1494,0,53.38353,0a8.52961,8.52961,0,0,1,3.3989.60464l-.5126,1.87065a6.6378,6.6378,0,0,0-2.905-.54793c-2.73432,0-4.65207,1.606-4.65207,4.5728,0,2.89088,1.78509,4.61029,4.44342,4.61029a4.91246,4.91246,0,0,0,1.76578-.24577v-3.193H52.66228V5.8388h4.51877Zm6.23045.58573V7.55821L59.36734.13234h2.677l1.51914,3.269c.43661.94462.75924,1.66269,1.11987,2.53169h.038c.304-.81228.66458-1.606,1.10184-2.53169L67.361.13234H70L65.74719,7.50149v5.36617Z" fill="#fff" transform="translate(117.99595584741246, 39.77372127209416) scale(1.6938333333333333)"/></g>

  <g class="cls-2">
    <line class="cls-11" x1="24.8031" y1="126.63971" x2="287.00809" y2="126.63971"/>
  </g>
  <text class="cls-12" transform="translate(28.34668 598.76355)">20../..</text>
  <g class="cls-2">
    <path class="cls-13" d="M210.837,366.21381s-8.929,0-8.929,8.929v49.348s0,8.929,8.929,8.929h66.058s8.929,0,8.929-8.929v-49.348s0-8.929-8.929-8.929Z"/>
  </g>
  <text class="cls-14" transform="translate(208.4082 413.6698)">k</text>
  <text class="cls-14" transform="translate(214.66602 413.6698)">W</text>
  <text class="cls-14" transform="translate(227.04199 413.6698)">h</text>
  <text class="cls-14" transform="translate(234.23828 413.6698)">/</text>
  <text class="cls-14" transform="translate(239.08203 413.6698)"><tspan class="cls-15">a</tspan><tspan x="6.58008" y="0">n</tspan></text>
  <text class="cls-14" transform="translate(252.88574 413.6698)">n</text>
  <text class="cls-14" transform="translate(260.0957 413.6698)">u</text>
  <text class="cls-14" transform="translate(267.32031 413.6698)">m</text>
  <g class="cls-2">
    <path class="cls-16" d="M169.6891,440.57289s-9.921,0-9.921,9.921v97.213s0,9.921,9.921,9.921h39.132s9.921,0,9.921-9.921v-97.213s0-9.921-9.921-9.921Z"/>
  </g>
  <text class="cls-17" transform="translate(203.5752 534.10828)"> </text>
  <text class="cls-14" transform="translate(182.52734 548.10828)">k</text>
  <text class="cls-14" transform="translate(189.10742 548.10828)">g</text>
  <g class="cls-2">
    <rect class="cls-9" x="165.295" y="451.974" width="47.92" height="51.52"/>
  </g>
  <g class="cls-18">
    <path class="cls-19" d="M203.4274,455.3262l-9.375-2.616a6.12215,6.12215,0,0,1-11.21.001l-9.372,2.615-7.853,8.943,5.162,6.763,2.763-.582.073,28.067,14.833.073,14.834-.073.072-28.067,2.764.582,5.162-6.763Z"/>
  </g>
  <text class="cls-20" transform="translate(181.0127 481.77527)">k</text>
  <text class="cls-20" transform="translate(188.49902 481.77527)">g</text>
  <g class="cls-2">
    <path class="cls-16" d="M236.67149,440.57289s-9.921,0-9.921,9.921v97.213s0,9.921,9.921,9.921h39.132s9.921,0,9.921-9.921v-97.213s0-9.921-9.921-9.921Z"/>
  </g>
  <text class="cls-17" transform="translate(269.66895 534.56921)"> </text>
  <text class="cls-14" transform="translate(248.81543 548.56921)">d</text>
  <text class="cls-14" transform="translate(256.03906 548.56921)">B</text>
  <g class="cls-2">
    <rect class="cls-9" x="232.27699" y="446.80099" width="47.92" height="56.693"/>
  </g>
  <g class="cls-21">
    <path class="cls-7" d="M247.6362,487.35429q-3.8025-3.393-7.609-6.786h-5.425v-10.844h5.425q3.804-3.3915,7.609-6.784l3.149-2.807v30.028Z"/>
    <path class="cls-22" d="M247.6362,487.35429q-3.8025-3.393-7.609-6.786h-5.425v-10.844h5.425q3.804-3.3915,7.609-6.784l3.149-2.807v30.028Z"/>
    <path class="cls-23" d="M267.96219,454.046a38.46811,38.46811,0,0,1,.071,42.204m-7.024-36.385a26.44309,26.44309,0,0,1,.085,30.514m-6.786-24.744a14.92166,14.92166,0,0,1,.129,18.925"/>
  </g>

  <rect class="cls-1" y="-0.00201" width="311.811" height="623.62201"/>














  <g class="cls-2">
    <path class="cls-16" d="M102.7068,440.6261s-9.921,0-9.921,9.921v97.213s0,9.921,9.921,9.921h39.132s9.921,0,9.921-9.921v-97.213s0-9.921-9.921-9.921Z"/>
  </g>
  <text class="cls-26" transform="translate(98 547.89539) scale(1 1.11111)">min/cycle</text>









  <g class="cls-27">
    <path class="cls-9" d="M122.0341,493.7946a18.74,18.74,0,1,0-18.743-18.74,18.74,18.74,0,0,0,18.743,18.74"/>
    <path class="cls-28" d="M122.0341,493.7946a18.74,18.74,0,1,0-18.743-18.74A18.74,18.74,0,0,0,122.0341,493.7946Z"/>
    <path class="cls-9" d="M122.0341,493.7946a18.74,18.74,0,1,0-18.743-18.74,18.74,18.74,0,0,0,18.743,18.74"/>
    <path class="cls-29" d="M122.0341,493.7946a18.74,18.74,0,1,0-18.743-18.74A18.74,18.74,0,0,0,122.0341,493.7946Z"/>
    <line class="cls-29" x1="121.7666" y1="490.04869" x2="121.7666" y2="475.3027"/>
    <line class="cls-29" x1="121.7425" y1="474.76469" x2="126.43649" y2="465.2627"/>
    <path class="cls-30" d="M121.7425,476.2211a1.457,1.457,0,1,0-1.458-1.458,1.45957,1.45957,0,0,0,1.458,1.458"/>
    <path class="cls-9" d="M111.1823,458.63379c-5.78,3.191-2.566,9.598-2.566,16.669,0,10.349,1.46,13.132,13.418,16.46,0,0-15.587-.209-16.225-16.873-.417-10.872,6.209-14.553,6.209-14.553l2.202,4.367,4.976-8.978-10.047-1.778Z"/>
    <path class="cls-30" d="M112.0661,458.10829c-5.781,3.19-9.797,10.124-9.797,17.195,0,10.349,8.937,19.521,19.497,19.333,0,0-16.925-2.377-17.565-19.042-.415-10.872,8.801-15.888,8.801-15.888l1.269,2.639,3.317-5.914-6.808-1.144Z"/>
    <path class="cls-31" d="M112.0661,458.10829c-5.781,3.19-9.797,10.124-9.797,17.195,0,10.349,8.937,19.521,19.497,19.333,0,0-16.925-2.377-17.565-19.042-.415-10.872,8.801-15.888,8.801-15.888l1.269,2.639,3.317-5.914-6.808-1.144Z"/>
  </g>
  <g class="cls-2">
    <polygon class="cls-32" points="25.132 151.687 25.132 171.81 125.426 171.81 135.393 161.748 125.426 151.687 25.132 151.687"/>
    <polygon class="cls-33" points="25.132 175.577 25.132 195.698 137.301 195.698 147.278 185.638 137.301 175.577 25.132 175.577"/>
    <polygon class="cls-34" points="25.132 199.464 25.132 219.588 148.898 219.588 158.88 209.527 148.898 199.464 25.132 199.464"/>
    <polygon class="cls-8" points="25.132 223.356 25.132 243.476 160.496 243.476 170.48 233.415 160.496 223.356 25.132 223.356"/>
    <polygon class="cls-35" points="25.132 247.243 25.132 267.364 172.094 267.364 182.082 257.306 172.094 247.243 25.132 247.243"/>
    <polygon class="cls-36" points="25.132 271.13 25.132 291.255 183.692 291.255 193.685 281.194 183.692 271.13 25.132 271.13"/>
    <polygon class="cls-37" points="25.132 295.018 25.132 315.139 194.695 315.139 205.341 305.081 194.695 295.018 25.132 295.018"/>
  </g>
  <text class="cls-38" transform="translate(31.31396 167.99939)"><tspan xml:space="preserve"> A</tspan></text>
  <text class="cls-39" transform="translate(48.33252 162.82751)"><tspan class="cls-40">+</tspan><tspan x="6.74902" y="0">+</tspan></text>
  <text class="cls-39" transform="translate(61.85596 162.82751)">+</text>
  <text class="cls-38" transform="translate(31.44043 192.01355)"><tspan xml:space="preserve"> A</tspan></text>
  <text class="cls-39" transform="translate(47.83203 186.84607)">+</text>
  <text class="cls-39" transform="translate(54.59375 186.84607)">+</text>
  <text class="cls-38" transform="translate(31.44043 215.78162)"><tspan xml:space="preserve"> A</tspan></text>
  <text class="cls-38" transform="translate(31.07129 239.79871)"><tspan xml:space="preserve"> A</tspan></text>
  <text class="cls-38" transform="translate(31.26563 263.48621)"><tspan xml:space="preserve"> B</tspan></text>
  <text class="cls-38" transform="translate(31.26563 287.25134)"><tspan xml:space="preserve"> C</tspan></text>
  <g class="cls-41">
    <text class="cls-38" transform="translate(30.89697 311.26843)"><tspan xml:space="preserve"> D</tspan></text>
  </g>
  <text class="cls-39" transform="translate(47.83203 210.61365)">+</text>
  <g class="cls-41">
    <text class="cls-42" transform="translate(247.93359 167.99548)"><tspan xml:space="preserve"> A</tspan></text>
    <text class="cls-42" transform="translate(248.08105 192.01794)"><tspan xml:space="preserve"> A</tspan></text>
    <text class="cls-42" transform="translate(248.08105 215.78308)"><tspan xml:space="preserve"> A</tspan></text>
    <text class="cls-42" transform="translate(247.71289 239.78699)"><tspan xml:space="preserve"> A</tspan></text>
    <text class="cls-42" transform="translate(247.89648 263.47839)"><tspan xml:space="preserve"> A</tspan></text>
    <text class="cls-42" transform="translate(247.89648 287.24304)"><tspan xml:space="preserve"> A</tspan></text>
  </g>
  <g class="cls-41">
    <text class="cls-42" transform="translate(247.51758 311.25916)"><tspan xml:space="preserve"> A</tspan></text>
  </g>
  <path class="cls-9" d="M29.8032,590.9586s-4,0-4,4v2.056s0,4,4,4h26.85s4,0,4-4v-2.056s0-4-4-4Z"/>
  <rect class="cls-1" y="-0.00201" width="311.811" height="623.62201"/>
  <text class="cls-12" transform="translate(28.34668 598.76355)">392/2012</text>
  <g id="rating">
    <polyline id="ratingArrow" class="cls-5" points="213.19 161.74 232.72 142.01 286.3 142.01 286.3 181.47 232.72 181.47 213.19 161.74"/>
    <text id="ratingLetter" class="cls-43" transform="translate(225.9502 170.24988)">A</text>
    <text id="ratingPlusses" class="cls-44" transform="translate(244.94043 161.32019)">+++</text>
  </g>
  <text id="supplierLine2" class="cls-14" transform="translate(25.50959 119.05041)">X</text>
  <text id="supplierLine1" class="cls-14" transform="translate(25.50959 102.79205)">X</text>
  <text id="modelLine2" class="cls-14" transform="translate(164.40998 119.05041)">X</text>
  <text id="modelLine1" class="cls-14" transform="translate(164.40998 102.79205)">X</text>
  <text id="kwhAnnum" class="cls-45" transform="translate(244 399.67957)" text-anchor="middle">X</text>
  <text id="minCycle" class="cls-17" transform="translate(122 533.90027)" text-anchor="middle">X</text>
  <text id="kg" class="cls-17" transform="translate(190 534.10046)" text-anchor="middle">X</text>
  <text id="db" class="cls-17" transform="translate(256 534.56042)" text-anchor="middle">X</text>
  <g>
    <path class="cls-16" d="M35.7244,440.59109s-9.921,0-9.921,9.921v97.4s0,9.922,9.921,9.922h39.132s9.921,0,9.921-9.922v-97.4s0-9.921-9.921-9.921Z"/>
    <rect class="cls-9" x="32.386" y="452.373" width="49.654" height="47.657"/>
    <path class="cls-46" d="M37.261,497.482H73.274v-43.55H37.261Zm-1.532-45.043H74.805v46.535H35.729Z"/>
    <g class="cls-47">
      <line class="cls-48" x1="73.5287" y1="492.20509" x2="80.0187" y2="492.20509"/>
      <line class="cls-48" x1="73.5287" y1="485.43649" x2="80.0187" y2="485.43649"/>
    </g>
    <g class="cls-2">
      <rect class="cls-9" x="72.972" y="486.161" width="2.093" height="5.27299"/>
      <polygon class="cls-46" points="77.315 490.466 79.004 488.82 77.315 487.175 78.747 487.175 80.436 488.82 78.747 490.466 77.315 490.466"/>
      <line class="cls-49" x1="73.2271" y1="488.821" x2="79.23909" y2="488.821"/>
    </g>
    <g class="cls-47">
      <path class="cls-50" d="M43.4674,482.9556a3.24859,3.24859,0,0,0,3.29,3.206h17.523a3.24859,3.24859,0,0,0,3.29-3.206v-16.234a3.24858,3.24858,0,0,0-3.29-3.206H46.7574a3.24858,3.24858,0,0,0-3.29,3.206Z"/>
    </g>
    <g class="cls-2">
      <line class="cls-51" x1="74.123" y1="461.4895" x2="36.412" y2="461.4895"/>
    </g>
    <g class="cls-52">
      <path class="cls-46" d="M54.4706,509.419q-.876,3.9525-5.9,11.491l-1.755,2.71q-4.3095,6.588-4.308,9.955a7.8608,7.8608,0,0,0,3.509,6.404,13.41852,13.41852,0,0,0,8.375,2.672,12.79478,12.79478,0,0,0,8.971-3.404,10.77932,10.77932,0,0,0,3.71-8.235q0-10.905-12.602-21.593"/>
      <path class="cls-9" d="M54.5721,520.408q-.5985,2.697-4.025,7.839l-1.197,1.848q-2.94,4.494-2.938,6.791a5.36013,5.36013,0,0,0,2.394,4.369,9.14692,9.14692,0,0,0,5.712,1.823,8.72245,8.72245,0,0,0,6.12-2.322,7.35359,7.35359,0,0,0,2.531-5.618q0-7.44-8.597-14.73"/>
      <path class="cls-53" d="M54.6367,525.4312a20.88624,20.88624,0,0,1-2.832,5.916l-.842,1.395q-2.0685,3.3915-2.068,5.125a4.13117,4.13117,0,0,0,1.685,3.297,6.15156,6.15156,0,0,0,4.019,1.376,5.91307,5.91307,0,0,0,4.306-1.753,5.727,5.727,0,0,0,1.781-4.24q0-5.6145-6.049-11.116"/>
    </g>
  </g>
</svg>