<svg xmlns="http://www.w3.org/2000/svg" xmlns:xlink="http://www.w3.org/1999/xlink" id="Layer_1" data-name="Layer 1" width="110mm" height="220mm" viewBox="0 0 311.81 623.62" data-rating-increment="23.9357" data-supplier-model-chars-per-row="15">
  <defs>
    <style>
      .cls-1, .cls-11, .cls-13, .cls-16, .cls-22, .cls-23, .cls-28, .cls-29, .cls-3, .cls-31, .cls-48, .cls-49, .cls-50, .cls-51 {
        fill: none;
      }

      .cls-2 {
        clip-path: url(#clip-path);
      }

      .cls-11, .cls-13, .cls-16, .cls-3 {
        stroke: #00aeef;
      }

      .cls-3 {
        stroke-width: 5px;
      }

      .cls-4 {
        font-size: 11px;
      }

      .cls-12, .cls-14, .cls-17, .cls-24, .cls-26, .cls-4, .cls-45, .cls-5 {
        fill: #231f20;
      }

      .cls-12, .cls-14, .cls-24, .cls-26, .cls-4, .cls-44 {
        font-family: Calibri;
      }

      .cls-6 {
        fill: #034ea2;
      }

      .cls-7 {
        fill: #00aeef;
      }

      .cls-8 {
        fill: #fff200;
      }

      .cls-20, .cls-38, .cls-39, .cls-42, .cls-43, .cls-44, .cls-9 {
        fill: #fff;
      }

      .cls-10 {
        clip-path: url(#clip-path-5);
      }

      .cls-12 {
        font-size: 9px;
      }

      .cls-13 {
        stroke-width: 1.8px;
      }

      .cls-14 {
        font-size: 14px;
      }

      .cls-15 {
        letter-spacing: -0.009em;
      }

      .cls-16 {
        stroke-width: 2px;
      }

      .cls-17 {
        font-size: 24px;
      }

      .cls-17, .cls-38, .cls-39, .cls-43, .cls-45 {
        font-family: Calibri-Bold, Calibri;
      }

      .cls-17, .cls-20, .cls-38, .cls-39, .cls-42, .cls-43, .cls-45 {
        font-weight: 700;
      }

      .cls-18 {
        clip-path: url(#clip-path-10);
      }

      .cls-19 {
        fill: #00c0f3;
      }

      .cls-20 {
        font-size: 14.1521px;
      }

      .cls-20, .cls-42 {
        font-family: MyriadPro-Bold, Myriad Pro;
      }

      .cls-21 {
        clip-path: url(#clip-path-13);
      }

      .cls-22, .cls-28 {
        stroke: #fff;
      }

      .cls-22 {
        stroke-width: 3.78px;
      }

      .cls-23 {
        stroke: #44c8f5;
        stroke-linecap: round;
        stroke-linejoin: round;
        stroke-width: 4.32px;
      }

      .cls-24 {
        font-size: 8px;
      }

      .cls-25 {
        letter-spacing: 0.00195em;
      }

      .cls-26 {
        font-size: 12.6px;
      }

      .cls-27 {
        clip-path: url(#clip-path-15);
      }

      .cls-28 {
        stroke-width: 4.161px;
      }

      .cls-29, .cls-31 {
        stroke: #00c0f0;
      }

      .cls-29 {
        stroke-width: 2.056px;
      }

      .cls-30 {
        fill: #00c0f0;
      }

      .cls-31 {
        stroke-width: 0.332px;
      }

      .cls-32 {
        fill: #00a651;
      }

      .cls-33 {
        fill: #50b848;
      }

      .cls-34 {
        fill: #bfd730;
      }

      .cls-35 {
        fill: #fdb913;
      }

      .cls-36 {
        fill: #f37021;
      }

      .cls-37 {
        fill: #ed1c24;
      }

      .cls-38 {
        font-size: 19.4158px;
      }

      .cls-39 {
        font-size: 13.2845px;
      }

      .cls-40 {
        letter-spacing: 0.01em;
      }

      .cls-41 {
        clip-path: url(#clip-path-17);
      }

      .cls-42 {
        font-size: 18.3939px;
      }

      .cls-43 {
        font-size: 29px;
      }

      .cls-44 {
        font-size: 18px;
      }

      .cls-45 {
        font-size: 30px;
      }

      .cls-46 {
        fill: #00b9f2;
      }

      .cls-47 {
        clip-path: url(#clip-path-20);
      }

      .cls-48, .cls-49, .cls-50, .cls-51 {
        stroke: #00b9f2;
      }

      .cls-48 {
        stroke-width: 1.512px;
      }

      .cls-49 {
        stroke-width: 0.983px;
      }

      .cls-50 {
        stroke-width: 0.874px;
      }

      .cls-51 {
        stroke-width: 0.849px;
      }

      .cls-52 {
        clip-path: url(#clip-path-24);
      }

      .cls-53 {
        fill: #8ed8f8;
      }
    </style>
    <clipPath id="clip-path">
      <rect class="cls-1" y="-0.00201" width="311.811" height="623.62201"/>
    </clipPath>
    <clipPath id="clip-path-5">
      <rect class="cls-1" x="25.512" y="25.508" width="260.78698" height="51.02502"/>
    </clipPath>
    <clipPath id="clip-path-10">
      <rect class="cls-1" x="165.295" y="451.974" width="47.92101" height="51.52"/>
    </clipPath>
    <clipPath id="clip-path-13">
      <rect class="cls-1" x="232.27699" y="446.79999" width="47.92" height="56.69401"/>
    </clipPath>
    <clipPath id="clip-path-15">
      <rect class="cls-1" x="93.543" y="443.94901" width="57.638" height="55.17899"/>
    </clipPath>
    <clipPath id="clip-path-17">
      <rect class="cls-1" x="25.132" y="147.11597" width="197.24401" height="168.02402"/>
    </clipPath>
    <clipPath id="clip-path-20">
      <rect class="cls-1" x="32.386" y="452.371" width="49.655" height="47.659"/>
    </clipPath>
    <clipPath id="clip-path-24">
      <rect class="cls-1" x="42.508" y="509.41899" width="24.565" height="33.659"/>
    </clipPath>
  </defs>
  <title>gas-fired-tumble-dryers</title>
  <g class="cls-2">
    <path class="cls-3" d="M26.5945,16.67108s-9.921,0-9.921,9.921v570.433s0,9.922,9.921,9.922h258.622s9.921,0,9.921-9.922V26.5921s0-9.921-9.921-9.921Z"/>
  </g>

























  <g class="cls-2">
    <rect class="cls-6" x="25.532" y="25.646" width="76.082" height="50.815"/>
    <rect class="cls-7" x="104.131" y="25.646" width="182.16801" height="50.815"/>
    <polygon class="cls-8" points="79.294 42.587 80.929 41.399 78.908 41.399 78.283 39.476 77.658 41.399 75.636 41.399 77.272 42.587 76.647 44.51 78.283 43.321 79.918 44.51 79.294 42.587"/>
    <polygon class="cls-8" points="72.927 36.49 74.562 35.302 72.541 35.302 71.916 33.379 71.291 35.302 69.27 35.302 70.905 36.49 70.28 38.413 71.916 37.224 73.552 38.413 72.927 36.49"/>
    <polygon class="cls-8" points="64.713 34.309 66.349 33.121 64.327 33.121 63.702 31.198 63.077 33.121 61.055 33.121 62.691 34.309 62.067 36.232 63.702 35.044 65.338 36.232 64.713 34.309"/>
    <polygon class="cls-8" points="56.064 36.49 57.699 35.302 55.678 35.302 55.053 33.379 54.428 35.302 52.406 35.302 54.042 36.49 53.417 38.413 55.053 37.224 56.689 38.413 56.064 36.49"/>
    <polygon class="cls-8" points="49.885 42.886 51.521 41.698 49.499 41.698 48.874 39.775 48.249 41.698 46.227 41.698 47.863 42.886 47.239 44.809 48.874 43.621 50.51 44.809 49.885 42.886"/>
    <polygon class="cls-8" points="47.912 51.29 49.548 50.102 47.526 50.102 46.901 48.179 46.276 50.102 44.254 50.102 45.89 51.29 45.265 53.213 46.901 52.024 48.537 53.213 47.912 51.29"/>
    <polygon class="cls-8" points="49.947 59.804 51.583 58.616 49.561 58.616 48.936 56.693 48.311 58.616 46.289 58.616 47.925 59.804 47.301 61.727 48.936 60.539 50.572 61.727 49.947 59.804"/>
    <polygon class="cls-8" points="56.064 65.855 57.699 64.666 55.678 64.666 55.053 62.744 54.428 64.666 52.406 64.666 54.042 65.855 53.417 67.778 55.053 66.589 56.689 67.777 56.064 65.855"/>
    <polygon class="cls-8" points="64.713 68.109 66.348 66.92 64.326 66.92 63.702 64.998 63.077 66.92 61.055 66.92 62.691 68.109 62.066 70.032 63.702 68.843 65.338 70.032 64.713 68.109"/>
    <polygon class="cls-8" points="73.129 65.824 74.765 64.635 72.742 64.635 72.118 62.713 71.493 64.635 69.471 64.635 71.107 65.824 70.483 67.747 72.118 66.559 73.753 67.747 73.129 65.824"/>
    <polygon class="cls-8" points="79.251 59.75 80.886 58.562 78.865 58.562 78.24 56.639 77.615 58.562 75.594 58.562 77.229 59.75 76.604 61.673 78.24 60.484 79.876 61.673 79.251 59.75"/>
    <polygon class="cls-8" points="81.504 51.172 83.139 49.984 81.118 49.984 80.493 48.061 79.869 49.984 77.846 49.984 79.482 51.172 78.857 53.095 80.493 51.906 82.128 53.095 81.504 51.172"/>

  </g>

  <g class="cls-2">
    <line class="cls-11" x1="24.8031" y1="126.63971" x2="287.00809" y2="126.63971"/>
  </g>
  <text class="cls-12" transform="translate(28.34668 598.76355)">20../..</text>
  <g class="cls-2">
    <path class="cls-13" d="M210.837,366.21381s-8.929,0-8.929,8.929v49.348s0,8.929,8.929,8.929h66.058s8.929,0,8.929-8.929v-49.348s0-8.929-8.929-8.929Z"/>
  </g>
  <text class="cls-14" transform="translate(208.4082 413.6698)">k</text>
  <text class="cls-14" transform="translate(214.66602 413.6698)">W</text>
  <text class="cls-14" transform="translate(227.04199 413.6698)">h</text>
  <text class="cls-14" transform="translate(234.23828 413.6698)">/</text>
  <text class="cls-14" transform="translate(239.08203 413.6698)"><tspan class="cls-15">a</tspan><tspan x="6.58008" y="0">n</tspan></text>
  <text class="cls-14" transform="translate(252.88574 413.6698)">n</text>
  <text class="cls-14" transform="translate(260.0957 413.6698)">u</text>
  <text class="cls-14" transform="translate(267.32031 413.6698)">m</text>
  <g class="cls-2">
    <path class="cls-16" d="M169.6891,440.57289s-9.921,0-9.921,9.921v97.213s0,9.921,9.921,9.921h39.132s9.921,0,9.921-9.921v-97.213s0-9.921-9.921-9.921Z"/>
  </g>
  <text class="cls-17" transform="translate(203.5752 534.10828)"> </text>
  <text class="cls-14" transform="translate(182.52734 548.10828)">k</text>
  <text class="cls-14" transform="translate(189.10742 548.10828)">g</text>
  <g class="cls-2">
    <rect class="cls-9" x="165.295" y="451.974" width="47.92" height="51.52"/>
  </g>
  <g class="cls-18">
    <path class="cls-19" d="M203.4274,455.3262l-9.375-2.616a6.12215,6.12215,0,0,1-11.21.001l-9.372,2.615-7.853,8.943,5.162,6.763,2.763-.582.073,28.067,14.833.073,14.834-.073.072-28.067,2.764.582,5.162-6.763Z"/>
  </g>
  <text class="cls-20" transform="translate(181.0127 481.77527)">k</text>
  <text class="cls-20" transform="translate(188.49902 481.77527)">g</text>
  <g class="cls-2">
    <path class="cls-16" d="M236.67149,440.57289s-9.921,0-9.921,9.921v97.213s0,9.921,9.921,9.921h39.132s9.921,0,9.921-9.921v-97.213s0-9.921-9.921-9.921Z"/>
  </g>
  <text class="cls-17" transform="translate(269.66895 534.56921)"> </text>
  <text class="cls-14" transform="translate(248.81543 548.56921)">d</text>
  <text class="cls-14" transform="translate(256.03906 548.56921)">B</text>
  <g class="cls-2">
    <rect class="cls-9" x="232.27699" y="446.80099" width="47.92" height="56.693"/>
  </g>
  <g class="cls-21">
    <path class="cls-7" d="M247.6362,487.35429q-3.8025-3.393-7.609-6.786h-5.425v-10.844h5.425q3.804-3.3915,7.609-6.784l3.149-2.807v30.028Z"/>
    <path class="cls-22" d="M247.6362,487.35429q-3.8025-3.393-7.609-6.786h-5.425v-10.844h5.425q3.804-3.3915,7.609-6.784l3.149-2.807v30.028Z"/>
    <path class="cls-23" d="M267.96219,454.046a38.46811,38.46811,0,0,1,.071,42.204m-7.024-36.385a26.44309,26.44309,0,0,1,.085,30.514m-6.786-24.744a14.92166,14.92166,0,0,1,.129,18.925"/>
  </g>

  <rect class="cls-1" y="-0.00201" width="311.811" height="623.62201"/>














  <g class="cls-2">
    <path class="cls-16" d="M102.7068,440.6261s-9.921,0-9.921,9.921v97.213s0,9.921,9.921,9.921h39.132s9.921,0,9.921-9.921v-97.213s0-9.921-9.921-9.921Z"/>
  </g>
  <text class="cls-26" transform="translate(98 547.89539) scale(1 1.11111)">min/cycle</text>









  <g class="cls-27">
    <path class="cls-9" d="M122.0341,493.7946a18.74,18.74,0,1,0-18.743-18.74,18.74,18.74,0,0,0,18.743,18.74"/>
    <path class="cls-28" d="M122.0341,493.7946a18.74,18.74,0,1,0-18.743-18.74A18.74,18.74,0,0,0,122.0341,493.7946Z"/>
    <path class="cls-9" d="M122.0341,493.7946a18.74,18.74,0,1,0-18.743-18.74,18.74,18.74,0,0,0,18.743,18.74"/>
    <path class="cls-29" d="M122.0341,493.7946a18.74,18.74,0,1,0-18.743-18.74A18.74,18.74,0,0,0,122.0341,493.7946Z"/>
    <line class="cls-29" x1="121.7666" y1="490.04869" x2="121.7666" y2="475.3027"/>
    <line class="cls-29" x1="121.7425" y1="474.76469" x2="126.43649" y2="465.2627"/>
    <path class="cls-30" d="M121.7425,476.2211a1.457,1.457,0,1,0-1.458-1.458,1.45957,1.45957,0,0,0,1.458,1.458"/>
    <path class="cls-9" d="M111.1823,458.63379c-5.78,3.191-2.566,9.598-2.566,16.669,0,10.349,1.46,13.132,13.418,16.46,0,0-15.587-.209-16.225-16.873-.417-10.872,6.209-14.553,6.209-14.553l2.202,4.367,4.976-8.978-10.047-1.778Z"/>
    <path class="cls-30" d="M112.0661,458.10829c-5.781,3.19-9.797,10.124-9.797,17.195,0,10.349,8.937,19.521,19.497,19.333,0,0-16.925-2.377-17.565-19.042-.415-10.872,8.801-15.888,8.801-15.888l1.269,2.639,3.317-5.914-6.808-1.144Z"/>
    <path class="cls-31" d="M112.0661,458.10829c-5.781,3.19-9.797,10.124-9.797,17.195,0,10.349,8.937,19.521,19.497,19.333,0,0-16.925-2.377-17.565-19.042-.415-10.872,8.801-15.888,8.801-15.888l1.269,2.639,3.317-5.914-6.808-1.144Z"/>
  </g>
  <g class="cls-2">
    <polygon class="cls-32" points="25.132 151.687 25.132 171.81 125.426 171.81 135.393 161.748 125.426 151.687 25.132 151.687"/>
    <polygon class="cls-33" points="25.132 175.577 25.132 195.698 137.301 195.698 147.278 185.638 137.301 175.577 25.132 175.577"/>
    <polygon class="cls-34" points="25.132 199.464 25.132 219.588 148.898 219.588 158.88 209.527 148.898 199.464 25.132 199.464"/>
    <polygon class="cls-8" points="25.132 223.356 25.132 243.476 160.496 243.476 170.48 233.415 160.496 223.356 25.132 223.356"/>
    <polygon class="cls-35" points="25.132 247.243 25.132 267.364 172.094 267.364 182.082 257.306 172.094 247.243 25.132 247.243"/>
    <polygon class="cls-36" points="25.132 271.13 25.132 291.255 183.692 291.255 193.685 281.194 183.692 271.13 25.132 271.13"/>
    <polygon class="cls-37" points="25.132 295.018 25.132 315.139 194.695 315.139 205.341 305.081 194.695 295.018 25.132 295.018"/>
  </g>
  <text class="cls-38" transform="translate(31.31396 167.99939)"><tspan xml:space="preserve"> A</tspan></text>
  <text class="cls-39" transform="translate(48.33252 162.82751)"><tspan class="cls-40">+</tspan><tspan x="6.74902" y="0">+</tspan></text>
  <text class="cls-39" transform="translate(61.85596 162.82751)">+</text>
  <text class="cls-38" transform="translate(31.44043 192.01355)"><tspan xml:space="preserve"> A</tspan></text>
  <text class="cls-39" transform="translate(47.83203 186.84607)">+</text>
  <text class="cls-39" transform="translate(54.59375 186.84607)">+</text>
  <text class="cls-38" transform="translate(31.44043 215.78162)"><tspan xml:space="preserve"> A</tspan></text>
  <text class="cls-38" transform="translate(31.07129 239.79871)"><tspan xml:space="preserve"> A</tspan></text>
  <text class="cls-38" transform="translate(31.26563 263.48621)"><tspan xml:space="preserve"> B</tspan></text>
  <text class="cls-38" transform="translate(31.26563 287.25134)"><tspan xml:space="preserve"> C</tspan></text>
  <g class="cls-41">
    <text class="cls-38" transform="translate(30.89697 311.26843)"><tspan xml:space="preserve"> D</tspan></text>
  </g>
  <text class="cls-39" transform="translate(47.83203 210.61365)">+</text>
  <g class="cls-41">
    <text class="cls-42" transform="translate(247.93359 167.99548)"><tspan xml:space="preserve"> A</tspan></text>
    <text class="cls-42" transform="translate(248.08105 192.01794)"><tspan xml:space="preserve"> A</tspan></text>
    <text class="cls-42" transform="translate(248.08105 215.78308)"><tspan xml:space="preserve"> A</tspan></text>
    <text class="cls-42" transform="translate(247.71289 239.78699)"><tspan xml:space="preserve"> A</tspan></text>
    <text class="cls-42" transform="translate(247.89648 263.47839)"><tspan xml:space="preserve"> A</tspan></text>
    <text class="cls-42" transform="translate(247.89648 287.24304)"><tspan xml:space="preserve"> A</tspan></text>
  </g>
  <g class="cls-41">
    <text class="cls-42" transform="translate(247.51758 311.25916)"><tspan xml:space="preserve"> A</tspan></text>
  </g>
  <path class="cls-9" d="M29.8032,590.9586s-4,0-4,4v2.056s0,4,4,4h26.85s4,0,4-4v-2.056s0-4-4-4Z"/>
  <rect class="cls-1" y="-0.00201" width="311.811" height="623.62201"/>
  <text class="cls-12" transform="translate(28.34668 598.76355)">392/2012</text>
  <g id="rating">
    <polyline id="ratingArrow" class="cls-5" points="213.19 161.74 232.72 142.01 286.3 142.01 286.3 181.47 232.72 181.47 213.19 161.74"/>
    <text id="ratingLetter" class="cls-43" transform="translate(225.9502 170.24988)">A</text>
    <text id="ratingPlusses" class="cls-44" transform="translate(244.94043 161.32019)">+++</text>
  </g>
  <text id="supplierLine2" class="cls-14" transform="translate(25.50959 119.05041)">X</text>
  <text id="supplierLine1" class="cls-14" transform="translate(25.50959 102.79205)">X</text>
  <text id="modelLine2" class="cls-14" transform="translate(164.40998 119.05041)">X</text>
  <text id="modelLine1" class="cls-14" transform="translate(164.40998 102.79205)">X</text>
  <text id="kwhAnnum" class="cls-45" transform="translate(244 399.67957)" text-anchor="middle">X</text>
  <text id="minCycle" class="cls-17" transform="translate(122 533.90027)" text-anchor="middle">X</text>
  <text id="kg" class="cls-17" transform="translate(190 534.10046)" text-anchor="middle">X</text>
  <text id="db" class="cls-17" transform="translate(256 534.56042)" text-anchor="middle">X</text>
  <g>
    <path class="cls-16" d="M35.7244,440.59109s-9.921,0-9.921,9.921v97.4s0,9.922,9.921,9.922h39.132s9.921,0,9.921-9.922v-97.4s0-9.921-9.921-9.921Z"/>
    <rect class="cls-9" x="32.386" y="452.373" width="49.654" height="47.657"/>
    <path class="cls-46" d="M37.261,497.482H73.274v-43.55H37.261Zm-1.532-45.043H74.805v46.535H35.729Z"/>
    <g class="cls-47">
      <line class="cls-48" x1="73.5287" y1="492.20509" x2="80.0187" y2="492.20509"/>
      <line class="cls-48" x1="73.5287" y1="485.43649" x2="80.0187" y2="485.43649"/>
    </g>
    <g class="cls-2">
      <rect class="cls-9" x="72.972" y="486.161" width="2.093" height="5.27299"/>
      <polygon class="cls-46" points="77.315 490.466 79.004 488.82 77.315 487.175 78.747 487.175 80.436 488.82 78.747 490.466 77.315 490.466"/>
      <line class="cls-49" x1="73.2271" y1="488.821" x2="79.23909" y2="488.821"/>
    </g>
    <g class="cls-47">
      <path class="cls-50" d="M43.4674,482.9556a3.24859,3.24859,0,0,0,3.29,3.206h17.523a3.24859,3.24859,0,0,0,3.29-3.206v-16.234a3.24858,3.24858,0,0,0-3.29-3.206H46.7574a3.24858,3.24858,0,0,0-3.29,3.206Z"/>
    </g>
    <g class="cls-2">
      <line class="cls-51" x1="74.123" y1="461.4895" x2="36.412" y2="461.4895"/>
    </g>
    <g class="cls-52">
      <path class="cls-46" d="M54.4706,509.419q-.876,3.9525-5.9,11.491l-1.755,2.71q-4.3095,6.588-4.308,9.955a7.8608,7.8608,0,0,0,3.509,6.404,13.41852,13.41852,0,0,0,8.375,2.672,12.79478,12.79478,0,0,0,8.971-3.404,10.77932,10.77932,0,0,0,3.71-8.235q0-10.905-12.602-21.593"/>
      <path class="cls-9" d="M54.5721,520.408q-.5985,2.697-4.025,7.839l-1.197,1.848q-2.94,4.494-2.938,6.791a5.36013,5.36013,0,0,0,2.394,4.369,9.14692,9.14692,0,0,0,5.712,1.823,8.72245,8.72245,0,0,0,6.12-2.322,7.35359,7.35359,0,0,0,2.531-5.618q0-7.44-8.597-14.73"/>
      <path class="cls-53" d="M54.6367,525.4312a20.88624,20.88624,0,0,1-2.832,5.916l-.842,1.395q-2.0685,3.3915-2.068,5.125a4.13117,4.13117,0,0,0,1.685,3.297,6.15156,6.15156,0,0,0,4.019,1.376,5.91307,5.91307,0,0,0,4.306-1.753,5.727,5.727,0,0,0,1.781-4.24q0-5.6145-6.049-11.116"/>
    </g>
  </g>
</svg>
