<svg  id="Layer_1" data-name="Layer 1" xmlns="http://www.w3.org/2000/svg" width="96mm" height="192mm" viewBox="0 0 272.12601 544.25201" data-rating-increment="28.3333" data-supplier-model-chars-per-row="20">
  <defs>
    <style>
      /* SI number not shown on labels until the SI is laid */
      #siNumber {
        display: none;
      }

      .subscale {
        text-anchor: middle;
        letter-spacing: 0.45px;
      }

      .subscaleA .subscaleALetter,
      .subscaleB .subscaleBLetter,
      .subscaleC .subscaleCLetter,
      .subscaleD .subscaleDLetter,
      .subscaleE .subscaleELetter {
        font-size: 12px;
        font-family: Verdana-Bold, Verdana;
        font-weight: 700;
        baseline-shift: -1.5px;
        letter-spacing: -3px;
      }

      .subscaleB .subscaleALetter,
      .subscaleC .subscaleBLetter,
      .subscaleD .subscaleCLetter,
      .subscaleE .subscaleDLetter {
        letter-spacing: 3px;
      }
      
      .cls-1 {
        stroke-miterlimit: 10;
      }

      .cls-1, .cls-2, .cls-3, .cls-4, .cls-5, .cls-6 {
        fill: none;
        stroke: #231f20;
      }

      .cls-7 {
        letter-spacing: -.24202em;
      }

      .cls-2, .cls-4, .cls-6 {
        stroke-linecap: round;
        stroke-linejoin: round;
      }

      .cls-3 {
        stroke-width: .5px;
      }

      .cls-8 {
        fill: #ed1c24;
      }

      .cls-8, .cls-9, .cls-10, .cls-11, .cls-12, .cls-13, .cls-14, .cls-15, .cls-16, .cls-17, .cls-18, .cls-19, .cls-20, .cls-21 {
        stroke-width: 0px;
      }

      .cls-22 {
        letter-spacing: -.12199em;
      }

      .cls-23, .cls-24, .cls-25, .cls-26, .cls-27, .cls-28, .cls-29, .cls-17, .cls-30, .cls-31, .cls-32, .cls-33, .cls-34 {
        fill: #231f20;
      }

      .cls-23, .cls-24, .cls-26, .cls-35, .cls-31, .cls-32, .cls-33, .cls-36 {
        font-family: Verdana-Bold, Verdana;
        font-weight: 700;
      }

      .cls-23, .cls-28 {
        font-size: 12px;
      }

      .cls-24 {
        letter-spacing: .03499em;
      }

      .cls-24, .cls-25, .cls-31 {
        font-size: 9px;
      }

      .cls-10 {
        fill: #fdb913;
      }

      .cls-25, .cls-27, .cls-28, .cls-29, .cls-37, .cls-30, .cls-34 {
        font-family: Verdana, Verdana;
      }

      .cls-11 {
        fill: #00a651;
      }

      .cls-26, .cls-36 {
        font-size: 26px;
      }

      .cls-27 {
        font-size: 6px;
      }

      .cls-12 {
        fill: #fff200;
      }

      .cls-13 {
        fill: #50b848;
      }

      .cls-38 {
        letter-spacing: -.22205em;
      }

      .cls-14, .cls-35, .cls-36 {
        fill: #fff;
      }

      .cls-29 {
        font-size: 14px;
      }

      .cls-39 {
        letter-spacing: -.28198em;
      }

      .cls-4 {
        stroke-width: .75px;
      }

      .cls-15 {
        fill: #bfd730;
      }

      .cls-37 {
        fill: #1d1d1b;
        font-size: 7.63636px;
      }

      .cls-16 {
        fill: #f37021;
      }

      .cls-18 {
        fill: #db3133;
      }

      .cls-30 {
        font-size: 8px;
      }

      .cls-40 {
        letter-spacing: -.22198em;
      }

      .cls-35, .cls-33 {
        font-size: 16px;
      }

      .cls-19 {
        fill: #034ea2;
      }

      .cls-6 {
        stroke-width: 1.2px;
      }

      .cls-32 {
        font-size: 28px;
      }

      .cls-20 {
        fill: #d0d1d1;
      }

      .cls-21 {
        fill: #1b4687;
      }

      .cls-34 {
        font-size: 18px;
      }
    </style>
  </defs>
  <g id="flag">
    <path class="cls-21" d="M15.6614,48.18906h15.993v-10.66202l-15.993,10.66202ZM68.0324,43.41403v-8.453h-12.686l12.686,8.453ZM68.0324,21.73303v-8.453l-12.686,8.453h12.686ZM44.88239,48.18906h15.993l-15.993-10.66202v10.66202ZM31.6544,8.50403h-15.993l15.993,10.66205v-10.66205ZM8.5044,13.28003v8.453h12.686l-12.686-8.453ZM60.8754,8.50403h-15.993v10.66205l15.993-10.66205ZM21.1904,34.96103l-12.686,8.453v-8.453h12.686Z"/>
    <path class="cls-18" d="M44.882,20.75348v.979h3.307l19.843-13.22803h-4.775l-18.375,12.24902ZM31.654,35.94043v-.97897h-3.307l-19.843,13.228h4.776l18.374-12.24902ZM68.032,44.98843l-15.054-10.02698h-4.775l19.829,13.215v-3.18802ZM8.504,11.70544l15.054,10.02704h4.776L8.504,8.51746v3.18799ZM68.032,32.31543h-25.795v15.87402h-7.937v-15.87402H8.504v-7.93695h25.796v-15.87402h7.937v15.87402h25.795v7.93695Z"/>
  </g>
  <g id="Energy">
    <polygon class="cls-19" points="79.4918 19.8562 79.4918 25.27423 92.21279 25.27423 92.21279 30.81726 79.4918 30.81726 79.4918 37.03821 92.7578 37.03821 92.7578 42.58121 73.6728 42.58121 73.6728 14.18622 92.7578 14.18622 92.7578 19.8562 79.4918 19.8562"/>
    <polygon class="cls-19" points="120.3405 14.18652 120.3405 42.58154 113.39249 42.58154 101.7145 23.70758 101.7145 42.58154 95.8945 42.58154 95.8945 14.18652 102.8435 14.18652 114.52049 33.31454 114.52049 14.18652 120.3405 14.18652"/>
    <polygon class="cls-19" points="129.46449 19.8562 129.46449 25.27423 142.18549 25.27423 142.18549 30.81726 129.46449 30.81726 129.46449 37.03821 142.73048 37.03821 142.73048 42.58121 123.64549 42.58121 123.64549 14.18622 142.73048 14.18622 142.73048 19.8562 129.46449 19.8562"/>
    <path class="cls-19" d="M151.60098,26.92444h6.571c.83701,0,1.522-.05701,2.05101-.16901.53-.11395.923-.25598,1.172-.42499.42-.33801.63-1.198.63-2.58002,0-1.552-.12801-2.58197-.377-3.08899-.25301-.565-1.07401-.84698-2.472-.84698h-7.57501v7.10999ZM145.743,42.58142V14.18646h13.394c1.56099,0,2.89999.15601,4.017.46497,1.118.31104,2.036.81201,2.76399,1.50305.724.69098,1.26201,1.60797,1.612,2.75098.34601,1.14197.52101,2.53101.52101,4.16797,0,.90405-.058,1.763-.16701,2.58002-.11299.81903-.265,1.55298-.45999,2.20203-.252.73401-.70001,1.36798-1.33801,1.90295.556.59302.96901,1.29901,1.23401,2.11603.26399.81799.396,1.72198.396,2.70898v7.99799h-5.98599v-7.36398c0-1.07001-.24901-1.80402-.75101-2.20001-.50301-.39398-1.297-.59198-2.38699-.59198h-6.99101v10.15598h-5.85799Z"/>
    <path class="cls-19" d="M180.9435,26.9248h13.601c.14,1.07306.21399,1.86804.22899,2.38904.01601.52301.02.98199.02,1.37598v2.328c0,2.20001-.308,4.146-.91899,5.84-.39301,1.073-1.039,1.91101-1.94601,2.517-.907.608-2.14099,1.01001-3.70599,1.207-.83701.08401-1.701.14099-2.592.16901-.89601.02701-1.787.043-2.67801.043-4.465,0-7.53699-.72-9.20999-2.159-1.81401-1.495-2.72101-4.44299-2.72101-8.84497v-1.77704c0-.59296.015-1.19897.043-1.81897v-3.34302c0-3.66797.739-6.37598,2.218-8.12598.783-.90302,1.849-1.58002,3.2-2.03003,1.35501-.45099,2.951-.677,4.79601-.677h1.545c.502,0,1.02.013,1.549.04102h2.931c2.733.08502,4.65201.82599,5.75401,2.22198,1.101,1.39703,1.65399,3.37903,1.65399,5.94702v2.495h-5.858c0-2.37-.15599-3.85101-.46399-4.44403-.14-.28094-.724-.44995-1.755-.50696-.864-.05499-1.709-.091-2.534-.10504-.82201-.013-1.68201-.021-2.573-.021-2.149,0-3.41801.22601-3.80701.677-.39301.48004-.61501,2.04401-.67,4.69702,0,.28101-.007.54901-.02299.80298-.011.25403-.01901.53705-.01901.84601v1.60999l.04201,3.59503c0,.73398.028,1.42697.082,2.07397.05499.64999.15199,1.242.29199,1.77701v-.08401c.14.311.362.586.67.82602.30701.23999.755.40198,1.339.48599.61501.08499,1.187.12601,1.716.12601.33499.03.67799.04401,1.028.04401h2.487c.97701,0,1.76801-.03601,2.367-.10703.599-.069,1.01199-.21799,1.23399-.444.38901-.33899.588-1.466.588-3.38498v-.677h-7.90999v-5.58502Z"/>
    <polygon class="cls-19" points="202.72839 14.05872 209.18639 14.05872 206.62239 22.22076 213.64938 21.06873 203.58339 43.05872 206.62239 27.11774 199.87938 27.40674 202.72839 14.05872"/>
  </g>
  <g id="qrCode">
    <rect class="cls-20" x="223.93701" y="8.50404" width="39.68504" height="39.68504"/>
    <text class="cls-37" transform="translate(227.81695 30.4864)">QR code</text>
  </g>
  <text id="supplierLine1" class="cls-24" transform="translate(8.50391 62.04694)">X</text>
  <text id="supplierLine2" class="cls-24" transform="translate(8.50391 72.04694)">X</text>
  <text id="modelLine1" class="cls-25" transform="translate(263.8 61.98981)" text-anchor="end">X</text>
  <text id="modelLine2" class="cls-25" transform="translate(263.8 71.98981)" text-anchor="end">X</text>
  <line class="cls-3" x1="8.504" y1="76.51752" x2="263.547" y2="76.51752"/>
  <g id="rating">
    <polygon id="ratingArrow" class="cls-9" points="219.5139 82.51309 198.35089 100.22711 219.5139 116.52911 263.54688 116.52911 263.54688 82.51309 219.5139 82.51309"/>
    <text id="ratingLetter" class="cls-36" transform="translate(230.86328 109.46136)">A</text>
  </g>
  <g id="scale">
    <polygon class="cls-8" points="132.0498 257.86783 8.50381 257.86783 8.50381 281.96185 132.0498 281.96185 144.5668 269.91486 132.0498 257.86783"/>
    <polygon class="cls-16" points="120.7292 229.5213 8.5042 229.5213 8.5042 253.61533 120.7292 253.61533 133.2282 241.56833 120.7292 229.5213"/>
    <polygon class="cls-10" points="109.4866 201.17493 8.5036 201.17493 8.5036 225.26895 109.4866 225.26895 121.8896 213.22195 109.4866 201.17493"/>
    <polygon class="cls-12" points="98.238 172.9216 8.484 172.9216 8.484 197.01562 98.238 197.01562 110.531 184.96863 98.238 172.9216"/>
    <polygon class="cls-15" points="86.5984 144.5751 8.50439 144.5751 8.50439 168.66913 86.5984 168.66913 99.27539 156.62213 86.5984 144.5751"/>
    <polygon class="cls-13" points="75.3306 116.22861 8.50359 116.22861 8.50359 140.32263 75.3306 140.32263 87.92359 128.27563 75.3306 116.22861"/>
    <polygon class="cls-11" points="65.0845 87.88211 8.5035 87.88211 8.5035 111.97614 65.1965 111.97614 76.5355 99.92914 65.0845 87.88211"/>
    <text class="cls-35" transform="translate(13.63184 106.04645)">A</text>
    <text class="cls-35" transform="translate(13.74902 134.39313)">B</text>
    <text class="cls-35" transform="translate(14.05371 162.73932)">C</text>
    <text class="cls-35" transform="translate(13.20166 190.99274)">D</text>
    <text class="cls-35" transform="translate(14.37793 219.33942)">E</text>
    <text class="cls-35" transform="translate(14.63916 247.59283)">F</text>
    <text class="cls-35" transform="translate(13.354 276.03229)">G</text>
  </g>
  <g id="middleBand">
    <line class="cls-3" x1="8.504" y1="295.05321" x2="263.547" y2="295.05321"/>
    <line class="cls-3" x1="8.504" y1="351.57112" x2="263.547" y2="351.57112"/>
    <text transform="translate(151 334.31354)" text-anchor="end">
      <tspan id="kwh100cycles" class="cls-32">X</tspan>
      <tspan class="cls-34"> kWh</tspan>
    </text>
    <line class="cls-6" x1="176.5984" y1="304.44101" x2="159.7724" y2="342.99202"/>
    <text class="cls-29" transform="translate(190.71973 328.961)">100</text>
    <path class="cls-17" d="M204.0455,303.76581c10.60699,0,19.271,8.373,19.79199,18.854h2.79201l-4.136,7.16501-4.13701-7.16501h2.692c-.517-8.94299-7.93399-16.065-17.00299-16.065-9.403,0-17.054,7.65001-17.054,17.054,0,9.403,7.651,17.05301,17.054,17.05301,4.62799,0,8.95799-1.823,12.194-5.13301l1.99399,1.951c-3.765,3.85001-8.804,5.97101-14.18799,5.97101-10.94101,0-19.843-8.901-19.843-19.84201,0-10.942,8.90199-19.843,19.843-19.843"/>
  </g>
  <g id="symbols">
    <g id="repairabilityIcon">
      <text id="repairabilityClass" class="cls-30 subscale" transform="translate(18.4 409) rotate(90)" rotate="-90">
        <tspan class="subscaleALetter">A</tspan>
        <tspan class="subscaleBLetter">B</tspan>
        <tspan class="subscaleCLetter">C</tspan>
        <tspan class="subscaleDLetter">D</tspan>
        <tspan class="subscaleELetter">E</tspan>
      </text>
      <g>
        <path class="cls-4" d="M39.25841,409.03118c-1.214,1.214-2.985,1.539-4.494.968l2.55499-2.554c.39-.39.39-1.022,0-1.411l-1.05699-1.058c-.39-.389-1.02101-.389-1.41101.001l-2.55499,2.55399c-.571-1.509-.246-3.28.968-4.494,1.34799-1.348,3.384-1.599,4.981-.75l9.44299-9.443c-.849-1.597-.59801-3.632.75-4.98,1.214-1.214,2.985-1.54,4.494-.96899l-2.55501,2.555c-.38899.39-.39,1.021,0,1.411l1.05701,1.058c.39.389,1.022.389,1.411-.001l2.55501-2.555c.571,1.509.246,3.28-.968,4.494-1.34801,1.348-3.384,1.6-4.981.75l-9.44299,9.443c.849,1.598.59799,3.633-.75,4.981Z"/>
        <line class="cls-4" x1="50.84311" y1="406.50988" x2="42.5141" y2="414.60889"/>
        <path class="cls-4" d="M53.73889,405.27038l6.718-6.545h1.63699l2.729-4.25301-1.638-1.596-4.366,2.659v1.595l-6.718,6.545M44.3759,416.55637c-1.06601,1.038-2.79301,1.038-3.85901,0-1.06599-1.03799-1.06599-2.72099,0-3.75999l8.73199-8.507c1.06601-1.038,2.793-1.038,3.85901,0,1.06599,1.038,1.06599,2.722,0,3.76l-8.73199,8.507Z"/>
      </g>
    </g>
    <g id="condensingIcon">
      <text id="condensingClass" class="cls-30 subscale" transform="translate(90 409) rotate(90)" rotate="-90">
        <tspan class="subscaleALetter">A</tspan>
        <tspan class="subscaleBLetter">B</tspan>
        <tspan class="subscaleCLetter">C</tspan>
        <tspan class="subscaleDLetter">D</tspan>
      </text>
      <polyline class="cls-14" points="152.47298 403.2669 143.92797 424.59591 110.61497 424.59591 102.06698 403.2669"/>
      <polyline class="cls-1" points="152.47298 403.2669 143.92797 424.59591 110.61497 424.59591 102.06698 403.2669"/>
      <path class="cls-14" d="M104.75738,409.46391c2.112,0,5.349-1.09299,6.31-2.668.935,1.653,3.017,2.776,5.191,2.776,2.11,0,4.44099-1.20099,5.402-2.776.935,1.653,3.245,2.776,5.419,2.776,2.11,0,4.474-1.20099,5.435-2.776.935,1.653,3.279,2.776,5.452,2.776,2.11,0,4.397-1.20799,5.358-2.78299.935,1.661,4.19199,2.784,6.362,2.784"/>
      <path class="cls-1" d="M104.75738,409.46391c2.112,0,5.349-1.09299,6.31-2.668.935,1.653,3.017,2.776,5.191,2.776,2.11,0,4.44099-1.20099,5.402-2.776.935,1.653,3.245,2.776,5.419,2.776,2.11,0,4.474-1.20099,5.435-2.776.935,1.653,3.279,2.776,5.452,2.776,2.11,0,4.397-1.20799,5.358-2.78299.935,1.661,4.19199,2.784,6.362,2.784"/>
      <text transform="translate(128 420.58236)" text-anchor="middle">
        <!-- Do not pretty-print these spans - they need to be all on one line to avoid whitespace between them when rendering -->
        <tspan id="condensingPercent" class="cls-31">X</tspan><tspan class="cls-25">%</tspan>
      </text>
      <path class="cls-1" d="M119.49817,401.35911c1.786,0,3.088-2.019,2.019-4.071-.613-1.17599-2.005-3.30899-2.005-3.30899,0,0-1.39201,2.133-2.005,3.30899-1.068,2.052.205,4.071,1.991,4.071"/>
      <path class="cls-1" d="M134.30898,399.8258c1.786,0,3.088-2.019,2.019-4.071-.613-1.17599-2.005-3.30899-2.005-3.30899,0,0-1.39201,2.133-2.005,3.30899-1.068,2.052.205,4.071,1.991,4.071"/>
      <line class="cls-5" x1="118.28508" y1="380.19061" x2="118.28508" y2="385.57661"/>
      <polygon class="cls-17" points="116.24418 385.17952 118.28517 389.48852 120.32617 385.17952 116.24418 385.17952"/>
      <line class="cls-5" x1="127.25218" y1="380.19061" x2="127.25218" y2="385.57661"/>
      <polygon class="cls-17" points="125.21128 385.17952 127.25227 389.48852 129.29327 385.17952 125.21128 385.17952"/>
      <line class="cls-5" x1="136.01708" y1="380.19061" x2="136.01708" y2="385.57661"/>
      <polygon class="cls-17" points="133.97608 385.17952 136.01707 389.48852 138.05807 385.17952 133.97608 385.17952"/>
      <path class="cls-1" d="M127.25788,405.13101c1.786,0,3.088-2.019,2.019-4.071-.613-1.17599-2.005-3.30899-2.005-3.30899,0,0-1.39201,2.133-2.005,3.30899-1.068,2.052.205,4.071,1.991,4.071"/>
    </g>
    <g id="soundIcon">
      <text id="soundClass" class="cls-30 subscale" transform="translate(177.2 409) rotate(90)" rotate="-90">
        <tspan class="subscaleALetter">A</tspan>
        <tspan class="subscaleBLetter">B</tspan>
        <tspan class="subscaleCLetter">C</tspan>
        <tspan  class="subscaleDLetter">D</tspan>
      </text>
      <path class="cls-2" d="M235.61615,412.37642c1.272-3.04601,1.979-6.371,1.979-9.85699,0-4.095-.967-7.97301-2.692-11.43201M248.74915,417.55341c1.94801-4.64399,3.03-9.71499,3.03-15.03399,0-6.248-1.48199-12.162-4.12399-17.43401M242.28116,414.75041c1.58299-3.78099,2.46199-7.90999,2.46199-12.239,0-5.086-1.203-9.89999-3.34999-14.19299"/>
      <polygon class="cls-2" points="227.95085 380.44261 227.55785 424.59661 210.25685 414.01562 190.71685 414.01562 190.71685 391.25761 210.64984 391.25761 227.95085 380.44261"/>
      <text transform="translate(208.5 406.9776)" text-anchor="middle">
        <!-- Do not pretty-print these spans - they need to be all on one line to avoid whitespace between them when rendering -->
        <tspan id="db" class="cls-23">X</tspan><tspan class="cls-25">dB</tspan>
      </text>
    </g>
    <g id="capacityIcon">
      <text transform="translate(85.8 518.76862)" text-anchor="middle">
        <tspan  id="kg" class="cls-33">X</tspan>
        <tspan class="cls-28">kg</tspan>
      </text>
      <polyline class="cls-14" points="87.11739 473.73191 91.74439 466.00092 88.12239 464.11691 90.69239 459.82291 97.23939 461.64091 105.27839 465.82291 110.44339 470.09792 107.80239 474.50891 103.98639 472.52392 99.42939 480.13692"/>
      <polyline class="cls-1" points="87.11739 473.73191 91.74439 466.00092 88.12239 464.11691 90.69239 459.82291 97.23939 461.64091 105.27839 465.82291 110.44339 470.09792 107.80239 474.50891 103.98639 472.52392 99.42939 480.13692"/>
      <path class="cls-1" d="M105.3326,465.85861c-1.43501.64301-3.413.561-5.189-.355-1.758-.907-2.867-2.399-3.046-3.853"/>
      <polyline class="cls-14" points="77.9567 477.23891 78.8327 468.42192 74.70269 468.06492 75.18869 463.16692 81.96569 462.35992 91.13369 463.15192 97.71369 465.11391 97.21369 470.14492 92.8617 469.76892 91.9987 478.45192"/>
      <polyline class="cls-1" points="77.9567 477.23891 78.8327 468.42192 74.70269 468.06492 75.18869 463.16692 81.96569 462.35992 91.13369 463.15192 97.71369 465.11391 97.21369 470.14492 92.8617 469.76892 91.9987 478.45192"/>
      <path class="cls-1" d="M91.20909,463.18732c-1.033,1.108-2.87901,1.763-4.90701,1.592-2.008-.169-3.678-1.104-4.478-2.348"/>
      <polyline class="cls-14" points="65.82289 478.82941 70.22789 470.98742 66.55389 469.19342 69.00089 464.83642 75.59689 466.49142 83.75189 470.47342 89.03689 474.61942 86.52289 479.09442 82.65189 477.20441 78.31289 484.92742"/>
      <polyline class="cls-1" points="65.82289 478.82941 70.22789 470.98742 66.55389 469.19342 69.00089 464.83642 75.59689 466.49142 83.75189 470.47342 89.03689 474.61942 86.52289 479.09442 82.65189 477.20441 78.31289 484.92742"/>
      <path class="cls-1" d="M83.80869,470.50781c-1.41701.678-3.396.644-5.19701-.228-1.784-.863-2.936-2.326-3.157-3.774"/>
      <polygon class="cls-14" points="103.17739 498.20731 68.47139 498.20731 61.04039 476.71232 109.86439 476.71232 103.17739 498.20731"/>
      <polygon class="cls-1" points="103.17739 498.20731 68.47139 498.20731 61.04039 476.71232 109.86439 476.71232 103.17739 498.20731"/>
      <path class="cls-14" d="M92.03809,483.96771h-13.097c-1.131,0-2.047-.847-2.047-1.891s.916-1.891,2.047-1.891h13.097c1.131,0,2.047.847,2.047,1.891s-.916,1.891-2.047,1.891"/>
      <path class="cls-1" d="M92.03809,483.96771h-13.097c-1.131,0-2.047-.847-2.047-1.891s.916-1.891,2.047-1.891h13.097c1.131,0,2.047.847,2.047,1.891s-.916,1.891-2.047,1.891Z"/>
    </g>
    <g id="durationIcon">
      <text id="duration" class="cls-33" transform="translate(187.8 518.76862)" text-anchor="middle">
        X:XX
      </text>
      <path class="cls-1" d="M200.46739,492.66932c-3.51901,3.592-8.429,5.821-13.86,5.821-10.705,0-19.38301-8.66-19.38301-19.342,0-10.683,8.67801-19.34299,19.38301-19.34299,10.70399,0,19.38199,8.66,19.38199,19.34299"/>
      <polygon class="cls-17" points="206.00479 484.57412 209.14479 479.14812 202.86478 479.14812 206.00479 484.57412"/>
      <path class="cls-1" d="M191.65268,485.60122l-4.48099-6.456v-13.447"/>
    </g>
  </g>
  <g id="siNumber">
    <text class="cls-27" transform="translate(259.06641 493.62747) rotate(90)">2025 No. XXX</text>
  </g>
</svg>