<svg id="Layer_1" data-name="Layer 1" xmlns="http://www.w3.org/2000/svg" xmlns:xlink="http://www.w3.org/1999/xlink" width="105mm" height="200mm" viewBox="0 0 297.64001 566.92999" data-rating-increment="20" data-supplier-model-chars-per-row="25">
  <defs>
    <style>
      #indirectHeatSection {
        display: none;
      }

      #indirectHeatSection.hasIndirectHeatSection {
        display: inline;
      }
      .cls-1, .cls-13, .cls-25, .cls-26, .cls-28, .cls-3, .cls-9 {
        fill: none;
      }

      .cls-2 {
        clip-path: url(#clip-path);
      }

      .cls-13, .cls-25, .cls-26, .cls-3, .cls-9 {
        stroke: #00aeef;
      }

      .cls-3 {
        stroke-width: 4px;
      }

      .cls-4 {
        fill: #034ea2;
      }

      .cls-5 {
        fill: #00aeef;
      }

      .cls-6 {
        fill: #fff200;
      }

      .cls-10, .cls-11, .cls-12, .cls-23, .cls-24, .cls-29, .cls-30, .cls-7 {
        fill: #fff;
      }

      .cls-8 {
        clip-path: url(#clip-path-2);
      }

      .cls-10, .cls-15 {
        font-size: 18px;
      }

      .cls-10, .cls-11, .cls-12, .cls-14, .cls-29, .cls-31 {
        font-family: Calibri-Bold, Calibri;
      }

      .cls-10, .cls-11, .cls-12, .cls-14, .cls-23, .cls-24, .cls-29, .cls-31 {
        font-weight: 700;
      }

      .cls-11 {
        font-size: 10.494px;
      }

      .cls-12 {
        font-size: 25.83px;
      }

      .cls-13, .cls-25 {
        stroke-width: 2px;
      }

      .cls-14 {
        font-size: 10px;
      }

      .cls-14, .cls-15, .cls-27, .cls-31, .cls-33, .cls-34 {
        fill: #231f20;
      }

      .cls-15 {
        font-family: Calibri;
      }

      .cls-16 {
        fill: #bfd730;
      }

      .cls-17 {
        fill: #50b848;
      }

      .cls-18 {
        fill: #00a651;
      }

      .cls-19 {
        fill: #fdb913;
      }

      .cls-20 {
        fill: #f37021;
      }

      .cls-21 {
        fill: #ed1c24;
      }

      .cls-22 {
        clip-path: url(#clip-path-5);
      }

      .cls-23 {
        font-size: 15.39px;
      }

      .cls-24 {
        font-size: 10.26px;
      }

      .cls-25, .cls-26, .cls-28 {
        stroke-linecap: round;
        stroke-linejoin: round;
      }

      .cls-26 {
        stroke-width: 1.5px;
      }

      .cls-28 {
        stroke: #fff;
        stroke-width: 0.75px;
      }

      .cls-29 {
        font-size: 24px;
      }

      .cls-30 {
        font-size: 15px;
      }

      .cls-30, .cls-33, .cls-34 {
        font-family: Calibri;
      }

      .cls-31 {
        font-size: 34px;
      }

      .cls-32 {
        clip-path: url(#clip-path-10);
      }

      .cls-33 {
        font-size: 11px;
      }

      .cls-34 {
        font-size: 8px;
      }

      .cls-35 {
        letter-spacing: -0.00928em;
      }

      .cls-36 {
        letter-spacing: -0.01709em;
      }

      .cls-37 {
        letter-spacing: -0.01465em;
      }
    </style>
    <clipPath id="clip-path">
      <rect class="cls-1" y="0.00098" width="297.638" height="566.92902"/>
    </clipPath>
    <clipPath id="clip-path-2">
      <rect class="cls-1" x="26.964" y="26.36298" width="243.77999" height="48.18903"/>
    </clipPath>
    <clipPath id="clip-path-5">
      <rect class="cls-1" x="31.004" y="133.27698" width="154.50599" height="178.52202"/>
    </clipPath>
    <clipPath id="clip-path-10">
      <rect class="cls-1" x="41.87" y="438.29999" width="25.258" height="43.59801"/>
    </clipPath>
  </defs>
  <title>local-space-heaters</title>
  <g class="cls-2">
    <path class="cls-3" d="M24.0691,16.16577s-7.904,0-7.904,7.90405v518.791s0,7.904,7.904,7.904h249.5s7.904,0,7.904-7.904V24.06982s0-7.90405-7.904-7.90405Z"/>
    <rect class="cls-4" x="26.983" y="26.492" width="71.121" height="48.05899"/>
    <rect class="cls-5" x="100.456" y="26.492" width="170.28799" height="48.06"/>
    <polygon class="cls-6" points="76.295 43.209 74.764 44.333 75.349 42.515 73.82 41.391 75.709 41.391 76.293 39.572 76.879 41.391 78.768 41.391 77.24 42.515 77.823 44.333 76.295 43.209"/>
    <polygon class="cls-6" points="69.397 36.747 67.868 35.624 69.758 35.624 70.342 33.806 70.926 35.624 72.816 35.624 71.287 36.747 71.871 38.566 70.342 37.443 68.813 38.567 69.397 36.747"/>
    <polygon class="cls-6" points="61.719 34.685 60.19 33.561 62.08 33.561 62.664 31.743 63.248 33.561 65.138 33.561 63.609 34.685 64.193 36.503 62.664 35.38 61.135 36.504 61.719 34.685"/>
    <polygon class="cls-6" points="53.633 36.747 52.104 35.624 53.994 35.624 54.578 33.806 55.162 35.624 57.052 35.624 55.523 36.747 56.107 38.566 54.578 37.443 53.049 38.567 53.633 36.747"/>
    <polygon class="cls-6" points="47.858 42.797 46.329 41.673 48.219 41.673 48.803 39.855 49.387 41.673 51.277 41.673 49.748 42.797 50.332 44.615 48.803 43.492 47.274 44.616 47.858 42.797"/>
    <polygon class="cls-6" points="46.013 50.745 44.484 49.621 46.374 49.621 46.958 47.803 47.542 49.621 49.432 49.621 47.903 50.745 48.487 52.563 46.958 51.44 45.429 52.564 46.013 50.745"/>
    <polygon class="cls-6" points="47.915 58.798 46.386 57.674 48.276 57.674 48.86 55.855 49.444 57.674 51.334 57.674 49.805 58.798 50.389 60.616 48.86 59.493 47.331 60.617 47.915 58.798"/>
    <polygon class="cls-6" points="53.633 64.521 52.104 63.397 53.994 63.397 54.578 61.578 55.162 63.397 57.052 63.397 55.523 64.521 56.107 66.339 54.578 65.216 53.049 66.339 53.633 64.521"/>
    <polygon class="cls-6" points="62.664 67.346 61.135 68.47 61.719 66.652 60.19 65.527 62.079 65.527 62.663 63.709 63.247 65.527 65.137 65.527 63.609 66.652 64.193 68.47 62.664 67.346"/>
    <polygon class="cls-6" points="70.531 65.186 69.002 66.31 69.586 64.491 68.057 63.367 69.947 63.367 70.531 61.548 71.115 63.367 73.005 63.367 71.476 64.491 72.06 66.31 70.531 65.186"/>
    <polygon class="cls-6" points="75.309 58.746 73.779 57.622 75.669 57.622 76.252 55.804 76.838 57.622 78.728 57.622 77.199 58.746 77.783 60.565 76.254 59.441 74.723 60.565 75.309 58.746"/>
    <polygon class="cls-6" points="77.415 50.634 75.886 49.51 77.776 49.51 78.359 47.692 78.944 49.51 80.834 49.51 79.305 50.634 79.889 52.452 78.36 51.329 76.831 52.453 77.415 50.634"/>
    <polygon class="cls-7" points="109.759 55.194 109.759 34.711 121.533 34.711 121.533 37.78 113.454 37.78 113.454 43.068 121.083 43.068 121.083 46.107 113.454 46.107 113.454 52.124 121.984 52.124 121.984 55.194 109.759 55.194"/>
  </g>
  <g class="cls-8">
    <path class="cls-7" d="M126.7294,55.19409v-20.483h4.205l5.227,8.783a56.67,56.67,0,0,1,3.454,6.868h.06c-.24-2.735-.331-5.379-.331-8.509v-7.142h3.425v20.483h-3.815l-5.286-9.02594a67.79232,67.79232,0,0,1-3.635-7.051l-.09.031c.15,2.644.18,5.348.18,8.722v7.324Z"/>
    <polygon class="cls-7" points="159.86 46.107 152.23 46.107 152.23 52.124 160.761 52.124 160.761 55.194 148.536 55.194 148.536 34.711 160.311 34.711 160.311 37.78 152.23 37.78 152.23 43.068 159.86 43.068 159.86 46.107"/>
    <path class="cls-7" d="M165.50648,34.9848a34.56123,34.56123,0,0,1,5.587-.426c2.914,0,4.896.486,6.248,1.64105a5.21468,5.21468,0,0,1,1.742,4.103,5.45665,5.45665,0,0,1-3.664,5.136v.091c1.441.547,2.312,1.975,2.823,3.951a41.339,41.339,0,0,0,1.592,5.713h-3.815a29.18451,29.18451,0,0,1-1.351-4.832c-.571-2.674-1.532-3.525-3.635-3.586h-1.862v8.418h-3.665Zm3.665,9.056h2.193c2.492,0,4.055-1.337,4.055-3.373,0-2.249-1.563-3.283-3.966-3.283a10.49222,10.49222,0,0,0-2.282.183Z"/>
    <path class="cls-7" d="M200.3194,54.25189a19.82717,19.82717,0,0,1-6.518,1.155c-3.425,0-6.008-.881-7.93-2.735a10.20833,10.20833,0,0,1-2.823-7.537c0-6.473,4.565-10.63605,11.264-10.63605a13.2947,13.2947,0,0,1,5.376.97205l-.811,3.009a10.78059,10.78059,0,0,0-4.596-.882c-4.325,0-7.359,2.583-7.359,7.355,0,4.649,2.824,7.415,7.029,7.415a6.99268,6.99268,0,0,0,2.794-.426v-5.105h-3.575v-2.948h7.149Z"/>
    <path class="cls-7" d="M109.3941,63.54953c.035.958.832,1.371,1.734,1.371a4.49446,4.49446,0,0,0,1.56-.239l.209.924a5.574,5.574,0,0,1-1.966.337,2.59732,2.59732,0,0,1-2.901-2.686,2.68981,2.68981,0,0,1,2.751-2.85,2.34774,2.34774,0,0,1,2.428,2.578,2.99886,2.99886,0,0,1-.047.565Zm2.474-.935a1.15991,1.15991,0,0,0-1.168-1.294,1.34493,1.34493,0,0,0-1.306,1.294Z"/>
    <polygon class="cls-7" points="115.82 60.526 115.82 62.549 117.993 62.549 117.993 60.526 119.415 60.526 119.415 65.823 117.993 65.823 117.993 63.593 115.82 63.593 115.82 65.823 114.398 65.823 114.398 60.526 115.82 60.526"/>
    <path class="cls-7" d="M121.99229,63.54953c.034.958.832,1.371,1.733,1.371a4.50461,4.50461,0,0,0,1.561-.239l.208.924a5.568,5.568,0,0,1-1.965.337,2.59732,2.59732,0,0,1-2.901-2.686,2.68923,2.68923,0,0,1,2.751-2.85,2.347,2.347,0,0,1,2.427,2.578,3.10744,3.10744,0,0,1-.046.565Zm2.473-.935a1.15853,1.15853,0,0,0-1.167-1.294,1.34344,1.34344,0,0,0-1.306,1.294Z"/>
    <path class="cls-7" d="M127.00719,62.2883c0-.696-.023-1.261-.046-1.762h1.248l.07.816h.023a2.23476,2.23476,0,0,1,1.93-.936,2.45993,2.45993,0,0,1,2.37,2.698,2.58433,2.58433,0,0,1-2.566,2.838,1.893,1.893,0,0,1-1.584-.707h-.023v2.741h-1.422Zm1.422,1.316a1.29071,1.29071,0,0,0,.046.37,1.27105,1.27105,0,0,0,1.248.935c.902,0,1.434-.707,1.434-1.751,0-.935-.486-1.697-1.399-1.697a1.30756,1.30756,0,0,0-1.271.99,1.14158,1.14158,0,0,0-.058.337Z"/>
    <polygon class="cls-7" points="137.537 60.526 137.537 61.581 135.236 61.581 135.236 65.823 133.815 65.823 133.815 60.526 137.537 60.526"/>
    <path class="cls-7" d="M139.8015,60.52631v1.904c0,.837-.034,1.402-.081,2.142h.035c.3-.62.474-1.011.763-1.566l1.387-2.48h1.722v5.297h-1.352v-1.893c0-.848.034-1.24.092-2.24h-.046c-.277.631-.462,1.011-.74,1.522-.439.783-.948,1.74-1.433,2.611h-1.699v-5.297Z"/>
    <path class="cls-7" d="M149.82159,65.82291h-1.41v-2.099h-.531a1.13684,1.13684,0,0,0-.867.348,3.394,3.394,0,0,0-.694,1.316,3.69765,3.69765,0,0,1-.22.435h-1.525a2.73668,2.73668,0,0,0,.346-.587,4.4474,4.4474,0,0,1,.844-1.523,1.36315,1.36315,0,0,1,.671-.359v-.032c-.671-.066-1.468-.479-1.468-1.305a1.33145,1.33145,0,0,1,.866-1.229,4.8467,4.8467,0,0,1,1.989-.337,16.11842,16.11842,0,0,1,1.999.119Zm-1.41-4.47a4.03826,4.03826,0,0,0-.705-.054c-.624,0-1.26.206-1.26.794,0,.554.705.794,1.26.794.335,0,.52,0,.705-.011Z"/>
    <path class="cls-7" d="M154.4326,63.84351a.8297.8297,0,0,1-.867-.859.83929.83929,0,0,1,.878-.859.85922.85922,0,1,1,0,1.718Z"/>
    <path class="cls-7" d="M160.0374,62.97348c-.67-.174-1.04-.587-1.04-1.109,0-.718.763-1.458,2.37-1.458a3.5225,3.5225,0,0,1,1.803.403l-.266.859a3.17965,3.17965,0,0,0-1.364-.316c-.682,0-1.11.262-1.11.631,0,.424.567.598,1.41.609h.613v.892h-.624c-.902.011-1.584.185-1.584.696,0,.501.613.761,1.306.761a4.01236,4.01236,0,0,0,1.584-.369l.208.891a4.5479,4.5479,0,0,1-2.138.479c-1.191,0-2.474-.424-2.474-1.62a1.436,1.436,0,0,1,1.306-1.305Z"/>
    <path class="cls-7" d="M165.2148,60.52631l.902,2.686c.162.468.266.892.404,1.349h.047a9.12321,9.12321,0,0,0,1.179-3.578v-.457h1.329a2.1965,2.1965,0,0,1,.035.402c0,1.502-1.018,3.274-2.046,4.895h-1.376l-2-5.297Z"/>
    <path class="cls-7" d="M171.0511,62.97348c-.67-.174-1.04-.587-1.04-1.109,0-.718.763-1.458,2.37-1.458a3.52257,3.52257,0,0,1,1.803.403l-.266.859a3.17965,3.17965,0,0,0-1.364-.316c-.682,0-1.11.262-1.11.631,0,.424.567.598,1.41.609h.613v.892h-.624c-.902.011-1.584.185-1.584.696,0,.501.613.761,1.306.761a4.01231,4.01231,0,0,0,1.584-.369l.208.891a4.54787,4.54787,0,0,1-2.138.479c-1.191,0-2.474-.424-2.474-1.62a1.436,1.436,0,0,1,1.306-1.305Z"/>
    <path class="cls-7" d="M176.7373,65.31192v.75a13.57149,13.57149,0,0,0,.081,1.914h-1.376a9.294,9.294,0,0,1-.127-1.892v-2.426a2.99458,2.99458,0,0,1,.959-2.555,2.79477,2.79477,0,0,1,1.919-.696,2.5554,2.5554,0,0,1,2.694,2.719,2.60856,2.60856,0,0,1-2.601,2.816,1.87264,1.87264,0,0,1-1.526-.63Zm0-1.588a1.70417,1.70417,0,0,0,.034.348,1.31444,1.31444,0,0,0,1.249.838c.902,0,1.422-.751,1.422-1.752,0-.935-.497-1.653-1.341-1.653-.717,0-1.364.588-1.364,1.806Z"/>
    <path class="cls-7" d="M183.29,67.976a11.38841,11.38841,0,0,0-.196-3.056,14.38329,14.38329,0,0,0-1.965-4.394h1.595a12.41416,12.41416,0,0,1,1.503,3.851h.046a8.29846,8.29846,0,0,0,1.063-3.426c0-.207-.011-.316-.011-.425h1.352a2.07335,2.07335,0,0,1,.023.392,9.062,9.062,0,0,1-1.988,4.666.42365.42365,0,0,0-.069.261c.023.532.023,1.402.034,2.131Z"/>
    <path class="cls-7" d="M188.6176,62.97348c-.67-.174-1.04-.587-1.04-1.109,0-.718.763-1.458,2.37-1.458a3.52257,3.52257,0,0,1,1.803.403l-.266.859a3.1834,3.1834,0,0,0-1.364-.316c-.682,0-1.11.262-1.11.631,0,.424.567.598,1.41.609h.613v.892h-.624c-.902.011-1.584.185-1.584.696,0,.501.613.761,1.306.761a4.01236,4.01236,0,0,0,1.584-.369l.208.891a4.54924,4.54924,0,0,1-2.139.479c-1.19,0-2.473-.424-2.473-1.62a1.436,1.436,0,0,1,1.306-1.305Z"/>
    <path class="cls-7" d="M194.3506,64.333c0,.435.138.609.531.587l-.08.935a1.8423,1.8423,0,0,1-.613.087c-.763,0-1.271-.304-1.271-1.479V60.526h1.433Z"/>
    <path class="cls-7" d="M201.14648,60.52643c-.069.718-.162,2.349-.162,3.611,0,.598.197.804.544.793l-.093.947a1.77862,1.77862,0,0,1-.496.065,1.0501,1.0501,0,0,1-1.099-1.033h-.034a2.0979,2.0979,0,0,1-1.862,1.033,2.40213,2.40213,0,0,1-2.323-2.664,2.69615,2.69615,0,0,1,2.543-2.872,1.74216,1.74216,0,0,1,1.618.925h.047a8.104,8.104,0,0,1,.127-.805Zm-4.08,2.708c0,.892.485,1.642,1.26,1.642a1.41694,1.41694,0,0,0,1.248-1.142,3.44038,3.44038,0,0,0,.047-.62,2.20774,2.20774,0,0,0-.035-.5,1.29694,1.29694,0,0,0-1.191-1.174c-.798,0-1.329.793-1.329,1.783Z"/>
    <path class="cls-7" d="M208.0078,39.05817a10.3077,10.3077,0,1,1,10.307,10.428,10.36842,10.36842,0,0,1-10.307-10.428"/>
    <path class="cls-5" d="M217.6127,42.96692V39.372l-2.694-5.028h1.771l1.024,2.213c.291.64.506,1.126.733,1.715h.026c.215-.551.455-1.088.746-1.715l1.024-2.213h1.758l-2.832,4.99v3.633Z"/>
    <path class="cls-7" d="M231.7211,39.05817a10.3077,10.3077,0,1,1,10.307,10.428,10.36842,10.36842,0,0,1-10.307-10.428"/>
    <path class="cls-7" d="M208.0078,62.181a10.3077,10.3077,0,1,1,10.307,10.428,10.3684,10.3684,0,0,1-10.307-10.428"/>
    <rect class="cls-5" x="214.38699" y="57.46701" width="1.556" height="8.62299"/>
    <polygon class="cls-5" points="222.493 62.265 219.281 62.265 219.281 64.798 222.873 64.798 222.873 66.09 217.726 66.09 217.726 57.467 222.683 57.467 222.683 58.76 219.281 58.76 219.281 60.985 222.493 60.985 222.493 62.265"/>
    <path class="cls-7" d="M231.7211,62.181a10.3077,10.3077,0,1,1,10.307,10.428,10.3684,10.3684,0,0,1-10.307-10.428"/>
    <rect class="cls-5" x="234.85699" y="34.34399" width="1.556" height="8.62299"/>
    <path class="cls-5" d="M239.8902,34.34387h1.556v5.591c0,2.38-1.139,3.173-2.833,3.173a4.09237,4.09237,0,0,1-1.302-.205l.189-1.267a3.3632,3.3632,0,0,0,.962.154c.884,0,1.428-.409,1.428-1.906Z"/>
    <path class="cls-5" d="M244.8611,40.5235l-.734,2.443h-1.606l2.732-8.623h1.985l2.769,8.623h-1.669l-.771-2.443Zm2.44-1.19-.67-2.124c-.165-.524-.304-1.113-.43-1.612h-.026c-.126.499-.252,1.1-.404,1.612l-.658,2.124Z"/>
    <rect class="cls-5" x="237.336" y="57.46701" width="1.556" height="8.62299"/>
    <path class="cls-5" d="M242.38159,63.64642l-.733,2.444h-1.606l2.731-8.623h1.986l2.769,8.623h-1.669l-.772-2.444Zm2.441-1.189-.67-2.124c-.165-.525-.304-1.113-.431-1.612h-.025c-.126.499-.253,1.1-.404,1.612l-.658,2.124Z"/>
  </g>
  <g class="cls-2">
    <line class="cls-9" x1="26.5135" y1="112.0929" x2="271.18149" y2="112.0929"/>
  </g>
  <text class="cls-10" transform="translate(36.11328 150.42706)"><tspan xml:space="preserve"> A</tspan></text>
  <text class="cls-11" transform="translate(51.08984 144.43292)">+</text>
  <text class="cls-10" transform="translate(36.11328 174.74933)"> </text>
  <text class="cls-10" transform="translate(40.18115 172.62531)">A</text>
  <text class="cls-10" transform="translate(36.11328 194.81915)"><tspan xml:space="preserve"> B</tspan></text>
  <text class="cls-10" transform="translate(36.11328 217.01349)"><tspan xml:space="preserve"> C</tspan></text>
  <text class="cls-10" transform="translate(36.11328 239.20734)"><tspan xml:space="preserve"> D</tspan></text>
  <text class="cls-10" transform="translate(36.11328 261.40118)"><tspan xml:space="preserve"> E</tspan></text>
  <text class="cls-10" transform="translate(36.11328 283.59552)"><tspan xml:space="preserve"> F</tspan></text>
  <text class="cls-10" transform="translate(36.11328 305.78937)"><tspan xml:space="preserve"> G</tspan></text>
  <text class="cls-12" transform="translate(215.86035 151.10089)"> </text>
  <g class="cls-2">
    <path class="cls-13" d="M35.4177,324.22929s-7.904,0-7.904,7.904v69.058s0,7.904,7.904,7.904h226.778s7.905,0,7.905-7.904v-69.058s0-7.904-7.905-7.904Z"/>
  </g>
  <text class="cls-14" transform="translate(26.89258 541.54816)">2015/1186</text>
  <text class="cls-15" transform="translate(205.03711 390.36066)">k</text>
  <text class="cls-15" transform="translate(213.4248 390.36066)">W</text>
  <rect class="cls-1" y="0.00098" width="297.638" height="566.92902"/>
  <rect class="cls-7" x="31.004" y="133.27698" width="154.50599" height="178.52202"/>
  <polygon class="cls-16" points="31.004 175.254 31.004 192.091 115.885 192.091 124.223 183.673 115.885 175.254 31.004 175.254"/>
  <polygon class="cls-17" points="31.004 155.259 31.004 172.095 106.174 172.095 114.511 163.678 106.174 155.259 31.004 155.259"/>
  <polygon class="cls-18" points="31.004 135.266 31.004 152.101 96.466 152.101 104.803 143.684 96.466 135.266 31.004 135.266"/>
  <polygon class="cls-6" points="31.004 195.243 31.004 212.078 125.819 212.078 134.168 203.661 125.819 195.243 31.004 195.243"/>
  <polygon class="cls-19" points="31.004 215.23 31.004 232.067 135.523 232.067 143.874 223.649 135.523 215.23 31.004 215.23"/>
  <polygon class="cls-20" points="31.004 235.219 31.004 252.054 145.227 252.054 153.581 243.635 145.227 235.219 31.004 235.219"/>
  <polygon class="cls-21" points="31.004 255.205 31.004 272.04 154.93 272.04 163.287 263.624 154.93 255.205 31.004 255.205"/>
  <polygon class="cls-21" points="31.004 275.191 31.004 292.028 164.634 292.028 172.995 283.61 164.634 275.191 31.004 275.191"/>
  <polygon class="cls-21" points="31.004 295.178 31.004 311.799 174.068 311.799 182.748 303.597 173.841 295.178 31.004 295.178"/>
  <rect class="cls-1" y="0.00098" width="297.638" height="566.92902"/>
  <g class="cls-22">
    <path class="cls-7" d="M44.4454,186.14432l-.74,2.677h-2.429l3.169-10.432h3.075l3.215,10.432h-2.523l-.799-2.677Zm2.63-1.765-.646-2.214c-.186-.619-.37-1.393-.525-2.011h-.029c-.154.618-.308,1.408-.478,2.011l-.615,2.214Z"/>
    <path class="cls-7" d="M41.3544,198.53931a18.55714,18.55714,0,0,1,3.031-.216,5.69209,5.69209,0,0,1,3.061.588,2.2742,2.2742,0,0,1,1.244,2.043,2.35779,2.35779,0,0,1-1.707,2.23v.03a2.6064,2.6064,0,0,1,2.061,2.57,2.79035,2.79035,0,0,1-1.076,2.214c-.754.604-2.015.944-4.078.944a17.86255,17.86255,0,0,1-2.536-.156Zm2.321,3.994h.77c1.231,0,1.892-.511,1.892-1.284,0-.79-.6-1.208-1.661-1.208a6.25253,6.25253,0,0,0-1.001.062Zm0,4.628a7.14552,7.14552,0,0,0,.909.032c1.06,0,2-.418,2-1.501,0-1.055-.94-1.47-2.108-1.47h-.801Z"/>
    <path class="cls-7" d="M49.0175,228.55051a6.55764,6.55764,0,0,1-2.662.466c-3.584,0-5.429-2.26-5.429-5.233a5.3,5.3,0,0,1,5.659-5.541,6.09725,6.09725,0,0,1,2.555.464l-.477,1.874a5.02928,5.02928,0,0,0-1.969-.388,3.4305,3.4305,0,0,0,.015,6.857,5.84327,5.84327,0,0,0,1.954-.34Z"/>
    <path class="cls-7" d="M40.6894,238.56262a20.9953,20.9953,0,0,1,3.17-.216,6.63088,6.63088,0,0,1,4.244,1.115,4.62328,4.62328,0,0,1,1.753,3.93,5.29679,5.29679,0,0,1-1.722,4.226,7.40338,7.40338,0,0,1-4.783,1.348,20.05778,20.05778,0,0,1-2.662-.156Zm2.354,8.514a4.15416,4.15416,0,0,0,.816.048c2.123.014,3.507-1.163,3.507-3.655a2.98333,2.98333,0,0,0-3.261-3.312,4.73383,4.73383,0,0,0-1.062.094Z"/>
    <polygon class="cls-7" points="46.807 264.37 42.993 264.37 42.993 266.847 47.252 266.847 47.252 268.781 40.64 268.781 40.64 258.348 47.038 258.348 47.038 260.285 42.993 260.285 42.993 262.451 46.807 262.451 46.807 264.37"/>
    <polygon class="cls-7" points="41.069 278.36 47.406 278.36 47.406 280.297 43.42 280.297 43.42 282.679 47.143 282.679 47.143 284.6 43.42 284.6 43.42 288.793 41.069 288.793 41.069 278.36"/>
    <path class="cls-7" d="M50.0896,308.23819a11.52542,11.52542,0,0,1-3.46.588,5.75858,5.75858,0,0,1-4.217-1.41,5.06925,5.06925,0,0,1-1.46-3.792c.016-3.467,2.523-5.448,5.922-5.448a7.08782,7.08782,0,0,1,2.876.511l-.491,1.888a5.73373,5.73373,0,0,0-2.415-.448,3.39949,3.39949,0,0,0-.17,6.796,3.08551,3.08551,0,0,0,1.153-.156v-2.183h-1.599v-1.842h3.861Z"/>
  </g>
  <g class="cls-22">
    <path class="cls-7" d="M44.12891,147.22638,43.39014,149.89H40.95752L44.12891,139.513H47.2085L50.42627,149.89h-2.5249l-.80078-2.66357Zm2.63281-1.75488-.64649-2.20166c-.18457-.61621-.36962-1.38575-.52343-2.002H45.561c-.15381.61621-.30811,1.40137-.47754,2.002l-.61573,2.20166Z"/>
    <g>
      <path class="cls-7" d="M54.728,140.11066V142.346h2.14306v.96387H54.728v2.25585H53.72314v-2.25585H51.58008V142.346h2.14306v-2.23535Z"/>
      <path class="cls-7" d="M60.84277,140.11066V142.346h2.14307v.96387H60.84277v2.25585H59.83789v-2.25585H57.69482V142.346h2.14307v-2.23535Z"/>
    </g>
    <path class="cls-7" d="M44.12891,166.90411l-.73877,2.66358H40.95752l3.17139-10.377H47.2085l3.21777,10.377h-2.5249l-.80078-2.66358Zm2.63281-1.75488-.64649-2.20166c-.18457-.61621-.36962-1.38574-.52343-2.002H45.561c-.15381.61621-.30811,1.40136-.47754,2.002l-.61573,2.20166Z"/>
    <path class="cls-7" d="M54.728,159.78839v2.23535h2.14306v.96387H54.728v2.25586H53.72314v-2.25586H51.58008v-.96387h2.14306v-2.23535Z"/>    
    <path class="cls-7" d="M225.8573,186.14432l-.74,2.677h-2.429l3.169-10.432h3.075l3.217,10.432h-2.525l-.799-2.677Zm2.63-1.765-.646-2.214c-.186-.619-.37-1.393-.525-2.011h-.03c-.152.618-.307,1.408-.476,2.011l-.616,2.214Z"/>
    <path class="cls-7" d="M222.76639,198.53931a18.55723,18.55723,0,0,1,3.031-.216,5.69215,5.69215,0,0,1,3.061.588,2.27422,2.27422,0,0,1,1.244,2.043,2.35827,2.35827,0,0,1-1.705,2.23v.03a2.60667,2.60667,0,0,1,2.059,2.57,2.78741,2.78741,0,0,1-1.076,2.214c-.752.604-2.015.944-4.078.944a17.86261,17.86261,0,0,1-2.536-.156Zm2.321,3.994h.769c1.233,0,1.894-.511,1.894-1.284,0-.79-.601-1.208-1.661-1.208a6.258,6.258,0,0,0-1.002.062Zm0,4.628a7.15429,7.15429,0,0,0,.91.032c1.059,0,1.999-.418,1.999-1.501,0-1.055-.94-1.47-2.107-1.47h-.802Z"/>
    <path class="cls-7" d="M230.4312,228.55051a6.55968,6.55968,0,0,1-2.663.466c-3.584,0-5.428-2.26-5.428-5.233a5.29925,5.29925,0,0,1,5.658-5.541,6.10474,6.10474,0,0,1,2.555.464l-.478,1.874a5.02933,5.02933,0,0,0-1.969-.388,3.43048,3.43048,0,0,0,.016,6.857,5.84181,5.84181,0,0,0,1.953-.34Z"/>
    <path class="cls-7" d="M222.1012,238.56262a21.01456,21.01456,0,0,1,3.17-.216,6.63215,6.63215,0,0,1,4.245,1.115,4.62328,4.62328,0,0,1,1.753,3.93,5.294,5.294,0,0,1-1.723,4.226,7.39923,7.39923,0,0,1-4.781,1.348,20.09339,20.09339,0,0,1-2.664-.156Zm2.355,8.514a4.15356,4.15356,0,0,0,.815.048c2.124.014,3.507-1.163,3.507-3.655a2.98216,2.98216,0,0,0-3.26-3.312,4.73359,4.73359,0,0,0-1.062.094Z"/>
    <polygon class="cls-7" points="228.219 264.37 224.404 264.37 224.404 266.847 228.663 266.847 228.663 268.781 222.051 268.781 222.051 258.348 228.449 258.348 228.449 260.285 224.404 260.285 224.404 262.451 228.219 262.451 228.219 264.37"/>
    <polygon class="cls-7" points="222.481 278.36 228.818 278.36 228.818 280.297 224.832 280.297 224.832 282.679 228.555 282.679 228.555 284.6 224.832 284.6 224.832 288.793 222.481 288.793 222.481 278.36"/>
    <path class="cls-7" d="M231.5033,308.23819a11.55253,11.55253,0,0,1-3.462.588,5.756,5.756,0,0,1-4.216-1.41,5.06924,5.06924,0,0,1-1.46-3.792c.015-3.467,2.522-5.448,5.921-5.448a7.08962,7.08962,0,0,1,2.877.511l-.492,1.888a5.72686,5.72686,0,0,0-2.415-.448,3.39951,3.39951,0,0,0-.17,6.796,3.10573,3.10573,0,0,0,1.155-.156v-2.183h-1.601v-1.842h3.863Z"/>
  </g>
  <g class="cls-22">
    <text class="cls-23" transform="translate(219.00195 129.61945)"><tspan xml:space="preserve"> A</tspan></text>
    <text class="cls-24" transform="translate(232.58301 126.34406)">+++</text>
    <text class="cls-23" transform="translate(219.00195 149.88995)"><tspan xml:space="preserve"> A</tspan></text>
    <text class="cls-24" transform="translate(232.58301 146.61359)">++</text>
    <text class="cls-23" transform="translate(219.00195 169.56769)"><tspan xml:space="preserve"> A</tspan></text>
    <text class="cls-24" transform="translate(232.58301 166.29181)">+</text>
  </g>
  <g class="cls-2">
    <rect class="cls-25" x="43.985" y="340.58398" width="28.915" height="28.91501"/>
    <line class="cls-25" x1="58.4424" y1="340.64709" x2="58.4424" y2="368.9501"/>
    <line class="cls-25" x1="45.0649" y1="355.04109" x2="72.12489" y2="355.04109"/>
    <line class="cls-25" x1="84.3305" y1="395.3678" x2="95.49249" y2="395.3678"/>
    <line class="cls-25" x1="89.9114" y1="394.4303" x2="89.9114" y2="366.2603"/>
    <polygon class="cls-5" points="82.736 366.304 97.086 366.304 92.569 351.422 86.988 351.422 82.736 366.304"/>
    <rect class="cls-25" x="115.082" y="373.78799" width="37.40201" height="21.58"/>
    <rect class="cls-25" x="35.405" y="331.513" width="126.312" height="70.008"/>
  </g>
  <g class="cls-2">
    <path class="cls-26" d="M126.6116,353.20639s-5.244,3.543-.85,7.795c4.393,4.252-1.134,8.362-1.134,8.362"/>
    <path class="cls-26" d="M131.8206,353.20639s-5.244,3.543-.85,7.795c4.393,4.252-1.134,8.362-1.134,8.362"/>
    <path class="cls-26" d="M137.0295,353.20639s-5.244,3.543-.85,7.795c4.393,4.252-1.134,8.362-1.134,8.362"/>
    <path class="cls-26" d="M142.23849,353.20639s-5.244,3.543-.85,7.795c4.393,4.252-1.134,8.362-1.134,8.362"/>
    <path class="cls-27" d="M133.7823,390.75319a6.175,6.175,0,1,0-6.175-6.175,6.17545,6.17545,0,0,0,6.175,6.175"/>
    <path class="cls-28" d="M131.45,381.54849s-1.967,1.329-.319,2.923c1.648,1.595-.425,3.136-.425,3.136"/>
    <path class="cls-28" d="M134.112,381.54849s-1.967,1.329-.319,2.923c1.648,1.595-.425,3.136-.425,3.136"/>
    <path class="cls-28" d="M136.77409,381.54849s-1.967,1.329-.319,2.923c1.648,1.595-.425,3.136-.425,3.136"/>
  </g>
  <rect class="cls-1" y="0.00098" width="297.638" height="566.92902"/>
  <g id="rating">
    <polyline id="ratingArrow" class="cls-27" points="208.26 143.69 224.9 126.88 270.94 126.88 270.94 160.78 225.21 160.78 208.26 143.69"/>
    <text id="ratingLetter" class="cls-29" transform="translate(221.01953 150.92999)">A</text>
    <text id="ratingPlusses" class="cls-30" transform="translate(236.98047 142.84015)">++</text>
  </g>
  <text id="directHeatKw" class="cls-31" transform="translate(217.08984 365.84015)" text-anchor="middle">X</text>
  <g id="indirectHeatSection">
    <path class="cls-13" d="M35.4176,416.35519s-7.904,0-7.904,7.904v69.058s0,7.904,7.904,7.904h226.46s7.904,0,7.904-7.904v-69.058s0-7.904-7.904-7.904Z"/>
    <text class="cls-15" transform="translate(204.74414 483.22296)">k</text>
    <text class="cls-15" transform="translate(213.13184 483.22296)">W</text>
    <rect class="cls-25" x="115.082" y="458.26399" width="37.40201" height="21.58"/>
    <rect class="cls-25" x="35.405" y="423.784" width="126.312" height="70.008"/>
    <path class="cls-26" d="M86.6294,445.72169s-5.244,3.543-.85,7.795c4.393,4.252-1.134,8.362-1.134,8.362"/>
    <path class="cls-26" d="M91.8384,445.72169s-5.244,3.543-.85,7.795c4.393,4.252-1.134,8.362-1.134,8.362"/>
    <path class="cls-26" d="M97.0473,445.72169s-5.244,3.543-.85,7.795c4.393,4.252-1.134,8.362-1.134,8.362"/>
    <path class="cls-26" d="M102.2563,445.72169s-5.244,3.543-.85,7.795c4.393,4.252-1.134,8.362-1.134,8.362"/>
    <path class="cls-27" d="M133.7823,475.22959a6.175,6.175,0,1,0-6.175-6.175,6.17545,6.17545,0,0,0,6.175,6.175"/>
    <path class="cls-28" d="M131.45,466.02489s-1.967,1.329-.319,2.923c1.648,1.595-.425,3.136-.425,3.136"/>
    <path class="cls-28" d="M134.112,466.02489s-1.967,1.329-.319,2.923c1.648,1.595-.425,3.136-.425,3.136"/>
    <path class="cls-28" d="M136.77409,466.02489s-1.967,1.329-.319,2.923c1.648,1.595-.425,3.136-.425,3.136"/>
    <polygon class="cls-26" points="107.208 466.754 80.748 466.726 80.748 462.171 71.575 469.111 80.774 476.052 80.774 471.722 107.217 471.751 107.208 466.754"/>
    <rect class="cls-7" x="41.87" y="438.29999" width="25.258" height="43.59801"/>
    <g class="cls-32">
      <path class="cls-7" d="M56.2902,455.8848l-.597.743.895.441.779.183-.41-1.42s-.163.022-.667.053"/>
      <path d="M44.8957,481.24689a2.37672,2.37672,0,0,1-2.375-2.373v-35.415c0-.509.42-.976,1.405-1.563a19.32766,19.32766,0,0,1,2.851-1.33,23.55741,23.55741,0,0,1,7.645-1.615,24.16179,24.16179,0,0,1,7.733,1.614c2.869,1.078,4.323,2.051,4.323,2.894v35.415a2.3765,2.3765,0,0,1-2.374,2.373Zm.532-3.388a.40255.40255,0,0,0,.403.39h17.337a.40278.40278,0,0,0,.404-.39v-33.243a19.11857,19.11857,0,0,0-9.15-2.57,18.47824,18.47824,0,0,0-8.994,2.563Z"/>
      <path class="cls-7" d="M54.4213,439.60239c4.806,0,11.405,2.906,11.405,3.856v35.415a1.725,1.725,0,0,1-1.723,1.723H44.8953a1.7259,1.7259,0,0,1-1.724-1.723v-35.415c0-.95,6.483-3.856,11.25-3.856m-8.59,39.297h17.336a1.05,1.05,0,0,0,1.054-1.04v-33.442c0-.572-5.164-3.022-9.8-3.022-4.665,0-9.644,2.45-9.644,3.022v33.442a1.05,1.05,0,0,0,1.054,1.04m8.59-40.599a24.20915,24.20915,0,0,0-7.876,1.658,19.55108,19.55108,0,0,0-2.952,1.379c-.852.507-1.723,1.156-1.723,2.121v35.415a3.02841,3.02841,0,0,0,3.025,3.025h19.208a3.02841,3.02841,0,0,0,3.025-3.025v-35.415c0-.971-.885-1.619-1.751-2.126a19.97911,19.97911,0,0,0-2.993-1.376,24.82321,24.82321,0,0,0-7.963-1.656m-8.343,6.651a14.19743,14.19743,0,0,1,2.769-1.234,17.84692,17.84692,0,0,1,5.574-1.021,18.42753,18.42753,0,0,1,5.644,1.026,15.47014,15.47014,0,0,1,2.855,1.239v32.636H46.0783Z"/>
      <path class="cls-7" d="M54.4216,441.39539c-4.665,0-9.645,2.45-9.645,3.022v33.442a1.05018,1.05018,0,0,0,1.055,1.04h17.336a1.05,1.05,0,0,0,1.054-1.04v-33.442c0-.572-5.165-3.022-9.8-3.022"/>
      <path d="M46.4844,454.48409a2.485,2.485,0,0,0,2.031,1.352,2.6922,2.6922,0,0,0,2.017-1.331,2.48253,2.48253,0,0,0,2.018,1.331,2.69374,2.69374,0,0,0,2.018-1.331,2.47864,2.47864,0,0,0,2.019,1.331,2.697,2.697,0,0,0,2.018-1.331,2.47717,2.47717,0,0,0,2.018,1.331,2.69224,2.69224,0,0,0,2.013-1.324v-1.41a2.68668,2.68668,0,0,1-2.013,1.324,2.47713,2.47713,0,0,1-2.018-1.331,2.69142,2.69142,0,0,1-2.018,1.331,2.4786,2.4786,0,0,1-2.019-1.331,2.68821,2.68821,0,0,1-2.018,1.331,2.48249,2.48249,0,0,1-2.018-1.331,2.68668,2.68668,0,0,1-2.017,1.331,2.48716,2.48716,0,0,1-2.031-1.352c.002-.011.006-.019.008-.03h-.018v1.411h.018c-.002.01-.006.019-.008.029"/>
      <path d="M46.4844,457.67859a2.485,2.485,0,0,0,2.031,1.352,2.69218,2.69218,0,0,0,2.017-1.331,2.48477,2.48477,0,0,0,2.018,1.331,2.69371,2.69371,0,0,0,2.018-1.331,2.48087,2.48087,0,0,0,2.019,1.331,2.69694,2.69694,0,0,0,2.018-1.331,2.47939,2.47939,0,0,0,2.018,1.331,2.691,2.691,0,0,0,2.013-1.325v-1.41a2.68825,2.68825,0,0,1-2.013,1.325,2.4816,2.4816,0,0,1-2.018-1.331,2.697,2.697,0,0,1-2.018,1.331,2.48307,2.48307,0,0,1-2.019-1.331,2.69374,2.69374,0,0,1-2.018,1.331,2.487,2.487,0,0,1-2.018-1.331,2.6922,2.6922,0,0,1-2.017,1.331,2.48842,2.48842,0,0,1-2.031-1.353c.002-.01.006-.019.008-.029h-.018v1.41h.018c-.002.01-.006.019-.008.03"/>
      <path d="M60.6235,460.81409a2.47808,2.47808,0,0,1-2.018-1.33,2.68986,2.68986,0,0,1-2.018,1.33,2.47956,2.47956,0,0,1-2.019-1.33,2.68664,2.68664,0,0,1-2.018,1.33,2.48493,2.48493,0,0,1-2.019-1.33,2.682,2.682,0,0,1-2.016,1.33,2.48145,2.48145,0,0,1-2.031-1.352c.002-.011.005-.018.008-.03h-.018v1.41h.018c-.003.011-.006.02-.008.031a2.48366,2.48366,0,0,0,2.031,1.352,2.69181,2.69181,0,0,0,2.016-1.331,2.484,2.484,0,0,0,2.019,1.331,2.6965,2.6965,0,0,0,2.018-1.331,2.47864,2.47864,0,0,0,2.019,1.331,2.69974,2.69974,0,0,0,2.018-1.331,2.47717,2.47717,0,0,0,2.018,1.331,2.6942,2.6942,0,0,0,2.013-1.326v-1.41a2.6843,2.6843,0,0,1-2.013,1.325"/>
    </g>
    <text id="indirectHeatKw" class="cls-31" transform="translate(217.08984 460.2298)" text-anchor="middle">X</text>
  </g>
  <text id="supplierLine2" class="cls-33" transform="translate(26.75974 106.30012)">X</text>
  <text id="supplierLine1" class="cls-33" transform="translate(26.75974 95.04524)">X</text>
  <text id="modelLine2" class="cls-33" transform="translate(153.07029 106.30012)">X</text>
  <text id="modelLine1" class="cls-33" transform="translate(153.07029 95.04524)">X</text>
  <text class="cls-34" transform="translate(32.00372 516.61768)">ENE<tspan class="cls-35" x="12.97656" y="0">R</tspan><tspan x="17.24609" y="0">GIA · ЕНЕРГИЯ · ΕΝΕΡΓΕΙΑ · ENE</tspan><tspan class="cls-35" x="119.75" y="0">R</tspan><tspan x="124.01953" y="0">GI</tspan><tspan class="cls-36" x="131.08203" y="0">J</tspan><tspan x="133.49609" y="0">A · ENE</tspan><tspan class="cls-35" x="156.73828" y="0">R</tspan><tspan class="cls-37" x="161.00781" y="0">G</tspan><tspan x="165.9375" y="0">Y · ENE</tspan><tspan class="cls-35" x="188.44922" y="0">R</tspan><tspan x="192.71875" y="0">GIE · ENE</tspan><tspan class="cls-35" x="222.30078" y="0">R</tspan><tspan x="226.57031" y="0">GI</tspan></text>
</svg>
