<svg xmlns="http://www.w3.org/2000/svg" xmlns:xlink="http://www.w3.org/1999/xlink" id="Layer_1" data-name="Layer 1" width="105mm" height="200mm" viewBox="0 0 297.64001 566.92999" data-rating-increment="20" data-supplier-model-chars-per-row="25">
  <defs>
    <style>
      #indirectHeatSection {
        display: none;
      }

      #indirectHeatSection.hasIndirectHeatSection {
        display: inline;
      }
      .cls-1, .cls-13, .cls-25, .cls-26, .cls-28, .cls-3, .cls-9 {
        fill: none;
      }

      .cls-2 {
        clip-path: url(#clip-path);
      }

      .cls-13, .cls-25, .cls-26, .cls-3, .cls-9 {
        stroke: #00aeef;
      }

      .cls-3 {
        stroke-width: 4px;
      }

      .cls-4 {
        fill: #034ea2;
      }

      .cls-5 {
        fill: #00aeef;
      }

      .cls-6 {
        fill: #fff200;
      }

      .cls-10, .cls-11, .cls-12, .cls-23, .cls-24, .cls-29, .cls-30, .cls-7 {
        fill: #fff;
      }

      .cls-8 {
        clip-path: url(#clip-path-2);
      }

      .cls-10, .cls-15 {
        font-size: 18px;
      }

      .cls-10, .cls-11, .cls-12, .cls-14, .cls-29, .cls-31 {
        font-family: Calibri-Bold, Calibri;
      }

      .cls-10, .cls-11, .cls-12, .cls-14, .cls-23, .cls-24, .cls-29, .cls-31 {
        font-weight: 700;
      }

      .cls-11 {
        font-size: 10.494px;
      }

      .cls-12 {
        font-size: 25.83px;
      }

      .cls-13, .cls-25 {
        stroke-width: 2px;
      }

      .cls-14 {
        font-size: 10px;
      }

      .cls-14, .cls-15, .cls-27, .cls-31, .cls-33, .cls-34 {
        fill: #231f20;
      }

      .cls-15 {
        font-family: Calibri;
      }

      .cls-16 {
        fill: #bfd730;
      }

      .cls-17 {
        fill: #50b848;
      }

      .cls-18 {
        fill: #00a651;
      }

      .cls-19 {
        fill: #fdb913;
      }

      .cls-20 {
        fill: #f37021;
      }

      .cls-21 {
        fill: #ed1c24;
      }

      .cls-22 {
        clip-path: url(#clip-path-5);
      }

      .cls-23 {
        font-size: 15.39px;
      }

      .cls-24 {
        font-size: 10.26px;
      }

      .cls-25, .cls-26, .cls-28 {
        stroke-linecap: round;
        stroke-linejoin: round;
      }

      .cls-26 {
        stroke-width: 1.5px;
      }

      .cls-28 {
        stroke: #fff;
        stroke-width: 0.75px;
      }

      .cls-29 {
        font-size: 24px;
      }

      .cls-30 {
        font-size: 15px;
      }

      .cls-30, .cls-33, .cls-34 {
        font-family: Calibri;
      }

      .cls-31 {
        font-size: 34px;
      }

      .cls-32 {
        clip-path: url(#clip-path-10);
      }

      .cls-33 {
        font-size: 11px;
      }

      .cls-34 {
        font-size: 8px;
      }

      .cls-35 {
        letter-spacing: -0.00928em;
      }

      .cls-36 {
        letter-spacing: -0.01709em;
      }

      .cls-37 {
        letter-spacing: -0.01465em;
      }
    </style>
    <clipPath id="clip-path">
      <rect class="cls-1" y="0.00098" width="297.638" height="566.92902"/>
    </clipPath>
    <clipPath id="clip-path-2">
      <rect class="cls-1" x="26.964" y="26.36298" width="243.77999" height="48.18903"/>
    </clipPath>
    <clipPath id="clip-path-5">
      <rect class="cls-1" x="31.004" y="133.27698" width="154.50599" height="178.52202"/>
    </clipPath>
    <clipPath id="clip-path-10">
      <rect class="cls-1" x="41.87" y="438.29999" width="25.258" height="43.59801"/>
    </clipPath>
  </defs>
  <title>local-space-heaters</title>
  <g class="cls-2">
    <path class="cls-3" d="M24.0691,16.16577s-7.904,0-7.904,7.90405v518.791s0,7.904,7.904,7.904h249.5s7.904,0,7.904-7.904V24.06982s0-7.90405-7.904-7.90405Z"/>
    
    <rect class="cls-5" x="100.456" y="26.492" width="170.28799" height="48.06"/>
    
    
    
    
    
    
    
    
    
    
    
    

  <g id="union-flag" transform="translate(26.983, 26.492) scale(1.6019663333333334)">
	<path id="blue" fill="#004289" d="M9.59,20L0,26.39V20H9.59z M39.59,0H27.5v8.06L39.59,0z M0,3.61V10h9.59L0,3.61z M17.5,0H5.41
		L17.5,8.06V0z M27.5,30h12.09L27.5,21.94V30z M45,10V3.61L35.41,10H45z M45,26.39V20h-9.59L45,26.39z M5.41,30H17.5v-8.06L5.41,30z
		"/>
	<path id="red" fill="#DC2F34" d="M45,18H25.5v12h-6V18H0v-6h19.5V0h6v12H45V18z M0,2.42L11.38,10h3.61L0,0.01V2.42z M45,27.58
		L33.62,20h-3.61L45,29.99V27.58z M17.5,20.74V20H15L0,30h3.61L17.5,20.74z M27.5,9.26V10H30L45,0h-3.61L27.5,9.26z"/>
</g><path id="energy-heading" d="M7.1581,7.21791H2.33537v3.7413H7.72769v1.90845H0V.13234H7.44305V2.04079H2.33537V5.32836H7.1581Zm3.53413,5.64975V.13234h2.677L16.67314,5.593a37.85159,37.85159,0,0,1,2.18339,4.27032h.038a51.82706,51.82706,0,0,1-.20865-5.29055V.13234h2.1644V12.86766H18.41992L15.07833,7.25572a43.774,43.774,0,0,1-2.2787-4.38342l-.076.0189c.095,1.64379.133,3.32538.133,5.42289v4.55357ZM31.63845,7.21791H26.81573v3.7413h5.392v1.90845H24.48V.13234h7.44305V2.04079H26.81573V5.32836h4.82272ZM35.19126.32139A20.16965,20.16965,0,0,1,38.72282.03781a5.98372,5.98372,0,0,1,3.94949,1.02056,3.228,3.228,0,0,1,1.1012,2.56949,3.347,3.347,0,0,1-2.3357,3.17446V6.859a3.16007,3.16007,0,0,1,1.7851,2.45638,32.106,32.106,0,0,0,1.00653,3.55224H41.83707a16.17761,16.17761,0,0,1-.85455-3.00431c-.37994-1.66269-.96854-2.19171-2.2977-2.22952H37.50764v5.23383H35.19126ZM37.50764,5.933h1.38647c1.57581,0,2.5437-.83119,2.5437-2.09719,0-1.37943-.96789-2.04079-2.487-2.04079a6.74576,6.74576,0,0,0-1.44314.11343Zm19.67341,6.34892A12.70364,12.70364,0,0,1,53.08022,13a6.96331,6.96331,0,0,1-5.032-1.7005,6.3681,6.3681,0,0,1-1.78446-4.68623C46.28243,2.56982,49.1494,0,53.38353,0a8.52961,8.52961,0,0,1,3.3989.60464l-.5126,1.87065a6.6378,6.6378,0,0,0-2.905-.54793c-2.73432,0-4.65207,1.606-4.65207,4.5728,0,2.89088,1.78509,4.61029,4.44342,4.61029a4.91246,4.91246,0,0,0,1.76578-.24577v-3.193H52.66228V5.8388h4.51877Zm6.23045.58573V7.55821L59.36734.13234h2.677l1.51914,3.269c.43661.94462.75924,1.66269,1.11987,2.53169h.038c.304-.81228.66458-1.606,1.10184-2.53169L67.361.13234H70L65.74719,7.50149v5.36617Z" fill="#fff" transform="translate(114.43206679978822, 39.853488051527314) scale(1.6019663333333334)"/></g>

  <g class="cls-2">
    <line class="cls-9" x1="26.5135" y1="112.0929" x2="271.18149" y2="112.0929"/>
  </g>
  <text class="cls-10" transform="translate(36.11328 150.42706)"><tspan xml:space="preserve"> A</tspan></text>
  <text class="cls-11" transform="translate(51.08984 144.43292)">+</text>
  <text class="cls-10" transform="translate(36.11328 174.74933)"> </text>
  <text class="cls-10" transform="translate(40.18115 172.62531)">A</text>
  <text class="cls-10" transform="translate(36.11328 194.81915)"><tspan xml:space="preserve"> B</tspan></text>
  <text class="cls-10" transform="translate(36.11328 217.01349)"><tspan xml:space="preserve"> C</tspan></text>
  <text class="cls-10" transform="translate(36.11328 239.20734)"><tspan xml:space="preserve"> D</tspan></text>
  <text class="cls-10" transform="translate(36.11328 261.40118)"><tspan xml:space="preserve"> E</tspan></text>
  <text class="cls-10" transform="translate(36.11328 283.59552)"><tspan xml:space="preserve"> F</tspan></text>
  <text class="cls-10" transform="translate(36.11328 305.78937)"><tspan xml:space="preserve"> G</tspan></text>
  <text class="cls-12" transform="translate(215.86035 151.10089)"> </text>
  <g class="cls-2">
    <path class="cls-13" d="M35.4177,324.22929s-7.904,0-7.904,7.904v69.058s0,7.904,7.904,7.904h226.778s7.905,0,7.905-7.904v-69.058s0-7.904-7.905-7.904Z"/>
  </g>
  <text class="cls-14" transform="translate(26.89258 541.54816)">2015/1186</text>
  <text class="cls-15" transform="translate(205.03711 390.36066)">k</text>
  <text class="cls-15" transform="translate(213.4248 390.36066)">W</text>
  <rect class="cls-1" y="0.00098" width="297.638" height="566.92902"/>
  <rect class="cls-7" x="31.004" y="133.27698" width="154.50599" height="178.52202"/>
  <polygon class="cls-16" points="31.004 175.254 31.004 192.091 115.885 192.091 124.223 183.673 115.885 175.254 31.004 175.254"/>
  <polygon class="cls-17" points="31.004 155.259 31.004 172.095 106.174 172.095 114.511 163.678 106.174 155.259 31.004 155.259"/>
  <polygon class="cls-18" points="31.004 135.266 31.004 152.101 96.466 152.101 104.803 143.684 96.466 135.266 31.004 135.266"/>
  <polygon class="cls-6" points="31.004 195.243 31.004 212.078 125.819 212.078 134.168 203.661 125.819 195.243 31.004 195.243"/>
  <polygon class="cls-19" points="31.004 215.23 31.004 232.067 135.523 232.067 143.874 223.649 135.523 215.23 31.004 215.23"/>
  <polygon class="cls-20" points="31.004 235.219 31.004 252.054 145.227 252.054 153.581 243.635 145.227 235.219 31.004 235.219"/>
  <polygon class="cls-21" points="31.004 255.205 31.004 272.04 154.93 272.04 163.287 263.624 154.93 255.205 31.004 255.205"/>
  <polygon class="cls-21" points="31.004 275.191 31.004 292.028 164.634 292.028 172.995 283.61 164.634 275.191 31.004 275.191"/>
  <polygon class="cls-21" points="31.004 295.178 31.004 311.799 174.068 311.799 182.748 303.597 173.841 295.178 31.004 295.178"/>
  <rect class="cls-1" y="0.00098" width="297.638" height="566.92902"/>
  <g class="cls-22">
    <path class="cls-7" d="M44.4454,186.14432l-.74,2.677h-2.429l3.169-10.432h3.075l3.215,10.432h-2.523l-.799-2.677Zm2.63-1.765-.646-2.214c-.186-.619-.37-1.393-.525-2.011h-.029c-.154.618-.308,1.408-.478,2.011l-.615,2.214Z"/>
    <path class="cls-7" d="M41.3544,198.53931a18.55714,18.55714,0,0,1,3.031-.216,5.69209,5.69209,0,0,1,3.061.588,2.2742,2.2742,0,0,1,1.244,2.043,2.35779,2.35779,0,0,1-1.707,2.23v.03a2.6064,2.6064,0,0,1,2.061,2.57,2.79035,2.79035,0,0,1-1.076,2.214c-.754.604-2.015.944-4.078.944a17.86255,17.86255,0,0,1-2.536-.156Zm2.321,3.994h.77c1.231,0,1.892-.511,1.892-1.284,0-.79-.6-1.208-1.661-1.208a6.25253,6.25253,0,0,0-1.001.062Zm0,4.628a7.14552,7.14552,0,0,0,.909.032c1.06,0,2-.418,2-1.501,0-1.055-.94-1.47-2.108-1.47h-.801Z"/>
    <path class="cls-7" d="M49.0175,228.55051a6.55764,6.55764,0,0,1-2.662.466c-3.584,0-5.429-2.26-5.429-5.233a5.3,5.3,0,0,1,5.659-5.541,6.09725,6.09725,0,0,1,2.555.464l-.477,1.874a5.02928,5.02928,0,0,0-1.969-.388,3.4305,3.4305,0,0,0,.015,6.857,5.84327,5.84327,0,0,0,1.954-.34Z"/>
    <path class="cls-7" d="M40.6894,238.56262a20.9953,20.9953,0,0,1,3.17-.216,6.63088,6.63088,0,0,1,4.244,1.115,4.62328,4.62328,0,0,1,1.753,3.93,5.29679,5.29679,0,0,1-1.722,4.226,7.40338,7.40338,0,0,1-4.783,1.348,20.05778,20.05778,0,0,1-2.662-.156Zm2.354,8.514a4.15416,4.15416,0,0,0,.816.048c2.123.014,3.507-1.163,3.507-3.655a2.98333,2.98333,0,0,0-3.261-3.312,4.73383,4.73383,0,0,0-1.062.094Z"/>
    <polygon class="cls-7" points="46.807 264.37 42.993 264.37 42.993 266.847 47.252 266.847 47.252 268.781 40.64 268.781 40.64 258.348 47.038 258.348 47.038 260.285 42.993 260.285 42.993 262.451 46.807 262.451 46.807 264.37"/>
    <polygon class="cls-7" points="41.069 278.36 47.406 278.36 47.406 280.297 43.42 280.297 43.42 282.679 47.143 282.679 47.143 284.6 43.42 284.6 43.42 288.793 41.069 288.793 41.069 278.36"/>
    <path class="cls-7" d="M50.0896,308.23819a11.52542,11.52542,0,0,1-3.46.588,5.75858,5.75858,0,0,1-4.217-1.41,5.06925,5.06925,0,0,1-1.46-3.792c.016-3.467,2.523-5.448,5.922-5.448a7.08782,7.08782,0,0,1,2.876.511l-.491,1.888a5.73373,5.73373,0,0,0-2.415-.448,3.39949,3.39949,0,0,0-.17,6.796,3.08551,3.08551,0,0,0,1.153-.156v-2.183h-1.599v-1.842h3.861Z"/>
  </g>
  <g class="cls-22">
    <path class="cls-7" d="M44.12891,147.22638,43.39014,149.89H40.95752L44.12891,139.513H47.2085L50.42627,149.89h-2.5249l-.80078-2.66357Zm2.63281-1.75488-.64649-2.20166c-.18457-.61621-.36962-1.38575-.52343-2.002H45.561c-.15381.61621-.30811,1.40137-.47754,2.002l-.61573,2.20166Z"/>
    <g>
      <path class="cls-7" d="M54.728,140.11066V142.346h2.14306v.96387H54.728v2.25585H53.72314v-2.25585H51.58008V142.346h2.14306v-2.23535Z"/>
      <path class="cls-7" d="M60.84277,140.11066V142.346h2.14307v.96387H60.84277v2.25585H59.83789v-2.25585H57.69482V142.346h2.14307v-2.23535Z"/>
    </g>
    <path class="cls-7" d="M44.12891,166.90411l-.73877,2.66358H40.95752l3.17139-10.377H47.2085l3.21777,10.377h-2.5249l-.80078-2.66358Zm2.63281-1.75488-.64649-2.20166c-.18457-.61621-.36962-1.38574-.52343-2.002H45.561c-.15381.61621-.30811,1.40136-.47754,2.002l-.61573,2.20166Z"/>
    <path class="cls-7" d="M54.728,159.78839v2.23535h2.14306v.96387H54.728v2.25586H53.72314v-2.25586H51.58008v-.96387h2.14306v-2.23535Z"/>
    <path class="cls-7" d="M225.8573,186.14432l-.74,2.677h-2.429l3.169-10.432h3.075l3.217,10.432h-2.525l-.799-2.677Zm2.63-1.765-.646-2.214c-.186-.619-.37-1.393-.525-2.011h-.03c-.152.618-.307,1.408-.476,2.011l-.616,2.214Z"/>
    <path class="cls-7" d="M222.76639,198.53931a18.55723,18.55723,0,0,1,3.031-.216,5.69215,5.69215,0,0,1,3.061.588,2.27422,2.27422,0,0,1,1.244,2.043,2.35827,2.35827,0,0,1-1.705,2.23v.03a2.60667,2.60667,0,0,1,2.059,2.57,2.78741,2.78741,0,0,1-1.076,2.214c-.752.604-2.015.944-4.078.944a17.86261,17.86261,0,0,1-2.536-.156Zm2.321,3.994h.769c1.233,0,1.894-.511,1.894-1.284,0-.79-.601-1.208-1.661-1.208a6.258,6.258,0,0,0-1.002.062Zm0,4.628a7.15429,7.15429,0,0,0,.91.032c1.059,0,1.999-.418,1.999-1.501,0-1.055-.94-1.47-2.107-1.47h-.802Z"/>
    <path class="cls-7" d="M230.4312,228.55051a6.55968,6.55968,0,0,1-2.663.466c-3.584,0-5.428-2.26-5.428-5.233a5.29925,5.29925,0,0,1,5.658-5.541,6.10474,6.10474,0,0,1,2.555.464l-.478,1.874a5.02933,5.02933,0,0,0-1.969-.388,3.43048,3.43048,0,0,0,.016,6.857,5.84181,5.84181,0,0,0,1.953-.34Z"/>
    <path class="cls-7" d="M222.1012,238.56262a21.01456,21.01456,0,0,1,3.17-.216,6.63215,6.63215,0,0,1,4.245,1.115,4.62328,4.62328,0,0,1,1.753,3.93,5.294,5.294,0,0,1-1.723,4.226,7.39923,7.39923,0,0,1-4.781,1.348,20.09339,20.09339,0,0,1-2.664-.156Zm2.355,8.514a4.15356,4.15356,0,0,0,.815.048c2.124.014,3.507-1.163,3.507-3.655a2.98216,2.98216,0,0,0-3.26-3.312,4.73359,4.73359,0,0,0-1.062.094Z"/>
    <polygon class="cls-7" points="228.219 264.37 224.404 264.37 224.404 266.847 228.663 266.847 228.663 268.781 222.051 268.781 222.051 258.348 228.449 258.348 228.449 260.285 224.404 260.285 224.404 262.451 228.219 262.451 228.219 264.37"/>
    <polygon class="cls-7" points="222.481 278.36 228.818 278.36 228.818 280.297 224.832 280.297 224.832 282.679 228.555 282.679 228.555 284.6 224.832 284.6 224.832 288.793 222.481 288.793 222.481 278.36"/>
    <path class="cls-7" d="M231.5033,308.23819a11.55253,11.55253,0,0,1-3.462.588,5.756,5.756,0,0,1-4.216-1.41,5.06924,5.06924,0,0,1-1.46-3.792c.015-3.467,2.522-5.448,5.921-5.448a7.08962,7.08962,0,0,1,2.877.511l-.492,1.888a5.72686,5.72686,0,0,0-2.415-.448,3.39951,3.39951,0,0,0-.17,6.796,3.10573,3.10573,0,0,0,1.155-.156v-2.183h-1.601v-1.842h3.863Z"/>
  </g>
  <g class="cls-22">
    <text class="cls-23" transform="translate(219.00195 129.61945)"><tspan xml:space="preserve"> A</tspan></text>
    <text class="cls-24" transform="translate(232.58301 126.34406)">+++</text>
    <text class="cls-23" transform="translate(219.00195 149.88995)"><tspan xml:space="preserve"> A</tspan></text>
    <text class="cls-24" transform="translate(232.58301 146.61359)">++</text>
    <text class="cls-23" transform="translate(219.00195 169.56769)"><tspan xml:space="preserve"> A</tspan></text>
    <text class="cls-24" transform="translate(232.58301 166.29181)">+</text>
  </g>
  <g class="cls-2">
    <rect class="cls-25" x="43.985" y="340.58398" width="28.915" height="28.91501"/>
    <line class="cls-25" x1="58.4424" y1="340.64709" x2="58.4424" y2="368.9501"/>
    <line class="cls-25" x1="45.0649" y1="355.04109" x2="72.12489" y2="355.04109"/>
    <line class="cls-25" x1="84.3305" y1="395.3678" x2="95.49249" y2="395.3678"/>
    <line class="cls-25" x1="89.9114" y1="394.4303" x2="89.9114" y2="366.2603"/>
    <polygon class="cls-5" points="82.736 366.304 97.086 366.304 92.569 351.422 86.988 351.422 82.736 366.304"/>
    <rect class="cls-25" x="115.082" y="373.78799" width="37.40201" height="21.58"/>
    <rect class="cls-25" x="35.405" y="331.513" width="126.312" height="70.008"/>
  </g>
  <g class="cls-2">
    <path class="cls-26" d="M126.6116,353.20639s-5.244,3.543-.85,7.795c4.393,4.252-1.134,8.362-1.134,8.362"/>
    <path class="cls-26" d="M131.8206,353.20639s-5.244,3.543-.85,7.795c4.393,4.252-1.134,8.362-1.134,8.362"/>
    <path class="cls-26" d="M137.0295,353.20639s-5.244,3.543-.85,7.795c4.393,4.252-1.134,8.362-1.134,8.362"/>
    <path class="cls-26" d="M142.23849,353.20639s-5.244,3.543-.85,7.795c4.393,4.252-1.134,8.362-1.134,8.362"/>
    <path class="cls-27" d="M133.7823,390.75319a6.175,6.175,0,1,0-6.175-6.175,6.17545,6.17545,0,0,0,6.175,6.175"/>
    <path class="cls-28" d="M131.45,381.54849s-1.967,1.329-.319,2.923c1.648,1.595-.425,3.136-.425,3.136"/>
    <path class="cls-28" d="M134.112,381.54849s-1.967,1.329-.319,2.923c1.648,1.595-.425,3.136-.425,3.136"/>
    <path class="cls-28" d="M136.77409,381.54849s-1.967,1.329-.319,2.923c1.648,1.595-.425,3.136-.425,3.136"/>
  </g>
  <rect class="cls-1" y="0.00098" width="297.638" height="566.92902"/>
  <g id="rating">
    <polyline id="ratingArrow" class="cls-27" points="208.26 143.69 224.9 126.88 270.94 126.88 270.94 160.78 225.21 160.78 208.26 143.69"/>
    <text id="ratingLetter" class="cls-29" transform="translate(221.01953 150.92999)">A</text>
    <text id="ratingPlusses" class="cls-30" transform="translate(236.98047 142.84015)">++</text>
  </g>
  <text id="directHeatKw" class="cls-31" transform="translate(217.08984 365.84015)" text-anchor="middle">X</text>
  <g id="indirectHeatSection">
    <path class="cls-13" d="M35.4176,416.35519s-7.904,0-7.904,7.904v69.058s0,7.904,7.904,7.904h226.46s7.904,0,7.904-7.904v-69.058s0-7.904-7.904-7.904Z"/>
    <text class="cls-15" transform="translate(204.74414 483.22296)">k</text>
    <text class="cls-15" transform="translate(213.13184 483.22296)">W</text>
    <rect class="cls-25" x="115.082" y="458.26399" width="37.40201" height="21.58"/>
    <rect class="cls-25" x="35.405" y="423.784" width="126.312" height="70.008"/>
    <path class="cls-26" d="M86.6294,445.72169s-5.244,3.543-.85,7.795c4.393,4.252-1.134,8.362-1.134,8.362"/>
    <path class="cls-26" d="M91.8384,445.72169s-5.244,3.543-.85,7.795c4.393,4.252-1.134,8.362-1.134,8.362"/>
    <path class="cls-26" d="M97.0473,445.72169s-5.244,3.543-.85,7.795c4.393,4.252-1.134,8.362-1.134,8.362"/>
    <path class="cls-26" d="M102.2563,445.72169s-5.244,3.543-.85,7.795c4.393,4.252-1.134,8.362-1.134,8.362"/>
    <path class="cls-27" d="M133.7823,475.22959a6.175,6.175,0,1,0-6.175-6.175,6.17545,6.17545,0,0,0,6.175,6.175"/>
    <path class="cls-28" d="M131.45,466.02489s-1.967,1.329-.319,2.923c1.648,1.595-.425,3.136-.425,3.136"/>
    <path class="cls-28" d="M134.112,466.02489s-1.967,1.329-.319,2.923c1.648,1.595-.425,3.136-.425,3.136"/>
    <path class="cls-28" d="M136.77409,466.02489s-1.967,1.329-.319,2.923c1.648,1.595-.425,3.136-.425,3.136"/>
    <polygon class="cls-26" points="107.208 466.754 80.748 466.726 80.748 462.171 71.575 469.111 80.774 476.052 80.774 471.722 107.217 471.751 107.208 466.754"/>
    <rect class="cls-7" x="41.87" y="438.29999" width="25.258" height="43.59801"/>
    <g class="cls-32">
      <path class="cls-7" d="M56.2902,455.8848l-.597.743.895.441.779.183-.41-1.42s-.163.022-.667.053"/>
      <path d="M44.8957,481.24689a2.37672,2.37672,0,0,1-2.375-2.373v-35.415c0-.509.42-.976,1.405-1.563a19.32766,19.32766,0,0,1,2.851-1.33,23.55741,23.55741,0,0,1,7.645-1.615,24.16179,24.16179,0,0,1,7.733,1.614c2.869,1.078,4.323,2.051,4.323,2.894v35.415a2.3765,2.3765,0,0,1-2.374,2.373Zm.532-3.388a.40255.40255,0,0,0,.403.39h17.337a.40278.40278,0,0,0,.404-.39v-33.243a19.11857,19.11857,0,0,0-9.15-2.57,18.47824,18.47824,0,0,0-8.994,2.563Z"/>
      <path class="cls-7" d="M54.4213,439.60239c4.806,0,11.405,2.906,11.405,3.856v35.415a1.725,1.725,0,0,1-1.723,1.723H44.8953a1.7259,1.7259,0,0,1-1.724-1.723v-35.415c0-.95,6.483-3.856,11.25-3.856m-8.59,39.297h17.336a1.05,1.05,0,0,0,1.054-1.04v-33.442c0-.572-5.164-3.022-9.8-3.022-4.665,0-9.644,2.45-9.644,3.022v33.442a1.05,1.05,0,0,0,1.054,1.04m8.59-40.599a24.20915,24.20915,0,0,0-7.876,1.658,19.55108,19.55108,0,0,0-2.952,1.379c-.852.507-1.723,1.156-1.723,2.121v35.415a3.02841,3.02841,0,0,0,3.025,3.025h19.208a3.02841,3.02841,0,0,0,3.025-3.025v-35.415c0-.971-.885-1.619-1.751-2.126a19.97911,19.97911,0,0,0-2.993-1.376,24.82321,24.82321,0,0,0-7.963-1.656m-8.343,6.651a14.19743,14.19743,0,0,1,2.769-1.234,17.84692,17.84692,0,0,1,5.574-1.021,18.42753,18.42753,0,0,1,5.644,1.026,15.47014,15.47014,0,0,1,2.855,1.239v32.636H46.0783Z"/>
      <path class="cls-7" d="M54.4216,441.39539c-4.665,0-9.645,2.45-9.645,3.022v33.442a1.05018,1.05018,0,0,0,1.055,1.04h17.336a1.05,1.05,0,0,0,1.054-1.04v-33.442c0-.572-5.165-3.022-9.8-3.022"/>
      <path d="M46.4844,454.48409a2.485,2.485,0,0,0,2.031,1.352,2.6922,2.6922,0,0,0,2.017-1.331,2.48253,2.48253,0,0,0,2.018,1.331,2.69374,2.69374,0,0,0,2.018-1.331,2.47864,2.47864,0,0,0,2.019,1.331,2.697,2.697,0,0,0,2.018-1.331,2.47717,2.47717,0,0,0,2.018,1.331,2.69224,2.69224,0,0,0,2.013-1.324v-1.41a2.68668,2.68668,0,0,1-2.013,1.324,2.47713,2.47713,0,0,1-2.018-1.331,2.69142,2.69142,0,0,1-2.018,1.331,2.4786,2.4786,0,0,1-2.019-1.331,2.68821,2.68821,0,0,1-2.018,1.331,2.48249,2.48249,0,0,1-2.018-1.331,2.68668,2.68668,0,0,1-2.017,1.331,2.48716,2.48716,0,0,1-2.031-1.352c.002-.011.006-.019.008-.03h-.018v1.411h.018c-.002.01-.006.019-.008.029"/>
      <path d="M46.4844,457.67859a2.485,2.485,0,0,0,2.031,1.352,2.69218,2.69218,0,0,0,2.017-1.331,2.48477,2.48477,0,0,0,2.018,1.331,2.69371,2.69371,0,0,0,2.018-1.331,2.48087,2.48087,0,0,0,2.019,1.331,2.69694,2.69694,0,0,0,2.018-1.331,2.47939,2.47939,0,0,0,2.018,1.331,2.691,2.691,0,0,0,2.013-1.325v-1.41a2.68825,2.68825,0,0,1-2.013,1.325,2.4816,2.4816,0,0,1-2.018-1.331,2.697,2.697,0,0,1-2.018,1.331,2.48307,2.48307,0,0,1-2.019-1.331,2.69374,2.69374,0,0,1-2.018,1.331,2.487,2.487,0,0,1-2.018-1.331,2.6922,2.6922,0,0,1-2.017,1.331,2.48842,2.48842,0,0,1-2.031-1.353c.002-.01.006-.019.008-.029h-.018v1.41h.018c-.002.01-.006.019-.008.03"/>
      <path d="M60.6235,460.81409a2.47808,2.47808,0,0,1-2.018-1.33,2.68986,2.68986,0,0,1-2.018,1.33,2.47956,2.47956,0,0,1-2.019-1.33,2.68664,2.68664,0,0,1-2.018,1.33,2.48493,2.48493,0,0,1-2.019-1.33,2.682,2.682,0,0,1-2.016,1.33,2.48145,2.48145,0,0,1-2.031-1.352c.002-.011.005-.018.008-.03h-.018v1.41h.018c-.003.011-.006.02-.008.031a2.48366,2.48366,0,0,0,2.031,1.352,2.69181,2.69181,0,0,0,2.016-1.331,2.484,2.484,0,0,0,2.019,1.331,2.6965,2.6965,0,0,0,2.018-1.331,2.47864,2.47864,0,0,0,2.019,1.331,2.69974,2.69974,0,0,0,2.018-1.331,2.47717,2.47717,0,0,0,2.018,1.331,2.6942,2.6942,0,0,0,2.013-1.326v-1.41a2.6843,2.6843,0,0,1-2.013,1.325"/>
    </g>
    <text id="indirectHeatKw" class="cls-31" transform="translate(217.08984 460.2298)" text-anchor="middle">X</text>
  </g>
  <text id="supplierLine2" class="cls-33" transform="translate(26.75974 106.30012)">X</text>
  <text id="supplierLine1" class="cls-33" transform="translate(26.75974 95.04524)">X</text>
  <text id="modelLine2" class="cls-33" transform="translate(153.07029 106.30012)">X</text>
  <text id="modelLine1" class="cls-33" transform="translate(153.07029 95.04524)">X</text>

</svg>