<svg xmlns="http://www.w3.org/2000/svg" xmlns:xlink="http://www.w3.org/1999/xlink" id="Layer_1" data-name="Layer 1" width="85mm" height="170mm" viewBox="0 0 240.94501 481.89001" data-rating-increment="18.4333" data-supplier-model-chars-per-row="20">
  <defs>
    <style>
      #forcedAirSection {
        visibility: hidden;
      }

      #forcedAirSection.hasForcedAirSection {
        visibility: visible;
      }

      .cls-1, .cls-20, .cls-21, .cls-22, .cls-23, .cls-24, .cls-25, .cls-27, .cls-3, .cls-32, .cls-33, .cls-34, .cls-41, .cls-9 {
        fill: none;
      }

      .cls-2 {
        clip-path: url(#clip-path);
      }

      .cls-20, .cls-21, .cls-22, .cls-23, .cls-24, .cls-25, .cls-27, .cls-3, .cls-32, .cls-33, .cls-34, .cls-41, .cls-9 {
        stroke: #00aeef;
      }

      .cls-3 {
        stroke-width: 4px;
      }

      .cls-4 {
        clip-path: url(#clip-path-2);
      }

      .cls-5 {
        fill: #034ea2;
      }

      .cls-6 {
        fill: #00aeef;
      }

      .cls-7 {
        fill: #fff200;
      }

      .cls-17, .cls-18, .cls-37, .cls-38, .cls-8 {
        fill: #fff;
      }

      .cls-9 {
        stroke-width: 1.5px;
      }

      .cls-10 {
        clip-path: url(#clip-path-4);
      }

      .cls-11 {
        fill: #bfd730;
      }

      .cls-12 {
        fill: #50b848;
      }

      .cls-13 {
        fill: #00a651;
      }

      .cls-14 {
        fill: #fdb913;
      }

      .cls-15 {
        fill: #f37021;
      }

      .cls-16 {
        fill: #ed1c24;
      }

      .cls-17 {
        font-size: 14.2081px;
      }

      .cls-17, .cls-18, .cls-28, .cls-30, .cls-37, .cls-39 {
        font-weight: 700;
      }

      .cls-18 {
        font-size: 9.4721px;
      }

      .cls-19 {
        clip-path: url(#clip-path-6);
      }

      .cls-20 {
        stroke-width: 1.458px;
      }

      .cls-21 {
        stroke-width: 1.414px;
      }

      .cls-22 {
        stroke-width: 1.436px;
      }

      .cls-23 {
        stroke-width: 1.437px;
      }

      .cls-24 {
        stroke-width: 1.459px;
      }

      .cls-25 {
        stroke-width: 0.741px;
      }

      .cls-26 {
        clip-path: url(#clip-path-10);
      }

      .cls-27, .cls-41 {
        stroke-linecap: round;
      }

      .cls-27 {
        stroke-linejoin: round;
        stroke-width: 1.481px;
      }

      .cls-28 {
        font-size: 14.33px;
      }

      .cls-28, .cls-29, .cls-30, .cls-35, .cls-36, .cls-39, .cls-42 {
        fill: #231f20;
      }

      .cls-28, .cls-30, .cls-37, .cls-39 {
        font-family: Calibri-Bold, Calibri;
      }

      .cls-29, .cls-30 {
        font-size: 10px;
      }

      .cls-29, .cls-36, .cls-38, .cls-42 {
        font-family: Calibri;
      }

      .cls-31 {
        clip-path: url(#clip-path-12);
      }

      .cls-32 {
        stroke-width: 1.478px;
      }

      .cls-33 {
        stroke-width: 1.434px;
      }

      .cls-34 {
        stroke-width: 1.457px;
      }

      .cls-36 {
        font-size: 6px;
      }

      .cls-37 {
        font-size: 24px;
      }

      .cls-38 {
        font-size: 18px;
      }

      .cls-39 {
        font-size: 19px;
      }

      .cls-40 {
        clip-path: url(#clip-path-18);
      }

      .cls-41 {
        stroke-width: 0.591px;
      }

      .cls-42 {
        font-size: 11px;
      }
    </style>
    <clipPath id="clip-path">
      <rect class="cls-1" width="240.94501" height="481.89001"/>
    </clipPath>
    <clipPath id="clip-path-2">
      <rect class="cls-1" x="21.566" y="19.71503" width="198.15199" height="39.427"/>
    </clipPath>
    <clipPath id="clip-path-4">
      <rect class="cls-1" x="19.875" y="179.06601" width="134.892" height="128.29201"/>
    </clipPath>
    <clipPath id="clip-path-6">
      <rect class="cls-1" x="20.403" y="105.95102" width="32.843" height="63.60699"/>
    </clipPath>
    <clipPath id="clip-path-10">
      <rect class="cls-1" x="28.519" y="342.82701" width="47.623" height="45.245"/>
    </clipPath>
    <clipPath id="clip-path-12">
      <rect class="cls-1" x="97.108" y="334.95001" width="32.491" height="32.491"/>
    </clipPath>
    <clipPath id="clip-path-18">
      <rect class="cls-1" x="97.108" y="380.21901" width="32.491" height="32.491"/>
    </clipPath>
  </defs>
  <title>electric-ovens</title>
  <g class="cls-2">
    <path class="cls-3" d="M21.388,12.88483s-8.504,0-8.504,8.504v439.114s0,8.503,8.504,8.503H219.557s8.504,0,8.504-8.503V21.38885s0-8.504-8.504-8.504Z"/>
  </g>
  <g class="cls-4">
    <rect class="cls-5" x="21.566" y="19.76904" width="58.966" height="39.37299"/>
    <rect class="cls-6" x="82.48199" y="19.76904" width="141.149" height="39.37299"/>
  </g>
  <g class="cls-2">
    <polygon class="cls-7" points="63.238 32.895 64.505 31.974 62.939 31.974 62.454 30.485 61.971 31.974 60.404 31.974 61.672 32.895 61.187 34.385 62.455 33.464 63.722 34.385 63.238 32.895"/>
    <polygon class="cls-7" points="58.305 28.17 59.572 27.249 58.006 27.249 57.522 25.759 57.038 27.249 55.471 27.249 56.739 28.17 56.254 29.66 57.522 28.739 58.789 29.66 58.305 28.17"/>
    <polygon class="cls-7" points="51.94 26.481 53.207 25.56 51.641 25.56 51.157 24.071 50.673 25.56 49.106 25.56 50.373 26.481 49.89 27.971 51.157 27.05 52.424 27.971 51.94 26.481"/>
    <polygon class="cls-7" points="45.238 28.17 46.505 27.249 44.939 27.249 44.455 25.759 43.971 27.249 42.404 27.249 43.671 28.17 43.187 29.66 44.455 28.739 45.722 29.66 45.238 28.17"/>
    <polygon class="cls-7" points="40.451 33.126 41.718 32.205 40.152 32.205 39.668 30.716 39.184 32.205 37.617 32.205 38.884 33.126 38.4 34.616 39.668 33.695 40.935 34.616 40.451 33.126"/>
    <polygon class="cls-7" points="38.922 39.638 40.189 38.717 38.623 38.717 38.139 37.227 37.655 38.717 36.088 38.717 37.355 39.638 36.871 41.128 38.139 40.207 39.406 41.128 38.922 39.638"/>
    <polygon class="cls-7" points="40.499 46.235 41.766 45.314 40.2 45.314 39.716 43.824 39.232 45.314 37.665 45.314 38.932 46.235 38.448 47.725 39.716 46.804 40.983 47.725 40.499 46.235"/>
    <polygon class="cls-7" points="45.238 50.924 46.505 50.003 44.939 50.003 44.455 48.513 43.971 50.003 42.404 50.003 43.671 50.924 43.187 52.414 44.455 51.493 45.722 52.414 45.238 50.924"/>
    <polygon class="cls-7" points="51.94 52.67 53.207 51.749 51.64 51.749 51.156 50.259 50.672 51.749 49.106 51.749 50.373 52.67 49.889 54.16 51.157 53.239 52.424 54.16 51.94 52.67"/>
    <polygon class="cls-7" points="58.461 50.9 59.728 49.979 58.161 49.979 57.677 48.489 57.194 49.979 55.627 49.979 56.894 50.9 56.411 52.39 57.678 51.469 58.945 52.39 58.461 50.9"/>
    <polygon class="cls-7" points="63.204 46.193 64.471 45.272 62.905 45.272 62.42 43.782 61.937 45.272 60.37 45.272 61.638 46.193 61.153 47.683 62.421 46.762 63.688 47.683 63.204 46.193"/>
    <polygon class="cls-7" points="64.95 39.547 66.217 38.626 64.651 38.626 64.166 37.137 63.683 38.626 62.116 38.626 63.384 39.547 62.899 41.037 64.167 40.116 65.434 41.037 64.95 39.547"/>

































    <line class="cls-9" x1="21.2923" y1="97.86011" x2="219.71829" y2="97.86011"/>
  </g>
  <g class="cls-10">
    <polygon class="cls-7" points="14.59 235.076 14.59 250.62 103.014 250.62 110.712 242.848 103.014 235.076 14.59 235.076"/>
    <polygon class="cls-11" points="14.59 216.617 14.59 232.161 94.048 232.161 101.747 224.389 94.048 216.617 14.59 216.617"/>
    <polygon class="cls-12" points="14.59 198.159 14.59 213.702 85.085 213.702 92.784 205.93 85.085 198.159 14.59 198.159"/>
    <polygon class="cls-13" points="14.59 179.699 14.59 195.242 78.133 195.242 85.833 187.471 78.133 179.699 14.59 179.699"/>
    <polygon class="cls-14" points="14.59 253.53 14.59 269.072 112.186 269.072 119.893 261.301 112.186 253.53 14.59 253.53"/>
    <polygon class="cls-15" points="14.59 271.982 14.59 287.526 121.144 287.526 128.855 279.754 121.144 271.982 14.59 271.982"/>
    <polygon class="cls-16" points="14.59 290.436 14.59 305.978 130.103 305.978 137.814 298.206 130.103 290.436 14.59 290.436"/>
  </g>
  <g class="cls-2">
    <path class="cls-8" d="M39.4863,243.50142l-.597-2.044c-.171-.571-.341-1.286-.484-1.857h-.027c-.141.571-.284,1.3-.44,1.857l-.569,2.044Zm-2.428,1.629-.683,2.472h-2.243l2.926-9.631h2.839l2.97,9.631h-2.331l-.738-2.472Z"/>
    <path class="cls-8" d="M36.3475,264.53343a6.497,6.497,0,0,0,.84.03c.978,0,1.845-.386,1.845-1.386,0-.974-.867-1.357-1.945-1.357h-.74Zm0-4.272h.71c1.139,0,1.749-.472,1.749-1.186,0-.729-.555-1.115-1.534-1.115a5.8559,5.8559,0,0,0-.925.057Zm-2.143-3.687a17.07264,17.07264,0,0,1,2.798-.2,5.25759,5.25759,0,0,1,2.826.543,2.09741,2.09741,0,0,1,1.148,1.886,2.17487,2.17487,0,0,1-1.573,2.058v.029a2.40557,2.40557,0,0,1,1.9,2.372,2.57136,2.57136,0,0,1-.993,2.044,6.01234,6.01234,0,0,1-3.764.871,16.53608,16.53608,0,0,1-2.342-.143Z"/>
    <path class="cls-8" d="M41.2809,284.28041a6.065,6.065,0,0,1-2.459.43c-3.309,0-5.011-2.086-5.011-4.831a4.89219,4.89219,0,0,1,5.224-5.115,5.65145,5.65145,0,0,1,2.359.427l-.441,1.731a4.63789,4.63789,0,0,0-1.818-.359,3.16784,3.16784,0,0,0,.014,6.332,5.38775,5.38775,0,0,0,1.804-.315Z"/>
    <path class="cls-8" d="M35.7649,301.38342a3.86172,3.86172,0,0,0,.752.044c1.962.014,3.238-1.073,3.238-3.374a2.75279,2.75279,0,0,0-3.01-3.057,4.40807,4.40807,0,0,0-.98.086Zm-2.174-7.86a19.45414,19.45414,0,0,1,2.926-.199,6.12034,6.12034,0,0,1,3.919,1.029,4.26679,4.26679,0,0,1,1.619,3.628,4.88849,4.88849,0,0,1-1.591,3.902,6.83039,6.83039,0,0,1-4.414,1.244,18.54039,18.54039,0,0,1-2.459-.144Z"/>
  </g>
  <path class="cls-8" d="M36.77,190.48816l-.68213,2.45752H33.84375L36.77,183.371h2.84131l2.96875,9.57471H40.25049l-.73877-2.45752Zm2.4292-1.61963-.59668-2.03125c-.17041-.56836-.34082-1.27881-.48291-1.84668h-.02832c-.14209.56787-.28418,1.29248-.44043,1.84668l-.56836,2.03125Z"/>
  <g>
    <path class="cls-8" d="M46.562,184.88318v2.06543h1.98047v.89111H46.562v2.08447H45.6333v-2.08447H43.65283v-.89111H45.6333v-2.06543Z"/>
    <path class="cls-8" d="M52.20752,184.88318v2.06543H54.188v.89111H52.20752v2.08447h-.92871v-2.08447H49.29834v-.89111h1.98047v-2.06543Z"/>
    <path class="cls-8" d="M57.853,184.88318v2.06543H59.8335v.89111H57.853v2.08447h-.92871v-2.08447H54.94385v-.89111h1.98047v-2.06543Z"/>
  </g>
  <path class="cls-8" d="M36.77,209.20886l-.68213,2.45752H33.84375L36.77,202.09167h2.84131l2.96875,9.57471H40.25049l-.73877-2.45752Zm2.4292-1.61963-.59668-2.03125c-.17041-.56836-.34082-1.27881-.48291-1.84668h-.02832c-.14209.56787-.28418,1.29248-.44043,1.84668l-.56836,2.03125Z"/>
  <g>
    <path class="cls-8" d="M46.562,203.6v2.06543h1.98047v.89111H46.562V208.641H45.6333v-2.08447H43.65283v-.89111H45.6333V203.6Z"/>
    <path class="cls-8" d="M52.20752,203.6v2.06543H54.188v.89111H52.20752V208.641h-.92871v-2.08447H49.29834v-.89111h1.98047V203.6Z"/>
  </g>
  <path class="cls-8" d="M36.77,227.36511l-.68213,2.45752H33.84375L36.77,220.24792h2.84131l2.96875,9.57471H40.25049l-.73877-2.45752Zm2.4292-1.61963-.59668-2.03125c-.17041-.56836-.34082-1.27881-.48291-1.84668h-.02832c-.14209.56787-.28418,1.29248-.44043,1.84668l-.56836,2.03125Z"/>
  <path class="cls-8" d="M46.562,221.764v2.06543h1.98047v.89111H46.562v2.08447H45.6333v-2.08447H43.65283v-.89111H45.6333V221.764Z"/>
  <g class="cls-19">
    <path class="cls-20" d="M52.5165,133.12772c0,2.282-1.521,4.133-3.398,4.133H25.3335c-1.876,0-3.398-1.851-3.398-4.133v-22.315c0-2.283,1.522-4.133,3.398-4.133h23.785c1.877,0,3.398,1.85,3.398,4.133Z"/>
    <line class="cls-21" x1="21.9359" y1="112.6127" x2="52.7239" y2="112.6127"/>
  </g>
  <g class="cls-2">
    <rect class="cls-22" x="26.251" y="118.34003" width="21.95" height="14.14401"/>
    <rect class="cls-6" x="33.235" y="108.74002" width="7.982" height="1.995"/>
    <path class="cls-6" d="M31.9854,109.73712a1.174,1.174,0,1,1-1.174-1.174,1.17385,1.17385,0,0,1,1.174,1.174"/>
  </g>
  <g class="cls-19">
    <path class="cls-6" d="M44.8144,109.73712a1.1735,1.1735,0,1,1-1.174-1.174,1.17385,1.17385,0,0,1,1.174,1.174"/>
    <path class="cls-6" d="M22.4062,134.91171a2.92716,2.92716,0,0,0-1.995,2.606,4.531,4.531,0,0,0,2.48,4.183c2.175,1.269,4.947,1.68,7.417,2.108,2.625.456,5.282.732,7.91,1.17a32.21055,32.21055,0,0,1,3.567.772,6.98288,6.98288,0,0,1,2.409,1.075,1.83,1.83,0,0,1-.119,2.834,5.34011,5.34011,0,0,1-2.101.823,36.19883,36.19883,0,0,1-3.87.633c-2.907.367-5.84.581-8.731,1.054-2.105.344-4.396.866-5.991,2.291a4.914,4.914,0,0,0-1.356,4.987c.99,3.147,5.489,4.045,8.452,4.453a34.02971,34.02971,0,0,0,5.222.344v1.687h2.492v1.69a8.8517,8.8517,0,0,1,4.094,1.728v.208h4.274v-1.953h4.503a.781.781,0,0,0,0-1.562h-4.503v-3.263h4.503a.781.781,0,0,0,0-1.562h-4.503v-2.045h-4.274v.208a8.852,8.852,0,0,1-4.094,1.728v1.691h-2.492v.298a30.36467,30.36467,0,0,1-7.226-.721,9.65991,9.65991,0,0,1-4.422-1.968,3.46686,3.46686,0,0,1-.55-4.199c.915-1.719,3.171-2.324,5.007-2.713,2.751-.583,5.593-.757,8.386-1.087,2.358-.278,4.972-.426,7.153-1.395a3.23186,3.23186,0,0,0,1.972-3.234c-.057-1.72-2.071-2.552-3.541-3.025a44.04148,44.04148,0,0,0-7.468-1.408,76.71241,76.71241,0,0,1-8.251-1.439c-1.774-.447-3.959-1.077-4.827-2.757a2.62813,2.62813,0,0,1,.056-2.621,1.96129,1.96129,0,0,1,.831-.622"/>
  </g>
  <g class="cls-2">
    <path class="cls-9" d="M29.7698,323.49341s-8.504,0-8.504,8.504v83.665s0,8.504,8.504,8.504h47.268s8.504,0,8.504-8.504v-83.665s0-8.504-8.504-8.504Z"/>
    <line class="cls-23" x1="36.8957" y1="350.27742" x2="68.1767" y2="350.27742"/>
    <rect class="cls-24" x="40.367" y="353.56201" width="24.036" height="18.555"/>
    <rect class="cls-6" x="48.376" y="346.34102" width="8.109" height="2.028"/>
    <path class="cls-6" d="M47.1061,347.35551a1.1925,1.1925,0,1,1-1.192-1.193,1.19177,1.19177,0,0,1,1.192,1.193"/>
    <path class="cls-6" d="M60.1405,347.35551a1.1925,1.1925,0,1,1-1.192-1.193,1.19113,1.19113,0,0,1,1.192,1.193"/>
    <line class="cls-25" x1="46.4109" y1="357.34651" x2="50.0509" y2="360.98652"/>
    <polygon class="cls-6" points="44.799 355.735 46.838 359.489 48.553 357.774 44.799 355.735"/>
    <line class="cls-25" x1="46.4112" y1="368.19341" x2="50.0522" y2="364.55341"/>
    <polygon class="cls-6" points="44.799 369.805 48.554 367.766 46.838 366.05 44.799 369.805"/>
    <line class="cls-25" x1="57.7657" y1="368.19341" x2="54.1247" y2="364.55341"/>
    <polygon class="cls-6" points="59.376 369.806 57.338 366.05 55.622 367.766 59.376 369.806"/>
    <line class="cls-25" x1="57.7657" y1="357.34541" x2="54.1257" y2="360.98542"/>
    <polygon class="cls-6" points="59.377 355.735 55.622 357.774 57.338 359.489 59.377 355.735"/>
  </g>
  <g class="cls-26">
    <path class="cls-27" d="M68.1768,375.69141H36.3488v-31.828h31.828Zm-31.828.001-6.793,11.343h45.55l-6.929-11.343m-.473,8.721h-29.68l2.343-6.09h24.918Z"/>
  </g>
  <g class="cls-2">
    <path class="cls-9" d="M99.3889,323.49341s-8.504,0-8.504,8.504v83.665s0,8.504,8.504,8.504h112.018s8.504,0,8.504-8.504v-83.665s0-8.504-8.504-8.504Z"/>
  </g>
  <text class="cls-28" transform="translate(59.63818 407.32263)"> </text>
  <text class="cls-29" transform="translate(62.88037 407.32263)">L</text>
  <text class="cls-30" transform="translate(20.40039 459.45251)">65/2014</text>
  <g class="cls-31">
    <path class="cls-32" d="M128.8598,362.51112c0,2.315-1.543,4.191-3.446,4.191h-24.121c-1.903,0-3.445-1.876-3.445-4.191v-22.63c0-2.315,1.542-4.191,3.445-4.191h24.121c1.903,0,3.446,1.876,3.446,4.191Z"/>
  </g>
  <g class="cls-2">
    <line class="cls-33" x1="101.042" y1="340.29991" x2="125.66499" y2="340.29991"/>
    <line class="cls-34" x1="100.6572" y1="362.09212" x2="126.0502" y2="362.09212"/>
  </g>
  <rect class="cls-1" width="240.94501" height="481.89001"/>

  <text class="cls-29" transform="translate(168.66113 357.62732)">kWh/</text>
  <text class="cls-29" transform="translate(191.04199 357.62732)">cy</text>
  <text class="cls-29" transform="translate(199.67188 357.62732)">cle</text>








  <g id="rating">
    <polyline id="ratingArrow" class="cls-35" points="159.51 187.54 174.67 172.37 220.22 172.37 220.22 202.73 174.67 202.73 159.51 187.54"/>
    <text id="ratingLetter" class="cls-37" transform="translate(170.50977 194.78015)">A</text>
    <text id="ratingPlusses" class="cls-38" transform="translate(186.46973 193.20984)">+++</text>
  </g>
  <text id="conventionalKwh" class="cls-39" transform="translate(166.71973 357.62048)" text-anchor="end">X</text>
  <g id="forcedAirSection">
    <g class="cls-40">
      <path class="cls-32" d="M128.8598,407.77911c0,2.315-1.543,4.191-3.446,4.191h-24.121c-1.903,0-3.445-1.876-3.445-4.191v-22.63c0-2.315,1.542-4.191,3.445-4.191h24.121c1.903,0,3.446,1.876,3.446,4.191Z"/>
    </g>
    <line class="cls-33" x1="101.042" y1="385.56792" x2="125.66499" y2="385.56792"/>
    <line class="cls-34" x1="100.6572" y1="407.36012" x2="126.0502" y2="407.36012"/>
    <path class="cls-6" d="M117.883,398.15321a7.86866,7.86866,0,0,1,1.709,2.227.63107.63107,0,0,1-.086.715.72577.72577,0,0,1-.74.158,8.30329,8.30329,0,0,1-2.527-1.363,7.60109,7.60109,0,0,1-2.329-3.538,8.354,8.354,0,0,1,3.973,1.801"/>
    <path class="cls-6" d="M108.8144,398.15321a7.86855,7.86855,0,0,0-1.709,2.227.63.63,0,0,0,.085.715.72754.72754,0,0,0,.741.158,8.30347,8.30347,0,0,0,2.527-1.363,7.60109,7.60109,0,0,0,2.329-3.538,8.354,8.354,0,0,0-3.973,1.801"/>
    <path class="cls-6" d="M114.5406,391.74851a7.84967,7.84967,0,0,0-.552-2.753.629.629,0,0,0-.594-.405.72515.72515,0,0,0-.607.453,8.30963,8.30963,0,0,0-.637,2.799,7.6025,7.6025,0,0,0,1.131,4.083,8.35937,8.35937,0,0,0,1.259-4.177"/>
    <path class="cls-41" d="M105.9109,399.461a7.87779,7.87779,0,0,1,4.954-10.46m7.275,13.653a7.87385,7.87385,0,0,1-9.854.002m7.296-13.648a7.87807,7.87807,0,0,1,5.043,10.161"/>
    <text class="cls-28" transform="translate(165.41895 403.90076)"> </text>
    <text class="cls-29" transform="translate(168.66113 403.90076)">kWh/</text>
    <text class="cls-29" transform="translate(191.04199 403.90076)">cy</text>
    <text class="cls-29" transform="translate(199.67188 403.90076)">cle*</text>
    <text id="forcedAirKwh" class="cls-39" transform="translate(166.71973 403.90955)" text-anchor="end">X</text>
  </g>
  <text id="litres" class="cls-39" transform="translate(58.7998 407.30994)" text-anchor="end">X</text>
  <text id="supplierLine2" class="cls-42" transform="translate(22.68029 93.53986)">X</text>
  <text id="supplierLine1" class="cls-42" transform="translate(22.68029 82.4588)">X</text>
  <text id="modelLine2" class="cls-42" transform="translate(127.55969 93.53986)">X</text>
  <text id="modelLine1" class="cls-42" transform="translate(127.55969 82.4588)">X</text>
</svg>
