<svg xmlns="http://www.w3.org/2000/svg" xmlns:xlink="http://www.w3.org/1999/xlink" id="Layer_1" data-name="Layer 1" width="85mm" height="170mm" viewBox="0 0 240.95 481.89001" data-rating-increment="18.4333" data-supplier-model-chars-per-row="20">
  <defs>
    <style>
      #forcedAirSection {
        visibility: hidden;
      }

      #forcedAirSection.hasForcedAirSection {
        visibility: visible;
      }

      .cls-1, .cls-11, .cls-21, .cls-22, .cls-23, .cls-25, .cls-29, .cls-30, .cls-31, .cls-34, .cls-36, .cls-37, .cls-44 {
        fill: none;
      }

      .cls-2 {
        font-size: 14.3286px;
      }

      .cls-2, .cls-26, .cls-27, .cls-3, .cls-32, .cls-33, .cls-42, .cls-45 {
        fill: #231f20;
      }

      .cls-2, .cls-26, .cls-27, .cls-40, .cls-42 {
        font-family: Calibri-Bold, Calibri;
      }

      .cls-19, .cls-2, .cls-20, .cls-26, .cls-27, .cls-40, .cls-42 {
        font-weight: 700;
      }

      .cls-27, .cls-3 {
        font-size: 10px;
      }

      .cls-3, .cls-33, .cls-41, .cls-45 {
        font-family: Calibri;
      }

      .cls-4 {
        letter-spacing: -0.01797em;
      }

      .cls-5 {
        letter-spacing: -0.01201em;
      }

      .cls-6 {
        fill: #034ea2;
      }

      .cls-7 {
        fill: #00aeef;
      }

      .cls-8 {
        fill: #fff200;
      }

      .cls-19, .cls-20, .cls-40, .cls-41, .cls-9 {
        fill: #fff;
      }

      .cls-10 {
        clip-path: url(#clip-path);
      }

      .cls-11, .cls-21, .cls-22, .cls-23, .cls-25, .cls-29, .cls-30, .cls-31, .cls-34, .cls-36, .cls-37, .cls-44 {
        stroke: #00aeef;
      }

      .cls-11 {
        stroke-width: 1.5px;
      }

      .cls-12 {
        clip-path: url(#clip-path-2);
      }

      .cls-13 {
        fill: #bfd730;
      }

      .cls-14 {
        fill: #50b848;
      }

      .cls-15 {
        fill: #00a651;
      }

      .cls-16 {
        fill: #fdb913;
      }

      .cls-17 {
        fill: #f37021;
      }

      .cls-18 {
        fill: #ed1c24;
      }

      .cls-19 {
        font-size: 14.2081px;
      }

      .cls-20 {
        font-size: 9.4721px;
      }

      .cls-21 {
        stroke-width: 1.437px;
      }

      .cls-22 {
        stroke-width: 1.459px;
      }

      .cls-23 {
        stroke-width: 0.741px;
      }

      .cls-24 {
        clip-path: url(#clip-path-5);
      }

      .cls-25, .cls-44 {
        stroke-linecap: round;
      }

      .cls-25 {
        stroke-linejoin: round;
        stroke-width: 1.481px;
      }

      .cls-26 {
        font-size: 14.33px;
      }

      .cls-28 {
        clip-path: url(#clip-path-7);
      }

      .cls-29 {
        stroke-width: 1.478px;
      }

      .cls-30 {
        stroke-width: 1.434px;
      }

      .cls-31 {
        stroke-width: 1.457px;
      }

      .cls-33 {
        font-size: 6px;
      }

      .cls-34 {
        stroke-width: 4px;
      }

      .cls-35 {
        clip-path: url(#clip-path-13);
      }

      .cls-36 {
        stroke-width: 1.416px;
      }

      .cls-37 {
        stroke-width: 1.438px;
      }

      .cls-38 {
        fill: #00b9f2;
      }

      .cls-39 {
        fill: #8ed8f8;
      }

      .cls-40 {
        font-size: 24px;
      }

      .cls-41 {
        font-size: 18px;
      }

      .cls-42 {
        font-size: 19px;
      }

      .cls-43 {
        clip-path: url(#clip-path-15);
      }

      .cls-44 {
        stroke-width: 0.591px;
      }

      .cls-45 {
        font-size: 11px;
      }
    </style>
    <clipPath id="clip-path">
      <rect class="cls-1" width="240.94501" height="481.89001"/>
    </clipPath>
    <clipPath id="clip-path-2">
      <rect class="cls-1" x="19.875" y="179.06601" width="134.892" height="128.29201"/>
    </clipPath>
    <clipPath id="clip-path-5">
      <rect class="cls-1" x="28.519" y="342.82701" width="47.623" height="45.245"/>
    </clipPath>
    <clipPath id="clip-path-7">
      <rect class="cls-1" x="97.108" y="334.95001" width="32.491" height="32.491"/>
    </clipPath>
    <clipPath id="clip-path-13">
      <rect class="cls-1" x="20.493" y="122.21201" width="32.074" height="32.07401"/>
    </clipPath>
    <clipPath id="clip-path-15">
      <rect class="cls-1" x="97.108" y="380.21901" width="32.491" height="32.491"/>
    </clipPath>
  </defs>
  <title>gas-ovens</title>
  <text class="cls-2" transform="translate(165.41113 349.77576)"> </text>
  <text class="cls-3" transform="translate(168.64648 349.77576)">MJ</text>
  <text class="cls-3" transform="translate(180.38574 349.77576)"><tspan class="cls-4">/</tspan><tspan x="3.68262" y="0">c</tspan></text>
  <text class="cls-3" transform="translate(188.2959 349.77576)"><tspan class="cls-5">y</tspan><tspan x="4.40625" y="0">c</tspan></text>
  <text class="cls-3" transform="translate(196.92578 349.77576)">le</text>

  <text class="cls-2" transform="translate(165.41113 365.22888)"> </text>
  <text class="cls-3" transform="translate(168.64648 365.22888)">kWh/</text>
  <text class="cls-3" transform="translate(191.02637 365.22888)">cy</text>
  <text class="cls-3" transform="translate(199.64648 365.22888)">cle</text>

  <rect class="cls-7" x="82.482" y="19.76904" width="137.23598" height="39.37299"/>













  <g class="cls-10">
































    <line class="cls-11" x1="21.2923" y1="97.86011" x2="219.71829" y2="97.86011"/>
  </g>
  <g class="cls-12">
    <polygon class="cls-8" points="14.59 235.076 14.59 250.62 103.014 250.62 110.712 242.848 103.014 235.076 14.59 235.076"/>
    <polygon class="cls-13" points="14.59 216.617 14.59 232.161 94.048 232.161 101.747 224.389 94.048 216.617 14.59 216.617"/>
    <polygon class="cls-14" points="14.59 198.159 14.59 213.702 85.085 213.702 92.784 205.93 85.085 198.159 14.59 198.159"/>
    <polygon class="cls-15" points="14.59 179.699 14.59 195.242 78.133 195.242 85.833 187.471 78.133 179.699 14.59 179.699"/>
    <polygon class="cls-16" points="14.59 253.53 14.59 269.072 112.186 269.072 119.893 261.301 112.186 253.53 14.59 253.53"/>
    <polygon class="cls-17" points="14.59 271.982 14.59 287.526 121.144 287.526 128.855 279.754 121.144 271.982 14.59 271.982"/>
    <polygon class="cls-18" points="14.59 290.436 14.59 305.978 130.103 305.978 137.814 298.206 130.103 290.436 14.59 290.436"/>
  </g>
  <g class="cls-10">
    <path class="cls-9" d="M39.4863,243.50142l-.597-2.044c-.171-.571-.341-1.286-.484-1.857h-.027c-.141.571-.284,1.3-.44,1.857l-.569,2.044Zm-2.428,1.629-.683,2.472h-2.243l2.926-9.631h2.839l2.97,9.631h-2.331l-.738-2.472Z"/>
    <path class="cls-9" d="M36.3475,264.53343a6.497,6.497,0,0,0,.84.03c.978,0,1.845-.386,1.845-1.386,0-.974-.867-1.357-1.945-1.357h-.74Zm0-4.272h.71c1.139,0,1.749-.472,1.749-1.186,0-.729-.555-1.115-1.534-1.115a5.8559,5.8559,0,0,0-.925.057Zm-2.143-3.687a17.07264,17.07264,0,0,1,2.798-.2,5.25759,5.25759,0,0,1,2.826.543,2.09741,2.09741,0,0,1,1.148,1.886,2.17487,2.17487,0,0,1-1.573,2.058v.029a2.40557,2.40557,0,0,1,1.9,2.372,2.57136,2.57136,0,0,1-.993,2.044,6.01234,6.01234,0,0,1-3.764.871,16.53608,16.53608,0,0,1-2.342-.143Z"/>
    <path class="cls-9" d="M41.2809,284.28041a6.065,6.065,0,0,1-2.459.43c-3.309,0-5.011-2.086-5.011-4.831a4.89219,4.89219,0,0,1,5.224-5.115,5.65145,5.65145,0,0,1,2.359.427l-.441,1.731a4.63789,4.63789,0,0,0-1.818-.359,3.16784,3.16784,0,0,0,.014,6.332,5.38775,5.38775,0,0,0,1.804-.315Z"/>
    <path class="cls-9" d="M35.7649,301.38342a3.86172,3.86172,0,0,0,.752.044c1.962.014,3.238-1.073,3.238-3.374a2.75279,2.75279,0,0,0-3.01-3.057,4.40807,4.40807,0,0,0-.98.086Zm-2.174-7.86a19.45414,19.45414,0,0,1,2.926-.199,6.12034,6.12034,0,0,1,3.919,1.029,4.26679,4.26679,0,0,1,1.619,3.628,4.88849,4.88849,0,0,1-1.591,3.902,6.83039,6.83039,0,0,1-4.414,1.244,18.54039,18.54039,0,0,1-2.459-.144Z"/>
  </g>
  <path class="cls-19" d="M36.77,190.48816l-.68213,2.45752H33.84375L36.77,183.371h2.84131l2.96875,9.57471H40.25049l-.73877-2.45752Zm2.4292-1.61963-.59668-2.03125c-.17041-.56836-.34082-1.27881-.48291-1.84668h-.02832c-.14209.56787-.28418,1.29248-.44043,1.84668l-.56836,2.03125Z"/>
  <g>
    <path class="cls-19" d="M46.562,184.88318v2.06543h1.98047v.89111H46.562v2.08447H45.6333v-2.08447H43.65283v-.89111H45.6333v-2.06543Z"/>
    <path class="cls-19" d="M52.20752,184.88318v2.06543H54.188v.89111H52.20752v2.08447h-.92871v-2.08447H49.29834v-.89111h1.98047v-2.06543Z"/>
    <path class="cls-19" d="M57.853,184.88318v2.06543H59.8335v.89111H57.853v2.08447h-.92871v-2.08447H54.94385v-.89111h1.98047v-2.06543Z"/>
  </g>
  <text class="cls-19" transform="translate(30.73193 211.66638)"> </text>
  <path class="cls-19" d="M36.77,209.20886l-.68213,2.45752H33.84375L36.77,202.09167h2.84131l2.96875,9.57471H40.25049l-.73877-2.45752Zm2.4292-1.61963-.59668-2.03125c-.17041-.56836-.34082-1.27881-.48291-1.84668h-.02832c-.14209.56787-.28418,1.29248-.44043,1.84668l-.56836,2.03125Z"/>
  <g>
    <path class="cls-19" d="M46.562,203.6v2.06543h1.98047v.89111H46.562V208.641H45.6333v-2.08447H43.65283v-.89111H45.6333V203.6Z"/>
    <path class="cls-19" d="M52.20752,203.6v2.06543H54.188v.89111H52.20752V208.641h-.92871v-2.08447H49.29834v-.89111h1.98047V203.6Z"/>
  </g>
  <text class="cls-19" transform="translate(30.73193 229.82263)"> </text>
  <path class="cls-19" d="M36.77,227.36511l-.68213,2.45752H33.84375L36.77,220.24792h2.84131l2.96875,9.57471H40.25049l-.73877-2.45752Zm2.4292-1.61963-.59668-2.03125c-.17041-.56836-.34082-1.27881-.48291-1.84668h-.02832c-.14209.56787-.28418,1.29248-.44043,1.84668l-.56836,2.03125Z"/>
  <path class="cls-19" d="M46.562,221.764v2.06543h1.98047v.89111H46.562v2.08447H45.6333v-2.08447H43.65283v-.89111H45.6333V221.764Z"/>
  <g class="cls-10">
    <path class="cls-11" d="M29.7698,323.49341s-8.504,0-8.504,8.504v83.665s0,8.504,8.504,8.504h47.268s8.504,0,8.504-8.504v-83.665s0-8.504-8.504-8.504Z"/>
    <line class="cls-21" x1="36.8957" y1="350.27742" x2="68.1767" y2="350.27742"/>
    <rect class="cls-22" x="40.367" y="353.56201" width="24.036" height="18.555"/>
    <rect class="cls-7" x="48.376" y="346.34102" width="8.109" height="2.028"/>
    <path class="cls-7" d="M47.1061,347.35551a1.1925,1.1925,0,1,1-1.192-1.193,1.19177,1.19177,0,0,1,1.192,1.193"/>
    <path class="cls-7" d="M60.1405,347.35551a1.1925,1.1925,0,1,1-1.192-1.193,1.19113,1.19113,0,0,1,1.192,1.193"/>
    <line class="cls-23" x1="46.4109" y1="357.34651" x2="50.0509" y2="360.98652"/>
    <polygon class="cls-7" points="44.799 355.735 46.838 359.489 48.553 357.774 44.799 355.735"/>
    <line class="cls-23" x1="46.4112" y1="368.19341" x2="50.0522" y2="364.55341"/>
    <polygon class="cls-7" points="44.799 369.805 48.554 367.766 46.838 366.05 44.799 369.805"/>
    <line class="cls-23" x1="57.7657" y1="368.19341" x2="54.1247" y2="364.55341"/>
    <polygon class="cls-7" points="59.376 369.806 57.338 366.05 55.622 367.766 59.376 369.806"/>
    <line class="cls-23" x1="57.7657" y1="357.34541" x2="54.1257" y2="360.98542"/>
    <polygon class="cls-7" points="59.377 355.735 55.622 357.774 57.338 359.489 59.377 355.735"/>
  </g>
  <g class="cls-24">
    <path class="cls-25" d="M68.1768,375.69141H36.3488v-31.828h31.828Zm-31.828.001-6.793,11.343h45.55l-6.929-11.343m-.473,8.721h-29.68l2.343-6.09h24.918Z"/>
  </g>
  <g class="cls-10">
    <path class="cls-11" d="M99.3889,323.49341s-8.504,0-8.504,8.504v83.665s0,8.504,8.504,8.504h112.018s8.504,0,8.504-8.504v-83.665s0-8.504-8.504-8.504Z"/>
  </g>
  <text class="cls-26" transform="translate(59.63818 407.32263)"> </text>
  <text class="cls-3" transform="translate(62.88037 407.32263)">L</text>
  <text class="cls-27" transform="translate(20.40039 459.45251)">65/2014</text>
  <g class="cls-28">
    <path class="cls-29" d="M128.8598,362.51112c0,2.315-1.543,4.191-3.446,4.191h-24.121c-1.903,0-3.445-1.876-3.445-4.191v-22.63c0-2.315,1.542-4.191,3.445-4.191h24.121c1.903,0,3.446,1.876,3.446,4.191Z"/>
  </g>
  <g class="cls-10">
    <line class="cls-30" x1="101.042" y1="340.29991" x2="125.66499" y2="340.29991"/>
    <line class="cls-31" x1="100.6572" y1="362.09212" x2="126.0502" y2="362.09212"/>

  </g>
  <text class="cls-33" transform="translate(73.81787 437.68982)"> </text>

  <text class="cls-33" transform="translate(213.14648 437.68982)"> </text>
  <g class="cls-10">


  </g>



  <g class="cls-10">
    <path class="cls-34" d="M21.388,12.88483s-8.504,0-8.504,8.504v439.114s0,8.503,8.504,8.503H219.557s8.504,0,8.504-8.503V21.38885s0-8.504-8.504-8.504Z"/>
  </g>
  <g class="cls-35">
    <path class="cls-22" d="M51.8376,149.41843c0,2.285-1.523,4.137-3.401,4.137H24.6246c-1.879,0-3.402-1.852-3.402-4.137v-22.34c0-2.285,1.523-4.137,3.402-4.137h23.812c1.878,0,3.401,1.852,3.401,4.137Z"/>
    <line class="cls-36" x1="21.2229" y1="128.88052" x2="52.0449" y2="128.88052"/>
  </g>
  <g class="cls-10">
    <rect class="cls-37" x="25.543" y="132.263" width="21.974" height="17.97101"/>
    <rect class="cls-7" x="32.535" y="125.00299" width="7.991" height="1.99701"/>
    <path class="cls-7" d="M31.2836,126.00162a1.175,1.175,0,1,1-1.175-1.175,1.17493,1.17493,0,0,1,1.175,1.175"/>
    <path class="cls-7" d="M44.1269,126.00162a1.175,1.175,0,1,1-1.175-1.175,1.17493,1.17493,0,0,1,1.175,1.175"/>
    <path class="cls-38" d="M36.4367,133.8822a21.8718,21.8718,0,0,1-1.726,5.07l-.514,1.195a12.40658,12.40658,0,0,0-1.26,4.392,4.15185,4.15185,0,0,0,1.027,2.825,3.08617,3.08617,0,0,0,5.075-.323,6.03865,6.03865,0,0,0,1.085-3.633,15.40874,15.40874,0,0,0-3.687-9.526"/>
    <path class="cls-9" d="M36.4663,138.73032a14.88643,14.88643,0,0,1-1.178,3.458l-.35.816a8.45755,8.45755,0,0,0-.86,2.996,2.83458,2.83458,0,0,0,.701,1.927,2.10585,2.10585,0,0,0,3.462-.22,4.12179,4.12179,0,0,0,.74-2.479,10.5042,10.5042,0,0,0-2.515-6.498"/>
    <path class="cls-39" d="M36.4852,140.94632a11.88174,11.88174,0,0,1-.828,2.61l-.247.615a6.75566,6.75566,0,0,0-.605,2.261,2.23267,2.23267,0,0,0,.493,1.455,1.47393,1.47393,0,0,0,1.176.607,1.50341,1.50341,0,0,0,1.26-.773,3.27326,3.27326,0,0,0,.521-1.871,8.27043,8.27043,0,0,0-1.77-4.904"/>
  </g>
  <g id="rating">
    <polyline id="ratingArrow" class="cls-32" points="159.51 187.54 174.67 172.37 220.22 172.37 220.22 202.73 174.67 202.73 159.51 187.54"/>
    <text id="ratingLetter" class="cls-40" transform="translate(170.50977 194.78015)">A</text>
    <text id="ratingPlusses" class="cls-41" transform="translate(186.46973 193.20984)">+++</text>
  </g>
  <text id="conventionalMj" class="cls-42" transform="translate(166.71973 349.7699)" text-anchor="end">X</text>
  <text id="conventionalKwh" class="cls-42" transform="translate(166.71973 365.22009)" text-anchor="end">X</text>
  <g id="forcedAirSection">
    <text class="cls-2" transform="translate(165.41113 394.97888)"> </text>
    <text class="cls-3" transform="translate(168.64648 394.97888)">MJ</text>
    <text class="cls-3" transform="translate(180.38574 394.97888)"><tspan class="cls-4">/</tspan><tspan x="3.68262" y="0">c</tspan></text>
    <text class="cls-3" transform="translate(188.2959 394.97888)"><tspan class="cls-5">y</tspan><tspan x="4.40625" y="0">c</tspan></text>
    <text class="cls-3" transform="translate(196.92578 394.97888)">le</text>
    <text class="cls-2" transform="translate(165.41113 410.43982)"> </text>
    <text class="cls-3" transform="translate(168.64648 410.43201)">kWh/</text>
    <text class="cls-3" transform="translate(191.02637 410.43201)">cy</text>
    <text class="cls-3" transform="translate(199.64648 410.43201)">cle</text>
    <g class="cls-43">
      <path class="cls-29" d="M128.8598,407.77911c0,2.315-1.543,4.191-3.446,4.191h-24.121c-1.903,0-3.445-1.876-3.445-4.191v-22.63c0-2.315,1.542-4.191,3.445-4.191h24.121c1.903,0,3.446,1.876,3.446,4.191Z"/>
    </g>
    <line class="cls-31" x1="100.6572" y1="407.36012" x2="126.0502" y2="407.36012"/>
    <path class="cls-7" d="M117.883,398.15321a7.86866,7.86866,0,0,1,1.709,2.227.63107.63107,0,0,1-.086.715.72577.72577,0,0,1-.74.158,8.30329,8.30329,0,0,1-2.527-1.363,7.60109,7.60109,0,0,1-2.329-3.538,8.354,8.354,0,0,1,3.973,1.801"/>
    <path class="cls-7" d="M108.8144,398.15321a7.86855,7.86855,0,0,0-1.709,2.227.63.63,0,0,0,.085.715.72754.72754,0,0,0,.741.158,8.30347,8.30347,0,0,0,2.527-1.363,7.60109,7.60109,0,0,0,2.329-3.538,8.354,8.354,0,0,0-3.973,1.801"/>
    <path class="cls-7" d="M114.5406,391.74851a7.84967,7.84967,0,0,0-.552-2.753.629.629,0,0,0-.594-.405.72515.72515,0,0,0-.607.453,8.30963,8.30963,0,0,0-.637,2.799,7.6025,7.6025,0,0,0,1.131,4.083,8.35937,8.35937,0,0,0,1.259-4.177"/>
    <path class="cls-44" d="M105.9109,399.461a7.87779,7.87779,0,0,1,4.954-10.46m7.275,13.653a7.87385,7.87385,0,0,1-9.854.002m7.296-13.648a7.87807,7.87807,0,0,1,5.043,10.161"/>
    <text id="forcedAirMj" class="cls-42" transform="translate(166.71973 394.97986)" text-anchor="end">X</text>
    <text id="forcedAirKwh" class="cls-42" transform="translate(166.71973 410.43005)" text-anchor="end">X</text>
  </g>
  <text id="litres" class="cls-42" transform="translate(58.7998 407.30994)" text-anchor="end">X</text>
  <text id="supplierLine2" class="cls-45" transform="translate(22.68029 93.53986)">X</text>
  <text id="supplierLine1" class="cls-45" transform="translate(22.68029 82.4588)">X</text>
  <text id="modelLine2" class="cls-45" transform="translate(127.55969 93.53986)">X</text>
  <text id="modelLine1" class="cls-45" transform="translate(127.55969 82.4588)">X</text>
<g id="union-flag" transform="translate(21.566, 19.76904) scale(1.312433)">
	<path id="blue" fill="#004289" d="M9.59,20L0,26.39V20H9.59z M39.59,0H27.5v8.06L39.59,0z M0,3.61V10h9.59L0,3.61z M17.5,0H5.41
		L17.5,8.06V0z M27.5,30h12.09L27.5,21.94V30z M45,10V3.61L35.41,10H45z M45,26.39V20h-9.59L45,26.39z M5.41,30H17.5v-8.06L5.41,30z
		"/>
	<path id="red" fill="#DC2F34" d="M45,18H25.5v12h-6V18H0v-6h19.5V0h6v12H45V18z M0,2.42L11.38,10h3.61L0,0.01V2.42z M45,27.58
		L33.62,20h-3.61L45,29.99V27.58z M17.5,20.74V20H15L0,30h3.61L17.5,20.74z M27.5,9.26V10H30L45,0h-3.61L27.5,9.26z"/>
</g><path id="energy-heading" d="M7.1581,7.21791H2.33537v3.7413H7.72769v1.90845H0V.13234H7.44305V2.04079H2.33537V5.32836H7.1581Zm3.53413,5.64975V.13234h2.677L16.67314,5.593a37.85159,37.85159,0,0,1,2.18339,4.27032h.038a51.82706,51.82706,0,0,1-.20865-5.29055V.13234h2.1644V12.86766H18.41992L15.07833,7.25572a43.774,43.774,0,0,1-2.2787-4.38342l-.076.0189c.095,1.64379.133,3.32538.133,5.42289v4.55357ZM31.63845,7.21791H26.81573v3.7413h5.392v1.90845H24.48V.13234h7.44305V2.04079H26.81573V5.32836h4.82272ZM35.19126.32139A20.16965,20.16965,0,0,1,38.72282.03781a5.98372,5.98372,0,0,1,3.94949,1.02056,3.228,3.228,0,0,1,1.1012,2.56949,3.347,3.347,0,0,1-2.3357,3.17446V6.859a3.16007,3.16007,0,0,1,1.7851,2.45638,32.106,32.106,0,0,0,1.00653,3.55224H41.83707a16.17761,16.17761,0,0,1-.85455-3.00431c-.37994-1.66269-.96854-2.19171-2.2977-2.22952H37.50764v5.23383H35.19126ZM37.50764,5.933h1.38647c1.57581,0,2.5437-.83119,2.5437-2.09719,0-1.37943-.96789-2.04079-2.487-2.04079a6.74576,6.74576,0,0,0-1.44314.11343Zm19.67341,6.34892A12.70364,12.70364,0,0,1,53.08022,13a6.96331,6.96331,0,0,1-5.032-1.7005,6.3681,6.3681,0,0,1-1.78446-4.68623C46.28243,2.56982,49.1494,0,53.38353,0a8.52961,8.52961,0,0,1,3.3989.60464l-.5126,1.87065a6.6378,6.6378,0,0,0-2.905-.54793c-2.73432,0-4.65207,1.606-4.65207,4.5728,0,2.89088,1.78509,4.61029,4.44342,4.61029a4.91246,4.91246,0,0,0,1.76578-.24577v-3.193H52.66228V5.8388h4.51877Zm6.23045.58573V7.55821L59.36734.13234h2.677l1.51914,3.269c.43661.94462.75924,1.66269,1.11987,2.53169h.038c.304-.81228.66458-1.606,1.10184-2.53169L67.361.13234H70L65.74719,7.50149v5.36617Z" fill="#fff" transform="translate(93.20985336889919, 30.715623260237145) scale(1.312433)"/></svg>
