<svg xmlns="http://www.w3.org/2000/svg" xmlns:xlink="http://www.w3.org/1999/xlink" id="Layer_1" data-name="Layer 1" width="36mm" height="62mm" viewBox="0 0 102.05 175.74803" data-rating-increment="16.4409">
  <defs>
    <style>
      .cls-1, .cls-3 {
        fill: none;
      }

      .cls-2 {
        clip-path: url(#clip-path);
      }

      .cls-3 {
        stroke: #00aeef;
        stroke-width: 2px;
      }

      .cls-4 {
        fill: #bfd730;
      }

      .cls-5 {
        fill: #50b848;
      }

      .cls-6 {
        fill: #00a651;
      }

      .cls-7 {
        fill: #fff200;
      }

      .cls-8 {
        fill: #fdb913;
      }

      .cls-9 {
        fill: #f37021;
      }

      .cls-10 {
        fill: #ed1c24;
      }

      .cls-11 {
        font-size: 14px;
      }

      .cls-11, .cls-12, .cls-13, .cls-18, .cls-19, .cls-21, .cls-22 {
        fill: #fff;
      }

      .cls-11, .cls-12, .cls-13, .cls-14, .cls-21 {
        font-family: Calibri-Bold, Calibri;
        font-weight: 700;
      }

      .cls-12 {
        font-size: 8.162px;
      }

      .cls-13 {
        font-size: 19px;
      }

      .cls-14 {
        font-size: 11px;
      }

      .cls-14, .cls-20 {
        fill: #231f20;
      }

      .cls-15 {
        fill: #034ea2;
      }

      .cls-16 {
        fill: #00aeef;
      }

      .cls-17 {
        clip-path: url(#clip-path-2);
      }

      .cls-18 {
        font-size: 7.2814px;
        font-weight: 600;
      }

      .cls-21 {
        font-size: 20px;
      }

      .cls-22 {
        font-size: 11.66px;
        font-family: Calibri;
      }
    </style>
    <clipPath id="clip-path">
      <rect class="cls-1" y="0.002" width="102.047" height="175.74603"/>
    </clipPath>
    <clipPath id="clip-path-2">
      <rect class="cls-1" x="8.481" y="8.09901" width="85.06401" height="24.53799"/>
    </clipPath>
  </defs>
  <title>lamps-suppliers-name-model-consumption-on-packaging</title>
  <g class="cls-2">
    <path class="cls-3" d="M8.0866,5.2536a2.77657,2.77657,0,0,0-2.835,2.835v159.568a2.77657,2.77657,0,0,0,2.835,2.835h85.874a2.77657,2.77657,0,0,0,2.835-2.835V8.08861a2.77657,2.77657,0,0,0-2.835-2.835Z"/>
  </g>
  <polygon class="cls-4" points="9.26 93.369 9.26 79.198 38.549 79.198 45.313 86.287 38.549 93.369 9.26 93.369"/>
  <polygon class="cls-5" points="9.26 76.933 9.26 62.763 34.386 62.763 41.151 69.846 34.386 76.934 9.26 76.933"/>
  <polygon class="cls-6" points="9.26 60.481 9.26 46.317 30.23 46.317 36.994 53.398 30.229 60.481 9.26 60.481"/>
  <polygon class="cls-7" points="9.26 109.8 9.26 95.633 42.889 95.634 49.665 102.718 42.889 109.8 9.26 109.8"/>
  <polygon class="cls-8" points="9.26 126.246 9.26 112.077 47.042 112.077 53.821 119.166 47.042 126.246 9.26 126.246"/>
  <polygon class="cls-9" points="9.26 142.675 9.26 128.509 51.2 128.51 57.979 135.587 51.2 142.676 9.26 142.675"/>
  <polygon class="cls-10" points="9.26 159.108 9.26 144.939 55.354 144.94 62.136 152.026 55.354 159.109 9.26 159.108"/>
  <text class="cls-11" transform="translate(8.13965 59.17756)"> </text>
  <text class="cls-11" transform="translate(11.30371 57.28743)">A</text>
  <text class="cls-12" transform="translate(19.78809 52.63167)">+</text>
  <text class="cls-12" transform="translate(23.94238 52.63167)">+</text>
  <text class="cls-11" transform="translate(8.13965 75.67756)"> </text>
  <text class="cls-11" transform="translate(11.30371 73.78743)">A</text>
  <text class="cls-12" transform="translate(19.78809 69.13167)">+</text>
  <text class="cls-11" transform="translate(8.13965 92.17756)"> </text>
  <text class="cls-11" transform="translate(11.30371 90.28792)">A</text>
  <text class="cls-11" transform="translate(8.13965 106.79378)"><tspan xml:space="preserve"> B</tspan></text>
  <text class="cls-11" transform="translate(8.13965 123.29963)"><tspan xml:space="preserve"> C</tspan></text>
  <text class="cls-11" transform="translate(8.13965 139.80549)"><tspan xml:space="preserve"> D</tspan></text>
  <text class="cls-11" transform="translate(8.13965 156.31135)"><tspan xml:space="preserve"> E</tspan></text>
  <text class="cls-13" transform="translate(64.13379 58.28303)"> </text>
  <text class="cls-14" transform="translate(41.74463 169.40999)"> </text>
  
  <rect class="cls-16" x="34.124" y="8.14301" width="59.419" height="16.575"/>
  
  
  
  
  
  
  
  
  
  
  
  



  <g id="rating">
    <polyline id="ratingArrow" class="cls-20" points="61.65 53.417 72.06 42.897 93.54 42.897 93.54 62.737 72.06 62.737 61.65 53.417"/>
    <text id="ratingLetter" class="cls-21" transform="translate(70.16016 58.79671)">A</text>
    <text id="ratingPlusses" class="cls-22" transform="translate(80.86035 51.9969)">++</text>
  </g>
<g id="union-flag" transform="translate(8.487, 8.14301) scale(0.5525)">
	<path id="blue" fill="#004289" d="M9.59,20L0,26.39V20H9.59z M39.59,0H27.5v8.06L39.59,0z M0,3.61V10h9.59L0,3.61z M17.5,0H5.41
		L17.5,8.06V0z M27.5,30h12.09L27.5,21.94V30z M45,10V3.61L35.41,10H45z M45,26.39V20h-9.59L45,26.39z M5.41,30H17.5v-8.06L5.41,30z
		"/>
	<path id="red" fill="#DC2F34" d="M45,18H25.5v12h-6V18H0v-6h19.5V0h6v12H45V18z M0,2.42L11.38,10h3.61L0,0.01V2.42z M45,27.58
		L33.62,20h-3.61L45,29.99V27.58z M17.5,20.74V20H15L0,30h3.61L17.5,20.74z M27.5,9.26V10H30L45,0h-3.61L27.5,9.26z"/>
</g><path id="energy-heading" d="M7.1581,7.21791H2.33537v3.7413H7.72769v1.90845H0V.13234H7.44305V2.04079H2.33537V5.32836H7.1581Zm3.53413,5.64975V.13234h2.677L16.67314,5.593a37.85159,37.85159,0,0,1,2.18339,4.27032h.038a51.82706,51.82706,0,0,1-.20865-5.29055V.13234h2.1644V12.86766H18.41992L15.07833,7.25572a43.774,43.774,0,0,1-2.2787-4.38342l-.076.0189c.095,1.64379.133,3.32538.133,5.42289v4.55357ZM31.63845,7.21791H26.81573v3.7413h5.392v1.90845H24.48V.13234h7.44305V2.04079H26.81573V5.32836h4.82272ZM35.19126.32139A20.16965,20.16965,0,0,1,38.72282.03781a5.98372,5.98372,0,0,1,3.94949,1.02056,3.228,3.228,0,0,1,1.1012,2.56949,3.347,3.347,0,0,1-2.3357,3.17446V6.859a3.16007,3.16007,0,0,1,1.7851,2.45638,32.106,32.106,0,0,0,1.00653,3.55224H41.83707a16.17761,16.17761,0,0,1-.85455-3.00431c-.37994-1.66269-.96854-2.19171-2.2977-2.22952H37.50764v5.23383H35.19126ZM37.50764,5.933h1.38647c1.57581,0,2.5437-.83119,2.5437-2.09719,0-1.37943-.96789-2.04079-2.487-2.04079a6.74576,6.74576,0,0,0-1.44314.11343Zm19.67341,6.34892A12.70364,12.70364,0,0,1,53.08022,13a6.96331,6.96331,0,0,1-5.032-1.7005,6.3681,6.3681,0,0,1-1.78446-4.68623C46.28243,2.56982,49.1494,0,53.38353,0a8.52961,8.52961,0,0,1,3.3989.60464l-.5126,1.87065a6.6378,6.6378,0,0,0-2.905-.54793c-2.73432,0-4.65207,1.606-4.65207,4.5728,0,2.89088,1.78509,4.61029,4.44342,4.61029a4.91246,4.91246,0,0,0,1.76578-.24577v-3.193H52.66228V5.8388h4.51877Zm6.23045.58573V7.55821L59.36734.13234h2.677l1.51914,3.269c.43661.94462.75924,1.66269,1.11987,2.53169h.038c.304-.81228.66458-1.606,1.10184-2.53169L67.361.13234H70L65.74719,7.50149v5.36617Z" fill="#fff" transform="translate(38.647190262144285, 12.75123552563142) scale(0.5525)"/></svg>