<svg id="Layer_1" data-name="Layer 1" xmlns="http://www.w3.org/2000/svg" xmlns:xlink="http://www.w3.org/1999/xlink" width="36mm" height="62mm" viewBox="0 0 102.05 175.74803" data-rating-increment="16.4409">
  <defs>
    <style>
      .cls-1, .cls-3 {
        fill: none;
      }

      .cls-2 {
        clip-path: url(#clip-path);
      }

      .cls-3 {
        stroke: #231f20;
        stroke-width: 2px;
      }

      .cls-10, .cls-4, .cls-9 {
        fill: #231f20;
      }

      .cls-5 {
        clip-path: url(#clip-path-2);
      }

      .cls-6 {
        font-size: 7.2814px;
        font-weight: 600;
      }

      .cls-11, .cls-12, .cls-13, .cls-6, .cls-7 {
        fill: #fff;
      }

      .cls-8 {
        clip-path: url(#clip-path-4);
      }

      .cls-9 {
        font-size: 14px;
      }

      .cls-10, .cls-11, .cls-12, .cls-9 {
        font-family: Calibri-Bold, Calibri;
        font-weight: 700;
      }

      .cls-10 {
        font-size: 8.162px;
      }

      .cls-11 {
        font-size: 19px;
      }

      .cls-12 {
        font-size: 20px;
      }

      .cls-13 {
        font-size: 11.66px;
        font-family: Calibri;
      }
    </style>
    <clipPath id="clip-path">
      <rect class="cls-1" y="-0.00101" width="102.047" height="175.74904"/>
    </clipPath>
    <clipPath id="clip-path-2">
      <rect class="cls-1" x="8.481" y="8.09601" width="85.06401" height="24.53799"/>
    </clipPath>
    <clipPath id="clip-path-4">
      <rect class="cls-1" x="8.551" y="46.4655" width="53.811" height="113.42299"/>
    </clipPath>
  </defs>
  <title>lamps-suppliers-name-model-consumption-on-packaging-bw</title>
  <g class="cls-2">
    <path class="cls-3" d="M8.0866,5.25079a2.77657,2.77657,0,0,0-2.835,2.835V167.69051a2.77657,2.77657,0,0,0,2.835,2.835h85.874a2.77657,2.77657,0,0,0,2.835-2.835V8.0858a2.77657,2.77657,0,0,0-2.835-2.835Z"/>
  </g>
  <rect class="cls-4" x="34.124" y="8.14" width="59.419" height="16.575"/>
  <g class="cls-5">
    <path class="cls-4" d="M10.1923,28.6909c.031.855.75,1.221,1.563,1.221a4.065,4.065,0,0,0,1.406-.212l.188.822a5.04942,5.04942,0,0,1-1.772.302,2.33061,2.33061,0,0,1-2.615-2.395,2.40745,2.40745,0,0,1,2.48-2.537,2.10018,2.10018,0,0,1,2.188,2.296,2.66921,2.66921,0,0,1-.042.503Zm2.23-.831a1.03908,1.03908,0,0,0-1.053-1.154,1.2042,1.2042,0,0,0-1.177,1.154Z"/>
    <polygon class="cls-4" points="15.984 26 15.984 27.802 17.943 27.802 17.943 26 19.224 26 19.224 30.717 17.943 30.717 17.943 28.732 15.984 28.732 15.984 30.717 14.703 30.717 14.703 26 15.984 26"/>
    <path class="cls-4" d="M21.5463,28.6909c.031.855.75,1.221,1.563,1.221a4.07511,4.07511,0,0,0,1.407-.212l.187.822a5.03894,5.03894,0,0,1-1.771.302,2.33012,2.33012,0,0,1-2.615-2.395,2.40663,2.40663,0,0,1,2.479-2.537,2.10018,2.10018,0,0,1,2.188,2.296,2.58635,2.58635,0,0,1-.042.503Zm2.23-.831a1.03849,1.03849,0,0,0-1.053-1.154,1.205,1.205,0,0,0-1.177,1.154Z"/>
    <path class="cls-4" d="M26.0674,27.56921c0-.622-.022-1.124-.042-1.569h1.125l.063.726h.02a2.01857,2.01857,0,0,1,1.74-.834,2.20225,2.20225,0,0,1,2.136,2.404,2.31534,2.31534,0,0,1-2.312,2.528,1.71681,1.71681,0,0,1-1.429-.631h-.02v2.441h-1.281Zm1.281,1.171a1.14287,1.14287,0,0,0,1.166,1.163c.813,0,1.292-.631,1.292-1.561,0-.831-.437-1.511-1.261-1.511a1.17535,1.17535,0,0,0-1.144.884.94688.94688,0,0,0-.053.299Z"/>
    <polygon class="cls-4" points="35.558 26 35.558 26.939 33.485 26.939 33.485 30.717 32.202 30.717 32.202 26 35.558 26"/>
    <path class="cls-4" d="M37.5981,25.99989v1.694c0,.747-.031,1.249-.074,1.91h.034c.27-.553.425-.901.685-1.395l1.251-2.209h1.553v4.717h-1.219v-1.686c0-.756.031-1.104.084-1.997h-.044c-.248.564-.415.902-.666,1.358-.395.697-.853,1.548-1.291,2.325h-1.532v-4.717Z"/>
    <path class="cls-4" d="M46.629,30.71609H45.358v-1.868H44.88a1.03775,1.03775,0,0,0-.781.307,3.01911,3.01911,0,0,0-.626,1.175,4.02354,4.02354,0,0,1-.197.386H41.899a2.33962,2.33962,0,0,0,.314-.523,3.99621,3.99621,0,0,1,.76-1.357,1.234,1.234,0,0,1,.604-.319v-.03c-.604-.058-1.323-.424-1.323-1.162a1.19,1.19,0,0,1,.781-1.093,4.39322,4.39322,0,0,1,1.793-.302,14.40964,14.40964,0,0,1,1.801.108Zm-1.271-3.981a3.62274,3.62274,0,0,0-.636-.049c-.562,0-1.135.186-1.135.709,0,.494.636.706,1.135.706.304,0,.471,0,.636-.009Z"/>
    <path class="cls-4" d="M50.7846,28.9525a.74374.74374,0,0,1-.782-.764.75448.75448,0,0,1,.794-.765.765.765,0,1,1,0,1.529Z"/>
    <path class="cls-4" d="M55.8366,28.17929c-.605-.157-.937-.523-.937-.988,0-.639.689-1.299,2.137-1.299a3.1903,3.1903,0,0,1,1.623.358l-.239.767a2.86161,2.86161,0,0,0-1.228-.282c-.615,0-1.003.232-1.003.561,0,.377.512.535,1.272.543h.552v.793h-.561c-.813.012-1.427.166-1.427.623,0,.444.552.676,1.176.676a3.65008,3.65008,0,0,0,1.427-.328l.189.793a4.1235,4.1235,0,0,1-1.926.428c-1.074,0-2.231-.378-2.231-1.445a1.28544,1.28544,0,0,1,1.176-1.162Z"/>
    <path class="cls-4" d="M60.504,25.99989l.812,2.392c.146.415.239.793.366,1.2h.041a8.08761,8.08761,0,0,0,1.064-3.185v-.407h1.197a1.812,1.812,0,0,1,.031.357c0,1.337-.918,2.915-1.846,4.36H60.932l-1.802-4.717Z"/>
    <path class="cls-4" d="M65.7637,28.17929c-.605-.157-.937-.523-.937-.988,0-.639.689-1.299,2.134-1.299a3.19837,3.19837,0,0,1,1.625.358l-.238.767a2.86284,2.86284,0,0,0-1.229-.282c-.613,0-1.002.232-1.002.561,0,.377.513.535,1.272.543h.553v.793h-.562c-.813.012-1.427.166-1.427.623,0,.444.553.676,1.176.676a3.65351,3.65351,0,0,0,1.426-.328l.19.793a4.12885,4.12885,0,0,1-1.93.428c-1.073,0-2.227-.378-2.227-1.445a1.28543,1.28543,0,0,1,1.176-1.162Z"/>
    <path class="cls-4" d="M70.8899,30.2598v.668a12.29571,12.29571,0,0,0,.071,1.707h-1.237a8.11337,8.11337,0,0,1-.115-1.686v-2.159a2.6637,2.6637,0,0,1,.863-2.279,2.53975,2.53975,0,0,1,1.73-.618,2.28845,2.28845,0,0,1,2.428,2.42,2.33764,2.33764,0,0,1-2.344,2.511,1.69877,1.69877,0,0,1-1.377-.564Zm0-1.412a1.39312,1.39312,0,0,0,.031.308,1.18156,1.18156,0,0,0,1.126.747c.813,0,1.281-.669,1.281-1.561,0-.831-.45-1.47-1.21-1.47-.645,0-1.228.523-1.228,1.607Z"/>
    <path class="cls-4" d="M76.7944,32.6344a9.98307,9.98307,0,0,0-.176-2.723,12.74245,12.74245,0,0,0-1.771-3.912h1.439a10.93379,10.93379,0,0,1,1.352,3.43h.044a7.376,7.376,0,0,0,.958-3.052c0-.186-.012-.281-.012-.378h1.219a1.79791,1.79791,0,0,1,.021.349,8.02874,8.02874,0,0,1-1.793,4.156.384.384,0,0,0-.061.233c.021.473.021,1.249.031,1.897Z"/>
    <path class="cls-4" d="M81.5976,28.17929c-.604-.157-.939-.523-.939-.988,0-.639.689-1.299,2.138-1.299a3.19691,3.19691,0,0,1,1.624.358l-.238.767a2.88138,2.88138,0,0,0-1.232-.282c-.614,0-.999.232-.999.561,0,.377.509.535,1.269.543h.555v.793h-.564c-.813.012-1.427.166-1.427.623,0,.444.552.676,1.178.676a3.67169,3.67169,0,0,0,1.427-.328l.187.793a4.1191,4.1191,0,0,1-1.927.428c-1.073,0-2.23-.378-2.23-1.445a1.28842,1.28842,0,0,1,1.178-1.162Z"/>
    <path class="cls-4" d="M86.7633,29.3882c0,.39.127.543.48.523l-.074.834a1.62149,1.62149,0,0,1-.551.079c-.687,0-1.146-.274-1.146-1.32v-3.504h1.291Z"/>
    <path class="cls-4" d="M92.8913,26.00011c-.065.639-.149,2.092-.149,3.213,0,.536.18.719.49.71l-.083.843a1.61724,1.61724,0,0,1-.447.058.94239.94239,0,0,1-.99-.921h-.031a1.89235,1.89235,0,0,1-1.678.921,2.14939,2.14939,0,0,1-2.094-2.374,2.413,2.413,0,0,1,2.293-2.558,1.57556,1.57556,0,0,1,1.458.822h.043a6.81158,6.81158,0,0,1,.114-.714Zm-3.679,2.412c0,.793.437,1.461,1.135,1.461a1.274,1.274,0,0,0,1.126-1.017,3.07645,3.07645,0,0,0,.041-.552,1.89307,1.89307,0,0,0-.032-.444,1.16148,1.16148,0,0,0-1.073-1.046c-.72,0-1.197.706-1.197,1.586Z"/>
    <g id="Y">
      <path class="cls-6" d="M78.05273,14.89493V12.84952l-1.5498-2.86035H77.5293l.582,1.25927c.168.36377.291.64063.42969.9751h.01464c.11622-.313.25489-.61865.42188-.9751l.58984-1.25927H80.5791L78.94824,12.828v2.0669Z"/>
    </g>
    <g id="IJA">
      <path class="cls-6" d="M84.39551,9.98917v4.90576H83.5V9.98917Z"/>
      <path class="cls-6" d="M86.39746,9.98917H87.293v3.18066c0,1.354-.65527,1.80518-1.623,1.80518a2.42513,2.42513,0,0,1-.75781-.1167l.10937-.72022a1.73684,1.73684,0,0,0,.55372.0874c.50878,0,.82226-.23291.82226-1.08447Z"/>
      <path class="cls-6" d="M89.25879,13.50479l-.42188,1.39014h-.92382l1.57129-4.90576h1.14355l1.59375,4.90576h-.96777l-.44434-1.39014Zm1.40527-.67676-.38574-1.20849c-.09473-.29834-.1748-.6333-.248-.917h-.01464c-.07227.28369-.15235.626-.23243.917L89.4043,12.828Z"/>
    </g>
    <g id="IA">
      <path class="cls-6" d="M77.0918,18.02969v4.90577h-.89551V18.02969Z"/>
      <path class="cls-6" d="M80.8623,20.75919H79.01367V22.2001h2.06738v.73536H78.11816V18.02969h2.85352v.73536h-1.958v1.26611H80.8623Z"/>
    </g>
    <g id="IE">
      <path class="cls-6" d="M85.82227,18.02969v4.90577h-.89551V18.02969Z"/>
      <path class="cls-6" d="M87.83105,21.54532l-.42187,1.39014h-.92383l1.57129-4.90577H89.2002L90.794,22.93546h-.96778l-.44433-1.39014Zm1.40528-.67676-.38574-1.2085c-.09473-.29834-.17481-.6333-.248-.917h-.01465c-.07226.28369-.15234.626-.23242.917l-.37891,1.2085Z"/>
    </g>    
  </g>
  <polygon class="cls-7" points="40.277 16.964 36.964 16.964 36.964 19.547 40.668 19.547 40.668 20.864 35.359 20.864 35.359 12.073 40.473 12.073 40.473 13.39 36.964 13.39 36.964 15.66 40.277 15.66 40.277 16.964"/>
  <g class="cls-5">
    <path class="cls-7" d="M42.4114,20.8636v-8.792h1.826l2.27,3.77a24.11734,24.11734,0,0,1,1.5,2.948h.026c-.104-1.174-.144-2.309-.144-3.652v-3.066h1.487v8.792h-1.656l-2.296-3.874a28.95567,28.95567,0,0,1-1.578-3.026l-.039.013c.065,1.135.078,2.295.078,3.743v3.144Z"/>
    <polygon class="cls-7" points="56.481 16.964 53.168 16.964 53.168 19.547 56.873 19.547 56.873 20.864 51.563 20.864 51.563 12.073 56.677 12.073 56.677 13.39 53.168 13.39 53.168 15.66 56.481 15.66 56.481 16.964"/>
    <path class="cls-7" d="M58.61629,12.18941a15.25315,15.25315,0,0,1,2.426-.183,4.07127,4.07127,0,0,1,2.713.705,2.22533,2.22533,0,0,1,.756,1.761,2.34457,2.34457,0,0,1-1.591,2.204v.039a2.23874,2.23874,0,0,1,1.226,1.696,17.45688,17.45688,0,0,0,.692,2.452h-1.657a12.374,12.374,0,0,1-.587-2.074c-.248-1.148-.665-1.513-1.579-1.539h-.808v3.613h-1.591Zm1.591,3.887h.952c1.083,0,1.761-.574,1.761-1.448,0-.965-.678-1.409-1.722-1.409a4.59683,4.59683,0,0,0-.991.079Z"/>
    <path class="cls-7" d="M73.416,20.4593a8.70178,8.70178,0,0,1-2.831.496,4.738,4.738,0,0,1-3.443-1.174,4.35234,4.35234,0,0,1-1.226-3.235c0-2.779,1.982-4.566,4.891-4.566a5.823,5.823,0,0,1,2.335.418l-.352,1.291a4.734,4.734,0,0,0-1.996-.378,2.94251,2.94251,0,0,0-3.196,3.156,2.90622,2.90622,0,0,0,3.053,3.183,3.08736,3.08736,0,0,0,1.213-.182v-2.192H70.312v-1.265h3.104Z"/>
  </g>
  <rect class="cls-7" x="8.701" y="8.362" width="24.382" height="16.132"/>
  <path class="cls-4" d="M8.922,8.581h23.94V24.273H8.922ZM8.487,24.715H33.303V8.14H8.487Z"/>
  <polygon points="26.023 13.666 26.556 13.278 25.897 13.278 25.693 12.651 25.489 13.278 24.83 13.278 25.363 13.666 25.16 14.293 25.693 13.906 26.227 14.293 26.023 13.666"/>
  <polygon points="23.946 11.677 24.479 11.289 23.82 11.289 23.616 10.662 23.412 11.289 22.753 11.289 23.286 11.677 23.083 12.304 23.616 11.917 24.15 12.304 23.946 11.677"/>
  <polygon points="21.267 10.965 21.801 10.578 21.141 10.578 20.937 9.951 20.733 10.578 20.074 10.578 20.608 10.965 20.404 11.593 20.937 11.206 21.471 11.593 21.267 10.965"/>
  <polygon points="18.446 11.677 18.979 11.289 18.32 11.289 18.116 10.662 17.912 11.289 17.253 11.289 17.787 11.677 17.583 12.304 18.116 11.917 18.65 12.304 18.446 11.677"/>
  <polygon points="16.43 13.763 16.964 13.375 16.304 13.375 16.1 12.748 15.896 13.375 15.237 13.375 15.771 13.763 15.567 14.39 16.1 14.003 16.634 14.39 16.43 13.763"/>
  <polygon points="15.787 16.504 16.321 16.116 15.661 16.116 15.457 15.489 15.253 16.116 14.594 16.116 15.128 16.504 14.924 17.131 15.457 16.744 15.991 17.131 15.787 16.504"/>
  <polygon points="16.45 19.281 16.984 18.894 16.324 18.894 16.12 18.266 15.916 18.894 15.257 18.894 15.791 19.281 15.587 19.909 16.12 19.521 16.654 19.909 16.45 19.281"/>
  <polygon points="18.446 21.255 18.979 20.867 18.32 20.867 18.116 20.24 17.912 20.867 17.253 20.867 17.787 21.255 17.583 21.882 18.116 21.495 18.65 21.882 18.446 21.255"/>
  <polygon points="21.267 21.99 21.8 21.602 21.141 21.602 20.937 20.975 20.733 21.602 20.074 21.602 20.607 21.99 20.404 22.617 20.937 22.23 21.471 22.617 21.267 21.99"/>
  <polygon points="24.012 21.245 24.546 20.857 23.886 20.857 23.682 20.23 23.478 20.857 22.819 20.857 23.352 21.245 23.149 21.872 23.682 21.485 24.216 21.872 24.012 21.245"/>
  <polygon points="26.009 19.264 26.542 18.876 25.883 18.876 25.679 18.249 25.475 18.876 24.816 18.876 25.349 19.264 25.146 19.891 25.679 19.504 26.213 19.891 26.009 19.264"/>
  <polygon points="26.744 16.466 27.277 16.078 26.618 16.078 26.414 15.451 26.21 16.078 25.551 16.078 26.084 16.466 25.881 17.093 26.414 16.706 26.948 17.093 26.744 16.466"/>
  <path d="M9.9433,92.332l25.866.001,5.809-6.058-5.809-6.066-25.866-.001Zm-.963.995V79.214h27.231l6.762,7.061-6.762,7.053Z"/>
  <path d="M9.9433,75.9627l21.706.001,5.808-6.063-5.808-6.061-21.706-.001Zm-.963.995V62.8447h23.07l6.762,7.056-6.762,7.058Z"/>
  <path d="M9.9996,59.5775h17.493l5.808-6.059-5.808-6.058H9.9996Zm-.963.995V46.4655h18.858l6.763,7.053-6.763,7.054Z"/>
  <path d="M9.9996,108.6967l30.15.001,5.816-6.058-5.816-6.062-30.15-.001Zm-.963.995v-14.11l31.513.001,6.771,7.057-6.771,7.053Z"/>
  <path d="M9.9996,125.0759l34.301.001,5.821-6.058-5.821-6.064-34.301-.002Zm-.963.995v-14.113l35.665.001,6.776,7.061-6.776,7.052Z"/>
  <path d="M9.9996,141.4388l38.456.001,5.82-6.064-5.819-6.054-38.457-.001Zm-.963.995v-14.108l39.821.001,6.775,7.048-6.775,7.06Z"/>
  <path d="M9.9433,157.8054l42.664.001,5.823-6.059-5.823-6.062-42.664-.001Zm-.963.995v-14.111l44.029.001,6.779,7.057-6.779,7.054Z"/>
  <g class="cls-8">
    <path d="M9.943,162.0493l46.821.001,5.823,6.055-5.824,6.066-46.82-.001Zm-.963-.995v14.111l48.185.001,6.78-7.061-6.78-7.05Z"/>
  </g>
  <text class="cls-9" transform="translate(8.13965 59.32648)"> </text>
  <text class="cls-9" transform="translate(11.30371 57.43635)">A</text>
  <text class="cls-10" transform="translate(19.78809 52.78058)">+</text>
  <text class="cls-10" transform="translate(23.94238 52.78058)">+</text>
  <text class="cls-9" transform="translate(8.13965 75.82648)"> </text>
  <text class="cls-9" transform="translate(11.30371 73.93635)">A</text>
  <text class="cls-10" transform="translate(19.78809 69.28058)">+</text>
  <text class="cls-9" transform="translate(8.13965 92.32648)"> </text>
  <text class="cls-9" transform="translate(11.30371 90.43635)">A</text>
  <text class="cls-9" transform="translate(8.13965 106.94269)"><tspan xml:space="preserve"> B</tspan></text>
  <text class="cls-9" transform="translate(8.13965 123.44855)"><tspan xml:space="preserve"> C</tspan></text>
  <text class="cls-9" transform="translate(8.13965 139.95441)"><tspan xml:space="preserve"> D</tspan></text>
  <text class="cls-9" transform="translate(8.13965 156.46027)"><tspan xml:space="preserve"> E</tspan></text>
  <g id="rating">
    <text class="cls-11" transform="translate(64.13379 58.19318)"> </text>
    <polyline id="ratingArrow" class="cls-4" points="61.65 53.302 72.06 42.782 93.54 42.782 93.54 62.623 72.06 62.623 61.65 53.302"/>
    <text id="ratingLetter" class="cls-12" transform="translate(70.16016 58.68244)">A</text>
    <text id="ratingPlusses" class="cls-13" transform="translate(80.86035 51.88264)">++</text>
  </g>
</svg>
