<svg id="Layer_1" data-name="Layer 1" data-type="internet-label" xmlns="http://www.w3.org/2000/svg" width="367" height="201" viewBox="0 0 367 201">
  <defs>
    <style>
      #range {
        fill: #000;
      }

      #ratingLetter {
        font-size: 153px;
        fill: #fff;
        stroke: #000;
        stroke-miterlimit: 10;
        stroke-width: 3px;
        font-family: Calibri-Bold, Calibri;
        font-weight: 700;
      }

      #ratingArrow {
        fill: #009640;
        stroke: #000;
        stroke-linejoin: round;
        stroke-width: 3px;
      }

      #ratingArrowOutline {
        fill: none;
        stroke: #000;
        stroke-linejoin: round;
        stroke-width: 3px;
      }

      #whiteRectangle {
        fill: #fff;
      }

      #ratingArrow.rating0 { fill: #009640; }
      #ratingArrow.rating1 { fill: #52ae32; }
      #ratingArrow.rating2 { fill: #c8d400; }
      #ratingArrow.rating3 { fill: #ffed00; }
      #ratingArrow.rating4 { fill: #fbba00; }
      #ratingArrow.rating5 { fill: #ec6608; }
      #ratingArrow.rating6 { fill: #e30613; }
    </style>
  </defs>
  <g>
    <polygon id="ratingArrow" points="365.5 199.5 183.5 199.5 91.5 199.5 1.5 100.5 91.5 1.5 183.5 1.5 365.5 1.5 365.5 100.5 365.5 199.5" shape-rendering="geometricPrecision"/>
    <rect id="whiteRectangle" x="289" y="3" width="75" height="195" shape-rendering="crispEdges"/>
    <g id="range">
      <path d="M357.709,71.63818a13.20477,13.20477,0,0,1,.56836,2.16065,1.30344,1.30344,0,0,1-.30322,1.19433,2.46889,2.46889,0,0,1-1.478.49317q-1.06128.09375-2.918.09472-1.93287,0-3.01319-.05712a7.45189,7.45189,0,0,1-1.64844-.227,1.49716,1.49716,0,0,1-.79589-.47413,2.58532,2.58532,0,0,1-.3794-.79638L344.44434,64.169H326.0249L322.917,73.76123a3.06376,3.06376,0,0,1-.39795.89111,1.62288,1.62288,0,0,1-.7959.56836,5.84294,5.84294,0,0,1-1.55371.28467q-1.00488.07543-2.63427.07568a25.247,25.247,0,0,1-2.72852-.11376,2.07708,2.07708,0,0,1-1.36475-.54981,1.48206,1.48206,0,0,1-.26513-1.23193,12.34676,12.34676,0,0,1,.56836-2.12354l15.12207-43.5249a3.80273,3.80273,0,0,1,.53076-1.04248,1.87586,1.87586,0,0,1,.96631-.60693,7.62322,7.62322,0,0,1,1.83838-.26514q1.17407-.05714,3.10742-.05713,2.23608,0,3.563.05713a9.48606,9.48606,0,0,1,2.06543.26514,1.97013,1.97013,0,0,1,1.061.62548,3.69746,3.69746,0,0,1,.54981,1.1377Zm-22.5122-35.98047h-.03809l-6.93555,20.85254h13.90918Z" transform="translate(-8.05205 -10.67984)"/>
      <path d="M349.56971,99.27569,338.49756,88.20355a3.88737,3.88737,0,0,0-5.49332,0L321.93209,99.27569a3.88436,3.88436,0,0,0,5.49332,5.49332l4.43981-4.4398v32.58707a3.88568,3.88568,0,1,0,7.77136,0V100.32921l4.43981,4.4398a3.88436,3.88436,0,0,0,5.49332-5.49332Z" transform="translate(-8.05205 -10.67984)"/>
      <path d="M354.85986,155.40723a17.40541,17.40541,0,0,1-.08691,1.87109,6.31039,6.31039,0,0,1-.2417,1.25391,1.4269,1.4269,0,0,1-.38086.65478.8108.8108,0,0,1-.53613.187,3.24271,3.24271,0,0,1-1.45313-.67334,21.07,21.07,0,0,0-2.66357-1.46,27.21921,27.21921,0,0,0-3.96143-1.45947,19.09886,19.09886,0,0,0-5.34472-.67334,13.84764,13.84764,0,0,0-5.88135,1.21631,12.84669,12.84669,0,0,0-4.49707,3.44287,15.68238,15.68238,0,0,0-2.87158,5.35156,22.50278,22.50278,0,0,0-1.00293,6.90528,23.83125,23.83125,0,0,0,1.0205,7.3164,15.12748,15.12748,0,0,0,2.854,5.29541,11.75348,11.75348,0,0,0,4.41064,3.21875,14.51092,14.51092,0,0,0,5.69092,1.08545,12.26729,12.26729,0,0,0,3.00977-.37451,10.51916,10.51916,0,0,0,2.76757-1.12256V176.21533h-8.47558q-.62256,0-.96875-.84179a8.30908,8.30908,0,0,1-.3457-2.86329,14.85408,14.85408,0,0,1,.08642-1.75879,4.605,4.605,0,0,1,.25928-1.1416,1.604,1.604,0,0,1,.415-.63623.83327.83327,0,0,1,.55371-.20605h15.11816a2.276,2.276,0,0,1,.98584.20605,2.16176,2.16176,0,0,1,.76074.61768,2.90577,2.90577,0,0,1,.502.9917,4.66035,4.66035,0,0,1,.17285,1.32861v19.27344a4.92625,4.92625,0,0,1-.36328,1.96484,2.6546,2.6546,0,0,1-1.48731,1.32862,29.41026,29.41026,0,0,1-2.78515,1.01074q-1.66041.52441-3.44239.898a35.07726,35.07726,0,0,1-3.59765.56152,35.66389,35.66389,0,0,1-3.6499.187,26.08543,26.08543,0,0,1-9.6001-1.66553,19.257,19.257,0,0,1-7.17822-4.82763,21.2626,21.2626,0,0,1-4.49756-7.70947,31.74482,31.74482,0,0,1-1.55664-10.31055A32.15782,32.15782,0,0,1,318.2583,161.938a22.93,22.93,0,0,1,4.70508-8.04639,20.23149,20.23149,0,0,1,7.35107-5.07129,25.18091,25.18091,0,0,1,9.6001-1.75879,29.96064,29.96064,0,0,1,5.293.43018,28.04565,28.04565,0,0,1,4.16894,1.04785,15.7588,15.7588,0,0,1,2.958,1.32861,7.48961,7.48961,0,0,1,1.64307,1.23536,3.20837,3.20837,0,0,1,.67432,1.478A14.27685,14.27685,0,0,1,354.85986,155.40723Z" transform="translate(-8.05205 -10.67984)"/>
    </g>
    <text id="ratingLetter" transform="translate(179 151.12191)" text-anchor="middle" text-rendering="geometricPrecision">A</text>
    <polygon id="ratingArrowOutline" points="365.5 199.5 183.5 199.5 91.5 199.5 1.5 100.5 91.5 1.5 183.5 1.5 365.5 1.5 365.5 100.5 365.5 199.5" shape-rendering="geometricPrecision"/>
  </g>
</svg>
