<svg id="Layer_1" data-name="Layer 1" xmlns="http://www.w3.org/2000/svg" xmlns:xlink="http://www.w3.org/1999/xlink" width="96mm" height="192mm" viewBox="0 0 272.12601 544.25201" data-rating-increment="28.3333" data-supplier-model-chars-per-row="20">
  <defs>
    <style>
      .cls-1, .cls-23, .cls-30, .cls-7 {
        fill: none;
      }

      .cls-2 {
        font-size: 32.075px;
      }

      .cls-16, .cls-2 {
        fill: #fff;
        font-family: Calibri-Bold, Calibri;
      }

      .cls-16, .cls-18, .cls-2, .cls-21, .cls-24, .cls-25, .cls-27 {
        font-weight: 700;
      }

      .cls-3 {
        fill: #d0d0d0;
      }

      .cls-4 {
        font-size: 7.63636px;
      }

      .cls-18, .cls-19, .cls-20, .cls-21, .cls-22, .cls-24, .cls-25, .cls-26, .cls-27, .cls-4 {
        fill: #1d1d1b;
      }

      .cls-19, .cls-20, .cls-22, .cls-26, .cls-4 {
        font-family: Verdana;
      }

      .cls-5 {
        fill: #004289;
      }

      .cls-6 {
        fill: #da2e33;
      }

      .cls-23, .cls-30, .cls-7 {
        stroke: #1d1d1b;
      }

      .cls-7 {
        stroke-width: 0.5px;
      }

      .cls-8 {
        fill: #e30613;
      }

      .cls-9 {
        fill: #ec6608;
      }

      .cls-10 {
        fill: #fbba00;
      }

      .cls-11 {
        fill: #ffed00;
      }

      .cls-12 {
        fill: #c8d400;
      }

      .cls-13 {
        fill: #52ae32;
      }

      .cls-14 {
        fill: #009640;
      }

      .cls-15 {
        clip-path: url(#clip-path);
      }

      .cls-16 {
        font-size: 18.8299px;
      }

      .cls-17 {
        fill: #164194;
      }

      .cls-18, .cls-19 {
        font-size: 9px;
      }

      .cls-18, .cls-21, .cls-24, .cls-25, .cls-27 {
        font-family: Verdana-Bold, Verdana;
      }

      .cls-20 {
        font-size: 6px;
      }

      .cls-21 {
        font-size: 16px;
      }

      .cls-22, .cls-27 {
        font-size: 12px;
      }

      .cls-23 {
        stroke-linecap: round;
      }

      .cls-23, .cls-30 {
        stroke-linejoin: round;
        stroke-width: 1.2px;
      }

      .cls-24 {
        font-size: 28px;
      }

      .cls-25 {
        font-size: 26px;
      }

      .cls-26 {
        font-size: 18px;
      }

      .cls-28 {
        letter-spacing: 0.15999em;
      }

      .cls-29 {
        letter-spacing: -0.14176em;
      }
    </style>
    <clipPath id="clip-path">
      <rect class="cls-1" width="272.12601" height="544.25201"/>
    </clipPath>
  </defs>
  <g id="rating">
    <polygon id="ratingArrow" points="219.514 82.004 198.351 99.718 219.514 116.02 263.547 116.02 263.547 82.004 219.514 82.004"/>
    <text id="ratingLetter" class="cls-2" transform="translate(231.84473 108.54037) scale(1 1.012)">A</text>
  </g>
  <g id="qrCode">
    <rect class="cls-3" x="223.82323" y="8.50403" width="39.68504" height="39.68504"/>
    <text class="cls-4" transform="translate(227.70317 30.48639)">QR code</text>
  </g>
  <path class="cls-5" d="M15.6609,48.18863h15.993v-10.662Zm52.371-4.775v-8.453H55.3459Zm0-21.681v-8.453l-12.686,8.453Zm-23.15,26.456h15.993l-15.993-10.662ZM31.6539,8.5036H15.6609l15.993,10.662Zm-23.15,4.776v8.453h12.686Zm52.371-4.776H44.8819v10.662Zm-39.685,26.457-12.686,8.453v-8.453Z"/>
  <path class="cls-6" d="M44.8815,20.75305v.979h3.307L68.0315,8.504h-4.775ZM31.6535,35.94v-.979h-3.307L8.5035,48.189h4.776Zm36.378,9.048L52.9775,34.961h-4.775l19.829,13.215ZM8.5035,11.705l15.054,10.027h4.776L8.5035,8.517Zm59.528,20.61H42.2365V48.189h-7.937V32.315H8.5035V24.37805h25.796V8.504h7.937v15.874h25.795Z"/>
  <line class="cls-7" x1="8.504" y1="76.51752" x2="263.547" y2="76.51752"/>
  <polygon class="cls-8" points="132.05 257.868 8.504 257.868 8.504 281.962 132.05 281.962 144.567 269.915 132.05 257.868"/>
  <polygon class="cls-9" points="120.729 229.521 8.504 229.521 8.504 253.615 120.729 253.615 133.228 241.568 120.729 229.521"/>
  <polygon class="cls-10" points="109.487 201.175 8.504 201.175 8.504 225.269 109.487 225.269 121.89 213.222 109.487 201.175"/>
  <polygon class="cls-11" points="98.238 172.922 8.484 172.922 8.484 197.016 98.238 197.016 110.531 184.969 98.238 172.922"/>
  <polygon class="cls-12" points="89.37 144.575 8.504 144.575 8.504 168.669 89.37 168.669 102.047 156.622 89.37 144.575"/>
  <polygon class="cls-13" points="78.116 116.229 8.504 116.229 8.504 140.323 78.116 140.323 90.708 128.276 78.116 116.229"/>
  <polygon class="cls-14" points="62.25 87.882 8.504 87.882 8.504 111.976 62.25 111.976 73.701 99.929 62.25 87.882"/>
  <g class="cls-15">
    <text class="cls-16" transform="translate(15.18164 105.79254) scale(1 1.012)">A</text>
    <text class="cls-16" transform="translate(15.27539 134.33844) scale(1 1.012)">B</text>
    <text class="cls-16" transform="translate(15.31299 162.9986) scale(1 1.012)">C</text>
    <text class="cls-16" transform="translate(15.1626 190.95319) scale(1 1.012)">D</text>
    <text class="cls-16" transform="translate(15.1626 219.36578) scale(1 1.012)">E</text>
    <text class="cls-16" transform="translate(15.1626 247.93073) scale(1 1.012)">F</text>
    <text class="cls-16" transform="translate(15.1626 276.49518) scale(1 1.012)">G</text>
  </g>
  <polygon class="cls-17" points="79.492 19.856 79.492 25.274 92.213 25.274 92.213 30.817 79.492 30.817 79.492 37.038 92.758 37.038 92.758 42.581 73.673 42.581 73.673 14.186 92.758 14.186 92.758 19.856 79.492 19.856"/>
  <polygon class="cls-17" points="120.34 14.187 120.34 42.582 113.392 42.582 101.715 23.708 101.715 42.582 95.895 42.582 95.895 14.187 102.843 14.187 114.52 33.315 114.52 14.187 120.34 14.187"/>
  <polygon class="cls-17" points="129.464 19.856 129.464 25.274 142.185 25.274 142.185 30.817 129.464 30.817 129.464 37.038 142.73 37.038 142.73 42.581 123.645 42.581 123.645 14.186 142.73 14.186 142.73 19.856 129.464 19.856"/>
  <g class="cls-15">
    <path class="cls-17" d="M151.601,26.92444h6.571a10.21581,10.21581,0,0,0,2.051-.169,3.4633,3.4633,0,0,0,1.172-.425q.63-.507.63-2.58a8.20644,8.20644,0,0,0-.377-3.089c-.253-.565-1.074-.847-2.472-.847h-7.575Zm-5.858,15.657v-28.395h13.394a15.20913,15.20913,0,0,1,4.017.465,6.43188,6.43188,0,0,1,2.764,1.50305,6.23788,6.23788,0,0,1,1.612,2.751,14.51451,14.51451,0,0,1,.521,4.168,19.48678,19.48678,0,0,1-.167,2.58,14.6502,14.6502,0,0,1-.46,2.202,4.27181,4.27181,0,0,1-1.338,1.903,5.55869,5.55869,0,0,1,1.234,2.116,8.78911,8.78911,0,0,1,.396,2.709v7.998H161.73v-7.364a2.67461,2.67461,0,0,0-.751-2.2,3.8712,3.8712,0,0,0-2.387-.592h-6.991v10.156Z"/>
    <path class="cls-17" d="M180.9435,26.9248h13.601c.14,1.07306.214,1.86805.229,2.389.016.523.02.982.02,1.376v2.328a17.16018,17.16018,0,0,1-.919,5.84,5.00286,5.00286,0,0,1-1.946,2.517,8.55178,8.55178,0,0,1-3.706,1.207q-1.25552.126-2.592.169c-.896.027-1.787.043-2.678.043q-6.69748,0-9.21-2.159-2.721-2.2425-2.721-8.845v-1.777q0-.88944.043-1.819v-3.343q0-5.502,2.218-8.126a7.08416,7.08416,0,0,1,3.2-2.03,15.21582,15.21582,0,0,1,4.796-.677h1.545c.502,0,1.02.013,1.549.041h2.931q4.0995.12753,5.754,2.222a9.4087,9.4087,0,0,1,1.654,5.947v2.495h-5.858a12.51642,12.51642,0,0,0-.464-4.444q-.21-.42142-1.755-.507-1.296-.08248-2.534-.105c-.822-.013-1.682-.021-2.573-.021q-3.22351,0-3.807.677-.58952.72007-.67,4.697c0,.281-.007.549-.023.803-.011.254-.019.53705-.019.846v1.61l.042,3.595c0,.734.028,1.427.082,2.074a10.54431,10.54431,0,0,0,.292,1.777v-.084a2.18254,2.18254,0,0,0,.67.826,2.81814,2.81814,0,0,0,1.339.486,12.57154,12.57154,0,0,0,1.716.126c.335.03.678.044,1.028.044h2.487a20.9813,20.9813,0,0,0,2.367-.107,2.07468,2.07468,0,0,0,1.234-.444c.389-.339.588-1.466.588-3.385v-.677h-7.91Z"/>
  </g>
  <polygon class="cls-17" points="202.728 14.059 209.186 14.059 206.622 22.221 213.649 21.069 203.583 43.059 206.622 27.118 199.879 27.407 202.728 14.059"/>
  <line class="cls-7" x1="8.504" y1="295.05321" x2="263.547" y2="295.05321"/>
  <line class="cls-7" x1="8.504" y1="351.57112" x2="263.547" y2="351.57112"/>
  <text id="supplier" class="cls-18" transform="translate(8.50391 72.04694)">X</text>
  <text id="model" class="cls-19" transform="translate(263.8 71.98981)" text-anchor="end">X</text>
  <text class="cls-20" transform="translate(259.0332 502.50778) rotate(90)">2019/2018</text>
  <text transform="translate(73 439.37018)" text-anchor="middle">
    <tspan id="capacity" class="cls-21">X</tspan>
    <tspan class="cls-22">L</tspan>
  </text>
  <g id="frezerIcon">
    <line class="cls-23" x1="70.8803" y1="380.46091" x2="70.8803" y2="418.94591"/>
    <polyline class="cls-23" points="65.305 383.324 70.789 389.034 76.456 383.134"/>
    <polyline class="cls-23" points="76.456 415.644 70.972 409.934 65.305 415.834"/>
    <line class="cls-23" x1="55.049" y1="390.19792" x2="87.077" y2="409.42793"/>
    <polyline class="cls-23" points="54.631 396.653 62.1 394.559 60.032 386.487"/>
    <polyline class="cls-23" points="87.13 402.754 79.661 404.848 81.729 412.92"/>
    <line class="cls-23" x1="55.049" y1="409.30411" x2="87.077" y2="390.07411"/>
    <polyline class="cls-23" points="60.19 412.92 62.192 405.107 54.473 402.944"/>
    <polyline class="cls-23" points="81.571 386.677 79.569 394.49 87.288 396.653"/>
  </g>
  <text transform="translate(136.063005 334.5235)" text-anchor="middle">
    <tspan id="kwhAnnum" class="cls-24">X</tspan>
    <tspan class="cls-26" xml:space="preserve"> kWh/annum</tspan>
  </text>
  <polyline class="cls-23" points="107.361 483.632 107.361 518.253 164.024 518.253 164.024 483.632"/>
  <polyline class="cls-23" points="167.131 479.48 136.063 460.063 104.868 479.48"/>
  <text transform="translate(136.063005 503.04694)" text-anchor="middle">
    <tspan id="maxAmbientTemp" class="cls-27 cls-28">≤</tspan><tspan class="cls-27">X</tspan><tspan class="cls-22">°C</tspan>
  </text>

  <text transform="translate(192.61426 404.26373)">
    <!-- Do not pretty-print these spans - they need to be all on one line to avoid whitespace between them when rendering -->
    <tspan id="compartmentTemp" class="cls-27">X</tspan><tspan class="cls-22">°C</tspan>
  </text>
  <g class="cls-15">
    <path class="cls-30" d="M183.01939,400.89682v-15.46a4.90909,4.90909,0,1,0-9.817,0v15.46a9.73429,9.73429,0,0,0-4.65,8.331,9.55967,9.55967,0,1,0,19.117,0A9.7343,9.7343,0,0,0,183.01939,400.89682Z"/>
    <ellipse class="cls-30" cx="178.11109" cy="409.04251" rx="4.868" ry="4.828"/>
  </g>
  <path class="cls-30" d="M183.2524,395.20952h-2.635m2.635-4.275h-2.635m2.635-4.275h-2.635m-2.11,17.161v-18.41"/>
</svg>
