<svg xmlns="http://www.w3.org/2000/svg" xmlns:xlink="http://www.w3.org/1999/xlink" id="Layer_1" data-name="Layer 1" width="75mm" height="150mm" viewBox="0 0 212.60001 425.20001" data-rating-increment="16.0365" data-supplier-model-chars-per-row="15">
  <defs>
    <style>
      .cls-1, .cls-10, .cls-12, .cls-13, .cls-14, .cls-29, .cls-33, .cls-5, .cls-9 {
        fill: none;
      }

      .cls-2 {
        font-size: 19.1129px;
      }

      .cls-15, .cls-2, .cls-24, .cls-25, .cls-35, .cls-36 {
        fill: #fff;
      }

      .cls-2, .cls-26, .cls-27, .cls-3, .cls-35, .cls-6, .cls-7 {
        font-family: Calibri-Bold, Calibri;
      }

      .cls-2, .cls-24, .cls-25, .cls-26, .cls-27, .cls-3, .cls-35, .cls-6, .cls-7 {
        font-weight: 700;
      }

      .cls-3 {
        font-size: 8px;
      }

      .cls-26, .cls-27, .cls-3, .cls-34, .cls-37, .cls-38, .cls-6, .cls-7 {
        fill: #231f20;
      }

      .cls-4 {
        clip-path: url(#clip-path);
      }

      .cls-13, .cls-29, .cls-33, .cls-5, .cls-9 {
        stroke: #00aeef;
      }

      .cls-5 {
        stroke-width: 1.5px;
      }

      .cls-6 {
        font-size: 14.799px;
      }

      .cls-7 {
        font-size: 10px;
      }

      .cls-8 {
        clip-path: url(#clip-path-3);
      }

      .cls-13, .cls-9 {
        stroke-linecap: round;
        stroke-linejoin: round;
      }

      .cls-9 {
        stroke-width: 0.855px;
      }

      .cls-10, .cls-14 {
        stroke: #fff;
      }

      .cls-10 {
        stroke-width: 0.746px;
      }

      .cls-11 {
        fill: #2aace3;
      }

      .cls-12 {
        stroke: #2aace3;
        stroke-width: 0.6px;
      }

      .cls-13 {
        stroke-width: 1.519px;
      }

      .cls-14 {
        stroke-width: 0.785px;
      }

      .cls-16 {
        fill: #50b848;
      }

      .cls-17 {
        fill: #00a651;
      }

      .cls-18 {
        fill: #bfd730;
      }

      .cls-19 {
        fill: #fff200;
      }

      .cls-20 {
        fill: #fdb913;
      }

      .cls-21 {
        fill: #f37021;
      }

      .cls-22 {
        fill: #ed1c24;
      }

      .cls-23 {
        clip-path: url(#clip-path-4);
      }

      .cls-24 {
        font-size: 12.3504px;
      }

      .cls-24, .cls-25 {
        font-family: MyriadPro-Bold, Myriad Pro;
      }

      .cls-25 {
        font-size: 8.2336px;
      }

      .cls-26 {
        font-size: 16px;
      }

      .cls-27 {
        font-size: 9.328px;
      }

      .cls-28 {
        fill: #1eaae1;
      }

      .cls-29 {
        stroke-width: 2.96px;
      }

      .cls-30 {
        fill: #034ea2;
      }

      .cls-31 {
        fill: #00aeef;
      }

      .cls-32 {
        clip-path: url(#clip-path-8);
      }

      .cls-33 {
        stroke-width: 0.74px;
      }

      .cls-35 {
        font-size: 18.5px;
      }

      .cls-36, .cls-37 {
        font-size: 11px;
      }

      .cls-36, .cls-37, .cls-38 {
        font-family: Calibri;
      }

      .cls-38 {
        font-size: 6px;
      }

      .cls-39 {
        letter-spacing: -0.00928em;
      }

      .cls-40 {
        letter-spacing: -0.01709em;
      }

      .cls-41 {
        letter-spacing: -0.01465em;
      }
    </style>
    <clipPath id="clip-path">
      <rect class="cls-1" y="0.00302" width="212.59801" height="425.19699"/>
    </clipPath>
    <clipPath id="clip-path-3">
      <polygon class="cls-1" points="38.103 314.276 34.662 318.051 32.019 320.65 32.019 337.736 52.218 337.736 52.218 314.276 38.103 314.276"/>
    </clipPath>
    <clipPath id="clip-path-4">
      <rect class="cls-1" x="16.588" y="98.46301" width="128.263" height="128.812"/>
    </clipPath>
    <clipPath id="clip-path-8">
      <rect class="cls-1" x="16.429" y="16.96701" width="180.384" height="35.65799"/>
    </clipPath>
  </defs>
  <title>bidirectional-ventilation-unit</title>
  <text class="cls-2" transform="translate(160.38086 114.28204)"> </text>
  <text class="cls-3" transform="translate(16.37598 399.67755)">2016</text>
  <text class="cls-3" transform="translate(161.34375 399.67755)">1254/2014</text>
  <g class="cls-4">
    <path class="cls-5" d="M24.2555,278.66481s-7.087,0-7.087,7.087v48.623s0,7.087,7.087,7.087h37.085s7.087,0,7.087-7.087v-48.623s0-7.087-7.087-7.087Z"/>
  </g>
  <text class="cls-6" transform="translate(50.229 299.00861)"> </text>
  <text class="cls-7" transform="translate(36.60596 311.00861)">d</text>
  <text class="cls-7" transform="translate(42.02588 311.00861)">B</text>
  <g class="cls-4">
    <path class="cls-5" d="M83.0761,278.66481s-7.087,0-7.087,7.087v48.623s0,7.087,7.087,7.087h106.748s7.086,0,7.086-7.087v-48.623s0-7.087-7.086-7.087Z"/>
  </g>
  <g class="cls-8">
    <polygon class="cls-9" points="28.955 335.042 28.955 339.25 60.417 339.25 60.417 317.506 44.685 303.172 28.955 317.506 28.955 335.042"/>
    <path class="cls-10" d="M36.8368,329.57771q-1.3005-1.15949-2.599-2.318h-1.853v-3.703h1.853q1.299-1.158,2.599-2.318l1.075-.957v10.255Z"/>
    <path class="cls-11" d="M36.5085,328.76772q-1.0485-.9345-2.093-1.867h-1.493v-2.984h1.493q1.0455-.9315,2.093-1.867l.866-.771v8.26Z"/>
    <path class="cls-12" d="M36.5085,328.76772q-1.0485-.9345-2.093-1.867h-1.493v-2.984h1.493q1.0455-.9315,2.093-1.867l.866-.771v8.26Z"/>
    <path class="cls-13" d="M46.2835,315.62611a17.82793,17.82793,0,0,1,.032,19.566m-3.255-16.869a12.26249,12.26249,0,0,1,.041,14.146m-3.147-11.472a6.9183,6.9183,0,0,1,.058,8.774"/>
    <polygon class="cls-9" points="28.955 378.057 28.955 382.265 60.417 382.265 60.417 360.521 44.685 346.187 28.955 360.521 28.955 378.057"/>
    <path class="cls-14" d="M23.402,374.56711q1.368-1.221,2.736-2.44h1.951v-3.899H26.138q-1.3665-1.218-2.736-2.441l-1.132-1.008v10.797Z"/>
    <path class="cls-11" d="M23.7475,373.71411q1.1025-.9825,2.204-1.966h1.572v-3.141h-1.572c-.734-.654-1.469-1.312-2.204-1.965l-.912-.813v8.697Z"/>
    <path class="cls-12" d="M23.7475,373.71411q1.1025-.9825,2.204-1.966h1.572v-3.141h-1.572c-.734-.654-1.469-1.312-2.204-1.965l-.912-.813v8.697Z"/>
    <path class="cls-13" d="M13.4218,380.47861a18.77185,18.77185,0,0,1,.033-20.601m3.352,17.734a12.90813,12.90813,0,0,1,.043-14.893m3.208,12.053a7.28716,7.28716,0,0,1,.061-9.239"/>
  </g>
  <rect class="cls-15" x="16.588" y="98.46201" width="128.263" height="128.813"/>
  <polygon class="cls-16" points="16.588 117.698 16.588 131.21 84.99 131.21 91.682 124.454 84.99 117.698 16.588 117.698"/>
  <polygon class="cls-17" points="16.588 101.653 16.588 115.164 77.197 115.164 83.889 108.408 77.197 101.653 16.588 101.653"/>
  <polygon class="cls-18" points="16.588 133.739 16.588 147.25 92.963 147.25 99.662 140.494 92.963 133.739 16.588 133.739"/>
  <polygon class="cls-19" points="16.588 149.778 16.588 163.29 100.75 163.29 107.452 156.534 100.75 149.778 16.588 149.778"/>
  <polygon class="cls-20" points="16.588 165.819 16.588 179.329 108.537 179.329 115.242 172.573 108.537 165.819 16.588 165.819"/>
  <polygon class="cls-21" points="16.588 181.859 16.588 195.369 116.324 195.369 123.031 188.615 116.324 181.859 16.588 181.859"/>
  <polygon class="cls-22" points="16.588 197.898 16.588 211.41 124.112 211.41 130.821 204.654 124.112 197.898 16.588 197.898"/>
  <polygon class="cls-22" points="16.588 213.937 16.588 227.275 131.682 227.275 138.647 220.692 131.5 213.937 16.588 213.937"/>
  <rect class="cls-1" y="0.00302" width="212.59801" height="425.19699"/>
  <g class="cls-23">
    <path class="cls-15" d="M173.81749,126.43744l-.593,2.148h-1.95l2.543-8.371h2.468l2.58,8.371h-2.024l-.642-2.148Zm2.111-1.416-.519-1.776c-.149-.497-.296-1.119-.42-1.615h-.024c-.124.496-.247,1.13-.383,1.615l-.494,1.776Z"/>
    <path class="cls-15" d="M171.337,136.38474a14.94462,14.94462,0,0,1,2.432-.174,4.56752,4.56752,0,0,1,2.457.473,1.82207,1.82207,0,0,1,.998,1.639,1.89025,1.89025,0,0,1-1.369,1.789v.025a2.09047,2.09047,0,0,1,1.653,2.062,2.23928,2.23928,0,0,1-.863,1.777,5.23172,5.23172,0,0,1-3.272.757,14.2912,14.2912,0,0,1-2.036-.125Zm1.863,3.205h.617c.989,0,1.519-.41,1.519-1.031,0-.634-.481-.968-1.333-.968a5.13747,5.13747,0,0,0-.803.049Zm0,3.714a5.65617,5.65617,0,0,0,.729.026c.851,0,1.605-.335,1.605-1.205,0-.846-.754-1.18-1.691-1.18H173.2Z"/>
    <path class="cls-15" d="M177.487,160.46841a5.26,5.26,0,0,1-2.136.374,3.97759,3.97759,0,0,1-4.357-4.199,4.2533,4.2533,0,0,1,4.542-4.447,4.90464,4.90464,0,0,1,2.05.372l-.383,1.504a4.0431,4.0431,0,0,0-1.58-.312,2.75359,2.75359,0,0,0,.012,5.504,4.70089,4.70089,0,0,0,1.568-.273Z"/>
    <path class="cls-15" d="M170.80379,168.50262a16.96882,16.96882,0,0,1,2.544-.172,5.32385,5.32385,0,0,1,3.406.894,3.71166,3.71166,0,0,1,1.407,3.154,4.2479,4.2479,0,0,1-1.383,3.391,5.93478,5.93478,0,0,1-3.838,1.082,16.20108,16.20108,0,0,1-2.136-.125Zm1.889,6.833a3.38278,3.38278,0,0,0,.655.038c1.703.012,2.814-.933,2.814-2.933a2.39364,2.39364,0,0,0-2.617-2.657,3.77629,3.77629,0,0,0-.852.075Z"/>
    <polygon class="cls-15" points="175.713 189.214 172.652 189.214 172.652 191.202 176.07 191.202 176.07 192.754 170.764 192.754 170.764 184.382 175.898 184.382 175.898 185.936 172.652 185.936 172.652 187.674 175.713 187.674 175.713 189.214"/>
    <polygon class="cls-15" points="171.108 200.44 176.194 200.44 176.194 201.994 172.995 201.994 172.995 203.906 175.982 203.906 175.982 205.447 172.995 205.447 172.995 208.812 171.108 208.812 171.108 200.44"/>
    <path class="cls-15" d="M178.3474,224.41751a9.24974,9.24974,0,0,1-2.777.472,4.62616,4.62616,0,0,1-3.384-1.131,4.06962,4.06962,0,0,1-1.171-3.043c.012-2.783,2.024-4.373,4.752-4.373a5.68691,5.68691,0,0,1,2.308.41l-.394,1.516a4.58406,4.58406,0,0,0-1.938-.36,2.72819,2.72819,0,0,0-.136,5.454,2.48883,2.48883,0,0,0,.925-.125v-1.753h-1.284v-1.477h3.099Z"/>
  </g>
  <g class="cls-23">
    <text class="cls-24" transform="translate(168.31445 97.34357)"><tspan xml:space="preserve"> A</tspan></text>
    <text class="cls-25" transform="translate(179.21387 93.87384)">++</text>
    <text class="cls-24" transform="translate(168.31445 113.13507)"><tspan xml:space="preserve"> A</tspan></text>
    <text class="cls-25" transform="translate(179.21387 109.66486)">+</text>
    <path class="cls-15" d="M27.4272,126.43744l-.593,2.148h-1.95l2.543-8.371h2.468l2.582,8.371h-2.026l-.642-2.148Zm2.111-1.416-.519-1.776c-.149-.497-.296-1.119-.42-1.615h-.024c-.122.496-.247,1.13-.383,1.615l-.494,1.776Z"/>
    <path class="cls-15" d="M24.9468,136.38474a14.94467,14.94467,0,0,1,2.432-.174,4.56758,4.56758,0,0,1,2.457.473,1.82209,1.82209,0,0,1,.998,1.639,1.89047,1.89047,0,0,1-1.368,1.789v.025a2.0906,2.0906,0,0,1,1.652,2.062,2.23633,2.23633,0,0,1-.863,1.777,5.22968,5.22968,0,0,1-3.272.757,14.2912,14.2912,0,0,1-2.036-.125Zm1.863,3.205h.618c.989,0,1.519-.41,1.519-1.031,0-.634-.482-.968-1.333-.968a5.14351,5.14351,0,0,0-.804.049Zm0,3.714a5.66525,5.66525,0,0,0,.73.026c.85,0,1.604-.335,1.604-1.205,0-.846-.754-1.18-1.69-1.18h-.644Z"/>
    <path class="cls-15" d="M31.0981,160.46841a5.26569,5.26569,0,0,1-2.137.374,3.97628,3.97628,0,0,1-4.356-4.199,4.25274,4.25274,0,0,1,4.54-4.447,4.90648,4.90648,0,0,1,2.051.372l-.383,1.504a4.04863,4.04863,0,0,0-1.581-.312,2.75361,2.75361,0,0,0,.013,5.504,4.70089,4.70089,0,0,0,1.568-.273Z"/>
    <path class="cls-15" d="M24.4132,168.50262a16.98825,16.98825,0,0,1,2.544-.172,5.32515,5.32515,0,0,1,3.407.894,3.71166,3.71166,0,0,1,1.407,3.154,4.24791,4.24791,0,0,1-1.383,3.391,5.93735,5.93735,0,0,1-3.837,1.082,16.23721,16.23721,0,0,1-2.138-.125Zm1.89,6.833a3.38244,3.38244,0,0,0,.654.038c1.705.012,2.814-.933,2.814-2.933a2.39247,2.39247,0,0,0-2.616-2.657,3.78322,3.78322,0,0,0-.852.075Z"/>
    <polygon class="cls-15" points="29.323 189.214 26.261 189.214 26.261 191.202 29.679 191.202 29.679 192.754 24.373 192.754 24.373 184.382 29.507 184.382 29.507 185.936 26.261 185.936 26.261 187.674 29.323 187.674 29.323 189.214"/>
    <polygon class="cls-15" points="24.718 200.44 29.804 200.44 29.804 201.994 26.605 201.994 26.605 203.906 29.592 203.906 29.592 205.447 26.605 205.447 26.605 208.812 24.718 208.812 24.718 200.44"/>
    <path class="cls-15" d="M31.9585,224.41751a9.26925,9.26925,0,0,1-2.778.472,4.622,4.622,0,0,1-3.383-1.131,4.0665,4.0665,0,0,1-1.172-3.043c.012-2.783,2.024-4.373,4.752-4.373a5.68689,5.68689,0,0,1,2.308.41l-.395,1.516a4.58225,4.58225,0,0,0-1.937-.36,2.72821,2.72821,0,0,0-.137,5.454,2.49132,2.49132,0,0,0,.926-.125v-1.753h-1.284v-1.477h3.1Z"/>
    <path class="cls-15" d="M27.176,110.99844l-.593,2.136h-1.94l2.533-8.326h2.47l2.595,8.326H30.203l-.643-2.136Zm2.112-1.409-.519-1.767c-.148-.494-.296-1.111-.42-1.606h-.024c-.124.495-.248,1.125-.383,1.606l-.495,1.767Z"/>
    <polygon class="cls-15" points="35.681 106.128 35.681 107.922 37.4 107.922 37.4 108.687 35.681 108.687 35.681 110.506 34.874 110.506 34.874 108.687 33.154 108.687 33.154 107.922 34.874 107.922 34.874 106.128 35.681 106.128"/>
  </g>
  <text class="cls-26" transform="translate(130.98438 299.00861)"><tspan xml:space="preserve"> m</tspan></text>
  <text class="cls-27" transform="translate(148.78223 293.68048)">3</text>
  <text class="cls-26" transform="translate(153.36133 299.00861)">/</text>
  <text class="cls-26" transform="translate(160.17773 299.00861)">h</text>
  <g>
    <polygon class="cls-28" points="119.944 314.452 106.811 322.566 132.802 322.566 119.95 314.452 119.944 314.452"/>
    <rect class="cls-28" x="113.01293" y="322.11442" width="13.61363" height="9.66251"/>
  </g>
  <g>
    <polygon class="cls-28" points="154.227 331.777 167.36 323.663 141.369 323.663 154.221 331.777 154.227 331.777"/>
    <rect class="cls-28" x="147.54445" y="314.45235" width="13.61363" height="9.66251"/>
  </g>
  <rect class="cls-1" y="0.00302" width="212.59801" height="425.19699"/>
  <g class="cls-4">
    <path class="cls-29" d="M14.2868,9.42212s-5.849,0-5.849,5.849v393.671s0,5.849,5.849,5.849h184.617s5.849,0,5.849-5.849V15.27115s0-5.849-5.849-5.849Z"/>
  </g>
  <g class="cls-4">
    
    <rect class="cls-31" x="70.809" y="17.06302" width="126.00399" height="35.56201"/>
    
    
    
    
    
    
    
    
    
    
    
    

  <g id="union-flag" transform="translate(16.443, 17.06302) scale(1.1854003333333334)">
	<path id="blue" fill="#004289" d="M9.59,20L0,26.39V20H9.59z M39.59,0H27.5v8.06L39.59,0z M0,3.61V10h9.59L0,3.61z M17.5,0H5.41
		L17.5,8.06V0z M27.5,30h12.09L27.5,21.94V30z M45,10V3.61L35.41,10H45z M45,26.39V20h-9.59L45,26.39z M5.41,30H17.5v-8.06L5.41,30z
		"/>
	<path id="red" fill="#DC2F34" d="M45,18H25.5v12h-6V18H0v-6h19.5V0h6v12H45V18z M0,2.42L11.38,10h3.61L0,0.01V2.42z M45,27.58
		L33.62,20h-3.61L45,29.99V27.58z M17.5,20.74V20H15L0,30h3.61L17.5,20.74z M27.5,9.26V10H30L45,0h-3.61L27.5,9.26z"/>
</g><path id="energy-heading" d="M7.1581,7.21791H2.33537v3.7413H7.72769v1.90845H0V.13234H7.44305V2.04079H2.33537V5.32836H7.1581Zm3.53413,5.64975V.13234h2.677L16.67314,5.593a37.85159,37.85159,0,0,1,2.18339,4.27032h.038a51.82706,51.82706,0,0,1-.20865-5.29055V.13234h2.1644V12.86766H18.41992L15.07833,7.25572a43.774,43.774,0,0,1-2.2787-4.38342l-.076.0189c.095,1.64379.133,3.32538.133,5.42289v4.55357ZM31.63845,7.21791H26.81573v3.7413h5.392v1.90845H24.48V.13234h7.44305V2.04079H26.81573V5.32836h4.82272ZM35.19126.32139A20.16965,20.16965,0,0,1,38.72282.03781a5.98372,5.98372,0,0,1,3.94949,1.02056,3.228,3.228,0,0,1,1.1012,2.56949,3.347,3.347,0,0,1-2.3357,3.17446V6.859a3.16007,3.16007,0,0,1,1.7851,2.45638,32.106,32.106,0,0,0,1.00653,3.55224H41.83707a16.17761,16.17761,0,0,1-.85455-3.00431c-.37994-1.66269-.96854-2.19171-2.2977-2.22952H37.50764v5.23383H35.19126ZM37.50764,5.933h1.38647c1.57581,0,2.5437-.83119,2.5437-2.09719,0-1.37943-.96789-2.04079-2.487-2.04079a6.74576,6.74576,0,0,0-1.44314.11343Zm19.67341,6.34892A12.70364,12.70364,0,0,1,53.08022,13a6.96331,6.96331,0,0,1-5.032-1.7005,6.3681,6.3681,0,0,1-1.78446-4.68623C46.28243,2.56982,49.1494,0,53.38353,0a8.52961,8.52961,0,0,1,3.3989.60464l-.5126,1.87065a6.6378,6.6378,0,0,0-2.905-.54793c-2.73432,0-4.65207,1.606-4.65207,4.5728,0,2.89088,1.78509,4.61029,4.44342,4.61029a4.91246,4.91246,0,0,0,1.76578-.24577v-3.193H52.66228V5.8388h4.51877Zm6.23045.58573V7.55821L59.36734.13234h2.677l1.51914,3.269c.43661.94462.75924,1.66269,1.11987,2.53169h.038c.304-.81228.66458-1.606,1.10184-2.53169L67.361.13234H70L65.74719,7.50149v5.36617Z" fill="#fff" transform="translate(81.15232052514496, 26.950064478115223) scale(1.1854003333333334)"/></g>

  <g class="cls-4">
    <line class="cls-33" x1="16.0955" y1="80.40332" x2="197.1375" y2="80.40332"/>
  </g>
  <g id="rating">
    <polyline id="ratingArrow" class="cls-34" points="151.4 108.4 163.73 95.96 197.77 95.96 197.77 121.04 163.93 121.04 151.4 108.4"/>
    <text id="ratingLetter" class="cls-35" transform="translate(164.15039 113.78986)">A</text>
    <text id="ratingPlusses" class="cls-36" transform="translate(176.78027 110.38019)">+</text>
  </g>
  <text id="supplierLine1" class="cls-37" transform="translate(16.27002 65.69025)">X</text>
  <text id="supplierLine2" class="cls-37" transform="translate(16.27002 75.69025)">X</text>
  <text id="modelLine1" class="cls-37" transform="translate(110.5498 65.69025)">X</text>
  <text id="modelLine2" class="cls-37" transform="translate(110.5498 75.69025)">X</text>
  <text id="db" class="cls-26" transform="translate(42.5 298.99982)" text-anchor="middle">X</text>
  <text id="m3h" class="cls-26" transform="translate(132.2 298.99982)" text-anchor="end">X</text>

</svg>