<svg id="Layer_1" data-name="Layer 1" xmlns="http://www.w3.org/2000/svg" xmlns:xlink="http://www.w3.org/1999/xlink" width="75mm" height="150mm" viewBox="0 0 212.60001 425.20001" data-rating-increment="16.0365" data-supplier-model-chars-per-row="15">
  <defs>
    <style>
      .cls-1, .cls-10, .cls-12, .cls-13, .cls-14, .cls-29, .cls-33, .cls-5, .cls-9 {
        fill: none;
      }

      .cls-2 {
        font-size: 19.1129px;
      }

      .cls-15, .cls-2, .cls-24, .cls-25, .cls-35, .cls-36 {
        fill: #fff;
      }

      .cls-2, .cls-26, .cls-27, .cls-3, .cls-35, .cls-6, .cls-7 {
        font-family: Calibri-Bold, Calibri;
      }

      .cls-2, .cls-24, .cls-25, .cls-26, .cls-27, .cls-3, .cls-35, .cls-6, .cls-7 {
        font-weight: 700;
      }

      .cls-3 {
        font-size: 8px;
      }

      .cls-26, .cls-27, .cls-3, .cls-34, .cls-37, .cls-38, .cls-6, .cls-7 {
        fill: #231f20;
      }

      .cls-4 {
        clip-path: url(#clip-path);
      }

      .cls-13, .cls-29, .cls-33, .cls-5, .cls-9 {
        stroke: #00aeef;
      }

      .cls-5 {
        stroke-width: 1.5px;
      }

      .cls-6 {
        font-size: 14.799px;
      }

      .cls-7 {
        font-size: 10px;
      }

      .cls-8 {
        clip-path: url(#clip-path-3);
      }

      .cls-13, .cls-9 {
        stroke-linecap: round;
        stroke-linejoin: round;
      }

      .cls-9 {
        stroke-width: 0.855px;
      }

      .cls-10, .cls-14 {
        stroke: #fff;
      }

      .cls-10 {
        stroke-width: 0.746px;
      }

      .cls-11 {
        fill: #2aace3;
      }

      .cls-12 {
        stroke: #2aace3;
        stroke-width: 0.6px;
      }

      .cls-13 {
        stroke-width: 1.519px;
      }

      .cls-14 {
        stroke-width: 0.785px;
      }

      .cls-16 {
        fill: #50b848;
      }

      .cls-17 {
        fill: #00a651;
      }

      .cls-18 {
        fill: #bfd730;
      }

      .cls-19 {
        fill: #fff200;
      }

      .cls-20 {
        fill: #fdb913;
      }

      .cls-21 {
        fill: #f37021;
      }

      .cls-22 {
        fill: #ed1c24;
      }

      .cls-23 {
        clip-path: url(#clip-path-4);
      }

      .cls-24 {
        font-size: 12.3504px;
      }

      .cls-24, .cls-25 {
        font-family: MyriadPro-Bold, Myriad Pro;
      }

      .cls-25 {
        font-size: 8.2336px;
      }

      .cls-26 {
        font-size: 16px;
      }

      .cls-27 {
        font-size: 9.328px;
      }

      .cls-28 {
        fill: #1eaae1;
      }

      .cls-29 {
        stroke-width: 2.96px;
      }

      .cls-30 {
        fill: #034ea2;
      }

      .cls-31 {
        fill: #00aeef;
      }

      .cls-32 {
        clip-path: url(#clip-path-8);
      }

      .cls-33 {
        stroke-width: 0.74px;
      }

      .cls-35 {
        font-size: 18.5px;
      }

      .cls-36, .cls-37 {
        font-size: 11px;
      }

      .cls-36, .cls-37, .cls-38 {
        font-family: Calibri;
      }

      .cls-38 {
        font-size: 6px;
      }

      .cls-39 {
        letter-spacing: -0.00928em;
      }

      .cls-40 {
        letter-spacing: -0.01709em;
      }

      .cls-41 {
        letter-spacing: -0.01465em;
      }
    </style>
    <clipPath id="clip-path">
      <rect class="cls-1" y="0.00302" width="212.59801" height="425.19699"/>
    </clipPath>
    <clipPath id="clip-path-3">
      <polygon class="cls-1" points="38.103 314.276 34.662 318.051 32.019 320.65 32.019 337.736 52.218 337.736 52.218 314.276 38.103 314.276"/>
    </clipPath>
    <clipPath id="clip-path-4">
      <rect class="cls-1" x="16.588" y="98.46301" width="128.263" height="128.812"/>
    </clipPath>
    <clipPath id="clip-path-8">
      <rect class="cls-1" x="16.429" y="16.96701" width="180.384" height="35.65799"/>
    </clipPath>
  </defs>
  <title>bidirectional-ventilation-unit</title>
  <text class="cls-2" transform="translate(160.38086 114.28204)"> </text>
  <text class="cls-3" transform="translate(16.37598 399.67755)">2016</text>
  <text class="cls-3" transform="translate(161.34375 399.67755)">1254/2014</text>
  <g class="cls-4">
    <path class="cls-5" d="M24.2555,278.66481s-7.087,0-7.087,7.087v48.623s0,7.087,7.087,7.087h37.085s7.087,0,7.087-7.087v-48.623s0-7.087-7.087-7.087Z"/>
  </g>
  <text class="cls-6" transform="translate(50.229 299.00861)"> </text>
  <text class="cls-7" transform="translate(36.60596 311.00861)">d</text>
  <text class="cls-7" transform="translate(42.02588 311.00861)">B</text>
  <g class="cls-4">
    <path class="cls-5" d="M83.0761,278.66481s-7.087,0-7.087,7.087v48.623s0,7.087,7.087,7.087h106.748s7.086,0,7.086-7.087v-48.623s0-7.087-7.086-7.087Z"/>
  </g>
  <g class="cls-8">
    <polygon class="cls-9" points="28.955 335.042 28.955 339.25 60.417 339.25 60.417 317.506 44.685 303.172 28.955 317.506 28.955 335.042"/>
    <path class="cls-10" d="M36.8368,329.57771q-1.3005-1.15949-2.599-2.318h-1.853v-3.703h1.853q1.299-1.158,2.599-2.318l1.075-.957v10.255Z"/>
    <path class="cls-11" d="M36.5085,328.76772q-1.0485-.9345-2.093-1.867h-1.493v-2.984h1.493q1.0455-.9315,2.093-1.867l.866-.771v8.26Z"/>
    <path class="cls-12" d="M36.5085,328.76772q-1.0485-.9345-2.093-1.867h-1.493v-2.984h1.493q1.0455-.9315,2.093-1.867l.866-.771v8.26Z"/>
    <path class="cls-13" d="M46.2835,315.62611a17.82793,17.82793,0,0,1,.032,19.566m-3.255-16.869a12.26249,12.26249,0,0,1,.041,14.146m-3.147-11.472a6.9183,6.9183,0,0,1,.058,8.774"/>
    <polygon class="cls-9" points="28.955 378.057 28.955 382.265 60.417 382.265 60.417 360.521 44.685 346.187 28.955 360.521 28.955 378.057"/>
    <path class="cls-14" d="M23.402,374.56711q1.368-1.221,2.736-2.44h1.951v-3.899H26.138q-1.3665-1.218-2.736-2.441l-1.132-1.008v10.797Z"/>
    <path class="cls-11" d="M23.7475,373.71411q1.1025-.9825,2.204-1.966h1.572v-3.141h-1.572c-.734-.654-1.469-1.312-2.204-1.965l-.912-.813v8.697Z"/>
    <path class="cls-12" d="M23.7475,373.71411q1.1025-.9825,2.204-1.966h1.572v-3.141h-1.572c-.734-.654-1.469-1.312-2.204-1.965l-.912-.813v8.697Z"/>
    <path class="cls-13" d="M13.4218,380.47861a18.77185,18.77185,0,0,1,.033-20.601m3.352,17.734a12.90813,12.90813,0,0,1,.043-14.893m3.208,12.053a7.28716,7.28716,0,0,1,.061-9.239"/>
  </g>
  <rect class="cls-15" x="16.588" y="98.46201" width="128.263" height="128.813"/>
  <polygon class="cls-16" points="16.588 117.698 16.588 131.21 84.99 131.21 91.682 124.454 84.99 117.698 16.588 117.698"/>
  <polygon class="cls-17" points="16.588 101.653 16.588 115.164 77.197 115.164 83.889 108.408 77.197 101.653 16.588 101.653"/>
  <polygon class="cls-18" points="16.588 133.739 16.588 147.25 92.963 147.25 99.662 140.494 92.963 133.739 16.588 133.739"/>
  <polygon class="cls-19" points="16.588 149.778 16.588 163.29 100.75 163.29 107.452 156.534 100.75 149.778 16.588 149.778"/>
  <polygon class="cls-20" points="16.588 165.819 16.588 179.329 108.537 179.329 115.242 172.573 108.537 165.819 16.588 165.819"/>
  <polygon class="cls-21" points="16.588 181.859 16.588 195.369 116.324 195.369 123.031 188.615 116.324 181.859 16.588 181.859"/>
  <polygon class="cls-22" points="16.588 197.898 16.588 211.41 124.112 211.41 130.821 204.654 124.112 197.898 16.588 197.898"/>
  <polygon class="cls-22" points="16.588 213.937 16.588 227.275 131.682 227.275 138.647 220.692 131.5 213.937 16.588 213.937"/>
  <rect class="cls-1" y="0.00302" width="212.59801" height="425.19699"/>
  <g class="cls-23">
    <path class="cls-15" d="M173.81749,126.43744l-.593,2.148h-1.95l2.543-8.371h2.468l2.58,8.371h-2.024l-.642-2.148Zm2.111-1.416-.519-1.776c-.149-.497-.296-1.119-.42-1.615h-.024c-.124.496-.247,1.13-.383,1.615l-.494,1.776Z"/>
    <path class="cls-15" d="M171.337,136.38474a14.94462,14.94462,0,0,1,2.432-.174,4.56752,4.56752,0,0,1,2.457.473,1.82207,1.82207,0,0,1,.998,1.639,1.89025,1.89025,0,0,1-1.369,1.789v.025a2.09047,2.09047,0,0,1,1.653,2.062,2.23928,2.23928,0,0,1-.863,1.777,5.23172,5.23172,0,0,1-3.272.757,14.2912,14.2912,0,0,1-2.036-.125Zm1.863,3.205h.617c.989,0,1.519-.41,1.519-1.031,0-.634-.481-.968-1.333-.968a5.13747,5.13747,0,0,0-.803.049Zm0,3.714a5.65617,5.65617,0,0,0,.729.026c.851,0,1.605-.335,1.605-1.205,0-.846-.754-1.18-1.691-1.18H173.2Z"/>
    <path class="cls-15" d="M177.487,160.46841a5.26,5.26,0,0,1-2.136.374,3.97759,3.97759,0,0,1-4.357-4.199,4.2533,4.2533,0,0,1,4.542-4.447,4.90464,4.90464,0,0,1,2.05.372l-.383,1.504a4.0431,4.0431,0,0,0-1.58-.312,2.75359,2.75359,0,0,0,.012,5.504,4.70089,4.70089,0,0,0,1.568-.273Z"/>
    <path class="cls-15" d="M170.80379,168.50262a16.96882,16.96882,0,0,1,2.544-.172,5.32385,5.32385,0,0,1,3.406.894,3.71166,3.71166,0,0,1,1.407,3.154,4.2479,4.2479,0,0,1-1.383,3.391,5.93478,5.93478,0,0,1-3.838,1.082,16.20108,16.20108,0,0,1-2.136-.125Zm1.889,6.833a3.38278,3.38278,0,0,0,.655.038c1.703.012,2.814-.933,2.814-2.933a2.39364,2.39364,0,0,0-2.617-2.657,3.77629,3.77629,0,0,0-.852.075Z"/>
    <polygon class="cls-15" points="175.713 189.214 172.652 189.214 172.652 191.202 176.07 191.202 176.07 192.754 170.764 192.754 170.764 184.382 175.898 184.382 175.898 185.936 172.652 185.936 172.652 187.674 175.713 187.674 175.713 189.214"/>
    <polygon class="cls-15" points="171.108 200.44 176.194 200.44 176.194 201.994 172.995 201.994 172.995 203.906 175.982 203.906 175.982 205.447 172.995 205.447 172.995 208.812 171.108 208.812 171.108 200.44"/>
    <path class="cls-15" d="M178.3474,224.41751a9.24974,9.24974,0,0,1-2.777.472,4.62616,4.62616,0,0,1-3.384-1.131,4.06962,4.06962,0,0,1-1.171-3.043c.012-2.783,2.024-4.373,4.752-4.373a5.68691,5.68691,0,0,1,2.308.41l-.394,1.516a4.58406,4.58406,0,0,0-1.938-.36,2.72819,2.72819,0,0,0-.136,5.454,2.48883,2.48883,0,0,0,.925-.125v-1.753h-1.284v-1.477h3.099Z"/>
  </g>
  <g class="cls-23">
    <text class="cls-24" transform="translate(168.31445 97.34357)"><tspan xml:space="preserve"> A</tspan></text>
    <text class="cls-25" transform="translate(179.21387 93.87384)">++</text>
    <text class="cls-24" transform="translate(168.31445 113.13507)"><tspan xml:space="preserve"> A</tspan></text>
    <text class="cls-25" transform="translate(179.21387 109.66486)">+</text>
    <path class="cls-15" d="M27.4272,126.43744l-.593,2.148h-1.95l2.543-8.371h2.468l2.582,8.371h-2.026l-.642-2.148Zm2.111-1.416-.519-1.776c-.149-.497-.296-1.119-.42-1.615h-.024c-.122.496-.247,1.13-.383,1.615l-.494,1.776Z"/>
    <path class="cls-15" d="M24.9468,136.38474a14.94467,14.94467,0,0,1,2.432-.174,4.56758,4.56758,0,0,1,2.457.473,1.82209,1.82209,0,0,1,.998,1.639,1.89047,1.89047,0,0,1-1.368,1.789v.025a2.0906,2.0906,0,0,1,1.652,2.062,2.23633,2.23633,0,0,1-.863,1.777,5.22968,5.22968,0,0,1-3.272.757,14.2912,14.2912,0,0,1-2.036-.125Zm1.863,3.205h.618c.989,0,1.519-.41,1.519-1.031,0-.634-.482-.968-1.333-.968a5.14351,5.14351,0,0,0-.804.049Zm0,3.714a5.66525,5.66525,0,0,0,.73.026c.85,0,1.604-.335,1.604-1.205,0-.846-.754-1.18-1.69-1.18h-.644Z"/>
    <path class="cls-15" d="M31.0981,160.46841a5.26569,5.26569,0,0,1-2.137.374,3.97628,3.97628,0,0,1-4.356-4.199,4.25274,4.25274,0,0,1,4.54-4.447,4.90648,4.90648,0,0,1,2.051.372l-.383,1.504a4.04863,4.04863,0,0,0-1.581-.312,2.75361,2.75361,0,0,0,.013,5.504,4.70089,4.70089,0,0,0,1.568-.273Z"/>
    <path class="cls-15" d="M24.4132,168.50262a16.98825,16.98825,0,0,1,2.544-.172,5.32515,5.32515,0,0,1,3.407.894,3.71166,3.71166,0,0,1,1.407,3.154,4.24791,4.24791,0,0,1-1.383,3.391,5.93735,5.93735,0,0,1-3.837,1.082,16.23721,16.23721,0,0,1-2.138-.125Zm1.89,6.833a3.38244,3.38244,0,0,0,.654.038c1.705.012,2.814-.933,2.814-2.933a2.39247,2.39247,0,0,0-2.616-2.657,3.78322,3.78322,0,0,0-.852.075Z"/>
    <polygon class="cls-15" points="29.323 189.214 26.261 189.214 26.261 191.202 29.679 191.202 29.679 192.754 24.373 192.754 24.373 184.382 29.507 184.382 29.507 185.936 26.261 185.936 26.261 187.674 29.323 187.674 29.323 189.214"/>
    <polygon class="cls-15" points="24.718 200.44 29.804 200.44 29.804 201.994 26.605 201.994 26.605 203.906 29.592 203.906 29.592 205.447 26.605 205.447 26.605 208.812 24.718 208.812 24.718 200.44"/>
    <path class="cls-15" d="M31.9585,224.41751a9.26925,9.26925,0,0,1-2.778.472,4.622,4.622,0,0,1-3.383-1.131,4.0665,4.0665,0,0,1-1.172-3.043c.012-2.783,2.024-4.373,4.752-4.373a5.68689,5.68689,0,0,1,2.308.41l-.395,1.516a4.58225,4.58225,0,0,0-1.937-.36,2.72821,2.72821,0,0,0-.137,5.454,2.49132,2.49132,0,0,0,.926-.125v-1.753h-1.284v-1.477h3.1Z"/>
    <path class="cls-15" d="M27.176,110.99844l-.593,2.136h-1.94l2.533-8.326h2.47l2.595,8.326H30.203l-.643-2.136Zm2.112-1.409-.519-1.767c-.148-.494-.296-1.111-.42-1.606h-.024c-.124.495-.248,1.125-.383,1.606l-.495,1.767Z"/>
    <polygon class="cls-15" points="35.681 106.128 35.681 107.922 37.4 107.922 37.4 108.687 35.681 108.687 35.681 110.506 34.874 110.506 34.874 108.687 33.154 108.687 33.154 107.922 34.874 107.922 34.874 106.128 35.681 106.128"/>
  </g>
  <text class="cls-26" transform="translate(130.98438 299.00861)"><tspan xml:space="preserve"> m</tspan></text>
  <text class="cls-27" transform="translate(148.78223 293.68048)">3</text>
  <text class="cls-26" transform="translate(153.36133 299.00861)">/</text>
  <text class="cls-26" transform="translate(160.17773 299.00861)">h</text>
  <g>
    <polygon class="cls-28" points="119.944 314.452 106.811 322.566 132.802 322.566 119.95 314.452 119.944 314.452"/>
    <rect class="cls-28" x="113.01293" y="322.11442" width="13.61363" height="9.66251"/>
  </g>
  <g>
    <polygon class="cls-28" points="154.227 331.777 167.36 323.663 141.369 323.663 154.221 331.777 154.227 331.777"/>
    <rect class="cls-28" x="147.54445" y="314.45235" width="13.61363" height="9.66251"/>
  </g>
  <rect class="cls-1" y="0.00302" width="212.59801" height="425.19699"/>
  <g class="cls-4">
    <path class="cls-29" d="M14.2868,9.42212s-5.849,0-5.849,5.849v393.671s0,5.849,5.849,5.849h184.617s5.849,0,5.849-5.849V15.27115s0-5.849-5.849-5.849Z"/>
  </g>
  <g class="cls-4">
    <rect class="cls-30" x="16.443" y="17.06302" width="52.626" height="35.56201"/>
    <rect class="cls-31" x="70.809" y="17.06302" width="126.00399" height="35.56201"/>
    <polygon class="cls-19" points="52.931 29.433 51.799 30.265 52.232 28.919 51.1 28.088 52.498 28.088 52.93 26.742 53.363 28.088 54.761 28.088 53.63 28.919 54.062 30.265 52.931 29.433"/>
    <polygon class="cls-19" points="47.827 24.652 46.696 23.82 48.094 23.82 48.526 22.475 48.958 23.82 50.357 23.82 49.225 24.652 49.657 25.997 48.526 25.166 47.395 25.998 47.827 24.652"/>
    <polygon class="cls-19" points="42.146 23.126 41.014 22.294 42.413 22.294 42.846 20.949 43.278 22.294 44.676 22.294 43.545 23.126 43.977 24.471 42.846 23.64 41.714 24.472 42.146 23.126"/>
    <polygon class="cls-19" points="36.163 24.652 35.032 23.82 36.43 23.82 36.862 22.475 37.295 23.82 38.693 23.82 37.562 24.652 37.994 25.997 36.863 25.166 35.731 25.998 36.163 24.652"/>
    <polygon class="cls-19" points="31.889 29.128 30.758 28.296 32.156 28.296 32.588 26.951 33.02 28.296 34.419 28.296 33.288 29.128 33.72 30.473 32.588 29.642 31.457 30.474 31.889 29.128"/>
    <polygon class="cls-19" points="30.524 35.009 29.393 34.177 30.791 34.177 31.223 32.832 31.655 34.177 33.054 34.177 31.923 35.009 32.354 36.354 31.223 35.523 30.092 36.355 30.524 35.009"/>
    <polygon class="cls-19" points="31.932 40.968 30.801 40.136 32.199 40.136 32.631 38.791 33.063 40.136 34.462 40.136 33.331 40.968 33.762 42.313 32.631 41.482 31.5 42.314 31.932 40.968"/>
    <polygon class="cls-19" points="36.163 45.202 35.032 44.37 36.43 44.37 36.862 43.025 37.295 44.37 38.693 44.37 37.562 45.202 37.994 46.547 36.863 45.716 35.731 46.547 36.163 45.202"/>
    <polygon class="cls-19" points="42.845 47.293 41.713 48.125 42.145 46.779 41.014 45.947 42.412 45.947 42.845 44.602 43.277 45.947 44.675 45.947 43.544 46.779 43.976 48.125 42.845 47.293"/>
    <polygon class="cls-19" points="48.666 45.695 47.535 46.527 47.966 45.181 46.835 44.349 48.234 44.349 48.666 43.003 49.098 44.349 50.497 44.349 49.365 45.181 49.797 46.527 48.666 45.695"/>
    <polygon class="cls-19" points="52.201 40.929 51.07 40.097 52.468 40.097 52.9 38.752 53.332 40.097 54.731 40.097 53.599 40.929 54.032 42.275 52.9 41.443 51.768 42.275 52.201 40.929"/>
    <polygon class="cls-19" points="53.76 34.927 52.628 34.095 54.027 34.095 54.459 32.75 54.891 34.095 56.29 34.095 55.159 34.927 55.59 36.272 54.46 35.441 53.328 36.273 53.76 34.927"/>
    <polygon class="cls-15" points="77.693 38.301 77.693 23.145 86.405 23.145 86.405 25.416 80.427 25.416 80.427 29.329 86.072 29.329 86.072 31.577 80.427 31.577 80.427 36.03 86.739 36.03 86.739 38.301 77.693 38.301"/>
  </g>
  <g class="cls-32">
    <path class="cls-15" d="M90.2502,38.30112v-15.156h3.112l3.867,6.498a41.96955,41.96955,0,0,1,2.556,5.082h.044c-.178-2.023-.244-3.98-.244-6.296v-5.284h2.534v15.156h-2.823l-3.912-6.679a50.0975,50.0975,0,0,1-2.689-5.217l-.067.023c.111,1.956.134,3.958.134,6.453v5.42Z"/>
    <polygon class="cls-15" points="114.765 31.577 109.119 31.577 109.119 36.029 115.432 36.029 115.432 38.301 106.386 38.301 106.386 23.144 115.098 23.144 115.098 25.416 109.119 25.416 109.119 29.328 114.765 29.328 114.765 31.577"/>
    <path class="cls-15" d="M118.94309,23.34732a25.64781,25.64781,0,0,1,4.134-.315c2.156,0,3.623.36,4.623,1.214a3.85717,3.85717,0,0,1,1.289,3.036,4.03724,4.03724,0,0,1-2.711,3.8v.068a3.85368,3.85368,0,0,1,2.089,2.923,30.61125,30.61125,0,0,0,1.178,4.228h-2.823a21.62877,21.62877,0,0,1-1-3.576c-.422-1.979-1.133-2.608-2.689-2.653h-1.378v6.229h-2.712Zm2.712,6.701h1.622c1.845,0,3.001-.989,3.001-2.496,0-1.664-1.156-2.429-2.934-2.429a7.792,7.792,0,0,0-1.689.135Z"/>
    <path class="cls-15" d="M144.7029,37.60391a14.68025,14.68025,0,0,1-4.823.855,8.01769,8.01769,0,0,1-5.868-2.024,7.55717,7.55717,0,0,1-2.089-5.577c0-4.79,3.378-7.871,8.335-7.871a9.82556,9.82556,0,0,1,3.978.72l-.6,2.226a7.9824,7.9824,0,0,0-3.401-.652c-3.2,0-5.445,1.912-5.445,5.442,0,3.441,2.089,5.487,5.201,5.487a5.18168,5.18168,0,0,0,2.067-.315v-3.778h-2.645v-2.181h5.29Z"/>
    <path class="cls-15" d="M77.4236,44.48383c.025.708.615,1.014,1.283,1.014a3.29617,3.29617,0,0,0,1.154-.177l.154.684a4.11722,4.11722,0,0,1-1.454.249,1.92179,1.92179,0,0,1-2.147-1.987,1.991,1.991,0,0,1,2.036-2.109,1.73719,1.73719,0,0,1,1.796,1.908,2.29865,2.29865,0,0,1-.034.418Zm1.83-.692a.858.858,0,0,0-.864-.957.99333.99333,0,0,0-.966.957Z"/>
    <polygon class="cls-15" points="82.178 42.247 82.178 43.744 83.786 43.744 83.786 42.247 84.838 42.247 84.838 46.166 83.786 46.166 83.786 44.516 82.178 44.516 82.178 46.166 81.126 46.166 81.126 42.247 82.178 42.247"/>
    <path class="cls-15" d="M86.7448,44.48383c.026.708.616,1.014,1.283,1.014a3.29613,3.29613,0,0,0,1.154-.177l.154.684a4.11712,4.11712,0,0,1-1.454.249,1.9218,1.9218,0,0,1-2.147-1.987,1.991,1.991,0,0,1,2.036-2.109,1.73719,1.73719,0,0,1,1.796,1.908,2.29865,2.29865,0,0,1-.034.418Zm1.83-.692a.85679.85679,0,0,0-.864-.957.99333.99333,0,0,0-.966.957Z"/>
    <path class="cls-15" d="M90.45589,43.5502c0-.515-.017-.933-.034-1.304h.923l.052.604h.017a1.65392,1.65392,0,0,1,1.428-.692,1.82074,1.82074,0,0,1,1.754,1.996,1.91283,1.91283,0,0,1-1.899,2.1,1.39951,1.39951,0,0,1-1.172-.523h-.017v2.028h-1.052Zm1.052.974a.95348.95348,0,0,0,.034.274.94171.94171,0,0,0,.924.692c.667,0,1.061-.523,1.061-1.296,0-.692-.36-1.255-1.035-1.255a.96583.96583,0,0,0-.941.732.83524.83524,0,0,0-.043.249Z"/>
    <polygon class="cls-15" points="98.247 42.247 98.247 43.028 96.545 43.028 96.545 46.166 95.493 46.166 95.493 42.247 98.247 42.247"/>
    <path class="cls-15" d="M99.9228,42.24661v1.409c0,.619-.026,1.037-.06,1.585h.026c.222-.459.351-.749.564-1.159l1.027-1.835h1.274v3.919h-1.001v-1.4c0-.628.026-.917.069-1.658h-.034c-.206.467-.342.749-.548,1.127-.325.579-.701,1.287-1.06,1.931h-1.258v-3.919Z"/>
    <path class="cls-15" d="M107.3379,46.16531h-1.044v-1.553h-.393a.84387.84387,0,0,0-.642.258,2.5121,2.5121,0,0,0-.513.974,2.6955,2.6955,0,0,1-.163.321h-1.129a1.966,1.966,0,0,0,.257-.434,3.29331,3.29331,0,0,1,.624-1.127,1.00852,1.00852,0,0,1,.497-.265v-.024c-.497-.049-1.087-.354-1.087-.966a.986.986,0,0,1,.642-.909,3.59189,3.59189,0,0,1,1.471-.25,11.74023,11.74023,0,0,1,1.48.089Zm-1.044-3.307a2.95924,2.95924,0,0,0-.522-.04c-.462,0-.932.153-.932.587,0,.411.522.588.932.588.248,0,.385,0,.522-.008Z"/>
    <path class="cls-15" d="M110.7491,44.70132a.61415.61415,0,0,1-.641-.636.62071.62071,0,0,1,.649-.636.63616.63616,0,1,1,0,1.272Z"/>
    <path class="cls-15" d="M114.8964,44.0574c-.496-.129-.77-.435-.77-.821,0-.531.565-1.078,1.754-1.078a2.61589,2.61589,0,0,1,1.334.297l-.197.636a2.35884,2.35884,0,0,0-1.009-.233c-.505,0-.821.193-.821.467,0,.314.419.442,1.043.45h.454v.66h-.462c-.667.008-1.172.137-1.172.515,0,.371.453.563.966.563a2.94935,2.94935,0,0,0,1.172-.273l.154.66a3.37243,3.37243,0,0,1-1.582.354c-.881,0-1.83-.314-1.83-1.199a1.06385,1.06385,0,0,1,.966-.966Z"/>
    <path class="cls-15" d="M118.7274,42.24661l.667,1.988c.12.346.197.66.3.998h.034a6.75175,6.75175,0,0,0,.872-2.648v-.338h.984a1.63015,1.63015,0,0,1,.026.298,7.77188,7.77188,0,0,1-1.514,3.621h-1.018l-1.48-3.919Z"/>
    <path class="cls-15" d="M123.046,44.0574c-.496-.129-.77-.435-.77-.821,0-.531.565-1.078,1.754-1.078a2.61589,2.61589,0,0,1,1.334.297l-.196.636a2.36754,2.36754,0,0,0-1.01-.233c-.505,0-.821.193-.821.467,0,.314.419.442,1.043.45h.454v.66h-.462c-.667.008-1.172.137-1.172.515,0,.371.453.563.966.563a2.9494,2.9494,0,0,0,1.172-.273l.154.66a3.37248,3.37248,0,0,1-1.582.354c-.881,0-1.83-.314-1.83-1.199a1.06385,1.06385,0,0,1,.966-.966Z"/>
    <path class="cls-15" d="M127.2534,45.78784v.555a10.02932,10.02932,0,0,0,.06,1.416h-1.018a6.80611,6.80611,0,0,1-.094-1.4v-1.795a2.21455,2.21455,0,0,1,.71-1.891,2.06948,2.06948,0,0,1,1.42-.515,1.89089,1.89089,0,0,1,1.993,2.012,1.93162,1.93162,0,0,1-1.925,2.085,1.38454,1.38454,0,0,1-1.129-.467Zm0-1.175a1.25208,1.25208,0,0,0,.025.257.97178.97178,0,0,0,.924.62c.668,0,1.052-.555,1.052-1.295,0-.693-.367-1.224-.992-1.224-.53,0-1.009.435-1.009,1.336Z"/>
    <path class="cls-15" d="M132.1021,47.759a8.4233,8.4233,0,0,0-.145-2.261,10.66275,10.66275,0,0,0-1.454-3.251h1.18a9.1501,9.1501,0,0,1,1.112,2.849h.034a6.13713,6.13713,0,0,0,.787-2.535c0-.153-.009-.234-.009-.314h1.001a1.52389,1.52389,0,0,1,.017.29,6.70889,6.70889,0,0,1-1.471,3.452.31768.31768,0,0,0-.051.193c.017.394.017,1.038.026,1.577Z"/>
    <path class="cls-15" d="M136.0443,44.0574c-.496-.129-.77-.435-.77-.821,0-.531.565-1.078,1.754-1.078a2.61849,2.61849,0,0,1,1.334.297l-.197.636a2.35874,2.35874,0,0,0-1.009-.233c-.505,0-.821.193-.821.467,0,.314.419.442,1.043.45h.454v.66h-.462c-.667.008-1.172.137-1.172.515,0,.371.453.563.966.563a2.94935,2.94935,0,0,0,1.172-.273l.154.66a3.37536,3.37536,0,0,1-1.582.354c-.881,0-1.83-.314-1.83-1.199a1.06384,1.06384,0,0,1,.966-.966Z"/>
    <path class="cls-15" d="M140.2863,45.06342c0,.322.102.45.393.435l-.059.691a1.357,1.357,0,0,1-.454.065c-.564,0-.941-.225-.941-1.095v-2.913h1.061Z"/>
    <path class="cls-15" d="M145.315,42.24661c-.051.531-.12,1.738-.12,2.672,0,.443.146.595.403.587l-.069.7a1.29316,1.29316,0,0,1-.368.049.77715.77715,0,0,1-.812-.765h-.026a1.55,1.55,0,0,1-1.377.765,1.77779,1.77779,0,0,1-1.719-1.972,1.994,1.994,0,0,1,1.882-2.124,1.2882,1.2882,0,0,1,1.197.684h.034c.026-.242.06-.427.094-.596Zm-3.019,2.004c0,.66.359,1.215.932,1.215a1.049,1.049,0,0,0,.924-.845,2.54414,2.54414,0,0,0,.034-.459,1.63111,1.63111,0,0,0-.026-.37.959.959,0,0,0-.88-.869c-.591,0-.984.588-.984,1.32Z"/>
    <path class="cls-15" d="M150.392,26.3613a7.627,7.627,0,1,1,7.627,7.716,7.67168,7.67168,0,0,1-7.627-7.716"/>
    <path class="cls-31" d="M157.4991,29.2536v-2.66l-1.993-3.721h1.31l.758,1.638c.215.474.374.833.542,1.269h.019c.159-.407.337-.805.552-1.269l.758-1.638h1.301l-2.096,3.693v2.688Z"/>
    <path class="cls-15" d="M167.9386,26.3613a7.627,7.627,0,1,1,7.627,7.716,7.67168,7.67168,0,0,1-7.627-7.716"/>
    <path class="cls-15" d="M150.392,43.4711a7.627,7.627,0,1,1,7.627,7.716,7.67167,7.67167,0,0,1-7.627-7.716"/>
    <rect class="cls-31" x="155.11301" y="39.983" width="1.151" height="6.38101"/>
    <polygon class="cls-31" points="161.111 43.533 158.734 43.533 158.734 45.407 161.392 45.407 161.392 46.364 157.584 46.364 157.584 39.983 161.251 39.983 161.251 40.939 158.734 40.939 158.734 42.586 161.111 42.586 161.111 43.533"/>
    <path class="cls-15" d="M167.9386,43.4711a7.627,7.627,0,1,1,7.627,7.716,7.67167,7.67167,0,0,1-7.627-7.716"/>
    <rect class="cls-31" x="170.259" y="22.87299" width="1.151" height="6.38101"/>
    <path class="cls-31" d="M173.9834,22.873h1.151V27.01c0,1.761-.842,2.348-2.096,2.348a3.02653,3.02653,0,0,1-.964-.152l.141-.937a2.4833,2.4833,0,0,0,.711.114c.655,0,1.057-.303,1.057-1.411Z"/>
    <path class="cls-31" d="M177.661,27.44513l-.543,1.809H175.93l2.021-6.381h1.469l2.049,6.381h-1.235l-.57-1.809Zm1.806-.88-.496-1.571c-.122-.389-.225-.824-.318-1.193h-.019c-.093.369-.187.814-.299,1.193l-.487,1.571Z"/>
    <rect class="cls-31" x="172.093" y="39.98401" width="1.151" height="6.38"/>
    <path class="cls-31" d="M175.827,44.5556l-.543,1.808h-1.188l2.021-6.38h1.469l2.049,6.38H178.4l-.571-1.808Zm1.806-.88-.496-1.572c-.122-.388-.225-.823-.318-1.192H176.8c-.093.369-.187.814-.299,1.192l-.487,1.572Z"/>
  </g>
  <g class="cls-4">
    <line class="cls-33" x1="16.0955" y1="80.40332" x2="197.1375" y2="80.40332"/>
  </g>
  <g id="rating">
    <polyline id="ratingArrow" class="cls-34" points="151.4 108.4 163.73 95.96 197.77 95.96 197.77 121.04 163.93 121.04 151.4 108.4"/>
    <text id="ratingLetter" class="cls-35" transform="translate(164.15039 113.78986)">A</text>
    <text id="ratingPlusses" class="cls-36" transform="translate(176.78027 110.38019)">+</text>
  </g>
  <text id="supplierLine1" class="cls-37" transform="translate(16.27002 65.69025)">X</text>
  <text id="supplierLine2" class="cls-37" transform="translate(16.27002 75.69025)">X</text>
  <text id="modelLine1" class="cls-37" transform="translate(110.5498 65.69025)">X</text>
  <text id="modelLine2" class="cls-37" transform="translate(110.5498 75.69025)">X</text>
  <text id="db" class="cls-26" transform="translate(42.5 298.99982)" text-anchor="middle">X</text>
  <text id="m3h" class="cls-26" transform="translate(132.2 298.99982)" text-anchor="end">X</text>
  <text class="cls-38" transform="translate(18.68787 388.12286)">ENE<tspan class="cls-39" x="9.73242" y="0">R</tspan><tspan x="12.93457" y="0">GIA · ЕНЕРГИЯ · ΕΝΕΡΓΕΙΑ · ENE</tspan><tspan class="cls-39" x="89.8125" y="0">R</tspan><tspan x="93.01465" y="0">GI</tspan><tspan class="cls-40" x="98.31152" y="0">J</tspan><tspan x="100.12207" y="0">A · ENE</tspan><tspan class="cls-39" x="117.55371" y="0">R</tspan><tspan class="cls-41" x="120.75586" y="0">G</tspan><tspan x="124.45313" y="0">Y · ENE</tspan><tspan class="cls-39" x="141.33691" y="0">R</tspan><tspan x="144.53906" y="0">GIE · ENE</tspan><tspan class="cls-39" x="166.72559" y="0">R</tspan><tspan x="169.92773" y="0">GI</tspan></text>
</svg>
