<svg xmlns="http://www.w3.org/2000/svg" xmlns:xlink="http://www.w3.org/1999/xlink" id="Layer_1" data-name="Layer 1" width="75mm" height="150mm" viewBox="0 0 212.60001 425.20001" data-rating-increment="16.0365" data-supplier-model-chars-per-row="15">
  <defs>
    <style>
      .cls-1, .cls-10, .cls-12, .cls-13, .cls-14, .cls-29, .cls-33, .cls-5, .cls-9 {
        fill: none;
      }

      .cls-2 {
        font-size: 19.1129px;
      }

      .cls-15, .cls-2, .cls-24, .cls-25, .cls-35, .cls-36 {
        fill: #fff;
      }

      .cls-2, .cls-26, .cls-27, .cls-3, .cls-35, .cls-6, .cls-7 {
        font-family: Calibri-Bold, Calibri;
      }

      .cls-2, .cls-24, .cls-25, .cls-26, .cls-27, .cls-3, .cls-35, .cls-6, .cls-7 {
        font-weight: 700;
      }

      .cls-3 {
        font-size: 8px;
      }

      .cls-26, .cls-27, .cls-3, .cls-34, .cls-37, .cls-38, .cls-6, .cls-7 {
        fill: #231f20;
      }

      .cls-4 {
        clip-path: url(#clip-path);
      }

      .cls-13, .cls-29, .cls-33, .cls-5, .cls-9 {
        stroke: #00aeef;
      }

      .cls-5 {
        stroke-width: 1.5px;
      }

      .cls-6 {
        font-size: 14.799px;
      }

      .cls-7 {
        font-size: 10px;
      }

      .cls-8 {
        clip-path: url(#clip-path-3);
      }

      .cls-13, .cls-9 {
        stroke-linecap: round;
        stroke-linejoin: round;
      }

      .cls-9 {
        stroke-width: 0.855px;
      }

      .cls-10, .cls-14 {
        stroke: #fff;
      }

      .cls-10 {
        stroke-width: 0.746px;
      }

      .cls-11 {
        fill: #2aace3;
      }

      .cls-12 {
        stroke: #2aace3;
        stroke-width: 0.6px;
      }

      .cls-13 {
        stroke-width: 1.519px;
      }

      .cls-14 {
        stroke-width: 0.785px;
      }

      .cls-16 {
        fill: #50b848;
      }

      .cls-17 {
        fill: #00a651;
      }

      .cls-18 {
        fill: #bfd730;
      }

      .cls-19 {
        fill: #fff200;
      }

      .cls-20 {
        fill: #fdb913;
      }

      .cls-21 {
        fill: #f37021;
      }

      .cls-22 {
        fill: #ed1c24;
      }

      .cls-23 {
        clip-path: url(#clip-path-4);
      }

      .cls-24 {
        font-size: 12.3504px;
      }

      .cls-24, .cls-25 {
        font-family: MyriadPro-Bold, Myriad Pro;
      }

      .cls-25 {
        font-size: 8.2336px;
      }

      .cls-26 {
        font-size: 16px;
      }

      .cls-27 {
        font-size: 9.328px;
      }

      .cls-28 {
        fill: #1eaae1;
      }

      .cls-29 {
        stroke-width: 2.96px;
      }

      .cls-30 {
        fill: #034ea2;
      }

      .cls-31 {
        fill: #00aeef;
      }

      .cls-32 {
        clip-path: url(#clip-path-9);
      }

      .cls-33 {
        stroke-width: 0.74px;
      }

      .cls-35 {
        font-size: 18.5px;
      }

      .cls-36, .cls-37 {
        font-size: 11px;
      }

      .cls-36, .cls-37, .cls-38 {
        font-family: Calibri;
      }

      .cls-38 {
        font-size: 6px;
      }

      .cls-39 {
        letter-spacing: -0.00928em;
      }

      .cls-40 {
        letter-spacing: -0.01709em;
      }

      .cls-41 {
        letter-spacing: -0.01465em;
      }
    </style>
    <clipPath id="clip-path">
      <rect class="cls-1" y="0.00302" width="212.59801" height="425.19699"/>
    </clipPath>
    <clipPath id="clip-path-3">
      <polygon class="cls-1" points="38.103 314.276 34.662 318.051 32.019 320.65 32.019 337.736 52.218 337.736 52.218 314.276 38.103 314.276"/>
    </clipPath>
    <clipPath id="clip-path-4">
      <rect class="cls-1" x="16.588" y="98.46301" width="128.263" height="128.812"/>
    </clipPath>
    <clipPath id="clip-path-9">
      <rect class="cls-1" x="16.429" y="16.96701" width="180.384" height="35.65799"/>
    </clipPath>
  </defs>
  <title>unidirectional-ventilation-unit</title>
  <text class="cls-2" transform="translate(160.38086 114.28204)"> </text>
  <text class="cls-3" transform="translate(16.37598 399.67755)">2016</text>
  <text class="cls-3" transform="translate(161.34375 399.67755)">1254/2014</text>
  <g class="cls-4">
    <path class="cls-5" d="M24.2555,278.66481s-7.087,0-7.087,7.087v48.623s0,7.087,7.087,7.087h37.085s7.087,0,7.087-7.087v-48.623s0-7.087-7.087-7.087Z"/>
  </g>
  <text class="cls-6" transform="translate(50.229 299.00861)"> </text>
  <text class="cls-7" transform="translate(36.60596 311.00861)">d</text>
  <text class="cls-7" transform="translate(42.02588 311.00861)">B</text>
  <g class="cls-4">
    <path class="cls-5" d="M83.0761,278.66481s-7.087,0-7.087,7.087v48.623s0,7.087,7.087,7.087h106.748s7.086,0,7.086-7.087v-48.623s0-7.087-7.086-7.087Z"/>
  </g>
  <g class="cls-8">
    <polygon class="cls-9" points="28.955 335.042 28.955 339.25 60.417 339.25 60.417 317.506 44.685 303.172 28.955 317.506 28.955 335.042"/>
    <path class="cls-10" d="M36.8368,329.57771q-1.3005-1.15949-2.599-2.318h-1.853v-3.703h1.853q1.299-1.158,2.599-2.318l1.075-.957v10.255Z"/>
    <path class="cls-11" d="M36.5085,328.76772q-1.0485-.9345-2.093-1.867h-1.493v-2.984h1.493q1.0455-.9315,2.093-1.867l.866-.771v8.26Z"/>
    <path class="cls-12" d="M36.5085,328.76772q-1.0485-.9345-2.093-1.867h-1.493v-2.984h1.493q1.0455-.9315,2.093-1.867l.866-.771v8.26Z"/>
    <path class="cls-13" d="M46.2835,315.62611a17.82793,17.82793,0,0,1,.032,19.566m-3.255-16.869a12.26249,12.26249,0,0,1,.041,14.146m-3.147-11.472a6.9183,6.9183,0,0,1,.058,8.774"/>
    <polygon class="cls-9" points="28.955 378.057 28.955 382.265 60.417 382.265 60.417 360.521 44.685 346.187 28.955 360.521 28.955 378.057"/>
    <path class="cls-14" d="M23.402,374.56711q1.368-1.221,2.736-2.44h1.951v-3.899H26.138q-1.3665-1.218-2.736-2.441l-1.132-1.008v10.797Z"/>
    <path class="cls-11" d="M23.7475,373.71411q1.1025-.9825,2.204-1.966h1.572v-3.141h-1.572c-.734-.654-1.469-1.312-2.204-1.965l-.912-.813v8.697Z"/>
    <path class="cls-12" d="M23.7475,373.71411q1.1025-.9825,2.204-1.966h1.572v-3.141h-1.572c-.734-.654-1.469-1.312-2.204-1.965l-.912-.813v8.697Z"/>
    <path class="cls-13" d="M13.4218,380.47861a18.77185,18.77185,0,0,1,.033-20.601m3.352,17.734a12.90813,12.90813,0,0,1,.043-14.893m3.208,12.053a7.28716,7.28716,0,0,1,.061-9.239"/>
  </g>
  <rect class="cls-15" x="16.588" y="98.46201" width="128.263" height="128.813"/>
  <polygon class="cls-16" points="16.588 117.698 16.588 131.21 84.99 131.21 91.682 124.454 84.99 117.698 16.588 117.698"/>
  <polygon class="cls-17" points="16.588 101.653 16.588 115.164 77.197 115.164 83.889 108.408 77.197 101.653 16.588 101.653"/>
  <polygon class="cls-18" points="16.588 133.739 16.588 147.25 92.963 147.25 99.662 140.494 92.963 133.739 16.588 133.739"/>
  <polygon class="cls-19" points="16.588 149.778 16.588 163.29 100.75 163.29 107.452 156.534 100.75 149.778 16.588 149.778"/>
  <polygon class="cls-20" points="16.588 165.819 16.588 179.329 108.537 179.329 115.242 172.573 108.537 165.819 16.588 165.819"/>
  <polygon class="cls-21" points="16.588 181.859 16.588 195.369 116.324 195.369 123.031 188.615 116.324 181.859 16.588 181.859"/>
  <polygon class="cls-22" points="16.588 197.898 16.588 211.41 124.112 211.41 130.821 204.654 124.112 197.898 16.588 197.898"/>
  <polygon class="cls-22" points="16.588 213.937 16.588 227.275 131.682 227.275 138.647 220.692 131.5 213.937 16.588 213.937"/>
  <rect class="cls-1" y="0.00302" width="212.59801" height="425.19699"/>
  <g class="cls-23">
    <path class="cls-15" d="M173.81749,126.43744l-.593,2.148h-1.95l2.543-8.371h2.468l2.58,8.371h-2.024l-.642-2.148Zm2.111-1.416-.519-1.776c-.149-.497-.296-1.119-.42-1.615h-.024c-.124.496-.247,1.13-.383,1.615l-.494,1.776Z"/>
    <path class="cls-15" d="M171.337,136.38474a14.94462,14.94462,0,0,1,2.432-.174,4.56752,4.56752,0,0,1,2.457.473,1.82207,1.82207,0,0,1,.998,1.639,1.89025,1.89025,0,0,1-1.369,1.789v.025a2.09047,2.09047,0,0,1,1.653,2.062,2.23928,2.23928,0,0,1-.863,1.777,5.23172,5.23172,0,0,1-3.272.757,14.2912,14.2912,0,0,1-2.036-.125Zm1.863,3.205h.617c.989,0,1.519-.41,1.519-1.031,0-.634-.481-.968-1.333-.968a5.13747,5.13747,0,0,0-.803.049Zm0,3.714a5.65617,5.65617,0,0,0,.729.026c.851,0,1.605-.335,1.605-1.205,0-.846-.754-1.18-1.691-1.18H173.2Z"/>
    <path class="cls-15" d="M177.487,160.46841a5.26,5.26,0,0,1-2.136.374,3.97759,3.97759,0,0,1-4.357-4.199,4.2533,4.2533,0,0,1,4.542-4.447,4.90464,4.90464,0,0,1,2.05.372l-.383,1.504a4.0431,4.0431,0,0,0-1.58-.312,2.75359,2.75359,0,0,0,.012,5.504,4.70089,4.70089,0,0,0,1.568-.273Z"/>
    <path class="cls-15" d="M170.80379,168.50262a16.96882,16.96882,0,0,1,2.544-.172,5.32385,5.32385,0,0,1,3.406.894,3.71166,3.71166,0,0,1,1.407,3.154,4.2479,4.2479,0,0,1-1.383,3.391,5.93478,5.93478,0,0,1-3.838,1.082,16.20108,16.20108,0,0,1-2.136-.125Zm1.889,6.833a3.38278,3.38278,0,0,0,.655.038c1.703.012,2.814-.933,2.814-2.933a2.39364,2.39364,0,0,0-2.617-2.657,3.77629,3.77629,0,0,0-.852.075Z"/>
    <polygon class="cls-15" points="175.713 189.214 172.652 189.214 172.652 191.202 176.07 191.202 176.07 192.754 170.764 192.754 170.764 184.382 175.898 184.382 175.898 185.936 172.652 185.936 172.652 187.674 175.713 187.674 175.713 189.214"/>
    <polygon class="cls-15" points="171.108 200.44 176.194 200.44 176.194 201.994 172.995 201.994 172.995 203.906 175.982 203.906 175.982 205.447 172.995 205.447 172.995 208.812 171.108 208.812 171.108 200.44"/>
    <path class="cls-15" d="M178.3474,224.41751a9.24974,9.24974,0,0,1-2.777.472,4.62616,4.62616,0,0,1-3.384-1.131,4.06962,4.06962,0,0,1-1.171-3.043c.012-2.783,2.024-4.373,4.752-4.373a5.68691,5.68691,0,0,1,2.308.41l-.394,1.516a4.58406,4.58406,0,0,0-1.938-.36,2.72819,2.72819,0,0,0-.136,5.454,2.48883,2.48883,0,0,0,.925-.125v-1.753h-1.284v-1.477h3.099Z"/>
  </g>
  <g class="cls-23">
    <text class="cls-24" transform="translate(168.31445 97.34357)"><tspan xml:space="preserve"> A</tspan></text>
    <text class="cls-25" transform="translate(179.21387 93.87384)">++</text>
    <text class="cls-24" transform="translate(168.31445 113.13507)"><tspan xml:space="preserve"> A</tspan></text>
    <text class="cls-25" transform="translate(179.21387 109.66486)">+</text>
    <path class="cls-15" d="M27.4272,126.43744l-.593,2.148h-1.95l2.543-8.371h2.468l2.582,8.371h-2.026l-.642-2.148Zm2.111-1.416-.519-1.776c-.149-.497-.296-1.119-.42-1.615h-.024c-.122.496-.247,1.13-.383,1.615l-.494,1.776Z"/>
    <path class="cls-15" d="M24.9468,136.38474a14.94467,14.94467,0,0,1,2.432-.174,4.56758,4.56758,0,0,1,2.457.473,1.82209,1.82209,0,0,1,.998,1.639,1.89047,1.89047,0,0,1-1.368,1.789v.025a2.0906,2.0906,0,0,1,1.652,2.062,2.23633,2.23633,0,0,1-.863,1.777,5.22968,5.22968,0,0,1-3.272.757,14.2912,14.2912,0,0,1-2.036-.125Zm1.863,3.205h.618c.989,0,1.519-.41,1.519-1.031,0-.634-.482-.968-1.333-.968a5.14351,5.14351,0,0,0-.804.049Zm0,3.714a5.66525,5.66525,0,0,0,.73.026c.85,0,1.604-.335,1.604-1.205,0-.846-.754-1.18-1.69-1.18h-.644Z"/>
    <path class="cls-15" d="M31.0981,160.46841a5.26569,5.26569,0,0,1-2.137.374,3.97628,3.97628,0,0,1-4.356-4.199,4.25274,4.25274,0,0,1,4.54-4.447,4.90648,4.90648,0,0,1,2.051.372l-.383,1.504a4.04863,4.04863,0,0,0-1.581-.312,2.75361,2.75361,0,0,0,.013,5.504,4.70089,4.70089,0,0,0,1.568-.273Z"/>
    <path class="cls-15" d="M24.4132,168.50262a16.98825,16.98825,0,0,1,2.544-.172,5.32515,5.32515,0,0,1,3.407.894,3.71166,3.71166,0,0,1,1.407,3.154,4.24791,4.24791,0,0,1-1.383,3.391,5.93735,5.93735,0,0,1-3.837,1.082,16.23721,16.23721,0,0,1-2.138-.125Zm1.89,6.833a3.38244,3.38244,0,0,0,.654.038c1.705.012,2.814-.933,2.814-2.933a2.39247,2.39247,0,0,0-2.616-2.657,3.78322,3.78322,0,0,0-.852.075Z"/>
    <polygon class="cls-15" points="29.323 189.214 26.261 189.214 26.261 191.202 29.679 191.202 29.679 192.754 24.373 192.754 24.373 184.382 29.507 184.382 29.507 185.936 26.261 185.936 26.261 187.674 29.323 187.674 29.323 189.214"/>
    <polygon class="cls-15" points="24.718 200.44 29.804 200.44 29.804 201.994 26.605 201.994 26.605 203.906 29.592 203.906 29.592 205.447 26.605 205.447 26.605 208.812 24.718 208.812 24.718 200.44"/>
    <path class="cls-15" d="M31.9585,224.41751a9.26925,9.26925,0,0,1-2.778.472,4.622,4.622,0,0,1-3.383-1.131,4.0665,4.0665,0,0,1-1.172-3.043c.012-2.783,2.024-4.373,4.752-4.373a5.68689,5.68689,0,0,1,2.308.41l-.395,1.516a4.58225,4.58225,0,0,0-1.937-.36,2.72821,2.72821,0,0,0-.137,5.454,2.49132,2.49132,0,0,0,.926-.125v-1.753h-1.284v-1.477h3.1Z"/>
    <path class="cls-15" d="M27.176,110.99844l-.593,2.136h-1.94l2.533-8.326h2.47l2.595,8.326H30.203l-.643-2.136Zm2.112-1.409-.519-1.767c-.148-.494-.296-1.111-.42-1.606h-.024c-.124.495-.248,1.125-.383,1.606l-.495,1.767Z"/>
    <polygon class="cls-15" points="35.681 106.128 35.681 107.922 37.4 107.922 37.4 108.687 35.681 108.687 35.681 110.506 34.874 110.506 34.874 108.687 33.154 108.687 33.154 107.922 34.874 107.922 34.874 106.128 35.681 106.128"/>
  </g>
  <text class="cls-26" transform="translate(130.98438 299.00861)"><tspan xml:space="preserve"> m</tspan></text>
  <text class="cls-27" transform="translate(148.78223 293.68048)">3</text>
  <text class="cls-26" transform="translate(153.36133 299.00861)">/</text>
  <text class="cls-26" transform="translate(160.17773 299.00861)">h</text>
  <g class="cls-4">
    <polygon class="cls-28" points="137.105 310.788 122.586 319.758 151.319 319.758 137.111 310.788 137.105 310.788"/>
    <rect class="cls-28" x="129.442" y="319.25801" width="15.05" height="10.682"/>
  </g>
  <g class="cls-4">
    <path class="cls-29" d="M14.2868,9.42212s-5.849,0-5.849,5.849v393.671s0,5.849,5.849,5.849h184.617s5.849,0,5.849-5.849V15.27115s0-5.849-5.849-5.849Z"/>
  </g>
  <g class="cls-4">
    <rect class="cls-30" x="16.443" y="17.06302" width="52.626" height="35.56201"/>
    <rect class="cls-31" x="70.809" y="17.06302" width="126.00399" height="35.56201"/>
    <polygon class="cls-19" points="52.931 29.433 51.799 30.265 52.232 28.919 51.1 28.088 52.498 28.088 52.93 26.742 53.363 28.088 54.761 28.088 53.63 28.919 54.062 30.265 52.931 29.433"/>
    <polygon class="cls-19" points="47.827 24.652 46.696 23.82 48.094 23.82 48.526 22.475 48.958 23.82 50.357 23.82 49.225 24.652 49.657 25.997 48.526 25.166 47.395 25.998 47.827 24.652"/>
    <polygon class="cls-19" points="42.146 23.126 41.014 22.294 42.413 22.294 42.846 20.949 43.278 22.294 44.676 22.294 43.545 23.126 43.977 24.471 42.846 23.64 41.714 24.472 42.146 23.126"/>
    <polygon class="cls-19" points="36.163 24.652 35.032 23.82 36.43 23.82 36.862 22.475 37.295 23.82 38.693 23.82 37.562 24.652 37.994 25.997 36.863 25.166 35.731 25.998 36.163 24.652"/>
    <polygon class="cls-19" points="31.889 29.128 30.758 28.296 32.156 28.296 32.588 26.951 33.02 28.296 34.419 28.296 33.288 29.128 33.72 30.473 32.588 29.642 31.457 30.474 31.889 29.128"/>
    <polygon class="cls-19" points="30.524 35.009 29.393 34.177 30.791 34.177 31.223 32.832 31.655 34.177 33.054 34.177 31.923 35.009 32.354 36.354 31.223 35.523 30.092 36.355 30.524 35.009"/>
    <polygon class="cls-19" points="31.932 40.968 30.801 40.136 32.199 40.136 32.631 38.791 33.063 40.136 34.462 40.136 33.331 40.968 33.762 42.313 32.631 41.482 31.5 42.314 31.932 40.968"/>
    <polygon class="cls-19" points="36.163 45.202 35.032 44.37 36.43 44.37 36.862 43.025 37.295 44.37 38.693 44.37 37.562 45.202 37.994 46.547 36.863 45.716 35.731 46.547 36.163 45.202"/>
    <polygon class="cls-19" points="42.845 47.293 41.713 48.125 42.145 46.779 41.014 45.947 42.412 45.947 42.845 44.602 43.277 45.947 44.675 45.947 43.544 46.779 43.976 48.125 42.845 47.293"/>
    <polygon class="cls-19" points="48.666 45.695 47.535 46.527 47.966 45.181 46.835 44.349 48.234 44.349 48.666 43.003 49.098 44.349 50.497 44.349 49.365 45.181 49.797 46.527 48.666 45.695"/>
    <polygon class="cls-19" points="52.201 40.929 51.07 40.097 52.468 40.097 52.9 38.752 53.332 40.097 54.731 40.097 53.599 40.929 54.032 42.275 52.9 41.443 51.768 42.275 52.201 40.929"/>
    <polygon class="cls-19" points="53.76 34.927 52.628 34.095 54.027 34.095 54.459 32.75 54.891 34.095 56.29 34.095 55.159 34.927 55.59 36.272 54.46 35.441 53.328 36.273 53.76 34.927"/>

  </g>

  <g class="cls-4">
    <line class="cls-33" x1="16.0955" y1="80.40332" x2="197.1375" y2="80.40332"/>
  </g>
  <g id="rating">
    <polyline id="ratingArrow" class="cls-34" points="151.4 108.4 163.73 95.96 197.77 95.96 197.77 121.04 163.93 121.04 151.4 108.4"/>
    <text id="ratingLetter" class="cls-35" transform="translate(164.15039 113.78986)">A</text>
    <text id="ratingPlusses" class="cls-36" transform="translate(176.78027 110.38019)">+</text>
  </g>
  <text id="supplierLine1" class="cls-37" transform="translate(16.27002 65.69025)">X</text>
  <text id="supplierLine2" class="cls-37" transform="translate(16.27002 75.69025)">X</text>
  <text id="modelLine1" class="cls-37" transform="translate(110.5498 65.69025)">X</text>
  <text id="modelLine2" class="cls-37" transform="translate(110.5498 75.69025)">X</text>
  <text id="db" class="cls-26" transform="translate(42.5 298.99982)" text-anchor="middle">X</text>
  <text id="m3h" class="cls-26" transform="translate(132.2 298.99982)" text-anchor="end">X</text>

</svg>
