<svg id="Layer_1" data-name="Layer 1" xmlns="http://www.w3.org/2000/svg" xmlns:xlink="http://www.w3.org/1999/xlink" width="36mm" height="75mm" viewBox="0 0 102.05 212.60001" data-rating-increment="16.4409" data-supplier-model-chars-per-row="10">
  <defs>
    <style>
      .cls-1, .cls-16, .cls-3 {
        fill: none;
      }

      .cls-2 {
        clip-path: url(#clip-path);
      }

      .cls-16, .cls-3 {
        stroke: #00aeef;
      }

      .cls-3 {
        stroke-width: 2px;
      }

      .cls-4 {
        fill: #bfd730;
      }

      .cls-5 {
        fill: #50b848;
      }

      .cls-6 {
        fill: #00a651;
      }

      .cls-7 {
        fill: #fff200;
      }

      .cls-8 {
        fill: #fdb913;
      }

      .cls-9 {
        fill: #f37021;
      }

      .cls-10 {
        fill: #ed1c24;
      }

      .cls-11 {
        font-size: 14px;
      }

      .cls-11, .cls-12, .cls-13, .cls-20, .cls-21, .cls-23, .cls-24 {
        fill: #fff;
      }

      .cls-11, .cls-12, .cls-13, .cls-14, .cls-23, .cls-26 {
        font-family: Calibri-Bold, Calibri;
        font-weight: 700;
      }

      .cls-12 {
        font-size: 8.162px;
      }

      .cls-13 {
        font-size: 19px;
      }

      .cls-14 {
        font-size: 11px;
      }

      .cls-14, .cls-15, .cls-22, .cls-25, .cls-26 {
        fill: #231f20;
      }

      .cls-15 {
        font-size: 9px;
      }

      .cls-15, .cls-24, .cls-25 {
        font-family: Calibri;
      }

      .cls-17 {
        fill: #034ea2;
      }

      .cls-18 {
        fill: #00aeef;
      }

      .cls-19 {
        clip-path: url(#clip-path-2);
      }

      .cls-20 {
        font-size: 7.2814px;
        font-family: MyriadPro-Semibold, Myriad Pro;
        font-weight: 600;
      }

      .cls-23 {
        font-size: 20px;
      }

      .cls-24 {
        font-size: 11.66px;
      }

      .cls-25 {
        font-size: 8px;
      }

      .cls-26 {
        font-size: 16px;
      }
    </style>
    <clipPath id="clip-path">
      <rect class="cls-1" y="0.002" width="102.047" height="212.59801"/>
    </clipPath>
    <clipPath id="clip-path-2">
      <rect class="cls-1" x="8.481" y="8.09901" width="85.06401" height="24.53799"/>
    </clipPath>
  </defs>
  <title>Lamps</title>
  <g class="cls-2">
    <path class="cls-3" d="M8.0866,5.2536a2.77657,2.77657,0,0,0-2.835,2.835v195.716a2.77657,2.77657,0,0,0,2.835,2.835h85.874a2.77657,2.77657,0,0,0,2.835-2.835V8.08861a2.77657,2.77657,0,0,0-2.835-2.835Z"/>
  </g>
  <polygon class="cls-4" points="9.26 112.923 9.26 98.752 38.549 98.752 45.313 105.841 38.549 112.923 9.26 112.923"/>
  <polygon class="cls-5" points="9.26 96.487 9.26 82.317 34.386 82.317 41.151 89.4 34.386 96.488 9.26 96.487"/>
  <polygon class="cls-6" points="9.26 80.035 9.26 65.871 30.23 65.871 36.994 72.952 30.229 80.035 9.26 80.035"/>
  <polygon class="cls-7" points="9.26 129.354 9.26 115.187 42.889 115.188 49.665 122.272 42.889 129.354 9.26 129.354"/>
  <polygon class="cls-8" points="9.26 145.799 9.26 131.63 47.042 131.63 53.821 138.719 47.042 145.799 9.26 145.799"/>
  <polygon class="cls-9" points="9.26 162.228 9.26 148.062 51.2 148.063 57.979 155.14 51.2 162.229 9.26 162.228"/>
  <polygon class="cls-10" points="9.26 178.661 9.26 164.492 55.354 164.493 62.136 171.579 55.354 178.662 9.26 178.661"/>
  <text class="cls-11" transform="translate(8.13965 78.73087)"> </text>
  <text class="cls-11" transform="translate(11.30371 76.84073)">A</text>
  <text class="cls-12" transform="translate(19.78809 72.18497)">+</text>
  <text class="cls-12" transform="translate(23.94238 72.18497)">+</text>
  <text class="cls-11" transform="translate(8.13965 95.23087)"> </text>
  <text class="cls-11" transform="translate(11.30371 93.34073)">A</text>
  <text class="cls-12" transform="translate(19.78809 88.68497)">+</text>
  <text class="cls-11" transform="translate(8.13965 111.73087)"> </text>
  <text class="cls-11" transform="translate(11.30371 109.84122)">A</text>
  <text class="cls-11" transform="translate(8.13965 126.34708)"><tspan xml:space="preserve"> B</tspan></text>
  <text class="cls-11" transform="translate(8.13965 142.85294)"><tspan xml:space="preserve"> C</tspan></text>
  <text class="cls-11" transform="translate(8.13965 159.3588)"><tspan xml:space="preserve"> D</tspan></text>
  <text class="cls-11" transform="translate(8.13965 175.86465)"><tspan xml:space="preserve"> E</tspan></text>
  <text class="cls-13" transform="translate(64.13379 77.83633)"> </text>
  <text class="cls-14" transform="translate(41.74463 200.78165)"> </text>
  <text class="cls-15" transform="translate(44.23145 200.78165)">kWh/1000h</text>
  <line class="cls-16" x1="8.4921" y1="55.88081" x2="93.5551" y2="55.88081"/>
  <rect class="cls-17" x="8.487" y="8.14301" width="24.817" height="16.575"/>
  <rect class="cls-18" x="34.124" y="8.14301" width="59.419" height="16.575"/>
  <polygon class="cls-7" points="26.023 13.669 26.556 13.281 25.897 13.281 25.693 12.654 25.489 13.281 24.83 13.281 25.364 13.669 25.16 14.296 25.693 13.909 26.227 14.296 26.023 13.669"/>
  <polygon class="cls-7" points="23.946 11.68 24.479 11.292 23.82 11.292 23.616 10.665 23.412 11.292 22.753 11.292 23.287 11.68 23.083 12.307 23.616 11.92 24.15 12.307 23.946 11.68"/>
  <polygon class="cls-7" points="21.267 10.968 21.801 10.58 21.141 10.58 20.937 9.953 20.733 10.58 20.074 10.58 20.607 10.968 20.404 11.595 20.937 11.208 21.471 11.595 21.267 10.968"/>
  <polygon class="cls-7" points="18.446 11.68 18.979 11.292 18.32 11.292 18.116 10.665 17.912 11.292 17.253 11.292 17.787 11.68 17.583 12.307 18.116 11.92 18.65 12.307 18.446 11.68"/>
  <polygon class="cls-7" points="16.43 13.766 16.963 13.378 16.304 13.378 16.1 12.751 15.896 13.378 15.237 13.378 15.771 13.766 15.567 14.393 16.1 14.006 16.634 14.393 16.43 13.766"/>
  <polygon class="cls-7" points="15.787 16.507 16.32 16.119 15.661 16.119 15.457 15.492 15.253 16.119 14.594 16.119 15.128 16.507 14.924 17.134 15.457 16.747 15.991 17.134 15.787 16.507"/>
  <polygon class="cls-7" points="16.45 19.284 16.984 18.896 16.324 18.896 16.12 18.269 15.916 18.896 15.257 18.896 15.791 19.284 15.587 19.911 16.12 19.524 16.654 19.911 16.45 19.284"/>
  <polygon class="cls-7" points="18.446 21.258 18.979 20.87 18.32 20.87 18.116 20.243 17.912 20.87 17.253 20.87 17.787 21.258 17.583 21.885 18.116 21.498 18.65 21.885 18.446 21.258"/>
  <polygon class="cls-7" points="21.267 21.993 21.8 21.605 21.141 21.605 20.937 20.978 20.733 21.605 20.074 21.605 20.607 21.993 20.404 22.62 20.937 22.233 21.471 22.62 21.267 21.993"/>
  <polygon class="cls-7" points="24.012 21.248 24.546 20.86 23.886 20.86 23.682 20.233 23.478 20.86 22.819 20.86 23.352 21.248 23.149 21.875 23.682 21.488 24.216 21.875 24.012 21.248"/>
  <polygon class="cls-7" points="26.009 19.266 26.542 18.878 25.883 18.878 25.679 18.251 25.475 18.878 24.816 18.878 25.35 19.266 25.146 19.893 25.679 19.506 26.213 19.893 26.009 19.266"/>
  <polygon class="cls-7" points="26.744 16.469 27.277 16.081 26.618 16.081 26.414 15.454 26.211 16.081 25.551 16.081 26.085 16.469 25.881 17.096 26.414 16.709 26.948 17.096 26.744 16.469"/>
  <g class="cls-19">
    <path class="cls-18" d="M10.1923,28.69371c.031.855.75,1.221,1.563,1.221a4.065,4.065,0,0,0,1.406-.212l.188.822a5.0494,5.0494,0,0,1-1.772.302,2.33061,2.33061,0,0,1-2.615-2.395,2.40746,2.40746,0,0,1,2.48-2.537,2.10018,2.10018,0,0,1,2.188,2.296,2.66933,2.66933,0,0,1-.042.503Zm2.23-.831a1.03908,1.03908,0,0,0-1.053-1.154,1.2042,1.2042,0,0,0-1.177,1.154Z"/>
    <polygon class="cls-18" points="15.984 26.003 15.984 27.805 17.943 27.805 17.943 26.003 19.224 26.003 19.224 30.72 17.943 30.72 17.943 28.735 15.984 28.735 15.984 30.72 14.703 30.72 14.703 26.003 15.984 26.003"/>
    <path class="cls-18" d="M21.5462,28.69371c.031.855.75,1.221,1.563,1.221a4.07511,4.07511,0,0,0,1.407-.212l.187.822a5.03892,5.03892,0,0,1-1.771.302,2.33012,2.33012,0,0,1-2.615-2.395,2.40664,2.40664,0,0,1,2.479-2.537,2.10018,2.10018,0,0,1,2.188,2.296,2.58647,2.58647,0,0,1-.042.503Zm2.23-.831a1.03849,1.03849,0,0,0-1.053-1.154,1.205,1.205,0,0,0-1.177,1.154Z"/>
    <path class="cls-18" d="M26.0674,27.572c0-.622-.022-1.124-.042-1.569h1.124l.064.726h.02a2.01857,2.01857,0,0,1,1.74-.834,2.20192,2.20192,0,0,1,2.136,2.403,2.31567,2.31567,0,0,1-2.312,2.529,1.71679,1.71679,0,0,1-1.429-.631h-.02v2.441h-1.281Zm1.281,1.171a1.14175,1.14175,0,0,0,1.166,1.162c.813,0,1.292-.63,1.292-1.56,0-.831-.437-1.511-1.261-1.511a1.17737,1.17737,0,0,0-1.145.884.97438.97438,0,0,0-.052.299Z"/>
    <polygon class="cls-18" points="35.558 26.003 35.558 26.942 33.485 26.942 33.485 30.72 32.202 30.72 32.202 26.003 35.558 26.003"/>
    <path class="cls-18" d="M37.5982,26.00281v1.694c0,.747-.031,1.249-.074,1.91h.033c.271-.553.426-.901.686-1.395l1.251-2.209h1.553v4.717h-1.219v-1.686c0-.756.031-1.104.084-1.997h-.044c-.248.564-.415.902-.666,1.358-.395.697-.853,1.548-1.291,2.325h-1.532v-4.717Z"/>
    <path class="cls-18" d="M46.629,30.719H45.358V28.851H44.88a1.03775,1.03775,0,0,0-.781.307,3.03377,3.03377,0,0,0-.627,1.175,4.00916,4.00916,0,0,1-.196.386H41.899a2.33992,2.33992,0,0,0,.314-.523,4.01039,4.01039,0,0,1,.759-1.357,1.24191,1.24191,0,0,1,.605-.319v-.03c-.605-.058-1.324-.424-1.324-1.162a1.19093,1.19093,0,0,1,.782-1.093,4.38992,4.38992,0,0,1,1.793-.302,14.40745,14.40745,0,0,1,1.801.108Zm-1.271-3.981a3.62163,3.62163,0,0,0-.636-.049c-.562,0-1.135.186-1.135.709,0,.494.636.706,1.135.706.304,0,.471,0,.636-.009Z"/>
    <path class="cls-18" d="M50.7847,28.9554a.74374.74374,0,0,1-.782-.764.75448.75448,0,0,1,.794-.765.765.765,0,1,1,0,1.529Z"/>
    <path class="cls-18" d="M55.8367,28.18211c-.605-.157-.937-.523-.937-.988,0-.639.689-1.299,2.137-1.299a3.19041,3.19041,0,0,1,1.623.358l-.239.767a2.8616,2.8616,0,0,0-1.228-.282c-.615,0-1.003.232-1.003.561,0,.377.512.535,1.272.543h.552v.793h-.561c-.813.012-1.427.166-1.427.623,0,.444.552.676,1.176.676a3.65008,3.65008,0,0,0,1.427-.328l.189.793a4.12483,4.12483,0,0,1-1.927.428c-1.073,0-2.23-.378-2.23-1.445a1.28545,1.28545,0,0,1,1.176-1.162Z"/>
    <path class="cls-18" d="M60.504,26.00281l.813,2.392c.145.415.238.793.365,1.2h.041a8.08766,8.08766,0,0,0,1.064-3.185v-.407h1.197a1.812,1.812,0,0,1,.031.357c0,1.337-.918,2.915-1.846,4.36H60.932l-1.802-4.717Z"/>
    <path class="cls-18" d="M65.7636,28.18211c-.605-.157-.937-.523-.937-.988,0-.639.689-1.299,2.134-1.299a3.19848,3.19848,0,0,1,1.625.358l-.238.767a2.86279,2.86279,0,0,0-1.229-.282c-.613,0-1.002.232-1.002.561,0,.377.513.535,1.272.543h.553v.793h-.562c-.813.012-1.427.166-1.427.623,0,.444.553.676,1.176.676a3.65351,3.65351,0,0,0,1.426-.328l.19.793a4.12885,4.12885,0,0,1-1.93.428c-1.073,0-2.226-.378-2.226-1.445a1.28441,1.28441,0,0,1,1.175-1.162Z"/>
    <path class="cls-18" d="M70.89,30.26271v.668a12.29571,12.29571,0,0,0,.071,1.707H69.724a8.11331,8.11331,0,0,1-.115-1.686v-2.159a2.6665,2.6665,0,0,1,.862-2.279,2.54426,2.54426,0,0,1,1.731-.618,2.28845,2.28845,0,0,1,2.428,2.42,2.33783,2.33783,0,0,1-2.345,2.511,1.698,1.698,0,0,1-1.376-.564Zm0-1.412a1.3925,1.3925,0,0,0,.031.308,1.18156,1.18156,0,0,0,1.126.747c.813,0,1.281-.669,1.281-1.561,0-.831-.45-1.47-1.21-1.47-.645,0-1.228.523-1.228,1.607Z"/>
    <path class="cls-18" d="M76.7944,32.6373a9.98307,9.98307,0,0,0-.176-2.723,12.74245,12.74245,0,0,0-1.771-3.912h1.439a10.93368,10.93368,0,0,1,1.352,3.43h.044a7.376,7.376,0,0,0,.958-3.052c0-.186-.012-.281-.012-.378h1.219a1.79791,1.79791,0,0,1,.021.349,8.02877,8.02877,0,0,1-1.793,4.156.384.384,0,0,0-.061.233c.021.473.021,1.249.03,1.897Z"/>
    <path class="cls-18" d="M81.5977,28.18211c-.604-.157-.939-.523-.939-.988,0-.639.689-1.299,2.138-1.299a3.197,3.197,0,0,1,1.624.358l-.238.767a2.88141,2.88141,0,0,0-1.232-.282c-.614,0-.999.232-.999.561,0,.377.509.535,1.269.543h.555v.793h-.564c-.813.012-1.427.166-1.427.623,0,.444.552.676,1.178.676a3.67169,3.67169,0,0,0,1.427-.328l.187.793a4.1191,4.1191,0,0,1-1.927.428c-1.073,0-2.23-.378-2.23-1.445a1.28843,1.28843,0,0,1,1.178-1.162Z"/>
    <path class="cls-18" d="M86.7634,29.39111c0,.39.126.543.48.523l-.074.834a1.62121,1.62121,0,0,1-.551.079c-.687,0-1.146-.274-1.146-1.32v-3.504h1.291Z"/>
    <path class="cls-18" d="M92.8913,26.00291c-.065.639-.149,2.092-.149,3.213,0,.536.18.719.49.71l-.083.843a1.61731,1.61731,0,0,1-.447.058.94238.94238,0,0,1-.99-.921h-.03a1.894,1.894,0,0,1-1.679.921,2.14938,2.14938,0,0,1-2.094-2.374,2.413,2.413,0,0,1,2.293-2.558,1.57556,1.57556,0,0,1,1.458.822h.043a6.81245,6.81245,0,0,1,.114-.714Zm-3.679,2.412c0,.793.438,1.461,1.135,1.461a1.274,1.274,0,0,0,1.126-1.017,3.07652,3.07652,0,0,0,.041-.552,1.893,1.893,0,0,0-.032-.444,1.16148,1.16148,0,0,0-1.073-1.046c-.72,0-1.197.706-1.197,1.586Z"/>
    <g id="Y">
      <path class="cls-20" d="M78.05273,14.89493V12.84952l-1.5498-2.86035H77.5293l.582,1.25927c.168.36377.291.64063.42969.9751h.01464c.11622-.313.25489-.61865.42188-.9751l.58984-1.25927H80.5791L78.94824,12.828v2.0669Z"/>
    </g>
    <g id="IJA">
      <path class="cls-20" d="M84.39551,9.98917v4.90576H83.5V9.98917Z"/>
      <path class="cls-20" d="M86.39746,9.98917H87.293v3.18066c0,1.354-.65527,1.80518-1.623,1.80518a2.42513,2.42513,0,0,1-.75781-.1167l.10937-.72022a1.73684,1.73684,0,0,0,.55372.0874c.50878,0,.82226-.23291.82226-1.08447Z"/>
      <path class="cls-20" d="M89.25879,13.50479l-.42188,1.39014h-.92382l1.57129-4.90576h1.14355l1.59375,4.90576h-.96777l-.44434-1.39014Zm1.40527-.67676-.38574-1.20849c-.09473-.29834-.1748-.6333-.248-.917h-.01464c-.07227.28369-.15235.626-.23243.917L89.4043,12.828Z"/>
    </g>
    <g id="IA">
      <path class="cls-20" d="M77.0918,18.02969v4.90577h-.89551V18.02969Z"/>
      <path class="cls-20" d="M80.8623,20.75919H79.01367V22.2001h2.06738v.73536H78.11816V18.02969h2.85352v.73536h-1.958v1.26611H80.8623Z"/>
    </g>
    <g id="IE">
      <path class="cls-20" d="M85.82227,18.02969v4.90577h-.89551V18.02969Z"/>
      <path class="cls-20" d="M87.83105,21.54532l-.42187,1.39014h-.92383l1.57129-4.90577H89.2002L90.794,22.93546h-.96778l-.44433-1.39014Zm1.40528-.67676-.38574-1.2085c-.09473-.29834-.17481-.6333-.248-.917h-.01465c-.07226.28369-.15234.626-.23242.917l-.37891,1.2085Z"/>
    </g>    
  </g>
  <polygon class="cls-21" points="40.277 16.966 36.964 16.966 36.964 19.549 40.668 19.549 40.668 20.866 35.359 20.866 35.359 12.075 40.473 12.075 40.473 13.392 36.964 13.392 36.964 15.662 40.277 15.662 40.277 16.966"/>
  <g class="cls-19">
    <path class="cls-21" d="M42.4113,20.8665v-8.792h1.826l2.27,3.77a24.11734,24.11734,0,0,1,1.5,2.948h.026c-.104-1.174-.143-2.309-.143-3.652v-3.066h1.487v8.792h-1.657l-2.296-3.874a28.95667,28.95667,0,0,1-1.578-3.026l-.039.013c.065,1.135.078,2.295.078,3.743v3.144Z"/>
    <polygon class="cls-21" points="56.481 16.966 53.168 16.966 53.168 19.549 56.873 19.549 56.873 20.866 51.563 20.866 51.563 12.075 56.677 12.075 56.677 13.392 53.168 13.392 53.168 15.662 56.481 15.662 56.481 16.966"/>
    <path class="cls-21" d="M58.6153,12.19231a15.28639,15.28639,0,0,1,2.427-.183,4.07127,4.07127,0,0,1,2.713.705,2.22533,2.22533,0,0,1,.756,1.761,2.34457,2.34457,0,0,1-1.591,2.204v.039a2.23872,2.23872,0,0,1,1.226,1.696,17.4573,17.4573,0,0,0,.692,2.452h-1.657a12.374,12.374,0,0,1-.587-2.074c-.248-1.148-.665-1.513-1.579-1.539h-.808v3.613h-1.592Zm1.592,3.887h.952c1.083,0,1.761-.574,1.761-1.448,0-.965-.678-1.409-1.722-1.409a4.59683,4.59683,0,0,0-.991.079Z"/>
    <path class="cls-21" d="M73.416,20.46211a8.70183,8.70183,0,0,1-2.831.496,4.73962,4.73962,0,0,1-3.443-1.174,4.35234,4.35234,0,0,1-1.226-3.235c0-2.779,1.982-4.566,4.891-4.566a5.823,5.823,0,0,1,2.335.418l-.352,1.291a4.734,4.734,0,0,0-1.996-.378,2.94251,2.94251,0,0,0-3.196,3.156,2.90623,2.90623,0,0,0,3.053,3.183,3.08736,3.08736,0,0,0,1.213-.182v-2.192H70.312v-1.265h3.104Z"/>
  </g>
  <g id="rating">
    <polyline id="ratingArrow" class="cls-22" points="61.65 72.97 72.06 62.45 93.54 62.45 93.54 82.29 72.06 82.29 61.65 72.97"/>
    <text id="ratingLetter" class="cls-23" transform="translate(70.16016 78.35001)">A</text>
    <text id="ratingPlusses" class="cls-24" transform="translate(80.86035 71.5502)">++</text>
  </g>
  <text id="supplierLine1" class="cls-25" transform="translate(8.5 43.43985)">X</text>
  <text id="supplierLine2" class="cls-25" transform="translate(8.5 52.43985)">X</text>
  <text id="modelLine1" class="cls-25" transform="translate(52.44043 43.43985)">X</text>
  <text id="modelLine2" class="cls-25" transform="translate(52.44043 52.43985)">X</text>
  <text id="kwh" class="cls-26" transform="translate(41.5 200.77969)" text-anchor="end">X</text>
</svg>
