<svg id="Layer_1" data-name="Layer 1" xmlns="http://www.w3.org/2000/svg" xmlns:xlink="http://www.w3.org/1999/xlink" width="20mm" height="54mm" viewBox="0 0 56.6929 153.071" data-rating-increment="9.6" data-supplier-model-chars-per-row="13">
  <defs>
    <style>
      .cls-1, .cls-17 {
        fill: none;
      }

      .cls-2 {
        fill: #000;
      }

      .cls-3 {
        clip-path: url(#clip-path);
      }

      .cls-4 {
        fill: #fff;
        stroke: #000;
        stroke-width: 0.5px;
      }

      .cls-5 {
        fill: #fff;
        stroke: #000;
        stroke-width: 0.5px;
      }

      .cls-6 {
        fill: #fff;
        stroke: #000;
        stroke-width: 0.5px;
      }

      .cls-7 {
        fill: #fff;
        stroke: #000;
        stroke-width: 0.5px;
      }

      .cls-8 {
        fill: #fff;
        stroke: #000;
        stroke-width: 0.5px;
      }

      .cls-9 {
        fill: #fff;
        stroke: #000;
        stroke-width: 0.5px;
      }

      .cls-10 {
        fill: #fff;
        stroke: #000;
        stroke-width: 0.5px;
      }


      .cls-11, .cls-12, .cls-13, .cls-14, .cls-15 {
        font-size: 6.7954px;
        fill: #000;
        font-family: Calibri-Bold, Calibri;
      }

      .cls-11, .cls-12, .cls-13, .cls-14, .cls-15, .cls-18, .cls-20, .cls-24, .cls-25 {
        font-weight: 700;
      }

      .cls-12 {
        font-size: 6.8599px;
      }

      .cls-13 {
        font-size: 6.8711px;
      }

      .cls-14 {
        font-size: 6.8276px;
      }

      .cls-15 {
        font-size: 6.8503px;
      }

      .cls-16, .cls-25 {
        font-size: 5px;
      }

      .cls-16, .cls-18, .cls-20, .cls-22, .cls-23, .cls-25 {
        fill: #000;
      }

      .cls-16, .cls-22 {
        font-family: Verdana;
      }

      .cls-17 {
        stroke: #000;
        stroke-width: 0.5px;
      }

      .cls-18 {
        font-size: 6.5405px;
      }

      .cls-18, .cls-20, .cls-25 {
        font-family: Verdana-Bold, Verdana;
      }

      .cls-19 {
        letter-spacing: 0.15898em;
      }

      .cls-20 {
        font-size: 12px;
      }

      .cls-21 {
        fill: #000;
      }

      .cls-22 {
        font-size: 5.45455px;
        fill: #fff;
      }

      .cls-24 {
        font-size: 9.9946px;
        font-family: Calibri-Bold, Calibri;
        fill: #fff;
      }

      .cls-26 {
        fill: #000;
      }

      .cls-27 {
        fill: #000;
      }
    </style>
    <clipPath id="clip-path">
      <rect class="cls-1" width="56.693" height="153.071"/>
    </clipPath>
  </defs>
  <polygon class="cls-2" points="20.719 4.953 20.719 6.284 23.854 6.284 23.854 7.646 20.719 7.646 20.719 9.175 23.989 9.175 23.989 10.537 19.285 10.537 19.285 3.56 23.989 3.56 23.989 4.953 20.719 4.953"/>
  <polygon class="cls-2" points="30.788 3.56 30.788 10.537 29.075 10.537 26.197 5.9 26.197 10.537 24.763 10.537 24.763 3.56 26.475 3.56 29.354 8.26 29.354 3.56 30.788 3.56"/>
  <polygon class="cls-2" points="33.037 4.953 33.037 6.284 36.172 6.284 36.172 7.646 33.037 7.646 33.037 9.175 36.307 9.175 36.307 10.537 31.603 10.537 31.603 3.56 36.307 3.56 36.307 4.953 33.037 4.953"/>
  <g class="cls-3">
    <path class="cls-2" d="M38.4933,6.69061h1.62a2.47964,2.47964,0,0,0,.505-.042.8624.8624,0,0,0,.289-.104c.104-.083.155-.295.155-.634a1.99255,1.99255,0,0,0-.093-.759c-.062-.139-.264-.208-.609-.208h-1.867Zm-1.444,3.847v-6.977h3.302a3.76339,3.76339,0,0,1,.99.114,1.59578,1.59578,0,0,1,.681.369,1.53357,1.53357,0,0,1,.397.676,3.53169,3.53169,0,0,1,.129,1.024,4.742,4.742,0,0,1-.042.634,3.50425,3.50425,0,0,1-.113.542,1.04136,1.04136,0,0,1-.33.467,1.36166,1.36166,0,0,1,.304.52,2.126,2.126,0,0,1,.098.666v1.965h-1.475v-1.81a.65343.65343,0,0,0-.186-.54.95108.95108,0,0,0-.588-.146h-1.723v2.496Z"/>
    <path class="cls-2" d="M45.7257,6.6904h3.352c.035.264.053.459.057.587.004.129.005.241.005.338v.572a4.19192,4.19192,0,0,1-.227,1.435,1.23266,1.23266,0,0,1-.479.619,2.11567,2.11567,0,0,1-.914.296q-.309.03152-.639.042t-.66.01a3.5934,3.5934,0,0,1-2.27-.53,2.74409,2.74409,0,0,1-.671-2.174v-.436c0-.146.004-.295.011-.447v-.822a3.03822,3.03822,0,0,1,.547-1.996,1.74213,1.74213,0,0,1,.789-.499,3.74825,3.74825,0,0,1,1.182-.167h.38c.124,0,.252.004.382.01h.723a1.79225,1.79225,0,0,1,1.418.546,2.31268,2.31268,0,0,1,.408,1.462v.613h-1.444a3.06153,3.06153,0,0,0-.115-1.092c-.034-.069-.178-.111-.432-.125-.213-.013-.421-.022-.625-.025-.202-.004-.414-.006-.634-.006-.53,0-.842.056-.938.167a2.57524,2.57524,0,0,0-.165,1.154c0,.069-.002.135-.006.197-.003.063-.005.132-.005.208v.396l.011.883c0,.181.006.351.02.51a2.50655,2.50655,0,0,0,.072.437v-.021a.534.534,0,0,0,.165.203.696.696,0,0,0,.33.119,3.07719,3.07719,0,0,0,.423.031c.082.007.167.011.253.011h.613a5.32231,5.32231,0,0,0,.584-.026.5112.5112,0,0,0,.304-.11c.096-.083.145-.36.145-.831v-.167h-1.95Z"/>
  </g>
  <polygon class="cls-2" points="51.095 3.529 52.687 3.529 52.055 5.535 53.787 5.252 51.306 10.655 52.055 6.738 50.393 6.809 51.095 3.529"/>
  <polygon class="cls-4" points="31.821 87.563 2.835 87.563 2.835 96.109 31.821 96.109 35.707 91.836 31.821 87.563"/>
  <polygon class="cls-5" points="28.306 77.942 2.834 77.942 2.834 86.488 28.306 86.488 32.186 82.215 28.306 77.942"/>
  <polygon class="cls-6" points="24.816 68.297 2.835 68.297 2.835 76.843 24.816 76.843 28.667 72.57 24.816 68.297"/>
  <polygon class="cls-7" points="21.385 58.651 2.89 58.651 2.89 67.197 21.385 67.197 25.202 62.924 21.385 58.651"/>
  <polygon class="cls-8" points="18.57 49.051 2.835 49.051 2.835 57.597 18.57 57.597 22.506 53.324 18.57 49.051"/>
  <polygon class="cls-9" points="15.132 39.451 2.891 39.451 2.891 47.997 15.132 47.997 19.042 43.724 15.132 39.451"/>
  <polygon class="cls-10" points="10.084 29.764 2.835 29.764 2.835 38.31 10.084 38.31 13.607 34.037 10.084 29.764"/>
  <text class="cls-11" transform="translate(4.79492 36.19551) scale(1 1.00528)">A</text>
  <text class="cls-12" transform="translate(4.95898 45.90303) scale(1 1.00529)">B</text>
  <text class="cls-13" transform="translate(4.98486 55.50655) scale(1 1.00528)">C</text>
  <text class="cls-12" transform="translate(4.91797 65.10323) scale(1 1.00529)">D</text>
  <text class="cls-12" transform="translate(5.27441 74.75069) scale(1 1.00529)">E</text>
  <text class="cls-14" transform="translate(5.27832 84.37373) scale(1 1.00529)">F</text>
  <text class="cls-15" transform="translate(4.86523 94.01241) scale(1 1.00528)">G</text>
  <text class="cls-16" transform="translate(50.03418 122.00326) rotate(90)">2019/2015</text>
  <line class="cls-17" x1="2.8347" y1="26.9293" x2="53.8587" y2="26.9293"/>
  <line class="cls-17" x1="2.8347" y1="99.2127" x2="53.8587" y2="99.2127"/>
  <text class="cls-18" transform="translate(11.21631 110.68233)"> </text>
  <text class="cls-18" transform="translate(13.45166 110.68233)"> </text>
  <text class="cls-16" transform="translate(2.68506 116.4294)">kW<tspan class="cls-19" x="7.90283" y="0">h</tspan><tspan x="11.86182" y="0">/1000h</tspan></text>
  <text id="kwh1000h" class="cls-20" transform="translate(2.68506 110.68233)">X</text>
  <g id="qrCode">
    <rect class="cls-21" x="2.63945" y="121.88983" width="28.34646" height="28.34646"/>
    <text class="cls-22" transform="translate(5.41053 137.59117)">QR code</text>
  </g>
  <g id="rating">
    <polygon id="ratingArrow" class="cls-23" points="43.965 28.368 39.235 34.273 43.965 39.707 53.602 39.707 53.602 28.368 43.965 28.368"/>
    <text id="ratingLetter" class="cls-24" transform="translate(45.18945 37.52559) scale(1 1.012)">A</text>
  </g>
  <text id="supplier" class="cls-25" transform="translate(28.34645 18.42549)" text-anchor="middle">X</text>
  <text id="model" class="cls-16" transform="translate(28.34645 24.09444)" text-anchor="middle">X</text>
  <g id="ukFlag">
    <path class="cls-26" d="M4.3681,11.33911h3.427v-2.285Zm11.222-1.024V8.5041h-2.718Zm0-4.646v-1.811l-2.718,1.811Zm-4.96,5.67h3.427l-3.427-2.285Zm-2.835-8.504H4.3681l3.427,2.284Zm-4.96,1.023v1.811h2.718Zm11.222-1.023h-3.427v2.284Zm-8.504,5.669-2.718,1.811V8.5041Z"/>
    <path class="cls-27" d="M10.6296,5.46011v.209h.709l4.252-2.834h-1.023Zm-2.834,3.254v-.21h-.709l-4.252,2.835h1.023Zm7.795,1.939-3.226-2.149h-1.023l4.249,2.832Zm-12.756-7.132,3.226,2.148h1.023l-4.249-2.832Zm12.756,4.416h-5.528v3.402h-1.7V7.9371H2.8346v-1.701h5.528v-3.401h1.7v3.401h5.528Z"/>
  </g>
</svg>
