<svg id="Layer_1" data-name="Layer 1" xmlns="http://www.w3.org/2000/svg" xmlns:xlink="http://www.w3.org/1999/xlink" width="36mm" height="72mm" viewBox="0 0 102.047 204.09399" data-rating-increment="15.5833" data-supplier-model-chars-per-row="15">
  <defs>
    <style>
      .cls-1, .cls-13 {
        fill: none;
      }

      .cls-2 {
        fill: #000;
      }

      .cls-3 {
        clip-path: url(#clip-path);
      }

      .cls-4 {
        fill: #fff;
        stroke: #000;
        stroke-width: 0.5px;
      }

      .cls-5 {
        fill: #fff;
        stroke: #000;
        stroke-width: 0.5px;
      }

      .cls-6 {
        fill: #fff;
        stroke: #000;
        stroke-width: 0.5px;
      }

      .cls-7 {
        fill: #fff;
        stroke: #000;
        stroke-width: 0.5px;
      }

      .cls-8 {
        fill: #fff;
        stroke: #000;
        stroke-width: 0.5px;
      }

      .cls-9 {
        fill: #fff;
        stroke: #000;
        stroke-width: 0.5px;
      }

      .cls-10 {
        fill: #fff;
        stroke: #000;
        stroke-width: 0.5px;
      }

      .cls-11 {
        font-size: 10.4835px;
        fill: #000;
      }

      .cls-11, .cls-21 {
        font-family: Calibri-Bold, Calibri;
      }

      .cls-11, .cls-15, .cls-20, .cls-21 {
        font-weight: 700;
      }

      .cls-12, .cls-20 {
        font-size: 8px;
      }

      .cls-12, .cls-14, .cls-15, .cls-17, .cls-20 {
        fill: #000;
      }

      .cls-12, .cls-14, .cls-17 {
        font-family: Verdana;
      }

      .cls-13 {
        stroke: #1d1d1b;
        stroke-width: 0.5px;
      }

      .cls-14 {
        font-size: 5px;
      }

      .cls-15 {
        font-size: 12px;
      }

      .cls-15, .cls-20 {
        font-family: Verdana-Bold, Verdana;
      }

      .cls-16 {
        fill: #000;
      }

      .cls-17 {
        font-size: 5.72727px;
        fill: #fff
      }

      .cls-18 {
        fill: #000;
      }

      .cls-19 {
        fill: #000;
      }

      .cls-21 {
        font-size: 16.01048px;
        fill: #fff;
      }
    </style>
    <clipPath id="clip-path">
      <rect class="cls-1" width="102.047" height="204.09399"/>
    </clipPath>
  </defs>
  <polygon class="cls-2" points="35.631 9.113 35.631 11.626 41.581 11.626 41.581 14.198 35.631 14.198 35.631 17.083 41.836 17.083 41.836 19.654 32.909 19.654 32.909 6.484 41.836 6.484 41.836 9.113 35.631 9.113"/>
  <polygon class="cls-2" points="54.736 6.484 54.736 19.655 51.486 19.655 46.024 10.9 46.024 19.655 43.303 19.655 43.303 6.484 46.552 6.484 52.014 15.356 52.014 6.484 54.736 6.484"/>
  <polygon class="cls-2" points="59.004 9.113 59.004 11.626 64.954 11.626 64.954 14.198 59.004 14.198 59.004 17.083 65.208 17.083 65.208 19.654 56.282 19.654 56.282 6.484 65.208 6.484 65.208 9.113 59.004 9.113"/>
  <g class="cls-3">
    <path class="cls-2" d="M69.3573,12.3922h3.073a4.81531,4.81531,0,0,0,.96-.079,1.63,1.63,0,0,0,.548-.197q.294-.2355.294-1.196a3.76467,3.76467,0,0,0-.176-1.433q-.177-.393-1.156-.393h-3.543Zm-2.74,7.262V6.4832h6.265a7.187,7.187,0,0,1,1.879.216,3.01789,3.01789,0,0,1,1.292.697,2.89169,2.89169,0,0,1,.754,1.276,6.67665,6.67665,0,0,1,.244,1.934,9.1263,9.1263,0,0,1-.078,1.196,6.8222,6.8222,0,0,1-.215,1.022,1.98833,1.98833,0,0,1-.627.882,2.56538,2.56538,0,0,1,.578.982,4.05335,4.05335,0,0,1,.185,1.256v3.71h-2.8v-3.416a1.23254,1.23254,0,0,0-.351-1.02,1.8178,1.8178,0,0,0-1.116-.275h-3.27v4.711Z"/>
    <path class="cls-2" d="M83.0808,12.3922h6.361c.066.497.1.866.108,1.108.007.243.009.456.009.638v1.08a7.89777,7.89777,0,0,1-.43,2.709,2.32906,2.32906,0,0,1-.91,1.168,4.0201,4.0201,0,0,1-1.734.559q-.5865.0585-1.212.079c-.419.012-.836.02-1.253.02q-3.132,0-4.307-1.002-1.272-1.03952-1.273-4.103v-.824c0-.275.008-.556.021-.843v-1.551a5.71933,5.71933,0,0,1,1.037-3.769,3.31731,3.31731,0,0,1,1.497-.942,7.17238,7.17238,0,0,1,2.243-.314h.722q.3525,0,.725.019h1.371a3.4021,3.4021,0,0,1,2.691,1.031,4.33665,4.33665,0,0,1,.773,2.758v1.158h-2.74a5.76528,5.76528,0,0,0-.216-2.061c-.066-.131-.339-.209-.821-.236q-.606-.039-1.186-.048c-.384-.007-.786-.01-1.203-.01q-1.5075,0-1.78.314a4.85263,4.85263,0,0,0-.314,2.178c0,.131-.003.255-.01.373-.006.118-.01.249-.01.392v.747l.02,1.668q0,.51.039.962a4.83456,4.83456,0,0,0,.136.824v-.039a1.027,1.027,0,0,0,.313.383,1.34471,1.34471,0,0,0,.627.226,5.98289,5.98289,0,0,0,.803.058c.156.014.316.02.48.02h1.164a9.88191,9.88191,0,0,0,1.106-.049.97466.97466,0,0,0,.578-.207q.273-.23551.274-1.57v-.314h-3.699Z"/>
  </g>
  <polygon class="cls-2" points="93.27 6.424 96.291 6.424 95.091 10.21 98.378 9.675 93.67 19.875 95.091 12.481 91.937 12.615 93.27 6.424"/>
  <polygon class="cls-4" points="44.202 147.576 4.209 147.576 4.209 160.332 44.202 160.332 49.564 153.954 44.202 147.576"/>
  <polygon class="cls-5" points="39.572 131.986 4.21 131.986 4.21 144.742 39.572 144.742 45.879 138.364 39.572 131.986"/>
  <polygon class="cls-6" points="36.241 116.395 4.21 116.395 4.21 129.151 36.241 129.151 42.194 122.773 36.241 116.395"/>
  <polygon class="cls-7" points="31.706 100.805 4.21 100.805 4.21 113.561 31.706 113.561 38.793 107.183 31.706 100.805"/>
  <polygon class="cls-8" points="28.925 85.214 4.21 85.214 4.21 97.97 28.925 97.97 35.107 91.592 28.925 85.214"/>
  <polygon class="cls-9" points="24.835 69.623 4.21 69.623 4.21 82.379 24.835 82.379 31.423 76.001 24.835 69.623"/>
  <polygon class="cls-10" points="21.907 54.033 4.209 54.033 4.209 66.789 21.907 66.789 28.304 60.411 21.907 54.033"/>
  <g class="cls-3">
    <text class="cls-11" transform="translate(6.78418 63.28101)">A</text>
    <text class="cls-11" transform="translate(6.83643 78.99097)">B</text>
    <text class="cls-11" transform="translate(6.84717 94.76392)">C</text>
    <text class="cls-11" transform="translate(6.49072 110.53735)">D</text>
    <text class="cls-11" transform="translate(7.21387 126.1731)">E</text>
    <text class="cls-11" transform="translate(7.30859 141.8938)">F</text>
    <text class="cls-11" transform="translate(6.54297 157.6145)">G</text>
  </g>
  <text class="cls-12" transform="translate(4.20947 192.63794)">kWh/1000h</text>
  <line class="cls-13" x1="4.2915" y1="49.78099" x2="97.75249" y2="49.78099"/>
  <line class="cls-13" x1="4.2915" y1="164.51469" x2="97.75249" y2="164.51469"/>
  <text class="cls-14" transform="translate(93.92871 170.07295) rotate(90)" textLength="29.76378" lengthAdjust="spacingAndGlyphs">2021 No. 1095</text>
  <text id="kwh" class="cls-15" transform="translate(4.2915 184.38013)">X</text>
  <g id="qrCode">
    <rect class="cls-16" x="61.1803" y="170.07295" width="29.76378" height="29.76378"/>
    <text class="cls-17" transform="translate(64.09011 186.5597)">QR code</text>
  </g>
  <g id="ukFlag">
    <path class="cls-18" d="M7.2765,21.4342h6.854v-4.569Zm22.445-2.046v-3.623h-5.437Zm0-9.292v-3.623l-5.437,3.623Zm-9.921,11.338h6.854l-6.854-4.569Zm-5.67-17.008H7.2765l6.854,4.57Zm-9.921,2.047v3.623h5.437Zm22.445-2.047h-6.854v4.57ZM9.6465,15.7652l-5.437,3.623v-3.623Z"/>
    <path class="cls-19" d="M19.8005,9.67641v.42h1.417l8.504-5.67h-2.047Zm-5.67,6.508v-.419h-1.417l-8.504,5.669h2.047Zm15.591,3.878-6.452-4.297h-2.046l8.498,5.663ZM4.2095,5.7984l6.452,4.298h2.046l-8.498-5.664Zm25.512,8.833H18.6665v6.803h-3.402v-6.803H4.2095v-3.402h11.055v-6.803h3.402v6.803h11.055Z"/>
  </g>
  <text id="supplier" class="cls-20" transform="translate(4.20947 33.71899)">X</text>
  <text id="model" class="cls-12" transform="translate(4.20947 45.43481)">X</text>
  <g id="rating">
    <polygon id="ratingArrow" points="75.773 51.571 65.209 60.413 75.773 68.55 97.752 68.55 97.752 51.571 75.773 51.571"/>
    <text id="ratingLetter" class="cls-21" transform="translate(81.92805 64.81665) scale(1 1.012)">A</text>
  </g>
</svg>
