<svg xmlns="http://www.w3.org/2000/svg" xmlns:xlink="http://www.w3.org/1999/xlink" id="Layer_1" data-name="Layer 1" width="105mm" height="200mm" viewBox="0 0 297.64001 566.92999" data-rating-increment-space-heating="22.5833" data-rating-increment-water-heating="22.5833" data-supplier-model-chars-per-row="25">
  <defs>
    <style>
      #offPeakMode,
      #dbSection {
        display: none;
      }

      #offPeakMode.hasOffPeakMode,
      #dbSection.hasDbSection {
        display: inline;
      }

      .cls-1, .cls-42, .cls-43, .cls-45, .cls-46 {
        fill: none;
      }

      .cls-2 {
        clip-path: url(#clip-path);
      }

      .cls-3 {
        fill: #00aeef;
      }

      .cls-4 {
        fill: #034ea2;
      }

      .cls-5 {
        fill: #fff200;
      }

      .cls-10, .cls-17, .cls-34, .cls-37, .cls-38, .cls-6 {
        fill: #fff;
      }

      .cls-7 {
        font-size: 12px;
      }

      .cls-21, .cls-31, .cls-32, .cls-36, .cls-39, .cls-40, .cls-47, .cls-48, .cls-50, .cls-7 {
        fill: #231f20;
      }

      .cls-32, .cls-38, .cls-48, .cls-50, .cls-7 {
        font-family: Calibri;
      }

      .cls-8 {
        letter-spacing: 0.059em;
      }

      .cls-9 {
        clip-path: url(#clip-path-2);
      }

      .cls-10, .cls-39 {
        font-size: 16px;
      }

      .cls-10, .cls-17, .cls-21, .cls-31, .cls-34, .cls-37, .cls-39, .cls-40, .cls-47 {
        font-family: Calibri-Bold, Calibri;
        font-weight: 700;
      }

      .cls-11 {
        fill: #bfd730;
      }

      .cls-12 {
        fill: #50b848;
      }

      .cls-13 {
        fill: #00a651;
      }

      .cls-14 {
        fill: #fdb913;
      }

      .cls-15 {
        fill: #f37021;
      }

      .cls-16 {
        fill: #ed1c24;
      }

      .cls-17 {
        font-size: 9.328px;
      }

      .cls-18 {
        clip-path: url(#clip-path-4);
      }

      .cls-19, .cls-20 {
        fill: #020304;
      }

      .cls-20 {
        fill-rule: evenodd;
      }

      .cls-21 {
        font-size: 10px;
      }

      .cls-22 {
        fill: #8ed8f7;
      }

      .cls-23 {
        fill: #05090a;
      }

      .cls-24 {
        fill: #24b9ec;
      }

      .cls-25 {
        fill: #676465;
      }

      .cls-26 {
        fill: #b5e4f9;
      }

      .cls-27 {
        fill: #00c0f0;
      }

      .cls-28 {
        fill: #72d0f3;
      }

      .cls-29 {
        fill: #00c0ee;
      }

      .cls-30 {
        fill: #ddf2fd;
      }

      .cls-31 {
        font-size: 30px;
      }

      .cls-32, .cls-37 {
        font-size: 18px;
      }

      .cls-33 {
        letter-spacing: -0.00901em;
      }

      .cls-34 {
        font-size: 14px;
      }

      .cls-35 {
        clip-path: url(#clip-path-8);
      }

      .cls-38, .cls-50 {
        font-size: 11px;
      }

      .cls-40 {
        font-size: 37.5px;
      }

      .cls-41 {
        clip-path: url(#clip-path-9);
      }

      .cls-42, .cls-46 {
        stroke: #00aeef;
        stroke-linecap: round;
        stroke-linejoin: round;
      }

      .cls-42 {
        stroke-width: 0.958px;
      }

      .cls-43 {
        stroke: #fff;
        stroke-width: 0.836px;
      }

      .cls-44 {
        fill: #2aace3;
      }

      .cls-45 {
        stroke: #2aace3;
        stroke-width: 0.673px;
      }

      .cls-46 {
        stroke-width: 1.703px;
      }

      .cls-47 {
        font-size: 20px;
      }

      .cls-48 {
        font-size: 15px;
      }

      .cls-49 {
        letter-spacing: -0.00898em;
      }
    </style>
    <clipPath id="clip-path">
      <rect class="cls-1" y="0.00098" width="297.638" height="566.92902"/>
    </clipPath>
    <clipPath id="clip-path-2">
      <rect class="cls-1" x="158.517" y="175.04102" width="68.53799" height="156.04698"/>
    </clipPath>
    <clipPath id="clip-path-4">
      <rect class="cls-1" x="27.086" y="175.03998" width="70.355" height="174.09502"/>
    </clipPath>
    <clipPath id="clip-path-8">
      <rect class="cls-1" x="28.029" y="175.04102" width="68.538" height="156.04698"/>
    </clipPath>
    <clipPath id="clip-path-9">
      <rect class="cls-1" x="45.639" y="402.897" width="37.035" height="41.02999"/>
    </clipPath>
  </defs>
  <title>boiler-combination-heaters-2019</title>
  <g class="cls-2">
    <path class="cls-3" d="M24.0691,16.166v-2a11.7328,11.7328,0,0,0-4.847,1.199,8.94493,8.94493,0,0,0-3.486,3.026,10.03567,10.03567,0,0,0-1.571,5.679V542.861a11.72523,11.72523,0,0,0,1.199,4.846,8.94088,8.94088,0,0,0,3.026,3.487,10.03328,10.03328,0,0,0,5.679,1.571h249.5a11.72477,11.72477,0,0,0,4.846-1.199,8.94834,8.94834,0,0,0,3.487-3.026,10.03579,10.03579,0,0,0,1.571-5.679V24.07007a11.72489,11.72489,0,0,0-1.199-4.846,8.9403,8.9403,0,0,0-3.026-3.487,10.03558,10.03558,0,0,0-5.679-1.571h-249.5v4h249.5a6.04592,6.04592,0,0,1,3.46.899,4.73306,4.73306,0,0,1,1.355,1.397,7.1815,7.1815,0,0,1,.95,2.468,8.2401,8.2401,0,0,1,.124.878c.008.103.012.18.013.226l.002.044v.003l1.189-.011h-1.189v.011l1.189-.011h-1.189V542.861a6.044,6.044,0,0,1-.899,3.46,4.71289,4.71289,0,0,1-1.398,1.355,7.1712,7.1712,0,0,1-2.467.95,7.98148,7.98148,0,0,1-.878.124c-.103.008-.181.012-.226.014l-.044.001h-.003l.011,1.191v-1.191h-.011l.011,1.191v-1.191h-249.5a6.04356,6.04356,0,0,1-3.46-.899,4.70964,4.70964,0,0,1-1.355-1.397,7.20526,7.20526,0,0,1-.951-2.46795,8.14846,8.14846,0,0,1-.123-.87805c-.008-.103-.012-.18-.014-.226l-.001-.044v-.003l-1.193.011h1.193v-.011l-1.193.011h1.193V24.07007a6.046,6.046,0,0,1,.899-3.46,4.70921,4.70921,0,0,1,1.397-1.355,7.18171,7.18171,0,0,1,2.468-.95,7.95158,7.95158,0,0,1,.878-.124c.103-.008.18-.012.226-.014l.044-.001h.003l-.011-1.18995V18.166h.011l-.011-1.18995V16.166Z"/>
    <rect class="cls-4" x="26.965" y="26.492" width="71.139" height="48.06"/>
    <rect class="cls-3" x="100.45599" y="26.492" width="170.28799" height="48.06"/>
    <polygon class="cls-5" points="77.239 42.515 78.768 41.391 76.878 41.391 76.294 39.573 75.71 41.391 73.82 41.391 75.349 42.515 74.765 44.334 76.294 43.21 77.823 44.334 77.239 42.515"/>
    <polygon class="cls-5" points="71.287 36.748 72.816 35.624 70.926 35.624 70.342 33.805 69.758 35.624 67.868 35.624 69.397 36.748 68.813 38.567 70.342 37.443 71.871 38.566 71.287 36.748"/>
    <polygon class="cls-5" points="63.609 34.685 65.138 33.561 63.248 33.561 62.664 31.743 62.08 33.561 60.19 33.561 61.719 34.685 61.135 36.504 62.664 35.38 64.193 36.504 63.609 34.685"/>
    <polygon class="cls-5" points="55.523 36.748 57.052 35.624 55.162 35.624 54.578 33.805 53.994 35.624 52.104 35.624 53.633 36.748 53.049 38.567 54.578 37.442 56.107 38.566 55.523 36.748"/>
    <polygon class="cls-5" points="49.748 42.797 51.277 41.673 49.387 41.673 48.803 39.855 48.219 41.673 46.329 41.673 47.858 42.797 47.274 44.616 48.803 43.492 50.332 44.616 49.748 42.797"/>
    <polygon class="cls-5" points="47.903 50.745 49.432 49.621 47.542 49.621 46.958 47.803 46.374 49.621 44.484 49.621 46.013 50.745 45.429 52.564 46.958 51.439 48.487 52.563 47.903 50.745"/>
    <polygon class="cls-5" points="49.805 58.798 51.334 57.674 49.444 57.674 48.86 55.856 48.276 57.674 46.386 57.674 47.915 58.798 47.331 60.617 48.86 59.493 50.389 60.617 49.805 58.798"/>
    <polygon class="cls-5" points="55.523 64.521 57.052 63.397 55.162 63.397 54.578 61.578 53.994 63.397 52.104 63.397 53.633 64.521 53.049 66.34 54.578 65.215 56.107 66.339 55.523 64.521"/>
    <polygon class="cls-5" points="63.609 66.652 65.137 65.528 63.248 65.528 62.664 63.71 62.08 65.528 60.19 65.528 61.719 66.652 61.135 68.47 62.664 67.347 64.193 68.47 63.609 66.652"/>
    <polygon class="cls-5" points="71.476 64.491 73.005 63.367 71.115 63.367 70.531 61.549 69.947 63.367 68.057 63.367 69.586 64.491 69.002 66.31 70.531 65.186 72.06 66.31 71.476 64.491"/>
    <polygon class="cls-5" points="77.198 58.746 78.727 57.622 76.837 57.622 76.253 55.804 75.669 57.622 73.779 57.622 75.308 58.746 74.724 60.565 76.253 59.441 77.782 60.565 77.198 58.746"/>
    <polygon class="cls-5" points="79.305 50.634 80.834 49.51 78.944 49.51 78.36 47.692 77.776 49.51 75.886 49.51 77.415 50.634 76.831 52.453 78.36 51.328 79.889 52.452 79.305 50.634"/>

































    <polyline class="cls-3" points="26.514 112.593 271.18 112.593 271.18 111.593 26.514 111.593"/>
  </g>
  <text class="cls-7" transform="translate(34.15381 109.38214)"><tspan class="cls-8" xml:space="preserve">                </tspan><tspan x="54.73438" y="0"> </tspan></text>
  <g class="cls-9">
    <rect class="cls-6" x="94.488" y="175.03998" width="143.01701" height="199.90199"/>
  </g>
  <text class="cls-10" transform="translate(163.00586 191.45831)"> </text>
  <text class="cls-10" transform="translate(163.00586 213.95441)"> </text>
  <text class="cls-10" transform="translate(163.00586 236.4505)"> </text>
  <text class="cls-10" transform="translate(163.00586 256.94611)"> </text>
  <text class="cls-10" transform="translate(163.00586 279.4422)"> </text>
  <text class="cls-10" transform="translate(163.00586 301.93781)"> </text>
  <text class="cls-10" transform="translate(163.00586 324.4339)"> </text>
  <g class="cls-9">
    <rect class="cls-6" x="94.488" y="175.03998" width="143.01701" height="199.90201"/>
    <polygon class="cls-5" points="94.488 242.621 94.488 262.314 200.708 262.314 210.459 252.466 200.708 242.621 94.488 242.621"/>
    <polygon class="cls-11" points="94.488 220.094 94.488 239.786 195.348 239.786 205.103 229.94 195.348 220.094 94.488 220.094"/>
    <polygon class="cls-12" points="94.488 197.567 94.488 217.258 189.993 217.258 199.747 207.413 189.993 197.567 94.488 197.567"/>
    <polygon class="cls-13" points="94.488 175.04 94.488 194.732 184.66 194.732 194.414 184.886 184.66 175.04 94.488 175.04"/>
    <polygon class="cls-14" points="94.488 265.149 94.488 284.84 206.327 284.84 216.091 274.994 206.327 265.149 94.488 265.149"/>
    <polygon class="cls-15" points="94.488 287.673 94.488 307.366 211.676 307.366 221.444 297.52 211.676 287.673 94.488 287.673"/>
    <polygon class="cls-16" points="94.488 310.199 94.488 329.889 217.026 329.889 226.795 320.043 217.026 310.199 94.488 310.199"/>
  </g>
  <text class="cls-10" transform="translate(164.63281 189.46027)">A</text>
  <text class="cls-17" transform="translate(174.32813 184.13214)">+</text>
  <text class="cls-10" transform="translate(164.63281 211.96027)">A</text>
  <text class="cls-10" transform="translate(164.63281 234.45636)">B</text>
  <text class="cls-10" transform="translate(164.63281 256.95245)">C</text>
  <text class="cls-10" transform="translate(164.63281 279.44855)">D</text>
  <text class="cls-10" transform="translate(164.63281 301.94464)">E</text>
  <text class="cls-10" transform="translate(164.63281 324.44073)">F</text>
  <g class="cls-18">
    <rect class="cls-6" x="-58.668" y="175.03998" width="156.10899" height="155.826"/>
  </g>
  <g class="cls-2">
    <rect class="cls-19" x="162.86693" y="130.92249" width="10.86011" height="1.35351" transform="translate(-0.58309 0.74911) rotate(-0.25459)"/>
    <path class="cls-20" d="M164.593,131.599a1.79459,1.79459,0,0,0-1.781-1.81,1.77578,1.77578,0,0,0-1.781,1.81,1.7939,1.7939,0,0,0,1.781,1.81,1.81347,1.81347,0,0,0,1.781-1.81"/>
    <path class="cls-20" d="M175.564,131.599a1.79522,1.79522,0,0,0-1.781-1.81,1.7766,1.7766,0,0,0-1.782,1.81,1.79474,1.79474,0,0,0,1.782,1.81,1.81413,1.81413,0,0,0,1.781-1.81"/>
    <path class="cls-20" d="M170.547,131.599a2.25454,2.25454,0,0,0-2.268-2.267,2.224,2.224,0,0,0-2.23,2.267,2.24717,2.24717,0,0,0,2.23,2.267,2.27825,2.27825,0,0,0,2.268-2.267"/>
    <path class="cls-19" d="M170.546,131.599a2.25494,2.25494,0,0,0-2.267-2.267,2.22484,2.22484,0,0,0-2.231,2.267,2.248,2.248,0,0,0,2.231,2.267,2.27869,2.27869,0,0,0,2.267-2.267"/>
    <rect class="cls-19" x="167.511" y="131.63498" width="1.57201" height="5.814"/>
    <path class="cls-20" d="M173.107,140.756a4.81428,4.81428,0,1,0-4.826,5.017,4.90767,4.90767,0,0,0,4.826-5.017"/>
    <path class="cls-20" d="M172.165,143.703s2.597.352,2.597,1.316v3.255h4.254l-.012-3.913c-.362-4.115-2.406-4.774-6.034-5.924l-1.121-.324.024.507-13.311-.074v5.047l13.603-.11v.22"/>
  </g>
  <text class="cls-21" transform="translate(30.43506 541.5462)">2019</text>
  <text class="cls-21" transform="translate(227.97461 541.5462)">811/2013</text>
  <g class="cls-2">
    <polyline class="cls-3" points="148.258 124.253 148.258 340.867 149.258 340.867 149.258 124.253"/>
    <rect x="28.908" y="128.069" width="4.016" height="1.133"/>
    <path d="M64.5108,149.646h1.372v.566l-.038-.565.091-.003a2.18349,2.18349,0,0,1,1.056.268,1.64569,1.64569,0,0,1,.614.602,1.98877,1.98877,0,0,1,.253,1.021v2.001h-1.133v-2.001a.86715.86715,0,0,0-.098-.448.581.581,0,0,0-.332-.25,1.18065,1.18065,0,0,0-.36-.059h-.019l-.004-.116.007.116h-.003l-.004-.116.007.116-.019.001h-1.39Z"/>
    <polygon points="29.824 127.306 29.646 127.465 28.34 127.465 28.162 127.306 27.914 125.079 28.057 124.919 29.929 124.919 30.072 125.079 29.824 127.306"/>
    <polyline points="28.456 153.707 28.456 126.52 29.59 126.52 29.59 153.707"/>
    <path class="cls-22" d="M64.774,150.765a2.14313,2.14313,0,0,1-1.889,1.889,2.17773,2.17773,0,0,1-1.889-1.889V126.821a1.889,1.889,0,0,1,3.778,0v23.944"/>
    <polygon class="cls-23" points="36.248 151.157 33.918 151.535 33.918 148.89 36.248 149.268 36.248 151.157"/>
    <polygon class="cls-22" points="36.248 151.157 38.578 151.535 38.578 148.89 36.248 149.268 36.248 151.157"/>
    <polygon class="cls-22" points="42.151 151.157 39.821 151.535 39.821 148.89 42.151 149.268 42.151 151.157"/>
    <polygon class="cls-22" points="42.151 151.157 44.481 151.535 44.481 148.89 42.151 149.268 42.151 151.157"/>
    <polygon class="cls-22" points="48.071 151.157 45.741 151.535 45.741 148.89 48.071 149.268 48.071 151.157"/>
    <polygon class="cls-22" points="48.071 151.157 50.401 151.535 50.401 148.89 48.071 149.268 48.071 151.157"/>
    <polygon class="cls-22" points="53.974 151.157 51.644 151.535 51.644 148.89 53.974 149.268 53.974 151.157"/>
    <polygon class="cls-22" points="53.974 151.157 56.304 151.535 56.304 148.89 53.974 149.268 53.974 151.157"/>
    <polygon class="cls-22" points="60.067 151.157 57.736 151.535 57.736 148.89 60.067 149.268 60.067 151.157"/>
    <polygon class="cls-22" points="60.067 151.157 62.396 151.535 62.396 148.89 60.067 149.268 60.067 151.157"/>
    <polygon class="cls-23" points="36.248 128.41 33.918 128.788 33.918 126.143 36.248 126.521 36.248 128.41"/>
    <polygon class="cls-22" points="36.248 128.41 38.578 128.788 38.578 126.143 36.248 126.521 36.248 128.41"/>
    <polygon class="cls-22" points="42.151 128.41 39.821 128.788 39.821 126.143 42.151 126.521 42.151 128.41"/>
    <polygon class="cls-22" points="42.151 128.41 44.481 128.788 44.481 126.143 42.151 126.521 42.151 128.41"/>
    <polygon class="cls-22" points="48.071 128.41 45.741 128.788 45.741 126.143 48.071 126.521 48.071 128.41"/>
    <polygon class="cls-22" points="48.071 128.41 50.401 128.788 50.401 126.143 48.071 126.521 48.071 128.41"/>
    <polygon class="cls-22" points="53.974 128.41 51.644 128.788 51.644 126.143 53.974 126.521 53.974 128.41"/>
    <polygon class="cls-22" points="53.974 128.41 56.304 128.788 56.304 126.143 53.974 126.521 53.974 128.41"/>
    <polygon class="cls-24" points="53.974 128.069 55.139 128.311 55.139 126.619 53.974 126.861 53.974 128.069"/>
    <polygon class="cls-22" points="60.067 128.41 57.736 128.788 57.736 126.143 60.067 126.521 60.067 128.41"/>
    <polygon class="cls-22" points="60.067 128.41 62.396 128.788 62.396 126.143 60.067 126.521 60.067 128.41"/>
    <polygon class="cls-23" points="53.974 128.41 51.644 128.788 51.644 126.143 53.974 126.521 53.974 128.41"/>
    <polygon class="cls-23" points="53.974 128.41 56.304 128.788 56.304 126.143 53.974 126.521 53.974 128.41"/>
    <path class="cls-25" d="M55.0762,128.298l-1.102-.229v-1.208l1.116-.231a1.34225,1.34225,0,0,0-.014.191v1.477"/>
    <polygon class="cls-23" points="59.729 128.41 57.398 128.788 57.398 126.143 59.729 126.521 59.729 128.41"/>
    <polygon class="cls-23" points="59.729 128.41 62.058 128.788 62.058 126.143 59.729 126.521 59.729 128.41"/>
    <polygon class="cls-25" points="60.893 128.311 60.892 128.311 59.728 128.069 59.728 126.861 60.892 126.62 60.893 126.62 60.893 128.311"/>
    <polygon class="cls-23" points="48.071 128.41 45.741 128.788 45.741 126.143 48.071 126.521 48.071 128.41"/>
    <polygon class="cls-23" points="48.071 128.41 50.401 128.788 50.401 126.143 48.071 126.521 48.071 128.41"/>
    <path class="cls-25" d="M49.1569,128.295l-1.086-.226v-1.208l1.099-.228a1.3101,1.3101,0,0,0-.013.188v1.474"/>
    <polygon class="cls-23" points="42.151 128.41 39.821 128.788 39.821 126.143 42.151 126.521 42.151 128.41"/>
    <polygon class="cls-23" points="42.151 128.41 44.481 128.788 44.481 126.143 42.151 126.521 42.151 128.41"/>
    <path class="cls-25" d="M43.2377,128.295l-1.086-.226v-1.208l1.099-.228a1.3101,1.3101,0,0,0-.013.188v1.474"/>
    <polygon class="cls-23" points="36.248 128.41 33.918 128.788 33.918 126.143 36.248 126.521 36.248 128.41"/>
    <polygon class="cls-23" points="36.248 128.41 38.578 128.788 38.578 126.143 36.248 126.521 36.248 128.41"/>
    <path class="cls-25" d="M37.3183,128.291l-1.071-.222v-1.208l1.084-.225a1.269,1.269,0,0,0-.013.185v1.47"/>
    <polygon class="cls-23" points="53.974 151.155 51.644 151.533 51.644 148.888 53.974 149.266 53.974 151.155"/>
    <polygon class="cls-23" points="53.974 151.155 56.304 151.533 56.304 148.888 53.974 149.266 53.974 151.155"/>
    <path class="cls-25" d="M55.1062,151.05l-1.132-.235v-1.208l1.102-.229v1.387a1.42073,1.42073,0,0,0,.03.285"/>
    <polygon class="cls-23" points="59.729 151.155 57.398 151.533 57.398 148.888 59.729 149.266 59.729 151.155"/>
    <polygon class="cls-23" points="59.729 151.155 62.058 151.533 62.058 148.888 59.729 149.266 59.729 151.155"/>
    <polygon class="cls-25" points="60.893 151.057 60.892 151.057 59.728 150.815 59.728 149.607 60.892 149.365 60.893 149.365 60.893 151.057"/>
    <polygon class="cls-23" points="48.071 151.155 45.741 151.533 45.741 148.888 48.071 149.266 48.071 151.155"/>
    <polygon class="cls-23" points="48.071 151.155 50.401 151.533 50.401 148.888 48.071 149.266 48.071 151.155"/>
    <path class="cls-25" d="M49.1861,151.046l-1.116-.231v-1.208l1.087-.226v1.384a1.37354,1.37354,0,0,0,.029.281"/>
    <polygon class="cls-23" points="42.151 151.155 39.821 151.533 39.821 148.888 42.151 149.266 42.151 151.155"/>
    <polygon class="cls-23" points="42.151 151.155 44.481 151.533 44.481 148.888 42.151 149.266 42.151 151.155"/>
    <path class="cls-25" d="M43.2669,151.046l-1.115-.231v-1.208l1.086-.226v1.384a1.37354,1.37354,0,0,0,.029.281"/>
    <polygon class="cls-23" points="36.248 151.155 33.918 151.533 33.918 148.888 36.248 149.266 36.248 151.155"/>
    <polygon class="cls-23" points="36.248 151.155 38.578 151.533 38.578 148.888 36.248 149.266 36.248 151.155"/>
    <path class="cls-25" d="M37.3469,151.043l-1.099-.228v-1.208l1.07-.222v1.38a1.35163,1.35163,0,0,0,.029.278"/>
    <path class="cls-23" d="M64.774,150.765a2.14313,2.14313,0,0,1-1.889,1.889,2.17773,2.17773,0,0,1-1.889-1.889V126.821a1.889,1.889,0,0,1,3.778,0v23.944"/>
    <path class="cls-23" d="M58.8545,150.765a2.14313,2.14313,0,0,1-1.889,1.889,2.17773,2.17773,0,0,1-1.889-1.889V126.821a1.889,1.889,0,0,1,3.778,0v23.944"/>
    <path class="cls-23" d="M52.9351,150.765a2.14313,2.14313,0,0,1-1.889,1.889,2.17773,2.17773,0,0,1-1.889-1.889V126.821a2.18052,2.18052,0,0,1,1.889-1.889,2.18148,2.18148,0,0,1,1.889,1.889v23.944"/>
    <path class="cls-23" d="M47.0161,150.765a2.14313,2.14313,0,0,1-1.889,1.889,2.17773,2.17773,0,0,1-1.889-1.889V126.821a2.18052,2.18052,0,0,1,1.889-1.889,2.18148,2.18148,0,0,1,1.889,1.889v23.944"/>
    <path class="cls-23" d="M41.0966,150.765a2.14313,2.14313,0,0,1-1.889,1.889,2.17773,2.17773,0,0,1-1.889-1.889V126.821a2.18052,2.18052,0,0,1,1.889-1.889,2.18148,2.18148,0,0,1,1.889,1.889v23.944"/>
    <path class="cls-23" d="M35.1772,150.765a2.14313,2.14313,0,0,1-1.889,1.889,2.17773,2.17773,0,0,1-1.889-1.889V126.821a2.18052,2.18052,0,0,1,1.889-1.889,2.18148,2.18148,0,0,1,1.889,1.889v23.944"/>
    <path class="cls-25" d="M62.8846,152.418a2.02144,2.02144,0,0,1-1.653-1.85V127.121a2.02529,2.02529,0,0,1,1.653-1.849v27.146"/>
    <path class="cls-25" d="M56.9927,152.418a2.02354,2.02354,0,0,1-1.653-1.83V127.102a2.02763,2.02763,0,0,1,1.653-1.83v27.146"/>
    <path class="cls-25" d="M51.1009,152.418a2.02144,2.02144,0,0,1-1.653-1.85V127.121a2.02529,2.02529,0,0,1,1.653-1.849v27.146"/>
    <path class="cls-25" d="M45.2087,152.418a2.02144,2.02144,0,0,1-1.653-1.85V127.121a2.02529,2.02529,0,0,1,1.653-1.849v27.146"/>
    <path class="cls-25" d="M39.3169,152.418a2.02354,2.02354,0,0,1-1.653-1.83V127.102a2.02763,2.02763,0,0,1,1.653-1.83v27.146"/>
    <path class="cls-25" d="M33.425,152.418a2.02144,2.02144,0,0,1-1.653-1.85V127.121a2.02529,2.02529,0,0,1,1.653-1.849v27.146"/>
  </g>
  <g id="offPeakMode">
    <path class="cls-3" d="M205.774,393.038v-1a10.76864,10.76864,0,0,0-4.399,1.093,7.94215,7.94215,0,0,0-3.102,2.687,9.035,9.035,0,0,0-1.403,5.124V470a10.779,10.779,0,0,0,1.094,4.399,7.9309,7.9309,0,0,0,2.686,3.102,9.0375,9.0375,0,0,0,5.124,1.403h53.465a10.79788,10.79788,0,0,0,4.399-1.094,7.946,7.946,0,0,0,3.102-2.686A9.03961,9.03961,0,0,0,268.143,470V400.942a10.79409,10.79409,0,0,0-1.094-4.399,7.93215,7.93215,0,0,0-2.686-3.102,9.032,9.032,0,0,0-5.124-1.403H205.774v2h53.465a7.03244,7.03244,0,0,1,4.014,1.067,6.48156,6.48156,0,0,1,2.515,3.623,9.27335,9.27335,0,0,1,.329,1.599c.024.203.035.364.041.471l.004.118.001.025V470a7.0402,7.0402,0,0,1-1.067,4.014,6.47888,6.47888,0,0,1-3.624,2.515,9.25548,9.25548,0,0,1-1.599.329c-.202.024-.364.035-.471.041l-.118.004-.025.001H205.774a7.04386,7.04386,0,0,1-4.015-1.067,6.48177,6.48177,0,0,1-2.514-3.624,9.35042,9.35042,0,0,1-.33-1.599c-.023-.202-.034-.364-.04-.471l-.005-.118V400.942a7.03585,7.03585,0,0,1,1.067-4.015,6.48537,6.48537,0,0,1,3.624-2.515,9.4437,9.4437,0,0,1,1.598-.329c.203-.023.364-.035.471-.04l.118-.005h.026Z"/>
    <path class="cls-26" d="M230.565,442.813a3.43781,3.43781,0,0,1-.837-.103l2.126-15.304-13.634-7.02c2.744-4.061,8.522-8.41,13.795-8.437h.116a15.3148,15.3148,0,0,1,15.252,15.315c0,8.458-6.024,15.316-14.485,15.316-.945,0-1.583.233-2.333.233"/>
    <path class="cls-27" d="M231.924,441.708a14.4755,14.4755,0,1,0-11.975-22.613l-1.389-.946a16.1574,16.1574,0,1,1,13.364,25.239Z"/>
    <polyline class="cls-27" points="232.609 414.602 232.609 427.437 230.929 427.437 230.929 414.602"/>
    <polyline class="cls-27" points="222.629 421.712 232.238 426.659 231.469 428.153 221.86 423.206"/>
    <path class="cls-27" d="M231.852,428.455a1.191,1.191,0,1,0-1.191-1.192,1.19239,1.19239,0,0,0,1.191,1.192"/>
    <polyline class="cls-27" points="219.833 447.898 229.468 457.889 228.262 459.051 218.628 449.06"/>
    <polygon class="cls-27" points="229.616 453.641 229.981 459.636 224.046 459.003 224.224 457.338 228.189 457.761 227.944 453.743 229.616 453.641"/>
    <path class="cls-27" d="M219.949,419.095a14.32085,14.32085,0,0,0-1.052,1.814l-1.511-.735a16.06857,16.06857,0,0,1,1.174-2.025Zm-1.829,3.761a14.48684,14.48684,0,0,0-.486,2.039l-1.658-.269a15.97607,15.97607,0,0,1,.542-2.278Zm-.671,4.128-.002.248a14.61846,14.61846,0,0,0,.117,1.847l-1.667.212a16.26985,16.26985,0,0,1-.13-2.059c0-.092,0-.184.002-.276Zm.53,4.15a14.20026,14.20026,0,0,0,.71,1.973l-1.536.683a16.14446,16.14446,0,0,1-.793-2.205Zm1.699,3.822a14.51905,14.51905,0,0,0,1.246,1.688l-1.276,1.093a16.27715,16.27715,0,0,1-1.391-1.883Zm2.722,3.178a14.52174,14.52174,0,0,0,1.673,1.263l-.912,1.411a16.15828,16.15828,0,0,1-1.867-1.409Zm3.511,2.27a14.2953,14.2953,0,0,0,1.964.73l-.469,1.614a16.09625,16.09625,0,0,1-2.194-.816Zm4.014,1.167a14.62982,14.62982,0,0,0,1.999.137v1.68a16.20746,16.20746,0,0,1-2.228-.153Z"/>
    <path class="cls-27" d="M243.216,456.602a19.248,19.248,0,0,0-6.837,0h-3.498v2.023c0,1.287,3.096,2.329,6.917,2.329,3.82,0,6.916-1.042,6.916-2.329v-2.023Z"/>
    <path class="cls-27" d="M243.216,456.602l-.036.185a19.03707,19.03707,0,0,0-6.766,0l-.017.003h-3.328v1.835a1.02569,1.02569,0,0,0,.472.76c.976.786,3.42,1.387,6.257,1.381a15.74619,15.74619,0,0,0,4.83-.672,4.79875,4.79875,0,0,0,1.426-.709,1.02578,1.02578,0,0,0,.472-.76V456.79h-3.328l-.018-.003.036-.185v-.188h3.686v2.211a1.3849,1.3849,0,0,1-.614,1.054c-1.125.886-3.597,1.458-6.49,1.464a16.15409,16.15409,0,0,1-4.951-.692,5.13678,5.13678,0,0,1-1.54-.772,1.38917,1.38917,0,0,1-.615-1.054v-2.211h3.687v.188l-.035-.185a19.45331,19.45331,0,0,1,6.907,0l-.035.185v0Z"/>
    <path class="cls-28" d="M232.881,456.602c0,1.287,3.097,2.329,6.917,2.329s6.917-1.042,6.917-2.329-3.097-2.329-6.917-2.329-6.917,1.042-6.917,2.329"/>
    <path class="cls-29" d="M232.881,456.602h.188a1.02449,1.02449,0,0,0,.473.76c.975.786,3.419,1.386,6.256,1.381a15.78877,15.78877,0,0,0,4.831-.672,4.80382,4.80382,0,0,0,1.425-.709.84786.84786,0,0,0,0-1.52c-.975-.786-3.42-1.386-6.256-1.381a15.8145,15.8145,0,0,0-4.831.672,4.79146,4.79146,0,0,0-1.425.709,1.02447,1.02447,0,0,0-.473.76h-.376a1.38942,1.38942,0,0,1,.614-1.054c1.125-.885,3.597-1.458,6.491-1.463a16.13288,16.13288,0,0,1,4.951.692,5.11873,5.11873,0,0,1,1.539.771,1.21068,1.21068,0,0,1,0,2.108c-1.125.886-3.597,1.458-6.49,1.463a16.12359,16.12359,0,0,1-4.951-.692,5.11328,5.11328,0,0,1-1.54-.771,1.391,1.391,0,0,1-.614-1.054Z"/>
    <polyline class="cls-28" points="246.591 457.213 246.591 459.229 246.366 459.229 246.366 457.213"/>
    <polyline class="cls-28" points="246.226 457.487 246.226 459.503 246.001 459.503 246.001 457.487"/>
    <polyline class="cls-28" points="245.855 457.761 245.855 459.777 245.63 459.777 245.63 457.761"/>
    <polyline class="cls-28" points="245.483 457.973 245.483 459.989 245.259 459.989 245.259 457.973"/>
    <polyline class="cls-28" points="245.104 458.168 245.104 460.185 244.879 460.185 244.879 458.168"/>
    <polyline class="cls-28" points="244.68 458.365 244.68 460.382 244.456 460.382 244.456 458.365"/>
    <path class="cls-27" d="M244.938,454.031a19.24247,19.24247,0,0,0-6.836,0h-3.498v2.023c0,1.287,3.096,2.329,6.916,2.329s6.917-1.042,6.917-2.329v-2.023Z"/>
    <path class="cls-27" d="M244.939,454.031l-.036.185a19.03645,19.03645,0,0,0-6.766,0l-.017.003h-3.328v1.835a1.02576,1.02576,0,0,0,.472.76c.976.786,3.42,1.387,6.256,1.381a15.7484,15.7484,0,0,0,4.831-.672,4.799,4.799,0,0,0,1.426-.709,1.02582,1.02582,0,0,0,.472-.76v-1.835h-3.328l-.018-.003.036-.185v-.188h3.686v2.211a1.38651,1.38651,0,0,1-.614,1.054c-1.125.886-3.597,1.458-6.491,1.464a16.16364,16.16364,0,0,1-4.951-.692,5.1423,5.1423,0,0,1-1.539-.772,1.39078,1.39078,0,0,1-.615-1.054v-2.211h3.687v.188l-.035-.185a19.45325,19.45325,0,0,1,6.907,0l-.035.185v0Z"/>
    <path class="cls-28" d="M234.604,454.031c0,1.287,3.097,2.329,6.916,2.329,3.821,0,6.918-1.042,6.918-2.329s-3.097-2.329-6.918-2.329c-3.819,0-6.916,1.042-6.916,2.329"/>
    <path class="cls-29" d="M234.604,454.031h.188a1.02577,1.02577,0,0,0,.472.76c.976.786,3.42,1.386,6.256,1.381a15.79106,15.79106,0,0,0,4.832-.672,4.80374,4.80374,0,0,0,1.425-.709.84786.84786,0,0,0,0-1.52c-.975-.786-3.42-1.386-6.257-1.381a15.77682,15.77682,0,0,0-4.83.672,4.81126,4.81126,0,0,0-1.426.709,1.02577,1.02577,0,0,0-.472.76h-.376a1.38942,1.38942,0,0,1,.614-1.054c1.125-.885,3.597-1.458,6.49-1.463a16.13515,16.13515,0,0,1,4.952.692,5.1423,5.1423,0,0,1,1.539.771,1.21068,1.21068,0,0,1,0,2.108c-1.125.886-3.597,1.458-6.491,1.463a16.12135,16.12135,0,0,1-4.95-.692,5.11316,5.11316,0,0,1-1.54-.771,1.391,1.391,0,0,1-.614-1.054Z"/>
    <polyline class="cls-28" points="248.314 454.642 248.314 456.658 248.089 456.658 248.089 454.642"/>
    <polyline class="cls-28" points="247.949 454.916 247.949 456.932 247.724 456.932 247.724 454.916"/>
    <polyline class="cls-28" points="247.578 455.19 247.578 457.206 247.353 457.206 247.353 455.19"/>
    <polyline class="cls-28" points="247.206 455.402 247.206 457.418 246.982 457.418 246.982 455.402"/>
    <polyline class="cls-28" points="246.827 455.597 246.827 457.614 246.602 457.614 246.602 455.597"/>
    <polyline class="cls-28" points="246.403 455.794 246.403 457.811 246.179 457.811 246.179 455.794"/>
    <path class="cls-27" d="M243.668,451.655a19.31079,19.31079,0,0,0-6.837,0h-3.498v2.024c0,1.287,3.097,2.329,6.917,2.329s6.917-1.042,6.917-2.329v-2.024Z"/>
    <path class="cls-27" d="M243.668,451.655l-.035.185a19.09859,19.09859,0,0,0-6.766,0l-.018.004h-3.328v1.835a1.02123,1.02123,0,0,0,.473.759c.975.787,3.42,1.387,6.256,1.381a15.75353,15.75353,0,0,0,4.831-.672,4.757,4.757,0,0,0,1.425-.709,1.02126,1.02126,0,0,0,.473-.759v-1.835H243.65l-.017-.004.035-.185v-.188h3.687v2.212a1.38946,1.38946,0,0,1-.615,1.054c-1.125.885-3.596,1.458-6.49,1.463a16.16343,16.16343,0,0,1-4.951-.692,5.14881,5.14881,0,0,1-1.54-.771,1.3911,1.3911,0,0,1-.614-1.054v-2.212h3.686v.188l-.035-.184a19.45889,19.45889,0,0,1,6.908,0l-.036.184v0Z"/>
    <path class="cls-28" d="M233.333,451.655c0,1.287,3.097,2.33,6.917,2.33s6.917-1.043,6.917-2.33c0-1.286-3.097-2.329-6.917-2.329s-6.917,1.043-6.917,2.329"/>
    <path class="cls-29" d="M233.333,451.655h.188a1.02746,1.02746,0,0,0,.473.76c.975.786,3.42,1.387,6.256,1.382a15.78118,15.78118,0,0,0,4.831-.673,4.80374,4.80374,0,0,0,1.425-.709.84625.84625,0,0,0,0-1.519c-.975-.786-3.42-1.387-6.256-1.382a15.78563,15.78563,0,0,0-4.831.673,4.77984,4.77984,0,0,0-1.425.709,1.02754,1.02754,0,0,0-.473.759h-.376a1.38608,1.38608,0,0,1,.615-1.053c1.125-.886,3.596-1.459,6.49-1.464a16.12831,16.12831,0,0,1,4.951.692,5.14868,5.14868,0,0,1,1.54.772,1.21079,1.21079,0,0,1,0,2.107c-1.125.886-3.597,1.459-6.491,1.464a16.16355,16.16355,0,0,1-4.951-.692,5.13,5.13,0,0,1-1.539-.772,1.38623,1.38623,0,0,1-.615-1.054h.188"/>
    <polyline class="cls-28" points="247.044 452.267 247.044 454.283 246.819 454.283 246.819 452.267"/>
    <polyline class="cls-28" points="246.678 452.54 246.678 454.557 246.453 454.557 246.453 452.54"/>
    <polyline class="cls-28" points="246.307 452.814 246.307 454.83 246.082 454.83 246.082 452.814"/>
    <polyline class="cls-28" points="245.936 453.026 245.936 455.043 245.711 455.043 245.711 453.026"/>
    <polyline class="cls-28" points="245.556 453.222 245.556 455.238 245.331 455.238 245.331 453.222"/>
    <polyline class="cls-28" points="245.133 453.419 245.133 455.435 244.908 455.435 244.908 453.419"/>
    <path class="cls-27" d="M242.921,448.88689a19.30524,19.30524,0,0,0-6.836,0h-3.499v2.024c0,1.286,3.097,2.329,6.917,2.329s6.917-1.043,6.917-2.329v-2.024h-3.499"/>
    <path class="cls-27" d="M242.921,448.88689l-.035.185a19.09916,19.09916,0,0,0-6.766,0l-.017.003h-3.329v1.836a1.02448,1.02448,0,0,0,.473.759c.975.787,3.42,1.387,6.256,1.382a15.81507,15.81507,0,0,0,4.831-.672,4.77941,4.77941,0,0,0,1.425-.71,1.02445,1.02445,0,0,0,.473-.759v-1.836h-3.328l-.018-.003.035-.185v-.188h3.687v2.212a1.39111,1.39111,0,0,1-.614,1.054c-1.125.885-3.597,1.458-6.491,1.463a16.13284,16.13284,0,0,1-4.951-.692,5.1298,5.1298,0,0,1-1.539-.771,1.38947,1.38947,0,0,1-.615-1.054v-2.212h3.687v.188l-.036-.184a19.45889,19.45889,0,0,1,6.908,0l-.036.184v0"/>
    <path class="cls-28" d="M232.586,448.88689c0,1.287,3.097,2.33,6.917,2.33s6.917-1.043,6.917-2.33c0-1.286-3.097-2.329-6.917-2.329s-6.917,1.043-6.917,2.329"/>
    <path class="cls-29" d="M232.586,448.88689h.188a1.02446,1.02446,0,0,0,.473.76c.975.786,3.42,1.387,6.256,1.382a15.78114,15.78114,0,0,0,4.831-.673,4.78014,4.78014,0,0,0,1.425-.709.84627.84627,0,0,0,0-1.519c-.975-.786-3.42-1.387-6.256-1.381a15.75836,15.75836,0,0,0-4.831.672,4.75648,4.75648,0,0,0-1.425.709,1.02452,1.02452,0,0,0-.473.759h-.376a1.38611,1.38611,0,0,1,.615-1.053c1.125-.886,3.596-1.458,6.49-1.464a16.15884,16.15884,0,0,1,4.951.692,5.14874,5.14874,0,0,1,1.54.772,1.2108,1.2108,0,0,1,0,2.107c-1.125.886-3.597,1.459-6.491,1.464a16.1635,16.1635,0,0,1-4.951-.692,5.1423,5.1423,0,0,1-1.539-.772,1.38627,1.38627,0,0,1-.615-1.054h.188"/>
    <path class="cls-30" d="M243.925,450.268h-.003a.22223.22223,0,0,1-.055-.437c.001,0,.106-.027.271-.082a4.61671,4.61671,0,0,0,.913-.405,1.47621,1.47621,0,0,0,.355-.285.40165.40165,0,0,0,.115-.256l-.001-.013c.008-.061-.1-.221-.349-.373a6.00808,6.00808,0,0,0-1.479-.589,6.47179,6.47179,0,0,0-1.123-.23h-.006a.22187.22187,0,0,1-.222-.214v-.016a.22245.22245,0,0,1,.214-.214h.017a4.20661,4.20661,0,0,1,.716.115,9.24371,9.24371,0,0,1,1.637.519,3.10406,3.10406,0,0,1,.687.399.83281.83281,0,0,1,.352.58v.057a.94363.94363,0,0,1-.358.663,4.70316,4.70316,0,0,1-1.626.774.21243.21243,0,0,1-.055.007m1.595-1.478v0"/>
    <polyline class="cls-28" points="246.297 449.498 246.297 451.515 246.072 451.515 246.072 449.498"/>
    <polyline class="cls-28" points="245.931 449.772 245.931 451.789 245.706 451.789 245.706 449.772"/>
    <polyline class="cls-28" points="245.56 450.046 245.56 452.062 245.335 452.062 245.335 450.046"/>
    <polyline class="cls-28" points="245.189 450.258 245.189 452.275 244.964 452.275 244.964 450.258"/>
    <polyline class="cls-28" points="244.809 450.454 244.809 452.471 244.585 452.471 244.585 450.454"/>
    <polyline class="cls-28" points="244.386 450.651 244.386 452.667 244.161 452.667 244.161 450.651"/>
  </g>
  <rect class="cls-1" y="0.00098" width="297.638" height="566.92902"/>
  <rect class="cls-1" y="0.00098" width="297.638" height="566.92902"/>
  <g class="cls-2">
    <path class="cls-3" d="M122.316,393.014v-1a10.77606,10.77606,0,0,0-4.399,1.094,7.92413,7.92413,0,0,0-3.102,2.686,9.02977,9.02977,0,0,0-1.403,5.124v69.058a10.76848,10.76848,0,0,0,1.093,4.399,7.93522,7.93522,0,0,0,2.687,3.102,9.02727,9.02727,0,0,0,5.124,1.403H175.78a10.77115,10.77115,0,0,0,4.4-1.093,7.93964,7.93964,0,0,0,3.101-2.687,9.02954,9.02954,0,0,0,1.403-5.124V400.918a10.76808,10.76808,0,0,0-1.093-4.399,7.94715,7.94715,0,0,0-2.686-3.102,9.04111,9.04111,0,0,0-5.125-1.403H122.316v2H175.78a7.03371,7.03371,0,0,1,4.015,1.067,6.48552,6.48552,0,0,1,2.515,3.624,9.44315,9.44315,0,0,1,.329,1.598c.023.203.035.365.04.471l.005.118v69.084a7.03577,7.03577,0,0,1-1.067,4.015,6.48653,6.48653,0,0,1-3.623,2.515,9.47141,9.47141,0,0,1-1.599.329c-.203.023-.364.034-.471.04l-.118.005h-53.49a7.03607,7.03607,0,0,1-4.015-1.067,6.48659,6.48659,0,0,1-2.515-3.623,9.47164,9.47164,0,0,1-.329-1.599c-.023-.203-.035-.364-.04-.471l-.005-.118V400.918a7.03834,7.03834,0,0,1,1.067-4.015,6.47977,6.47977,0,0,1,3.623-2.514,9.27685,9.27685,0,0,1,1.599-.329c.203-.024.364-.035.471-.041l.118-.004.025-.001h.001Z"/>
  </g>
  <text class="cls-31" transform="translate(168.00586 436.96027)"> </text>
  <text class="cls-32" transform="translate(137.10986 457.95831)"><tspan class="cls-33">k</tspan><tspan x="8.02051" y="0">W</tspan></text>
  <text class="cls-34" transform="translate(33.9917 186.52765)"> </text>
  <text class="cls-34" transform="translate(33.9917 204.18146)"> </text>
  <text class="cls-34" transform="translate(33.9917 223.82355)"> </text>
  <text class="cls-34" transform="translate(33.9917 239.46173)"> </text>
  <text class="cls-34" transform="translate(33.9917 257.11554)"> </text>
  <text class="cls-34" transform="translate(33.9917 274.76984)"> </text>
  <text class="cls-34" transform="translate(33.9917 292.42413)"> </text>
  <text class="cls-34" transform="translate(33.9917 310.06378)"> </text>
  <text class="cls-34" transform="translate(33.9917 327.71808)"> </text>
  <g class="cls-35">
    <rect class="cls-6" x="-36" y="175.03998" width="143.017" height="199.90201"/>
    <polygon class="cls-5" points="-36 242.621 -36 262.314 70.22 262.314 79.971 252.466 70.22 242.621 -36 242.621"/>
    <polygon class="cls-11" points="-36 220.094 -36 239.786 64.86 239.786 74.615 229.94 64.86 220.094 -36 220.094"/>
    <polygon class="cls-12" points="-36 197.567 -36 217.258 59.505 217.258 69.259 207.413 59.505 197.567 -36 197.567"/>
    <polygon class="cls-13" points="-36 175.04 -36 194.732 54.172 194.732 63.926 184.886 54.172 175.04 -36 175.04"/>
    <polygon class="cls-14" points="-36 265.149 -36 284.84 75.839 284.84 85.603 274.994 75.839 265.149 -36 265.149"/>
    <polygon class="cls-15" points="-36 287.673 -36 307.366 81.188 307.366 90.956 297.52 81.188 287.673 -36 287.673"/>
    <polygon class="cls-16" points="-36 310.199 -36 329.889 86.538 329.889 96.307 320.043 86.538 310.199 -36 310.199"/>
  </g>
  <text class="cls-10" transform="translate(34.14502 189.46027)">A</text>
  <text class="cls-17" transform="translate(43.84033 184.13214)">+++</text>
  <text class="cls-10" transform="translate(34.14502 211.96027)">A</text>
  <text class="cls-17" transform="translate(43.84033 206.63214)">++</text>
  <text class="cls-10" transform="translate(34.14502 234.46027)">A</text>
  <text class="cls-17" transform="translate(43.84033 229.13214)">+</text>
  <text class="cls-10" transform="translate(34.14502 256.96027)">A</text>
  <text class="cls-10" transform="translate(34.14502 279.45636)">B</text>
  <text class="cls-10" transform="translate(34.14502 301.95245)">C</text>
  <text class="cls-10" transform="translate(34.14502 324.44855)">D</text>
  <rect class="cls-1" width="297.64001" height="566.92999"/>
  <g id="spaceHeatingRating">
    <polyline id="spaceHeatingRatingArrow" class="cls-36" points="98.79 184.88 111.43 172.12 139.01 172.12 139.01 197.86 111.66 197.86 98.79 184.88"/>
    <text id="spaceHeatingRatingLetter" class="cls-37" transform="translate(107.29004 190.55011)">A</text>
    <text id="spaceHeatingRatingPlusses" class="cls-38" transform="translate(119.62012 184.59015)">+++</text>
  </g>
  <g id="waterHeatingRating">
    <polyline id="waterHeatingRatingArrow" class="cls-36" points="230.74 184.88 243.38 172.12 270.96 172.12 270.96 197.86 243.61 197.86 230.74 184.88"/>
    <text id="waterHeatingRatingLetter" class="cls-37" transform="translate(239.24023 190.55011)">A</text>
    <text id="waterHeatingRatingPlusses" class="cls-38" transform="translate(251.57031 184.59015)">+</text>
  </g>
  <text id="declaredLoadProfile" class="cls-39" transform="translate(182.09961 154.49005)">X</text>
  <text id="kw" class="cls-40" transform="translate(149.2002 436.96027)" text-anchor="middle">X</text>
  <g id="dbSection">
    <path class="cls-3" d="M38.2771,393.014v-1a10.7792,10.7792,0,0,0-4.399,1.094,7.924,7.924,0,0,0-3.102,2.686,9.02962,9.02962,0,0,0-1.403,5.124v69.058a10.76818,10.76818,0,0,0,1.093,4.399,7.93522,7.93522,0,0,0,2.687,3.102,9.02962,9.02962,0,0,0,5.124,1.403h53.464a10.77118,10.77118,0,0,0,4.4-1.093,7.94908,7.94908,0,0,0,3.102-2.687,9.03752,9.03752,0,0,0,1.403-5.124V400.918a10.79793,10.79793,0,0,0-1.094-4.399,7.939,7.939,0,0,0-2.686-3.102,9.04106,9.04106,0,0,0-5.125-1.403H38.2771v2h53.464a7.03371,7.03371,0,0,1,4.015,1.067,6.48053,6.48053,0,0,1,2.515,3.624,9.44332,9.44332,0,0,1,.329,1.598c.023.203.035.365.04.471l.005.118v.025l.001.001v69.058a7.03548,7.03548,0,0,1-1.068,4.015,6.4865,6.4865,0,0,1-3.623,2.515,9.45192,9.45192,0,0,1-1.599.329c-.202.023-.364.034-.471.04l-.118.005h-53.49a7.036,7.036,0,0,1-4.015-1.067,6.48661,6.48661,0,0,1-2.515-3.623,9.47164,9.47164,0,0,1-.329-1.599c-.023-.203-.034-.364-.04-.471l-.005-.118V400.918a7.03826,7.03826,0,0,1,1.067-4.015,6.47977,6.47977,0,0,1,3.623-2.514,9.27685,9.27685,0,0,1,1.599-.329c.203-.024.364-.035.471-.041l.118-.004.025-.001h.001Z"/>
    <g class="cls-41">
      <polygon class="cls-42" points="46.924 439.105 46.924 443.823 82.195 443.823 82.195 419.446 64.558 403.376 46.924 419.446 46.924 439.105"/>
    </g>
    <path class="cls-43" d="M55.7602,432.979q-1.458-1.30048-2.913-2.599h-2.078v-4.151h2.078q1.455-1.299,2.913-2.599l1.205-1.073v11.497Z"/>
    <path class="cls-44" d="M55.3921,432.071q-1.1745-1.04849-2.346-2.094h-1.674v-3.345h1.674c.781-.696,1.563-1.396,2.346-2.092l.971-.865v9.26Z"/>
    <path class="cls-45" d="M55.3921,432.071q-1.1745-1.04849-2.346-2.094h-1.674v-3.345h1.674c.781-.696,1.563-1.396,2.346-2.092l.971-.865v9.26Z"/>
    <path class="cls-46" d="M59.2548,423.359a7.75679,7.75679,0,0,1,.066,9.837m3.416-12.834a13.74774,13.74774,0,0,1,.046,15.858m3.568-18.882a19.98664,19.98664,0,0,1,.036,21.935"/>
    <text class="cls-47" transform="translate(64.85693 464.9212)"> </text>
    <text class="cls-48" transform="translate(69.38037 464.9212)"><tspan class="cls-49">d</tspan><tspan x="7.74609" y="0">B</tspan></text>
    <text id="db" class="cls-47" transform="translate(44.62012 464.91046)">X</text>
  </g>
  <text id="supplierLine2" class="cls-50" transform="translate(26.75966 106.25031)">X</text>
  <text id="supplierLine1" class="cls-50" transform="translate(26.75966 95.16925)">X</text>
  <text id="modelLine2" class="cls-50" transform="translate(153.22878 106.25031)">X</text>
  <text id="modelLine1" class="cls-50" transform="translate(153.22878 95.16925)">X</text>
</svg>
