<svg xmlns="http://www.w3.org/2000/svg" xmlns:xlink="http://www.w3.org/1999/xlink" id="Layer_1" data-name="Layer 1" width="105mm" height="200mm" viewBox="0 0 297.64001 566.92999" data-rating-increment="17.7" data-supplier-model-chars-per-row="25">
  <defs>
    <style>
      .cls-1, .cls-24, .cls-25, .cls-27, .cls-28 {
        fill: none;
      }

      .cls-2 {
        clip-path: url(#clip-path);
      }

      .cls-3 {
        fill: #00aeef;
      }

      .cls-4 {
        fill: #8ed8f7;
      }

      .cls-5 {
        fill: #05090a;
      }

      .cls-6 {
        fill: #24b9ec;
      }

      .cls-7 {
        fill: #676465;
      }

      .cls-8 {
        fill: #034ea2;
      }

      .cls-9 {
        fill: #fff200;
      }

      .cls-10, .cls-20, .cls-21, .cls-37, .cls-38 {
        fill: #fff;
      }

      .cls-11 {
        font-size: 12px;
      }

      .cls-11, .cls-29, .cls-30, .cls-32, .cls-33, .cls-34, .cls-36, .cls-39, .cls-40 {
        fill: #231f20;
      }

      .cls-11, .cls-30, .cls-34, .cls-38, .cls-40 {
        font-family: Calibri;
      }

      .cls-12 {
        letter-spacing: 0.059em;
      }

      .cls-13 {
        clip-path: url(#clip-path-2);
      }

      .cls-14 {
        fill: #bfd730;
      }

      .cls-15 {
        fill: #50b848;
      }

      .cls-16 {
        fill: #00a651;
      }

      .cls-17 {
        fill: #fdb913;
      }

      .cls-18 {
        fill: #f37021;
      }

      .cls-19 {
        fill: #ed1c24;
      }

      .cls-20 {
        font-size: 14px;
      }

      .cls-20, .cls-21, .cls-29, .cls-32, .cls-33, .cls-37, .cls-39 {
        font-family: Calibri-Bold, Calibri;
        font-weight: 700;
      }

      .cls-21 {
        font-size: 8.162px;
      }

      .cls-22 {
        letter-spacing: 0.01101em;
      }

      .cls-23 {
        clip-path: url(#clip-path-4);
      }

      .cls-24, .cls-28 {
        stroke: #00aeef;
        stroke-linecap: round;
        stroke-linejoin: round;
      }

      .cls-24 {
        stroke-width: 0.958px;
      }

      .cls-25 {
        stroke: #fff;
        stroke-width: 0.836px;
      }

      .cls-26 {
        fill: #2aace3;
      }

      .cls-27 {
        stroke: #2aace3;
        stroke-width: 0.673px;
      }

      .cls-28 {
        stroke-width: 1.703px;
      }

      .cls-29 {
        font-size: 20px;
      }

      .cls-30, .cls-38 {
        font-size: 15px;
      }

      .cls-31 {
        letter-spacing: -0.00898em;
      }

      .cls-32 {
        font-size: 10px;
      }

      .cls-33, .cls-34 {
        font-size: 30px;
      }

      .cls-35 {
        letter-spacing: -0.01299em;
      }

      .cls-37 {
        font-size: 24px;
      }

      .cls-39 {
        font-size: 45px;
      }

      .cls-40 {
        font-size: 11px;
      }
    </style>
    <clipPath id="clip-path">
      <rect class="cls-1" y="0.00098" width="297.638" height="566.92902"/>
    </clipPath>
    <clipPath id="clip-path-2">
      <rect class="cls-1" x="26.513" y="175.11798" width="135.912" height="174.01701"/>
    </clipPath>
    <clipPath id="clip-path-4">
      <rect class="cls-1" x="43.231" y="398.522" width="37.035" height="41.02999"/>
    </clipPath>
  </defs>
  <title>boiler-space-heaters-2015</title>
  <g class="cls-2">
    <path class="cls-3" d="M24.0691,16.166v-2a11.7328,11.7328,0,0,0-4.847,1.199,8.94493,8.94493,0,0,0-3.486,3.026,10.03567,10.03567,0,0,0-1.571,5.679V542.861a11.72523,11.72523,0,0,0,1.199,4.846,8.94088,8.94088,0,0,0,3.026,3.487,10.03328,10.03328,0,0,0,5.679,1.571h249.5a11.72477,11.72477,0,0,0,4.846-1.199,8.94834,8.94834,0,0,0,3.487-3.026,10.03579,10.03579,0,0,0,1.571-5.679V24.07007a11.72489,11.72489,0,0,0-1.199-4.846,8.9403,8.9403,0,0,0-3.026-3.487,10.03558,10.03558,0,0,0-5.679-1.571h-249.5v4h249.5a6.04592,6.04592,0,0,1,3.46.899,4.73306,4.73306,0,0,1,1.355,1.397,7.1815,7.1815,0,0,1,.95,2.468,8.2401,8.2401,0,0,1,.124.878c.008.103.012.18.013.226l.002.044v.003l1.189-.011h-1.189v.011l1.189-.011h-1.189V542.861a6.044,6.044,0,0,1-.899,3.46,4.71289,4.71289,0,0,1-1.398,1.355,7.1712,7.1712,0,0,1-2.467.95,7.98148,7.98148,0,0,1-.878.124c-.103.008-.181.012-.226.014l-.044.001h-.003l.011,1.191v-1.191h-.011l.011,1.191v-1.191h-249.5a6.04356,6.04356,0,0,1-3.46-.899,4.70964,4.70964,0,0,1-1.355-1.397,7.20526,7.20526,0,0,1-.951-2.46795,8.14846,8.14846,0,0,1-.123-.87805c-.008-.103-.012-.18-.014-.226l-.001-.044v-.003l-1.193.011h1.193v-.011l-1.193.011h1.193V24.07007a6.046,6.046,0,0,1,.899-3.46,4.70921,4.70921,0,0,1,1.397-1.355,7.18171,7.18171,0,0,1,2.468-.95,7.95158,7.95158,0,0,1,.878-.124c.103-.008.18-.012.226-.014l.044-.001h.003l-.011-1.18995V18.166h.011l-.011-1.18995V16.166Z"/>
    <rect x="29.112" y="123.19897" width="3.947" height="1.11401"/>
    <path d="M64.0992,144.403h1.348v.557l-.037-.556.09-.003a2.16139,2.16139,0,0,1,1.037.263,1.62923,1.62923,0,0,1,.604.592,1.96952,1.96952,0,0,1,.248,1.003v1.967h-1.113v-1.967a.84531.84531,0,0,0-.097-.44.56576.56576,0,0,0-.326-.246,1.19938,1.19938,0,0,0-.353-.058l-.02.001-.004-.114.008.113-.004.001-.004-.114.008.113-.019.002h-1.366Z"/>
    <polygon points="30.012 122.449 29.837 122.606 28.554 122.606 28.379 122.449 28.136 120.261 28.276 120.104 30.115 120.104 30.255 120.261 30.012 122.449"/>
    <polyline points="28.669 148.394 28.669 121.677 29.783 121.677 29.783 148.394"/>
    <path class="cls-4" d="M64.3577,145.503a2.10509,2.10509,0,0,1-1.856,1.856,2.13967,2.13967,0,0,1-1.857-1.856v-23.53a1.8565,1.8565,0,0,1,3.713,0v23.53"/>
    <polygon class="cls-5" points="36.325 145.888 34.035 146.259 34.035 143.66 36.325 144.032 36.325 145.888"/>
    <polygon class="cls-4" points="36.325 145.888 38.615 146.259 38.615 143.66 36.325 144.032 36.325 145.888"/>
    <polygon class="cls-4" points="42.127 145.888 39.837 146.259 39.837 143.66 42.127 144.032 42.127 145.888"/>
    <polygon class="cls-4" points="42.127 145.888 44.417 146.259 44.417 143.66 42.127 144.032 42.127 145.888"/>
    <polygon class="cls-4" points="47.943 145.888 45.653 146.259 45.653 143.66 47.943 144.032 47.943 145.888"/>
    <polygon class="cls-4" points="47.943 145.888 50.232 146.259 50.232 143.66 47.943 144.032 47.943 145.888"/>
    <polygon class="cls-4" points="53.745 145.888 51.456 146.259 51.456 143.66 53.745 144.032 53.745 145.888"/>
    <polygon class="cls-4" points="53.745 145.888 56.034 146.259 56.034 143.66 53.745 144.032 53.745 145.888"/>
    <polygon class="cls-4" points="59.732 145.888 57.443 146.259 57.443 143.66 59.732 144.032 59.732 145.888"/>
    <polygon class="cls-4" points="59.732 145.888 62.021 146.259 62.021 143.66 59.732 144.032 59.732 145.888"/>
    <polygon class="cls-5" points="36.325 123.534 34.035 123.906 34.035 121.307 36.325 121.678 36.325 123.534"/>
    <polygon class="cls-4" points="36.325 123.534 38.615 123.906 38.615 121.307 36.325 121.678 36.325 123.534"/>
    <polygon class="cls-4" points="42.127 123.534 39.837 123.906 39.837 121.307 42.127 121.678 42.127 123.534"/>
    <polygon class="cls-4" points="42.127 123.534 44.417 123.906 44.417 121.307 42.127 121.678 42.127 123.534"/>
    <polygon class="cls-4" points="47.943 123.534 45.653 123.906 45.653 121.307 47.943 121.678 47.943 123.534"/>
    <polygon class="cls-4" points="47.943 123.534 50.232 123.906 50.232 121.307 47.943 121.678 47.943 123.534"/>
    <polygon class="cls-4" points="53.745 123.534 51.456 123.906 51.456 121.307 53.745 121.678 53.745 123.534"/>
    <polygon class="cls-4" points="53.745 123.534 56.034 123.906 56.034 121.307 53.745 121.678 53.745 123.534"/>
    <polygon class="cls-6" points="53.745 123.2 54.89 123.437 54.89 121.775 53.745 122.013 53.745 123.2"/>
    <polygon class="cls-4" points="59.732 123.534 57.443 123.906 57.443 121.307 59.732 121.678 59.732 123.534"/>
    <polygon class="cls-4" points="59.732 123.534 62.021 123.906 62.021 121.307 59.732 121.678 59.732 123.534"/>
    <polygon class="cls-5" points="53.745 123.534 51.456 123.906 51.456 121.307 53.745 121.678 53.745 123.534"/>
    <polygon class="cls-5" points="53.745 123.534 56.034 123.906 56.034 121.307 53.745 121.678 53.745 123.534"/>
    <path class="cls-7" d="M54.8279,123.425l-1.083-.225v-1.187l1.096-.228a1.31024,1.31024,0,0,0-.013.188v1.452"/>
    <polygon class="cls-5" points="59.4 123.534 57.111 123.906 57.111 121.307 59.4 121.678 59.4 123.534"/>
    <polygon class="cls-5" points="59.4 123.534 61.689 123.906 61.689 121.307 59.4 121.678 59.4 123.534"/>
    <polygon class="cls-7" points="60.544 123.437 60.543 123.437 59.399 123.2 59.399 122.013 60.543 121.775 60.544 121.775 60.544 123.437"/>
    <polygon class="cls-5" points="47.943 123.534 45.654 123.906 45.654 121.307 47.943 121.678 47.943 123.534"/>
    <polygon class="cls-5" points="47.943 123.534 50.232 123.906 50.232 121.307 47.943 121.678 47.943 123.534"/>
    <path class="cls-7" d="M49.0108,123.421l-1.068-.221v-1.187l1.081-.225a1.26909,1.26909,0,0,0-.013.185v1.448"/>
    <polygon class="cls-5" points="42.127 123.534 39.838 123.906 39.838 121.307 42.127 121.678 42.127 123.534"/>
    <polygon class="cls-5" points="42.127 123.534 44.416 123.906 44.416 121.307 42.127 121.678 42.127 123.534"/>
    <path class="cls-7" d="M43.1942,123.421l-1.068-.221v-1.187l1.081-.225a1.426,1.426,0,0,0-.013.185v1.448"/>
    <polygon class="cls-5" points="36.325 123.534 34.036 123.906 34.036 121.307 36.325 121.678 36.325 123.534"/>
    <polygon class="cls-5" points="36.325 123.534 38.614 123.906 38.614 121.307 36.325 121.678 36.325 123.534"/>
    <path class="cls-7" d="M37.3772,123.418l-1.052-.218v-1.187l1.064-.221a1.353,1.353,0,0,0-.012.181v1.445"/>
    <polygon class="cls-5" points="53.745 145.886 51.456 146.258 51.456 143.659 53.745 144.03 53.745 145.886"/>
    <polygon class="cls-5" points="53.745 145.886 56.034 146.258 56.034 143.659 53.745 144.03 53.745 145.886"/>
    <path class="cls-7" d="M54.8573,145.783l-1.112-.231v-1.187l1.083-.225v1.363a1.37858,1.37858,0,0,0,.029.28"/>
    <polygon class="cls-5" points="59.4 145.886 57.111 146.258 57.111 143.659 59.4 144.03 59.4 145.886"/>
    <polygon class="cls-5" points="59.4 145.886 61.689 146.258 61.689 143.659 59.4 144.03 59.4 145.886"/>
    <polygon class="cls-7" points="60.544 145.789 60.543 145.789 59.399 145.552 59.399 144.365 60.543 144.127 60.544 144.127 60.544 145.789"/>
    <polygon class="cls-5" points="47.943 145.886 45.654 146.258 45.654 143.659 47.943 144.03 47.943 145.886"/>
    <polygon class="cls-5" points="47.943 145.886 50.232 146.258 50.232 143.659 47.943 144.03 47.943 145.886"/>
    <path class="cls-7" d="M49.0396,145.779l-1.096-.227v-1.187l1.067-.222v1.36a1.33243,1.33243,0,0,0,.029.276"/>
    <polygon class="cls-5" points="42.127 145.886 39.838 146.258 39.838 143.659 42.127 144.03 42.127 145.886"/>
    <polygon class="cls-5" points="42.127 145.886 44.416 146.258 44.416 143.659 42.127 144.03 42.127 145.886"/>
    <path class="cls-7" d="M43.223,145.779l-1.096-.227v-1.187l1.067-.222v1.36a1.33243,1.33243,0,0,0,.029.276"/>
    <polygon class="cls-5" points="36.325 145.886 34.036 146.258 34.036 143.659 36.325 144.03 36.325 145.886"/>
    <polygon class="cls-5" points="36.325 145.886 38.614 146.258 38.614 143.659 36.325 144.03 36.325 145.886"/>
    <path class="cls-7" d="M37.4052,145.776l-1.08-.224v-1.187l1.052-.219v1.357a1.374,1.374,0,0,0,.028.273"/>
    <path class="cls-5" d="M64.3577,145.503a2.10509,2.10509,0,0,1-1.856,1.856,2.13967,2.13967,0,0,1-1.857-1.856v-23.53a1.8565,1.8565,0,0,1,3.713,0v23.53"/>
    <path class="cls-5" d="M58.5408,145.503a2.106,2.106,0,0,1-1.857,1.856,2.13966,2.13966,0,0,1-1.856-1.856v-23.53a1.8565,1.8565,0,0,1,3.713,0v23.53"/>
    <path class="cls-5" d="M52.7237,145.503a2.106,2.106,0,0,1-1.856,1.856,2.13967,2.13967,0,0,1-1.857-1.856v-23.53a2.14446,2.14446,0,0,1,1.857-1.856,2.1435,2.1435,0,0,1,1.856,1.856v23.53"/>
    <path class="cls-5" d="M46.9071,145.503a2.106,2.106,0,0,1-1.857,1.856,2.13966,2.13966,0,0,1-1.856-1.856v-23.53a2.1435,2.1435,0,0,1,1.856-1.856,2.14446,2.14446,0,0,1,1.857,1.856v23.53"/>
    <path class="cls-5" d="M41.0901,145.503a2.10508,2.10508,0,0,1-1.856,1.856,2.13967,2.13967,0,0,1-1.857-1.856v-23.53a2.14446,2.14446,0,0,1,1.857-1.856,2.1435,2.1435,0,0,1,1.856,1.856v23.53"/>
    <path class="cls-5" d="M35.273,145.503a2.10508,2.10508,0,0,1-1.856,1.856,2.13967,2.13967,0,0,1-1.857-1.856v-23.53a2.14446,2.14446,0,0,1,1.857-1.856,2.1435,2.1435,0,0,1,1.856,1.856v23.53"/>
    <path class="cls-7" d="M62.5011,147.127a1.98711,1.98711,0,0,1-1.625-1.818V122.268a1.99873,1.99873,0,0,1,1.611-1.818h.014v26.677"/>
    <path class="cls-7" d="M56.7111,147.127a1.98711,1.98711,0,0,1-1.625-1.818V122.268a1.99873,1.99873,0,0,1,1.611-1.818h.014v26.677"/>
    <path class="cls-7" d="M50.9213,147.127a1.99,1.99,0,0,1-1.625-1.797V122.248a2.00122,2.00122,0,0,1,1.611-1.798h.014v26.677"/>
    <path class="cls-7" d="M45.1311,147.127a1.98711,1.98711,0,0,1-1.625-1.818V122.268a1.9977,1.9977,0,0,1,1.611-1.818h.014v26.677"/>
    <path class="cls-7" d="M39.3412,147.127a1.98711,1.98711,0,0,1-1.625-1.818V122.268a1.9977,1.9977,0,0,1,1.611-1.818h.014v26.677"/>
    <path class="cls-7" d="M33.5511,147.127a1.98711,1.98711,0,0,1-1.625-1.818V122.268a1.99873,1.99873,0,0,1,1.611-1.818h.014v26.677"/>
    
    <rect class="cls-3" x="100.45599" y="26.492" width="170.28799" height="48.06"/>
    
    
    
    
    
    
    
    
    
    
    
    

































    <polyline class="cls-3" points="26.514 112.593 271.18 112.593 271.18 111.593 26.514 111.593"/>
  <g id="union-flag" transform="translate(26.965, 26.492) scale(1.602)">
	<path id="blue" fill="#004289" d="M9.59,20L0,26.39V20H9.59z M39.59,0H27.5v8.06L39.59,0z M0,3.61V10h9.59L0,3.61z M17.5,0H5.41
		L17.5,8.06V0z M27.5,30h12.09L27.5,21.94V30z M45,10V3.61L35.41,10H45z M45,26.39V20h-9.59L45,26.39z M5.41,30H17.5v-8.06L5.41,30z
		"/>
	<path id="red" fill="#DC2F34" d="M45,18H25.5v12h-6V18H0v-6h19.5V0h6v12H45V18z M0,2.42L11.38,10h3.61L0,0.01V2.42z M45,27.58
		L33.62,20h-3.61L45,29.99V27.58z M17.5,20.74V20H15L0,30h3.61L17.5,20.74z M27.5,9.26V10H30L45,0h-3.61L27.5,9.26z"/>
</g><path id="energy-heading" d="M7.1581,7.21791H2.33537v3.7413H7.72769v1.90845H0V.13234H7.44305V2.04079H2.33537V5.32836H7.1581Zm3.53413,5.64975V.13234h2.677L16.67314,5.593a37.85159,37.85159,0,0,1,2.18339,4.27032h.038a51.82706,51.82706,0,0,1-.20865-5.29055V.13234h2.1644V12.86766H18.41992L15.07833,7.25572a43.774,43.774,0,0,1-2.2787-4.38342l-.076.0189c.095,1.64379.133,3.32538.133,5.42289v4.55357ZM31.63845,7.21791H26.81573v3.7413h5.392v1.90845H24.48V.13234h7.44305V2.04079H26.81573V5.32836h4.82272ZM35.19126.32139A20.16965,20.16965,0,0,1,38.72282.03781a5.98372,5.98372,0,0,1,3.94949,1.02056,3.228,3.228,0,0,1,1.1012,2.56949,3.347,3.347,0,0,1-2.3357,3.17446V6.859a3.16007,3.16007,0,0,1,1.7851,2.45638,32.106,32.106,0,0,0,1.00653,3.55224H41.83707a16.17761,16.17761,0,0,1-.85455-3.00431c-.37994-1.66269-.96854-2.19171-2.2977-2.22952H37.50764v5.23383H35.19126ZM37.50764,5.933h1.38647c1.57581,0,2.5437-.83119,2.5437-2.09719,0-1.37943-.96789-2.04079-2.487-2.04079a6.74576,6.74576,0,0,0-1.44314.11343Zm19.67341,6.34892A12.70364,12.70364,0,0,1,53.08022,13a6.96331,6.96331,0,0,1-5.032-1.7005,6.3681,6.3681,0,0,1-1.78446-4.68623C46.28243,2.56982,49.1494,0,53.38353,0a8.52961,8.52961,0,0,1,3.3989.60464l-.5126,1.87065a6.6378,6.6378,0,0,0-2.905-.54793c-2.73432,0-4.65207,1.606-4.65207,4.5728,0,2.89088,1.78509,4.61029,4.44342,4.61029a4.91246,4.91246,0,0,0,1.76578-.24577v-3.193H52.66228V5.8388h4.51877Zm6.23045.58573V7.55821L59.36734.13234h2.677l1.51914,3.269c.43661.94462.75924,1.66269,1.11987,2.53169h.038c.304-.81228.66458-1.606,1.10184-2.53169L67.361.13234H70L65.74719,7.50149v5.36617Z" fill="#fff" transform="translate(114.41590461530343, 39.85376885441002) scale(1.602)"/></g>
  <text class="cls-11" transform="translate(34.15381 109.38214)"><tspan class="cls-12" xml:space="preserve">                </tspan><tspan x="54.73438" y="0"> </tspan></text>
  <g class="cls-13">
    <rect class="cls-10" x="-454.01599" y="126.14301" width="1062.98999" height="255.118"/>
    <rect class="cls-10" x="-454.01599" y="126.14301" width="1062.98999" height="255.11798"/>
    <polygon class="cls-14" points="-28.781 210.226 -28.781 224.383 105.301 224.383 112.313 217.305 105.301 210.226 -28.781 210.226"/>
    <polygon class="cls-15" points="-28.781 192.504 -28.781 206.661 97.137 206.661 104.147 199.583 97.137 192.504 -28.781 192.504"/>
    <polygon class="cls-16" points="-28.781 174.8 -28.781 188.956 88.975 188.956 95.985 181.878 88.975 174.8 -28.781 174.8"/>
    <polygon class="cls-9" points="-28.781 227.921 -28.781 242.077 113.655 242.077 120.676 234.998 113.655 227.921 -28.781 227.921"/>
    <polygon class="cls-17" points="-28.781 245.645 -28.781 259.802 121.815 259.802 128.836 252.723 121.815 245.645 -28.781 245.645"/>
    <polygon class="cls-18" points="-28.781 263.336 -28.781 277.492 129.973 277.492 137 270.412 129.973 263.336 -28.781 263.336"/>
    <polygon class="cls-19" points="-28.781 281.033 -28.781 295.187 138.133 295.187 145.16 288.113 138.133 281.033 -28.781 281.033"/>
    <polygon class="cls-19" points="-28.781 298.73 -28.781 312.888 146.289 312.888 153.323 305.81 146.289 298.73 -28.781 298.73"/>
    <polygon class="cls-19" points="-28.781 316.433 -28.781 330.589 154.033 330.589 161.522 323.511 154.033 316.433 -28.781 316.433"/>
  </g>
  <text class="cls-20" transform="translate(33.9917 186.52765)"> </text>
  <text class="cls-20" transform="translate(37.15576 186.52765)">A</text>
  <text class="cls-21" transform="translate(45.63232 181.8714)"><tspan class="cls-22">+</tspan><tspan x="4.15479" y="0">+</tspan></text>
  <text class="cls-20" transform="translate(33.9917 204.18683)"> </text>
  <text class="cls-20" transform="translate(37.15576 204.18683)">A</text>
  <text class="cls-21" transform="translate(45.63232 199.53058)">+</text>
  <text class="cls-20" transform="translate(33.9917 223.83527)"> </text>
  <text class="cls-20" transform="translate(37.15576 221.83331)">A</text>
  <text class="cls-20" transform="translate(33.9917 239.47345)"> </text>
  <text class="cls-20" transform="translate(37.15576 239.47345)">B</text>
  <text class="cls-20" transform="translate(33.9917 257.12726)"> </text>
  <text class="cls-20" transform="translate(37.15576 257.12726)">C</text>
  <text class="cls-20" transform="translate(33.9917 274.78107)"> </text>
  <text class="cls-20" transform="translate(37.15576 274.78107)">D</text>
  <text class="cls-20" transform="translate(33.9917 292.43488)"> </text>
  <text class="cls-20" transform="translate(37.15576 292.43488)">E</text>
  <text class="cls-20" transform="translate(33.9917 310.0755)"> </text>
  <text class="cls-20" transform="translate(37.15576 310.0755)">F</text>
  <text class="cls-20" transform="translate(33.9917 327.72882)"> </text>
  <text class="cls-20" transform="translate(37.15576 327.72882)">G</text>
  <g class="cls-2">
    <path class="cls-3" d="M35.8683,388.639v-1a10.76856,10.76856,0,0,0-4.399,1.093,7.93535,7.93535,0,0,0-3.102,2.687,9.03508,9.03508,0,0,0-1.403,5.124v69.058A10.76818,10.76818,0,0,0,28.0573,470a7.94211,7.94211,0,0,0,2.687,3.102,9.03509,9.03509,0,0,0,5.124,1.403h53.464a10.79789,10.79789,0,0,0,4.4-1.094,7.94613,7.94613,0,0,0,3.102-2.686,9.03987,9.03987,0,0,0,1.403-5.124V396.543a10.79793,10.79793,0,0,0-1.094-4.399,7.932,7.932,0,0,0-2.686-3.102,9.03316,9.03316,0,0,0-5.125-1.403H35.8683v2h53.464a7.03371,7.03371,0,0,1,4.015,1.067,6.48172,6.48172,0,0,1,2.515,3.623,9.47152,9.47152,0,0,1,.329,1.599c.024.203.035.364.04.471l.005.118.001.025v69.059a7.03792,7.03792,0,0,1-1.068,4.015,6.47966,6.47966,0,0,1-3.623,2.514,9.25738,9.25738,0,0,1-1.599.329c-.202.024-.364.035-.471.041l-.118.004-.025.001H35.8683a7.04383,7.04383,0,0,1-4.015-1.067,6.48544,6.48544,0,0,1-2.515-3.624,9.444,9.444,0,0,1-.329-1.598c-.023-.203-.035-.365-.04-.472l-.005-.117V396.543a7.03591,7.03591,0,0,1,1.067-4.015,6.4866,6.4866,0,0,1,3.623-2.515,9.47036,9.47036,0,0,1,1.599-.329c.203-.023.364-.035.471-.04l.118-.005h.026Z"/>
    <path class="cls-3" d="M115.295,388.639v-1a10.76853,10.76853,0,0,0-4.399,1.093,7.94219,7.94219,0,0,0-3.102,2.687,9.03751,9.03751,0,0,0-1.403,5.124v69.058A10.77909,10.77909,0,0,0,107.485,470a7.93091,7.93091,0,0,0,2.686,3.102,9.03739,9.03739,0,0,0,5.124,1.403h147.61a10.779,10.779,0,0,0,4.399-1.094,7.9309,7.9309,0,0,0,3.102-2.686,9.0376,9.0376,0,0,0,1.403-5.124V396.543a10.7788,10.7788,0,0,0-1.094-4.399,7.9238,7.9238,0,0,0-2.686-3.102,9.02966,9.02966,0,0,0-5.124-1.403H115.295v2h147.61a7.03835,7.03835,0,0,1,4.015,1.067,6.47973,6.47973,0,0,1,2.514,3.623,9.27909,9.27909,0,0,1,.329,1.599c.024.203.035.364.041.471l.004.118.001.025v69.059a7.03821,7.03821,0,0,1-1.067,4.015,6.47853,6.47853,0,0,1-3.624,2.514,9.2488,9.2488,0,0,1-1.598.329c-.203.024-.365.035-.472.041l-.117.004-.025.001H115.295a7.03841,7.03841,0,0,1-4.015-1.067,6.4786,6.4786,0,0,1-2.514-3.624,9.24927,9.24927,0,0,1-.329-1.598c-.024-.203-.035-.365-.041-.472l-.004-.117-.001-.025V396.543a7.036,7.036,0,0,1,1.067-4.015,6.48546,6.48546,0,0,1,3.624-2.515,9.44243,9.44243,0,0,1,1.598-.329c.203-.023.364-.034.471-.04l.118-.005h.026Z"/>
  </g>
  <g class="cls-23">
    <polygon class="cls-24" points="44.516 434.729 44.516 439.447 79.787 439.447 79.787 415.07 62.15 399.001 44.516 415.07 44.516 434.729"/>
  </g>
  <g class="cls-2">
    <path class="cls-25" d="M53.3514,428.603q-1.458-1.299-2.913-2.598h-2.078v-4.151h2.078q1.455-1.299,2.913-2.599l1.205-1.073v11.497Z"/>
    <path class="cls-26" d="M52.9834,427.695q-1.1745-1.047-2.347-2.093h-1.673v-3.345h1.673q1.173-1.044,2.347-2.093l.971-.864v9.26Z"/>
    <path class="cls-27" d="M52.9834,427.695q-1.1745-1.047-2.347-2.093h-1.673v-3.345h1.673q1.173-1.044,2.347-2.093l.971-.864v9.26Z"/>
    <path class="cls-28" d="M56.846,418.984a7.7554,7.7554,0,0,1,.066,9.836m3.416-12.834a13.74929,13.74929,0,0,1,.046,15.859m3.568-18.883a19.98666,19.98666,0,0,1,.036,21.935"/>
  </g>
  <text class="cls-29" transform="translate(62.45264 460.5462)"> </text>
  <text class="cls-30" transform="translate(66.96631 460.5462)"><tspan class="cls-31">d</tspan><tspan x="7.74609" y="0">B</tspan></text>
  <text class="cls-32" transform="translate(26.88818 541.5462)">2015</text>
  <text class="cls-32" transform="translate(231.51855 541.5462)">811/2013</text>
  <text class="cls-33" transform="translate(189.19336 445.18683)"> </text>
  <g id="rating">
    <polyline id="ratingArrow" class="cls-36" points="208.26 181.87 224.9 165.06 270.94 165.06 270.94 198.96 225.21 198.96 208.26 181.87"/>
    <text id="ratingLetter" class="cls-37" transform="translate(221.01953 189.11017)">A</text>
    <text id="ratingPlusses" class="cls-38" transform="translate(236.98047 181.01984)">++</text>
  </g>
  <text transform="translate(188.89014 445.21027)" text-anchor="middle">
    <tspan id="kw" class="cls-39">X</tspan>
    <tspan class="cls-34">kW</tspan>
  </text>
  <text id="db" class="cls-29" transform="translate(42.18018 460.55011)">X</text>
  <text class="cls-11" transform="translate(33.94971 109.38228)"><tspan class="cls-12" xml:space="preserve">                </tspan><tspan x="54.73438" y="0"> </tspan></text>
  <text id="supplierLine2" class="cls-40" transform="translate(26.76101 106.30031)">X</text>
  <text id="supplierLine1" class="cls-40" transform="translate(26.76101 95.21925)">X</text>
  <text id="modelLine2" class="cls-40" transform="translate(153.23013 106.30031)">X</text>
  <text id="modelLine1" class="cls-40" transform="translate(153.23013 95.21925)">X</text>
</svg>