<svg id="Layer_1" data-name="Layer 1" xmlns="http://www.w3.org/2000/svg" xmlns:xlink="http://www.w3.org/1999/xlink" width="105mm" height="200mm" viewBox="0 0 297.64001 566.92999" data-rating-increment="21.8333" data-supplier-model-chars-per-row="25">
  <defs>
    <style>
      .cls-1, .cls-14, .cls-15, .cls-17, .cls-18 {
        fill: none;
      }

      .cls-2 {
        clip-path: url(#clip-path);
      }

      .cls-3 {
        fill: #00aeef;
      }

      .cls-4 {
        fill: #8ed8f7;
      }

      .cls-5 {
        fill: #05090a;
      }

      .cls-6 {
        fill: #24b9ec;
      }

      .cls-7 {
        fill: #676465;
      }

      .cls-8 {
        fill: #034ea2;
      }

      .cls-9 {
        fill: #fff200;
      }

      .cls-10, .cls-27, .cls-35, .cls-38, .cls-39 {
        fill: #fff;
      }

      .cls-11 {
        font-size: 12px;
      }

      .cls-11, .cls-19, .cls-20, .cls-22, .cls-23, .cls-24, .cls-37, .cls-40, .cls-41 {
        fill: #231f20;
      }

      .cls-11, .cls-20, .cls-24, .cls-39, .cls-40 {
        font-family: Calibri;
      }

      .cls-12 {
        letter-spacing: 0.059em;
      }

      .cls-13 {
        clip-path: url(#clip-path-3);
      }

      .cls-14, .cls-18 {
        stroke: #00aeef;
        stroke-linecap: round;
        stroke-linejoin: round;
      }

      .cls-14 {
        stroke-width: 0.958px;
      }

      .cls-15 {
        stroke: #fff;
        stroke-width: 0.836px;
      }

      .cls-16 {
        fill: #2aace3;
      }

      .cls-17 {
        stroke: #2aace3;
        stroke-width: 0.673px;
      }

      .cls-18 {
        stroke-width: 1.703px;
      }

      .cls-19 {
        font-size: 20px;
      }

      .cls-19, .cls-22, .cls-23, .cls-27, .cls-35, .cls-38, .cls-41 {
        font-family: Calibri-Bold, Calibri;
        font-weight: 700;
      }

      .cls-20, .cls-39 {
        font-size: 15px;
      }

      .cls-21 {
        letter-spacing: -0.00898em;
      }

      .cls-22 {
        font-size: 10px;
      }

      .cls-23, .cls-24 {
        font-size: 30px;
      }

      .cls-25 {
        letter-spacing: -0.01299em;
      }

      .cls-26 {
        clip-path: url(#clip-path-5);
      }

      .cls-27 {
        font-size: 17.7176px;
      }

      .cls-28 {
        clip-path: url(#clip-path-6);
      }

      .cls-29 {
        fill: #bfd730;
      }

      .cls-30 {
        fill: #50b848;
      }

      .cls-31 {
        fill: #00a651;
      }

      .cls-32 {
        fill: #fdb913;
      }

      .cls-33 {
        fill: #f37021;
      }

      .cls-34 {
        fill: #ed1c24;
      }

      .cls-35 {
        font-size: 12.1225px;
      }

      .cls-36 {
        letter-spacing: 0.011em;
      }

      .cls-38 {
        font-size: 24px;
      }

      .cls-40 {
        font-size: 11px;
      }

      .cls-41 {
        font-size: 45px;
      }
    </style>
    <clipPath id="clip-path">
      <rect class="cls-1" y="0.00098" width="297.638" height="566.92902"/>
    </clipPath>
    <clipPath id="clip-path-3">
      <rect class="cls-1" x="43.231" y="398.522" width="37.035" height="41.02999"/>
    </clipPath>
    <clipPath id="clip-path-5">
      <rect class="cls-1" x="26.513" y="158.289" width="152.17101" height="155.754"/>
    </clipPath>
    <clipPath id="clip-path-6">
      <rect class="cls-1" x="26.513" y="168.289" width="152.17101" height="155.754"/>
    </clipPath>
  </defs>
  <title>boiler-space-heaters-2019</title>
  <g class="cls-2">
    <path class="cls-3" d="M24.0691,16.166v-2a11.7328,11.7328,0,0,0-4.847,1.199,8.94493,8.94493,0,0,0-3.486,3.026,10.03567,10.03567,0,0,0-1.571,5.679V542.861a11.72523,11.72523,0,0,0,1.199,4.846,8.94088,8.94088,0,0,0,3.026,3.487,10.03328,10.03328,0,0,0,5.679,1.571h249.5a11.72477,11.72477,0,0,0,4.846-1.199,8.94834,8.94834,0,0,0,3.487-3.026,10.03579,10.03579,0,0,0,1.571-5.679V24.07007a11.72489,11.72489,0,0,0-1.199-4.846,8.9403,8.9403,0,0,0-3.026-3.487,10.03558,10.03558,0,0,0-5.679-1.571h-249.5v4h249.5a6.04592,6.04592,0,0,1,3.46.899,4.73306,4.73306,0,0,1,1.355,1.397,7.1815,7.1815,0,0,1,.95,2.468,8.2401,8.2401,0,0,1,.124.878c.008.103.012.18.013.226l.002.044v.003l1.189-.011h-1.189v.011l1.189-.011h-1.189V542.861a6.044,6.044,0,0,1-.899,3.46,4.71289,4.71289,0,0,1-1.398,1.355,7.1712,7.1712,0,0,1-2.467.95,7.98148,7.98148,0,0,1-.878.124c-.103.008-.181.012-.226.014l-.044.001h-.003l.011,1.191v-1.191h-.011l.011,1.191v-1.191h-249.5a6.04356,6.04356,0,0,1-3.46-.899,4.70964,4.70964,0,0,1-1.355-1.397,7.20526,7.20526,0,0,1-.951-2.46795,8.14846,8.14846,0,0,1-.123-.87805c-.008-.103-.012-.18-.014-.226l-.001-.044v-.003l-1.193.011h1.193v-.011l-1.193.011h1.193V24.07007a6.046,6.046,0,0,1,.899-3.46,4.70921,4.70921,0,0,1,1.397-1.355,7.18171,7.18171,0,0,1,2.468-.95,7.95158,7.95158,0,0,1,.878-.124c.103-.008.18-.012.226-.014l.044-.001h.003l-.011-1.18995V18.166h.011l-.011-1.18995V16.166Z"/>
    <rect x="29.112" y="123.19897" width="3.947" height="1.11401"/>
    <path d="M64.0992,144.403h1.348v.557l-.037-.556.09-.003a2.16139,2.16139,0,0,1,1.037.263,1.62923,1.62923,0,0,1,.604.592,1.96952,1.96952,0,0,1,.248,1.003v1.967h-1.113v-1.967a.84531.84531,0,0,0-.097-.44.56576.56576,0,0,0-.326-.246,1.19938,1.19938,0,0,0-.353-.058l-.02.001-.004-.114.008.113-.004.001-.004-.114.008.113-.019.002h-1.366Z"/>
    <polygon points="30.012 122.449 29.837 122.606 28.554 122.606 28.379 122.449 28.136 120.261 28.276 120.104 30.115 120.104 30.255 120.261 30.012 122.449"/>
    <polyline points="28.669 148.394 28.669 121.677 29.783 121.677 29.783 148.394"/>
    <path class="cls-4" d="M64.3577,145.503a2.10513,2.10513,0,0,1-1.857,1.856,2.13966,2.13966,0,0,1-1.856-1.856v-23.53a1.8565,1.8565,0,0,1,3.713,0v23.53"/>
    <polygon class="cls-5" points="36.325 145.888 34.035 146.259 34.035 143.66 36.325 144.031 36.325 145.888"/>
    <polygon class="cls-4" points="36.325 145.888 38.615 146.259 38.615 143.66 36.325 144.031 36.325 145.888"/>
    <polygon class="cls-4" points="42.127 145.888 39.837 146.259 39.837 143.66 42.127 144.031 42.127 145.888"/>
    <polygon class="cls-4" points="42.127 145.888 44.417 146.259 44.417 143.66 42.127 144.031 42.127 145.888"/>
    <polygon class="cls-4" points="47.943 145.888 45.653 146.259 45.653 143.66 47.943 144.031 47.943 145.888"/>
    <polygon class="cls-4" points="47.943 145.888 50.232 146.259 50.232 143.66 47.943 144.031 47.943 145.888"/>
    <polygon class="cls-4" points="53.745 145.888 51.456 146.259 51.456 143.66 53.745 144.031 53.745 145.888"/>
    <polygon class="cls-4" points="53.745 145.888 56.034 146.259 56.034 143.66 53.745 144.031 53.745 145.888"/>
    <polygon class="cls-4" points="59.732 145.888 57.443 146.259 57.443 143.66 59.732 144.031 59.732 145.888"/>
    <polygon class="cls-4" points="59.732 145.888 62.021 146.259 62.021 143.66 59.732 144.031 59.732 145.888"/>
    <polygon class="cls-5" points="36.325 123.534 34.035 123.906 34.035 121.307 36.325 121.678 36.325 123.534"/>
    <polygon class="cls-4" points="36.325 123.534 38.615 123.906 38.615 121.307 36.325 121.678 36.325 123.534"/>
    <polygon class="cls-4" points="42.127 123.534 39.837 123.906 39.837 121.307 42.127 121.678 42.127 123.534"/>
    <polygon class="cls-4" points="42.127 123.534 44.417 123.906 44.417 121.307 42.127 121.678 42.127 123.534"/>
    <polygon class="cls-4" points="47.943 123.534 45.653 123.906 45.653 121.307 47.943 121.678 47.943 123.534"/>
    <polygon class="cls-4" points="47.943 123.534 50.232 123.906 50.232 121.307 47.943 121.678 47.943 123.534"/>
    <polygon class="cls-4" points="53.745 123.534 51.456 123.906 51.456 121.307 53.745 121.678 53.745 123.534"/>
    <polygon class="cls-4" points="53.745 123.534 56.034 123.906 56.034 121.307 53.745 121.678 53.745 123.534"/>
    <polygon class="cls-6" points="53.745 123.2 54.89 123.437 54.89 121.775 53.745 122.013 53.745 123.2"/>
    <polygon class="cls-4" points="59.732 123.534 57.443 123.906 57.443 121.307 59.732 121.678 59.732 123.534"/>
    <polygon class="cls-4" points="59.732 123.534 62.021 123.906 62.021 121.307 59.732 121.678 59.732 123.534"/>
    <polygon class="cls-5" points="53.745 123.534 51.456 123.906 51.456 121.307 53.745 121.678 53.745 123.534"/>
    <polygon class="cls-5" points="53.745 123.534 56.034 123.906 56.034 121.307 53.745 121.678 53.745 123.534"/>
    <path class="cls-7" d="M54.8279,123.425l-1.083-.225v-1.187l1.096-.228a1.47226,1.47226,0,0,0-.013.188v1.452"/>
    <polygon class="cls-5" points="59.4 123.534 57.111 123.906 57.111 121.307 59.4 121.678 59.4 123.534"/>
    <polygon class="cls-5" points="59.4 123.534 61.689 123.906 61.689 121.307 59.4 121.678 59.4 123.534"/>
    <polygon class="cls-7" points="60.544 123.437 60.543 123.437 59.399 123.2 59.399 122.013 60.543 121.775 60.544 121.775 60.544 123.437"/>
    <polygon class="cls-5" points="47.943 123.534 45.654 123.906 45.654 121.307 47.943 121.678 47.943 123.534"/>
    <polygon class="cls-5" points="47.943 123.534 50.232 123.906 50.232 121.307 47.943 121.678 47.943 123.534"/>
    <path class="cls-7" d="M49.0108,123.421l-1.067-.221v-1.187l1.08-.225a1.26909,1.26909,0,0,0-.013.185v1.448"/>
    <polygon class="cls-5" points="42.127 123.534 39.838 123.906 39.838 121.307 42.127 121.678 42.127 123.534"/>
    <polygon class="cls-5" points="42.127 123.534 44.416 123.906 44.416 121.307 42.127 121.678 42.127 123.534"/>
    <path class="cls-7" d="M43.1941,123.421l-1.067-.221v-1.187l1.08-.225a1.26909,1.26909,0,0,0-.013.185v1.448"/>
    <polygon class="cls-5" points="36.325 123.534 34.036 123.906 34.036 121.307 36.325 121.678 36.325 123.534"/>
    <polygon class="cls-5" points="36.325 123.534 38.614 123.906 38.614 121.307 36.325 121.678 36.325 123.534"/>
    <path class="cls-7" d="M37.3772,123.418l-1.052-.218v-1.187l1.065-.221a1.20514,1.20514,0,0,0-.013.181v1.445"/>
    <polygon class="cls-5" points="53.745 145.886 51.456 146.258 51.456 143.659 53.745 144.03 53.745 145.886"/>
    <polygon class="cls-5" points="53.745 145.886 56.034 146.258 56.034 143.659 53.745 144.03 53.745 145.886"/>
    <path class="cls-7" d="M54.8573,145.783l-1.112-.231v-1.187l1.083-.225v1.363a1.37858,1.37858,0,0,0,.029.28"/>
    <polygon class="cls-5" points="59.4 145.886 57.111 146.258 57.111 143.659 59.4 144.03 59.4 145.886"/>
    <polygon class="cls-5" points="59.4 145.886 61.689 146.258 61.689 143.659 59.4 144.03 59.4 145.886"/>
    <polygon class="cls-7" points="60.544 145.789 60.543 145.789 59.399 145.552 59.399 144.365 60.543 144.127 60.544 144.127 60.544 145.789"/>
    <polygon class="cls-5" points="47.943 145.886 45.654 146.258 45.654 143.659 47.943 144.03 47.943 145.886"/>
    <polygon class="cls-5" points="47.943 145.886 50.232 146.258 50.232 143.659 47.943 144.03 47.943 145.886"/>
    <path class="cls-7" d="M49.0396,145.779l-1.096-.227v-1.187l1.067-.222v1.36a1.33243,1.33243,0,0,0,.029.276"/>
    <polygon class="cls-5" points="42.127 145.886 39.838 146.258 39.838 143.659 42.127 144.03 42.127 145.886"/>
    <polygon class="cls-5" points="42.127 145.886 44.416 146.258 44.416 143.659 42.127 144.03 42.127 145.886"/>
    <path class="cls-7" d="M43.2229,145.779l-1.096-.227v-1.187l1.067-.222v1.36a1.33243,1.33243,0,0,0,.029.276"/>
    <polygon class="cls-5" points="36.325 145.886 34.036 146.258 34.036 143.659 36.325 144.03 36.325 145.886"/>
    <polygon class="cls-5" points="36.325 145.886 38.614 146.258 38.614 143.659 36.325 144.03 36.325 145.886"/>
    <path class="cls-7" d="M37.4053,145.776l-1.08-.224v-1.187l1.052-.219v1.357a1.374,1.374,0,0,0,.028.273"/>
    <path class="cls-5" d="M64.3577,145.503a2.10513,2.10513,0,0,1-1.857,1.856,2.13966,2.13966,0,0,1-1.856-1.856v-23.53a1.8565,1.8565,0,0,1,3.713,0v23.53"/>
    <path class="cls-5" d="M58.5407,145.503a2.106,2.106,0,0,1-1.856,1.856,2.13967,2.13967,0,0,1-1.857-1.856v-23.53a1.8565,1.8565,0,0,1,3.713,0v23.53"/>
    <path class="cls-5" d="M52.7237,145.503a2.106,2.106,0,0,1-1.856,1.856,2.13967,2.13967,0,0,1-1.857-1.856v-23.53a2.14446,2.14446,0,0,1,1.857-1.856,2.1435,2.1435,0,0,1,1.856,1.856v23.53"/>
    <path class="cls-5" d="M46.9071,145.503a2.106,2.106,0,0,1-1.856,1.856,2.13967,2.13967,0,0,1-1.857-1.856v-23.53a2.1435,2.1435,0,0,1,1.857-1.856,2.1435,2.1435,0,0,1,1.856,1.856v23.53"/>
    <path class="cls-5" d="M41.0901,145.503a2.106,2.106,0,0,1-1.856,1.856,2.13967,2.13967,0,0,1-1.857-1.856v-23.53a2.1435,2.1435,0,0,1,1.857-1.856,2.1435,2.1435,0,0,1,1.856,1.856v23.53"/>
    <path class="cls-5" d="M35.273,145.503a2.10508,2.10508,0,0,1-1.856,1.856,2.13967,2.13967,0,0,1-1.857-1.856v-23.53a2.14446,2.14446,0,0,1,1.857-1.856,2.1435,2.1435,0,0,1,1.856,1.856v23.53"/>
    <path class="cls-7" d="M62.5012,147.127h0a1.98711,1.98711,0,0,1-1.625-1.818V122.268a1.99111,1.99111,0,0,1,1.625-1.818v26.677"/>
    <path class="cls-7" d="M56.711,147.127h0a1.98829,1.98829,0,0,1-1.624-1.798V122.248a1.99342,1.99342,0,0,1,1.624-1.798v26.677"/>
    <path class="cls-7" d="M50.9213,147.127h0a1.98711,1.98711,0,0,1-1.625-1.818V122.268a1.99111,1.99111,0,0,1,1.625-1.818v26.677"/>
    <path class="cls-7" d="M45.131,147.127a1.98711,1.98711,0,0,1-1.625-1.818V122.268a1.99212,1.99212,0,0,1,1.625-1.818v26.677"/>
    <path class="cls-7" d="M39.3412,147.127h0a1.98711,1.98711,0,0,1-1.625-1.818V122.268a1.99111,1.99111,0,0,1,1.625-1.818v26.677"/>
    <path class="cls-7" d="M33.5512,147.127h0a1.99017,1.99017,0,0,1-1.625-1.798V122.248a1.9953,1.9953,0,0,1,1.625-1.798v26.677"/>
    <rect class="cls-8" x="26.965" y="26.492" width="71.139" height="48.06"/>
    <rect class="cls-3" x="100.45599" y="26.492" width="170.28799" height="48.06"/>
    <polygon class="cls-9" points="77.239 42.515 78.768 41.391 76.878 41.391 76.294 39.573 75.71 41.391 73.82 41.391 75.349 42.515 74.765 44.334 76.294 43.21 77.823 44.334 77.239 42.515"/>
    <polygon class="cls-9" points="71.287 36.748 72.816 35.624 70.926 35.624 70.342 33.805 69.758 35.624 67.868 35.624 69.397 36.748 68.813 38.567 70.342 37.443 71.871 38.566 71.287 36.748"/>
    <polygon class="cls-9" points="63.609 34.685 65.138 33.561 63.248 33.561 62.664 31.743 62.08 33.561 60.19 33.561 61.719 34.685 61.135 36.504 62.664 35.38 64.193 36.504 63.609 34.685"/>
    <polygon class="cls-9" points="55.523 36.748 57.052 35.624 55.162 35.624 54.578 33.805 53.994 35.624 52.104 35.624 53.633 36.748 53.049 38.567 54.578 37.442 56.107 38.566 55.523 36.748"/>
    <polygon class="cls-9" points="49.748 42.797 51.277 41.673 49.387 41.673 48.803 39.855 48.219 41.673 46.329 41.673 47.858 42.797 47.274 44.616 48.803 43.492 50.332 44.616 49.748 42.797"/>
    <polygon class="cls-9" points="47.903 50.745 49.432 49.621 47.542 49.621 46.958 47.803 46.374 49.621 44.484 49.621 46.013 50.745 45.429 52.564 46.958 51.439 48.487 52.563 47.903 50.745"/>
    <polygon class="cls-9" points="49.805 58.798 51.334 57.674 49.444 57.674 48.86 55.856 48.276 57.674 46.386 57.674 47.915 58.798 47.331 60.617 48.86 59.493 50.389 60.617 49.805 58.798"/>
    <polygon class="cls-9" points="55.523 64.521 57.052 63.397 55.162 63.397 54.578 61.578 53.994 63.397 52.104 63.397 53.633 64.521 53.049 66.34 54.578 65.215 56.107 66.339 55.523 64.521"/>
    <polygon class="cls-9" points="63.609 66.652 65.137 65.528 63.248 65.528 62.664 63.71 62.08 65.528 60.19 65.528 61.719 66.652 61.135 68.47 62.664 67.347 64.193 68.47 63.609 66.652"/>
    <polygon class="cls-9" points="71.476 64.491 73.005 63.368 71.115 63.368 70.531 61.549 69.947 63.368 68.057 63.368 69.586 64.491 69.002 66.31 70.531 65.186 72.06 66.31 71.476 64.491"/>
    <polygon class="cls-9" points="77.198 58.746 78.727 57.622 76.837 57.622 76.253 55.804 75.669 57.622 73.779 57.622 75.308 58.746 74.724 60.565 76.253 59.441 77.782 60.565 77.198 58.746"/>
    <polygon class="cls-9" points="79.305 50.634 80.834 49.51 78.944 49.51 78.36 47.692 77.776 49.51 75.886 49.51 77.415 50.634 76.831 52.453 78.36 51.328 79.889 52.452 79.305 50.634"/>
    <polygon class="cls-10" points="121.082 46.107 113.453 46.107 113.453 52.125 121.983 52.125 121.983 55.194 109.758 55.194 109.758 34.711 121.533 34.711 121.533 37.781 113.453 37.781 113.453 43.069 121.082 43.069 121.082 46.107"/>
    <path class="cls-10" d="M126.7293,55.19418V34.71124h4.205l5.227,8.783a56.59573,56.59573,0,0,1,3.454,6.868h.06c-.24-2.735-.331-5.379-.331-8.509v-7.142h3.425V55.19418h-3.815l-5.287-9.026a67.97592,67.97592,0,0,1-3.634-7.051l-.09.031c.15,2.64405.18,5.349.18,8.72205v7.32394Z"/>
    <polygon class="cls-10" points="159.86 46.107 152.23 46.107 152.23 52.125 160.761 52.125 160.761 55.194 148.536 55.194 148.536 34.711 160.311 34.711 160.311 37.781 152.23 37.781 152.23 43.069 159.86 43.069 159.86 46.107"/>
    <path class="cls-10" d="M169.17149,44.04065h2.193c2.492,0,4.054-1.337,4.054-3.373,0-2.249-1.562-3.282-3.965-3.282a10.51347,10.51347,0,0,0-2.282.182Zm-3.665-9.056a34.69454,34.69454,0,0,1,5.587-.425c2.914,0,4.896.486,6.248,1.641a5.21127,5.21127,0,0,1,1.742,4.102,5.45757,5.45757,0,0,1-3.665,5.136v.091c1.442.547,2.313,1.976,2.824,3.951a41.26683,41.26683,0,0,0,1.592,5.714h-3.815a29.21907,29.21907,0,0,1-1.351-4.832c-.571-2.675-1.533-3.526-3.635-3.587h-1.862v8.419h-3.665Z"/>
    <path class="cls-10" d="M200.3192,54.252a19.85434,19.85434,0,0,1-6.518,1.155c-3.425,0-6.008-.881-7.93-2.735a10.20827,10.20827,0,0,1-2.823-7.537c0-6.473,4.565-10.637,11.264-10.637a13.29111,13.29111,0,0,1,5.376.973l-.811,3.009a10.78059,10.78059,0,0,0-4.596-.882c-4.325,0-7.359,2.583-7.359,7.355,0,4.649,2.824,7.415,7.029,7.415a7.01063,7.01063,0,0,0,2.794-.426V46.837h-3.575V43.889h7.149Z"/>
    <path class="cls-10" d="M111.8683,62.615a1.15947,1.15947,0,0,0-1.168-1.294,1.34427,1.34427,0,0,0-1.306,1.294Zm-2.474.935c.035.957.832,1.37,1.734,1.37a4.4707,4.4707,0,0,0,1.56-.239l.209.924a5.576,5.576,0,0,1-1.966.338,2.59755,2.59755,0,0,1-2.901-2.687,2.689,2.689,0,0,1,2.751-2.849,2.34743,2.34743,0,0,1,2.428,2.577,3.0108,3.0108,0,0,1-.047.566Z"/>
    <polygon class="cls-10" points="115.82 60.526 115.82 62.549 117.993 62.549 117.993 60.526 119.415 60.526 119.415 65.823 117.993 65.823 117.993 63.593 115.82 63.593 115.82 65.823 114.398 65.823 114.398 60.526 115.82 60.526"/>
    <path class="cls-10" d="M124.4647,62.615a1.15809,1.15809,0,0,0-1.167-1.294,1.34351,1.34351,0,0,0-1.306,1.294Zm-2.473.935c.035.957.832,1.37,1.734,1.37a4.47072,4.47072,0,0,0,1.56-.239l.208.924a5.56566,5.56566,0,0,1-1.965.338,2.59756,2.59756,0,0,1-2.901-2.687,2.689,2.689,0,0,1,2.751-2.849,2.34743,2.34743,0,0,1,2.428,2.577,3.10026,3.10026,0,0,1-.047.566Z"/>
    <path class="cls-10" d="M128.4292,63.6044a1.29083,1.29083,0,0,0,.046.37,1.271,1.271,0,0,0,1.248.935c.902,0,1.434-.707,1.434-1.751,0-.935-.486-1.697-1.399-1.697a1.30673,1.30673,0,0,0-1.271.99,1.14126,1.14126,0,0,0-.058.337Zm-1.422-1.316c0-.696-.023-1.261-.046-1.762h1.248l.07.816h.023a2.23476,2.23476,0,0,1,1.93-.936,2.4605,2.4605,0,0,1,2.37,2.698,2.58433,2.58433,0,0,1-2.566,2.838,1.89312,1.89312,0,0,1-1.584-.707h-.023v2.741h-1.422Z"/>
    <polygon class="cls-10" points="137.537 60.526 137.537 61.581 135.236 61.581 135.236 65.823 133.815 65.823 133.815 60.526 137.537 60.526"/>
    <path class="cls-10" d="M139.80141,60.5264v1.904c0,.837-.034,1.402-.081,2.142h.035c.3-.62.474-1.011.763-1.566l1.387-2.48h1.722v5.297h-1.352v-1.893c0-.848.034-1.24.092-2.24h-.046c-.277.631-.462,1.011-.74,1.522-.439.783-.948,1.74-1.433,2.611h-1.699v-5.297Z"/>
    <path class="cls-10" d="M148.412,61.35294a4.04735,4.04735,0,0,0-.706-.054c-.624,0-1.26.206-1.26.794,0,.554.706.794,1.26.794.336,0,.521,0,.706-.011Zm1.41,4.47h-1.41v-2.099h-.532a1.14206,1.14206,0,0,0-.867.348,3.41446,3.41446,0,0,0-.694,1.316,3.85046,3.85046,0,0,1-.219.435h-1.526a2.6997,2.6997,0,0,0,.347-.587,4.44507,4.44507,0,0,1,.843-1.523,1.36326,1.36326,0,0,1,.671-.359v-.032c-.671-.065-1.468-.479-1.468-1.305a1.33345,1.33345,0,0,1,.867-1.229,4.85848,4.85848,0,0,1,1.988-.337,16.13688,16.13688,0,0,1,2,.119Z"/>
    <path class="cls-10" d="M154.4324,63.84369a.8297.8297,0,0,1-.867-.859.83929.83929,0,0,1,.878-.859.85922.85922,0,1,1,0,1.718Z"/>
    <path class="cls-10" d="M160.03729,62.9736c-.67-.174-1.04-.587-1.04-1.109,0-.718.763-1.458,2.37-1.458a3.52258,3.52258,0,0,1,1.803.403l-.266.859a3.17965,3.17965,0,0,0-1.364-.316c-.682,0-1.11.262-1.11.631,0,.424.567.598,1.41.609h.613v.892h-.624c-.902.011-1.584.185-1.584.696,0,.501.613.761,1.306.761a4.01231,4.01231,0,0,0,1.584-.369l.208.891a4.54505,4.54505,0,0,1-2.138.479c-1.191,0-2.474-.424-2.474-1.62a1.436,1.436,0,0,1,1.306-1.305Z"/>
    <path class="cls-10" d="M165.21471,60.5264l.902,2.686c.162.468.266.892.404,1.349h.047a9.12336,9.12336,0,0,0,1.179-3.578v-.457h1.329a2.19742,2.19742,0,0,1,.035.402c0,1.502-1.018,3.274-2.046,4.895h-1.376l-2-5.297Z"/>
    <path class="cls-10" d="M171.051,62.9736c-.67-.174-1.04-.587-1.04-1.109,0-.718.763-1.458,2.37-1.458a3.52255,3.52255,0,0,1,1.803.403l-.266.859a3.17964,3.17964,0,0,0-1.364-.316c-.682,0-1.11.262-1.11.631,0,.424.567.598,1.41.609h.613v.892h-.624c-.902.011-1.584.185-1.584.696,0,.501.613.761,1.306.761a4.0124,4.0124,0,0,0,1.584-.369l.208.891a4.54505,4.54505,0,0,1-2.138.479c-1.191,0-2.474-.424-2.474-1.62a1.436,1.436,0,0,1,1.306-1.305Z"/>
    <path class="cls-10" d="M176.7372,63.72372a1.70391,1.70391,0,0,0,.034.348,1.31443,1.31443,0,0,0,1.249.838c.902,0,1.422-.751,1.422-1.751,0-.936-.497-1.653-1.341-1.653-.717,0-1.364.587-1.364,1.805Zm0,1.588v.75a13.57293,13.57293,0,0,0,.081,1.914h-1.376a9.294,9.294,0,0,1-.127-1.892v-2.425a2.99694,2.99694,0,0,1,.959-2.556,2.79478,2.79478,0,0,1,1.919-.696,2.55592,2.55592,0,0,1,2.694,2.719,2.60885,2.60885,0,0,1-2.601,2.817,1.87,1.87,0,0,1-1.526-.631Z"/>
    <path class="cls-10" d="M183.2899,67.9761a11.38843,11.38843,0,0,0-.196-3.056,14.38329,14.38329,0,0,0-1.965-4.394h1.595a12.41438,12.41438,0,0,1,1.503,3.851h.046a8.29846,8.29846,0,0,0,1.063-3.426c0-.207-.011-.316-.011-.425h1.352a2.068,2.068,0,0,1,.023.392,9.05944,9.05944,0,0,1-1.988,4.665.42643.42643,0,0,0-.069.262c.023.532.023,1.402.034,2.131Z"/>
    <path class="cls-10" d="M188.61749,62.9736c-.67-.174-1.04-.587-1.04-1.109,0-.718.763-1.458,2.37-1.458a3.52258,3.52258,0,0,1,1.803.403l-.266.859a3.1834,3.1834,0,0,0-1.364-.316c-.682,0-1.11.262-1.11.631,0,.424.567.598,1.41.609h.613v.892h-.624c-.902.011-1.584.185-1.584.696,0,.501.613.761,1.306.761a4.01231,4.01231,0,0,0,1.584-.369l.208.891a4.54921,4.54921,0,0,1-2.139.479c-1.19,0-2.473-.424-2.473-1.62a1.436,1.436,0,0,1,1.306-1.305Z"/>
    <path class="cls-10" d="M194.3504,64.3331c0,.435.138.609.532.587l-.081.935a1.842,1.842,0,0,1-.613.087c-.763,0-1.271-.304-1.271-1.479v-3.937h1.433Z"/>
    <path class="cls-10" d="M197.0666,63.23441c0,.892.485,1.642,1.26,1.642a1.418,1.418,0,0,0,1.248-1.141,3.45941,3.45941,0,0,0,.046-.62,2.21621,2.21621,0,0,0-.035-.501,1.296,1.296,0,0,0-1.19-1.174c-.798,0-1.329.794-1.329,1.783Zm4.08-2.708c-.069.718-.162,2.349-.162,3.611,0,.598.197.805.544.794l-.093.946a1.782,1.782,0,0,1-.497.065,1.04927,1.04927,0,0,1-1.098-1.033h-.035a2.09307,2.09307,0,0,1-1.861,1.033,2.40156,2.40156,0,0,1-2.323-2.664,2.69679,2.69679,0,0,1,2.543-2.872,1.74211,1.74211,0,0,1,1.618.925h.046c.035-.326.081-.577.127-.805Z"/>
    <path class="cls-10" d="M208.00771,39.05829a10.30769,10.30769,0,1,1,10.307,10.427,10.36842,10.36842,0,0,1-10.307-10.427"/>
    <path class="cls-3" d="M217.6125,42.967V39.372l-2.694-5.028h1.771l1.024,2.213c.291.64.506,1.126.733,1.715h.026c.215-.55.455-1.088.746-1.715l1.024-2.213h1.758l-2.832,4.99v3.633Z"/>
    <path class="cls-10" d="M231.721,39.05829a10.30769,10.30769,0,1,1,10.307,10.427,10.36842,10.36842,0,0,1-10.307-10.427"/>
    <path class="cls-10" d="M208.00771,62.18118a10.3077,10.3077,0,1,1,10.307,10.428,10.3684,10.3684,0,0,1-10.307-10.428"/>
    <rect class="cls-3" x="214.38699" y="57.46701" width="1.556" height="8.62299"/>
    <polygon class="cls-3" points="222.493 62.265 219.281 62.265 219.281 64.798 222.873 64.798 222.873 66.09 217.726 66.09 217.726 57.467 222.683 57.467 222.683 58.76 219.281 58.76 219.281 60.985 222.493 60.985 222.493 62.265"/>
    <path class="cls-10" d="M231.721,62.18118a10.3077,10.3077,0,1,1,10.307,10.428,10.3684,10.3684,0,0,1-10.307-10.428"/>
    <rect class="cls-3" x="234.85699" y="34.34399" width="1.556" height="8.62299"/>
    <path class="cls-3" d="M239.89,34.344h1.556v5.591c0,2.38-1.139,3.173-2.833,3.173a4.09238,4.09238,0,0,1-1.302-.205l.189-1.267a3.36326,3.36326,0,0,0,.962.154c.884,0,1.428-.409,1.428-1.906Z"/>
    <path class="cls-3" d="M247.30058,39.33344l-.67-2.124c-.164-.524-.304-1.113-.43-1.612h-.025c-.126.499-.253,1.101-.405,1.612l-.658,2.124Zm-2.44,1.18994-.734,2.444h-1.605l2.731-8.623h1.985l2.769,8.623h-1.669l-.771-2.444Z"/>
    <rect class="cls-3" x="237.336" y="57.46802" width="1.556" height="8.62299"/>
    <path class="cls-3" d="M244.8228,62.458l-.671-2.124c-.164-.525-.304-1.114-.43-1.612h-.025c-.126.498-.253,1.1-.405,1.612l-.657,2.124Zm-2.441,1.189-.734,2.444h-1.605l2.731-8.623h1.985l2.769,8.623h-1.669l-.771-2.444Z"/>
    <polyline class="cls-3" points="26.514 112.593 271.18 112.593 271.18 111.593 26.514 111.593"/>
  </g>
  <text class="cls-11" transform="translate(34.15381 109.38214)"><tspan class="cls-12" xml:space="preserve">                </tspan><tspan x="54.73438" y="0"> </tspan></text>
  <g class="cls-2">
    <path class="cls-3" d="M35.8683,388.639v-1a10.76856,10.76856,0,0,0-4.399,1.093,7.93535,7.93535,0,0,0-3.102,2.687,9.03508,9.03508,0,0,0-1.403,5.124v69.058A10.76818,10.76818,0,0,0,28.0573,470a7.94211,7.94211,0,0,0,2.687,3.102,9.03509,9.03509,0,0,0,5.124,1.403h53.464a10.79789,10.79789,0,0,0,4.4-1.094,7.94613,7.94613,0,0,0,3.102-2.686,9.03987,9.03987,0,0,0,1.403-5.124V396.543a10.79793,10.79793,0,0,0-1.094-4.399,7.932,7.932,0,0,0-2.686-3.102,9.03316,9.03316,0,0,0-5.125-1.403H35.8683v2h53.464a7.03371,7.03371,0,0,1,4.015,1.067,6.48172,6.48172,0,0,1,2.515,3.623,9.47152,9.47152,0,0,1,.329,1.599c.024.203.035.364.04.471l.005.118.001.025v69.059a7.03792,7.03792,0,0,1-1.068,4.015,6.47966,6.47966,0,0,1-3.623,2.514,9.25738,9.25738,0,0,1-1.599.329c-.202.024-.364.035-.471.041l-.118.004-.025.001H35.8683a7.04383,7.04383,0,0,1-4.015-1.067,6.48544,6.48544,0,0,1-2.515-3.624,9.444,9.444,0,0,1-.329-1.598c-.023-.203-.035-.365-.04-.472l-.005-.117V396.543a7.03591,7.03591,0,0,1,1.067-4.015,6.4866,6.4866,0,0,1,3.623-2.515,9.47036,9.47036,0,0,1,1.599-.329c.203-.023.364-.035.471-.04l.118-.005h.026Z"/>
    <path class="cls-3" d="M115.295,388.639v-1a10.76853,10.76853,0,0,0-4.399,1.093,7.94219,7.94219,0,0,0-3.102,2.687,9.03751,9.03751,0,0,0-1.403,5.124v69.058A10.77909,10.77909,0,0,0,107.485,470a7.93091,7.93091,0,0,0,2.686,3.102,9.03739,9.03739,0,0,0,5.124,1.403h147.61a10.779,10.779,0,0,0,4.399-1.094,7.9309,7.9309,0,0,0,3.102-2.686,9.0376,9.0376,0,0,0,1.403-5.124V396.543a10.7788,10.7788,0,0,0-1.094-4.399,7.9238,7.9238,0,0,0-2.686-3.102,9.02966,9.02966,0,0,0-5.124-1.403H115.295v2h147.61a7.03835,7.03835,0,0,1,4.015,1.067,6.47973,6.47973,0,0,1,2.514,3.623,9.27909,9.27909,0,0,1,.329,1.599c.024.203.035.364.041.471l.004.118.001.025v69.059a7.03821,7.03821,0,0,1-1.067,4.015,6.47853,6.47853,0,0,1-3.624,2.514,9.2488,9.2488,0,0,1-1.598.329c-.203.024-.365.035-.472.041l-.117.004-.025.001H115.295a7.03841,7.03841,0,0,1-4.015-1.067,6.4786,6.4786,0,0,1-2.514-3.624,9.24927,9.24927,0,0,1-.329-1.598c-.024-.203-.035-.365-.041-.472l-.004-.117-.001-.025V396.543a7.036,7.036,0,0,1,1.067-4.015,6.48546,6.48546,0,0,1,3.624-2.515,9.44243,9.44243,0,0,1,1.598-.329c.203-.023.364-.034.471-.04l.118-.005h.026Z"/>
  </g>
  <g class="cls-13">
    <polygon class="cls-14" points="44.516 434.729 44.516 439.447 79.787 439.447 79.787 415.07 62.15 399.001 44.516 415.07 44.516 434.729"/>
  </g>
  <g class="cls-2">
    <path class="cls-15" d="M53.3514,428.603q-1.458-1.299-2.913-2.598h-2.078v-4.151h2.078q1.455-1.299,2.913-2.599l1.205-1.073v11.497Z"/>
    <path class="cls-16" d="M52.9834,427.695q-1.1745-1.047-2.347-2.093h-1.673v-3.345h1.673q1.173-1.044,2.347-2.093l.971-.864v9.26Z"/>
    <path class="cls-17" d="M52.9834,427.695q-1.1745-1.047-2.347-2.093h-1.673v-3.345h1.673q1.173-1.044,2.347-2.093l.971-.864v9.26Z"/>
    <path class="cls-18" d="M56.846,418.984a7.7554,7.7554,0,0,1,.066,9.836m3.416-12.834a13.74929,13.74929,0,0,1,.046,15.859m3.568-18.883a19.98666,19.98666,0,0,1,.036,21.935"/>
  </g>
  <text class="cls-19" transform="translate(62.45264 460.5462)"> </text>
  <text class="cls-20" transform="translate(66.96631 460.5462)"><tspan class="cls-21">d</tspan><tspan x="7.74609" y="0">B</tspan></text>
  <text class="cls-22" transform="translate(26.88818 541.5462)">2019</text>
  <text class="cls-22" transform="translate(231.51855 541.5462)">811/2013</text>
  <text class="cls-23" transform="translate(189.19336 445.18683)"> </text>
  <g class="cls-26">
    <rect class="cls-10" x="-580.479" y="138.927" width="991.242" height="237.89799"/>
  </g>
  <text class="cls-27" transform="translate(32.95068 177.1712)"> </text>
  <text class="cls-27" transform="translate(33.07471 199.08771)"> </text>
  <text class="cls-27" transform="translate(33.07471 220.77423)"> </text>
  <text class="cls-27" transform="translate(32.75586 241.94659)"> </text>
  <text class="cls-27" transform="translate(32.91504 263.98761)"> </text>
  <text class="cls-27" transform="translate(32.91504 285.67413)"> </text>
  <text class="cls-27" transform="translate(32.59619 307.59015)"> </text>
  <g class="cls-28">
    <rect class="cls-10" x="-580.479" y="148.927" width="991.242" height="237.89799"/>
    <polygon class="cls-9" points="14.267 237.904 14.267 256.266 118.729 256.266 127.823 247.085 118.729 237.904 14.267 237.904"/>
    <polygon class="cls-29" points="14.267 216.096 14.267 234.459 108.137 234.459 117.233 225.278 108.137 216.096 14.267 216.096"/>
    <polygon class="cls-30" points="14.267 194.29 14.267 212.652 97.548 212.652 106.644 203.471 97.548 194.29 14.267 194.29"/>
    <polygon class="cls-31" points="14.267 172.483 14.267 190.845 89.336 190.845 98.431 181.664 89.336 172.483 14.267 172.483"/>
    <polygon class="cls-32" points="14.267 259.704 14.267 278.066 129.565 278.066 138.669 268.885 129.565 259.704 14.267 259.704"/>
    <polygon class="cls-33" points="14.267 281.503 14.267 299.866 140.148 299.866 149.257 290.685 140.148 281.503 14.267 281.503"/>
    <polygon class="cls-34" points="14.267 303.304 14.267 321.665 150.732 321.665 159.841 312.483 150.732 303.304 14.267 303.304"/>
  </g>
  <text class="cls-27" transform="translate(36.95068 187.1712)">A</text>
  <text class="cls-35" transform="translate(48.50537 182.45245)"><tspan class="cls-36">++</tspan><tspan x="12.3418" y="0">+</tspan></text>
  <text class="cls-27" transform="translate(37.0835 209.09113)">A</text>
  <text class="cls-35" transform="translate(48.04443 204.37433)"><tspan class="cls-36">+</tspan><tspan x="6.1709" y="0">+</tspan></text>
  <text class="cls-27" transform="translate(37.0835 230.78058)">A</text>
  <text class="cls-27" transform="translate(36.74707 251.95294)">A</text>
  <text class="cls-27" transform="translate(36.92383 273.99396)">B</text>
  <text class="cls-27" transform="translate(36.92383 295.67999)">C</text>
  <text class="cls-27" transform="translate(36.5874 317.59698)">D</text>
  <text class="cls-35" transform="translate(48.04443 226.06183)">+</text>
  <g id="rating">
    <polyline id="ratingArrow" class="cls-37" points="208.26 181.67 224.9 164.86 270.94 164.86 270.94 198.77 225.21 198.77 208.26 181.67"/>
    <text id="ratingLetter" class="cls-38" transform="translate(221.01953 188.90997)">A</text>
    <text id="ratingPlusses" class="cls-39" transform="translate(236.98047 180.82013)">+++</text>
  </g>
  <text id="supplierLine2" class="cls-40" transform="translate(26.76101 106.30031)">X</text>
  <text id="supplierLine1" class="cls-40" transform="translate(26.76101 95.21925)">X</text>
  <text id="modelLine2" class="cls-40" transform="translate(153.23013 106.30031)">X</text>
  <text id="modelLine1" class="cls-40" transform="translate(153.23013 95.21925)">X</text>
  <text id="db" class="cls-19" transform="translate(42.18018 460.55011)">X</text>
  <text transform="translate(188.89014 445.21027)" text-anchor="middle">
    <tspan id="kw" class="cls-41">X</tspan>
    <tspan class="cls-24 cls-25">kW</tspan>
  </text>
</svg>
