<svg id="Layer_1" data-name="Layer 1" xmlns="http://www.w3.org/2000/svg" xmlns:xlink="http://www.w3.org/1999/xlink" width="105mm" height="200mm" viewBox="0 0 297.64001 566.92999" data-rating-increment-space-heating="17.6875" data-rating-increment-water-heating="22.5833" data-supplier-model-chars-per-row="25">
  <defs>
    <style>
      #offPeakMode,
      #dbSection {
        display: none;
      }

      #offPeakMode.hasOffPeakMode,
      #dbSection.hasDbSection {
        display: inline;
      }       

      .cls-1, .cls-44, .cls-45, .cls-47, .cls-48 {
        fill: none;
      }

      .cls-2 {
        clip-path: url(#clip-path);
      }

      .cls-3 {
        fill: #00aeef;
      }

      .cls-4 {
        fill: #034ea2;
      }

      .cls-5 {
        fill: #fff200;
      }

      .cls-16, .cls-17, .cls-35, .cls-36, .cls-39, .cls-40, .cls-6 {
        fill: #fff;
      }

      .cls-7 {
        font-size: 12px;
      }

      .cls-22, .cls-32, .cls-33, .cls-38, .cls-41, .cls-42, .cls-49, .cls-50, .cls-52, .cls-7 {
        fill: #231f20;
      }

      .cls-33, .cls-40, .cls-50, .cls-52, .cls-7 {
        font-family: Calibri;
      }

      .cls-8 {
        letter-spacing: 0.059em;
      }

      .cls-9 {
        clip-path: url(#clip-path-2);
      }

      .cls-10 {
        fill: #bfd730;
      }

      .cls-11 {
        fill: #50b848;
      }

      .cls-12 {
        fill: #00a651;
      }

      .cls-13 {
        fill: #fdb913;
      }

      .cls-14 {
        fill: #f37021;
      }

      .cls-15 {
        fill: #ed1c24;
      }

      .cls-16, .cls-41 {
        font-size: 16px;
      }

      .cls-16, .cls-17, .cls-22, .cls-32, .cls-35, .cls-36, .cls-39, .cls-41, .cls-42, .cls-49 {
        font-family: Calibri-Bold, Calibri;
        font-weight: 700;
      }

      .cls-17 {
        font-size: 19.6178px;
      }

      .cls-18 {
        clip-path: url(#clip-path-3);
      }

      .cls-19 {
        clip-path: url(#clip-path-4);
      }

      .cls-20, .cls-21 {
        fill: #020304;
      }

      .cls-21 {
        fill-rule: evenodd;
      }

      .cls-22 {
        font-size: 10px;
      }

      .cls-23 {
        fill: #8ed8f7;
      }

      .cls-24 {
        fill: #05090a;
      }

      .cls-25 {
        fill: #24b9ec;
      }

      .cls-26 {
        fill: #676465;
      }

      .cls-27 {
        fill: #b5e4f9;
      }

      .cls-28 {
        fill: #00c0f0;
      }

      .cls-29 {
        fill: #72d0f3;
      }

      .cls-30 {
        fill: #00c0ee;
      }

      .cls-31 {
        fill: #ddf2fd;
      }

      .cls-32 {
        font-size: 30px;
      }

      .cls-33, .cls-39 {
        font-size: 18px;
      }

      .cls-34 {
        letter-spacing: -0.00901em;
      }

      .cls-35 {
        font-size: 14px;
      }

      .cls-36 {
        font-size: 8.162px;
      }

      .cls-37 {
        letter-spacing: 0.01101em;
      }

      .cls-40, .cls-52 {
        font-size: 11px;
      }

      .cls-42 {
        font-size: 37.5px;
      }

      .cls-43 {
        clip-path: url(#clip-path-8);
      }

      .cls-44, .cls-48 {
        stroke: #00aeef;
        stroke-linecap: round;
        stroke-linejoin: round;
      }

      .cls-44 {
        stroke-width: 0.958px;
      }

      .cls-45 {
        stroke: #fff;
        stroke-width: 0.836px;
      }

      .cls-46 {
        fill: #2aace3;
      }

      .cls-47 {
        stroke: #2aace3;
        stroke-width: 0.673px;
      }

      .cls-48 {
        stroke-width: 1.703px;
      }

      .cls-49 {
        font-size: 20px;
      }

      .cls-50 {
        font-size: 15px;
      }

      .cls-51 {
        letter-spacing: -0.00898em;
      }
    </style>
    <clipPath id="clip-path">
      <rect class="cls-1" y="0.00098" width="297.638" height="566.92902"/>
    </clipPath>
    <clipPath id="clip-path-2">
      <rect class="cls-1" x="158.517" y="175.04102" width="68.53799" height="156.04698"/>
    </clipPath>
    <clipPath id="clip-path-3">
      <rect class="cls-1" x="27.086" y="175.03998" width="70.355" height="174.09502"/>
    </clipPath>
    <clipPath id="clip-path-4">
      <rect class="cls-1" x="27.086" y="175.03998" width="70.355" height="155.82602"/>
    </clipPath>
    <clipPath id="clip-path-8">
      <rect class="cls-1" x="45.639" y="402.897" width="37.035" height="41.02999"/>
    </clipPath>
  </defs>
  <title>boiler-combination-heaters-2015</title>
  <g class="cls-2">
    <path class="cls-3" d="M24.0691,16.166v-2a11.7328,11.7328,0,0,0-4.847,1.199,8.94493,8.94493,0,0,0-3.486,3.026,10.03567,10.03567,0,0,0-1.571,5.679V542.861a11.72523,11.72523,0,0,0,1.199,4.846,8.94088,8.94088,0,0,0,3.026,3.487,10.03328,10.03328,0,0,0,5.679,1.571h249.5a11.72477,11.72477,0,0,0,4.846-1.199,8.94834,8.94834,0,0,0,3.487-3.026,10.03579,10.03579,0,0,0,1.571-5.679V24.07007a11.72489,11.72489,0,0,0-1.199-4.846,8.9403,8.9403,0,0,0-3.026-3.487,10.03558,10.03558,0,0,0-5.679-1.571h-249.5v4h249.5a6.04592,6.04592,0,0,1,3.46.899,4.73306,4.73306,0,0,1,1.355,1.397,7.1815,7.1815,0,0,1,.95,2.468,8.2401,8.2401,0,0,1,.124.878c.008.103.012.18.013.226l.002.044v.003l1.189-.011h-1.189v.011l1.189-.011h-1.189V542.861a6.044,6.044,0,0,1-.899,3.46,4.71289,4.71289,0,0,1-1.398,1.355,7.1712,7.1712,0,0,1-2.467.95,7.98148,7.98148,0,0,1-.878.124c-.103.008-.181.012-.226.014l-.044.001h-.003l.011,1.191v-1.191h-.011l.011,1.191v-1.191h-249.5a6.04356,6.04356,0,0,1-3.46-.899,4.70964,4.70964,0,0,1-1.355-1.397,7.20526,7.20526,0,0,1-.951-2.46795,8.14846,8.14846,0,0,1-.123-.87805c-.008-.103-.012-.18-.014-.226l-.001-.044v-.003l-1.193.011h1.193v-.011l-1.193.011h1.193V24.07007a6.046,6.046,0,0,1,.899-3.46,4.70921,4.70921,0,0,1,1.397-1.355,7.18171,7.18171,0,0,1,2.468-.95,7.95158,7.95158,0,0,1,.878-.124c.103-.008.18-.012.226-.014l.044-.001h.003l-.011-1.18995V18.166h.011l-.011-1.18995V16.166Z"/>
    <rect class="cls-4" x="26.965" y="26.492" width="71.139" height="48.06"/>
    <rect class="cls-3" x="100.45599" y="26.492" width="170.28799" height="48.06"/>
    <polygon class="cls-5" points="77.239 42.515 78.768 41.391 76.878 41.391 76.294 39.573 75.71 41.391 73.82 41.391 75.349 42.515 74.765 44.334 76.294 43.21 77.823 44.334 77.239 42.515"/>
    <polygon class="cls-5" points="71.287 36.748 72.816 35.624 70.926 35.624 70.342 33.805 69.758 35.624 67.868 35.624 69.397 36.748 68.813 38.567 70.342 37.443 71.871 38.566 71.287 36.748"/>
    <polygon class="cls-5" points="63.609 34.685 65.138 33.561 63.248 33.561 62.664 31.743 62.08 33.561 60.19 33.561 61.719 34.685 61.135 36.504 62.664 35.38 64.193 36.504 63.609 34.685"/>
    <polygon class="cls-5" points="55.523 36.748 57.052 35.624 55.162 35.624 54.578 33.805 53.994 35.624 52.104 35.624 53.633 36.748 53.049 38.567 54.578 37.442 56.107 38.566 55.523 36.748"/>
    <polygon class="cls-5" points="49.748 42.797 51.277 41.673 49.387 41.673 48.803 39.855 48.219 41.673 46.329 41.673 47.858 42.797 47.274 44.616 48.803 43.492 50.332 44.616 49.748 42.797"/>
    <polygon class="cls-5" points="47.903 50.745 49.432 49.621 47.542 49.621 46.958 47.803 46.374 49.621 44.484 49.621 46.013 50.745 45.429 52.564 46.958 51.439 48.487 52.563 47.903 50.745"/>
    <polygon class="cls-5" points="49.805 58.798 51.334 57.674 49.444 57.674 48.86 55.856 48.276 57.674 46.386 57.674 47.915 58.798 47.331 60.617 48.86 59.493 50.389 60.617 49.805 58.798"/>
    <polygon class="cls-5" points="55.523 64.521 57.052 63.397 55.162 63.397 54.578 61.578 53.994 63.397 52.104 63.397 53.633 64.521 53.049 66.34 54.578 65.215 56.107 66.339 55.523 64.521"/>
    <polygon class="cls-5" points="63.609 66.652 65.137 65.528 63.248 65.528 62.664 63.71 62.08 65.528 60.19 65.528 61.719 66.652 61.135 68.47 62.664 67.347 64.193 68.47 63.609 66.652"/>
    <polygon class="cls-5" points="71.476 64.491 73.005 63.367 71.115 63.367 70.531 61.549 69.947 63.367 68.057 63.367 69.586 64.491 69.002 66.31 70.531 65.186 72.06 66.31 71.476 64.491"/>
    <polygon class="cls-5" points="77.198 58.746 78.727 57.622 76.837 57.622 76.253 55.804 75.669 57.622 73.779 57.622 75.308 58.746 74.724 60.565 76.253 59.441 77.782 60.565 77.198 58.746"/>
    <polygon class="cls-5" points="79.305 50.634 80.834 49.51 78.944 49.51 78.36 47.692 77.776 49.51 75.886 49.51 77.415 50.634 76.831 52.453 78.36 51.328 79.889 52.452 79.305 50.634"/>
    <polygon class="cls-6" points="121.082 46.107 113.453 46.107 113.453 52.125 121.983 52.125 121.983 55.194 109.758 55.194 109.758 34.711 121.533 34.711 121.533 37.781 113.453 37.781 113.453 43.069 121.082 43.069 121.082 46.107"/>
    <path class="cls-6" d="M126.7293,55.19418V34.71124h4.205l5.227,8.783a56.59573,56.59573,0,0,1,3.454,6.868h.06c-.24-2.735-.331-5.379-.331-8.509v-7.142h3.425V55.19418h-3.815l-5.287-9.026a67.97592,67.97592,0,0,1-3.634-7.051l-.09.031c.15,2.64405.18,5.349.18,8.72205v7.32394Z"/>
    <polygon class="cls-6" points="159.86 46.107 152.23 46.107 152.23 52.125 160.761 52.125 160.761 55.194 148.536 55.194 148.536 34.711 160.311 34.711 160.311 37.781 152.23 37.781 152.23 43.069 159.86 43.069 159.86 46.107"/>
    <path class="cls-6" d="M169.17149,44.04065h2.193c2.492,0,4.054-1.337,4.054-3.373,0-2.249-1.562-3.282-3.965-3.282a10.51347,10.51347,0,0,0-2.282.182Zm-3.665-9.056a34.69454,34.69454,0,0,1,5.587-.425c2.914,0,4.896.486,6.248,1.641a5.21127,5.21127,0,0,1,1.742,4.102,5.45757,5.45757,0,0,1-3.665,5.136v.091c1.442.547,2.313,1.976,2.824,3.951a41.26683,41.26683,0,0,0,1.592,5.714h-3.815a29.21907,29.21907,0,0,1-1.351-4.832c-.571-2.675-1.533-3.526-3.635-3.587h-1.862v8.419h-3.665Z"/>
    <path class="cls-6" d="M200.3192,54.252a19.85434,19.85434,0,0,1-6.518,1.155c-3.425,0-6.008-.881-7.93-2.735a10.20827,10.20827,0,0,1-2.823-7.537c0-6.473,4.565-10.637,11.264-10.637a13.29111,13.29111,0,0,1,5.376.973l-.811,3.009a10.78059,10.78059,0,0,0-4.596-.882c-4.325,0-7.359,2.583-7.359,7.355,0,4.649,2.824,7.415,7.029,7.415a7.01063,7.01063,0,0,0,2.794-.426V46.837h-3.575V43.889h7.149Z"/>
    <path class="cls-6" d="M111.8683,62.615a1.15947,1.15947,0,0,0-1.168-1.294,1.34427,1.34427,0,0,0-1.306,1.294Zm-2.474.935c.035.957.832,1.37,1.734,1.37a4.4707,4.4707,0,0,0,1.56-.239l.209.924a5.576,5.576,0,0,1-1.966.338,2.59755,2.59755,0,0,1-2.901-2.687,2.689,2.689,0,0,1,2.751-2.849,2.34743,2.34743,0,0,1,2.428,2.577,3.0108,3.0108,0,0,1-.047.566Z"/>
    <polygon class="cls-6" points="115.82 60.526 115.82 62.549 117.993 62.549 117.993 60.526 119.415 60.526 119.415 65.823 117.993 65.823 117.993 63.593 115.82 63.593 115.82 65.823 114.398 65.823 114.398 60.526 115.82 60.526"/>
    <path class="cls-6" d="M124.4647,62.615a1.15809,1.15809,0,0,0-1.167-1.294,1.34351,1.34351,0,0,0-1.306,1.294Zm-2.473.935c.035.957.832,1.37,1.734,1.37a4.47072,4.47072,0,0,0,1.56-.239l.208.924a5.56566,5.56566,0,0,1-1.965.338,2.59756,2.59756,0,0,1-2.901-2.687,2.689,2.689,0,0,1,2.751-2.849,2.34743,2.34743,0,0,1,2.428,2.577,3.10026,3.10026,0,0,1-.047.566Z"/>
    <path class="cls-6" d="M128.4292,63.6044a1.29083,1.29083,0,0,0,.046.37,1.271,1.271,0,0,0,1.248.935c.902,0,1.434-.707,1.434-1.751,0-.935-.486-1.697-1.399-1.697a1.30673,1.30673,0,0,0-1.271.99,1.14126,1.14126,0,0,0-.058.337Zm-1.422-1.316c0-.696-.023-1.261-.046-1.762h1.248l.07.816h.023a2.23476,2.23476,0,0,1,1.93-.936,2.4605,2.4605,0,0,1,2.37,2.698,2.58433,2.58433,0,0,1-2.566,2.838,1.89312,1.89312,0,0,1-1.584-.707h-.023v2.741h-1.422Z"/>
    <polygon class="cls-6" points="137.537 60.526 137.537 61.581 135.236 61.581 135.236 65.823 133.815 65.823 133.815 60.526 137.537 60.526"/>
    <path class="cls-6" d="M139.80141,60.5264v1.904c0,.837-.034,1.402-.081,2.142h.035c.3-.62.474-1.011.763-1.566l1.387-2.48h1.722v5.297h-1.352v-1.893c0-.848.034-1.24.092-2.24h-.046c-.277.631-.462,1.011-.74,1.522-.439.783-.948,1.74-1.433,2.611h-1.699v-5.297Z"/>
    <path class="cls-6" d="M148.412,61.35294a4.04735,4.04735,0,0,0-.706-.054c-.624,0-1.26.206-1.26.794,0,.554.706.794,1.26.794.336,0,.521,0,.706-.011Zm1.41,4.47h-1.41v-2.099h-.532a1.14206,1.14206,0,0,0-.867.348,3.41446,3.41446,0,0,0-.694,1.316,3.85046,3.85046,0,0,1-.219.435h-1.526a2.6997,2.6997,0,0,0,.347-.587,4.44507,4.44507,0,0,1,.843-1.523,1.36326,1.36326,0,0,1,.671-.359v-.032c-.671-.065-1.468-.479-1.468-1.305a1.33345,1.33345,0,0,1,.867-1.229,4.85848,4.85848,0,0,1,1.988-.337,16.13688,16.13688,0,0,1,2,.119Z"/>
    <path class="cls-6" d="M154.4324,63.84369a.8297.8297,0,0,1-.867-.859.83929.83929,0,0,1,.878-.859.85922.85922,0,1,1,0,1.718Z"/>
    <path class="cls-6" d="M160.03729,62.9736c-.67-.174-1.04-.587-1.04-1.109,0-.718.763-1.458,2.37-1.458a3.52258,3.52258,0,0,1,1.803.403l-.266.859a3.17965,3.17965,0,0,0-1.364-.316c-.682,0-1.11.262-1.11.631,0,.424.567.598,1.41.609h.613v.892h-.624c-.902.011-1.584.185-1.584.696,0,.501.613.761,1.306.761a4.01231,4.01231,0,0,0,1.584-.369l.208.891a4.54505,4.54505,0,0,1-2.138.479c-1.191,0-2.474-.424-2.474-1.62a1.436,1.436,0,0,1,1.306-1.305Z"/>
    <path class="cls-6" d="M165.21471,60.5264l.902,2.686c.162.468.266.892.404,1.349h.047a9.12336,9.12336,0,0,0,1.179-3.578v-.457h1.329a2.19742,2.19742,0,0,1,.035.402c0,1.502-1.018,3.274-2.046,4.895h-1.376l-2-5.297Z"/>
    <path class="cls-6" d="M171.051,62.9736c-.67-.174-1.04-.587-1.04-1.109,0-.718.763-1.458,2.37-1.458a3.52255,3.52255,0,0,1,1.803.403l-.266.859a3.17964,3.17964,0,0,0-1.364-.316c-.682,0-1.11.262-1.11.631,0,.424.567.598,1.41.609h.613v.892h-.624c-.902.011-1.584.185-1.584.696,0,.501.613.761,1.306.761a4.0124,4.0124,0,0,0,1.584-.369l.208.891a4.54505,4.54505,0,0,1-2.138.479c-1.191,0-2.474-.424-2.474-1.62a1.436,1.436,0,0,1,1.306-1.305Z"/>
    <path class="cls-6" d="M176.7372,63.72372a1.70391,1.70391,0,0,0,.034.348,1.31443,1.31443,0,0,0,1.249.838c.902,0,1.422-.751,1.422-1.751,0-.936-.497-1.653-1.341-1.653-.717,0-1.364.587-1.364,1.805Zm0,1.588v.75a13.57293,13.57293,0,0,0,.081,1.914h-1.376a9.294,9.294,0,0,1-.127-1.892v-2.425a2.99694,2.99694,0,0,1,.959-2.556,2.79478,2.79478,0,0,1,1.919-.696,2.55592,2.55592,0,0,1,2.694,2.719,2.60885,2.60885,0,0,1-2.601,2.817,1.87,1.87,0,0,1-1.526-.631Z"/>
    <path class="cls-6" d="M183.2899,67.9761a11.38843,11.38843,0,0,0-.196-3.056,14.38329,14.38329,0,0,0-1.965-4.394h1.595a12.41438,12.41438,0,0,1,1.503,3.851h.046a8.29846,8.29846,0,0,0,1.063-3.426c0-.207-.011-.316-.011-.425h1.352a2.068,2.068,0,0,1,.023.392,9.05944,9.05944,0,0,1-1.988,4.665.42643.42643,0,0,0-.069.262c.023.532.023,1.402.034,2.131Z"/>
    <path class="cls-6" d="M188.61749,62.9736c-.67-.174-1.04-.587-1.04-1.109,0-.718.763-1.458,2.37-1.458a3.52258,3.52258,0,0,1,1.803.403l-.266.859a3.1834,3.1834,0,0,0-1.364-.316c-.682,0-1.11.262-1.11.631,0,.424.567.598,1.41.609h.613v.892h-.624c-.902.011-1.584.185-1.584.696,0,.501.613.761,1.306.761a4.01231,4.01231,0,0,0,1.584-.369l.208.891a4.54921,4.54921,0,0,1-2.139.479c-1.19,0-2.473-.424-2.473-1.62a1.436,1.436,0,0,1,1.306-1.305Z"/>
    <path class="cls-6" d="M194.3504,64.3331c0,.435.138.609.532.587l-.081.935a1.842,1.842,0,0,1-.613.087c-.763,0-1.271-.304-1.271-1.479v-3.937h1.433Z"/>
    <path class="cls-6" d="M197.0666,63.23441c0,.892.485,1.642,1.26,1.642a1.418,1.418,0,0,0,1.248-1.141,3.45941,3.45941,0,0,0,.046-.62,2.21621,2.21621,0,0,0-.035-.501,1.296,1.296,0,0,0-1.19-1.174c-.798,0-1.329.794-1.329,1.783Zm4.08-2.708c-.069.718-.162,2.349-.162,3.611,0,.598.197.805.544.794l-.093.946a1.782,1.782,0,0,1-.497.065,1.04927,1.04927,0,0,1-1.098-1.033h-.035a2.09307,2.09307,0,0,1-1.861,1.033,2.40156,2.40156,0,0,1-2.323-2.664,2.69679,2.69679,0,0,1,2.543-2.872,1.74211,1.74211,0,0,1,1.618.925h.046c.035-.326.081-.577.127-.805Z"/>
    <path class="cls-6" d="M208.00771,39.05829a10.30769,10.30769,0,1,1,10.307,10.427,10.36842,10.36842,0,0,1-10.307-10.427"/>
    <path class="cls-3" d="M217.6125,42.967V39.372l-2.694-5.028h1.771l1.024,2.213c.291.64.506,1.126.733,1.715h.026c.215-.55.455-1.088.746-1.715l1.024-2.213h1.758l-2.832,4.99v3.633Z"/>
    <path class="cls-6" d="M231.721,39.05829a10.30769,10.30769,0,1,1,10.307,10.427,10.36842,10.36842,0,0,1-10.307-10.427"/>
    <path class="cls-6" d="M208.00771,62.18118a10.3077,10.3077,0,1,1,10.307,10.428,10.3684,10.3684,0,0,1-10.307-10.428"/>
    <rect class="cls-3" x="214.38699" y="57.46701" width="1.556" height="8.62299"/>
    <polygon class="cls-3" points="222.493 62.265 219.281 62.265 219.281 64.798 222.873 64.798 222.873 66.09 217.726 66.09 217.726 57.467 222.683 57.467 222.683 58.76 219.281 58.76 219.281 60.985 222.493 60.985 222.493 62.265"/>
    <path class="cls-6" d="M231.721,62.18118a10.3077,10.3077,0,1,1,10.307,10.428,10.3684,10.3684,0,0,1-10.307-10.428"/>
    <rect class="cls-3" x="234.85699" y="34.34399" width="1.556" height="8.62299"/>
    <path class="cls-3" d="M239.89,34.344h1.556v5.591c0,2.38-1.139,3.173-2.833,3.173a4.09238,4.09238,0,0,1-1.302-.205l.189-1.267a3.36326,3.36326,0,0,0,.962.154c.884,0,1.428-.409,1.428-1.906Z"/>
    <path class="cls-3" d="M247.30058,39.33344l-.67-2.124c-.164-.524-.304-1.113-.43-1.612h-.025c-.126.499-.253,1.101-.405,1.612l-.658,2.124Zm-2.44,1.18994-.734,2.444h-1.605l2.731-8.623h1.985l2.769,8.623h-1.669l-.771-2.444Z"/>
    <rect class="cls-3" x="237.336" y="57.46802" width="1.556" height="8.62299"/>
    <path class="cls-3" d="M244.8228,62.458l-.671-2.124c-.164-.525-.304-1.114-.43-1.612h-.025c-.126.498-.253,1.1-.405,1.612l-.657,2.124Zm-2.441,1.189-.734,2.444h-1.605l2.731-8.623h1.985l2.769,8.623h-1.669l-.771-2.444Z"/>
    <polyline class="cls-3" points="26.514 112.593 271.18 112.593 271.18 111.593 26.514 111.593"/>
  </g>
  <text class="cls-7" transform="translate(34.15381 109.38214)"><tspan class="cls-8" xml:space="preserve">                </tspan><tspan x="54.73438" y="0"> </tspan></text>
  <g class="cls-9">
    <rect class="cls-6" x="94.488" y="175.03998" width="143.01701" height="199.90199"/>
    <rect class="cls-6" x="94.488" y="175.03998" width="143.01701" height="199.90201"/>
    <polygon class="cls-5" points="94.488 242.621 94.488 262.314 200.708 262.314 210.459 252.466 200.708 242.621 94.488 242.621"/>
    <polygon class="cls-10" points="94.488 220.094 94.488 239.786 195.348 239.786 205.103 229.94 195.348 220.094 94.488 220.094"/>
    <polygon class="cls-11" points="94.488 197.567 94.488 217.258 189.993 217.258 199.747 207.413 189.993 197.567 94.488 197.567"/>
    <polygon class="cls-12" points="94.488 175.04 94.488 194.732 184.66 194.732 194.414 184.886 184.66 175.04 94.488 175.04"/>
    <polygon class="cls-13" points="94.488 265.149 94.488 284.84 206.327 284.84 216.091 274.994 206.327 265.149 94.488 265.149"/>
    <polygon class="cls-14" points="94.488 287.673 94.488 307.366 211.676 307.366 221.444 297.52 211.676 287.673 94.488 287.673"/>
    <polygon class="cls-15" points="94.488 310.199 94.488 329.889 217.026 329.889 226.795 320.043 217.026 310.199 94.488 310.199"/>
  </g>
  <text class="cls-16" transform="translate(163.00586 191.45831)"> </text>
  <text class="cls-16" transform="translate(166.6377 189.45831)">A</text>
  <text class="cls-16" transform="translate(163.00586 213.95441)"> </text>
  <text class="cls-16" transform="translate(166.6377 211.95441)">B</text>
  <text class="cls-16" transform="translate(163.00586 236.4505)"> </text>
  <text class="cls-16" transform="translate(166.6377 234.4505)">C</text>
  <text class="cls-16" transform="translate(163.00586 256.94611)"> </text>
  <text class="cls-16" transform="translate(166.6377 256.94611)">D</text>
  <text class="cls-16" transform="translate(163.00586 279.4422)"> </text>
  <text class="cls-16" transform="translate(166.6377 279.4422)">E</text>
  <text class="cls-16" transform="translate(163.00586 301.93781)"> </text>
  <text class="cls-16" transform="translate(166.6377 301.93781)">F</text>
  <text class="cls-16" transform="translate(163.00586 324.4339)"> </text>
  <text class="cls-16" transform="translate(166.6377 324.4339)">G</text>
  <text class="cls-17" transform="translate(101.34912 186.62433)"> </text>
  <g class="cls-18">
    <rect class="cls-6" x="-58.668" y="175.03998" width="156.10899" height="155.826"/>
  </g>
  <g class="cls-19">
    <rect class="cls-6" x="-58.668" y="175.03998" width="156.10899" height="155.82602"/>
    <polygon class="cls-5" points="-58.668 228.184 -58.668 242.368 70.937 242.368 77.962 235.277 70.937 228.184 -58.668 228.184"/>
    <polygon class="cls-10" points="-58.668 210.49 -58.668 224.673 67.078 224.673 74.104 217.582 67.078 210.49 -58.668 210.49"/>
    <polygon class="cls-11" points="-58.668 192.768 -58.668 206.951 63.221 206.951 70.245 199.86 63.221 192.768 -58.668 192.768"/>
    <polygon class="cls-12" points="-58.668 175.04 -58.668 189.222 59.379 189.222 66.404 182.131 59.379 175.04 -58.668 175.04"/>
    <polygon class="cls-13" points="-58.668 245.896 -58.668 260.078 74.985 260.078 82.017 252.988 74.985 245.896 -58.668 245.896"/>
    <polygon class="cls-14" points="-58.668 263.586 -58.668 277.77 78.838 277.77 85.873 270.678 78.838 263.586 -58.668 263.586"/>
    <polygon class="cls-15" points="-58.668 281.284 -58.668 295.465 82.691 295.465 89.728 288.373 82.691 281.284 -58.668 281.284"/>
    <polygon class="cls-15" points="-58.668 298.984 -58.668 313.165 86.545 313.165 93.584 306.078 86.545 298.984 -58.668 298.984"/>
    <polygon class="cls-15" points="-58.668 316.682 -58.668 330.866 90.397 330.866 97.441 323.774 90.397 316.682 -58.668 316.682"/>
  </g>
  <g class="cls-2">
    <rect class="cls-20" x="162.86693" y="130.92249" width="10.86011" height="1.35351" transform="translate(-0.58309 0.74911) rotate(-0.25459)"/>
    <path class="cls-21" d="M164.593,131.599a1.79459,1.79459,0,0,0-1.781-1.81,1.77578,1.77578,0,0,0-1.781,1.81,1.7939,1.7939,0,0,0,1.781,1.81,1.81347,1.81347,0,0,0,1.781-1.81"/>
    <path class="cls-21" d="M175.564,131.599a1.79522,1.79522,0,0,0-1.781-1.81,1.7766,1.7766,0,0,0-1.782,1.81,1.79474,1.79474,0,0,0,1.782,1.81,1.81413,1.81413,0,0,0,1.781-1.81"/>
    <path class="cls-21" d="M170.547,131.599a2.25454,2.25454,0,0,0-2.268-2.267,2.224,2.224,0,0,0-2.23,2.267,2.24717,2.24717,0,0,0,2.23,2.267,2.27825,2.27825,0,0,0,2.268-2.267"/>
    <path class="cls-20" d="M170.546,131.599a2.25494,2.25494,0,0,0-2.267-2.267,2.22484,2.22484,0,0,0-2.231,2.267,2.248,2.248,0,0,0,2.231,2.267,2.27869,2.27869,0,0,0,2.267-2.267"/>
    <rect class="cls-20" x="167.511" y="131.63498" width="1.57201" height="5.814"/>
    <path class="cls-21" d="M173.107,140.756a4.81428,4.81428,0,1,0-4.826,5.017,4.90767,4.90767,0,0,0,4.826-5.017"/>
    <path class="cls-21" d="M172.165,143.703s2.597.352,2.597,1.316v3.255h4.254l-.012-3.913c-.362-4.115-2.406-4.774-6.034-5.924l-1.121-.324.024.507-13.311-.074v5.047l13.603-.11v.22"/>
  </g>
  <text class="cls-22" transform="translate(30.43506 541.5462)">2015</text>
  <text class="cls-22" transform="translate(227.97461 541.5462)">811/2013</text>
  <g class="cls-2">
    <polyline class="cls-3" points="148.258 124.253 148.258 340.867 149.258 340.867 149.258 124.253"/>
    <rect x="28.908" y="128.069" width="4.016" height="1.133"/>
    <path d="M64.5108,149.646h1.372v.566l-.038-.565.091-.003a2.18349,2.18349,0,0,1,1.056.268,1.64569,1.64569,0,0,1,.614.602,1.98877,1.98877,0,0,1,.253,1.021v2.001h-1.133v-2.001a.86715.86715,0,0,0-.098-.448.581.581,0,0,0-.332-.25,1.18065,1.18065,0,0,0-.36-.059h-.019l-.004-.116.007.116h-.003l-.004-.116.007.116-.019.001h-1.39Z"/>
    <polygon points="29.824 127.306 29.646 127.465 28.34 127.465 28.162 127.306 27.914 125.079 28.057 124.919 29.929 124.919 30.072 125.079 29.824 127.306"/>
    <polyline points="28.456 153.707 28.456 126.52 29.59 126.52 29.59 153.707"/>
    <path class="cls-23" d="M64.774,150.765a2.14313,2.14313,0,0,1-1.889,1.889,2.17773,2.17773,0,0,1-1.889-1.889V126.821a1.889,1.889,0,0,1,3.778,0v23.944"/>
    <polygon class="cls-24" points="36.248 151.157 33.918 151.535 33.918 148.89 36.248 149.268 36.248 151.157"/>
    <polygon class="cls-23" points="36.248 151.157 38.578 151.535 38.578 148.89 36.248 149.268 36.248 151.157"/>
    <polygon class="cls-23" points="42.151 151.157 39.821 151.535 39.821 148.89 42.151 149.268 42.151 151.157"/>
    <polygon class="cls-23" points="42.151 151.157 44.481 151.535 44.481 148.89 42.151 149.268 42.151 151.157"/>
    <polygon class="cls-23" points="48.071 151.157 45.741 151.535 45.741 148.89 48.071 149.268 48.071 151.157"/>
    <polygon class="cls-23" points="48.071 151.157 50.401 151.535 50.401 148.89 48.071 149.268 48.071 151.157"/>
    <polygon class="cls-23" points="53.974 151.157 51.644 151.535 51.644 148.89 53.974 149.268 53.974 151.157"/>
    <polygon class="cls-23" points="53.974 151.157 56.304 151.535 56.304 148.89 53.974 149.268 53.974 151.157"/>
    <polygon class="cls-23" points="60.067 151.157 57.736 151.535 57.736 148.89 60.067 149.268 60.067 151.157"/>
    <polygon class="cls-23" points="60.067 151.157 62.396 151.535 62.396 148.89 60.067 149.268 60.067 151.157"/>
    <polygon class="cls-24" points="36.248 128.41 33.918 128.788 33.918 126.143 36.248 126.521 36.248 128.41"/>
    <polygon class="cls-23" points="36.248 128.41 38.578 128.788 38.578 126.143 36.248 126.521 36.248 128.41"/>
    <polygon class="cls-23" points="42.151 128.41 39.821 128.788 39.821 126.143 42.151 126.521 42.151 128.41"/>
    <polygon class="cls-23" points="42.151 128.41 44.481 128.788 44.481 126.143 42.151 126.521 42.151 128.41"/>
    <polygon class="cls-23" points="48.071 128.41 45.741 128.788 45.741 126.143 48.071 126.521 48.071 128.41"/>
    <polygon class="cls-23" points="48.071 128.41 50.401 128.788 50.401 126.143 48.071 126.521 48.071 128.41"/>
    <polygon class="cls-23" points="53.974 128.41 51.644 128.788 51.644 126.143 53.974 126.521 53.974 128.41"/>
    <polygon class="cls-23" points="53.974 128.41 56.304 128.788 56.304 126.143 53.974 126.521 53.974 128.41"/>
    <polygon class="cls-25" points="53.974 128.069 55.139 128.311 55.139 126.619 53.974 126.861 53.974 128.069"/>
    <polygon class="cls-23" points="60.067 128.41 57.736 128.788 57.736 126.143 60.067 126.521 60.067 128.41"/>
    <polygon class="cls-23" points="60.067 128.41 62.396 128.788 62.396 126.143 60.067 126.521 60.067 128.41"/>
    <polygon class="cls-24" points="53.974 128.41 51.644 128.788 51.644 126.143 53.974 126.521 53.974 128.41"/>
    <polygon class="cls-24" points="53.974 128.41 56.304 128.788 56.304 126.143 53.974 126.521 53.974 128.41"/>
    <path class="cls-26" d="M55.0762,128.298l-1.102-.229v-1.208l1.116-.231a1.34225,1.34225,0,0,0-.014.191v1.477"/>
    <polygon class="cls-24" points="59.729 128.41 57.398 128.788 57.398 126.143 59.729 126.521 59.729 128.41"/>
    <polygon class="cls-24" points="59.729 128.41 62.058 128.788 62.058 126.143 59.729 126.521 59.729 128.41"/>
    <polygon class="cls-26" points="60.893 128.311 60.892 128.311 59.728 128.069 59.728 126.861 60.892 126.62 60.893 126.62 60.893 128.311"/>
    <polygon class="cls-24" points="48.071 128.41 45.741 128.788 45.741 126.143 48.071 126.521 48.071 128.41"/>
    <polygon class="cls-24" points="48.071 128.41 50.401 128.788 50.401 126.143 48.071 126.521 48.071 128.41"/>
    <path class="cls-26" d="M49.1569,128.295l-1.086-.226v-1.208l1.099-.228a1.3101,1.3101,0,0,0-.013.188v1.474"/>
    <polygon class="cls-24" points="42.151 128.41 39.821 128.788 39.821 126.143 42.151 126.521 42.151 128.41"/>
    <polygon class="cls-24" points="42.151 128.41 44.481 128.788 44.481 126.143 42.151 126.521 42.151 128.41"/>
    <path class="cls-26" d="M43.2377,128.295l-1.086-.226v-1.208l1.099-.228a1.3101,1.3101,0,0,0-.013.188v1.474"/>
    <polygon class="cls-24" points="36.248 128.41 33.918 128.788 33.918 126.143 36.248 126.521 36.248 128.41"/>
    <polygon class="cls-24" points="36.248 128.41 38.578 128.788 38.578 126.143 36.248 126.521 36.248 128.41"/>
    <path class="cls-26" d="M37.3183,128.291l-1.071-.222v-1.208l1.084-.225a1.269,1.269,0,0,0-.013.185v1.47"/>
    <polygon class="cls-24" points="53.974 151.155 51.644 151.533 51.644 148.888 53.974 149.266 53.974 151.155"/>
    <polygon class="cls-24" points="53.974 151.155 56.304 151.533 56.304 148.888 53.974 149.266 53.974 151.155"/>
    <path class="cls-26" d="M55.1062,151.05l-1.132-.235v-1.208l1.102-.229v1.387a1.42073,1.42073,0,0,0,.03.285"/>
    <polygon class="cls-24" points="59.729 151.155 57.398 151.533 57.398 148.888 59.729 149.266 59.729 151.155"/>
    <polygon class="cls-24" points="59.729 151.155 62.058 151.533 62.058 148.888 59.729 149.266 59.729 151.155"/>
    <polygon class="cls-26" points="60.893 151.057 60.892 151.057 59.728 150.815 59.728 149.607 60.892 149.365 60.893 149.365 60.893 151.057"/>
    <polygon class="cls-24" points="48.071 151.155 45.741 151.533 45.741 148.888 48.071 149.266 48.071 151.155"/>
    <polygon class="cls-24" points="48.071 151.155 50.401 151.533 50.401 148.888 48.071 149.266 48.071 151.155"/>
    <path class="cls-26" d="M49.1861,151.046l-1.116-.231v-1.208l1.087-.226v1.384a1.37354,1.37354,0,0,0,.029.281"/>
    <polygon class="cls-24" points="42.151 151.155 39.821 151.533 39.821 148.888 42.151 149.266 42.151 151.155"/>
    <polygon class="cls-24" points="42.151 151.155 44.481 151.533 44.481 148.888 42.151 149.266 42.151 151.155"/>
    <path class="cls-26" d="M43.2669,151.046l-1.115-.231v-1.208l1.086-.226v1.384a1.37354,1.37354,0,0,0,.029.281"/>
    <polygon class="cls-24" points="36.248 151.155 33.918 151.533 33.918 148.888 36.248 149.266 36.248 151.155"/>
    <polygon class="cls-24" points="36.248 151.155 38.578 151.533 38.578 148.888 36.248 149.266 36.248 151.155"/>
    <path class="cls-26" d="M37.3469,151.043l-1.099-.228v-1.208l1.07-.222v1.38a1.35163,1.35163,0,0,0,.029.278"/>
    <path class="cls-24" d="M64.774,150.765a2.14313,2.14313,0,0,1-1.889,1.889,2.17773,2.17773,0,0,1-1.889-1.889V126.821a1.889,1.889,0,0,1,3.778,0v23.944"/>
    <path class="cls-24" d="M58.8545,150.765a2.14313,2.14313,0,0,1-1.889,1.889,2.17773,2.17773,0,0,1-1.889-1.889V126.821a1.889,1.889,0,0,1,3.778,0v23.944"/>
    <path class="cls-24" d="M52.9351,150.765a2.14313,2.14313,0,0,1-1.889,1.889,2.17773,2.17773,0,0,1-1.889-1.889V126.821a2.18052,2.18052,0,0,1,1.889-1.889,2.18148,2.18148,0,0,1,1.889,1.889v23.944"/>
    <path class="cls-24" d="M47.0161,150.765a2.14313,2.14313,0,0,1-1.889,1.889,2.17773,2.17773,0,0,1-1.889-1.889V126.821a2.18052,2.18052,0,0,1,1.889-1.889,2.18148,2.18148,0,0,1,1.889,1.889v23.944"/>
    <path class="cls-24" d="M41.0966,150.765a2.14313,2.14313,0,0,1-1.889,1.889,2.17773,2.17773,0,0,1-1.889-1.889V126.821a2.18052,2.18052,0,0,1,1.889-1.889,2.18148,2.18148,0,0,1,1.889,1.889v23.944"/>
    <path class="cls-24" d="M35.1772,150.765a2.14313,2.14313,0,0,1-1.889,1.889,2.17773,2.17773,0,0,1-1.889-1.889V126.821a2.18052,2.18052,0,0,1,1.889-1.889,2.18148,2.18148,0,0,1,1.889,1.889v23.944"/>
    <path class="cls-26" d="M62.8846,152.418a2.02144,2.02144,0,0,1-1.653-1.85V127.121a2.02529,2.02529,0,0,1,1.653-1.849v27.146"/>
    <path class="cls-26" d="M56.9927,152.418a2.02354,2.02354,0,0,1-1.653-1.83V127.102a2.02763,2.02763,0,0,1,1.653-1.83v27.146"/>
    <path class="cls-26" d="M51.1009,152.418a2.02144,2.02144,0,0,1-1.653-1.85V127.121a2.02529,2.02529,0,0,1,1.653-1.849v27.146"/>
    <path class="cls-26" d="M45.2087,152.418a2.02144,2.02144,0,0,1-1.653-1.85V127.121a2.02529,2.02529,0,0,1,1.653-1.849v27.146"/>
    <path class="cls-26" d="M39.3169,152.418a2.02354,2.02354,0,0,1-1.653-1.83V127.102a2.02763,2.02763,0,0,1,1.653-1.83v27.146"/>
    <path class="cls-26" d="M33.425,152.418a2.02144,2.02144,0,0,1-1.653-1.85V127.121a2.02529,2.02529,0,0,1,1.653-1.849v27.146"/>
  </g>
  <rect class="cls-1" y="0.00098" width="297.638" height="566.92902"/>
  <g id="offPeakMode">
    <path class="cls-3" d="M205.774,393.038v-1a10.76864,10.76864,0,0,0-4.399,1.093,7.94215,7.94215,0,0,0-3.102,2.687,9.035,9.035,0,0,0-1.403,5.124V470a10.779,10.779,0,0,0,1.094,4.399,7.9309,7.9309,0,0,0,2.686,3.102,9.0375,9.0375,0,0,0,5.124,1.403h53.465a10.79788,10.79788,0,0,0,4.399-1.094,7.946,7.946,0,0,0,3.102-2.686A9.03961,9.03961,0,0,0,268.143,470V400.942a10.79409,10.79409,0,0,0-1.094-4.399,7.93215,7.93215,0,0,0-2.686-3.102,9.032,9.032,0,0,0-5.124-1.403H205.774v2h53.465a7.03244,7.03244,0,0,1,4.014,1.067,6.48156,6.48156,0,0,1,2.515,3.623,9.27335,9.27335,0,0,1,.329,1.599c.024.203.035.364.041.471l.004.118.001.025V470a7.0402,7.0402,0,0,1-1.067,4.014,6.47888,6.47888,0,0,1-3.624,2.515,9.25548,9.25548,0,0,1-1.599.329c-.202.024-.364.035-.471.041l-.118.004-.025.001H205.774a7.04386,7.04386,0,0,1-4.015-1.067,6.48177,6.48177,0,0,1-2.514-3.624,9.35042,9.35042,0,0,1-.33-1.599c-.023-.202-.034-.364-.04-.471l-.005-.118V400.942a7.03585,7.03585,0,0,1,1.067-4.015,6.48537,6.48537,0,0,1,3.624-2.515,9.4437,9.4437,0,0,1,1.598-.329c.203-.023.364-.035.471-.04l.118-.005h.026Z"/>
    <path class="cls-27" d="M230.565,442.813a3.43781,3.43781,0,0,1-.837-.103l2.126-15.304-13.634-7.02c2.744-4.061,8.522-8.41,13.795-8.437h.116a15.3148,15.3148,0,0,1,15.252,15.315c0,8.458-6.024,15.316-14.485,15.316-.945,0-1.583.233-2.333.233"/>
    <path class="cls-28" d="M231.924,441.708a14.4755,14.4755,0,1,0-11.975-22.613l-1.389-.946a16.1574,16.1574,0,1,1,13.364,25.239Z"/>
    <polyline class="cls-28" points="232.609 414.602 232.609 427.437 230.929 427.437 230.929 414.602"/>
    <polyline class="cls-28" points="222.629 421.712 232.238 426.659 231.469 428.153 221.86 423.206"/>
    <path class="cls-28" d="M231.852,428.455a1.191,1.191,0,1,0-1.191-1.192,1.19239,1.19239,0,0,0,1.191,1.192"/>
    <polyline class="cls-28" points="219.833 447.898 229.468 457.889 228.262 459.051 218.628 449.06"/>
    <polygon class="cls-28" points="229.616 453.641 229.981 459.636 224.046 459.003 224.224 457.338 228.189 457.761 227.944 453.743 229.616 453.641"/>
    <path class="cls-28" d="M219.949,419.095a14.32085,14.32085,0,0,0-1.052,1.814l-1.511-.735a16.06857,16.06857,0,0,1,1.174-2.025Zm-1.829,3.761a14.48684,14.48684,0,0,0-.486,2.039l-1.658-.269a15.97607,15.97607,0,0,1,.542-2.278Zm-.671,4.128-.002.248a14.61846,14.61846,0,0,0,.117,1.847l-1.667.212a16.26985,16.26985,0,0,1-.13-2.059c0-.092,0-.184.002-.276Zm.53,4.15a14.20026,14.20026,0,0,0,.71,1.973l-1.536.683a16.14446,16.14446,0,0,1-.793-2.205Zm1.699,3.822a14.51905,14.51905,0,0,0,1.246,1.688l-1.276,1.093a16.27715,16.27715,0,0,1-1.391-1.883Zm2.722,3.178a14.52174,14.52174,0,0,0,1.673,1.263l-.912,1.411a16.15828,16.15828,0,0,1-1.867-1.409Zm3.511,2.27a14.2953,14.2953,0,0,0,1.964.73l-.469,1.614a16.09625,16.09625,0,0,1-2.194-.816Zm4.014,1.167a14.62982,14.62982,0,0,0,1.999.137v1.68a16.20746,16.20746,0,0,1-2.228-.153Z"/>
    <path class="cls-28" d="M243.216,456.602a19.248,19.248,0,0,0-6.837,0h-3.498v2.023c0,1.287,3.096,2.329,6.917,2.329,3.82,0,6.916-1.042,6.916-2.329v-2.023Z"/>
    <path class="cls-28" d="M243.216,456.602l-.036.185a19.03707,19.03707,0,0,0-6.766,0l-.017.003h-3.328v1.835a1.02569,1.02569,0,0,0,.472.76c.976.786,3.42,1.387,6.257,1.381a15.74619,15.74619,0,0,0,4.83-.672,4.79875,4.79875,0,0,0,1.426-.709,1.02578,1.02578,0,0,0,.472-.76V456.79h-3.328l-.018-.003.036-.185v-.188h3.686v2.211a1.3849,1.3849,0,0,1-.614,1.054c-1.125.886-3.597,1.458-6.49,1.464a16.15409,16.15409,0,0,1-4.951-.692,5.13678,5.13678,0,0,1-1.54-.772,1.38917,1.38917,0,0,1-.615-1.054v-2.211h3.687v.188l-.035-.185a19.45331,19.45331,0,0,1,6.907,0l-.035.185v0Z"/>
    <path class="cls-29" d="M232.881,456.602c0,1.287,3.097,2.329,6.917,2.329s6.917-1.042,6.917-2.329-3.097-2.329-6.917-2.329-6.917,1.042-6.917,2.329"/>
    <path class="cls-30" d="M232.881,456.602h.188a1.02449,1.02449,0,0,0,.473.76c.975.786,3.419,1.386,6.256,1.381a15.78877,15.78877,0,0,0,4.831-.672,4.80382,4.80382,0,0,0,1.425-.709.84786.84786,0,0,0,0-1.52c-.975-.786-3.42-1.386-6.256-1.381a15.8145,15.8145,0,0,0-4.831.672,4.79146,4.79146,0,0,0-1.425.709,1.02447,1.02447,0,0,0-.473.76h-.376a1.38942,1.38942,0,0,1,.614-1.054c1.125-.885,3.597-1.458,6.491-1.463a16.13288,16.13288,0,0,1,4.951.692,5.11873,5.11873,0,0,1,1.539.771,1.21068,1.21068,0,0,1,0,2.108c-1.125.886-3.597,1.458-6.49,1.463a16.12359,16.12359,0,0,1-4.951-.692,5.11328,5.11328,0,0,1-1.54-.771,1.391,1.391,0,0,1-.614-1.054Z"/>
    <polyline class="cls-29" points="246.591 457.213 246.591 459.229 246.366 459.229 246.366 457.213"/>
    <polyline class="cls-29" points="246.226 457.487 246.226 459.503 246.001 459.503 246.001 457.487"/>
    <polyline class="cls-29" points="245.855 457.761 245.855 459.777 245.63 459.777 245.63 457.761"/>
    <polyline class="cls-29" points="245.483 457.973 245.483 459.989 245.259 459.989 245.259 457.973"/>
    <polyline class="cls-29" points="245.104 458.168 245.104 460.185 244.879 460.185 244.879 458.168"/>
    <polyline class="cls-29" points="244.68 458.365 244.68 460.382 244.456 460.382 244.456 458.365"/>
    <path class="cls-28" d="M244.938,454.031a19.24247,19.24247,0,0,0-6.836,0h-3.498v2.023c0,1.287,3.096,2.329,6.916,2.329s6.917-1.042,6.917-2.329v-2.023Z"/>
    <path class="cls-28" d="M244.939,454.031l-.036.185a19.03645,19.03645,0,0,0-6.766,0l-.017.003h-3.328v1.835a1.02576,1.02576,0,0,0,.472.76c.976.786,3.42,1.387,6.256,1.381a15.7484,15.7484,0,0,0,4.831-.672,4.799,4.799,0,0,0,1.426-.709,1.02582,1.02582,0,0,0,.472-.76v-1.835h-3.328l-.018-.003.036-.185v-.188h3.686v2.211a1.38651,1.38651,0,0,1-.614,1.054c-1.125.886-3.597,1.458-6.491,1.464a16.16364,16.16364,0,0,1-4.951-.692,5.1423,5.1423,0,0,1-1.539-.772,1.39078,1.39078,0,0,1-.615-1.054v-2.211h3.687v.188l-.035-.185a19.45325,19.45325,0,0,1,6.907,0l-.035.185v0Z"/>
    <path class="cls-29" d="M234.604,454.031c0,1.287,3.097,2.329,6.916,2.329,3.821,0,6.918-1.042,6.918-2.329s-3.097-2.329-6.918-2.329c-3.819,0-6.916,1.042-6.916,2.329"/>
    <path class="cls-30" d="M234.604,454.031h.188a1.02577,1.02577,0,0,0,.472.76c.976.786,3.42,1.386,6.256,1.381a15.79106,15.79106,0,0,0,4.832-.672,4.80374,4.80374,0,0,0,1.425-.709.84786.84786,0,0,0,0-1.52c-.975-.786-3.42-1.386-6.257-1.381a15.77682,15.77682,0,0,0-4.83.672,4.81126,4.81126,0,0,0-1.426.709,1.02577,1.02577,0,0,0-.472.76h-.376a1.38942,1.38942,0,0,1,.614-1.054c1.125-.885,3.597-1.458,6.49-1.463a16.13515,16.13515,0,0,1,4.952.692,5.1423,5.1423,0,0,1,1.539.771,1.21068,1.21068,0,0,1,0,2.108c-1.125.886-3.597,1.458-6.491,1.463a16.12135,16.12135,0,0,1-4.95-.692,5.11316,5.11316,0,0,1-1.54-.771,1.391,1.391,0,0,1-.614-1.054Z"/>
    <polyline class="cls-29" points="248.314 454.642 248.314 456.658 248.089 456.658 248.089 454.642"/>
    <polyline class="cls-29" points="247.949 454.916 247.949 456.932 247.724 456.932 247.724 454.916"/>
    <polyline class="cls-29" points="247.578 455.19 247.578 457.206 247.353 457.206 247.353 455.19"/>
    <polyline class="cls-29" points="247.206 455.402 247.206 457.418 246.982 457.418 246.982 455.402"/>
    <polyline class="cls-29" points="246.827 455.597 246.827 457.614 246.602 457.614 246.602 455.597"/>
    <polyline class="cls-29" points="246.403 455.794 246.403 457.811 246.179 457.811 246.179 455.794"/>
    <path class="cls-28" d="M243.668,451.655a19.31079,19.31079,0,0,0-6.837,0h-3.498v2.024c0,1.287,3.097,2.329,6.917,2.329s6.917-1.042,6.917-2.329v-2.024Z"/>
    <path class="cls-28" d="M243.668,451.655l-.035.185a19.09859,19.09859,0,0,0-6.766,0l-.018.004h-3.328v1.835a1.02123,1.02123,0,0,0,.473.759c.975.787,3.42,1.387,6.256,1.381a15.75353,15.75353,0,0,0,4.831-.672,4.757,4.757,0,0,0,1.425-.709,1.02126,1.02126,0,0,0,.473-.759v-1.835H243.65l-.017-.004.035-.185v-.188h3.687v2.212a1.38946,1.38946,0,0,1-.615,1.054c-1.125.885-3.596,1.458-6.49,1.463a16.16343,16.16343,0,0,1-4.951-.692,5.14881,5.14881,0,0,1-1.54-.771,1.3911,1.3911,0,0,1-.614-1.054v-2.212h3.686v.188l-.035-.184a19.45889,19.45889,0,0,1,6.908,0l-.036.184v0Z"/>
    <path class="cls-29" d="M233.333,451.655c0,1.287,3.097,2.33,6.917,2.33s6.917-1.043,6.917-2.33c0-1.286-3.097-2.329-6.917-2.329s-6.917,1.043-6.917,2.329"/>
    <path class="cls-30" d="M233.333,451.655h.188a1.02746,1.02746,0,0,0,.473.76c.975.786,3.42,1.387,6.256,1.382a15.78118,15.78118,0,0,0,4.831-.673,4.80374,4.80374,0,0,0,1.425-.709.84625.84625,0,0,0,0-1.519c-.975-.786-3.42-1.387-6.256-1.382a15.78563,15.78563,0,0,0-4.831.673,4.77984,4.77984,0,0,0-1.425.709,1.02754,1.02754,0,0,0-.473.759h-.376a1.38608,1.38608,0,0,1,.615-1.053c1.125-.886,3.596-1.459,6.49-1.464a16.12831,16.12831,0,0,1,4.951.692,5.14868,5.14868,0,0,1,1.54.772,1.21079,1.21079,0,0,1,0,2.107c-1.125.886-3.597,1.459-6.491,1.464a16.16355,16.16355,0,0,1-4.951-.692,5.13,5.13,0,0,1-1.539-.772,1.38623,1.38623,0,0,1-.615-1.054h.188"/>
    <polyline class="cls-29" points="247.044 452.267 247.044 454.283 246.819 454.283 246.819 452.267"/>
    <polyline class="cls-29" points="246.678 452.54 246.678 454.557 246.453 454.557 246.453 452.54"/>
    <polyline class="cls-29" points="246.307 452.814 246.307 454.83 246.082 454.83 246.082 452.814"/>
    <polyline class="cls-29" points="245.936 453.026 245.936 455.043 245.711 455.043 245.711 453.026"/>
    <polyline class="cls-29" points="245.556 453.222 245.556 455.238 245.331 455.238 245.331 453.222"/>
    <polyline class="cls-29" points="245.133 453.419 245.133 455.435 244.908 455.435 244.908 453.419"/>
    <path class="cls-28" d="M242.921,448.88689a19.30524,19.30524,0,0,0-6.836,0h-3.499v2.024c0,1.286,3.097,2.329,6.917,2.329s6.917-1.043,6.917-2.329v-2.024h-3.499"/>
    <path class="cls-28" d="M242.921,448.88689l-.035.185a19.09916,19.09916,0,0,0-6.766,0l-.017.003h-3.329v1.836a1.02448,1.02448,0,0,0,.473.759c.975.787,3.42,1.387,6.256,1.382a15.81507,15.81507,0,0,0,4.831-.672,4.77941,4.77941,0,0,0,1.425-.71,1.02445,1.02445,0,0,0,.473-.759v-1.836h-3.328l-.018-.003.035-.185v-.188h3.687v2.212a1.39111,1.39111,0,0,1-.614,1.054c-1.125.885-3.597,1.458-6.491,1.463a16.13284,16.13284,0,0,1-4.951-.692,5.1298,5.1298,0,0,1-1.539-.771,1.38947,1.38947,0,0,1-.615-1.054v-2.212h3.687v.188l-.036-.184a19.45889,19.45889,0,0,1,6.908,0l-.036.184v0"/>
    <path class="cls-29" d="M232.586,448.88689c0,1.287,3.097,2.33,6.917,2.33s6.917-1.043,6.917-2.33c0-1.286-3.097-2.329-6.917-2.329s-6.917,1.043-6.917,2.329"/>
    <path class="cls-30" d="M232.586,448.88689h.188a1.02446,1.02446,0,0,0,.473.76c.975.786,3.42,1.387,6.256,1.382a15.78114,15.78114,0,0,0,4.831-.673,4.78014,4.78014,0,0,0,1.425-.709.84627.84627,0,0,0,0-1.519c-.975-.786-3.42-1.387-6.256-1.381a15.75836,15.75836,0,0,0-4.831.672,4.75648,4.75648,0,0,0-1.425.709,1.02452,1.02452,0,0,0-.473.759h-.376a1.38611,1.38611,0,0,1,.615-1.053c1.125-.886,3.596-1.458,6.49-1.464a16.15884,16.15884,0,0,1,4.951.692,5.14874,5.14874,0,0,1,1.54.772,1.2108,1.2108,0,0,1,0,2.107c-1.125.886-3.597,1.459-6.491,1.464a16.1635,16.1635,0,0,1-4.951-.692,5.1423,5.1423,0,0,1-1.539-.772,1.38627,1.38627,0,0,1-.615-1.054h.188"/>
    <path class="cls-31" d="M243.925,450.268h-.003a.22223.22223,0,0,1-.055-.437c.001,0,.106-.027.271-.082a4.61671,4.61671,0,0,0,.913-.405,1.47621,1.47621,0,0,0,.355-.285.40165.40165,0,0,0,.115-.256l-.001-.013c.008-.061-.1-.221-.349-.373a6.00808,6.00808,0,0,0-1.479-.589,6.47179,6.47179,0,0,0-1.123-.23h-.006a.22187.22187,0,0,1-.222-.214v-.016a.22245.22245,0,0,1,.214-.214h.017a4.20661,4.20661,0,0,1,.716.115,9.24371,9.24371,0,0,1,1.637.519,3.10406,3.10406,0,0,1,.687.399.83281.83281,0,0,1,.352.58v.057a.94363.94363,0,0,1-.358.663,4.70316,4.70316,0,0,1-1.626.774.21243.21243,0,0,1-.055.007m1.595-1.478v0"/>
    <polyline class="cls-29" points="246.297 449.498 246.297 451.515 246.072 451.515 246.072 449.498"/>
    <polyline class="cls-29" points="245.931 449.772 245.931 451.789 245.706 451.789 245.706 449.772"/>
    <polyline class="cls-29" points="245.56 450.046 245.56 452.062 245.335 452.062 245.335 450.046"/>
    <polyline class="cls-29" points="245.189 450.258 245.189 452.275 244.964 452.275 244.964 450.258"/>
    <polyline class="cls-29" points="244.809 450.454 244.809 452.471 244.585 452.471 244.585 450.454"/>
    <polyline class="cls-29" points="244.386 450.651 244.386 452.667 244.161 452.667 244.161 450.651"/>
  </g>
  <rect class="cls-1" y="0.00098" width="297.638" height="566.92902"/>
  <rect class="cls-1" y="0.00098" width="297.638" height="566.92902"/>
  <g class="cls-2">
    <path class="cls-3" d="M122.316,393.014v-1a10.77606,10.77606,0,0,0-4.399,1.094,7.92413,7.92413,0,0,0-3.102,2.686,9.02977,9.02977,0,0,0-1.403,5.124v69.058a10.76848,10.76848,0,0,0,1.093,4.399,7.93522,7.93522,0,0,0,2.687,3.102,9.02727,9.02727,0,0,0,5.124,1.403H175.78a10.77115,10.77115,0,0,0,4.4-1.093,7.93964,7.93964,0,0,0,3.101-2.687,9.02954,9.02954,0,0,0,1.403-5.124V400.918a10.76808,10.76808,0,0,0-1.093-4.399,7.94715,7.94715,0,0,0-2.686-3.102,9.04111,9.04111,0,0,0-5.125-1.403H122.316v2H175.78a7.03371,7.03371,0,0,1,4.015,1.067,6.48552,6.48552,0,0,1,2.515,3.624,9.44315,9.44315,0,0,1,.329,1.598c.023.203.035.365.04.471l.005.118v69.084a7.03577,7.03577,0,0,1-1.067,4.015,6.48653,6.48653,0,0,1-3.623,2.515,9.47141,9.47141,0,0,1-1.599.329c-.203.023-.364.034-.471.04l-.118.005h-53.49a7.03607,7.03607,0,0,1-4.015-1.067,6.48659,6.48659,0,0,1-2.515-3.623,9.47164,9.47164,0,0,1-.329-1.599c-.023-.203-.035-.364-.04-.471l-.005-.118V400.918a7.03834,7.03834,0,0,1,1.067-4.015,6.47977,6.47977,0,0,1,3.623-2.514,9.27685,9.27685,0,0,1,1.599-.329c.203-.024.364-.035.471-.041l.118-.004.025-.001h.001Z"/>
  </g>
  <text class="cls-32" transform="translate(168.00586 436.96027)"> </text>
  <text class="cls-33" transform="translate(137.10986 457.95831)"><tspan class="cls-34">k</tspan><tspan x="8.02051" y="0">W</tspan></text>
  <text class="cls-35" transform="translate(33.9917 186.52765)"> </text>
  <text class="cls-35" transform="translate(37.15576 186.52765)">A</text>
  <text class="cls-36" transform="translate(45.63232 181.8714)"><tspan class="cls-37">+</tspan><tspan x="4.15479" y="0">+</tspan></text>
  <text class="cls-35" transform="translate(33.9917 204.18683)"> </text>
  <text class="cls-35" transform="translate(37.15576 204.18683)">A</text>
  <text class="cls-36" transform="translate(45.63232 199.53058)">+</text>
  <text class="cls-35" transform="translate(33.9917 223.83527)"> </text>
  <text class="cls-35" transform="translate(37.15576 221.83331)">A</text>
  <text class="cls-35" transform="translate(33.9917 239.47345)"> </text>
  <text class="cls-35" transform="translate(37.15576 239.47345)">B</text>
  <text class="cls-35" transform="translate(33.9917 257.12726)"> </text>
  <text class="cls-35" transform="translate(37.15576 257.12726)">C</text>
  <text class="cls-35" transform="translate(33.9917 274.78107)"> </text>
  <text class="cls-35" transform="translate(37.15576 274.78107)">D</text>
  <text class="cls-35" transform="translate(33.9917 292.43488)"> </text>
  <text class="cls-35" transform="translate(37.15576 292.43488)">E</text>
  <text class="cls-35" transform="translate(33.9917 310.0755)"> </text>
  <text class="cls-35" transform="translate(37.15576 310.0755)">F</text>
  <text class="cls-35" transform="translate(33.9917 327.72882)"> </text>
  <text class="cls-35" transform="translate(37.15576 327.72882)">G</text>
  <g id="spaceHeatingRating">
    <polyline id="spaceHeatingRatingArrow" class="cls-38" points="98.79 182.3 111.43 169.54 139.01 169.54 139.01 195.28 111.66 195.28 98.79 182.3"/>
    <text id="spaceHeatingRatingLetter" class="cls-39" transform="translate(107.29004 187.97003)">A</text>
    <text id="spaceHeatingRatingPlusses" class="cls-40" transform="translate(119.62012 182.01007)">++</text>
  </g>
  <g id="waterHeatingRatingArrow">
    <polyline id="waterHeatingRatingArrow-2" data-name="waterHeatingRatingArrow" class="cls-38" points="230.74 184.88 243.38 172.12 270.96 172.12 270.96 197.86 243.61 197.86 230.74 184.88"/>
    <text id="waterHeatingRatingLetter" class="cls-39" transform="translate(239.24023 190.55011)">A</text>
    <text id="waterHeatingRatingPlusses" class="cls-39" transform="translate(250.85 190.55011)"> </text>
  </g>
  <text id="declaredLoadProfile" class="cls-41" transform="translate(182.09961 154.49005)">X</text>
  <text id="kw" class="cls-42" transform="translate(149.2002 436.96027)" text-anchor="middle">X</text>
  <g id="dbSection">
    <path class="cls-3" d="M38.2771,393.014v-1a10.7792,10.7792,0,0,0-4.399,1.094,7.924,7.924,0,0,0-3.102,2.686,9.02962,9.02962,0,0,0-1.403,5.124v69.058a10.76818,10.76818,0,0,0,1.093,4.399,7.93522,7.93522,0,0,0,2.687,3.102,9.02962,9.02962,0,0,0,5.124,1.403h53.464a10.77118,10.77118,0,0,0,4.4-1.093,7.94908,7.94908,0,0,0,3.102-2.687,9.03752,9.03752,0,0,0,1.403-5.124V400.918a10.79793,10.79793,0,0,0-1.094-4.399,7.939,7.939,0,0,0-2.686-3.102,9.04106,9.04106,0,0,0-5.125-1.403H38.2771v2h53.464a7.03371,7.03371,0,0,1,4.015,1.067,6.48053,6.48053,0,0,1,2.515,3.624,9.44332,9.44332,0,0,1,.329,1.598c.023.203.035.365.04.471l.005.118v.025l.001.001v69.058a7.03548,7.03548,0,0,1-1.068,4.015,6.4865,6.4865,0,0,1-3.623,2.515,9.45192,9.45192,0,0,1-1.599.329c-.202.023-.364.034-.471.04l-.118.005h-53.49a7.036,7.036,0,0,1-4.015-1.067,6.48661,6.48661,0,0,1-2.515-3.623,9.47164,9.47164,0,0,1-.329-1.599c-.023-.203-.034-.364-.04-.471l-.005-.118V400.918a7.03826,7.03826,0,0,1,1.067-4.015,6.47977,6.47977,0,0,1,3.623-2.514,9.27685,9.27685,0,0,1,1.599-.329c.203-.024.364-.035.471-.041l.118-.004.025-.001h.001Z"/>
    <g class="cls-43">
      <polygon class="cls-44" points="46.924 439.105 46.924 443.823 82.195 443.823 82.195 419.446 64.558 403.376 46.924 419.446 46.924 439.105"/>
    </g>
    <path class="cls-45" d="M55.7602,432.979q-1.458-1.30048-2.913-2.599h-2.078v-4.151h2.078q1.455-1.299,2.913-2.599l1.205-1.073v11.497Z"/>
    <path class="cls-46" d="M55.3921,432.071q-1.1745-1.04849-2.346-2.094h-1.674v-3.345h1.674c.781-.696,1.563-1.396,2.346-2.092l.971-.865v9.26Z"/>
    <path class="cls-47" d="M55.3921,432.071q-1.1745-1.04849-2.346-2.094h-1.674v-3.345h1.674c.781-.696,1.563-1.396,2.346-2.092l.971-.865v9.26Z"/>
    <path class="cls-48" d="M59.2548,423.359a7.75679,7.75679,0,0,1,.066,9.837m3.416-12.834a13.74774,13.74774,0,0,1,.046,15.858m3.568-18.882a19.98664,19.98664,0,0,1,.036,21.935"/>
    <text class="cls-49" transform="translate(64.85693 464.9212)"> </text>
    <text class="cls-50" transform="translate(69.38037 464.9212)"><tspan class="cls-51">d</tspan><tspan x="7.74609" y="0">B</tspan></text>
    <text id="db" class="cls-49" transform="translate(44.62012 464.91046)">X</text>
  </g>
  <text id="supplierLine2" class="cls-52" transform="translate(26.75982 106.55745)">X</text>
  <text id="supplierLine1" class="cls-52" transform="translate(26.75982 95.4764)">X</text>
  <text id="modelLine2" class="cls-52" transform="translate(153.22894 106.55745)">X</text>
  <text id="modelLine1" class="cls-52" transform="translate(153.22894 95.4764)">X</text>
</svg>
