<svg id="Layer_1" data-name="Layer 1" xmlns="http://www.w3.org/2000/svg" xmlns:xlink="http://www.w3.org/1999/xlink" width="105mm" height="200mm" viewBox="0 0 297.64001 566.92999" data-rating-increment="21.8333" data-supplier-model-chars-per-row="25">
  <defs>
    <style>
      #additionalElectricityGeneration {
        display: none;
      }

      #additionalElectricityGeneration.hasAdditionalElectricityGeneration {
        display: inline;
      }

      .cls-1, .cls-16, .cls-17, .cls-19, .cls-20 {
        fill: none;
      }

      .cls-2 {
        clip-path: url(#clip-path);
      }

      .cls-3 {
        fill: #00aeef;
      }

      .cls-4 {
        fill: #8ed8f7;
      }

      .cls-5 {
        fill: #05090a;
      }

      .cls-6 {
        fill: #24b9ec;
      }

      .cls-7 {
        fill: #676465;
      }

      .cls-8 {
        fill: #034ea2;
      }

      .cls-9 {
        fill: #fff200;
      }

      .cls-10, .cls-14, .cls-26, .cls-34, .cls-35, .cls-38, .cls-39 {
        fill: #fff;
      }

      .cls-11 {
        font-size: 12px;
      }

      .cls-11, .cls-21, .cls-22, .cls-24, .cls-37, .cls-40, .cls-41, .cls-43, .cls-44 {
        fill: #231f20;
      }

      .cls-11, .cls-22, .cls-39, .cls-41, .cls-44 {
        font-family: Calibri;
      }

      .cls-12 {
        letter-spacing: 0.059em;
      }

      .cls-13 {
        clip-path: url(#clip-path-2);
      }

      .cls-14 {
        font-size: 14px;
      }

      .cls-14, .cls-21, .cls-24, .cls-34, .cls-35, .cls-38, .cls-40, .cls-43 {
        font-family: Calibri-Bold, Calibri;
        font-weight: 700;
      }

      .cls-15 {
        clip-path: url(#clip-path-5);
      }

      .cls-16, .cls-20 {
        stroke: #00aeef;
        stroke-linecap: round;
        stroke-linejoin: round;
      }

      .cls-16 {
        stroke-width: 0.958px;
      }

      .cls-17 {
        stroke: #fff;
        stroke-width: 0.836px;
      }

      .cls-18 {
        fill: #2aace3;
      }

      .cls-19 {
        stroke: #2aace3;
        stroke-width: 0.673px;
      }

      .cls-20 {
        stroke-width: 1.703px;
      }

      .cls-21 {
        font-size: 20px;
      }

      .cls-22, .cls-39 {
        font-size: 15px;
      }

      .cls-23 {
        letter-spacing: -0.00898em;
      }

      .cls-24 {
        font-size: 10px;
      }

      .cls-25 {
        fill: #00b9f2;
      }

      .cls-26 {
        fill-rule: evenodd;
      }

      .cls-27 {
        clip-path: url(#clip-path-7);
      }

      .cls-28 {
        fill: #bfd730;
      }

      .cls-29 {
        fill: #50b848;
      }

      .cls-30 {
        fill: #00a651;
      }

      .cls-31 {
        fill: #fdb913;
      }

      .cls-32 {
        fill: #f37021;
      }

      .cls-33 {
        fill: #ed1c24;
      }

      .cls-34 {
        font-size: 17.7176px;
      }

      .cls-35 {
        font-size: 12.1225px;
      }

      .cls-36 {
        letter-spacing: 0.011em;
      }

      .cls-38 {
        font-size: 24px;
      }

      .cls-40, .cls-41 {
        font-size: 30px;
      }

      .cls-42 {
        letter-spacing: -0.01299em;
      }

      .cls-43 {
        font-size: 45px;
      }

      .cls-44 {
        font-size: 11px;
      }
    </style>
    <clipPath id="clip-path">
      <rect class="cls-1" y="0.00098" width="297.638" height="566.92902"/>
    </clipPath>
    <clipPath id="clip-path-2">
      <rect class="cls-1" x="26.513" y="175.11798" width="135.912" height="165.51302"/>
    </clipPath>
    <clipPath id="clip-path-5">
      <rect class="cls-1" x="42.576" y="357.689" width="37.035" height="41.03"/>
    </clipPath>
    <clipPath id="clip-path-7">
      <rect class="cls-1" x="26.513" y="169.11899" width="152.17101" height="155.754"/>
    </clipPath>
  </defs>
  <title>cogeneration-space-heaters-2019</title>
  <g class="cls-2">
    <path class="cls-3" d="M24.0691,16.166v-2a11.7328,11.7328,0,0,0-4.847,1.199,8.94493,8.94493,0,0,0-3.486,3.026,10.03567,10.03567,0,0,0-1.571,5.679V542.861a11.72523,11.72523,0,0,0,1.199,4.846,8.94088,8.94088,0,0,0,3.026,3.487,10.03328,10.03328,0,0,0,5.679,1.571h249.5a11.72477,11.72477,0,0,0,4.846-1.199,8.94834,8.94834,0,0,0,3.487-3.026,10.03579,10.03579,0,0,0,1.571-5.679V24.07007a11.72489,11.72489,0,0,0-1.199-4.846,8.9403,8.9403,0,0,0-3.026-3.487,10.03558,10.03558,0,0,0-5.679-1.571h-249.5v4h249.5a6.04592,6.04592,0,0,1,3.46.899,4.73306,4.73306,0,0,1,1.355,1.397,7.1815,7.1815,0,0,1,.95,2.468,8.2401,8.2401,0,0,1,.124.878c.008.103.012.18.013.226l.002.044v.003l1.189-.011h-1.189v.011l1.189-.011h-1.189V542.861a6.044,6.044,0,0,1-.899,3.46,4.71289,4.71289,0,0,1-1.398,1.355,7.1712,7.1712,0,0,1-2.467.95,7.98148,7.98148,0,0,1-.878.124c-.103.008-.181.012-.226.014l-.044.001h-.003l.011,1.191v-1.191h-.011l.011,1.191v-1.191h-249.5a6.04356,6.04356,0,0,1-3.46-.899,4.70964,4.70964,0,0,1-1.355-1.397,7.20526,7.20526,0,0,1-.951-2.46795,8.14846,8.14846,0,0,1-.123-.87805c-.008-.103-.012-.18-.014-.226l-.001-.044v-.003l-1.193.011h1.193v-.011l-1.193.011h1.193V24.07007a6.046,6.046,0,0,1,.899-3.46,4.70921,4.70921,0,0,1,1.397-1.355,7.18171,7.18171,0,0,1,2.468-.95,7.95158,7.95158,0,0,1,.878-.124c.103-.008.18-.012.226-.014l.044-.001h.003l-.011-1.18995V18.166h.011l-.011-1.18995V16.166Z"/>
    <rect x="28.781" y="122.89398" width="4.016" height="1.134"/>
    <path d="M64.3831,144.471h1.372v.567l-.038-.566.091-.003a2.19564,2.19564,0,0,1,1.056.268,1.64577,1.64577,0,0,1,.614.602,1.99394,1.99394,0,0,1,.253,1.021v2.001h-1.133V146.36a.86716.86716,0,0,0-.098-.448.581.581,0,0,0-.332-.25,1.18065,1.18065,0,0,0-.36-.059h-.019l-.004-.115.007.115h-.003l-.004-.115.007.115-.019.001h-1.39Z"/>
    <polygon points="29.696 122.131 29.518 122.29 28.212 122.29 28.034 122.131 27.786 119.904 27.929 119.745 29.801 119.745 29.943 119.904 29.696 122.131"/>
    <polyline points="28.329 148.532 28.329 121.345 29.462 121.345 29.462 148.532"/>
    <path class="cls-4" d="M64.6463,145.59a2.14312,2.14312,0,0,1-1.889,1.889,2.17772,2.17772,0,0,1-1.889-1.889V121.646a1.889,1.889,0,0,1,3.778,0V145.59"/>
    <polygon class="cls-5" points="36.12 145.982 33.79 146.36 33.79 143.715 36.12 144.093 36.12 145.982"/>
    <polygon class="cls-4" points="36.12 145.982 38.45 146.36 38.45 143.715 36.12 144.093 36.12 145.982"/>
    <polygon class="cls-4" points="42.024 145.982 39.694 146.36 39.694 143.715 42.024 144.093 42.024 145.982"/>
    <polygon class="cls-4" points="42.024 145.982 44.354 146.36 44.354 143.715 42.024 144.093 42.024 145.982"/>
    <polygon class="cls-4" points="47.943 145.982 45.613 146.36 45.613 143.715 47.943 144.093 47.943 145.982"/>
    <polygon class="cls-4" points="47.943 145.982 50.273 146.36 50.273 143.715 47.943 144.093 47.943 145.982"/>
    <polygon class="cls-4" points="53.846 145.982 51.516 146.36 51.516 143.715 53.846 144.093 53.846 145.982"/>
    <polygon class="cls-4" points="53.846 145.982 56.176 146.36 56.176 143.715 53.846 144.093 53.846 145.982"/>
    <polygon class="cls-4" points="59.939 145.982 57.609 146.36 57.609 143.715 59.939 144.093 59.939 145.982"/>
    <polygon class="cls-4" points="59.939 145.982 62.269 146.36 62.269 143.715 59.939 144.093 59.939 145.982"/>
    <polygon class="cls-5" points="36.12 123.235 33.79 123.613 33.79 120.968 36.12 121.346 36.12 123.235"/>
    <polygon class="cls-4" points="36.12 123.235 38.45 123.613 38.45 120.968 36.12 121.346 36.12 123.235"/>
    <polygon class="cls-4" points="42.024 123.235 39.694 123.613 39.694 120.968 42.024 121.346 42.024 123.235"/>
    <polygon class="cls-4" points="42.024 123.235 44.354 123.613 44.354 120.968 42.024 121.346 42.024 123.235"/>
    <polygon class="cls-4" points="47.943 123.235 45.613 123.613 45.613 120.968 47.943 121.346 47.943 123.235"/>
    <polygon class="cls-4" points="47.943 123.235 50.273 123.613 50.273 120.968 47.943 121.346 47.943 123.235"/>
    <polygon class="cls-4" points="53.846 123.235 51.516 123.613 51.516 120.968 53.846 121.346 53.846 123.235"/>
    <polygon class="cls-4" points="53.846 123.235 56.176 123.613 56.176 120.968 53.846 121.346 53.846 123.235"/>
    <polygon class="cls-6" points="53.846 122.894 55.011 123.136 55.011 121.445 53.846 121.686 53.846 122.894"/>
    <polygon class="cls-4" points="59.939 123.235 57.609 123.613 57.609 120.968 59.939 121.346 59.939 123.235"/>
    <polygon class="cls-4" points="59.939 123.235 62.269 123.613 62.269 120.968 59.939 121.346 59.939 123.235"/>
    <polygon class="cls-5" points="53.846 123.235 51.516 123.613 51.516 120.968 53.846 121.346 53.846 123.235"/>
    <polygon class="cls-5" points="53.846 123.235 56.176 123.613 56.176 120.968 53.846 121.346 53.846 123.235"/>
    <path class="cls-7" d="M54.9486,123.123l-1.102-.229v-1.208l1.116-.231a1.3531,1.3531,0,0,0-.014.191v1.477"/>
    <polygon class="cls-5" points="59.601 123.235 57.271 123.613 57.271 120.968 59.601 121.346 59.601 123.235"/>
    <polygon class="cls-5" points="59.601 123.235 61.931 123.613 61.931 120.968 59.601 121.346 59.601 123.235"/>
    <polygon class="cls-7" points="60.766 123.136 60.765 123.136 59.601 122.894 59.601 121.686 60.765 121.445 60.766 121.445 60.766 123.136"/>
    <polygon class="cls-5" points="47.943 123.235 45.613 123.613 45.613 120.968 47.943 121.346 47.943 123.235"/>
    <polygon class="cls-5" points="47.943 123.235 50.273 123.613 50.273 120.968 47.943 121.346 47.943 123.235"/>
    <path class="cls-7" d="M49.0291,123.12l-1.086-.226v-1.208l1.099-.228a1.31014,1.31014,0,0,0-.013.188v1.474"/>
    <polygon class="cls-5" points="42.024 123.235 39.694 123.613 39.694 120.968 42.024 121.346 42.024 123.235"/>
    <polygon class="cls-5" points="42.024 123.235 44.354 123.613 44.354 120.968 42.024 121.346 42.024 123.235"/>
    <path class="cls-7" d="M43.1101,123.12l-1.086-.226v-1.208l1.099-.228a1.47213,1.47213,0,0,0-.013.188v1.474"/>
    <polygon class="cls-5" points="36.12 123.235 33.79 123.613 33.79 120.968 36.12 121.346 36.12 123.235"/>
    <polygon class="cls-5" points="36.12 123.235 38.45 123.613 38.45 120.968 36.12 121.346 36.12 123.235"/>
    <path class="cls-7" d="M37.1907,123.117l-1.071-.223v-1.208l1.084-.224a1.24574,1.24574,0,0,0-.013.184v1.471"/>
    <polygon class="cls-5" points="53.846 145.981 51.516 146.358 51.516 143.714 53.846 144.091 53.846 145.981"/>
    <polygon class="cls-5" points="53.846 145.981 56.176 146.358 56.176 143.714 53.846 144.091 53.846 145.981"/>
    <path class="cls-7" d="M54.9786,145.875l-1.132-.235v-1.208l1.102-.229v1.387a1.3515,1.3515,0,0,0,.03.285"/>
    <polygon class="cls-5" points="59.601 145.981 57.271 146.358 57.271 143.714 59.601 144.091 59.601 145.981"/>
    <polygon class="cls-5" points="59.601 145.981 61.931 146.358 61.931 143.714 59.601 144.091 59.601 145.981"/>
    <polygon class="cls-7" points="60.766 145.882 60.765 145.882 59.601 145.64 59.601 144.432 60.765 144.191 60.766 144.191 60.766 145.882"/>
    <polygon class="cls-5" points="47.943 145.981 45.613 146.358 45.613 143.714 47.943 144.091 47.943 145.981"/>
    <polygon class="cls-5" points="47.943 145.981 50.273 146.358 50.273 143.714 47.943 144.091 47.943 145.981"/>
    <path class="cls-7" d="M49.0584,145.872l-1.116-.232v-1.208l1.087-.225v1.383a1.39055,1.39055,0,0,0,.029.282"/>
    <polygon class="cls-5" points="42.024 145.981 39.694 146.358 39.694 143.714 42.024 144.091 42.024 145.981"/>
    <polygon class="cls-5" points="42.024 145.981 44.354 146.358 44.354 143.714 42.024 144.091 42.024 145.981"/>
    <path class="cls-7" d="M43.1393,145.872l-1.116-.232v-1.208l1.087-.225v1.383a1.39055,1.39055,0,0,0,.029.282"/>
    <polygon class="cls-5" points="36.12 145.981 33.79 146.358 33.79 143.714 36.12 144.091 36.12 145.981"/>
    <polygon class="cls-5" points="36.12 145.981 38.45 146.358 38.45 143.714 36.12 144.091 36.12 145.981"/>
    <path class="cls-7" d="M37.2193,145.868l-1.099-.228v-1.208l1.07-.222v1.38a1.35161,1.35161,0,0,0,.029.278"/>
    <path class="cls-5" d="M64.6463,145.59a2.14312,2.14312,0,0,1-1.889,1.889,2.17772,2.17772,0,0,1-1.889-1.889V121.646a1.889,1.889,0,0,1,3.778,0V145.59"/>
    <path class="cls-5" d="M58.7268,145.59a2.14312,2.14312,0,0,1-1.889,1.889,2.17772,2.17772,0,0,1-1.889-1.889V121.646a1.889,1.889,0,0,1,3.778,0V145.59"/>
    <path class="cls-5" d="M52.8074,145.59a2.14312,2.14312,0,0,1-1.889,1.889,2.17772,2.17772,0,0,1-1.889-1.889V121.646a2.18155,2.18155,0,0,1,1.889-1.889,2.18155,2.18155,0,0,1,1.889,1.889V145.59"/>
    <path class="cls-5" d="M46.8882,145.59a2.14312,2.14312,0,0,1-1.889,1.889,2.17772,2.17772,0,0,1-1.889-1.889V121.646a2.18155,2.18155,0,0,1,1.889-1.889,2.18155,2.18155,0,0,1,1.889,1.889V145.59"/>
    <path class="cls-5" d="M40.9689,145.59a2.14312,2.14312,0,0,1-1.889,1.889,2.17772,2.17772,0,0,1-1.889-1.889V121.646a2.18155,2.18155,0,0,1,1.889-1.889,2.18155,2.18155,0,0,1,1.889,1.889V145.59"/>
    <path class="cls-5" d="M35.0496,145.59a2.14312,2.14312,0,0,1-1.889,1.889,2.17772,2.17772,0,0,1-1.889-1.889V121.646a2.18155,2.18155,0,0,1,1.889-1.889,2.18251,2.18251,0,0,1,1.889,1.889V145.59"/>
    <path class="cls-7" d="M62.7569,147.243a2.02144,2.02144,0,0,1-1.653-1.85V121.946a2.03188,2.03188,0,0,1,1.639-1.849h.014v27.146"/>
    <path class="cls-7" d="M56.8649,147.243a2.02437,2.02437,0,0,1-1.653-1.829V121.926a2.03544,2.03544,0,0,1,1.639-1.829h.014v27.146"/>
    <path class="cls-7" d="M50.9733,147.243a2.0223,2.0223,0,0,1-1.654-1.85V121.946a2.03275,2.03275,0,0,1,1.64-1.849h.014v27.146"/>
    <path class="cls-7" d="M45.0811,147.243a2.02144,2.02144,0,0,1-1.653-1.85V121.946a2.03188,2.03188,0,0,1,1.639-1.849h.014v27.146"/>
    <path class="cls-7" d="M39.1892,147.243a2.02144,2.02144,0,0,1-1.653-1.85V121.946a2.03188,2.03188,0,0,1,1.639-1.849h.014v27.146"/>
    <path class="cls-7" d="M33.2973,147.243a2.02436,2.02436,0,0,1-1.653-1.829V121.926a2.03543,2.03543,0,0,1,1.639-1.829h.014v27.146"/>
    <rect class="cls-8" x="26.965" y="26.492" width="71.139" height="48.06"/>
    <rect class="cls-3" x="100.45599" y="26.492" width="170.28799" height="48.06"/>
    <polygon class="cls-9" points="77.239 42.515 78.768 41.391 76.878 41.391 76.294 39.573 75.71 41.391 73.82 41.391 75.349 42.515 74.765 44.334 76.294 43.21 77.823 44.334 77.239 42.515"/>
    <polygon class="cls-9" points="71.287 36.748 72.816 35.624 70.926 35.624 70.342 33.805 69.758 35.624 67.868 35.624 69.397 36.748 68.813 38.567 70.342 37.443 71.871 38.566 71.287 36.748"/>
    <polygon class="cls-9" points="63.609 34.685 65.138 33.561 63.248 33.561 62.664 31.743 62.08 33.561 60.19 33.561 61.719 34.685 61.135 36.504 62.664 35.38 64.193 36.504 63.609 34.685"/>
    <polygon class="cls-9" points="55.523 36.748 57.052 35.624 55.162 35.624 54.578 33.805 53.994 35.624 52.104 35.624 53.633 36.748 53.049 38.567 54.578 37.442 56.107 38.566 55.523 36.748"/>
    <polygon class="cls-9" points="49.748 42.797 51.277 41.673 49.387 41.673 48.803 39.855 48.219 41.673 46.329 41.673 47.858 42.797 47.274 44.616 48.803 43.492 50.332 44.616 49.748 42.797"/>
    <polygon class="cls-9" points="47.903 50.745 49.432 49.621 47.542 49.621 46.958 47.803 46.374 49.621 44.484 49.621 46.013 50.745 45.429 52.564 46.958 51.439 48.487 52.563 47.903 50.745"/>
    <polygon class="cls-9" points="49.805 58.798 51.334 57.674 49.444 57.674 48.86 55.856 48.276 57.674 46.386 57.674 47.915 58.798 47.331 60.617 48.86 59.493 50.389 60.617 49.805 58.798"/>
    <polygon class="cls-9" points="55.523 64.521 57.052 63.397 55.162 63.397 54.578 61.578 53.994 63.397 52.104 63.397 53.633 64.521 53.049 66.34 54.578 65.215 56.107 66.339 55.523 64.521"/>
    <polygon class="cls-9" points="63.609 66.652 65.137 65.528 63.248 65.528 62.664 63.71 62.08 65.528 60.19 65.528 61.719 66.652 61.135 68.47 62.664 67.347 64.193 68.47 63.609 66.652"/>
    <polygon class="cls-9" points="71.476 64.491 73.005 63.367 71.115 63.367 70.531 61.549 69.947 63.367 68.057 63.367 69.586 64.491 69.002 66.31 70.531 65.186 72.06 66.31 71.476 64.491"/>
    <polygon class="cls-9" points="77.198 58.746 78.727 57.622 76.837 57.622 76.253 55.804 75.669 57.622 73.779 57.622 75.308 58.746 74.724 60.565 76.253 59.441 77.782 60.565 77.198 58.746"/>
    <polygon class="cls-9" points="79.305 50.634 80.834 49.51 78.944 49.51 78.36 47.692 77.776 49.51 75.886 49.51 77.415 50.634 76.831 52.453 78.36 51.328 79.889 52.452 79.305 50.634"/>
    <polygon class="cls-10" points="121.082 46.107 113.453 46.107 113.453 52.125 121.983 52.125 121.983 55.194 109.758 55.194 109.758 34.711 121.533 34.711 121.533 37.781 113.453 37.781 113.453 43.069 121.082 43.069 121.082 46.107"/>
    <path class="cls-10" d="M126.7293,55.19418V34.71124h4.205l5.227,8.783a56.59573,56.59573,0,0,1,3.454,6.868h.06c-.24-2.735-.331-5.379-.331-8.509v-7.142h3.425V55.19418h-3.815l-5.287-9.026a67.97592,67.97592,0,0,1-3.634-7.051l-.09.031c.15,2.64405.18,5.349.18,8.72205v7.32394Z"/>
    <polygon class="cls-10" points="159.86 46.107 152.23 46.107 152.23 52.125 160.761 52.125 160.761 55.194 148.536 55.194 148.536 34.711 160.311 34.711 160.311 37.781 152.23 37.781 152.23 43.069 159.86 43.069 159.86 46.107"/>
    <path class="cls-10" d="M169.17149,44.04065h2.193c2.492,0,4.054-1.337,4.054-3.373,0-2.249-1.562-3.282-3.965-3.282a10.51347,10.51347,0,0,0-2.282.182Zm-3.665-9.056a34.69454,34.69454,0,0,1,5.587-.425c2.914,0,4.896.486,6.248,1.641a5.21127,5.21127,0,0,1,1.742,4.102,5.45757,5.45757,0,0,1-3.665,5.136v.091c1.442.547,2.313,1.976,2.824,3.951a41.26683,41.26683,0,0,0,1.592,5.714h-3.815a29.21907,29.21907,0,0,1-1.351-4.832c-.571-2.675-1.533-3.526-3.635-3.587h-1.862v8.419h-3.665Z"/>
    <path class="cls-10" d="M200.3192,54.252a19.85434,19.85434,0,0,1-6.518,1.155c-3.425,0-6.008-.881-7.93-2.735a10.20827,10.20827,0,0,1-2.823-7.537c0-6.473,4.565-10.637,11.264-10.637a13.29111,13.29111,0,0,1,5.376.973l-.811,3.009a10.78059,10.78059,0,0,0-4.596-.882c-4.325,0-7.359,2.583-7.359,7.355,0,4.649,2.824,7.415,7.029,7.415a7.01063,7.01063,0,0,0,2.794-.426V46.837h-3.575V43.889h7.149Z"/>
    <path class="cls-10" d="M111.8683,62.615a1.15947,1.15947,0,0,0-1.168-1.294,1.34427,1.34427,0,0,0-1.306,1.294Zm-2.474.935c.035.957.832,1.37,1.734,1.37a4.4707,4.4707,0,0,0,1.56-.239l.209.924a5.576,5.576,0,0,1-1.966.338,2.59755,2.59755,0,0,1-2.901-2.687,2.689,2.689,0,0,1,2.751-2.849,2.34743,2.34743,0,0,1,2.428,2.577,3.0108,3.0108,0,0,1-.047.566Z"/>
    <polygon class="cls-10" points="115.82 60.526 115.82 62.549 117.993 62.549 117.993 60.526 119.415 60.526 119.415 65.823 117.993 65.823 117.993 63.593 115.82 63.593 115.82 65.823 114.398 65.823 114.398 60.526 115.82 60.526"/>
    <path class="cls-10" d="M124.4647,62.615a1.15809,1.15809,0,0,0-1.167-1.294,1.34351,1.34351,0,0,0-1.306,1.294Zm-2.473.935c.035.957.832,1.37,1.734,1.37a4.47072,4.47072,0,0,0,1.56-.239l.208.924a5.56566,5.56566,0,0,1-1.965.338,2.59756,2.59756,0,0,1-2.901-2.687,2.689,2.689,0,0,1,2.751-2.849,2.34743,2.34743,0,0,1,2.428,2.577,3.10026,3.10026,0,0,1-.047.566Z"/>
    <path class="cls-10" d="M128.4292,63.6044a1.29083,1.29083,0,0,0,.046.37,1.271,1.271,0,0,0,1.248.935c.902,0,1.434-.707,1.434-1.751,0-.935-.486-1.697-1.399-1.697a1.30673,1.30673,0,0,0-1.271.99,1.14126,1.14126,0,0,0-.058.337Zm-1.422-1.316c0-.696-.023-1.261-.046-1.762h1.248l.07.816h.023a2.23476,2.23476,0,0,1,1.93-.936,2.4605,2.4605,0,0,1,2.37,2.698,2.58433,2.58433,0,0,1-2.566,2.838,1.89312,1.89312,0,0,1-1.584-.707h-.023v2.741h-1.422Z"/>
    <polygon class="cls-10" points="137.537 60.526 137.537 61.581 135.236 61.581 135.236 65.823 133.815 65.823 133.815 60.526 137.537 60.526"/>
    <path class="cls-10" d="M139.80141,60.5264v1.904c0,.837-.034,1.402-.081,2.142h.035c.3-.62.474-1.011.763-1.566l1.387-2.48h1.722v5.297h-1.352v-1.893c0-.848.034-1.24.092-2.24h-.046c-.277.631-.462,1.011-.74,1.522-.439.783-.948,1.74-1.433,2.611h-1.699v-5.297Z"/>
    <path class="cls-10" d="M148.412,61.35294a4.04735,4.04735,0,0,0-.706-.054c-.624,0-1.26.206-1.26.794,0,.554.706.794,1.26.794.336,0,.521,0,.706-.011Zm1.41,4.47h-1.41v-2.099h-.532a1.14206,1.14206,0,0,0-.867.348,3.41446,3.41446,0,0,0-.694,1.316,3.85046,3.85046,0,0,1-.219.435h-1.526a2.6997,2.6997,0,0,0,.347-.587,4.44507,4.44507,0,0,1,.843-1.523,1.36326,1.36326,0,0,1,.671-.359v-.032c-.671-.065-1.468-.479-1.468-1.305a1.33345,1.33345,0,0,1,.867-1.229,4.85848,4.85848,0,0,1,1.988-.337,16.13688,16.13688,0,0,1,2,.119Z"/>
    <path class="cls-10" d="M154.4324,63.84369a.8297.8297,0,0,1-.867-.859.83929.83929,0,0,1,.878-.859.85922.85922,0,1,1,0,1.718Z"/>
    <path class="cls-10" d="M160.03729,62.9736c-.67-.174-1.04-.587-1.04-1.109,0-.718.763-1.458,2.37-1.458a3.52258,3.52258,0,0,1,1.803.403l-.266.859a3.17965,3.17965,0,0,0-1.364-.316c-.682,0-1.11.262-1.11.631,0,.424.567.598,1.41.609h.613v.892h-.624c-.902.011-1.584.185-1.584.696,0,.501.613.761,1.306.761a4.01231,4.01231,0,0,0,1.584-.369l.208.891a4.54505,4.54505,0,0,1-2.138.479c-1.191,0-2.474-.424-2.474-1.62a1.436,1.436,0,0,1,1.306-1.305Z"/>
    <path class="cls-10" d="M165.21471,60.5264l.902,2.686c.162.468.266.892.404,1.349h.047a9.12336,9.12336,0,0,0,1.179-3.578v-.457h1.329a2.19742,2.19742,0,0,1,.035.402c0,1.502-1.018,3.274-2.046,4.895h-1.376l-2-5.297Z"/>
    <path class="cls-10" d="M171.051,62.9736c-.67-.174-1.04-.587-1.04-1.109,0-.718.763-1.458,2.37-1.458a3.52255,3.52255,0,0,1,1.803.403l-.266.859a3.17964,3.17964,0,0,0-1.364-.316c-.682,0-1.11.262-1.11.631,0,.424.567.598,1.41.609h.613v.892h-.624c-.902.011-1.584.185-1.584.696,0,.501.613.761,1.306.761a4.0124,4.0124,0,0,0,1.584-.369l.208.891a4.54505,4.54505,0,0,1-2.138.479c-1.191,0-2.474-.424-2.474-1.62a1.436,1.436,0,0,1,1.306-1.305Z"/>
    <path class="cls-10" d="M176.7372,63.72372a1.70391,1.70391,0,0,0,.034.348,1.31443,1.31443,0,0,0,1.249.838c.902,0,1.422-.751,1.422-1.751,0-.936-.497-1.653-1.341-1.653-.717,0-1.364.587-1.364,1.805Zm0,1.588v.75a13.57293,13.57293,0,0,0,.081,1.914h-1.376a9.294,9.294,0,0,1-.127-1.892v-2.425a2.99694,2.99694,0,0,1,.959-2.556,2.79478,2.79478,0,0,1,1.919-.696,2.55592,2.55592,0,0,1,2.694,2.719,2.60885,2.60885,0,0,1-2.601,2.817,1.87,1.87,0,0,1-1.526-.631Z"/>
    <path class="cls-10" d="M183.2899,67.9761a11.38843,11.38843,0,0,0-.196-3.056,14.38329,14.38329,0,0,0-1.965-4.394h1.595a12.41438,12.41438,0,0,1,1.503,3.851h.046a8.29846,8.29846,0,0,0,1.063-3.426c0-.207-.011-.316-.011-.425h1.352a2.068,2.068,0,0,1,.023.392,9.05944,9.05944,0,0,1-1.988,4.665.42643.42643,0,0,0-.069.262c.023.532.023,1.402.034,2.131Z"/>
    <path class="cls-10" d="M188.61749,62.9736c-.67-.174-1.04-.587-1.04-1.109,0-.718.763-1.458,2.37-1.458a3.52258,3.52258,0,0,1,1.803.403l-.266.859a3.1834,3.1834,0,0,0-1.364-.316c-.682,0-1.11.262-1.11.631,0,.424.567.598,1.41.609h.613v.892h-.624c-.902.011-1.584.185-1.584.696,0,.501.613.761,1.306.761a4.01231,4.01231,0,0,0,1.584-.369l.208.891a4.54921,4.54921,0,0,1-2.139.479c-1.19,0-2.473-.424-2.473-1.62a1.436,1.436,0,0,1,1.306-1.305Z"/>
    <path class="cls-10" d="M194.3504,64.3331c0,.435.138.609.532.587l-.081.935a1.842,1.842,0,0,1-.613.087c-.763,0-1.271-.304-1.271-1.479v-3.937h1.433Z"/>
    <path class="cls-10" d="M197.0666,63.23441c0,.892.485,1.642,1.26,1.642a1.418,1.418,0,0,0,1.248-1.141,3.45941,3.45941,0,0,0,.046-.62,2.21621,2.21621,0,0,0-.035-.501,1.296,1.296,0,0,0-1.19-1.174c-.798,0-1.329.794-1.329,1.783Zm4.08-2.708c-.069.718-.162,2.349-.162,3.611,0,.598.197.805.544.794l-.093.946a1.782,1.782,0,0,1-.497.065,1.04927,1.04927,0,0,1-1.098-1.033h-.035a2.09307,2.09307,0,0,1-1.861,1.033,2.40156,2.40156,0,0,1-2.323-2.664,2.69679,2.69679,0,0,1,2.543-2.872,1.74211,1.74211,0,0,1,1.618.925h.046c.035-.326.081-.577.127-.805Z"/>
    <path class="cls-10" d="M208.00771,39.05829a10.30769,10.30769,0,1,1,10.307,10.427,10.36842,10.36842,0,0,1-10.307-10.427"/>
    <path class="cls-3" d="M217.6125,42.967V39.372l-2.694-5.028h1.771l1.024,2.213c.291.64.506,1.126.733,1.715h.026c.215-.55.455-1.088.746-1.715l1.024-2.213h1.758l-2.832,4.99v3.633Z"/>
    <path class="cls-10" d="M231.721,39.05829a10.30769,10.30769,0,1,1,10.307,10.427,10.36842,10.36842,0,0,1-10.307-10.427"/>
    <path class="cls-10" d="M208.00771,62.18118a10.3077,10.3077,0,1,1,10.307,10.428,10.3684,10.3684,0,0,1-10.307-10.428"/>
    <rect class="cls-3" x="214.38699" y="57.46701" width="1.556" height="8.62299"/>
    <polygon class="cls-3" points="222.493 62.265 219.281 62.265 219.281 64.798 222.873 64.798 222.873 66.09 217.726 66.09 217.726 57.467 222.683 57.467 222.683 58.76 219.281 58.76 219.281 60.985 222.493 60.985 222.493 62.265"/>
    <path class="cls-10" d="M231.721,62.18118a10.3077,10.3077,0,1,1,10.307,10.428,10.3684,10.3684,0,0,1-10.307-10.428"/>
    <rect class="cls-3" x="234.85699" y="34.34399" width="1.556" height="8.62299"/>
    <path class="cls-3" d="M239.89,34.344h1.556v5.591c0,2.38-1.139,3.173-2.833,3.173a4.09238,4.09238,0,0,1-1.302-.205l.189-1.267a3.36326,3.36326,0,0,0,.962.154c.884,0,1.428-.409,1.428-1.906Z"/>
    <path class="cls-3" d="M247.30058,39.33344l-.67-2.124c-.164-.524-.304-1.113-.43-1.612h-.025c-.126.499-.253,1.101-.405,1.612l-.658,2.124Zm-2.44,1.18994-.734,2.444h-1.605l2.731-8.623h1.985l2.769,8.623h-1.669l-.771-2.444Z"/>
    <rect class="cls-3" x="237.336" y="57.46802" width="1.556" height="8.62299"/>
    <path class="cls-3" d="M244.8228,62.458l-.671-2.124c-.164-.525-.304-1.114-.43-1.612h-.025c-.126.498-.253,1.1-.405,1.612l-.657,2.124Zm-2.441,1.189-.734,2.444h-1.605l2.731-8.623h1.985l2.769,8.623h-1.669l-.771-2.444Z"/>
    <polyline class="cls-3" points="26.514 112.593 271.18 112.593 271.18 111.593 26.514 111.593"/>
  </g>
  <text class="cls-11" transform="translate(34.15381 109.38214)"><tspan class="cls-12" xml:space="preserve">                </tspan><tspan x="54.73438" y="0"> </tspan></text>
  <g class="cls-13">
    <rect class="cls-10" x="-454.01599" y="126.14301" width="1062.98999" height="255.118"/>
  </g>
  <text class="cls-14" transform="translate(33.9917 186.52765)"> </text>
  <text class="cls-14" transform="translate(33.9917 204.18146)"> </text>
  <text class="cls-14" transform="translate(33.9917 223.82355)"> </text>
  <text class="cls-14" transform="translate(33.9917 239.46173)"> </text>
  <text class="cls-14" transform="translate(33.9917 257.11554)"> </text>
  <text class="cls-14" transform="translate(33.9917 274.76984)"> </text>
  <text class="cls-14" transform="translate(33.9917 292.42413)"> </text>
  <text class="cls-14" transform="translate(33.9917 310.06378)"> </text>
  <text class="cls-14" transform="translate(33.9917 327.71808)"> </text>
  <g class="cls-2">
    <path class="cls-3" d="M114.641,347.806v-1a10.76834,10.76834,0,0,0-4.399,1.093,7.939,7.939,0,0,0-3.102,2.686,9.041,9.041,0,0,0-1.403,5.125v69.057a10.77923,10.77923,0,0,0,1.094,4.4,7.93791,7.93791,0,0,0,2.686,3.102,9.03749,9.03749,0,0,0,5.124,1.403h147.61a10.7978,10.7978,0,0,0,4.399-1.094,7.9391,7.9391,0,0,0,3.102-2.686,9.041,9.041,0,0,0,1.403-5.125V355.71a10.78219,10.78219,0,0,0-1.094-4.4,7.92833,7.92833,0,0,0-2.686-3.101,9.02967,9.02967,0,0,0-5.124-1.403H114.641v2h147.61a7.03073,7.03073,0,0,1,4.015,1.067,6.47989,6.47989,0,0,1,2.514,3.623,9.27573,9.27573,0,0,1,.329,1.599c.024.203.035.364.041.471l.004.118.001.025v69.058a7.03365,7.03365,0,0,1-1.067,4.015,6.48046,6.48046,0,0,1-3.624,2.515,9.34521,9.34521,0,0,1-1.598.329c-.203.023-.365.035-.471.04l-.118.005-.025.001H114.641a7.04615,7.04615,0,0,1-4.015-1.067,6.48185,6.48185,0,0,1-2.514-3.624,9.257,9.257,0,0,1-.329-1.599c-.024-.202-.035-.364-.041-.471l-.004-.118-.001-.025V355.71a7.03363,7.03363,0,0,1,1.067-4.015,6.48541,6.48541,0,0,1,3.624-2.515,9.4436,9.4436,0,0,1,1.598-.329c.203-.023.365-.035.471-.04l.118-.005h.026Z"/>
  </g>
  <g class="cls-2">
    <path class="cls-3" d="M35.2143,347.806v-1a10.76837,10.76837,0,0,0-4.399,1.093,7.93219,7.93219,0,0,0-3.102,2.686,9.041,9.041,0,0,0-1.403,5.125v69.057a10.77885,10.77885,0,0,0,1.094,4.4,7.93788,7.93788,0,0,0,2.686,3.102,9.03752,9.03752,0,0,0,5.124,1.403h53.465a10.79768,10.79768,0,0,0,4.399-1.094,7.946,7.946,0,0,0,3.102-2.686,9.041,9.041,0,0,0,1.403-5.125V355.71a10.80128,10.80128,0,0,0-1.094-4.4,7.93675,7.93675,0,0,0-2.686-3.101,9.03215,9.03215,0,0,0-5.124-1.403H35.2143v2h53.465a7.02472,7.02472,0,0,1,4.014,1.067,6.48168,6.48168,0,0,1,2.515,3.623,9.278,9.278,0,0,1,.329,1.599c.024.203.035.364.041.471l.004.118.001.025v69.058a7.04131,7.04131,0,0,1-1.067,4.015,6.48374,6.48374,0,0,1-3.624,2.515,9.35386,9.35386,0,0,1-1.599.329c-.202.023-.364.035-.471.04l-.118.005-.025.001H35.2143a7.04375,7.04375,0,0,1-4.015-1.067,6.4818,6.4818,0,0,1-2.514-3.624,9.37026,9.37026,0,0,1-.33-1.599c-.023-.202-.034-.364-.04-.471l-.005-.118V355.71a7.03355,7.03355,0,0,1,1.067-4.015,6.48538,6.48538,0,0,1,3.624-2.515,9.4436,9.4436,0,0,1,1.598-.329c.203-.023.364-.035.471-.04l.118-.005h.026Z"/>
  </g>
  <g class="cls-15">
    <polygon class="cls-16" points="43.862 393.896 43.862 398.614 79.133 398.614 79.133 374.237 61.496 358.168 43.862 374.237 43.862 393.896"/>
  </g>
  <g class="cls-2">
    <path class="cls-17" d="M52.6974,387.77q-1.458-1.299-2.913-2.599h-2.078V381.02h2.078q1.455-1.29749,2.913-2.598l1.205-1.073v11.497Z"/>
    <path class="cls-18" d="M52.3294,386.862q-1.1745-1.04849-2.347-2.093h-1.673v-3.345h1.673q1.173-1.044,2.347-2.093l.971-.865v9.261Z"/>
    <path class="cls-19" d="M52.3294,386.862q-1.1745-1.04849-2.347-2.093h-1.673v-3.345h1.673q1.173-1.044,2.347-2.093l.971-.865v9.261Z"/>
    <path class="cls-20" d="M56.1921,378.151a7.75368,7.75368,0,0,1,.065,9.836m3.417-12.834a13.7477,13.7477,0,0,1,.046,15.858m3.568-18.882a19.99176,19.99176,0,0,1,.036,21.935"/>
  </g>
  <text class="cls-21" transform="translate(61.79639 419.70245)"> </text>
  <text class="cls-22" transform="translate(66.31787 419.71027)"><tspan class="cls-23">d</tspan><tspan x="7.74609" y="0">B</tspan></text>
  <text class="cls-24" transform="translate(26.88818 541.5462)">2019</text>
  <text class="cls-24" transform="translate(231.51855 541.5462)">811/2013</text>
  <g id="additionalElectricityGeneration">
    <path class="cls-3" d="M34.5866,443.947v-1a10.79812,10.79812,0,0,0-4.399,1.094,7.93219,7.93219,0,0,0-3.102,2.686,9.03982,9.03982,0,0,0-1.403,5.124v69.058a10.76508,10.76508,0,0,0,1.093,4.399,7.93529,7.93529,0,0,0,2.687,3.102,9.0297,9.0297,0,0,0,5.124,1.403h53.464a10.76808,10.76808,0,0,0,4.4-1.093,7.94908,7.94908,0,0,0,3.102-2.687,9.03516,9.03516,0,0,0,1.403-5.124V451.851a10.7979,10.7979,0,0,0-1.094-4.399,7.94588,7.94588,0,0,0-2.686-3.102,9.041,9.041,0,0,0-5.125-1.403H34.5866v2h53.464a7.04144,7.04144,0,0,1,4.015,1.067,6.48377,6.48377,0,0,1,2.515,3.624,9.43262,9.43262,0,0,1,.329,1.599c.023.202.035.364.04.471l.005.118.001.025v69.058a7.04374,7.04374,0,0,1-1.067,4.015,6.492,6.492,0,0,1-3.624,2.515,9.452,9.452,0,0,1-1.599.329c-.202.023-.364.035-.471.04l-.118.005h-53.49a7.03593,7.03593,0,0,1-4.015-1.067,6.48655,6.48655,0,0,1-2.515-3.623,9.47152,9.47152,0,0,1-.329-1.599c-.023-.203-.034-.364-.04-.471l-.005-.118V451.851a7.03231,7.03231,0,0,1,1.067-4.014,6.48169,6.48169,0,0,1,3.623-2.515,9.27589,9.27589,0,0,1,1.599-.329c.203-.024.364-.035.471-.041l.118-.004.025-.001h.001Z"/>
    <path class="cls-25" d="M81.2903,486.392c0,10.594-8.984,19.183-20.069,19.183-11.086,0-20.07-8.589-20.07-19.183,0-10.593,8.984-19.182,20.07-19.182,11.085,0,20.069,8.589,20.069,19.182"/>
    <path class="cls-26" d="M58.4985,466.48h7.26c-2.355,5.428-4.759,10.805-6.843,16.508,3.17-1.621,6.256-3.325,9.458-4.914-1.775,6.669-3.61,13.277-5.313,20.018,1.015-.295,1.713-.91,2.781-1.151a4.93842,4.93842,0,0,1-.64,1.123c-1.578,2.282-3.154,4.677-4.7,7.019-.104.156-.2.375-.39.449-.695-3.473-1.49-6.843-2.169-10.332.86.61,1.304,1.64,2.169,2.246.646-4.336,1.324-8.64,2.003-12.943-3.3,1.612-6.641,3.424-9.986,5.082,2.064-7.762,4.224-15.427,6.37-23.105"/>
  </g>
  <rect class="cls-1" y="0.00098" width="297.638" height="566.92902"/>
  <rect class="cls-1" y="0.00098" width="297.638" height="566.92902"/>
  <g class="cls-27">
    <rect class="cls-10" x="-580.479" y="149.75702" width="991.242" height="237.89798"/>
    <polygon class="cls-9" points="14.267 238.734 14.267 257.096 118.729 257.096 127.823 247.915 118.729 238.734 14.267 238.734"/>
    <polygon class="cls-28" points="14.267 216.926 14.267 235.289 108.137 235.289 117.233 226.108 108.137 216.926 14.267 216.926"/>
    <polygon class="cls-29" points="14.267 195.12 14.267 213.482 97.548 213.482 106.644 204.301 97.548 195.12 14.267 195.12"/>
    <polygon class="cls-30" points="14.267 173.313 14.267 191.675 89.336 191.675 98.431 182.494 89.336 173.313 14.267 173.313"/>
    <polygon class="cls-31" points="14.267 260.534 14.267 278.896 129.565 278.896 138.669 269.715 129.565 260.534 14.267 260.534"/>
    <polygon class="cls-32" points="14.267 282.333 14.267 300.696 140.148 300.696 149.257 291.515 140.148 282.333 14.267 282.333"/>
    <polygon class="cls-33" points="14.267 304.134 14.267 322.495 150.732 322.495 159.841 313.313 150.732 304.134 14.267 304.134"/>
  </g>
  <text class="cls-34" transform="translate(36.95068 188.00031)">A</text>
  <text class="cls-35" transform="translate(48.50537 183.28156)"><tspan class="cls-36">++</tspan><tspan x="12.3418" y="0">+</tspan></text>
  <text class="cls-34" transform="translate(37.0835 209.92023)">A</text>
  <text class="cls-35" transform="translate(48.04443 205.20343)"><tspan class="cls-36">+</tspan><tspan x="6.1709" y="0">+</tspan></text>
  <text class="cls-34" transform="translate(37.0835 231.60968)">A</text>
  <text class="cls-34" transform="translate(36.74707 252.78204)">A</text>
  <text class="cls-34" transform="translate(36.92383 274.82306)">B</text>
  <text class="cls-34" transform="translate(36.92383 296.50909)">C</text>
  <text class="cls-34" transform="translate(36.5874 318.42609)">D</text>
  <text class="cls-35" transform="translate(48.04443 226.89093)">+</text>
  <rect class="cls-1" width="297.64001" height="566.92999"/>
  <g id="rating">
    <polyline id="ratingArrow" class="cls-37" points="208.26 181.67 224.9 164.86 270.94 164.86 270.94 198.77 225.21 198.77 208.26 181.67"/>
    <text id="ratingLetter" class="cls-38" transform="translate(221.01953 188.90997)">A</text>
    <text id="ratingPlusses" class="cls-39" transform="translate(236.98047 180.82013)">+++</text>
  </g>
  <text transform="translate(188.89014 404.01984)" text-anchor="middle">
    <tspan id="kw" class="cls-43">X</tspan>
    <tspan class="cls-41 cls-42">kW</tspan>
  </text>  
  <text id="db" class="cls-21" transform="translate(41.52979 419.69952)">X</text>
  <text id="supplierLine2" class="cls-44" transform="translate(26.75982 106.27174)">X</text>
  <text id="supplierLine1" class="cls-44" transform="translate(26.75982 95.19068)">X</text>
  <text id="modelLine2" class="cls-44" transform="translate(153.22895 106.27174)">X</text>
  <text id="modelLine1" class="cls-44" transform="translate(153.22895 95.19068)">X</text>
</svg>
