<svg xmlns="http://www.w3.org/2000/svg" xmlns:xlink="http://www.w3.org/1999/xlink" id="Layer_1" data-name="Layer 1" width="105mm" height="200mm" viewBox="0 0 297.64001 566.92999" data-rating-increment-space-heating="22.5833" data-rating-increment-water-heating="22.5833" data-supplier-model-chars-per-row="25">
  <defs>
    <style>
      .cls-1, .cls-42, .cls-43, .cls-45, .cls-46, .cls-58, .cls-59, .cls-60, .cls-61 {
        fill: none;
      }

      .cls-2, .cls-4 {
        fill: #020304;
      }

      .cls-3 {
        clip-path: url(#clip-path);
      }

      .cls-33, .cls-34, .cls-35, .cls-36, .cls-38, .cls-4 {
        fill-rule: evenodd;
      }

      .cls-5 {
        clip-path: url(#clip-path-2);
      }

      .cls-40, .cls-6 {
        font-size: 10px;
      }

      .cls-31, .cls-39, .cls-40, .cls-49, .cls-53, .cls-56, .cls-6, .cls-62 {
        fill: #231f20;
      }

      .cls-16, .cls-17, .cls-19, .cls-39, .cls-49, .cls-52, .cls-54, .cls-56, .cls-6 {
        font-family: Calibri-Bold, Calibri;
        font-weight: 700;
      }

      .cls-7 {
        clip-path: url(#clip-path-3);
      }

      .cls-16, .cls-17, .cls-19, .cls-52, .cls-54, .cls-55, .cls-8 {
        fill: #fff;
      }

      .cls-9 {
        fill: #fff200;
      }

      .cls-10 {
        fill: #bfd730;
      }

      .cls-11 {
        fill: #50b848;
      }

      .cls-12 {
        fill: #00a651;
      }

      .cls-13 {
        fill: #fdb913;
      }

      .cls-14 {
        fill: #f37021;
      }

      .cls-15 {
        fill: #ed1c24;
      }

      .cls-16, .cls-56 {
        font-size: 16px;
      }

      .cls-17 {
        font-size: 9.328px;
      }

      .cls-18 {
        clip-path: url(#clip-path-4);
      }

      .cls-19 {
        font-size: 14px;
      }

      .cls-20 {
        fill: #00aeef;
      }

      .cls-21 {
        fill: #b5e4f9;
      }

      .cls-22 {
        fill: #00c0f0;
      }

      .cls-23 {
        fill: #72d0f3;
      }

      .cls-24 {
        fill: #00c0ee;
      }

      .cls-25 {
        fill: #ddf2fd;
      }

      .cls-26 {
        fill: #8ed8f7;
      }

      .cls-27 {
        fill: #05090a;
      }

      .cls-28 {
        fill: #24b9ec;
      }

      .cls-29 {
        fill: #676465;
      }

      .cls-30 {
        fill: #034ea2;
      }

      .cls-31, .cls-49 {
        font-size: 12px;
      }

      .cls-31, .cls-40, .cls-55, .cls-62 {
        font-family: Calibri;
      }

      .cls-32 {
        letter-spacing: 0.059em;
      }

      .cls-33 {
        fill: #bde3f9;
      }

      .cls-34 {
        fill: #5ec4f0;
      }

      .cls-35 {
        fill: #2898d5;
      }

      .cls-36 {
        fill: #1c9ad6;
      }

      .cls-37 {
        fill: #bbe5f5;
      }

      .cls-38, .cls-48 {
        fill: #68bfeb;
      }

      .cls-39 {
        font-size: 15px;
      }

      .cls-41 {
        clip-path: url(#clip-path-6);
      }

      .cls-42, .cls-46, .cls-58, .cls-61 {
        stroke: #00aeef;
        stroke-linecap: round;
        stroke-linejoin: round;
      }

      .cls-42 {
        stroke-width: 0.702px;
      }

      .cls-43, .cls-59 {
        stroke: #fff;
      }

      .cls-43 {
        stroke-width: 0.645px;
      }

      .cls-44 {
        fill: #2aace3;
      }

      .cls-45, .cls-60 {
        stroke: #2aace3;
      }

      .cls-45 {
        stroke-width: 0.493px;
      }

      .cls-46 {
        stroke-width: 1.247px;
      }

      .cls-47 {
        fill: #1174bb;
      }

      .cls-50 {
        letter-spacing: -0.00496em;
      }

      .cls-51 {
        clip-path: url(#clip-path-12);
      }

      .cls-52 {
        font-size: 19.6178px;
      }

      .cls-54 {
        font-size: 18px;
      }

      .cls-55, .cls-62 {
        font-size: 11px;
      }

      .cls-57 {
        clip-path: url(#clip-path-13);
      }

      .cls-58 {
        stroke-width: 0.8px;
      }

      .cls-59 {
        stroke-width: 0.698px;
      }

      .cls-60 {
        stroke-width: 0.562px;
      }

      .cls-61 {
        stroke-width: 1.421px;
      }
    </style>
    <clipPath id="clip-path">
      <rect class="cls-1" y="0.00098" width="297.638" height="566.92902"/>
    </clipPath>
    <clipPath id="clip-path-2">
      <rect class="cls-1" x="158.59399" y="129.332" width="20.453" height="18.94199"/>
    </clipPath>
    <clipPath id="clip-path-3">
      <rect class="cls-1" x="158.517" y="175.04102" width="68.53799" height="156.04698"/>
    </clipPath>
    <clipPath id="clip-path-4">
      <rect class="cls-1" x="27.086" y="175.03998" width="70.355" height="157.79602"/>
    </clipPath>
    <clipPath id="clip-path-6">
      <rect class="cls-1" x="39.245" y="441.883" width="42.075" height="30.794"/>
    </clipPath>
    <clipPath id="clip-path-12">
      <rect class="cls-1" x="26.284" y="174.91498" width="68.53801" height="156.04701"/>
    </clipPath>
    <clipPath id="clip-path-13">
      <rect class="cls-1" x="42.109" y="376.896" width="33.062" height="34.84799"/>
    </clipPath>
  </defs>
  <title>heat-pump-combination-heaters-2019</title>
  <rect class="cls-2" x="162.89944" y="130.92249" width="10.86061" height="1.35352" transform="translate(-0.67896 0.87311) rotate(-0.29659)"/>
  <g class="cls-3">
    <path class="cls-4" d="M164.626,131.599a1.79479,1.79479,0,0,0-1.782-1.81,1.77577,1.77577,0,0,0-1.781,1.81,1.79389,1.79389,0,0,0,1.781,1.81,1.81366,1.81366,0,0,0,1.782-1.81"/>
    <path class="cls-4" d="M175.596,131.599a1.79459,1.79459,0,0,0-1.781-1.81,1.77578,1.77578,0,0,0-1.781,1.81,1.7939,1.7939,0,0,0,1.781,1.81,1.81347,1.81347,0,0,0,1.781-1.81"/>
    <path class="cls-4" d="M170.579,131.599a2.25432,2.25432,0,0,0-2.267-2.267,2.22422,2.22422,0,0,0-2.231,2.267,2.24737,2.24737,0,0,0,2.231,2.267,2.278,2.278,0,0,0,2.267-2.267"/>
    <path class="cls-2" d="M170.578,131.599a2.25432,2.25432,0,0,0-2.267-2.267,2.224,2.224,0,0,0-2.23,2.267,2.24717,2.24717,0,0,0,2.23,2.267,2.278,2.278,0,0,0,2.267-2.267"/>
    <rect class="cls-2" x="167.54401" y="131.63498" width="1.571" height="5.814"/>
  </g>
  <g class="cls-5">
    <path class="cls-4" d="M173.139,140.756a4.81428,4.81428,0,1,0-4.826,5.017,4.907,4.907,0,0,0,4.826-5.017"/>
    <path class="cls-4" d="M172.198,143.703s2.597.352,2.597,1.316v3.255h4.254l-.012-3.913c-.363-4.115-2.407-4.774-6.035-5.924l-1.121-.324.025.507-13.312-.074v5.047l13.604-.11v.22"/>
  </g>
  <text class="cls-6" transform="translate(30.43506 541.5462)">2019</text>
  <text class="cls-6" transform="translate(227.97461 541.5462)">811/2013</text>
  <g class="cls-7">
    <rect class="cls-8" x="94.488" y="175.03998" width="143.01701" height="199.90199"/>
    <rect class="cls-8" x="94.488" y="175.03998" width="143.01701" height="199.90201"/>
    <polygon class="cls-9" points="94.488 242.621 94.488 262.314 200.708 262.314 210.459 252.466 200.708 242.621 94.488 242.621"/>
    <polygon class="cls-10" points="94.488 220.094 94.488 239.786 195.348 239.786 205.103 229.94 195.348 220.094 94.488 220.094"/>
    <polygon class="cls-11" points="94.488 197.567 94.488 217.258 189.993 217.258 199.747 207.413 189.993 197.567 94.488 197.567"/>
    <polygon class="cls-12" points="94.488 175.04 94.488 194.732 184.66 194.732 194.414 184.886 184.66 175.04 94.488 175.04"/>
    <polygon class="cls-13" points="94.488 265.149 94.488 284.84 206.327 284.84 216.091 274.994 206.327 265.149 94.488 265.149"/>
    <polygon class="cls-14" points="94.488 287.673 94.488 307.366 211.676 307.366 221.444 297.52 211.676 287.673 94.488 287.673"/>
    <polygon class="cls-15" points="94.488 310.199 94.488 329.889 217.026 329.889 226.795 320.043 217.026 310.199 94.488 310.199"/>
  </g>
  <text class="cls-16" transform="translate(163.00586 191.45831)"> </text>
  <text class="cls-16" transform="translate(164.6377 189.45831)">A</text>
  <text class="cls-17" transform="translate(174.32813 184.13214)">+</text>
  <text class="cls-16" transform="translate(163.00586 213.95831)"> </text>
  <text class="cls-16" transform="translate(164.6377 211.95831)">A</text>
  <text class="cls-16" transform="translate(163.00586 236.45441)"> </text>
  <text class="cls-16" transform="translate(164.6377 234.45441)">B</text>
  <text class="cls-16" transform="translate(163.00586 256.9505)"> </text>
  <text class="cls-16" transform="translate(164.6377 256.9505)">C</text>
  <text class="cls-16" transform="translate(163.00586 279.44611)"> </text>
  <text class="cls-16" transform="translate(164.6377 279.44611)">D</text>
  <text class="cls-16" transform="translate(163.00586 301.94269)"> </text>
  <text class="cls-16" transform="translate(164.6377 301.94269)">E</text>
  <text class="cls-16" transform="translate(163.00586 324.43781)"> </text>
  <text class="cls-16" transform="translate(164.6377 324.43781)">F</text>
  <g class="cls-18">
    <rect class="cls-8" x="-58.668" y="175.03998" width="156.10899" height="155.826"/>
  </g>
  <text class="cls-19" transform="translate(33.9917 186.52765)"> </text>
  <text class="cls-19" transform="translate(33.9917 204.18146)"> </text>
  <text class="cls-19" transform="translate(33.9917 223.82355)"> </text>
  <text class="cls-19" transform="translate(33.9917 239.46173)"> </text>
  <text class="cls-19" transform="translate(33.9917 257.11554)"> </text>
  <text class="cls-19" transform="translate(33.9917 274.76984)"> </text>
  <text class="cls-19" transform="translate(33.9917 292.42413)"> </text>
  <text class="cls-19" transform="translate(33.9917 310.06378)"> </text>
  <text class="cls-19" transform="translate(33.9917 327.71808)"> </text>
  <path class="cls-20" d="M24.0691,16.166V14.17407a11.713,11.713,0,0,0-4.843,1.199,8.92165,8.92165,0,0,0-3.483,3.023,10.02371,10.02371,0,0,0-1.57,5.674V542.861a11.7214,11.7214,0,0,0,1.198,4.843,8.93187,8.93187,0,0,0,3.024,3.483,10.02414,10.02414,0,0,0,5.674,1.57h249.5a11.718,11.718,0,0,0,4.842-1.198,8.94216,8.94216,0,0,0,3.484-3.024,10.03161,10.03161,0,0,0,1.57-5.674V24.07007a11.73429,11.73429,0,0,0-1.199-4.843,8.92851,8.92851,0,0,0-3.023-3.483,10.026,10.026,0,0,0-5.674-1.57h-249.5v3.984h249.5a6.04179,6.04179,0,0,1,3.464.9,4.7289,4.7289,0,0,1,1.358,1.4,7.17741,7.17741,0,0,1,.951,2.471,7.95449,7.95449,0,0,1,.124.879c.008.103.012.18.014.226l.001.044v.003l1.182-.011h-1.182v.011l1.182-.011h-1.182V542.861a6.05566,6.05566,0,0,1-.9,3.465,4.7373,4.7373,0,0,1-1.4,1.357,7.20275,7.20275,0,0,1-2.471.952,8.15833,8.15833,0,0,1-.879.123c-.103.009-.18.012-.226.014l-.044.001h-.003l.011,1.184v-1.184h-.011l.011,1.184v-1.184h-249.5a6.04787,6.04787,0,0,1-3.465-.9,4.72531,4.72531,0,0,1-1.357-1.4,7.19774,7.19774,0,0,1-.952-2.47,8.15877,8.15877,0,0,1-.123-.879c-.009-.104-.012-.181-.014-.227l-.001-.044-.001-.003-1.182.011h1.183l-.001-.011-1.182.011h1.183V24.07007a6.04805,6.04805,0,0,1,.9-3.465,4.72608,4.72608,0,0,1,1.4-1.357,7.20619,7.20619,0,0,1,2.47-.952,8.15134,8.15134,0,0,1,.88-.123c.102-.008.18-.012.226-.014l.044-.001h.003l-.011-1.183v1.183h.011l-.011-1.183v-.809Z"/>
  <g id="offPeakMode">
    <path class="cls-20" d="M214.668,437.271v-.797a10.58833,10.58833,0,0,0-4.308,1.072,7.72911,7.72911,0,0,0-3.024,2.617,8.83941,8.83941,0,0,0-1.369,5.012v43.504a10.59852,10.59852,0,0,0,1.073,4.309,7.72692,7.72692,0,0,0,2.617,3.023,8.83044,8.83044,0,0,0,5.011,1.369h45.218a10.58834,10.58834,0,0,0,4.309-1.072,7.7268,7.7268,0,0,0,3.023-2.617,8.82366,8.82366,0,0,0,1.369-5.012V445.175a10.58811,10.58811,0,0,0-1.072-4.309,7.72689,7.72689,0,0,0-2.617-3.023,8.8316,8.8316,0,0,0-5.012-1.369H214.668v1.593h45.218a7.25025,7.25025,0,0,1,4.128,1.101,6.69087,6.69087,0,0,1,2.597,3.735,9.64846,9.64846,0,0,1,.336,1.634c.024.207.036.373.041.483l.005.124.001.031v43.504a7.24245,7.24245,0,0,1-1.101,4.128,6.68744,6.68744,0,0,1-3.735,2.597,9.65727,9.65727,0,0,1-1.633.336c-.208.024-.374.036-.484.041l-.124.005-.031.001H214.668a7.24657,7.24657,0,0,1-4.127-1.101,6.68589,6.68589,0,0,1-2.597-3.735,9.45513,9.45513,0,0,1-.336-1.634c-.024-.207-.036-.373-.042-.483l-.005-.124V445.175a7.23456,7.23456,0,0,1,1.101-4.128,6.68869,6.68869,0,0,1,3.734-2.597,9.68522,9.68522,0,0,1,1.634-.336c.207-.024.373-.036.484-.041l.123-.005.031-.001Z"/>
    <path class="cls-21" d="M235.73,473.588a3.1365,3.1365,0,0,1-.761-.094l1.934-13.926-12.406-6.388v-.001c2.505-3.707,7.788-7.678,12.599-7.678a13.9364,13.9364,0,0,1,13.939,13.937c0,7.697-5.482,13.938-13.182,13.938-.859,0-1.44.212-2.123.212"/>
    <path class="cls-22" d="M236.967,472.582a13.1725,13.1725,0,1,0-10.897-20.578l-1.264-.86a14.70308,14.70308,0,1,1,12.161,22.967Z"/>
    <polyline class="cls-22" points="237.59 447.916 237.59 459.595 236.061 459.595 236.061 447.916"/>
    <polyline class="cls-22" points="228.509 454.386 237.253 458.888 236.553 460.248 227.809 455.745"/>
    <path class="cls-22" d="M236.902,460.522a1.0835,1.0835,0,1,0-1.085-1.084,1.08487,1.08487,0,0,0,1.085,1.084"/>
    <polyline class="cls-22" points="225.965 478.215 234.732 487.307 233.635 488.365 224.868 479.273"/>
    <polygon class="cls-22" points="234.866 483.441 235.199 488.897 229.798 488.321 229.96 486.805 233.568 487.19 233.345 483.534 234.866 483.441"/>
    <path class="cls-22" d="M226.069,452.004a13.25564,13.25564,0,0,0-.957,1.651l-1.375-.669a14.65954,14.65954,0,0,1,1.069-1.843Zm-1.664,3.423a12.98121,12.98121,0,0,0-.441,1.855l-1.51-.244a14.6881,14.6881,0,0,1,.493-2.073Zm-.61,3.757-.002.225a13.30959,13.30959,0,0,0,.106,1.681l-1.517.193a14.85992,14.85992,0,0,1-.118-1.874l.002-.251Zm.482,3.776a12.98909,12.98909,0,0,0,.646,1.795l-1.397.622a14.678,14.678,0,0,1-.722-2.006Zm1.546,3.478a13.14158,13.14158,0,0,0,1.134,1.536l-1.161.994a14.55438,14.55438,0,0,1-1.265-1.713Zm2.477,2.892a13.14638,13.14638,0,0,0,1.523,1.149l-.83,1.284a14.66123,14.66123,0,0,1-1.7-1.282Zm3.195,2.066a13.0541,13.0541,0,0,0,1.788.664l-.427,1.469a14.55333,14.55333,0,0,1-1.997-.743Zm3.653,1.062a13.30492,13.30492,0,0,0,1.819.124v1.529a14.75992,14.75992,0,0,1-2.028-.139Z"/>
    <path class="cls-22" d="M247.242,486.136a17.54046,17.54046,0,0,0-6.221,0h-3.183v1.841c0,1.171,2.818,2.12,6.294,2.12s6.294-.949,6.294-2.12v-1.841Z"/>
    <path class="cls-22" d="M247.242,486.136l-.032.168a17.3687,17.3687,0,0,0-6.157,0l-.016.003h-3.028v1.67a.93168.93168,0,0,0,.43.691c.887.716,3.112,1.262,5.693,1.257a14.35816,14.35816,0,0,0,4.396-.611,4.3817,4.3817,0,0,0,1.297-.646.93166.93166,0,0,0,.43-.691v-1.67h-3.029l-.016-.003.032-.168v-.171h3.356v2.012a1.26514,1.26514,0,0,1-.56.959c-1.023.806-3.273,1.327-5.906,1.332a14.68024,14.68024,0,0,1-4.505-.63,4.66346,4.66346,0,0,1-1.401-.702,1.26514,1.26514,0,0,1-.56-.959v-2.012h3.355v.171l-.032-.168a17.65654,17.65654,0,0,1,6.286,0l-.033.168v0Z"/>
    <path class="cls-23" d="M237.838,486.136c0,1.171,2.818,2.119,6.294,2.119s6.294-.948,6.294-2.119-2.818-2.12-6.294-2.12-6.294.949-6.294,2.12"/>
    <path class="cls-24" d="M237.838,486.136h.171a.93167.93167,0,0,0,.43.691c.887.716,3.112,1.262,5.693,1.257a14.3242,14.3242,0,0,0,4.396-.612,4.34614,4.34614,0,0,0,1.297-.645.77022.77022,0,0,0,0-1.382c-.887-.716-3.112-1.262-5.693-1.257a14.36253,14.36253,0,0,0-4.396.611,4.38138,4.38138,0,0,0-1.297.646.93167.93167,0,0,0-.43.691h-.342a1.26387,1.26387,0,0,1,.559-.959c1.023-.806,3.273-1.327,5.906-1.332a14.711,14.711,0,0,1,4.505.63,4.65189,4.65189,0,0,1,1.401.702,1.10115,1.10115,0,0,1,0,1.918c-1.023.806-3.273,1.327-5.906,1.332a14.7111,14.7111,0,0,1-4.505-.63,4.6637,4.6637,0,0,1-1.401-.702,1.26384,1.26384,0,0,1-.559-.959Z"/>
    <polyline class="cls-23" points="250.314 486.692 250.314 488.527 250.11 488.527 250.11 486.692"/>
    <polyline class="cls-23" points="249.981 486.941 249.981 488.776 249.777 488.776 249.777 486.941"/>
    <polyline class="cls-23" points="249.644 487.19 249.644 489.025 249.439 489.025 249.439 487.19"/>
    <polyline class="cls-23" points="249.306 487.383 249.306 489.218 249.102 489.218 249.102 487.383"/>
    <polyline class="cls-23" points="248.961 487.561 248.961 489.396 248.756 489.396 248.756 487.561"/>
    <polyline class="cls-23" points="248.575 487.741 248.575 489.576 248.371 489.576 248.371 487.741"/>
    <path class="cls-22" d="M248.81,483.796a17.54051,17.54051,0,0,0-6.221,0h-3.184v1.841c0,1.171,2.819,2.12,6.295,2.12s6.294-.949,6.294-2.12v-1.841Z"/>
    <path class="cls-22" d="M248.81,483.796l-.032.168a17.36865,17.36865,0,0,0-6.157,0l-.016.003h-3.028v1.67a.93316.93316,0,0,0,.43.692c.887.715,3.112,1.262,5.693,1.257a14.35963,14.35963,0,0,0,4.396-.612,4.35828,4.35828,0,0,0,1.297-.645.93316.93316,0,0,0,.43-.692v-1.67h-3.029l-.016-.003.032-.168v-.171h3.355v2.012a1.26067,1.26067,0,0,1-.559.959c-1.023.807-3.273,1.327-5.906,1.332a14.695,14.695,0,0,1-4.506-.629,4.69907,4.69907,0,0,1-1.401-.703,1.26357,1.26357,0,0,1-.559-.959v-2.012h3.355v.171l-.032-.168a17.71781,17.71781,0,0,1,6.286,0l-.033.168v0Z"/>
    <path class="cls-23" d="M239.406,483.796c0,1.171,2.818,2.12,6.294,2.12s6.294-.949,6.294-2.12c0-1.17-2.818-2.119-6.294-2.119s-6.294.949-6.294,2.119"/>
    <path class="cls-24" d="M239.406,483.796h.171a.93165.93165,0,0,0,.43.691c.887.716,3.112,1.262,5.693,1.258a14.35958,14.35958,0,0,0,4.396-.612,4.33437,4.33437,0,0,0,1.297-.646.77021.77021,0,0,0,0-1.382c-.887-.715-3.112-1.262-5.693-1.257a14.355,14.355,0,0,0-4.396.612,4.3585,4.3585,0,0,0-1.297.645.93165.93165,0,0,0-.43.691h-.343a1.26518,1.26518,0,0,1,.56-.959c1.023-.806,3.273-1.327,5.906-1.331a14.6834,14.6834,0,0,1,4.505.629,4.68708,4.68708,0,0,1,1.401.702,1.10115,1.10115,0,0,1,0,1.918c-1.023.806-3.273,1.327-5.906,1.332a14.65,14.65,0,0,1-4.505-.63,4.66394,4.66394,0,0,1-1.401-.702,1.26521,1.26521,0,0,1-.56-.959Z"/>
    <polyline class="cls-23" points="251.882 484.352 251.882 486.187 251.678 486.187 251.678 484.352"/>
    <polyline class="cls-23" points="251.549 484.602 251.549 486.436 251.345 486.436 251.345 484.602"/>
    <polyline class="cls-23" points="251.212 484.851 251.212 486.685 251.007 486.685 251.007 484.851"/>
    <polyline class="cls-23" points="250.874 485.044 250.874 486.879 250.669 486.879 250.669 485.044"/>
    <polyline class="cls-23" points="250.529 485.222 250.529 487.056 250.324 487.056 250.324 485.222"/>
    <polyline class="cls-23" points="250.143 485.401 250.143 487.236 249.939 487.236 249.939 485.401"/>
    <path class="cls-22" d="M247.654,481.635a17.47926,17.47926,0,0,0-6.221,0h-3.184v1.841c0,1.171,2.818,2.119,6.295,2.119,3.476,0,6.294-.948,6.294-2.119v-1.841Z"/>
    <path class="cls-22" d="M247.654,481.635l-.032.168a17.36865,17.36865,0,0,0-6.157,0l-.016.003H238.42v1.67a.93038.93038,0,0,0,.431.691c.887.715,3.112,1.262,5.693,1.257a14.35963,14.35963,0,0,0,4.396-.612,4.35852,4.35852,0,0,0,1.297-.645.93163.93163,0,0,0,.43-.691v-1.67h-3.029l-.016-.003.032-.168v-.172h3.355v2.013a1.26388,1.26388,0,0,1-.559.959c-1.024.806-3.273,1.326-5.906,1.331a14.69465,14.69465,0,0,1-4.506-.629,4.69954,4.69954,0,0,1-1.401-.702,1.26384,1.26384,0,0,1-.559-.959v-2.013h3.355v.172l-.032-.169a17.71781,17.71781,0,0,1,6.286,0l-.033.169v0Z"/>
    <path class="cls-23" d="M238.25,481.634c0,1.171,2.818,2.12,6.294,2.12s6.294-.949,6.294-2.12c0-1.17-2.818-2.119-6.294-2.119s-6.294.949-6.294,2.119"/>
    <path class="cls-24" d="M238.25,481.635h.171a.93331.93331,0,0,0,.43.691c.887.715,3.112,1.262,5.693,1.257a14.35965,14.35965,0,0,0,4.396-.612,4.35859,4.35859,0,0,0,1.297-.645.771.771,0,0,0,0-1.383c-.888-.715-3.112-1.262-5.693-1.257a14.355,14.355,0,0,0-4.396.612,4.3458,4.3458,0,0,0-1.297.645.93324.93324,0,0,0-.43.692h-.343a1.262,1.262,0,0,1,.56-.959c1.023-.806,3.273-1.328,5.906-1.332a14.65,14.65,0,0,1,4.505.63,4.66394,4.66394,0,0,1,1.401.702,1.10213,1.10213,0,0,1,0,1.918c-1.024.805-3.273,1.327-5.906,1.331a14.69461,14.69461,0,0,1-4.506-.629,4.704,4.704,0,0,1-1.4-.702,1.26515,1.26515,0,0,1-.56-.959h.172"/>
    <polyline class="cls-23" points="250.726 482.191 250.726 484.025 250.522 484.025 250.522 482.191"/>
    <polyline class="cls-23" points="250.393 482.44 250.393 484.275 250.189 484.275 250.189 482.44"/>
    <polyline class="cls-23" points="250.056 482.689 250.056 484.524 249.851 484.524 249.851 482.689"/>
    <polyline class="cls-23" points="249.718 482.882 249.718 484.717 249.513 484.717 249.513 482.882"/>
    <polyline class="cls-23" points="249.372 483.06 249.372 484.895 249.168 484.895 249.168 483.06"/>
    <polyline class="cls-23" points="248.987 483.239 248.987 485.074 248.783 485.074 248.783 483.239"/>
    <path class="cls-22" d="M246.975,479.116a17.48416,17.48416,0,0,0-6.222,0h-3.184v1.841c0,1.171,2.819,2.119,6.295,2.119s6.294-.948,6.294-2.119v-1.841h-3.183"/>
    <path class="cls-22" d="M246.975,479.116l-.033.168a17.36311,17.36311,0,0,0-6.156,0l-.016.003h-3.029v1.67a.93165.93165,0,0,0,.43.691c.887.716,3.112,1.262,5.693,1.257a14.3242,14.3242,0,0,0,4.396-.612,4.35779,4.35779,0,0,0,1.297-.645.93168.93168,0,0,0,.43-.691v-1.67h-3.029l-.016-.003.033-.168v-.172h3.354v2.013a1.26379,1.26379,0,0,1-.559.959c-1.023.806-3.273,1.327-5.906,1.332a14.7111,14.7111,0,0,1-4.505-.63,4.68708,4.68708,0,0,1-1.401-.702,1.26519,1.26519,0,0,1-.56-.959v-2.013h3.355v.172l-.032-.169a17.71787,17.71787,0,0,1,6.286,0l-.032.169v0"/>
    <path class="cls-23" d="M237.57,479.116c0,1.171,2.818,2.119,6.294,2.119s6.294-.948,6.294-2.119-2.818-2.12-6.294-2.12-6.294.949-6.294,2.12"/>
    <path class="cls-24" d="M237.57,479.116h.171a.93167.93167,0,0,0,.43.691c.887.715,3.112,1.262,5.693,1.257a14.35485,14.35485,0,0,0,4.396-.612,4.35889,4.35889,0,0,0,1.297-.645.771.771,0,0,0,0-1.383c-.887-.715-3.112-1.261-5.693-1.257a14.35965,14.35965,0,0,0-4.396.612,4.35843,4.35843,0,0,0-1.297.645.93319.93319,0,0,0-.43.692h-.342a1.25937,1.25937,0,0,1,.559-.959c1.023-.806,3.273-1.327,5.906-1.332a14.65021,14.65021,0,0,1,4.505.63,4.6637,4.6637,0,0,1,1.401.702,1.10115,1.10115,0,0,1,0,1.918c-1.023.806-3.273,1.327-5.906,1.331a14.68309,14.68309,0,0,1-4.505-.629,4.68731,4.68731,0,0,1-1.401-.702,1.261,1.261,0,0,1-.559-.959h.171"/>
    <path class="cls-25" d="M247.887,480.372h-.001a.20181.20181,0,0,1-.051-.397c.001,0,.097-.026.247-.075a4.21357,4.21357,0,0,0,.831-.369,1.34642,1.34642,0,0,0,.322-.259l.105-.233v-.012c.006-.055-.092-.201-.318-.339a5.48168,5.48168,0,0,0-1.346-.537,5.87019,5.87019,0,0,0-1.023-.209h-.005a.20028.20028,0,0,1-.201-.194v-.015a.20119.20119,0,0,1,.194-.195h.016a3.97967,3.97967,0,0,1,.651.104,8.415,8.415,0,0,1,1.489.473,2.82415,2.82415,0,0,1,.626.363.75853.75853,0,0,1,.32.528v.001l.001.016v.036a.86347.86347,0,0,1-.326.602,4.30215,4.30215,0,0,1-1.48.705.22865.22865,0,0,1-.051.006m1.452-1.345v-.001l.001.001h-.001"/>
    <polyline class="cls-23" points="250.047 479.672 250.047 481.506 249.842 481.506 249.842 479.672"/>
    <polyline class="cls-23" points="249.713 479.921 249.713 481.756 249.509 481.756 249.509 479.921"/>
    <polyline class="cls-23" points="249.376 480.17 249.376 482.005 249.171 482.005 249.171 480.17"/>
    <polyline class="cls-23" points="249.038 480.363 249.038 482.198 248.834 482.198 248.834 480.363"/>
    <polyline class="cls-23" points="248.693 480.541 248.693 482.376 248.488 482.376 248.488 480.541"/>
    <polyline class="cls-23" points="248.307 480.72 248.307 482.555 248.103 482.555 248.103 480.72"/>
  </g>
  <rect x="27.576" y="128.069" width="4.016" height="1.133"/>
  <path d="M63.1784,149.646h1.372v.566l-.038-.565.091-.003a2.18347,2.18347,0,0,1,1.056.268,1.64562,1.64562,0,0,1,.614.602,1.98877,1.98877,0,0,1,.253,1.021v2.001h-1.133v-2.001a.86694.86694,0,0,0-.098-.448.58092.58092,0,0,0-.332-.25,1.1806,1.1806,0,0,0-.36-.059h-.019l-.004-.116.007.116h-.003l-.004-.116.007.116-.019.001h-1.39Z"/>
  <polygon points="28.491 127.306 28.313 127.465 27.007 127.465 26.829 127.306 26.581 125.079 26.724 124.919 28.596 124.919 28.738 125.079 28.491 127.306"/>
  <polyline points="27.124 153.707 27.124 126.52 28.258 126.52 28.258 153.707"/>
  <path class="cls-26" d="M63.4415,150.765a2.14313,2.14313,0,0,1-1.889,1.889,2.17773,2.17773,0,0,1-1.889-1.889V126.821a1.889,1.889,0,0,1,3.778,0v23.944"/>
  <polygon class="cls-27" points="34.915 151.157 32.585 151.535 32.585 148.89 34.915 149.268 34.915 151.157"/>
  <polygon class="cls-26" points="34.915 151.157 37.245 151.535 37.245 148.89 34.915 149.268 34.915 151.157"/>
  <polygon class="cls-26" points="40.819 151.157 38.489 151.535 38.489 148.89 40.819 149.268 40.819 151.157"/>
  <polygon class="cls-26" points="40.819 151.157 43.149 151.535 43.149 148.89 40.819 149.268 40.819 151.157"/>
  <polygon class="cls-26" points="46.738 151.157 44.408 151.535 44.408 148.89 46.738 149.268 46.738 151.157"/>
  <polygon class="cls-26" points="46.738 151.157 49.068 151.535 49.068 148.89 46.738 149.268 46.738 151.157"/>
  <polygon class="cls-26" points="52.642 151.157 50.312 151.535 50.312 148.89 52.642 149.268 52.642 151.157"/>
  <polygon class="cls-26" points="52.642 151.157 54.972 151.535 54.972 148.89 52.642 149.268 52.642 151.157"/>
  <polygon class="cls-26" points="58.734 151.157 56.404 151.535 56.404 148.89 58.734 149.268 58.734 151.157"/>
  <polygon class="cls-26" points="58.734 151.157 61.064 151.535 61.064 148.89 58.734 149.268 58.734 151.157"/>
  <polygon class="cls-27" points="34.915 128.41 32.585 128.788 32.585 126.143 34.915 126.521 34.915 128.41"/>
  <polygon class="cls-26" points="34.915 128.41 37.245 128.788 37.245 126.143 34.915 126.521 34.915 128.41"/>
  <polygon class="cls-26" points="40.819 128.41 38.489 128.788 38.489 126.143 40.819 126.521 40.819 128.41"/>
  <polygon class="cls-26" points="40.819 128.41 43.149 128.788 43.149 126.143 40.819 126.521 40.819 128.41"/>
  <polygon class="cls-26" points="46.738 128.41 44.408 128.788 44.408 126.143 46.738 126.521 46.738 128.41"/>
  <polygon class="cls-26" points="46.738 128.41 49.068 128.788 49.068 126.143 46.738 126.521 46.738 128.41"/>
  <polygon class="cls-26" points="52.642 128.41 50.312 128.788 50.312 126.143 52.642 126.521 52.642 128.41"/>
  <polygon class="cls-26" points="52.642 128.41 54.972 128.788 54.972 126.143 52.642 126.521 52.642 128.41"/>
  <polygon class="cls-28" points="52.642 128.069 53.807 128.311 53.807 126.62 52.642 126.861 52.642 128.069"/>
  <polygon class="cls-26" points="58.734 128.41 56.404 128.788 56.404 126.143 58.734 126.521 58.734 128.41"/>
  <polygon class="cls-26" points="58.734 128.41 61.064 128.788 61.064 126.143 58.734 126.521 58.734 128.41"/>
  <polygon class="cls-27" points="52.642 128.41 50.312 128.788 50.312 126.143 52.642 126.521 52.642 128.41"/>
  <polygon class="cls-27" points="52.642 128.41 54.972 128.788 54.972 126.143 52.642 126.521 52.642 128.41"/>
  <path class="cls-29" d="M53.7437,128.298l-1.102-.229v-1.208l1.116-.231a1.34225,1.34225,0,0,0-.014.191v1.477"/>
  <polygon class="cls-27" points="58.396 128.41 56.066 128.788 56.066 126.143 58.396 126.521 58.396 128.41"/>
  <polygon class="cls-27" points="58.396 128.41 60.726 128.788 60.726 126.143 58.396 126.521 58.396 128.41"/>
  <polygon class="cls-29" points="59.561 128.311 59.56 128.311 58.396 128.069 58.396 126.861 59.56 126.62 59.561 126.62 59.561 128.311"/>
  <polygon class="cls-27" points="46.738 128.41 44.408 128.788 44.408 126.143 46.738 126.521 46.738 128.41"/>
  <polygon class="cls-27" points="46.738 128.41 49.068 128.788 49.068 126.143 46.738 126.521 46.738 128.41"/>
  <path class="cls-29" d="M47.8243,128.295l-1.086-.226v-1.208l1.099-.228a1.3101,1.3101,0,0,0-.013.188v1.474"/>
  <polygon class="cls-27" points="40.819 128.41 38.489 128.788 38.489 126.143 40.819 126.521 40.819 128.41"/>
  <polygon class="cls-27" points="40.819 128.41 43.149 128.788 43.149 126.143 40.819 126.521 40.819 128.41"/>
  <path class="cls-29" d="M41.9052,128.295l-1.086-.226v-1.208l1.099-.228a1.4721,1.4721,0,0,0-.013.188v1.474"/>
  <polygon class="cls-27" points="34.915 128.41 32.585 128.788 32.585 126.143 34.915 126.521 34.915 128.41"/>
  <polygon class="cls-27" points="34.915 128.41 37.245 128.788 37.245 126.143 34.915 126.521 34.915 128.41"/>
  <path class="cls-29" d="M35.9858,128.291l-1.07-.222v-1.208l1.083-.225a1.269,1.269,0,0,0-.013.185v1.47"/>
  <polygon class="cls-27" points="52.642 151.155 50.312 151.533 50.312 148.888 52.642 149.266 52.642 151.155"/>
  <polygon class="cls-27" points="52.642 151.155 54.972 151.533 54.972 148.888 52.642 149.266 52.642 151.155"/>
  <path class="cls-29" d="M53.7737,151.05l-1.132-.235v-1.208l1.102-.229v1.387a1.35152,1.35152,0,0,0,.03.285"/>
  <polygon class="cls-27" points="58.396 151.155 56.066 151.533 56.066 148.888 58.396 149.266 58.396 151.155"/>
  <polygon class="cls-27" points="58.396 151.155 60.726 151.533 60.726 148.888 58.396 149.266 58.396 151.155"/>
  <polygon class="cls-29" points="59.561 151.056 59.56 151.056 58.396 150.815 58.396 149.607 59.56 149.365 59.561 149.365 59.561 151.056"/>
  <polygon class="cls-27" points="46.738 151.155 44.408 151.533 44.408 148.888 46.738 149.266 46.738 151.155"/>
  <polygon class="cls-27" points="46.738 151.155 49.068 151.533 49.068 148.888 46.738 149.266 46.738 151.155"/>
  <path class="cls-29" d="M47.8536,151.046l-1.116-.231v-1.208l1.087-.226v1.384a1.37354,1.37354,0,0,0,.029.281"/>
  <polygon class="cls-27" points="40.819 151.155 38.489 151.533 38.489 148.888 40.819 149.266 40.819 151.155"/>
  <polygon class="cls-27" points="40.819 151.155 43.149 151.533 43.149 148.888 40.819 149.266 40.819 151.155"/>
  <path class="cls-29" d="M41.9345,151.046l-1.116-.231v-1.208l1.087-.226v1.384a1.37354,1.37354,0,0,0,.029.281"/>
  <polygon class="cls-27" points="34.915 151.155 32.585 151.533 32.585 148.888 34.915 149.266 34.915 151.155"/>
  <polygon class="cls-27" points="34.915 151.155 37.245 151.533 37.245 148.888 34.915 149.266 34.915 151.155"/>
  <path class="cls-29" d="M36.0144,151.043l-1.099-.228v-1.208l1.07-.222v1.38a1.359,1.359,0,0,0,.029.278"/>
  <path class="cls-27" d="M63.4415,150.765a2.14313,2.14313,0,0,1-1.889,1.889,2.17773,2.17773,0,0,1-1.889-1.889V126.821a1.889,1.889,0,0,1,3.778,0v23.944"/>
  <path class="cls-27" d="M57.5221,150.765a2.14313,2.14313,0,0,1-1.889,1.889,2.17774,2.17774,0,0,1-1.889-1.889V126.821a1.889,1.889,0,0,1,3.778,0v23.944"/>
  <path class="cls-27" d="M51.6027,150.765a2.14313,2.14313,0,0,1-1.889,1.889,2.17773,2.17773,0,0,1-1.889-1.889V126.821a2.18154,2.18154,0,0,1,1.889-1.889,2.1825,2.1825,0,0,1,1.889,1.889v23.944"/>
  <path class="cls-27" d="M45.6835,150.765a2.14313,2.14313,0,0,1-1.889,1.889,2.17774,2.17774,0,0,1-1.889-1.889V126.821a2.18155,2.18155,0,0,1,1.889-1.889,2.18154,2.18154,0,0,1,1.889,1.889v23.944"/>
  <path class="cls-27" d="M39.7641,150.765a2.14313,2.14313,0,0,1-1.889,1.889,2.17773,2.17773,0,0,1-1.889-1.889V126.821a2.18154,2.18154,0,0,1,1.889-1.889,2.18154,2.18154,0,0,1,1.889,1.889v23.944"/>
  <path class="cls-27" d="M33.8447,150.765a2.14313,2.14313,0,0,1-1.889,1.889,2.17773,2.17773,0,0,1-1.889-1.889V126.821a2.18154,2.18154,0,0,1,1.889-1.889,2.18154,2.18154,0,0,1,1.889,1.889v23.944"/>
  <path class="cls-29" d="M61.5521,152.418a2.02144,2.02144,0,0,1-1.653-1.85V127.121a2.03173,2.03173,0,0,1,1.64-1.849h.013v27.146"/>
  <path class="cls-29" d="M55.6602,152.418a2.02454,2.02454,0,0,1-1.653-1.83V127.101a2.03336,2.03336,0,0,1,1.639-1.829h.014v27.146"/>
  <path class="cls-29" d="M49.7685,152.418a2.0223,2.0223,0,0,1-1.654-1.85V127.121a2.03173,2.03173,0,0,1,1.64-1.849h.014v27.146"/>
  <path class="cls-29" d="M43.8762,152.418a2.02144,2.02144,0,0,1-1.653-1.85V127.121a2.03189,2.03189,0,0,1,1.639-1.849h.014v27.146"/>
  <path class="cls-29" d="M37.9843,152.418a2.02144,2.02144,0,0,1-1.653-1.85V127.121a2.03189,2.03189,0,0,1,1.639-1.849h.014v27.146"/>
  <path class="cls-29" d="M32.0924,152.418a2.02144,2.02144,0,0,1-1.653-1.85V127.121a2.03189,2.03189,0,0,1,1.639-1.849h.014v27.146"/>
  
  <rect class="cls-20" x="100.45599" y="26.492" width="170.28799" height="48.06"/>
  
  
  
  
  
  
  
  
  
  
  
  

































  <polyline class="cls-20" points="26.514 112.593 271.18 112.593 271.18 111.593 26.514 111.593"/>
  <rect class="cls-1" y="0.00098" width="297.638" height="566.92902"/>
  <text class="cls-31" transform="translate(34.15381 109.38214)"><tspan class="cls-32" xml:space="preserve">                </tspan><tspan x="54.73438" y="0"> </tspan></text>
  <g class="cls-3">
    <polygon class="cls-33" points="134.461 433.569 131.409 436.67 127.919 436.67 127.482 437.111 127.482 451.286 126.611 452.171 120.941 451.729 117.887 449.072 108.728 449.072 106.548 451.286 106.548 461.918 104.366 464.574 104.366 466.789 112.217 474.319 113.961 474.319 115.707 472.547 117.887 474.319 120.068 474.319 136.641 457.487 144.492 457.487 140.131 453.057 137.078 456.159 132.716 451.729 132.716 442.427 134.461 440.655 134.461 433.569"/>
    <polygon class="cls-34" points="134.461 433.569 137.078 432.683 138.386 434.011 140.567 434.011 148.417 426.038 149.726 425.595 158.885 425.595 158.885 428.252 150.163 437.111 150.163 438.883 152.343 441.099 137.515 456.159 132.716 451.729 132.716 442.427 134.461 441.099 134.461 433.569"/>
    <polygon class="cls-35" points="158.45 425.595 158.45 428.252 150.163 437.111 150.163 438.883 152.344 441.098 140.131 453.057 144.056 457.045 147.109 453.945 146.238 453.057 149.291 449.958 151.47 452.172 153.215 452.172 154.96 450.4 155.832 450.4 159.757 454.387 162.811 454.387 166.737 450.4 168.917 450.4 176.331 457.93 176.331 459.702 175.022 461.032 175.022 463.688 179.385 468.12 180.257 468.12 192.469 455.273 193.342 453.945 193.342 451.729 192.907 450.4 187.671 445.527 175.896 445.527 175.022 444.199 175.022 436.67 178.512 433.126 178.512 430.024 177.64 429.138 177.64 427.81 179.82 425.595 180.693 426.481 182.438 426.481 184.182 425.152 184.182 423.38 183.31 422.494 183.31 421.609 185.49 419.394 185.49 407.877 184.182 407.877 181.566 410.977 181.566 416.293 179.385 418.065 178.949 418.065 178.076 417.178 176.331 417.178 175.022 418.507 175.022 420.279 176.331 421.609 173.279 424.709 171.969 423.38 168.917 423.38 166.737 425.595 158.45 425.595"/>
    <polygon class="cls-35" points="150.598 408.32 150.598 398.575 154.088 395.032 155.833 395.032 158.45 397.689 169.787 386.172 171.534 386.172 173.279 387.943 178.949 382.186 180.257 382.186 182.873 384.4 184.619 382.628 186.798 382.628 187.671 383.958 187.671 386.172 186.362 387.501 190.29 392.374 190.29 396.36 186.362 400.347 188.107 402.562 188.107 404.776 187.237 405.662 184.619 405.662 183.31 404.334 182.438 404.334 177.64 409.205 176.331 409.205 175.022 407.877 175.022 406.105 174.587 406.105 174.587 405.218 175.896 403.447 174.15 401.232 174.15 399.46 178.512 395.032 178.512 393.26 177.204 392.374 175.459 392.374 168.044 399.46 168.044 400.79 169.787 402.562 169.787 404.776 167.609 406.548 168.917 407.877 168.917 411.42 164.555 415.85 166.737 417.622 166.737 419.837 163.247 423.38 163.247 423.823 159.757 423.823 158.885 422.937 158.885 421.609 161.067 419.394 158.885 416.735 158.885 415.407 161.067 412.749 161.067 411.863 158.885 410.535 158.885 409.649 151.907 409.649 150.598 408.32"/>
    <polygon class="cls-34" points="154.524 413.635 150.598 417.179 150.598 419.837 154.96 424.709 155.833 424.709 158.014 422.051 158.45 421.608 155.833 418.951 158.45 416.292 155.833 413.635 154.524 413.635"/>
    <polygon class="cls-34" points="137.078 431.354 138.823 429.582 138.823 426.924 135.769 423.823 135.769 411.42 132.28 407.434 130.536 407.434 127.919 410.091 127.919 422.051 137.078 431.354"/>
    <polygon class="cls-33" points="125.738 424.266 125.738 428.252 122.249 431.353 123.557 432.683 135.769 432.683 137.078 431.353 127.918 422.051 125.738 424.266"/>
    <polygon class="cls-33" points="126.611 414.521 123.121 414.521 116.143 422.051 116.143 423.38 117.452 424.71 119.632 424.71 127.047 417.179 127.047 414.964 126.611 414.521"/>
    <polygon class="cls-36" points="133.152 392.374 132.717 393.259 132.717 395.917 133.152 396.36 134.898 396.36 135.334 395.475 135.334 393.259 134.898 392.374 133.152 392.374"/>
    <polygon class="cls-33" points="131.408 469.447 131.408 468.119 133.153 466.345 135.333 466.345 135.333 468.561 133.153 470.332 132.28 470.332 131.408 469.447"/>
    <polygon class="cls-33" points="147.982 463.689 149.29 461.918 151.035 463.689 151.035 467.234 149.726 468.119 148.854 468.119 147.982 467.234 147.982 463.689"/>
    <polygon class="cls-33" points="148.854 468.561 149.726 468.561 151.035 469.446 151.035 473.433 149.726 474.762 149.29 474.762 147.982 473.433 147.982 469.446 148.854 468.561"/>
    <polygon class="cls-33" points="162.811 480.078 170.226 472.991 170.226 470.776 161.504 461.918 158.014 465.461 163.684 471.219 163.684 472.547 160.194 476.091 159.757 476.977 159.757 478.306 160.194 479.635 161.504 480.078 162.811 480.078"/>
    <polygon class="cls-34" points="158.885 453.501 155.832 456.159 161.938 461.918 161.066 462.804 158.014 459.702 155.832 461.918 158.885 465.018 158.014 465.461 150.163 457.487 144.492 457.487 143.621 457.045 146.673 453.944 146.237 453.057 149.291 449.957 151.47 452.171 153.216 452.171 154.96 450.4 155.832 450.4 158.885 453.501"/>
    <polygon class="cls-34" points="176.768 465.461 175.022 467.234 175.022 469.89 176.332 471.219 176.768 471.219 179.385 469.005 180.692 469.005 182.873 471.662 183.31 471.662 191.596 463.246 191.596 461.475 188.981 458.816 180.256 467.675 178.949 467.675 176.768 465.461"/>
    <polygon class="cls-35" points="180.257 474.319 182.873 471.663 180.692 469.004 179.385 469.004 176.768 471.218 179.385 474.319 180.257 474.319"/>
    <polygon class="cls-33" points="181.128 479.635 185.491 475.648 185.491 473.434 183.746 471.662 182.873 471.662 180.256 474.319 179.385 474.319 176.767 471.219 176.332 471.219 175.023 472.548 175.023 476.091 178.513 479.635 181.128 479.635"/>
    <polygon class="cls-33" points="187.672 472.991 187.672 472.548 190.725 472.548 191.595 473.433 191.595 475.648 191.161 476.092 187.672 476.092 187.672 475.648 187.672 472.991"/>
    <polygon class="cls-33" points="183.746 482.735 184.182 482.293 187.236 482.293 188.107 483.179 188.107 484.508 187.671 484.951 184.182 484.951 183.746 484.508 183.746 482.735"/>
    <rect class="cls-37" x="162.375" y="483.17999" width="0.87199" height="1.328"/>
    <polygon class="cls-38" points="113.09 455.716 114.834 454.387 116.578 454.387 120.504 458.374 120.504 461.032 119.632 461.918 118.324 461.918 113.09 457.045 113.09 455.716"/>
    <polygon class="cls-38" points="121.377 465.018 119.195 462.361 116.578 465.018 116.578 466.789 117.452 467.674 119.632 467.674 121.377 465.903 121.377 465.018"/>
    <polygon class="cls-38" points="129.227 458.816 130.099 457.93 130.099 455.716 128.355 453.945 127.047 453.945 124.866 456.159 127.482 458.816 129.227 458.816"/>
    <polygon class="cls-35" points="155.832 461.918 158.013 459.702 161.066 462.803 158.885 465.018 155.832 461.918"/>
  </g>
  <text class="cls-39" transform="translate(60.87256 486.92902)"> </text>
  <text class="cls-40" transform="translate(64.271 486.92902)">dB</text>
  <rect class="cls-1" y="0.00098" width="297.638" height="566.92902"/>
  <g class="cls-41">
    <polygon class="cls-42" points="55.136 468.87 55.136 472.326 80.968 472.326 80.968 454.472 68.051 442.703 55.136 454.472 55.136 468.87"/>
  </g>
  <g class="cls-3">
    <path class="cls-43" d="M50.5764,466.005q1.1235-1.002,2.247-2.003h1.601V460.8h-1.601q-1.1235-1.0005-2.247-2.004l-.93-.827v8.865Z"/>
    <path class="cls-44" d="M50.8601,465.30489q.906-.807,1.809-1.614h1.291v-2.58h-1.291c-.602-.536-1.205-1.076-1.809-1.613l-.749-.668v7.142Z"/>
  </g>
  <g class="cls-41">
    <path class="cls-45" d="M50.8601,465.30489q.906-.807,1.809-1.614h1.291v-2.58h-1.291c-.602-.536-1.205-1.076-1.809-1.613l-.749-.668v7.142Z"/>
    <path class="cls-46" d="M47.8309,466.173a5.98346,5.98346,0,0,1,.05-7.586m-2.72,9.918a10.60006,10.60006,0,0,1,.036-12.228m-2.815,14.582a15.41408,15.41408,0,0,1,.027-16.915"/>
  </g>
  <g class="cls-3">
    <path class="cls-20" d="M37.7388,367.709v-.796a10.585,10.585,0,0,0-4.308,1.072,7.72941,7.72941,0,0,0-3.024,2.617,8.83158,8.83158,0,0,0-1.369,5.012V488.679a10.58811,10.58811,0,0,0,1.072,4.309,7.742,7.742,0,0,0,2.617,3.023,8.834,8.834,0,0,0,5.012,1.369h45.798a10.58805,10.58805,0,0,0,4.309-1.072,7.72676,7.72676,0,0,0,3.023-2.617,8.82377,8.82377,0,0,0,1.369-5.012V375.614a10.588,10.588,0,0,0-1.072-4.309,7.72677,7.72677,0,0,0-2.617-3.023,8.8237,8.8237,0,0,0-5.012-1.369H37.7388v1.593h45.798a7.2423,7.2423,0,0,1,4.128,1.101,6.68745,6.68745,0,0,1,2.597,3.735,9.65727,9.65727,0,0,1,.336,1.633c.024.208.036.374.041.484l.005.124.001.031V488.679a7.24236,7.24236,0,0,1-1.101,4.128,6.68751,6.68751,0,0,1-3.735,2.597,9.64764,9.64764,0,0,1-1.634.336c-.207.024-.373.036-.483.041l-.124.005-.031.001H37.7388a7.25018,7.25018,0,0,1-4.128-1.101,6.68388,6.68388,0,0,1-2.596-3.735,9.56505,9.56505,0,0,1-.337-1.634c-.024-.207-.035-.373-.041-.483l-.005-.124-.001-.031V375.614a7.242,7.242,0,0,1,1.102-4.128,6.68541,6.68541,0,0,1,3.734-2.597,9.66591,9.66591,0,0,1,1.634-.336c.207-.024.373-.036.484-.042l.123-.004.031-.001Z"/>
    <path class="cls-20" d="M214.668,367.709v-.796a10.58811,10.58811,0,0,0-4.308,1.072,7.72925,7.72925,0,0,0-3.024,2.617,8.83941,8.83941,0,0,0-1.369,5.012v43.504a10.60157,10.60157,0,0,0,1.073,4.309,7.73382,7.73382,0,0,0,2.617,3.023,8.83052,8.83052,0,0,0,5.011,1.369h45.218a10.588,10.588,0,0,0,4.309-1.072,7.735,7.735,0,0,0,3.023-2.617,8.826,8.826,0,0,0,1.369-5.012V375.614a10.58811,10.58811,0,0,0-1.072-4.309,7.72689,7.72689,0,0,0-2.617-3.023,8.82364,8.82364,0,0,0-5.012-1.369H214.668v1.593h45.218a7.24235,7.24235,0,0,1,4.128,1.101,6.68755,6.68755,0,0,1,2.597,3.735,9.65926,9.65926,0,0,1,.336,1.633c.024.208.036.373.041.484l.005.124.001.031v43.504a7.24237,7.24237,0,0,1-1.101,4.128,6.68059,6.68059,0,0,1-3.735,2.596,9.57448,9.57448,0,0,1-1.633.337c-.208.024-.374.035-.484.041l-.124.005-.031.001H214.668a7.23851,7.23851,0,0,1-4.127-1.102,6.68049,6.68049,0,0,1-2.597-3.734,9.47331,9.47331,0,0,1-.336-1.634c-.024-.207-.036-.373-.042-.484l-.005-.123V375.614a7.23456,7.23456,0,0,1,1.101-4.128,6.68869,6.68869,0,0,1,3.734-2.597,9.68522,9.68522,0,0,1,1.634-.336c.207-.024.373-.036.484-.042l.123-.004.031-.001Z"/>
    <rect class="cls-47" x="211.55701" y="374.02199" width="6.795" height="6.795"/>
  </g>
  <g class="cls-3">
    <rect class="cls-37" x="211.55701" y="413.91499" width="6.795" height="6.795"/>
  </g>
  <g class="cls-3">
    <rect class="cls-48" x="211.55701" y="393.96799" width="6.795" height="6.795"/>
  </g>
  <g class="cls-51">
    <rect class="cls-8" x="-37.746" y="174.914" width="143.01699" height="199.90199"/>
    <polygon class="cls-9" points="-37.745 242.495 -37.745 262.188 68.475 262.188 78.226 252.34 68.475 242.495 -37.745 242.495"/>
    <polygon class="cls-10" points="-37.745 219.968 -37.745 239.66 63.115 239.66 72.869 229.814 63.115 219.968 -37.745 219.968"/>
    <polygon class="cls-11" points="-37.745 197.441 -37.745 217.132 57.759 217.132 67.514 207.287 57.759 197.441 -37.745 197.441"/>
    <polygon class="cls-12" points="-37.745 174.914 -37.745 194.606 52.426 194.606 62.181 184.76 52.426 174.914 -37.745 174.914"/>
    <polygon class="cls-13" points="-37.745 265.023 -37.745 284.714 74.093 284.714 83.857 274.868 74.093 265.023 -37.745 265.023"/>
    <polygon class="cls-14" points="-37.745 287.547 -37.745 307.24 79.443 307.24 89.211 297.394 79.443 287.547 -37.745 287.547"/>
    <polygon class="cls-15" points="-37.745 310.073 -37.745 329.763 84.793 329.763 94.562 319.917 84.793 310.073 -37.745 310.073"/>
  </g>
  <text class="cls-16" transform="translate(32.39941 189.33429)">A</text>
  <text class="cls-17" transform="translate(42.09473 184.00616)">+++</text>
  <text class="cls-16" transform="translate(32.39941 211.83429)">A</text>
  <text class="cls-17" transform="translate(42.09473 206.50616)">++</text>
  <text class="cls-16" transform="translate(32.39941 234.33429)">A</text>
  <text class="cls-17" transform="translate(42.09473 229.00616)">+</text>
  <text class="cls-16" transform="translate(32.39941 256.83429)">A</text>
  <text class="cls-16" transform="translate(32.39941 279.33038)">B</text>
  <text class="cls-16" transform="translate(32.39941 301.82648)">C</text>
  <text class="cls-16" transform="translate(32.39941 324.32257)">D</text>
  <polyline class="cls-20" points="147.257 124.253 147.257 338.741 148.257 338.741 148.257 124.253"/>
  <g id="spaceHeatingRating">
    <text class="cls-52" transform="translate(101.34912 186.62433)"> </text>
    <polyline id="spaceHeatingRatingArrow" class="cls-53" points="98.79 184.88 111.43 172.12 139.01 172.12 139.01 197.86 111.66 197.86 98.79 184.88"/>
    <text id="spaceHeatingRatingLetter" class="cls-54" transform="translate(107.29004 190.55011)">A</text>
    <text id="spaceHeatingRatingPlusses" class="cls-55" transform="translate(119.62012 184.59015)">+++</text>
  </g>
  <g id="waterHeatingRating">
    <text class="cls-52" transform="translate(233.29883 188.40948)"> </text>
    <polyline id="waterHeatingRatingArrow" class="cls-53" points="230.74 184.88 243.38 172.12 270.96 172.12 270.96 197.86 243.61 197.86 230.74 184.88"/>
    <text id="waterHeatingRatingLetter" class="cls-54" transform="translate(239.24023 190.55011)">A</text>
    <text id="waterHeatingRatingPlusses" class="cls-55" transform="translate(251.57031 184.59015)">+</text>
  </g>
  <text id="declaredLoadProfile" class="cls-56" transform="translate(182.09961 154.49005)">X</text>
  <text transform="translate(223.08984 381.26007)">
    <tspan id="colderKw" class="cls-31">X</tspan> <tspan class="cls-40">kW</tspan>
  </text>
  <text transform="translate(223.08984 402.43976)">
    <tspan id="averageKw" class="cls-39">X</tspan> <tspan class="cls-49">kW</tspan>
  </text>
  <text transform="translate(223.08984 421.42999)">
    <tspan id="warmerKw" class="cls-31">X</tspan> <tspan class="cls-40">kW</tspan>
  </text>
  <g id="insideDbSection">
    <text class="cls-39" transform="translate(60.60693 424.89777)"> </text>
    <text class="cls-40" transform="translate(63.99756 424.89777)">dB</text>
    <g class="cls-57">
      <polygon class="cls-58" points="45.339 407.109 45.339 411.046 74.771 411.046 74.771 390.705 60.054 377.296 45.339 390.705 45.339 407.109"/>
    </g>
    <path class="cls-59" d="M52.7122,401.997q-1.2165-1.08448-2.431-2.168h-1.734v-3.464h1.734q1.215-1.08452,2.431-2.169l1.005-.895v9.594Z"/>
    <path class="cls-44" d="M52.4051,401.24q-.981-.876-1.958-1.747h-1.397v-2.792h1.397q.978-.87,1.958-1.746l.81-.721v7.727Z"/>
    <path class="cls-60" d="M52.4051,401.24q-.981-.876-1.958-1.747h-1.397v-2.792h1.397q.978-.87,1.958-1.746l.81-.721v7.727Z"/>
    <path class="cls-61" d="M55.6287,393.97a6.47126,6.47126,0,0,1,.054,8.208m2.851-10.709a11.47141,11.47141,0,0,1,.039,13.233m2.977-15.757a16.68009,16.68009,0,0,1,.03,18.304"/>
    <text id="insideDb" class="cls-39" transform="translate(45.37988 424.88995)">X</text>
  </g>
  <text id="outsideDb" class="cls-39" transform="translate(45.66992 486.93976)">X</text>
  <text id="supplierLine2" class="cls-62" transform="translate(26.75973 106.30567)">X</text>
  <text id="supplierLine1" class="cls-62" transform="translate(26.75973 95.22461)">X</text>
  <text id="modelLine2" class="cls-62" transform="translate(153.22885 106.30567)">X</text>
  <text id="modelLine1" class="cls-62" transform="translate(153.22885 95.22461)">X</text>
<g id="union-flag" transform="translate(26.965, 26.492) scale(1.602)">
	<path id="blue" fill="#004289" d="M9.59,20L0,26.39V20H9.59z M39.59,0H27.5v8.06L39.59,0z M0,3.61V10h9.59L0,3.61z M17.5,0H5.41
		L17.5,8.06V0z M27.5,30h12.09L27.5,21.94V30z M45,10V3.61L35.41,10H45z M45,26.39V20h-9.59L45,26.39z M5.41,30H17.5v-8.06L5.41,30z
		"/>
	<path id="red" fill="#DC2F34" d="M45,18H25.5v12h-6V18H0v-6h19.5V0h6v12H45V18z M0,2.42L11.38,10h3.61L0,0.01V2.42z M45,27.58
		L33.62,20h-3.61L45,29.99V27.58z M17.5,20.74V20H15L0,30h3.61L17.5,20.74z M27.5,9.26V10H30L45,0h-3.61L27.5,9.26z"/>
</g><path id="energy-heading" d="M7.1581,7.21791H2.33537v3.7413H7.72769v1.90845H0V.13234H7.44305V2.04079H2.33537V5.32836H7.1581Zm3.53413,5.64975V.13234h2.677L16.67314,5.593a37.85159,37.85159,0,0,1,2.18339,4.27032h.038a51.82706,51.82706,0,0,1-.20865-5.29055V.13234h2.1644V12.86766H18.41992L15.07833,7.25572a43.774,43.774,0,0,1-2.2787-4.38342l-.076.0189c.095,1.64379.133,3.32538.133,5.42289v4.55357ZM31.63845,7.21791H26.81573v3.7413h5.392v1.90845H24.48V.13234h7.44305V2.04079H26.81573V5.32836h4.82272ZM35.19126.32139A20.16965,20.16965,0,0,1,38.72282.03781a5.98372,5.98372,0,0,1,3.94949,1.02056,3.228,3.228,0,0,1,1.1012,2.56949,3.347,3.347,0,0,1-2.3357,3.17446V6.859a3.16007,3.16007,0,0,1,1.7851,2.45638,32.106,32.106,0,0,0,1.00653,3.55224H41.83707a16.17761,16.17761,0,0,1-.85455-3.00431c-.37994-1.66269-.96854-2.19171-2.2977-2.22952H37.50764v5.23383H35.19126ZM37.50764,5.933h1.38647c1.57581,0,2.5437-.83119,2.5437-2.09719,0-1.37943-.96789-2.04079-2.487-2.04079a6.74576,6.74576,0,0,0-1.44314.11343Zm19.67341,6.34892A12.70364,12.70364,0,0,1,53.08022,13a6.96331,6.96331,0,0,1-5.032-1.7005,6.3681,6.3681,0,0,1-1.78446-4.68623C46.28243,2.56982,49.1494,0,53.38353,0a8.52961,8.52961,0,0,1,3.3989.60464l-.5126,1.87065a6.6378,6.6378,0,0,0-2.905-.54793c-2.73432,0-4.65207,1.606-4.65207,4.5728,0,2.89088,1.78509,4.61029,4.44342,4.61029a4.91246,4.91246,0,0,0,1.76578-.24577v-3.193H52.66228V5.8388h4.51877Zm6.23045.58573V7.55821L59.36734.13234h2.677l1.51914,3.269c.43661.94462.75924,1.66269,1.11987,2.53169h.038c.304-.81228.66458-1.606,1.10184-2.53169L67.361.13234H70L65.74719,7.50149v5.36617Z" fill="#fff" transform="translate(114.41590461530343, 39.85376885441002) scale(1.602)"/></svg>