<svg xmlns="http://www.w3.org/2000/svg" xmlns:xlink="http://www.w3.org/1999/xlink" id="Layer_1" data-name="Layer 1" width="105mm" height="200mm" viewBox="0 0 297.64001 566.92999" data-rating-increment="17.7" data-supplier-model-chars-per-row="25">
  <defs>
    <style>
      #insideDbSection {
        visibility: hidden;
      }

      #insideDbSection.hasInsideDb {
        visibility: visible;
      }

      .cls-1, .cls-21, .cls-22, .cls-24, .cls-25, .cls-27, .cls-28, .cls-29, .cls-30 {
        fill: none;
      }

      .cls-2 {
        clip-path: url(#clip-path);
      }

      .cls-3 {
        fill: #00aeef;
      }

      .cls-4 {
        fill: #034ea2;
      }

      .cls-5 {
        fill: #fff200;
      }

      .cls-51, .cls-52, .cls-55, .cls-56, .cls-6 {
        fill: #fff;
      }

      .cls-7 {
        font-size: 12px;
      }

      .cls-13, .cls-17, .cls-18, .cls-42, .cls-54, .cls-57, .cls-58, .cls-7 {
        fill: #231f20;
      }

      .cls-13, .cls-18, .cls-56, .cls-57, .cls-58, .cls-7 {
        font-family: Calibri;
      }

      .cls-8 {
        letter-spacing: 0.059em;
      }

      .cls-9 {
        fill: #8ed8f7;
      }

      .cls-10 {
        fill: #05090a;
      }

      .cls-11 {
        fill: #24b9ec;
      }

      .cls-12 {
        fill: #676465;
      }

      .cls-13, .cls-51 {
        font-size: 14px;
      }

      .cls-14 {
        letter-spacing: -0.01604em;
      }

      .cls-15 {
        letter-spacing: -0.01597em;
      }

      .cls-16 {
        letter-spacing: -0.01402em;
      }

      .cls-17 {
        font-size: 20px;
      }

      .cls-17, .cls-42, .cls-51, .cls-52, .cls-55 {
        font-family: Calibri-Bold, Calibri;
        font-weight: 700;
      }

      .cls-18, .cls-56 {
        font-size: 15px;
      }

      .cls-19 {
        letter-spacing: -0.00898em;
      }

      .cls-20 {
        clip-path: url(#clip-path-4);
      }

      .cls-21, .cls-25, .cls-27, .cls-30 {
        stroke: #00aeef;
        stroke-linecap: round;
        stroke-linejoin: round;
      }

      .cls-21 {
        stroke-width: 0.911px;
      }

      .cls-22, .cls-28 {
        stroke: #fff;
      }

      .cls-22 {
        stroke-width: 0.837px;
      }

      .cls-23 {
        fill: #2aace3;
      }

      .cls-24, .cls-29 {
        stroke: #2aace3;
      }

      .cls-24 {
        stroke-width: 0.64px;
      }

      .cls-25 {
        stroke-width: 1.619px;
      }

      .cls-26 {
        clip-path: url(#clip-path-8);
      }

      .cls-27 {
        stroke-width: 0.958px;
      }

      .cls-28 {
        stroke-width: 0.836px;
      }

      .cls-29 {
        stroke-width: 0.673px;
      }

      .cls-30 {
        stroke-width: 1.703px;
      }

      .cls-31 {
        clip-path: url(#clip-path-10);
      }

      .cls-32 {
        fill: #bde3f9;
      }

      .cls-32, .cls-33, .cls-34, .cls-35, .cls-37 {
        fill-rule: evenodd;
      }

      .cls-33 {
        fill: #5ec4f0;
      }

      .cls-34 {
        fill: #2898d5;
      }

      .cls-35 {
        fill: #1c9ad6;
      }

      .cls-36 {
        fill: #bbe5f5;
      }

      .cls-37, .cls-39 {
        fill: #68bfeb;
      }

      .cls-38 {
        fill: #1174bb;
      }

      .cls-40 {
        letter-spacing: -0.00801em;
      }

      .cls-41 {
        letter-spacing: -0.00794em;
      }

      .cls-42 {
        font-size: 10px;
      }

      .cls-43 {
        clip-path: url(#clip-path-13);
      }

      .cls-44 {
        clip-path: url(#clip-path-14);
      }

      .cls-45 {
        fill: #bfd730;
      }

      .cls-46 {
        fill: #50b848;
      }

      .cls-47 {
        fill: #00a651;
      }

      .cls-48 {
        fill: #fdb913;
      }

      .cls-49 {
        fill: #f37021;
      }

      .cls-50 {
        fill: #ed1c24;
      }

      .cls-52 {
        font-size: 8.162px;
      }

      .cls-53 {
        letter-spacing: 0.01101em;
      }

      .cls-55 {
        font-size: 24px;
      }

      .cls-57 {
        font-size: 15.52px;
      }

      .cls-58 {
        font-size: 10.9046px;
      }
    </style>
    <clipPath id="clip-path">
      <rect class="cls-1" y="0.00098" width="297.638" height="566.92902"/>
    </clipPath>
    <clipPath id="clip-path-4">
      <rect class="cls-1" x="32.775" y="446.22099" width="54.632" height="43.021"/>
    </clipPath>
    <clipPath id="clip-path-8">
      <rect class="cls-1" x="42.576" y="362.86499" width="37.035" height="41.03"/>
    </clipPath>
    <clipPath id="clip-path-10">
      <rect class="cls-1" x="146.69299" y="430.15799" width="85.013" height="93.544"/>
    </clipPath>
    <clipPath id="clip-path-13">
      <rect class="cls-1" x="26.575" y="174.828" width="98.278" height="157.18098"/>
    </clipPath>
    <clipPath id="clip-path-14">
      <rect class="cls-1" x="26.575" y="174.828" width="98.278" height="155.82599"/>
    </clipPath>
  </defs>
  <title>heat-pump-space-heaters</title>
  <g class="cls-2">
    <path class="cls-3" d="M24.0691,16.166v-2a11.7328,11.7328,0,0,0-4.847,1.199,8.94493,8.94493,0,0,0-3.486,3.026,10.03567,10.03567,0,0,0-1.571,5.679V542.861a11.72523,11.72523,0,0,0,1.199,4.846,8.94088,8.94088,0,0,0,3.026,3.487,10.03328,10.03328,0,0,0,5.679,1.571h249.5a11.72477,11.72477,0,0,0,4.846-1.199,8.94834,8.94834,0,0,0,3.487-3.026,10.03579,10.03579,0,0,0,1.571-5.679V24.07007a11.72489,11.72489,0,0,0-1.199-4.846,8.9403,8.9403,0,0,0-3.026-3.487,10.03558,10.03558,0,0,0-5.679-1.571h-249.5v4h249.5a6.04592,6.04592,0,0,1,3.46.899,4.73306,4.73306,0,0,1,1.355,1.397,7.1815,7.1815,0,0,1,.95,2.468,8.2401,8.2401,0,0,1,.124.878c.008.103.012.18.013.226l.002.044v.003l1.189-.011h-1.189v.011l1.189-.011h-1.189V542.861a6.044,6.044,0,0,1-.899,3.46,4.71289,4.71289,0,0,1-1.398,1.355,7.1712,7.1712,0,0,1-2.467.95,7.98148,7.98148,0,0,1-.878.124c-.103.008-.181.012-.226.014l-.044.001h-.003l.011,1.191v-1.191h-.011l.011,1.191v-1.191h-249.5a6.04356,6.04356,0,0,1-3.46-.899,4.70964,4.70964,0,0,1-1.355-1.397,7.20526,7.20526,0,0,1-.951-2.46795,8.14846,8.14846,0,0,1-.123-.87805c-.008-.103-.012-.18-.014-.226l-.001-.044v-.003l-1.193.011h1.193v-.011l-1.193.011h1.193V24.07007a6.046,6.046,0,0,1,.899-3.46,4.70921,4.70921,0,0,1,1.397-1.355,7.18171,7.18171,0,0,1,2.468-.95,7.95158,7.95158,0,0,1,.878-.124c.103-.008.18-.012.226-.014l.044-.001h.003l-.011-1.18995V18.166h.011l-.011-1.18995V16.166Z"/>
    <rect class="cls-4" x="26.965" y="26.492" width="71.139" height="48.06"/>
    <rect class="cls-3" x="100.45599" y="26.492" width="170.28799" height="48.06"/>
    <polygon class="cls-5" points="77.239 42.515 78.768 41.391 76.878 41.391 76.294 39.573 75.71 41.391 73.82 41.391 75.349 42.515 74.765 44.334 76.294 43.21 77.823 44.334 77.239 42.515"/>
    <polygon class="cls-5" points="71.287 36.748 72.816 35.624 70.926 35.624 70.342 33.805 69.758 35.624 67.868 35.624 69.397 36.748 68.813 38.567 70.342 37.443 71.871 38.566 71.287 36.748"/>
    <polygon class="cls-5" points="63.609 34.685 65.138 33.561 63.248 33.561 62.664 31.743 62.08 33.561 60.19 33.561 61.719 34.685 61.135 36.504 62.664 35.38 64.193 36.504 63.609 34.685"/>
    <polygon class="cls-5" points="55.523 36.748 57.052 35.624 55.162 35.624 54.578 33.805 53.994 35.624 52.104 35.624 53.633 36.748 53.049 38.567 54.578 37.442 56.107 38.566 55.523 36.748"/>
    <polygon class="cls-5" points="49.748 42.797 51.277 41.673 49.387 41.673 48.803 39.855 48.219 41.673 46.329 41.673 47.858 42.797 47.274 44.616 48.803 43.492 50.332 44.616 49.748 42.797"/>
    <polygon class="cls-5" points="47.903 50.745 49.432 49.621 47.542 49.621 46.958 47.803 46.374 49.621 44.484 49.621 46.013 50.745 45.429 52.564 46.958 51.439 48.487 52.563 47.903 50.745"/>
    <polygon class="cls-5" points="49.805 58.798 51.334 57.674 49.444 57.674 48.86 55.856 48.276 57.674 46.386 57.674 47.915 58.798 47.331 60.617 48.86 59.493 50.389 60.617 49.805 58.798"/>
    <polygon class="cls-5" points="55.523 64.521 57.052 63.397 55.162 63.397 54.578 61.578 53.994 63.397 52.104 63.397 53.633 64.521 53.049 66.34 54.578 65.215 56.107 66.339 55.523 64.521"/>
    <polygon class="cls-5" points="63.609 66.652 65.137 65.528 63.248 65.528 62.664 63.71 62.08 65.528 60.19 65.528 61.719 66.652 61.135 68.47 62.664 67.347 64.193 68.47 63.609 66.652"/>
    <polygon class="cls-5" points="71.476 64.491 73.005 63.367 71.115 63.367 70.531 61.549 69.947 63.367 68.057 63.367 69.586 64.491 69.002 66.31 70.531 65.186 72.06 66.31 71.476 64.491"/>
    <polygon class="cls-5" points="77.198 58.746 78.727 57.622 76.837 57.622 76.253 55.804 75.669 57.622 73.779 57.622 75.308 58.746 74.724 60.565 76.253 59.441 77.782 60.565 77.198 58.746"/>
    <polygon class="cls-5" points="79.305 50.634 80.834 49.51 78.944 49.51 78.36 47.692 77.776 49.51 75.886 49.51 77.415 50.634 76.831 52.453 78.36 51.328 79.889 52.452 79.305 50.634"/>

































    <polyline class="cls-3" points="26.514 112.593 271.18 112.593 271.18 111.593 26.514 111.593"/>
  </g>
  <text class="cls-7" transform="translate(34.15381 109.38214)"><tspan class="cls-8" xml:space="preserve">                </tspan><tspan x="54.73438" y="0"> </tspan></text>
  <g class="cls-2">
    <path class="cls-3" d="M114.641,347.806v-1a10.76834,10.76834,0,0,0-4.399,1.093,7.939,7.939,0,0,0-3.102,2.686,9.041,9.041,0,0,0-1.403,5.125V520.909a10.77617,10.77617,0,0,0,1.094,4.399,7.92411,7.92411,0,0,0,2.686,3.102,9.02975,9.02975,0,0,0,5.124,1.403h147.61a10.76805,10.76805,0,0,0,4.399-1.093,7.94223,7.94223,0,0,0,3.102-2.687,9.03514,9.03514,0,0,0,1.403-5.124V355.71a10.78219,10.78219,0,0,0-1.094-4.4,7.92833,7.92833,0,0,0-2.686-3.101,9.02967,9.02967,0,0,0-5.124-1.403H114.641v2h147.61a7.03073,7.03073,0,0,1,4.015,1.067,6.47989,6.47989,0,0,1,2.514,3.623,9.27573,9.27573,0,0,1,.329,1.599c.024.203.035.364.041.471l.004.118.001.025v165.2a7.0361,7.0361,0,0,1-1.067,4.015,6.48539,6.48539,0,0,1-3.624,2.515,9.44448,9.44448,0,0,1-1.598.329c-.203.023-.365.035-.471.04l-.118.005H114.641a7.03832,7.03832,0,0,1-4.015-1.067,6.47971,6.47971,0,0,1-2.514-3.623,9.27589,9.27589,0,0,1-.329-1.599c-.024-.203-.035-.364-.041-.471l-.004-.118-.001-.025V355.71a7.03363,7.03363,0,0,1,1.067-4.015,6.48541,6.48541,0,0,1,3.624-2.515,9.4436,9.4436,0,0,1,1.598-.329c.203-.023.365-.035.471-.04l.118-.005h.026Z"/>
    <rect x="28.578" y="122.41699" width="4.016" height="1.133"/>
    <path d="M64.1798,143.994h1.371v.566l-.037-.565.091-.003a2.19564,2.19564,0,0,1,1.056.268,1.64577,1.64577,0,0,1,.614.602,1.98881,1.98881,0,0,1,.253,1.021v2.001h-1.133v-2.001a.86716.86716,0,0,0-.098-.448.581.581,0,0,0-.332-.25,1.18065,1.18065,0,0,0-.36-.059h-.019l-.004-.116.007.116h-.003l-.004-.116.007.116-.018.001h-1.391Z"/>
    <polygon points="29.493 121.654 29.315 121.813 28.009 121.813 27.831 121.654 27.583 119.427 27.726 119.267 29.598 119.267 29.74 119.427 29.493 121.654"/>
    <polyline points="28.125 148.055 28.125 120.868 29.258 120.868 29.258 148.055"/>
    <path class="cls-9" d="M64.4429,145.113a2.14312,2.14312,0,0,1-1.889,1.889,2.17772,2.17772,0,0,1-1.889-1.889V121.169a1.889,1.889,0,0,1,3.778,0v23.944"/>
    <polygon class="cls-10" points="35.917 145.505 33.587 145.883 33.587 143.238 35.917 143.616 35.917 145.505"/>
    <polygon class="cls-9" points="35.917 145.505 38.247 145.883 38.247 143.238 35.917 143.616 35.917 145.505"/>
    <polygon class="cls-9" points="41.82 145.505 39.49 145.883 39.49 143.238 41.82 143.616 41.82 145.505"/>
    <polygon class="cls-9" points="41.82 145.505 44.15 145.883 44.15 143.238 41.82 143.616 41.82 145.505"/>
    <polygon class="cls-9" points="47.74 145.505 45.41 145.883 45.41 143.238 47.74 143.616 47.74 145.505"/>
    <polygon class="cls-9" points="47.74 145.505 50.07 145.883 50.07 143.238 47.74 143.616 47.74 145.505"/>
    <polygon class="cls-9" points="53.643 145.505 51.313 145.883 51.313 143.238 53.643 143.616 53.643 145.505"/>
    <polygon class="cls-9" points="53.643 145.505 55.973 145.883 55.973 143.238 53.643 143.616 53.643 145.505"/>
    <polygon class="cls-9" points="59.736 145.505 57.405 145.883 57.405 143.238 59.736 143.616 59.736 145.505"/>
    <polygon class="cls-9" points="59.736 145.505 62.065 145.883 62.065 143.238 59.736 143.616 59.736 145.505"/>
    <polygon class="cls-10" points="35.917 122.758 33.587 123.136 33.587 120.491 35.917 120.869 35.917 122.758"/>
    <polygon class="cls-9" points="35.917 122.758 38.247 123.136 38.247 120.491 35.917 120.869 35.917 122.758"/>
    <polygon class="cls-9" points="41.82 122.758 39.49 123.136 39.49 120.491 41.82 120.869 41.82 122.758"/>
    <polygon class="cls-9" points="41.82 122.758 44.15 123.136 44.15 120.491 41.82 120.869 41.82 122.758"/>
    <polygon class="cls-9" points="47.74 122.758 45.41 123.136 45.41 120.491 47.74 120.869 47.74 122.758"/>
    <polygon class="cls-9" points="47.74 122.758 50.07 123.136 50.07 120.491 47.74 120.869 47.74 122.758"/>
    <polygon class="cls-9" points="53.643 122.758 51.313 123.136 51.313 120.491 53.643 120.869 53.643 122.758"/>
    <polygon class="cls-9" points="53.643 122.758 55.973 123.136 55.973 120.491 53.643 120.869 53.643 122.758"/>
    <polygon class="cls-11" points="53.643 122.417 54.808 122.659 54.808 120.967 53.643 121.209 53.643 122.417"/>
    <polygon class="cls-9" points="59.736 122.758 57.405 123.136 57.405 120.491 59.736 120.869 59.736 122.758"/>
    <polygon class="cls-9" points="59.736 122.758 62.065 123.136 62.065 120.491 59.736 120.869 59.736 122.758"/>
    <polygon class="cls-10" points="53.643 122.758 51.313 123.136 51.313 120.491 53.643 120.869 53.643 122.758"/>
    <polygon class="cls-10" points="53.643 122.758 55.973 123.136 55.973 120.491 53.643 120.869 53.643 122.758"/>
    <path class="cls-12" d="M54.7452,122.646l-1.102-.229v-1.208l1.116-.231a1.34214,1.34214,0,0,0-.014.191v1.477"/>
    <polygon class="cls-10" points="59.398 122.758 57.068 123.136 57.068 120.491 59.398 120.869 59.398 122.758"/>
    <polygon class="cls-10" points="59.398 122.758 61.728 123.136 61.728 120.491 59.398 120.869 59.398 122.758"/>
    <polygon class="cls-12" points="60.562 122.659 60.561 122.659 59.397 122.417 59.397 121.209 60.561 120.968 60.562 120.968 60.562 122.659"/>
    <polygon class="cls-10" points="47.74 122.758 45.41 123.136 45.41 120.491 47.74 120.869 47.74 122.758"/>
    <polygon class="cls-10" points="47.74 122.758 50.07 123.136 50.07 120.491 47.74 120.869 47.74 122.758"/>
    <path class="cls-12" d="M48.8258,122.643l-1.086-.226v-1.208l1.099-.228a1.47213,1.47213,0,0,0-.013.188v1.474"/>
    <polygon class="cls-10" points="41.82 122.758 39.49 123.136 39.49 120.491 41.82 120.869 41.82 122.758"/>
    <polygon class="cls-10" points="41.82 122.758 44.15 123.136 44.15 120.491 41.82 120.869 41.82 122.758"/>
    <path class="cls-12" d="M42.9067,122.643l-1.086-.226v-1.208l1.099-.228a1.47213,1.47213,0,0,0-.013.188v1.474"/>
    <polygon class="cls-10" points="35.917 122.758 33.587 123.136 33.587 120.491 35.917 120.869 35.917 122.758"/>
    <polygon class="cls-10" points="35.917 122.758 38.247 123.136 38.247 120.491 35.917 120.869 35.917 122.758"/>
    <path class="cls-12" d="M36.9874,122.639l-1.071-.222v-1.208l1.084-.225a1.2691,1.2691,0,0,0-.013.185v1.47"/>
    <polygon class="cls-10" points="53.643 145.503 51.313 145.881 51.313 143.236 53.643 143.614 53.643 145.503"/>
    <polygon class="cls-10" points="53.643 145.503 55.973 145.881 55.973 143.236 53.643 143.614 53.643 145.503"/>
    <path class="cls-12" d="M54.7752,145.398l-1.132-.235v-1.208l1.102-.229v1.387a1.3515,1.3515,0,0,0,.03.285"/>
    <polygon class="cls-10" points="59.398 145.503 57.068 145.881 57.068 143.236 59.398 143.614 59.398 145.503"/>
    <polygon class="cls-10" points="59.398 145.503 61.728 145.881 61.728 143.236 59.398 143.614 59.398 145.503"/>
    <polygon class="cls-12" points="60.562 145.404 60.561 145.404 59.397 145.163 59.397 143.955 60.561 143.713 60.562 143.713 60.562 145.404"/>
    <polygon class="cls-10" points="47.74 145.503 45.41 145.881 45.41 143.236 47.74 143.614 47.74 145.503"/>
    <polygon class="cls-10" points="47.74 145.503 50.07 145.881 50.07 143.236 47.74 143.614 47.74 145.503"/>
    <path class="cls-12" d="M48.8551,145.394l-1.115-.231v-1.208l1.086-.225v1.383a1.37352,1.37352,0,0,0,.029.281"/>
    <polygon class="cls-10" points="41.82 145.503 39.49 145.881 39.49 143.236 41.82 143.614 41.82 145.503"/>
    <polygon class="cls-10" points="41.82 145.503 44.15 145.881 44.15 143.236 41.82 143.614 41.82 145.503"/>
    <path class="cls-12" d="M42.936,145.395l-1.116-.232v-1.208l1.087-.226v1.384a1.39055,1.39055,0,0,0,.029.282"/>
    <polygon class="cls-10" points="35.917 145.503 33.587 145.881 33.587 143.236 35.917 143.614 35.917 145.503"/>
    <polygon class="cls-10" points="35.917 145.503 38.247 145.881 38.247 143.236 35.917 143.614 35.917 145.503"/>
    <path class="cls-12" d="M37.0159,145.391l-1.099-.228v-1.208l1.07-.222v1.38a1.35161,1.35161,0,0,0,.029.278"/>
    <path class="cls-10" d="M64.4429,145.113a2.14312,2.14312,0,0,1-1.889,1.889,2.17772,2.17772,0,0,1-1.889-1.889V121.169a1.889,1.889,0,0,1,3.778,0v23.944"/>
    <path class="cls-10" d="M58.5234,145.113a2.14312,2.14312,0,0,1-1.889,1.889,2.17772,2.17772,0,0,1-1.889-1.889V121.169a1.889,1.889,0,0,1,3.778,0v23.944"/>
    <path class="cls-10" d="M52.6041,145.113a2.14312,2.14312,0,0,1-1.889,1.889,2.17772,2.17772,0,0,1-1.889-1.889V121.169a2.18155,2.18155,0,0,1,1.889-1.889,2.18155,2.18155,0,0,1,1.889,1.889v23.944"/>
    <path class="cls-10" d="M46.685,145.113a2.14312,2.14312,0,0,1-1.889,1.889,2.17772,2.17772,0,0,1-1.889-1.889V121.169a2.18155,2.18155,0,0,1,1.889-1.889,2.18251,2.18251,0,0,1,1.889,1.889v23.944"/>
    <path class="cls-10" d="M40.7656,145.113a2.14312,2.14312,0,0,1-1.889,1.889,2.17772,2.17772,0,0,1-1.889-1.889V121.169a2.18156,2.18156,0,0,1,1.889-1.889,2.18251,2.18251,0,0,1,1.889,1.889v23.944"/>
    <path class="cls-10" d="M34.8461,145.113a2.14312,2.14312,0,0,1-1.889,1.889,2.17772,2.17772,0,0,1-1.889-1.889V121.169a2.18155,2.18155,0,0,1,1.889-1.889,2.18155,2.18155,0,0,1,1.889,1.889v23.944"/>
    <path class="cls-12" d="M62.5537,146.766h0a2.02144,2.02144,0,0,1-1.653-1.85V121.469a2.03171,2.03171,0,0,1,1.64-1.849h.013v27.146"/>
    <path class="cls-12" d="M56.6616,146.766h0a2.02353,2.02353,0,0,1-1.653-1.83V121.45a2.03438,2.03438,0,0,1,1.64-1.83h.013v27.146"/>
    <path class="cls-12" d="M50.7699,146.766h0a2.02144,2.02144,0,0,1-1.653-1.85V121.469a2.03171,2.03171,0,0,1,1.64-1.849h.013v27.146"/>
    <path class="cls-12" d="M44.8777,146.766a2.02144,2.02144,0,0,1-1.653-1.85V121.469a2.03171,2.03171,0,0,1,1.64-1.849h.013v27.146"/>
    <path class="cls-12" d="M38.9859,146.766h0a2.02351,2.02351,0,0,1-1.653-1.83V121.45a2.03436,2.03436,0,0,1,1.64-1.83h.013v27.146"/>
    <path class="cls-12" d="M33.0939,146.766h0a2.02144,2.02144,0,0,1-1.653-1.85V121.469a2.03171,2.03171,0,0,1,1.64-1.849h.013v27.146"/>
  </g>
  <text class="cls-13" transform="translate(147.32764 138.06183)"><tspan class="cls-14">5</tspan><tspan x="6.87158" y="0">5</tspan></text>
  <text class="cls-13" transform="translate(161.28516 138.06183)"> </text>
  <text class="cls-13" transform="translate(163.75 138.06183)"><tspan class="cls-15">°</tspan><tspan x="4.52051" y="0">C</tspan></text>
  <text class="cls-13" transform="translate(211.09766 138.06183)"><tspan class="cls-16">3</tspan><tspan x="6.89941" y="0">5</tspan></text>
  <text class="cls-13" transform="translate(225.08398 138.06183)"> </text>
  <text class="cls-13" transform="translate(227.54785 138.06183)"><tspan class="cls-15">°</tspan><tspan x="4.52051" y="0">C</tspan></text>
  <g class="cls-2">
    <path class="cls-3" d="M35.2143,347.806v-1a10.76837,10.76837,0,0,0-4.399,1.093,7.93219,7.93219,0,0,0-3.102,2.686,9.041,9.041,0,0,0-1.403,5.125V520.909a10.77579,10.77579,0,0,0,1.094,4.399,7.92408,7.92408,0,0,0,2.686,3.102,9.02978,9.02978,0,0,0,5.124,1.403h53.465a10.76793,10.76793,0,0,0,4.399-1.093,7.94911,7.94911,0,0,0,3.102-2.687,9.03514,9.03514,0,0,0,1.403-5.124V355.71a10.80128,10.80128,0,0,0-1.094-4.4,7.93675,7.93675,0,0,0-2.686-3.101,9.03215,9.03215,0,0,0-5.124-1.403H35.2143v2h53.465a7.02472,7.02472,0,0,1,4.014,1.067,6.48168,6.48168,0,0,1,2.515,3.623,9.278,9.278,0,0,1,.329,1.599c.024.203.035.364.041.471l.004.118.001.025v165.2a7.04377,7.04377,0,0,1-1.067,4.015,6.48867,6.48867,0,0,1-3.624,2.515,9.4532,9.4532,0,0,1-1.599.329c-.202.023-.364.035-.471.04l-.118.005h-53.49a7.03593,7.03593,0,0,1-4.015-1.067,6.47966,6.47966,0,0,1-2.514-3.623,9.38965,9.38965,0,0,1-.33-1.599c-.023-.203-.034-.364-.04-.471l-.005-.118V355.71a7.03355,7.03355,0,0,1,1.067-4.015,6.48538,6.48538,0,0,1,3.624-2.515,9.4436,9.4436,0,0,1,1.598-.329c.203-.023.364-.035.471-.04l.118-.005h.026Z"/>
  </g>
  <text class="cls-17" transform="translate(61.87256 425.65558)"> </text>
  <text class="cls-17" transform="translate(61.87256 511.77277)"> </text>
  <text class="cls-18" transform="translate(66.38037 511.77277)"><tspan class="cls-19">d</tspan><tspan x="7.74609" y="0">B</tspan></text>
  <g class="cls-20">
    <path class="cls-21" d="M53.4093,438.441v4.486h33.542V419.745l-16.772-15.282-16.77,15.282Zm0,45.859v4.486h33.542V465.604l-16.772-15.282-16.77,15.282Z"/>
  </g>
  <g class="cls-2">
    <path class="cls-22" d="M47.489,480.579q1.458-1.302,2.917-2.601h2.08v-4.157h-2.08q-1.458-1.299-2.917-2.603l-1.207-1.074v11.511Z"/>
    <path class="cls-23" d="M47.8573,479.669q1.176-1.047,2.349-2.095h1.676v-3.35h-1.676c-.782-.696-1.565-1.397-2.349-2.094l-.972-.867v9.272Z"/>
  </g>
  <g class="cls-20">
    <path class="cls-24" d="M47.8573,479.669q1.176-1.047,2.349-2.095h1.676v-3.35h-1.676c-.782-.696-1.565-1.397-2.349-2.094l-.972-.867v9.272Z"/>
    <path class="cls-25" d="M43.9238,480.797a7.76643,7.76643,0,0,1,.065-9.85m-3.532,12.878a13.76359,13.76359,0,0,1,.047-15.878m-3.655,18.934a20.01309,20.01309,0,0,1,.036-21.963"/>
  </g>
  <g class="cls-2">
    <polyline class="cls-3" points="188.509 119.078 188.509 425.317 189.509 425.317 189.509 119.078"/>
  </g>
  <g class="cls-31">
    <rect class="cls-6" x="146.69299" y="424.79999" width="89.291" height="111.831"/>
    <rect class="cls-6" x="146.69299" y="424.79999" width="89.291" height="111.83101"/>
  </g>
  <g class="cls-2">
    <polygon class="cls-32" points="179.069 476.279 176.386 479.005 173.318 479.005 172.934 479.393 172.934 491.855 172.169 492.632 167.184 492.244 164.499 489.908 156.448 489.908 154.531 491.855 154.531 501.201 152.613 503.536 152.613 505.483 159.515 512.103 161.048 512.103 162.583 510.545 164.499 512.103 166.417 512.103 180.986 497.306 187.888 497.306 184.054 493.412 181.37 496.138 177.536 492.244 177.536 484.066 179.069 482.509 179.069 476.279"/>
    <polygon class="cls-33" points="179.069 476.279 181.37 475.501 182.521 476.667 184.437 476.667 191.339 469.659 192.489 469.269 200.541 469.269 200.541 471.605 192.873 479.393 192.873 480.951 194.79 482.899 181.754 496.138 177.536 492.244 177.536 484.066 179.069 482.899 179.069 476.279"/>
    <polygon class="cls-34" points="200.158 469.269 200.158 471.605 192.874 479.393 192.874 480.95 194.79 482.898 184.055 493.411 187.505 496.917 190.189 494.192 189.423 493.411 192.106 490.687 194.022 492.633 195.557 492.633 197.09 491.076 197.858 491.076 201.308 494.581 203.993 494.581 207.444 491.076 209.361 491.076 215.878 497.696 215.878 499.253 214.728 500.422 214.728 502.757 218.563 506.653 219.329 506.653 230.065 495.359 230.832 494.192 230.832 492.244 230.45 491.076 225.847 486.792 215.496 486.792 214.728 485.624 214.728 479.005 217.796 475.889 217.796 473.163 217.028 472.384 217.028 471.217 218.945 469.269 219.712 470.048 221.247 470.048 222.78 468.88 222.78 467.322 222.013 466.543 222.013 465.765 223.93 463.818 223.93 453.693 222.78 453.693 220.48 456.419 220.48 461.091 218.563 462.649 218.18 462.649 217.412 461.87 215.878 461.87 214.728 463.038 214.728 464.596 215.878 465.765 213.195 468.49 212.044 467.322 209.361 467.322 207.444 469.269 200.158 469.269"/>
    <polygon class="cls-34" points="193.256 454.082 193.256 445.516 196.324 442.401 197.858 442.401 200.158 444.737 210.125 434.613 211.661 434.613 213.195 436.169 218.18 431.108 219.329 431.108 221.629 433.055 223.164 431.497 225.079 431.497 225.847 432.665 225.847 434.613 224.696 435.78 228.149 440.064 228.149 443.569 224.696 447.073 226.231 449.02 226.231 450.967 225.465 451.746 223.164 451.746 222.013 450.578 221.247 450.578 217.028 454.861 215.878 454.861 214.728 453.693 214.728 452.135 214.344 452.135 214.344 451.356 215.496 449.799 213.96 447.852 213.96 446.294 217.796 442.401 217.796 440.843 216.645 440.064 215.112 440.064 208.593 446.294 208.593 447.463 210.125 449.02 210.125 450.967 208.21 452.525 209.361 453.693 209.361 456.808 205.525 460.702 207.444 462.26 207.444 464.207 204.376 467.322 204.376 467.712 201.308 467.712 200.541 466.932 200.541 465.765 202.459 463.818 200.541 461.481 200.541 460.313 202.459 457.976 202.459 457.197 200.541 456.029 200.541 455.251 194.406 455.251 193.256 454.082"/>
    <polygon class="cls-33" points="196.707 458.755 193.256 461.87 193.256 464.207 197.09 468.49 197.858 468.49 199.775 466.154 200.158 465.764 197.858 463.428 200.158 461.091 197.858 458.755 196.707 458.755"/>
    <polygon class="cls-33" points="181.37 474.332 182.904 472.774 182.904 470.438 180.22 467.711 180.22 456.808 177.153 453.303 175.619 453.303 173.318 455.64 173.318 466.153 181.37 474.332"/>
    <polygon class="cls-32" points="171.401 468.101 171.401 471.605 168.334 474.331 169.484 475.5 180.219 475.5 181.37 474.331 173.318 466.154 171.401 468.101"/>
    <polygon class="cls-32" points="172.168 459.534 169.1 459.534 162.966 466.154 162.966 467.322 164.117 468.491 166.033 468.491 172.552 461.87 172.552 459.923 172.168 459.534"/>
    <polygon class="cls-35" points="177.919 440.064 177.536 440.843 177.536 443.179 177.919 443.568 179.454 443.568 179.837 442.791 179.837 440.843 179.454 440.064 177.919 440.064"/>
    <polygon class="cls-32" points="176.386 507.82 176.386 506.653 177.92 505.093 179.836 505.093 179.836 507.041 177.92 508.598 177.153 508.598 176.386 507.82"/>
    <polygon class="cls-32" points="190.956 502.758 192.106 501.201 193.64 502.758 193.64 505.874 192.489 506.653 191.723 506.653 190.956 505.874 190.956 502.758"/>
    <polygon class="cls-32" points="191.723 507.041 192.489 507.041 193.64 507.819 193.64 511.324 192.489 512.493 192.106 512.493 190.956 511.324 190.956 507.819 191.723 507.041"/>
    <polygon class="cls-32" points="203.993 517.166 210.511 510.935 210.511 508.988 202.843 501.201 199.775 504.316 204.76 509.378 204.76 510.545 201.692 513.661 201.308 514.439 201.308 515.608 201.692 516.777 202.843 517.166 203.993 517.166"/>
    <polygon class="cls-33" points="200.541 493.802 197.857 496.138 203.225 501.201 202.459 501.98 199.775 499.253 197.857 501.201 200.541 503.926 199.775 504.316 192.873 497.306 187.888 497.306 187.122 496.917 189.805 494.191 189.422 493.412 192.107 490.686 194.023 492.632 195.557 492.632 197.091 491.075 197.857 491.075 200.541 493.802"/>
    <polygon class="cls-33" points="216.262 504.315 214.727 505.874 214.727 508.21 215.879 509.377 216.262 509.377 218.562 507.431 219.712 507.431 221.629 509.767 222.014 509.767 229.297 502.368 229.297 500.811 226.998 498.474 219.329 506.262 218.179 506.262 216.262 504.315"/>
    <polygon class="cls-34" points="219.329 512.103 221.629 509.768 219.712 507.431 218.563 507.431 216.262 509.377 218.563 512.103 219.329 512.103"/>
    <polygon class="cls-32" points="220.095 516.776 223.93 513.272 223.93 511.325 222.397 509.768 221.629 509.768 219.329 512.103 218.562 512.103 216.262 509.377 215.878 509.377 214.728 510.546 214.728 513.661 217.796 516.776 220.095 516.776"/>
    <polygon class="cls-32" points="225.848 510.935 225.848 510.546 228.532 510.546 229.297 511.324 229.297 513.271 228.915 513.661 225.848 513.661 225.848 513.271 225.848 510.935"/>
    <polygon class="cls-32" points="222.397 519.502 222.78 519.113 225.465 519.113 226.23 519.892 226.23 521.06 225.847 521.45 222.78 521.45 222.397 521.06 222.397 519.502"/>
    <rect class="cls-36" x="203.60899" y="519.89199" width="0.767" height="1.168"/>
    <polygon class="cls-37" points="160.282 495.749 161.815 494.58 163.349 494.58 166.8 498.085 166.8 500.422 166.034 501.201 164.883 501.201 160.282 496.917 160.282 495.749"/>
    <polygon class="cls-37" points="167.567 503.926 165.65 501.591 163.349 503.926 163.349 505.483 164.117 506.262 166.034 506.262 167.567 504.705 167.567 503.926"/>
    <polygon class="cls-37" points="174.469 498.474 175.235 497.696 175.235 495.749 173.702 494.192 172.552 494.192 170.634 496.139 172.934 498.474 174.469 498.474"/>
    <polygon class="cls-34" points="197.857 501.201 199.775 499.253 202.459 501.979 200.541 503.927 197.857 501.201"/>
    <rect class="cls-38" x="131.94" y="358.153" width="6.593" height="6.59399"/>
    <rect class="cls-36" x="131.94" y="397.32199" width="6.593" height="6.593"/>
    <rect class="cls-39" x="131.94" y="378.37" width="6.593" height="6.59399"/>
  </g>
  <text class="cls-18" transform="translate(141.60693 424.50714)"><tspan class="cls-40">k</tspan><tspan x="6.69873" y="0">W</tspan></text>
  <g class="cls-2">
    <rect class="cls-38" x="214.44299" y="358.153" width="6.593" height="6.59399"/>
    <rect class="cls-36" x="214.44299" y="397.32199" width="6.593" height="6.593"/>
    <rect class="cls-39" x="214.44299" y="378.37" width="6.593" height="6.59399"/>
  </g>
  <text class="cls-18" transform="translate(224.87305 424.50714)"><tspan class="cls-41">k</tspan><tspan x="6.69922" y="0">W</tspan></text>
  <text class="cls-42" transform="translate(26.88818 541.5462)">2015</text>
  <text class="cls-42" transform="translate(231.51855 541.5462)">811/2013</text>
  <g class="cls-43">
    <rect class="cls-6" x="-31.256" y="174.828" width="156.109" height="155.826"/>
  </g>
  <g class="cls-44">
    <rect class="cls-6" x="-31.256" y="174.828" width="156.109" height="155.82599"/>
    <polygon class="cls-5" points="-31.256 227.972 -31.256 242.156 98.349 242.156 105.374 235.065 98.349 227.972 -31.256 227.972"/>
    <polygon class="cls-45" points="-31.256 210.277 -31.256 224.46 94.49 224.46 101.516 217.369 94.49 210.277 -31.256 210.277"/>
    <polygon class="cls-46" points="-31.256 192.555 -31.256 206.738 90.633 206.738 97.657 199.647 90.633 192.555 -31.256 192.555"/>
    <polygon class="cls-47" points="-31.256 174.828 -31.256 189.01 86.791 189.01 93.816 181.919 86.791 174.828 -31.256 174.828"/>
    <polygon class="cls-48" points="-31.256 245.684 -31.256 259.866 102.397 259.866 109.429 252.776 102.397 245.684 -31.256 245.684"/>
    <polygon class="cls-49" points="-31.256 263.373 -31.256 277.557 106.25 277.557 113.285 270.465 106.25 263.373 -31.256 263.373"/>
    <polygon class="cls-50" points="-31.256 281.071 -31.256 295.252 110.103 295.252 117.14 288.16 110.103 281.071 -31.256 281.071"/>
    <polygon class="cls-50" points="-31.256 298.771 -31.256 312.952 113.957 312.952 120.996 305.865 113.957 298.771 -31.256 298.771"/>
    <polygon class="cls-50" points="-31.256 316.47 -31.256 330.654 117.809 330.654 124.853 323.562 117.809 316.47 -31.256 316.47"/>
  </g>
  <text class="cls-51" transform="translate(33.9917 186.52765)"> </text>
  <text class="cls-51" transform="translate(37.15576 186.52765)">A</text>
  <text class="cls-52" transform="translate(45.63232 181.8714)"><tspan class="cls-53">+</tspan><tspan x="4.15479" y="0">+</tspan></text>
  <text class="cls-51" transform="translate(33.9917 204.18683)"> </text>
  <text class="cls-51" transform="translate(37.15576 204.18683)">A</text>
  <text class="cls-52" transform="translate(45.63232 199.53058)">+</text>
  <text class="cls-51" transform="translate(33.9917 223.83527)"> </text>
  <text class="cls-51" transform="translate(37.15576 221.83331)">A</text>
  <text class="cls-51" transform="translate(33.9917 239.47345)"> </text>
  <text class="cls-51" transform="translate(37.15576 239.47345)">B</text>
  <text class="cls-51" transform="translate(33.9917 257.12726)"> </text>
  <text class="cls-51" transform="translate(37.15576 257.12726)">C</text>
  <text class="cls-51" transform="translate(33.9917 274.78107)"> </text>
  <text class="cls-51" transform="translate(37.15576 274.78107)">D</text>
  <text class="cls-51" transform="translate(33.9917 292.43488)"> </text>
  <text class="cls-51" transform="translate(37.15576 292.43488)">E</text>
  <text class="cls-51" transform="translate(33.9917 310.0755)"> </text>
  <text class="cls-51" transform="translate(37.15576 310.0755)">F</text>
  <text class="cls-51" transform="translate(33.9917 327.72882)"> </text>
  <text class="cls-51" transform="translate(37.15576 327.72882)">G</text>
  <g id="mediumTemperatureRating">
    <polyline id="mediumTemperatureRatingArrow" class="cls-54" points="131.33 181.93 147.97 165.12 184.96 165.12 184.96 199.02 148.25 199.02 131.33 181.93"/>
    <text id="mediumTemperatureRatingLetter" class="cls-55" transform="translate(142.66992 189.17023)">A</text>
    <text id="mediumTemperatureRatingPlusses" class="cls-56" transform="translate(158.62988 181.0799)">++</text>
  </g>
  <g id="lowTemperatureRating">
    <polyline id="lowTemperatureRatingArrow" class="cls-54" points="196.55 181.93 213.19 165.12 250.19 165.12 250.19 199.02 213.48 199.02 196.55 181.93"/>
    <text id="lowTemperatureRatingLetter" class="cls-55" transform="translate(207.88965 189.17023)">A</text>
    <text id="lowTemperatureRatingPlusses" class="cls-56" transform="translate(223.84961 181.0799)">++</text>
  </g>
  <text id="mediumTemperatureColderKw" class="cls-57" transform="translate(141.58984 367.51007)">X</text>
  <text id="mediumTemperatureAverageKw" class="cls-17" transform="translate(141.62012 386.50031)">X</text>
  <text id="mediumTemperatureWarmerKw" class="cls-57" transform="translate(141.58984 405.50031)">X</text>
  <text id="lowTemperatureColderKw" class="cls-57" transform="translate(224.87012 367.51007)">X</text>
  <text id="lowTemperatureAverageKw" class="cls-17" transform="translate(224.87012 386.50031)">X</text>
  <text id="lowTemperatureWarmerKw" class="cls-57" transform="translate(224.87012 405.50031)">X</text>
  <g id="insideDbSection">
    <g class="cls-26">
      <polygon class="cls-27" points="43.862 399.073 43.862 403.791 79.133 403.791 79.133 379.414 61.496 363.345 43.862 379.414 43.862 399.073"/>
    </g>
    <g class="cls-2">
      <path class="cls-28" d="M52.6974,392.947q-1.458-1.30049-2.913-2.599h-2.078v-4.151h2.078q1.455-1.299,2.913-2.599l1.205-1.073v11.498Z"/>
      <path class="cls-23" d="M52.3294,392.039q-1.1745-1.04849-2.347-2.094h-1.673V386.6h1.673q1.173-1.044,2.347-2.092l.971-.865v9.261Z"/>
      <path class="cls-29" d="M52.3294,392.039q-1.1745-1.04849-2.347-2.094h-1.673V386.6h1.673q1.173-1.044,2.347-2.092l.971-.865v9.261Z"/>
      <path class="cls-30" d="M56.1921,383.328a7.75368,7.75368,0,0,1,.065,9.836m3.417-12.834a13.7477,13.7477,0,0,1,.046,15.858m3.568-18.882a19.99176,19.99176,0,0,1,.036,21.935"/>
    </g>
    <text id="insideDb" class="cls-17" transform="translate(41.60986 425.64972)">X</text>
    <text class="cls-18" transform="translate(66.38037 425.65558)"><tspan class="cls-19">d</tspan><tspan x="7.74609" y="0">B</tspan></text>
  </g>
  <text id="outsideDb" class="cls-17" transform="translate(41.60986 511.76984)">X</text>
  <text id="supplierLine2" class="cls-58" transform="translate(26.75977 106.30011)">X</text>
  <text id="supplierLine1" class="cls-58" transform="translate(26.75977 95.21906)">X</text>
  <text id="modelLine2" class="cls-58" transform="translate(152.4414 106.30011)">X</text>
  <text id="modelLine1" class="cls-58" transform="translate(152.4414 95.21906)">X</text>
</svg>
