<svg id="Layer_1" data-name="Layer 1" xmlns="http://www.w3.org/2000/svg" xmlns:xlink="http://www.w3.org/1999/xlink" width="105mm" height="200mm" viewBox="0 0 297.64001 566.92999" data-rating-increment-space-heating="17.6875" data-rating-increment-water-heating="22.5833" data-supplier-model-chars-per-row="25">
  <defs>
    <style>
      #offPeakMode {
        visibility: hidden;
      }

      #offPeakMode.hasOffPeakMode {
        visibility: visible;
      }
      
      .cls-1, .cls-44, .cls-45, .cls-47, .cls-48, .cls-58, .cls-59, .cls-60, .cls-61 {
        fill: none;
      }

      .cls-2, .cls-4 {
        fill: #020304;
      }

      .cls-3 {
        clip-path: url(#clip-path);
      }

      .cls-35, .cls-36, .cls-37, .cls-38, .cls-4, .cls-40 {
        fill-rule: evenodd;
      }

      .cls-5 {
        clip-path: url(#clip-path-2);
      }

      .cls-42, .cls-6 {
        font-size: 10px;
      }

      .cls-33, .cls-41, .cls-42, .cls-51, .cls-53, .cls-56, .cls-6, .cls-62 {
        fill: #231f20;
      }

      .cls-16, .cls-19, .cls-20, .cls-41, .cls-51, .cls-54, .cls-56, .cls-6 {
        font-family: Calibri-Bold, Calibri;
        font-weight: 700;
      }

      .cls-7 {
        clip-path: url(#clip-path-3);
      }

      .cls-16, .cls-19, .cls-20, .cls-54, .cls-55, .cls-8 {
        fill: #fff;
      }

      .cls-9 {
        fill: #fff200;
      }

      .cls-10 {
        fill: #bfd730;
      }

      .cls-11 {
        fill: #50b848;
      }

      .cls-12 {
        fill: #00a651;
      }

      .cls-13 {
        fill: #fdb913;
      }

      .cls-14 {
        fill: #f37021;
      }

      .cls-15 {
        fill: #ed1c24;
      }

      .cls-16, .cls-56 {
        font-size: 16px;
      }

      .cls-17 {
        clip-path: url(#clip-path-4);
      }

      .cls-18 {
        clip-path: url(#clip-path-5);
      }

      .cls-19 {
        font-size: 14px;
      }

      .cls-20 {
        font-size: 8.162px;
      }

      .cls-21 {
        letter-spacing: 0.01101em;
      }

      .cls-22 {
        fill: #00aeef;
      }

      .cls-23 {
        fill: #b5e4f9;
      }

      .cls-24 {
        fill: #00c0f0;
      }

      .cls-25 {
        fill: #72d0f3;
      }

      .cls-26 {
        fill: #00c0ee;
      }

      .cls-27 {
        fill: #ddf2fd;
      }

      .cls-28 {
        fill: #8ed8f7;
      }

      .cls-29 {
        fill: #05090a;
      }

      .cls-30 {
        fill: #24b9ec;
      }

      .cls-31 {
        fill: #676465;
      }

      .cls-32 {
        fill: #034ea2;
      }

      .cls-33, .cls-51 {
        font-size: 12px;
      }

      .cls-33, .cls-42, .cls-55, .cls-62 {
        font-family: Calibri;
      }

      .cls-34 {
        letter-spacing: 0.059em;
      }

      .cls-35 {
        fill: #bde3f9;
      }

      .cls-36 {
        fill: #5ec4f0;
      }

      .cls-37 {
        fill: #2898d5;
      }

      .cls-38 {
        fill: #1c9ad6;
      }

      .cls-39 {
        fill: #bbe5f5;
      }

      .cls-40, .cls-50 {
        fill: #68bfeb;
      }

      .cls-41 {
        font-size: 15px;
      }

      .cls-43 {
        clip-path: url(#clip-path-7);
      }

      .cls-44, .cls-48, .cls-58, .cls-61 {
        stroke: #00aeef;
        stroke-linecap: round;
        stroke-linejoin: round;
      }

      .cls-44 {
        stroke-width: 0.702px;
      }

      .cls-45, .cls-59 {
        stroke: #fff;
      }

      .cls-45 {
        stroke-width: 0.645px;
      }

      .cls-46 {
        fill: #2aace3;
      }

      .cls-47, .cls-60 {
        stroke: #2aace3;
      }

      .cls-47 {
        stroke-width: 0.493px;
      }

      .cls-48 {
        stroke-width: 1.247px;
      }

      .cls-49 {
        fill: #1174bb;
      }

      .cls-52 {
        letter-spacing: -0.00496em;
      }

      .cls-54 {
        font-size: 18px;
      }

      .cls-55, .cls-62 {
        font-size: 11px;
      }

      .cls-57 {
        clip-path: url(#clip-path-12);
      }

      .cls-58 {
        stroke-width: 0.8px;
      }

      .cls-59 {
        stroke-width: 0.698px;
      }

      .cls-60 {
        stroke-width: 0.562px;
      }

      .cls-61 {
        stroke-width: 1.421px;
      }
    </style>
    <clipPath id="clip-path">
      <rect class="cls-1" y="0.00098" width="297.638" height="566.92902"/>
    </clipPath>
    <clipPath id="clip-path-2">
      <rect class="cls-1" x="158.59399" y="129.332" width="20.453" height="18.94199"/>
    </clipPath>
    <clipPath id="clip-path-3">
      <rect class="cls-1" x="158.517" y="175.04102" width="68.53799" height="156.04698"/>
    </clipPath>
    <clipPath id="clip-path-4">
      <rect class="cls-1" x="27.086" y="175.03998" width="70.355" height="157.79602"/>
    </clipPath>
    <clipPath id="clip-path-5">
      <rect class="cls-1" x="27.086" y="175.03998" width="70.355" height="155.82602"/>
    </clipPath>
    <clipPath id="clip-path-7">
      <rect class="cls-1" x="39.245" y="441.883" width="42.075" height="30.794"/>
    </clipPath>
    <clipPath id="clip-path-12">
      <rect class="cls-1" x="42.109" y="376.896" width="33.062" height="34.84799"/>
    </clipPath>
  </defs>
  <title>heat-pump-combination-heaters-2015</title>
  <rect class="cls-2" x="162.89944" y="130.92249" width="10.86061" height="1.35352" transform="translate(-0.67896 0.87311) rotate(-0.29659)"/>
  <g class="cls-3">
    <path class="cls-4" d="M164.626,131.599a1.79479,1.79479,0,0,0-1.782-1.81,1.77577,1.77577,0,0,0-1.781,1.81,1.79389,1.79389,0,0,0,1.781,1.81,1.81366,1.81366,0,0,0,1.782-1.81"/>
    <path class="cls-4" d="M175.596,131.599a1.79459,1.79459,0,0,0-1.781-1.81,1.77578,1.77578,0,0,0-1.781,1.81,1.7939,1.7939,0,0,0,1.781,1.81,1.81347,1.81347,0,0,0,1.781-1.81"/>
    <path class="cls-4" d="M170.579,131.599a2.25432,2.25432,0,0,0-2.267-2.267,2.22422,2.22422,0,0,0-2.231,2.267,2.24737,2.24737,0,0,0,2.231,2.267,2.278,2.278,0,0,0,2.267-2.267"/>
    <path class="cls-2" d="M170.578,131.599a2.25432,2.25432,0,0,0-2.267-2.267,2.224,2.224,0,0,0-2.23,2.267,2.24717,2.24717,0,0,0,2.23,2.267,2.278,2.278,0,0,0,2.267-2.267"/>
    <rect class="cls-2" x="167.54401" y="131.63498" width="1.571" height="5.814"/>
  </g>
  <g class="cls-5">
    <path class="cls-4" d="M173.139,140.756a4.81428,4.81428,0,1,0-4.826,5.017,4.907,4.907,0,0,0,4.826-5.017"/>
    <path class="cls-4" d="M172.198,143.703s2.597.352,2.597,1.316v3.255h4.254l-.012-3.913c-.363-4.115-2.407-4.774-6.035-5.924l-1.121-.324.025.507-13.312-.074v5.047l13.604-.11v.22"/>
  </g>
  <text class="cls-6" transform="translate(30.43506 541.5462)">2015</text>
  <text class="cls-6" transform="translate(227.97461 541.5462)">811/2013</text>
  <g class="cls-7">
    <rect class="cls-8" x="94.488" y="175.03998" width="143.01701" height="199.90199"/>
    <rect class="cls-8" x="94.488" y="175.03998" width="143.01701" height="199.90201"/>
    <polygon class="cls-9" points="94.488 242.621 94.488 262.314 200.708 262.314 210.459 252.466 200.708 242.621 94.488 242.621"/>
    <polygon class="cls-10" points="94.488 220.094 94.488 239.786 195.348 239.786 205.103 229.94 195.348 220.094 94.488 220.094"/>
    <polygon class="cls-11" points="94.488 197.567 94.488 217.258 189.993 217.258 199.747 207.413 189.993 197.567 94.488 197.567"/>
    <polygon class="cls-12" points="94.488 175.04 94.488 194.732 184.66 194.732 194.414 184.886 184.66 175.04 94.488 175.04"/>
    <polygon class="cls-13" points="94.488 265.149 94.488 284.84 206.327 284.84 216.091 274.994 206.327 265.149 94.488 265.149"/>
    <polygon class="cls-14" points="94.488 287.673 94.488 307.366 211.676 307.366 221.444 297.52 211.676 287.673 94.488 287.673"/>
    <polygon class="cls-15" points="94.488 310.199 94.488 329.889 217.026 329.889 226.795 320.043 217.026 310.199 94.488 310.199"/>
  </g>
  <text class="cls-16" transform="translate(163.00586 191.45831)"> </text>
  <text class="cls-16" transform="translate(166.6377 189.45831)">A</text>
  <text class="cls-16" transform="translate(163.00586 213.95441)"> </text>
  <text class="cls-16" transform="translate(166.6377 211.95441)">B</text>
  <text class="cls-16" transform="translate(163.00586 236.4505)"> </text>
  <text class="cls-16" transform="translate(166.6377 234.4505)">C</text>
  <text class="cls-16" transform="translate(163.00586 256.94611)"> </text>
  <text class="cls-16" transform="translate(166.6377 256.94611)">D</text>
  <text class="cls-16" transform="translate(163.00586 279.4422)"> </text>
  <text class="cls-16" transform="translate(166.6377 279.4422)">E</text>
  <text class="cls-16" transform="translate(163.00586 301.93781)"> </text>
  <text class="cls-16" transform="translate(166.6377 301.93781)">F</text>
  <text class="cls-16" transform="translate(163.00586 324.4339)"> </text>
  <text class="cls-16" transform="translate(166.6377 324.4339)">G</text>
  <g class="cls-17">
    <rect class="cls-8" x="-58.668" y="175.03998" width="156.10899" height="155.826"/>
  </g>
  <g class="cls-18">
    <rect class="cls-8" x="-58.668" y="175.03998" width="156.10899" height="155.82602"/>
    <polygon class="cls-9" points="-58.668 228.184 -58.668 242.368 70.937 242.368 77.962 235.277 70.937 228.184 -58.668 228.184"/>
    <polygon class="cls-10" points="-58.668 210.49 -58.668 224.673 67.078 224.673 74.104 217.582 67.078 210.49 -58.668 210.49"/>
    <polygon class="cls-11" points="-58.668 192.768 -58.668 206.951 63.221 206.951 70.245 199.86 63.221 192.768 -58.668 192.768"/>
    <polygon class="cls-12" points="-58.668 175.04 -58.668 189.222 59.379 189.222 66.404 182.131 59.379 175.04 -58.668 175.04"/>
    <polygon class="cls-13" points="-58.668 245.896 -58.668 260.078 74.985 260.078 82.017 252.988 74.985 245.896 -58.668 245.896"/>
    <polygon class="cls-14" points="-58.668 263.586 -58.668 277.77 78.838 277.77 85.873 270.678 78.838 263.586 -58.668 263.586"/>
    <polygon class="cls-15" points="-58.668 281.284 -58.668 295.465 82.691 295.465 89.728 288.373 82.691 281.284 -58.668 281.284"/>
    <polygon class="cls-15" points="-58.668 298.984 -58.668 313.165 86.545 313.165 93.584 306.078 86.545 298.984 -58.668 298.984"/>
    <polygon class="cls-15" points="-58.668 316.682 -58.668 330.866 90.397 330.866 97.441 323.774 90.397 316.682 -58.668 316.682"/>
  </g>
  <text class="cls-19" transform="translate(33.9917 186.52765)"> </text>
  <text class="cls-19" transform="translate(37.15576 186.52765)">A</text>
  <text class="cls-20" transform="translate(45.63232 181.8714)"><tspan class="cls-21">+</tspan><tspan x="4.15479" y="0">+</tspan></text>
  <text class="cls-19" transform="translate(33.9917 204.18683)"> </text>
  <text class="cls-19" transform="translate(37.15576 204.18683)">A</text>
  <text class="cls-20" transform="translate(45.63232 199.53058)">+</text>
  <text class="cls-19" transform="translate(33.9917 223.83527)"> </text>
  <text class="cls-19" transform="translate(37.15576 221.83331)">A</text>
  <text class="cls-19" transform="translate(33.9917 239.47345)"> </text>
  <text class="cls-19" transform="translate(37.15576 239.47345)">B</text>
  <text class="cls-19" transform="translate(33.9917 257.12726)"> </text>
  <text class="cls-19" transform="translate(37.15576 257.12726)">C</text>
  <text class="cls-19" transform="translate(33.9917 274.78107)"> </text>
  <text class="cls-19" transform="translate(37.15576 274.78107)">D</text>
  <text class="cls-19" transform="translate(33.9917 292.43488)"> </text>
  <text class="cls-19" transform="translate(37.15576 292.43488)">E</text>
  <text class="cls-19" transform="translate(33.9917 310.0755)"> </text>
  <text class="cls-19" transform="translate(37.15576 310.0755)">F</text>
  <text class="cls-19" transform="translate(33.9917 327.72882)"> </text>
  <text class="cls-19" transform="translate(37.15576 327.72882)">G</text>
  <path class="cls-22" d="M24.0691,16.166V14.17407a11.713,11.713,0,0,0-4.843,1.199,8.92165,8.92165,0,0,0-3.483,3.023,10.02371,10.02371,0,0,0-1.57,5.674V542.861a11.7214,11.7214,0,0,0,1.198,4.843,8.93187,8.93187,0,0,0,3.024,3.483,10.02414,10.02414,0,0,0,5.674,1.57h249.5a11.718,11.718,0,0,0,4.842-1.198,8.94216,8.94216,0,0,0,3.484-3.024,10.03161,10.03161,0,0,0,1.57-5.674V24.07007a11.73429,11.73429,0,0,0-1.199-4.843,8.92851,8.92851,0,0,0-3.023-3.483,10.026,10.026,0,0,0-5.674-1.57h-249.5v3.984h249.5a6.04179,6.04179,0,0,1,3.464.9,4.7289,4.7289,0,0,1,1.358,1.4,7.17741,7.17741,0,0,1,.951,2.471,7.95449,7.95449,0,0,1,.124.879c.008.103.012.18.014.226l.001.044v.003l1.182-.011h-1.182v.011l1.182-.011h-1.182V542.861a6.05566,6.05566,0,0,1-.9,3.465,4.7373,4.7373,0,0,1-1.4,1.357,7.20275,7.20275,0,0,1-2.471.952,8.15833,8.15833,0,0,1-.879.123c-.103.009-.18.012-.226.014l-.044.001h-.003l.011,1.184v-1.184h-.011l.011,1.184v-1.184h-249.5a6.04787,6.04787,0,0,1-3.465-.9,4.72531,4.72531,0,0,1-1.357-1.4,7.19774,7.19774,0,0,1-.952-2.47,8.15877,8.15877,0,0,1-.123-.879c-.009-.104-.012-.181-.014-.227l-.001-.044-.001-.003-1.182.011h1.183l-.001-.011-1.182.011h1.183V24.07007a6.04805,6.04805,0,0,1,.9-3.465,4.72608,4.72608,0,0,1,1.4-1.357,7.20619,7.20619,0,0,1,2.47-.952,8.15134,8.15134,0,0,1,.88-.123c.102-.008.18-.012.226-.014l.044-.001h.003l-.011-1.183v1.183h.011l-.011-1.183v-.809Z"/>
  <g id="offPeakMode">
    <path class="cls-22" d="M214.668,437.271v-.797a10.58833,10.58833,0,0,0-4.308,1.072,7.72911,7.72911,0,0,0-3.024,2.617,8.83941,8.83941,0,0,0-1.369,5.012v43.504a10.59852,10.59852,0,0,0,1.073,4.309,7.72692,7.72692,0,0,0,2.617,3.023,8.83044,8.83044,0,0,0,5.011,1.369h45.218a10.58834,10.58834,0,0,0,4.309-1.072,7.7268,7.7268,0,0,0,3.023-2.617,8.82366,8.82366,0,0,0,1.369-5.012V445.175a10.58811,10.58811,0,0,0-1.072-4.309,7.72689,7.72689,0,0,0-2.617-3.023,8.8316,8.8316,0,0,0-5.012-1.369H214.668v1.593h45.218a7.25025,7.25025,0,0,1,4.128,1.101,6.69087,6.69087,0,0,1,2.597,3.735,9.64846,9.64846,0,0,1,.336,1.634c.024.207.036.373.041.483l.005.124.001.031v43.504a7.24245,7.24245,0,0,1-1.101,4.128,6.68744,6.68744,0,0,1-3.735,2.597,9.65727,9.65727,0,0,1-1.633.336c-.208.024-.374.036-.484.041l-.124.005-.031.001H214.668a7.24657,7.24657,0,0,1-4.127-1.101,6.68589,6.68589,0,0,1-2.597-3.735,9.45513,9.45513,0,0,1-.336-1.634c-.024-.207-.036-.373-.042-.483l-.005-.124V445.175a7.23456,7.23456,0,0,1,1.101-4.128,6.68869,6.68869,0,0,1,3.734-2.597,9.68522,9.68522,0,0,1,1.634-.336c.207-.024.373-.036.484-.041l.123-.005.031-.001Z"/>
    <path class="cls-23" d="M235.73,473.588a3.1365,3.1365,0,0,1-.761-.094l1.934-13.926-12.406-6.388v-.001c2.505-3.707,7.788-7.678,12.599-7.678a13.9364,13.9364,0,0,1,13.939,13.937c0,7.697-5.482,13.938-13.182,13.938-.859,0-1.44.212-2.123.212"/>
    <path class="cls-24" d="M236.967,472.582a13.1725,13.1725,0,1,0-10.897-20.578l-1.264-.86a14.70308,14.70308,0,1,1,12.161,22.967Z"/>
    <polyline class="cls-24" points="237.59 447.916 237.59 459.595 236.061 459.595 236.061 447.916"/>
    <polyline class="cls-24" points="228.509 454.386 237.253 458.888 236.553 460.248 227.809 455.745"/>
    <path class="cls-24" d="M236.902,460.522a1.0835,1.0835,0,1,0-1.085-1.084,1.08487,1.08487,0,0,0,1.085,1.084"/>
    <polyline class="cls-24" points="225.965 478.215 234.732 487.307 233.635 488.365 224.868 479.273"/>
    <polygon class="cls-24" points="234.866 483.441 235.199 488.897 229.798 488.321 229.96 486.805 233.568 487.19 233.345 483.534 234.866 483.441"/>
    <path class="cls-24" d="M226.069,452.004a13.25564,13.25564,0,0,0-.957,1.651l-1.375-.669a14.65954,14.65954,0,0,1,1.069-1.843Zm-1.664,3.423a12.98121,12.98121,0,0,0-.441,1.855l-1.51-.244a14.6881,14.6881,0,0,1,.493-2.073Zm-.61,3.757-.002.225a13.30959,13.30959,0,0,0,.106,1.681l-1.517.193a14.85992,14.85992,0,0,1-.118-1.874l.002-.251Zm.482,3.776a12.98909,12.98909,0,0,0,.646,1.795l-1.397.622a14.678,14.678,0,0,1-.722-2.006Zm1.546,3.478a13.14158,13.14158,0,0,0,1.134,1.536l-1.161.994a14.55438,14.55438,0,0,1-1.265-1.713Zm2.477,2.892a13.14638,13.14638,0,0,0,1.523,1.149l-.83,1.284a14.66123,14.66123,0,0,1-1.7-1.282Zm3.195,2.066a13.0541,13.0541,0,0,0,1.788.664l-.427,1.469a14.55333,14.55333,0,0,1-1.997-.743Zm3.653,1.062a13.30492,13.30492,0,0,0,1.819.124v1.529a14.75992,14.75992,0,0,1-2.028-.139Z"/>
    <path class="cls-24" d="M247.242,486.136a17.54046,17.54046,0,0,0-6.221,0h-3.183v1.841c0,1.171,2.818,2.12,6.294,2.12s6.294-.949,6.294-2.12v-1.841Z"/>
    <path class="cls-24" d="M247.242,486.136l-.032.168a17.3687,17.3687,0,0,0-6.157,0l-.016.003h-3.028v1.67a.93168.93168,0,0,0,.43.691c.887.716,3.112,1.262,5.693,1.257a14.35816,14.35816,0,0,0,4.396-.611,4.3817,4.3817,0,0,0,1.297-.646.93166.93166,0,0,0,.43-.691v-1.67h-3.029l-.016-.003.032-.168v-.171h3.356v2.012a1.26514,1.26514,0,0,1-.56.959c-1.023.806-3.273,1.327-5.906,1.332a14.68024,14.68024,0,0,1-4.505-.63,4.66346,4.66346,0,0,1-1.401-.702,1.26514,1.26514,0,0,1-.56-.959v-2.012h3.355v.171l-.032-.168a17.65654,17.65654,0,0,1,6.286,0l-.033.168v0Z"/>
    <path class="cls-25" d="M237.838,486.136c0,1.171,2.818,2.119,6.294,2.119s6.294-.948,6.294-2.119-2.818-2.12-6.294-2.12-6.294.949-6.294,2.12"/>
    <path class="cls-26" d="M237.838,486.136h.171a.93167.93167,0,0,0,.43.691c.887.716,3.112,1.262,5.693,1.257a14.3242,14.3242,0,0,0,4.396-.612,4.34614,4.34614,0,0,0,1.297-.645.77022.77022,0,0,0,0-1.382c-.887-.716-3.112-1.262-5.693-1.257a14.36253,14.36253,0,0,0-4.396.611,4.38138,4.38138,0,0,0-1.297.646.93167.93167,0,0,0-.43.691h-.342a1.26387,1.26387,0,0,1,.559-.959c1.023-.806,3.273-1.327,5.906-1.332a14.711,14.711,0,0,1,4.505.63,4.65189,4.65189,0,0,1,1.401.702,1.10115,1.10115,0,0,1,0,1.918c-1.023.806-3.273,1.327-5.906,1.332a14.7111,14.7111,0,0,1-4.505-.63,4.6637,4.6637,0,0,1-1.401-.702,1.26384,1.26384,0,0,1-.559-.959Z"/>
    <polyline class="cls-25" points="250.314 486.692 250.314 488.527 250.11 488.527 250.11 486.692"/>
    <polyline class="cls-25" points="249.981 486.941 249.981 488.776 249.777 488.776 249.777 486.941"/>
    <polyline class="cls-25" points="249.644 487.19 249.644 489.025 249.439 489.025 249.439 487.19"/>
    <polyline class="cls-25" points="249.306 487.383 249.306 489.218 249.102 489.218 249.102 487.383"/>
    <polyline class="cls-25" points="248.961 487.561 248.961 489.396 248.756 489.396 248.756 487.561"/>
    <polyline class="cls-25" points="248.575 487.741 248.575 489.576 248.371 489.576 248.371 487.741"/>
    <path class="cls-24" d="M248.81,483.796a17.54051,17.54051,0,0,0-6.221,0h-3.184v1.841c0,1.171,2.819,2.12,6.295,2.12s6.294-.949,6.294-2.12v-1.841Z"/>
    <path class="cls-24" d="M248.81,483.796l-.032.168a17.36865,17.36865,0,0,0-6.157,0l-.016.003h-3.028v1.67a.93316.93316,0,0,0,.43.692c.887.715,3.112,1.262,5.693,1.257a14.35963,14.35963,0,0,0,4.396-.612,4.35828,4.35828,0,0,0,1.297-.645.93316.93316,0,0,0,.43-.692v-1.67h-3.029l-.016-.003.032-.168v-.171h3.355v2.012a1.26067,1.26067,0,0,1-.559.959c-1.023.807-3.273,1.327-5.906,1.332a14.695,14.695,0,0,1-4.506-.629,4.69907,4.69907,0,0,1-1.401-.703,1.26357,1.26357,0,0,1-.559-.959v-2.012h3.355v.171l-.032-.168a17.71781,17.71781,0,0,1,6.286,0l-.033.168v0Z"/>
    <path class="cls-25" d="M239.406,483.796c0,1.171,2.818,2.12,6.294,2.12s6.294-.949,6.294-2.12c0-1.17-2.818-2.119-6.294-2.119s-6.294.949-6.294,2.119"/>
    <path class="cls-26" d="M239.406,483.796h.171a.93165.93165,0,0,0,.43.691c.887.716,3.112,1.262,5.693,1.258a14.35958,14.35958,0,0,0,4.396-.612,4.33437,4.33437,0,0,0,1.297-.646.77021.77021,0,0,0,0-1.382c-.887-.715-3.112-1.262-5.693-1.257a14.355,14.355,0,0,0-4.396.612,4.3585,4.3585,0,0,0-1.297.645.93165.93165,0,0,0-.43.691h-.343a1.26518,1.26518,0,0,1,.56-.959c1.023-.806,3.273-1.327,5.906-1.331a14.6834,14.6834,0,0,1,4.505.629,4.68708,4.68708,0,0,1,1.401.702,1.10115,1.10115,0,0,1,0,1.918c-1.023.806-3.273,1.327-5.906,1.332a14.65,14.65,0,0,1-4.505-.63,4.66394,4.66394,0,0,1-1.401-.702,1.26521,1.26521,0,0,1-.56-.959Z"/>
    <polyline class="cls-25" points="251.882 484.352 251.882 486.187 251.678 486.187 251.678 484.352"/>
    <polyline class="cls-25" points="251.549 484.602 251.549 486.436 251.345 486.436 251.345 484.602"/>
    <polyline class="cls-25" points="251.212 484.851 251.212 486.685 251.007 486.685 251.007 484.851"/>
    <polyline class="cls-25" points="250.874 485.044 250.874 486.879 250.669 486.879 250.669 485.044"/>
    <polyline class="cls-25" points="250.529 485.222 250.529 487.056 250.324 487.056 250.324 485.222"/>
    <polyline class="cls-25" points="250.143 485.401 250.143 487.236 249.939 487.236 249.939 485.401"/>
    <path class="cls-24" d="M247.654,481.635a17.47926,17.47926,0,0,0-6.221,0h-3.184v1.841c0,1.171,2.818,2.119,6.295,2.119,3.476,0,6.294-.948,6.294-2.119v-1.841Z"/>
    <path class="cls-24" d="M247.654,481.635l-.032.168a17.36865,17.36865,0,0,0-6.157,0l-.016.003H238.42v1.67a.93038.93038,0,0,0,.431.691c.887.715,3.112,1.262,5.693,1.257a14.35963,14.35963,0,0,0,4.396-.612,4.35852,4.35852,0,0,0,1.297-.645.93163.93163,0,0,0,.43-.691v-1.67h-3.029l-.016-.003.032-.168v-.172h3.355v2.013a1.26388,1.26388,0,0,1-.559.959c-1.024.806-3.273,1.326-5.906,1.331a14.69465,14.69465,0,0,1-4.506-.629,4.69954,4.69954,0,0,1-1.401-.702,1.26384,1.26384,0,0,1-.559-.959v-2.013h3.355v.172l-.032-.169a17.71781,17.71781,0,0,1,6.286,0l-.033.169v0Z"/>
    <path class="cls-25" d="M238.25,481.634c0,1.171,2.818,2.12,6.294,2.12s6.294-.949,6.294-2.12c0-1.17-2.818-2.119-6.294-2.119s-6.294.949-6.294,2.119"/>
    <path class="cls-26" d="M238.25,481.635h.171a.93331.93331,0,0,0,.43.691c.887.715,3.112,1.262,5.693,1.257a14.35965,14.35965,0,0,0,4.396-.612,4.35859,4.35859,0,0,0,1.297-.645.771.771,0,0,0,0-1.383c-.888-.715-3.112-1.262-5.693-1.257a14.355,14.355,0,0,0-4.396.612,4.3458,4.3458,0,0,0-1.297.645.93324.93324,0,0,0-.43.692h-.343a1.262,1.262,0,0,1,.56-.959c1.023-.806,3.273-1.328,5.906-1.332a14.65,14.65,0,0,1,4.505.63,4.66394,4.66394,0,0,1,1.401.702,1.10213,1.10213,0,0,1,0,1.918c-1.024.805-3.273,1.327-5.906,1.331a14.69461,14.69461,0,0,1-4.506-.629,4.704,4.704,0,0,1-1.4-.702,1.26515,1.26515,0,0,1-.56-.959h.172"/>
    <polyline class="cls-25" points="250.726 482.191 250.726 484.025 250.522 484.025 250.522 482.191"/>
    <polyline class="cls-25" points="250.393 482.44 250.393 484.275 250.189 484.275 250.189 482.44"/>
    <polyline class="cls-25" points="250.056 482.689 250.056 484.524 249.851 484.524 249.851 482.689"/>
    <polyline class="cls-25" points="249.718 482.882 249.718 484.717 249.513 484.717 249.513 482.882"/>
    <polyline class="cls-25" points="249.372 483.06 249.372 484.895 249.168 484.895 249.168 483.06"/>
    <polyline class="cls-25" points="248.987 483.239 248.987 485.074 248.783 485.074 248.783 483.239"/>
    <path class="cls-24" d="M246.975,479.116a17.48416,17.48416,0,0,0-6.222,0h-3.184v1.841c0,1.171,2.819,2.119,6.295,2.119s6.294-.948,6.294-2.119v-1.841h-3.183"/>
    <path class="cls-24" d="M246.975,479.116l-.033.168a17.36311,17.36311,0,0,0-6.156,0l-.016.003h-3.029v1.67a.93165.93165,0,0,0,.43.691c.887.716,3.112,1.262,5.693,1.257a14.3242,14.3242,0,0,0,4.396-.612,4.35779,4.35779,0,0,0,1.297-.645.93168.93168,0,0,0,.43-.691v-1.67h-3.029l-.016-.003.033-.168v-.172h3.354v2.013a1.26379,1.26379,0,0,1-.559.959c-1.023.806-3.273,1.327-5.906,1.332a14.7111,14.7111,0,0,1-4.505-.63,4.68708,4.68708,0,0,1-1.401-.702,1.26519,1.26519,0,0,1-.56-.959v-2.013h3.355v.172l-.032-.169a17.71787,17.71787,0,0,1,6.286,0l-.032.169v0"/>
    <path class="cls-25" d="M237.57,479.116c0,1.171,2.818,2.119,6.294,2.119s6.294-.948,6.294-2.119-2.818-2.12-6.294-2.12-6.294.949-6.294,2.12"/>
    <path class="cls-26" d="M237.57,479.116h.171a.93167.93167,0,0,0,.43.691c.887.715,3.112,1.262,5.693,1.257a14.35485,14.35485,0,0,0,4.396-.612,4.35889,4.35889,0,0,0,1.297-.645.771.771,0,0,0,0-1.383c-.887-.715-3.112-1.261-5.693-1.257a14.35965,14.35965,0,0,0-4.396.612,4.35843,4.35843,0,0,0-1.297.645.93319.93319,0,0,0-.43.692h-.342a1.25937,1.25937,0,0,1,.559-.959c1.023-.806,3.273-1.327,5.906-1.332a14.65021,14.65021,0,0,1,4.505.63,4.6637,4.6637,0,0,1,1.401.702,1.10115,1.10115,0,0,1,0,1.918c-1.023.806-3.273,1.327-5.906,1.331a14.68309,14.68309,0,0,1-4.505-.629,4.68731,4.68731,0,0,1-1.401-.702,1.261,1.261,0,0,1-.559-.959h.171"/>
    <path class="cls-27" d="M247.887,480.372h-.001a.20181.20181,0,0,1-.051-.397c.001,0,.097-.026.247-.075a4.21357,4.21357,0,0,0,.831-.369,1.34642,1.34642,0,0,0,.322-.259l.105-.233v-.012c.006-.055-.092-.201-.318-.339a5.48168,5.48168,0,0,0-1.346-.537,5.87019,5.87019,0,0,0-1.023-.209h-.005a.20028.20028,0,0,1-.201-.194v-.015a.20119.20119,0,0,1,.194-.195h.016a3.97967,3.97967,0,0,1,.651.104,8.415,8.415,0,0,1,1.489.473,2.82415,2.82415,0,0,1,.626.363.75853.75853,0,0,1,.32.528v.001l.001.016v.036a.86347.86347,0,0,1-.326.602,4.30215,4.30215,0,0,1-1.48.705.22865.22865,0,0,1-.051.006m1.452-1.345v-.001l.001.001h-.001"/>
    <polyline class="cls-25" points="250.047 479.672 250.047 481.506 249.842 481.506 249.842 479.672"/>
    <polyline class="cls-25" points="249.713 479.921 249.713 481.756 249.509 481.756 249.509 479.921"/>
    <polyline class="cls-25" points="249.376 480.17 249.376 482.005 249.171 482.005 249.171 480.17"/>
    <polyline class="cls-25" points="249.038 480.363 249.038 482.198 248.834 482.198 248.834 480.363"/>
    <polyline class="cls-25" points="248.693 480.541 248.693 482.376 248.488 482.376 248.488 480.541"/>
    <polyline class="cls-25" points="248.307 480.72 248.307 482.555 248.103 482.555 248.103 480.72"/>
  </g>
  <rect x="27.576" y="128.069" width="4.016" height="1.133"/>
  <path d="M63.1784,149.646h1.372v.566l-.038-.565.091-.003a2.18347,2.18347,0,0,1,1.056.268,1.64562,1.64562,0,0,1,.614.602,1.98877,1.98877,0,0,1,.253,1.021v2.001h-1.133v-2.001a.86694.86694,0,0,0-.098-.448.58092.58092,0,0,0-.332-.25,1.1806,1.1806,0,0,0-.36-.059h-.019l-.004-.116.007.116h-.003l-.004-.116.007.116-.019.001h-1.39Z"/>
  <polygon points="28.491 127.306 28.313 127.465 27.007 127.465 26.829 127.306 26.581 125.079 26.724 124.919 28.596 124.919 28.738 125.079 28.491 127.306"/>
  <polyline points="27.124 153.707 27.124 126.52 28.258 126.52 28.258 153.707"/>
  <path class="cls-28" d="M63.4415,150.765a2.14313,2.14313,0,0,1-1.889,1.889,2.17773,2.17773,0,0,1-1.889-1.889V126.821a1.889,1.889,0,0,1,3.778,0v23.944"/>
  <polygon class="cls-29" points="34.915 151.157 32.585 151.535 32.585 148.89 34.915 149.268 34.915 151.157"/>
  <polygon class="cls-28" points="34.915 151.157 37.245 151.535 37.245 148.89 34.915 149.268 34.915 151.157"/>
  <polygon class="cls-28" points="40.819 151.157 38.489 151.535 38.489 148.89 40.819 149.268 40.819 151.157"/>
  <polygon class="cls-28" points="40.819 151.157 43.149 151.535 43.149 148.89 40.819 149.268 40.819 151.157"/>
  <polygon class="cls-28" points="46.738 151.157 44.408 151.535 44.408 148.89 46.738 149.268 46.738 151.157"/>
  <polygon class="cls-28" points="46.738 151.157 49.068 151.535 49.068 148.89 46.738 149.268 46.738 151.157"/>
  <polygon class="cls-28" points="52.642 151.157 50.312 151.535 50.312 148.89 52.642 149.268 52.642 151.157"/>
  <polygon class="cls-28" points="52.642 151.157 54.972 151.535 54.972 148.89 52.642 149.268 52.642 151.157"/>
  <polygon class="cls-28" points="58.734 151.157 56.404 151.535 56.404 148.89 58.734 149.268 58.734 151.157"/>
  <polygon class="cls-28" points="58.734 151.157 61.064 151.535 61.064 148.89 58.734 149.268 58.734 151.157"/>
  <polygon class="cls-29" points="34.915 128.41 32.585 128.788 32.585 126.143 34.915 126.521 34.915 128.41"/>
  <polygon class="cls-28" points="34.915 128.41 37.245 128.788 37.245 126.143 34.915 126.521 34.915 128.41"/>
  <polygon class="cls-28" points="40.819 128.41 38.489 128.788 38.489 126.143 40.819 126.521 40.819 128.41"/>
  <polygon class="cls-28" points="40.819 128.41 43.149 128.788 43.149 126.143 40.819 126.521 40.819 128.41"/>
  <polygon class="cls-28" points="46.738 128.41 44.408 128.788 44.408 126.143 46.738 126.521 46.738 128.41"/>
  <polygon class="cls-28" points="46.738 128.41 49.068 128.788 49.068 126.143 46.738 126.521 46.738 128.41"/>
  <polygon class="cls-28" points="52.642 128.41 50.312 128.788 50.312 126.143 52.642 126.521 52.642 128.41"/>
  <polygon class="cls-28" points="52.642 128.41 54.972 128.788 54.972 126.143 52.642 126.521 52.642 128.41"/>
  <polygon class="cls-30" points="52.642 128.069 53.807 128.311 53.807 126.62 52.642 126.861 52.642 128.069"/>
  <polygon class="cls-28" points="58.734 128.41 56.404 128.788 56.404 126.143 58.734 126.521 58.734 128.41"/>
  <polygon class="cls-28" points="58.734 128.41 61.064 128.788 61.064 126.143 58.734 126.521 58.734 128.41"/>
  <polygon class="cls-29" points="52.642 128.41 50.312 128.788 50.312 126.143 52.642 126.521 52.642 128.41"/>
  <polygon class="cls-29" points="52.642 128.41 54.972 128.788 54.972 126.143 52.642 126.521 52.642 128.41"/>
  <path class="cls-31" d="M53.7437,128.298l-1.102-.229v-1.208l1.116-.231a1.34225,1.34225,0,0,0-.014.191v1.477"/>
  <polygon class="cls-29" points="58.396 128.41 56.066 128.788 56.066 126.143 58.396 126.521 58.396 128.41"/>
  <polygon class="cls-29" points="58.396 128.41 60.726 128.788 60.726 126.143 58.396 126.521 58.396 128.41"/>
  <polygon class="cls-31" points="59.561 128.311 59.56 128.311 58.396 128.069 58.396 126.861 59.56 126.62 59.561 126.62 59.561 128.311"/>
  <polygon class="cls-29" points="46.738 128.41 44.408 128.788 44.408 126.143 46.738 126.521 46.738 128.41"/>
  <polygon class="cls-29" points="46.738 128.41 49.068 128.788 49.068 126.143 46.738 126.521 46.738 128.41"/>
  <path class="cls-31" d="M47.8243,128.295l-1.086-.226v-1.208l1.099-.228a1.3101,1.3101,0,0,0-.013.188v1.474"/>
  <polygon class="cls-29" points="40.819 128.41 38.489 128.788 38.489 126.143 40.819 126.521 40.819 128.41"/>
  <polygon class="cls-29" points="40.819 128.41 43.149 128.788 43.149 126.143 40.819 126.521 40.819 128.41"/>
  <path class="cls-31" d="M41.9052,128.295l-1.086-.226v-1.208l1.099-.228a1.4721,1.4721,0,0,0-.013.188v1.474"/>
  <polygon class="cls-29" points="34.915 128.41 32.585 128.788 32.585 126.143 34.915 126.521 34.915 128.41"/>
  <polygon class="cls-29" points="34.915 128.41 37.245 128.788 37.245 126.143 34.915 126.521 34.915 128.41"/>
  <path class="cls-31" d="M35.9858,128.291l-1.07-.222v-1.208l1.083-.225a1.269,1.269,0,0,0-.013.185v1.47"/>
  <polygon class="cls-29" points="52.642 151.155 50.312 151.533 50.312 148.888 52.642 149.266 52.642 151.155"/>
  <polygon class="cls-29" points="52.642 151.155 54.972 151.533 54.972 148.888 52.642 149.266 52.642 151.155"/>
  <path class="cls-31" d="M53.7737,151.05l-1.132-.235v-1.208l1.102-.229v1.387a1.35152,1.35152,0,0,0,.03.285"/>
  <polygon class="cls-29" points="58.396 151.155 56.066 151.533 56.066 148.888 58.396 149.266 58.396 151.155"/>
  <polygon class="cls-29" points="58.396 151.155 60.726 151.533 60.726 148.888 58.396 149.266 58.396 151.155"/>
  <polygon class="cls-31" points="59.561 151.056 59.56 151.056 58.396 150.815 58.396 149.607 59.56 149.365 59.561 149.365 59.561 151.056"/>
  <polygon class="cls-29" points="46.738 151.155 44.408 151.533 44.408 148.888 46.738 149.266 46.738 151.155"/>
  <polygon class="cls-29" points="46.738 151.155 49.068 151.533 49.068 148.888 46.738 149.266 46.738 151.155"/>
  <path class="cls-31" d="M47.8536,151.046l-1.116-.231v-1.208l1.087-.226v1.384a1.37354,1.37354,0,0,0,.029.281"/>
  <polygon class="cls-29" points="40.819 151.155 38.489 151.533 38.489 148.888 40.819 149.266 40.819 151.155"/>
  <polygon class="cls-29" points="40.819 151.155 43.149 151.533 43.149 148.888 40.819 149.266 40.819 151.155"/>
  <path class="cls-31" d="M41.9345,151.046l-1.116-.231v-1.208l1.087-.226v1.384a1.37354,1.37354,0,0,0,.029.281"/>
  <polygon class="cls-29" points="34.915 151.155 32.585 151.533 32.585 148.888 34.915 149.266 34.915 151.155"/>
  <polygon class="cls-29" points="34.915 151.155 37.245 151.533 37.245 148.888 34.915 149.266 34.915 151.155"/>
  <path class="cls-31" d="M36.0144,151.043l-1.099-.228v-1.208l1.07-.222v1.38a1.359,1.359,0,0,0,.029.278"/>
  <path class="cls-29" d="M63.4415,150.765a2.14313,2.14313,0,0,1-1.889,1.889,2.17773,2.17773,0,0,1-1.889-1.889V126.821a1.889,1.889,0,0,1,3.778,0v23.944"/>
  <path class="cls-29" d="M57.5221,150.765a2.14313,2.14313,0,0,1-1.889,1.889,2.17774,2.17774,0,0,1-1.889-1.889V126.821a1.889,1.889,0,0,1,3.778,0v23.944"/>
  <path class="cls-29" d="M51.6027,150.765a2.14313,2.14313,0,0,1-1.889,1.889,2.17773,2.17773,0,0,1-1.889-1.889V126.821a2.18154,2.18154,0,0,1,1.889-1.889,2.1825,2.1825,0,0,1,1.889,1.889v23.944"/>
  <path class="cls-29" d="M45.6835,150.765a2.14313,2.14313,0,0,1-1.889,1.889,2.17774,2.17774,0,0,1-1.889-1.889V126.821a2.18155,2.18155,0,0,1,1.889-1.889,2.18154,2.18154,0,0,1,1.889,1.889v23.944"/>
  <path class="cls-29" d="M39.7641,150.765a2.14313,2.14313,0,0,1-1.889,1.889,2.17773,2.17773,0,0,1-1.889-1.889V126.821a2.18154,2.18154,0,0,1,1.889-1.889,2.18154,2.18154,0,0,1,1.889,1.889v23.944"/>
  <path class="cls-29" d="M33.8447,150.765a2.14313,2.14313,0,0,1-1.889,1.889,2.17773,2.17773,0,0,1-1.889-1.889V126.821a2.18154,2.18154,0,0,1,1.889-1.889,2.18154,2.18154,0,0,1,1.889,1.889v23.944"/>
  <path class="cls-31" d="M61.5521,152.418a2.02144,2.02144,0,0,1-1.653-1.85V127.121a2.03173,2.03173,0,0,1,1.64-1.849h.013v27.146"/>
  <path class="cls-31" d="M55.6602,152.418a2.02454,2.02454,0,0,1-1.653-1.83V127.101a2.03336,2.03336,0,0,1,1.639-1.829h.014v27.146"/>
  <path class="cls-31" d="M49.7685,152.418a2.0223,2.0223,0,0,1-1.654-1.85V127.121a2.03173,2.03173,0,0,1,1.64-1.849h.014v27.146"/>
  <path class="cls-31" d="M43.8762,152.418a2.02144,2.02144,0,0,1-1.653-1.85V127.121a2.03189,2.03189,0,0,1,1.639-1.849h.014v27.146"/>
  <path class="cls-31" d="M37.9843,152.418a2.02144,2.02144,0,0,1-1.653-1.85V127.121a2.03189,2.03189,0,0,1,1.639-1.849h.014v27.146"/>
  <path class="cls-31" d="M32.0924,152.418a2.02144,2.02144,0,0,1-1.653-1.85V127.121a2.03189,2.03189,0,0,1,1.639-1.849h.014v27.146"/>
  <rect class="cls-32" x="26.965" y="26.492" width="71.139" height="48.06"/>
  <rect class="cls-22" x="100.45599" y="26.492" width="170.28799" height="48.06"/>
  <polygon class="cls-9" points="77.239 42.515 78.768 41.391 76.878 41.391 76.294 39.573 75.71 41.391 73.82 41.391 75.349 42.515 74.765 44.334 76.294 43.21 77.823 44.334 77.239 42.515"/>
  <polygon class="cls-9" points="71.287 36.748 72.816 35.624 70.926 35.624 70.342 33.805 69.758 35.624 67.868 35.624 69.397 36.748 68.813 38.567 70.342 37.443 71.871 38.566 71.287 36.748"/>
  <polygon class="cls-9" points="63.609 34.685 65.138 33.561 63.248 33.561 62.664 31.743 62.08 33.561 60.19 33.561 61.719 34.685 61.135 36.504 62.664 35.38 64.193 36.504 63.609 34.685"/>
  <polygon class="cls-9" points="55.523 36.748 57.052 35.624 55.162 35.624 54.578 33.805 53.994 35.624 52.104 35.624 53.633 36.748 53.049 38.567 54.578 37.442 56.107 38.566 55.523 36.748"/>
  <polygon class="cls-9" points="49.748 42.797 51.277 41.673 49.387 41.673 48.803 39.855 48.219 41.673 46.329 41.673 47.858 42.797 47.274 44.616 48.803 43.492 50.332 44.616 49.748 42.797"/>
  <polygon class="cls-9" points="47.903 50.745 49.432 49.621 47.542 49.621 46.958 47.803 46.374 49.621 44.484 49.621 46.013 50.745 45.429 52.564 46.958 51.439 48.487 52.563 47.903 50.745"/>
  <polygon class="cls-9" points="49.805 58.798 51.334 57.674 49.444 57.674 48.86 55.856 48.276 57.674 46.386 57.674 47.915 58.798 47.331 60.617 48.86 59.493 50.389 60.617 49.805 58.798"/>
  <polygon class="cls-9" points="55.523 64.521 57.052 63.397 55.162 63.397 54.578 61.578 53.994 63.397 52.104 63.397 53.633 64.521 53.049 66.34 54.578 65.215 56.107 66.339 55.523 64.521"/>
  <polygon class="cls-9" points="63.609 66.652 65.137 65.528 63.248 65.528 62.664 63.71 62.08 65.528 60.19 65.528 61.719 66.652 61.135 68.47 62.664 67.347 64.193 68.47 63.609 66.652"/>
  <polygon class="cls-9" points="71.476 64.491 73.005 63.367 71.115 63.367 70.531 61.549 69.947 63.367 68.057 63.367 69.586 64.491 69.002 66.31 70.531 65.186 72.06 66.31 71.476 64.491"/>
  <polygon class="cls-9" points="77.198 58.746 78.727 57.622 76.837 57.622 76.253 55.804 75.669 57.622 73.779 57.622 75.308 58.746 74.724 60.565 76.253 59.441 77.782 60.565 77.198 58.746"/>
  <polygon class="cls-9" points="79.305 50.634 80.834 49.51 78.944 49.51 78.36 47.692 77.776 49.51 75.886 49.51 77.415 50.634 76.831 52.453 78.36 51.328 79.889 52.452 79.305 50.634"/>
  <polygon class="cls-8" points="121.082 46.107 113.453 46.107 113.453 52.125 121.983 52.125 121.983 55.194 109.758 55.194 109.758 34.711 121.533 34.711 121.533 37.781 113.453 37.781 113.453 43.069 121.082 43.069 121.082 46.107"/>
  <path class="cls-8" d="M126.7293,55.19418V34.71124h4.205l5.227,8.783a56.59573,56.59573,0,0,1,3.454,6.868h.06c-.24-2.735-.331-5.379-.331-8.509v-7.142h3.425V55.19418h-3.815l-5.287-9.026a67.97592,67.97592,0,0,1-3.634-7.051l-.09.031c.15,2.64405.18,5.349.18,8.72205v7.32394Z"/>
  <polygon class="cls-8" points="159.86 46.107 152.23 46.107 152.23 52.125 160.761 52.125 160.761 55.194 148.536 55.194 148.536 34.711 160.311 34.711 160.311 37.781 152.23 37.781 152.23 43.069 159.86 43.069 159.86 46.107"/>
  <path class="cls-8" d="M169.17149,44.04065h2.193c2.492,0,4.054-1.337,4.054-3.373,0-2.249-1.562-3.282-3.965-3.282a10.51347,10.51347,0,0,0-2.282.182Zm-3.665-9.056a34.69454,34.69454,0,0,1,5.587-.425c2.914,0,4.896.486,6.248,1.641a5.21127,5.21127,0,0,1,1.742,4.102,5.45757,5.45757,0,0,1-3.665,5.136v.091c1.442.547,2.313,1.976,2.824,3.951a41.26683,41.26683,0,0,0,1.592,5.714h-3.815a29.21907,29.21907,0,0,1-1.351-4.832c-.571-2.675-1.533-3.526-3.635-3.587h-1.862v8.419h-3.665Z"/>
  <path class="cls-8" d="M200.3192,54.252a19.85434,19.85434,0,0,1-6.518,1.155c-3.425,0-6.008-.881-7.93-2.735a10.20827,10.20827,0,0,1-2.823-7.537c0-6.473,4.565-10.637,11.264-10.637a13.29111,13.29111,0,0,1,5.376.973l-.811,3.009a10.78059,10.78059,0,0,0-4.596-.882c-4.325,0-7.359,2.583-7.359,7.355,0,4.649,2.824,7.415,7.029,7.415a7.01063,7.01063,0,0,0,2.794-.426V46.837h-3.575V43.889h7.149Z"/>
  <path class="cls-8" d="M111.8683,62.615a1.15947,1.15947,0,0,0-1.168-1.294,1.34427,1.34427,0,0,0-1.306,1.294Zm-2.474.935c.035.957.832,1.37,1.734,1.37a4.4707,4.4707,0,0,0,1.56-.239l.209.924a5.576,5.576,0,0,1-1.966.338,2.59755,2.59755,0,0,1-2.901-2.687,2.689,2.689,0,0,1,2.751-2.849,2.34743,2.34743,0,0,1,2.428,2.577,3.0108,3.0108,0,0,1-.047.566Z"/>
  <polygon class="cls-8" points="115.82 60.526 115.82 62.549 117.993 62.549 117.993 60.526 119.415 60.526 119.415 65.823 117.993 65.823 117.993 63.593 115.82 63.593 115.82 65.823 114.398 65.823 114.398 60.526 115.82 60.526"/>
  <path class="cls-8" d="M124.4647,62.615a1.15809,1.15809,0,0,0-1.167-1.294,1.34351,1.34351,0,0,0-1.306,1.294Zm-2.473.935c.035.957.832,1.37,1.734,1.37a4.47072,4.47072,0,0,0,1.56-.239l.208.924a5.56566,5.56566,0,0,1-1.965.338,2.59756,2.59756,0,0,1-2.901-2.687,2.689,2.689,0,0,1,2.751-2.849,2.34743,2.34743,0,0,1,2.428,2.577,3.10026,3.10026,0,0,1-.047.566Z"/>
  <path class="cls-8" d="M128.4292,63.6044a1.29083,1.29083,0,0,0,.046.37,1.271,1.271,0,0,0,1.248.935c.902,0,1.434-.707,1.434-1.751,0-.935-.486-1.697-1.399-1.697a1.30673,1.30673,0,0,0-1.271.99,1.14126,1.14126,0,0,0-.058.337Zm-1.422-1.316c0-.696-.023-1.261-.046-1.762h1.248l.07.816h.023a2.23476,2.23476,0,0,1,1.93-.936,2.4605,2.4605,0,0,1,2.37,2.698,2.58433,2.58433,0,0,1-2.566,2.838,1.89312,1.89312,0,0,1-1.584-.707h-.023v2.741h-1.422Z"/>
  <polygon class="cls-8" points="137.537 60.526 137.537 61.581 135.236 61.581 135.236 65.823 133.815 65.823 133.815 60.526 137.537 60.526"/>
  <path class="cls-8" d="M139.80141,60.5264v1.904c0,.837-.034,1.402-.081,2.142h.035c.3-.62.474-1.011.763-1.566l1.387-2.48h1.722v5.297h-1.352v-1.893c0-.848.034-1.24.092-2.24h-.046c-.277.631-.462,1.011-.74,1.522-.439.783-.948,1.74-1.433,2.611h-1.699v-5.297Z"/>
  <path class="cls-8" d="M148.412,61.35294a4.04735,4.04735,0,0,0-.706-.054c-.624,0-1.26.206-1.26.794,0,.554.706.794,1.26.794.336,0,.521,0,.706-.011Zm1.41,4.47h-1.41v-2.099h-.532a1.14206,1.14206,0,0,0-.867.348,3.41446,3.41446,0,0,0-.694,1.316,3.85046,3.85046,0,0,1-.219.435h-1.526a2.6997,2.6997,0,0,0,.347-.587,4.44507,4.44507,0,0,1,.843-1.523,1.36326,1.36326,0,0,1,.671-.359v-.032c-.671-.065-1.468-.479-1.468-1.305a1.33345,1.33345,0,0,1,.867-1.229,4.85848,4.85848,0,0,1,1.988-.337,16.13688,16.13688,0,0,1,2,.119Z"/>
  <path class="cls-8" d="M154.4324,63.84369a.8297.8297,0,0,1-.867-.859.83929.83929,0,0,1,.878-.859.85922.85922,0,1,1,0,1.718Z"/>
  <path class="cls-8" d="M160.03729,62.9736c-.67-.174-1.04-.587-1.04-1.109,0-.718.763-1.458,2.37-1.458a3.52258,3.52258,0,0,1,1.803.403l-.266.859a3.17965,3.17965,0,0,0-1.364-.316c-.682,0-1.11.262-1.11.631,0,.424.567.598,1.41.609h.613v.892h-.624c-.902.011-1.584.185-1.584.696,0,.501.613.761,1.306.761a4.01231,4.01231,0,0,0,1.584-.369l.208.891a4.54505,4.54505,0,0,1-2.138.479c-1.191,0-2.474-.424-2.474-1.62a1.436,1.436,0,0,1,1.306-1.305Z"/>
  <path class="cls-8" d="M165.21471,60.5264l.902,2.686c.162.468.266.892.404,1.349h.047a9.12336,9.12336,0,0,0,1.179-3.578v-.457h1.329a2.19742,2.19742,0,0,1,.035.402c0,1.502-1.018,3.274-2.046,4.895h-1.376l-2-5.297Z"/>
  <path class="cls-8" d="M171.051,62.9736c-.67-.174-1.04-.587-1.04-1.109,0-.718.763-1.458,2.37-1.458a3.52255,3.52255,0,0,1,1.803.403l-.266.859a3.17964,3.17964,0,0,0-1.364-.316c-.682,0-1.11.262-1.11.631,0,.424.567.598,1.41.609h.613v.892h-.624c-.902.011-1.584.185-1.584.696,0,.501.613.761,1.306.761a4.0124,4.0124,0,0,0,1.584-.369l.208.891a4.54505,4.54505,0,0,1-2.138.479c-1.191,0-2.474-.424-2.474-1.62a1.436,1.436,0,0,1,1.306-1.305Z"/>
  <path class="cls-8" d="M176.7372,63.72372a1.70391,1.70391,0,0,0,.034.348,1.31443,1.31443,0,0,0,1.249.838c.902,0,1.422-.751,1.422-1.751,0-.936-.497-1.653-1.341-1.653-.717,0-1.364.587-1.364,1.805Zm0,1.588v.75a13.57293,13.57293,0,0,0,.081,1.914h-1.376a9.294,9.294,0,0,1-.127-1.892v-2.425a2.99694,2.99694,0,0,1,.959-2.556,2.79478,2.79478,0,0,1,1.919-.696,2.55592,2.55592,0,0,1,2.694,2.719,2.60885,2.60885,0,0,1-2.601,2.817,1.87,1.87,0,0,1-1.526-.631Z"/>
  <path class="cls-8" d="M183.2899,67.9761a11.38843,11.38843,0,0,0-.196-3.056,14.38329,14.38329,0,0,0-1.965-4.394h1.595a12.41438,12.41438,0,0,1,1.503,3.851h.046a8.29846,8.29846,0,0,0,1.063-3.426c0-.207-.011-.316-.011-.425h1.352a2.068,2.068,0,0,1,.023.392,9.05944,9.05944,0,0,1-1.988,4.665.42643.42643,0,0,0-.069.262c.023.532.023,1.402.034,2.131Z"/>
  <path class="cls-8" d="M188.61749,62.9736c-.67-.174-1.04-.587-1.04-1.109,0-.718.763-1.458,2.37-1.458a3.52258,3.52258,0,0,1,1.803.403l-.266.859a3.1834,3.1834,0,0,0-1.364-.316c-.682,0-1.11.262-1.11.631,0,.424.567.598,1.41.609h.613v.892h-.624c-.902.011-1.584.185-1.584.696,0,.501.613.761,1.306.761a4.01231,4.01231,0,0,0,1.584-.369l.208.891a4.54921,4.54921,0,0,1-2.139.479c-1.19,0-2.473-.424-2.473-1.62a1.436,1.436,0,0,1,1.306-1.305Z"/>
  <path class="cls-8" d="M194.3504,64.3331c0,.435.138.609.532.587l-.081.935a1.842,1.842,0,0,1-.613.087c-.763,0-1.271-.304-1.271-1.479v-3.937h1.433Z"/>
  <path class="cls-8" d="M197.0666,63.23441c0,.892.485,1.642,1.26,1.642a1.418,1.418,0,0,0,1.248-1.141,3.45941,3.45941,0,0,0,.046-.62,2.21621,2.21621,0,0,0-.035-.501,1.296,1.296,0,0,0-1.19-1.174c-.798,0-1.329.794-1.329,1.783Zm4.08-2.708c-.069.718-.162,2.349-.162,3.611,0,.598.197.805.544.794l-.093.946a1.782,1.782,0,0,1-.497.065,1.04927,1.04927,0,0,1-1.098-1.033h-.035a2.09307,2.09307,0,0,1-1.861,1.033,2.40156,2.40156,0,0,1-2.323-2.664,2.69679,2.69679,0,0,1,2.543-2.872,1.74211,1.74211,0,0,1,1.618.925h.046c.035-.326.081-.577.127-.805Z"/>
  <path class="cls-8" d="M208.00771,39.05829a10.30769,10.30769,0,1,1,10.307,10.427,10.36842,10.36842,0,0,1-10.307-10.427"/>
  <path class="cls-22" d="M217.6125,42.967V39.372l-2.694-5.028h1.771l1.024,2.213c.291.64.506,1.126.733,1.715h.026c.215-.55.455-1.088.746-1.715l1.024-2.213h1.758l-2.832,4.99v3.633Z"/>
  <path class="cls-8" d="M231.721,39.05829a10.30769,10.30769,0,1,1,10.307,10.427,10.36842,10.36842,0,0,1-10.307-10.427"/>
  <path class="cls-8" d="M208.00771,62.18118a10.3077,10.3077,0,1,1,10.307,10.428,10.3684,10.3684,0,0,1-10.307-10.428"/>
  <rect class="cls-22" x="214.38699" y="57.46701" width="1.556" height="8.62299"/>
  <polygon class="cls-22" points="222.493 62.265 219.281 62.265 219.281 64.798 222.873 64.798 222.873 66.09 217.726 66.09 217.726 57.467 222.683 57.467 222.683 58.76 219.281 58.76 219.281 60.985 222.493 60.985 222.493 62.265"/>
  <path class="cls-8" d="M231.721,62.18118a10.3077,10.3077,0,1,1,10.307,10.428,10.3684,10.3684,0,0,1-10.307-10.428"/>
  <rect class="cls-22" x="234.85699" y="34.34399" width="1.556" height="8.62299"/>
  <path class="cls-22" d="M239.89,34.344h1.556v5.591c0,2.38-1.139,3.173-2.833,3.173a4.09238,4.09238,0,0,1-1.302-.205l.189-1.267a3.36326,3.36326,0,0,0,.962.154c.884,0,1.428-.409,1.428-1.906Z"/>
  <path class="cls-22" d="M247.30058,39.33344l-.67-2.124c-.164-.524-.304-1.113-.43-1.612h-.025c-.126.499-.253,1.101-.405,1.612l-.658,2.124Zm-2.44,1.18994-.734,2.444h-1.605l2.731-8.623h1.985l2.769,8.623h-1.669l-.771-2.444Z"/>
  <rect class="cls-22" x="237.336" y="57.46802" width="1.556" height="8.62299"/>
  <path class="cls-22" d="M244.8228,62.458l-.671-2.124c-.164-.525-.304-1.114-.43-1.612h-.025c-.126.498-.253,1.1-.405,1.612l-.657,2.124Zm-2.441,1.189-.734,2.444h-1.605l2.731-8.623h1.985l2.769,8.623h-1.669l-.771-2.444Z"/>
  <polyline class="cls-22" points="26.514 112.593 271.18 112.593 271.18 111.593 26.514 111.593"/>
  <rect class="cls-1" y="0.00098" width="297.638" height="566.92902"/>
  <text class="cls-33" transform="translate(34.15381 109.38214)"><tspan class="cls-34" xml:space="preserve">                </tspan><tspan x="54.73438" y="0"> </tspan></text>
  <g class="cls-3">
    <polygon class="cls-35" points="134.461 433.569 131.409 436.67 127.919 436.67 127.482 437.111 127.482 451.286 126.611 452.171 120.941 451.729 117.887 449.072 108.728 449.072 106.548 451.286 106.548 461.918 104.366 464.574 104.366 466.789 112.217 474.319 113.961 474.319 115.707 472.547 117.887 474.319 120.068 474.319 136.641 457.487 144.492 457.487 140.131 453.057 137.078 456.159 132.716 451.729 132.716 442.427 134.461 440.655 134.461 433.569"/>
    <polygon class="cls-36" points="134.461 433.569 137.078 432.683 138.386 434.011 140.567 434.011 148.417 426.038 149.726 425.595 158.885 425.595 158.885 428.252 150.163 437.111 150.163 438.883 152.343 441.099 137.515 456.159 132.716 451.729 132.716 442.427 134.461 441.099 134.461 433.569"/>
    <polygon class="cls-37" points="158.45 425.595 158.45 428.252 150.163 437.111 150.163 438.883 152.344 441.098 140.131 453.057 144.056 457.045 147.109 453.945 146.238 453.057 149.291 449.958 151.47 452.172 153.215 452.172 154.96 450.4 155.832 450.4 159.757 454.387 162.811 454.387 166.737 450.4 168.917 450.4 176.331 457.93 176.331 459.702 175.022 461.032 175.022 463.688 179.385 468.12 180.257 468.12 192.469 455.273 193.342 453.945 193.342 451.729 192.907 450.4 187.671 445.527 175.896 445.527 175.022 444.199 175.022 436.67 178.512 433.126 178.512 430.024 177.64 429.138 177.64 427.81 179.82 425.595 180.693 426.481 182.438 426.481 184.182 425.152 184.182 423.38 183.31 422.494 183.31 421.609 185.49 419.394 185.49 407.877 184.182 407.877 181.566 410.977 181.566 416.293 179.385 418.065 178.949 418.065 178.076 417.178 176.331 417.178 175.022 418.507 175.022 420.279 176.331 421.609 173.279 424.709 171.969 423.38 168.917 423.38 166.737 425.595 158.45 425.595"/>
    <polygon class="cls-37" points="150.598 408.32 150.598 398.575 154.088 395.032 155.833 395.032 158.45 397.689 169.787 386.172 171.534 386.172 173.279 387.943 178.949 382.186 180.257 382.186 182.873 384.4 184.619 382.628 186.798 382.628 187.671 383.958 187.671 386.172 186.362 387.501 190.29 392.374 190.29 396.36 186.362 400.347 188.107 402.562 188.107 404.776 187.237 405.662 184.619 405.662 183.31 404.334 182.438 404.334 177.64 409.205 176.331 409.205 175.022 407.877 175.022 406.105 174.587 406.105 174.587 405.218 175.896 403.447 174.15 401.232 174.15 399.46 178.512 395.032 178.512 393.26 177.204 392.374 175.459 392.374 168.044 399.46 168.044 400.79 169.787 402.562 169.787 404.776 167.609 406.548 168.917 407.877 168.917 411.42 164.555 415.85 166.737 417.622 166.737 419.837 163.247 423.38 163.247 423.823 159.757 423.823 158.885 422.937 158.885 421.609 161.067 419.394 158.885 416.735 158.885 415.407 161.067 412.749 161.067 411.863 158.885 410.535 158.885 409.649 151.907 409.649 150.598 408.32"/>
    <polygon class="cls-36" points="154.524 413.635 150.598 417.179 150.598 419.837 154.96 424.709 155.833 424.709 158.014 422.051 158.45 421.608 155.833 418.951 158.45 416.292 155.833 413.635 154.524 413.635"/>
    <polygon class="cls-36" points="137.078 431.354 138.823 429.582 138.823 426.924 135.769 423.823 135.769 411.42 132.28 407.434 130.536 407.434 127.919 410.091 127.919 422.051 137.078 431.354"/>
    <polygon class="cls-35" points="125.738 424.266 125.738 428.252 122.249 431.353 123.557 432.683 135.769 432.683 137.078 431.353 127.918 422.051 125.738 424.266"/>
    <polygon class="cls-35" points="126.611 414.521 123.121 414.521 116.143 422.051 116.143 423.38 117.452 424.71 119.632 424.71 127.047 417.179 127.047 414.964 126.611 414.521"/>
    <polygon class="cls-38" points="133.152 392.374 132.717 393.259 132.717 395.917 133.152 396.36 134.898 396.36 135.334 395.475 135.334 393.259 134.898 392.374 133.152 392.374"/>
    <polygon class="cls-35" points="131.408 469.447 131.408 468.119 133.153 466.345 135.333 466.345 135.333 468.561 133.153 470.332 132.28 470.332 131.408 469.447"/>
    <polygon class="cls-35" points="147.982 463.689 149.29 461.918 151.035 463.689 151.035 467.234 149.726 468.119 148.854 468.119 147.982 467.234 147.982 463.689"/>
    <polygon class="cls-35" points="148.854 468.561 149.726 468.561 151.035 469.446 151.035 473.433 149.726 474.762 149.29 474.762 147.982 473.433 147.982 469.446 148.854 468.561"/>
    <polygon class="cls-35" points="162.811 480.078 170.226 472.991 170.226 470.776 161.504 461.918 158.014 465.461 163.684 471.219 163.684 472.547 160.194 476.091 159.757 476.977 159.757 478.306 160.194 479.635 161.504 480.078 162.811 480.078"/>
    <polygon class="cls-36" points="158.885 453.501 155.832 456.159 161.938 461.918 161.066 462.804 158.014 459.702 155.832 461.918 158.885 465.018 158.014 465.461 150.163 457.487 144.492 457.487 143.621 457.045 146.673 453.944 146.237 453.057 149.291 449.957 151.47 452.171 153.216 452.171 154.96 450.4 155.832 450.4 158.885 453.501"/>
    <polygon class="cls-36" points="176.768 465.461 175.022 467.234 175.022 469.89 176.332 471.219 176.768 471.219 179.385 469.005 180.692 469.005 182.873 471.662 183.31 471.662 191.596 463.246 191.596 461.475 188.981 458.816 180.256 467.675 178.949 467.675 176.768 465.461"/>
    <polygon class="cls-37" points="180.257 474.319 182.873 471.663 180.692 469.004 179.385 469.004 176.768 471.218 179.385 474.319 180.257 474.319"/>
    <polygon class="cls-35" points="181.128 479.635 185.491 475.648 185.491 473.434 183.746 471.662 182.873 471.662 180.256 474.319 179.385 474.319 176.767 471.219 176.332 471.219 175.023 472.548 175.023 476.091 178.513 479.635 181.128 479.635"/>
    <polygon class="cls-35" points="187.672 472.991 187.672 472.548 190.725 472.548 191.595 473.433 191.595 475.648 191.161 476.092 187.672 476.092 187.672 475.648 187.672 472.991"/>
    <polygon class="cls-35" points="183.746 482.735 184.182 482.293 187.236 482.293 188.107 483.179 188.107 484.508 187.671 484.951 184.182 484.951 183.746 484.508 183.746 482.735"/>
    <rect class="cls-39" x="162.375" y="483.17999" width="0.87199" height="1.328"/>
    <polygon class="cls-40" points="113.09 455.716 114.834 454.387 116.578 454.387 120.504 458.374 120.504 461.032 119.632 461.918 118.324 461.918 113.09 457.045 113.09 455.716"/>
    <polygon class="cls-40" points="121.377 465.018 119.195 462.361 116.578 465.018 116.578 466.789 117.452 467.674 119.632 467.674 121.377 465.903 121.377 465.018"/>
    <polygon class="cls-40" points="129.227 458.816 130.099 457.93 130.099 455.716 128.355 453.945 127.047 453.945 124.866 456.159 127.482 458.816 129.227 458.816"/>
    <polygon class="cls-37" points="155.832 461.918 158.013 459.702 161.066 462.803 158.885 465.018 155.832 461.918"/>
  </g>
  <text class="cls-41" transform="translate(60.87256 486.92902)"> </text>
  <text class="cls-42" transform="translate(64.271 486.92902)">dB</text>
  <rect class="cls-1" y="0.00098" width="297.638" height="566.92902"/>
  <g class="cls-43">
    <polygon class="cls-44" points="55.136 468.87 55.136 472.326 80.968 472.326 80.968 454.472 68.051 442.703 55.136 454.472 55.136 468.87"/>
  </g>
  <g class="cls-3">
    <path class="cls-45" d="M50.5764,466.005q1.1235-1.002,2.247-2.003h1.601V460.8h-1.601q-1.1235-1.0005-2.247-2.004l-.93-.827v8.865Z"/>
    <path class="cls-46" d="M50.8601,465.30489q.906-.807,1.809-1.614h1.291v-2.58h-1.291c-.602-.536-1.205-1.076-1.809-1.613l-.749-.668v7.142Z"/>
  </g>
  <g class="cls-43">
    <path class="cls-47" d="M50.8601,465.30489q.906-.807,1.809-1.614h1.291v-2.58h-1.291c-.602-.536-1.205-1.076-1.809-1.613l-.749-.668v7.142Z"/>
    <path class="cls-48" d="M47.8309,466.173a5.98346,5.98346,0,0,1,.05-7.586m-2.72,9.918a10.60006,10.60006,0,0,1,.036-12.228m-2.815,14.582a15.41408,15.41408,0,0,1,.027-16.915"/>
  </g>
  <g class="cls-3">
    <path class="cls-22" d="M37.7388,367.709v-.796a10.585,10.585,0,0,0-4.308,1.072,7.72941,7.72941,0,0,0-3.024,2.617,8.83158,8.83158,0,0,0-1.369,5.012V488.679a10.58811,10.58811,0,0,0,1.072,4.309,7.742,7.742,0,0,0,2.617,3.023,8.834,8.834,0,0,0,5.012,1.369h45.798a10.58805,10.58805,0,0,0,4.309-1.072,7.72676,7.72676,0,0,0,3.023-2.617,8.82377,8.82377,0,0,0,1.369-5.012V375.614a10.588,10.588,0,0,0-1.072-4.309,7.72677,7.72677,0,0,0-2.617-3.023,8.8237,8.8237,0,0,0-5.012-1.369H37.7388v1.593h45.798a7.2423,7.2423,0,0,1,4.128,1.101,6.68745,6.68745,0,0,1,2.597,3.735,9.65727,9.65727,0,0,1,.336,1.633c.024.208.036.374.041.484l.005.124.001.031V488.679a7.24236,7.24236,0,0,1-1.101,4.128,6.68751,6.68751,0,0,1-3.735,2.597,9.64764,9.64764,0,0,1-1.634.336c-.207.024-.373.036-.483.041l-.124.005-.031.001H37.7388a7.25018,7.25018,0,0,1-4.128-1.101,6.68388,6.68388,0,0,1-2.596-3.735,9.56505,9.56505,0,0,1-.337-1.634c-.024-.207-.035-.373-.041-.483l-.005-.124-.001-.031V375.614a7.242,7.242,0,0,1,1.102-4.128,6.68541,6.68541,0,0,1,3.734-2.597,9.66591,9.66591,0,0,1,1.634-.336c.207-.024.373-.036.484-.042l.123-.004.031-.001Z"/>
    <path class="cls-22" d="M214.668,367.709v-.796a10.58811,10.58811,0,0,0-4.308,1.072,7.72925,7.72925,0,0,0-3.024,2.617,8.83941,8.83941,0,0,0-1.369,5.012v43.504a10.60157,10.60157,0,0,0,1.073,4.309,7.73382,7.73382,0,0,0,2.617,3.023,8.83052,8.83052,0,0,0,5.011,1.369h45.218a10.588,10.588,0,0,0,4.309-1.072,7.735,7.735,0,0,0,3.023-2.617,8.826,8.826,0,0,0,1.369-5.012V375.614a10.58811,10.58811,0,0,0-1.072-4.309,7.72689,7.72689,0,0,0-2.617-3.023,8.82364,8.82364,0,0,0-5.012-1.369H214.668v1.593h45.218a7.24235,7.24235,0,0,1,4.128,1.101,6.68755,6.68755,0,0,1,2.597,3.735,9.65926,9.65926,0,0,1,.336,1.633c.024.208.036.373.041.484l.005.124.001.031v43.504a7.24237,7.24237,0,0,1-1.101,4.128,6.68059,6.68059,0,0,1-3.735,2.596,9.57448,9.57448,0,0,1-1.633.337c-.208.024-.374.035-.484.041l-.124.005-.031.001H214.668a7.23851,7.23851,0,0,1-4.127-1.102,6.68049,6.68049,0,0,1-2.597-3.734,9.47331,9.47331,0,0,1-.336-1.634c-.024-.207-.036-.373-.042-.484l-.005-.123V375.614a7.23456,7.23456,0,0,1,1.101-4.128,6.68869,6.68869,0,0,1,3.734-2.597,9.68522,9.68522,0,0,1,1.634-.336c.207-.024.373-.036.484-.042l.123-.004.031-.001Z"/>
    <rect class="cls-49" x="211.55701" y="374.02199" width="6.795" height="6.795"/>
  </g>
  <text class="cls-33" transform="translate(234.81836 381.25714)"> </text>
  <g class="cls-3">
    <rect class="cls-39" x="211.55701" y="413.91499" width="6.795" height="6.795"/>
  </g>
  <text class="cls-33" transform="translate(234.81836 421.43683)"> </text>
  <rect class="cls-50" x="211.55701" y="393.96799" width="6.795" height="6.795"/>
  <text class="cls-41" transform="translate(238.29395 402.42902)"> </text>
  <polyline class="cls-22" points="147.257 124.253 147.257 338.741 148.257 338.741 148.257 124.253"/>
  <g id="spaceHeatingRating">
    <polyline id="spaceHeatingRatingArrow" class="cls-53" points="98.79 182.3 111.43 169.54 139.01 169.54 139.01 195.28 111.66 195.28 98.79 182.3"/>
    <text id="spaceHeatingRatingLetter" class="cls-54" transform="translate(107.29004 187.97003)">A</text>
    <text id="spaceHeatingRatingPlusses" class="cls-55" transform="translate(119.62012 182.01007)">++</text>
  </g>
  <g id="waterHeatingRating">
    <polyline id="waterHeatingRatingArrow" class="cls-53" points="230.74 184.88 243.38 172.12 270.96 172.12 270.96 197.86 243.61 197.86 230.74 184.88"/>
    <text id="waterHeatingRatingLetter" class="cls-54" transform="translate(239.24023 190.55011)">A</text>
    <text id="waterHeatingRatingPlusses" class="cls-55" transform="translate(251.57031 184.59015)"></text>
  </g>
  <text id="declaredLoadProfile" class="cls-56" transform="translate(182.09961 154.49005)">X</text>
  <text transform="translate(223.08984 381.26007)">
    <tspan id="colderKw" class="cls-33">X</tspan> <tspan class="cls-42">kW</tspan>
  </text>  
  <text transform="translate(223.08984 402.43976)">
    <tspan id="averageKw" class="cls-41">X</tspan> <tspan class="cls-51">kW</tspan>
  </text>
  <text transform="translate(223.08984 421.42999)">
    <tspan id="warmerKw" class="cls-33">X</tspan> <tspan class="cls-42">kW</tspan>
  </text>
  <g id="insideDbSection">
    <text class="cls-41" transform="translate(60.60693 424.89777)"> </text>
    <text class="cls-42" transform="translate(63.99756 424.89777)">dB</text>
    <g class="cls-57">
      <polygon class="cls-58" points="45.339 407.109 45.339 411.046 74.771 411.046 74.771 390.705 60.054 377.296 45.339 390.705 45.339 407.109"/>
    </g>
    <path class="cls-59" d="M52.7122,401.997q-1.2165-1.08448-2.431-2.168h-1.734v-3.464h1.734q1.215-1.08452,2.431-2.169l1.005-.895v9.594Z"/>
    <path class="cls-46" d="M52.4051,401.24q-.981-.876-1.958-1.747h-1.397v-2.792h1.397q.978-.87,1.958-1.746l.81-.721v7.727Z"/>
    <path class="cls-60" d="M52.4051,401.24q-.981-.876-1.958-1.747h-1.397v-2.792h1.397q.978-.87,1.958-1.746l.81-.721v7.727Z"/>
    <path class="cls-61" d="M55.6287,393.97a6.47126,6.47126,0,0,1,.054,8.208m2.851-10.709a11.47141,11.47141,0,0,1,.039,13.233m2.977-15.757a16.68009,16.68009,0,0,1,.03,18.304"/>
    <text id="insideDb" class="cls-41" transform="translate(45.37988 424.88995)">X</text>
  </g>
  <text id="outsideDb" class="cls-41" transform="translate(45.66992 486.93976)">X</text>
  <text id="supplierLine2" class="cls-62" transform="translate(26.96511 106.30017)">X</text>
  <text id="supplierLine1" class="cls-62" transform="translate(26.96511 95.21912)">X</text>
  <text id="modelLine2" class="cls-62" transform="translate(153.43423 106.30017)">X</text>
  <text id="modelLine1" class="cls-62" transform="translate(153.43423 95.21912)">X</text>
</svg>
