<svg xmlns="http://www.w3.org/2000/svg" xmlns:xlink="http://www.w3.org/1999/xlink" id="Layer_1" data-name="Layer 1" width="105mm" height="200mm" viewBox="0 0 297.64001 566.92999" data-rating-increment="17.6875" data-supplier-model-chars-per-row="25">
  <defs>
    <style>
      #insideDbSection {
        visibility: hidden;
      }

      #insideDbSection.hasInsideDb {
        visibility: visible;
      }

      .cls-1, .cls-36, .cls-37, .cls-39, .cls-40, .cls-41, .cls-42, .cls-59, .cls-60 {
        fill: none;
      }

      .cls-2 {
        clip-path: url(#clip-path);
      }

      .cls-3 {
        fill: #00aeef;
      }

      .cls-4 {
        fill: #034ea2;
      }

      .cls-5 {
        fill: #fff200;
      }

      .cls-20, .cls-21, .cls-51, .cls-52, .cls-6 {
        fill: #fff;
      }

      .cls-7 {
        font-size: 12px;
      }

      .cls-23, .cls-32, .cls-33, .cls-44, .cls-45, .cls-48, .cls-49, .cls-50, .cls-53, .cls-61, .cls-7 {
        fill: #231f20;
      }

      .cls-23, .cls-33, .cls-44, .cls-52, .cls-61, .cls-7, .cls-45, .cls-53 {
        font-family: Calibri;
      }

      .cls-8 {
        letter-spacing: 0.059em;
      }

      .cls-9 {
        fill: #8ed8f7;
      }

      .cls-10 {
        fill: #05090a;
      }

      .cls-11 {
        fill: #24b9ec;
      }

      .cls-12 {
        fill: #676465;
      }

      .cls-13 {
        clip-path: url(#clip-path-3);
      }

      .cls-14 {
        fill: #bfd730;
      }

      .cls-15 {
        fill: #50b848;
      }

      .cls-16 {
        fill: #00a651;
      }

      .cls-17 {
        fill: #fdb913;
      }

      .cls-18 {
        fill: #f37021;
      }

      .cls-19 {
        fill: #ed1c24;
      }

      .cls-20, .cls-23 {
        font-size: 14px;
      }

      .cls-20, .cls-21, .cls-32, .cls-48, .cls-49, .cls-51 {
        font-family: Calibri-Bold, Calibri;
        font-weight: 700;
      }

      .cls-21 {
        font-size: 8.162px;
      }

      .cls-22 {
        letter-spacing: 0.01101em;
      }

      .cls-24 {
        letter-spacing: -0.01402em;
      }

      .cls-25 {
        letter-spacing: -0.01597em;
      }

      .cls-26 {
        fill: #bde3f9;
      }

      .cls-26, .cls-27, .cls-28, .cls-29, .cls-31 {
        fill-rule: evenodd;
      }

      .cls-27 {
        fill: #5ec4f0;
      }

      .cls-28 {
        fill: #2898d5;
      }

      .cls-29 {
        fill: #1c9ad6;
      }

      .cls-30 {
        fill: #bbe5f5;
      }

      .cls-31, .cls-47 {
        fill: #68bfeb;
      }

      .cls-32 {
        font-size: 20px;
      }

      .cls-33, .cls-52 {
        font-size: 15px;
      }

      .cls-34 {
        letter-spacing: -0.00898em;
      }

      .cls-35 {
        clip-path: url(#clip-path-5);
      }

      .cls-36, .cls-40, .cls-59, .cls-60 {
        stroke: #00aeef;
        stroke-linecap: round;
        stroke-linejoin: round;
      }

      .cls-36 {
        stroke-width: 0.911px;
      }

      .cls-37, .cls-41 {
        stroke: #fff;
      }

      .cls-37 {
        stroke-width: 0.837px;
      }

      .cls-38 {
        fill: #2aace3;
      }

      .cls-39, .cls-42 {
        stroke: #2aace3;
      }

      .cls-39 {
        stroke-width: 0.64px;
      }

      .cls-40 {
        stroke-width: 1.619px;
      }

      .cls-41 {
        stroke-width: 0.836px;
      }

      .cls-42 {
        stroke-width: 0.673px;
      }

      .cls-43 {
        fill: #1174bb;
      }

      .cls-44 {
        font-size: 18px;
      }

      .cls-45, .cls-53 {
        font-size: 13.5px;
      }

      .cls-46 {
        letter-spacing: -0.02206em;
      }

      .cls-48 {
        font-size: 22.5px;
      }

      .cls-49 {
        font-size: 10px;
      }

      .cls-51 {
        font-size: 24px;
      }

      .cls-53, .cls-56 {
        letter-spacing: -0.00094em;
      }

      .cls-54 {
        letter-spacing: -0.00203em;
      }

      .cls-55 {
        letter-spacing: -0.00007em;
      }

      .cls-57 {
        letter-spacing: -0.00101em;
      }

      .cls-58 {
        clip-path: url(#clip-path-10);
      }

      .cls-59 {
        stroke-width: 0.958px;
      }

      .cls-60 {
        stroke-width: 1.703px;
      }

      .cls-61 {
        font-size: 10.9046px;
      }
    </style>
    <clipPath id="clip-path">
      <rect class="cls-1" y="0.00098" width="297.638" height="566.92902"/>
    </clipPath>
    <clipPath id="clip-path-3">
      <rect class="cls-1" x="26.513" y="175.11899" width="135.912" height="163.90601"/>
    </clipPath>
    <clipPath id="clip-path-5">
      <rect class="cls-1" x="32.775" y="446.22099" width="54.632" height="43.021"/>
    </clipPath>
    <clipPath id="clip-path-10">
      <rect class="cls-1" x="42.576" y="362.86499" width="37.035" height="41.03"/>
    </clipPath>
  </defs>
  <title>low-temperature-heat-pump-space-heaters-2015</title>
  <g class="cls-2">
    <path class="cls-3" d="M114.641,347.806v-1a10.76834,10.76834,0,0,0-4.399,1.093,7.939,7.939,0,0,0-3.102,2.686,9.041,9.041,0,0,0-1.403,5.125V520.909a10.77617,10.77617,0,0,0,1.094,4.399,7.92411,7.92411,0,0,0,2.686,3.102,9.02975,9.02975,0,0,0,5.124,1.403h147.61a10.76805,10.76805,0,0,0,4.399-1.093,7.94223,7.94223,0,0,0,3.102-2.687,9.03514,9.03514,0,0,0,1.403-5.124V355.71a10.78219,10.78219,0,0,0-1.094-4.4,7.92833,7.92833,0,0,0-2.686-3.101,9.02967,9.02967,0,0,0-5.124-1.403H114.641v2h147.61a7.03073,7.03073,0,0,1,4.015,1.067,6.47989,6.47989,0,0,1,2.514,3.623,9.27573,9.27573,0,0,1,.329,1.599c.024.203.035.364.041.471l.004.118.001.025v165.2a7.0361,7.0361,0,0,1-1.067,4.015,6.48539,6.48539,0,0,1-3.624,2.515,9.44448,9.44448,0,0,1-1.598.329c-.203.023-.365.035-.471.04l-.118.005H114.641a7.03832,7.03832,0,0,1-4.015-1.067,6.47971,6.47971,0,0,1-2.514-3.623,9.27589,9.27589,0,0,1-.329-1.599c-.024-.203-.035-.364-.041-.471l-.004-.118-.001-.025V355.71a7.03363,7.03363,0,0,1,1.067-4.015,6.48541,6.48541,0,0,1,3.624-2.515,9.4436,9.4436,0,0,1,1.598-.329c.203-.023.365-.035.471-.04l.118-.005h.026Z"/>
    <path class="cls-3" d="M24.0691,16.166v-2a11.7328,11.7328,0,0,0-4.847,1.199,8.94493,8.94493,0,0,0-3.486,3.026,10.03567,10.03567,0,0,0-1.571,5.679V542.861a11.72523,11.72523,0,0,0,1.199,4.846,8.94088,8.94088,0,0,0,3.026,3.487,10.03328,10.03328,0,0,0,5.679,1.571h249.5a11.72477,11.72477,0,0,0,4.846-1.199,8.94834,8.94834,0,0,0,3.487-3.026,10.03579,10.03579,0,0,0,1.571-5.679V24.07007a11.72489,11.72489,0,0,0-1.199-4.846,8.9403,8.9403,0,0,0-3.026-3.487,10.03558,10.03558,0,0,0-5.679-1.571h-249.5v4h249.5a6.04592,6.04592,0,0,1,3.46.899,4.73306,4.73306,0,0,1,1.355,1.397,7.1815,7.1815,0,0,1,.95,2.468,8.2401,8.2401,0,0,1,.124.878c.008.103.012.18.013.226l.002.044v.003l1.189-.011h-1.189v.011l1.189-.011h-1.189V542.861a6.044,6.044,0,0,1-.899,3.46,4.71289,4.71289,0,0,1-1.398,1.355,7.1712,7.1712,0,0,1-2.467.95,7.98148,7.98148,0,0,1-.878.124c-.103.008-.181.012-.226.014l-.044.001h-.003l.011,1.191v-1.191h-.011l.011,1.191v-1.191h-249.5a6.04356,6.04356,0,0,1-3.46-.899,4.70964,4.70964,0,0,1-1.355-1.397,7.20526,7.20526,0,0,1-.951-2.46795,8.14846,8.14846,0,0,1-.123-.87805c-.008-.103-.012-.18-.014-.226l-.001-.044v-.003l-1.193.011h1.193v-.011l-1.193.011h1.193V24.07007a6.046,6.046,0,0,1,.899-3.46,4.70921,4.70921,0,0,1,1.397-1.355,7.18171,7.18171,0,0,1,2.468-.95,7.95158,7.95158,0,0,1,.878-.124c.103-.008.18-.012.226-.014l.044-.001h.003l-.011-1.18995V18.166h.011l-.011-1.18995V16.166Z"/>
    <rect class="cls-4" x="26.965" y="26.492" width="71.139" height="48.06"/>
    <rect class="cls-3" x="100.45599" y="26.492" width="170.28799" height="48.06"/>
    <polygon class="cls-5" points="77.239 42.515 78.768 41.391 76.878 41.391 76.294 39.573 75.71 41.391 73.82 41.391 75.349 42.515 74.765 44.334 76.294 43.21 77.823 44.334 77.239 42.515"/>
    <polygon class="cls-5" points="71.287 36.748 72.816 35.624 70.926 35.624 70.342 33.805 69.758 35.624 67.868 35.624 69.397 36.748 68.813 38.567 70.342 37.443 71.871 38.566 71.287 36.748"/>
    <polygon class="cls-5" points="63.609 34.685 65.138 33.561 63.248 33.561 62.664 31.743 62.08 33.561 60.19 33.561 61.719 34.685 61.135 36.504 62.664 35.38 64.193 36.504 63.609 34.685"/>
    <polygon class="cls-5" points="55.523 36.748 57.052 35.624 55.162 35.624 54.578 33.805 53.994 35.624 52.104 35.624 53.633 36.748 53.049 38.567 54.578 37.442 56.107 38.566 55.523 36.748"/>
    <polygon class="cls-5" points="49.748 42.797 51.277 41.673 49.387 41.673 48.803 39.855 48.219 41.673 46.329 41.673 47.858 42.797 47.274 44.616 48.803 43.492 50.332 44.616 49.748 42.797"/>
    <polygon class="cls-5" points="47.903 50.745 49.432 49.621 47.542 49.621 46.958 47.803 46.374 49.621 44.484 49.621 46.013 50.745 45.429 52.564 46.958 51.439 48.487 52.563 47.903 50.745"/>
    <polygon class="cls-5" points="49.805 58.798 51.334 57.674 49.444 57.674 48.86 55.856 48.276 57.674 46.386 57.674 47.915 58.798 47.331 60.617 48.86 59.493 50.389 60.617 49.805 58.798"/>
    <polygon class="cls-5" points="55.523 64.521 57.052 63.397 55.162 63.397 54.578 61.578 53.994 63.397 52.104 63.397 53.633 64.521 53.049 66.34 54.578 65.215 56.107 66.339 55.523 64.521"/>
    <polygon class="cls-5" points="63.609 66.652 65.137 65.528 63.248 65.528 62.664 63.71 62.08 65.528 60.19 65.528 61.719 66.652 61.135 68.47 62.664 67.347 64.193 68.47 63.609 66.652"/>
    <polygon class="cls-5" points="71.476 64.491 73.005 63.367 71.115 63.367 70.531 61.549 69.947 63.367 68.057 63.367 69.586 64.491 69.002 66.31 70.531 65.186 72.06 66.31 71.476 64.491"/>
    <polygon class="cls-5" points="77.198 58.746 78.727 57.622 76.837 57.622 76.253 55.804 75.669 57.622 73.779 57.622 75.308 58.746 74.724 60.565 76.253 59.441 77.782 60.565 77.198 58.746"/>
    <polygon class="cls-5" points="79.305 50.634 80.834 49.51 78.944 49.51 78.36 47.692 77.776 49.51 75.886 49.51 77.415 50.634 76.831 52.453 78.36 51.328 79.889 52.452 79.305 50.634"/>

































    <polyline class="cls-3" points="26.514 112.593 271.18 112.593 271.18 111.593 26.514 111.593"/>
  </g>
  <text class="cls-7" transform="translate(34.15381 109.38214)"><tspan class="cls-8" xml:space="preserve">                </tspan><tspan x="54.73438" y="0"> </tspan></text>
  <g class="cls-2">
    <rect x="28.781" y="122.89398" width="4.016" height="1.134"/>
    <path d="M64.3831,144.471h1.372v.567l-.038-.566.091-.003a2.19564,2.19564,0,0,1,1.056.268,1.64577,1.64577,0,0,1,.614.602,1.99394,1.99394,0,0,1,.253,1.021v2.001h-1.133V146.36a.86716.86716,0,0,0-.098-.448.581.581,0,0,0-.332-.25,1.18065,1.18065,0,0,0-.36-.059h-.019l-.004-.115.007.115h-.003l-.004-.115.007.115-.019.001h-1.39Z"/>
    <polygon points="29.696 122.131 29.518 122.29 28.212 122.29 28.034 122.131 27.786 119.904 27.929 119.745 29.801 119.745 29.943 119.904 29.696 122.131"/>
    <polyline points="28.329 148.532 28.329 121.345 29.462 121.345 29.462 148.532"/>
    <path class="cls-9" d="M64.6463,145.59a2.14312,2.14312,0,0,1-1.889,1.889,2.17772,2.17772,0,0,1-1.889-1.889V121.646a1.889,1.889,0,0,1,3.778,0V145.59"/>
    <polygon class="cls-10" points="36.12 145.982 33.79 146.36 33.79 143.715 36.12 144.093 36.12 145.982"/>
    <polygon class="cls-9" points="36.12 145.982 38.45 146.36 38.45 143.715 36.12 144.093 36.12 145.982"/>
    <polygon class="cls-9" points="42.024 145.982 39.694 146.36 39.694 143.715 42.024 144.093 42.024 145.982"/>
    <polygon class="cls-9" points="42.024 145.982 44.354 146.36 44.354 143.715 42.024 144.093 42.024 145.982"/>
    <polygon class="cls-9" points="47.943 145.982 45.613 146.36 45.613 143.715 47.943 144.093 47.943 145.982"/>
    <polygon class="cls-9" points="47.943 145.982 50.273 146.36 50.273 143.715 47.943 144.093 47.943 145.982"/>
    <polygon class="cls-9" points="53.846 145.982 51.516 146.36 51.516 143.715 53.846 144.093 53.846 145.982"/>
    <polygon class="cls-9" points="53.846 145.982 56.176 146.36 56.176 143.715 53.846 144.093 53.846 145.982"/>
    <polygon class="cls-9" points="59.939 145.982 57.609 146.36 57.609 143.715 59.939 144.093 59.939 145.982"/>
    <polygon class="cls-9" points="59.939 145.982 62.269 146.36 62.269 143.715 59.939 144.093 59.939 145.982"/>
    <polygon class="cls-10" points="36.12 123.235 33.79 123.613 33.79 120.968 36.12 121.346 36.12 123.235"/>
    <polygon class="cls-9" points="36.12 123.235 38.45 123.613 38.45 120.968 36.12 121.346 36.12 123.235"/>
    <polygon class="cls-9" points="42.024 123.235 39.694 123.613 39.694 120.968 42.024 121.346 42.024 123.235"/>
    <polygon class="cls-9" points="42.024 123.235 44.354 123.613 44.354 120.968 42.024 121.346 42.024 123.235"/>
    <polygon class="cls-9" points="47.943 123.235 45.613 123.613 45.613 120.968 47.943 121.346 47.943 123.235"/>
    <polygon class="cls-9" points="47.943 123.235 50.273 123.613 50.273 120.968 47.943 121.346 47.943 123.235"/>
    <polygon class="cls-9" points="53.846 123.235 51.516 123.613 51.516 120.968 53.846 121.346 53.846 123.235"/>
    <polygon class="cls-9" points="53.846 123.235 56.176 123.613 56.176 120.968 53.846 121.346 53.846 123.235"/>
    <polygon class="cls-11" points="53.846 122.894 55.011 123.136 55.011 121.445 53.846 121.686 53.846 122.894"/>
    <polygon class="cls-9" points="59.939 123.235 57.609 123.613 57.609 120.968 59.939 121.346 59.939 123.235"/>
    <polygon class="cls-9" points="59.939 123.235 62.269 123.613 62.269 120.968 59.939 121.346 59.939 123.235"/>
    <polygon class="cls-10" points="53.846 123.235 51.516 123.613 51.516 120.968 53.846 121.346 53.846 123.235"/>
    <polygon class="cls-10" points="53.846 123.235 56.176 123.613 56.176 120.968 53.846 121.346 53.846 123.235"/>
    <path class="cls-12" d="M54.9486,123.123l-1.102-.229v-1.208l1.116-.231a1.3531,1.3531,0,0,0-.014.191v1.477"/>
    <polygon class="cls-10" points="59.601 123.235 57.271 123.613 57.271 120.968 59.601 121.346 59.601 123.235"/>
    <polygon class="cls-10" points="59.601 123.235 61.931 123.613 61.931 120.968 59.601 121.346 59.601 123.235"/>
    <polygon class="cls-12" points="60.766 123.136 60.765 123.136 59.601 122.894 59.601 121.686 60.765 121.445 60.766 121.445 60.766 123.136"/>
    <polygon class="cls-10" points="47.943 123.235 45.613 123.613 45.613 120.968 47.943 121.346 47.943 123.235"/>
    <polygon class="cls-10" points="47.943 123.235 50.273 123.613 50.273 120.968 47.943 121.346 47.943 123.235"/>
    <path class="cls-12" d="M49.0291,123.12l-1.086-.226v-1.208l1.099-.228a1.31014,1.31014,0,0,0-.013.188v1.474"/>
    <polygon class="cls-10" points="42.024 123.235 39.694 123.613 39.694 120.968 42.024 121.346 42.024 123.235"/>
    <polygon class="cls-10" points="42.024 123.235 44.354 123.613 44.354 120.968 42.024 121.346 42.024 123.235"/>
    <path class="cls-12" d="M43.1101,123.12l-1.086-.226v-1.208l1.099-.228a1.47213,1.47213,0,0,0-.013.188v1.474"/>
    <polygon class="cls-10" points="36.12 123.235 33.79 123.613 33.79 120.968 36.12 121.346 36.12 123.235"/>
    <polygon class="cls-10" points="36.12 123.235 38.45 123.613 38.45 120.968 36.12 121.346 36.12 123.235"/>
    <path class="cls-12" d="M37.1907,123.117l-1.071-.223v-1.208l1.084-.224a1.24574,1.24574,0,0,0-.013.184v1.471"/>
    <polygon class="cls-10" points="53.846 145.981 51.516 146.358 51.516 143.714 53.846 144.091 53.846 145.981"/>
    <polygon class="cls-10" points="53.846 145.981 56.176 146.358 56.176 143.714 53.846 144.091 53.846 145.981"/>
    <path class="cls-12" d="M54.9786,145.875l-1.132-.235v-1.208l1.102-.229v1.387a1.3515,1.3515,0,0,0,.03.285"/>
    <polygon class="cls-10" points="59.601 145.981 57.271 146.358 57.271 143.714 59.601 144.091 59.601 145.981"/>
    <polygon class="cls-10" points="59.601 145.981 61.931 146.358 61.931 143.714 59.601 144.091 59.601 145.981"/>
    <polygon class="cls-12" points="60.766 145.882 60.765 145.882 59.601 145.64 59.601 144.432 60.765 144.191 60.766 144.191 60.766 145.882"/>
    <polygon class="cls-10" points="47.943 145.981 45.613 146.358 45.613 143.714 47.943 144.091 47.943 145.981"/>
    <polygon class="cls-10" points="47.943 145.981 50.273 146.358 50.273 143.714 47.943 144.091 47.943 145.981"/>
    <path class="cls-12" d="M49.0584,145.872l-1.116-.232v-1.208l1.087-.225v1.383a1.39055,1.39055,0,0,0,.029.282"/>
    <polygon class="cls-10" points="42.024 145.981 39.694 146.358 39.694 143.714 42.024 144.091 42.024 145.981"/>
    <polygon class="cls-10" points="42.024 145.981 44.354 146.358 44.354 143.714 42.024 144.091 42.024 145.981"/>
    <path class="cls-12" d="M43.1393,145.872l-1.116-.232v-1.208l1.087-.225v1.383a1.39055,1.39055,0,0,0,.029.282"/>
    <polygon class="cls-10" points="36.12 145.981 33.79 146.358 33.79 143.714 36.12 144.091 36.12 145.981"/>
    <polygon class="cls-10" points="36.12 145.981 38.45 146.358 38.45 143.714 36.12 144.091 36.12 145.981"/>
    <path class="cls-12" d="M37.2193,145.868l-1.099-.228v-1.208l1.07-.222v1.38a1.35161,1.35161,0,0,0,.029.278"/>
    <path class="cls-10" d="M64.6463,145.59a2.14312,2.14312,0,0,1-1.889,1.889,2.17772,2.17772,0,0,1-1.889-1.889V121.646a1.889,1.889,0,0,1,3.778,0V145.59"/>
    <path class="cls-10" d="M58.7268,145.59a2.14312,2.14312,0,0,1-1.889,1.889,2.17772,2.17772,0,0,1-1.889-1.889V121.646a1.889,1.889,0,0,1,3.778,0V145.59"/>
    <path class="cls-10" d="M52.8074,145.59a2.14312,2.14312,0,0,1-1.889,1.889,2.17772,2.17772,0,0,1-1.889-1.889V121.646a2.18155,2.18155,0,0,1,1.889-1.889,2.18155,2.18155,0,0,1,1.889,1.889V145.59"/>
    <path class="cls-10" d="M46.8882,145.59a2.14312,2.14312,0,0,1-1.889,1.889,2.17772,2.17772,0,0,1-1.889-1.889V121.646a2.18155,2.18155,0,0,1,1.889-1.889,2.18155,2.18155,0,0,1,1.889,1.889V145.59"/>
    <path class="cls-10" d="M40.9689,145.59a2.14312,2.14312,0,0,1-1.889,1.889,2.17772,2.17772,0,0,1-1.889-1.889V121.646a2.18155,2.18155,0,0,1,1.889-1.889,2.18155,2.18155,0,0,1,1.889,1.889V145.59"/>
    <path class="cls-10" d="M35.0496,145.59a2.14312,2.14312,0,0,1-1.889,1.889,2.17772,2.17772,0,0,1-1.889-1.889V121.646a2.18155,2.18155,0,0,1,1.889-1.889,2.18251,2.18251,0,0,1,1.889,1.889V145.59"/>
    <path class="cls-12" d="M62.7569,147.243a2.02144,2.02144,0,0,1-1.653-1.85V121.946a2.03188,2.03188,0,0,1,1.639-1.849h.014v27.146"/>
    <path class="cls-12" d="M56.8649,147.243a2.02437,2.02437,0,0,1-1.653-1.829V121.926a2.03544,2.03544,0,0,1,1.639-1.829h.014v27.146"/>
    <path class="cls-12" d="M50.9733,147.243a2.0223,2.0223,0,0,1-1.654-1.85V121.946a2.03275,2.03275,0,0,1,1.64-1.849h.014v27.146"/>
    <path class="cls-12" d="M45.0811,147.243a2.02144,2.02144,0,0,1-1.653-1.85V121.946a2.03188,2.03188,0,0,1,1.639-1.849h.014v27.146"/>
    <path class="cls-12" d="M39.1892,147.243a2.02144,2.02144,0,0,1-1.653-1.85V121.946a2.03188,2.03188,0,0,1,1.639-1.849h.014v27.146"/>
    <path class="cls-12" d="M33.2973,147.243a2.02436,2.02436,0,0,1-1.653-1.829V121.926a2.03543,2.03543,0,0,1,1.639-1.829h.014v27.146"/>
  </g>
  <g class="cls-13">
    <rect class="cls-6" x="-454.01599" y="126.14301" width="1062.98999" height="255.118"/>
    <rect class="cls-6" x="-454.01599" y="126.14301" width="1062.98999" height="255.11798"/>
    <polygon class="cls-14" points="-28.781 210.226 -28.781 224.383 105.301 224.383 112.313 217.305 105.301 210.226 -28.781 210.226"/>
    <polygon class="cls-15" points="-28.781 192.504 -28.781 206.661 97.137 206.661 104.147 199.583 97.137 192.504 -28.781 192.504"/>
    <polygon class="cls-16" points="-28.781 174.8 -28.781 188.956 88.975 188.956 95.985 181.878 88.975 174.8 -28.781 174.8"/>
    <polygon class="cls-5" points="-28.781 227.921 -28.781 242.077 113.655 242.077 120.676 234.998 113.655 227.921 -28.781 227.921"/>
    <polygon class="cls-17" points="-28.781 245.645 -28.781 259.802 121.815 259.802 128.836 252.723 121.815 245.645 -28.781 245.645"/>
    <polygon class="cls-18" points="-28.781 263.336 -28.781 277.492 129.973 277.492 137 270.412 129.973 263.336 -28.781 263.336"/>
    <polygon class="cls-19" points="-28.781 281.033 -28.781 295.187 138.133 295.187 145.16 288.113 138.133 281.033 -28.781 281.033"/>
    <polygon class="cls-19" points="-28.781 298.73 -28.781 312.888 146.289 312.888 153.323 305.81 146.289 298.73 -28.781 298.73"/>
    <polygon class="cls-19" points="-28.781 316.433 -28.781 330.589 154.033 330.589 161.522 323.511 154.033 316.433 -28.781 316.433"/>
  </g>
  <text class="cls-20" transform="translate(33.9917 186.52765)"> </text>
  <text class="cls-20" transform="translate(37.15576 186.52765)">A</text>
  <text class="cls-21" transform="translate(45.63232 181.8714)"><tspan class="cls-22">+</tspan><tspan x="4.15479" y="0">+</tspan></text>
  <text class="cls-20" transform="translate(33.9917 204.18683)"> </text>
  <text class="cls-20" transform="translate(37.15576 204.18683)">A</text>
  <text class="cls-21" transform="translate(45.63232 199.53058)">+</text>
  <text class="cls-20" transform="translate(33.9917 223.83527)"> </text>
  <text class="cls-20" transform="translate(37.15576 221.83331)">A</text>
  <text class="cls-20" transform="translate(33.9917 239.47345)"> </text>
  <text class="cls-20" transform="translate(37.15576 239.47345)">B</text>
  <text class="cls-20" transform="translate(33.9917 257.12726)"> </text>
  <text class="cls-20" transform="translate(37.15576 257.12726)">C</text>
  <text class="cls-20" transform="translate(33.9917 274.78107)"> </text>
  <text class="cls-20" transform="translate(37.15576 274.78107)">D</text>
  <text class="cls-20" transform="translate(33.9917 292.43488)"> </text>
  <text class="cls-20" transform="translate(37.15576 292.43488)">E</text>
  <text class="cls-20" transform="translate(33.9917 310.0755)"> </text>
  <text class="cls-20" transform="translate(37.15576 310.0755)">F</text>
  <text class="cls-20" transform="translate(33.9917 327.72882)"> </text>
  <text class="cls-20" transform="translate(37.15576 327.72882)">G</text>
  <text class="cls-23" transform="translate(230.04785 138.04327)"><tspan class="cls-24">3</tspan><tspan x="6.89941" y="0">5</tspan></text>
  <text class="cls-23" transform="translate(244.0332 138.04327)"> </text>
  <text class="cls-23" transform="translate(246.49805 138.04327)"><tspan class="cls-25">°</tspan><tspan x="4.52051" y="0">C</tspan></text>
  <g class="cls-2">
    <polygon class="cls-26" points="174.051 476.871 171.277 479.69 168.104 479.69 167.707 480.091 167.707 492.978 166.916 493.782 161.761 493.38 158.984 490.964 150.658 490.964 148.676 492.978 148.676 502.642 146.693 505.057 146.693 507.071 153.83 513.916 155.416 513.916 157.002 512.305 158.984 513.916 160.967 513.916 176.034 498.615 183.171 498.615 179.206 494.588 176.431 497.407 172.466 493.38 172.466 484.924 174.051 483.313 174.051 476.871"/>
    <polygon class="cls-27" points="174.051 476.871 176.431 476.066 177.62 477.272 179.602 477.272 186.739 470.024 187.929 469.622 196.255 469.622 196.255 472.037 188.326 480.091 188.326 481.702 190.308 483.716 176.828 497.407 172.466 493.38 172.466 484.924 174.051 483.716 174.051 476.871"/>
    <polygon class="cls-28" points="195.86 469.621 195.86 472.037 188.327 480.09 188.327 481.701 190.309 483.716 179.207 494.587 182.775 498.213 185.55 495.394 184.758 494.587 187.533 491.77 189.514 493.782 191.101 493.782 192.687 492.172 193.48 492.172 197.048 495.797 199.825 495.797 203.394 492.172 205.376 492.172 212.115 499.018 212.115 500.628 210.926 501.837 210.926 504.252 214.892 508.281 215.684 508.281 226.786 496.602 227.579 495.394 227.579 493.38 227.184 492.172 222.425 487.742 211.72 487.742 210.926 486.534 210.926 479.69 214.098 476.468 214.098 473.648 213.305 472.842 213.305 471.636 215.287 469.621 216.08 470.427 217.667 470.427 219.253 469.219 219.253 467.608 218.46 466.803 218.46 465.998 220.442 463.984 220.442 453.514 219.253 453.514 216.875 456.333 216.875 461.165 214.892 462.776 214.495 462.776 213.702 461.97 212.115 461.97 210.926 463.178 210.926 464.789 212.115 465.998 209.341 468.816 208.15 467.608 205.376 467.608 203.394 469.621 195.86 469.621"/>
    <polygon class="cls-28" points="188.722 453.917 188.722 445.058 191.895 441.837 193.48 441.837 195.86 444.253 206.166 433.783 207.754 433.783 209.341 435.393 214.496 430.159 215.684 430.159 218.063 432.172 219.65 430.561 221.631 430.561 222.425 431.769 222.425 433.783 221.234 434.991 224.805 439.421 224.805 443.044 221.234 446.669 222.821 448.682 222.821 450.695 222.03 451.501 219.65 451.501 218.46 450.293 217.667 450.293 213.305 454.722 212.115 454.722 210.926 453.514 210.926 451.903 210.53 451.903 210.53 451.097 211.72 449.487 210.132 447.474 210.132 445.863 214.098 441.837 214.098 440.226 212.909 439.421 211.323 439.421 204.581 445.863 204.581 447.071 206.166 448.682 206.166 450.695 204.186 452.306 205.376 453.514 205.376 456.735 201.41 460.762 203.394 462.373 203.394 464.387 200.221 467.608 200.221 468.011 197.048 468.011 196.255 467.205 196.255 465.998 198.239 463.984 196.255 461.567 196.255 460.36 198.239 457.944 198.239 457.138 196.255 455.93 196.255 455.125 189.912 455.125 188.722 453.917"/>
    <polygon class="cls-27" points="192.291 458.749 188.722 461.97 188.722 464.387 192.687 468.816 193.48 468.816 195.463 466.4 195.86 465.997 193.48 463.581 195.86 461.164 193.48 458.749 192.291 458.749"/>
    <polygon class="cls-27" points="176.431 474.857 178.017 473.246 178.017 470.83 175.241 468.011 175.241 456.736 172.069 453.111 170.483 453.111 168.104 455.527 168.104 466.4 176.431 474.857"/>
    <polygon class="cls-26" points="166.122 468.414 166.122 472.037 162.95 474.857 164.139 476.065 175.24 476.065 176.431 474.857 168.104 466.4 166.122 468.414"/>
    <polygon class="cls-26" points="166.915 459.554 163.742 459.554 157.399 466.4 157.399 467.608 158.589 468.817 160.571 468.817 167.311 461.97 167.311 459.957 166.915 459.554"/>
    <polygon class="cls-29" points="172.862 439.421 172.466 440.226 172.466 442.642 172.862 443.044 174.449 443.044 174.845 442.24 174.845 440.226 174.449 439.421 172.862 439.421"/>
    <polygon class="cls-26" points="171.277 509.487 171.277 508.28 172.863 506.667 174.845 506.667 174.845 508.682 172.863 510.292 172.069 510.292 171.277 509.487"/>
    <polygon class="cls-26" points="186.343 504.252 187.533 502.642 189.119 504.252 189.119 507.475 187.929 508.28 187.137 508.28 186.343 507.475 186.343 504.252"/>
    <polygon class="cls-26" points="187.137 508.681 187.929 508.681 189.119 509.486 189.119 513.111 187.929 514.319 187.533 514.319 186.343 513.111 186.343 509.486 187.137 508.681"/>
    <polygon class="cls-26" points="199.825 519.152 206.565 512.709 206.565 510.695 198.636 502.642 195.463 505.864 200.618 511.098 200.618 512.306 197.445 515.527 197.048 516.332 197.048 517.541 197.445 518.749 198.636 519.152 199.825 519.152"/>
    <polygon class="cls-27" points="196.255 494.991 193.48 497.407 199.031 502.642 198.238 503.448 195.464 500.628 193.48 502.642 196.255 505.461 195.464 505.863 188.326 498.614 183.171 498.614 182.379 498.213 185.153 495.393 184.757 494.587 187.534 491.769 189.515 493.782 191.101 493.782 192.687 492.172 193.48 492.172 196.255 494.991"/>
    <polygon class="cls-27" points="212.512 505.863 210.925 507.475 210.925 509.89 212.116 511.098 212.512 511.098 214.891 509.085 216.08 509.085 218.062 511.501 218.46 511.501 225.992 503.85 225.992 502.24 223.615 499.823 215.684 507.876 214.495 507.876 212.512 505.863"/>
    <polygon class="cls-28" points="215.684 513.917 218.062 511.502 216.08 509.085 214.892 509.085 212.512 511.097 214.892 513.917 215.684 513.917"/>
    <polygon class="cls-26" points="216.476 518.749 220.442 515.125 220.442 513.111 218.856 511.501 218.063 511.501 215.684 513.916 214.891 513.916 212.512 511.098 212.116 511.098 210.926 512.306 210.926 515.527 214.099 518.749 216.476 518.749"/>
    <polygon class="cls-26" points="222.425 512.709 222.425 512.306 225.201 512.306 225.992 513.111 225.992 515.125 225.597 515.528 222.425 515.528 222.425 515.125 222.425 512.709"/>
    <polygon class="cls-26" points="218.857 521.567 219.253 521.166 222.029 521.166 222.821 521.971 222.821 523.179 222.425 523.582 219.253 523.582 218.857 523.179 218.857 521.567"/>
    <rect class="cls-30" x="199.42799" y="521.97099" width="0.793" height="1.208"/>
    <polygon class="cls-31" points="154.623 497.004 156.209 495.796 157.795 495.796 161.364 499.42 161.364 501.837 160.571 502.642 159.382 502.642 154.623 498.213 154.623 497.004"/>
    <polygon class="cls-31" points="162.157 505.461 160.174 503.045 157.795 505.461 157.795 507.071 158.589 507.876 160.571 507.876 162.157 506.266 162.157 505.461"/>
    <polygon class="cls-31" points="169.294 499.823 170.086 499.018 170.086 497.004 168.501 495.394 167.312 495.394 165.329 497.408 167.707 499.823 169.294 499.823"/>
    <polygon class="cls-28" points="193.48 502.642 195.463 500.628 198.239 503.448 196.256 505.461 193.48 502.642"/>
    <path class="cls-3" d="M35.2143,347.806v-1a10.76837,10.76837,0,0,0-4.399,1.093,7.93219,7.93219,0,0,0-3.102,2.686,9.041,9.041,0,0,0-1.403,5.125V520.909a10.77579,10.77579,0,0,0,1.094,4.399,7.92408,7.92408,0,0,0,2.686,3.102,9.02978,9.02978,0,0,0,5.124,1.403h53.465a10.76793,10.76793,0,0,0,4.399-1.093,7.94911,7.94911,0,0,0,3.102-2.687,9.03514,9.03514,0,0,0,1.403-5.124V355.71a10.80128,10.80128,0,0,0-1.094-4.4,7.93675,7.93675,0,0,0-2.686-3.101,9.03215,9.03215,0,0,0-5.124-1.403H35.2143v2h53.465a7.02472,7.02472,0,0,1,4.014,1.067,6.48168,6.48168,0,0,1,2.515,3.623,9.278,9.278,0,0,1,.329,1.599c.024.203.035.364.041.471l.004.118.001.025v165.2a7.04377,7.04377,0,0,1-1.067,4.015,6.48867,6.48867,0,0,1-3.624,2.515,9.4532,9.4532,0,0,1-1.599.329c-.202.023-.364.035-.471.04l-.118.005h-53.49a7.03593,7.03593,0,0,1-4.015-1.067,6.47966,6.47966,0,0,1-2.514-3.623,9.38965,9.38965,0,0,1-.33-1.599c-.023-.203-.034-.364-.04-.471l-.005-.118V355.71a7.03355,7.03355,0,0,1,1.067-4.015,6.48538,6.48538,0,0,1,3.624-2.515,9.4436,9.4436,0,0,1,1.598-.329c.203-.023.364-.035.471-.04l.118-.005h.026Z"/>
  </g>
  <text class="cls-32" transform="translate(61.87256 425.65558)"> </text>
  <text class="cls-32" transform="translate(61.87256 511.77277)"> </text>
  <text class="cls-33" transform="translate(66.38037 511.77277)"><tspan class="cls-34">d</tspan><tspan x="7.74609" y="0">B</tspan></text>
  <g class="cls-35">
    <path class="cls-36" d="M53.4093,438.441v4.486h33.542V419.745l-16.772-15.282-16.77,15.282Zm0,45.859v4.486h33.542V465.604l-16.772-15.282-16.77,15.282Z"/>
  </g>
  <g class="cls-2">
    <path class="cls-37" d="M47.489,480.579q1.458-1.302,2.917-2.601h2.08v-4.157h-2.08q-1.458-1.299-2.917-2.603l-1.207-1.074v11.511Z"/>
    <path class="cls-38" d="M47.8573,479.669q1.176-1.047,2.349-2.095h1.676v-3.35h-1.676c-.782-.696-1.565-1.397-2.349-2.094l-.972-.867v9.272Z"/>
  </g>
  <g class="cls-35">
    <path class="cls-39" d="M47.8573,479.669q1.176-1.047,2.349-2.095h1.676v-3.35h-1.676c-.782-.696-1.565-1.397-2.349-2.094l-.972-.867v9.272Z"/>
    <path class="cls-40" d="M43.9238,480.797a7.76643,7.76643,0,0,1,.065-9.85m-3.532,12.878a13.76359,13.76359,0,0,1,.047-15.878m-3.655,18.934a20.01309,20.01309,0,0,1,.036-21.963"/>
  </g>
  <path class="cls-41" d="M52.6974,392.947q-1.458-1.30049-2.913-2.599h-2.078v-4.151h2.078q1.455-1.299,2.913-2.599l1.205-1.073v11.498Z"/>
  <rect class="cls-43" x="157.66" y="365.08798" width="7.644" height="7.645"/>
  <rect class="cls-1" y="0.00098" width="297.638" height="566.92902"/>
  <text class="cls-44" transform="translate(188.20313 374.638)"> </text>
  <g class="cls-2">
    <rect class="cls-30" x="157.66" y="410.50099" width="7.644" height="7.645"/>
  </g>
  <text class="cls-44" transform="translate(188.20313 419.85089)"> </text>
  <g class="cls-2">
    <rect class="cls-47" x="157.66" y="388.52798" width="7.644" height="7.645"/>
  </g>
  <text class="cls-48" transform="translate(193.39648 399.19464)"> </text>
  <text class="cls-49" transform="translate(26.88818 541.5462)">2015</text>
  <text class="cls-49" transform="translate(231.51855 541.5462)">811/2013</text>
  <g id="lowTemperatureRating">
    <polyline id="lowTemperatureRatingArrow" class="cls-50" points="208.26 181.87 224.9 165.06 270.94 165.06 270.94 198.96 225.21 198.96 208.26 181.87"/>
    <text id="lowTemperatureRatingLetter" class="cls-51" transform="translate(222.42969 189.11017)">A</text>
    <text id="lowTemperatureRatingPlusses" class="cls-52" transform="translate(238.40039 181.01984)">++</text>
  </g>
  <text transform="translate(170.62012 374.63019)">
    <tspan id="lowTemperatureColderKw" class="cls-44">X</tspan>
    <tspan class="cls-53">kW</tspan>
  </text>
  <text transform="translate(170.62012 399.19952)">
    <tspan id="lowTemperatureAverageKw" class="cls-48">X</tspan>
    <tspan class="cls-45">kW</tspan>
  </text>
  <text transform="translate(170.62012 419.84015)">
    <tspan id="lowTemperatureWarmerKw" class="cls-44">X</tspan>
    <tspan class="cls-45">kW</tspan>
  </text>
  <g id="insideDbSection">
    <path class="cls-42" d="M52.3294,392.039q-1.1745-1.04849-2.347-2.094h-1.673V386.6h1.673q1.173-1.044,2.347-2.092l.971-.865v9.261Z"/>
    <text class="cls-33" transform="translate(66.38037 425.65558)"><tspan class="cls-34">d</tspan><tspan x="7.74609" y="0">B</tspan></text>
    <g class="cls-58">
      <polygon class="cls-59" points="43.862 399.073 43.862 403.791 79.133 403.791 79.133 379.414 61.496 363.345 43.862 379.414 43.862 399.073"/>
    </g>
    <path class="cls-38" d="M52.3294,392.039q-1.1745-1.04849-2.347-2.094h-1.673V386.6h1.673q1.173-1.044,2.347-2.092l.971-.865v9.261Z"/>
    <path class="cls-60" d="M56.1921,383.328a7.75368,7.75368,0,0,1,.065,9.836m3.417-12.834a13.7477,13.7477,0,0,1,.046,15.858m3.568-18.882a19.99176,19.99176,0,0,1,.036,21.935"/>
    <text id="insideDb" class="cls-32" transform="translate(41.60986 425.64972)">X</text>
  </g>
  <text id="outsideDb" class="cls-32" transform="translate(41.60986 511.76984)">X</text>
  <text id="supplierLine2" class="cls-61" transform="translate(26.75977 106.30011)">X</text>
  <text id="supplierLine1" class="cls-61" transform="translate(26.75977 95.21906)">X</text>
  <text id="modelLine2" class="cls-61" transform="translate(152.4414 106.30011)">X</text>
  <text id="modelLine1" class="cls-61" transform="translate(152.4414 95.21906)">X</text>
</svg>
