<svg id="Layer_1" data-name="Layer 1" xmlns="http://www.w3.org/2000/svg" xmlns:xlink="http://www.w3.org/1999/xlink" width="210mm" height="297mm" viewBox="0 0 595.28003 841.89001" data-rating-increment="21.3333" data-supplier-model-chars-per-row="25">
  <defs>
    <style>
      #solarCollector,
      #hotWaterStorageTank,
      #temperatureControl,
      #supplementarySpaceHeater {
        display: none;
      }

      #solarCollector.hasSolarCollector,
      #hotWaterStorageTank.hasHotWaterStorageTank,
      #temperatureControl.hasTemperatureControl,
      #supplementarySpaceHeater.hasSupplementarySpaceHeater {
        display: inline;
      }  

      .cls-1, .cls-34 {
        fill: none;
      }

      .cls-2 {
        clip-path: url(#clip-path);
      }

      .cls-28, .cls-3 {
        fill: #00aeef;
      }

      .cls-4 {
        fill: #034ea2;
      }

      .cls-5 {
        fill: #fff200;
      }

      .cls-23, .cls-24, .cls-38, .cls-39, .cls-40, .cls-41, .cls-6 {
        fill: #fff;
      }

      .cls-7 {
        font-size: 25.865px;
      }

      .cls-14, .cls-29, .cls-37, .cls-42, .cls-43, .cls-44, .cls-7 {
        fill: #231f20;
      }

      .cls-39, .cls-41, .cls-44, .cls-7 {
        font-family: Calibri;
      }

      .cls-8 {
        letter-spacing: 0.05901em;
      }

      .cls-9 {
        fill: #8ed8f7;
      }

      .cls-10 {
        fill: #05090a;
      }

      .cls-11 {
        fill: #24b9ec;
      }

      .cls-12 {
        fill: #676465;
      }

      .cls-13 {
        clip-path: url(#clip-path-3);
      }

      .cls-15 {
        clip-path: url(#clip-path-5);
      }

      .cls-16 {
        clip-path: url(#clip-path-6);
      }

      .cls-17 {
        fill: #bfd730;
      }

      .cls-18 {
        fill: #50b848;
      }

      .cls-19 {
        fill: #00a651;
      }

      .cls-20 {
        fill: #fdb913;
      }

      .cls-21 {
        fill: #f37021;
      }

      .cls-22 {
        fill: #ed1c24;
      }

      .cls-23 {
        font-size: 16px;
      }

      .cls-23, .cls-24, .cls-28, .cls-37, .cls-38, .cls-40, .cls-42, .cls-43 {
        font-family: Calibri-Bold, Calibri;
        font-weight: 700;
      }

      .cls-24 {
        font-size: 9.328px;
      }

      .cls-25 {
        letter-spacing: 0.01099em;
      }

      .cls-26 {
        clip-path: url(#clip-path-7);
      }

      .cls-27 {
        clip-path: url(#clip-path-8);
      }

      .cls-28 {
        font-size: 50px;
      }

      .cls-29, .cls-36 {
        fill-rule: evenodd;
      }

      .cls-30 {
        clip-path: url(#clip-path-11);
      }

      .cls-31 {
        clip-path: url(#clip-path-14);
      }

      .cls-32 {
        clip-path: url(#clip-path-16);
      }

      .cls-33 {
        clip-path: url(#clip-path-17);
      }

      .cls-34 {
        stroke: #231f20;
        stroke-linecap: round;
        stroke-linejoin: round;
        stroke-width: 2.18px;
      }

      .cls-35, .cls-36 {
        fill: #020304;
      }

      .cls-37 {
        font-size: 12px;
      }

      .cls-38 {
        font-size: 28px;
      }

      .cls-39 {
        font-size: 16.32px;
      }

      .cls-40 {
        font-size: 23px;
      }

      .cls-41 {
        font-size: 13.41px;
      }

      .cls-42 {
        font-size: 16.54px;
      }

      .cls-43 {
        font-size: 22.05px;
      }

      .cls-44 {
        font-size: 22px;
      }
    </style>
    <clipPath id="clip-path">
      <rect class="cls-1" width="595.276" height="841.89001"/>
    </clipPath>
    <clipPath id="clip-path-3">
      <rect class="cls-1" x="47.483" y="245.90601" width="44.903" height="70.86603"/>
    </clipPath>
    <clipPath id="clip-path-5">
      <rect class="cls-1" x="271.077" y="271.86603" width="167.25302" height="224.41199"/>
    </clipPath>
    <clipPath id="clip-path-6">
      <rect class="cls-1" x="271.077" y="271.86603" width="167.25302" height="210.30798"/>
    </clipPath>
    <clipPath id="clip-path-7">
      <rect class="cls-1" x="271.077" y="572.07901" width="167.25302" height="224.411"/>
    </clipPath>
    <clipPath id="clip-path-8">
      <rect class="cls-1" x="271.077" y="572.07901" width="167.25302" height="210.30801"/>
    </clipPath>
    <clipPath id="clip-path-11">
      <rect class="cls-1" x="82.222" y="396.91202" width="69.46901" height="59.758"/>
    </clipPath>
    <clipPath id="clip-path-14">
      <rect class="cls-1" x="93.774" y="701.93802" width="44.90401" height="70.867"/>
    </clipPath>
    <clipPath id="clip-path-16">
      <rect class="cls-1" x="93.162" y="596.16902" width="44.90401" height="68.976"/>
    </clipPath>
    <clipPath id="clip-path-17">
      <rect class="cls-1" x="93.871" y="596.16902" width="37.13499" height="68.976"/>
    </clipPath>
  </defs>
  <title>packages-of-combination-heater-temperature-control-and-solar-device</title>
  <g class="cls-2">
    <path class="cls-3" d="M35.5445,212.59833v-1.5a11.26073,11.26073,0,0,0-4.623,1.147,8.42992,8.42992,0,0,0-3.294,2.856,9.53061,9.53061,0,0,0-1.487,5.402v121.38a11.24919,11.24919,0,0,0,1.146,4.623,8.43912,8.43912,0,0,0,2.856,3.294,9.53511,9.53511,0,0,0,5.402,1.487h208.9a11.24262,11.24262,0,0,0,4.623-1.146,8.44015,8.44015,0,0,0,3.295-2.856,9.55116,9.55116,0,0,0,1.488-5.402v-121.38a11.30943,11.30943,0,0,0-1.147-4.623,8.45629,8.45629,0,0,0-2.856-3.295,9.54409,9.54409,0,0,0-5.403-1.48706h-208.9v3h208.9a6.53934,6.53934,0,0,1,3.739.984,5.23075,5.23075,0,0,1,1.497,1.542,7.65211,7.65211,0,0,1,1.021,2.643,8.86491,8.86491,0,0,1,.131.93305c.009.111.013.195.015.248l.001.053.002.002v121.38a6.54518,6.54518,0,0,1-.985,3.738,5.20123,5.20123,0,0,1-1.543,1.498,7.656,7.656,0,0,1-2.642,1.02,8.40712,8.40712,0,0,1-.932.131c-.112.009-.196.014-.249.016l-.053.001H35.5445a6.53836,6.53836,0,0,1-3.738-.983,5.21252,5.21252,0,0,1-1.498-1.543,7.6763,7.6763,0,0,1-1.02-2.642,8.39149,8.39149,0,0,1-.131-.933c-.009-.111-.014-.195-.015-.248l-.002-.054v-121.381a6.5383,6.5383,0,0,1,.983-3.738,5.20139,5.20139,0,0,1,1.543-1.49805,7.68135,7.68135,0,0,1,2.642-1.021,8.65135,8.65135,0,0,1,.933-.131c.111-.009.196-.013.248-.015l.054-.001.001-.001Z"/>
    <path class="cls-3" d="M35.5445,360.20422v-1.5a11.24972,11.24972,0,0,0-4.623,1.146,8.446,8.446,0,0,0-3.294,2.856,9.53543,9.53543,0,0,0-1.487,5.402v426.637a11.24919,11.24919,0,0,0,1.146,4.623,8.44616,8.44616,0,0,0,2.856,3.294,9.53542,9.53542,0,0,0,5.402,1.487h208.9a11.2431,11.2431,0,0,0,4.623-1.146,8.44866,8.44866,0,0,0,3.295-2.856,9.551,9.551,0,0,0,1.488-5.402v-426.637a11.31575,11.31575,0,0,0-1.147-4.623,8.45412,8.45412,0,0,0-2.856-3.294,9.54425,9.54425,0,0,0-5.403-1.487h-208.9v3h208.9a6.54009,6.54009,0,0,1,3.739.983,5.234,5.234,0,0,1,1.497,1.543,7.64019,7.64019,0,0,1,1.021,2.642,8.90029,8.90029,0,0,1,.131.933c.009.111.013.196.015.248l.001.054.002.001v426.637a6.54516,6.54516,0,0,1-.985,3.738,5.20135,5.20135,0,0,1-1.543,1.498,7.65609,7.65609,0,0,1-2.642,1.02,8.41576,8.41576,0,0,1-.932.131c-.112.009-.196.014-.249.016l-.053.001H35.5445a6.53844,6.53844,0,0,1-3.738-.983,5.21323,5.21323,0,0,1-1.498-1.543,7.67668,7.67668,0,0,1-1.02-2.642,8.3928,8.3928,0,0,1-.131-.933c-.009-.111-.014-.195-.015-.248l-.002-.054v-426.638a6.53241,6.53241,0,0,1,.983-3.737,5.20407,5.20407,0,0,1,1.543-1.499,7.6766,7.6766,0,0,1,2.642-1.02,8.39177,8.39177,0,0,1,.933-.131c.111-.009.196-.013.248-.015l.054-.002h.001Z"/>
    <path class="cls-3" d="M270.67,212.59833v-1.5a11.26082,11.26082,0,0,0-4.623,1.147,8.43,8.43,0,0,0-3.294,2.856,9.53851,9.53851,0,0,0-1.487,5.402v274.008a11.24341,11.24341,0,0,0,1.146,4.623,8.44863,8.44863,0,0,0,2.856,3.295,9.54324,9.54324,0,0,0,5.402,1.487H559.74a11.25917,11.25917,0,0,0,4.623-1.147,8.42959,8.42959,0,0,0,3.294-2.856,9.53078,9.53078,0,0,0,1.487-5.402v-274.008a11.24265,11.24265,0,0,0-1.146-4.623,8.44789,8.44789,0,0,0-2.856-3.295,9.54281,9.54281,0,0,0-5.402-1.48706H270.67v3H559.74a6.53832,6.53832,0,0,1,3.738.984,5.22266,5.22266,0,0,1,1.498,1.542,7.66887,7.66887,0,0,1,1.02,2.643,8.35024,8.35024,0,0,1,.131.93305c.009.111.014.195.016.248l.001.053v274.01a6.53826,6.53826,0,0,1-.983,3.738,5.20049,5.20049,0,0,1-1.543,1.498,7.68,7.68,0,0,1-2.642,1.021,8.64419,8.64419,0,0,1-.933.131c-.111.009-.196.013-.248.015l-.05395.002H270.67a6.53222,6.53222,0,0,1-3.737-.984,5.20969,5.20969,0,0,1-1.498-1.542,7.67157,7.67157,0,0,1-1.021-2.643,8.603,8.603,0,0,1-.131-.933c-.009-.111-.013-.195-.015-.248l-.002-.053v-274.01a6.5383,6.5383,0,0,1,.983-3.738,5.21343,5.21343,0,0,1,1.543-1.49805,7.68905,7.68905,0,0,1,2.642-1.021,8.65181,8.65181,0,0,1,.933-.131c.111-.009.196-.013.248-.015l.054-.001.001-.001Z"/>
    <path class="cls-3" d="M270.67,512.83221v-1.5a11.25,11.25,0,0,0-4.623,1.146,8.44091,8.44091,0,0,0-3.294,2.857,9.53749,9.53749,0,0,0-1.487,5.401v274.009a11.24956,11.24956,0,0,0,1.146,4.623,8.44623,8.44623,0,0,0,2.856,3.294,9.53509,9.53509,0,0,0,5.402,1.487H559.74a11.24873,11.24873,0,0,0,4.623-1.146,8.446,8.446,0,0,0,3.294-2.856,9.53545,9.53545,0,0,0,1.487-5.402v-274.009a11.24887,11.24887,0,0,0-1.146-4.623,8.44579,8.44579,0,0,0-2.856-3.294,9.543,9.543,0,0,0-5.402-1.487H270.67v3H559.74a6.53907,6.53907,0,0,1,3.738.983,5.22576,5.22576,0,0,1,1.498,1.543,7.66414,7.66414,0,0,1,1.02,2.642,8.36174,8.36174,0,0,1,.131.934c.009.11.014.195.016.247l.001.054v274.01a6.53831,6.53831,0,0,1-.983,3.738,5.21289,5.21289,0,0,1-1.543,1.498,7.65611,7.65611,0,0,1-2.642,1.02,8.38745,8.38745,0,0,1-.933.131c-.111.009-.196.014-.248.016l-.05395.001H270.67a6.53282,6.53282,0,0,1-3.737-.983,5.20086,5.20086,0,0,1-1.498-1.543,7.65973,7.65973,0,0,1-1.021-2.642,8.63628,8.63628,0,0,1-.131-.933c-.009-.111-.013-.195-.015-.248l-.002-.054v-274.01a6.53241,6.53241,0,0,1,.983-3.737,5.21282,5.21282,0,0,1,1.543-1.498,7.66827,7.66827,0,0,1,2.642-1.021,8.63908,8.63908,0,0,1,.933-.131c.111-.009.196-.013.248-.015l.054-.002h.001Z"/>
    <path class="cls-3" d="M24.0691,16.16522v-3a11.06651,11.06651,0,0,0-1.728.164,13.01989,13.01989,0,0,0-2.574.702,10.31665,10.31665,0,0,0-4.441,3.22,9.75594,9.75594,0,0,0-1.587,2.99695,12.20257,12.20257,0,0,0-.574,3.821v793.752a11.06042,11.06042,0,0,0,.164,1.728,13.05284,13.05284,0,0,0,.702,2.574,10.31467,10.31467,0,0,0,3.22,4.44,9.75759,9.75759,0,0,0,2.997,1.588,12.26144,12.26144,0,0,0,3.821.574h547.137a11.19575,11.19575,0,0,0,1.729-.164,13.12076,13.12076,0,0,0,2.574-.702,10.328,10.328,0,0,0,4.44-3.22,9.7726,9.7726,0,0,0,1.588-2.998,12.25037,12.25037,0,0,0,.574-3.82V24.06927a11.1249,11.1249,0,0,0-.165-1.728,13.07651,13.07651,0,0,0-.701-2.574,10.33994,10.33994,0,0,0-3.22-4.441,9.77348,9.77348,0,0,0-2.998-1.587,12.198,12.198,0,0,0-3.821-.574H24.0691v6h547.137a5.05418,5.05418,0,0,1,2.906.731,3.72548,3.72548,0,0,1,1.068,1.106,6.18929,6.18929,0,0,1,.811,2.119,7.49021,7.49021,0,0,1,.108.768l.011.182.043-.002h-.042l-.001.002.043-.002h-.042v793.752a5.0509,5.0509,0,0,1-.732,2.905,3.70563,3.70563,0,0,1-1.106,1.069,6.199,6.199,0,0,1-2.119.81,6.94982,6.94982,0,0,1-.767.108l-.182.011.001.044v-.043l-.001-.001.001.044v-.043H24.0691a5.05308,5.05308,0,0,1-2.906-.731,3.72531,3.72531,0,0,1-1.068-1.106,6.21528,6.21528,0,0,1-.81-2.119,6.997,6.997,0,0,1-.108-.768l-.012-.182-.043.002h.043v-.002l-.043.002h.043V24.06927a5.03958,5.03958,0,0,1,.731-2.905,3.71627,3.71627,0,0,1,1.106-1.069,6.20648,6.20648,0,0,1,2.119-.81,6.947,6.947,0,0,1,.768-.108l.182-.011-.002-.043v.042l.002.001-.002-.043v-2.958Z"/>
    <rect class="cls-4" x="26.729" y="27.22101" width="158.082" height="105.55402"/>
    <rect class="cls-3" x="190.03796" y="27.22101" width="378.40302" height="105.55402"/>
    <polygon class="cls-5" points="138.447 62.411 141.844 59.942 137.645 59.943 136.346 55.949 135.049 59.943 130.849 59.943 134.248 62.411 132.949 66.405 136.348 63.937 139.744 66.405 138.447 62.411"/>
    <polygon class="cls-5" points="125.221 49.745 128.618 47.276 124.419 47.276 123.121 43.282 121.823 47.276 117.624 47.277 121.022 49.745 119.723 53.74 123.121 51.271 126.519 53.739 125.221 49.745"/>
    <polygon class="cls-5" points="108.159 45.215 111.557 42.746 107.357 42.747 106.06 38.753 104.761 42.747 100.561 42.747 103.959 45.215 102.662 49.21 106.06 46.741 109.457 49.209 108.159 45.215"/>
    <polygon class="cls-5" points="90.191 49.745 93.588 47.276 89.389 47.276 88.091 43.282 86.793 47.276 82.594 47.276 85.991 49.745 84.693 53.739 88.091 51.27 91.488 53.739 90.191 49.745"/>
    <polygon class="cls-5" points="77.357 63.031 80.754 60.562 76.555 60.563 75.257 56.569 73.959 60.563 69.76 60.563 73.157 63.031 71.86 67.026 75.257 64.557 78.654 67.025 77.357 63.031"/>
    <polygon class="cls-5" points="73.258 80.487 76.655 78.018 72.456 78.018 71.158 74.025 69.86 78.018 65.661 78.018 69.058 80.487 67.76 84.482 71.158 82.012 74.555 84.481 73.258 80.487"/>
    <polygon class="cls-5" points="77.485 98.174 80.883 95.705 76.683 95.706 75.385 91.711 74.087 95.706 69.888 95.706 73.285 98.175 71.988 102.169 75.385 99.7 78.782 102.168 77.485 98.174"/>
    <polygon class="cls-5" points="90.191 110.743 93.588 108.274 89.389 108.274 88.091 104.28 86.793 108.274 82.594 108.274 85.991 110.743 84.693 114.737 88.091 112.268 91.488 114.737 90.191 110.743"/>
    <polygon class="cls-5" points="108.159 115.424 111.555 112.955 107.356 112.955 106.058 108.962 104.761 112.955 100.561 112.955 103.959 115.424 102.661 119.418 106.06 116.949 109.457 119.418 108.159 115.424"/>
    <polygon class="cls-5" points="125.64 110.679 129.038 108.21 124.837 108.21 123.539 104.217 122.242 108.21 118.042 108.21 121.439 110.679 120.143 114.673 123.54 112.205 126.937 114.673 125.64 110.679"/>
    <polygon class="cls-5" points="138.356 98.06 141.753 95.591 137.554 95.591 136.255 91.597 134.958 95.591 130.759 95.592 134.157 98.06 132.858 102.055 136.257 99.585 139.654 102.054 138.356 98.06"/>
    <polygon class="cls-5" points="143.037 80.244 146.434 77.775 142.235 77.775 140.936 73.782 139.64 77.775 135.439 77.775 138.838 80.244 137.539 84.239 140.938 81.769 144.334 84.238 143.037 80.244"/>
    <polygon class="cls-6" points="235.873 70.302 218.919 70.302 218.919 83.517 237.875 83.517 237.875 90.259 210.71 90.259 210.71 45.272 236.874 45.272 236.874 52.013 218.919 52.013 218.919 63.627 235.873 63.627 235.873 70.302"/>
    <path class="cls-6" d="M248.4211,90.259V45.272h9.344l11.614,19.289a123.75318,123.75318,0,0,1,7.676,15.085h.134c-.534-6.007-.735-11.814-.735-18.689V45.272h7.609V90.259h-8.476l-11.748-19.824a148.68955,148.68955,0,0,1-8.076-15.485l-.2.067c.334,5.80695.4,11.74695.4,19.15594V90.259Z"/>
    <polygon class="cls-6" points="322.042 70.302 305.088 70.302 305.088 83.517 324.044 83.517 324.044 90.259 296.878 90.259 296.878 45.272 323.043 45.272 323.043 52.013 305.088 52.013 305.088 63.627 322.042 63.627 322.042 70.302"/>
    <path class="cls-6" d="M342.73358,65.76349h4.872c5.539,0,9.011-2.937,9.011-7.409,0-4.94-3.472-7.209-8.811-7.209a23.53153,23.53153,0,0,0-5.072.401Zm-8.144-19.89105a77.91743,77.91743,0,0,1,12.415-.935c6.475,0,10.879,1.068,13.884,3.605a11.38606,11.38606,0,0,1,3.871,9.011,12.00105,12.00105,0,0,1-8.143,11.28v.2c3.204,1.201,5.139,4.339,6.273,8.677,1.403,5.607,2.604,10.813,3.539,12.549h-8.477c-.668-1.336-1.736-5.006-3.004-10.613-1.268-5.874-3.405-7.743-8.077-7.876h-4.137v18.489h-8.144Z"/>
    <path class="cls-6" d="M411.94821,88.1897a44.55681,44.55681,0,0,1-14.485,2.537c-7.609,0-13.349-1.936-17.621-6.007-4.005-3.806-6.34-9.746-6.274-16.554,0-14.217,10.146-23.361,25.031-23.361a29.83447,29.83447,0,0,1,11.947,2.136l-1.802,6.608a24.22955,24.22955,0,0,0-10.213-1.936c-9.611,0-16.352,5.673-16.352,16.152,0,10.213,6.274,16.28705,15.618,16.28705a15.7284,15.7284,0,0,0,6.208-.93506V71.90375h-7.943v-6.474h15.886Z"/>
    <path class="cls-6" d="M215.39729,106.55707a2.556,2.556,0,0,0-2.595-2.842,2.96948,2.96948,0,0,0-2.902,2.842Zm-5.497,2.054c.077,2.10205,1.849,3.01,3.853,3.01a10.04315,10.04315,0,0,0,3.467-.526l.463,2.03a12.515,12.515,0,0,1-4.367.741c-4.058,0-6.447-2.341-6.447-5.9a5.9379,5.9379,0,0,1,6.113-6.259c4.084,0,5.395,3.106,5.395,5.662a6.65952,6.65952,0,0,1-.104,1.24194Z"/>
    <polygon class="cls-6" points="224.18 101.97 224.18 106.413 229.009 106.413 229.009 101.97 232.168 101.97 232.168 113.603 229.009 113.603 229.009 108.706 224.18 108.706 224.18 113.603 221.02 113.603 221.02 101.97 224.18 101.97"/>
    <path class="cls-6" d="M243.38948,106.55707a2.55458,2.55458,0,0,0-2.594-2.842,2.968,2.968,0,0,0-2.902,2.842Zm-5.496,2.054c.077,2.10205,1.849,3.01,3.853,3.01a10.04321,10.04321,0,0,0,3.467-.526l.463,2.03a12.515,12.515,0,0,1-4.367.741c-4.058,0-6.447-2.341-6.447-5.9a5.9379,5.9379,0,0,1,6.113-6.259c4.084,0,5.395,3.106,5.395,5.662a6.66058,6.66058,0,0,1-.104,1.24194Z"/>
    <path class="cls-6" d="M252.19868,108.73a2.80712,2.80712,0,0,0,2.876,2.867c2.004,0,3.185-1.553,3.185-3.846,0-2.054-1.079-3.72595-3.108-3.72595a2.89848,2.89848,0,0,0-2.825,2.173,2.49811,2.49811,0,0,0-.128.741Zm-3.16-2.89c0-1.529-.051-2.77-.103-3.87h2.774l.155,1.79205h.051a4.98727,4.98727,0,0,1,4.289-2.055c2.878,0,5.266,2.294,5.266,5.925,0,4.203-2.851,6.23395-5.702,6.23395a4.222,4.222,0,0,1-3.519-1.553h-.051v6.019h-3.16Z"/>
    <polygon class="cls-6" points="272.436 101.97 272.436 104.287 267.324 104.287 267.324 113.603 264.164 113.603 264.164 101.97 272.436 101.97"/>
    <path class="cls-6" d="M277.469,101.97009v4.181c0,1.839-.077,3.08-.18,4.705h.077c.668-1.362,1.054-2.221,1.696-3.44l3.082-5.446h3.827v11.63306h-3.005v-4.156c0-1.863.077-2.723.206-4.921h-.103c-.617,1.386-1.028,2.222-1.644,3.344-.976,1.72-2.107,3.822-3.185,5.733h-3.776V101.97009Z"/>
    <path class="cls-6" d="M296.6022,103.786a8.99479,8.99479,0,0,0-1.567-.12c-1.387,0-2.8.454-2.8,1.744,0,1.218,1.567,1.744,2.8,1.744.745,0,1.156,0,1.567-.024Zm3.134,9.817h-3.134v-4.61h-1.181a2.55259,2.55259,0,0,0-1.927.764c-.797.645-1.104,1.887-1.541,2.88995a8.22553,8.22553,0,0,1-.489.956h-3.39a5.91116,5.91116,0,0,0,.77-1.29c.489-1.027.926-2.531,1.876-3.344a3.02566,3.02566,0,0,1,1.49-.788v-.072c-1.49-.143-3.262-1.051-3.262-2.865a2.93151,2.93151,0,0,1,1.926-2.7,10.91347,10.91347,0,0,1,4.418-.74,35.97473,35.97473,0,0,1,4.444.263Z"/>
    <path class="cls-6" d="M309.98141,109.256a1.83375,1.83375,0,0,1-1.926-1.887,1.855,1.855,0,0,1,1.951-1.887,1.88811,1.88811,0,1,1,0,3.774Z"/>
    <path class="cls-6" d="M322.43619,107.345c-1.489-.382-2.312-1.29-2.312-2.43695,0-1.576,1.696-3.201,5.266-3.201a7.91638,7.91638,0,0,1,4.008.884l-.591,1.888a7.11891,7.11891,0,0,0-3.032-.693c-1.515,0-2.466.574-2.466,1.385,0,.932,1.259,1.314,3.134,1.33795h1.362v1.958h-1.387c-2.004.025-3.519.407-3.519,1.529,0,1.099,1.361,1.67206,2.902,1.67206a8.9816,8.9816,0,0,0,3.519-.811l.462,1.958a10.22273,10.22273,0,0,1-4.751,1.051c-2.646,0-5.497-.932-5.497-3.559a3.173,3.173,0,0,1,2.902-2.866Z"/>
    <path class="cls-6" d="M333.9411,101.97009l2.004,5.9c.36,1.028.591,1.959.899,2.962h.103c1.028-1.958,2.62-5.303,2.62-7.859v-1.00305h2.953a4.69859,4.69859,0,0,1,.078.884c0,3.297-2.261,7.19-4.547,10.749h-3.057l-4.444-11.63306Z"/>
    <path class="cls-6" d="M346.91019,107.345c-1.489-.382-2.312-1.29-2.312-2.43695,0-1.576,1.696-3.201,5.266-3.201a7.91638,7.91638,0,0,1,4.008.884l-.591,1.888a7.119,7.119,0,0,0-3.032-.693c-1.515,0-2.466.574-2.466,1.385,0,.932,1.259,1.314,3.134,1.33795h1.362v1.958h-1.387c-2.003.025-3.519.407-3.519,1.529,0,1.099,1.361,1.67206,2.902,1.67206a8.9816,8.9816,0,0,0,3.519-.811l.462,1.958a10.22266,10.22266,0,0,1-4.751,1.051c-2.646,0-5.497-.932-5.497-3.559a3.173,3.173,0,0,1,2.902-2.866Z"/>
    <path class="cls-6" d="M359.54559,108.99323a3.63891,3.63891,0,0,0,.077.764,2.91521,2.91521,0,0,0,2.773,1.84c2.005,0,3.16-1.64795,3.16-3.846,0-2.055-1.104-3.631-2.979-3.631-1.593,0-3.031,1.29-3.031,3.965Zm0,3.487v1.648a29.47141,29.47141,0,0,0,.18,4.204h-3.057a20.067,20.067,0,0,1-.283-4.157v-5.326c0-3.223,1.002-4.657,2.132-5.613a6.25275,6.25275,0,0,1,4.264-1.529,5.64474,5.64474,0,0,1,5.985,5.972c0,4.108-2.902,6.186-5.779,6.186a4.18195,4.18195,0,0,1-3.391-1.385Z"/>
    <path class="cls-6" d="M374.10681,118.332a24.663,24.663,0,0,0-.436-6.711,31.38315,31.38315,0,0,0-4.367-9.651h3.545a27.01627,27.01627,0,0,1,3.339,8.45606h.103c.976-1.863,2.363-4.897,2.363-7.52405,0-.453-.026-.693-.026-.932h3.006a4.5815,4.5815,0,0,1,.05.861c0,2.961-1.9,6.806-4.417,10.246a.9308.9308,0,0,0-.154.574c.052,1.17.052,3.081.077,4.681Z"/>
    <path class="cls-6" d="M385.9454,107.345c-1.489-.382-2.312-1.29-2.312-2.43695,0-1.576,1.696-3.201,5.266-3.201a7.91511,7.91511,0,0,1,4.007.884l-.591,1.888a7.1142,7.1142,0,0,0-3.031-.693c-1.515,0-2.466.574-2.466,1.385,0,.932,1.259,1.314,3.134,1.33795h1.362v1.958h-1.387c-2.004.025-3.52.407-3.52,1.529,0,1.099,1.362,1.67206,2.903,1.67206a8.9816,8.9816,0,0,0,3.519-.811l.462,1.958a10.22692,10.22692,0,0,1-4.752,1.051c-2.645,0-5.496-.932-5.496-3.559a3.173,3.173,0,0,1,2.902-2.866Z"/>
    <path class="cls-6" d="M398.68481,110.33093c0,.955.308,1.337,1.181,1.29l-.179,2.054a4.15125,4.15125,0,0,1-1.362.191c-1.695,0-2.825-.669-2.825-3.249V101.97h3.185Z"/>
    <path class="cls-6" d="M404.71988,107.91815c0,1.95795,1.079,3.607,2.8,3.607a3.139,3.139,0,0,0,2.774-2.508,7.57038,7.57038,0,0,0,.103-1.362,4.78472,4.78472,0,0,0-.078-1.099,2.86536,2.86536,0,0,0-2.645-2.579c-1.773,0-2.954,1.743-2.954,3.917Zm9.067-5.94806c-.154,1.577-.36,5.16-.36,7.931,0,1.314.437,1.767,1.208,1.743l-.206,2.078a3.97231,3.97231,0,0,1-1.104.144,2.32221,2.32221,0,0,1-2.44-2.269h-.077a4.66826,4.66826,0,0,1-4.136,2.269c-2.928,0-5.163-2.294-5.163-5.85205,0-3.846,2.8-6.307,5.651-6.307a3.88053,3.88053,0,0,1,3.596,2.031h.103c.077-.716.18-1.266.282-1.768Z"/>
    <path class="cls-6" d="M429.03311,54.8194a22.90349,22.90349,0,1,1,22.904,22.902,22.90466,22.90466,0,0,1-22.904-22.902"/>
    <path class="cls-3" d="M450.3764,63.40424v-7.896l-5.986-11.043h3.934l2.277,4.861c.646,1.405,1.124,2.473,1.629,3.766h.056c.479-1.209,1.013-2.389,1.659-3.766l2.275-4.861h3.906l-6.293,10.959v7.98Z"/>
    <path class="cls-6" d="M481.72739,54.8194a22.90349,22.90349,0,1,1,22.904,22.902,22.90466,22.90466,0,0,1-22.904-22.902"/>
    <path class="cls-6" d="M429.03311,105.60461a22.90349,22.90349,0,1,1,22.904,22.903,22.90467,22.90467,0,0,1-22.904-22.903"/>
    <rect class="cls-3" x="443.20999" y="95.25098" width="3.457" height="18.93903"/>
    <polygon class="cls-3" points="461.222 105.789 454.085 105.789 454.085 111.352 462.067 111.352 462.067 114.191 450.63 114.191 450.63 95.252 461.644 95.252 461.644 98.09 454.085 98.09 454.085 102.979 461.222 102.979 461.222 105.789"/>
    <path class="cls-6" d="M481.72739,105.60461a22.90349,22.90349,0,1,1,22.904,22.903,22.90466,22.90466,0,0,1-22.904-22.903"/>
    <rect class="cls-3" x="488.69601" y="44.46497" width="3.457" height="18.93903"/>
    <path class="cls-3" d="M499.88019,44.46539h3.457V56.74445c0,5.227-2.53,6.969-6.295,6.969a9.20642,9.20642,0,0,1-2.894-.45l.421-2.781a7.59519,7.59519,0,0,0,2.137.337c1.966,0,3.174-.899,3.174-4.187Z"/>
    <path class="cls-3" d="M516.34857,55.42426l-1.489-4.665c-.366-1.152-.675-2.444-.956-3.54h-.057c-.28,1.096-.561,2.416-.898,3.54l-1.462,4.665Zm-5.423,2.613-1.631,5.367h-3.567l6.069-18.939h4.412l6.153,18.939h-3.709l-1.71405-5.367Z"/>
    <rect class="cls-3" x="494.20401" y="95.25305" width="3.457" height="18.93799"/>
    <path class="cls-3" d="M510.84027,106.212l-1.489-4.665c-.366-1.153-.675-2.446-.956-3.541h-.057c-.279,1.095-.561,2.416-.898,3.541l-1.462,4.665Zm-5.423,2.612-1.63,5.367h-3.568l6.069-18.938h4.412l6.153,18.938h-3.709l-1.714-5.367Z"/>
    <polyline class="cls-3" points="26.845 192.338 568.346 191.48 568.343 189.48 26.842 190.338"/>
  </g>
  <text class="cls-7" transform="translate(45.84961 184.63416)"><tspan class="cls-8" xml:space="preserve">                </tspan><tspan x="117.9751" y="0"> </tspan></text>
  <g class="cls-2">
    <rect x="275.45599" y="227.04407" width="4.01599" height="1.13397"/>
    <path d="M311.059,248.62122h1.371v.567l-.038-.566.092-.002a2.1876,2.1876,0,0,1,1.055.267,1.65062,1.65062,0,0,1,.615.603,1.98765,1.98765,0,0,1,.253,1.02v2.001h-1.134v-2.001a.85858.85858,0,0,0-.097-.448.57984.57984,0,0,0-.333-.25,1.17706,1.17706,0,0,0-.359-.059h-.02l-.004-.115.008.115h-.004l-.004-.115.008.115-.019.001h-1.39Z"/>
    <polygon points="276.371 226.281 276.193 226.441 274.887 226.441 274.709 226.281 274.462 224.054 274.605 223.895 276.476 223.895 276.619 224.054 276.371 226.281"/>
    <polyline points="275.004 252.683 275.004 225.495 276.138 225.495 276.138 252.683"/>
    <path class="cls-9" d="M311.322,249.74023a2.14328,2.14328,0,0,1-1.89,1.89,2.17785,2.17785,0,0,1-1.889-1.89v-23.944a1.88951,1.88951,0,0,1,3.779,0v23.944"/>
    <polygon class="cls-10" points="282.796 250.132 280.466 250.51 280.466 247.865 282.796 248.243 282.796 250.132"/>
    <polygon class="cls-9" points="282.796 250.132 285.126 250.51 285.126 247.865 282.796 248.243 282.796 250.132"/>
    <polygon class="cls-9" points="288.699 250.132 286.369 250.51 286.369 247.865 288.699 248.243 288.699 250.132"/>
    <polygon class="cls-9" points="288.699 250.132 291.029 250.51 291.029 247.865 288.699 248.243 288.699 250.132"/>
    <polygon class="cls-9" points="294.618 250.132 292.288 250.51 292.288 247.865 294.618 248.243 294.618 250.132"/>
    <polygon class="cls-9" points="294.618 250.132 296.948 250.51 296.948 247.865 294.618 248.243 294.618 250.132"/>
    <polygon class="cls-9" points="300.522 250.132 298.192 250.51 298.192 247.865 300.522 248.243 300.522 250.132"/>
    <polygon class="cls-9" points="300.522 250.132 302.852 250.51 302.852 247.865 300.522 248.243 300.522 250.132"/>
    <polygon class="cls-9" points="306.614 250.132 304.285 250.51 304.285 247.865 306.614 248.243 306.614 250.132"/>
    <polygon class="cls-9" points="306.614 250.132 308.944 250.51 308.944 247.865 306.614 248.243 306.614 250.132"/>
    <polygon class="cls-10" points="282.796 227.385 280.466 227.763 280.466 225.118 282.796 225.496 282.796 227.385"/>
    <polygon class="cls-9" points="282.796 227.385 285.126 227.763 285.126 225.118 282.796 225.496 282.796 227.385"/>
    <polygon class="cls-9" points="288.699 227.385 286.369 227.763 286.369 225.118 288.699 225.496 288.699 227.385"/>
    <polygon class="cls-9" points="288.699 227.385 291.029 227.763 291.029 225.118 288.699 225.496 288.699 227.385"/>
    <polygon class="cls-9" points="294.618 227.385 292.288 227.763 292.288 225.118 294.618 225.496 294.618 227.385"/>
    <polygon class="cls-9" points="294.618 227.385 296.948 227.763 296.948 225.118 294.618 225.496 294.618 227.385"/>
    <polygon class="cls-9" points="300.522 227.385 298.192 227.763 298.192 225.118 300.522 225.496 300.522 227.385"/>
    <polygon class="cls-9" points="300.522 227.385 302.852 227.763 302.852 225.118 300.522 225.496 300.522 227.385"/>
    <polygon class="cls-11" points="300.522 227.045 301.687 227.286 301.687 225.595 300.522 225.837 300.522 227.045"/>
    <polygon class="cls-9" points="306.614 227.385 304.285 227.763 304.285 225.118 306.614 225.496 306.614 227.385"/>
    <polygon class="cls-9" points="306.614 227.385 308.944 227.763 308.944 225.118 306.614 225.496 306.614 227.385"/>
    <polygon class="cls-10" points="300.522 227.385 298.192 227.763 298.192 225.118 300.522 225.496 300.522 227.385"/>
    <polygon class="cls-10" points="300.522 227.385 302.852 227.763 302.852 225.118 300.522 225.496 300.522 227.385"/>
    <path class="cls-12" d="M301.624,227.27319l-1.102-.228v-1.208l1.116-.232a1.35277,1.35277,0,0,0-.014.191v1.477"/>
    <polygon class="cls-10" points="306.276 227.385 303.947 227.763 303.947 225.118 306.276 225.496 306.276 227.385"/>
    <polygon class="cls-10" points="306.276 227.385 308.606 227.763 308.606 225.118 306.276 225.496 306.276 227.385"/>
    <polygon class="cls-12" points="307.441 227.286 307.44 227.286 306.276 227.045 306.276 225.837 307.44 225.595 307.441 225.595 307.441 227.286"/>
    <polygon class="cls-10" points="294.618 227.385 292.289 227.763 292.289 225.118 294.618 225.496 294.618 227.385"/>
    <polygon class="cls-10" points="294.618 227.385 296.948 227.763 296.948 225.118 294.618 225.496 294.618 227.385"/>
    <path class="cls-12" d="M295.705,227.2702l-1.087-.225v-1.208l1.1-.228a1.2885,1.2885,0,0,0-.013.18695v1.474"/>
    <polygon class="cls-10" points="288.699 227.385 286.369 227.763 286.369 225.118 288.699 225.496 288.699 227.385"/>
    <polygon class="cls-10" points="288.699 227.385 291.029 227.763 291.029 225.118 288.699 225.496 288.699 227.385"/>
    <path class="cls-12" d="M289.786,227.2702l-1.087-.225v-1.208l1.1-.229a1.31442,1.31442,0,0,0-.013.188v1.474"/>
    <polygon class="cls-10" points="282.796 227.385 280.466 227.763 280.466 225.118 282.796 225.496 282.796 227.385"/>
    <polygon class="cls-10" points="282.796 227.385 285.125 227.763 285.125 225.118 282.796 225.496 282.796 227.385"/>
    <path class="cls-12" d="M283.866,227.26721l-1.07-.222v-1.208l1.083-.225a1.41022,1.41022,0,0,0-.013.184v1.471"/>
    <polygon class="cls-10" points="300.522 250.131 298.192 250.509 298.192 247.864 300.522 248.242 300.522 250.131"/>
    <polygon class="cls-10" points="300.522 250.131 302.852 250.509 302.852 247.864 300.522 248.242 300.522 250.131"/>
    <path class="cls-12" d="M301.654,250.02521l-1.132-.235v-1.208l1.102-.228v1.386a1.41978,1.41978,0,0,0,.03.285"/>
    <polygon class="cls-10" points="306.276 250.131 303.947 250.509 303.947 247.864 306.276 248.242 306.276 250.131"/>
    <polygon class="cls-10" points="306.276 250.131 308.606 250.509 308.606 247.864 306.276 248.242 306.276 250.131"/>
    <polygon class="cls-12" points="307.441 250.032 307.44 250.032 306.276 249.79 306.276 248.582 307.441 248.341 307.441 250.032"/>
    <polygon class="cls-10" points="294.618 250.131 292.289 250.509 292.289 247.864 294.618 248.242 294.618 250.131"/>
    <polygon class="cls-10" points="294.618 250.131 296.948 250.509 296.948 247.864 294.618 248.242 294.618 250.131"/>
    <path class="cls-12" d="M295.734,250.02222l-1.116-.232v-1.20794l1.087-.225v1.383a1.38987,1.38987,0,0,0,.029.282"/>
    <polygon class="cls-10" points="288.699 250.131 286.369 250.509 286.369 247.864 288.699 248.242 288.699 250.131"/>
    <polygon class="cls-10" points="288.699 250.131 291.029 250.509 291.029 247.864 288.699 248.242 288.699 250.131"/>
    <path class="cls-12" d="M289.815,250.02222l-1.116-.232v-1.20794l1.087-.225v1.383a1.38987,1.38987,0,0,0,.029.282"/>
    <polygon class="cls-10" points="282.796 250.131 280.466 250.509 280.466 247.864 282.796 248.242 282.796 250.131"/>
    <polygon class="cls-10" points="282.796 250.131 285.125 250.509 285.125 247.864 282.796 248.242 282.796 250.131"/>
    <path class="cls-12" d="M283.895,250.01819l-1.099-.228v-1.208l1.07-.222v1.38a1.34365,1.34365,0,0,0,.029.278"/>
    <path class="cls-10" d="M311.322,249.74023a2.14328,2.14328,0,0,1-1.89,1.89,2.17785,2.17785,0,0,1-1.889-1.89v-23.944a1.88951,1.88951,0,0,1,3.779,0v23.944"/>
    <path class="cls-10" d="M305.402,249.74023a2.14325,2.14325,0,0,1-1.889,1.89,2.17782,2.17782,0,0,1-1.889-1.89v-23.944a1.889,1.889,0,0,1,3.778,0v23.944"/>
    <path class="cls-10" d="M299.483,249.74023a2.14325,2.14325,0,0,1-1.889,1.89,2.17688,2.17688,0,0,1-1.889-1.89v-23.944a1.889,1.889,0,0,1,3.778,0v23.944"/>
    <path class="cls-10" d="M293.564,249.74023a2.14326,2.14326,0,0,1-1.889,1.89,2.17688,2.17688,0,0,1-1.889-1.89v-23.944a1.889,1.889,0,0,1,3.778,0v23.944"/>
    <path class="cls-10" d="M287.644,249.74023a2.14325,2.14325,0,0,1-1.889,1.89,2.17782,2.17782,0,0,1-1.889-1.89v-23.944a1.889,1.889,0,0,1,3.778,0v23.944"/>
    <path class="cls-10" d="M281.725,249.74023a2.14326,2.14326,0,0,1-1.889,1.89,2.17782,2.17782,0,0,1-1.889-1.89v-23.944a1.889,1.889,0,0,1,3.778,0v23.944"/>
    <path class="cls-12" d="M309.432,251.39319a2.02221,2.02221,0,0,1-1.653-1.849v-23.447a2.02549,2.02549,0,0,1,1.653-1.85v27.147"/>
    <path class="cls-12" d="M303.54,251.39319a2.02455,2.02455,0,0,1-1.653-1.825v-23.496a2.02974,2.02974,0,0,1,1.653-1.825v27.146"/>
    <path class="cls-12" d="M297.649,251.39319a2.0221,2.0221,0,0,1-1.654-1.849v-23.447a2.02635,2.02635,0,0,1,1.654-1.85v27.147"/>
    <path class="cls-12" d="M291.756,251.39319a2.02123,2.02123,0,0,1-1.653-1.849v-23.447a2.02549,2.02549,0,0,1,1.653-1.85v27.147"/>
    <path class="cls-12" d="M285.865,251.39319a2.0221,2.0221,0,0,1-1.654-1.849v-23.447a2.02535,2.02535,0,0,1,1.654-1.85v27.147"/>
    <path class="cls-12" d="M279.973,251.39319a2.02454,2.02454,0,0,1-1.653-1.825v-23.496a2.0287,2.0287,0,0,1,1.653-1.825v27.146"/>
    <rect x="171.711" y="242.00702" width="3.213" height="0.90601"/>
    <path d="M200.193,259.26819h1.098v.453l-.031-.452.074-.002a1.73581,1.73581,0,0,1,.844.214,1.31149,1.31149,0,0,1,.491.482,1.5898,1.5898,0,0,1,.203.816v1.601h-.907v-1.601a.69816.69816,0,0,0-.078-.358.46118.46118,0,0,0-.266-.2.9337.9337,0,0,0-.287-.047h-.016l-.003-.093.006.093h-.003l-.003-.093.006.093-.015.001h-1.113Z"/>
    <polygon points="172.444 241.396 172.301 241.524 171.256 241.524 171.114 241.396 170.916 239.614 171.03 239.487 172.527 239.487 172.642 239.614 172.444 241.396"/>
    <polyline points="171.35 262.517 171.35 240.767 172.257 240.767 172.257 262.517"/>
    <path class="cls-9" d="M200.404,260.16321a1.71518,1.71518,0,0,1-1.512,1.512,1.74228,1.74228,0,0,1-1.511-1.512v-19.155a1.51151,1.51151,0,0,1,3.023,0v19.155"/>
    <polygon class="cls-10" points="177.583 260.477 175.719 260.779 175.719 258.663 177.583 258.966 177.583 260.477"/>
    <polygon class="cls-9" points="177.583 260.477 179.447 260.779 179.447 258.663 177.583 258.966 177.583 260.477"/>
    <polygon class="cls-9" points="182.306 260.477 180.442 260.779 180.442 258.663 182.306 258.966 182.306 260.477"/>
    <polygon class="cls-9" points="182.306 260.477 184.17 260.779 184.17 258.663 182.306 258.966 182.306 260.477"/>
    <polygon class="cls-9" points="187.041 260.477 185.177 260.779 185.177 258.663 187.041 258.966 187.041 260.477"/>
    <polygon class="cls-9" points="187.041 260.477 188.905 260.779 188.905 258.663 187.041 258.966 187.041 260.477"/>
    <polygon class="cls-9" points="191.764 260.477 189.9 260.779 189.9 258.663 191.764 258.966 191.764 260.477"/>
    <polygon class="cls-9" points="191.764 260.477 193.628 260.779 193.628 258.663 191.764 258.966 191.764 260.477"/>
    <polygon class="cls-9" points="196.638 260.477 194.774 260.779 194.774 258.663 196.638 258.966 196.638 260.477"/>
    <polygon class="cls-9" points="196.638 260.477 198.502 260.779 198.502 258.663 196.638 258.966 196.638 260.477"/>
    <polygon class="cls-10" points="177.583 242.279 175.719 242.581 175.719 240.466 177.583 240.768 177.583 242.279"/>
    <polygon class="cls-9" points="177.583 242.279 179.447 242.581 179.447 240.466 177.583 240.768 177.583 242.279"/>
    <polygon class="cls-9" points="182.306 242.279 180.442 242.581 180.442 240.466 182.306 240.768 182.306 242.279"/>
    <polygon class="cls-9" points="182.306 242.279 184.17 242.581 184.17 240.466 182.306 240.768 182.306 242.279"/>
    <polygon class="cls-9" points="187.041 242.279 185.177 242.581 185.177 240.466 187.041 240.768 187.041 242.279"/>
    <polygon class="cls-9" points="187.041 242.279 188.905 242.581 188.905 240.466 187.041 240.768 187.041 242.279"/>
    <polygon class="cls-9" points="191.764 242.279 189.9 242.581 189.9 240.466 191.764 240.768 191.764 242.279"/>
    <polygon class="cls-9" points="191.764 242.279 193.628 242.581 193.628 240.466 191.764 240.768 191.764 242.279"/>
    <polygon class="cls-11" points="191.764 242.007 192.696 242.2 192.696 240.847 191.764 241.04 191.764 242.007"/>
    <polygon class="cls-9" points="196.638 242.279 194.774 242.581 194.774 240.466 196.638 240.768 196.638 242.279"/>
    <polygon class="cls-9" points="196.638 242.279 198.502 242.581 198.502 240.466 196.638 240.768 196.638 242.279"/>
    <polygon class="cls-10" points="191.764 242.279 189.9 242.581 189.9 240.466 191.764 240.768 191.764 242.279"/>
    <polygon class="cls-10" points="191.764 242.279 193.628 242.581 193.628 240.466 191.764 240.768 191.764 242.279"/>
    <path class="cls-12" d="M192.646,242.19019l-.882-.183v-.967l.892-.185a1.10276,1.10276,0,0,0-.01.153v1.182"/>
    <polygon class="cls-10" points="196.367 242.279 194.504 242.581 194.504 240.466 196.367 240.768 196.367 242.279"/>
    <polygon class="cls-10" points="196.367 242.279 198.231 242.581 198.231 240.466 196.367 240.768 196.367 242.279"/>
    <polygon class="cls-12" points="197.299 242.2 197.299 242.2 196.367 242.007 196.367 241.04 197.298 240.847 197.299 240.847 197.299 242.2"/>
    <polygon class="cls-10" points="187.041 242.279 185.177 242.581 185.177 240.466 187.041 240.768 187.041 242.279"/>
    <polygon class="cls-10" points="187.041 242.279 188.905 242.581 188.905 240.466 187.041 240.768 187.041 242.279"/>
    <path class="cls-12" d="M187.91,242.18719l-.869-.18v-.967l.88-.182a1.06074,1.06074,0,0,0-.011.15v1.17895"/>
    <polygon class="cls-10" points="182.306 242.279 180.442 242.581 180.442 240.466 182.306 240.768 182.306 242.279"/>
    <polygon class="cls-10" points="182.306 242.279 184.17 242.581 184.17 240.466 182.306 240.768 182.306 242.279"/>
    <path class="cls-12" d="M183.175,242.18719l-.869-.18v-.967l.879-.182a1.0583,1.0583,0,0,0-.01.15v1.17895"/>
    <polygon class="cls-10" points="177.583 242.279 175.719 242.581 175.719 240.466 177.583 240.768 177.583 242.279"/>
    <polygon class="cls-10" points="177.583 242.279 179.447 242.581 179.447 240.466 177.583 240.768 177.583 242.279"/>
    <path class="cls-12" d="M178.439,242.1842l-.856-.17694v-.967l.867-.18a1.04379,1.04379,0,0,0-.011.148v1.176"/>
    <polygon class="cls-10" points="191.764 260.476 189.9 260.778 189.9 258.662 191.764 258.964 191.764 260.476"/>
    <polygon class="cls-10" points="191.764 260.476 193.628 260.778 193.628 258.662 191.764 258.964 191.764 260.476"/>
    <path class="cls-12" d="M192.67,260.39124l-.906-.188v-.966l.882-.183v1.109a1.07475,1.07475,0,0,0,.024.228"/>
    <polygon class="cls-10" points="196.367 260.476 194.504 260.778 194.504 258.662 196.367 258.964 196.367 260.476"/>
    <polygon class="cls-10" points="196.367 260.476 198.231 260.778 198.231 258.662 196.367 258.964 196.367 260.476"/>
    <polygon class="cls-12" points="197.299 260.396 197.298 260.396 196.367 260.203 196.367 259.237 197.298 259.044 197.299 259.044 197.299 260.396"/>
    <polygon class="cls-10" points="187.041 260.476 185.177 260.778 185.177 258.662 187.041 258.964 187.041 260.476"/>
    <polygon class="cls-10" points="187.041 260.476 188.905 260.778 188.905 258.662 187.041 258.964 187.041 260.476"/>
    <path class="cls-12" d="M187.934,260.38824l-.893-.185v-.966l.869-.181v1.107a1.0467,1.0467,0,0,0,.024.225"/>
    <polygon class="cls-10" points="182.306 260.476 180.442 260.778 180.442 258.662 182.306 258.964 182.306 260.476"/>
    <polygon class="cls-10" points="182.306 260.476 184.17 260.778 184.17 258.662 182.306 258.964 182.306 260.476"/>
    <path class="cls-12" d="M183.198,260.38824l-.892-.185v-.966l.869-.181v1.107a1.11313,1.11313,0,0,0,.023.225"/>
    <polygon class="cls-10" points="177.583 260.476 175.719 260.778 175.719 258.662 177.583 258.964 177.583 260.476"/>
    <polygon class="cls-10" points="177.583 260.476 179.447 260.778 179.447 258.662 177.583 258.964 177.583 260.476"/>
    <path class="cls-12" d="M178.462,260.38623l-.879-.183v-.966l.856-.178v1.104a1.10116,1.10116,0,0,0,.023.223"/>
    <path class="cls-10" d="M200.404,260.16321a1.71518,1.71518,0,0,1-1.512,1.512,1.74228,1.74228,0,0,1-1.511-1.512v-19.155a1.51151,1.51151,0,0,1,3.023,0v19.155"/>
    <path class="cls-10" d="M195.668,260.16321a1.71425,1.71425,0,0,1-1.511,1.512,1.74226,1.74226,0,0,1-1.511-1.512v-19.155a1.511,1.511,0,0,1,3.022,0v19.155"/>
    <path class="cls-10" d="M190.933,260.16321a1.71518,1.71518,0,0,1-1.512,1.512,1.74228,1.74228,0,0,1-1.511-1.512v-19.155a1.51151,1.51151,0,0,1,3.023,0v19.155"/>
    <path class="cls-10" d="M186.197,260.16321a1.71425,1.71425,0,0,1-1.511,1.512,1.74227,1.74227,0,0,1-1.511-1.512v-19.155a1.511,1.511,0,0,1,3.022,0v19.155"/>
    <path class="cls-10" d="M181.462,260.16321a1.71516,1.71516,0,0,1-1.511,1.512,1.74323,1.74323,0,0,1-1.512-1.512v-19.155a1.51151,1.51151,0,0,1,3.023,0v19.155"/>
    <path class="cls-10" d="M176.726,260.16321a1.71425,1.71425,0,0,1-1.511,1.512,1.74227,1.74227,0,0,1-1.511-1.512v-19.155a1.511,1.511,0,0,1,3.022,0v19.155"/>
    <path class="cls-12" d="M198.892,261.48621h0a1.61822,1.61822,0,0,1-1.322-1.48v-18.758a1.62,1.62,0,0,1,1.322-1.479v21.717"/>
    <path class="cls-12" d="M194.179,261.48621h0a1.62081,1.62081,0,0,1-1.323-1.458v-18.802a1.62275,1.62275,0,0,1,1.323-1.457v21.717"/>
    <path class="cls-12" d="M189.465,261.48621h0a1.62095,1.62095,0,0,1-1.322-1.458v-18.802a1.62287,1.62287,0,0,1,1.322-1.457v21.717"/>
    <path class="cls-12" d="M184.752,261.48621h0a1.61807,1.61807,0,0,1-1.323-1.48v-18.758a1.61988,1.61988,0,0,1,1.323-1.479v21.717"/>
    <path class="cls-12" d="M180.038,261.48621h0a1.61808,1.61808,0,0,1-1.323-1.48v-18.758a1.62087,1.62087,0,0,1,1.323-1.479v21.717"/>
    <path class="cls-12" d="M175.325,261.48621h0a1.61808,1.61808,0,0,1-1.323-1.48v-18.758a1.61988,1.61988,0,0,1,1.323-1.479v21.717"/>
  </g>
  <g class="cls-13">
    <rect class="cls-6" x="47.483" y="245.90601" width="44.903" height="70.30798"/>
  </g>
  <g class="cls-2">
    <rect class="cls-6" x="47.483" y="245.90497" width="44.903" height="70.30902"/>
    <path class="cls-14" d="M81.085,313.77527H58.783v-9.651H81.085Zm-31.02-67.87a2.58433,2.58433,0,0,0-2.582,2.581v53.056a2.58521,2.58521,0,0,0,2.582,2.582h6.252v9.507a2.5854,2.5854,0,0,0,2.582,2.58294H80.913a2.5854,2.5854,0,0,0,2.582-2.58294v-9.507h6.31a2.585,2.585,0,0,0,2.581-2.582v-53.056a2.58411,2.58411,0,0,0-2.581-2.581Zm25.246,66.015a3.29148,3.29148,0,1,1,3.291-3.291,3.29577,3.29577,0,0,1-3.291,3.291m-10.754,0a3.29148,3.29148,0,1,1,3.293-3.291,3.29471,3.29471,0,0,1-3.293,3.291"/>
    <path class="cls-6" d="M89.982,300.02319a1.57345,1.57345,0,0,1-1.579,1.558H51.466a1.57194,1.57194,0,0,1-1.578-1.558v-50.1a1.57192,1.57192,0,0,1,1.578-1.558H88.403a1.57343,1.57343,0,0,1,1.579,1.558Z"/>
    <path class="cls-14" d="M69.935,255.73724a16.24051,16.24051,0,1,0,16.239,16.24,16.259,16.259,0,0,0-16.239-16.24"/>
    <path class="cls-6" d="M64.701,282.17224l-.381-.226-.898-.535-.382-.228.227-.379a6.97638,6.97638,0,0,0,1.122-3.635,10.74391,10.74391,0,0,0-1.188-4.242l-.048-.111a11.93606,11.93606,0,0,1-1.3-4.834,8.37,8.37,0,0,1,1.384-4.474l.232-.37805.378.233.89.545.376.232-.231.378a6.49761,6.49761,0,0,0-1.097,3.464,10.56756,10.56756,0,0,0,1.187,4.176l.021.049a12.378,12.378,0,0,1,1.328,4.963,8.88248,8.88248,0,0,1-1.393,4.621Z"/>
    <path class="cls-6" d="M63.148,281.15625l1.526.909.186-.314a8.80862,8.80862,0,0,0,1.382-4.581,12.30966,12.30966,0,0,0-1.32-4.931l-.022-.049a10.62553,10.62553,0,0,1-1.194-4.208,6.58993,6.58993,0,0,1,1.109-3.505l.191-.311-1.512-.928-.191.311a8.315,8.315,0,0,0-1.372,4.433,11.889,11.889,0,0,0,1.294,4.803l.048.111a10.79215,10.79215,0,0,1,1.194,4.273,7.05436,7.05436,0,0,1-1.132,3.674Zm1.58,1.123-1.794-1.068.267-.448a6.90785,6.90785,0,0,0,1.11-3.594,10.696,10.696,0,0,0-1.18-4.208l-.05-.113a12.0123,12.0123,0,0,1-1.306-4.866,8.45259,8.45259,0,0,1,1.395-4.51495l.273-.445,1.778,1.093-.273.444a6.45566,6.45566,0,0,0-1.086,3.423,10.514,10.514,0,0,0,1.182,4.144l.021.049a12.45442,12.45442,0,0,1,1.334,4.995,8.949,8.949,0,0,1-1.404,4.66095Z"/>
    <path class="cls-6" d="M65.237,263.6662a.965.965,0,1,1-.965-.965.965.965,0,0,1,.965.965"/>
    <path class="cls-6" d="M64.272,262.77924a.88651.88651,0,1,0,.887.887.88814.88814,0,0,0-.887-.887m0,1.93a1.043,1.043,0,1,1,1.043-1.043,1.04515,1.04515,0,0,1-1.043,1.043"/>
    <path class="cls-6" d="M64.832,281.6842a.965.965,0,1,1-.966-.96594.96582.96582,0,0,1,.966.96594"/>
    <path class="cls-6" d="M63.866,280.7962a.887.887,0,1,0,.887.888.889.889,0,0,0-.887-.888m0,1.93a1.043,1.043,0,1,1,1.044-1.042,1.0441,1.0441,0,0,1-1.044,1.042"/>
    <path class="cls-6" d="M70.549,282.17224l-.381-.226-.898-.535-.381-.228.227-.379a7.00224,7.00224,0,0,0,1.121-3.635,10.76059,10.76059,0,0,0-1.188-4.242l-.048-.111a11.9359,11.9359,0,0,1-1.3-4.834,8.37,8.37,0,0,1,1.384-4.474l.231-.37805.378.233.89.545.377.232-.231.378a6.49943,6.49943,0,0,0-1.098,3.464,10.56957,10.56957,0,0,0,1.188,4.176l.021.049a12.37752,12.37752,0,0,1,1.327,4.963,8.87164,8.87164,0,0,1-1.392,4.621Z"/>
    <path class="cls-6" d="M68.996,281.15625l1.526.909.187-.314a8.81626,8.81626,0,0,0,1.381-4.581,12.31455,12.31455,0,0,0-1.321-4.932l-.021-.048a10.62536,10.62536,0,0,1-1.194-4.208,6.58367,6.58367,0,0,1,1.109-3.505l.191-.311-1.512-.928-.191.311a8.30135,8.30135,0,0,0-1.372,4.433,11.8892,11.8892,0,0,0,1.294,4.803l.048.111a10.81118,10.81118,0,0,1,1.194,4.27405,7.06279,7.06279,0,0,1-1.132,3.673Zm1.58,1.123-1.794-1.068.267-.448a6.90606,6.90606,0,0,0,1.109-3.594,10.66789,10.66789,0,0,0-1.181-4.21l-.048-.112a12.01069,12.01069,0,0,1-1.307-4.865,8.46017,8.46017,0,0,1,1.396-4.51495l.273-.445,1.777,1.093-.272.444a6.43825,6.43825,0,0,0-1.086,3.423,10.49735,10.49735,0,0,0,1.182,4.144l.021.05a12.45243,12.45243,0,0,1,1.334,4.994,8.95817,8.95817,0,0,1-1.404,4.66095Z"/>
    <path class="cls-6" d="M71.085,263.6662a.965.965,0,1,1-.965-.965.965.965,0,0,1,.965.965"/>
    <path class="cls-6" d="M70.12,262.77924a.88651.88651,0,1,0,.886.887.88814.88814,0,0,0-.886-.887m0,1.93a1.043,1.043,0,1,1,1.043-1.043,1.04515,1.04515,0,0,1-1.043,1.043"/>
    <path class="cls-6" d="M70.679,281.6842a.965.965,0,1,1-.965-.96594.965.965,0,0,1,.965.96594"/>
    <path class="cls-6" d="M69.714,280.7962a.887.887,0,1,0,.887.888.889.889,0,0,0-.887-.888m0,1.93a1.043,1.043,0,1,1,1.043-1.042,1.0441,1.0441,0,0,1-1.043,1.042"/>
    <path class="cls-6" d="M76.397,282.17224l-.381-.226-.898-.535-.381-.228.226-.379a6.99479,6.99479,0,0,0,1.122-3.635,10.76059,10.76059,0,0,0-1.188-4.242l-.049-.111a11.96781,11.96781,0,0,1-1.3-4.834,8.3874,8.3874,0,0,1,1.384-4.474l.232-.37805.378.233.89.545.377.232-.231.378a6.49943,6.49943,0,0,0-1.098,3.464,10.58435,10.58435,0,0,0,1.187,4.176l.022.049a12.37752,12.37752,0,0,1,1.327,4.963,8.87164,8.87164,0,0,1-1.392,4.621Z"/>
    <path class="cls-6" d="M74.844,281.15625l1.526.909.187-.314a8.80538,8.80538,0,0,0,1.38-4.581,12.28757,12.28757,0,0,0-1.319-4.929l-.022-.051a10.64354,10.64354,0,0,1-1.195-4.208,6.60033,6.60033,0,0,1,1.11-3.505l.191-.311-1.512-.928-.192.311a8.31351,8.31351,0,0,0-1.371,4.433,11.87307,11.87307,0,0,0,1.294,4.803l.047.111a10.82181,10.82181,0,0,1,1.195,4.273,7.05613,7.05613,0,0,1-1.133,3.674Zm1.58,1.123-1.795-1.068.266-.448a6.89121,6.89121,0,0,0,1.111-3.594,10.70012,10.70012,0,0,0-1.18-4.21l-.049-.111a12.0196,12.0196,0,0,1-1.307-4.866,8.46982,8.46982,0,0,1,1.395-4.51495l.274-.445,1.777,1.093-.272.444a6.43825,6.43825,0,0,0-1.086,3.423,10.51212,10.51212,0,0,0,1.181,4.144l.021.049a12.43564,12.43564,0,0,1,1.334,4.995,8.94734,8.94734,0,0,1-1.403,4.66095Z"/>
    <path class="cls-6" d="M76.932,263.6662a.9645.9645,0,1,1-.965-.965.965.965,0,0,1,.965.965"/>
    <path class="cls-6" d="M75.967,262.77924a.88651.88651,0,1,0,.887.887.88878.88878,0,0,0-.887-.887m0,1.93a1.043,1.043,0,1,1,1.044-1.043,1.04494,1.04494,0,0,1-1.044,1.043"/>
    <path class="cls-6" d="M76.527,281.6842a.965.965,0,1,1-.965-.96594.965.965,0,0,1,.965.96594"/>
    <path class="cls-6" d="M75.562,280.7962a.887.887,0,1,0,.887.888.889.889,0,0,0-.887-.888m0,1.93a1.043,1.043,0,1,1,1.043-1.042,1.04432,1.04432,0,0,1-1.043,1.042"/>
  </g>
  <g class="cls-15">
    <rect class="cls-6" x="237.321" y="271.86603" width="201.00999" height="210.30798"/>
  </g>
  <g class="cls-16">
    <rect class="cls-6" x="237.321" y="271.86603" width="201.00999" height="210.30798"/>
    <polygon class="cls-17" points="237.321 314.498 237.321 332.968 354.865 332.968 364.014 323.732 354.865 314.498 237.321 314.498"/>
    <polygon class="cls-18" points="237.321 293.182 237.321 311.652 344.211 311.652 353.359 302.417 344.211 293.182 237.321 293.182"/>
    <polygon class="cls-19" points="237.321 271.867 237.321 290.336 333.561 290.336 342.708 281.102 333.561 271.867 237.321 271.867"/>
    <polygon class="cls-5" points="237.321 335.813 237.321 354.283 365.764 354.283 374.922 345.048 365.764 335.813 237.321 335.813"/>
    <polygon class="cls-20" points="237.321 357.129 237.321 375.6 376.408 375.6 385.569 366.365 376.408 357.129 237.321 357.129"/>
    <polygon class="cls-21" points="237.321 378.446 237.321 396.916 387.052 396.916 396.218 387.678 387.052 378.446 237.321 378.446"/>
    <polygon class="cls-22" points="237.321 399.761 237.321 418.229 397.698 418.229 406.865 408.996 397.698 399.761 237.321 399.761"/>
    <polygon class="cls-22" points="237.321 421.074 237.321 439.545 408.344 439.545 417.516 430.309 408.344 421.074 237.321 421.074"/>
    <polygon class="cls-22" points="237.321 442.39 237.321 460.86 418.443 460.86 428.214 451.626 418.443 442.39 237.321 442.39"/>
    <polygon class="cls-22" points="237.321 463.706 237.321 482.173 428.561 482.173 438.331 472.942 428.561 463.706 237.321 463.706"/>
  </g>
  <text class="cls-23" transform="translate(277.89453 288.24939)"> </text>
  <text class="cls-23" transform="translate(281.51074 286.24939)">A</text>
  <text class="cls-24" transform="translate(291.21484 280.92322)"><tspan class="cls-25">++</tspan><tspan x="9.49707" y="0">+</tspan></text>
  <text class="cls-23" transform="translate(277.89453 309.54041)"> </text>
  <text class="cls-23" transform="translate(281.51074 307.54041)">A</text>
  <text class="cls-24" transform="translate(291.21484 302.22009)"><tspan class="cls-25">+</tspan><tspan x="4.74854" y="0">+</tspan></text>
  <text class="cls-23" transform="translate(277.89453 330.85095)"> </text>
  <text class="cls-23" transform="translate(281.51074 328.85095)">A</text>
  <text class="cls-24" transform="translate(291.21484 323.51697)">+</text>
  <text class="cls-23" transform="translate(277.89453 350.14978)"> </text>
  <text class="cls-23" transform="translate(281.51025 350.14978)">A</text>
  <text class="cls-23" transform="translate(277.89453 371.44568)"> </text>
  <text class="cls-23" transform="translate(281.51025 371.44568)">B</text>
  <text class="cls-23" transform="translate(277.89453 392.75769)"> </text>
  <text class="cls-23" transform="translate(281.51025 392.75769)">C</text>
  <text class="cls-23" transform="translate(277.89453 414.05359)"> </text>
  <text class="cls-23" transform="translate(281.51025 414.05359)">D</text>
  <text class="cls-23" transform="translate(277.89453 435.34998)"> </text>
  <text class="cls-23" transform="translate(281.51025 435.34998)">E</text>
  <text class="cls-23" transform="translate(277.89453 456.64587)"> </text>
  <text class="cls-23" transform="translate(281.51025 456.64587)">F</text>
  <text class="cls-23" transform="translate(277.89453 477.9574)"> </text>
  <text class="cls-23" transform="translate(281.51025 477.9574)">G</text>
  <g class="cls-26">
    <rect class="cls-6" x="237.321" y="572.07901" width="201.00999" height="210.30701"/>
  </g>
  <g class="cls-27">
    <rect class="cls-6" x="237.321" y="572.07901" width="201.00999" height="210.307"/>
    <polygon class="cls-17" points="237.321 614.711 237.321 633.18 354.865 633.18 364.014 623.945 354.865 614.711 237.321 614.711"/>
    <polygon class="cls-18" points="237.321 593.395 237.321 611.864 344.211 611.864 353.359 602.629 344.211 593.395 237.321 593.395"/>
    <polygon class="cls-19" points="237.321 572.079 237.321 590.549 333.561 590.549 342.708 581.314 333.561 572.079 237.321 572.079"/>
    <polygon class="cls-5" points="237.321 636.026 237.321 654.496 365.764 654.496 374.922 645.261 365.764 636.026 237.321 636.026"/>
    <polygon class="cls-20" points="237.321 657.341 237.321 675.813 376.408 675.813 385.569 666.578 376.408 657.341 237.321 657.341"/>
    <polygon class="cls-21" points="237.321 678.659 237.321 697.128 387.052 697.128 396.218 687.891 387.052 678.659 237.321 678.659"/>
    <polygon class="cls-22" points="237.321 699.974 237.321 718.441 397.698 718.441 406.865 709.209 397.698 699.974 237.321 699.974"/>
    <polygon class="cls-22" points="237.321 721.287 237.321 739.757 408.344 739.757 417.516 730.522 408.344 721.287 237.321 721.287"/>
    <polygon class="cls-22" points="237.321 742.603 237.321 761.073 418.443 761.073 428.214 751.839 418.443 742.603 237.321 742.603"/>
    <polygon class="cls-22" points="237.321 763.918 237.321 782.386 428.561 782.386 438.331 773.155 428.561 763.918 237.321 763.918"/>
  </g>
  <text class="cls-23" transform="translate(277.89453 588.46228)"> </text>
  <text class="cls-23" transform="translate(281.51074 586.46228)">A</text>
  <text class="cls-24" transform="translate(291.21484 581.12634)"><tspan class="cls-25">++</tspan><tspan x="9.49707" y="0">+</tspan></text>
  <text class="cls-23" transform="translate(277.89453 609.75916)"> </text>
  <text class="cls-23" transform="translate(281.51074 607.75916)">A</text>
  <text class="cls-24" transform="translate(291.21484 602.42029)"><tspan class="cls-25">+</tspan><tspan x="4.74854" y="0">+</tspan></text>
  <text class="cls-23" transform="translate(277.89453 631.05603)"> </text>
  <text class="cls-23" transform="translate(281.51074 629.05603)">A</text>
  <text class="cls-24" transform="translate(291.21484 623.73572)">+</text>
  <text class="cls-23" transform="translate(277.89453 650.35291)"> </text>
  <text class="cls-23" transform="translate(281.51025 650.35291)">A</text>
  <text class="cls-23" transform="translate(277.89453 671.6488)"> </text>
  <text class="cls-23" transform="translate(281.51025 671.6488)">B</text>
  <text class="cls-23" transform="translate(277.89453 692.9447)"> </text>
  <text class="cls-23" transform="translate(281.51025 692.9447)">C</text>
  <text class="cls-23" transform="translate(277.89453 714.2572)"> </text>
  <text class="cls-23" transform="translate(281.51025 714.2572)">D</text>
  <text class="cls-23" transform="translate(277.89453 735.5531)"> </text>
  <text class="cls-23" transform="translate(281.51025 735.5531)">E</text>
  <text class="cls-23" transform="translate(277.89453 756.86462)"> </text>
  <text class="cls-23" transform="translate(281.51025 756.86462)">F</text>
  <text class="cls-23" transform="translate(277.89453 778.16052)"> </text>
  <text class="cls-23" transform="translate(281.51025 778.16052)">G</text>
  <g class="cls-2">
    <rect class="cls-6" x="93.546" y="484.01401" width="44.90301" height="77.50601"/>
    <rect class="cls-6" x="93.546" y="484.01404" width="44.90301" height="77.50598"/>
    <path class="cls-6" d="M119.182,515.2742l-1.062,1.322,1.592.784,1.384.325-.729-2.525s-.289.04-1.185.094"/>
    <path d="M99.8711,554.33923a.71428.71428,0,0,0,.717.693h30.821a.715.715,0,0,0,.717-.693v-59.099c-1.354-1.125-8.993-4.568-16.266-4.568-7.193,0-14.683,3.439-15.989,4.557Zm-.946,6.024a4.22571,4.22571,0,0,1-4.222-4.22v-62.959c0-.905.747-1.736,2.498-2.778a34.20147,34.20147,0,0,1,5.068-2.365c2.263-.863,8.118-2.871,13.591-2.871,5.516,0,11.452,2.007,13.749,2.869,5.098,1.916,7.684,3.647,7.684,5.145v62.959a4.2255,4.2255,0,0,1-4.221,4.22Z"/>
    <path class="cls-6" d="M101.028,495.83722a25.33891,25.33891,0,0,1,4.921-2.194,31.73173,31.73173,0,0,1,9.911-1.814,32.78145,32.78145,0,0,1,10.033,1.823,27.3476,27.3476,0,0,1,5.076,2.204v58.019H101.028Zm14.832-11.823c-5.665,0-11.68,2.061-14.003,2.946a34.99444,34.99444,0,0,0-5.248,2.452c-1.514.902-3.062,2.055-3.062,3.772v62.959a5.38317,5.38317,0,0,0,5.378,5.377h34.147a5.383,5.383,0,0,0,5.377-5.377v-62.959c0-1.727-1.572-2.88-3.111-3.781a35.74511,35.74511,0,0,0-5.323-2.447c-2.355-.884-8.449-2.942-14.155-2.942m-15.272,72.175h30.821a1.86685,1.86685,0,0,0,1.873-1.85v-59.451c0-1.016-9.181-5.373-17.422-5.373-8.294,0-17.146,4.357-17.146,5.373v59.451a1.86707,1.86707,0,0,0,1.874,1.85m15.272-69.862c8.544,0,20.276,5.168,20.276,6.857v62.959a3.06875,3.06875,0,0,1-3.064,3.064H98.925a3.069,3.069,0,0,1-3.065-3.064v-62.959c0-1.689,11.524-6.857,20-6.857"/>
    <path class="cls-6" d="M115.86,489.51523c-8.294,0-17.146,4.357-17.146,5.374v59.451a1.86687,1.86687,0,0,0,1.874,1.849h30.821a1.86751,1.86751,0,0,0,1.874-1.849v-59.451c0-1.017-9.182-5.374-17.423-5.374"/>
    <path d="M101.75,512.78421a4.4153,4.4153,0,0,0,3.611,2.404,4.78387,4.78387,0,0,0,3.584-2.366,4.41921,4.41921,0,0,0,3.589,2.366,4.78843,4.78843,0,0,0,3.587-2.366,4.41,4.41,0,0,0,3.59,2.366,4.79654,4.79654,0,0,0,3.587-2.366,4.40564,4.40564,0,0,0,3.588,2.366,4.78655,4.78655,0,0,0,3.578-2.355v-2.506a4.77235,4.77235,0,0,1-3.578,2.353,4.40434,4.40434,0,0,1-3.588-2.365,4.78115,4.78115,0,0,1-3.587,2.365,4.40866,4.40866,0,0,1-3.59-2.365,4.77311,4.77311,0,0,1-3.587,2.365,4.4179,4.4179,0,0,1-3.589-2.365,4.76855,4.76855,0,0,1-3.584,2.365,4.41842,4.41842,0,0,1-3.611-2.403c.003-.019.01-.034.013-.052h-.031v2.507h.031c-.003.019-.01.034-.013.052"/>
    <path d="M101.75,518.46323a4.41751,4.41751,0,0,0,3.611,2.404,4.78267,4.78267,0,0,0,3.584-2.367,4.42276,4.42276,0,0,0,3.589,2.367,4.78723,4.78723,0,0,0,3.587-2.367,4.41349,4.41349,0,0,0,3.59,2.367,4.79533,4.79533,0,0,0,3.587-2.367,4.40917,4.40917,0,0,0,3.588,2.367,4.78532,4.78532,0,0,0,3.578-2.356v-2.507a4.78248,4.78248,0,0,1-3.578,2.356,4.40683,4.40683,0,0,1-3.588-2.367,4.79251,4.79251,0,0,1-3.587,2.367,4.41114,4.41114,0,0,1-3.59-2.367,4.78442,4.78442,0,0,1-3.587,2.367,4.4204,4.4204,0,0,1-3.589-2.367,4.77986,4.77986,0,0,1-3.584,2.367,4.42087,4.42087,0,0,1-3.611-2.405c.003-.017.01-.034.013-.052h-.031v2.507h.031c-.003.018-.01.035-.013.053"/>
    <path d="M126.886,524.03821a4.40648,4.40648,0,0,1-3.588-2.365,4.78655,4.78655,0,0,1-3.587,2.365,4.408,4.408,0,0,1-3.589-2.365,4.78164,4.78164,0,0,1-3.588,2.365,4.42005,4.42005,0,0,1-3.589-2.365,4.77391,4.77391,0,0,1-3.584,2.365,4.4171,4.4171,0,0,1-3.612-2.405c.004-.018.01-.032.014-.052h-.032v2.507h.032c-.004.02-.01.035-.014.054a4.41683,4.41683,0,0,0,3.612,2.403,4.7823,4.7823,0,0,0,3.584-2.365,4.41569,4.41569,0,0,0,3.589,2.365,4.79,4.79,0,0,0,3.588-2.365,4.40364,4.40364,0,0,0,3.589,2.365,4.795,4.795,0,0,0,3.587-2.365,4.40215,4.40215,0,0,0,3.588,2.365,4.78532,4.78532,0,0,0,3.578-2.356v-2.506a4.77534,4.77534,0,0,1-3.578,2.355"/>
    <polygon class="cls-3" points="195.185 614.232 193.185 614.232 193.185 646.248 227.2 646.248 227.2 612.232 193.185 612.232 193.185 614.232 195.185 614.232 195.185 616.232 223.2 616.232 223.2 642.248 197.185 642.248 197.185 614.232 195.185 614.232 195.185 616.232 195.185 614.232"/>
  </g>
  <text class="cls-28" transform="translate(44.04297 642.17322)">+</text>
  <g class="cls-2">
    <rect class="cls-6" x="74.994" y="396.91202" width="82.00801" height="59.61398"/>
    <rect class="cls-6" x="74.994" y="396.91199" width="82.00801" height="59.61401"/>
    <path class="cls-29" d="M127.623,396.9122h1.168a.48851.48851,0,0,1,.442.5l.447,6.534a.46279.46279,0,0,1-.44.501h-2.064a.46494.46494,0,0,1-.442-.501l.448-6.534a.487.487,0,0,1,.441-.5"/>
    <path class="cls-29" d="M139.501,399.86621l1.011.584a.49025.49025,0,0,1,.134.654l-2.879,5.881a.46521.46521,0,0,1-.633.214l-1.787-1.033a.46306.46306,0,0,1-.133-.654l3.654-5.435a.4896.4896,0,0,1,.633-.211"/>
    <path class="cls-29" d="M148.312,408.36322l.583,1.011a.48825.48825,0,0,1-.213.633l-5.434,3.655a.46545.46545,0,0,1-.655-.133l-1.031-1.787a.46539.46539,0,0,1,.213-.633l5.882-2.879a.48985.48985,0,0,1,.655.133"/>
    <path class="cls-29" d="M151.691,420.12622v1.169a.4892.4892,0,0,1-.5.441l-6.534.447a.46376.46376,0,0,1-.5-.44v-2.064a.46605.46605,0,0,1,.5-.443l6.534.449a.48771.48771,0,0,1,.5.441"/>
    <path class="cls-29" d="M148.737,432.00421l-.584,1.012a.49113.49113,0,0,1-.655.132l-5.881-2.88a.46141.46141,0,0,1-.212-.632l1.031-1.786a.4633.4633,0,0,1,.654-.133l5.435,3.654a.49076.49076,0,0,1,.212.633"/>
    <path class="cls-29" d="M107.363,409.1022l.584-1.011a.48851.48851,0,0,1,.654-.134l5.882,2.879a.46673.46673,0,0,1,.213.633l-1.033,1.786a.46129.46129,0,0,1-.653.133l-5.434-3.653a.49011.49011,0,0,1-.213-.633"/>
  </g>
  <g class="cls-30">
    <path class="cls-29" d="M115.861,400.29321l1.011-.585a.48935.48935,0,0,1,.632.213l3.655,5.433a.4659.4659,0,0,1-.133.655l-1.787,1.032a.46225.46225,0,0,1-.632-.214l-2.879-5.88a.48662.48662,0,0,1,.133-.654"/>
    <g transform="translate(2.3 -10.5)">
      <path class="cls-29" d="M91.5527,426.48163h16.828q4.20149,0,8.409.004h8.421a3.36107,3.36107,0,0,1,3.012,1.837q.73051,1.8885,1.535,3.975.846,2.1915,1.795,4.637,1.0035,2.592,2.12,5.497,1.1925,3.08552,2.547,6.601c.814,2.108-.068,3.947-2.012,3.947q-6.462,0-12.922.007H82.5377c-1.943,0-2.831-1.826-2.013-3.942.905-2.347,1.751-4.543,2.547-6.605q1.12651-2.91152,2.133-5.508c.631-1.627,1.229-3.178,1.794-4.641q.807-2.08648,1.543-3.978a3.35525,3.35525,0,0,1,3.011-1.831"/>
      <path class="cls-23" d="M116.3927,429.81464q3.7815,0,7.571.005a1.07406,1.07406,0,0,1,.974.599q.552,1.53154,1.16,3.228.64352,1.788,1.364,3.781.762,2.11053,1.617,4.498.912,2.538,1.955,5.439c.246.684-.049,1.254-.663,1.254q-5.5695,0-11.131.004a1.41768,1.41768,0,0,1-1.286-1.257q-.3825-2.8965-.717-5.438-.31648-2.388-.596-4.5-.26549-1.995-.504-3.782-.22352-1.6995-.427-3.23c-.043-.333.264-.601.683-.601"/>
      <path class="cls-23" d="M104.59769,429.81262q3.78152,0,7.563.002a.79729.79729,0,0,1,.83.601c.12,1.024.238,2.097.367,3.23q.2025,1.78949.432,3.782.2385,2.115.51,4.5.2895,2.54553.617,5.438a1.05478,1.05478,0,0,1-.978,1.259q-5.5635.00147-11.13.001a1.05221,1.05221,0,0,1-.977-1.255c.223-1.936.426-3.746.62-5.443.181-1.592.357-3.09.518-4.504q.225-1.992.429-3.781.195-1.695.368-3.229a.79794.79794,0,0,1,.831-.601"/>
      <path class="cls-23" d="M92.7957,429.81061q3.7845,0,7.569.002c.419,0,.727.27.683.601-.136,1.024-.281,2.096-.432,3.229q-.23551,1.788-.501,3.781-.28648,2.1195-.602,4.504c-.226,1.697-.463,3.507-.72,5.443a1.414,1.414,0,0,1-1.287,1.255q-5.56952,0-11.132.006c-.616,0-.911-.57-.662-1.261q1.04251-2.898,1.956-5.443c.753-2.088.96-2.664,1.625-4.504q.72-1.992,1.363-3.785.609-1.6935,1.166-3.227a1.07006,1.07006,0,0,1,.974-.601"/>
    </g>
  </g>
  <g class="cls-2">
    <path class="cls-14" d="M120.922,413.6152h8.421a3.36068,3.36068,0,0,1,3.012,1.837q.7305,1.89,1.536,3.975.846,2.19451,1.795,4.638,1.002,2.592,2.119,5.498c.169.433.339.875.51,1.32a14.60479,14.60479,0,1,0-23.086-17.27q2.847.00151,5.693.002"/>
    <rect class="cls-14" x="88.16701" y="425.55502" width="43.739" height="2.772"/>
    <polygon class="cls-14" points="103.799 444.96 117.854 444.959 120.886 456.67 101.177 456.666 103.799 444.96"/>
    <polygon class="cls-3" points="195.421 715.492 193.421 715.492 193.421 747.508 227.437 747.508 227.437 713.492 193.421 713.492 193.421 715.492 195.421 715.492 195.421 717.492 223.437 717.492 223.437 743.508 197.421 743.508 197.421 715.492 195.421 715.492 195.421 717.492 195.421 715.492"/>
  </g>
  <text class="cls-28" transform="translate(44.04297 743.43689)">+</text>
  <text class="cls-28" transform="translate(44.04297 439.63708)">+</text>
  <g class="cls-2">
    <polygon class="cls-3" points="195.421 411.711 193.421 411.711 193.421 443.727 227.437 443.727 227.437 409.711 193.421 409.711 193.421 411.711 195.421 411.711 195.421 413.711 223.437 413.711 223.437 439.727 197.421 439.727 197.421 411.711 195.421 411.711 195.421 413.711 195.421 411.711"/>
  </g>
  <g class="cls-31">
    <rect class="cls-6" x="93.774" y="701.93802" width="44.903" height="70.309"/>
  </g>
  <g class="cls-2">
    <rect class="cls-6" x="93.774" y="701.93802" width="44.903" height="70.309"/>
    <path class="cls-14" d="M127.376,769.80822H105.074v-9.651h22.302Zm-31.02-67.87a2.58436,2.58436,0,0,0-2.582,2.581v53.056a2.58522,2.58522,0,0,0,2.582,2.582h6.252v9.507a2.58457,2.58457,0,0,0,2.582,2.582h22.014a2.58457,2.58457,0,0,0,2.582-2.582v-9.507h6.309a2.5852,2.5852,0,0,0,2.582-2.582v-53.056a2.58435,2.58435,0,0,0-2.582-2.581Zm25.245,66.015a3.2915,3.2915,0,1,1,3.292-3.291,3.29557,3.29557,0,0,1-3.292,3.291m-10.753,0a3.2915,3.2915,0,1,1,3.293-3.291,3.29473,3.29473,0,0,1-3.293,3.291"/>
    <path class="cls-6" d="M136.273,756.05521a1.57345,1.57345,0,0,1-1.579,1.558H97.757a1.5728,1.5728,0,0,1-1.579-1.558v-50.099a1.57279,1.57279,0,0,1,1.579-1.558h36.937a1.57344,1.57344,0,0,1,1.579,1.558Z"/>
    <path class="cls-14" d="M116.226,711.77022a16.24,16.24,0,1,0,16.239,16.24,16.259,16.259,0,0,0-16.239-16.24"/>
    <path class="cls-6" d="M110.992,738.20422l-.381-.225-.898-.535-.382-.228.227-.38a6.97045,6.97045,0,0,0,1.122-3.634,10.74359,10.74359,0,0,0-1.188-4.242l-.048-.111a11.9358,11.9358,0,0,1-1.3-4.834,8.37031,8.37031,0,0,1,1.384-4.474l.231-.378.379.232.889.546.377.232-.231.378a6.49758,6.49758,0,0,0-1.097,3.464,10.56755,10.56755,0,0,0,1.187,4.176l.021.049a12.37816,12.37816,0,0,1,1.328,4.963,8.882,8.882,0,0,1-1.393,4.62Z"/>
    <path class="cls-6" d="M109.439,737.18922l1.526.908.186-.314a8.80254,8.80254,0,0,0,1.382-4.58,12.30956,12.30956,0,0,0-1.32-4.931l-.022-.05a10.6167,10.6167,0,0,1-1.194-4.208,6.58939,6.58939,0,0,1,1.109-3.504l.191-.311-1.512-.928-.191.311a8.31449,8.31449,0,0,0-1.372,4.432,11.89372,11.89372,0,0,0,1.294,4.804l.048.111a10.79206,10.79206,0,0,1,1.194,4.273,7.057,7.057,0,0,1-1.132,3.674Zm1.58,1.123-1.794-1.068.267-.448a6.90791,6.90791,0,0,0,1.11-3.594,10.68494,10.68494,0,0,0-1.181-4.209l-.049-.112a12.01246,12.01246,0,0,1-1.306-4.867,8.45787,8.45787,0,0,1,1.395-4.515l.273-.444,1.778,1.092-.273.445a6.44453,6.44453,0,0,0-1.086,3.423,10.5138,10.5138,0,0,0,1.182,4.144l.021.049a12.4548,12.4548,0,0,1,1.334,4.995,8.9583,8.9583,0,0,1-1.404,4.661Z"/>
    <path class="cls-6" d="M111.528,719.69921a.965.965,0,1,1-.965-.966.965.965,0,0,1,.965.966"/>
    <path class="cls-6" d="M110.563,718.81223a.8865.8865,0,1,0,.887.887.88812.88812,0,0,0-.887-.887m0,1.93a1.043,1.043,0,1,1,1.043-1.043,1.04518,1.04518,0,0,1-1.043,1.043"/>
    <path class="cls-6" d="M111.122,737.71722a.965.965,0,1,1-.965-.966.96495.96495,0,0,1,.965.966"/>
    <path class="cls-6" d="M110.157,736.82922a.887.887,0,1,0,.887.888.88833.88833,0,0,0-.887-.888m0,1.93a1.043,1.043,0,1,1,1.044-1.042,1.04412,1.04412,0,0,1-1.044,1.042"/>
    <path class="cls-6" d="M116.84,738.20422l-.381-.225-.898-.535-.381-.228.227-.38a6.99628,6.99628,0,0,0,1.121-3.634,10.76025,10.76025,0,0,0-1.188-4.242l-.048-.111a11.93647,11.93647,0,0,1-1.301-4.834,8.38769,8.38769,0,0,1,1.384-4.474l.232-.378.378.232.89.546.377.232-.231.378a6.49942,6.49942,0,0,0-1.098,3.464,10.56956,10.56956,0,0,0,1.188,4.176l.02.049a12.36176,12.36176,0,0,1,1.328,4.963,8.86357,8.86357,0,0,1-1.393,4.62Z"/>
    <path class="cls-6" d="M115.287,737.18922l1.526.908.187-.314a8.81017,8.81017,0,0,0,1.381-4.58,12.31477,12.31477,0,0,0-1.321-4.932l-.021-.049a10.6167,10.6167,0,0,1-1.194-4.208,6.58333,6.58333,0,0,1,1.109-3.504l.191-.312-1.512-.927-.191.311a8.30066,8.30066,0,0,0-1.372,4.432,11.88932,11.88932,0,0,0,1.294,4.804l.047.111a10.796,10.796,0,0,1,1.195,4.274,7.06562,7.06562,0,0,1-1.132,3.673Zm1.58,1.123-1.795-1.068.267-.448a6.90134,6.90134,0,0,0,1.11-3.594,10.66822,10.66822,0,0,0-1.181-4.21l-.048-.112a12.011,12.011,0,0,1-1.307-4.866,8.463,8.463,0,0,1,1.396-4.515l.273-.444,1.777,1.092-.272.445a6.4384,6.4384,0,0,0-1.086,3.423,10.49717,10.49717,0,0,0,1.182,4.144l.021.049a12.44533,12.44533,0,0,1,1.333,4.995,8.94747,8.94747,0,0,1-1.403,4.661Z"/>
    <path class="cls-6" d="M117.375,719.69921a.9645.9645,0,1,1-.964-.966.96474.96474,0,0,1,.964.966"/>
    <path class="cls-6" d="M116.411,718.81223a.8865.8865,0,1,0,.886.887.88812.88812,0,0,0-.886-.887m0,1.93a1.043,1.043,0,1,1,1.043-1.043,1.04518,1.04518,0,0,1-1.043,1.043"/>
    <path class="cls-6" d="M116.97,737.71722a.965.965,0,1,1-.965-.966.96495.96495,0,0,1,.965.966"/>
    <path class="cls-6" d="M116.005,736.82922a.887.887,0,1,0,.887.888.88833.88833,0,0,0-.887-.888m0,1.93a1.043,1.043,0,1,1,1.043-1.042,1.04412,1.04412,0,0,1-1.043,1.042"/>
    <path class="cls-6" d="M122.688,738.20422l-.381-.225-.898-.535-.381-.228.226-.38a6.98884,6.98884,0,0,0,1.122-3.634,10.76027,10.76027,0,0,0-1.188-4.242l-.049-.111a11.95158,11.95158,0,0,1-1.3-4.834,8.38769,8.38769,0,0,1,1.384-4.474l.232-.378.378.232.89.546.377.232-.231.378a6.4994,6.4994,0,0,0-1.098,3.464,10.58435,10.58435,0,0,0,1.187,4.176l.021.049a12.36176,12.36176,0,0,1,1.328,4.963,8.86357,8.86357,0,0,1-1.393,4.62Z"/>
    <path class="cls-6" d="M121.135,737.18922l1.526.908.187-.314a8.79921,8.79921,0,0,0,1.38-4.58,12.28757,12.28757,0,0,0-1.319-4.929l-.022-.052a10.63483,10.63483,0,0,1-1.195-4.208,6.59994,6.59994,0,0,1,1.11-3.504l.19-.311-1.511-.928-.192.311a8.31292,8.31292,0,0,0-1.371,4.432,11.87336,11.87336,0,0,0,1.294,4.804l.047.111a10.81708,10.81708,0,0,1,1.195,4.273,7.05864,7.05864,0,0,1-1.133,3.674Zm1.58,1.123-1.795-1.068.266-.448a6.90044,6.90044,0,0,0,1.111-3.594,10.70028,10.70028,0,0,0-1.18-4.21l-.049-.111a12.02011,12.02011,0,0,1-1.307-4.867,8.4753,8.4753,0,0,1,1.395-4.515l.274-.444,1.777,1.092-.272.445a6.43579,6.43579,0,0,0-1.086,3.423,10.51194,10.51194,0,0,0,1.181,4.144l.021.049a12.452,12.452,0,0,1,1.334,4.995,8.9474,8.9474,0,0,1-1.403,4.661Z"/>
    <path class="cls-6" d="M123.223,719.69921a.9645.9645,0,1,1-.965-.966.965.965,0,0,1,.965.966"/>
    <path class="cls-6" d="M122.258,718.81223a.8865.8865,0,1,0,.887.887.88876.88876,0,0,0-.887-.887m0,1.93a1.043,1.043,0,1,1,1.044-1.043,1.045,1.045,0,0,1-1.044,1.043"/>
    <path class="cls-6" d="M122.818,737.71722a.965.965,0,1,1-.965-.966.96495.96495,0,0,1,.965.966"/>
    <path class="cls-6" d="M121.853,736.82922a.887.887,0,1,0,.886.888.88833.88833,0,0,0-.886-.888m0,1.93a1.043,1.043,0,1,1,1.043-1.042,1.04433,1.04433,0,0,1-1.043,1.042"/>
    <polygon class="cls-3" points="195.185 512.972 193.185 512.972 193.185 544.987 227.2 544.987 227.2 510.972 193.185 510.972 193.185 512.972 195.185 512.972 195.185 514.972 223.2 514.972 223.2 540.987 197.185 540.987 197.185 512.972 195.185 512.972 195.185 514.972 195.185 512.972"/>
  </g>
  <text class="cls-28" transform="translate(44.04297 540.92126)">+</text>
  <g class="cls-32">
    <rect class="cls-6" x="93.871" y="596.16902" width="37.13499" height="69.145"/>
  </g>
  <g class="cls-33">
    <rect class="cls-6" x="93.871" y="596.16901" width="37.13499" height="69.145"/>
  </g>
  <g class="cls-2">
    <path class="cls-14" d="M103.1021,598.97221a2.80756,2.80756,0,1,1-2.751,2.808,2.78047,2.78047,0,0,1,2.751-2.808m.001,12.506a2.80757,2.80757,0,1,1,2.751-2.808,2.77829,2.77829,0,0,1-2.751,2.808m0,6.892a2.80706,2.80706,0,1,1,2.751-2.808,2.77811,2.77811,0,0,1-2.751,2.808m6.624-12.506a2.80755,2.80755,0,1,1-2.752,2.806,2.78044,2.78044,0,0,1,2.752-2.806m-.002-6.892a2.80757,2.80757,0,1,1-2.75,2.808,2.77832,2.77832,0,0,1,2.75-2.808m6.625,6.892a2.80759,2.80759,0,1,1-2.75,2.808,2.77685,2.77685,0,0,1,2.75-2.808m-.001-6.892a2.8076,2.8076,0,1,1-2.749,2.808,2.78087,2.78087,0,0,1,2.749-2.808m6.627,13.785a2.807,2.807,0,1,1-2.752,2.805,2.777,2.777,0,0,1,2.752-2.805m0-6.893a2.80755,2.80755,0,1,1-2.752,2.806,2.77919,2.77919,0,0,1,2.752-2.806m0-6.892a2.80755,2.80755,0,1,1-2.752,2.808,2.78157,2.78157,0,0,1,2.752-2.808m-23.724,22.2h7.932l1.199-3.161a2.81458,2.81458,0,0,1-1.408-2.449,2.78217,2.78217,0,0,1,2.75-2.807,2.7218,2.7218,0,0,1,2.106,1.003,4.40019,4.40019,0,0,1,2.177-.33,4.27047,4.27047,0,0,1,.464.09,2.6971,2.6971,0,0,1,1.878-.761,2.81007,2.81007,0,0,1,.656,5.527c-.025.103-.054.206-.086.304l-.013.033-.01.031-.979,2.52h10.907a3.03759,3.03759,0,0,0,3.005-3.065v-18.873a3.04,3.04,0,0,0-3.004-3.065h-27.575a3.03869,3.03869,0,0,0-3.004,3.065v18.892a3.03986,3.03986,0,0,0,3.005,3.046"/>
  </g>
  <g class="cls-33">
    <path class="cls-34" d="M128.214,634.59322a2.78212,2.78212,0,0,0-3.664,1.538l-2.696,6.595c-.377-.16-.753-.321-1.13-.48l2.805-6.86a2.87741,2.87741,0,0,0-1.507-3.738,2.77989,2.77989,0,0,0-3.663,1.537l-2.805,6.859q-.5655-.2415-1.13-.482l3.884-9.496a2.88035,2.88035,0,0,0-1.507-3.738,2.781,2.781,0,0,0-3.664,1.538l-3.884,9.496q-.564-.24151-1.13-.482l7.443-18.201a2.87925,2.87925,0,0,0-1.507-3.739,2.78149,2.78149,0,0,0-3.663,1.538l-8.09,19.784c-.03.073-.053.147-.077.221a2.10863,2.10863,0,0,0-.154.299q-.594,1.458-1.189,2.911l-.348-6.714a2.80213,2.80213,0,1,0-5.595.302l1.023,19.723a2.89381,2.89381,0,0,0,.128.703,4.26367,4.26367,0,0,0,.615,1.585,20.69614,20.69614,0,0,0,20.337,8.656,5.011,5.011,0,0,0,3.291-2.667q2.913-7.122,5.825-14.243a2.22,2.22,0,0,0,.087-.257c.046-.089.09-.177.129-.27l3.343-8.179A2.87889,2.87889,0,0,0,128.214,634.59322Z"/>
  </g>
  <g class="cls-2">
    <rect class="cls-35" x="277.01043" y="525.29622" width="14.96664" height="1.86502" transform="translate(-2.53687 1.37942) rotate(-0.27658)"/>
    <path class="cls-36" d="M279.389,526.22821a2.47386,2.47386,0,0,0-2.455-2.495,2.44792,2.44792,0,0,0-2.454,2.495,2.473,2.473,0,0,0,2.454,2.495,2.49993,2.49993,0,0,0,2.455-2.495"/>
    <path class="cls-36" d="M294.508,526.22821a2.47451,2.47451,0,0,0-2.455-2.495,2.44792,2.44792,0,0,0-2.454,2.495,2.473,2.473,0,0,0,2.454,2.495,2.5006,2.5006,0,0,0,2.455-2.495"/>
    <path class="cls-36" d="M287.594,526.22821a3.10683,3.10683,0,0,0-3.125-3.124,3.06544,3.06544,0,0,0-3.074,3.124,3.09819,3.09819,0,0,0,3.074,3.125,3.14034,3.14034,0,0,0,3.125-3.125"/>
    <path class="cls-35" d="M287.593,526.22821a3.10746,3.10746,0,0,0-3.125-3.124,3.06544,3.06544,0,0,0-3.074,3.124,3.09819,3.09819,0,0,0,3.074,3.125,3.141,3.141,0,0,0,3.125-3.125"/>
    <rect class="cls-35" x="283.41101" y="526.27701" width="2.16501" height="8.013"/>
    <path class="cls-36" d="M291.122,538.84821a6.63437,6.63437,0,1,0-6.651,6.913,6.76313,6.76313,0,0,0,6.651-6.913"/>
    <path class="cls-36" d="M289.824,542.90921s3.579.485,3.579,1.814v4.486h5.863l-.016-5.393c-.5-5.671-3.317-6.579-8.317-8.164l-1.545-.446.034.698-18.345-.102v6.956l18.747-.152v.303"/>
  </g>
  <text class="cls-37" transform="translate(27.55078 817.57654)">2015</text>
  <text class="cls-37" transform="translate(521.1709 817.57654)">811/2013</text>
  <g class="cls-2">
    <rect class="cls-35" x="179.35543" y="300.67822" width="11.22462" height="1.39903" transform="translate(-1.50646 0.92977) rotate(-0.28684)"/>
    <path class="cls-36" d="M181.139,301.3772a1.855,1.855,0,0,0-1.841-1.871,1.83613,1.83613,0,0,0-1.841,1.871,1.85493,1.85493,0,0,0,1.841,1.871,1.87451,1.87451,0,0,0,1.841-1.871"/>
    <path class="cls-36" d="M192.478,301.3772a1.85476,1.85476,0,0,0-1.84-1.871,1.83552,1.83552,0,0,0-1.841,1.871,1.8543,1.8543,0,0,0,1.841,1.871,1.87433,1.87433,0,0,0,1.84-1.871"/>
    <path class="cls-36" d="M187.293,301.3772a2.32983,2.32983,0,0,0-2.344-2.343,2.29847,2.29847,0,0,0-2.305,2.343,2.32314,2.32314,0,0,0,2.305,2.344,2.35507,2.35507,0,0,0,2.344-2.344"/>
    <path class="cls-35" d="M187.292,301.3772a2.33025,2.33025,0,0,0-2.343-2.343,2.2993,2.2993,0,0,0-2.306,2.343,2.324,2.324,0,0,0,2.306,2.344,2.35552,2.35552,0,0,0,2.343-2.344"/>
    <rect class="cls-35" x="184.15601" y="301.414" width="1.62399" height="6.01001"/>
    <path class="cls-36" d="M189.939,310.84222a4.9759,4.9759,0,1,0-4.988,5.18506,5.07254,5.07254,0,0,0,4.988-5.18506"/>
    <path class="cls-36" d="M188.966,313.88824s2.684.364,2.684,1.36005v3.365h4.397l-.012-4.045c-.375-4.25305-2.488-4.934-6.237-6.12305l-1.159-.335.025.524-13.759-.076v5.216l14.061-.113v.227"/>
  </g>
  <g id="packageSpaceHeatingRating">
    <polyline id="packageSpaceHeatingRatingArrow" class="cls-14" points="490.82 281.11 510.15 261.58 559.5 261.58 559.5 300.98 510.49 300.98 490.82 281.11"/>
    <text id="packageSpaceHeatingRatingLetter" class="cls-38" transform="translate(504.99023 289.62)">A</text>
    <text id="packageSpaceHeatingRatingPlusses" class="cls-39" transform="translate(523.37988 280.39978)">+++</text>
  </g>
  <g id="packageWaterHeatingRating">
    <polyline id="packageWaterHeatingRatingArrow" class="cls-14" points="490.82 581.3 510.15 561.77 559.5 561.77 559.5 601.17 510.49 601.17 490.82 581.3"/>
    <text id="packageWaterHeatingRatingLetter" class="cls-38" transform="translate(504.99023 589.80017)">A</text>
    <text id="packageWaterHeatingRatingPlusses" class="cls-39" transform="translate(523.37988 580.59021)">+++</text>
  </g>
  <g id="heaterSpaceHeatingRating">
    <polyline id="heaterSpaceHeatingRatingArrow" class="cls-14" points="108.11 252 123.79 236.21 163.76 236.21 163.76 268.1 124.07 268.1 108.11 252"/>
    <text id="heaterSpaceHeatingRatingLetter" class="cls-40" transform="translate(119.4502 258.38025)">A</text>
    <text id="heaterSpaceHeatingRatingPlusses" class="cls-41" transform="translate(134.81006 251.28992)">+++</text>
  </g>
  <g id="heaterWaterHeatingRating">
    <polyline id="heaterWaterHeatingRatingArrow" class="cls-14" points="108.11 310.39 123.79 294.6 163.76 294.6 163.76 326.49 124.07 326.49 108.11 310.39"/>
    <text id="heaterWaterHeatingRatingLetter" class="cls-40" transform="translate(119.4502 316.7699)">A</text>
    <text id="heaterWaterHeatingRatingPlusses" class="cls-41" transform="translate(134.81006 309.68982)">+++</text>
  </g>
  <g id="solarCollector">
    <path class="cls-14" d="M219.37549,436.20935a5.2066,5.2066,0,0,1,.41308.98438.52782.52782,0,0,1-.11425.5625,1.34045,1.34045,0,0,1-.76465.24609q-.55371.05274-1.53809.05273-.82617,0-1.30078-.03515a3.80612,3.80612,0,0,1-.74707-.11426.81624.81624,0,0,1-.39551-.21973,1.272,1.272,0,0,1-.21093-.35156l-4.27149-8.209-4.25391,8.209a1.65756,1.65756,0,0,1-.22851.35156.81624.81624,0,0,1-.39551.21973,3.839,3.839,0,0,1-.75586.11426q-.48339.03515-1.27441.03515-.91407,0-1.415-.05273a1.06406,1.06406,0,0,1-.67676-.24609.56462.56462,0,0,1-.07031-.5625,5.26069,5.26069,0,0,1,.43945-.98438l5.44922-9.93164-5.0625-9.334a6.88058,6.88058,0,0,1-.43066-1.01075.50988.50988,0,0,1,.08789-.5625,1.28761,1.28761,0,0,1,.74707-.22851q.54492-.044,1.54687-.04395.82617,0,1.30957.03516a4.02067,4.02067,0,0,1,.76465.11426.76373.76373,0,0,1,.39551.21972,1.91936,1.91936,0,0,1,.21973.35157l3.99023,7.52343,3.88477-7.52343a1.91882,1.91882,0,0,1,.21972-.35157.74729.74729,0,0,1,.36914-.21972,3.36328,3.36328,0,0,1,.70313-.11426q.44825-.03516,1.23926-.03516.8789,0,1.38867.04395a1.13366,1.13366,0,0,1,.70312.2373.55028.55028,0,0,1,.09668.5625,6.2319,6.2319,0,0,1-.39551,1.002L213.979,426.225Z"/>
  </g>
  <g id="hotWaterStorageTank">
    <path class="cls-14" d="M219.37549,537.55017a5.2066,5.2066,0,0,1,.41308.98438.52782.52782,0,0,1-.11425.5625,1.34045,1.34045,0,0,1-.76465.24609q-.55371.05274-1.53809.05273-.82617,0-1.30078-.03515a3.80612,3.80612,0,0,1-.74707-.11426.81624.81624,0,0,1-.39551-.21973,1.272,1.272,0,0,1-.21093-.35156l-4.27149-8.209-4.25391,8.209a1.65756,1.65756,0,0,1-.22851.35156.81624.81624,0,0,1-.39551.21973,3.839,3.839,0,0,1-.75586.11426q-.48339.03516-1.27441.03515-.91407,0-1.415-.05273a1.06406,1.06406,0,0,1-.67676-.24609.56462.56462,0,0,1-.07031-.5625,5.26069,5.26069,0,0,1,.43945-.98438l5.44922-9.93164-5.0625-9.334a6.88058,6.88058,0,0,1-.43066-1.01075.50988.50988,0,0,1,.08789-.5625,1.28761,1.28761,0,0,1,.74707-.22851q.54492-.04395,1.54687-.04395.82617,0,1.30957.03516a4.02067,4.02067,0,0,1,.76465.11426.76373.76373,0,0,1,.39551.21972,1.91936,1.91936,0,0,1,.21973.35157l3.99023,7.52343,3.88477-7.52343a1.91882,1.91882,0,0,1,.21972-.35157.74729.74729,0,0,1,.36914-.21972,3.36328,3.36328,0,0,1,.70313-.11426q.44825-.03516,1.23926-.03516.8789,0,1.38867.04395a1.13366,1.13366,0,0,1,.70312.2373.55028.55028,0,0,1,.09668.5625,6.2319,6.2319,0,0,1-.39551,1.002l-5.0625,9.28125Z"/>
  </g>
  <g id="temperatureControl">
    <path class="cls-14" d="M219.37549,638.89a5.20687,5.20687,0,0,1,.41308.98438.52782.52782,0,0,1-.11425.5625,1.3403,1.3403,0,0,1-.76465.24609q-.55371.05274-1.53809.05274-.82617,0-1.30078-.03516a3.80536,3.80536,0,0,1-.74707-.11426.81623.81623,0,0,1-.39551-.21972,1.27212,1.27212,0,0,1-.21093-.35157l-4.27149-8.209-4.25391,8.209a1.65765,1.65765,0,0,1-.22851.35157.81623.81623,0,0,1-.39551.21972,3.83829,3.83829,0,0,1-.75586.11426q-.48339.03516-1.27441.03516-.91407,0-1.415-.05274a1.064,1.064,0,0,1-.67676-.24609.56462.56462,0,0,1-.07031-.5625,5.261,5.261,0,0,1,.43945-.98438l5.44922-9.93164-5.0625-9.334a6.881,6.881,0,0,1-.43066-1.01074.50987.50987,0,0,1,.08789-.5625,1.2876,1.2876,0,0,1,.74707-.22852q.54492-.044,1.54687-.04394.82617,0,1.30957.03515a4.02147,4.02147,0,0,1,.76465.11426.76374.76374,0,0,1,.39551.21973,1.91925,1.91925,0,0,1,.21973.35156l3.99023,7.52344,3.88477-7.52344a1.91871,1.91871,0,0,1,.21972-.35156.7473.7473,0,0,1,.36914-.21973,3.36394,3.36394,0,0,1,.70313-.11426q.44825-.03515,1.23926-.03515.8789,0,1.38867.04394a1.13366,1.13366,0,0,1,.70312.23731.55027.55027,0,0,1,.09668.5625,6.23223,6.23223,0,0,1-.39551,1.00195l-5.0625,9.28125Z"/>
  </g>
  <g id="supplementarySpaceHeater">
    <path class="cls-14" d="M219.37549,740.22986a5.20656,5.20656,0,0,1,.41308.98437.52781.52781,0,0,1-.11425.5625,1.34037,1.34037,0,0,1-.76465.2461q-.55371.05273-1.53809.05273-.82617,0-1.30078-.03515a3.80612,3.80612,0,0,1-.74707-.11426.81631.81631,0,0,1-.39551-.21973,1.2722,1.2722,0,0,1-.21093-.35156l-4.27149-8.209-4.25391,8.209a1.65782,1.65782,0,0,1-.22851.35156.81631.81631,0,0,1-.39551.21973,3.839,3.839,0,0,1-.75586.11426q-.48339.03515-1.27441.03515-.91407,0-1.415-.05273a1.064,1.064,0,0,1-.67676-.2461.56461.56461,0,0,1-.07031-.5625,5.26065,5.26065,0,0,1,.43945-.98437l5.44922-9.93164-5.0625-9.334a6.88055,6.88055,0,0,1-.43066-1.01074.50988.50988,0,0,1,.08789-.5625,1.28754,1.28754,0,0,1,.74707-.22851q.54492-.04395,1.54687-.04395.82617,0,1.30957.03516a4.02079,4.02079,0,0,1,.76465.11425.76381.76381,0,0,1,.39551.21973,1.91959,1.91959,0,0,1,.21973.35156l3.99023,7.52344,3.88477-7.52344a1.91905,1.91905,0,0,1,.21972-.35156.74737.74737,0,0,1,.36914-.21973,3.36338,3.36338,0,0,1,.70313-.11425q.44825-.03516,1.23926-.03516.8789,0,1.38867.04395a1.1336,1.1336,0,0,1,.70312.2373.55028.55028,0,0,1,.09668.5625,6.23187,6.23187,0,0,1-.39551,1.002l-5.0625,9.28125Z"/>
  </g>
  <text id="heaterDeclaredLoadProfile" class="cls-42" transform="translate(198.43018 324.22986)">X</text>
  <text id="packageDeclaredLoadProfile" class="cls-43" transform="translate(303.53027 556.69958)">X</text>
  <text class="cls-7" transform="translate(45.84966 184.53154)"><tspan class="cls-8" xml:space="preserve">                </tspan><tspan x="117.9751" y="0"> </tspan></text>
  <text id="supplierLine2" class="cls-44" transform="translate(28.35004 184.634)">X</text>
  <text id="supplierLine1" class="cls-44" transform="translate(28.35004 162.25119)">X</text>
  <text id="modelLine2" class="cls-44" transform="translate(306.13957 184.634)">X</text>
  <text id="modelLine1" class="cls-44" transform="translate(306.13957 162.25119)">X</text>
</svg>
