<svg id="Layer_1" data-name="Layer 1" xmlns="http://www.w3.org/2000/svg" xmlns:xlink="http://www.w3.org/1999/xlink" width="210mm" height="297mm" viewBox="0 0 595.28003 841.89001" data-rating-increment="50.8111" data-supplier-model-chars-per-row="25">
  <defs>
    <style>
      #solarCollector,
      #hotWaterStorageTank,
      #temperatureControl,
      #supplementarySpaceHeater {
        display: none;
      }

      #solarCollector.hasSolarCollector,
      #hotWaterStorageTank.hasHotWaterStorageTank,
      #temperatureControl.hasTemperatureControl,
      #supplementarySpaceHeater.hasSupplementarySpaceHeater {
        display: inline;
      }      

      .cls-1, .cls-10, .cls-11, .cls-3, .cls-4, .cls-53, .cls-61 {
        fill: none;
      }

      .cls-2 {
        clip-path: url(#clip-path);
      }

      .cls-10, .cls-3, .cls-4, .cls-53 {
        stroke: #00aeef;
      }

      .cls-3 {
        stroke-width: 3px;
      }

      .cls-4 {
        stroke-width: 6px;
      }

      .cls-5 {
        fill: #034ea2;
      }

      .cls-54, .cls-6 {
        fill: #00aeef;
      }

      .cls-7 {
        fill: #fff200;
      }

      .cls-57, .cls-58, .cls-68, .cls-70, .cls-71, .cls-72, .cls-73, .cls-8 {
        fill: #fff;
      }

      .cls-9 {
        clip-path: url(#clip-path-2);
      }

      .cls-10 {
        stroke-width: 2px;
      }

      .cls-11 {
        stroke: #000;
        stroke-width: 1.133px;
      }

      .cls-12 {
        clip-path: url(#clip-path-4);
      }

      .cls-13 {
        fill: #8ed8f7;
      }

      .cls-14 {
        fill: #05090a;
      }

      .cls-15 {
        fill: #24b9ec;
      }

      .cls-16 {
        fill: #676465;
      }

      .cls-17 {
        clip-path: url(#clip-path-7);
      }

      .cls-18 {
        clip-path: url(#clip-path-8);
      }

      .cls-19 {
        clip-path: url(#clip-path-11);
      }

      .cls-20 {
        clip-path: url(#clip-path-12);
      }

      .cls-21 {
        clip-path: url(#clip-path-15);
      }

      .cls-22 {
        clip-path: url(#clip-path-16);
      }

      .cls-23 {
        clip-path: url(#clip-path-19);
      }

      .cls-24 {
        clip-path: url(#clip-path-20);
      }

      .cls-25 {
        clip-path: url(#clip-path-23);
      }

      .cls-26 {
        clip-path: url(#clip-path-24);
      }

      .cls-27 {
        clip-path: url(#clip-path-27);
      }

      .cls-28 {
        clip-path: url(#clip-path-28);
      }

      .cls-29 {
        clip-path: url(#clip-path-31);
      }

      .cls-30 {
        clip-path: url(#clip-path-32);
      }

      .cls-31 {
        clip-path: url(#clip-path-35);
      }

      .cls-32 {
        clip-path: url(#clip-path-36);
      }

      .cls-33 {
        clip-path: url(#clip-path-39);
      }

      .cls-34 {
        clip-path: url(#clip-path-40);
      }

      .cls-35 {
        clip-path: url(#clip-path-43);
      }

      .cls-36 {
        clip-path: url(#clip-path-44);
      }

      .cls-37 {
        clip-path: url(#clip-path-46);
      }

      .cls-38 {
        clip-path: url(#clip-path-47);
      }

      .cls-39 {
        clip-path: url(#clip-path-48);
      }

      .cls-40 {
        clip-path: url(#clip-path-49);
      }

      .cls-41 {
        clip-path: url(#clip-path-50);
      }

      .cls-42 {
        clip-path: url(#clip-path-51);
      }

      .cls-43 {
        clip-path: url(#clip-path-52);
      }

      .cls-44 {
        clip-path: url(#clip-path-53);
      }

      .cls-45 {
        clip-path: url(#clip-path-54);
      }

      .cls-46 {
        clip-path: url(#clip-path-55);
      }

      .cls-47 {
        clip-path: url(#clip-path-56);
      }

      .cls-48 {
        clip-path: url(#clip-path-57);
      }

      .cls-49 {
        clip-path: url(#clip-path-59);
      }

      .cls-50, .cls-51, .cls-56, .cls-74, .cls-76 {
        fill: #231f20;
      }

      .cls-51 {
        font-size: 12px;
      }

      .cls-51, .cls-54, .cls-58, .cls-68, .cls-70, .cls-72 {
        font-family: Calibri-Bold, Calibri;
        font-weight: 700;
      }

      .cls-52 {
        clip-path: url(#clip-path-61);
      }

      .cls-53 {
        stroke-width: 4px;
      }

      .cls-54 {
        font-size: 50px;
      }

      .cls-55 {
        clip-path: url(#clip-path-64);
      }

      .cls-56, .cls-57 {
        fill-rule: evenodd;
      }

      .cls-58 {
        font-size: 30px;
      }

      .cls-59 {
        clip-path: url(#clip-path-67);
      }

      .cls-60 {
        clip-path: url(#clip-path-70);
      }

      .cls-61 {
        stroke: #231f20;
        stroke-linecap: round;
        stroke-linejoin: round;
        stroke-width: 2.158px;
      }

      .cls-62 {
        fill: #ed1c24;
      }

      .cls-63 {
        fill: #bfd730;
      }

      .cls-64 {
        fill: #50b848;
      }

      .cls-65 {
        fill: #00a651;
      }

      .cls-66 {
        fill: #fdb913;
      }

      .cls-67 {
        fill: #f37021;
      }

      .cls-68 {
        font-size: 17.49px;
      }

      .cls-69 {
        letter-spacing: 0.00999em;
      }

      .cls-70 {
        font-size: 40px;
      }

      .cls-71 {
        font-size: 23.32px;
      }

      .cls-71, .cls-73, .cls-74, .cls-76 {
        font-family: Calibri;
      }

      .cls-72 {
        font-size: 28px;
      }

      .cls-73 {
        font-size: 17px;
      }

      .cls-74 {
        font-size: 25.865px;
      }

      .cls-75 {
        letter-spacing: 0.05901em;
      }

      .cls-76 {
        font-size: 22px;
      }
    </style>
    <clipPath id="clip-path">
      <rect class="cls-1" width="595.276" height="841.89001"/>
    </clipPath>
    <clipPath id="clip-path-2">
      <rect class="cls-1" x="26.729" y="26.93701" width="541.71198" height="105.987"/>
    </clipPath>
    <clipPath id="clip-path-4">
      <rect class="cls-1" x="26.843" y="200.96899" width="42.917" height="31.72101"/>
    </clipPath>
    <clipPath id="clip-path-7">
      <rect class="cls-1" x="54.176" y="203.33502" width="1.1653" height="1.69202"/>
    </clipPath>
    <clipPath id="clip-path-8">
      <rect class="cls-1" x="54.176" y="203.33502" width="1.165" height="1.69098"/>
    </clipPath>
    <clipPath id="clip-path-11">
      <rect class="cls-1" x="59.9306" y="203.33502" width="1.1654" height="1.69202"/>
    </clipPath>
    <clipPath id="clip-path-12">
      <rect class="cls-1" x="59.931" y="203.33502" width="1.165" height="1.69098"/>
    </clipPath>
    <clipPath id="clip-path-15">
      <rect class="cls-1" x="48.2729" y="203.33502" width="1.165" height="1.69202"/>
    </clipPath>
    <clipPath id="clip-path-16">
      <rect class="cls-1" x="48.273" y="203.33502" width="1.165" height="1.69098"/>
    </clipPath>
    <clipPath id="clip-path-19">
      <rect class="cls-1" x="42.3536" y="203.33502" width="1.1651" height="1.69202"/>
    </clipPath>
    <clipPath id="clip-path-20">
      <rect class="cls-1" x="42.354" y="203.33502" width="1.165" height="1.69098"/>
    </clipPath>
    <clipPath id="clip-path-23">
      <rect class="cls-1" x="36.4503" y="203.33502" width="1.1652" height="1.69202"/>
    </clipPath>
    <clipPath id="clip-path-24">
      <rect class="cls-1" x="36.45" y="203.33502" width="1.165" height="1.69098"/>
    </clipPath>
    <clipPath id="clip-path-27">
      <rect class="cls-1" x="54.176" y="226.08002" width="1.1653" height="1.69202"/>
    </clipPath>
    <clipPath id="clip-path-28">
      <rect class="cls-1" x="54.176" y="226.08105" width="1.165" height="1.69098"/>
    </clipPath>
    <clipPath id="clip-path-31">
      <rect class="cls-1" x="59.9306" y="226.08002" width="1.1654" height="1.69202"/>
    </clipPath>
    <clipPath id="clip-path-32">
      <rect class="cls-1" x="59.931" y="226.08105" width="1.165" height="1.69098"/>
    </clipPath>
    <clipPath id="clip-path-35">
      <rect class="cls-1" x="48.2729" y="226.08002" width="1.165" height="1.69202"/>
    </clipPath>
    <clipPath id="clip-path-36">
      <rect class="cls-1" x="48.273" y="226.08105" width="1.165" height="1.69098"/>
    </clipPath>
    <clipPath id="clip-path-39">
      <rect class="cls-1" x="42.3536" y="226.08002" width="1.1651" height="1.69202"/>
    </clipPath>
    <clipPath id="clip-path-40">
      <rect class="cls-1" x="42.354" y="226.08105" width="1.165" height="1.69098"/>
    </clipPath>
    <clipPath id="clip-path-43">
      <rect class="cls-1" x="36.4503" y="226.08002" width="1.1652" height="1.69202"/>
    </clipPath>
    <clipPath id="clip-path-44">
      <rect class="cls-1" x="36.45" y="226.08105" width="1.165" height="1.69098"/>
    </clipPath>
    <clipPath id="clip-path-46">
      <rect class="cls-1" x="61.4338" y="201.98602" width="1.6534" height="27.14697"/>
    </clipPath>
    <clipPath id="clip-path-47">
      <rect class="cls-1" x="61.434" y="201.987" width="1.653" height="27.146"/>
    </clipPath>
    <clipPath id="clip-path-48">
      <rect class="cls-1" x="55.5419" y="201.98602" width="1.6534" height="27.14697"/>
    </clipPath>
    <clipPath id="clip-path-49">
      <rect class="cls-1" x="55.542" y="201.987" width="1.653" height="27.146"/>
    </clipPath>
    <clipPath id="clip-path-50">
      <rect class="cls-1" x="49.65" y="201.98602" width="1.6535" height="27.14697"/>
    </clipPath>
    <clipPath id="clip-path-51">
      <rect class="cls-1" x="49.65" y="201.987" width="1.652" height="27.146"/>
    </clipPath>
    <clipPath id="clip-path-52">
      <rect class="cls-1" x="43.7579" y="201.98602" width="1.6534" height="27.14697"/>
    </clipPath>
    <clipPath id="clip-path-53">
      <rect class="cls-1" x="43.758" y="201.987" width="1.653" height="27.146"/>
    </clipPath>
    <clipPath id="clip-path-54">
      <rect class="cls-1" x="37.866" y="201.98602" width="1.6534" height="27.14697"/>
    </clipPath>
    <clipPath id="clip-path-55">
      <rect class="cls-1" x="37.866" y="201.987" width="1.653" height="27.146"/>
    </clipPath>
    <clipPath id="clip-path-56">
      <rect class="cls-1" x="31.974" y="201.98602" width="1.6535" height="27.14697"/>
    </clipPath>
    <clipPath id="clip-path-57">
      <rect class="cls-1" x="31.974" y="201.987" width="1.652" height="27.146"/>
    </clipPath>
    <clipPath id="clip-path-59">
      <rect class="cls-1" x="88.483" y="266.17303" width="44.90399" height="70.30798"/>
    </clipPath>
    <clipPath id="clip-path-61">
      <rect class="cls-1" x="91.544" y="494.75299" width="44.90299" height="77.50601"/>
    </clipPath>
    <clipPath id="clip-path-64">
      <rect class="cls-1" x="80.221" y="407.651" width="69.46799" height="59.61401"/>
    </clipPath>
    <clipPath id="clip-path-67">
      <rect class="cls-1" x="91.771" y="712.67702" width="44.904" height="70.309"/>
    </clipPath>
    <clipPath id="clip-path-70">
      <rect class="cls-1" x="91.868" y="606.90802" width="37.136" height="68.976"/>
    </clipPath>
  </defs>
  <title>packages-of-space-heater-temperature-control-and-solar-device</title>
  <g class="cls-2">
    <path class="cls-3" d="M35.5445,243.558s-7.904,0-7.904,7.90406v100.632s0,7.905,7.904,7.905h208.901s7.904,0,7.904-7.905V251.4621s0-7.90406-7.904-7.90406Z"/>
    <path class="cls-3" d="M35.5445,370.4151s-7.904,0-7.904,7.904v416.426s0,7.904,7.904,7.904h208.901s7.904,0,7.904-7.904v-416.426s0-7.904-7.904-7.904Z"/>
    <path class="cls-3" d="M270.6702,243.558s-7.904,0-7.904,7.90406v543.283s0,7.905,7.904,7.905h289.07s7.904,0,7.904-7.905V251.4621s0-7.90406-7.904-7.90406Z"/>
    <path class="cls-4" d="M24.0691,16.16522s-7.904,0-7.904,7.904v793.752s0,7.904,7.904,7.904h547.137s7.905,0,7.905-7.904V24.06927s0-7.904-7.905-7.904Z"/>
    <rect class="cls-5" x="26.771" y="27.22003" width="158.03999" height="105.55499"/>
    <rect class="cls-6" x="190.03799" y="27.22003" width="378.40305" height="105.55499"/>
    <polygon class="cls-7" points="138.447 62.411 141.844 59.942 137.645 59.943 136.346 55.949 135.049 59.943 130.849 59.943 134.248 62.411 132.949 66.405 136.348 63.937 139.744 66.405 138.447 62.411"/>
    <polygon class="cls-7" points="125.221 49.744 128.618 47.275 124.419 47.275 123.121 43.281 121.823 47.275 117.624 47.276 121.022 49.744 119.723 53.739 123.121 51.27 126.519 53.738 125.221 49.744"/>
    <polygon class="cls-7" points="108.159 45.215 111.557 42.746 107.357 42.747 106.06 38.753 104.761 42.747 100.561 42.747 103.959 45.215 102.662 49.21 106.06 46.741 109.457 49.209 108.159 45.215"/>
    <polygon class="cls-7" points="90.191 49.744 93.588 47.275 89.389 47.275 88.091 43.281 86.793 47.275 82.594 47.275 85.991 49.744 84.693 53.738 88.091 51.269 91.488 53.738 90.191 49.744"/>
    <polygon class="cls-7" points="77.357 63.031 80.754 60.562 76.555 60.563 75.257 56.569 73.959 60.563 69.76 60.563 73.157 63.031 71.86 67.026 75.257 64.557 78.654 67.025 77.357 63.031"/>
    <polygon class="cls-7" points="73.258 80.487 76.655 78.018 72.456 78.018 71.158 74.025 69.86 78.018 65.661 78.018 69.058 80.487 67.76 84.482 71.158 82.012 74.556 84.481 73.258 80.487"/>
    <polygon class="cls-7" points="77.485 98.174 80.883 95.705 76.683 95.706 75.385 91.711 74.087 95.706 69.888 95.706 73.285 98.175 71.988 102.169 75.385 99.7 78.782 102.168 77.485 98.174"/>
    <polygon class="cls-7" points="90.191 110.743 93.588 108.274 89.389 108.274 88.091 104.28 86.793 108.274 82.594 108.274 85.991 110.743 84.693 114.737 88.091 112.268 91.488 114.736 90.191 110.743"/>
    <polygon class="cls-7" points="108.159 115.424 111.555 112.955 107.356 112.955 106.058 108.962 104.761 112.955 100.561 112.955 103.959 115.424 102.661 119.418 106.06 116.949 109.457 119.418 108.159 115.424"/>
    <polygon class="cls-7" points="125.64 110.679 129.038 108.21 124.837 108.21 123.539 104.217 122.242 108.21 118.042 108.21 121.439 110.679 120.143 114.673 123.54 112.205 126.937 114.673 125.64 110.679"/>
    <polygon class="cls-7" points="138.356 98.06 141.753 95.591 137.554 95.591 136.255 91.597 134.958 95.591 130.759 95.592 134.157 98.06 132.858 102.055 136.257 99.585 139.654 102.054 138.356 98.06"/>
    <polygon class="cls-7" points="143.037 80.244 146.434 77.775 142.235 77.775 140.936 73.782 139.64 77.775 135.439 77.775 138.838 80.244 137.539 84.239 140.938 81.769 144.334 84.238 143.037 80.244"/>
    <polygon class="cls-8" points="235.873 70.302 218.919 70.302 218.919 83.517 237.875 83.517 237.875 90.259 210.71 90.259 210.71 45.272 236.874 45.272 236.874 52.013 218.919 52.013 218.919 63.627 235.873 63.627 235.873 70.302"/>
  </g>
  <g class="cls-9">
    <path class="cls-8" d="M248.4211,90.259V45.272h9.344l11.614,19.289a123.75318,123.75318,0,0,1,7.676,15.085h.134c-.534-6.007-.735-11.814-.735-18.689V45.272h7.609V90.259h-8.476l-11.748-19.824a148.68955,148.68955,0,0,1-8.076-15.485l-.2.067c.334,5.80695.4,11.74695.4,19.15594V90.259Z"/>
    <polygon class="cls-8" points="322.042 70.302 305.088 70.302 305.088 83.517 324.044 83.517 324.044 90.259 296.878 90.259 296.878 45.272 323.043 45.272 323.043 52.013 305.088 52.013 305.088 63.627 322.042 63.627 322.042 70.302"/>
    <path class="cls-8" d="M334.58929,45.872a77.94635,77.94635,0,0,1,12.416-.934c6.474,0,10.879,1.068,13.883,3.604a11.386,11.386,0,0,1,3.871,9.011,11.99988,11.99988,0,0,1-8.143,11.28v.2c3.204,1.202,5.139,4.339,6.274,8.678,1.402,5.607,2.603,10.81195,3.538,12.548h-8.477c-.668-1.335-1.736-5.006-3.003-10.613-1.269-5.874-3.405-7.742-8.077-7.876h-4.138V90.259h-8.144Zm8.144,19.891h4.872c5.54,0,9.011-2.937,9.011-7.409,0-4.939-3.471-7.209-8.811-7.209a23.59791,23.59791,0,0,0-5.072.401Z"/>
    <path class="cls-8" d="M411.94821,88.18964a44.55685,44.55685,0,0,1-14.485,2.537c-7.609,0-13.349-1.936-17.621-6.007-4.005-3.806-6.34-9.746-6.274-16.554,0-14.217,10.146-23.361,25.031-23.361a29.83842,29.83842,0,0,1,11.947,2.136l-1.803,6.608a24.22078,24.22078,0,0,0-10.212-1.936c-9.611,0-16.352,5.673-16.352,16.152,0,10.213,6.274,16.287,15.618,16.287a15.7284,15.7284,0,0,0,6.208-.93506v-11.213h-7.943v-6.474h15.886Z"/>
    <path class="cls-8" d="M209.90028,108.61066c.077,2.102,1.849,3.01,3.853,3.01a10.07037,10.07037,0,0,0,3.467-.525l.463,2.03a12.51741,12.51741,0,0,1-4.367.74c-4.058,0-6.447-2.341-6.447-5.9a5.93712,5.93712,0,0,1,6.113-6.25806c4.084,0,5.395,3.105,5.395,5.661a6.64245,6.64245,0,0,1-.104,1.242Zm5.497-2.054a2.556,2.556,0,0,0-2.595-2.842,2.96949,2.96949,0,0,0-2.902,2.842Z"/>
    <polygon class="cls-8" points="224.18 101.97 224.18 106.413 229.009 106.413 229.009 101.97 232.168 101.97 232.168 113.603 229.009 113.603 229.009 108.706 224.18 108.706 224.18 113.603 221.02 113.603 221.02 101.97 224.18 101.97"/>
    <path class="cls-8" d="M237.89389,108.61066c.077,2.102,1.849,3.01,3.853,3.01a10.0702,10.0702,0,0,0,3.467-.525l.462,2.03a12.50683,12.50683,0,0,1-4.366.74c-4.059,0-6.447-2.341-6.447-5.9a5.93655,5.93655,0,0,1,6.113-6.25806c4.084,0,5.394,3.105,5.394,5.661a6.75072,6.75072,0,0,1-.103,1.242Zm5.496-2.054a2.55515,2.55515,0,0,0-2.594-2.842,2.968,2.968,0,0,0-2.902,2.842Z"/>
    <path class="cls-8" d="M249.03819,105.84045c0-1.529-.051-2.771-.102-3.87h2.774l.154,1.79095h.052a4.98422,4.98422,0,0,1,4.289-2.054c2.877,0,5.266,2.293,5.266,5.924,0,4.204-2.851,6.234-5.702,6.234a4.22619,4.22619,0,0,1-3.52-1.552h-.051v6.019h-3.16Zm3.16,2.89a2.81177,2.81177,0,0,0,2.876,2.867c2.004,0,3.186-1.553,3.186-3.846,0-2.055-1.079-3.727-3.108-3.727a2.8977,2.8977,0,0,0-2.825,2.174,2.46709,2.46709,0,0,0-.129.74Z"/>
    <polygon class="cls-8" points="272.436 101.97 272.436 104.287 267.324 104.287 267.324 113.603 264.164 113.603 264.164 101.97 272.436 101.97"/>
    <path class="cls-8" d="M277.469,101.97009v4.181c0,1.839-.077,3.08-.18,4.705h.077c.668-1.362,1.054-2.221,1.696-3.44l3.082-5.446h3.827v11.63306h-3.005v-4.156c0-1.863.077-2.723.206-4.921h-.103c-.617,1.386-1.028,2.222-1.644,3.344-.976,1.72-2.107,3.822-3.185,5.733h-3.776V101.97009Z"/>
    <path class="cls-8" d="M299.73587,113.60266h-3.134v-4.609h-1.181a2.55368,2.55368,0,0,0-1.927.763c-.796.645-1.104,1.887-1.541,2.89106a8.284,8.284,0,0,1-.488.95495h-3.39a5.95173,5.95173,0,0,0,.77-1.29c.488-1.027.925-2.531,1.875-3.344a3.02924,3.02924,0,0,1,1.49-.788v-.071c-1.49-.144-3.262-1.051-3.262-2.866a2.9292,2.9292,0,0,1,1.926-2.699,10.89579,10.89579,0,0,1,4.418-.741,35.98763,35.98763,0,0,1,4.444.263Zm-3.134-9.817a9.002,9.002,0,0,0-1.567-.11895c-1.387,0-2.8.453-2.8,1.743,0,1.219,1.567,1.744,2.8,1.744.745,0,1.156,0,1.567-.024Z"/>
    <path class="cls-8" d="M309.98141,109.25592a1.83375,1.83375,0,0,1-1.926-1.887,1.855,1.855,0,0,1,1.951-1.887,1.88811,1.88811,0,1,1,0,3.774Z"/>
    <path class="cls-8" d="M322.43619,107.34491c-1.49-.382-2.311-1.29-2.311-2.43695,0-1.576,1.695-3.201,5.265-3.201a7.91638,7.91638,0,0,1,4.008.884l-.591,1.888a7.11891,7.11891,0,0,0-3.032-.693c-1.515,0-2.466.574-2.466,1.385,0,.932,1.259,1.314,3.134,1.338h1.362v1.958h-1.387c-2.004.025-3.519.407-3.519,1.529,0,1.099,1.361,1.67206,2.902,1.67206a8.98142,8.98142,0,0,0,3.519-.811l.462,1.958a10.22273,10.22273,0,0,1-4.751,1.051c-2.646,0-5.497-.932-5.497-3.559a3.173,3.173,0,0,1,2.902-2.866Z"/>
    <path class="cls-8" d="M333.9411,101.97009l2.004,5.9c.36,1.028.591,1.959.899,2.962h.103c1.028-1.958,2.62-5.303,2.62-7.859v-1.00305h2.953a4.69859,4.69859,0,0,1,.078.884c0,3.297-2.261,7.19-4.547,10.749h-3.057l-4.444-11.63306Z"/>
    <path class="cls-8" d="M346.91019,107.34491c-1.49-.382-2.312-1.29-2.312-2.43695,0-1.576,1.696-3.201,5.266-3.201a7.91638,7.91638,0,0,1,4.008.884l-.591,1.888a7.119,7.119,0,0,0-3.032-.693c-1.515,0-2.466.574-2.466,1.385,0,.932,1.259,1.314,3.134,1.338h1.362v1.958h-1.387c-2.004.025-3.519.407-3.519,1.529,0,1.099,1.361,1.67206,2.902,1.67206a8.98142,8.98142,0,0,0,3.519-.811l.462,1.958a10.22266,10.22266,0,0,1-4.751,1.051c-2.646,0-5.497-.932-5.497-3.559a3.173,3.173,0,0,1,2.902-2.866Z"/>
    <path class="cls-8" d="M359.54559,112.48016v1.648a29.47119,29.47119,0,0,0,.18,4.204h-3.057a20.0668,20.0668,0,0,1-.283-4.157v-5.326c0-3.223,1.002-4.657,2.132-5.613a6.2527,6.2527,0,0,1,4.264-1.529,5.64474,5.64474,0,0,1,5.985,5.972c0,4.108-2.902,6.186-5.779,6.186a4.1821,4.1821,0,0,1-3.391-1.385Zm0-3.48706a3.63894,3.63894,0,0,0,.077.764,2.91521,2.91521,0,0,0,2.773,1.84c2.005,0,3.16-1.64795,3.16-3.846,0-2.055-1.104-3.631-2.979-3.631-1.593,0-3.031,1.29-3.031,3.965Z"/>
    <path class="cls-8" d="M374.10669,118.332a24.65993,24.65993,0,0,0-.436-6.711,31.38292,31.38292,0,0,0-4.367-9.651h3.545a27.01578,27.01578,0,0,1,3.339,8.45606h.103c.976-1.863,2.363-4.897,2.363-7.52405,0-.453-.026-.693-.026-.932h3.006a4.5815,4.5815,0,0,1,.05.861c0,2.961-1.9,6.806-4.417,10.246a.9308.9308,0,0,0-.154.574c.052,1.169.052,3.08.077,4.681Z"/>
    <path class="cls-8" d="M385.9454,107.34491c-1.49-.382-2.312-1.29-2.312-2.43695,0-1.576,1.696-3.201,5.266-3.201a7.91511,7.91511,0,0,1,4.007.884l-.591,1.888a7.118,7.118,0,0,0-3.031-.693c-1.515,0-2.466.574-2.466,1.385,0,.932,1.259,1.314,3.134,1.338h1.362v1.958h-1.387c-2.004.025-3.52.407-3.52,1.529,0,1.099,1.362,1.67206,2.903,1.67206a8.98143,8.98143,0,0,0,3.519-.811l.462,1.958a10.22692,10.22692,0,0,1-4.752,1.051c-2.645,0-5.496-.932-5.496-3.559a3.173,3.173,0,0,1,2.902-2.866Z"/>
    <path class="cls-8" d="M398.68469,110.33093c0,.955.308,1.337,1.181,1.29l-.179,2.054a4.15129,4.15129,0,0,1-1.362.191c-1.695,0-2.825-.669-2.825-3.249V101.97h3.185Z"/>
    <path class="cls-8" d="M413.787,101.97021c-.154,1.577-.36,5.16-.36,7.931,0,1.314.437,1.767,1.208,1.743l-.206,2.078a4.01627,4.01627,0,0,1-1.104.143,2.32135,2.32135,0,0,1-2.44-2.268h-.077a4.66936,4.66936,0,0,1-4.136,2.268c-2.929,0-5.164-2.293-5.164-5.851,0-3.846,2.801-6.307,5.652-6.307a3.87983,3.87983,0,0,1,3.596,2.031h.103c.077-.716.18-1.266.282-1.768Zm-9.067,5.948c0,1.958,1.078,3.606,2.8,3.606a3.13792,3.13792,0,0,0,2.774-2.507,7.57176,7.57176,0,0,0,.103-1.362,4.78736,4.78736,0,0,0-.078-1.09906,2.86622,2.86622,0,0,0-2.645-2.579c-1.773,0-2.954,1.743-2.954,3.917Z"/>
    <path class="cls-8" d="M429.03311,54.81934a22.90349,22.90349,0,1,1,22.904,22.902,22.90467,22.90467,0,0,1-22.904-22.902"/>
    <path class="cls-6" d="M450.37631,63.40411v-7.896l-5.986-11.043h3.935l2.276,4.861c.646,1.405,1.124,2.473,1.629,3.766h.056c.479-1.209,1.013-2.389,1.659-3.766l2.275-4.861h3.906l-6.293,10.959v7.98Z"/>
    <path class="cls-8" d="M481.72739,54.81934a22.90349,22.90349,0,1,1,22.904,22.902,22.90466,22.90466,0,0,1-22.904-22.902"/>
    <path class="cls-8" d="M429.03311,105.60461a22.90349,22.90349,0,1,1,22.904,22.903,22.90467,22.90467,0,0,1-22.904-22.903"/>
    <rect class="cls-6" x="443.20999" y="95.25098" width="3.457" height="18.93903"/>
    <polygon class="cls-6" points="461.222 105.789 454.085 105.789 454.085 111.352 462.067 111.352 462.067 114.191 450.63 114.191 450.63 95.251 461.644 95.251 461.644 98.09 454.085 98.09 454.085 102.979 461.222 102.979 461.222 105.789"/>
    <path class="cls-8" d="M481.72739,105.60461a22.90349,22.90349,0,1,1,22.904,22.903,22.90466,22.90466,0,0,1-22.904-22.903"/>
    <rect class="cls-6" x="488.69601" y="44.46497" width="3.457" height="18.93903"/>
    <path class="cls-6" d="M499.88019,44.46533h3.457v12.279c0,5.227-2.53,6.969-6.295,6.969a9.20642,9.20642,0,0,1-2.894-.45l.421-2.781a7.59519,7.59519,0,0,0,2.137.337c1.966,0,3.174-.899,3.174-4.18695Z"/>
    <path class="cls-6" d="M510.92508,58.03717l-1.63,5.367h-3.568l6.07-18.939h4.411l6.153,18.939h-3.70794l-1.715-5.367Zm5.423-2.613-1.489-4.665c-.366-1.152-.675-2.444-.956-3.54h-.056c-.281,1.096-.562,2.416-.899,3.54l-1.462,4.665Z"/>
    <rect class="cls-6" x="494.20401" y="95.25305" width="3.457" height="18.93799"/>
    <path class="cls-6" d="M505.4176,108.82367l-1.63,5.36694h-3.569l6.07-18.938h4.411l6.154,18.938h-3.709l-1.715-5.36694Zm5.423-2.61206-1.49-4.665c-.366-1.152-.675-2.445-.956-3.541h-.056c-.28,1.096-.561,2.41705-.899,3.541l-1.461,4.665Z"/>
  </g>
  <g class="cls-2">
    <line class="cls-10" x1="26.8437" y1="191.33844" x2="568.34467" y2="190.47949"/>
    <line class="cls-11" x1="33.1269" y1="205.35089" x2="29.1109" y2="205.35089"/>
  </g>
  <g class="cls-12">
    <path class="cls-11" d="M64.7133,226.92773h1.372a1.28149,1.28149,0,0,1,1.41,1.322v2.001"/>
    <path d="M30.0261,204.02112a.18357.18357,0,0,1-.178.15906h-1.306a.18357.18357,0,0,1-.178-.15906l-.248-2.227a.141.141,0,0,1,.143-.159h1.872a.13973.13973,0,0,1,.142.159Z"/>
    <line class="cls-11" x1="29.2256" y1="230.42249" x2="29.2256" y2="203.23553"/>
    <path class="cls-13" d="M64.9764,227.48041a2.14317,2.14317,0,0,1-1.889,1.889,2.17776,2.17776,0,0,1-1.889-1.889v-23.944a1.889,1.889,0,0,1,3.778,0Z"/>
    <polygon class="cls-14" points="36.45 227.872 34.12 228.25 34.12 225.605 36.45 225.983 36.45 227.872"/>
    <polygon class="cls-13" points="36.45 227.872 38.78 228.25 38.78 225.605 36.45 225.983 36.45 227.872"/>
    <polygon class="cls-13" points="42.354 227.872 40.024 228.25 40.024 225.605 42.354 225.983 42.354 227.872"/>
    <polygon class="cls-13" points="42.354 227.872 44.684 228.25 44.684 225.605 42.354 225.983 42.354 227.872"/>
    <polygon class="cls-13" points="48.273 227.872 45.943 228.25 45.943 225.605 48.273 225.983 48.273 227.872"/>
    <polygon class="cls-13" points="48.273 227.872 50.603 228.25 50.603 225.605 48.273 225.983 48.273 227.872"/>
    <polygon class="cls-13" points="54.177 227.872 51.847 228.25 51.847 225.605 54.177 225.983 54.177 227.872"/>
    <polygon class="cls-13" points="54.177 227.872 56.507 228.25 56.507 225.605 54.177 225.983 54.177 227.872"/>
    <polygon class="cls-13" points="60.269 227.872 57.939 228.25 57.939 225.605 60.269 225.983 60.269 227.872"/>
    <polygon class="cls-13" points="60.269 227.872 62.599 228.25 62.599 225.605 60.269 225.983 60.269 227.872"/>
    <polygon class="cls-14" points="36.45 205.125 34.12 205.503 34.12 202.858 36.45 203.236 36.45 205.125"/>
    <polygon class="cls-13" points="36.45 205.125 38.78 205.503 38.78 202.858 36.45 203.236 36.45 205.125"/>
    <polygon class="cls-13" points="42.354 205.125 40.024 205.503 40.024 202.858 42.354 203.236 42.354 205.125"/>
    <polygon class="cls-13" points="42.354 205.125 44.684 205.503 44.684 202.858 42.354 203.236 42.354 205.125"/>
    <polygon class="cls-13" points="48.273 205.125 45.943 205.503 45.943 202.858 48.273 203.236 48.273 205.125"/>
    <polygon class="cls-13" points="48.273 205.125 50.603 205.503 50.603 202.858 48.273 203.236 48.273 205.125"/>
    <polygon class="cls-13" points="54.177 205.125 51.847 205.503 51.847 202.858 54.177 203.236 54.177 205.125"/>
    <polygon class="cls-13" points="54.177 205.125 56.507 205.503 56.507 202.858 54.177 203.236 54.177 205.125"/>
    <polygon class="cls-15" points="54.177 204.784 55.342 205.026 55.342 203.335 54.177 203.577 54.177 204.784"/>
    <polygon class="cls-13" points="60.269 205.125 57.939 205.503 57.939 202.858 60.269 203.236 60.269 205.125"/>
    <polygon class="cls-13" points="60.269 205.125 62.599 205.503 62.599 202.858 60.269 203.236 60.269 205.125"/>
  </g>
  <g class="cls-2">
    <polygon class="cls-14" points="54.177 205.125 51.847 205.503 51.847 202.858 54.177 203.236 54.177 205.125"/>
    <polygon class="cls-14" points="54.177 205.125 56.507 205.503 56.507 202.858 54.177 203.236 54.177 205.125"/>
  </g>
  <g class="cls-12">
    <g class="cls-16">
      <g class="cls-17">
        <g class="cls-18">
          <polygon points="55.341 203.335 54.176 203.577 54.176 204.785 55.341 205.027 55.341 203.335"/>
        </g>
      </g>
    </g>
  </g>
  <g class="cls-2">
    <polygon class="cls-14" points="59.931 205.125 57.601 205.503 57.601 202.858 59.931 203.236 59.931 205.125"/>
    <polygon class="cls-14" points="59.931 205.125 62.261 205.503 62.261 202.858 59.931 203.236 59.931 205.125"/>
  </g>
  <g class="cls-12">
    <g class="cls-16">
      <g class="cls-19">
        <g class="cls-20">
          <polygon points="61.096 203.335 59.931 203.577 59.931 204.785 61.096 205.027 61.096 203.335"/>
        </g>
      </g>
    </g>
  </g>
  <g class="cls-2">
    <polygon class="cls-14" points="48.273 205.125 45.943 205.503 45.943 202.858 48.273 203.236 48.273 205.125"/>
    <polygon class="cls-14" points="48.273 205.125 50.603 205.503 50.603 202.858 48.273 203.236 48.273 205.125"/>
  </g>
  <g class="cls-12">
    <g class="cls-16">
      <g class="cls-21">
        <g class="cls-22">
          <polygon points="49.438 203.335 48.273 203.577 48.273 204.785 49.438 205.027 49.438 203.335"/>
        </g>
      </g>
    </g>
  </g>
  <g class="cls-2">
    <polygon class="cls-14" points="42.354 205.125 40.024 205.503 40.024 202.858 42.354 203.236 42.354 205.125"/>
    <polygon class="cls-14" points="42.354 205.125 44.684 205.503 44.684 202.858 42.354 203.236 42.354 205.125"/>
  </g>
  <g class="cls-12">
    <g class="cls-16">
      <g class="cls-23">
        <g class="cls-24">
          <polygon points="43.519 203.335 42.354 203.577 42.354 204.785 43.519 205.027 43.519 203.335"/>
        </g>
      </g>
    </g>
  </g>
  <g class="cls-2">
    <polygon class="cls-14" points="36.45 205.125 34.12 205.503 34.12 202.858 36.45 203.236 36.45 205.125"/>
    <polygon class="cls-14" points="36.45 205.125 38.78 205.503 38.78 202.858 36.45 203.236 36.45 205.125"/>
  </g>
  <g class="cls-12">
    <g class="cls-16">
      <g class="cls-25">
        <g class="cls-26">
          <polygon points="37.616 203.335 36.451 203.577 36.451 204.785 37.616 205.027 37.616 203.335"/>
        </g>
      </g>
    </g>
  </g>
  <g class="cls-2">
    <polygon class="cls-14" points="54.177 227.871 51.847 228.249 51.847 225.604 54.177 225.982 54.177 227.871"/>
    <polygon class="cls-14" points="54.177 227.871 56.507 228.249 56.507 225.604 54.177 225.982 54.177 227.871"/>
  </g>
  <g class="cls-12">
    <g class="cls-16">
      <g class="cls-27">
        <g class="cls-28">
          <polygon points="55.341 226.08 54.176 226.322 54.176 227.53 55.337 227.771 55.341 227.771 55.341 226.08"/>
        </g>
      </g>
    </g>
  </g>
  <g class="cls-2">
    <polygon class="cls-14" points="59.931 227.871 57.601 228.249 57.601 225.604 59.931 225.982 59.931 227.871"/>
    <polygon class="cls-14" points="59.931 227.871 62.261 228.249 62.261 225.604 59.931 225.982 59.931 227.871"/>
  </g>
  <g class="cls-12">
    <g class="cls-16">
      <g class="cls-29">
        <g class="cls-30">
          <polygon points="61.096 226.08 59.931 226.322 59.931 227.53 61.092 227.771 61.096 227.771 61.096 226.08"/>
        </g>
      </g>
    </g>
  </g>
  <g class="cls-2">
    <polygon class="cls-14" points="48.273 227.871 45.943 228.249 45.943 225.604 48.273 225.982 48.273 227.871"/>
    <polygon class="cls-14" points="48.273 227.871 50.603 228.249 50.603 225.604 48.273 225.982 48.273 227.871"/>
  </g>
  <g class="cls-12">
    <g class="cls-16">
      <g class="cls-31">
        <g class="cls-32">
          <polygon points="49.438 226.08 48.273 226.322 48.273 227.53 49.434 227.771 49.438 227.771 49.438 226.08"/>
        </g>
      </g>
    </g>
  </g>
  <g class="cls-2">
    <polygon class="cls-14" points="42.354 227.871 40.024 228.249 40.024 225.604 42.354 225.982 42.354 227.871"/>
    <polygon class="cls-14" points="42.354 227.871 44.684 228.249 44.684 225.604 42.354 225.982 42.354 227.871"/>
  </g>
  <g class="cls-12">
    <g class="cls-16">
      <g class="cls-33">
        <g class="cls-34">
          <polygon points="43.519 226.08 42.354 226.322 42.354 227.53 43.515 227.771 43.519 227.771 43.519 226.08"/>
        </g>
      </g>
    </g>
  </g>
  <g class="cls-2">
    <polygon class="cls-14" points="36.45 227.871 34.12 228.249 34.12 225.604 36.45 225.982 36.45 227.871"/>
    <polygon class="cls-14" points="36.45 227.871 38.78 228.249 38.78 225.604 36.45 225.982 36.45 227.871"/>
  </g>
  <g class="cls-12">
    <g class="cls-16">
      <g class="cls-35">
        <g class="cls-36">
          <polygon points="37.616 226.08 36.451 226.322 36.451 227.53 37.611 227.771 37.616 227.771 37.616 226.08"/>
        </g>
      </g>
    </g>
    <path class="cls-14" d="M64.9764,227.48041a2.14317,2.14317,0,0,1-1.889,1.889,2.17776,2.17776,0,0,1-1.889-1.889v-23.944a1.889,1.889,0,0,1,3.778,0Z"/>
    <path class="cls-14" d="M59.057,227.48041a2.14317,2.14317,0,0,1-1.889,1.889,2.17776,2.17776,0,0,1-1.889-1.889v-23.944a1.889,1.889,0,0,1,3.778,0Z"/>
    <path class="cls-14" d="M53.1376,227.48041a2.14317,2.14317,0,0,1-1.889,1.889,2.17776,2.17776,0,0,1-1.889-1.889v-23.944a2.18049,2.18049,0,0,1,1.889-1.889,2.18049,2.18049,0,0,1,1.889,1.889Z"/>
    <path class="cls-14" d="M47.2185,227.48041a2.14317,2.14317,0,0,1-1.889,1.889,2.17777,2.17777,0,0,1-1.889-1.889v-23.944a2.1805,2.1805,0,0,1,1.889-1.889,2.18049,2.18049,0,0,1,1.889,1.889Z"/>
    <path class="cls-14" d="M41.2991,227.48041a2.14317,2.14317,0,0,1-1.889,1.889,2.17776,2.17776,0,0,1-1.889-1.889v-23.944a2.18049,2.18049,0,0,1,1.889-1.889,2.18145,2.18145,0,0,1,1.889,1.889Z"/>
    <path class="cls-14" d="M35.3797,227.48041a2.14317,2.14317,0,0,1-1.889,1.889,2.17776,2.17776,0,0,1-1.889-1.889v-23.944a2.18049,2.18049,0,0,1,1.889-1.889,2.18049,2.18049,0,0,1,1.889,1.889Z"/>
  </g>
  <g class="cls-12">
    <g class="cls-16">
      <g class="cls-37">
        <g class="cls-38">
          <path d="M63.0872,229.1333a2.02141,2.02141,0,0,1-1.653-1.85v-23.447a2.02529,2.02529,0,0,1,1.653-1.849"/>
        </g>
      </g>
    </g>
    <g class="cls-16">
      <g class="cls-39">
        <g class="cls-40">
          <path d="M57.1951,229.1333a2.02141,2.02141,0,0,1-1.653-1.85v-23.447a2.02529,2.02529,0,0,1,1.653-1.849"/>
        </g>
      </g>
    </g>
    <g class="cls-16">
      <g class="cls-41">
        <g class="cls-42">
          <path d="M51.3034,229.1333a2.02141,2.02141,0,0,1-1.653-1.85v-23.447a2.02529,2.02529,0,0,1,1.653-1.849"/>
        </g>
      </g>
    </g>
    <g class="cls-16">
      <g class="cls-43">
        <g class="cls-44">
          <path d="M45.4113,229.1333a2.02141,2.02141,0,0,1-1.653-1.85v-23.447a2.02529,2.02529,0,0,1,1.653-1.849"/>
        </g>
      </g>
    </g>
    <g class="cls-16">
      <g class="cls-45">
        <g class="cls-46">
          <path d="M39.5194,229.1333a2.02141,2.02141,0,0,1-1.653-1.85v-23.447a2.02529,2.02529,0,0,1,1.653-1.849"/>
        </g>
      </g>
    </g>
    <g class="cls-16">
      <g class="cls-47">
        <g class="cls-48">
          <path d="M33.6274,229.1333a2.02141,2.02141,0,0,1-1.653-1.85v-23.447a2.02529,2.02529,0,0,1,1.653-1.849"/>
        </g>
      </g>
    </g>
  </g>
  <g class="cls-2">
    <rect class="cls-8" x="88.483" y="266.17303" width="44.903" height="70.30798"/>
  </g>
  <g class="cls-49">
    <path class="cls-50" d="M105.557,332.188a3.29149,3.29149,0,1,1,3.293-3.291,3.29472,3.29472,0,0,1-3.293,3.291m10.754,0a3.29149,3.29149,0,1,1,3.291-3.291,3.29578,3.29578,0,0,1-3.291,3.291M91.065,266.173a2.58433,2.58433,0,0,0-2.582,2.581V321.81a2.58521,2.58521,0,0,0,2.582,2.582h6.252v9.507a2.58542,2.58542,0,0,0,2.582,2.583h22.014a2.58542,2.58542,0,0,0,2.582-2.583v-9.507h6.31a2.585,2.585,0,0,0,2.581-2.582V268.754a2.58412,2.58412,0,0,0-2.581-2.581Zm31.02,67.87H99.783v-9.651h22.302Z"/>
    <path class="cls-8" d="M130.9816,320.29059a1.57281,1.57281,0,0,1-1.579,1.558H92.4656a1.57258,1.57258,0,0,1-1.578-1.558v-50.1a1.57257,1.57257,0,0,1,1.578-1.558h36.937a1.5728,1.5728,0,0,1,1.579,1.558Z"/>
    <path class="cls-50" d="M110.9346,276.00519a16.24,16.24,0,1,0,16.239,16.24,16.259,16.259,0,0,0-16.239-16.24"/>
    <path class="cls-8" d="M105.7009,302.43964l-.381-.226-.898-.535-.382-.227.227-.38a6.97366,6.97366,0,0,0,1.122-3.635,10.73886,10.73886,0,0,0-1.188-4.241l-.048-.111a11.94018,11.94018,0,0,1-1.3-4.834,8.37065,8.37065,0,0,1,1.384-4.475l.232-.37806.378.233.89.545.376.232-.231.378a6.50364,6.50364,0,0,0-1.097,3.465,10.56792,10.56792,0,0,0,1.187,4.176l.021.048a12.38713,12.38713,0,0,1,1.328,4.963,8.88248,8.88248,0,0,1-1.393,4.621Z"/>
    <path class="cls-8" d="M105.72839,302.54706l-1.795-1.068.267-.448a6.88955,6.88955,0,0,0,1.11-3.59406,10.662,10.662,0,0,0-1.18-4.20795l-.049-.113a12.02844,12.02844,0,0,1-1.307-4.866,8.46276,8.46276,0,0,1,1.396-4.515l.273-.445,1.778,1.093-.273.444a6.44469,6.44469,0,0,0-1.086,3.423,10.51383,10.51383,0,0,0,1.182,4.144l.021.049a12.455,12.455,0,0,1,1.333,4.995,8.94746,8.94746,0,0,1-1.403,4.661Zm-1.58-1.123,1.525.90906.187-.315a8.80265,8.80265,0,0,0,1.382-4.58,12.30974,12.30974,0,0,0-1.321-4.931l-.021-.04895a10.62542,10.62542,0,0,1-1.194-4.208,6.57249,6.57249,0,0,1,1.109-3.505l.19-.311-1.511-.928-.191.311a8.30657,8.30657,0,0,0-1.372,4.433,11.904,11.904,0,0,0,1.293,4.803l.049.111a10.79141,10.79141,0,0,1,1.194,4.27295,7.05441,7.05441,0,0,1-1.132,3.674Z"/>
    <path class="cls-8" d="M106.2366,283.93384a.9645.9645,0,1,1-.965-.965.96495.96495,0,0,1,.965.965"/>
    <path class="cls-8" d="M105.2722,284.97717a1.043,1.043,0,1,1,1.043-1.043,1.04519,1.04519,0,0,1-1.043,1.043m0-1.93a.88651.88651,0,1,0,.887.887.88814.88814,0,0,0-.887-.887"/>
    <path class="cls-8" d="M105.8316,301.95172a.965.965,0,1,1-.965-.96594.9656.9656,0,0,1,.965.96594"/>
    <path class="cls-8" d="M104.8664,302.99445a1.043,1.043,0,1,1,1.044-1.04206,1.045,1.045,0,0,1-1.044,1.04206m0-1.93006a.887.887,0,1,0,.887.888.88834.88834,0,0,0-.887-.888"/>
    <path class="cls-8" d="M111.5488,302.43964l-.381-.226-.898-.535-.381-.227.227-.38a6.98106,6.98106,0,0,0,1.121-3.635,10.75551,10.75551,0,0,0-1.188-4.241l-.048-.111a11.94018,11.94018,0,0,1-1.3-4.834,8.37065,8.37065,0,0,1,1.384-4.475l.232-.37806.378.233.89.545.376.232-.231.378a6.50549,6.50549,0,0,0-1.098,3.465,10.58655,10.58655,0,0,0,1.188,4.176l.021.048a12.38678,12.38678,0,0,1,1.327,4.963,8.87164,8.87164,0,0,1-1.392,4.621Z"/>
    <path class="cls-8" d="M111.57629,302.54706l-1.795-1.068.267-.448a6.89863,6.89863,0,0,0,1.11-3.59406,10.66822,10.66822,0,0,0-1.181-4.21l-.048-.112a12.01067,12.01067,0,0,1-1.307-4.865,8.46,8.46,0,0,1,1.396-4.515l.273-.445,1.777,1.093-.272.444a6.4386,6.4386,0,0,0-1.086,3.423,10.48077,10.48077,0,0,0,1.182,4.144l.021.05a12.453,12.453,0,0,1,1.333,4.994,8.94746,8.94746,0,0,1-1.403,4.661Zm-1.58-1.123,1.525.90906.188-.315a8.81029,8.81029,0,0,0,1.381-4.58,12.31449,12.31449,0,0,0-1.321-4.932l-.021-.048a10.62542,10.62542,0,0,1-1.194-4.208,6.575,6.575,0,0,1,1.109-3.505l.19-.311-1.511-.928-.191.311a8.29271,8.29271,0,0,0-1.372,4.433,11.90418,11.90418,0,0,0,1.293,4.803l.048.111a10.81162,10.81162,0,0,1,1.195,4.274,7.063,7.063,0,0,1-1.132,3.673Z"/>
    <path class="cls-8" d="M112.0846,283.93384a.9645.9645,0,1,1-.965-.965.96495.96495,0,0,1,.965.965"/>
    <path class="cls-8" d="M111.1201,284.97717a1.043,1.043,0,1,1,1.043-1.043,1.04519,1.04519,0,0,1-1.043,1.043m0-1.93a.88651.88651,0,1,0,.886.887.88814.88814,0,0,0-.886-.887"/>
    <path class="cls-8" d="M111.6794,301.95172a.965.965,0,1,1-.965-.96594.9656.9656,0,0,1,.965.96594"/>
    <path class="cls-8" d="M110.7144,302.99445a1.043,1.043,0,1,1,1.043-1.04206,1.045,1.045,0,0,1-1.043,1.04206m0-1.93006a.887.887,0,1,0,.887.888.88834.88834,0,0,0-.887-.888"/>
    <path class="cls-8" d="M117.3967,302.43964l-.381-.226-.898-.535-.381-.227.226-.38a6.97366,6.97366,0,0,0,1.122-3.635,10.75551,10.75551,0,0,0-1.188-4.241l-.048-.111a11.94018,11.94018,0,0,1-1.3-4.834,8.37785,8.37785,0,0,1,1.383-4.475l.233-.37806.378.233.889.545.377.232-.231.378a6.5142,6.5142,0,0,0-1.098,3.465,10.57009,10.57009,0,0,0,1.188,4.176l.021.048a12.38678,12.38678,0,0,1,1.327,4.963,8.87172,8.87172,0,0,1-1.392,4.621Z"/>
    <path class="cls-8" d="M117.42419,302.54706l-1.795-1.068.266-.448a6.9006,6.9006,0,0,0,1.111-3.59406,10.70046,10.70046,0,0,0-1.18-4.21l-.049-.111a12.01958,12.01958,0,0,1-1.307-4.866,8.46984,8.46984,0,0,1,1.395-4.515l.274-.445,1.777,1.093-.272.444a6.43589,6.43589,0,0,0-1.086,3.423,10.4955,10.4955,0,0,0,1.181,4.144l.021.049a12.452,12.452,0,0,1,1.334,4.995,8.94746,8.94746,0,0,1-1.403,4.661Zm-1.58-1.123,1.525.90906.188-.315a8.79943,8.79943,0,0,0,1.38-4.58,12.28752,12.28752,0,0,0-1.319-4.929l-.022-.051a10.64376,10.64376,0,0,1-1.195-4.208,6.583,6.583,0,0,1,1.11-3.505l.19-.311-1.511-.928-.192.311a8.305,8.305,0,0,0-1.371,4.433,11.88817,11.88817,0,0,0,1.293,4.803l.048.111a10.82124,10.82124,0,0,1,1.195,4.27295,7.05618,7.05618,0,0,1-1.133,3.674Z"/>
    <path class="cls-8" d="M117.9324,283.93384a.9645.9645,0,1,1-.965-.965.96495.96495,0,0,1,.965.965"/>
    <path class="cls-8" d="M116.9674,284.97717a1.043,1.043,0,1,1,1.044-1.043,1.04435,1.04435,0,0,1-1.044,1.043m0-1.93a.88651.88651,0,1,0,.887.887.88813.88813,0,0,0-.887-.887"/>
    <path class="cls-8" d="M117.5267,301.95172a.965.965,0,1,1-.965-.96594.965.965,0,0,1,.965.96594"/>
    <path class="cls-8" d="M116.5622,302.99445a1.043,1.043,0,1,1,1.043-1.04206,1.045,1.045,0,0,1-1.043,1.04206m0-1.93006a.887.887,0,1,0,.886.888.8892.8892,0,0,0-.886-.888"/>
  </g>
  <text class="cls-51" transform="translate(27.55225 817.58337)">2015</text>
  <g class="cls-2">
    <rect class="cls-8" x="91.544" y="494.75299" width="44.90299" height="77.50601"/>
  </g>
  <g class="cls-52">
    <path class="cls-8" d="M117.1801,526.01343l-1.062,1.321,1.592.785,1.384.325-.729-2.526s-.289.04-1.185.095"/>
    <path d="M96.92289,571.10242a4.22575,4.22575,0,0,1-4.222-4.22v-62.96c0-.904.747-1.735,2.498-2.778a34.3094,34.3094,0,0,1,5.068-2.364c2.263-.864,8.118-2.871,13.591-2.871,5.516,0,11.452,2.006,13.749,2.869,5.098,1.915,7.684,3.646,7.684,5.144v62.96a4.22553,4.22553,0,0,1-4.221,4.22Zm.946-6.024a.71413.71413,0,0,0,.717.692h30.821a.7148.7148,0,0,0,.717-.692v-59.099c-1.354-1.125-8.993-4.568-16.266-4.568-7.193,0-14.683,3.439-15.989,4.556Z"/>
    <path class="cls-8" d="M113.85759,497.06622c8.544,0,20.276,5.167,20.276,6.857v62.959a3.06769,3.06769,0,0,1-3.063,3.063h-34.147a3.069,3.069,0,0,1-3.066-3.063v-62.959c0-1.69,11.525-6.857,20-6.857m-15.272,69.861h30.821a1.86753,1.86753,0,0,0,1.874-1.849v-59.451c0-1.017-9.182-5.373-17.423-5.373-8.293,0-17.146,4.356-17.146,5.373v59.451a1.86689,1.86689,0,0,0,1.874,1.849m15.272-72.175c-5.665,0-11.68,2.061-14.003,2.947a34.97928,34.97928,0,0,0-5.247,2.452c-1.515.901-3.063,2.055-3.063,3.772v62.959a5.384,5.384,0,0,0,5.379,5.377h34.147a5.383,5.383,0,0,0,5.377-5.377v-62.959c0-1.727-1.573-2.88-3.112-3.781a35.73353,35.73353,0,0,0-5.322-2.447c-2.356-.885-8.45-2.943-14.156-2.943m-14.832,11.824a25.23184,25.23184,0,0,1,4.922-2.194,31.73019,31.73019,0,0,1,9.91-1.814,32.77616,32.77616,0,0,1,10.033,1.823,27.36634,27.36634,0,0,1,5.077,2.204v58.019H99.0256Z"/>
    <path class="cls-8" d="M113.8579,500.25443c-8.294,0-17.146,4.356-17.146,5.373v59.451a1.86687,1.86687,0,0,0,1.874,1.849h30.821a1.86753,1.86753,0,0,0,1.874-1.849v-59.451c0-1.017-9.182-5.373-17.423-5.373"/>
    <path d="M99.7475,523.52322a4.41532,4.41532,0,0,0,3.611,2.404,4.787,4.787,0,0,0,3.585-2.366,4.41651,4.41651,0,0,0,3.589,2.366,4.7917,4.7917,0,0,0,3.587-2.366,4.40985,4.40985,0,0,0,3.589,2.366,4.79492,4.79492,0,0,0,3.587-2.366,4.40835,4.40835,0,0,0,3.588,2.366,4.78334,4.78334,0,0,0,3.578-2.355v-2.507a4.77071,4.77071,0,0,1-3.578,2.354,4.407,4.407,0,0,1-3.588-2.365,4.785,4.785,0,0,1-3.587,2.365,4.40852,4.40852,0,0,1-3.589-2.365,4.78182,4.78182,0,0,1-3.587,2.365,4.41517,4.41517,0,0,1-3.589-2.365,4.77717,4.77717,0,0,1-3.585,2.365,4.41843,4.41843,0,0,1-3.611-2.403c.003-.019.01-.034.014-.053h-.032v2.508h.032c-.004.018-.011.034-.014.052"/>
    <path d="M99.7475,529.20242a4.4175,4.4175,0,0,0,3.611,2.404,4.79131,4.79131,0,0,0,3.585-2.367,4.42,4.42,0,0,0,3.589,2.367,4.796,4.796,0,0,0,3.587-2.367,4.41337,4.41337,0,0,0,3.589,2.367,4.79921,4.79921,0,0,0,3.587-2.367,4.41187,4.41187,0,0,0,3.588,2.367,4.78483,4.78483,0,0,0,3.578-2.356v-2.507a4.77507,4.77507,0,0,1-3.578,2.355,4.40833,4.40833,0,0,1-3.588-2.366,4.78663,4.78663,0,0,1-3.587,2.366,4.40983,4.40983,0,0,1-3.589-2.366,4.78343,4.78343,0,0,1-3.587,2.366,4.41649,4.41649,0,0,1-3.589-2.366,4.77877,4.77877,0,0,1-3.585,2.366,4.41969,4.41969,0,0,1-3.611-2.404c.003-.018.01-.034.014-.052h-.032v2.507h.032c-.004.018-.011.034-.014.053"/>
    <path d="M124.8837,534.77661a4.40787,4.40787,0,0,1-3.588-2.364,4.78333,4.78333,0,0,1-3.587,2.364,4.40666,4.40666,0,0,1-3.589-2.364,4.78007,4.78007,0,0,1-3.588,2.364,4.4159,4.4159,0,0,1-3.588-2.364,4.77547,4.77547,0,0,1-3.585,2.364,4.41518,4.41518,0,0,1-3.611-2.404c.003-.019.01-.032.014-.052h-.032v2.506h.032c-.004.02-.011.035-.014.054a4.4153,4.4153,0,0,0,3.611,2.404,4.78982,4.78982,0,0,0,3.585-2.366,4.4141,4.4141,0,0,0,3.588,2.366,4.79442,4.79442,0,0,0,3.588-2.366,4.40488,4.40488,0,0,0,3.589,2.366,4.79771,4.79771,0,0,0,3.587-2.366,4.40608,4.40608,0,0,0,3.588,2.366,4.78492,4.78492,0,0,0,3.578-2.356v-2.507a4.76937,4.76937,0,0,1-3.578,2.355"/>
  </g>
  <g class="cls-2">
    <rect class="cls-53" x="193.183" y="624.97101" width="30.01601" height="30.01601"/>
  </g>
  <text class="cls-54" transform="translate(42.04736 652.91248)">+</text>
  <g class="cls-2">
    <rect class="cls-8" x="72.992" y="407.651" width="82.008" height="59.61401"/>
  </g>
  <g class="cls-55">
    <path class="cls-56" d="M125.6213,407.65091h1.168a.48851.48851,0,0,1,.442.5l.447,6.534a.46418.46418,0,0,1-.441.501h-2.064a.46418.46418,0,0,1-.441-.501l.448-6.534a.48627.48627,0,0,1,.441-.5"/>
    <path class="cls-56" d="M137.4989,410.60532l1.011.584a.49.49,0,0,1,.134.654l-2.879,5.881a.46479.46479,0,0,1-.633.213l-1.787-1.032a.4639.4639,0,0,1-.133-.654l3.654-5.435a.48861.48861,0,0,1,.633-.211"/>
    <path class="cls-56" d="M146.30991,419.10233l.583,1.011a.48826.48826,0,0,1-.213.633l-5.434,3.655a.46586.46586,0,0,1-.655-.134l-1.03-1.787a.46331.46331,0,0,1,.212-.632l5.882-2.879a.48985.48985,0,0,1,.655.133"/>
    <path class="cls-56" d="M149.68919,430.86533v1.169a.48989.48989,0,0,1-.5.441l-6.534.447a.4633.4633,0,0,1-.5-.441v-2.064a.46472.46472,0,0,1,.5-.442l6.534.449a.48623.48623,0,0,1,.5.441"/>
    <path class="cls-56" d="M146.7354,442.7435l-.584,1.011a.49115.49115,0,0,1-.656.132l-5.88-2.879a.46227.46227,0,0,1-.212-.633l1.031-1.785a.46433.46433,0,0,1,.654-.134l5.434,3.654a.49139.49139,0,0,1,.213.634"/>
    <path class="cls-56" d="M105.3606,419.84061l.584-1.011a.49051.49051,0,0,1,.654-.134l5.883,2.88a.46576.46576,0,0,1,.212.632l-1.032,1.786a.46368.46368,0,0,1-.654.134l-5.434-3.654a.49054.49054,0,0,1-.213-.633"/>
    <path class="cls-56" d="M113.859,411.032l1.01-.585a.49024.49024,0,0,1,.633.213l3.655,5.433a.4659.4659,0,0,1-.133.655l-1.787,1.032a.46224.46224,0,0,1-.632-.214l-2.879-5.88a.48664.48664,0,0,1,.133-.654"/>
    <path class="cls-56" d="M91.5527,426.48163h16.828q4.20149,0,8.409.004h8.421a3.36107,3.36107,0,0,1,3.012,1.837q.73051,1.8885,1.535,3.975.846,2.1915,1.795,4.637,1.0035,2.592,2.12,5.497,1.1925,3.08552,2.547,6.601c.814,2.108-.068,3.947-2.012,3.947q-6.462,0-12.922.007H82.5377c-1.943,0-2.831-1.826-2.013-3.942.905-2.347,1.751-4.543,2.547-6.605q1.12651-2.91152,2.133-5.508c.631-1.627,1.229-3.178,1.794-4.641q.807-2.08648,1.543-3.978a3.35525,3.35525,0,0,1,3.011-1.831"/>
    <path class="cls-57" d="M116.3927,429.81464q3.7815,0,7.571.005a1.07406,1.07406,0,0,1,.974.599q.552,1.53154,1.16,3.228.64352,1.788,1.364,3.781.762,2.11053,1.617,4.498.912,2.538,1.955,5.439c.246.684-.049,1.254-.663,1.254q-5.5695,0-11.131.004a1.41768,1.41768,0,0,1-1.286-1.257q-.3825-2.8965-.717-5.438-.31648-2.388-.596-4.5-.26549-1.995-.504-3.782-.22352-1.6995-.427-3.23c-.043-.333.264-.601.683-.601"/>
    <path class="cls-57" d="M104.59769,429.81262q3.78152,0,7.563.002a.79729.79729,0,0,1,.83.601c.12,1.024.238,2.097.367,3.23q.2025,1.78949.432,3.782.2385,2.115.51,4.5.2895,2.54553.617,5.438a1.05478,1.05478,0,0,1-.978,1.259q-5.5635.00147-11.13.001a1.05221,1.05221,0,0,1-.977-1.255c.223-1.936.426-3.746.62-5.443.181-1.592.357-3.09.518-4.504q.225-1.992.429-3.781.195-1.695.368-3.229a.79794.79794,0,0,1,.831-.601"/>
    <path class="cls-57" d="M92.7957,429.81061q3.7845,0,7.569.002c.419,0,.727.27.683.601-.136,1.024-.281,2.096-.432,3.229q-.23551,1.788-.501,3.781-.28648,2.1195-.602,4.504c-.226,1.697-.463,3.507-.72,5.443a1.414,1.414,0,0,1-1.287,1.255q-5.56952,0-11.132.006c-.616,0-.911-.57-.662-1.261q1.04251-2.898,1.956-5.443c.753-2.088.96-2.664,1.625-4.504q.72-1.992,1.363-3.785.609-1.6935,1.166-3.227a1.07006,1.07006,0,0,1,.974-.601"/>
    <path class="cls-50" d="M118.9203,424.354h8.42a3.36222,3.36222,0,0,1,3.013,1.837q.729,1.89,1.535,3.975.8475,2.19452,1.795,4.638,1.002,2.592,2.12,5.498c.168.433.338.875.51,1.32a14.60479,14.60479,0,1,0-23.086-17.27q2.847.00151,5.693.002"/>
    <rect class="cls-50" x="86.164" y="436.29501" width="43.74001" height="2.771"/>
    <polygon class="cls-50" points="101.797 455.699 115.853 455.698 118.883 467.409 99.175 467.405 101.797 455.699"/>
  </g>
  <g class="cls-2">
    <rect class="cls-53" x="193.41901" y="726.23102" width="30.01601" height="30.016"/>
  </g>
  <text class="cls-54" transform="translate(42.04736 754.17224)">+</text>
  <text class="cls-58" transform="translate(178.51221 311.96521)"> </text>
  <text class="cls-54" transform="translate(42.04736 450.39099)">+</text>
  <g class="cls-2">
    <rect class="cls-53" x="193.41901" y="422.45001" width="30.01601" height="30.01599"/>
    <rect class="cls-8" x="91.771" y="712.67702" width="44.904" height="70.309"/>
  </g>
  <g class="cls-59">
    <path class="cls-50" d="M108.846,778.692a3.2915,3.2915,0,1,1,3.293-3.291,3.29472,3.29472,0,0,1-3.293,3.291m10.753,0a3.2915,3.2915,0,1,1,3.292-3.291,3.29558,3.29558,0,0,1-3.292,3.291M94.354,712.677a2.58435,2.58435,0,0,0-2.582,2.581v53.056a2.5852,2.5852,0,0,0,2.582,2.582h6.252v9.507a2.58521,2.58521,0,0,0,2.581,2.583h22.015a2.58543,2.58543,0,0,0,2.582-2.583v-9.507h6.309a2.5852,2.5852,0,0,0,2.582-2.582V715.258a2.58435,2.58435,0,0,0-2.582-2.581Zm31.02,67.87H103.072v-9.651h22.302Z"/>
    <path class="cls-8" d="M134.27049,766.79462a1.5728,1.5728,0,0,1-1.579,1.558h-36.937a1.57258,1.57258,0,0,1-1.578-1.558v-50.1a1.57258,1.57258,0,0,1,1.578-1.558h36.937a1.5728,1.5728,0,0,1,1.579,1.558Z"/>
    <path class="cls-50" d="M114.2235,722.50912a16.24,16.24,0,1,0,16.239,16.24,16.25895,16.25895,0,0,0-16.239-16.24"/>
    <path class="cls-8" d="M108.9897,748.94351l-.381-.226-.898-.535-.382-.227.227-.38a6.97376,6.97376,0,0,0,1.122-3.635,10.73913,10.73913,0,0,0-1.188-4.241l-.048-.111a11.94019,11.94019,0,0,1-1.3-4.834,8.37094,8.37094,0,0,1,1.384-4.475l.232-.378.378.233.89.545.376.232-.231.378a6.5034,6.5034,0,0,0-1.097,3.465,10.56761,10.56761,0,0,0,1.187,4.176l.021.048a12.38713,12.38713,0,0,1,1.328,4.963,8.88285,8.88285,0,0,1-1.393,4.621Z"/>
    <path class="cls-8" d="M109.0172,749.05092l-1.795-1.068.267-.448a6.8895,6.8895,0,0,0,1.11-3.594,10.66242,10.66242,0,0,0-1.18-4.208l-.049-.113a12.02853,12.02853,0,0,1-1.307-4.866,8.46283,8.46283,0,0,1,1.396-4.515l.273-.445,1.778,1.093-.273.444a6.44453,6.44453,0,0,0-1.086,3.423,10.5138,10.5138,0,0,0,1.182,4.144l.021.049a12.45464,12.45464,0,0,1,1.333,4.995,8.94732,8.94732,0,0,1-1.403,4.661Zm-1.58-1.123,1.525.909.187-.315a8.80252,8.80252,0,0,0,1.382-4.58,12.30976,12.30976,0,0,0-1.321-4.931l-.021-.049a10.62557,10.62557,0,0,1-1.194-4.208,6.5726,6.5726,0,0,1,1.109-3.505l.19-.311-1.511-.928-.191.311a8.30641,8.30641,0,0,0-1.372,4.433,11.90417,11.90417,0,0,0,1.293,4.803l.049.111a10.79172,10.79172,0,0,1,1.194,4.273,7.05438,7.05438,0,0,1-1.132,3.674Z"/>
    <path class="cls-8" d="M109.5255,730.43781a.9645.9645,0,1,1-.965-.965.965.965,0,0,1,.965.965"/>
    <path class="cls-8" d="M108.561,731.48112a1.043,1.043,0,1,1,1.043-1.043,1.04518,1.04518,0,0,1-1.043,1.043m0-1.93a.8865.8865,0,1,0,.887.887.88812.88812,0,0,0-.887-.887"/>
    <path class="cls-8" d="M109.1204,748.45571a.965.965,0,1,1-.965-.966.96559.96559,0,0,1,.965.966"/>
    <path class="cls-8" d="M108.1553,749.49831a1.043,1.043,0,1,1,1.044-1.042,1.045,1.045,0,0,1-1.044,1.042m0-1.93a.887.887,0,1,0,.887.888.88834.88834,0,0,0-.887-.888"/>
    <path class="cls-8" d="M114.8376,748.94351l-.381-.226-.898-.535-.381-.227.227-.38a6.98116,6.98116,0,0,0,1.121-3.635,10.75562,10.75562,0,0,0-1.188-4.241l-.048-.111a11.94019,11.94019,0,0,1-1.3-4.834,8.371,8.371,0,0,1,1.384-4.475l.232-.378.378.233.89.545.376.232-.231.378a6.50525,6.50525,0,0,0-1.098,3.465,10.58624,10.58624,0,0,0,1.188,4.176l.021.048a12.38662,12.38662,0,0,1,1.327,4.963,8.87192,8.87192,0,0,1-1.392,4.621Z"/>
    <path class="cls-8" d="M114.8651,749.05092l-1.795-1.068.267-.448a6.89867,6.89867,0,0,0,1.11-3.594,10.66838,10.66838,0,0,0-1.181-4.21l-.048-.112a12.01068,12.01068,0,0,1-1.307-4.865,8.4577,8.4577,0,0,1,1.396-4.515l.273-.445,1.777,1.093-.272.444a6.4384,6.4384,0,0,0-1.086,3.423,10.48058,10.48058,0,0,0,1.182,4.144l.021.05a12.45256,12.45256,0,0,1,1.333,4.994,8.9474,8.9474,0,0,1-1.403,4.661Zm-1.58-1.123,1.525.909.188-.315a8.81016,8.81016,0,0,0,1.381-4.58,12.31461,12.31461,0,0,0-1.321-4.932l-.021-.048a10.62557,10.62557,0,0,1-1.194-4.208,6.57518,6.57518,0,0,1,1.109-3.505l.19-.311-1.511-.928-.191.311a8.29261,8.29261,0,0,0-1.372,4.433,11.90417,11.90417,0,0,0,1.293,4.803l.048.111a10.81227,10.81227,0,0,1,1.195,4.274,7.063,7.063,0,0,1-1.132,3.673Z"/>
    <path class="cls-8" d="M115.3734,730.43781a.9645.9645,0,1,1-.965-.965.965.965,0,0,1,.965.965"/>
    <path class="cls-8" d="M114.4089,731.48112a1.043,1.043,0,1,1,1.043-1.043,1.04518,1.04518,0,0,1-1.043,1.043m0-1.93a.8865.8865,0,1,0,.886.887.88812.88812,0,0,0-.886-.887"/>
    <path class="cls-8" d="M114.9683,748.45571a.965.965,0,1,1-.965-.966.96559.96559,0,0,1,.965.966"/>
    <path class="cls-8" d="M114.0032,749.49831a1.043,1.043,0,1,1,1.043-1.042,1.045,1.045,0,0,1-1.043,1.042m0-1.93a.887.887,0,1,0,.887.888.88834.88834,0,0,0-.887-.888"/>
    <path class="cls-8" d="M120.6855,748.94351l-.381-.226-.898-.535-.381-.227.226-.38a6.97374,6.97374,0,0,0,1.122-3.635,10.75562,10.75562,0,0,0-1.188-4.241l-.048-.111a11.94019,11.94019,0,0,1-1.3-4.834,8.37814,8.37814,0,0,1,1.383-4.475l.233-.378.378.233.889.545.377.232-.231.378a6.514,6.514,0,0,0-1.098,3.465,10.56963,10.56963,0,0,0,1.188,4.176l.021.048a12.38662,12.38662,0,0,1,1.327,4.963,8.87192,8.87192,0,0,1-1.392,4.621Z"/>
    <path class="cls-8" d="M120.713,749.05092l-1.795-1.068.266-.448a6.90046,6.90046,0,0,0,1.111-3.594,10.70044,10.70044,0,0,0-1.18-4.21l-.049-.111a12.01977,12.01977,0,0,1-1.307-4.866,8.47,8.47,0,0,1,1.395-4.515l.274-.445,1.777,1.093-.272.444a6.43579,6.43579,0,0,0-1.086,3.423,10.49531,10.49531,0,0,0,1.181,4.144l.021.049a12.45219,12.45219,0,0,1,1.334,4.995,8.9474,8.9474,0,0,1-1.403,4.661Zm-1.58-1.123,1.525.909.188-.315a8.7993,8.7993,0,0,0,1.38-4.58,12.28757,12.28757,0,0,0-1.319-4.929l-.022-.051a10.64391,10.64391,0,0,1-1.195-4.208,6.583,6.583,0,0,1,1.11-3.505l.19-.311-1.511-.928-.192.311a8.30484,8.30484,0,0,0-1.371,4.433,11.88816,11.88816,0,0,0,1.293,4.803l.048.111a10.82158,10.82158,0,0,1,1.195,4.273,7.05616,7.05616,0,0,1-1.133,3.674Z"/>
    <path class="cls-8" d="M121.2213,730.43781a.9645.9645,0,1,1-.965-.965.965.965,0,0,1,.965.965"/>
    <path class="cls-8" d="M120.2562,731.48112a1.043,1.043,0,1,1,1.044-1.043,1.04433,1.04433,0,0,1-1.044,1.043m0-1.93a.8865.8865,0,1,0,.887.887.88812.88812,0,0,0-.887-.887"/>
    <path class="cls-8" d="M120.8156,748.45571a.965.965,0,1,1-.965-.966.965.965,0,0,1,.965.966"/>
    <path class="cls-8" d="M119.8511,749.49831a1.043,1.043,0,1,1,1.043-1.042,1.045,1.045,0,0,1-1.043,1.042m0-1.93a.887.887,0,1,0,.886.888.88919.88919,0,0,0-.886-.888"/>
  </g>
  <g class="cls-2">
    <rect class="cls-53" x="193.183" y="523.71002" width="30.01601" height="30.01599"/>
  </g>
  <text class="cls-54" transform="translate(42.04736 551.65173)">+</text>
  <g class="cls-2">
    <rect class="cls-8" x="91.869" y="606.90802" width="37.13499" height="68.976"/>
  </g>
  <g class="cls-60">
    <path class="cls-50" d="M97.25009,631.91113h7.932l1.199-3.162a2.8117,2.8117,0,0,1-1.408-2.448,2.78153,2.78153,0,0,1,2.75-2.807,2.72174,2.72174,0,0,1,2.106,1.003,4.41051,4.41051,0,0,1,2.177-.331,4.53089,4.53089,0,0,1,.464.091,2.69715,2.69715,0,0,1,1.878-.761,2.81007,2.81007,0,0,1,.656,5.527c-.025.103-.054.205-.086.304l-.013.033-.011.031-.978,2.52h10.906a3.03781,3.03781,0,0,0,3.006-3.065v-18.873a3.04,3.04,0,0,0-3.004-3.065h-27.575a3.03806,3.03806,0,0,0-3.004,3.065v18.892a3.03921,3.03921,0,0,0,3.005,3.046m23.724-22.2a2.80755,2.80755,0,1,1-2.752,2.808,2.7809,2.7809,0,0,1,2.752-2.808m0,6.892a2.80755,2.80755,0,1,1-2.752,2.805,2.77894,2.77894,0,0,1,2.752-2.805m0,6.893a2.807,2.807,0,1,1-2.752,2.805,2.77639,2.77639,0,0,1,2.752-2.805m-6.627-13.785a2.80761,2.80761,0,1,1-2.749,2.808,2.78086,2.78086,0,0,1,2.749-2.808m.001,6.892a2.80759,2.80759,0,1,1-2.75,2.808,2.77683,2.77683,0,0,1,2.75-2.808m-6.625-6.892a2.80758,2.80758,0,1,1-2.75,2.808,2.77832,2.77832,0,0,1,2.75-2.808m.002,6.892a2.80755,2.80755,0,1,1-2.752,2.805,2.7802,2.7802,0,0,1,2.752-2.805m-6.624,12.506a2.80706,2.80706,0,1,1,2.751-2.808,2.77662,2.77662,0,0,1-2.751,2.808m0-6.892a2.80757,2.80757,0,1,1,2.751-2.809,2.77746,2.77746,0,0,1-2.751,2.809m-.001-12.506a2.80756,2.80756,0,1,1-2.751,2.808,2.78047,2.78047,0,0,1,2.751-2.808"/>
    <path class="cls-61" d="M126.2122,645.33221a2.78134,2.78134,0,0,0-3.664,1.538l-2.697,6.595c-.376-.16-.752-.321-1.129-.48l2.804-6.86a2.87608,2.87608,0,0,0-1.506-3.738,2.78166,2.78166,0,0,0-3.664,1.536l-2.804,6.86q-.5655-.2415-1.13-.482l3.884-9.496a2.88,2.88,0,0,0-1.507-3.738,2.781,2.781,0,0,0-3.664,1.538l-3.884,9.496q-.564-.24152-1.13-.482l7.443-18.201a2.87792,2.87792,0,0,0-1.507-3.738,2.77908,2.77908,0,0,0-3.663,1.537l-8.09,19.784c-.031.073-.054.147-.078.221a2.212,2.212,0,0,0-.153.299q-.594,1.458-1.189,2.911l-.348-6.715a2.80214,2.80214,0,1,0-5.595.303l1.023,19.722a2.89311,2.89311,0,0,0,.128.704,4.25215,4.25215,0,0,0,.615,1.584,20.695,20.695,0,0,0,20.337,8.657,5.00958,5.00958,0,0,0,3.291-2.668q2.913-7.12052,5.825-14.242a2.215,2.215,0,0,0,.086-.257c.047-.089.091-.177.13-.27l3.343-8.179A2.87892,2.87892,0,0,0,126.2122,645.33221Z"/>
  </g>
  <g class="cls-2">
    <rect class="cls-8" x="270.974" y="264.005" width="191.78198" height="508.26701"/>
    <polygon class="cls-62" points="270.974 730.041 270.974 772.273 431.735 772.273 452.422 751.444 431.168 730.041 270.974 730.041"/>
    <polygon class="cls-7" points="270.974 425.306 270.974 468.108 360.815 468.108 382.011 446.707 360.815 425.306 270.974 425.306"/>
    <polygon class="cls-63" points="270.974 374.476 270.974 417.278 349.166 417.278 370.367 395.877 349.166 374.476 270.974 374.476"/>
    <polygon class="cls-64" points="270.974 323.648 270.974 366.447 337.527 366.447 358.728 345.048 337.527 323.648 270.974 323.648"/>
    <polygon class="cls-65" points="270.974 272.818 270.974 315.617 325.935 315.617 347.134 294.219 325.935 272.818 270.974 272.818"/>
    <polygon class="cls-66" points="270.974 476.12 270.974 518.919 373.03 518.919 394.25 497.52 373.03 476.12 270.974 476.12"/>
    <polygon class="cls-67" points="270.974 526.931 270.974 569.735 384.656 569.735 405.888 548.334 384.656 526.931 270.974 526.931"/>
    <polygon class="cls-62" points="270.974 577.746 270.974 620.543 396.285 620.543 417.518 599.142 396.285 577.746 270.974 577.746"/>
    <polygon class="cls-62" points="270.974 628.555 270.974 671.353 407.911 671.353 429.155 649.958 407.911 628.555 270.974 628.555"/>
    <polygon class="cls-62" points="270.974 679.364 270.974 722.168 419.54 722.168 440.795 700.768 419.54 679.364 270.974 679.364"/>
  </g>
  <text class="cls-58" transform="translate(274.73389 303.13318)"><tspan xml:space="preserve"> A</tspan></text>
  <text class="cls-68" transform="translate(299.69531 293.14343)"><tspan class="cls-69">+</tspan><tspan x="8.88574" y="0">+</tspan></text>
  <text class="cls-68" transform="translate(317.5 293.14343)">+</text>
  <text class="cls-58" transform="translate(274.73389 353.83337)"><tspan xml:space="preserve"> A</tspan></text>
  <text class="cls-68" transform="translate(299.69531 343.84314)">+</text>
  <text class="cls-68" transform="translate(308.59766 343.84314)">+</text>
  <text class="cls-58" transform="translate(274.73389 404.53357)"><tspan xml:space="preserve"> A</tspan></text>
  <text class="cls-68" transform="translate(299.69531 394.54333)">+</text>
  <text class="cls-58" transform="translate(274.73389 460.61365)"> </text>
  <text class="cls-58" transform="translate(281.51367 455.24353)">A</text>
  <text class="cls-58" transform="translate(274.73389 505.94373)"><tspan xml:space="preserve"> B</tspan></text>
  <text class="cls-58" transform="translate(274.73389 556.64392)"><tspan xml:space="preserve"> C</tspan></text>
  <text class="cls-58" transform="translate(274.73389 607.34412)"><tspan xml:space="preserve"> D</tspan></text>
  <text class="cls-58" transform="translate(274.73389 658.04333)"><tspan xml:space="preserve"> E</tspan></text>
  <text class="cls-58" transform="translate(274.73389 708.74353)"><tspan xml:space="preserve"> F</tspan></text>
  <text class="cls-58" transform="translate(274.73389 759.44373)"><tspan xml:space="preserve"> G</tspan></text>
  <text class="cls-51" transform="translate(522.33203 817.58337)">811/2013</text>
  <g id="rating">
    <polyline id="ratingArrow" class="cls-50" points="465.93 294.21 492.72 267.17 559.45 266.88 559.45 321.76 493.2 321.76 465.93 294.21"/>
    <text id="ratingLetter" class="cls-70" transform="translate(485.76953 305.55017)">A</text>
    <text id="ratingPlusses" class="cls-71" transform="translate(511.42969 292.78992)">+++</text>
  </g>
  <g id="boilerRating">
    <polyline id="boilerRatingArrow" class="cls-50" points="173 304.53 192.33 285 240.89 285 240.89 324.4 192.67 324.4 173 304.53"/>
    <text id="boilerRatingLetter" class="cls-72" transform="translate(187.16992 311.76013)">A</text>
    <text id="boilerRatingPlusses" class="cls-73" transform="translate(205.56006 303.82019)">+++</text>
  </g>
  <path id="solarCollector" class="cls-50" d="M217.11572,447.55017a5.20676,5.20676,0,0,1,.41309.98438.52782.52782,0,0,1-.11426.5625,1.34042,1.34042,0,0,1-.76465.24609q-.55371.05274-1.53808.05273-.82617,0-1.30078-.03515a3.80637,3.80637,0,0,1-.74708-.11426.8162.8162,0,0,1-.3955-.21973,1.27207,1.27207,0,0,1-.21094-.35156l-4.27148-8.209-4.25391,8.209a1.65757,1.65757,0,0,1-.22852.35156.8162.8162,0,0,1-.3955.21973,3.83929,3.83929,0,0,1-.75586.11426q-.4834.03516-1.27442.03515-.91405,0-1.415-.05273a1.064,1.064,0,0,1-.67675-.24609.56462.56462,0,0,1-.07032-.5625,5.26086,5.26086,0,0,1,.43946-.98438l5.44921-9.93164-5.0625-9.334a6.88168,6.88168,0,0,1-.43066-1.01075.50992.50992,0,0,1,.08789-.5625,1.28764,1.28764,0,0,1,.74707-.22851q.54492-.044,1.54688-.04395.82617,0,1.30957.03516a4.0208,4.0208,0,0,1,.76465.11426.7637.7637,0,0,1,.3955.21972,1.91882,1.91882,0,0,1,.21973.35157l3.99023,7.52343,3.88477-7.52343a1.91828,1.91828,0,0,1,.21973-.35157.74724.74724,0,0,1,.36914-.21972,3.36316,3.36316,0,0,1,.70312-.11426q.44825-.03516,1.23926-.03516.87891,0,1.38867.04395a1.1337,1.1337,0,0,1,.70313.2373.5503.5503,0,0,1,.09668.5625,6.23286,6.23286,0,0,1-.39551,1.002l-5.0625,9.28125Z"/>
  <path id="hotWaterStorageTank" class="cls-50" d="M217.11572,548.89a5.207,5.207,0,0,1,.41309.98438.52782.52782,0,0,1-.11426.5625,1.34027,1.34027,0,0,1-.76465.24609q-.55371.05274-1.53808.05274-.82617,0-1.30078-.03516a3.80561,3.80561,0,0,1-.74708-.11426.81619.81619,0,0,1-.3955-.21972,1.27213,1.27213,0,0,1-.21094-.35157l-4.27148-8.209-4.25391,8.209a1.65766,1.65766,0,0,1-.22852.35157.81619.81619,0,0,1-.3955.21972,3.83854,3.83854,0,0,1-.75586.11426q-.4834.03516-1.27442.03516-.91405,0-1.415-.05274a1.06391,1.06391,0,0,1-.67675-.24609.56462.56462,0,0,1-.07032-.5625,5.26114,5.26114,0,0,1,.43946-.98438l5.44921-9.93164-5.0625-9.334a6.88211,6.88211,0,0,1-.43066-1.01074.50991.50991,0,0,1,.08789-.5625,1.28763,1.28763,0,0,1,.74707-.22852q.54492-.044,1.54688-.04394.82617,0,1.30957.03515a4.02161,4.02161,0,0,1,.76465.11426.7637.7637,0,0,1,.3955.21973,1.91871,1.91871,0,0,1,.21973.35156l3.99023,7.52344,3.88477-7.52344a1.91817,1.91817,0,0,1,.21973-.35156.74725.74725,0,0,1,.36914-.21973,3.36383,3.36383,0,0,1,.70312-.11426q.44825-.03515,1.23926-.03515.87891,0,1.38867.04394a1.13369,1.13369,0,0,1,.70313.23731.55029.55029,0,0,1,.09668.5625,6.23318,6.23318,0,0,1-.39551,1.00195l-5.0625,9.28125Z"/>
  <path id="temperatureControl" class="cls-50" d="M217.11572,650.22986a5.20673,5.20673,0,0,1,.41309.98437.52781.52781,0,0,1-.11426.5625,1.34034,1.34034,0,0,1-.76465.2461q-.55371.05273-1.53808.05273-.82617,0-1.30078-.03515a3.80637,3.80637,0,0,1-.74708-.11426.81628.81628,0,0,1-.3955-.21973,1.27222,1.27222,0,0,1-.21094-.35156l-4.27148-8.209-4.25391,8.209a1.65783,1.65783,0,0,1-.22852.35156.81628.81628,0,0,1-.3955.21973,3.83929,3.83929,0,0,1-.75586.11426q-.4834.03515-1.27442.03515-.91405,0-1.415-.05273a1.064,1.064,0,0,1-.67675-.2461.56461.56461,0,0,1-.07032-.5625,5.26082,5.26082,0,0,1,.43946-.98437l5.44921-9.93164-5.0625-9.334a6.88166,6.88166,0,0,1-.43066-1.01074.50992.50992,0,0,1,.08789-.5625,1.28756,1.28756,0,0,1,.74707-.22851q.54492-.04395,1.54688-.04395.82617,0,1.30957.03516a4.02092,4.02092,0,0,1,.76465.11425.76377.76377,0,0,1,.3955.21973,1.91905,1.91905,0,0,1,.21973.35156l3.99023,7.52344,3.88477-7.52344a1.91851,1.91851,0,0,1,.21973-.35156.74732.74732,0,0,1,.36914-.21973,3.36326,3.36326,0,0,1,.70312-.11425q.44825-.03516,1.23926-.03516.87891,0,1.38867.04395a1.13364,1.13364,0,0,1,.70313.2373.5503.5503,0,0,1,.09668.5625,6.23282,6.23282,0,0,1-.39551,1.002l-5.0625,9.28125Z"/>  
  <path id="supplementarySpaceHeater" class="cls-50" d="M217.11572,750.85974a5.20676,5.20676,0,0,1,.41309.98438.52782.52782,0,0,1-.11426.5625,1.34042,1.34042,0,0,1-.76465.24609q-.55371.05274-1.53808.05273-.82617,0-1.30078-.03515a3.80637,3.80637,0,0,1-.74708-.11426.8162.8162,0,0,1-.3955-.21973,1.27207,1.27207,0,0,1-.21094-.35156l-4.27148-8.209-4.25391,8.209a1.65757,1.65757,0,0,1-.22852.35156.8162.8162,0,0,1-.3955.21973,3.83929,3.83929,0,0,1-.75586.11426q-.4834.03516-1.27442.03515-.91405,0-1.415-.05273a1.064,1.064,0,0,1-.67675-.24609.56462.56462,0,0,1-.07032-.5625,5.26086,5.26086,0,0,1,.43946-.98438l5.44921-9.93164-5.0625-9.334a6.88168,6.88168,0,0,1-.43066-1.01075.50992.50992,0,0,1,.08789-.5625,1.28771,1.28771,0,0,1,.74707-.22851q.54492-.044,1.54688-.04395.82617,0,1.30957.03516a4.0208,4.0208,0,0,1,.76465.11426.7637.7637,0,0,1,.3955.21972,1.91882,1.91882,0,0,1,.21973.35157l3.99023,7.52343,3.88477-7.52343a1.91828,1.91828,0,0,1,.21973-.35157.74724.74724,0,0,1,.36914-.21972,3.36316,3.36316,0,0,1,.70312-.11426q.44825-.03516,1.23926-.03516.87891,0,1.38867.04395a1.13376,1.13376,0,0,1,.70313.2373.5503.5503,0,0,1,.09668.5625,6.23286,6.23286,0,0,1-.39551,1.002l-5.0625,9.28125Z"/>    
  <text class="cls-74" transform="translate(45.84966 184.57744)"><tspan class="cls-75" xml:space="preserve">                </tspan><tspan x="117.9751" y="0"> </tspan></text>
  <text id="supplierLine2" class="cls-76" transform="translate(28.35003 184.6799)">X</text>
  <text id="supplierLine1" class="cls-76" transform="translate(28.35003 162.29709)">X</text>
  <text id="modelLine2" class="cls-76" transform="translate(306.13957 184.6799)">X</text>
  <text id="modelLine1" class="cls-76" transform="translate(306.13957 162.29709)">X</text>
</svg>
