<svg id="Layer_1" data-name="Layer 1" xmlns="http://www.w3.org/2000/svg" xmlns:xlink="http://www.w3.org/1999/xlink" width="110mm" height="220mm" viewBox="0 0 311.81 623.62" data-rating-increment="23.9357">
  <defs>
    <style>
      .spinClassA #spinClassALetter,
      .spinClassB #spinClassBLetter,
      .spinClassC #spinClassCLetter,
      .spinClassD #spinClassDLetter,
      .spinClassE #spinClassELetter,
      .spinClassF #spinClassFLetter,
      .spinClassG #spinClassGLetter {
        font-size: 16.5px;
        font-weight: 700;
      }

      .cls-1, .cls-10, .cls-16, .cls-22, .cls-3, .cls-4 {
        fill: none;
      }

      .cls-2 {
        clip-path: url(#clip-path);
      }

      .cls-10, .cls-3, .cls-4 {
        stroke: #00aeef;
      }

      .cls-3 {
        stroke-width: 5px;
      }

      .cls-4 {
        stroke-width: 2px;
      }

      .cls-5 {
        fill: #034ea2;
      }

      .cls-6 {
        fill: #00aeef;
      }

      .cls-7 {
        fill: #fff200;
      }

      .cls-19, .cls-30, .cls-31, .cls-34, .cls-39, .cls-40, .cls-8 {
        fill: #fff;
      }

      .cls-9 {
        clip-path: url(#clip-path-2);
      }

      .cls-11 {
        clip-path: url(#clip-path-4);
      }

      .cls-12, .cls-13 {
        fill: #00c0f3;
      }

      .cls-12 {
        fill-rule: evenodd;
      }

      .cls-14 {
        clip-path: url(#clip-path-6);
      }

      .cls-15 {
        fill: #6dcff6;
      }

      .cls-16 {
        stroke: #fff;
        stroke-width: 1.577px;
      }

      .cls-17 {
        fill: #44c8f5;
      }

      .cls-18 {
        clip-path: url(#clip-path-8);
      }

      .cls-19 {
        font-size: 11.4912px;
      }

      .cls-19, .cls-34 {
        font-family: MyriadPro-Bold, Myriad Pro;
      }

      .cls-19, .cls-30, .cls-31, .cls-34, .cls-35, .cls-37, .cls-39, .cls-41, .cls-42, .cls-43 {
        font-weight: 700;
      }

      .cls-20 {
        clip-path: url(#clip-path-10);
      }

      .cls-21 {
        clip-path: url(#clip-path-12);
      }

      .cls-22 {
        stroke: #a3a5a8;
      }

      .cls-23, .cls-35, .cls-36, .cls-37, .cls-38, .cls-41, .cls-42, .cls-43 {
        fill: #231f20;
      }

      .cls-24 {
        fill: #00a651;
      }

      .cls-25 {
        fill: #50b848;
      }

      .cls-26 {
        fill: #bfd730;
      }

      .cls-27 {
        fill: #fdb913;
      }

      .cls-28 {
        fill: #f37021;
      }

      .cls-29 {
        fill: #ed1c24;
      }

      .cls-30 {
        font-size: 19.4158px;
      }

      .cls-30, .cls-31, .cls-35, .cls-37, .cls-39, .cls-41, .cls-42, .cls-43 {
        font-family: Calibri-Bold, Calibri;
      }

      .cls-31 {
        font-size: 13.2845px;
      }

      .cls-32 {
        letter-spacing: 0.01em;
      }

      .cls-33 {
        clip-path: url(#clip-path-14);
      }

      .cls-34 {
        font-size: 18.3939px;
      }

      .cls-35, .cls-36 {
        font-size: 12px;
      }

      .cls-36, .cls-38, .cls-40 {
        font-family: Calibri;
      }

      .cls-37 {
        font-size: 24px;
      }

      .cls-38 {
        font-size: 16px;
      }

      .cls-39 {
        font-size: 29px;
      }

      .cls-40 {
        font-size: 18px;
      }

      .cls-41 {
        font-size: 37px;
      }

      .cls-42 {
        font-size: 16.5px;
      }

      .cls-43 {
        font-size: 20.4px;
      }
    </style>
    <clipPath id="clip-path">
      <rect class="cls-1" y="-0.00201" width="311.811" height="623.62201"/>
    </clipPath>
    <clipPath id="clip-path-2">
      <rect class="cls-1" x="25.512" y="25.508" width="260.78698" height="51.02502"/>
    </clipPath>
    <clipPath id="clip-path-4">
      <rect class="cls-1" x="32.159" y="467.85599" width="43.159" height="43.158"/>
    </clipPath>
    <clipPath id="clip-path-6">
      <rect class="cls-1" x="234.549" y="464.88" width="45.50401" height="32.98399"/>
    </clipPath>
    <clipPath id="clip-path-8">
      <rect class="cls-1" x="100.772" y="466.72198" width="43.936" height="48.98301"/>
    </clipPath>
    <clipPath id="clip-path-10">
      <rect class="cls-1" x="167.244" y="465.588" width="47.33701" height="44.901"/>
    </clipPath>
    <clipPath id="clip-path-12">
      <rect class="cls-1" x="234.21201" y="529.014" width="43.936" height="25.866"/>
    </clipPath>
    <clipPath id="clip-path-14">
      <rect class="cls-1" x="25.132" y="155.19501" width="197.24401" height="168.02298"/>
    </clipPath>
  </defs>
  <title>washing-machines</title>
  <g class="cls-2">
    <path class="cls-3" d="M26.5945,16.67108s-9.921,0-9.921,9.921v570.433s0,9.922,9.921,9.922h258.622s9.921,0,9.921-9.922V26.5921s0-9.921-9.921-9.921Z"/>
    <path class="cls-4" d="M36.4331,461.6279s-9.921,0-9.921,9.921v97.213s0,9.921,9.921,9.921h39.132s9.921,0,9.921-9.921v-97.213s0-9.921-9.921-9.921Z"/>
    <path class="cls-4" d="M170.1143,461.6279s-9.921,0-9.921,9.921v97.213s0,9.921,9.921,9.921h39.132s9.921,0,9.921-9.921v-97.213s0-9.921-9.921-9.921Z"/>
    <path class="cls-4" d="M103.2737,461.6279s-9.921,0-9.921,9.921v97.213s0,9.921,9.921,9.921h39.132s9.921,0,9.921-9.921v-97.213s0-9.921-9.921-9.921Z"/>
    <path class="cls-4" d="M236.955,461.6279s-9.921,0-9.921,9.921v34.851s0,9.921,9.921,9.921h39.132s9.921,0,9.921-9.921v-34.851s0-9.921-9.921-9.921Z"/>
    <rect class="cls-5" x="25.532" y="25.646" width="76.082" height="50.815"/>
    <rect class="cls-6" x="104.131" y="25.646" width="182.16801" height="50.815"/>
    <polygon class="cls-7" points="79.294 42.587 80.929 41.399 78.908 41.399 78.283 39.476 77.658 41.399 75.636 41.399 77.272 42.587 76.647 44.51 78.283 43.321 79.918 44.51 79.294 42.587"/>
    <polygon class="cls-7" points="72.927 36.49 74.562 35.302 72.541 35.302 71.916 33.379 71.291 35.302 69.27 35.302 70.905 36.49 70.28 38.413 71.916 37.224 73.552 38.413 72.927 36.49"/>
    <polygon class="cls-7" points="64.713 34.309 66.349 33.121 64.327 33.121 63.702 31.198 63.077 33.121 61.055 33.121 62.691 34.309 62.067 36.232 63.702 35.044 65.338 36.232 64.713 34.309"/>
    <polygon class="cls-7" points="56.064 36.49 57.699 35.302 55.678 35.302 55.053 33.379 54.428 35.302 52.406 35.302 54.042 36.49 53.417 38.413 55.053 37.224 56.689 38.413 56.064 36.49"/>
    <polygon class="cls-7" points="49.885 42.886 51.521 41.698 49.499 41.698 48.874 39.775 48.249 41.698 46.227 41.698 47.863 42.886 47.239 44.809 48.874 43.621 50.51 44.809 49.885 42.886"/>
    <polygon class="cls-7" points="47.912 51.29 49.548 50.102 47.526 50.102 46.901 48.179 46.276 50.102 44.254 50.102 45.89 51.29 45.265 53.213 46.901 52.024 48.537 53.213 47.912 51.29"/>
    <polygon class="cls-7" points="49.947 59.804 51.583 58.616 49.561 58.616 48.936 56.693 48.311 58.616 46.289 58.616 47.925 59.804 47.301 61.727 48.936 60.539 50.572 61.727 49.947 59.804"/>
    <polygon class="cls-7" points="56.064 65.855 57.699 64.666 55.678 64.666 55.053 62.744 54.428 64.666 52.406 64.666 54.042 65.855 53.417 67.778 55.053 66.589 56.689 67.777 56.064 65.855"/>
    <polygon class="cls-7" points="64.713 68.109 66.348 66.92 64.326 66.92 63.702 64.998 63.077 66.92 61.055 66.92 62.691 68.109 62.066 70.032 63.702 68.843 65.338 70.032 64.713 68.109"/>
    <polygon class="cls-7" points="73.129 65.824 74.765 64.635 72.742 64.635 72.118 62.713 71.493 64.635 69.471 64.635 71.107 65.824 70.483 67.747 72.118 66.559 73.753 67.747 73.129 65.824"/>
    <polygon class="cls-7" points="79.251 59.75 80.886 58.562 78.865 58.562 78.24 56.639 77.615 58.562 75.594 58.562 77.229 59.75 76.604 61.673 78.24 60.484 79.876 61.673 79.251 59.75"/>
    <polygon class="cls-7" points="81.504 51.172 83.139 49.984 81.118 49.984 80.493 48.061 79.869 49.984 77.846 49.984 79.482 51.172 78.857 53.095 80.493 51.906 82.128 53.095 81.504 51.172"/>
    <polygon class="cls-8" points="126.197 46.386 118.035 46.386 118.035 52.748 127.161 52.748 127.161 55.994 114.083 55.994 114.083 34.336 126.679 34.336 126.679 37.582 118.035 37.582 118.035 43.173 126.197 43.173 126.197 46.386"/>
  </g>
  <g class="cls-9">
    <path class="cls-8" d="M132.2375,55.9939v-21.658h4.499l5.591,9.287a59.51523,59.51523,0,0,1,3.695,7.262h.064c-.257-2.892-.353-5.68805-.353-8.997v-7.552h3.663v21.658h-4.081l-5.655-9.543a71.48873,71.48873,0,0,1-3.888-7.455l-.097.032c.161,2.795.193,5.655.193,9.222v7.744Z"/>
    <polygon class="cls-8" points="167.68 46.386 159.518 46.386 159.518 52.748 168.643 52.748 168.643 55.994 155.565 55.994 155.565 34.336 168.161 34.336 168.161 37.582 159.518 37.582 159.518 43.173 167.68 43.173 167.68 46.386"/>
    <path class="cls-8" d="M173.71959,34.62518a37.54578,37.54578,0,0,1,5.977-.45c3.117,0,5.238.515,6.684,1.736a5.48013,5.48013,0,0,1,1.864,4.338,5.77678,5.77678,0,0,1-3.92,5.43v.096c1.542.579,2.473,2.089,3.02,4.178a43.27412,43.27412,0,0,0,1.703,6.041h-4.081a30.58216,30.58216,0,0,1-1.446-5.11c-.61-2.827-1.639-3.727-3.888-3.791h-1.992v8.901h-3.921Zm3.921,9.576h2.346c2.666,0,4.338-1.41394,4.338-3.56695,0-2.378-1.672-3.47-4.242-3.47a11.31682,11.31682,0,0,0-2.442.193Z"/>
    <path class="cls-8" d="M210.9615,54.99768a21.45709,21.45709,0,0,1-6.973,1.221c-3.663,0-6.427-.932-8.483-2.892a10.72671,10.72671,0,0,1-3.02-7.969c0-6.844,4.884-11.246,12.05-11.246a14.37,14.37,0,0,1,5.751,1.028l-.868,3.181a11.66194,11.66194,0,0,0-4.916-.932c-4.627,0-7.872,2.732-7.872,7.776,0,4.917,3.02,7.841,7.519,7.841a7.57459,7.57459,0,0,0,2.988-.45v-5.398h-3.824v-3.117h7.648Z"/>
    <path class="cls-8" d="M113.6934,64.8288c.037,1.012.89,1.449,1.855,1.449a4.83772,4.83772,0,0,0,1.669-.253l.223.977a6.01689,6.01689,0,0,1-2.103.357c-1.954,0-3.104-1.127-3.104-2.841a2.85917,2.85917,0,0,1,2.943-3.013,2.49307,2.49307,0,0,1,2.597,2.726,3.22788,3.22788,0,0,1-.049.598Zm2.646-.989a1.23014,1.23014,0,0,0-1.249-1.368,1.42857,1.42857,0,0,0-1.397,1.368Z"/>
    <polygon class="cls-8" points="120.567 61.632 120.567 63.771 122.892 63.771 122.892 61.632 124.413 61.632 124.413 67.232 122.892 67.232 122.892 64.875 120.567 64.875 120.567 67.232 119.046 67.232 119.046 61.632 120.567 61.632"/>
    <path class="cls-8" d="M127.1693,64.8288c.037,1.012.89,1.449,1.855,1.449a4.82965,4.82965,0,0,0,1.669-.253l.223.977a6.01514,6.01514,0,0,1-2.102.357c-1.954,0-3.104-1.127-3.104-2.841a2.85859,2.85859,0,0,1,2.943-3.013,2.49363,2.49363,0,0,1,2.597,2.726,3.20883,3.20883,0,0,1-.05.598Zm2.646-.989a1.22956,1.22956,0,0,0-1.249-1.368,1.42858,1.42858,0,0,0-1.397,1.368Z"/>
    <path class="cls-8" d="M132.53479,63.49432c0-.736-.025-1.333-.049-1.863h1.335l.074.863h.025a2.40057,2.40057,0,0,1,2.065-.989,2.61274,2.61274,0,0,1,2.535,2.852,2.747,2.747,0,0,1-2.745,3.001,2.03428,2.03428,0,0,1-1.694-.747h-.025v2.897h-1.521Zm1.521,1.392a1.35111,1.35111,0,0,0,1.385,1.38c.964,0,1.533-.74695,1.533-1.851,0-.99005-.519-1.795-1.496-1.795a1.39567,1.39567,0,0,0-1.36,1.047,1.20207,1.20207,0,0,0-.062.357Z"/>
    <polygon class="cls-8" points="143.799 61.632 143.799 62.747 141.338 62.747 141.338 67.232 139.817 67.232 139.817 61.632 143.799 61.632"/>
    <path class="cls-8" d="M146.2215,61.63177v2.013c0,.885-.037,1.483-.087,2.265h.038c.321-.656.507-1.07.816-1.656l1.484-2.622h1.842v5.6h-1.447v-2.001c0-.89605.037-1.31.099-2.369h-.049c-.297.668-.495,1.07-.792,1.611-.47.827-1.014,1.83905-1.533,2.759h-1.818v-5.6Z"/>
    <path class="cls-8" d="M156.94128,67.23181h-1.509v-2.219h-.569a1.22458,1.22458,0,0,0-.927.368,3.56671,3.56671,0,0,0-.742,1.39105,4.00253,4.00253,0,0,1-.235.46h-1.632a2.88412,2.88412,0,0,0,.371-.621,4.69753,4.69753,0,0,1,.902-1.61,1.45775,1.45775,0,0,1,.718-.379v-.035c-.718-.069-1.571-.505-1.571-1.379a1.41136,1.41136,0,0,1,.927-1.3,5.25585,5.25585,0,0,1,2.128-.356,17.40325,17.40325,0,0,1,2.139.126Zm-1.509-4.726a4.35249,4.35249,0,0,0-.754-.057c-.668,0-1.348.218-1.348.839,0,.586.754.839,1.348.839.358,0,.556,0,.754-.011Z"/>
    <path class="cls-8" d="M161.8734,65.13928a.88282.88282,0,0,1-.927-.909.89253.89253,0,0,1,.939-.908.909.909,0,1,1,0,1.81695Z"/>
    <path class="cls-8" d="M167.86929,64.2193c-.717-.184-1.113-.621-1.113-1.173,0-.759.816-1.541,2.535-1.541a3.81861,3.81861,0,0,1,1.93.425l-.285.909a3.42741,3.42741,0,0,0-1.459-.334c-.73,0-1.188.277-1.188.667,0,.449.607.63306,1.509.64405h.656v.943h-.668c-.965.012-1.694.196-1.694.736,0,.529.655.805,1.397.805a4.304,4.304,0,0,0,1.694-.391l.223.94306a4.91277,4.91277,0,0,1-2.288.506c-1.274,0-2.646-.448-2.646-1.713a1.52822,1.52822,0,0,1,1.397-1.38Z"/>
    <path class="cls-8" d="M173.4079,61.63177l.965,2.841c.173.494.284.943.433,1.425h.049a9.55448,9.55448,0,0,0,1.261-3.783v-.483h1.422a2.26136,2.26136,0,0,1,.038.425c0,1.588-1.089,3.462-2.189,5.175h-1.472l-2.139-5.6Z"/>
    <path class="cls-8" d="M179.6514,64.2193c-.717-.184-1.113-.621-1.113-1.173,0-.759.816-1.541,2.535-1.541a3.81865,3.81865,0,0,1,1.93.425l-.285.909a3.42737,3.42737,0,0,0-1.459-.334c-.73,0-1.188.277-1.188.667,0,.449.607.63306,1.509.64405h.656v.943h-.668c-.965.012-1.694.196-1.694.736,0,.529.655.805,1.397.805a4.30394,4.30394,0,0,0,1.694-.391l.223.94306a4.91281,4.91281,0,0,1-2.288.506c-1.274,0-2.646-.448-2.646-1.713a1.52823,1.52823,0,0,1,1.397-1.38Z"/>
    <path class="cls-8" d="M185.73421,66.69183v.793a14.13911,14.13911,0,0,0,.087,2.024h-1.472a9.67622,9.67622,0,0,1-.136-2.001v-2.564a3.1471,3.1471,0,0,1,1.026-2.702,3.007,3.007,0,0,1,2.053-.737,2.71758,2.71758,0,0,1,2.881,2.876,2.77343,2.77343,0,0,1-2.782,2.978,2.01279,2.01279,0,0,1-1.632-.667Zm0-1.679a1.76094,1.76094,0,0,0,.037.368,1.40381,1.40381,0,0,0,1.335.886c.965,0,1.521-.794,1.521-1.852,0-.989-.531-1.748-1.434-1.748-.767,0-1.459.621-1.459,1.909Z"/>
    <path class="cls-8" d="M192.74409,69.50861a11.83457,11.83457,0,0,0-.21-3.231,15.11521,15.11521,0,0,0-2.102-4.646h1.706a13.00042,13.00042,0,0,1,1.608,4.071h.05a8.7037,8.7037,0,0,0,1.137-3.622c0-.218-.012-.334-.012-.449h1.447a2.21377,2.21377,0,0,1,.024.415,9.52174,9.52174,0,0,1-2.127,4.932.45206.45206,0,0,0-.074.276c.025.564.025,1.483.037,2.254Z"/>
    <path class="cls-8" d="M198.44341,64.2193c-.717-.184-1.113-.621-1.113-1.173,0-.759.816-1.541,2.535-1.541a3.812,3.812,0,0,1,1.929.425l-.284.909a3.43118,3.43118,0,0,0-1.459-.334c-.73,0-1.188.277-1.188.667,0,.449.607.63306,1.509.64405h.656v.943h-.668c-.965.012-1.694.196-1.694.736,0,.529.655.805,1.397.805a4.304,4.304,0,0,0,1.694-.391l.223.94306a4.91848,4.91848,0,0,1-2.288.506c-1.274,0-2.646-.448-2.646-1.713a1.52822,1.52822,0,0,1,1.397-1.38Z"/>
    <path class="cls-8" d="M204.57629,65.6568c0,.46.148.644.569.621l-.087.989a2.01546,2.01546,0,0,1-.655.092c-.816,0-1.36-.322-1.36-1.564v-4.163h1.533Z"/>
    <path class="cls-8" d="M211.84679,61.63135c-.074.76-.173,2.484-.173,3.818,0,.633.21.851.581.84l-.099,1a1.9157,1.9157,0,0,1-.531.069,1.11716,1.11716,0,0,1-1.175-1.092h-.037a2.24738,2.24738,0,0,1-1.991,1.092,2.55146,2.55146,0,0,1-2.486-2.817,2.86407,2.86407,0,0,1,2.721-3.036,1.86878,1.86878,0,0,1,1.731.977h.05a8.53,8.53,0,0,1,.135-.851Zm-4.365,2.864c0,.943.519,1.736,1.348,1.736a1.50983,1.50983,0,0,0,1.335-1.207,3.65854,3.65854,0,0,0,.05-.656,2.27978,2.27978,0,0,0-.038-.529,1.37883,1.37883,0,0,0-1.273-1.241c-.853,0-1.422.839-1.422,1.885Z"/>
    <path class="cls-8" d="M219.1864,38.9328a11.026,11.026,0,1,1,11.027,11.025,11.02617,11.02617,0,0,1-11.027-11.025"/>
    <path class="cls-6" d="M229.4613,43.06561v-3.801l-2.882-5.316h1.894l1.096,2.34c.311.676.541,1.19.785,1.812h.027c.23-.581.487-1.149.798-1.812l1.095-2.34h1.881l-3.03,5.275v3.842Z"/>
    <path class="cls-8" d="M244.55409,38.9328a11.026,11.026,0,1,1,11.026,11.025,11.026,11.026,0,0,1-11.026-11.025"/>
    <path class="cls-8" d="M219.1864,63.38147a11.026,11.026,0,1,1,11.027,11.026,11.0268,11.0268,0,0,1-11.027-11.026"/>
    <rect class="cls-6" x="226.01199" y="58.39703" width="1.664" height="9.11798"/>
    <polygon class="cls-6" points="234.683 63.47 231.247 63.47 231.247 66.148 235.09 66.148 235.09 67.515 229.584 67.515 229.584 58.397 234.886 58.397 234.886 59.764 231.247 59.764 231.247 62.117 234.683 62.117 234.683 63.47"/>
    <path class="cls-8" d="M244.55409,63.38147a11.026,11.026,0,1,1,11.026,11.026,11.02658,11.02658,0,0,1-11.026-11.026"/>
    <rect class="cls-6" x="247.909" y="33.94897" width="1.664" height="9.117"/>
    <path class="cls-6" d="M253.2932,33.94818h1.664v5.911c0,2.516-1.218,3.355-3.03,3.355a4.43577,4.43577,0,0,1-1.393-.216l.202-1.339a3.651,3.651,0,0,0,1.029.162c.947,0,1.528-.43305,1.528-2.016Z"/>
    <path class="cls-6" d="M258.61008,40.48193l-.785,2.584h-1.717l2.922-9.118h2.124l2.962,9.118h-1.786l-.825-2.584Zm2.611-1.258-.717-2.246c-.176-.554-.325-1.176-.46-1.704h-.027c-.135.52795-.27,1.163-.433,1.704l-.704,2.246Z"/>
    <rect class="cls-6" x="250.561" y="58.39801" width="1.664" height="9.117"/>
    <path class="cls-6" d="M255.9586,64.93176l-.785,2.58295h-1.717l2.922-9.11694h2.123l2.963,9.11694h-1.786l-.825-2.58295Zm2.611-1.258-.717-2.246c-.176-.555-.325-1.177-.46-1.704h-.027c-.135.527-.271,1.163-.433,1.704l-.704,2.246Z"/>
  </g>
  <g class="cls-2">
    <line class="cls-10" x1="24.8031" y1="126.63971" x2="287.00809" y2="126.63971"/>
    <rect class="cls-8" x="32.159" y="467.85599" width="43.158" height="43.158"/>
  </g>
  <g class="cls-11">
    <path class="cls-12" d="M37.7807,490.115l20.905.115v-.345l1.723.058c5.697,1.806,8.908,2.842,9.477,9.304l.287,6.145h-6.95v-5.111l-.401-.346-.517-.803-.862-.459-.747-.345-.861-.115h-.69v-.345l-21.364.173Z"/>
    <path class="cls-13" d="M37.7807,490.115l20.905.115v-.345l1.723.058c5.697,1.806,8.908,2.842,9.477,9.304l.287,6.145h-6.95v-5.111l-.401-.346-.517-.803-.862-.459-.747-.345-.861-.115h-.69v-.345l-21.364.173Z"/>
    <rect class="cls-13" x="44.54211" y="478.14179" width="17.05569" height="2.12552" transform="translate(-2.25495 0.2551) rotate(-0.26968)"/>
    <path class="cls-12" d="M47.2528,479.204a2.81849,2.81849,0,0,0-2.798-2.843,2.78861,2.78861,0,0,0-2.796,2.843,2.81737,2.81737,0,0,0,2.796,2.843,2.84843,2.84843,0,0,0,2.798-2.843"/>
    <path class="cls-12" d="M64.4817,479.204a2.81893,2.81893,0,0,0-2.797-2.843,2.78882,2.78882,0,0,0-2.797,2.843,2.81757,2.81757,0,0,0,2.797,2.843,2.84891,2.84891,0,0,0,2.797-2.843"/>
    <path class="cls-12" d="M56.6031,479.204a3.54065,3.54065,0,0,0-3.561-3.56,3.4928,3.4928,0,0,0-3.503,3.56,3.52929,3.52929,0,0,0,3.503,3.561,3.578,3.578,0,0,0,3.561-3.561"/>
    <path class="cls-13" d="M56.6016,479.204a3.54106,3.54106,0,0,0-3.56-3.56,3.49363,3.49363,0,0,0-3.504,3.56,3.53013,3.53013,0,0,0,3.504,3.561,3.57846,3.57846,0,0,0,3.56-3.561"/>
    <rect class="cls-13" x="51.836" y="479.25999" width="2.468" height="9.131"/>
    <path class="cls-12" d="M60.6234,493.58519a7.56066,7.56066,0,1,0-7.579,7.878,7.70642,7.70642,0,0,0,7.579-7.878"/>
  </g>
  <g class="cls-2">
    <rect class="cls-8" x="234.549" y="464.88" width="45.50401" height="32.98399"/>
  </g>
  <g class="cls-14">
    <path class="cls-15" d="M257.18781,477.6852c-.002.078-.006.155-.006.233a8.68,8.68,0,1,0,17.36,0c0-.078-.004-.155-.006-.233Z"/>
    <path class="cls-6" d="M239.7438,483.11249q-1.587-1.4145-3.174-2.831h-2.263v-4.523h2.263l3.174-2.829,1.313-1.171v12.525Z"/>
    <path class="cls-16" d="M239.7438,483.11249q-1.587-1.4145-3.174-2.831h-2.263v-4.523h2.263l3.174-2.829,1.313-1.171v12.525Z"/>
    <path class="cls-17" d="M247.7382,487.5638a.90174.90174,0,0,1-.228-1.254,15.14622,15.14622,0,0,0-.027-16.575.90063.90063,0,1,1,1.477-1.031,16.94348,16.94348,0,0,1,.032,18.632.90189.90189,0,0,1-1.254.228m-2.921-2.469a.89939.89939,0,0,1-.181-1.261,10.13234,10.13234,0,0,0-.032-11.642.90132.90132,0,0,1,1.435-1.091,11.93005,11.93005,0,0,1,.039,13.813.9003.9003,0,0,1-1.261.181m-2.831-2.471a.90057.90057,0,0,1-.083-1.271,5.32678,5.32678,0,0,0-.044-6.694h.001a.90084.90084,0,0,1,1.334-1.211,7.12278,7.12278,0,0,1,.064,9.093.90093.90093,0,0,1-1.272.083"/>
    <path class="cls-6" d="M265.6041,468.217a9.804,9.804,0,1,0,9.804,9.804,9.80348,9.80348,0,0,0-9.804-9.804m0,1.801a8.00365,8.00365,0,0,1,7.883,6.629c-.154-.015-.31-.026-.468-.026a4.40752,4.40752,0,0,0-2.285.613,2.72914,2.72914,0,0,1-2.651-.001,4.56609,4.56609,0,0,0-4.567,0,2.72564,2.72564,0,0,1-2.651,0,4.418,4.418,0,0,0-2.284-.612,4.76262,4.76262,0,0,0-.87.081,8.00417,8.00417,0,0,1,7.893-6.684m0,16.006a8.00046,8.00046,0,0,1-7.977-7.391,2.7409,2.7409,0,0,1,.954-.168,2.58187,2.58187,0,0,1,1.325.343,4.568,4.568,0,0,0,4.568,0,2.7307,2.7307,0,0,1,2.65,0,4.57308,4.57308,0,0,0,4.569.001,2.57324,2.57324,0,0,1,1.326-.344,2.83613,2.83613,0,0,1,.571.057,8.00244,8.00244,0,0,1-7.986,7.502"/>
  </g>
  <g class="cls-2">
    <rect class="cls-8" x="100.772" y="466.72198" width="43.936" height="48.98301"/>
  </g>
  <g class="cls-18">
    <path class="cls-13" d="M134.2285,472.49359l-7.612-2.124a4.97121,4.97121,0,0,1-9.103,0l-7.61,2.124-6.376,7.262,4.192,5.491,2.243-.472.059,22.789,12.045.06,12.044-.06.059-22.789,2.244.472,4.192-5.491Z"/>
  </g>
  <text class="cls-19" transform="translate(116.02783 493.9696)">k</text>
  <text class="cls-19" transform="translate(122.10645 493.9696)">g</text>
  <g class="cls-2">
    <rect class="cls-8" x="167.244" y="465.588" width="47.338" height="44.901"/>
  </g>
  <g class="cls-20">
    <path class="cls-6" d="M184.9006,492.6996q.3285.231.686.45c2.252,1.216,6.776,1.942,7.966,5.01a2.613,2.613,0,0,1,.319.995c2.711-10.138-9.963-9.368-11.132-10.984a3.937,3.937,0,0,0,1.729,4.205Z"/>
    <path class="cls-6" d="M184.3167,493.1366c1.479,2.339,10.763,2.201,9.169,9.027-.393-3.732-10.348-4.017-9.169-9.027"/>
    <path class="cls-6" d="M201.9249,472.2896a61.75024,61.75024,0,0,0-6.909-1.618c-.42,1.919-2.646,3.389-5.323,3.389-2.672,0-4.896-1.464-5.321-3.378a62.32052,62.32052,0,0,0-6.837,1.607l-7.084,7.96,4.528,5.331,4.322-2.751s.481,2.161,3.432,4.49c.003-.011.004-.022.007-.033.808,1.118,7.115,1.095,10.035,4.324l8.216-9.017,3.49,2.987,4.527-5.331Z"/>
    <path class="cls-17" d="M189.73,501.89829c.473,1.724,1.124,2.335,1.943,4.003a2.20484,2.20484,0,1,1-3.886,0c.819-1.668,1.47-2.279,1.943-4.003"/>
  </g>
  <g class="cls-2">
    <path class="cls-4" d="M236.955,523.9901s-9.921,0-9.921,9.921v34.851s0,9.921,9.921,9.921h39.132s9.921,0,9.921-9.921v-34.851s0-9.921-9.921-9.921Z"/>
    <rect class="cls-8" x="234.21201" y="529.014" width="43.93701" height="25.866"/>
  </g>
  <g class="cls-21">
    <path class="cls-6" d="M240.37711,546.1524q-1.587-1.4145-3.174-2.831h-2.263v-4.523h2.263q1.587-1.4145,3.174-2.829l1.313-1.171v12.525Z"/>
    <path class="cls-16" d="M240.37711,546.1524q-1.587-1.4145-3.174-2.831h-2.263v-4.523h2.263q1.587-1.4145,3.174-2.829l1.313-1.171v12.525Z"/>
    <path class="cls-17" d="M248.37151,550.6037a.90174.90174,0,0,1-.228-1.254,15.14617,15.14617,0,0,0-.027-16.575.90063.90063,0,1,1,1.477-1.031,16.94348,16.94348,0,0,1,.032,18.632.90187.90187,0,0,1-1.254.228m-2.921-2.469a.89939.89939,0,0,1-.181-1.261,10.13234,10.13234,0,0,0-.032-11.642.90132.90132,0,1,1,1.435-1.091,11.93005,11.93005,0,0,1,.039,13.813.9003.9003,0,0,1-1.261.181m-2.831-2.471a.90059.90059,0,0,1-.083-1.271,5.32678,5.32678,0,0,0-.044-6.694h.001a.90084.90084,0,0,1,1.334-1.211,7.12278,7.12278,0,0,1,.064,9.093.901.901,0,0,1-1.272.083"/>
    <path class="cls-6" d="M265.21109,540.9325a1.55215,1.55215,0,0,0,1.59,1.217,1.7981,1.7981,0,0,0,1.753-1.674,2.33278,2.33278,0,0,0-2.569-2.53,2.85941,2.85941,0,0,0-2.68,3.055,3.22078,3.22078,0,0,0,3.488,3.063,3.75531,3.75531,0,0,0,3.659-3.631,4.26669,4.26669,0,0,0-4.546-4.417c-2.914,0-4.588,2.645-4.588,5.008,0,2.614,2.13,4.953,5.475,4.953a5.65694,5.65694,0,0,0,5.573-5.502,6.17239,6.17239,0,0,0-6.46-6.389,6.69825,6.69825,0,0,0-6.545,6.939,7.16771,7.16771,0,0,0,7.432,7.012c5.878,0,9.346-7.324,4.799-12.366,3.83,5.519.101,11.263-4.799,11.263-3.871,0-6.469-2.701-6.469-5.898a5.791,5.791,0,0,1,5.582-5.985,5.23926,5.23926,0,0,1,5.477,5.384,4.74654,4.74654,0,0,1-4.59,4.586,4.16755,4.16755,0,0,1-4.482-4.008,3.77914,3.77914,0,0,1,3.595-4.032,3.239,3.239,0,0,1,3.578,3.495,2.7873,2.7873,0,0,1-2.715,2.631,2.32514,2.32514,0,0,1-2.458-2.216,1.8407,1.8407,0,0,1,1.679-2.015c1.941,0,2.062,2.269.803,2.269-.671,0-.958-.791-.578-1.12.216-.188.116-.332-.277-.257a.92306.92306,0,0,0-.727,1.165"/>
    <path class="cls-6" d="M256.7157,541.0608a9.804,9.804,0,1,1,9.804,9.804,9.80414,9.80414,0,0,1-9.804-9.804m9.804,8.003a8.003,8.003,0,1,0-8.003-8.003,8.00292,8.00292,0,0,0,8.003,8.003"/>
  </g>
  <g class="cls-2">
    <path class="cls-4" d="M200.60139,374.46249s-9.921,0-9.921,9.921v61.78s0,9.921,9.921,9.921h75.485s9.921,0,9.921-9.921v-61.78s0-9.921-9.921-9.921Z"/>
    <rect class="cls-22" y="-0.00201" width="311.811" height="623.62201"/>
    <path class="cls-23" d="M56.1398,442.93471a.13258.13258,0,0,0-.022-.075.13542.13542,0,0,0-.075-.051.77225.77225,0,0,0-.142-.033,1.54631,1.54631,0,0,0-.223-.013,1.45464,1.45464,0,0,0-.213.013.85637.85637,0,0,0-.145.033.15453.15453,0,0,0-.08.051.12015.12015,0,0,0-.024.075v6.671a.1367.1367,0,0,0,.021.075.15067.15067,0,0,0,.075.051.89458.89458,0,0,0,.145.032,1.76586,1.76586,0,0,0,.444,0,.873.873,0,0,0,.142-.032.14621.14621,0,0,0,.075-.051.13745.13745,0,0,0,.022-.075Zm-2.63.542a.37325.37325,0,0,0-.097-.161,1.49944,1.49944,0,0,0-.255-.18,2.573,2.573,0,0,0-.457-.204,4.71535,4.71535,0,0,0-.62-.164,3.85163,3.85163,0,0,0-.747-.07,3.67921,3.67921,0,0,0-1.409.261,3.14567,3.14567,0,0,0-1.091.733,3.2818,3.2818,0,0,0-.703,1.144,4.6085,4.6085,0,0,0-.019,2.938,3.12276,3.12276,0,0,0,.668,1.107,2.92664,2.92664,0,0,0,1.072.711,3.88729,3.88729,0,0,0,1.439.25,4.46647,4.46647,0,0,0,1.064-.129,4.70957,4.70957,0,0,0,.51-.156,4.12009,4.12009,0,0,0,.403-.169.41926.41926,0,0,0,.204-.18.56157.56157,0,0,0,.048-.242v-2.647a.53152.53152,0,0,0-.026-.172.28126.28126,0,0,0-.076-.119.3349.3349,0,0,0-.107-.064.34992.34992,0,0,0-.118-.021h-2.208a.14212.14212,0,0,0-.08.021.1746.1746,0,0,0-.057.067.40344.40344,0,0,0-.035.118,1.26228,1.26228,0,0,0-.01.175.67929.67929,0,0,0,.045.285.14777.14777,0,0,0,.137.091h1.612v2.025a2.40589,2.40589,0,0,1-.615.233,2.84015,2.84015,0,0,1-.653.078,2.65489,2.65489,0,0,1-.996-.182,2.14624,2.14624,0,0,1-.782-.537,2.54021,2.54021,0,0,1-.513-.871,3.7871,3.7871,0,0,1-.016-2.288,2.59916,2.59916,0,0,1,.486-.88,2.213,2.213,0,0,1,.774-.581,2.4537,2.4537,0,0,1,1.031-.209,3.0173,3.0173,0,0,1,.835.102,3.68555,3.68555,0,0,1,.604.226,3.281,3.281,0,0,1,.403.225.48521.48521,0,0,0,.215.102.12735.12735,0,0,0,.07-.021.172.172,0,0,0,.054-.073.52707.52707,0,0,0,.032-.129,1.35712,1.35712,0,0,0,.011-.18.98271.98271,0,0,0-.027-.263m-7.866,1.714a.97281.97281,0,0,1-.261.373,1.23979,1.23979,0,0,1-.443.247,2.00059,2.00059,0,0,1-.631.089h-.902v-2.342h.779c.182,0,.33.005.443.016a1.77024,1.77024,0,0,1,.303.054,1.02486,1.02486,0,0,1,.612.405,1.24094,1.24094,0,0,1,.183.69,1.297,1.297,0,0,1-.083.468m1.453,4.294c-.015-.052-.047-.143-.097-.271l-.623-1.531c-.072-.176-.143-.333-.215-.473a2.60942,2.60942,0,0,0-.228-.37,1.61381,1.61381,0,0,0-.261-.277,1.31233,1.31233,0,0,0-.311-.191,2.69148,2.69148,0,0,0,.553-.263,1.77621,1.77621,0,0,0,.424-.368,1.497,1.497,0,0,0,.272-.489,2.11939,2.11939,0,0,0-.011-1.283,1.548,1.548,0,0,0-.314-.529,1.70639,1.70639,0,0,0-.519-.382,2.68464,2.68464,0,0,0-.711-.22c-.093-.011-.198-.021-.315-.029-.116-.009-.262-.014-.437-.014h-1.477a.38253.38253,0,0,0-.234.083.34717.34717,0,0,0-.11.293v6.435a.1367.1367,0,0,0,.021.075.154.154,0,0,0,.076.051.84875.84875,0,0,0,.142.032,1.78177,1.78177,0,0,0,.446,0,.78237.78237,0,0,0,.139-.032.17523.17523,0,0,0,.076-.051.1243.1243,0,0,0,.024-.075v-2.96h.617a1.419,1.419,0,0,1,.543.094,1.20125,1.20125,0,0,1,.392.263,1.63423,1.63423,0,0,1,.287.403q.1215.234.234.513l.639,1.638a.4173.4173,0,0,0,.051.108.20545.20545,0,0,0,.083.067.50573.50573,0,0,0,.143.035,1.98958,1.98958,0,0,0,.228.011,2.49555,2.49555,0,0,0,.258-.011.61148.61148,0,0,0,.15-.032.13159.13159,0,0,0,.07-.054.16529.16529,0,0,0,.016-.075.49983.49983,0,0,0-.021-.121m-5.964-.301a.32179.32179,0,0,0-.037-.118.18458.18458,0,0,0-.062-.067.13924.13924,0,0,0-.078-.022h-2.755v-2.487h2.331a.17211.17211,0,0,0,.078-.018.15416.15416,0,0,0,.059-.062.3591.3591,0,0,0,.035-.113,1.13694,1.13694,0,0,0,.01-.166,1.31873,1.31873,0,0,0-.01-.178.36856.36856,0,0,0-.035-.118.19406.19406,0,0,0-.059-.067.13781.13781,0,0,0-.078-.024h-2.331v-2.181h2.717a.14693.14693,0,0,0,.078-.021.15833.15833,0,0,0,.057-.067.51618.51618,0,0,0,.035-.119.929.929,0,0,0,.013-.169,1.02189,1.02189,0,0,0-.013-.18.5875.5875,0,0,0-.035-.121.14784.14784,0,0,0-.057-.069.13926.13926,0,0,0-.078-.022h-3.297a.38253.38253,0,0,0-.234.083.34717.34717,0,0,0-.11.293v6.198a.34589.34589,0,0,0,.11.293.37639.37639,0,0,0,.234.083h3.335a.14711.14711,0,0,0,.078-.021.18769.18769,0,0,0,.062-.07.35223.35223,0,0,0,.037-.121,1.18744,1.18744,0,0,0,.011-.169,1.27213,1.27213,0,0,0-.011-.18m-5.655-6.233a.12194.12194,0,0,0-.023-.07.18694.18694,0,0,0-.074-.056.46482.46482,0,0,0-.142-.035,1.88392,1.88392,0,0,0-.215-.011,1.9861,1.9861,0,0,0-.229.011.49792.49792,0,0,0-.142.035.19211.19211,0,0,0-.077.056.1208.1208,0,0,0-.022.07v3.77q0,.42451.002.884c.002.306.007.601.014.883h-.006q-.1245-.252-.251-.502-.1275-.249-.257-.507-.1305-.258-.27-.524c-.094-.177-.19-.359-.291-.545l-1.63-3.051a2.47507,2.47507,0,0,0-.168-.277.77847.77847,0,0,0-.167-.171.54639.54639,0,0,0-.194-.089,1.13329,1.13329,0,0,0-.269-.027h-.454a.439.439,0,0,0-.266.091.357.357,0,0,0-.122.307v6.413a.12922.12922,0,0,0,.022.072.14784.14784,0,0,0,.074.054.78237.78237,0,0,0,.139.032,1.50354,1.50354,0,0,0,.224.014,1.52281,1.52281,0,0,0,.224-.014.88289.88289,0,0,0,.141-.032.14822.14822,0,0,0,.077-.054.12922.12922,0,0,0,.022-.072v-4.195c0-.265-.001-.532-.005-.8q-.006-.40349-.016-.79h.011c.097.211.201.429.314.653.113.223.224.437.335.641l2.121,3.954a2.68687,2.68687,0,0,0,.206.343,1.04425,1.04425,0,0,0,.194.212.576.576,0,0,0,.206.108.99473.99473,0,0,0,.253.029h.305a.51244.51244,0,0,0,.144-.021.36121.36121,0,0,0,.131-.07.3537.3537,0,0,0,.094-.123.42322.42322,0,0,0,.037-.183Zm-6.603,6.233a.32129.32129,0,0,0-.038-.118.18272.18272,0,0,0-.061-.067.14393.14393,0,0,0-.078-.022h-2.756v-2.487h2.331a.16621.16621,0,0,0,.078-.018.14788.14788,0,0,0,.059-.062.31388.31388,0,0,0,.035-.113,1.12327,1.12327,0,0,0,.011-.166,1.30365,1.30365,0,0,0-.011-.178.32405.32405,0,0,0-.035-.118.18444.18444,0,0,0-.059-.067.13328.13328,0,0,0-.078-.024h-2.331v-2.181h2.718a.14693.14693,0,0,0,.078-.021.15649.15649,0,0,0,.056-.067.471.471,0,0,0,.035-.119.92134.92134,0,0,0,.014-.169,1.01158,1.01158,0,0,0-.014-.18.53117.53117,0,0,0-.035-.121.14631.14631,0,0,0-.056-.069.13926.13926,0,0,0-.078-.022h-3.298a.38193.38193,0,0,0-.233.083.34431.34431,0,0,0-.11.293v6.198a.343.343,0,0,0,.11.293.37576.37576,0,0,0,.233.083h3.336a.15222.15222,0,0,0,.078-.021.186.186,0,0,0,.061-.07.35185.35185,0,0,0,.038-.121,1.18744,1.18744,0,0,0,.011-.169,1.27213,1.27213,0,0,0-.011-.18"/>
    <path class="cls-23" d="M155.7448,436.1837a.34209.34209,0,0,0-.037-.118.18465.18465,0,0,0-.062-.067.144.144,0,0,0-.078-.022h-2.755v-2.487h2.331a.16508.16508,0,0,0,.077-.018.15605.15605,0,0,0,.06-.062.33626.33626,0,0,0,.034-.113,1.00255,1.00255,0,0,0,.011-.166,1.16227,1.16227,0,0,0-.011-.178.34664.34664,0,0,0-.034-.118.19626.19626,0,0,0-.06-.067.13249.13249,0,0,0-.077-.024h-2.331v-2.181h2.717a.14693.14693,0,0,0,.078-.021.16557.16557,0,0,0,.057-.067.52025.52025,0,0,0,.034-.119.92142.92142,0,0,0,.014-.169,1.01168,1.01168,0,0,0-.014-.18.59144.59144,0,0,0-.034-.121.1539.1539,0,0,0-.057-.069.13926.13926,0,0,0-.078-.022h-3.298a.382.382,0,0,0-.233.083.34431.34431,0,0,0-.11.293v6.198a.343.343,0,0,0,.11.293.37578.37578,0,0,0,.233.083h3.336a.15226.15226,0,0,0,.078-.021.18776.18776,0,0,0,.062-.07.37566.37566,0,0,0,.037-.121,1.18917,1.18917,0,0,0,.011-.169,1.274,1.274,0,0,0-.011-.18m-5.653-6.249a.13258.13258,0,0,0-.022-.075.13543.13543,0,0,0-.075-.051.77252.77252,0,0,0-.142-.033,1.5366,1.5366,0,0,0-.223-.013,1.4308,1.4308,0,0,0-.212.013.812.812,0,0,0-.145.033.15359.15359,0,0,0-.081.051.12021.12021,0,0,0-.024.075v6.671a.13662.13662,0,0,0,.021.075.15536.15536,0,0,0,.075.051.89467.89467,0,0,0,.145.032,1.53762,1.53762,0,0,0,.221.014,1.51737,1.51737,0,0,0,.223-.014.87331.87331,0,0,0,.142-.032.14622.14622,0,0,0,.075-.051.13746.13746,0,0,0,.022-.075Zm-2.63.542a.37325.37325,0,0,0-.097-.161,1.4191,1.4191,0,0,0-.255-.18,2.573,2.573,0,0,0-.457-.204,4.71535,4.71535,0,0,0-.62-.164,3.85153,3.85153,0,0,0-.747-.07,3.6793,3.6793,0,0,0-1.409.261,3.14563,3.14563,0,0,0-1.091.733,3.28182,3.28182,0,0,0-.703,1.144,4.6084,4.6084,0,0,0-.019,2.938,3.11044,3.11044,0,0,0,.669,1.107,2.92271,2.92271,0,0,0,1.071.711,3.89274,3.89274,0,0,0,1.44.25,4.46634,4.46634,0,0,0,1.063-.129,4.64153,4.64153,0,0,0,.51-.156,4.12009,4.12009,0,0,0,.403-.169.41938.41938,0,0,0,.204-.18.56134.56134,0,0,0,.049-.242v-2.647a.50489.50489,0,0,0-.027-.172.28125.28125,0,0,0-.076-.119.33516.33516,0,0,0-.107-.064.34992.34992,0,0,0-.118-.021h-2.208a.14205.14205,0,0,0-.08.021.18346.18346,0,0,0-.057.067.40344.40344,0,0,0-.035.118,1.26384,1.26384,0,0,0-.01.175.67929.67929,0,0,0,.045.285.14777.14777,0,0,0,.137.091h1.612v2.025a2.406,2.406,0,0,1-.615.233,2.84021,2.84021,0,0,1-.653.078,2.65489,2.65489,0,0,1-.996-.182,2.14633,2.14633,0,0,1-.782-.537,2.54006,2.54006,0,0,1-.513-.871,3.7871,3.7871,0,0,1-.016-2.288,2.59916,2.59916,0,0,1,.486-.88,2.222,2.222,0,0,1,.774-.581,2.45366,2.45366,0,0,1,1.031-.209,3.01735,3.01735,0,0,1,.835.102,3.68569,3.68569,0,0,1,.604.226,3.28248,3.28248,0,0,1,.403.225.48514.48514,0,0,0,.215.102.12727.12727,0,0,0,.07-.021.17182.17182,0,0,0,.054-.073.52665.52665,0,0,0,.032-.129,1.35542,1.35542,0,0,0,.011-.18.98237.98237,0,0,0-.027-.263m-7.866,1.714a.962.962,0,0,1-.261.373,1.23112,1.23112,0,0,1-.443.247,2.00052,2.00052,0,0,1-.631.089h-.902v-2.342h.779c.182,0,.33.005.443.016a1.75286,1.75286,0,0,1,.303.054,1.03056,1.03056,0,0,1,.613.405,1.249,1.249,0,0,1,.182.69,1.297,1.297,0,0,1-.083.468m1.453,4.294c-.015-.052-.047-.143-.097-.271l-.623-1.531c-.072-.176-.143-.333-.215-.473a2.60849,2.60849,0,0,0-.228-.37,1.61381,1.61381,0,0,0-.261-.277,1.31247,1.31247,0,0,0-.311-.191,2.69139,2.69139,0,0,0,.553-.263,1.77641,1.77641,0,0,0,.424-.368,1.497,1.497,0,0,0,.272-.489,2.11959,2.11959,0,0,0-.011-1.283,1.54789,1.54789,0,0,0-.314-.529,1.70647,1.70647,0,0,0-.519-.382,2.68487,2.68487,0,0,0-.711-.22c-.093-.011-.198-.021-.314-.029-.117-.009-.263-.014-.438-.014h-1.477a.38256.38256,0,0,0-.234.083.3472.3472,0,0,0-.11.293v6.435a.13663.13663,0,0,0,.021.075.15393.15393,0,0,0,.076.051.84905.84905,0,0,0,.142.032,1.78177,1.78177,0,0,0,.446,0,.78245.78245,0,0,0,.139-.032.1694.1694,0,0,0,.076-.051.12438.12438,0,0,0,.024-.075v-2.96h.617a1.41891,1.41891,0,0,1,.543.094,1.20133,1.20133,0,0,1,.392.263,1.63443,1.63443,0,0,1,.287.403q.12151.234.234.513l.639,1.638a.45194.45194,0,0,0,.051.108.20521.20521,0,0,0,.083.067.50564.50564,0,0,0,.143.035,1.98945,1.98945,0,0,0,.228.011,2.48188,2.48188,0,0,0,.258-.011.61168.61168,0,0,0,.15-.032.1316.1316,0,0,0,.07-.054.16529.16529,0,0,0,.016-.075.50021.50021,0,0,0-.021-.121m-5.964-.301a.3216.3216,0,0,0-.037-.118.18458.18458,0,0,0-.062-.067.13929.13929,0,0,0-.078-.022h-2.755v-2.487h2.331a.172.172,0,0,0,.078-.018.154.154,0,0,0,.059-.062.35858.35858,0,0,0,.035-.113,1.13554,1.13554,0,0,0,.01-.166,1.31709,1.31709,0,0,0-.01-.178.368.368,0,0,0-.035-.118.19388.19388,0,0,0-.059-.067.1377.1377,0,0,0-.078-.024h-2.331v-2.181h2.717a.14686.14686,0,0,0,.078-.021.15828.15828,0,0,0,.057-.067.51667.51667,0,0,0,.035-.119.928.928,0,0,0,.013-.169,1.02082,1.02082,0,0,0-.013-.18.58812.58812,0,0,0-.035-.121.1478.1478,0,0,0-.057-.069.13919.13919,0,0,0-.078-.022h-3.297a.38253.38253,0,0,0-.234.083.34717.34717,0,0,0-.11.293v6.198a.34589.34589,0,0,0,.11.293.37639.37639,0,0,0,.234.083h3.335a.14716.14716,0,0,0,.078-.021.18769.18769,0,0,0,.062-.07.352.352,0,0,0,.037-.121,1.186,1.186,0,0,0,.011-.169,1.27063,1.27063,0,0,0-.011-.18m-5.655-6.233a.122.122,0,0,0-.023-.07.1869.1869,0,0,0-.074-.056.46519.46519,0,0,0-.141-.035,1.91592,1.91592,0,0,0-.216-.011,1.98571,1.98571,0,0,0-.229.011.49774.49774,0,0,0-.142.035.19208.19208,0,0,0-.077.056.12081.12081,0,0,0-.022.07v3.77q0,.42451.002.884c.002.306.007.601.014.883h-.005c-.084-.168-.167-.335-.252-.502q-.1275-.249-.257-.507-.13052-.258-.27-.524c-.094-.177-.19-.359-.291-.545l-1.63-3.051a2.47507,2.47507,0,0,0-.168-.277.77847.77847,0,0,0-.167-.171.54647.54647,0,0,0-.194-.089,1.13338,1.13338,0,0,0-.269-.027h-.454a.439.439,0,0,0-.266.091.357.357,0,0,0-.122.307v6.413a.12921.12921,0,0,0,.022.072.14782.14782,0,0,0,.074.054.78194.78194,0,0,0,.139.032,1.50345,1.50345,0,0,0,.224.014,1.52267,1.52267,0,0,0,.224-.014.88289.88289,0,0,0,.141-.032.14821.14821,0,0,0,.077-.054.13047.13047,0,0,0,.023-.072v-4.195q0-.3975-.006-.8c-.003-.269-.009-.532-.016-.79h.011q.1455.3165.314.653c.113.223.224.437.335.641l2.121,3.954a2.68565,2.68565,0,0,0,.206.343,1.07287,1.07287,0,0,0,.194.212.57571.57571,0,0,0,.206.108.99487.99487,0,0,0,.253.029h.305a.52458.52458,0,0,0,.145-.021.36408.36408,0,0,0,.225-.193.42341.42341,0,0,0,.036-.183Zm-6.603,6.233a.32166.32166,0,0,0-.038-.118.18274.18274,0,0,0-.061-.067.14387.14387,0,0,0-.078-.022h-2.756v-2.487h2.331a.16628.16628,0,0,0,.078-.018.14786.14786,0,0,0,.059-.062.31406.31406,0,0,0,.035-.113,1.12477,1.12477,0,0,0,.011-.166,1.30541,1.30541,0,0,0-.011-.178.32424.32424,0,0,0-.035-.118.18442.18442,0,0,0-.059-.067.13333.13333,0,0,0-.078-.024h-2.331v-2.181h2.718a.147.147,0,0,0,.078-.021.15656.15656,0,0,0,.056-.067.47061.47061,0,0,0,.035-.119.92134.92134,0,0,0,.014-.169,1.01158,1.01158,0,0,0-.014-.18.53069.53069,0,0,0-.035-.121.14637.14637,0,0,0-.056-.069.13931.13931,0,0,0-.078-.022h-3.298a.38191.38191,0,0,0-.233.083.34431.34431,0,0,0-.11.293v6.198a.34305.34305,0,0,0,.11.293.37574.37574,0,0,0,.233.083h3.336a.15216.15216,0,0,0,.078-.021.186.186,0,0,0,.061-.07.35228.35228,0,0,0,.038-.121,1.189,1.189,0,0,0,.011-.169,1.27381,1.27381,0,0,0-.011-.18m-8.202-3.07a.62658.62658,0,0,0-.445-.123.64915.64915,0,0,0-.46.126.7368.7368,0,0,0-.126.508.7125.7125,0,0,0,.124.494.62656.62656,0,0,0,.445.123.6492.6492,0,0,0,.46-.126.73554.73554,0,0,0,.126-.507.71377.71377,0,0,0-.124-.495m-4.587-2.991a.7836.7836,0,0,0,.073-.188.10605.10605,0,0,0-.03-.108.28825.28825,0,0,0-.153-.051,2.64287,2.64287,0,0,0-.303-.013,1.85431,1.85431,0,0,0-.231.011.67012.67012,0,0,0-.142.029.18618.18618,0,0,0-.081.057.26866.26866,0,0,0-.046.091l-.966,2.009c-.09.197-.178.396-.265.599-.088.202-.172.405-.254.609h-.011c-.092-.211-.183-.421-.272-.628q-.13352-.312-.267-.596l-.962-1.999a.44588.44588,0,0,0-.056-.088.19307.19307,0,0,0-.089-.054.86814.86814,0,0,0-.158-.029,2.29638,2.29638,0,0,0-.261-.011,2.64737,2.64737,0,0,0-.282.011.25548.25548,0,0,0-.145.048.11041.11041,0,0,0-.026.107.84454.84454,0,0,0,.072.194l1.966,3.921v2.562a.13669.13669,0,0,0,.021.075.14748.14748,0,0,0,.078.051.93027.93027,0,0,0,.144.032,1.73431,1.73431,0,0,0,.44,0,.83266.83266,0,0,0,.144-.032.1462.1462,0,0,0,.075-.051.1296.1296,0,0,0,.022-.075v-2.562Zm-5.939.354a.37305.37305,0,0,0-.097-.161,1.45781,1.45781,0,0,0-.255-.18,2.57313,2.57313,0,0,0-.457-.204,4.71535,4.71535,0,0,0-.62-.164,3.85156,3.85156,0,0,0-.747-.07,3.67925,3.67925,0,0,0-1.409.261,3.14567,3.14567,0,0,0-1.091.733,3.28193,3.28193,0,0,0-.703,1.144,4.60859,4.60859,0,0,0-.019,2.938,3.11063,3.11063,0,0,0,.669,1.107,2.91433,2.91433,0,0,0,1.071.711,3.891,3.891,0,0,0,1.439.25,4.46631,4.46631,0,0,0,1.064-.129,4.70906,4.70906,0,0,0,.51-.156,4.12115,4.12115,0,0,0,.403-.169.41928.41928,0,0,0,.204-.18.56142.56142,0,0,0,.048-.242v-2.647a.50568.50568,0,0,0-.026-.172.28125.28125,0,0,0-.076-.119.335.335,0,0,0-.107-.064.35.35,0,0,0-.118-.021h-2.208a.14206.14206,0,0,0-.08.021.17462.17462,0,0,0-.057.067.40375.40375,0,0,0-.035.118,1.26228,1.26228,0,0,0-.01.175.67929.67929,0,0,0,.045.285.14778.14778,0,0,0,.137.091h1.612v2.025a2.40575,2.40575,0,0,1-.615.233,2.84008,2.84008,0,0,1-.653.078,2.65489,2.65489,0,0,1-.996-.182,2.14641,2.14641,0,0,1-.782-.537,2.54021,2.54021,0,0,1-.513-.871,3.78731,3.78731,0,0,1-.016-2.288,2.59933,2.59933,0,0,1,.486-.88,2.22213,2.22213,0,0,1,.774-.581,2.45366,2.45366,0,0,1,1.031-.209,3.0173,3.0173,0,0,1,.835.102,3.686,3.686,0,0,1,.604.226,3.28172,3.28172,0,0,1,.403.225.48519.48519,0,0,0,.215.102.1273.1273,0,0,0,.07-.021.17189.17189,0,0,0,.054-.073.52662.52662,0,0,0,.032-.129,1.35542,1.35542,0,0,0,.011-.18.98271.98271,0,0,0-.027-.263m-7.866,1.714a.96207.96207,0,0,1-.261.373,1.2397,1.2397,0,0,1-.443.247,2.00057,2.00057,0,0,1-.631.089h-.902v-2.342h.779c.182,0,.33.005.443.016a1.75281,1.75281,0,0,1,.303.054,1.02489,1.02489,0,0,1,.612.405,1.241,1.241,0,0,1,.183.69,1.297,1.297,0,0,1-.083.468m1.453,4.294c-.015-.052-.047-.143-.097-.271l-.623-1.531c-.072-.176-.143-.333-.215-.473a2.61032,2.61032,0,0,0-.228-.37,1.61381,1.61381,0,0,0-.261-.277,1.31239,1.31239,0,0,0-.311-.191,2.69148,2.69148,0,0,0,.553-.263,1.77646,1.77646,0,0,0,.424-.368,1.497,1.497,0,0,0,.272-.489,2.11949,2.11949,0,0,0-.011-1.283,1.54807,1.54807,0,0,0-.314-.529,1.70647,1.70647,0,0,0-.519-.382,2.6846,2.6846,0,0,0-.711-.22c-.093-.011-.198-.021-.314-.029-.117-.009-.263-.014-.438-.014h-1.477a.38253.38253,0,0,0-.234.083.3472.3472,0,0,0-.11.293v6.435a.1367.1367,0,0,0,.021.075.154.154,0,0,0,.076.051.849.849,0,0,0,.142.032,1.78185,1.78185,0,0,0,.446,0,.78259.78259,0,0,0,.139-.032.16936.16936,0,0,0,.076-.051.12431.12431,0,0,0,.024-.075v-2.96h.617a1.419,1.419,0,0,1,.543.094,1.20125,1.20125,0,0,1,.392.263,1.63423,1.63423,0,0,1,.287.403q.1215.234.234.513l.639,1.638a.417.417,0,0,0,.051.108.20531.20531,0,0,0,.083.067.50565.50565,0,0,0,.143.035,1.9897,1.9897,0,0,0,.228.011,2.49555,2.49555,0,0,0,.258-.011.61157.61157,0,0,0,.15-.032.13167.13167,0,0,0,.07-.054.16528.16528,0,0,0,.016-.075.49983.49983,0,0,0-.021-.121m-5.964-.301a.3216.3216,0,0,0-.037-.118.18466.18466,0,0,0-.062-.067.13927.13927,0,0,0-.078-.022h-2.755v-2.487h2.331a.17211.17211,0,0,0,.078-.018.15422.15422,0,0,0,.059-.062.35886.35886,0,0,0,.035-.113,1.1354,1.1354,0,0,0,.01-.166,1.31694,1.31694,0,0,0-.01-.178.36832.36832,0,0,0-.035-.118.19416.19416,0,0,0-.059-.067.13781.13781,0,0,0-.078-.024h-2.331v-2.181h2.717a.14687.14687,0,0,0,.078-.021.15826.15826,0,0,0,.057-.067.51663.51663,0,0,0,.035-.119.929.929,0,0,0,.013-.169,1.02189,1.02189,0,0,0-.013-.18.58808.58808,0,0,0-.035-.121.14779.14779,0,0,0-.057-.069.1392.1392,0,0,0-.078-.022h-3.297a.38251.38251,0,0,0-.234.083.34714.34714,0,0,0-.11.293v6.198a.34586.34586,0,0,0,.11.293.37637.37637,0,0,0,.234.083h3.335a.14714.14714,0,0,0,.078-.021.18778.18778,0,0,0,.062-.07.352.352,0,0,0,.037-.121,1.18585,1.18585,0,0,0,.011-.169,1.27045,1.27045,0,0,0-.011-.18m-5.655-6.233a.122.122,0,0,0-.023-.07.1869.1869,0,0,0-.074-.056.46535.46535,0,0,0-.141-.035,1.91592,1.91592,0,0,0-.216-.011,1.986,1.986,0,0,0-.229.011.49783.49783,0,0,0-.142.035.19215.19215,0,0,0-.077.056.12086.12086,0,0,0-.022.07v3.77q0,.42451.002.884c.002.306.007.601.014.883h-.005c-.084-.168-.167-.335-.252-.502q-.12749-.249-.257-.507-.13052-.258-.27-.524c-.094-.177-.19-.359-.291-.545l-1.63-3.051a2.47507,2.47507,0,0,0-.168-.277.77847.77847,0,0,0-.167-.171.54639.54639,0,0,0-.194-.089,1.13338,1.13338,0,0,0-.269-.027h-.454a.439.439,0,0,0-.266.091.357.357,0,0,0-.122.307v6.413a.12921.12921,0,0,0,.022.072.14787.14787,0,0,0,.074.054.78216.78216,0,0,0,.139.032,1.50345,1.50345,0,0,0,.224.014,1.52291,1.52291,0,0,0,.224-.014.88273.88273,0,0,0,.141-.032.14821.14821,0,0,0,.077-.054.13047.13047,0,0,0,.023-.072v-4.195q0-.3975-.006-.8c-.003-.269-.009-.532-.016-.79h.011q.1455.3165.314.653c.113.223.224.437.335.641l2.121,3.954a2.68456,2.68456,0,0,0,.206.343,1.07347,1.07347,0,0,0,.194.212.57592.57592,0,0,0,.206.108.99473.99473,0,0,0,.253.029h.305a.52456.52456,0,0,0,.145-.021.36414.36414,0,0,0,.225-.193.42356.42356,0,0,0,.036-.183Zm-6.603,6.233a.32166.32166,0,0,0-.038-.118.1828.1828,0,0,0-.061-.067.14393.14393,0,0,0-.078-.022h-2.756v-2.487h2.331a.16628.16628,0,0,0,.078-.018.1478.1478,0,0,0,.059-.062.31406.31406,0,0,0,.035-.113,1.12477,1.12477,0,0,0,.011-.166,1.30541,1.30541,0,0,0-.011-.178.32424.32424,0,0,0-.035-.118.18433.18433,0,0,0-.059-.067.13333.13333,0,0,0-.078-.024h-2.331v-2.181h2.718a.147.147,0,0,0,.078-.021.15656.15656,0,0,0,.056-.067.47061.47061,0,0,0,.035-.119.92046.92046,0,0,0,.014-.169,1.01064,1.01064,0,0,0-.014-.18.53069.53069,0,0,0-.035-.121.14637.14637,0,0,0-.056-.069.13931.13931,0,0,0-.078-.022h-3.298a.38191.38191,0,0,0-.233.083.34431.34431,0,0,0-.11.293v6.198a.343.343,0,0,0,.11.293.37574.37574,0,0,0,.233.083h3.336a.15222.15222,0,0,0,.078-.021.18608.18608,0,0,0,.061-.07.35228.35228,0,0,0,.038-.121,1.189,1.189,0,0,0,.011-.169,1.27381,1.27381,0,0,0-.011-.18m-8.202-3.07a.62661.62661,0,0,0-.445-.123.6492.6492,0,0,0-.46.126.7368.7368,0,0,0-.126.508.7125.7125,0,0,0,.124.494.62656.62656,0,0,0,.445.123.6492.6492,0,0,0,.46-.126.73548.73548,0,0,0,.126-.507.71377.71377,0,0,0-.124-.495m-6.343,1.069h-2.417l1.198-3.464h.005Zm-.553-4.221a.28209.28209,0,0,0-.059-.1.24436.24436,0,0,0-.108-.062.834.834,0,0,0-.182-.029c-.075-.005-.17-.008-.285-.008-.107,0-.196.003-.266.008a.773.773,0,0,0-.172.029.2508.2508,0,0,0-.102.06.2796.2796,0,0,0-.056.096l-2.331,6.456a.668.668,0,0,0-.046.191.1351.1351,0,0,0,.038.11.256.256,0,0,0,.139.051,1.96806,1.96806,0,0,0,.256.014,2.26905,2.26905,0,0,0,.244-.011.47164.47164,0,0,0,.145-.035.21114.21114,0,0,0,.078-.059.28305.28305,0,0,0,.043-.083l.569-1.671h2.89l.596,1.692a.43221.43221,0,0,0,.046.081.16577.16577,0,0,0,.075.051.614.614,0,0,0,.15.026c.066.006.155.009.266.009a2.62823,2.62823,0,0,0,.266-.011.24837.24837,0,0,0,.142-.049.13207.13207,0,0,0,.041-.11.65522.65522,0,0,0-.046-.19Zm-4.607-.033a.11134.11134,0,0,0-.024-.069.17906.17906,0,0,0-.076-.054.54592.54592,0,0,0-.142-.032,2.2355,2.2355,0,0,0-.443,0,.57745.57745,0,0,0-.142.032.157.157,0,0,0-.076.054.12181.12181,0,0,0-.021.069v4.974a2.99819,2.99819,0,0,1-.043.567.92078.92078,0,0,1-.129.341.43464.43464,0,0,1-.215.169.94869.94869,0,0,1-.311.046.93088.93088,0,0,1-.29-.041,1.5188,1.5188,0,0,1-.218-.088c-.063-.033-.116-.062-.161-.089a.231.231,0,0,0-.11-.04.13016.13016,0,0,0-.073.019.1566.1566,0,0,0-.051.064.39.39,0,0,0-.029.124,1.77879,1.77879,0,0,0-.008.196c0,.064.001.119.005.163a.58638.58638,0,0,0,.019.113.31567.31567,0,0,0,.032.078.45138.45138,0,0,0,.048.065.45856.45856,0,0,0,.121.077,1.54687,1.54687,0,0,0,.215.086,1.79239,1.79239,0,0,0,.271.065,1.86062,1.86062,0,0,0,.298.024,1.82626,1.82626,0,0,0,.739-.132,1.18813,1.18813,0,0,0,.481-.373,1.50444,1.50444,0,0,0,.258-.585,3.56027,3.56027,0,0,0,.075-.758Zm-3.619.006a.13258.13258,0,0,0-.022-.075.13542.13542,0,0,0-.075-.051.77225.77225,0,0,0-.142-.033,1.54631,1.54631,0,0,0-.223-.013,1.45464,1.45464,0,0,0-.213.013.85637.85637,0,0,0-.145.033.15453.15453,0,0,0-.08.051.12015.12015,0,0,0-.024.075v6.671a.1367.1367,0,0,0,.021.075.15067.15067,0,0,0,.075.051.89458.89458,0,0,0,.145.032,1.76586,1.76586,0,0,0,.444,0,.873.873,0,0,0,.142-.032.14621.14621,0,0,0,.075-.051.13745.13745,0,0,0,.022-.075Zm-2.63.542a.37325.37325,0,0,0-.097-.161,1.49944,1.49944,0,0,0-.255-.18,2.573,2.573,0,0,0-.457-.204,4.71535,4.71535,0,0,0-.62-.164,3.85163,3.85163,0,0,0-.747-.07,3.67921,3.67921,0,0,0-1.409.261,3.14567,3.14567,0,0,0-1.091.733,3.2818,3.2818,0,0,0-.703,1.144,4.6085,4.6085,0,0,0-.019,2.938,3.12276,3.12276,0,0,0,.668,1.107,2.92664,2.92664,0,0,0,1.072.711,3.88729,3.88729,0,0,0,1.439.25,4.46647,4.46647,0,0,0,1.064-.129,4.70957,4.70957,0,0,0,.51-.156,4.12009,4.12009,0,0,0,.403-.169.41926.41926,0,0,0,.204-.18.56157.56157,0,0,0,.048-.242v-2.647a.53152.53152,0,0,0-.026-.172.28126.28126,0,0,0-.076-.119.3349.3349,0,0,0-.107-.064.34992.34992,0,0,0-.118-.021h-2.208a.14212.14212,0,0,0-.08.021.1746.1746,0,0,0-.057.067.40344.40344,0,0,0-.035.118,1.26228,1.26228,0,0,0-.01.175.67929.67929,0,0,0,.045.285.14777.14777,0,0,0,.137.091h1.612v2.025a2.40589,2.40589,0,0,1-.615.233,2.84015,2.84015,0,0,1-.653.078,2.65489,2.65489,0,0,1-.996-.182,2.14624,2.14624,0,0,1-.782-.537,2.54021,2.54021,0,0,1-.513-.871,3.7871,3.7871,0,0,1-.016-2.288,2.59916,2.59916,0,0,1,.486-.88,2.213,2.213,0,0,1,.774-.581,2.4537,2.4537,0,0,1,1.031-.209,3.0173,3.0173,0,0,1,.835.102,3.68555,3.68555,0,0,1,.604.226,3.281,3.281,0,0,1,.403.225.48521.48521,0,0,0,.215.102.12735.12735,0,0,0,.07-.021.172.172,0,0,0,.054-.073.52707.52707,0,0,0,.032-.129,1.35712,1.35712,0,0,0,.011-.18.98271.98271,0,0,0-.027-.263m-7.866,1.714a.97281.97281,0,0,1-.261.373,1.23979,1.23979,0,0,1-.443.247,2.00059,2.00059,0,0,1-.631.089h-.902v-2.342h.779c.182,0,.33.005.443.016a1.77024,1.77024,0,0,1,.303.054,1.02486,1.02486,0,0,1,.612.405,1.24094,1.24094,0,0,1,.183.69,1.297,1.297,0,0,1-.083.468m1.453,4.294c-.015-.052-.047-.143-.097-.271l-.623-1.531c-.072-.176-.143-.333-.215-.473a2.60942,2.60942,0,0,0-.228-.37,1.61381,1.61381,0,0,0-.261-.277,1.31233,1.31233,0,0,0-.311-.191,2.69148,2.69148,0,0,0,.553-.263,1.77621,1.77621,0,0,0,.424-.368,1.497,1.497,0,0,0,.272-.489,2.11939,2.11939,0,0,0-.011-1.283,1.548,1.548,0,0,0-.314-.529,1.70639,1.70639,0,0,0-.519-.382,2.68464,2.68464,0,0,0-.711-.22c-.093-.011-.198-.021-.315-.029-.116-.009-.262-.014-.437-.014h-1.477a.38253.38253,0,0,0-.234.083.34717.34717,0,0,0-.11.293v6.435a.1367.1367,0,0,0,.021.075.154.154,0,0,0,.076.051.84875.84875,0,0,0,.142.032,1.78177,1.78177,0,0,0,.446,0,.78237.78237,0,0,0,.139-.032.17523.17523,0,0,0,.076-.051.1243.1243,0,0,0,.024-.075v-2.96h.617a1.419,1.419,0,0,1,.543.094,1.20125,1.20125,0,0,1,.392.263,1.63423,1.63423,0,0,1,.287.403q.1215.234.234.513l.639,1.638a.4173.4173,0,0,0,.051.108.20545.20545,0,0,0,.083.067.50573.50573,0,0,0,.143.035,1.98958,1.98958,0,0,0,.228.011,2.49555,2.49555,0,0,0,.258-.011.61148.61148,0,0,0,.15-.032.13159.13159,0,0,0,.07-.054.16529.16529,0,0,0,.016-.075.49983.49983,0,0,0-.021-.121m-5.964-.301a.32179.32179,0,0,0-.037-.118.18458.18458,0,0,0-.062-.067.13924.13924,0,0,0-.078-.022h-2.755v-2.487h2.331a.17211.17211,0,0,0,.078-.018.15416.15416,0,0,0,.059-.062.3591.3591,0,0,0,.035-.113,1.13694,1.13694,0,0,0,.01-.166,1.31873,1.31873,0,0,0-.01-.178.36856.36856,0,0,0-.035-.118.19406.19406,0,0,0-.059-.067.13781.13781,0,0,0-.078-.024h-2.331v-2.181h2.717a.14693.14693,0,0,0,.078-.021.15833.15833,0,0,0,.057-.067.51618.51618,0,0,0,.035-.119.929.929,0,0,0,.013-.169,1.02189,1.02189,0,0,0-.013-.18.5875.5875,0,0,0-.035-.121.14784.14784,0,0,0-.057-.069.13926.13926,0,0,0-.078-.022h-3.297a.38253.38253,0,0,0-.234.083.34717.34717,0,0,0-.11.293v6.198a.34589.34589,0,0,0,.11.293.37639.37639,0,0,0,.234.083h3.335a.14711.14711,0,0,0,.078-.021.18769.18769,0,0,0,.062-.07.35223.35223,0,0,0,.037-.121,1.18744,1.18744,0,0,0,.011-.169,1.27213,1.27213,0,0,0-.011-.18m-5.655-6.233a.12194.12194,0,0,0-.023-.07.18694.18694,0,0,0-.074-.056.46482.46482,0,0,0-.142-.035,1.88392,1.88392,0,0,0-.215-.011,1.9861,1.9861,0,0,0-.229.011.49792.49792,0,0,0-.142.035.19211.19211,0,0,0-.077.056.1208.1208,0,0,0-.022.07v3.77q0,.42451.002.884c.002.306.007.601.014.883h-.006q-.1245-.252-.251-.502-.1275-.249-.257-.507-.1305-.258-.27-.524c-.094-.177-.19-.359-.291-.545l-1.63-3.051a2.47507,2.47507,0,0,0-.168-.277.77847.77847,0,0,0-.167-.171.54639.54639,0,0,0-.194-.089,1.13329,1.13329,0,0,0-.269-.027h-.454a.439.439,0,0,0-.266.091.357.357,0,0,0-.122.307v6.413a.12922.12922,0,0,0,.022.072.14784.14784,0,0,0,.074.054.78237.78237,0,0,0,.139.032,1.50354,1.50354,0,0,0,.224.014,1.52281,1.52281,0,0,0,.224-.014.88289.88289,0,0,0,.141-.032.14822.14822,0,0,0,.077-.054.12922.12922,0,0,0,.022-.072v-4.195c0-.265-.001-.532-.005-.8q-.006-.40349-.016-.79h.011c.097.211.201.429.314.653.113.223.224.437.335.641l2.121,3.954a2.68687,2.68687,0,0,0,.206.343,1.04425,1.04425,0,0,0,.194.212.576.576,0,0,0,.206.108.99473.99473,0,0,0,.253.029h.305a.51244.51244,0,0,0,.144-.021.36121.36121,0,0,0,.131-.07.3537.3537,0,0,0,.094-.123.42322.42322,0,0,0,.037-.183Zm-6.603,6.233a.32129.32129,0,0,0-.038-.118.18272.18272,0,0,0-.061-.067.14393.14393,0,0,0-.078-.022h-2.756v-2.487h2.331a.16621.16621,0,0,0,.078-.018.14788.14788,0,0,0,.059-.062.31388.31388,0,0,0,.035-.113,1.12327,1.12327,0,0,0,.011-.166,1.30365,1.30365,0,0,0-.011-.178.32405.32405,0,0,0-.035-.118.18444.18444,0,0,0-.059-.067.13328.13328,0,0,0-.078-.024h-2.331v-2.181h2.718a.14693.14693,0,0,0,.078-.021.15649.15649,0,0,0,.056-.067.471.471,0,0,0,.035-.119.92134.92134,0,0,0,.014-.169,1.01158,1.01158,0,0,0-.014-.18.53117.53117,0,0,0-.035-.121.14631.14631,0,0,0-.056-.069.13926.13926,0,0,0-.078-.022h-3.298a.38193.38193,0,0,0-.233.083.34431.34431,0,0,0-.11.293v6.198a.343.343,0,0,0,.11.293.37576.37576,0,0,0,.233.083h3.336a.15222.15222,0,0,0,.078-.021.186.186,0,0,0,.061-.07.35185.35185,0,0,0,.038-.121,1.18744,1.18744,0,0,0,.011-.169,1.27213,1.27213,0,0,0-.011-.18"/>
    <path class="cls-23" d="M159.56778,421.18271h-2.417l1.198-3.464h.005Zm-.553-4.221a.28194.28194,0,0,0-.059-.1.24436.24436,0,0,0-.108-.062.834.834,0,0,0-.182-.029c-.075-.005-.17-.008-.285-.008-.107,0-.196.003-.266.008a.77314.77314,0,0,0-.172.029.25082.25082,0,0,0-.102.06.27928.27928,0,0,0-.056.096l-2.331,6.456a.6677.6677,0,0,0-.046.191.1351.1351,0,0,0,.038.11.256.256,0,0,0,.139.051,1.96806,1.96806,0,0,0,.256.014,2.26892,2.26892,0,0,0,.244-.011.47171.47171,0,0,0,.145-.035.21118.21118,0,0,0,.078-.059.283.283,0,0,0,.043-.083l.569-1.671h2.89l.596,1.692a.43221.43221,0,0,0,.046.081.16586.16586,0,0,0,.075.051.614.614,0,0,0,.15.026c.066.006.155.009.266.009a2.62809,2.62809,0,0,0,.266-.011.24833.24833,0,0,0,.142-.049.132.132,0,0,0,.041-.11.65482.65482,0,0,0-.046-.19Zm-4.741-.027a.12538.12538,0,0,0-.022-.075.13546.13546,0,0,0-.075-.051.77205.77205,0,0,0-.142-.033,1.53709,1.53709,0,0,0-.223-.013,1.44006,1.44006,0,0,0-.212.013.83393.83393,0,0,0-.145.033.1536.1536,0,0,0-.081.051.12015.12015,0,0,0-.024.075v6.671a.12962.12962,0,0,0,.022.075.14618.14618,0,0,0,.075.051.84778.84778,0,0,0,.145.032,1.75782,1.75782,0,0,0,.443,0,.87275.87275,0,0,0,.142-.032.14625.14625,0,0,0,.075-.051.12968.12968,0,0,0,.022-.075Zm-2.274,6.249a.32178.32178,0,0,0-.037-.118.18439.18439,0,0,0-.062-.067.13925.13925,0,0,0-.078-.022h-2.755v-2.487h2.331a.17211.17211,0,0,0,.078-.018.15424.15424,0,0,0,.059-.062.33494.33494,0,0,0,.035-.113,1.1368,1.1368,0,0,0,.01-.166,1.31858,1.31858,0,0,0-.01-.178.34485.34485,0,0,0-.035-.118.19419.19419,0,0,0-.059-.067.13781.13781,0,0,0-.078-.024h-2.331v-2.181h2.718a.14592.14592,0,0,0,.077-.021.15158.15158,0,0,0,.057-.067.51564.51564,0,0,0,.035-.119.929.929,0,0,0,.013-.169,1.02189,1.02189,0,0,0-.013-.18.58684.58684,0,0,0-.035-.121.14216.14216,0,0,0-.057-.069.13827.13827,0,0,0-.077-.022h-3.298a.3826.3826,0,0,0-.234.083.3472.3472,0,0,0-.11.293v6.198a.34592.34592,0,0,0,.11.293.37646.37646,0,0,0,.234.083h3.335a.14712.14712,0,0,0,.078-.021.18751.18751,0,0,0,.062-.07.35223.35223,0,0,0,.037-.121,1.05534,1.05534,0,0,0,.011-.169,1.137,1.137,0,0,0-.011-.18m-4.926-6.179a.38894.38894,0,0,0-.035-.121.16341.16341,0,0,0-.059-.067.144.144,0,0,0-.078-.022h-3.072a.39489.39489,0,0,0-.253.091.374.374,0,0,0-.113.307v6.413a.12961.12961,0,0,0,.022.075.14625.14625,0,0,0,.075.051.87044.87044,0,0,0,.145.032,1.78138,1.78138,0,0,0,.446,0,.85227.85227,0,0,0,.139-.032.154.154,0,0,0,.076-.051.13678.13678,0,0,0,.021-.075v-6.043h2.514a.15207.15207,0,0,0,.078-.021.17739.17739,0,0,0,.059-.067.40633.40633,0,0,0,.035-.121,1.31725,1.31725,0,0,0,.01-.178,1.24833,1.24833,0,0,0-.01-.171m-5.972,2.478a1.25554,1.25554,0,0,1-.285.457,1.30585,1.30585,0,0,1-.465.298,1.92616,1.92616,0,0,1-.695.107h-.833v-2.787h.854a3.25857,3.25857,0,0,1,.486.037,1.32307,1.32307,0,0,1,.484.178,1.10057,1.10057,0,0,1,.392.424,1.44947,1.44947,0,0,1,.158.709,1.68349,1.68349,0,0,1-.096.577m.958-1.369a1.77242,1.77242,0,0,0-.314-.572,1.81852,1.81852,0,0,0-.497-.417,2.056,2.056,0,0,0-.574-.231,3.96037,3.96037,0,0,0-.489-.08c-.138-.013-.282-.019-.433-.019h-1.487a.39691.39691,0,0,0-.253.091.37408.37408,0,0,0-.113.307v6.413a.13752.13752,0,0,0,.022.075.14623.14623,0,0,0,.075.051.87259.87259,0,0,0,.142.032,1.52759,1.52759,0,0,0,.223.014,1.50792,1.50792,0,0,0,.223-.014.79667.79667,0,0,0,.14-.032.16585.16585,0,0,0,.075-.051.12423.12423,0,0,0,.024-.075v-2.503h.79a3.40667,3.40667,0,0,0,1.109-.161,2.20461,2.20461,0,0,0,.784-.457,1.99364,1.99364,0,0,0,.492-.714,2.47115,2.47115,0,0,0,.171-.94,2.2012,2.2012,0,0,0-.11-.717m-5.509,5.07a.32147.32147,0,0,0-.038-.118.17641.17641,0,0,0-.062-.067.13824.13824,0,0,0-.077-.022h-2.756v-2.487h2.331a.16627.16627,0,0,0,.078-.018.15407.15407,0,0,0,.059-.062.33492.33492,0,0,0,.035-.113,1.12327,1.12327,0,0,0,.011-.166,1.30365,1.30365,0,0,0-.011-.178.34482.34482,0,0,0-.035-.118.19394.19394,0,0,0-.059-.067.13332.13332,0,0,0-.078-.024h-2.331v-2.181h2.718a.14694.14694,0,0,0,.078-.021.15649.15649,0,0,0,.056-.067.471.471,0,0,0,.035-.119.92142.92142,0,0,0,.014-.169,1.01168,1.01168,0,0,0-.014-.18.53117.53117,0,0,0-.035-.121.14631.14631,0,0,0-.056-.069.13927.13927,0,0,0-.078-.022h-3.298a.38688.38688,0,0,0-.234.083.34717.34717,0,0,0-.11.293v6.198a.34589.34589,0,0,0,.11.293.38058.38058,0,0,0,.234.083h3.336a.14608.14608,0,0,0,.077-.021.17948.17948,0,0,0,.062-.07.35206.35206,0,0,0,.038-.121,1.18917,1.18917,0,0,0,.011-.169,1.274,1.274,0,0,0-.011-.18m-5.608-6.233a.1208.1208,0,0,0-.022-.07.187.187,0,0,0-.074-.056.46482.46482,0,0,0-.142-.035,1.88405,1.88405,0,0,0-.215-.011,1.98622,1.98622,0,0,0-.229.011.498.498,0,0,0-.142.035.18519.18519,0,0,0-.077.056.1208.1208,0,0,0-.022.07v3.77q0,.42451.002.884c.002.306.007.601.014.883h-.006q-.1245-.252-.251-.502-.1275-.249-.257-.507-.13052-.258-.27-.524-.141-.2655-.291-.545l-1.63-3.051a2.32745,2.32745,0,0,0-.169-.277.75422.75422,0,0,0-.166-.171.54647.54647,0,0,0-.194-.089,1.13338,1.13338,0,0,0-.269-.027h-.454a.439.439,0,0,0-.266.091.357.357,0,0,0-.122.307v6.413a.12921.12921,0,0,0,.022.072.14782.14782,0,0,0,.074.054.78194.78194,0,0,0,.139.032,1.50345,1.50345,0,0,0,.224.014,1.52267,1.52267,0,0,0,.224-.014.88289.88289,0,0,0,.141-.032.14821.14821,0,0,0,.077-.054.12921.12921,0,0,0,.022-.072v-4.195c0-.265-.001-.532-.005-.8q-.006-.40349-.016-.79h.011c.097.211.201.429.314.653.113.223.224.437.335.641l2.12,3.954a2.80053,2.80053,0,0,0,.207.343,1.04425,1.04425,0,0,0,.194.212.5678.5678,0,0,0,.206.108.992.992,0,0,0,.252.029h.306a.51247.51247,0,0,0,.144-.021.36121.36121,0,0,0,.131-.07.35344.35344,0,0,0,.094-.123.42341.42341,0,0,0,.036-.183Zm-6.602,6.233a.32166.32166,0,0,0-.038-.118.18274.18274,0,0,0-.061-.067.14387.14387,0,0,0-.078-.022h-2.756v-2.487h2.331a.16628.16628,0,0,0,.078-.018.1542.1542,0,0,0,.059-.062.33514.33514,0,0,0,.035-.113,1.12477,1.12477,0,0,0,.011-.166,1.30541,1.30541,0,0,0-.011-.178.345.345,0,0,0-.035-.118.19414.19414,0,0,0-.059-.067.13333.13333,0,0,0-.078-.024h-2.331v-2.181h2.718a.147.147,0,0,0,.078-.021.15656.15656,0,0,0,.056-.067.47061.47061,0,0,0,.035-.119.92134.92134,0,0,0,.014-.169,1.01158,1.01158,0,0,0-.014-.18.53069.53069,0,0,0-.035-.121.14637.14637,0,0,0-.056-.069.13931.13931,0,0,0-.078-.022h-3.298a.38191.38191,0,0,0-.233.083.34462.34462,0,0,0-.111.293v6.198a.34335.34335,0,0,0,.111.293.37574.37574,0,0,0,.233.083h3.336a.15216.15216,0,0,0,.078-.021.186.186,0,0,0,.061-.07.35228.35228,0,0,0,.038-.121,1.189,1.189,0,0,0,.011-.169,1.27381,1.27381,0,0,0-.011-.18m-8.202-3.07a.62779.62779,0,0,0-.446-.123.64626.64626,0,0,0-.459.126.7368.7368,0,0,0-.126.508.7125.7125,0,0,0,.124.494.62656.62656,0,0,0,.445.123.65087.65087,0,0,0,.46-.126.73554.73554,0,0,0,.126-.507.71377.71377,0,0,0-.124-.495m-6.176-.161h-.908a2.56083,2.56083,0,0,1-.782-.094,1.21365,1.21365,0,0,1-.459-.26,1.01491,1.01491,0,0,1-.26-.387,1.31515,1.31515,0,0,1-.084-.473,1.384,1.384,0,0,1,.078-.47.91823.91823,0,0,1,.253-.376,1.20732,1.20732,0,0,1,.454-.247,2.90974,2.90974,0,0,1,.827-.088h.881Zm.923-2.782a.35227.35227,0,0,0-.107-.293.37961.37961,0,0,0-.236-.083h-1.44a4.22836,4.22836,0,0,0-1.27.148,2.06584,2.06584,0,0,0-.744.411,1.63744,1.63744,0,0,0-.44.625,2.11084,2.11084,0,0,0-.145.793,1.8541,1.8541,0,0,0,.094.607,1.48269,1.48269,0,0,0,.706.84,2.40416,2.40416,0,0,0,.58.223,1.3172,1.3172,0,0,0-.333.185,1.57276,1.57276,0,0,0-.279.28,2.43451,2.43451,0,0,0-.242.378,4.53541,4.53541,0,0,0-.215.484l-.569,1.477a1.79749,1.79749,0,0,0-.081.233.58549.58549,0,0,0-.016.127.14462.14462,0,0,0,.016.072.12781.12781,0,0,0,.067.051.58238.58238,0,0,0,.143.035,1.74755,1.74755,0,0,0,.247.014,1.98951,1.98951,0,0,0,.228-.011.58594.58594,0,0,0,.148-.035.19152.19152,0,0,0,.088-.067.59632.59632,0,0,0,.057-.108l.596-1.6a5.3211,5.3211,0,0,1,.223-.516,1.5218,1.5218,0,0,1,.279-.395,1.09185,1.09185,0,0,1,.387-.249,1.84115,1.84115,0,0,1,.642-.086h.693v2.9a.1125.1125,0,0,0,.024.073.20441.20441,0,0,0,.075.051.5397.5397,0,0,0,.14.032,2.25577,2.25577,0,0,0,.445,0,.60007.60007,0,0,0,.143-.032.18848.18848,0,0,0,.075-.051.12334.12334,0,0,0,.021-.073Zm-6.004-.231a.14992.14992,0,0,0-.019-.078.17181.17181,0,0,0-.065-.053.34731.34731,0,0,0-.123-.035,1.39269,1.39269,0,0,0-.202-.011,1.09648,1.09648,0,0,0-.177.011.67225.67225,0,0,0-.121.029.27453.27453,0,0,0-.083.048.48889.48889,0,0,0-.059.068l-3.002,4.527q-.129.189-.245.379c-.077.127-.144.236-.201.325h-.011c.011-.104.017-.211.019-.322s.003-.215.003-.312v-4.587a.12283.12283,0,0,0-.022-.069.14908.14908,0,0,0-.075-.054.5887.5887,0,0,0-.142-.032,1.74806,1.74806,0,0,0-.223-.011,1.6424,1.6424,0,0,0-.213.011.64216.64216,0,0,0-.145.032.17069.17069,0,0,0-.08.054.11134.11134,0,0,0-.024.069v6.666a.13982.13982,0,0,0,.083.137.37649.37649,0,0,0,.124.035,1.53717,1.53717,0,0,0,.201.011,1.41845,1.41845,0,0,0,.177-.009.533.533,0,0,0,.121-.026.234.234,0,0,0,.083-.051.73118.73118,0,0,0,.065-.076l3.008-4.522c.039-.061.078-.123.118-.185.039-.063.078-.126.118-.188.039-.063.076-.123.11-.18.034-.058.065-.111.094-.161h.011c-.007.096-.013.205-.016.325-.004.12-.006.235-.006.346v4.56a.11727.11727,0,0,0,.022.073.17541.17541,0,0,0,.072.051.55673.55673,0,0,0,.143.032,2.2355,2.2355,0,0,0,.443,0,.59069.59069,0,0,0,.142-.032.17483.17483,0,0,0,.075-.051.12382.12382,0,0,0,.022-.073Zm-6.336-.048a.14721.14721,0,0,0-.137-.097h-3.207a.339.339,0,0,0-.244.094.36894.36894,0,0,0-.1.282v6.44a.1172.1172,0,0,0,.022.073.17479.17479,0,0,0,.075.051.59645.59645,0,0,0,.145.032,1.95093,1.95093,0,0,0,.22.011,1.93134,1.93134,0,0,0,.223-.011.57918.57918,0,0,0,.142-.032.18584.18584,0,0,0,.076-.051.12333.12333,0,0,0,.021-.073v-6.021h2.627a.14611.14611,0,0,0,.077-.021.17525.17525,0,0,0,.06-.07.4181.4181,0,0,0,.034-.124,1.14866,1.14866,0,0,0,.011-.177.76767.76767,0,0,0-.045-.306m-6.05,2.591a1.2557,1.2557,0,0,1-.285.457,1.30589,1.30589,0,0,1-.465.298,1.92614,1.92614,0,0,1-.695.107h-.833v-2.787h.854a3.2584,3.2584,0,0,1,.486.037,1.323,1.323,0,0,1,.484.178,1.10036,1.10036,0,0,1,.392.424,1.44935,1.44935,0,0,1,.158.709,1.68349,1.68349,0,0,1-.096.577m.958-1.369a1.77284,1.77284,0,0,0-.314-.572,1.81847,1.81847,0,0,0-.497-.417,2.056,2.056,0,0,0-.574-.231,3.95994,3.95994,0,0,0-.489-.08c-.138-.013-.282-.019-.433-.019h-1.487a.39693.39693,0,0,0-.253.091.374.374,0,0,0-.113.307v6.413a.13746.13746,0,0,0,.022.075.14622.14622,0,0,0,.075.051.87315.87315,0,0,0,.142.032,1.52739,1.52739,0,0,0,.223.014,1.50821,1.50821,0,0,0,.223-.014.79689.79689,0,0,0,.14-.032.16576.16576,0,0,0,.075-.051.12431.12431,0,0,0,.024-.075v-2.503h.79a3.40673,3.40673,0,0,0,1.109-.161,2.20447,2.20447,0,0,0,.784-.457,1.99364,1.99364,0,0,0,.492-.714,2.471,2.471,0,0,0,.171-.94,2.20174,2.20174,0,0,0-.11-.717m-5.509,5.07a.32111.32111,0,0,0-.038-.118.17656.17656,0,0,0-.062-.067.13829.13829,0,0,0-.077-.022h-2.756v-2.487h2.331a.16621.16621,0,0,0,.078-.018.15422.15422,0,0,0,.059-.062.33471.33471,0,0,0,.035-.113,1.12191,1.12191,0,0,0,.011-.166,1.30205,1.30205,0,0,0-.011-.178.34463.34463,0,0,0-.035-.118.19416.19416,0,0,0-.059-.067.13328.13328,0,0,0-.078-.024h-2.331v-2.181h2.718a.14687.14687,0,0,0,.078-.021.15642.15642,0,0,0,.056-.067.471.471,0,0,0,.035-.119.92134.92134,0,0,0,.014-.169,1.01158,1.01158,0,0,0-.014-.18.53114.53114,0,0,0-.035-.121.14626.14626,0,0,0-.056-.069.1392.1392,0,0,0-.078-.022h-3.298a.38682.38682,0,0,0-.234.083.34714.34714,0,0,0-.11.293v6.198a.34586.34586,0,0,0,.11.293.38053.38053,0,0,0,.234.083h3.336a.14613.14613,0,0,0,.077-.021.17964.17964,0,0,0,.062-.07.35164.35164,0,0,0,.038-.121,1.18585,1.18585,0,0,0,.011-.169,1.27045,1.27045,0,0,0-.011-.18m-5.611-6.249a.132.132,0,0,0-.021-.075.14313.14313,0,0,0-.075-.051.78542.78542,0,0,0-.143-.033,1.476,1.476,0,0,0-.217-.013,1.52643,1.52643,0,0,0-.226.013.787.787,0,0,0-.14.033.14314.14314,0,0,0-.075.051.132.132,0,0,0-.021.075v2.782h-3.164v-2.782a.132.132,0,0,0-.021-.075.14313.14313,0,0,0-.075-.051.78535.78535,0,0,0-.143-.033,1.89342,1.89342,0,0,0-.443,0,.77262.77262,0,0,0-.145.033.13542.13542,0,0,0-.075.051.1253.1253,0,0,0-.022.075v6.671a.1296.1296,0,0,0,.022.075.1462.1462,0,0,0,.075.051.87037.87037,0,0,0,.145.032,1.7579,1.7579,0,0,0,.443,0,.88822.88822,0,0,0,.143-.032.15538.15538,0,0,0,.075-.051.13669.13669,0,0,0,.021-.075v-3.083h3.164v3.083a.1367.1367,0,0,0,.021.075.1554.1554,0,0,0,.075.051.89372.89372,0,0,0,.14.032,1.50457,1.50457,0,0,0,.226.014,1.45878,1.45878,0,0,0,.217-.014.88832.88832,0,0,0,.143-.032.15538.15538,0,0,0,.075-.051.13669.13669,0,0,0,.021-.075Zm-6.355,6.249a.34158.34158,0,0,0-.038-.118.17656.17656,0,0,0-.062-.067.13924.13924,0,0,0-.078-.022h-2.755v-2.487h2.331a.16628.16628,0,0,0,.078-.018.15407.15407,0,0,0,.059-.062.33514.33514,0,0,0,.035-.113,1.12464,1.12464,0,0,0,.011-.166,1.30526,1.30526,0,0,0-.011-.178.345.345,0,0,0-.035-.118.19394.19394,0,0,0-.059-.067.13333.13333,0,0,0-.078-.024h-2.331v-2.181h2.718a.1521.1521,0,0,0,.078-.021.15649.15649,0,0,0,.056-.067.51572.51572,0,0,0,.035-.119.92805.92805,0,0,0,.013-.169,1.02093,1.02093,0,0,0-.013-.18.58691.58691,0,0,0-.035-.121.14631.14631,0,0,0-.056-.069.144.144,0,0,0-.078-.022h-3.298a.38683.38683,0,0,0-.234.083.34717.34717,0,0,0-.11.293v6.198a.34589.34589,0,0,0,.11.293.38053.38053,0,0,0,.234.083h3.335a.14711.14711,0,0,0,.078-.021.17964.17964,0,0,0,.062-.07.37529.37529,0,0,0,.038-.121,1.20183,1.20183,0,0,0,.01-.169,1.29287,1.29287,0,0,0-.01-.18m-8.202-3.07a.62776.62776,0,0,0-.446-.123.6463.6463,0,0,0-.459.126.7368.7368,0,0,0-.126.508.7185.7185,0,0,0,.123.494.62944.62944,0,0,0,.446.123.6463.6463,0,0,0,.459-.126.73477.73477,0,0,0,.127-.507.719.719,0,0,0-.124-.495m-6.343,1.069h-2.417l1.198-3.464h.005Zm-.553-4.221a.29939.29939,0,0,0-.06-.1.24055.24055,0,0,0-.107-.062.84442.84442,0,0,0-.183-.029c-.075-.005-.17-.008-.284-.008-.108,0-.196.003-.266.008a.773.773,0,0,0-.172.029.23791.23791,0,0,0-.102.06.2796.2796,0,0,0-.056.096l-2.331,6.456a.668.668,0,0,0-.046.191.13807.13807,0,0,0,.037.11.25991.25991,0,0,0,.14.051,1.94034,1.94034,0,0,0,.255.014,2.28965,2.28965,0,0,0,.245-.011.47937.47937,0,0,0,.145-.035.21114.21114,0,0,0,.078-.059.28153.28153,0,0,0,.042-.083l.57-1.671h2.889l.597,1.692a.43233.43233,0,0,0,.045.081.164.164,0,0,0,.076.051.61386.61386,0,0,0,.15.026c.066.006.155.009.266.009a2.64219,2.64219,0,0,0,.266-.011.25124.25124,0,0,0,.142-.049.12869.12869,0,0,0,.04-.11.68214.68214,0,0,0-.045-.19Zm-4.741-.027a.13258.13258,0,0,0-.022-.075.13542.13542,0,0,0-.075-.051.77225.77225,0,0,0-.142-.033,1.54631,1.54631,0,0,0-.223-.013,1.45464,1.45464,0,0,0-.213.013.85637.85637,0,0,0-.145.033.15453.15453,0,0,0-.08.051.12015.12015,0,0,0-.024.075v6.671a.1367.1367,0,0,0,.021.075.15067.15067,0,0,0,.075.051.89458.89458,0,0,0,.145.032,1.76586,1.76586,0,0,0,.444,0,.873.873,0,0,0,.142-.032.14621.14621,0,0,0,.075-.051.13745.13745,0,0,0,.022-.075Zm-2.63.542a.37325.37325,0,0,0-.097-.161,1.49944,1.49944,0,0,0-.255-.18,2.573,2.573,0,0,0-.457-.204,4.71535,4.71535,0,0,0-.62-.164,3.85163,3.85163,0,0,0-.747-.07,3.67921,3.67921,0,0,0-1.409.261,3.14567,3.14567,0,0,0-1.091.733,3.2818,3.2818,0,0,0-.703,1.144,4.6085,4.6085,0,0,0-.019,2.938,3.12276,3.12276,0,0,0,.668,1.107,2.92664,2.92664,0,0,0,1.072.711,3.88729,3.88729,0,0,0,1.439.25,4.46647,4.46647,0,0,0,1.064-.129,4.70957,4.70957,0,0,0,.51-.156,4.12009,4.12009,0,0,0,.403-.169.41926.41926,0,0,0,.204-.18.56157.56157,0,0,0,.048-.242v-2.647a.53152.53152,0,0,0-.026-.172.28126.28126,0,0,0-.076-.119.3349.3349,0,0,0-.107-.064.34992.34992,0,0,0-.118-.021h-2.208a.14212.14212,0,0,0-.08.021.1746.1746,0,0,0-.057.067.40344.40344,0,0,0-.035.118,1.26228,1.26228,0,0,0-.01.175.67929.67929,0,0,0,.045.285.14777.14777,0,0,0,.137.091h1.612v2.025a2.40589,2.40589,0,0,1-.615.233,2.84015,2.84015,0,0,1-.653.078,2.65489,2.65489,0,0,1-.996-.182,2.14624,2.14624,0,0,1-.782-.537,2.54021,2.54021,0,0,1-.513-.871,3.7871,3.7871,0,0,1-.016-2.288,2.59916,2.59916,0,0,1,.486-.88,2.213,2.213,0,0,1,.774-.581,2.4537,2.4537,0,0,1,1.031-.209,3.0173,3.0173,0,0,1,.835.102,3.68555,3.68555,0,0,1,.604.226,3.281,3.281,0,0,1,.403.225.48521.48521,0,0,0,.215.102.12735.12735,0,0,0,.07-.021.172.172,0,0,0,.054-.073.52707.52707,0,0,0,.032-.129,1.35712,1.35712,0,0,0,.011-.18.98271.98271,0,0,0-.027-.263m-7.866,1.714a.97281.97281,0,0,1-.261.373,1.23979,1.23979,0,0,1-.443.247,2.00059,2.00059,0,0,1-.631.089h-.902v-2.342h.779c.182,0,.33.005.443.016a1.77024,1.77024,0,0,1,.303.054,1.02486,1.02486,0,0,1,.612.405,1.24094,1.24094,0,0,1,.183.69,1.297,1.297,0,0,1-.083.468m1.453,4.294c-.015-.052-.047-.143-.097-.271l-.623-1.531c-.072-.176-.143-.333-.215-.473a2.60942,2.60942,0,0,0-.228-.37,1.61381,1.61381,0,0,0-.261-.277,1.31233,1.31233,0,0,0-.311-.191,2.69148,2.69148,0,0,0,.553-.263,1.77621,1.77621,0,0,0,.424-.368,1.497,1.497,0,0,0,.272-.489,2.11939,2.11939,0,0,0-.011-1.283,1.548,1.548,0,0,0-.314-.529,1.70639,1.70639,0,0,0-.519-.382,2.68464,2.68464,0,0,0-.711-.22c-.093-.011-.198-.021-.315-.029-.116-.009-.262-.014-.437-.014h-1.477a.38253.38253,0,0,0-.234.083.34717.34717,0,0,0-.11.293v6.435a.1367.1367,0,0,0,.021.075.154.154,0,0,0,.076.051.84875.84875,0,0,0,.142.032,1.78177,1.78177,0,0,0,.446,0,.78237.78237,0,0,0,.139-.032.17523.17523,0,0,0,.076-.051.1243.1243,0,0,0,.024-.075v-2.96h.617a1.419,1.419,0,0,1,.543.094,1.20125,1.20125,0,0,1,.392.263,1.63423,1.63423,0,0,1,.287.403q.1215.234.234.513l.639,1.638a.4173.4173,0,0,0,.051.108.20545.20545,0,0,0,.083.067.50573.50573,0,0,0,.143.035,1.98958,1.98958,0,0,0,.228.011,2.49555,2.49555,0,0,0,.258-.011.61148.61148,0,0,0,.15-.032.13159.13159,0,0,0,.07-.054.16529.16529,0,0,0,.016-.075.49983.49983,0,0,0-.021-.121m-5.964-.301a.32179.32179,0,0,0-.037-.118.18458.18458,0,0,0-.062-.067.13924.13924,0,0,0-.078-.022h-2.755v-2.487h2.331a.17211.17211,0,0,0,.078-.018.15416.15416,0,0,0,.059-.062.3591.3591,0,0,0,.035-.113,1.13694,1.13694,0,0,0,.01-.166,1.31873,1.31873,0,0,0-.01-.178.36856.36856,0,0,0-.035-.118.19406.19406,0,0,0-.059-.067.13781.13781,0,0,0-.078-.024h-2.331v-2.181h2.717a.14693.14693,0,0,0,.078-.021.15833.15833,0,0,0,.057-.067.51618.51618,0,0,0,.035-.119.929.929,0,0,0,.013-.169,1.02189,1.02189,0,0,0-.013-.18.5875.5875,0,0,0-.035-.121.14784.14784,0,0,0-.057-.069.13926.13926,0,0,0-.078-.022h-3.297a.38253.38253,0,0,0-.234.083.34717.34717,0,0,0-.11.293v6.198a.34589.34589,0,0,0,.11.293.37639.37639,0,0,0,.234.083h3.335a.14711.14711,0,0,0,.078-.021.18769.18769,0,0,0,.062-.07.35223.35223,0,0,0,.037-.121,1.18744,1.18744,0,0,0,.011-.169,1.27213,1.27213,0,0,0-.011-.18m-5.655-6.233a.12194.12194,0,0,0-.023-.07.18694.18694,0,0,0-.074-.056.46482.46482,0,0,0-.142-.035,1.88392,1.88392,0,0,0-.215-.011,1.9861,1.9861,0,0,0-.229.011.49792.49792,0,0,0-.142.035.19211.19211,0,0,0-.077.056.1208.1208,0,0,0-.022.07v3.77q0,.42451.002.884c.002.306.007.601.014.883h-.006q-.1245-.252-.251-.502-.1275-.249-.257-.507-.1305-.258-.27-.524c-.094-.177-.19-.359-.291-.545l-1.63-3.051a2.47507,2.47507,0,0,0-.168-.277.77847.77847,0,0,0-.167-.171.54639.54639,0,0,0-.194-.089,1.13329,1.13329,0,0,0-.269-.027h-.454a.439.439,0,0,0-.266.091.357.357,0,0,0-.122.307v6.413a.12922.12922,0,0,0,.022.072.14784.14784,0,0,0,.074.054.78237.78237,0,0,0,.139.032,1.50354,1.50354,0,0,0,.224.014,1.52281,1.52281,0,0,0,.224-.014.88289.88289,0,0,0,.141-.032.14822.14822,0,0,0,.077-.054.12922.12922,0,0,0,.022-.072v-4.195c0-.265-.001-.532-.005-.8q-.006-.40349-.016-.79h.011c.097.211.201.429.314.653.113.223.224.437.335.641l2.121,3.954a2.68687,2.68687,0,0,0,.206.343,1.04425,1.04425,0,0,0,.194.212.576.576,0,0,0,.206.108.99473.99473,0,0,0,.253.029h.305a.51244.51244,0,0,0,.144-.021.36121.36121,0,0,0,.131-.07.3537.3537,0,0,0,.094-.123.42322.42322,0,0,0,.037-.183Zm-6.603,6.233a.32129.32129,0,0,0-.038-.118.18272.18272,0,0,0-.061-.067.14393.14393,0,0,0-.078-.022h-2.756v-2.487h2.331a.16621.16621,0,0,0,.078-.018.14788.14788,0,0,0,.059-.062.31388.31388,0,0,0,.035-.113,1.12327,1.12327,0,0,0,.011-.166,1.30365,1.30365,0,0,0-.011-.178.32405.32405,0,0,0-.035-.118.18444.18444,0,0,0-.059-.067.13328.13328,0,0,0-.078-.024h-2.331v-2.181h2.718a.14693.14693,0,0,0,.078-.021.15649.15649,0,0,0,.056-.067.471.471,0,0,0,.035-.119.92134.92134,0,0,0,.014-.169,1.01158,1.01158,0,0,0-.014-.18.53117.53117,0,0,0-.035-.121.14631.14631,0,0,0-.056-.069.13926.13926,0,0,0-.078-.022h-3.298a.38193.38193,0,0,0-.233.083.34431.34431,0,0,0-.11.293v6.198a.343.343,0,0,0,.11.293.37576.37576,0,0,0,.233.083h3.336a.15222.15222,0,0,0,.078-.021.186.186,0,0,0,.061-.07.35185.35185,0,0,0,.038-.121,1.18744,1.18744,0,0,0,.011-.169,1.27213,1.27213,0,0,0-.011-.18"/>
    <polygon class="cls-24" points="25.132 159.765 25.132 179.888 125.426 179.888 135.393 169.827 125.426 159.765 25.132 159.765"/>
    <polygon class="cls-25" points="25.132 183.655 25.132 203.777 137.301 203.777 147.278 193.717 137.301 183.655 25.132 183.655"/>
    <polygon class="cls-26" points="25.132 207.544 25.132 227.668 148.898 227.668 158.88 217.606 148.898 207.544 25.132 207.544"/>
    <polygon class="cls-7" points="25.132 231.434 25.132 251.555 160.496 251.555 170.48 241.493 160.496 231.434 25.132 231.434"/>
    <polygon class="cls-27" points="25.132 255.322 25.132 275.442 172.094 275.442 182.082 265.384 172.094 255.322 25.132 255.322"/>
    <polygon class="cls-28" points="25.132 279.209 25.132 299.333 183.692 299.333 193.685 289.272 183.692 279.209 25.132 279.209"/>
    <polygon class="cls-29" points="25.132 303.097 25.132 323.218 194.695 323.218 205.341 313.16 194.695 303.097 25.132 303.097"/>
  </g>
  <text class="cls-30" transform="translate(31.31396 176.078)"><tspan xml:space="preserve"> A</tspan></text>
  <text class="cls-31" transform="translate(48.33252 170.90662)"><tspan class="cls-32">+</tspan><tspan x="6.74902" y="0">+</tspan></text>
  <text class="cls-31" transform="translate(61.85596 170.90662)">+</text>
  <text class="cls-30" transform="translate(31.44043 200.09265)"><tspan xml:space="preserve"> A</tspan></text>
  <text class="cls-31" transform="translate(47.83203 194.92468)">+</text>
  <text class="cls-31" transform="translate(54.59375 194.92468)">+</text>
  <text class="cls-30" transform="translate(31.44043 223.86023)"><tspan xml:space="preserve"> A</tspan></text>
  <text class="cls-30" transform="translate(31.07129 247.87732)"><tspan xml:space="preserve"> A</tspan></text>
  <text class="cls-30" transform="translate(31.26562 271.56482)"><tspan xml:space="preserve"> B</tspan></text>
  <text class="cls-30" transform="translate(31.26562 295.32996)"><tspan xml:space="preserve"> C</tspan></text>
  <g class="cls-33">
    <text class="cls-30" transform="translate(30.89697 319.34753)"><tspan xml:space="preserve"> D</tspan></text>
  </g>
  <text class="cls-31" transform="translate(47.83203 218.69226)">+</text>
  <g class="cls-33">
    <text class="cls-34" transform="translate(247.93359 176.0741)"><tspan xml:space="preserve"> A</tspan></text>
    <text class="cls-34" transform="translate(248.08105 200.09656)"><tspan xml:space="preserve"> A</tspan></text>
    <text class="cls-34" transform="translate(248.08105 223.86121)"><tspan xml:space="preserve"> A</tspan></text>
    <text class="cls-34" transform="translate(247.71289 247.8656)"><tspan xml:space="preserve"> A</tspan></text>
    <text class="cls-34" transform="translate(247.89648 271.55701)"><tspan xml:space="preserve"> A</tspan></text>
    <text class="cls-34" transform="translate(247.89648 295.32166)"><tspan xml:space="preserve"> A</tspan></text>
  </g>
  <g class="cls-33">
    <text class="cls-34" transform="translate(247.51758 319.33777)"><tspan xml:space="preserve"> A</tspan></text>
  </g>
  <text class="cls-35" transform="translate(28.34668 597.89539)">2010/1061</text>
  <text class="cls-36" transform="translate(82.15479 597.89539)"> </text>
  <text class="cls-37" transform="translate(137.20361 554.31335)"> </text>
  <text class="cls-38" transform="translate(261.11621 511.22644)">d</text>
  <text class="cls-38" transform="translate(269.37207 511.22644)">B</text>
  <text class="cls-38" transform="translate(261.11621 574.05847)">d</text>
  <text class="cls-38" transform="translate(269.37207 574.05847)">B</text>
  <path class="cls-23" d="M82.3787,565.0897a5.211,5.211,0,0,0-.119-1.129,2.58476,2.58476,0,0,0-.398-.934,2.05037,2.05037,0,0,0-.731-.636,2.3766,2.3766,0,0,0-1.118-.239,2.05658,2.05658,0,0,0-.548.075,2.39833,2.39833,0,0,0-.558.238,3.89037,3.89037,0,0,0-.598.43,7.18849,7.18849,0,0,0-.654.648,2.53827,2.53827,0,0,0-.307-.566,1.86558,1.86558,0,0,0-.444-.438,2.062,2.062,0,0,0-.601-.285,2.67664,2.67664,0,0,0-.769-.102,2.2245,2.2245,0,0,0-1.106.309,4.501,4.501,0,0,0-1.13.973v-.93a.19923.19923,0,0,0-.026-.105.25016.25016,0,0,0-.089-.079.43425.43425,0,0,0-.172-.046,3.3075,3.3075,0,0,0-.563,0,.50655.50655,0,0,0-.176.046.20241.20241,0,0,0-.091.079.20936.20936,0,0,0-.023.105v7.031a.1962.1962,0,0,0,.026.106.21564.21564,0,0,0,.1.074.75161.75161,0,0,0,.195.047,2.59678,2.59678,0,0,0,.306.015,2.66207,2.66207,0,0,0,.314-.015.70548.70548,0,0,0,.192-.047.242.242,0,0,0,.099-.074.17487.17487,0,0,0,.031-.106v-4.914a5.83619,5.83619,0,0,1,.965-1.008,1.43657,1.43657,0,0,1,.88-.343,1.25659,1.25659,0,0,1,.609.14,1.16365,1.16365,0,0,1,.425.407,2.01865,2.01865,0,0,1,.252.632,3.65255,3.65255,0,0,1,.084.813v4.273a.19641.19641,0,0,0,.027.106.21559.21559,0,0,0,.1.074.76627.76627,0,0,0,.199.047,3.09787,3.09787,0,0,0,.609,0,.77291.77291,0,0,0,.195-.047.24477.24477,0,0,0,.103-.074.182.182,0,0,0,.031-.106v-4.914a6.19472,6.19472,0,0,1,.968-1.008,1.42673,1.42673,0,0,1,.877-.343,1.27428,1.27428,0,0,1,.612.14,1.14415,1.14415,0,0,1,.429.407,1.90006,1.90006,0,0,1,.245.632,3.9958,3.9958,0,0,1,.077.813v4.273a.18143.18143,0,0,0,.03.106.24877.24877,0,0,0,.104.074.75161.75161,0,0,0,.195.047,2.67412,2.67412,0,0,0,.314.015,2.59654,2.59654,0,0,0,.306-.015.6875.6875,0,0,0,.191-.047.246.246,0,0,0,.1-.074.18181.18181,0,0,0,.031-.106Zm-12.245-2.586a.15966.15966,0,0,0-.034-.105.31376.31376,0,0,0-.103-.079.53954.53954,0,0,0-.192-.046q-.123-.012-.306-.012c-.128,0-.231.004-.31.012a.60761.60761,0,0,0-.195.046.238.238,0,0,0-.104.079.19059.19059,0,0,0-.027.105v4.914a5.40429,5.40429,0,0,1-.999,1.008,1.59734,1.59734,0,0,1-.945.344,1.35541,1.35541,0,0,1-.643-.145,1.25152,1.25152,0,0,1-.456-.406,1.88145,1.88145,0,0,1-.268-.633,4.42342,4.42342,0,0,1-.088-.988v-4.094a.1698.1698,0,0,0-.031-.105.26042.26042,0,0,0-.103-.079.57589.57589,0,0,0-.195-.046q-.123-.012-.306-.012c-.123,0-.225.004-.307.012a.62119.62119,0,0,0-.199.046.234.234,0,0,0-.103.079.1905.1905,0,0,0-.027.105v4.266a5.7535,5.7535,0,0,0,.126,1.3,2.61218,2.61218,0,0,0,.418.938,2.058,2.058,0,0,0,.762.637,2.58464,2.58464,0,0,0,1.159.234,2.46218,2.46218,0,0,0,1.164-.305,4.31359,4.31359,0,0,0,1.164-.968v.929a.2275.2275,0,0,0,.023.106.19071.19071,0,0,0,.088.074.62191.62191,0,0,0,.176.047,2.22566,2.22566,0,0,0,.287.015,2.08164,2.08164,0,0,0,.272-.015.6852.6852,0,0,0,.18-.047.218.218,0,0,0,.096-.074.2056.2056,0,0,0,.026-.106Zm-7.862,2.742a5.68028,5.68028,0,0,0-.126-1.285,2.57753,2.57753,0,0,0-.418-.934,2.10378,2.10378,0,0,0-.762-.636,2.543,2.543,0,0,0-1.159-.239,2.45135,2.45135,0,0,0-1.168.309,4.26241,4.26241,0,0,0-1.16.973v-.93a.1905.1905,0,0,0-.027-.105.246.246,0,0,0-.088-.079.4392.4392,0,0,0-.172-.046,3.30767,3.30767,0,0,0-.563,0,.50661.50661,0,0,0-.176.046.21148.21148,0,0,0-.092.079.22041.22041,0,0,0-.023.105v7.031a.19641.19641,0,0,0,.027.106.21564.21564,0,0,0,.1.074.75161.75161,0,0,0,.195.047,2.585,2.585,0,0,0,.306.015,2.67419,2.67419,0,0,0,.314-.015.69694.69694,0,0,0,.191-.047.25326.25326,0,0,0,.1-.074.18188.18188,0,0,0,.031-.106v-4.914a5.22225,5.22225,0,0,1,.995-1.008,1.61138,1.61138,0,0,1,.949-.343,1.42985,1.42985,0,0,1,.647.14,1.17378,1.17378,0,0,1,.456.407,2.05606,2.05606,0,0,1,.268.632,4.14343,4.14343,0,0,1,.092.969v4.117a.18143.18143,0,0,0,.03.106.25326.25326,0,0,0,.1.074.69694.69694,0,0,0,.191.047,2.67419,2.67419,0,0,0,.314.015,2.57319,2.57319,0,0,0,.306-.015.7054.7054,0,0,0,.192-.047.24211.24211,0,0,0,.099-.074.17493.17493,0,0,0,.031-.106Zm-7.929,0a5.61839,5.61839,0,0,0-.127-1.285,2.5594,2.5594,0,0,0-.417-.934,2.10378,2.10378,0,0,0-.762-.636,2.54742,2.54742,0,0,0-1.16-.239,2.45053,2.45053,0,0,0-1.167.309,4.2477,4.2477,0,0,0-1.16.973v-.93a.1905.1905,0,0,0-.027-.105.246.246,0,0,0-.088-.079.4392.4392,0,0,0-.172-.046,2.69588,2.69588,0,0,0-.28-.012,2.65281,2.65281,0,0,0-.283.012.50056.50056,0,0,0-.176.046.20576.20576,0,0,0-.092.079.22041.22041,0,0,0-.023.105v7.031a.19641.19641,0,0,0,.027.106.21749.21749,0,0,0,.099.074.7712.7712,0,0,0,.196.047,2.57319,2.57319,0,0,0,.306.015,2.68607,2.68607,0,0,0,.314-.015.7067.7067,0,0,0,.191-.047.25326.25326,0,0,0,.1-.074.18143.18143,0,0,0,.03-.106v-4.914a5.224,5.224,0,0,1,.996-1.008,1.60909,1.60909,0,0,1,.949-.343,1.42985,1.42985,0,0,1,.647.14,1.17378,1.17378,0,0,1,.456.407,2.03118,2.03118,0,0,1,.267.632,4.08994,4.08994,0,0,1,.092.969v4.117a.18188.18188,0,0,0,.031.106.24612.24612,0,0,0,.1.074.68741.68741,0,0,0,.191.047,2.67419,2.67419,0,0,0,.314.015,2.59678,2.59678,0,0,0,.306-.015.68741.68741,0,0,0,.191-.047.24612.24612,0,0,0,.1-.074.18188.18188,0,0,0,.031-.106Zm-9.193,2.578a3.93288,3.93288,0,0,1-.892.789,1.742,1.742,0,0,1-.922.258,1.32607,1.32607,0,0,1-.953-.324,1.14331,1.14331,0,0,1-.341-.871,1.28075,1.28075,0,0,1,.119-.567,1.082,1.082,0,0,1,.371-.421,1.823,1.823,0,0,1,.635-.266,3.99676,3.99676,0,0,1,.904-.09h1.079Zm1.256-3.023a4.07155,4.07155,0,0,0-.146-1.149,1.95781,1.95781,0,0,0-.467-.824,2.04133,2.04133,0,0,0-.842-.504,4.07518,4.07518,0,0,0-1.263-.172,4.18417,4.18417,0,0,0-.789.075,5.1858,5.1858,0,0,0-.719.187,3.8954,3.8954,0,0,0-.582.25,1.67389,1.67389,0,0,0-.356.238.44466.44466,0,0,0-.13.215,1.39879,1.39879,0,0,0-.027.309,1.42248,1.42248,0,0,0,.015.215.48659.48659,0,0,0,.05.16.27041.27041,0,0,0,.08.094.19542.19542,0,0,0,.108.031.64179.64179,0,0,0,.279-.113q.1875-.114.467-.25a4.35512,4.35512,0,0,1,.651-.25,2.85,2.85,0,0,1,.838-.114,2.20507,2.20507,0,0,1,.735.106,1.16083,1.16083,0,0,1,.486.312,1.24242,1.24242,0,0,1,.272.52,2.77807,2.77807,0,0,1,.084.719v.546h-.949a6.64193,6.64193,0,0,0-1.447.145,3.29172,3.29172,0,0,0-1.087.434,1.98764,1.98764,0,0,0-.682.726,2.13575,2.13575,0,0,0-.237,1.031,2.26419,2.26419,0,0,0,.172.907,1.87284,1.87284,0,0,0,.483.671,2.08836,2.08836,0,0,0,.75.418,3.12062,3.12062,0,0,0,.984.145,2.62879,2.62879,0,0,0,1.175-.273,3.423,3.423,0,0,0,1.007-.766v.703a.18029.18029,0,0,0,.053.141.3801.3801,0,0,0,.173.07,1.67971,1.67971,0,0,0,.317.023,1.54994,1.54994,0,0,0,.314-.023.43472.43472,0,0,0,.169-.07.16914.16914,0,0,0,.061-.141Zm-5.697-6.149a.33506.33506,0,0,0,.023-.179.19453.19453,0,0,0-.085-.125.53581.53581,0,0,0-.191-.074,1.42817,1.42817,0,0,0-.314-.028,2.72085,2.72085,0,0,0-.276.012.55439.55439,0,0,0-.187.047.3483.3483,0,0,0-.123.094.43525.43525,0,0,0-.08.16l-4.632,12.961a.2868.2868,0,0,0-.031.175.20352.20352,0,0,0,.085.125.51625.51625,0,0,0,.195.079,1.55244,1.55244,0,0,0,.317.027,1.89334,1.89334,0,0,0,.272-.016.769.769,0,0,0,.188-.047.311.311,0,0,0,.126-.089.466.466,0,0,0,.081-.161Zm-6.238,10.227a.55235.55235,0,0,0-.05-.176.27555.27555,0,0,0-.084-.101.19692.19692,0,0,0-.119-.035h-3.552v-8.743a.19083.19083,0,0,0-.031-.109.20243.20243,0,0,0-.107-.074,1.163,1.163,0,0,0-.203-.047,2.13142,2.13142,0,0,0-.318-.02,2.15972,2.15972,0,0,0-.314.02,1.16178,1.16178,0,0,0-.206.047.20243.20243,0,0,0-.107.074.19083.19083,0,0,0-.031.109v9.36a.50392.50392,0,0,0,.157.425.53309.53309,0,0,0,.333.122h4.379a.19752.19752,0,0,0,.119-.036.26152.26152,0,0,0,.084-.109.63206.63206,0,0,0,.05-.18,1.89373,1.89373,0,0,0,.015-.261,1.9941,1.9941,0,0,0-.015-.266"/>
  <path class="cls-23" d="M126.9097,569.3364a1.11745,1.11745,0,0,1-.348.43,1.87852,1.87852,0,0,1-.637.3,3.58673,3.58673,0,0,1-.98.114,3.23574,3.23574,0,0,1-1.438-.262.828.828,0,0,1-.515-.77,1.41946,1.41946,0,0,1,.035-.32,1.07616,1.07616,0,0,1,.129-.316,1.97892,1.97892,0,0,1,.254-.336,3.24326,3.24326,0,0,1,.41-.371l1.82.062a1.88965,1.88965,0,0,1,1.004.262.791.791,0,0,1,.371.699,1.26641,1.26641,0,0,1-.105.508m-.633-5.492a1.41478,1.41478,0,0,1-.274.496,1.25026,1.25026,0,0,1-.465.336,1.6645,1.6645,0,0,1-.664.121,1.37532,1.37532,0,0,1-1.5-1.492,1.97253,1.97253,0,0,1,.09-.598,1.45083,1.45083,0,0,1,.274-.504,1.27843,1.27843,0,0,1,.461-.344,1.57675,1.57675,0,0,1,.652-.125,1.49689,1.49689,0,0,1,1.121.403,1.53286,1.53286,0,0,1,.395,1.121,1.91428,1.91428,0,0,1-.09.586m2.039-2.832a.21393.21393,0,0,0-.199-.129h-2.125a4.25118,4.25118,0,0,0-.52-.098,4.848,4.848,0,0,0-.598-.035,3.31162,3.31162,0,0,0-1.097.176,2.46783,2.46783,0,0,0-.864.504,2.28558,2.28558,0,0,0-.562.804,2.7158,2.7158,0,0,0-.203,1.078,2.45509,2.45509,0,0,0,.14.879,2.31473,2.31473,0,0,0,.383.653,2.82043,2.82043,0,0,0-.484.672,1.81817,1.81817,0,0,0-.195.851,1.20084,1.20084,0,0,0,.183.641,1.3716,1.3716,0,0,0,.567.492,4.148,4.148,0,0,0-.442.395,2.23975,2.23975,0,0,0-.32.417,1.80044,1.80044,0,0,0-.192.461,2.03213,2.03213,0,0,0-.062.5,1.66977,1.66977,0,0,0,.172.754,1.5254,1.5254,0,0,0,.554.598,3.16472,3.16472,0,0,0,.981.395,6.27092,6.27092,0,0,0,1.449.144,5.45727,5.45727,0,0,0,1.531-.191,3.111,3.111,0,0,0,1.067-.524,2.136,2.136,0,0,0,.621-.769,2.171,2.171,0,0,0,.203-.922,1.73506,1.73506,0,0,0-.18-.809,1.68608,1.68608,0,0,0-.5-.586,2.3817,2.3817,0,0,0-.757-.367,3.78307,3.78307,0,0,0-.961-.144l-1.836-.079a1.22212,1.22212,0,0,1-.676-.195.53844.53844,0,0,1-.254-.453.9136.9136,0,0,1,.09-.414,1.22422,1.22422,0,0,1,.23-.32,1.727,1.727,0,0,0,.598.285,2.90921,2.90921,0,0,0,.816.113,3.38833,3.38833,0,0,0,1.11-.172,2.49272,2.49272,0,0,0,.863-.496,2.16727,2.16727,0,0,0,.559-.793,2.78629,2.78629,0,0,0,.195-1.078,2.32153,2.32153,0,0,0-.109-.707,1.58005,1.58005,0,0,0-.383-.621h1.008a.21919.21919,0,0,0,.191-.121.79419.79419,0,0,0,.074-.395.9.9,0,0,0-.066-.394m-7.587,6.945a1.65028,1.65028,0,0,0-.145-.215l-2.859-3.711,2.547-2.547a1.13493,1.13493,0,0,0,.168-.218.39127.39127,0,0,0,.051-.188.17339.17339,0,0,0-.035-.113.24974.24974,0,0,0-.118-.07.91853.91853,0,0,0-.214-.04c-.089-.007-.198-.011-.329-.011-.125,0-.231.004-.32.011a.94106.94106,0,0,0-.23.047.632.632,0,0,0-.301.215l-2.656,2.922v-6.359a.19466.19466,0,0,0-.032-.11.23087.23087,0,0,0-.101-.078.73019.73019,0,0,0-.196-.047,2.77316,2.77316,0,0,0-.32-.015,2.68206,2.68206,0,0,0-.312.015.79728.79728,0,0,0-.2.047.2049.2049,0,0,0-.101.078.2187.2187,0,0,0-.027.11v10.437a.19641.19641,0,0,0,.027.106.21921.21921,0,0,0,.101.074.79636.79636,0,0,0,.2.047,2.68206,2.68206,0,0,0,.312.015,2.77316,2.77316,0,0,0,.32-.015.72938.72938,0,0,0,.196-.047.25.25,0,0,0,.101-.074.17538.17538,0,0,0,.032-.106v-3.898l2.968,3.89a.5979.5979,0,0,0,.106.121.41223.41223,0,0,0,.152.079,1.23824,1.23824,0,0,0,.231.039c.091.007.207.011.347.011a3.07355,3.07355,0,0,0,.336-.015.79688.79688,0,0,0,.207-.047.23118.23118,0,0,0,.106-.078.2021.2021,0,0,0,.031-.11.32644.32644,0,0,0-.043-.152"/>
  <path class="cls-23" d="M279.53479,432.321a5.40754,5.40754,0,0,0-.129-1.199,2.71482,2.71482,0,0,0-.432-.992,2.19482,2.19482,0,0,0-.792-.677,2.61953,2.61953,0,0,0-1.212-.253,2.27056,2.27056,0,0,0-.594.079,2.64544,2.64544,0,0,0-.606.253,4.19625,4.19625,0,0,0-.647.457,7.70166,7.70166,0,0,0-.71.688,2.70321,2.70321,0,0,0-.332-.601,2.02513,2.02513,0,0,0-.481-.465,2.261,2.261,0,0,0-.652-.303,2.969,2.969,0,0,0-.834-.108,2.45573,2.45573,0,0,0-1.2.328,4.84418,4.84418,0,0,0-1.224,1.033v-.988a.20981.20981,0,0,0-.029-.112.26848.26848,0,0,0-.096-.083.47983.47983,0,0,0-.186-.049,3.59577,3.59577,0,0,0-.611,0,.5478.5478,0,0,0-.19.049.18922.18922,0,0,0-.125.195v7.471a.205.205,0,0,0,.029.112.2203.2203,0,0,0,.108.079.82716.82716,0,0,0,.212.05,2.77246,2.77246,0,0,0,.332.016,2.862,2.862,0,0,0,.34-.016.76241.76241,0,0,0,.208-.05.25586.25586,0,0,0,.107-.079.17771.17771,0,0,0,.034-.112v-5.221a6.26147,6.26147,0,0,1,1.046-1.071,1.58021,1.58021,0,0,1,.954-.365,1.38019,1.38019,0,0,1,.66.149,1.25993,1.25993,0,0,1,.461.432,2.13223,2.13223,0,0,1,.274.672,3.79292,3.79292,0,0,1,.091.864v4.54a.20472.20472,0,0,0,.029.112.22015.22015,0,0,0,.108.079.83114.83114,0,0,0,.216.05,3.41323,3.41323,0,0,0,.66,0,.818.818,0,0,0,.211-.05.2502.2502,0,0,0,.112-.079.17771.17771,0,0,0,.034-.112v-5.221a6.53408,6.53408,0,0,1,1.05-1.071,1.56524,1.56524,0,0,1,.95-.365,1.405,1.405,0,0,1,.664.149,1.24783,1.24783,0,0,1,.465.432,1.99471,1.99471,0,0,1,.266.672,4.18926,4.18926,0,0,1,.083.864v4.54a.18362.18362,0,0,0,.033.112.25009.25009,0,0,0,.112.079.81623.81623,0,0,0,.212.05,2.86161,2.86161,0,0,0,.34.016,2.78363,2.78363,0,0,0,.332-.016.75388.75388,0,0,0,.207-.05.25315.25315,0,0,0,.108-.079.184.184,0,0,0,.034-.112Zm-13.44-2.748a.17254.17254,0,0,0-.038-.112.34324.34324,0,0,0-.112-.083.5876.5876,0,0,0-.207-.049c-.089-.009-.199-.013-.332-.013a3.36059,3.36059,0,0,0-.336.013.66948.66948,0,0,0-.212.049.25437.25437,0,0,0-.112.083.20113.20113,0,0,0-.029.112v5.222a5.83028,5.83028,0,0,1-1.083,1.07,1.75452,1.75452,0,0,1-1.026.366,1.49767,1.49767,0,0,1-.697-.154,1.34153,1.34153,0,0,1-.494-.432,1.94537,1.94537,0,0,1-.29-.672,4.60633,4.60633,0,0,1-.096-1.05v-4.35a.18774.18774,0,0,0-.033-.112.28813.28813,0,0,0-.112-.083.637.637,0,0,0-.212-.049c-.088-.009-.199-.013-.332-.013s-.243.004-.332.013a.68991.68991,0,0,0-.216.049.26039.26039,0,0,0-.112.083.20955.20955,0,0,0-.029.112v4.533a6.00807,6.00807,0,0,0,.137,1.382,2.73586,2.73586,0,0,0,.453.996,2.20114,2.20114,0,0,0,.826.676,2.85015,2.85015,0,0,0,1.257.249,2.71892,2.71892,0,0,0,1.262-.323,4.66359,4.66359,0,0,0,1.262-1.03v.988a.22369.22369,0,0,0,.025.112.19313.19313,0,0,0,.095.079.679.679,0,0,0,.191.05,2.38278,2.38278,0,0,0,.311.016,2.232,2.232,0,0,0,.295-.016.74273.74273,0,0,0,.195-.05.22719.22719,0,0,0,.104-.079.205.205,0,0,0,.029-.112Zm-8.69,2.914a5.86435,5.86435,0,0,0-.137-1.365,2.69349,2.69349,0,0,0-.452-.992,2.2604,2.2604,0,0,0-.826-.677,2.80707,2.80707,0,0,0-1.257-.253,2.6963,2.6963,0,0,0-1.266.328,4.59081,4.59081,0,0,0-1.258,1.033v-.988a.20964.20964,0,0,0-.029-.112.26376.26376,0,0,0-.095-.083.49054.49054,0,0,0-.187-.049,3.58423,3.58423,0,0,0-.61,0,.55375.55375,0,0,0-.191.049.22688.22688,0,0,0-.1.083.24048.24048,0,0,0-.025.112v7.471a.20489.20489,0,0,0,.029.112.23028.23028,0,0,0,.108.079.82677.82677,0,0,0,.212.05,2.77246,2.77246,0,0,0,.332.016,2.862,2.862,0,0,0,.34-.016.762.762,0,0,0,.208-.05.25308.25308,0,0,0,.108-.079.18356.18356,0,0,0,.033-.112v-5.221a5.59756,5.59756,0,0,1,1.079-1.071,1.77288,1.77288,0,0,1,1.029-.365,1.57644,1.57644,0,0,1,.702.149,1.2704,1.2704,0,0,1,.494.432,2.12413,2.12413,0,0,1,.29.672,4.27989,4.27989,0,0,1,.1,1.03v4.374a.18355.18355,0,0,0,.033.112.253.253,0,0,0,.108.079.763.763,0,0,0,.207.05,2.88,2.88,0,0,0,.341.016,2.784,2.784,0,0,0,.332-.016.76336.76336,0,0,0,.207-.05.25325.25325,0,0,0,.108-.079.18362.18362,0,0,0,.033-.112Zm-8.761,0a5.918,5.918,0,0,0-.137-1.365,2.67879,2.67879,0,0,0-.453-.992,2.25174,2.25174,0,0,0-.826-.677,2.80715,2.80715,0,0,0-1.257-.253,2.70238,2.70238,0,0,0-1.266.328,4.59093,4.59093,0,0,0-1.258,1.033v-.988a.20105.20105,0,0,0-.029-.112.264.264,0,0,0-.095-.083.48552.48552,0,0,0-.187-.049,3.58423,3.58423,0,0,0-.61,0,.56.56,0,0,0-.191.049.21778.21778,0,0,0-.099.083.229.229,0,0,0-.025.112v7.471a.19663.19663,0,0,0,.029.112.22034.22034,0,0,0,.108.079.81808.81808,0,0,0,.211.05,2.79532,2.79532,0,0,0,.332.016,2.8805,2.8805,0,0,0,.341-.016.76336.76336,0,0,0,.207-.05.25321.25321,0,0,0,.108-.079.18368.18368,0,0,0,.033-.112v-5.221a5.62615,5.62615,0,0,1,1.079-1.071,1.77328,1.77328,0,0,1,1.03-.365,1.57506,1.57506,0,0,1,.701.149,1.26325,1.26325,0,0,1,.494.432,2.14827,2.14827,0,0,1,.291.672,4.33779,4.33779,0,0,1,.099,1.03v4.374a.18362.18362,0,0,0,.033.112.25315.25315,0,0,0,.108.079.76222.76222,0,0,0,.208.05,2.8618,2.8618,0,0,0,.34.016,2.77257,2.77257,0,0,0,.332-.016.762.762,0,0,0,.208-.05.2662.2662,0,0,0,.108-.079.18356.18356,0,0,0,.033-.112Zm-10.133,2.739a4.31866,4.31866,0,0,1-.967.839,1.92893,1.92893,0,0,1-1,.274,1.45636,1.45636,0,0,1-1.034-.345,1.20373,1.20373,0,0,1-.369-.925,1.34293,1.34293,0,0,1,.129-.602,1.15545,1.15545,0,0,1,.402-.448,2.016,2.016,0,0,1,.689-.283,4.45654,4.45654,0,0,1,.98-.095h1.17Zm1.361-3.212a4.24174,4.24174,0,0,0-.157-1.22,2.07441,2.07441,0,0,0-.507-.876,2.20813,2.20813,0,0,0-.913-.535,4.47445,4.47445,0,0,0-1.369-.183,4.61769,4.61769,0,0,0-.855.079,5.65824,5.65824,0,0,0-.781.199,4.21809,4.21809,0,0,0-.631.266,1.83549,1.83549,0,0,0-.386.253.48553.48553,0,0,0-.141.228,1.48375,1.48375,0,0,0-.029.328,1.45049,1.45049,0,0,0,.017.228.5074.5074,0,0,0,.054.17.2796.2796,0,0,0,.087.1.2049.2049,0,0,0,.116.033.69492.69492,0,0,0,.303-.12c.136-.08.304-.169.507-.266a4.77981,4.77981,0,0,1,.705-.265,3.14088,3.14088,0,0,1,.909-.121,2.48037,2.48037,0,0,1,.797.112,1.27657,1.27657,0,0,1,.527.332,1.30991,1.30991,0,0,1,.295.552,2.88985,2.88985,0,0,1,.091.764v.581h-1.029a7.27951,7.27951,0,0,0-1.569.154,3.63837,3.63837,0,0,0-1.179.46,2.14514,2.14514,0,0,0-.739.772,2.23346,2.23346,0,0,0-.257,1.096,2.35386,2.35386,0,0,0,.187.963,1.993,1.993,0,0,0,.523.714,2.31115,2.31115,0,0,0,.813.444,3.48512,3.48512,0,0,0,1.067.153,2.88851,2.88851,0,0,0,1.274-.29,3.70013,3.70013,0,0,0,1.092-.814v.747a.18531.18531,0,0,0,.058.15.412.412,0,0,0,.186.075,1.96963,1.96963,0,0,0,.345.024,1.8022,1.8022,0,0,0,.34-.024.47187.47187,0,0,0,.183-.075.17544.17544,0,0,0,.066-.15Zm-6.343-6.533a.35193.35193,0,0,0,.025-.191.20614.20614,0,0,0-.092-.133.60574.60574,0,0,0-.207-.078,1.60359,1.60359,0,0,0-.341-.029c-.116,0-.215.004-.298.012a.6218.6218,0,0,0-.204.05.41326.41326,0,0,0-.133.099.47265.47265,0,0,0-.087.171l-5.022,13.771a.30178.30178,0,0,0-.033.186.21874.21874,0,0,0,.091.133.56108.56108,0,0,0,.212.083,1.72777,1.72777,0,0,0,.345.029,2.2176,2.2176,0,0,0,.294-.016.95146.95146,0,0,0,.204-.05.347.347,0,0,0,.137-.096.45876.45876,0,0,0,.087-.17Zm-7.436,7.014a5.96143,5.96143,0,0,0-.137-1.373,2.679,2.679,0,0,0-.453-.992,2.25657,2.25657,0,0,0-.825-.677,2.81467,2.81467,0,0,0-1.258-.253,2.64156,2.64156,0,0,0-1.204.303,4.427,4.427,0,0,0-1.187.925v-4.474a.205.205,0,0,0-.033-.116.24287.24287,0,0,0-.108-.083.76317.76317,0,0,0-.207-.05,2.88186,2.88186,0,0,0-.341-.016,2.79685,2.79685,0,0,0-.332.016.81766.81766,0,0,0-.211.05.21292.21292,0,0,0-.108.083.21969.21969,0,0,0-.029.116v11.09a.19655.19655,0,0,0,.029.112.2202.2202,0,0,0,.108.079.81766.81766,0,0,0,.211.05,2.795,2.795,0,0,0,.332.016,2.88,2.88,0,0,0,.341-.016.76317.76317,0,0,0,.207-.05.25308.25308,0,0,0,.108-.079.18362.18362,0,0,0,.033-.112v-5.221a5.62614,5.62614,0,0,1,1.079-1.071,1.778,1.778,0,0,1,1.03-.365,1.57508,1.57508,0,0,1,.701.149,1.26325,1.26325,0,0,1,.494.432,2.14827,2.14827,0,0,1,.291.672,4.33831,4.33831,0,0,1,.099,1.03v4.374a.18362.18362,0,0,0,.033.112.25943.25943,0,0,0,.108.079.76221.76221,0,0,0,.208.05,2.86173,2.86173,0,0,0,.34.016,2.77246,2.77246,0,0,0,.332-.016.76221.76221,0,0,0,.208-.05.25943.25943,0,0,0,.108-.079.18356.18356,0,0,0,.033-.112Zm-8.135-5.47a1.94665,1.94665,0,0,0,.046-.299.20163.20163,0,0,0-.063-.166.41615.41615,0,0,0-.211-.079,3.11571,3.11571,0,0,0-.395-.02,3.60394,3.60394,0,0,0-.386.016.85334.85334,0,0,0-.224.05.18028.18028,0,0,0-.104.096c-.016.041-.033.09-.049.145l-2.366,8.99h-.017l-2.465-8.982a.60806.60806,0,0,0-.062-.153.23344.23344,0,0,0-.121-.096.88932.88932,0,0,0-.22-.05,3.24889,3.24889,0,0,0-.369-.016,3.964,3.964,0,0,0-.403.016.93334.93334,0,0,0-.236.05.23352.23352,0,0,0-.121.096.6482.6482,0,0,0-.062.153l-2.291,8.982h-.008l-2.416-8.999a.587.587,0,0,0-.045-.149.20314.20314,0,0,0-.108-.091.77941.77941,0,0,0-.228-.046c-.1-.008-.236-.012-.407-.012-.177,0-.318.005-.424.016a.42913.42913,0,0,0-.228.075.192.192,0,0,0-.066.166,1.53024,1.53024,0,0,0,.054.299l2.839,9.919a.35639.35639,0,0,0,.265.295,1.41452,1.41452,0,0,0,.299.054c.122.011.274.016.457.016.177,0,.322-.005.435-.016a1.22048,1.22048,0,0,0,.278-.054.35929.35929,0,0,0,.166-.108.41989.41989,0,0,0,.083-.187l2.076-8.11h.016l2.25,8.11a.50237.50237,0,0,0,.091.187.36631.36631,0,0,0,.174.108,1.40885,1.40885,0,0,0,.295.054c.119.011.264.016.436.016.166,0,.306-.005.419-.016a1.37577,1.37577,0,0,0,.286-.054.42065.42065,0,0,0,.183-.108.4454.4454,0,0,0,.1-.187Zm-14.771,9.849a1.69021,1.69021,0,0,0-.154-.228l-3.038-3.943,2.706-2.706a1.19382,1.19382,0,0,0,.179-.233.41112.41112,0,0,0,.054-.199.18164.18164,0,0,0-.038-.12.26057.26057,0,0,0-.124-.075,1.03233,1.03233,0,0,0-.228-.041c-.094-.009-.211-.013-.349-.013-.133,0-.246.004-.34.013a.96514.96514,0,0,0-.245.049.73309.73309,0,0,0-.179.092.75383.75383,0,0,0-.141.137l-2.822,3.104v-6.757a.20489.20489,0,0,0-.033-.116.24275.24275,0,0,0-.108-.083.76221.76221,0,0,0-.208-.05,2.86356,2.86356,0,0,0-.34-.016,2.77429,2.77429,0,0,0-.332.016.827.827,0,0,0-.212.05.22211.22211,0,0,0-.108.083.22948.22948,0,0,0-.029.116v11.09a.2048.2048,0,0,0,.029.112.23025.23025,0,0,0,.108.079.827.827,0,0,0,.212.05,2.77246,2.77246,0,0,0,.332.016,2.86173,2.86173,0,0,0,.34-.016.76221.76221,0,0,0,.208-.05.25294.25294,0,0,0,.108-.079.18356.18356,0,0,0,.033-.112v-4.142l3.154,4.134a.67376.67376,0,0,0,.112.129.44154.44154,0,0,0,.162.083,1.29441,1.29441,0,0,0,.245.041q.1455.012.369.012a3.18373,3.18373,0,0,0,.357-.016.837.837,0,0,0,.22-.05.24028.24028,0,0,0,.112-.083.1982.1982,0,0,0,.034-.116.35779.35779,0,0,0-.046-.162"/>
  <g id="rating">
    <polyline id="ratingArrow" class="cls-23" points="208.23 169.82 227.74 150.12 286.7 150.12 286.7 189.49 227.74 189.49 208.23 169.82"/>
    <text id="ratingLetter" class="cls-39" transform="translate(222.41016 178.32996)">A</text>
    <text id="ratingPlusses" class="cls-40" transform="translate(241.40039 169.11023)">+++</text>
  </g>
  <text id="supplier" class="cls-38" transform="translate(25.50977 119.05017)">X</text>
  <text id="model" class="cls-38" transform="translate(164.41016 119.05017)">X</text>
  <text id="kwhAnnum" class="cls-41" transform="translate(239 421.24988)" text-anchor="middle">X</text>
  <text id="kg" class="cls-37" transform="translate(123.2 554.31042)" text-anchor="middle">X</text>
  <text id="washDb" class="cls-37" transform="translate(261 511.23035)" text-anchor="end">X</text>
  <text id="spinDb" class="cls-37" transform="translate(261 574.07019)" text-anchor="end">X</text>
  <text id="spinClass" class="cls-36" transform="translate(189.5 555.53015) scale(1 1.33333)" text-anchor="middle">
    <!-- Do not pretty-print these spans - they need to be all on one line to avoid whitespace between them when rendering -->
    <tspan id="spinClassALetter">A</tspan><tspan id="spinClassBLetter">B</tspan><tspan id="spinClassCLetter">C</tspan><tspan id="spinClassDLetter">D</tspan><tspan id="spinClassELetter">E</tspan><tspan id="spinClassFLetter">F</tspan><tspan id="spinClassGLetter">G</tspan>
  </text>
  <text id="lAnnum" class="cls-43" transform="translate(55 554.1698) scale(1 1.17647)" text-anchor="middle">X</text>
</svg>
