<svg id="Layer_1" data-name="Layer 1" xmlns="http://www.w3.org/2000/svg" xmlns:xlink="http://www.w3.org/1999/xlink" width="96mm" height="192mm" viewBox="0 0 272.12601 544.25201" data-rating-increment="28.3333" data-supplier-model-chars-per-row="20">
  <defs>
    <style>
      .spinClassA #spinClassALetter,
      .spinClassB #spinClassBLetter,
      .spinClassC #spinClassCLetter,
      .spinClassD #spinClassDLetter,
      .spinClassE #spinClassELetter,
      .spinClassF #spinClassFLetter,
      .spinClassG #spinClassGLetter {
        font-size: 16px;
        font-weight: 700;
        font-family: Verdana-Bold, Verdana;
      }

      .noiseClassA #noiseClassALetter,
      .noiseClassB #noiseClassBLetter,
      .noiseClassC #noiseClassCLetter,
      .noiseClassD #noiseClassDLetter {
        font-size: 16px;
        font-weight: 700;
        font-family: Verdana-Bold, Verdana;
      }

      .cls-1, .cls-15, .cls-16, .cls-27, .cls-4 {
        fill: none;
      }

      .cls-2 {
        fill: #d0d0d0;
      }

      .cls-3 {
        font-size: 7.63636px;
      }

      .cls-18, .cls-19, .cls-20, .cls-21, .cls-22, .cls-23, .cls-24, .cls-26, .cls-3 {
        fill: #1d1d1b;
      }

      .cls-18, .cls-21, .cls-23, .cls-26, .cls-3 {
        font-family: Verdana;
      }

      .cls-15, .cls-16, .cls-27, .cls-4 {
        stroke: #1d1d1b;
      }

      .cls-4 {
        stroke-width: 0.5px;
      }

      .cls-5 {
        fill: #e30613;
      }

      .cls-6 {
        fill: #ec6608;
      }

      .cls-7 {
        fill: #fbba00;
      }

      .cls-8 {
        fill: #ffed00;
      }

      .cls-9 {
        fill: #c8d400;
      }

      .cls-10 {
        fill: #52ae32;
      }

      .cls-11 {
        fill: #009640;
      }

      .cls-12 {
        clip-path: url(#clip-path);
      }

      .cls-13 {
        font-size: 18.8299px;
      }

      .cls-13, .cls-17, .cls-30 {
        fill: #fff;
      }

      .cls-13, .cls-30 {
        font-family: Calibri-Bold, Calibri;
      }

      .cls-13, .cls-20, .cls-22, .cls-24, .cls-30 {
        font-weight: 700;
      }

      .cls-14 {
        fill: #164194;
      }

      .cls-15 {
        stroke-miterlimit: 10;
      }

      .cls-15, .cls-16 {
        stroke-width: 1.2px;
      }

      .cls-16 {
        stroke-linecap: round;
        stroke-linejoin: round;
      }

      .cls-18 {
        font-size: 6px;
      }

      .cls-20, .cls-21 {
        font-size: 9px;
      }

      .cls-20, .cls-22, .cls-24 {
        font-family: Verdana-Bold, Verdana;
      }

      .cls-22 {
        font-size: 14px;
      }

      .cls-23 {
        font-size: 10px;
      }

      .cls-24 {
        font-size: 16px;
      }

      .cls-25 {
        letter-spacing: 0.079em;
      }

      .cls-26 {
        font-size: 7px;
      }

      .cls-27 {
        stroke-width: 0.8px;
      }

      .cls-28 {
        fill: #004289;
      }

      .cls-29 {
        fill: #da2e33;
      }

      .cls-30 {
        font-size: 25.6707px;
      }
    </style>
    <clipPath id="clip-path">
      <rect class="cls-1" width="272.12601" height="544.25201"/>
    </clipPath>
  </defs>
  <g id="qrCode">
    <rect class="cls-2" x="223.82323" y="8.50403" width="39.68504" height="39.68504"/>
    <text class="cls-3" transform="translate(227.70317 30.48638)">QR code</text>
  </g>
  <line class="cls-4" x1="8.5972" y1="76.51752" x2="263.62219" y2="76.51752"/>
  <polygon class="cls-5" points="73.701 258.026 8.504 258.026 8.504 282.12 73.701 282.12 85.04 270.073 73.701 258.026"/>
  <polygon class="cls-6" points="66.614 229.615 8.504 229.615 8.504 253.774 66.614 253.774 77.953 241.695 66.614 229.615"/>
  <polygon class="cls-7" points="60.777 201.268 8.504 201.268 8.504 225.362 60.777 225.362 72.284 213.315 60.777 201.268"/>
  <polygon class="cls-8" points="55.41 172.922 8.504 172.922 8.504 197.016 55.41 197.016 66.614 184.969 55.41 172.922"/>
  <polygon class="cls-9" points="48.08 144.575 8.504 144.575 8.504 168.669 48.08 168.669 59.528 156.622 48.08 144.575"/>
  <polygon class="cls-10" points="42.68 116.229 8.504 116.229 8.504 140.323 42.68 140.323 53.858 128.276 42.68 116.229"/>
  <polygon class="cls-11" points="37.033 87.882 8.504 87.882 8.504 111.976 37.033 111.976 48.189 99.929 37.033 87.882"/>
  <g class="cls-12">
    <text class="cls-13" transform="translate(14.11377 105.79254) scale(1 1.012)">A</text>
    <text class="cls-13" transform="translate(14.71631 134.33844) scale(1 1.012)">B</text>
    <text class="cls-13" transform="translate(14.69727 162.9986) scale(1 1.012)">C</text>
    <text class="cls-13" transform="translate(13.58643 190.99127) scale(1 1.012)">D</text>
    <text class="cls-13" transform="translate(14.54687 219.70856) scale(1 1.012)">E</text>
    <text class="cls-13" transform="translate(14.69727 247.68268) scale(1 1.012)">F</text>
    <text class="cls-13" transform="translate(13.62402 276.09479) scale(1 1.012)">G</text>
  </g>
  <polygon class="cls-5" points="209.693 258.026 144.496 258.026 144.496 282.12 209.693 282.12 221.032 270.073 209.693 258.026"/>
  <polygon class="cls-6" points="202.606 229.615 144.496 229.615 144.496 253.774 202.606 253.774 213.945 241.695 202.606 229.615"/>
  <polygon class="cls-7" points="196.769 201.268 144.496 201.268 144.496 225.362 196.769 225.362 208.276 213.315 196.769 201.268"/>
  <polygon class="cls-8" points="191.402 172.922 144.496 172.922 144.496 197.016 191.402 197.016 202.606 184.969 191.402 172.922"/>
  <polygon class="cls-9" points="184.072 144.575 144.496 144.575 144.496 168.669 184.072 168.669 195.52 156.622 184.072 144.575"/>
  <polygon class="cls-10" points="178.672 116.229 144.496 116.229 144.496 140.323 178.672 140.323 189.85 128.276 178.672 116.229"/>
  <polygon class="cls-11" points="173.025 87.882 144.496 87.882 144.496 111.976 173.025 111.976 184.181 99.929 173.025 87.882"/>
  <g class="cls-12">
    <text class="cls-13" transform="translate(150.07715 105.79254) scale(1 1.012)">A</text>
    <text class="cls-13" transform="translate(150.66113 134.33844) scale(1 1.012)">B</text>
    <text class="cls-13" transform="translate(150.34082 162.9986) scale(1 1.012)">C</text>
    <text class="cls-13" transform="translate(149.92676 190.99127) scale(1 1.012)">D</text>
    <text class="cls-13" transform="translate(150.96191 219.70856) scale(1 1.012)">E</text>
    <text class="cls-13" transform="translate(151.13184 247.68268) scale(1 1.012)">F</text>
    <text class="cls-13" transform="translate(150.00195 276.07623) scale(1 1.012)">G</text>
  </g>
  <line class="cls-4" x1="8.504" y1="294.69492" x2="127.559" y2="294.69492"/>
  <line class="cls-4" x1="8.504" y1="328.59221" x2="127.559" y2="328.59221"/>
  <line class="cls-4" x1="8.504" y1="470.44791" x2="261.328" y2="470.44791"/>
  <line class="cls-4" x1="145.0119" y1="328.51021" x2="264.06689" y2="328.51021"/>
  <line class="cls-4" x1="144.6378" y1="294.94492" x2="265.8898" y2="294.94492"/>
  <polygon class="cls-14" points="79.52 19.856 79.52 25.274 92.241 25.274 92.241 30.817 79.52 30.817 79.52 37.038 92.786 37.038 92.786 42.581 73.701 42.581 73.701 14.186 92.786 14.186 92.786 19.856 79.52 19.856"/>
  <polygon class="cls-14" points="120.369 14.187 120.369 42.582 113.421 42.582 101.743 23.708 101.743 42.582 95.923 42.582 95.923 14.187 102.872 14.187 114.549 33.315 114.549 14.187 120.369 14.187"/>
  <polygon class="cls-14" points="129.493 19.856 129.493 25.274 142.214 25.274 142.214 30.817 129.493 30.817 129.493 37.038 142.759 37.038 142.759 42.581 123.674 42.581 123.674 14.186 142.759 14.186 142.759 19.856 129.493 19.856"/>
  <g class="cls-12">
    <path class="cls-14" d="M151.62949,26.92444h6.571a10.21588,10.21588,0,0,0,2.051-.169,3.46332,3.46332,0,0,0,1.172-.425q.63-.507.63-2.58a8.20665,8.20665,0,0,0-.377-3.089c-.253-.565-1.074-.847-2.472-.847h-7.575Zm-5.858,15.657v-28.395h13.394a15.20919,15.20919,0,0,1,4.017.465,6.432,6.432,0,0,1,2.764,1.50305,6.23788,6.23788,0,0,1,1.612,2.751,14.51451,14.51451,0,0,1,.521,4.168,19.48673,19.48673,0,0,1-.167,2.58,14.6502,14.6502,0,0,1-.46,2.202,4.27179,4.27179,0,0,1-1.338,1.903,5.55869,5.55869,0,0,1,1.234,2.116,8.78912,8.78912,0,0,1,.396,2.709v7.998h-5.986v-7.364a2.67461,2.67461,0,0,0-.751-2.2,3.87118,3.87118,0,0,0-2.387-.592h-6.991v10.156Z"/>
    <path class="cls-14" d="M180.97189,26.9248h13.601c.14,1.07306.214,1.86805.229,2.389.016.523.02.982.02,1.376v2.328a17.15993,17.15993,0,0,1-.919,5.84,5.00279,5.00279,0,0,1-1.946,2.517,8.55178,8.55178,0,0,1-3.706,1.207q-1.25551.126-2.592.169c-.896.027-1.787.043-2.678.043q-6.6975,0-9.21-2.159-2.721-2.2425-2.721-8.845v-1.777q0-.88944.043-1.819v-3.343q0-5.502,2.218-8.126a7.08425,7.08425,0,0,1,3.2-2.03,15.21575,15.21575,0,0,1,4.796-.677h1.545c.502,0,1.02.013,1.549.041h2.931q4.0995.12753,5.754,2.222a9.40864,9.40864,0,0,1,1.654,5.947v2.495h-5.858a12.51618,12.51618,0,0,0-.464-4.444q-.21-.42142-1.755-.507-1.296-.08248-2.534-.105c-.822-.013-1.682-.021-2.573-.021q-3.2235,0-3.807.677-.58951.72007-.67,4.697c0,.281-.007.549-.023.803-.011.254-.019.53705-.019.846v1.61l.042,3.595c0,.734.028,1.427.082,2.074a10.54431,10.54431,0,0,0,.292,1.777v-.084a2.18254,2.18254,0,0,0,.67.826,2.8181,2.8181,0,0,0,1.339.486,12.57179,12.57179,0,0,0,1.716.126c.335.03.678.044,1.028.044h2.487a20.98142,20.98142,0,0,0,2.367-.107,2.07464,2.07464,0,0,0,1.234-.444c.389-.339.588-1.466.588-3.385v-.677h-7.91Z"/>
  </g>
  <polygon class="cls-14" points="202.757 14.059 209.215 14.059 206.651 22.221 213.678 21.069 203.612 43.059 206.651 27.118 199.908 27.407 202.757 14.059"/>
  <line class="cls-4" x1="136.1096" y1="87.8822" x2="136.1096" y2="328.26021"/>
  <g class="cls-12">
    <path class="cls-15" d="M88.2168,496.79961c1.745,1.294,3.595.433,5.778.728,8.036,1.087,5.444,7.563,5.444,7.563a5.1956,5.1956,0,0,0-4.646-3.663C90.8148,501.00361,88.9488,503.14362,88.2168,496.79961Zm.104.329c-.417-1.721-5.015-4.194-5.015-4.194l-5.936.006-.22-7.44,9.827-2.336,13.102-.265,9.583,1.83.268,7.561-6.306.241s-3.779,3.637-4.064,8.561"/>
    <path class="cls-16" d="M99.4573,505.12642a6.39773,6.39773,0,0,1-.355,3.062s-.296-2.927-3.867-3.002c-3.322-.069-4.53-.865-5.151-3.737"/>
    <path class="cls-15" d="M99.3034,515.71451c-.887,0-1.416-.758-1.416-2.028a5.30186,5.30186,0,0,1,1.416-2.872,5.30186,5.30186,0,0,1,1.416,2.872C100.7194,514.95651,100.1904,515.71451,99.3034,515.71451Zm.838-33.001c-.808,1.994-3.491,3.458-6.677,3.458-3.037,0-5.617-1.33-6.552-3.182"/>
  </g>
  <polyline class="cls-17" points="137.324 352.946 140.88 346.36 138.096 344.754 140.071 341.095 145.102 342.644 151.28 346.208 155.249 349.85 153.22 353.608 150.288 351.917 146.786 358.403"/>
  <polyline class="cls-15" points="137.324 352.946 140.88 346.36 138.096 344.754 140.071 341.095 145.102 342.644 151.28 346.208 155.249 349.85 153.22 353.608 150.288 351.917 146.786 358.403"/>
  <g class="cls-12">
    <path class="cls-15" d="M151.3042,346.18721a4.22433,4.22433,0,0,1-3.94-.302,4.51494,4.51494,0,0,1-2.313-3.275"/>
  </g>
  <polyline class="cls-17" points="130.207 355.923 130.88 348.408 127.707 348.103 128.081 343.929 133.287 343.241 140.33 343.916 145.384 345.588 145 349.876 141.657 349.556 140.994 356.957"/>
  <polyline class="cls-15" points="130.207 355.923 130.88 348.408 127.707 348.103 128.081 343.929 133.287 343.241 140.33 343.916 145.384 345.588 145 349.876 141.657 349.556 140.994 356.957"/>
  <g class="cls-12">
    <path class="cls-15" d="M140.3437,343.90952a4.3054,4.3054,0,0,1-3.721,1.355,4.35308,4.35308,0,0,1-3.396-1.998"/>
  </g>
  <polyline class="cls-17" points="120.832 357.296 124.217 350.614 121.393 349.085 123.274 345.373 128.343 346.783 134.61 350.176 138.671 353.708 136.739 357.521 133.764 355.911 130.43 362.492"/>
  <polyline class="cls-15" points="120.832 357.296 124.217 350.614 121.393 349.085 123.274 345.373 128.343 346.783 134.61 350.176 138.671 353.708 136.739 357.521 133.764 355.911 130.43 362.492"/>
  <g class="cls-12">
    <path class="cls-15" d="M134.6328,350.155a4.22634,4.22634,0,0,1-3.946-.193,4.50619,4.50619,0,0,1-2.397-3.21"/>
  </g>
  <polygon class="cls-17" points="149.633 373.793 122.862 373.793 117.131 355.489 154.79 355.489 149.633 373.793"/>
  <polygon class="cls-15" points="149.633 373.793 122.862 373.793 117.131 355.489 154.79 355.489 149.633 373.793"/>
  <g class="cls-12">
    <path class="cls-17" d="M141.006,361.64052H130.972a1.59371,1.59371,0,0,1,0-3.187h10.034a1.59371,1.59371,0,0,1,0,3.187"/>
    <path class="cls-15" d="M141.006,361.64052H130.972a1.59371,1.59371,0,0,1,0-3.187h10.034a1.59371,1.59371,0,0,1,0,3.187Z"/>
    <path class="cls-17" d="M120.5402,400.103h7.247a7.23137,7.23137,0,0,0,13.022,0h.986a3.39482,3.39482,0,0,1,3.448,3.331v1.96h5.626v-1.96a8.93347,8.93347,0,0,0-9.074-8.766h-.906a7.11244,7.11244,0,0,0-5.854-4.222v-1.315a3.06411,3.06411,0,0,0,2.268-2.114h3.114a1.93721,1.93721,0,0,0,1.742,1.066,1.87212,1.87212,0,1,0,0-3.742,1.93612,1.93612,0,0,0-1.742,1.066h-3.114a3.13729,3.13729,0,0,0-5.988,0h-3.768a1.93838,1.93838,0,0,0-1.742-1.066,1.87216,1.87216,0,1,0,0,3.742,1.93569,1.93569,0,0,0,1.741-1.066h3.769a3.057,3.057,0,0,0,2.053,2.059v1.399a7.10118,7.10118,0,0,0-5.661,4.193h-7.167"/>
    <path class="cls-15" d="M120.5402,400.103h7.247a7.23137,7.23137,0,0,0,13.022,0h.986a3.39482,3.39482,0,0,1,3.448,3.331v1.96h5.626v-1.96a8.93347,8.93347,0,0,0-9.074-8.766h-.906a7.11244,7.11244,0,0,0-5.854-4.222v-1.315a3.06411,3.06411,0,0,0,2.268-2.114h3.114a1.93721,1.93721,0,0,0,1.742,1.066,1.87212,1.87212,0,1,0,0-3.742,1.93612,1.93612,0,0,0-1.742,1.066h-3.114a3.13729,3.13729,0,0,0-5.988,0h-3.768a1.93838,1.93838,0,0,0-1.742-1.066,1.87216,1.87216,0,1,0,0,3.742,1.93569,1.93569,0,0,0,1.741-1.066h3.769a3.057,3.057,0,0,0,2.053,2.059v1.399a7.10118,7.10118,0,0,0-5.661,4.193h-7.167"/>
    <path class="cls-15" d="M148.03661,407.32181c-.843.886-3.129,3.495-3.129,5.714a3.10942,3.10942,0,0,0,6.214,0C151.1216,410.43982,148.8886,408.11382,148.03661,407.32181Z"/>
  </g>
  <text class="cls-18" transform="translate(258.86523 502.50781) rotate(90)">2019/2014</text>
  <g class="cls-12">
    <path class="cls-15" d="M147.04089,453.05891a16.881,16.881,0,0,1-11.982,4.938,16.41161,16.41161,0,1,1,16.756-16.408"/>
  </g>
  <polygon class="cls-19" points="151.837 446.197 154.553 441.589 149.121 441.589 151.837 446.197"/>
  <path class="cls-15" d="M139.4187,447.05352l-3.862-5.477m0,0v-11.41"/>
  <text id="supplier" class="cls-20" transform="translate(8.59717 72.28326)">X</text>
  <text id="model" class="cls-21" transform="translate(263.8 72.28326)" text-anchor="end">X</text>
  <text transform="translate(105 362.73737)" text-anchor="end">
    <tspan id="completeCycleKg" class="cls-22">X</tspan><tspan class="cls-23">kg</tspan>
  </text>
  <text transform="translate(105 404.96783)" text-anchor="end">
    <tspan id="completeCycleL" class="cls-22">X</tspan><tspan class="cls-23">L</tspan>
  </text>
  <text id="completeCycleDuration" class="cls-22" transform="translate(105 447.07623)" text-anchor="end">X:XX</text>
  <text transform="translate(167.17871 362.73737)">
    <tspan id="washCycleKg" class="cls-22">X</tspan><tspan class="cls-23">kg</tspan>
  </text>
  <text transform="translate(167.17871 404.96783)">
    <tspan id="washCycleL" class="cls-22">X</tspan><tspan class="cls-23">L</tspan>
  </text>
  <text id="washCycleDuration" class="cls-22" transform="translate(167.17871 446.72174)">X:XX</text>
  <text class="cls-23 cls-25" id="noiseClass" transform="translate(179 530)" text-anchor="middle">
    <!-- Do not pretty-print these spans - they need to be all on one line to avoid whitespace between them when rendering -->
    <tspan id="noiseClassALetter">A</tspan><tspan id="noiseClassBLetter">B</tspan><tspan id="noiseClassCLetter">C</tspan><tspan id="noiseClassDLetter">D</tspan>
  </text>
  <g class="cls-12">
    <path class="cls-16" d="M189.70448,506.63272a18.42726,18.42726,0,0,0-.548-15.823m10.654,19.67a27.991,27.991,0,0,0-.841-24.13m-4.136,22.047a22.82855,22.82855,0,0,0-.683-19.645m-10.647-5.853v32.816l-13.314-7.864h-15.036v-16.914h15.036Z"/>
  </g>
  <text id="db" class="cls-20" transform="translate(161.60645 502.62408)">X</text>
  <text class="cls-26" transform="translate(168.00488 502.62408)">dB</text>
  <text transform="translate(169.2 502.5)" text-anchor="middle">
    <!-- Do not pretty-print these spans - they need to be all on one line to avoid whitespace between them when rendering -->
    <tspan id="db" class="cls-20">1</tspan><tspan class="cls-26">dB</tspan>
  </text>
  <text transform="translate(70 317.17877)" text-anchor="middle">
    <tspan id="completeCycleKwh100cycles" class="cls-24">X</tspan><tspan class="cls-23">kWh</tspan>
  </text>
  <text transform="translate(197 317.17877)" text-anchor="middle">
    <tspan id="washCycleKwh100cycles" class="cls-24">X</tspan><tspan class="cls-23">kWh</tspan>
  </text>
  <g class="cls-12">
    <path class="cls-16" d="M14.7537,305.32442c-1.101,1.32-4.091,5.211-4.091,8.52a4.27663,4.27663,0,0,0,4.062,4.453,4.27518,4.27518,0,0,0,4.061-4.453C18.7857,309.97342,15.8667,306.50543,14.7537,305.32442Z"/>
    <path class="cls-16" d="M24.7455,318.29771s2.803-3.324-.002-6.44c-2.301-2.557-1.184-4.981.511-6.533"/>
    <path class="cls-16" d="M29.3386,318.29771s2.803-3.324-.002-6.44c-2.301-2.557-1.184-4.981.511-6.533"/>
    <path class="cls-16" d="M33.9317,318.29771s2.803-3.324-.002-6.44c-2.301-2.557-1.184-4.981.511-6.533"/>
    <path class="cls-16" d="M159.03709,305.30771c-1.101,1.32-4.091,5.211-4.091,8.52a4.07871,4.07871,0,1,0,8.123,0C163.06909,309.95671,160.15009,306.48872,159.03709,305.30771Z"/>
  </g>
  <line class="cls-27" x1="236.4263" y1="303.87831" x2="228.47929" y2="319.71031"/>
  <text class="cls-18" transform="translate(239.50195 314.15045)">100</text>
  <g class="cls-12">
    <path class="cls-19" d="M245.2487,303.69881a8.16531,8.16531,0,0,1,8.152,7.743h1.151l-1.704,2.943-1.704-2.943h1.108a6.9982,6.9982,0,1,0-1.98,5.302l.821.801a8.16126,8.16126,0,1,1-5.844-13.846"/>
  </g>
  <line class="cls-27" x1="108.7256" y1="303.87831" x2="100.77859" y2="319.71031"/>
  <text class="cls-18" transform="translate(111.80176 314.15045)">100</text>
  <g class="cls-12">
    <path class="cls-19" d="M117.5479,303.69881a8.16531,8.16531,0,0,1,8.152,7.743h1.151l-1.704,2.943-1.704-2.943h1.108a6.99823,6.99823,0,1,0-1.98,5.302l.821.801a8.16126,8.16126,0,1,1-5.844-13.846"/>
  </g>
  <text class="cls-23" id="spinClass" transform="translate(93 530)" text-anchor="middle">
    <!-- Do not pretty-print these spans - they need to be all on one line to avoid whitespace between them when rendering -->
    <tspan id="spinClassALetter">A</tspan><tspan id="spinClassBLetter">B</tspan><tspan id="spinClassCLetter">C</tspan><tspan id="spinClassDLetter">D</tspan><tspan id="spinClassELetter">E</tspan><tspan id="spinClassFLetter">F</tspan><tspan id="spinClassGLetter">G</tspan>
  </text>
  <g id="ukFlag">
    <path class="cls-28" d="M15.6609,48.18863h15.993v-10.662Zm52.371-4.775v-8.453H55.3459Zm0-21.681v-8.453l-12.686,8.453Zm-23.15,26.456h15.993l-15.993-10.662ZM31.6539,8.5036H15.6609l15.993,10.662Zm-23.15,4.776v8.453h12.686Zm52.371-4.776H44.8819v10.662Zm-39.685,26.457-12.686,8.453v-8.453Z"/>
    <path class="cls-29" d="M44.8815,20.75305v.979h3.307L68.0315,8.504h-4.775ZM31.6535,35.94v-.979h-3.307L8.5035,48.189h4.776Zm36.378,9.048L52.9775,34.961h-4.775l19.829,13.215ZM8.5035,11.705l15.054,10.027h4.776L8.5035,8.517Zm59.528,20.61H42.2365V48.189h-7.937V32.315H8.5035V24.37805h25.796V8.504h7.937v15.874h25.795Z"/>
  </g>
  <g id="completeCycleRating">
    <polygon id="completeCycleRatingArrow" points="104.1 83.586 92.761 99.824 104.1 114.767 127.202 114.767 127.202 83.586 104.1 83.586"/>
    <text id="completeCycleRatingLetter" class="cls-30" transform="translate(105.59961 107.58112) scale(1 1.012)">A</text>
  </g>
  <g id="washCycleRating">
    <polygon id="washCycleRatingArrow" points="240.507 83.586 229.168 99.824 240.507 114.767 263.609 114.767 263.609 83.586 240.507 83.586"/>
    <text id="washCycleRatingLetter" class="cls-30" transform="translate(242.00609 107.58112) scale(1 1.012)">A</text>
  </g>
</svg>
