<svg xmlns="http://www.w3.org/2000/svg" xmlns:xlink="http://www.w3.org/1999/xlink" id="Layer_1" data-name="Layer 1" width="110mm" height="220mm" viewBox="0 0 311.81 623.62" data-rating-increment="23.9357" data-supplier-model-chars-per-row="15">
  <defs>
    <style>
      .spinClassA #spinClassALetter,
      .spinClassB #spinClassBLetter,
      .spinClassC #spinClassCLetter,
      .spinClassD #spinClassDLetter,
      .spinClassE #spinClassELetter,
      .spinClassF #spinClassFLetter,
      .spinClassG #spinClassGLetter {
        font-size: 16.5px;
        font-weight: 700;
        font-family: Calibri-Bold, Calibri;
      }

      .cls-1, .cls-10, .cls-16, .cls-22, .cls-3, .cls-4 {
        fill: none;
      }

      .cls-2 {
        clip-path: url(#clip-path);
      }

      .cls-10, .cls-3, .cls-4 {
        stroke: #00aeef;
      }

      .cls-3 {
        stroke-width: 5px;
      }

      .cls-4 {
        stroke-width: 2px;
      }

      .cls-5 {
        fill: #034ea2;
      }

      .cls-6 {
        fill: #00aeef;
      }

      .cls-7 {
        fill: #fff200;
      }

      .cls-19, .cls-30, .cls-31, .cls-34, .cls-39, .cls-40, .cls-8 {
        fill: #fff;
      }

      .cls-9 {
        clip-path: url(#clip-path-2);
      }

      .cls-11 {
        clip-path: url(#clip-path-4);
      }

      .cls-12, .cls-13 {
        fill: #00c0f3;
      }

      .cls-12 {
        fill-rule: evenodd;
      }

      .cls-14 {
        clip-path: url(#clip-path-6);
      }

      .cls-15 {
        fill: #6dcff6;
      }

      .cls-16 {
        stroke: #fff;
        stroke-width: 1.577px;
      }

      .cls-17 {
        fill: #44c8f5;
      }

      .cls-18 {
        clip-path: url(#clip-path-8);
      }

      .cls-19 {
        font-size: 11.4912px;
      }

      .cls-19, .cls-34 {
        font-family: MyriadPro-Bold, Myriad Pro;
      }

      .cls-19, .cls-30, .cls-31, .cls-34, .cls-35, .cls-37, .cls-39, .cls-41, .cls-42, .cls-43 {
        font-weight: 700;
      }

      .cls-20 {
        clip-path: url(#clip-path-10);
      }

      .cls-21 {
        clip-path: url(#clip-path-12);
      }

      .cls-22 {
        stroke: #a3a5a8;
      }

      .cls-23, .cls-35, .cls-36, .cls-37, .cls-38, .cls-41, .cls-42, .cls-43 {
        fill: #231f20;
      }

      .cls-24 {
        fill: #00a651;
      }

      .cls-25 {
        fill: #50b848;
      }

      .cls-26 {
        fill: #bfd730;
      }

      .cls-27 {
        fill: #fdb913;
      }

      .cls-28 {
        fill: #f37021;
      }

      .cls-29 {
        fill: #ed1c24;
      }

      .cls-30 {
        font-size: 19.4158px;
      }

      .cls-30, .cls-31, .cls-35, .cls-37, .cls-39, .cls-41, .cls-42, .cls-43 {
        font-family: Calibri-Bold, Calibri;
      }

      .cls-31 {
        font-size: 13.2845px;
      }

      .cls-32 {
        letter-spacing: 0.01em;
      }

      .cls-33 {
        clip-path: url(#clip-path-14);
      }

      .cls-34 {
        font-size: 18.3939px;
      }

      .cls-35, .cls-36 {
        font-size: 12px;
      }

      .cls-36, .cls-38, .cls-40 {
        font-family: Calibri;
      }

      .cls-37 {
        font-size: 24px;
      }

      .cls-38 {
        font-size: 16px;
      }

      .cls-39 {
        font-size: 29px;
      }

      .cls-40 {
        font-size: 18px;
      }

      .cls-41 {
        font-size: 37px;
      }

      .cls-42 {
        font-size: 16.5px;
      }

      .cls-43 {
        font-size: 20.4px;
      }
    </style>
    <clipPath id="clip-path">
      <rect class="cls-1" y="-0.00201" width="311.811" height="623.62201"/>
    </clipPath>
    <clipPath id="clip-path-2">
      <rect class="cls-1" x="25.512" y="25.508" width="260.78698" height="51.02502"/>
    </clipPath>
    <clipPath id="clip-path-4">
      <rect class="cls-1" x="32.159" y="467.85599" width="43.159" height="43.158"/>
    </clipPath>
    <clipPath id="clip-path-6">
      <rect class="cls-1" x="234.549" y="464.88" width="45.50401" height="32.98399"/>
    </clipPath>
    <clipPath id="clip-path-8">
      <rect class="cls-1" x="100.772" y="466.72198" width="43.936" height="48.98301"/>
    </clipPath>
    <clipPath id="clip-path-10">
      <rect class="cls-1" x="167.244" y="465.588" width="47.33701" height="44.901"/>
    </clipPath>
    <clipPath id="clip-path-12">
      <rect class="cls-1" x="234.21201" y="529.014" width="43.936" height="25.866"/>
    </clipPath>
    <clipPath id="clip-path-14">
      <rect class="cls-1" x="25.132" y="155.19501" width="197.24401" height="168.02298"/>
    </clipPath>
  </defs>
  <title>washing-machines</title>
  <g class="cls-2">
    <path class="cls-3" d="M26.5945,16.67108s-9.921,0-9.921,9.921v570.433s0,9.922,9.921,9.922h258.622s9.921,0,9.921-9.922V26.5921s0-9.921-9.921-9.921Z"/>
    <path class="cls-4" d="M36.4331,461.6279s-9.921,0-9.921,9.921v97.213s0,9.921,9.921,9.921h39.132s9.921,0,9.921-9.921v-97.213s0-9.921-9.921-9.921Z"/>
    <path class="cls-4" d="M170.1143,461.6279s-9.921,0-9.921,9.921v97.213s0,9.921,9.921,9.921h39.132s9.921,0,9.921-9.921v-97.213s0-9.921-9.921-9.921Z"/>
    <path class="cls-4" d="M103.2737,461.6279s-9.921,0-9.921,9.921v97.213s0,9.921,9.921,9.921h39.132s9.921,0,9.921-9.921v-97.213s0-9.921-9.921-9.921Z"/>
    <path class="cls-4" d="M236.955,461.6279s-9.921,0-9.921,9.921v34.851s0,9.921,9.921,9.921h39.132s9.921,0,9.921-9.921v-34.851s0-9.921-9.921-9.921Z"/>
    
    <rect class="cls-6" x="104.131" y="25.646" width="182.16801" height="50.815"/>
    
    
    
    
    
    
    
    
    
    
    
    

  <g id="union-flag" transform="translate(25.532, 25.646) scale(1.6938333333333333)">
	<path id="blue" fill="#004289" d="M9.59,20L0,26.39V20H9.59z M39.59,0H27.5v8.06L39.59,0z M0,3.61V10h9.59L0,3.61z M17.5,0H5.41
		L17.5,8.06V0z M27.5,30h12.09L27.5,21.94V30z M45,10V3.61L35.41,10H45z M45,26.39V20h-9.59L45,26.39z M5.41,30H17.5v-8.06L5.41,30z
		"/>
	<path id="red" fill="#DC2F34" d="M45,18H25.5v12h-6V18H0v-6h19.5V0h6v12H45V18z M0,2.42L11.38,10h3.61L0,0.01V2.42z M45,27.58
		L33.62,20h-3.61L45,29.99V27.58z M17.5,20.74V20H15L0,30h3.61L17.5,20.74z M27.5,9.26V10H30L45,0h-3.61L27.5,9.26z"/>
</g><path id="energy-heading" d="M7.1581,7.21791H2.33537v3.7413H7.72769v1.90845H0V.13234H7.44305V2.04079H2.33537V5.32836H7.1581Zm3.53413,5.64975V.13234h2.677L16.67314,5.593a37.85159,37.85159,0,0,1,2.18339,4.27032h.038a51.82706,51.82706,0,0,1-.20865-5.29055V.13234h2.1644V12.86766H18.41992L15.07833,7.25572a43.774,43.774,0,0,1-2.2787-4.38342l-.076.0189c.095,1.64379.133,3.32538.133,5.42289v4.55357ZM31.63845,7.21791H26.81573v3.7413h5.392v1.90845H24.48V.13234h7.44305V2.04079H26.81573V5.32836h4.82272ZM35.19126.32139A20.16965,20.16965,0,0,1,38.72282.03781a5.98372,5.98372,0,0,1,3.94949,1.02056,3.228,3.228,0,0,1,1.1012,2.56949,3.347,3.347,0,0,1-2.3357,3.17446V6.859a3.16007,3.16007,0,0,1,1.7851,2.45638,32.106,32.106,0,0,0,1.00653,3.55224H41.83707a16.17761,16.17761,0,0,1-.85455-3.00431c-.37994-1.66269-.96854-2.19171-2.2977-2.22952H37.50764v5.23383H35.19126ZM37.50764,5.933h1.38647c1.57581,0,2.5437-.83119,2.5437-2.09719,0-1.37943-.96789-2.04079-2.487-2.04079a6.74576,6.74576,0,0,0-1.44314.11343Zm19.67341,6.34892A12.70364,12.70364,0,0,1,53.08022,13a6.96331,6.96331,0,0,1-5.032-1.7005,6.3681,6.3681,0,0,1-1.78446-4.68623C46.28243,2.56982,49.1494,0,53.38353,0a8.52961,8.52961,0,0,1,3.3989.60464l-.5126,1.87065a6.6378,6.6378,0,0,0-2.905-.54793c-2.73432,0-4.65207,1.606-4.65207,4.5728,0,2.89088,1.78509,4.61029,4.44342,4.61029a4.91246,4.91246,0,0,0,1.76578-.24577v-3.193H52.66228V5.8388h4.51877Zm6.23045.58573V7.55821L59.36734.13234h2.677l1.51914,3.269c.43661.94462.75924,1.66269,1.11987,2.53169h.038c.304-.81228.66458-1.606,1.10184-2.53169L67.361.13234H70L65.74719,7.50149v5.36617Z" fill="#fff" transform="translate(117.99595584741246, 39.77372127209416) scale(1.6938333333333333)"/></g>

  <g class="cls-2">
    <line class="cls-10" x1="24.8031" y1="126.63971" x2="287.00809" y2="126.63971"/>
    <rect class="cls-8" x="32.159" y="467.85599" width="43.158" height="43.158"/>
  </g>
  <g class="cls-11">
    <path class="cls-12" d="M37.7807,490.115l20.905.115v-.345l1.723.058c5.697,1.806,8.908,2.842,9.477,9.304l.287,6.145h-6.95v-5.111l-.401-.346-.517-.803-.862-.459-.747-.345-.861-.115h-.69v-.345l-21.364.173Z"/>
    <path class="cls-13" d="M37.7807,490.115l20.905.115v-.345l1.723.058c5.697,1.806,8.908,2.842,9.477,9.304l.287,6.145h-6.95v-5.111l-.401-.346-.517-.803-.862-.459-.747-.345-.861-.115h-.69v-.345l-21.364.173Z"/>
    <rect class="cls-13" x="44.54211" y="478.14179" width="17.05569" height="2.12552" transform="translate(-2.25495 0.2551) rotate(-0.26968)"/>
    <path class="cls-12" d="M47.2528,479.204a2.81849,2.81849,0,0,0-2.798-2.843,2.78861,2.78861,0,0,0-2.796,2.843,2.81737,2.81737,0,0,0,2.796,2.843,2.84843,2.84843,0,0,0,2.798-2.843"/>
    <path class="cls-12" d="M64.4817,479.204a2.81893,2.81893,0,0,0-2.797-2.843,2.78882,2.78882,0,0,0-2.797,2.843,2.81757,2.81757,0,0,0,2.797,2.843,2.84891,2.84891,0,0,0,2.797-2.843"/>
    <path class="cls-12" d="M56.6031,479.204a3.54065,3.54065,0,0,0-3.561-3.56,3.4928,3.4928,0,0,0-3.503,3.56,3.52929,3.52929,0,0,0,3.503,3.561,3.578,3.578,0,0,0,3.561-3.561"/>
    <path class="cls-13" d="M56.6016,479.204a3.54106,3.54106,0,0,0-3.56-3.56,3.49363,3.49363,0,0,0-3.504,3.56,3.53013,3.53013,0,0,0,3.504,3.561,3.57846,3.57846,0,0,0,3.56-3.561"/>
    <rect class="cls-13" x="51.836" y="479.25999" width="2.468" height="9.131"/>
    <path class="cls-12" d="M60.6234,493.58519a7.56066,7.56066,0,1,0-7.579,7.878,7.70642,7.70642,0,0,0,7.579-7.878"/>
  </g>
  <g class="cls-2">
    <rect class="cls-8" x="234.549" y="464.88" width="45.50401" height="32.98399"/>
  </g>
  <g class="cls-14">
    <path class="cls-15" d="M257.18781,477.6852c-.002.078-.006.155-.006.233a8.68,8.68,0,1,0,17.36,0c0-.078-.004-.155-.006-.233Z"/>
    <path class="cls-6" d="M239.7438,483.11249q-1.587-1.4145-3.174-2.831h-2.263v-4.523h2.263l3.174-2.829,1.313-1.171v12.525Z"/>
    <path class="cls-16" d="M239.7438,483.11249q-1.587-1.4145-3.174-2.831h-2.263v-4.523h2.263l3.174-2.829,1.313-1.171v12.525Z"/>
    <path class="cls-17" d="M247.7382,487.5638a.90174.90174,0,0,1-.228-1.254,15.14622,15.14622,0,0,0-.027-16.575.90063.90063,0,1,1,1.477-1.031,16.94348,16.94348,0,0,1,.032,18.632.90189.90189,0,0,1-1.254.228m-2.921-2.469a.89939.89939,0,0,1-.181-1.261,10.13234,10.13234,0,0,0-.032-11.642.90132.90132,0,0,1,1.435-1.091,11.93005,11.93005,0,0,1,.039,13.813.9003.9003,0,0,1-1.261.181m-2.831-2.471a.90057.90057,0,0,1-.083-1.271,5.32678,5.32678,0,0,0-.044-6.694h.001a.90084.90084,0,0,1,1.334-1.211,7.12278,7.12278,0,0,1,.064,9.093.90093.90093,0,0,1-1.272.083"/>
    <path class="cls-6" d="M265.6041,468.217a9.804,9.804,0,1,0,9.804,9.804,9.80348,9.80348,0,0,0-9.804-9.804m0,1.801a8.00365,8.00365,0,0,1,7.883,6.629c-.154-.015-.31-.026-.468-.026a4.40752,4.40752,0,0,0-2.285.613,2.72914,2.72914,0,0,1-2.651-.001,4.56609,4.56609,0,0,0-4.567,0,2.72564,2.72564,0,0,1-2.651,0,4.418,4.418,0,0,0-2.284-.612,4.76262,4.76262,0,0,0-.87.081,8.00417,8.00417,0,0,1,7.893-6.684m0,16.006a8.00046,8.00046,0,0,1-7.977-7.391,2.7409,2.7409,0,0,1,.954-.168,2.58187,2.58187,0,0,1,1.325.343,4.568,4.568,0,0,0,4.568,0,2.7307,2.7307,0,0,1,2.65,0,4.57308,4.57308,0,0,0,4.569.001,2.57324,2.57324,0,0,1,1.326-.344,2.83613,2.83613,0,0,1,.571.057,8.00244,8.00244,0,0,1-7.986,7.502"/>
  </g>
  <g class="cls-2">
    <rect class="cls-8" x="100.772" y="466.72198" width="43.936" height="48.98301"/>
  </g>
  <g class="cls-18">
    <path class="cls-13" d="M134.2285,472.49359l-7.612-2.124a4.97121,4.97121,0,0,1-9.103,0l-7.61,2.124-6.376,7.262,4.192,5.491,2.243-.472.059,22.789,12.045.06,12.044-.06.059-22.789,2.244.472,4.192-5.491Z"/>
  </g>
  <text class="cls-19" transform="translate(116.02783 493.9696)">k</text>
  <text class="cls-19" transform="translate(122.10645 493.9696)">g</text>
  <g class="cls-2">
    <rect class="cls-8" x="167.244" y="465.588" width="47.338" height="44.901"/>
  </g>
  <g class="cls-20">
    <path class="cls-6" d="M184.9006,492.6996q.3285.231.686.45c2.252,1.216,6.776,1.942,7.966,5.01a2.613,2.613,0,0,1,.319.995c2.711-10.138-9.963-9.368-11.132-10.984a3.937,3.937,0,0,0,1.729,4.205Z"/>
    <path class="cls-6" d="M184.3167,493.1366c1.479,2.339,10.763,2.201,9.169,9.027-.393-3.732-10.348-4.017-9.169-9.027"/>
    <path class="cls-6" d="M201.9249,472.2896a61.75024,61.75024,0,0,0-6.909-1.618c-.42,1.919-2.646,3.389-5.323,3.389-2.672,0-4.896-1.464-5.321-3.378a62.32052,62.32052,0,0,0-6.837,1.607l-7.084,7.96,4.528,5.331,4.322-2.751s.481,2.161,3.432,4.49c.003-.011.004-.022.007-.033.808,1.118,7.115,1.095,10.035,4.324l8.216-9.017,3.49,2.987,4.527-5.331Z"/>
    <path class="cls-17" d="M189.73,501.89829c.473,1.724,1.124,2.335,1.943,4.003a2.20484,2.20484,0,1,1-3.886,0c.819-1.668,1.47-2.279,1.943-4.003"/>
  </g>
  <g class="cls-2">
    <path class="cls-4" d="M236.955,523.9901s-9.921,0-9.921,9.921v34.851s0,9.921,9.921,9.921h39.132s9.921,0,9.921-9.921v-34.851s0-9.921-9.921-9.921Z"/>
    <rect class="cls-8" x="234.21201" y="529.014" width="43.93701" height="25.866"/>
  </g>
  <g class="cls-21">
    <path class="cls-6" d="M240.37711,546.1524q-1.587-1.4145-3.174-2.831h-2.263v-4.523h2.263q1.587-1.4145,3.174-2.829l1.313-1.171v12.525Z"/>
    <path class="cls-16" d="M240.37711,546.1524q-1.587-1.4145-3.174-2.831h-2.263v-4.523h2.263q1.587-1.4145,3.174-2.829l1.313-1.171v12.525Z"/>
    <path class="cls-17" d="M248.37151,550.6037a.90174.90174,0,0,1-.228-1.254,15.14617,15.14617,0,0,0-.027-16.575.90063.90063,0,1,1,1.477-1.031,16.94348,16.94348,0,0,1,.032,18.632.90187.90187,0,0,1-1.254.228m-2.921-2.469a.89939.89939,0,0,1-.181-1.261,10.13234,10.13234,0,0,0-.032-11.642.90132.90132,0,1,1,1.435-1.091,11.93005,11.93005,0,0,1,.039,13.813.9003.9003,0,0,1-1.261.181m-2.831-2.471a.90059.90059,0,0,1-.083-1.271,5.32678,5.32678,0,0,0-.044-6.694h.001a.90084.90084,0,0,1,1.334-1.211,7.12278,7.12278,0,0,1,.064,9.093.901.901,0,0,1-1.272.083"/>
    <path class="cls-6" d="M265.21109,540.9325a1.55215,1.55215,0,0,0,1.59,1.217,1.7981,1.7981,0,0,0,1.753-1.674,2.33278,2.33278,0,0,0-2.569-2.53,2.85941,2.85941,0,0,0-2.68,3.055,3.22078,3.22078,0,0,0,3.488,3.063,3.75531,3.75531,0,0,0,3.659-3.631,4.26669,4.26669,0,0,0-4.546-4.417c-2.914,0-4.588,2.645-4.588,5.008,0,2.614,2.13,4.953,5.475,4.953a5.65694,5.65694,0,0,0,5.573-5.502,6.17239,6.17239,0,0,0-6.46-6.389,6.69825,6.69825,0,0,0-6.545,6.939,7.16771,7.16771,0,0,0,7.432,7.012c5.878,0,9.346-7.324,4.799-12.366,3.83,5.519.101,11.263-4.799,11.263-3.871,0-6.469-2.701-6.469-5.898a5.791,5.791,0,0,1,5.582-5.985,5.23926,5.23926,0,0,1,5.477,5.384,4.74654,4.74654,0,0,1-4.59,4.586,4.16755,4.16755,0,0,1-4.482-4.008,3.77914,3.77914,0,0,1,3.595-4.032,3.239,3.239,0,0,1,3.578,3.495,2.7873,2.7873,0,0,1-2.715,2.631,2.32514,2.32514,0,0,1-2.458-2.216,1.8407,1.8407,0,0,1,1.679-2.015c1.941,0,2.062,2.269.803,2.269-.671,0-.958-.791-.578-1.12.216-.188.116-.332-.277-.257a.92306.92306,0,0,0-.727,1.165"/>
    <path class="cls-6" d="M256.7157,541.0608a9.804,9.804,0,1,1,9.804,9.804,9.80414,9.80414,0,0,1-9.804-9.804m9.804,8.003a8.003,8.003,0,1,0-8.003-8.003,8.00292,8.00292,0,0,0,8.003,8.003"/>
  </g>
  <g class="cls-2">
    <path class="cls-4" d="M200.60139,374.46249s-9.921,0-9.921,9.921v61.78s0,9.921,9.921,9.921h75.485s9.921,0,9.921-9.921v-61.78s0-9.921-9.921-9.921Z"/>



    <polygon class="cls-24" points="25.132 159.765 25.132 179.888 125.426 179.888 135.393 169.827 125.426 159.765 25.132 159.765"/>
    <polygon class="cls-25" points="25.132 183.655 25.132 203.777 137.301 203.777 147.278 193.717 137.301 183.655 25.132 183.655"/>
    <polygon class="cls-26" points="25.132 207.544 25.132 227.668 148.898 227.668 158.88 217.606 148.898 207.544 25.132 207.544"/>
    <polygon class="cls-7" points="25.132 231.434 25.132 251.555 160.496 251.555 170.48 241.493 160.496 231.434 25.132 231.434"/>
    <polygon class="cls-27" points="25.132 255.322 25.132 275.442 172.094 275.442 182.082 265.384 172.094 255.322 25.132 255.322"/>
    <polygon class="cls-28" points="25.132 279.209 25.132 299.333 183.692 299.333 193.685 289.272 183.692 279.209 25.132 279.209"/>
    <polygon class="cls-29" points="25.132 303.097 25.132 323.218 194.695 323.218 205.341 313.16 194.695 303.097 25.132 303.097"/>
  </g>
  <text class="cls-30" transform="translate(31.31396 176.078)"><tspan xml:space="preserve"> A</tspan></text>
  <text class="cls-31" transform="translate(48.33252 170.90662)"><tspan class="cls-32">+</tspan><tspan x="6.74902" y="0">+</tspan></text>
  <text class="cls-31" transform="translate(61.85596 170.90662)">+</text>
  <text class="cls-30" transform="translate(31.44043 200.09265)"><tspan xml:space="preserve"> A</tspan></text>
  <text class="cls-31" transform="translate(47.83203 194.92468)">+</text>
  <text class="cls-31" transform="translate(54.59375 194.92468)">+</text>
  <text class="cls-30" transform="translate(31.44043 223.86023)"><tspan xml:space="preserve"> A</tspan></text>
  <text class="cls-30" transform="translate(31.07129 247.87732)"><tspan xml:space="preserve"> A</tspan></text>
  <text class="cls-30" transform="translate(31.26562 271.56482)"><tspan xml:space="preserve"> B</tspan></text>
  <text class="cls-30" transform="translate(31.26562 295.32996)"><tspan xml:space="preserve"> C</tspan></text>
  <g class="cls-33">
    <text class="cls-30" transform="translate(30.89697 319.34753)"><tspan xml:space="preserve"> D</tspan></text>
  </g>
  <text class="cls-31" transform="translate(47.83203 218.69226)">+</text>
  <g class="cls-33">
    <text class="cls-34" transform="translate(247.93359 176.0741)"><tspan xml:space="preserve"> A</tspan></text>
    <text class="cls-34" transform="translate(248.08105 200.09656)"><tspan xml:space="preserve"> A</tspan></text>
    <text class="cls-34" transform="translate(248.08105 223.86121)"><tspan xml:space="preserve"> A</tspan></text>
    <text class="cls-34" transform="translate(247.71289 247.8656)"><tspan xml:space="preserve"> A</tspan></text>
    <text class="cls-34" transform="translate(247.89648 271.55701)"><tspan xml:space="preserve"> A</tspan></text>
    <text class="cls-34" transform="translate(247.89648 295.32166)"><tspan xml:space="preserve"> A</tspan></text>
  </g>
  <g class="cls-33">
    <text class="cls-34" transform="translate(247.51758 319.33777)"><tspan xml:space="preserve"> A</tspan></text>
  </g>
  <text class="cls-35" transform="translate(28.34668 597.89539)">2010/1061</text>
  <text class="cls-36" transform="translate(82.15479 597.89539)"> </text>
  <text class="cls-37" transform="translate(137.20361 554.31335)"> </text>
  <text class="cls-38" transform="translate(261.11621 511.22644)">d</text>
  <text class="cls-38" transform="translate(269.37207 511.22644)">B</text>
  <text class="cls-38" transform="translate(261.11621 574.05847)">d</text>
  <text class="cls-38" transform="translate(269.37207 574.05847)">B</text>
  <path class="cls-23" d="M82.3787,565.0897a5.211,5.211,0,0,0-.119-1.129,2.58476,2.58476,0,0,0-.398-.934,2.05037,2.05037,0,0,0-.731-.636,2.3766,2.3766,0,0,0-1.118-.239,2.05658,2.05658,0,0,0-.548.075,2.39833,2.39833,0,0,0-.558.238,3.89037,3.89037,0,0,0-.598.43,7.18849,7.18849,0,0,0-.654.648,2.53827,2.53827,0,0,0-.307-.566,1.86558,1.86558,0,0,0-.444-.438,2.062,2.062,0,0,0-.601-.285,2.67664,2.67664,0,0,0-.769-.102,2.2245,2.2245,0,0,0-1.106.309,4.501,4.501,0,0,0-1.13.973v-.93a.19923.19923,0,0,0-.026-.105.25016.25016,0,0,0-.089-.079.43425.43425,0,0,0-.172-.046,3.3075,3.3075,0,0,0-.563,0,.50655.50655,0,0,0-.176.046.20241.20241,0,0,0-.091.079.20936.20936,0,0,0-.023.105v7.031a.1962.1962,0,0,0,.026.106.21564.21564,0,0,0,.1.074.75161.75161,0,0,0,.195.047,2.59678,2.59678,0,0,0,.306.015,2.66207,2.66207,0,0,0,.314-.015.70548.70548,0,0,0,.192-.047.242.242,0,0,0,.099-.074.17487.17487,0,0,0,.031-.106v-4.914a5.83619,5.83619,0,0,1,.965-1.008,1.43657,1.43657,0,0,1,.88-.343,1.25659,1.25659,0,0,1,.609.14,1.16365,1.16365,0,0,1,.425.407,2.01865,2.01865,0,0,1,.252.632,3.65255,3.65255,0,0,1,.084.813v4.273a.19641.19641,0,0,0,.027.106.21559.21559,0,0,0,.1.074.76627.76627,0,0,0,.199.047,3.09787,3.09787,0,0,0,.609,0,.77291.77291,0,0,0,.195-.047.24477.24477,0,0,0,.103-.074.182.182,0,0,0,.031-.106v-4.914a6.19472,6.19472,0,0,1,.968-1.008,1.42673,1.42673,0,0,1,.877-.343,1.27428,1.27428,0,0,1,.612.14,1.14415,1.14415,0,0,1,.429.407,1.90006,1.90006,0,0,1,.245.632,3.9958,3.9958,0,0,1,.077.813v4.273a.18143.18143,0,0,0,.03.106.24877.24877,0,0,0,.104.074.75161.75161,0,0,0,.195.047,2.67412,2.67412,0,0,0,.314.015,2.59654,2.59654,0,0,0,.306-.015.6875.6875,0,0,0,.191-.047.246.246,0,0,0,.1-.074.18181.18181,0,0,0,.031-.106Zm-12.245-2.586a.15966.15966,0,0,0-.034-.105.31376.31376,0,0,0-.103-.079.53954.53954,0,0,0-.192-.046q-.123-.012-.306-.012c-.128,0-.231.004-.31.012a.60761.60761,0,0,0-.195.046.238.238,0,0,0-.104.079.19059.19059,0,0,0-.027.105v4.914a5.40429,5.40429,0,0,1-.999,1.008,1.59734,1.59734,0,0,1-.945.344,1.35541,1.35541,0,0,1-.643-.145,1.25152,1.25152,0,0,1-.456-.406,1.88145,1.88145,0,0,1-.268-.633,4.42342,4.42342,0,0,1-.088-.988v-4.094a.1698.1698,0,0,0-.031-.105.26042.26042,0,0,0-.103-.079.57589.57589,0,0,0-.195-.046q-.123-.012-.306-.012c-.123,0-.225.004-.307.012a.62119.62119,0,0,0-.199.046.234.234,0,0,0-.103.079.1905.1905,0,0,0-.027.105v4.266a5.7535,5.7535,0,0,0,.126,1.3,2.61218,2.61218,0,0,0,.418.938,2.058,2.058,0,0,0,.762.637,2.58464,2.58464,0,0,0,1.159.234,2.46218,2.46218,0,0,0,1.164-.305,4.31359,4.31359,0,0,0,1.164-.968v.929a.2275.2275,0,0,0,.023.106.19071.19071,0,0,0,.088.074.62191.62191,0,0,0,.176.047,2.22566,2.22566,0,0,0,.287.015,2.08164,2.08164,0,0,0,.272-.015.6852.6852,0,0,0,.18-.047.218.218,0,0,0,.096-.074.2056.2056,0,0,0,.026-.106Zm-7.862,2.742a5.68028,5.68028,0,0,0-.126-1.285,2.57753,2.57753,0,0,0-.418-.934,2.10378,2.10378,0,0,0-.762-.636,2.543,2.543,0,0,0-1.159-.239,2.45135,2.45135,0,0,0-1.168.309,4.26241,4.26241,0,0,0-1.16.973v-.93a.1905.1905,0,0,0-.027-.105.246.246,0,0,0-.088-.079.4392.4392,0,0,0-.172-.046,3.30767,3.30767,0,0,0-.563,0,.50661.50661,0,0,0-.176.046.21148.21148,0,0,0-.092.079.22041.22041,0,0,0-.023.105v7.031a.19641.19641,0,0,0,.027.106.21564.21564,0,0,0,.1.074.75161.75161,0,0,0,.195.047,2.585,2.585,0,0,0,.306.015,2.67419,2.67419,0,0,0,.314-.015.69694.69694,0,0,0,.191-.047.25326.25326,0,0,0,.1-.074.18188.18188,0,0,0,.031-.106v-4.914a5.22225,5.22225,0,0,1,.995-1.008,1.61138,1.61138,0,0,1,.949-.343,1.42985,1.42985,0,0,1,.647.14,1.17378,1.17378,0,0,1,.456.407,2.05606,2.05606,0,0,1,.268.632,4.14343,4.14343,0,0,1,.092.969v4.117a.18143.18143,0,0,0,.03.106.25326.25326,0,0,0,.1.074.69694.69694,0,0,0,.191.047,2.67419,2.67419,0,0,0,.314.015,2.57319,2.57319,0,0,0,.306-.015.7054.7054,0,0,0,.192-.047.24211.24211,0,0,0,.099-.074.17493.17493,0,0,0,.031-.106Zm-7.929,0a5.61839,5.61839,0,0,0-.127-1.285,2.5594,2.5594,0,0,0-.417-.934,2.10378,2.10378,0,0,0-.762-.636,2.54742,2.54742,0,0,0-1.16-.239,2.45053,2.45053,0,0,0-1.167.309,4.2477,4.2477,0,0,0-1.16.973v-.93a.1905.1905,0,0,0-.027-.105.246.246,0,0,0-.088-.079.4392.4392,0,0,0-.172-.046,2.69588,2.69588,0,0,0-.28-.012,2.65281,2.65281,0,0,0-.283.012.50056.50056,0,0,0-.176.046.20576.20576,0,0,0-.092.079.22041.22041,0,0,0-.023.105v7.031a.19641.19641,0,0,0,.027.106.21749.21749,0,0,0,.099.074.7712.7712,0,0,0,.196.047,2.57319,2.57319,0,0,0,.306.015,2.68607,2.68607,0,0,0,.314-.015.7067.7067,0,0,0,.191-.047.25326.25326,0,0,0,.1-.074.18143.18143,0,0,0,.03-.106v-4.914a5.224,5.224,0,0,1,.996-1.008,1.60909,1.60909,0,0,1,.949-.343,1.42985,1.42985,0,0,1,.647.14,1.17378,1.17378,0,0,1,.456.407,2.03118,2.03118,0,0,1,.267.632,4.08994,4.08994,0,0,1,.092.969v4.117a.18188.18188,0,0,0,.031.106.24612.24612,0,0,0,.1.074.68741.68741,0,0,0,.191.047,2.67419,2.67419,0,0,0,.314.015,2.59678,2.59678,0,0,0,.306-.015.68741.68741,0,0,0,.191-.047.24612.24612,0,0,0,.1-.074.18188.18188,0,0,0,.031-.106Zm-9.193,2.578a3.93288,3.93288,0,0,1-.892.789,1.742,1.742,0,0,1-.922.258,1.32607,1.32607,0,0,1-.953-.324,1.14331,1.14331,0,0,1-.341-.871,1.28075,1.28075,0,0,1,.119-.567,1.082,1.082,0,0,1,.371-.421,1.823,1.823,0,0,1,.635-.266,3.99676,3.99676,0,0,1,.904-.09h1.079Zm1.256-3.023a4.07155,4.07155,0,0,0-.146-1.149,1.95781,1.95781,0,0,0-.467-.824,2.04133,2.04133,0,0,0-.842-.504,4.07518,4.07518,0,0,0-1.263-.172,4.18417,4.18417,0,0,0-.789.075,5.1858,5.1858,0,0,0-.719.187,3.8954,3.8954,0,0,0-.582.25,1.67389,1.67389,0,0,0-.356.238.44466.44466,0,0,0-.13.215,1.39879,1.39879,0,0,0-.027.309,1.42248,1.42248,0,0,0,.015.215.48659.48659,0,0,0,.05.16.27041.27041,0,0,0,.08.094.19542.19542,0,0,0,.108.031.64179.64179,0,0,0,.279-.113q.1875-.114.467-.25a4.35512,4.35512,0,0,1,.651-.25,2.85,2.85,0,0,1,.838-.114,2.20507,2.20507,0,0,1,.735.106,1.16083,1.16083,0,0,1,.486.312,1.24242,1.24242,0,0,1,.272.52,2.77807,2.77807,0,0,1,.084.719v.546h-.949a6.64193,6.64193,0,0,0-1.447.145,3.29172,3.29172,0,0,0-1.087.434,1.98764,1.98764,0,0,0-.682.726,2.13575,2.13575,0,0,0-.237,1.031,2.26419,2.26419,0,0,0,.172.907,1.87284,1.87284,0,0,0,.483.671,2.08836,2.08836,0,0,0,.75.418,3.12062,3.12062,0,0,0,.984.145,2.62879,2.62879,0,0,0,1.175-.273,3.423,3.423,0,0,0,1.007-.766v.703a.18029.18029,0,0,0,.053.141.3801.3801,0,0,0,.173.07,1.67971,1.67971,0,0,0,.317.023,1.54994,1.54994,0,0,0,.314-.023.43472.43472,0,0,0,.169-.07.16914.16914,0,0,0,.061-.141Zm-5.697-6.149a.33506.33506,0,0,0,.023-.179.19453.19453,0,0,0-.085-.125.53581.53581,0,0,0-.191-.074,1.42817,1.42817,0,0,0-.314-.028,2.72085,2.72085,0,0,0-.276.012.55439.55439,0,0,0-.187.047.3483.3483,0,0,0-.123.094.43525.43525,0,0,0-.08.16l-4.632,12.961a.2868.2868,0,0,0-.031.175.20352.20352,0,0,0,.085.125.51625.51625,0,0,0,.195.079,1.55244,1.55244,0,0,0,.317.027,1.89334,1.89334,0,0,0,.272-.016.769.769,0,0,0,.188-.047.311.311,0,0,0,.126-.089.466.466,0,0,0,.081-.161Zm-6.238,10.227a.55235.55235,0,0,0-.05-.176.27555.27555,0,0,0-.084-.101.19692.19692,0,0,0-.119-.035h-3.552v-8.743a.19083.19083,0,0,0-.031-.109.20243.20243,0,0,0-.107-.074,1.163,1.163,0,0,0-.203-.047,2.13142,2.13142,0,0,0-.318-.02,2.15972,2.15972,0,0,0-.314.02,1.16178,1.16178,0,0,0-.206.047.20243.20243,0,0,0-.107.074.19083.19083,0,0,0-.031.109v9.36a.50392.50392,0,0,0,.157.425.53309.53309,0,0,0,.333.122h4.379a.19752.19752,0,0,0,.119-.036.26152.26152,0,0,0,.084-.109.63206.63206,0,0,0,.05-.18,1.89373,1.89373,0,0,0,.015-.261,1.9941,1.9941,0,0,0-.015-.266"/>
  <path class="cls-23" d="M126.9097,569.3364a1.11745,1.11745,0,0,1-.348.43,1.87852,1.87852,0,0,1-.637.3,3.58673,3.58673,0,0,1-.98.114,3.23574,3.23574,0,0,1-1.438-.262.828.828,0,0,1-.515-.77,1.41946,1.41946,0,0,1,.035-.32,1.07616,1.07616,0,0,1,.129-.316,1.97892,1.97892,0,0,1,.254-.336,3.24326,3.24326,0,0,1,.41-.371l1.82.062a1.88965,1.88965,0,0,1,1.004.262.791.791,0,0,1,.371.699,1.26641,1.26641,0,0,1-.105.508m-.633-5.492a1.41478,1.41478,0,0,1-.274.496,1.25026,1.25026,0,0,1-.465.336,1.6645,1.6645,0,0,1-.664.121,1.37532,1.37532,0,0,1-1.5-1.492,1.97253,1.97253,0,0,1,.09-.598,1.45083,1.45083,0,0,1,.274-.504,1.27843,1.27843,0,0,1,.461-.344,1.57675,1.57675,0,0,1,.652-.125,1.49689,1.49689,0,0,1,1.121.403,1.53286,1.53286,0,0,1,.395,1.121,1.91428,1.91428,0,0,1-.09.586m2.039-2.832a.21393.21393,0,0,0-.199-.129h-2.125a4.25118,4.25118,0,0,0-.52-.098,4.848,4.848,0,0,0-.598-.035,3.31162,3.31162,0,0,0-1.097.176,2.46783,2.46783,0,0,0-.864.504,2.28558,2.28558,0,0,0-.562.804,2.7158,2.7158,0,0,0-.203,1.078,2.45509,2.45509,0,0,0,.14.879,2.31473,2.31473,0,0,0,.383.653,2.82043,2.82043,0,0,0-.484.672,1.81817,1.81817,0,0,0-.195.851,1.20084,1.20084,0,0,0,.183.641,1.3716,1.3716,0,0,0,.567.492,4.148,4.148,0,0,0-.442.395,2.23975,2.23975,0,0,0-.32.417,1.80044,1.80044,0,0,0-.192.461,2.03213,2.03213,0,0,0-.062.5,1.66977,1.66977,0,0,0,.172.754,1.5254,1.5254,0,0,0,.554.598,3.16472,3.16472,0,0,0,.981.395,6.27092,6.27092,0,0,0,1.449.144,5.45727,5.45727,0,0,0,1.531-.191,3.111,3.111,0,0,0,1.067-.524,2.136,2.136,0,0,0,.621-.769,2.171,2.171,0,0,0,.203-.922,1.73506,1.73506,0,0,0-.18-.809,1.68608,1.68608,0,0,0-.5-.586,2.3817,2.3817,0,0,0-.757-.367,3.78307,3.78307,0,0,0-.961-.144l-1.836-.079a1.22212,1.22212,0,0,1-.676-.195.53844.53844,0,0,1-.254-.453.9136.9136,0,0,1,.09-.414,1.22422,1.22422,0,0,1,.23-.32,1.727,1.727,0,0,0,.598.285,2.90921,2.90921,0,0,0,.816.113,3.38833,3.38833,0,0,0,1.11-.172,2.49272,2.49272,0,0,0,.863-.496,2.16727,2.16727,0,0,0,.559-.793,2.78629,2.78629,0,0,0,.195-1.078,2.32153,2.32153,0,0,0-.109-.707,1.58005,1.58005,0,0,0-.383-.621h1.008a.21919.21919,0,0,0,.191-.121.79419.79419,0,0,0,.074-.395.9.9,0,0,0-.066-.394m-7.587,6.945a1.65028,1.65028,0,0,0-.145-.215l-2.859-3.711,2.547-2.547a1.13493,1.13493,0,0,0,.168-.218.39127.39127,0,0,0,.051-.188.17339.17339,0,0,0-.035-.113.24974.24974,0,0,0-.118-.07.91853.91853,0,0,0-.214-.04c-.089-.007-.198-.011-.329-.011-.125,0-.231.004-.32.011a.94106.94106,0,0,0-.23.047.632.632,0,0,0-.301.215l-2.656,2.922v-6.359a.19466.19466,0,0,0-.032-.11.23087.23087,0,0,0-.101-.078.73019.73019,0,0,0-.196-.047,2.77316,2.77316,0,0,0-.32-.015,2.68206,2.68206,0,0,0-.312.015.79728.79728,0,0,0-.2.047.2049.2049,0,0,0-.101.078.2187.2187,0,0,0-.027.11v10.437a.19641.19641,0,0,0,.027.106.21921.21921,0,0,0,.101.074.79636.79636,0,0,0,.2.047,2.68206,2.68206,0,0,0,.312.015,2.77316,2.77316,0,0,0,.32-.015.72938.72938,0,0,0,.196-.047.25.25,0,0,0,.101-.074.17538.17538,0,0,0,.032-.106v-3.898l2.968,3.89a.5979.5979,0,0,0,.106.121.41223.41223,0,0,0,.152.079,1.23824,1.23824,0,0,0,.231.039c.091.007.207.011.347.011a3.07355,3.07355,0,0,0,.336-.015.79688.79688,0,0,0,.207-.047.23118.23118,0,0,0,.106-.078.2021.2021,0,0,0,.031-.11.32644.32644,0,0,0-.043-.152"/>
  <path class="cls-23" d="M279.53479,432.321a5.40754,5.40754,0,0,0-.129-1.199,2.71482,2.71482,0,0,0-.432-.992,2.19482,2.19482,0,0,0-.792-.677,2.61953,2.61953,0,0,0-1.212-.253,2.27056,2.27056,0,0,0-.594.079,2.64544,2.64544,0,0,0-.606.253,4.19625,4.19625,0,0,0-.647.457,7.70166,7.70166,0,0,0-.71.688,2.70321,2.70321,0,0,0-.332-.601,2.02513,2.02513,0,0,0-.481-.465,2.261,2.261,0,0,0-.652-.303,2.969,2.969,0,0,0-.834-.108,2.45573,2.45573,0,0,0-1.2.328,4.84418,4.84418,0,0,0-1.224,1.033v-.988a.20981.20981,0,0,0-.029-.112.26848.26848,0,0,0-.096-.083.47983.47983,0,0,0-.186-.049,3.59577,3.59577,0,0,0-.611,0,.5478.5478,0,0,0-.19.049.18922.18922,0,0,0-.125.195v7.471a.205.205,0,0,0,.029.112.2203.2203,0,0,0,.108.079.82716.82716,0,0,0,.212.05,2.77246,2.77246,0,0,0,.332.016,2.862,2.862,0,0,0,.34-.016.76241.76241,0,0,0,.208-.05.25586.25586,0,0,0,.107-.079.17771.17771,0,0,0,.034-.112v-5.221a6.26147,6.26147,0,0,1,1.046-1.071,1.58021,1.58021,0,0,1,.954-.365,1.38019,1.38019,0,0,1,.66.149,1.25993,1.25993,0,0,1,.461.432,2.13223,2.13223,0,0,1,.274.672,3.79292,3.79292,0,0,1,.091.864v4.54a.20472.20472,0,0,0,.029.112.22015.22015,0,0,0,.108.079.83114.83114,0,0,0,.216.05,3.41323,3.41323,0,0,0,.66,0,.818.818,0,0,0,.211-.05.2502.2502,0,0,0,.112-.079.17771.17771,0,0,0,.034-.112v-5.221a6.53408,6.53408,0,0,1,1.05-1.071,1.56524,1.56524,0,0,1,.95-.365,1.405,1.405,0,0,1,.664.149,1.24783,1.24783,0,0,1,.465.432,1.99471,1.99471,0,0,1,.266.672,4.18926,4.18926,0,0,1,.083.864v4.54a.18362.18362,0,0,0,.033.112.25009.25009,0,0,0,.112.079.81623.81623,0,0,0,.212.05,2.86161,2.86161,0,0,0,.34.016,2.78363,2.78363,0,0,0,.332-.016.75388.75388,0,0,0,.207-.05.25315.25315,0,0,0,.108-.079.184.184,0,0,0,.034-.112Zm-13.44-2.748a.17254.17254,0,0,0-.038-.112.34324.34324,0,0,0-.112-.083.5876.5876,0,0,0-.207-.049c-.089-.009-.199-.013-.332-.013a3.36059,3.36059,0,0,0-.336.013.66948.66948,0,0,0-.212.049.25437.25437,0,0,0-.112.083.20113.20113,0,0,0-.029.112v5.222a5.83028,5.83028,0,0,1-1.083,1.07,1.75452,1.75452,0,0,1-1.026.366,1.49767,1.49767,0,0,1-.697-.154,1.34153,1.34153,0,0,1-.494-.432,1.94537,1.94537,0,0,1-.29-.672,4.60633,4.60633,0,0,1-.096-1.05v-4.35a.18774.18774,0,0,0-.033-.112.28813.28813,0,0,0-.112-.083.637.637,0,0,0-.212-.049c-.088-.009-.199-.013-.332-.013s-.243.004-.332.013a.68991.68991,0,0,0-.216.049.26039.26039,0,0,0-.112.083.20955.20955,0,0,0-.029.112v4.533a6.00807,6.00807,0,0,0,.137,1.382,2.73586,2.73586,0,0,0,.453.996,2.20114,2.20114,0,0,0,.826.676,2.85015,2.85015,0,0,0,1.257.249,2.71892,2.71892,0,0,0,1.262-.323,4.66359,4.66359,0,0,0,1.262-1.03v.988a.22369.22369,0,0,0,.025.112.19313.19313,0,0,0,.095.079.679.679,0,0,0,.191.05,2.38278,2.38278,0,0,0,.311.016,2.232,2.232,0,0,0,.295-.016.74273.74273,0,0,0,.195-.05.22719.22719,0,0,0,.104-.079.205.205,0,0,0,.029-.112Zm-8.69,2.914a5.86435,5.86435,0,0,0-.137-1.365,2.69349,2.69349,0,0,0-.452-.992,2.2604,2.2604,0,0,0-.826-.677,2.80707,2.80707,0,0,0-1.257-.253,2.6963,2.6963,0,0,0-1.266.328,4.59081,4.59081,0,0,0-1.258,1.033v-.988a.20964.20964,0,0,0-.029-.112.26376.26376,0,0,0-.095-.083.49054.49054,0,0,0-.187-.049,3.58423,3.58423,0,0,0-.61,0,.55375.55375,0,0,0-.191.049.22688.22688,0,0,0-.1.083.24048.24048,0,0,0-.025.112v7.471a.20489.20489,0,0,0,.029.112.23028.23028,0,0,0,.108.079.82677.82677,0,0,0,.212.05,2.77246,2.77246,0,0,0,.332.016,2.862,2.862,0,0,0,.34-.016.762.762,0,0,0,.208-.05.25308.25308,0,0,0,.108-.079.18356.18356,0,0,0,.033-.112v-5.221a5.59756,5.59756,0,0,1,1.079-1.071,1.77288,1.77288,0,0,1,1.029-.365,1.57644,1.57644,0,0,1,.702.149,1.2704,1.2704,0,0,1,.494.432,2.12413,2.12413,0,0,1,.29.672,4.27989,4.27989,0,0,1,.1,1.03v4.374a.18355.18355,0,0,0,.033.112.253.253,0,0,0,.108.079.763.763,0,0,0,.207.05,2.88,2.88,0,0,0,.341.016,2.784,2.784,0,0,0,.332-.016.76336.76336,0,0,0,.207-.05.25325.25325,0,0,0,.108-.079.18362.18362,0,0,0,.033-.112Zm-8.761,0a5.918,5.918,0,0,0-.137-1.365,2.67879,2.67879,0,0,0-.453-.992,2.25174,2.25174,0,0,0-.826-.677,2.80715,2.80715,0,0,0-1.257-.253,2.70238,2.70238,0,0,0-1.266.328,4.59093,4.59093,0,0,0-1.258,1.033v-.988a.20105.20105,0,0,0-.029-.112.264.264,0,0,0-.095-.083.48552.48552,0,0,0-.187-.049,3.58423,3.58423,0,0,0-.61,0,.56.56,0,0,0-.191.049.21778.21778,0,0,0-.099.083.229.229,0,0,0-.025.112v7.471a.19663.19663,0,0,0,.029.112.22034.22034,0,0,0,.108.079.81808.81808,0,0,0,.211.05,2.79532,2.79532,0,0,0,.332.016,2.8805,2.8805,0,0,0,.341-.016.76336.76336,0,0,0,.207-.05.25321.25321,0,0,0,.108-.079.18368.18368,0,0,0,.033-.112v-5.221a5.62615,5.62615,0,0,1,1.079-1.071,1.77328,1.77328,0,0,1,1.03-.365,1.57506,1.57506,0,0,1,.701.149,1.26325,1.26325,0,0,1,.494.432,2.14827,2.14827,0,0,1,.291.672,4.33779,4.33779,0,0,1,.099,1.03v4.374a.18362.18362,0,0,0,.033.112.25315.25315,0,0,0,.108.079.76222.76222,0,0,0,.208.05,2.8618,2.8618,0,0,0,.34.016,2.77257,2.77257,0,0,0,.332-.016.762.762,0,0,0,.208-.05.2662.2662,0,0,0,.108-.079.18356.18356,0,0,0,.033-.112Zm-10.133,2.739a4.31866,4.31866,0,0,1-.967.839,1.92893,1.92893,0,0,1-1,.274,1.45636,1.45636,0,0,1-1.034-.345,1.20373,1.20373,0,0,1-.369-.925,1.34293,1.34293,0,0,1,.129-.602,1.15545,1.15545,0,0,1,.402-.448,2.016,2.016,0,0,1,.689-.283,4.45654,4.45654,0,0,1,.98-.095h1.17Zm1.361-3.212a4.24174,4.24174,0,0,0-.157-1.22,2.07441,2.07441,0,0,0-.507-.876,2.20813,2.20813,0,0,0-.913-.535,4.47445,4.47445,0,0,0-1.369-.183,4.61769,4.61769,0,0,0-.855.079,5.65824,5.65824,0,0,0-.781.199,4.21809,4.21809,0,0,0-.631.266,1.83549,1.83549,0,0,0-.386.253.48553.48553,0,0,0-.141.228,1.48375,1.48375,0,0,0-.029.328,1.45049,1.45049,0,0,0,.017.228.5074.5074,0,0,0,.054.17.2796.2796,0,0,0,.087.1.2049.2049,0,0,0,.116.033.69492.69492,0,0,0,.303-.12c.136-.08.304-.169.507-.266a4.77981,4.77981,0,0,1,.705-.265,3.14088,3.14088,0,0,1,.909-.121,2.48037,2.48037,0,0,1,.797.112,1.27657,1.27657,0,0,1,.527.332,1.30991,1.30991,0,0,1,.295.552,2.88985,2.88985,0,0,1,.091.764v.581h-1.029a7.27951,7.27951,0,0,0-1.569.154,3.63837,3.63837,0,0,0-1.179.46,2.14514,2.14514,0,0,0-.739.772,2.23346,2.23346,0,0,0-.257,1.096,2.35386,2.35386,0,0,0,.187.963,1.993,1.993,0,0,0,.523.714,2.31115,2.31115,0,0,0,.813.444,3.48512,3.48512,0,0,0,1.067.153,2.88851,2.88851,0,0,0,1.274-.29,3.70013,3.70013,0,0,0,1.092-.814v.747a.18531.18531,0,0,0,.058.15.412.412,0,0,0,.186.075,1.96963,1.96963,0,0,0,.345.024,1.8022,1.8022,0,0,0,.34-.024.47187.47187,0,0,0,.183-.075.17544.17544,0,0,0,.066-.15Zm-6.343-6.533a.35193.35193,0,0,0,.025-.191.20614.20614,0,0,0-.092-.133.60574.60574,0,0,0-.207-.078,1.60359,1.60359,0,0,0-.341-.029c-.116,0-.215.004-.298.012a.6218.6218,0,0,0-.204.05.41326.41326,0,0,0-.133.099.47265.47265,0,0,0-.087.171l-5.022,13.771a.30178.30178,0,0,0-.033.186.21874.21874,0,0,0,.091.133.56108.56108,0,0,0,.212.083,1.72777,1.72777,0,0,0,.345.029,2.2176,2.2176,0,0,0,.294-.016.95146.95146,0,0,0,.204-.05.347.347,0,0,0,.137-.096.45876.45876,0,0,0,.087-.17Zm-7.436,7.014a5.96143,5.96143,0,0,0-.137-1.373,2.679,2.679,0,0,0-.453-.992,2.25657,2.25657,0,0,0-.825-.677,2.81467,2.81467,0,0,0-1.258-.253,2.64156,2.64156,0,0,0-1.204.303,4.427,4.427,0,0,0-1.187.925v-4.474a.205.205,0,0,0-.033-.116.24287.24287,0,0,0-.108-.083.76317.76317,0,0,0-.207-.05,2.88186,2.88186,0,0,0-.341-.016,2.79685,2.79685,0,0,0-.332.016.81766.81766,0,0,0-.211.05.21292.21292,0,0,0-.108.083.21969.21969,0,0,0-.029.116v11.09a.19655.19655,0,0,0,.029.112.2202.2202,0,0,0,.108.079.81766.81766,0,0,0,.211.05,2.795,2.795,0,0,0,.332.016,2.88,2.88,0,0,0,.341-.016.76317.76317,0,0,0,.207-.05.25308.25308,0,0,0,.108-.079.18362.18362,0,0,0,.033-.112v-5.221a5.62614,5.62614,0,0,1,1.079-1.071,1.778,1.778,0,0,1,1.03-.365,1.57508,1.57508,0,0,1,.701.149,1.26325,1.26325,0,0,1,.494.432,2.14827,2.14827,0,0,1,.291.672,4.33831,4.33831,0,0,1,.099,1.03v4.374a.18362.18362,0,0,0,.033.112.25943.25943,0,0,0,.108.079.76221.76221,0,0,0,.208.05,2.86173,2.86173,0,0,0,.34.016,2.77246,2.77246,0,0,0,.332-.016.76221.76221,0,0,0,.208-.05.25943.25943,0,0,0,.108-.079.18356.18356,0,0,0,.033-.112Zm-8.135-5.47a1.94665,1.94665,0,0,0,.046-.299.20163.20163,0,0,0-.063-.166.41615.41615,0,0,0-.211-.079,3.11571,3.11571,0,0,0-.395-.02,3.60394,3.60394,0,0,0-.386.016.85334.85334,0,0,0-.224.05.18028.18028,0,0,0-.104.096c-.016.041-.033.09-.049.145l-2.366,8.99h-.017l-2.465-8.982a.60806.60806,0,0,0-.062-.153.23344.23344,0,0,0-.121-.096.88932.88932,0,0,0-.22-.05,3.24889,3.24889,0,0,0-.369-.016,3.964,3.964,0,0,0-.403.016.93334.93334,0,0,0-.236.05.23352.23352,0,0,0-.121.096.6482.6482,0,0,0-.062.153l-2.291,8.982h-.008l-2.416-8.999a.587.587,0,0,0-.045-.149.20314.20314,0,0,0-.108-.091.77941.77941,0,0,0-.228-.046c-.1-.008-.236-.012-.407-.012-.177,0-.318.005-.424.016a.42913.42913,0,0,0-.228.075.192.192,0,0,0-.066.166,1.53024,1.53024,0,0,0,.054.299l2.839,9.919a.35639.35639,0,0,0,.265.295,1.41452,1.41452,0,0,0,.299.054c.122.011.274.016.457.016.177,0,.322-.005.435-.016a1.22048,1.22048,0,0,0,.278-.054.35929.35929,0,0,0,.166-.108.41989.41989,0,0,0,.083-.187l2.076-8.11h.016l2.25,8.11a.50237.50237,0,0,0,.091.187.36631.36631,0,0,0,.174.108,1.40885,1.40885,0,0,0,.295.054c.119.011.264.016.436.016.166,0,.306-.005.419-.016a1.37577,1.37577,0,0,0,.286-.054.42065.42065,0,0,0,.183-.108.4454.4454,0,0,0,.1-.187Zm-14.771,9.849a1.69021,1.69021,0,0,0-.154-.228l-3.038-3.943,2.706-2.706a1.19382,1.19382,0,0,0,.179-.233.41112.41112,0,0,0,.054-.199.18164.18164,0,0,0-.038-.12.26057.26057,0,0,0-.124-.075,1.03233,1.03233,0,0,0-.228-.041c-.094-.009-.211-.013-.349-.013-.133,0-.246.004-.34.013a.96514.96514,0,0,0-.245.049.73309.73309,0,0,0-.179.092.75383.75383,0,0,0-.141.137l-2.822,3.104v-6.757a.20489.20489,0,0,0-.033-.116.24275.24275,0,0,0-.108-.083.76221.76221,0,0,0-.208-.05,2.86356,2.86356,0,0,0-.34-.016,2.77429,2.77429,0,0,0-.332.016.827.827,0,0,0-.212.05.22211.22211,0,0,0-.108.083.22948.22948,0,0,0-.029.116v11.09a.2048.2048,0,0,0,.029.112.23025.23025,0,0,0,.108.079.827.827,0,0,0,.212.05,2.77246,2.77246,0,0,0,.332.016,2.86173,2.86173,0,0,0,.34-.016.76221.76221,0,0,0,.208-.05.25294.25294,0,0,0,.108-.079.18356.18356,0,0,0,.033-.112v-4.142l3.154,4.134a.67376.67376,0,0,0,.112.129.44154.44154,0,0,0,.162.083,1.29441,1.29441,0,0,0,.245.041q.1455.012.369.012a3.18373,3.18373,0,0,0,.357-.016.837.837,0,0,0,.22-.05.24028.24028,0,0,0,.112-.083.1982.1982,0,0,0,.034-.116.35779.35779,0,0,0-.046-.162"/>
  <g id="rating">
    <polyline id="ratingArrow" class="cls-23" points="208.23 169.82 227.74 150.12 286.7 150.12 286.7 189.49 227.74 189.49 208.23 169.82"/>
    <text id="ratingLetter" class="cls-39" transform="translate(222.41016 178.32996)">A</text>
    <text id="ratingPlusses" class="cls-40" transform="translate(241.40039 169.11023)">+++</text>
  </g>
  <text id="supplierLine2" class="cls-38" transform="translate(25.50959 119.05041)">X</text>
  <text id="supplierLine1" class="cls-38" transform="translate(25.50959 102.79205)">X</text>
  <text id="modelLine2" class="cls-38" transform="translate(164.40998 119.05041)">X</text>
  <text id="modelLine1" class="cls-38" transform="translate(164.40998 102.79205)">X</text>
  <text id="kwhAnnum" class="cls-41" transform="translate(239 421.24988)" text-anchor="middle">X</text>
  <text id="kg" class="cls-37" transform="translate(123.2 554.31042)" text-anchor="middle">X</text>
  <text id="washDb" class="cls-37" transform="translate(261 511.23035)" text-anchor="end">X</text>
  <text id="spinDb" class="cls-37" transform="translate(261 574.07019)" text-anchor="end">X</text>
  <text id="spinClass" class="cls-36" transform="translate(189.5 555.53015) scale(1 1.33333)" text-anchor="middle">
    <!-- Do not pretty-print these spans - they need to be all on one line to avoid whitespace between them when rendering -->
    <tspan id="spinClassALetter">A</tspan><tspan id="spinClassBLetter">B</tspan><tspan id="spinClassCLetter">C</tspan><tspan id="spinClassDLetter">D</tspan><tspan id="spinClassELetter">E</tspan><tspan id="spinClassFLetter">F</tspan><tspan id="spinClassGLetter">G</tspan>
  </text>
  <text id="lAnnum" class="cls-43" transform="translate(55 554.1698) scale(1 1.17647)" text-anchor="middle">X</text>
</svg>