<svg xmlns="http://www.w3.org/2000/svg" xmlns:xlink="http://www.w3.org/1999/xlink" id="Layer_1" data-name="Layer 1" width="100mm" height="200mm" viewBox="0 0 283.45999 566.92999" data-rating-increment="23.3666" data-supplier-model-chars-per-row="15">
  <defs>
    <style>
      .cls-1, .cls-10, .cls-12, .cls-13, .cls-14, .cls-15, .cls-18, .cls-19, .cls-20, .cls-21, .cls-22, .cls-23, .cls-29, .cls-43, .cls-45, .cls-52, .cls-54, .cls-55, .cls-56, .cls-8 {
        fill: none;
      }

      .cls-2, .cls-39 {
        font-size: 8px;
      }

      .cls-16, .cls-2, .cls-57, .cls-59, .cls-6, .cls-62, .cls-65 {
        fill: #231f20;
      }

      .cls-16, .cls-2, .cls-57, .cls-59, .cls-64 {
        font-family: Calibri;
      }

      .cls-3 {
        letter-spacing: -0.00928em;
      }

      .cls-4 {
        letter-spacing: -0.01709em;
      }

      .cls-5 {
        letter-spacing: -0.01465em;
      }

      .cls-57, .cls-6 {
        font-size: 10px;
      }

      .cls-37, .cls-38, .cls-39, .cls-6, .cls-63, .cls-65 {
        font-family: Calibri-Bold, Calibri;
        font-weight: 700;
      }

      .cls-7 {
        clip-path: url(#clip-path);
      }

      .cls-13, .cls-14, .cls-18, .cls-21, .cls-23, .cls-29, .cls-8 {
        stroke: #00aeef;
      }

      .cls-8 {
        stroke-width: 2px;
      }

      .cls-9 {
        clip-path: url(#clip-path-2);
      }

      .cls-10, .cls-15, .cls-19, .cls-22, .cls-52 {
        stroke: #fff;
      }

      .cls-10 {
        stroke-width: 0.753px;
      }

      .cls-11 {
        fill: #2aace3;
      }

      .cls-12, .cls-20 {
        stroke: #2aace3;
      }

      .cls-12 {
        stroke-width: 0.606px;
      }

      .cls-13, .cls-14, .cls-18, .cls-21, .cls-55, .cls-56 {
        stroke-linecap: round;
      }

      .cls-13, .cls-14, .cls-18, .cls-21, .cls-45, .cls-55, .cls-56 {
        stroke-linejoin: round;
      }

      .cls-13 {
        stroke-width: 1.533px;
      }

      .cls-14 {
        stroke-width: 0.863px;
      }

      .cls-15 {
        stroke-width: 0.792px;
      }

      .cls-16, .cls-59, .cls-64 {
        font-size: 14px;
      }

      .cls-17 {
        clip-path: url(#clip-path-4);
      }

      .cls-18 {
        stroke-width: 0.948px;
      }

      .cls-19 {
        stroke-width: 0.827px;
      }

      .cls-20 {
        stroke-width: 0.666px;
      }

      .cls-21 {
        stroke-width: 1.684px;
      }

      .cls-22 {
        stroke-width: 0.871px;
      }

      .cls-23 {
        stroke-width: 0.911px;
      }

      .cls-24 {
        fill: #034ea2;
      }

      .cls-25 {
        fill: #00aeef;
      }

      .cls-26 {
        fill: #fff200;
      }

      .cls-27, .cls-37, .cls-38, .cls-39, .cls-63, .cls-64 {
        fill: #fff;
      }

      .cls-28 {
        clip-path: url(#clip-path-6);
      }

      .cls-29 {
        stroke-width: 5px;
      }

      .cls-30 {
        fill: #00a651;
      }

      .cls-31 {
        fill: #50b848;
      }

      .cls-32 {
        fill: #bfd730;
      }

      .cls-33 {
        fill: #fdb913;
      }

      .cls-34 {
        fill: #f37021;
      }

      .cls-35 {
        fill: #ed1c24;
      }

      .cls-36 {
        clip-path: url(#clip-path-9);
      }

      .cls-37 {
        font-size: 17px;
      }

      .cls-38 {
        font-size: 19px;
      }

      .cls-40 {
        letter-spacing: 0.01001em;
      }

      .cls-41 {
        clip-path: url(#clip-path-12);
      }

      .cls-42 {
        fill: #49c8f5;
      }

      .cls-43, .cls-55 {
        stroke: #49c8f5;
      }

      .cls-43, .cls-54 {
        stroke-width: 0.905px;
      }

      .cls-44 {
        fill: #f9f9fa;
      }

      .cls-45 {
        stroke: #f9f9fa;
        stroke-width: 0.699px;
      }

      .cls-46 {
        opacity: 0.28;
      }

      .cls-47 {
        clip-path: url(#clip-path-13);
      }

      .cls-48 {
        clip-path: url(#clip-path-14);
      }

      .cls-49 {
        clip-path: url(#clip-path-15);
      }

      .cls-50 {
        clip-path: url(#clip-path-16);
      }

      .cls-51 {
        clip-path: url(#clip-path-17);
      }

      .cls-52 {
        stroke-width: 0.504px;
      }

      .cls-53 {
        fill: #f05327;
      }

      .cls-54 {
        stroke: #f05327;
      }

      .cls-55, .cls-56 {
        stroke-width: 0.839px;
      }

      .cls-56 {
        stroke: #f05427;
      }

      .cls-58 {
        letter-spacing: -0.01001em;
      }

      .cls-59 {
        letter-spacing: -0.01998em;
      }

      .cls-60 {
        letter-spacing: 0.00003em;
      }

      .cls-61 {
        letter-spacing: -0.01897em;
      }

      .cls-63 {
        font-size: 29px;
      }

      .cls-65 {
        font-size: 22px;
      }
    </style>
    <clipPath id="clip-path">
      <rect class="cls-1" y="0.00098" width="283.465" height="566.92902"/>
    </clipPath>
    <clipPath id="clip-path-2">
      <rect class="cls-1" x="115.667" y="433.53799" width="51.70901" height="37.84299"/>
    </clipPath>
    <clipPath id="clip-path-4">
      <rect class="cls-1" x="41.849" y="431.83398" width="38.439" height="41.31001"/>
    </clipPath>
    <clipPath id="clip-path-6">
      <rect class="cls-1" x="25.301" y="25.26099" width="232.863" height="45.561"/>
    </clipPath>
    <clipPath id="clip-path-9">
      <rect class="cls-1" x="25.54" y="154.66599" width="162.964" height="166.317"/>
    </clipPath>
    <clipPath id="clip-path-12">
      <rect class="cls-1" x="49.963" y="107.716" width="55.18299" height="26.095"/>
    </clipPath>
    <clipPath id="clip-path-13">
      <rect class="cls-1" x="53.5137" y="113.104" width="8.0855" height="10.604"/>
    </clipPath>
    <clipPath id="clip-path-14">
      <rect class="cls-1" x="61.887" y="111.37" width="10.4084" height="7.66101"/>
    </clipPath>
    <clipPath id="clip-path-15">
      <rect class="cls-1" x="61.887" y="111.371" width="10.408" height="7.66"/>
    </clipPath>
    <clipPath id="clip-path-16">
      <rect class="cls-1" x="61.772" y="120.772" width="8.6617" height="9.54398"/>
    </clipPath>
    <clipPath id="clip-path-17">
      <rect class="cls-1" x="61.772" y="120.77298" width="8.661" height="9.543"/>
    </clipPath>
  </defs>
  <title>cooling-only-air-conditioners</title>

  <text class="cls-6" transform="translate(24.94531 541.83136)">626/2011</text>
  <rect class="cls-1" y="0.00098" width="283.465" height="566.92902"/>
  <g class="cls-7">
    <path class="cls-8" d="M114.9598,428.06049s-8.883,0-8.883,8.883v52.377s0,8.883,8.883,8.883h53.545s8.883,0,8.883-8.883v-52.377s0-8.883-8.883-8.883Z"/>
  </g>
  <g class="cls-9">
    <path class="cls-10" d="M143.1499,417.7849q-1.3125-1.17-2.622-2.339h-1.871v-3.737h1.871q1.3095-1.16852,2.622-2.339l1.085-.965v10.348Z"/>
    <path class="cls-11" d="M142.8186,416.96759q-1.0575-.9435-2.112-1.884h-1.506v-3.011h1.506q1.0545-.9405,2.112-1.884l.874-.778v8.335Z"/>
    <path class="cls-12" d="M142.8186,416.96759q-1.0575-.9435-2.112-1.884h-1.506v-3.011h1.506q1.0545-.9405,2.112-1.884l.874-.778v8.335Z"/>
    <path class="cls-13" d="M152.6828,403.7065a17.99317,17.99317,0,0,1,.032,19.744m-3.285-17.022a12.37478,12.37478,0,0,1,.041,14.274m-3.175-11.576a6.98074,6.98074,0,0,1,.059,8.854"/>
    <polygon class="cls-14" points="135.197 466.704 135.197 470.951 166.944 470.951 166.944 449.009 151.07 434.545 135.197 449.009 135.197 466.704"/>
    <path class="cls-15" d="M129.5932,463.18229q1.38-1.2315,2.761-2.462h1.968v-3.935h-1.968q-1.38-1.2285-2.761-2.463l-1.142-1.016v10.895Z"/>
    <path class="cls-11" d="M129.94189,462.3215q1.113-.9915,2.224-1.983h1.586v-3.171h-1.586c-.741-.659-1.482-1.323-2.224-1.982l-.92-.821v8.777Z"/>
    <path class="cls-12" d="M129.94189,462.3215q1.113-.9915,2.224-1.983h1.586v-3.171h-1.586c-.741-.659-1.482-1.323-2.224-1.982l-.92-.821v8.777Z"/>
    <path class="cls-13" d="M119.5228,469.1476a18.93943,18.93943,0,0,1,.034-20.788m3.381,17.895a13.02486,13.02486,0,0,1,.044-15.028m3.237,12.162a7.35179,7.35179,0,0,1,.062-9.323"/>
  </g>
  <text class="cls-16" transform="translate(144.54785 492.72589)">d</text>
  <text class="cls-16" transform="translate(151.77148 492.72589)">B</text>
  <g class="cls-7">
    <path class="cls-8" d="M35.29,428.06049s-8.883,0-8.883,8.883v52.377s0,8.883,8.883,8.883H88.835s8.883,0,8.883-8.883v-52.377s0-8.883-8.883-8.883Z"/>
  </g>
  <g class="cls-17">
    <polygon class="cls-18" points="44.926 467.649 44.926 472.316 79.814 472.316 79.814 448.203 62.369 432.308 44.926 448.203 44.926 467.649"/>
    <path class="cls-19" d="M53.6658,461.589q-1.4415-1.2855-2.882-2.571h-2.055v-4.106h2.055q1.44-1.284,2.882-2.57l1.192-1.062v11.373Z"/>
    <path class="cls-11" d="M53.3017,460.69069q-1.1625-1.0365-2.321-2.071h-1.655v-3.309h1.655q1.1595-1.032,2.321-2.069l.961-.856v9.16Z"/>
    <path class="cls-20" d="M53.3017,460.69069q-1.1625-1.0365-2.321-2.071h-1.655v-3.309h1.655q1.1595-1.032,2.321-2.069l.961-.856v9.16Z"/>
    <path class="cls-21" d="M64.142,446.1179a19.76941,19.76941,0,0,1,.035,21.697m-3.61-18.706a13.595,13.595,0,0,1,.045,15.686m-3.489-12.721a7.67194,7.67194,0,0,1,.064,9.73"/>
    <polygon class="cls-18" points="44.926 515.348 44.926 520.015 79.814 520.015 79.814 495.902 62.369 480.007 44.926 495.902 44.926 515.348"/>
    <path class="cls-22" d="M38.7678,511.478q1.5165-1.353,3.034-2.706h2.163v-4.324h-2.163q-1.515-1.35-3.034-2.706l-1.255-1.118v11.973Z"/>
    <path class="cls-11" d="M39.1509,510.53209q1.2225-1.09049,2.444-2.18h1.743v-3.484h-1.743c-.814-.724-1.629-1.454-2.444-2.178l-1.011-.902v9.645Z"/>
    <path class="cls-20" d="M39.1509,510.53209q1.2225-1.09049,2.444-2.18h1.743v-3.484h-1.743c-.814-.724-1.629-1.454-2.444-2.178l-1.011-.902v9.645Z"/>
    <path class="cls-21" d="M27.7004,518.03279a20.81662,20.81662,0,0,1,.037-22.844m3.717,19.665a14.31246,14.31246,0,0,1,.048-16.514m3.557,13.365a8.07836,8.07836,0,0,1,.068-10.245"/>
  </g>
  <text class="cls-16" transform="translate(64.87842 492.72589)">d</text>
  <text class="cls-16" transform="translate(72.10254 492.72589)">B</text>
  <g class="cls-7">
    <line class="cls-23" x1="24.9453" y1="104.49008" x2="258.65628" y2="104.49008"/>
    
    <rect class="cls-25" x="95.502" y="25.38397" width="162.662" height="45.37402"/>
    
    
    
    
    
    
    
    
    
    
    
    

  <g id="union-flag" transform="translate(25.319, 25.38397) scale(1.5124673333333334)">
	<path id="blue" fill="#004289" d="M9.59,20L0,26.39V20H9.59z M39.59,0H27.5v8.06L39.59,0z M0,3.61V10h9.59L0,3.61z M17.5,0H5.41
		L17.5,8.06V0z M27.5,30h12.09L27.5,21.94V30z M45,10V3.61L35.41,10H45z M45,26.39V20h-9.59L45,26.39z M5.41,30H17.5v-8.06L5.41,30z
		"/>
	<path id="red" fill="#DC2F34" d="M45,18H25.5v12h-6V18H0v-6h19.5V0h6v12H45V18z M0,2.42L11.38,10h3.61L0,0.01V2.42z M45,27.58
		L33.62,20h-3.61L45,29.99V27.58z M17.5,20.74V20H15L0,30h3.61L17.5,20.74z M27.5,9.26V10H30L45,0h-3.61L27.5,9.26z"/>
</g><path id="energy-heading" d="M7.1581,7.21791H2.33537v3.7413H7.72769v1.90845H0V.13234H7.44305V2.04079H2.33537V5.32836H7.1581Zm3.53413,5.64975V.13234h2.677L16.67314,5.593a37.85159,37.85159,0,0,1,2.18339,4.27032h.038a51.82706,51.82706,0,0,1-.20865-5.29055V.13234h2.1644V12.86766H18.41992L15.07833,7.25572a43.774,43.774,0,0,1-2.2787-4.38342l-.076.0189c.095,1.64379.133,3.32538.133,5.42289v4.55357ZM31.63845,7.21791H26.81573v3.7413h5.392v1.90845H24.48V.13234h7.44305V2.04079H26.81573V5.32836h4.82272ZM35.19126.32139A20.16965,20.16965,0,0,1,38.72282.03781a5.98372,5.98372,0,0,1,3.94949,1.02056,3.228,3.228,0,0,1,1.1012,2.56949,3.347,3.347,0,0,1-2.3357,3.17446V6.859a3.16007,3.16007,0,0,1,1.7851,2.45638,32.106,32.106,0,0,0,1.00653,3.55224H41.83707a16.17761,16.17761,0,0,1-.85455-3.00431c-.37994-1.66269-.96854-2.19171-2.2977-2.22952H37.50764v5.23383H35.19126ZM37.50764,5.933h1.38647c1.57581,0,2.5437-.83119,2.5437-2.09719,0-1.37943-.96789-2.04079-2.487-2.04079a6.74576,6.74576,0,0,0-1.44314.11343Zm19.67341,6.34892A12.70364,12.70364,0,0,1,53.08022,13a6.96331,6.96331,0,0,1-5.032-1.7005,6.3681,6.3681,0,0,1-1.78446-4.68623C46.28243,2.56982,49.1494,0,53.38353,0a8.52961,8.52961,0,0,1,3.3989.60464l-.5126,1.87065a6.6378,6.6378,0,0,0-2.905-.54793c-2.73432,0-4.65207,1.606-4.65207,4.5728,0,2.89088,1.78509,4.61029,4.44342,4.61029a4.91246,4.91246,0,0,0,1.76578-.24577v-3.193H52.66228V5.8388h4.51877Zm6.23045.58573V7.55821L59.36734.13234h2.677l1.51914,3.269c.43661.94462.75924,1.66269,1.11987,2.53169h.038c.304-.81228.66458-1.606,1.10184-2.53169L67.361.13234H70L65.74719,7.50149v5.36617Z" fill="#fff" transform="translate(107.88244350879879, 37.99897556045313) scale(1.5124673333333334)"/></g>

  <g class="cls-7">
    <path class="cls-29" d="M26.371,16.45062s-9.921,0-9.921,9.921v514.187s0,9.92206,9.921,9.92206H257.094s9.921,0,9.921-9.92206V26.37164s0-9.921-9.921-9.921Z"/>
  </g>
  <g class="cls-7">
    <rect class="cls-27" x="25.54" y="154.66599" width="162.964" height="166.317"/>
    <polygon class="cls-30" points="25.54 161.282 25.54 180.974 107.487 180.974 117.239 171.128 107.487 161.282 25.54 161.282"/>
    <polygon class="cls-31" points="25.54 184.66 25.54 204.351 119.107 204.351 128.871 194.506 119.107 184.66 25.54 184.66"/>
    <polygon class="cls-32" points="25.54 208.037 25.54 227.73 130.456 227.73 140.223 217.884 130.456 208.037 25.54 208.037"/>
    <polygon class="cls-26" points="25.54 231.416 25.54 251.105 141.806 251.105 151.575 241.259 141.806 231.416 25.54 231.416"/>
    <polygon class="cls-33" points="25.54 254.792 25.54 274.482 153.155 274.482 162.929 264.639 153.155 254.792 25.54 254.792"/>
    <polygon class="cls-34" points="25.54 278.168 25.54 297.861 164.504 297.861 174.283 288.015 164.504 278.168 25.54 278.168"/>
    <polygon class="cls-35" points="25.54 301.544 25.54 320.983 175.536 320.983 185.69 311.391 175.271 301.544 25.54 301.544"/>
  </g>
  <g class="cls-36">
    <path class="cls-27" d="M236.1913,174.0191l-.865,3.131h-2.842l3.707-12.201h3.597l3.762,12.201h-2.953l-.935-3.131Zm3.076-2.064-.756-2.589c-.217-.724-.432-1.63-.613-2.353h-.035c-.178.723-.36,1.647-.557,2.353l-.721,2.589Z"/>
    <path class="cls-27" d="M232.57579,188.5166a21.71223,21.71223,0,0,1,3.545-.253,6.658,6.658,0,0,1,3.58.688,2.65717,2.65717,0,0,1,1.455,2.389,2.75668,2.75668,0,0,1-1.994,2.608v.036a3.04774,3.04774,0,0,1,2.408,3.006,3.25861,3.25861,0,0,1-1.258,2.589c-.88.706-2.357,1.104-4.769,1.104a20.95726,20.95726,0,0,1-2.967-.182Zm2.715,4.671h.9c1.442,0,2.215-.598,2.215-1.502,0-.924-.703-1.412-1.943-1.412a7.39284,7.39284,0,0,0-1.172.072Zm0,5.413a8.23226,8.23226,0,0,0,1.064.038c1.239,0,2.338-.489,2.338-1.756,0-1.234-1.099-1.72-2.464-1.72h-.938Z"/>
    <path class="cls-27" d="M241.5408,223.61719a7.67382,7.67382,0,0,1-3.115.545c-4.192,0-6.348-2.643-6.348-6.12,0-4.163,2.949-6.481,6.617-6.481a7.15481,7.15481,0,0,1,2.989.542l-.559,2.192a5.886,5.886,0,0,0-2.303-.454,4.01284,4.01284,0,0,0,.018,8.021,6.83994,6.83994,0,0,0,2.285-.398Z"/>
    <path class="cls-27" d="M231.79849,235.32721a24.63349,24.63349,0,0,1,3.707-.252,7.75453,7.75453,0,0,1,4.965,1.304,5.40559,5.40559,0,0,1,2.051,4.596,6.19268,6.19268,0,0,1-2.016,4.943,8.65445,8.65445,0,0,1-5.592,1.576,23.53972,23.53972,0,0,1-3.115-.182Zm2.754,9.958a4.8674,4.8674,0,0,0,.953.056c2.485.017,4.102-1.36,4.102-4.275a3.4874,3.4874,0,0,0-3.813-3.873,5.56632,5.56632,0,0,0-1.242.109Z"/>
    <polygon class="cls-27" points="238.953 265.512 234.492 265.512 234.492 268.409 239.474 268.409 239.474 270.671 231.74 270.671 231.74 258.469 239.223 258.469 239.223 260.734 234.492 260.734 234.492 263.268 238.953 263.268 238.953 265.512"/>
    <polygon class="cls-27" points="232.242 281.874 239.654 281.874 239.654 284.139 234.992 284.139 234.992 286.925 239.346 286.925 239.346 289.172 234.992 289.172 234.992 294.076 232.242 294.076 232.242 281.874"/>
    <path class="cls-27" d="M242.79469,316.81929a13.5121,13.5121,0,0,1-4.049.688,6.735,6.735,0,0,1-4.931-1.649,5.93027,5.93027,0,0,1-1.708-4.435c.018-4.055,2.95-6.373,6.926-6.373a8.29061,8.29061,0,0,1,3.364.598l-.575,2.209a6.68226,6.68226,0,0,0-2.824-.524,3.97558,3.97558,0,1,0,1.151,7.766v-2.554h-1.872v-2.154h4.518Z"/>
    <path class="cls-27" d="M235.8246,151.51691l-.864,3.114h-2.828l3.692-12.135h3.6l3.782,12.135h-2.971l-.937-3.114Zm3.078-2.053-.756-2.575c-.216-.72-.432-1.62-.612-2.341h-.036c-.18.721-.361,1.639-.558,2.341l-.721,2.575Z"/>
    <polygon class="cls-27" points="248.22 144.419 248.22 147.033 250.726 147.033 250.726 148.149 248.22 148.149 248.22 150.799 247.044 150.799 247.044 148.149 244.537 148.149 244.537 147.033 247.044 147.033 247.044 144.419 248.22 144.419"/>
  </g>
  <g class="cls-36">
    <text class="cls-37" transform="translate(25.84424 177.14972)"> </text>
  </g>
  <text class="cls-38" transform="translate(29.6875 177.14972)">A</text>
  <text class="cls-39" transform="translate(41.2002 169.14972)"><tspan class="cls-40">+</tspan><tspan x="4.06445" y="0">+</tspan></text>
  <text class="cls-39" transform="translate(49.34424 169.14972)">+</text>
  <g class="cls-36">
    <text class="cls-37" transform="translate(208.06348 215.83917)"><tspan xml:space="preserve"> A</tspan></text>
    <text class="cls-39" transform="translate(222.20801 208.83917)">+</text>
  </g>
  <text class="cls-37" transform="translate(26.62012 199.90948)"> </text>
  <text class="cls-38" transform="translate(30.46289 199.90948)">A</text>
  <text class="cls-39" transform="translate(41.97607 191.90948)">+</text>
  <text class="cls-39" transform="translate(46.04834 191.90948)">+</text>
  <text class="cls-37" transform="translate(26.80371 223.09113)"> </text>
  <text class="cls-38" transform="translate(30.64648 223.09113)">A</text>
  <text class="cls-39" transform="translate(42.15967 215.09113)">+</text>
  <text class="cls-37" transform="translate(26.80371 246.34894)"> </text>
  <text class="cls-38" transform="translate(30.64648 246.34894)">A</text>
  <text class="cls-37" transform="translate(26.43652 269.84503)"> </text>
  <text class="cls-38" transform="translate(30.2793 269.84503)">B</text>
  <text class="cls-37" transform="translate(26.43652 293.07648)"> </text>
  <text class="cls-38" transform="translate(30.2793 293.07648)">C</text>
  <text class="cls-37" transform="translate(26.43652 316.75128)"> </text>
  <text class="cls-38" transform="translate(30.2793 316.75128)">D</text>
  <g class="cls-41">
    <path class="cls-42" d="M51.7737,120.5621a11.5475,11.5475,0,1,1,11.547,11.551,11.54751,11.54751,0,0,1-11.547-11.551"/>
    <path class="cls-43" d="M51.7737,120.5621a11.5475,11.5475,0,1,1,11.547,11.551A11.54751,11.54751,0,0,1,51.7737,120.5621Z"/>
    <path class="cls-44" d="M65.216,120.79358s-.83-.003-2.133,1.889a2.95753,2.95753,0,0,1-.055,2.943c-.551.897-2.16,2.423-1.434,3.772,1.057,1.962,8.166.025,8.753-3.32.754-4.3-3.169-5.36-5.131-5.284"/>
    <path class="cls-45" d="M65.216,120.79358s-.83-.003-2.133,1.889a2.95753,2.95753,0,0,1-.055,2.943c-.551.897-2.16,2.423-1.434,3.772,1.057,1.962,8.166.025,8.753-3.32C71.101,121.77759,67.178,120.71759,65.216,120.79358Z"/>
    <path class="cls-44" d="M61.3723,121.86609a5.018,5.018,0,0,0,.183-2.843,2.95712,2.95712,0,0,1-2.035-2.127c-.241-1.025-.283-2.978-1.641-3.687-1.944-1.015-5.716,5.625-3.871,8.523,2.23,3.5,6.025,1.57,7.364.134"/>
    <path class="cls-45" d="M61.3723,121.86609a5.018,5.018,0,0,0,.183-2.843,2.95712,2.95712,0,0,1-2.035-2.127c-.241-1.025-.283-2.978-1.641-3.687-1.944-1.015-5.716,5.625-3.871,8.523C56.2383,125.23212,60.0333,123.30209,61.3723,121.86609Z"/>
    <path class="cls-44" d="M62.5917,118.45038s.436.761,2.642,1.068a2.95225,2.95225,0,0,1,2.658-1.262c1.049.092,3.247.926,4.016-.398,1.382-2.378-3.447-7.098-6.872-6.356-4.056.879-3.386,5.225-2.444,6.948"/>
    <path class="cls-45" d="M62.5917,118.45038s.436.761,2.642,1.068a2.95225,2.95225,0,0,1,2.658-1.262c1.049.092,3.247.926,4.016-.398,1.382-2.378-3.447-7.098-6.872-6.356C60.9797,112.38141,61.6497,116.72739,62.5917,118.45038Z"/>
    <path class="cls-42" d="M61.2008,120.5621a2.1205,2.1205,0,1,1,2.12,2.121,2.1198,2.1198,0,0,1-2.12-2.121"/>
    <path class="cls-52" d="M61.2008,120.5621a2.1205,2.1205,0,1,1,2.12,2.121A2.1198,2.1198,0,0,1,61.2008,120.5621Z"/>
    <path class="cls-53" d="M51.7737,156.385a11.5475,11.5475,0,1,1,11.547,11.551,11.54752,11.54752,0,0,1-11.547-11.551"/>
    <path class="cls-54" d="M51.7737,156.385a11.5475,11.5475,0,1,1,11.547,11.551A11.54752,11.54752,0,0,1,51.7737,156.385Z"/>
    <path class="cls-44" d="M65.2161,156.61649s-.83-.003-2.133,1.889a2.95606,2.95606,0,0,1-.056,2.943c-.55.897-2.159,2.423-1.433,3.772,1.056,1.962,8.166.025,8.753-3.32.754-4.3-3.169-5.36-5.131-5.284"/>
    <path class="cls-45" d="M65.2161,156.61649s-.83-.003-2.133,1.889a2.95606,2.95606,0,0,1-.056,2.943c-.55.897-2.159,2.423-1.433,3.772,1.056,1.962,8.166.025,8.753-3.32C71.1011,157.60049,67.1781,156.5405,65.2161,156.61649Z"/>
    <path class="cls-44" d="M61.3723,157.689a5.018,5.018,0,0,0,.183-2.843,2.95492,2.95492,0,0,1-2.034-2.127c-.242-1.025-.284-2.978-1.642-3.687-1.944-1.015-5.716,5.625-3.871,8.523,2.23,3.5,6.025,1.57,7.364.134"/>
    <path class="cls-45" d="M61.3723,157.689a5.018,5.018,0,0,0,.183-2.843,2.95492,2.95492,0,0,1-2.034-2.127c-.242-1.025-.284-2.978-1.642-3.687-1.944-1.015-5.716,5.625-3.871,8.523C56.2383,161.055,60.0333,159.125,61.3723,157.689Z"/>
    <path class="cls-44" d="M62.5916,154.27328s.436.761,2.642,1.068a2.953,2.953,0,0,1,2.659-1.262c1.048.092,3.246.926,4.016-.398,1.381-2.378-3.448-7.098-6.873-6.356-4.056.879-3.386,5.225-2.444,6.948"/>
    <path class="cls-45" d="M62.5916,154.27328s.436.761,2.642,1.068a2.953,2.953,0,0,1,2.659-1.262c1.048.092,3.246.926,4.016-.398,1.381-2.378-3.448-7.098-6.873-6.356C60.9796,148.20432,61.6496,152.55029,62.5916,154.27328Z"/>
    <path class="cls-53" d="M61.2008,156.385a2.1205,2.1205,0,1,1,2.12,2.121,2.11981,2.11981,0,0,1-2.12-2.121"/>
    <path class="cls-52" d="M61.2008,156.385a2.1205,2.1205,0,1,1,2.12,2.121A2.11981,2.11981,0,0,1,61.2008,156.385Z"/>
    <path class="cls-55" d="M104.2003,114.92209s-7.715-3.645-13.224-.016c-5.509,3.628-13.225.016-13.225.016"/>
    <polyline class="cls-55" points="102.813 113.272 104.715 114.922 102.485 115.52"/>
    <path class="cls-55" d="M104.2003,118.52s-7.715-3.645-13.224-.016c-5.509,3.628-13.225.016-13.225.016"/>
    <polyline class="cls-55" points="102.813 116.87 104.715 118.52 102.485 119.118"/>
    <path class="cls-55" d="M104.2003,122.11789s-7.715-3.645-13.224-.016c-5.509,3.628-13.225.016-13.225.016"/>
    <polyline class="cls-55" points="102.813 120.468 104.715 122.118 102.485 122.716"/>
    <path class="cls-55" d="M104.2003,125.71579s-7.715-3.645-13.224-.016c-5.509,3.628-13.225.016-13.225.016"/>
    <polyline class="cls-55" points="102.813 124.066 104.715 125.716 102.485 126.314"/>
    <path class="cls-56" d="M104.2003,151.24039s-7.715-3.645-13.224-.016c-5.509,3.628-13.225.016-13.225.016"/>
    <polyline class="cls-56" points="102.813 149.591 104.715 151.241 102.485 151.839"/>
    <path class="cls-56" d="M104.2003,154.74118s-7.715-3.645-13.224-.016c-5.509,3.628-13.225.016-13.225.016"/>
    <polyline class="cls-56" points="102.813 153.091 104.715 154.742 102.485 155.34"/>
    <path class="cls-56" d="M104.2003,158.242s-7.715-3.645-13.224-.016c-5.509,3.628-13.225.016-13.225.016"/>
    <polyline class="cls-56" points="102.813 156.592 104.715 158.242 102.485 158.84"/>
    <path class="cls-56" d="M104.2092,161.74271s-7.715-3.645-13.224-.016c-5.509,3.628-13.225.016-13.225.016"/>
    <polyline class="cls-56" points="102.822 160.093 104.724 161.743 102.494 162.341"/>
  </g>
  <text class="cls-57" transform="translate(25.47656 123.2547)">S</text>
  <text class="cls-57" transform="translate(30.09668 123.2547)"><tspan class="cls-58">E</tspan><tspan x="4.78271" y="0">E</tspan></text>
  <text class="cls-57" transform="translate(39.65674 123.2547)">R</text>
  <g class="cls-7">
    <path class="cls-8" d="M35.304,349.98079s-8.883,0-8.883,8.883v52.377s0,8.883,8.883,8.883H88.849s8.883,0,8.883-8.883v-52.377s0-8.883-8.883-8.883Z"/>
  </g>
  <text class="cls-16" transform="translate(52.7251 401.80206)">k</text>
  <text class="cls-16" transform="translate(58.98291 401.80206)">W</text>
  <g class="cls-7">
    <path class="cls-8" d="M114.9598,349.98279s-8.883,0-8.883,8.883v52.377s0,8.883,8.883,8.883h53.545s8.883,0,8.883-8.883v-52.377s0-8.883-8.883-8.883Z"/>
  </g>
  <text class="cls-16" transform="translate(128.20117 401.80402)">S</text>
  <text class="cls-59" transform="translate(134.55713 401.80402)">E<tspan class="cls-60" x="6.55615" y="0">E</tspan></text>
  <text class="cls-16" transform="translate(147.66113 401.80402)">R</text>
  <g class="cls-7">
    <path class="cls-8" d="M194.3264,349.98279s-8.883,0-8.883,8.883v52.377s0,8.883,8.883,8.883h53.545s8.883,0,8.883-8.883v-52.377s0-8.883-8.883-8.883Z"/>
  </g>
  <text class="cls-16" transform="translate(186.62598 401.80402)">k</text>
  <text class="cls-16" transform="translate(192.74414 401.80402)">W</text>
  <text class="cls-16" transform="translate(204.98047 401.80402)">h</text>
  <text class="cls-16" transform="translate(212.03613 401.80402)">/</text>
  <text class="cls-16" transform="translate(216.74023 401.80402)"><tspan class="cls-61">a</tspan><tspan x="6.44043" y="0">n</tspan></text>
  <text class="cls-16" transform="translate(230.26367 401.80402)">n</text>
  <text class="cls-16" transform="translate(237.33398 401.80402)">u</text>
  <text class="cls-16" transform="translate(244.41797 401.80402)">m</text>
  <g id="rating">
    <polyline id="ratingArrow" class="cls-62" points="194.06 171.13 215.21 149.78 258.66 149.78 258.66 192.47 215.21 192.47 194.06 171.13"/>
    <text id="ratingLetter" class="cls-63" transform="translate(209.08008 179.63019)">A</text>
    <text id="ratingPlusses" class="cls-64" transform="translate(225.51953 167.86993)">+++</text>
  </g>
  <text id="kw" class="cls-65" transform="translate(61.8999 384.80011)" text-anchor="middle">X</text>
  <text id="seer" class="cls-65" transform="translate(141.72998 384.80011)" text-anchor="middle">X</text>
  <text id="kwhAnnum" class="cls-65" transform="translate(220.58008 384.80011)" text-anchor="middle">X</text>
  <text id="insideDb" class="cls-65" transform="translate(41.18994 492.72003)">X</text>
  <text id="outsideDb" class="cls-65" transform="translate(120.83984 492.72003)">X</text>
  <text id="supplierLine2" class="cls-16" transform="translate(25.301 99.11652)">X</text>
  <text id="supplierLine1" class="cls-16" transform="translate(25.301 84.82501)">X</text>
  <text id="modelLine2" class="cls-16" transform="translate(151.37034 99.11652)">X</text>
  <text id="modelLine1" class="cls-16" transform="translate(151.37034 84.82501)">X</text>
</svg>