<svg id="Layer_1" data-name="Layer 1" xmlns="http://www.w3.org/2000/svg" xmlns:xlink="http://www.w3.org/1999/xlink" width="100mm" height="200mm" viewBox="0 0 283.45999 566.92999" data-rating-increment="23.3666" data-supplier-model-chars-per-row="15">
  <defs>
    <style>
      .cls-1, .cls-10, .cls-12, .cls-13, .cls-14, .cls-15, .cls-18, .cls-19, .cls-20, .cls-21, .cls-22, .cls-23, .cls-29, .cls-43, .cls-45, .cls-52, .cls-54, .cls-55, .cls-56, .cls-8 {
        fill: none;
      }

      .cls-2, .cls-39 {
        font-size: 8px;
      }

      .cls-16, .cls-2, .cls-57, .cls-59, .cls-6, .cls-62, .cls-65 {
        fill: #231f20;
      }

      .cls-16, .cls-2, .cls-57, .cls-59, .cls-64 {
        font-family: Calibri;
      }

      .cls-3 {
        letter-spacing: -0.00928em;
      }

      .cls-4 {
        letter-spacing: -0.01709em;
      }

      .cls-5 {
        letter-spacing: -0.01465em;
      }

      .cls-57, .cls-6 {
        font-size: 10px;
      }

      .cls-37, .cls-38, .cls-39, .cls-6, .cls-63, .cls-65 {
        font-family: Calibri-Bold, Calibri;
        font-weight: 700;
      }

      .cls-7 {
        clip-path: url(#clip-path);
      }

      .cls-13, .cls-14, .cls-18, .cls-21, .cls-23, .cls-29, .cls-8 {
        stroke: #00aeef;
      }

      .cls-8 {
        stroke-width: 2px;
      }

      .cls-9 {
        clip-path: url(#clip-path-2);
      }

      .cls-10, .cls-15, .cls-19, .cls-22, .cls-52 {
        stroke: #fff;
      }

      .cls-10 {
        stroke-width: 0.753px;
      }

      .cls-11 {
        fill: #2aace3;
      }

      .cls-12, .cls-20 {
        stroke: #2aace3;
      }

      .cls-12 {
        stroke-width: 0.606px;
      }

      .cls-13, .cls-14, .cls-18, .cls-21, .cls-55, .cls-56 {
        stroke-linecap: round;
      }

      .cls-13, .cls-14, .cls-18, .cls-21, .cls-45, .cls-55, .cls-56 {
        stroke-linejoin: round;
      }

      .cls-13 {
        stroke-width: 1.533px;
      }

      .cls-14 {
        stroke-width: 0.863px;
      }

      .cls-15 {
        stroke-width: 0.792px;
      }

      .cls-16, .cls-59, .cls-64 {
        font-size: 14px;
      }

      .cls-17 {
        clip-path: url(#clip-path-4);
      }

      .cls-18 {
        stroke-width: 0.948px;
      }

      .cls-19 {
        stroke-width: 0.827px;
      }

      .cls-20 {
        stroke-width: 0.666px;
      }

      .cls-21 {
        stroke-width: 1.684px;
      }

      .cls-22 {
        stroke-width: 0.871px;
      }

      .cls-23 {
        stroke-width: 0.911px;
      }

      .cls-24 {
        fill: #034ea2;
      }

      .cls-25 {
        fill: #00aeef;
      }

      .cls-26 {
        fill: #fff200;
      }

      .cls-27, .cls-37, .cls-38, .cls-39, .cls-63, .cls-64 {
        fill: #fff;
      }

      .cls-28 {
        clip-path: url(#clip-path-6);
      }

      .cls-29 {
        stroke-width: 5px;
      }

      .cls-30 {
        fill: #00a651;
      }

      .cls-31 {
        fill: #50b848;
      }

      .cls-32 {
        fill: #bfd730;
      }

      .cls-33 {
        fill: #fdb913;
      }

      .cls-34 {
        fill: #f37021;
      }

      .cls-35 {
        fill: #ed1c24;
      }

      .cls-36 {
        clip-path: url(#clip-path-9);
      }

      .cls-37 {
        font-size: 17px;
      }

      .cls-38 {
        font-size: 19px;
      }

      .cls-40 {
        letter-spacing: 0.01001em;
      }

      .cls-41 {
        clip-path: url(#clip-path-12);
      }

      .cls-42 {
        fill: #49c8f5;
      }

      .cls-43, .cls-55 {
        stroke: #49c8f5;
      }

      .cls-43, .cls-54 {
        stroke-width: 0.905px;
      }

      .cls-44 {
        fill: #f9f9fa;
      }

      .cls-45 {
        stroke: #f9f9fa;
        stroke-width: 0.699px;
      }

      .cls-46 {
        opacity: 0.28;
      }

      .cls-47 {
        clip-path: url(#clip-path-13);
      }

      .cls-48 {
        clip-path: url(#clip-path-14);
      }

      .cls-49 {
        clip-path: url(#clip-path-15);
      }

      .cls-50 {
        clip-path: url(#clip-path-16);
      }

      .cls-51 {
        clip-path: url(#clip-path-17);
      }

      .cls-52 {
        stroke-width: 0.504px;
      }

      .cls-53 {
        fill: #f05327;
      }

      .cls-54 {
        stroke: #f05327;
      }

      .cls-55, .cls-56 {
        stroke-width: 0.839px;
      }

      .cls-56 {
        stroke: #f05427;
      }

      .cls-58 {
        letter-spacing: -0.01001em;
      }

      .cls-59 {
        letter-spacing: -0.01998em;
      }

      .cls-60 {
        letter-spacing: 0.00003em;
      }

      .cls-61 {
        letter-spacing: -0.01897em;
      }

      .cls-63 {
        font-size: 29px;
      }

      .cls-65 {
        font-size: 22px;
      }
    </style>
    <clipPath id="clip-path">
      <rect class="cls-1" y="0.00098" width="283.465" height="566.92902"/>
    </clipPath>
    <clipPath id="clip-path-2">
      <rect class="cls-1" x="115.667" y="433.53799" width="51.70901" height="37.84299"/>
    </clipPath>
    <clipPath id="clip-path-4">
      <rect class="cls-1" x="41.849" y="431.83398" width="38.439" height="41.31001"/>
    </clipPath>
    <clipPath id="clip-path-6">
      <rect class="cls-1" x="25.301" y="25.26099" width="232.863" height="45.561"/>
    </clipPath>
    <clipPath id="clip-path-9">
      <rect class="cls-1" x="25.54" y="154.66599" width="162.964" height="166.317"/>
    </clipPath>
    <clipPath id="clip-path-12">
      <rect class="cls-1" x="49.963" y="107.716" width="55.18299" height="26.095"/>
    </clipPath>
    <clipPath id="clip-path-13">
      <rect class="cls-1" x="53.5137" y="113.104" width="8.0855" height="10.604"/>
    </clipPath>
    <clipPath id="clip-path-14">
      <rect class="cls-1" x="61.887" y="111.37" width="10.4084" height="7.66101"/>
    </clipPath>
    <clipPath id="clip-path-15">
      <rect class="cls-1" x="61.887" y="111.371" width="10.408" height="7.66"/>
    </clipPath>
    <clipPath id="clip-path-16">
      <rect class="cls-1" x="61.772" y="120.772" width="8.6617" height="9.54398"/>
    </clipPath>
    <clipPath id="clip-path-17">
      <rect class="cls-1" x="61.772" y="120.77298" width="8.661" height="9.543"/>
    </clipPath>
  </defs>
  <title>cooling-only-air-conditioners</title>
  <text class="cls-2" transform="translate(24.91344 516.13478)">ENE<tspan class="cls-3" x="12.97656" y="0">R</tspan><tspan x="17.24609" y="0">GIA · ЕНЕРГИЯ · ΕΝΕΡΓΕΙΑ · ENE</tspan><tspan class="cls-3" x="119.75" y="0">R</tspan><tspan x="124.01953" y="0">GI</tspan><tspan class="cls-4" x="131.08203" y="0">J</tspan><tspan x="133.49609" y="0">A · ENE</tspan><tspan class="cls-3" x="156.73828" y="0">R</tspan><tspan class="cls-5" x="161.00781" y="0">G</tspan><tspan x="165.9375" y="0">Y · ENE</tspan><tspan class="cls-3" x="188.44922" y="0">R</tspan><tspan x="192.71875" y="0">GIE · ENE</tspan><tspan class="cls-3" x="222.30078" y="0">R</tspan><tspan x="226.57031" y="0">GI</tspan></text>
  <text class="cls-6" transform="translate(24.94531 541.83136)">626/2011</text>
  <rect class="cls-1" y="0.00098" width="283.465" height="566.92902"/>
  <g class="cls-7">
    <path class="cls-8" d="M114.9598,428.06049s-8.883,0-8.883,8.883v52.377s0,8.883,8.883,8.883h53.545s8.883,0,8.883-8.883v-52.377s0-8.883-8.883-8.883Z"/>
  </g>
  <g class="cls-9">
    <path class="cls-10" d="M143.1499,417.7849q-1.3125-1.17-2.622-2.339h-1.871v-3.737h1.871q1.3095-1.16852,2.622-2.339l1.085-.965v10.348Z"/>
    <path class="cls-11" d="M142.8186,416.96759q-1.0575-.9435-2.112-1.884h-1.506v-3.011h1.506q1.0545-.9405,2.112-1.884l.874-.778v8.335Z"/>
    <path class="cls-12" d="M142.8186,416.96759q-1.0575-.9435-2.112-1.884h-1.506v-3.011h1.506q1.0545-.9405,2.112-1.884l.874-.778v8.335Z"/>
    <path class="cls-13" d="M152.6828,403.7065a17.99317,17.99317,0,0,1,.032,19.744m-3.285-17.022a12.37478,12.37478,0,0,1,.041,14.274m-3.175-11.576a6.98074,6.98074,0,0,1,.059,8.854"/>
    <polygon class="cls-14" points="135.197 466.704 135.197 470.951 166.944 470.951 166.944 449.009 151.07 434.545 135.197 449.009 135.197 466.704"/>
    <path class="cls-15" d="M129.5932,463.18229q1.38-1.2315,2.761-2.462h1.968v-3.935h-1.968q-1.38-1.2285-2.761-2.463l-1.142-1.016v10.895Z"/>
    <path class="cls-11" d="M129.94189,462.3215q1.113-.9915,2.224-1.983h1.586v-3.171h-1.586c-.741-.659-1.482-1.323-2.224-1.982l-.92-.821v8.777Z"/>
    <path class="cls-12" d="M129.94189,462.3215q1.113-.9915,2.224-1.983h1.586v-3.171h-1.586c-.741-.659-1.482-1.323-2.224-1.982l-.92-.821v8.777Z"/>
    <path class="cls-13" d="M119.5228,469.1476a18.93943,18.93943,0,0,1,.034-20.788m3.381,17.895a13.02486,13.02486,0,0,1,.044-15.028m3.237,12.162a7.35179,7.35179,0,0,1,.062-9.323"/>
  </g>
  <text class="cls-16" transform="translate(144.54785 492.72589)">d</text>
  <text class="cls-16" transform="translate(151.77148 492.72589)">B</text>
  <g class="cls-7">
    <path class="cls-8" d="M35.29,428.06049s-8.883,0-8.883,8.883v52.377s0,8.883,8.883,8.883H88.835s8.883,0,8.883-8.883v-52.377s0-8.883-8.883-8.883Z"/>
  </g>
  <g class="cls-17">
    <polygon class="cls-18" points="44.926 467.649 44.926 472.316 79.814 472.316 79.814 448.203 62.369 432.308 44.926 448.203 44.926 467.649"/>
    <path class="cls-19" d="M53.6658,461.589q-1.4415-1.2855-2.882-2.571h-2.055v-4.106h2.055q1.44-1.284,2.882-2.57l1.192-1.062v11.373Z"/>
    <path class="cls-11" d="M53.3017,460.69069q-1.1625-1.0365-2.321-2.071h-1.655v-3.309h1.655q1.1595-1.032,2.321-2.069l.961-.856v9.16Z"/>
    <path class="cls-20" d="M53.3017,460.69069q-1.1625-1.0365-2.321-2.071h-1.655v-3.309h1.655q1.1595-1.032,2.321-2.069l.961-.856v9.16Z"/>
    <path class="cls-21" d="M64.142,446.1179a19.76941,19.76941,0,0,1,.035,21.697m-3.61-18.706a13.595,13.595,0,0,1,.045,15.686m-3.489-12.721a7.67194,7.67194,0,0,1,.064,9.73"/>
    <polygon class="cls-18" points="44.926 515.348 44.926 520.015 79.814 520.015 79.814 495.902 62.369 480.007 44.926 495.902 44.926 515.348"/>
    <path class="cls-22" d="M38.7678,511.478q1.5165-1.353,3.034-2.706h2.163v-4.324h-2.163q-1.515-1.35-3.034-2.706l-1.255-1.118v11.973Z"/>
    <path class="cls-11" d="M39.1509,510.53209q1.2225-1.09049,2.444-2.18h1.743v-3.484h-1.743c-.814-.724-1.629-1.454-2.444-2.178l-1.011-.902v9.645Z"/>
    <path class="cls-20" d="M39.1509,510.53209q1.2225-1.09049,2.444-2.18h1.743v-3.484h-1.743c-.814-.724-1.629-1.454-2.444-2.178l-1.011-.902v9.645Z"/>
    <path class="cls-21" d="M27.7004,518.03279a20.81662,20.81662,0,0,1,.037-22.844m3.717,19.665a14.31246,14.31246,0,0,1,.048-16.514m3.557,13.365a8.07836,8.07836,0,0,1,.068-10.245"/>
  </g>
  <text class="cls-16" transform="translate(64.87842 492.72589)">d</text>
  <text class="cls-16" transform="translate(72.10254 492.72589)">B</text>
  <g class="cls-7">
    <line class="cls-23" x1="24.9453" y1="104.49008" x2="258.65628" y2="104.49008"/>
    <rect class="cls-24" x="25.319" y="25.38397" width="67.936" height="45.37402"/>
    <rect class="cls-25" x="95.502" y="25.38397" width="162.662" height="45.37402"/>
    <polygon class="cls-26" points="73.324 40.51 74.784 39.45 72.979 39.45 72.421 37.733 71.863 39.45 70.058 39.45 71.519 40.51 70.961 42.228 72.422 41.167 73.882 42.228 73.324 40.51"/>
    <polygon class="cls-26" points="67.639 35.066 69.099 34.005 67.294 34.005 66.736 32.288 66.178 34.005 64.373 34.005 65.834 35.066 65.276 36.783 66.736 35.722 68.197 36.783 67.639 35.066"/>
    <polygon class="cls-26" points="60.305 33.119 61.766 32.058 59.96 32.058 59.403 30.341 58.844 32.058 57.039 32.058 58.5 33.119 57.942 34.836 59.403 33.775 60.863 34.836 60.305 33.119"/>
    <polygon class="cls-26" points="52.581 35.066 54.041 34.005 52.236 34.005 51.678 32.288 51.12 34.005 49.315 34.005 50.776 35.066 50.218 36.783 51.678 35.722 53.139 36.783 52.581 35.066"/>
    <polygon class="cls-26" points="47.064 40.777 48.524 39.716 46.719 39.716 46.161 37.999 45.603 39.716 43.798 39.716 45.259 40.777 44.701 42.494 46.161 41.433 47.622 42.494 47.064 40.777"/>
    <polygon class="cls-26" points="45.302 48.281 46.762 47.22 44.957 47.22 44.399 45.503 43.841 47.22 42.036 47.22 43.497 48.281 42.939 49.998 44.399 48.937 45.86 49.998 45.302 48.281"/>
    <polygon class="cls-26" points="47.119 55.884 48.58 54.823 46.774 54.823 46.216 53.106 45.658 54.823 43.853 54.823 45.314 55.884 44.756 57.601 46.216 56.54 47.677 57.601 47.119 55.884"/>
    <polygon class="cls-26" points="52.581 61.287 54.041 60.226 52.236 60.226 51.678 58.509 51.12 60.226 49.315 60.226 50.776 61.287 50.218 63.004 51.678 61.943 53.139 63.004 52.581 61.287"/>
    <polygon class="cls-26" points="60.305 63.299 61.765 62.238 59.96 62.238 59.402 60.521 58.844 62.238 57.039 62.238 58.5 63.299 57.942 65.016 59.403 63.955 60.863 65.016 60.305 63.299"/>
    <polygon class="cls-26" points="67.819 61.259 69.28 60.198 67.474 60.198 66.916 58.481 66.358 60.198 64.553 60.198 66.013 61.259 65.456 62.976 66.916 61.915 68.377 62.976 67.819 61.259"/>
    <polygon class="cls-26" points="73.285 55.835 74.745 54.774 72.94 54.774 72.382 53.057 71.824 54.774 70.019 54.774 71.48 55.835 70.921 57.552 72.383 56.491 73.843 57.552 73.285 55.835"/>
    <polygon class="cls-26" points="75.298 48.176 76.757 47.115 74.952 47.115 74.394 45.398 73.837 47.115 72.031 47.115 73.493 48.176 72.934 49.893 74.396 48.832 75.855 49.893 75.298 48.176"/>
    <polygon class="cls-27" points="115.204 43.903 107.916 43.903 107.916 49.584 116.065 49.584 116.065 52.482 104.387 52.482 104.387 33.143 115.634 33.143 115.634 36.041 107.916 36.041 107.916 41.034 115.204 41.034 115.204 43.903"/>
  </g>
  <g class="cls-28">
    <path class="cls-27" d="M120.5985,52.48157v-19.339h4.017l4.992,8.292a53.33956,53.33956,0,0,1,3.3,6.48505h.057c-.229-2.582-.315-5.079-.315-8.034v-6.743h3.27v19.339h-3.643l-5.05-8.522a63.899,63.899,0,0,1-3.472-6.656l-.086.029c.143,2.496.172,5.049.172,8.234v6.915Z"/>
    <polygon class="cls-27" points="152.246 43.903 144.958 43.903 144.958 49.584 153.107 49.584 153.107 52.482 141.429 52.482 141.429 33.143 152.676 33.143 152.676 36.041 144.958 36.041 144.958 41.034 152.246 41.034 152.246 43.903"/>
    <path class="cls-27" d="M157.639,33.40161a33.45,33.45,0,0,1,5.337-.402c2.783,0,4.677.459,5.968,1.549a4.89684,4.89684,0,0,1,1.664,3.874,5.15873,5.15873,0,0,1-3.5,4.849v.086c1.377.51606,2.209,1.86506,2.697,3.73a38.47768,38.47768,0,0,0,1.521,5.394h-3.644a27.20969,27.20969,0,0,1-1.291-4.562c-.546-2.525-1.464-3.328-3.472-3.386H161.14v7.948h-3.501Zm3.501,8.55h2.094c2.382,0,3.874-1.26294,3.874-3.185,0-2.123-1.492-3.099-3.788-3.099a10.05384,10.05384,0,0,0-2.18.173Z"/>
    <path class="cls-27" d="M190.8932,51.592a19.15844,19.15844,0,0,1-6.226,1.09c-3.271,0-5.739-.832-7.575-2.582a9.57938,9.57938,0,0,1-2.697-7.116c0-6.111,4.361-10.042,10.76-10.042a12.83359,12.83359,0,0,1,5.135.918l-.775,2.841a10.41069,10.41069,0,0,0-4.389-.832c-4.132,0-7.03,2.439-7.03,6.943,0,4.39,2.697,7.001,6.714,7.001a6.7609,6.7609,0,0,0,2.669-.402v-4.82h-3.415V41.808h6.829Z"/>
    <path class="cls-27" d="M104.0397,60.37042c.033.904.795,1.294,1.656,1.294a4.33568,4.33568,0,0,0,1.491-.226l.199.873a5.39817,5.39817,0,0,1-1.878.318,2.46849,2.46849,0,0,1-2.771-2.536,2.55326,2.55326,0,0,1,2.628-2.691,2.2264,2.2264,0,0,1,2.319,2.434,2.80272,2.80272,0,0,1-.045.534Zm2.363-.883a1.09888,1.09888,0,0,0-1.115-1.222,1.27685,1.27685,0,0,0-1.248,1.222Z"/>
    <polygon class="cls-27" points="110.178 57.516 110.178 59.426 112.254 59.426 112.254 57.516 113.612 57.516 113.612 62.517 112.254 62.517 112.254 60.411 110.178 60.411 110.178 62.517 108.82 62.517 108.82 57.516 110.178 57.516"/>
    <path class="cls-27" d="M116.07269,60.37042c.034.904.795,1.294,1.657,1.294a4.32951,4.32951,0,0,0,1.49-.226l.199.873a5.39191,5.39191,0,0,1-1.877.318,2.46882,2.46882,0,0,1-2.772-2.536,2.55326,2.55326,0,0,1,2.628-2.691,2.2264,2.2264,0,0,1,2.319,2.434,2.9099,2.9099,0,0,1-.044.534Zm2.363-.883a1.09889,1.09889,0,0,0-1.115-1.222,1.27686,1.27686,0,0,0-1.248,1.222Z"/>
    <path class="cls-27" d="M120.8642,59.1788c0-.657-.022-1.19-.044-1.663h1.192l.067.77h.022a2.14226,2.14226,0,0,1,1.843-.883,2.33337,2.33337,0,0,1,2.264,2.547,2.45243,2.45243,0,0,1-2.451,2.679,1.81645,1.81645,0,0,1-1.513-.667h-.022v2.587h-1.358Zm1.358,1.243a1.20725,1.20725,0,0,0,1.236,1.232c.862,0,1.37-.667,1.37-1.653,0-.883-.464-1.602-1.336-1.602a1.24674,1.24674,0,0,0-1.215.935,1.068,1.068,0,0,0-.055.318Z"/>
    <polygon class="cls-27" points="130.922 57.516 130.922 58.512 128.725 58.512 128.725 62.517 127.366 62.517 127.366 57.516 130.922 57.516"/>
    <path class="cls-27" d="M133.08521,57.51578v1.797c0,.791-.033,1.324-.077,2.023h.033c.287-.586.453-.955.729-1.479l1.325-2.341h1.645v5.001h-1.292v-1.787c0-.801.033-1.171.088-2.115h-.044c-.265.595-.441.955-.707,1.437-.419.739-.905,1.643-1.369,2.465h-1.623v-5.001Z"/>
    <path class="cls-27" d="M142.65678,62.5162h-1.347v-1.981h-.508a1.0966,1.0966,0,0,0-.828.328,3.19155,3.19155,0,0,0-.662,1.242,3.79862,3.79862,0,0,1-.21.411h-1.458a2.51662,2.51662,0,0,0,.331-.554,4.19246,4.19246,0,0,1,.806-1.438,1.30778,1.30778,0,0,1,.641-.339v-.03c-.641-.062-1.402-.452-1.402-1.232a1.2596,1.2596,0,0,1,.828-1.161,4.6844,4.6844,0,0,1,1.899-.318,15.44149,15.44149,0,0,1,1.91.113Zm-1.347-4.22a3.83108,3.83108,0,0,0-.674-.051c-.596,0-1.203.195-1.203.749,0,.524.673.75,1.203.75.321,0,.497,0,.674-.01Z"/>
    <path class="cls-27" d="M147.0611,60.64771a.78806.78806,0,0,1-.828-.811.79716.79716,0,0,1,.839-.811.81146.81146,0,1,1,0,1.622Z"/>
    <path class="cls-27" d="M152.415,59.8262c-.64-.164-.994-.555-.994-1.047,0-.678.729-1.376,2.264-1.376a3.39348,3.39348,0,0,1,1.723.38l-.254.811a3.0622,3.0622,0,0,0-1.303-.298c-.652,0-1.061.247-1.061.596,0,.4.542.564,1.347.575h.586v.841h-.596c-.862.011-1.513.175-1.513.657,0,.473.585.719,1.247.719a3.841,3.841,0,0,0,1.513-.349l.199.842a4.39149,4.39149,0,0,1-2.043.452c-1.137,0-2.363-.4-2.363-1.53a1.36424,1.36424,0,0,1,1.248-1.232Z"/>
    <path class="cls-27" d="M157.3606,57.51578l.861,2.536c.155.442.254.842.387,1.274h.044a8.53717,8.53717,0,0,0,1.126-3.379v-.431h1.27a2.05183,2.05183,0,0,1,.033.38c0,1.417-.971,3.091-1.954,4.621h-1.314l-1.911-5.001Z"/>
    <path class="cls-27" d="M162.9355,59.8262c-.64-.164-.994-.555-.994-1.047,0-.678.729-1.376,2.264-1.376a3.39348,3.39348,0,0,1,1.723.38l-.254.811a3.06341,3.06341,0,0,0-1.304-.298c-.651,0-1.06.247-1.06.596,0,.4.542.564,1.347.575h.586v.841h-.596c-.862.011-1.513.175-1.513.657,0,.473.585.719,1.247.719a3.841,3.841,0,0,0,1.513-.349l.199.842a4.39149,4.39149,0,0,1-2.043.452c-1.137,0-2.363-.4-2.363-1.53a1.36424,1.36424,0,0,1,1.248-1.232Z"/>
    <path class="cls-27" d="M168.3671,62.03381v.708a12.72324,12.72324,0,0,0,.077,1.807h-1.314a8.67179,8.67179,0,0,1-.121-1.786v-2.29a2.81009,2.81009,0,0,1,.916-2.413,2.68924,2.68924,0,0,1,1.833-.657,2.42651,2.42651,0,0,1,2.573,2.567,2.47713,2.47713,0,0,1-2.484,2.66,1.79713,1.79713,0,0,1-1.458-.596Zm0-1.499a1.58528,1.58528,0,0,0,.033.328,1.25162,1.25162,0,0,0,1.192.791c.862,0,1.358-.708,1.358-1.653,0-.883-.474-1.561-1.28-1.561-.685,0-1.303.555-1.303,1.705Z"/>
    <path class="cls-27" d="M174.6264,64.54919a10.57172,10.57172,0,0,0-.188-2.885,13.46449,13.46449,0,0,0-1.877-4.148h1.524a11.63289,11.63289,0,0,1,1.436,3.635h.044a7.77125,7.77125,0,0,0,1.016-3.235c0-.195-.012-.298-.012-.4h1.293a2.00733,2.00733,0,0,1,.021.37,8.49949,8.49949,0,0,1-1.899,4.404.39972.39972,0,0,0-.066.247c.022.503.022,1.324.033,2.012Z"/>
    <path class="cls-27" d="M179.71539,59.8262c-.64-.164-.994-.555-.994-1.047,0-.678.729-1.376,2.264-1.376a3.38679,3.38679,0,0,1,1.722.38l-.254.811a3.05714,3.05714,0,0,0-1.302-.298c-.652,0-1.061.247-1.061.596,0,.4.542.564,1.347.575h.586v.841h-.596c-.862.011-1.513.175-1.513.657,0,.473.585.719,1.247.719a3.841,3.841,0,0,0,1.513-.349l.199.842a4.39149,4.39149,0,0,1-2.043.452c-1.137,0-2.363-.4-2.363-1.53a1.36424,1.36424,0,0,1,1.248-1.232Z"/>
    <path class="cls-27" d="M185.1916,61.1098c0,.41.132.575.508.555l-.077.882a1.77808,1.77808,0,0,1-.586.082c-.728,0-1.214-.287-1.214-1.396v-3.717h1.369Z"/>
    <path class="cls-27" d="M191.684,57.51572c-.067.678-.155,2.218-.155,3.409,0,.565.188.76.519.75l-.088.893a1.72792,1.72792,0,0,1-.475.062.99831.99831,0,0,1-1.049-.976h-.033a2.00733,2.00733,0,0,1-1.778.976,2.27872,2.27872,0,0,1-2.22-2.516,2.55816,2.55816,0,0,1,2.43-2.711,1.66714,1.66714,0,0,1,1.546.873h.044c.033-.308.077-.544.121-.76Zm-3.898,2.557c0,.842.464,1.55,1.204,1.55a1.34987,1.34987,0,0,0,1.192-1.078,3.25951,3.25951,0,0,0,.044-.585,2.08105,2.08105,0,0,0-.033-.472,1.23167,1.23167,0,0,0-1.137-1.109c-.762,0-1.27.749-1.27,1.684Z"/>
    <path class="cls-27" d="M198.2374,37.24731a9.8455,9.8455,0,1,1,9.846,9.845,9.84552,9.84552,0,0,1-9.846-9.845"/>
    <path class="cls-25" d="M207.41209,40.93762v-3.394l-2.573-4.747h1.691l.979,2.09c.277.603.483,1.063.7,1.618h.024c.206-.519.435-1.027.713-1.618l.978-2.09h1.679l-2.705,4.711v3.43Z"/>
    <path class="cls-27" d="M220.88879,37.24731a9.8455,9.8455,0,1,1,9.846,9.845,9.84553,9.84553,0,0,1-9.846-9.845"/>
    <path class="cls-27" d="M198.2374,59.07809a9.8455,9.8455,0,1,1,9.846,9.845,9.84636,9.84636,0,0,1-9.846-9.845"/>
    <rect class="cls-25" x="204.332" y="54.62799" width="1.48599" height="8.14099"/>
    <polygon class="cls-25" points="212.074 59.157 209.006 59.157 209.006 61.548 212.437 61.548 212.437 62.769 207.521 62.769 207.521 54.627 212.255 54.627 212.255 55.847 209.006 55.847 209.006 57.949 212.074 57.949 212.074 59.157"/>
    <path class="cls-27" d="M220.88879,59.07809a9.8455,9.8455,0,1,1,9.846,9.845,9.84636,9.84636,0,0,1-9.846-9.845"/>
    <rect class="cls-25" x="223.884" y="32.797" width="1.48599" height="8.14099"/>
    <path class="cls-25" d="M228.69209,32.79651h1.486v5.278c0,2.247-1.087,2.996-2.706,2.996a3.95621,3.95621,0,0,1-1.244-.193l.181-1.196a3.26939,3.26939,0,0,0,.918.145c.846,0,1.365-.387,1.365-1.8Z"/>
    <path class="cls-25" d="M233.44009,38.63031l-.701,2.307h-1.534l2.61-8.14106h1.896l2.645,8.14106h-1.594l-.737-2.307Zm2.331-1.123-.64-2.00494c-.157-.49506-.29-1.051-.411-1.522h-.024c-.121.471-.242,1.039-.386,1.522l-.629,2.00494Z"/>
    <rect class="cls-25" x="226.25201" y="54.62799" width="1.48599" height="8.14099"/>
    <path class="cls-25" d="M231.07259,60.4621l-.701,2.307h-1.534l2.609-8.141h1.897l2.645,8.141h-1.595l-.737-2.307Zm2.331-1.123-.64-2.005c-.158-.496-.291-1.051-.411-1.522h-.025c-.12.471-.241,1.038-.386,1.522l-.628,2.005Z"/>
  </g>
  <g class="cls-7">
    <path class="cls-29" d="M26.371,16.45062s-9.921,0-9.921,9.921v514.187s0,9.92206,9.921,9.92206H257.094s9.921,0,9.921-9.92206V26.37164s0-9.921-9.921-9.921Z"/>
  </g>
  <g class="cls-7">
    <rect class="cls-27" x="25.54" y="154.66599" width="162.964" height="166.317"/>
    <polygon class="cls-30" points="25.54 161.282 25.54 180.974 107.487 180.974 117.239 171.128 107.487 161.282 25.54 161.282"/>
    <polygon class="cls-31" points="25.54 184.66 25.54 204.351 119.107 204.351 128.871 194.506 119.107 184.66 25.54 184.66"/>
    <polygon class="cls-32" points="25.54 208.037 25.54 227.73 130.456 227.73 140.223 217.884 130.456 208.037 25.54 208.037"/>
    <polygon class="cls-26" points="25.54 231.416 25.54 251.105 141.806 251.105 151.575 241.259 141.806 231.416 25.54 231.416"/>
    <polygon class="cls-33" points="25.54 254.792 25.54 274.482 153.155 274.482 162.929 264.639 153.155 254.792 25.54 254.792"/>
    <polygon class="cls-34" points="25.54 278.168 25.54 297.861 164.504 297.861 174.283 288.015 164.504 278.168 25.54 278.168"/>
    <polygon class="cls-35" points="25.54 301.544 25.54 320.983 175.536 320.983 185.69 311.391 175.271 301.544 25.54 301.544"/>
  </g>
  <g class="cls-36">
    <path class="cls-27" d="M236.1913,174.0191l-.865,3.131h-2.842l3.707-12.201h3.597l3.762,12.201h-2.953l-.935-3.131Zm3.076-2.064-.756-2.589c-.217-.724-.432-1.63-.613-2.353h-.035c-.178.723-.36,1.647-.557,2.353l-.721,2.589Z"/>
    <path class="cls-27" d="M232.57579,188.5166a21.71223,21.71223,0,0,1,3.545-.253,6.658,6.658,0,0,1,3.58.688,2.65717,2.65717,0,0,1,1.455,2.389,2.75668,2.75668,0,0,1-1.994,2.608v.036a3.04774,3.04774,0,0,1,2.408,3.006,3.25861,3.25861,0,0,1-1.258,2.589c-.88.706-2.357,1.104-4.769,1.104a20.95726,20.95726,0,0,1-2.967-.182Zm2.715,4.671h.9c1.442,0,2.215-.598,2.215-1.502,0-.924-.703-1.412-1.943-1.412a7.39284,7.39284,0,0,0-1.172.072Zm0,5.413a8.23226,8.23226,0,0,0,1.064.038c1.239,0,2.338-.489,2.338-1.756,0-1.234-1.099-1.72-2.464-1.72h-.938Z"/>
    <path class="cls-27" d="M241.5408,223.61719a7.67382,7.67382,0,0,1-3.115.545c-4.192,0-6.348-2.643-6.348-6.12,0-4.163,2.949-6.481,6.617-6.481a7.15481,7.15481,0,0,1,2.989.542l-.559,2.192a5.886,5.886,0,0,0-2.303-.454,4.01284,4.01284,0,0,0,.018,8.021,6.83994,6.83994,0,0,0,2.285-.398Z"/>
    <path class="cls-27" d="M231.79849,235.32721a24.63349,24.63349,0,0,1,3.707-.252,7.75453,7.75453,0,0,1,4.965,1.304,5.40559,5.40559,0,0,1,2.051,4.596,6.19268,6.19268,0,0,1-2.016,4.943,8.65445,8.65445,0,0,1-5.592,1.576,23.53972,23.53972,0,0,1-3.115-.182Zm2.754,9.958a4.8674,4.8674,0,0,0,.953.056c2.485.017,4.102-1.36,4.102-4.275a3.4874,3.4874,0,0,0-3.813-3.873,5.56632,5.56632,0,0,0-1.242.109Z"/>
    <polygon class="cls-27" points="238.953 265.512 234.492 265.512 234.492 268.409 239.474 268.409 239.474 270.671 231.74 270.671 231.74 258.469 239.223 258.469 239.223 260.734 234.492 260.734 234.492 263.268 238.953 263.268 238.953 265.512"/>
    <polygon class="cls-27" points="232.242 281.874 239.654 281.874 239.654 284.139 234.992 284.139 234.992 286.925 239.346 286.925 239.346 289.172 234.992 289.172 234.992 294.076 232.242 294.076 232.242 281.874"/>
    <path class="cls-27" d="M242.79469,316.81929a13.5121,13.5121,0,0,1-4.049.688,6.735,6.735,0,0,1-4.931-1.649,5.93027,5.93027,0,0,1-1.708-4.435c.018-4.055,2.95-6.373,6.926-6.373a8.29061,8.29061,0,0,1,3.364.598l-.575,2.209a6.68226,6.68226,0,0,0-2.824-.524,3.97558,3.97558,0,1,0,1.151,7.766v-2.554h-1.872v-2.154h4.518Z"/>
    <path class="cls-27" d="M235.8246,151.51691l-.864,3.114h-2.828l3.692-12.135h3.6l3.782,12.135h-2.971l-.937-3.114Zm3.078-2.053-.756-2.575c-.216-.72-.432-1.62-.612-2.341h-.036c-.18.721-.361,1.639-.558,2.341l-.721,2.575Z"/>
    <polygon class="cls-27" points="248.22 144.419 248.22 147.033 250.726 147.033 250.726 148.149 248.22 148.149 248.22 150.799 247.044 150.799 247.044 148.149 244.537 148.149 244.537 147.033 247.044 147.033 247.044 144.419 248.22 144.419"/>
  </g>
  <g class="cls-36">
    <text class="cls-37" transform="translate(25.84424 177.14972)"> </text>
  </g>
  <text class="cls-38" transform="translate(29.6875 177.14972)">A</text>
  <text class="cls-39" transform="translate(41.2002 169.14972)"><tspan class="cls-40">+</tspan><tspan x="4.06445" y="0">+</tspan></text>
  <text class="cls-39" transform="translate(49.34424 169.14972)">+</text>
  <g class="cls-36">
    <text class="cls-37" transform="translate(208.06348 215.83917)"><tspan xml:space="preserve"> A</tspan></text>
    <text class="cls-39" transform="translate(222.20801 208.83917)">+</text>
  </g>
  <text class="cls-37" transform="translate(26.62012 199.90948)"> </text>
  <text class="cls-38" transform="translate(30.46289 199.90948)">A</text>
  <text class="cls-39" transform="translate(41.97607 191.90948)">+</text>
  <text class="cls-39" transform="translate(46.04834 191.90948)">+</text>
  <text class="cls-37" transform="translate(26.80371 223.09113)"> </text>
  <text class="cls-38" transform="translate(30.64648 223.09113)">A</text>
  <text class="cls-39" transform="translate(42.15967 215.09113)">+</text>
  <text class="cls-37" transform="translate(26.80371 246.34894)"> </text>
  <text class="cls-38" transform="translate(30.64648 246.34894)">A</text>
  <text class="cls-37" transform="translate(26.43652 269.84503)"> </text>
  <text class="cls-38" transform="translate(30.2793 269.84503)">B</text>
  <text class="cls-37" transform="translate(26.43652 293.07648)"> </text>
  <text class="cls-38" transform="translate(30.2793 293.07648)">C</text>
  <text class="cls-37" transform="translate(26.43652 316.75128)"> </text>
  <text class="cls-38" transform="translate(30.2793 316.75128)">D</text>
  <g class="cls-41">
    <path class="cls-42" d="M51.7737,120.5621a11.5475,11.5475,0,1,1,11.547,11.551,11.54751,11.54751,0,0,1-11.547-11.551"/>
    <path class="cls-43" d="M51.7737,120.5621a11.5475,11.5475,0,1,1,11.547,11.551A11.54751,11.54751,0,0,1,51.7737,120.5621Z"/>
    <path class="cls-44" d="M65.216,120.79358s-.83-.003-2.133,1.889a2.95753,2.95753,0,0,1-.055,2.943c-.551.897-2.16,2.423-1.434,3.772,1.057,1.962,8.166.025,8.753-3.32.754-4.3-3.169-5.36-5.131-5.284"/>
    <path class="cls-45" d="M65.216,120.79358s-.83-.003-2.133,1.889a2.95753,2.95753,0,0,1-.055,2.943c-.551.897-2.16,2.423-1.434,3.772,1.057,1.962,8.166.025,8.753-3.32C71.101,121.77759,67.178,120.71759,65.216,120.79358Z"/>
    <path class="cls-44" d="M61.3723,121.86609a5.018,5.018,0,0,0,.183-2.843,2.95712,2.95712,0,0,1-2.035-2.127c-.241-1.025-.283-2.978-1.641-3.687-1.944-1.015-5.716,5.625-3.871,8.523,2.23,3.5,6.025,1.57,7.364.134"/>
    <path class="cls-45" d="M61.3723,121.86609a5.018,5.018,0,0,0,.183-2.843,2.95712,2.95712,0,0,1-2.035-2.127c-.241-1.025-.283-2.978-1.641-3.687-1.944-1.015-5.716,5.625-3.871,8.523C56.2383,125.23212,60.0333,123.30209,61.3723,121.86609Z"/>
    <path class="cls-44" d="M62.5917,118.45038s.436.761,2.642,1.068a2.95225,2.95225,0,0,1,2.658-1.262c1.049.092,3.247.926,4.016-.398,1.382-2.378-3.447-7.098-6.872-6.356-4.056.879-3.386,5.225-2.444,6.948"/>
    <path class="cls-45" d="M62.5917,118.45038s.436.761,2.642,1.068a2.95225,2.95225,0,0,1,2.658-1.262c1.049.092,3.247.926,4.016-.398,1.382-2.378-3.447-7.098-6.872-6.356C60.9797,112.38141,61.6497,116.72739,62.5917,118.45038Z"/>
    <path class="cls-42" d="M61.2008,120.5621a2.1205,2.1205,0,1,1,2.12,2.121,2.1198,2.1198,0,0,1-2.12-2.121"/>
    <path class="cls-52" d="M61.2008,120.5621a2.1205,2.1205,0,1,1,2.12,2.121A2.1198,2.1198,0,0,1,61.2008,120.5621Z"/>
    <path class="cls-53" d="M51.7737,156.385a11.5475,11.5475,0,1,1,11.547,11.551,11.54752,11.54752,0,0,1-11.547-11.551"/>
    <path class="cls-54" d="M51.7737,156.385a11.5475,11.5475,0,1,1,11.547,11.551A11.54752,11.54752,0,0,1,51.7737,156.385Z"/>
    <path class="cls-44" d="M65.2161,156.61649s-.83-.003-2.133,1.889a2.95606,2.95606,0,0,1-.056,2.943c-.55.897-2.159,2.423-1.433,3.772,1.056,1.962,8.166.025,8.753-3.32.754-4.3-3.169-5.36-5.131-5.284"/>
    <path class="cls-45" d="M65.2161,156.61649s-.83-.003-2.133,1.889a2.95606,2.95606,0,0,1-.056,2.943c-.55.897-2.159,2.423-1.433,3.772,1.056,1.962,8.166.025,8.753-3.32C71.1011,157.60049,67.1781,156.5405,65.2161,156.61649Z"/>
    <path class="cls-44" d="M61.3723,157.689a5.018,5.018,0,0,0,.183-2.843,2.95492,2.95492,0,0,1-2.034-2.127c-.242-1.025-.284-2.978-1.642-3.687-1.944-1.015-5.716,5.625-3.871,8.523,2.23,3.5,6.025,1.57,7.364.134"/>
    <path class="cls-45" d="M61.3723,157.689a5.018,5.018,0,0,0,.183-2.843,2.95492,2.95492,0,0,1-2.034-2.127c-.242-1.025-.284-2.978-1.642-3.687-1.944-1.015-5.716,5.625-3.871,8.523C56.2383,161.055,60.0333,159.125,61.3723,157.689Z"/>
    <path class="cls-44" d="M62.5916,154.27328s.436.761,2.642,1.068a2.953,2.953,0,0,1,2.659-1.262c1.048.092,3.246.926,4.016-.398,1.381-2.378-3.448-7.098-6.873-6.356-4.056.879-3.386,5.225-2.444,6.948"/>
    <path class="cls-45" d="M62.5916,154.27328s.436.761,2.642,1.068a2.953,2.953,0,0,1,2.659-1.262c1.048.092,3.246.926,4.016-.398,1.381-2.378-3.448-7.098-6.873-6.356C60.9796,148.20432,61.6496,152.55029,62.5916,154.27328Z"/>
    <path class="cls-53" d="M61.2008,156.385a2.1205,2.1205,0,1,1,2.12,2.121,2.11981,2.11981,0,0,1-2.12-2.121"/>
    <path class="cls-52" d="M61.2008,156.385a2.1205,2.1205,0,1,1,2.12,2.121A2.11981,2.11981,0,0,1,61.2008,156.385Z"/>
    <path class="cls-55" d="M104.2003,114.92209s-7.715-3.645-13.224-.016c-5.509,3.628-13.225.016-13.225.016"/>
    <polyline class="cls-55" points="102.813 113.272 104.715 114.922 102.485 115.52"/>
    <path class="cls-55" d="M104.2003,118.52s-7.715-3.645-13.224-.016c-5.509,3.628-13.225.016-13.225.016"/>
    <polyline class="cls-55" points="102.813 116.87 104.715 118.52 102.485 119.118"/>
    <path class="cls-55" d="M104.2003,122.11789s-7.715-3.645-13.224-.016c-5.509,3.628-13.225.016-13.225.016"/>
    <polyline class="cls-55" points="102.813 120.468 104.715 122.118 102.485 122.716"/>
    <path class="cls-55" d="M104.2003,125.71579s-7.715-3.645-13.224-.016c-5.509,3.628-13.225.016-13.225.016"/>
    <polyline class="cls-55" points="102.813 124.066 104.715 125.716 102.485 126.314"/>
    <path class="cls-56" d="M104.2003,151.24039s-7.715-3.645-13.224-.016c-5.509,3.628-13.225.016-13.225.016"/>
    <polyline class="cls-56" points="102.813 149.591 104.715 151.241 102.485 151.839"/>
    <path class="cls-56" d="M104.2003,154.74118s-7.715-3.645-13.224-.016c-5.509,3.628-13.225.016-13.225.016"/>
    <polyline class="cls-56" points="102.813 153.091 104.715 154.742 102.485 155.34"/>
    <path class="cls-56" d="M104.2003,158.242s-7.715-3.645-13.224-.016c-5.509,3.628-13.225.016-13.225.016"/>
    <polyline class="cls-56" points="102.813 156.592 104.715 158.242 102.485 158.84"/>
    <path class="cls-56" d="M104.2092,161.74271s-7.715-3.645-13.224-.016c-5.509,3.628-13.225.016-13.225.016"/>
    <polyline class="cls-56" points="102.822 160.093 104.724 161.743 102.494 162.341"/>
  </g>
  <text class="cls-57" transform="translate(25.47656 123.2547)">S</text>
  <text class="cls-57" transform="translate(30.09668 123.2547)"><tspan class="cls-58">E</tspan><tspan x="4.78271" y="0">E</tspan></text>
  <text class="cls-57" transform="translate(39.65674 123.2547)">R</text>
  <g class="cls-7">
    <path class="cls-8" d="M35.304,349.98079s-8.883,0-8.883,8.883v52.377s0,8.883,8.883,8.883H88.849s8.883,0,8.883-8.883v-52.377s0-8.883-8.883-8.883Z"/>
  </g>
  <text class="cls-16" transform="translate(52.7251 401.80206)">k</text>
  <text class="cls-16" transform="translate(58.98291 401.80206)">W</text>
  <g class="cls-7">
    <path class="cls-8" d="M114.9598,349.98279s-8.883,0-8.883,8.883v52.377s0,8.883,8.883,8.883h53.545s8.883,0,8.883-8.883v-52.377s0-8.883-8.883-8.883Z"/>
  </g>
  <text class="cls-16" transform="translate(128.20117 401.80402)">S</text>
  <text class="cls-59" transform="translate(134.55713 401.80402)">E<tspan class="cls-60" x="6.55615" y="0">E</tspan></text>
  <text class="cls-16" transform="translate(147.66113 401.80402)">R</text>
  <g class="cls-7">
    <path class="cls-8" d="M194.3264,349.98279s-8.883,0-8.883,8.883v52.377s0,8.883,8.883,8.883h53.545s8.883,0,8.883-8.883v-52.377s0-8.883-8.883-8.883Z"/>
  </g>
  <text class="cls-16" transform="translate(186.62598 401.80402)">k</text>
  <text class="cls-16" transform="translate(192.74414 401.80402)">W</text>
  <text class="cls-16" transform="translate(204.98047 401.80402)">h</text>
  <text class="cls-16" transform="translate(212.03613 401.80402)">/</text>
  <text class="cls-16" transform="translate(216.74023 401.80402)"><tspan class="cls-61">a</tspan><tspan x="6.44043" y="0">n</tspan></text>
  <text class="cls-16" transform="translate(230.26367 401.80402)">n</text>
  <text class="cls-16" transform="translate(237.33398 401.80402)">u</text>
  <text class="cls-16" transform="translate(244.41797 401.80402)">m</text>
  <g id="rating">
    <polyline id="ratingArrow" class="cls-62" points="194.06 171.13 215.21 149.78 258.66 149.78 258.66 192.47 215.21 192.47 194.06 171.13"/>
    <text id="ratingLetter" class="cls-63" transform="translate(209.08008 179.63019)">A</text>
    <text id="ratingPlusses" class="cls-64" transform="translate(225.51953 167.86993)">+++</text>
  </g>
  <text id="kw" class="cls-65" transform="translate(61.8999 384.80011)" text-anchor="middle">X</text>
  <text id="seer" class="cls-65" transform="translate(141.72998 384.80011)" text-anchor="middle">X</text>
  <text id="kwhAnnum" class="cls-65" transform="translate(220.58008 384.80011)" text-anchor="middle">X</text>
  <text id="insideDb" class="cls-65" transform="translate(41.18994 492.72003)">X</text>
  <text id="outsideDb" class="cls-65" transform="translate(120.83984 492.72003)">X</text>
  <text id="supplierLine2" class="cls-16" transform="translate(25.301 99.11652)" text-anchor="middle">X</text>
  <text id="supplierLine1" class="cls-16" transform="translate(25.301 84.82501)" text-anchor="middle">X</text>
  <text id="modelLine2" class="cls-16" transform="translate(151.37034 99.11652)" text-anchor="middle">X</text>
  <text id="modelLine1" class="cls-16" transform="translate(151.37034 84.82501)" text-anchor="middle">X</text>
</svg>
