<svg id="Layer_1" data-name="Layer 1" xmlns="http://www.w3.org/2000/svg" xmlns:xlink="http://www.w3.org/1999/xlink" width="100mm" height="200mm" viewBox="0 0 283.45999 566.92999" data-rating-increment="23.3666" data-supplier-model-chars-per-row="20">
  <defs>
    <style>
      .cls-1, .cls-16, .cls-18, .cls-19, .cls-20, .cls-21, .cls-23, .cls-24, .cls-26, .cls-27, .cls-28, .cls-32, .cls-33, .cls-34, .cls-35, .cls-36, .cls-37, .cls-42, .cls-5, .cls-68, .cls-7 {
        fill: none;
      }

      .cls-2, .cls-67 {
        font-size: 10px;
      }

      .cls-2, .cls-29, .cls-61, .cls-67, .cls-71, .cls-72, .cls-73 {
        fill: #231f20;
      }

      .cls-2, .cls-50, .cls-51, .cls-52, .cls-53, .cls-56, .cls-57, .cls-71, .cls-72 {
        font-family: Calibri-Bold, Calibri;
        font-weight: 700;
      }

      .cls-3 {
        clip-path: url(#clip-path);
      }

      .cls-4 {
        fill: #49c8f5;
      }

      .cls-19, .cls-5 {
        stroke: #49c8f5;
      }

      .cls-18, .cls-5 {
        stroke-width: 0.905px;
      }

      .cls-6 {
        fill: #f9f9fa;
      }

      .cls-7 {
        stroke: #f9f9fa;
        stroke-width: 0.699px;
      }

      .cls-19, .cls-20, .cls-23, .cls-27, .cls-34, .cls-35, .cls-7 {
        stroke-linejoin: round;
      }

      .cls-8 {
        opacity: 0.28;
      }

      .cls-9 {
        clip-path: url(#clip-path-2);
      }

      .cls-10 {
        clip-path: url(#clip-path-3);
      }

      .cls-11, .cls-50, .cls-51, .cls-52, .cls-53, .cls-56, .cls-57, .cls-70 {
        fill: #fff;
      }

      .cls-12 {
        clip-path: url(#clip-path-4);
      }

      .cls-13 {
        clip-path: url(#clip-path-5);
      }

      .cls-14 {
        clip-path: url(#clip-path-6);
      }

      .cls-15 {
        clip-path: url(#clip-path-7);
      }

      .cls-16, .cls-24, .cls-28, .cls-32, .cls-36 {
        stroke: #fff;
      }

      .cls-16 {
        stroke-width: 0.504px;
      }

      .cls-17 {
        fill: #f05327;
      }

      .cls-18 {
        stroke: #f05327;
      }

      .cls-19, .cls-20, .cls-23, .cls-27, .cls-34, .cls-35 {
        stroke-linecap: round;
      }

      .cls-19, .cls-20 {
        stroke-width: 0.839px;
      }

      .cls-20 {
        stroke: #f05427;
      }

      .cls-21, .cls-23, .cls-27, .cls-34, .cls-35, .cls-37, .cls-42, .cls-68 {
        stroke: #00aeef;
      }

      .cls-21 {
        stroke-width: 2px;
      }

      .cls-22 {
        clip-path: url(#clip-path-8);
      }

      .cls-23 {
        stroke-width: 0.989px;
      }

      .cls-24 {
        stroke-width: 0.863px;
      }

      .cls-25 {
        fill: #2aace3;
      }

      .cls-26, .cls-33 {
        stroke: #2aace3;
      }

      .cls-26 {
        stroke-width: 0.695px;
      }

      .cls-27 {
        stroke-width: 1.757px;
      }

      .cls-28 {
        stroke-width: 0.908px;
      }

      .cls-29 {
        font-size: 12px;
      }

      .cls-29, .cls-67, .cls-70, .cls-73 {
        font-family: Calibri;
      }

      .cls-30 {
        clip-path: url(#clip-path-9);
      }

      .cls-31 {
        clip-path: url(#clip-path-10);
      }

      .cls-32 {
        stroke-width: 0.811px;
      }

      .cls-33 {
        stroke-width: 0.652px;
      }

      .cls-34 {
        stroke-width: 1.651px;
      }

      .cls-35 {
        stroke-width: 0.929px;
      }

      .cls-36 {
        stroke-width: 0.853px;
      }

      .cls-37, .cls-68 {
        stroke-width: 0.911px;
      }

      .cls-38 {
        fill: #034ea2;
      }

      .cls-39 {
        fill: #00aeef;
      }

      .cls-40 {
        fill: #fff200;
      }

      .cls-41 {
        clip-path: url(#clip-path-12);
      }

      .cls-42 {
        stroke-width: 5px;
      }

      .cls-43 {
        fill: #00a651;
      }

      .cls-44 {
        fill: #50b848;
      }

      .cls-45 {
        fill: #bfd730;
      }

      .cls-46 {
        fill: #fdb913;
      }

      .cls-47 {
        fill: #f37021;
      }

      .cls-48 {
        fill: #ed1c24;
      }

      .cls-49 {
        clip-path: url(#clip-path-14);
      }

      .cls-50 {
        font-size: 17px;
      }

      .cls-51, .cls-70, .cls-73 {
        font-size: 8px;
      }

      .cls-52 {
        font-size: 19px;
      }

      .cls-53 {
        font-size: 18px;
      }

      .cls-54 {
        letter-spacing: 0.01001em;
      }

      .cls-55 {
        clip-path: url(#clip-path-18);
      }

      .cls-56 {
        font-size: 18.1028px;
      }

      .cls-57 {
        font-size: 7.6589px;
      }

      .cls-58 {
        letter-spacing: 0.00995em;
      }

      .cls-59 {
        clip-path: url(#clip-path-21);
      }

      .cls-60 {
        clip-path: url(#clip-path-24);
      }

      .cls-62, .cls-65 {
        fill: #ed7e23;
      }

      .cls-63 {
        fill: #53ae47;
      }

      .cls-63, .cls-65, .cls-66 {
        fill-rule: evenodd;
      }

      .cls-64, .cls-66 {
        fill: #1c9ad6;
      }

      .cls-68 {
        stroke-miterlimit: 3;
      }

      .cls-69 {
        fill: #f58220;
      }

      .cls-71 {
        font-size: 11px;
      }

      .cls-72 {
        font-size: 15px;
      }

      .cls-74 {
        letter-spacing: -0.00928em;
      }

      .cls-75 {
        letter-spacing: -0.01709em;
      }

      .cls-76 {
        letter-spacing: -0.01465em;
      }
    </style>
    <clipPath id="clip-path">
      <rect class="cls-1" x="51.699" y="107.47501" width="55.183" height="26.095"/>
    </clipPath>
    <clipPath id="clip-path-2">
      <rect class="cls-1" x="55.2499" y="77.302" width="8.0855" height="10.604"/>
    </clipPath>
    <clipPath id="clip-path-3">
      <rect class="cls-1" x="55.25" y="77.30301" width="8.085" height="10.603"/>
    </clipPath>
    <clipPath id="clip-path-4">
      <rect class="cls-1" x="63.623" y="75.56799" width="10.4086" height="7.66101"/>
    </clipPath>
    <clipPath id="clip-path-5">
      <rect class="cls-1" x="63.624" y="75.569" width="10.408" height="7.66"/>
    </clipPath>
    <clipPath id="clip-path-6">
      <rect class="cls-1" x="63.5086" y="84.97" width="8.6614" height="9.54401"/>
    </clipPath>
    <clipPath id="clip-path-7">
      <rect class="cls-1" x="63.509" y="84.97101" width="8.661" height="9.543"/>
    </clipPath>
    <clipPath id="clip-path-8">
      <rect class="cls-1" x="43.962" y="370.79898" width="38.22001" height="43.10001"/>
    </clipPath>
    <clipPath id="clip-path-9">
      <rect class="cls-1" y="0.00098" width="283.465" height="566.92902"/>
    </clipPath>
    <clipPath id="clip-path-10">
      <rect class="cls-1" x="35.538" y="450.08499" width="55.686" height="40.754"/>
    </clipPath>
    <clipPath id="clip-path-12">
      <rect class="cls-1" x="25.301" y="25.26099" width="232.863" height="45.561"/>
    </clipPath>
    <clipPath id="clip-path-14">
      <rect class="cls-1" x="25.511" y="145.45398" width="125.778" height="166.31702"/>
    </clipPath>
    <clipPath id="clip-path-18">
      <rect class="cls-1" x="190.70599" y="171.67697" width="31.118" height="27.31601"/>
    </clipPath>
    <clipPath id="clip-path-21">
      <rect class="cls-1" x="228.755" y="195.73297" width="31.14499" height="27.31601"/>
    </clipPath>
    <clipPath id="clip-path-24">
      <rect class="cls-1" x="153.25301" y="148.14401" width="31.145" height="31.99799"/>
    </clipPath>
  </defs>
  <title>heating-only-air-conditioners</title>
  <text class="cls-2" transform="translate(22.67627 542.32745)">626/2011</text>
  <g class="cls-3">
    <path class="cls-4" d="M53.51,84.7601a11.5475,11.5475,0,1,1,11.547,11.551A11.5475,11.5475,0,0,1,53.51,84.7601"/>
    <path class="cls-5" d="M53.51,84.7601a11.5475,11.5475,0,1,1,11.547,11.551A11.5475,11.5475,0,0,1,53.51,84.7601Z"/>
    <path class="cls-6" d="M66.9522,84.99161s-.83-.003-2.133,1.889a2.95753,2.95753,0,0,1-.055,2.943c-.551.897-2.16,2.423-1.434,3.772,1.057,1.962,8.166.025,8.753-3.32.754-4.3-3.169-5.36-5.131-5.284"/>
    <path class="cls-7" d="M66.9522,84.99161s-.83-.003-2.133,1.889a2.95753,2.95753,0,0,1-.055,2.943c-.551.897-2.16,2.423-1.434,3.772,1.057,1.962,8.166.025,8.753-3.32C72.8372,85.97562,68.9142,84.91562,66.9522,84.99161Z"/>
    <path class="cls-6" d="M63.1085,86.06418a5.018,5.018,0,0,0,.183-2.843,2.95712,2.95712,0,0,1-2.035-2.127c-.241-1.025-.283-2.978-1.641-3.687-1.944-1.015-5.716,5.625-3.871,8.523,2.23,3.5,6.025,1.57,7.364.134"/>
    <path class="cls-7" d="M63.1085,86.06418a5.018,5.018,0,0,0,.183-2.843,2.95712,2.95712,0,0,1-2.035-2.127c-.241-1.025-.283-2.978-1.641-3.687-1.944-1.015-5.716,5.625-3.871,8.523C57.9745,89.43021,61.7695,87.50018,63.1085,86.06418Z"/>
    <g class="cls-8">
      <g class="cls-9">
        <g class="cls-10">
          <path class="cls-11" d="M63.3354,85.22189a5.81553,5.81553,0,0,1-.227.842c-1.338,1.437-5.134,3.366-7.364-.134-1.845-2.897,1.927-9.538,3.871-8.523,0,0-2.338,5.005.254,7.13,2.301,1.886,3.466.685,3.466.685"/>
        </g>
      </g>
    </g>
    <path class="cls-6" d="M64.3279,82.6485s.436.761,2.642,1.068a2.95225,2.95225,0,0,1,2.658-1.262c1.049.092,3.247.926,4.016-.398,1.382-2.378-3.447-7.098-6.872-6.356-4.056.879-3.386,5.225-2.444,6.948"/>
    <path class="cls-7" d="M64.3279,82.6485s.436.761,2.642,1.068a2.95225,2.95225,0,0,1,2.658-1.262c1.049.092,3.247.926,4.016-.398,1.382-2.378-3.447-7.098-6.872-6.356C62.7159,76.57953,63.3859,80.92551,64.3279,82.6485Z"/>
    <g class="cls-8">
      <g class="cls-12">
        <g class="cls-13">
          <path class="cls-11" d="M65.2837,83.2287a5.835,5.835,0,0,1-.757-.432c-1.052-1.658-1.96-5.818,1.991-7.091,3.269-1.054,8.74,4.274,7.267,5.899,0,0-4.251-3.527-6.962-1.557-2.407,1.751-1.539,3.181-1.539,3.181"/>
        </g>
      </g>
    </g>
    <g class="cls-8">
      <g class="cls-14">
        <g class="cls-15">
          <path class="cls-11" d="M65.984,85.45978a5.89514,5.89514,0,0,1,.733-.473c1.955-.169,6.066.941,5.375,5.033-.57,3.388-7.819,5.789-8.583,3.733,0,0,5.089-2.148,4.589-5.462-.445-2.943-2.114-2.831-2.114-2.831"/>
        </g>
      </g>
    </g>
    <path class="cls-4" d="M62.937,84.7601a2.1205,2.1205,0,1,1,2.12,2.121,2.1198,2.1198,0,0,1-2.12-2.121"/>
    <path class="cls-16" d="M62.937,84.7601a2.1205,2.1205,0,1,1,2.12,2.121A2.1198,2.1198,0,0,1,62.937,84.7601Z"/>
    <path class="cls-17" d="M53.51,120.583a11.5475,11.5475,0,1,1,11.547,11.551A11.54751,11.54751,0,0,1,53.51,120.583"/>
    <path class="cls-18" d="M53.51,120.583a11.5475,11.5475,0,1,1,11.547,11.551A11.54751,11.54751,0,0,1,53.51,120.583Z"/>
    <path class="cls-6" d="M66.9523,120.81448s-.83-.003-2.133,1.889a2.956,2.956,0,0,1-.056,2.943c-.55.897-2.159,2.423-1.433,3.772,1.056,1.962,8.166.025,8.753-3.32.754-4.3-3.169-5.36-5.131-5.284"/>
    <path class="cls-7" d="M66.9523,120.81448s-.83-.003-2.133,1.889a2.956,2.956,0,0,1-.056,2.943c-.55.897-2.159,2.423-1.433,3.772,1.056,1.962,8.166.025,8.753-3.32C72.8373,121.79849,68.9143,120.73849,66.9523,120.81448Z"/>
    <path class="cls-6" d="M63.1085,121.88708a5.018,5.018,0,0,0,.183-2.843,2.95492,2.95492,0,0,1-2.034-2.127c-.242-1.025-.284-2.978-1.642-3.687-1.944-1.015-5.716,5.625-3.871,8.523,2.23,3.5,6.025,1.57,7.364.134"/>
    <path class="cls-7" d="M63.1085,121.88708a5.018,5.018,0,0,0,.183-2.843,2.95492,2.95492,0,0,1-2.034-2.127c-.242-1.025-.284-2.978-1.642-3.687-1.944-1.015-5.716,5.625-3.871,8.523C57.9745,125.25311,61.7695,123.32309,63.1085,121.88708Z"/>
    <path class="cls-6" d="M64.3278,118.47141s.436.761,2.642,1.068a2.953,2.953,0,0,1,2.659-1.262c1.048.092,3.246.926,4.016-.398,1.381-2.378-3.448-7.098-6.873-6.356-4.056.879-3.386,5.225-2.444,6.948"/>
    <path class="cls-7" d="M64.3278,118.47141s.436.761,2.642,1.068a2.953,2.953,0,0,1,2.659-1.262c1.048.092,3.246.926,4.016-.398,1.381-2.378-3.448-7.098-6.873-6.356C62.71579,112.40244,63.3858,116.74841,64.3278,118.47141Z"/>
    <path class="cls-17" d="M62.937,120.583a2.1205,2.1205,0,1,1,2.12,2.121,2.11981,2.11981,0,0,1-2.12-2.121"/>
    <path class="cls-16" d="M62.937,120.583a2.1205,2.1205,0,1,1,2.12,2.121A2.11981,2.11981,0,0,1,62.937,120.583Z"/>
    <path class="cls-19" d="M105.9366,79.12009s-7.715-3.645-13.224-.016c-5.509,3.628-13.225.016-13.225.016"/>
    <polyline class="cls-19" points="104.55 77.47 106.452 79.121 104.222 79.719"/>
    <path class="cls-19" d="M105.9366,82.71808s-7.715-3.645-13.224-.016c-5.509,3.628-13.225.016-13.225.016"/>
    <polyline class="cls-19" points="104.55 81.068 106.452 82.718 104.222 83.316"/>
    <path class="cls-19" d="M105.9366,86.316s-7.715-3.645-13.224-.016c-5.509,3.628-13.225.016-13.225.016"/>
    <polyline class="cls-19" points="104.55 84.666 106.452 86.316 104.222 86.914"/>
    <path class="cls-19" d="M105.9366,89.91388s-7.715-3.645-13.224-.016c-5.509,3.628-13.225.016-13.225.016"/>
    <polyline class="cls-19" points="104.55 88.264 106.452 89.914 104.222 90.512"/>
    <path class="cls-20" d="M105.9366,115.43851s-7.715-3.645-13.224-.016c-5.509,3.628-13.225.016-13.225.016"/>
    <polyline class="cls-20" points="104.55 113.789 106.452 115.439 104.222 116.037"/>
    <path class="cls-20" d="M105.9366,118.93918s-7.715-3.645-13.224-.016c-5.509,3.628-13.225.016-13.225.016"/>
    <polyline class="cls-20" points="104.55 117.29 106.452 118.94 104.222 119.538"/>
    <path class="cls-20" d="M105.9366,122.44s-7.715-3.645-13.224-.016c-5.509,3.628-13.225.016-13.225.016"/>
    <polyline class="cls-20" points="104.55 120.79 106.452 122.44 104.222 123.038"/>
    <path class="cls-20" d="M105.9454,125.9407s-7.715-3.645-13.224-.016c-5.509,3.628-13.225.016-13.225.016"/>
    <polyline class="cls-20" points="104.559 124.291 106.46 125.941 104.23 126.539"/>
  </g>
  <path class="cls-21" d="M37.3481,366.09509s-8.619,0-8.619,8.619v50.822s0,8.619,8.619,8.619h51.955s8.619,0,8.619-8.619v-50.822s0-8.619-8.619-8.619Z"/>
  <rect class="cls-1" y="0.00098" width="283.465" height="566.92902"/>
  <g class="cls-22">
    <polygon class="cls-23" points="45.289 408.166 45.289 413.035 81.689 413.035 81.689 387.877 63.488 371.294 45.289 387.877 45.289 408.166"/>
    <path class="cls-24" d="M54.4074,401.844q-1.5045-1.341-3.007-2.682h-2.144v-4.284h2.144q1.503-1.33952,3.007-2.682l1.243-1.107v11.865Z"/>
    <path class="cls-25" d="M54.0275,400.90689q-1.212-1.08148-2.422-2.16h-1.727v-3.453h1.727q1.2105-1.077,2.422-2.159l1.002-.893v9.557Z"/>
    <path class="cls-26" d="M54.0275,400.90689q-1.212-1.08148-2.422-2.16h-1.727v-3.453h1.727q1.2105-1.077,2.422-2.159l1.002-.893v9.557Z"/>
    <path class="cls-27" d="M65.33739,385.7016a20.63,20.63,0,0,1,.037,22.638m-3.767-19.517a14.188,14.188,0,0,1,.048,16.367m-3.641-13.273a8.00317,8.00317,0,0,1,.067,10.151"/>
    <polygon class="cls-23" points="45.289 457.933 45.289 462.802 81.689 462.802 81.689 437.644 63.488 421.061 45.289 437.644 45.289 457.933"/>
    <path class="cls-28" d="M38.8639,453.89489q1.5825-1.413,3.166-2.823h2.257v-4.511h-2.257q-1.5825-1.41-3.166-2.824l-1.31-1.166v12.492Z"/>
    <path class="cls-25" d="M39.2636,452.908q1.2765-1.137,2.549-2.274h1.819v-3.635h-1.819c-.848-.756-1.698-1.517-2.549-2.273l-1.055-.941v10.063Z"/>
    <path class="cls-26" d="M39.2636,452.908q1.2765-1.137,2.549-2.274h1.819v-3.635h-1.819c-.848-.756-1.698-1.517-2.549-2.273l-1.055-.941v10.063Z"/>
    <path class="cls-27" d="M27.3168,460.7344a21.72011,21.72011,0,0,1,.039-23.835m3.877,20.518a14.93609,14.93609,0,0,1,.05-17.23m3.712,13.944a8.42809,8.42809,0,0,1,.071-10.689"/>
  </g>
  <text class="cls-29" transform="translate(64.05957 427.33038)">d</text>
  <text class="cls-29" transform="translate(70.26367 427.33038)">B</text>
  <g class="cls-30">
    <path class="cls-21" d="M37.3481,442.5714s-8.619,0-8.619,8.619v50.822s0,8.619,8.619,8.619h51.955s8.619,0,8.619-8.619v-50.822s0-8.619-8.619-8.619Z"/>
  </g>
  <g class="cls-31">
    <path class="cls-32" d="M65.1353,433.12039q-1.413-1.26-2.824-2.519h-2.014v-4.024h2.014q1.4115-1.25848,2.824-2.519l1.168-1.04v11.145Z"/>
    <path class="cls-25" d="M64.7785,432.24019q-1.1385-1.01549-2.275-2.029h-1.622v-3.243h1.622c.758-.674,1.516-1.353,2.275-2.028l.941-.838v8.976Z"/>
    <path class="cls-33" d="M64.7785,432.24019q-1.1385-1.01549-2.275-2.029h-1.622v-3.243h1.622c.758-.674,1.516-1.353,2.275-2.028l.941-.838v8.976Z"/>
    <path class="cls-34" d="M75.4011,417.95911a19.37812,19.37812,0,0,1,.035,21.262m-3.538-18.331a13.32573,13.32573,0,0,1,.044,15.372m-3.419-12.466a7.51693,7.51693,0,0,1,.063,9.535"/>
    <polygon class="cls-35" points="56.571 485.801 56.571 490.374 90.76 490.374 90.76 466.745 73.664 451.169 56.571 466.745 56.571 485.801"/>
    <path class="cls-36" d="M50.5361,482.0089q1.4865-1.326,2.973-2.651h2.12v-4.238h-2.12q-1.485-1.323-2.973-2.652l-1.23-1.095v11.733Z"/>
    <path class="cls-25" d="M50.9115,481.082q1.1985-1.068,2.395-2.136h1.708v-3.414h-1.708c-.798-.71-1.596-1.425-2.395-2.135l-.991-.883v9.451Z"/>
    <path class="cls-33" d="M50.9115,481.082q1.1985-1.068,2.395-2.136h1.708v-3.414h-1.708c-.798-.71-1.596-1.425-2.395-2.135l-.991-.883v9.451Z"/>
    <path class="cls-34" d="M39.6911,488.4331a20.40128,20.40128,0,0,1,.036-22.387m3.642,19.271a14.02538,14.02538,0,0,1,.047-16.183m3.486,13.097a7.91617,7.91617,0,0,1,.067-10.04"/>
  </g>
  <text class="cls-29" transform="translate(64.05957 503.80597)">d</text>
  <text class="cls-29" transform="translate(70.26367 503.80597)">B</text>
  <g class="cls-30">
    <line class="cls-37" x1="24.9453" y1="104.49008" x2="258.65628" y2="104.49008"/>
    <rect class="cls-38" x="25.319" y="25.38397" width="67.936" height="45.37402"/>
    <rect class="cls-39" x="95.502" y="25.38397" width="162.662" height="45.37402"/>
    <polygon class="cls-40" points="73.324 40.51 74.784 39.45 72.979 39.45 72.421 37.733 71.863 39.45 70.058 39.45 71.519 40.51 70.961 42.228 72.422 41.167 73.882 42.228 73.324 40.51"/>
    <polygon class="cls-40" points="67.639 35.066 69.099 34.005 67.294 34.005 66.736 32.288 66.178 34.005 64.373 34.005 65.834 35.066 65.276 36.783 66.736 35.722 68.197 36.783 67.639 35.066"/>
    <polygon class="cls-40" points="60.305 33.119 61.766 32.058 59.96 32.058 59.403 30.341 58.844 32.058 57.039 32.058 58.5 33.119 57.942 34.836 59.403 33.775 60.863 34.836 60.305 33.119"/>
    <polygon class="cls-40" points="52.581 35.066 54.041 34.005 52.236 34.005 51.678 32.288 51.12 34.005 49.315 34.005 50.776 35.066 50.218 36.783 51.678 35.722 53.139 36.783 52.581 35.066"/>
    <polygon class="cls-40" points="47.064 40.777 48.524 39.716 46.719 39.716 46.161 37.999 45.603 39.716 43.798 39.716 45.259 40.777 44.701 42.494 46.161 41.433 47.622 42.494 47.064 40.777"/>
    <polygon class="cls-40" points="45.302 48.281 46.762 47.22 44.957 47.22 44.399 45.503 43.841 47.22 42.036 47.22 43.497 48.281 42.939 49.998 44.399 48.937 45.86 49.998 45.302 48.281"/>
    <polygon class="cls-40" points="47.119 55.884 48.58 54.823 46.774 54.823 46.216 53.106 45.658 54.823 43.853 54.823 45.314 55.884 44.756 57.601 46.216 56.54 47.677 57.601 47.119 55.884"/>
    <polygon class="cls-40" points="52.581 61.287 54.041 60.226 52.236 60.226 51.678 58.509 51.12 60.226 49.315 60.226 50.776 61.287 50.218 63.004 51.678 61.943 53.139 63.004 52.581 61.287"/>
    <polygon class="cls-40" points="60.305 63.299 61.765 62.238 59.96 62.238 59.402 60.521 58.844 62.238 57.039 62.238 58.5 63.299 57.942 65.016 59.403 63.955 60.863 65.016 60.305 63.299"/>
    <polygon class="cls-40" points="67.819 61.259 69.28 60.198 67.474 60.198 66.916 58.481 66.358 60.198 64.553 60.198 66.013 61.259 65.456 62.976 66.916 61.915 68.377 62.976 67.819 61.259"/>
    <polygon class="cls-40" points="73.285 55.835 74.745 54.774 72.94 54.774 72.382 53.057 71.824 54.774 70.019 54.774 71.48 55.835 70.921 57.552 72.383 56.491 73.843 57.552 73.285 55.835"/>
    <polygon class="cls-40" points="75.298 48.176 76.757 47.115 74.952 47.115 74.394 45.398 73.837 47.115 72.031 47.115 73.493 48.176 72.934 49.893 74.396 48.832 75.855 49.893 75.298 48.176"/>
    <polygon class="cls-11" points="115.204 43.903 107.916 43.903 107.916 49.584 116.065 49.584 116.065 52.482 104.387 52.482 104.387 33.143 115.634 33.143 115.634 36.041 107.916 36.041 107.916 41.034 115.204 41.034 115.204 43.903"/>
  </g>
  <g class="cls-41">
    <path class="cls-11" d="M120.5985,52.48157v-19.339h4.017l4.992,8.292a53.33956,53.33956,0,0,1,3.3,6.48505h.057c-.229-2.582-.315-5.079-.315-8.034v-6.743h3.27v19.339h-3.643l-5.05-8.522a63.899,63.899,0,0,1-3.472-6.656l-.086.029c.143,2.496.172,5.049.172,8.234v6.915Z"/>
    <polygon class="cls-11" points="152.246 43.903 144.958 43.903 144.958 49.584 153.107 49.584 153.107 52.482 141.429 52.482 141.429 33.143 152.676 33.143 152.676 36.041 144.958 36.041 144.958 41.034 152.246 41.034 152.246 43.903"/>
    <path class="cls-11" d="M157.639,33.40161a33.45,33.45,0,0,1,5.337-.402c2.783,0,4.677.459,5.968,1.549a4.89684,4.89684,0,0,1,1.664,3.874,5.15873,5.15873,0,0,1-3.5,4.849v.086c1.377.51606,2.209,1.86506,2.697,3.73a38.47768,38.47768,0,0,0,1.521,5.394h-3.644a27.20969,27.20969,0,0,1-1.291-4.562c-.546-2.525-1.464-3.328-3.472-3.386H161.14v7.948h-3.501Zm3.501,8.55h2.094c2.382,0,3.874-1.26294,3.874-3.185,0-2.123-1.492-3.099-3.788-3.099a10.05384,10.05384,0,0,0-2.18.173Z"/>
    <path class="cls-11" d="M190.8932,51.592a19.15844,19.15844,0,0,1-6.226,1.09c-3.271,0-5.739-.832-7.575-2.582a9.57938,9.57938,0,0,1-2.697-7.116c0-6.111,4.361-10.042,10.76-10.042a12.83359,12.83359,0,0,1,5.135.918l-.775,2.841a10.41069,10.41069,0,0,0-4.389-.832c-4.132,0-7.03,2.439-7.03,6.943,0,4.39,2.697,7.001,6.714,7.001a6.7609,6.7609,0,0,0,2.669-.402v-4.82h-3.415V41.808h6.829Z"/>
    <path class="cls-11" d="M104.0397,60.37042c.033.904.795,1.294,1.656,1.294a4.33568,4.33568,0,0,0,1.491-.226l.199.873a5.39817,5.39817,0,0,1-1.878.318,2.46849,2.46849,0,0,1-2.771-2.536,2.55326,2.55326,0,0,1,2.628-2.691,2.2264,2.2264,0,0,1,2.319,2.434,2.80272,2.80272,0,0,1-.045.534Zm2.363-.883a1.09888,1.09888,0,0,0-1.115-1.222,1.27685,1.27685,0,0,0-1.248,1.222Z"/>
    <polygon class="cls-11" points="110.178 57.516 110.178 59.426 112.254 59.426 112.254 57.516 113.612 57.516 113.612 62.517 112.254 62.517 112.254 60.411 110.178 60.411 110.178 62.517 108.82 62.517 108.82 57.516 110.178 57.516"/>
    <path class="cls-11" d="M116.07269,60.37042c.034.904.795,1.294,1.657,1.294a4.32951,4.32951,0,0,0,1.49-.226l.199.873a5.39191,5.39191,0,0,1-1.877.318,2.46882,2.46882,0,0,1-2.772-2.536,2.55326,2.55326,0,0,1,2.628-2.691,2.2264,2.2264,0,0,1,2.319,2.434,2.9099,2.9099,0,0,1-.044.534Zm2.363-.883a1.09889,1.09889,0,0,0-1.115-1.222,1.27686,1.27686,0,0,0-1.248,1.222Z"/>
    <path class="cls-11" d="M120.8642,59.1788c0-.657-.022-1.19-.044-1.663h1.192l.067.77h.022a2.14226,2.14226,0,0,1,1.843-.883,2.33337,2.33337,0,0,1,2.264,2.547,2.45243,2.45243,0,0,1-2.451,2.679,1.81645,1.81645,0,0,1-1.513-.667h-.022v2.587h-1.358Zm1.358,1.243a1.20725,1.20725,0,0,0,1.236,1.232c.862,0,1.37-.667,1.37-1.653,0-.883-.464-1.602-1.336-1.602a1.24674,1.24674,0,0,0-1.215.935,1.068,1.068,0,0,0-.055.318Z"/>
    <polygon class="cls-11" points="130.922 57.516 130.922 58.512 128.725 58.512 128.725 62.517 127.366 62.517 127.366 57.516 130.922 57.516"/>
    <path class="cls-11" d="M133.08521,57.51578v1.797c0,.791-.033,1.324-.077,2.023h.033c.287-.586.453-.955.729-1.479l1.325-2.341h1.645v5.001h-1.292v-1.787c0-.801.033-1.171.088-2.115h-.044c-.265.595-.441.955-.707,1.437-.419.739-.905,1.643-1.369,2.465h-1.623v-5.001Z"/>
    <path class="cls-11" d="M142.65678,62.5162h-1.347v-1.981h-.508a1.0966,1.0966,0,0,0-.828.328,3.19155,3.19155,0,0,0-.662,1.242,3.79862,3.79862,0,0,1-.21.411h-1.458a2.51662,2.51662,0,0,0,.331-.554,4.19246,4.19246,0,0,1,.806-1.438,1.30778,1.30778,0,0,1,.641-.339v-.03c-.641-.062-1.402-.452-1.402-1.232a1.2596,1.2596,0,0,1,.828-1.161,4.6844,4.6844,0,0,1,1.899-.318,15.44149,15.44149,0,0,1,1.91.113Zm-1.347-4.22a3.83108,3.83108,0,0,0-.674-.051c-.596,0-1.203.195-1.203.749,0,.524.673.75,1.203.75.321,0,.497,0,.674-.01Z"/>
    <path class="cls-11" d="M147.0611,60.64771a.78806.78806,0,0,1-.828-.811.79716.79716,0,0,1,.839-.811.81146.81146,0,1,1,0,1.622Z"/>
    <path class="cls-11" d="M152.415,59.8262c-.64-.164-.994-.555-.994-1.047,0-.678.729-1.376,2.264-1.376a3.39348,3.39348,0,0,1,1.723.38l-.254.811a3.0622,3.0622,0,0,0-1.303-.298c-.652,0-1.061.247-1.061.596,0,.4.542.564,1.347.575h.586v.841h-.596c-.862.011-1.513.175-1.513.657,0,.473.585.719,1.247.719a3.841,3.841,0,0,0,1.513-.349l.199.842a4.39149,4.39149,0,0,1-2.043.452c-1.137,0-2.363-.4-2.363-1.53a1.36424,1.36424,0,0,1,1.248-1.232Z"/>
    <path class="cls-11" d="M157.3606,57.51578l.861,2.536c.155.442.254.842.387,1.274h.044a8.53717,8.53717,0,0,0,1.126-3.379v-.431h1.27a2.05183,2.05183,0,0,1,.033.38c0,1.417-.971,3.091-1.954,4.621h-1.314l-1.911-5.001Z"/>
    <path class="cls-11" d="M162.9355,59.8262c-.64-.164-.994-.555-.994-1.047,0-.678.729-1.376,2.264-1.376a3.39348,3.39348,0,0,1,1.723.38l-.254.811a3.06341,3.06341,0,0,0-1.304-.298c-.651,0-1.06.247-1.06.596,0,.4.542.564,1.347.575h.586v.841h-.596c-.862.011-1.513.175-1.513.657,0,.473.585.719,1.247.719a3.841,3.841,0,0,0,1.513-.349l.199.842a4.39149,4.39149,0,0,1-2.043.452c-1.137,0-2.363-.4-2.363-1.53a1.36424,1.36424,0,0,1,1.248-1.232Z"/>
    <path class="cls-11" d="M168.3671,62.03381v.708a12.72324,12.72324,0,0,0,.077,1.807h-1.314a8.67179,8.67179,0,0,1-.121-1.786v-2.29a2.81009,2.81009,0,0,1,.916-2.413,2.68924,2.68924,0,0,1,1.833-.657,2.42651,2.42651,0,0,1,2.573,2.567,2.47713,2.47713,0,0,1-2.484,2.66,1.79713,1.79713,0,0,1-1.458-.596Zm0-1.499a1.58528,1.58528,0,0,0,.033.328,1.25162,1.25162,0,0,0,1.192.791c.862,0,1.358-.708,1.358-1.653,0-.883-.474-1.561-1.28-1.561-.685,0-1.303.555-1.303,1.705Z"/>
    <path class="cls-11" d="M174.6264,64.54919a10.57172,10.57172,0,0,0-.188-2.885,13.46449,13.46449,0,0,0-1.877-4.148h1.524a11.63289,11.63289,0,0,1,1.436,3.635h.044a7.77125,7.77125,0,0,0,1.016-3.235c0-.195-.012-.298-.012-.4h1.293a2.00733,2.00733,0,0,1,.021.37,8.49949,8.49949,0,0,1-1.899,4.404.39972.39972,0,0,0-.066.247c.022.503.022,1.324.033,2.012Z"/>
    <path class="cls-11" d="M179.71539,59.8262c-.64-.164-.994-.555-.994-1.047,0-.678.729-1.376,2.264-1.376a3.38679,3.38679,0,0,1,1.722.38l-.254.811a3.05714,3.05714,0,0,0-1.302-.298c-.652,0-1.061.247-1.061.596,0,.4.542.564,1.347.575h.586v.841h-.596c-.862.011-1.513.175-1.513.657,0,.473.585.719,1.247.719a3.841,3.841,0,0,0,1.513-.349l.199.842a4.39149,4.39149,0,0,1-2.043.452c-1.137,0-2.363-.4-2.363-1.53a1.36424,1.36424,0,0,1,1.248-1.232Z"/>
    <path class="cls-11" d="M185.1916,61.1098c0,.41.132.575.508.555l-.077.882a1.77808,1.77808,0,0,1-.586.082c-.728,0-1.214-.287-1.214-1.396v-3.717h1.369Z"/>
    <path class="cls-11" d="M191.684,57.51572c-.067.678-.155,2.218-.155,3.409,0,.565.188.76.519.75l-.088.893a1.72792,1.72792,0,0,1-.475.062.99831.99831,0,0,1-1.049-.976h-.033a2.00733,2.00733,0,0,1-1.778.976,2.27872,2.27872,0,0,1-2.22-2.516,2.55816,2.55816,0,0,1,2.43-2.711,1.66714,1.66714,0,0,1,1.546.873h.044c.033-.308.077-.544.121-.76Zm-3.898,2.557c0,.842.464,1.55,1.204,1.55a1.34987,1.34987,0,0,0,1.192-1.078,3.25951,3.25951,0,0,0,.044-.585,2.08105,2.08105,0,0,0-.033-.472,1.23167,1.23167,0,0,0-1.137-1.109c-.762,0-1.27.749-1.27,1.684Z"/>
    <path class="cls-11" d="M198.2374,37.24731a9.8455,9.8455,0,1,1,9.846,9.845,9.84552,9.84552,0,0,1-9.846-9.845"/>
    <path class="cls-39" d="M207.41209,40.93762v-3.394l-2.573-4.747h1.691l.979,2.09c.277.603.483,1.063.7,1.618h.024c.206-.519.435-1.027.713-1.618l.978-2.09h1.679l-2.705,4.711v3.43Z"/>
    <path class="cls-11" d="M220.88879,37.24731a9.8455,9.8455,0,1,1,9.846,9.845,9.84553,9.84553,0,0,1-9.846-9.845"/>
    <path class="cls-11" d="M198.2374,59.07809a9.8455,9.8455,0,1,1,9.846,9.845,9.84636,9.84636,0,0,1-9.846-9.845"/>
    <rect class="cls-39" x="204.332" y="54.62799" width="1.48599" height="8.14099"/>
    <polygon class="cls-39" points="212.074 59.157 209.006 59.157 209.006 61.548 212.437 61.548 212.437 62.769 207.521 62.769 207.521 54.627 212.255 54.627 212.255 55.847 209.006 55.847 209.006 57.949 212.074 57.949 212.074 59.157"/>
    <path class="cls-11" d="M220.88879,59.07809a9.8455,9.8455,0,1,1,9.846,9.845,9.84636,9.84636,0,0,1-9.846-9.845"/>
    <rect class="cls-39" x="223.884" y="32.797" width="1.48599" height="8.14099"/>
    <path class="cls-39" d="M228.69209,32.79651h1.486v5.278c0,2.247-1.087,2.996-2.706,2.996a3.95621,3.95621,0,0,1-1.244-.193l.181-1.196a3.26939,3.26939,0,0,0,.918.145c.846,0,1.365-.387,1.365-1.8Z"/>
    <path class="cls-39" d="M233.44009,38.63031l-.701,2.307h-1.534l2.61-8.14106h1.896l2.645,8.14106h-1.594l-.737-2.307Zm2.331-1.123-.64-2.00494c-.157-.49506-.29-1.051-.411-1.522h-.024c-.121.471-.242,1.039-.386,1.522l-.629,2.00494Z"/>
    <rect class="cls-39" x="226.25201" y="54.62799" width="1.48599" height="8.14099"/>
    <path class="cls-39" d="M231.07259,60.4621l-.701,2.307h-1.534l2.609-8.141h1.897l2.645,8.141h-1.595l-.737-2.307Zm2.331-1.123-.64-2.005c-.158-.496-.291-1.051-.411-1.522h-.025c-.12.471-.241,1.038-.386,1.522l-.628,2.005Z"/>
  </g>
  <g class="cls-30">
    <path class="cls-42" d="M26.371,16.45062s-9.921,0-9.921,9.921v514.187s0,9.92206,9.921,9.92206H257.094s9.921,0,9.921-9.92206V26.37164s0-9.921-9.921-9.921Z"/>
    <rect class="cls-11" x="25.511" y="145.45398" width="125.778" height="166.31702"/>
    <polygon class="cls-43" points="25.511 152.07 25.511 171.762 70.377 171.762 80.13 161.916 70.377 152.07 25.511 152.07"/>
    <polygon class="cls-44" points="25.511 175.448 25.511 195.138 81.997 195.138 91.761 185.294 81.997 175.448 25.511 175.448"/>
    <polygon class="cls-45" points="25.511 198.825 25.511 218.518 93.346 218.518 103.114 208.672 93.346 198.825 25.511 198.825"/>
    <polygon class="cls-40" points="25.511 222.203 25.511 241.893 104.697 241.893 114.466 232.047 104.697 222.203 25.511 222.203"/>
    <polygon class="cls-46" points="25.511 245.58 25.511 265.27 116.046 265.27 125.82 255.427 116.046 245.58 25.511 245.58"/>
    <polygon class="cls-47" points="25.511 268.955 25.511 288.648 127.396 288.648 137.174 278.802 127.396 268.955 25.511 268.955"/>
    <polygon class="cls-48" points="25.511 292.331 25.511 311.771 138.427 311.771 148.581 302.178 138.162 292.331 25.511 292.331"/>
  </g>
  <g class="cls-49">
    <path class="cls-11" d="M199.6243,164.80652l-.865,3.131h-2.842l3.707-12.201h3.597l3.762,12.201h-2.953l-.935-3.131Zm3.076-2.064-.756-2.589c-.217-.724-.432-1.63-.613-2.353h-.035c-.178.723-.36,1.647-.557,2.353l-.721,2.589Z"/>
    <path class="cls-11" d="M196.00879,179.304a21.71223,21.71223,0,0,1,3.545-.253,6.658,6.658,0,0,1,3.58.688,2.65719,2.65719,0,0,1,1.455,2.389,2.75668,2.75668,0,0,1-1.994,2.608v.036a3.04776,3.04776,0,0,1,2.408,3.006,3.25859,3.25859,0,0,1-1.258,2.589c-.88.706-2.357,1.104-4.769,1.104a20.9569,20.9569,0,0,1-2.967-.182Zm2.715,4.671h.9c1.442,0,2.215-.598,2.215-1.502,0-.924-.703-1.412-1.943-1.412a7.39238,7.39238,0,0,0-1.172.072Zm0,5.413a8.23,8.23,0,0,0,1.064.038c1.239,0,2.338-.489,2.338-1.756,0-1.234-1.099-1.72-2.464-1.72h-.938Z"/>
    <path class="cls-11" d="M204.9738,214.4046a7.67361,7.67361,0,0,1-3.115.545c-4.192,0-6.348-2.643-6.348-6.12,0-4.163,2.949-6.481,6.617-6.481a7.1546,7.1546,0,0,1,2.989.542l-.559,2.192a5.88622,5.88622,0,0,0-2.303-.454,4.01284,4.01284,0,0,0,.018,8.021,6.84019,6.84019,0,0,0,2.285-.398Z"/>
    <path class="cls-11" d="M195.23149,226.11462a24.63349,24.63349,0,0,1,3.707-.252,7.75455,7.75455,0,0,1,4.965,1.304,5.40559,5.40559,0,0,1,2.051,4.596,6.19272,6.19272,0,0,1-2.016,4.943,8.65445,8.65445,0,0,1-5.592,1.576,23.54147,23.54147,0,0,1-3.115-.182Zm2.754,9.958a4.86756,4.86756,0,0,0,.953.056c2.485.017,4.102-1.36,4.102-4.275a3.48741,3.48741,0,0,0-3.813-3.873,5.5665,5.5665,0,0,0-1.242.109Z"/>
    <polygon class="cls-11" points="202.386 256.299 197.925 256.299 197.925 259.196 202.907 259.196 202.907 261.458 195.173 261.458 195.173 249.256 202.656 249.256 202.656 251.521 197.925 251.521 197.925 254.055 202.386 254.055 202.386 256.299"/>
    <polygon class="cls-11" points="195.675 272.661 203.087 272.661 203.087 274.926 198.425 274.926 198.425 277.712 202.779 277.712 202.779 279.959 198.425 279.959 198.425 284.863 195.675 284.863 195.675 272.661"/>
    <path class="cls-11" d="M206.22771,307.60669a13.51214,13.51214,0,0,1-4.049.688,6.735,6.735,0,0,1-4.931-1.649,5.93027,5.93027,0,0,1-1.708-4.435c.018-4.055,2.95-6.373,6.926-6.373a8.29084,8.29084,0,0,1,3.364.598l-.575,2.209a6.68234,6.68234,0,0,0-2.824-.524,3.97559,3.97559,0,1,0,1.151,7.766v-2.554h-1.872v-2.154h4.518Z"/>
    <path class="cls-11" d="M199.2576,142.30429l-.864,3.114h-2.828l3.692-12.135h3.6l3.782,12.135h-2.971l-.937-3.114Zm3.078-2.053-.756-2.575c-.216-.72-.432-1.62-.612-2.341h-.036c-.18.721-.361,1.639-.558,2.341l-.721,2.575Z"/>
    <polygon class="cls-11" points="211.653 135.207 211.653 137.821 214.159 137.821 214.159 138.937 211.653 138.937 211.653 141.587 210.477 141.587 210.477 138.937 207.97 138.937 207.97 137.821 210.477 137.821 210.477 135.207 211.653 135.207"/>
  </g>
  <g class="cls-49">
    <text class="cls-50" transform="translate(171.49609 206.62677)"><tspan xml:space="preserve"> A</tspan></text>
    <text class="cls-51" transform="translate(185.64063 199.62677)">+</text>
  </g>
  <text class="cls-52" transform="translate(26.11914 167.93732)"> </text>
  <text class="cls-53" transform="translate(30.41455 167.93732)">A</text>
  <text class="cls-51" transform="translate(41.32178 159.93732)"><tspan class="cls-54">+</tspan><tspan x="4.06445" y="0">+</tspan></text>
  <text class="cls-51" transform="translate(49.46582 159.93732)">+</text>
  <text class="cls-52" transform="translate(26.30273 191.57208)"> </text>
  <text class="cls-53" transform="translate(30.59814 191.57208)">A</text>
  <text class="cls-51" transform="translate(41.50537 183.57208)">+</text>
  <text class="cls-51" transform="translate(45.57764 183.57208)">+</text>
  <text class="cls-52" transform="translate(26.30273 214.83087)"> </text>
  <text class="cls-53" transform="translate(30.59814 214.83087)">A</text>
  <text class="cls-51" transform="translate(41.50537 206.83087)">+</text>
  <text class="cls-53" transform="translate(26.49023 238.32697)"><tspan xml:space="preserve"> A</tspan></text>
  <text class="cls-53" transform="translate(26.49023 261.45685)"><tspan xml:space="preserve"> B</tspan></text>
  <text class="cls-53" transform="translate(29.98242 284.85675)">C</text>
  <g class="cls-49">
    <text class="cls-53" transform="translate(29.99023 308.29425)">D</text>
  </g>
  <g class="cls-30">
    <rect class="cls-11" x="190.70599" y="171.67697" width="31.119" height="27.31601"/>
  </g>
  <g class="cls-55">
    <text class="cls-56" transform="translate(192.99609 124.34503)"><tspan xml:space="preserve"> A</tspan></text>
    <text class="cls-57" transform="translate(207.69043 116.67218)"><tspan class="cls-58">++</tspan><tspan x="7.78223" y="0">+</tspan></text>
    <text class="cls-57" transform="translate(219.38574 116.67218)">+</text>
    <text class="cls-56" transform="translate(192.99609 157.12823)"><tspan xml:space="preserve"> A</tspan></text>
    <text class="cls-57" transform="translate(207.69043 149.46808)"><tspan class="cls-58">+</tspan><tspan x="3.89063" y="0">+</tspan></text>
    <text class="cls-57" transform="translate(215.4873 149.46808)">+</text>
  </g>
  <g class="cls-55">
    <text class="cls-56" transform="translate(192.99609 222.69562)"><tspan xml:space="preserve"> A</tspan></text>
    <text class="cls-57" transform="translate(207.69043 215.02228)">+</text>
    <text class="cls-56" transform="translate(192.99609 255.47882)"><tspan xml:space="preserve"> A</tspan></text>
    <text class="cls-56" transform="translate(192.99609 288.9505)"><tspan xml:space="preserve"> B</tspan></text>
    <text class="cls-56" transform="translate(192.99609 321.73468)"><tspan xml:space="preserve"> C</tspan></text>
    <text class="cls-56" transform="translate(192.99609 354.51886)"><tspan xml:space="preserve"> D</tspan></text>
    <text class="cls-56" transform="translate(192.99609 387.30304)"><tspan xml:space="preserve"> E</tspan></text>
    <text class="cls-56" transform="translate(192.99609 420.08722)"><tspan xml:space="preserve"> F</tspan></text>
    <text class="cls-56" transform="translate(192.99609 452.8714)"><tspan xml:space="preserve"> G</tspan></text>
  </g>
  <g class="cls-30">
    <rect class="cls-11" x="228.755" y="195.73297" width="31.14499" height="27.31601"/>
  </g>
  <g class="cls-59">
    <text class="cls-56" transform="translate(231.04492 114.87726)"><tspan xml:space="preserve"> A</tspan></text>
    <text class="cls-57" transform="translate(245.73828 107.20441)"><tspan class="cls-58">++</tspan><tspan x="7.78223" y="0">+</tspan></text>
    <text class="cls-57" transform="translate(257.43359 107.20441)">+</text>
    <text class="cls-56" transform="translate(231.04492 147.66046)"><tspan xml:space="preserve"> A</tspan></text>
    <text class="cls-57" transform="translate(245.73828 140.00031)"><tspan class="cls-58">+</tspan><tspan x="3.89063" y="0">+</tspan></text>
    <text class="cls-57" transform="translate(253.53516 140.00031)">+</text>
    <text class="cls-56" transform="translate(231.04492 180.44415)"><tspan xml:space="preserve"> A</tspan></text>
    <text class="cls-57" transform="translate(245.73828 172.784)">+</text>
    <text class="cls-57" transform="translate(249.63672 172.784)">+</text>
  </g>
  <g class="cls-59">
    <text class="cls-56" transform="translate(231.04492 246.01105)"><tspan xml:space="preserve"> A</tspan></text>
    <text class="cls-56" transform="translate(231.04492 279.48322)"><tspan xml:space="preserve"> B</tspan></text>
    <text class="cls-56" transform="translate(231.04492 312.26691)"><tspan xml:space="preserve"> C</tspan></text>
    <text class="cls-56" transform="translate(231.04492 345.05109)"><tspan xml:space="preserve"> D</tspan></text>
    <text class="cls-56" transform="translate(231.04492 377.83527)"><tspan xml:space="preserve"> E</tspan></text>
    <text class="cls-56" transform="translate(231.04492 410.61945)"><tspan xml:space="preserve"> F</tspan></text>
    <text class="cls-56" transform="translate(231.04492 443.40363)"><tspan xml:space="preserve"> G</tspan></text>
  </g>
  <g class="cls-30">
    <rect class="cls-11" x="153.25301" y="148.14499" width="31.145" height="31.99701"/>
  </g>
  <g class="cls-60">
    <text class="cls-56" transform="translate(155.54297 133.67072)"><tspan xml:space="preserve"> A</tspan></text>
    <text class="cls-57" transform="translate(170.2373 125.99835)"><tspan class="cls-58">++</tspan><tspan x="7.78223" y="0">+</tspan></text>
    <text class="cls-57" transform="translate(181.93262 125.99835)">+</text>
    <polygon class="cls-61" points="166.833 180.936 153.253 194.646 166.833 208.355 207.885 208.355 207.885 180.936 166.833 180.936"/>
  </g>
  <g class="cls-60">
    <text class="cls-56" transform="translate(155.54297 199.23761)"><tspan xml:space="preserve"> A</tspan></text>
    <text class="cls-57" transform="translate(170.2373 191.57745)">+</text>
    <text class="cls-57" transform="translate(174.13574 191.57745)">+</text>
    <text class="cls-56" transform="translate(155.54297 232.0213)"><tspan xml:space="preserve"> A</tspan></text>
    <text class="cls-57" transform="translate(170.2373 224.34796)">+</text>
    <text class="cls-56" transform="translate(155.54297 264.80499)"><tspan xml:space="preserve"> A</tspan></text>
    <text class="cls-56" transform="translate(155.54297 298.27667)"><tspan xml:space="preserve"> B</tspan></text>
    <text class="cls-56" transform="translate(155.54297 331.06085)"><tspan xml:space="preserve"> C</tspan></text>
    <text class="cls-56" transform="translate(155.54297 363.84503)"><tspan xml:space="preserve"> D</tspan></text>
    <text class="cls-56" transform="translate(155.54297 396.62921)"><tspan xml:space="preserve"> E</tspan></text>
    <text class="cls-56" transform="translate(155.54297 429.41339)"><tspan xml:space="preserve"> F</tspan></text>
    <text class="cls-56" transform="translate(155.54297 462.19757)"><tspan xml:space="preserve"> G</tspan></text>
  </g>
  <g class="cls-30">
    <polygon class="cls-62" points="160.218 450.11 155.666 450.11 155.096 450.685 155.096 469.176 153.96 470.329 146.564 469.753 142.581 466.287 130.633 466.287 127.789 469.176 127.789 483.043 124.944 486.509 124.944 489.398 135.184 499.219 137.46 499.219 139.737 496.908 142.581 499.219 145.426 499.219 167.044 477.264 177.285 477.264 171.596 471.486 167.613 475.531 161.923 469.753 161.923 457.62 164.2 455.308 164.2 446.064 160.218 450.11"/>
    <polygon class="cls-63" points="164.199 446.065 167.613 444.91 169.32 446.641 172.164 446.641 182.404 436.242 184.111 435.664 196.058 435.664 196.058 439.129 184.681 450.685 184.681 452.997 187.525 455.887 168.183 475.532 161.924 469.754 161.924 457.62 164.199 455.887 164.199 446.065"/>
    <polygon class="cls-64" points="229.056 412.552 225.644 416.596 225.644 423.529 222.798 425.84 222.23 425.84 221.092 424.684 218.815 424.684 217.108 426.418 217.108 428.73 218.815 430.464 214.833 434.508 213.125 432.774 209.144 432.774 206.3 435.663 195.49 435.663 195.49 439.13 184.681 450.684 184.681 452.996 187.525 455.886 171.596 471.485 176.716 476.687 180.698 472.643 179.56 471.485 183.543 467.442 186.386 470.33 188.663 470.33 190.938 468.02 192.077 468.02 197.196 473.22 201.179 473.22 206.3 468.02 209.144 468.02 218.815 477.842 218.815 480.152 217.108 481.887 217.108 485.353 222.798 491.134 223.936 491.134 239.865 474.376 241.003 472.643 241.003 469.752 240.436 468.02 233.607 461.663 218.248 461.663 217.108 459.931 217.108 450.109 221.66 445.487 221.66 441.441 220.522 440.285 220.522 438.553 223.366 435.663 224.504 436.82 226.781 436.82 229.056 435.085 229.056 432.774 227.918 431.618 227.918 430.464 230.762 427.575 230.762 412.552 229.056 412.552"/>
    <polygon class="cls-64" points="222.231 379.04 214.835 386.551 212.558 384.241 210.28 384.241 195.491 399.264 192.077 395.797 189.802 395.797 185.25 400.419 185.25 413.13 186.956 414.864 196.058 414.864 196.058 416.019 198.905 417.752 198.905 418.908 196.058 422.374 196.058 424.108 198.905 427.575 196.058 430.464 196.058 432.197 197.197 433.353 201.749 433.353 201.749 432.775 206.301 428.152 206.301 425.263 203.454 422.952 209.145 417.174 209.145 412.552 207.439 410.818 210.28 408.507 210.28 405.619 208.006 403.308 208.006 401.573 217.679 392.33 219.954 392.33 221.661 393.485 221.661 395.797 215.971 401.573 215.971 403.885 218.249 406.774 216.54 409.085 216.54 410.241 217.108 410.241 217.108 412.552 218.816 414.285 220.523 414.285 226.781 407.931 227.919 407.931 229.627 409.663 233.041 409.663 234.177 408.507 234.177 405.619 231.9 402.73 237.023 397.53 237.023 392.33 231.9 385.974 233.608 384.241 233.608 381.352 232.469 379.618 229.627 379.618 227.349 381.929 223.937 379.04 222.231 379.04"/>
    <polygon class="cls-63" points="190.37 420.063 185.249 424.685 185.249 428.153 190.939 434.507 192.077 434.507 194.922 431.04 195.491 430.463 192.077 426.996 195.491 423.528 192.077 420.063 190.37 420.063"/>
    <polygon class="cls-63" points="167.613 443.175 169.89 440.864 169.89 437.397 165.906 433.352 165.906 417.174 161.355 411.973 159.08 411.973 155.666 415.44 155.666 431.04 167.613 443.175"/>
    <polygon class="cls-65" points="152.821 433.93 152.821 439.129 148.27 443.175 149.977 444.909 165.905 444.909 167.613 443.175 155.665 431.041 152.821 433.93"/>
    <polygon class="cls-65" points="153.96 421.218 149.408 421.218 140.306 431.04 140.306 432.774 142.013 434.508 144.857 434.508 154.529 424.686 154.529 421.796 153.96 421.218"/>
    <polygon class="cls-66" points="162.493 392.329 161.924 393.485 161.924 396.952 162.493 397.529 164.77 397.529 165.338 396.375 165.338 393.485 164.77 392.329 162.493 392.329"/>
    <polygon class="cls-65" points="160.218 492.864 160.218 491.133 162.493 488.819 165.337 488.819 165.337 491.709 162.493 494.019 161.355 494.019 160.218 492.864"/>
    <polygon class="cls-65" points="181.836 485.353 183.543 483.043 185.818 485.353 185.818 489.977 184.111 491.132 182.974 491.132 181.836 489.977 181.836 485.353"/>
    <polygon class="cls-65" points="182.974 491.708 184.111 491.708 185.818 492.863 185.818 498.064 184.111 499.798 183.543 499.798 181.836 498.064 181.836 492.863 182.974 491.708"/>
    <polygon class="cls-65" points="201.18 506.732 210.852 497.487 210.852 494.598 199.474 483.043 194.922 487.665 202.318 495.176 202.318 496.909 197.766 501.531 197.196 502.687 197.196 504.421 197.766 506.154 199.474 506.732 201.18 506.732"/>
    <polygon class="cls-63" points="196.058 472.064 192.076 475.531 200.04 483.043 198.903 484.199 194.922 480.152 192.076 483.043 196.058 487.087 194.922 487.664 184.681 477.263 177.284 477.263 176.147 476.687 180.128 472.642 179.56 471.485 183.544 467.441 186.386 470.329 188.663 470.329 190.939 468.019 192.076 468.019 196.058 472.064"/>
    <polygon class="cls-63" points="219.385 487.665 217.108 489.978 217.108 493.443 218.816 495.176 219.385 495.176 222.799 492.288 224.504 492.288 227.348 495.755 227.92 495.755 238.727 484.776 238.727 482.466 235.316 478.998 223.936 490.553 222.23 490.553 219.385 487.665"/>
    <polygon class="cls-66" points="223.936 499.22 227.349 495.755 224.505 492.287 222.799 492.287 219.385 495.175 222.799 499.22 223.936 499.22"/>
    <polygon class="cls-65" points="225.072 506.154 230.763 500.953 230.763 498.064 228.487 495.754 227.349 495.754 223.935 499.22 222.798 499.22 219.384 495.175 218.815 495.175 217.109 496.909 217.109 501.531 221.661 506.154 225.072 506.154"/>
    <polygon class="cls-65" points="233.608 497.486 233.608 496.909 237.59 496.909 238.726 498.064 238.726 500.953 238.159 501.532 233.608 501.532 233.608 500.953 233.608 497.486"/>
    <polygon class="cls-62" points="229.056 509.622 228.488 510.198 228.488 512.511 229.056 513.088 233.607 513.088 234.176 512.511 234.176 510.777 233.04 509.622 229.056 509.622"/>
    <rect class="cls-62" x="200.61" y="510.77699" width="1.138" height="1.733"/>
    <polygon class="cls-63" points="136.323 474.954 138.598 473.22 140.874 473.22 145.995 478.421 145.995 481.888 144.858 483.044 143.151 483.044 136.323 476.688 136.323 474.954"/>
    <polygon class="cls-63" points="147.133 487.087 144.288 483.622 140.874 487.087 140.874 489.397 142.014 490.552 144.858 490.552 147.133 488.242 147.133 487.087"/>
    <polygon class="cls-63" points="157.373 478.997 158.51 477.842 158.51 474.953 156.236 472.643 154.529 472.643 151.684 475.532 155.096 478.997 157.373 478.997"/>
    <polygon class="cls-66" points="192.076 483.043 194.921 480.153 198.904 484.198 196.058 487.087 192.076 483.043"/>
  </g>
  <text class="cls-67" transform="translate(24.92432 123.01251)">S</text>
  <text class="cls-67" transform="translate(29.62451 123.01251)">C</text>
  <text class="cls-67" transform="translate(34.98437 123.01251)">O</text>
  <text class="cls-67" transform="translate(41.64453 123.01251)">P</text>
  <g class="cls-30">
    <line class="cls-68" x1="224.8476" y1="148.34729" x2="224.8476" y2="374.78828"/>
    <line class="cls-68" x1="187.56329" y1="148.34729" x2="187.56329" y2="374.78828"/>
  </g>
  <text class="cls-67" transform="translate(137.83838 329.42609)">kW</text>
  <text class="cls-67" transform="translate(129.37842 342.42609)">S</text>
  <text class="cls-67" transform="translate(134.07861 342.42609)">C</text>
  <text class="cls-67" transform="translate(139.43848 342.42609)">O</text>
  <text class="cls-67" transform="translate(146.09863 342.42609)">P</text>
  <text class="cls-67" transform="translate(100.49854 355.42609)">k</text>
  <text class="cls-67" transform="translate(105.04834 355.42609)">W</text>
  <text class="cls-67" transform="translate(113.9585 355.42609)">h</text>
  <text class="cls-67" transform="translate(119.19824 355.42609)">/</text>
  <text class="cls-67" transform="translate(122.76855 355.42609)">an</text>
  <text class="cls-67" transform="translate(132.80859 355.42609)">n</text>
  <text class="cls-67" transform="translate(138.04834 355.42609)">um</text>
  <g class="cls-30">
    <rect class="cls-69" x="162.992" y="360.61398" width="11.339" height="11.339"/>
    <rect class="cls-44" x="200.534" y="360.61398" width="11.339" height="11.339"/>
    <rect class="cls-64" x="238.077" y="360.61398" width="11.339" height="11.339"/>
  </g>
  <g id="warmerRating">
    <polyline id="warmerRatingArrow" class="cls-61" points="153.24 161.92 166.39 148.65 184.39 148.65 184.39 175.64 166.82 175.64 153.24 161.92"/>
    <text id="warmerRatingLetter" class="cls-53" transform="translate(160.88965 166.17023)">A</text>
    <text id="warmerRatingPlusses" class="cls-70" transform="translate(170.66992 158.65997)">+++</text>
  </g>
  <text id="warmerKw" class="cls-71" transform="translate(160.63965 329.47003)">X</text>
  <text id="warmerScop" class="cls-71" transform="translate(160.63965 342.44952)">X</text>
  <text id="warmerKwhAnnum" class="cls-71" transform="translate(160.63965 355.47003)">X</text>
  <g id="averageRating">
    <polyline id="averageRatingArrow" class="cls-61" points="190.66 161.92 203.81 148.65 221.81 148.65 221.81 175.64 204.24 175.64 190.66 161.92"/>
    <text id="averageRatingLetter" class="cls-53" transform="translate(198.30957 166.17023)">A</text>
    <text id="averageRatingPlusses" class="cls-70" transform="translate(208.08984 158.65997)">+++</text>
  </g>
  <text id="averageKw" class="cls-71" transform="translate(196.63965 329.47003)">X</text>
  <text id="averageScop" class="cls-71" transform="translate(196.63965 342.44952)">X</text>
  <text id="averageKwhAnnum" class="cls-71" transform="translate(196.63965 355.47003)">X</text>
  <g id="colderRating">
    <polyline id="colderRatingArrow" class="cls-61" points="228.76 161.92 241.91 148.65 259.91 148.65 259.91 175.64 242.33 175.64 228.76 161.92"/>
    <text id="colderRatingLetter" class="cls-53" transform="translate(236.41016 166.17023)">A</text>
    <text id="colderRatingPlusses" class="cls-70" transform="translate(246.17969 158.65997)">+++</text>
  </g>
  <text id="colderKw" class="cls-71" transform="translate(234.95996 329.47003)">X</text>
  <text id="colderScop" class="cls-71" transform="translate(234.95996 342.44952)">X</text>
  <text id="colderKwhAnnum" class="cls-71" transform="translate(234.95996 355.47003)">X</text>
  <text id="insideDb" class="cls-72" transform="translate(48 427.31964)">X</text>
  <text id="outsideDb" class="cls-72" transform="translate(48 503.80011)">X</text>
  <text id="supplierLineTwo" class="cls-29" transform="translate(24.94008 99.20996)">X</text>
  <text id="supplierLineOne" class="cls-29" transform="translate(24.94008 87.18945)">X</text>
  <text id="modelLineTwo" class="cls-29" transform="translate(147.40053 99.20996)">X</text>
  <text id="modelLineOne" class="cls-29" transform="translate(147.40053 87.18945)">X</text>
  <text class="cls-73" transform="translate(24.91341 525.93555)">ENE<tspan class="cls-74" x="12.97656" y="0">R</tspan><tspan x="17.24609" y="0">GIA      ENE</tspan><tspan class="cls-74" x="119.75" y="0">R</tspan><tspan x="124.01953" y="0">GI</tspan><tspan class="cls-75" x="131.08203" y="0">J</tspan><tspan x="133.49609" y="0">A  ENE</tspan><tspan class="cls-74" x="156.73828" y="0">R</tspan><tspan class="cls-76" x="161.00781" y="0">G</tspan><tspan x="165.9375" y="0">Y  ENE</tspan><tspan class="cls-74" x="188.44922" y="0">R</tspan><tspan x="192.71875" y="0">GIE  ENE</tspan><tspan class="cls-74" x="222.30078" y="0">R</tspan><tspan x="226.57031" y="0">GI</tspan></text>
</svg>
