<svg xmlns="http://www.w3.org/2000/svg" xmlns:xlink="http://www.w3.org/1999/xlink" id="Layer_1" data-name="Layer 1" width="120mm" height="210mm" viewBox="0 0 340.16 595.28003" data-rating-increment="21.7323" data-supplier-model-chars-per-row="25">
  <defs>
    <style>
      .cls-1, .cls-11, .cls-12, .cls-13, .cls-21, .cls-22, .cls-23, .cls-24, .cls-25, .cls-28, .cls-3, .cls-30, .cls-31, .cls-33, .cls-34, .cls-35, .cls-4, .cls-51, .cls-6, .cls-8, .cls-9 {
        fill: none;
      }

      .cls-2 {
        clip-path: url(#clip-path);
      }

      .cls-12, .cls-23, .cls-24, .cls-3, .cls-4, .cls-51, .cls-6, .cls-8 {
        stroke: #00aeef;
      }

      .cls-3 {
        stroke-width: 2px;
      }

      .cls-44, .cls-5 {
        font-size: 10px;
      }

      .cls-14, .cls-44, .cls-5, .cls-71, .cls-72, .cls-75, .cls-76, .cls-77 {
        fill: #231f20;
      }

      .cls-5, .cls-60, .cls-61, .cls-63, .cls-66, .cls-67, .cls-73, .cls-75, .cls-76 {
        font-family: Calibri-Bold, Calibri;
        font-weight: 700;
      }

      .cls-6 {
        stroke-width: 5px;
      }

      .cls-7 {
        clip-path: url(#clip-path-3);
      }

      .cls-12, .cls-23, .cls-24, .cls-34, .cls-35, .cls-8 {
        stroke-linecap: round;
      }

      .cls-12, .cls-23, .cls-24, .cls-30, .cls-34, .cls-35, .cls-8 {
        stroke-linejoin: round;
      }

      .cls-8 {
        stroke-width: 1.192px;
      }

      .cls-13, .cls-21, .cls-25, .cls-31, .cls-9 {
        stroke: #fff;
      }

      .cls-9 {
        stroke-width: 1.04px;
      }

      .cls-10 {
        fill: #2aace3;
      }

      .cls-11, .cls-22 {
        stroke: #2aace3;
      }

      .cls-11 {
        stroke-width: 0.837px;
      }

      .cls-12 {
        stroke-width: 2.118px;
      }

      .cls-13 {
        stroke-width: 1.095px;
      }

      .cls-14 {
        font-size: 12px;
      }

      .cls-14, .cls-44, .cls-71, .cls-74, .cls-77 {
        font-family: Calibri;
      }

      .cls-15 {
        fill: #034ea2;
      }

      .cls-16 {
        fill: #00aeef;
      }

      .cls-17 {
        fill: #fff200;
      }

      .cls-18, .cls-60, .cls-61, .cls-63, .cls-66, .cls-67, .cls-73, .cls-74 {
        fill: #fff;
      }

      .cls-19 {
        clip-path: url(#clip-path-5);
      }

      .cls-20 {
        clip-path: url(#clip-path-6);
      }

      .cls-21 {
        stroke-width: 0.835px;
      }

      .cls-22 {
        stroke-width: 0.672px;
      }

      .cls-23 {
        stroke-width: 1.701px;
      }

      .cls-24 {
        stroke-width: 0.957px;
      }

      .cls-25 {
        stroke-width: 0.879px;
      }

      .cls-26 {
        clip-path: url(#clip-path-7);
      }

      .cls-27 {
        fill: #49c8f5;
      }

      .cls-28, .cls-34 {
        stroke: #49c8f5;
      }

      .cls-28, .cls-33 {
        stroke-width: 0.852px;
      }

      .cls-29 {
        fill: #f9f9fa;
      }

      .cls-30 {
        stroke: #f9f9fa;
        stroke-width: 0.658px;
      }

      .cls-31 {
        stroke-width: 0.474px;
      }

      .cls-32 {
        fill: #f05327;
      }

      .cls-33 {
        stroke: #f05327;
      }

      .cls-34, .cls-35 {
        stroke-width: 0.79px;
      }

      .cls-35 {
        stroke: #f05427;
      }

      .cls-36 {
        clip-path: url(#clip-path-8);
      }

      .cls-37 {
        opacity: 0.28;
      }

      .cls-38 {
        clip-path: url(#clip-path-9);
      }

      .cls-39 {
        clip-path: url(#clip-path-10);
      }

      .cls-40 {
        clip-path: url(#clip-path-11);
      }

      .cls-41 {
        clip-path: url(#clip-path-12);
      }

      .cls-42 {
        clip-path: url(#clip-path-13);
      }

      .cls-43 {
        clip-path: url(#clip-path-14);
      }

      .cls-45 {
        letter-spacing: -0.01001em;
      }

      .cls-46, .cls-49 {
        fill: #ed7e23;
      }

      .cls-47 {
        fill: #53ae47;
      }

      .cls-47, .cls-49, .cls-50 {
        fill-rule: evenodd;
      }

      .cls-48, .cls-50 {
        fill: #1c9ad6;
      }

      .cls-51 {
        stroke-miterlimit: 3;
        stroke-width: 0.911px;
      }

      .cls-52 {
        fill: #f58220;
      }

      .cls-53 {
        fill: #50b848;
      }

      .cls-54 {
        fill: #00a651;
      }

      .cls-55 {
        fill: #bfd730;
      }

      .cls-56 {
        fill: #fdb913;
      }

      .cls-57 {
        fill: #f37021;
      }

      .cls-58 {
        fill: #ed1c24;
      }

      .cls-59 {
        clip-path: url(#clip-path-17);
      }

      .cls-60 {
        font-size: 15.8191px;
      }

      .cls-61, .cls-63 {
        font-size: 7.4443px;
      }

      .cls-61, .cls-65 {
        letter-spacing: 0.01004em;
      }

      .cls-62 {
        letter-spacing: -0.00007em;
      }

      .cls-64 {
        clip-path: url(#clip-path-21);
      }

      .cls-66 {
        font-size: 18.1028px;
      }

      .cls-67 {
        font-size: 7.6589px;
      }

      .cls-68 {
        letter-spacing: 0.01001em;
      }

      .cls-69 {
        clip-path: url(#clip-path-25);
      }

      .cls-70 {
        letter-spacing: 0.00995em;
      }

      .cls-71, .cls-75 {
        font-size: 11px;
      }

      .cls-73 {
        font-size: 18px;
      }

      .cls-74 {
        font-size: 8px;
      }

      .cls-76 {
        font-size: 15px;
      }

      .cls-77 {
        font-size: 9px;
      }

      .cls-78 {
        letter-spacing: -0.00933em;
      }

      .cls-79 {
        letter-spacing: -0.00922em;
      }

      .cls-80 {
        letter-spacing: -0.01725em;
      }

      .cls-81 {
        letter-spacing: 0.00011em;
      }

      .cls-82 {
        letter-spacing: -0.01465em;
      }
    </style>
    <clipPath id="clip-path">
      <rect class="cls-1" y="0.00403" width="340.15701" height="595.276"/>
    </clipPath>
    <clipPath id="clip-path-3">
      <rect class="cls-1" x="36.656" y="398.82904" width="46.071" height="51.952"/>
    </clipPath>
    <clipPath id="clip-path-5">
      <rect class="cls-1" x="24.948" y="24.85303" width="289.763" height="56.69403"/>
    </clipPath>
    <clipPath id="clip-path-6">
      <rect class="cls-1" x="30.408" y="484.10103" width="57.389" height="42.002"/>
    </clipPath>
    <clipPath id="clip-path-7">
      <rect class="cls-1" x="56.263" y="128.88202" width="51.952" height="24.56601"/>
    </clipPath>
    <clipPath id="clip-path-8">
      <rect class="cls-1" x="179.748" y="128.88202" width="51.952" height="24.56601"/>
    </clipPath>
    <clipPath id="clip-path-9">
      <rect class="cls-1" x="183.091" y="100.47302" width="7.612" height="9.983"/>
    </clipPath>
    <clipPath id="clip-path-10">
      <rect class="cls-1" x="183.091" y="100.47202" width="7.612" height="9.98401"/>
    </clipPath>
    <clipPath id="clip-path-11">
      <rect class="cls-1" x="190.974" y="98.84103" width="9.8" height="7.21201"/>
    </clipPath>
    <clipPath id="clip-path-12">
      <rect class="cls-1" x="190.97501" y="98.84103" width="9.799" height="7.21201"/>
    </clipPath>
    <clipPath id="clip-path-13">
      <rect class="cls-1" x="190.866" y="107.69202" width="8.155" height="8.98602"/>
    </clipPath>
    <clipPath id="clip-path-14">
      <rect class="cls-1" x="190.867" y="107.69302" width="8.15401" height="8.98401"/>
    </clipPath>
    <clipPath id="clip-path-17">
      <rect class="cls-1" x="152.339" y="171.90903" width="76.79201" height="151.655"/>
    </clipPath>
    <clipPath id="clip-path-21">
      <rect class="cls-1" x="28.554" y="171.73404" width="76.792" height="151.655"/>
    </clipPath>
    <clipPath id="clip-path-25">
      <rect class="cls-1" x="205.3" y="168.09802" width="31.145" height="30.15201"/>
    </clipPath>
  </defs>
  <title>Reversible air conditioners</title>
  <g class="cls-2">
    <path class="cls-3" d="M33.6873,126.094s-9.921,0-9.921,9.921V370.579s0,9.922,9.921,9.922h98.453s9.922,0,9.922-9.922v-234.564s0-9.921-9.922-9.921Z"/>
  </g>
  <line class="cls-4" x1="24.3767" y1="120.79294" x2="316.39969" y2="120.79294"/>
  <g class="cls-2">
    <path class="cls-3" d="M157.7924,125.94513s-9.921,0-9.921,9.921v397.233s0,9.921,9.921,9.921h148.696s9.921,0,9.921-9.921v-397.233s0-9.921-9.921-9.921Z"/>
    <path class="cls-3" d="M33.6873,467.68783s-9.921,0-9.921,9.921v55.726s0,9.922,9.921,9.922h98.453s9.922,0,9.922-9.922v-55.726s0-9.921-9.922-9.921Z"/>
    <path class="cls-3" d="M33.6873,386.30983s-9.921,0-9.921,9.921v55.726s0,9.922,9.921,9.922h98.453s9.922,0,9.922-9.922v-55.726s0-9.921-9.922-9.921Z"/>
  </g>
  <text class="cls-5" transform="translate(24.68213 569.47339)">626/2011</text>
  <path class="cls-6" d="M26.371,16.67761s-9.921,0-9.921,9.921v542.087s0,9.921,9.921,9.921H313.786s9.922,0,9.922-9.921V26.59863s0-9.921-9.922-9.921Z"/>
  <rect class="cls-1" y="0.00403" width="340.15701" height="595.276"/>
  <g class="cls-7">
    <polygon class="cls-8" points="38.255 443.871 38.255 449.74 82.132 449.74 82.132 419.415 60.192 399.425 38.255 419.415 38.255 443.871"/>
    <path class="cls-9" d="M49.2461,436.25023q-1.8135-1.617-3.624-3.233h-2.585v-5.164h2.585q1.8105-1.61552,3.624-3.233l1.499-1.334v14.302Z"/>
    <path class="cls-10" d="M48.7882,435.12053q-1.461-1.30348-2.919-2.604h-2.082v-4.162h2.082c.972-.865,1.945-1.736,2.919-2.603l1.208-1.075v11.52Z"/>
    <path class="cls-11" d="M48.7882,435.12053q-1.461-1.30348-2.919-2.604h-2.082v-4.162h2.082c.972-.865,1.945-1.736,2.919-2.603l1.208-1.075v11.52Z"/>
    <path class="cls-12" d="M62.4209,416.79272a24.8623,24.8623,0,0,1,.044,27.287m-4.54-23.525a17.10158,17.10158,0,0,1,.057,19.728m-4.388-15.999a9.64811,9.64811,0,0,1,.081,12.237"/>
    <polygon class="cls-8" points="38.255 503.859 38.255 509.728 82.132 509.728 82.132 479.403 60.192 459.413 38.255 479.403 38.255 503.859"/>
    <path class="cls-13" d="M30.51,498.99193q1.908-1.7025,3.816-3.403h2.72v-5.438h-2.72q-1.9065-1.698-3.816-3.403l-1.579-1.406v15.058Z"/>
    <path class="cls-10" d="M30.9919,497.80233q1.5375-1.371,3.073-2.741h2.193v-4.382h-2.193c-1.023-.911-2.048-1.828-3.073-2.74l-1.272-1.134v12.13Z"/>
    <path class="cls-11" d="M30.9919,497.80233q1.5375-1.371,3.073-2.741h2.193v-4.382h-2.193c-1.023-.911-2.048-1.828-3.073-2.74l-1.272-1.134v12.13Z"/>
    <path class="cls-12" d="M16.5913,507.236a26.183,26.183,0,0,1,.047-28.73m4.674,24.732a18.00286,18.00286,0,0,1,.06-20.769m4.474,16.808a10.15892,10.15892,0,0,1,.086-12.884"/>
  </g>
  <text class="cls-14" transform="translate(106.0752 510.26929)">d</text>
  <text class="cls-14" transform="translate(112.2793 510.26929)">B</text>
  <text class="cls-14" transform="translate(105.36719 428.89722)">d</text>
  <text class="cls-14" transform="translate(111.57129 428.89722)">B</text>
  <g class="cls-2">
    
    <rect class="cls-16" x="112.302" y="25.00702" width="202.409" height="56.53998"/>
    
    
    
    
    
    
    
    
    
    
    
    

  <g id="union-flag" transform="translate(24.97, 25.00702) scale(1.884666)">
	<path id="blue" fill="#004289" d="M9.59,20L0,26.39V20H9.59z M39.59,0H27.5v8.06L39.59,0z M0,3.61V10h9.59L0,3.61z M17.5,0H5.41
		L17.5,8.06V0z M27.5,30h12.09L27.5,21.94V30z M45,10V3.61L35.41,10H45z M45,26.39V20h-9.59L45,26.39z M5.41,30H17.5v-8.06L5.41,30z
		"/>
	<path id="red" fill="#DC2F34" d="M45,18H25.5v12h-6V18H0v-6h19.5V0h6v12H45V18z M0,2.42L11.38,10h3.61L0,0.01V2.42z M45,27.58
		L33.62,20h-3.61L45,29.99V27.58z M17.5,20.74V20H15L0,30h3.61L17.5,20.74z M27.5,9.26V10H30L45,0h-3.61L27.5,9.26z"/>
</g><path id="energy-heading" d="M7.1581,7.21791H2.33537v3.7413H7.72769v1.90845H0V.13234H7.44305V2.04079H2.33537V5.32836H7.1581Zm3.53413,5.64975V.13234h2.677L16.67314,5.593a37.85159,37.85159,0,0,1,2.18339,4.27032h.038a51.82706,51.82706,0,0,1-.20865-5.29055V.13234h2.1644V12.86766H18.41992L15.07833,7.25572a43.774,43.774,0,0,1-2.2787-4.38342l-.076.0189c.095,1.64379.133,3.32538.133,5.42289v4.55357ZM31.63845,7.21791H26.81573v3.7413h5.392v1.90845H24.48V.13234h7.44305V2.04079H26.81573V5.32836h4.82272ZM35.19126.32139A20.16965,20.16965,0,0,1,38.72282.03781a5.98372,5.98372,0,0,1,3.94949,1.02056,3.228,3.228,0,0,1,1.1012,2.56949,3.347,3.347,0,0,1-2.3357,3.17446V6.859a3.16007,3.16007,0,0,1,1.7851,2.45638,32.106,32.106,0,0,0,1.00653,3.55224H41.83707a16.17761,16.17761,0,0,1-.85455-3.00431c-.37994-1.66269-.96854-2.19171-2.2977-2.22952H37.50764v5.23383H35.19126ZM37.50764,5.933h1.38647c1.57581,0,2.5437-.83119,2.5437-2.09719,0-1.37943-.96789-2.04079-2.487-2.04079a6.74576,6.74576,0,0,0-1.44314.11343Zm19.67341,6.34892A12.70364,12.70364,0,0,1,53.08022,13a6.96331,6.96331,0,0,1-5.032-1.7005,6.3681,6.3681,0,0,1-1.78446-4.68623C46.28243,2.56982,49.1494,0,53.38353,0a8.52961,8.52961,0,0,1,3.3989.60464l-.5126,1.87065a6.6378,6.6378,0,0,0-2.905-.54793c-2.73432,0-4.65207,1.606-4.65207,4.5728,0,2.89088,1.78509,4.61029,4.44342,4.61029a4.91246,4.91246,0,0,0,1.76578-.24577v-3.193H52.66228V5.8388h4.51877Zm6.23045.58573V7.55821L59.36734.13234h2.677l1.51914,3.269c.43661.94462.75924,1.66269,1.11987,2.53169h.038c.304-.81228.66458-1.606,1.10184-2.53169L67.361.13234H70L65.74719,7.50149v5.36617Z" fill="#fff" transform="translate(127.85124007347405, 40.72641541808085) scale(1.884666)"/></g>

  <g class="cls-20">
    <path class="cls-21" d="M60.9112,466.61833q-1.4565-1.299-2.91-2.596h-2.076v-4.147h2.076q1.4535-1.29748,2.91-2.596l1.204-1.072v11.486Z"/>
    <path class="cls-10" d="M60.5435,465.71123q-1.173-1.047-2.344-2.091h-1.672v-3.342h1.672q1.17-1.04249,2.344-2.091l.97-.863v9.251Z"/>
    <path class="cls-22" d="M60.5435,465.71123q-1.173-1.047-2.344-2.091h-1.672v-3.342h1.672q1.17-1.04249,2.344-2.091l.97-.863v9.251Z"/>
    <path class="cls-23" d="M71.4908,450.99265a19.96509,19.96509,0,0,1,.036,21.913m-3.646-18.892a13.733,13.733,0,0,1,.046,15.843m-3.524-12.848a7.748,7.748,0,0,1,.065,9.827"/>
    <polygon class="cls-24" points="52.084 520.912 52.084 525.625 87.319 525.625 87.319 501.273 69.701 485.22 52.084 501.273 52.084 520.912"/>
    <path class="cls-25" d="M45.8652,517.00333q1.5315-1.3665,3.064-2.733h2.185v-4.366h-2.185q-1.53-1.365-3.064-2.734l-1.268-1.128v12.091Z"/>
    <path class="cls-10" d="M46.2521,516.048q1.236-1.101,2.468-2.201h1.761v-3.519h-1.761c-.822-.732-1.644-1.468-2.468-2.2l-1.021-.911v9.741Z"/>
    <path class="cls-22" d="M46.2521,516.048q1.236-1.101,2.468-2.201h1.761v-3.519h-1.761c-.822-.732-1.644-1.468-2.468-2.2l-1.021-.911v9.741Z"/>
    <path class="cls-23" d="M34.688,523.62334a21.02223,21.02223,0,0,1,.038-23.072m3.753,19.862a14.45636,14.45636,0,0,1,.048-16.679m3.593,13.498a8.15791,8.15791,0,0,1,.069-10.347"/>
  </g>
  <g class="cls-26">
    <path class="cls-27" d="M57.9676,141.46054a10.8715,10.8715,0,1,1,10.872,10.875,10.87194,10.87194,0,0,1-10.872-10.875"/>
    <path class="cls-28" d="M57.9676,141.46054a10.8715,10.8715,0,1,1,10.872,10.875A10.87194,10.87194,0,0,1,57.9676,141.46054Z"/>
    <path class="cls-29" d="M70.6232,141.67844s-.781-.003-2.008,1.779a2.783,2.783,0,0,1-.052,2.77c-.519.845-2.034,2.281-1.35,3.551.995,1.848,7.688.024,8.24-3.125.711-4.049-2.983-5.046-4.83-4.975"/>
    <path class="cls-30" d="M70.6232,141.67844s-.781-.003-2.008,1.779a2.783,2.783,0,0,1-.052,2.77c-.519.845-2.034,2.281-1.35,3.551.995,1.848,7.688.024,8.24-3.125C76.16419,142.60446,72.47019,141.60745,70.6232,141.67844Z"/>
    <path class="cls-29" d="M67.0044,142.68823a4.72377,4.72377,0,0,0,.172-2.677,2.78086,2.78086,0,0,1-1.915-2.003c-.228-.964-.267-2.803-1.546-3.471-1.83-.955-5.382,5.297-3.644,8.025,2.1,3.295,5.673,1.478,6.933.126"/>
    <path class="cls-30" d="M67.0044,142.68823a4.72377,4.72377,0,0,0,.172-2.677,2.78086,2.78086,0,0,1-1.915-2.003c-.228-.964-.267-2.803-1.546-3.471-1.83-.955-5.382,5.297-3.644,8.025C62.1714,145.85724,65.7444,144.04025,67.0044,142.68823Z"/>
    <path class="cls-29" d="M68.1524,139.47244s.41.716,2.487,1.005a2.78245,2.78245,0,0,1,2.503-1.188c.988.087,3.057.872,3.781-.375,1.301-2.238-3.245-6.682-6.47-5.983-3.819.827-3.188,4.919-2.301,6.541"/>
    <path class="cls-30" d="M68.1524,139.47244s.41.716,2.487,1.005a2.78245,2.78245,0,0,1,2.503-1.188c.988.087,3.057.872,3.781-.375,1.301-2.238-3.245-6.682-6.47-5.983C66.63439,133.75845,67.2654,137.85046,68.1524,139.47244Z"/>
    <path class="cls-27" d="M66.843,141.46054a1.996,1.996,0,1,1,1.996,1.997,1.99644,1.99644,0,0,1-1.996-1.997"/>
    <path class="cls-31" d="M66.843,141.46054a1.996,1.996,0,1,1,1.996,1.997A1.99644,1.99644,0,0,1,66.843,141.46054Z"/>
    <path class="cls-32" d="M57.9676,175.18713a10.8715,10.8715,0,1,1,10.872,10.875,10.87194,10.87194,0,0,1-10.872-10.875"/>
    <path class="cls-33" d="M57.9676,175.18713a10.8715,10.8715,0,1,1,10.872,10.875A10.87194,10.87194,0,0,1,57.9676,175.18713Z"/>
    <path class="cls-29" d="M70.6232,175.405s-.781-.003-2.008,1.779a2.783,2.783,0,0,1-.052,2.77c-.519.845-2.034,2.281-1.35,3.551.995,1.848,7.688.024,8.24-3.125.711-4.049-2.983-5.046-4.83-4.975"/>
    <path class="cls-30" d="M70.6232,175.405s-.781-.003-2.008,1.779a2.783,2.783,0,0,1-.052,2.77c-.519.845-2.034,2.281-1.35,3.551.995,1.848,7.688.024,8.24-3.125C76.16419,176.33105,72.47019,175.33405,70.6232,175.405Z"/>
    <path class="cls-29" d="M67.0044,176.41483a4.72381,4.72381,0,0,0,.172-2.677,2.78086,2.78086,0,0,1-1.915-2.003c-.228-.964-.267-2.803-1.546-3.471-1.83-.955-5.382,5.297-3.644,8.025,2.1,3.295,5.673,1.478,6.933.126"/>
    <path class="cls-30" d="M67.0044,176.41483a4.72381,4.72381,0,0,0,.172-2.677,2.78086,2.78086,0,0,1-1.915-2.003c-.228-.964-.267-2.803-1.546-3.471-1.83-.955-5.382,5.297-3.644,8.025C62.1714,179.58383,65.7444,177.76685,67.0044,176.41483Z"/>
    <path class="cls-29" d="M68.1524,173.199s.41.716,2.487,1.005a2.78245,2.78245,0,0,1,2.503-1.188c.988.087,3.057.872,3.781-.375,1.301-2.238-3.245-6.682-6.47-5.983-3.819.827-3.187,4.919-2.301,6.541"/>
    <path class="cls-30" d="M68.1524,173.199s.41.716,2.487,1.005a2.78245,2.78245,0,0,1,2.503-1.188c.988.087,3.057.872,3.781-.375,1.301-2.238-3.245-6.682-6.47-5.983C66.63439,167.48505,67.2664,171.57706,68.1524,173.199Z"/>
    <path class="cls-32" d="M66.843,175.18713a1.996,1.996,0,1,1,1.996,1.997,1.99644,1.99644,0,0,1-1.996-1.997"/>
    <path class="cls-31" d="M66.843,175.18713a1.996,1.996,0,1,1,1.996,1.997A1.99644,1.99644,0,0,1,66.843,175.18713Z"/>
    <path class="cls-34" d="M107.3262,136.15054s-7.264-3.432-12.45-.015c-5.187,3.416-12.451.015-12.451.015"/>
    <polyline class="cls-34" points="106.02 134.597 107.811 136.15 105.711 136.713"/>
    <path class="cls-34" d="M107.3262,139.53793s-7.264-3.432-12.45-.015c-5.187,3.416-12.451.015-12.451.015"/>
    <polyline class="cls-34" points="106.02 137.985 107.811 139.538 105.711 140.101"/>
    <path class="cls-34" d="M107.3262,142.92532s-7.264-3.432-12.45-.015c-5.187,3.416-12.451.015-12.451.015"/>
    <polyline class="cls-34" points="106.02 141.372 107.811 142.925 105.711 143.488"/>
    <path class="cls-34" d="M107.3262,146.31274s-7.264-3.432-12.45-.015c-5.187,3.416-12.451.015-12.451.015"/>
    <polyline class="cls-34" points="106.02 144.76 107.811 146.313 105.711 146.876"/>
    <path class="cls-35" d="M107.3262,170.34363s-7.264-3.432-12.45-.015c-5.187,3.416-12.451.015-12.451.015"/>
    <polyline class="cls-35" points="106.02 168.79 107.811 170.343 105.711 170.906"/>
    <path class="cls-35" d="M107.3262,173.63943s-7.264-3.432-12.45-.015c-5.187,3.416-12.451.015-12.451.015"/>
    <polyline class="cls-35" points="106.02 172.086 107.811 173.639 105.711 174.202"/>
    <path class="cls-35" d="M107.3262,176.93542s-7.264-3.432-12.45-.015c-5.187,3.416-12.451.015-12.451.015"/>
    <polyline class="cls-35" points="106.02 175.382 107.811 176.935 105.711 177.498"/>
    <path class="cls-35" d="M107.3345,180.23123s-7.264-3.432-12.45-.015c-5.187,3.416-12.451.015-12.451.015"/>
    <polyline class="cls-35" points="106.029 178.678 107.82 180.231 105.72 180.794"/>
  </g>
  <g class="cls-36">
    <path class="cls-27" d="M181.453,107.49463a10.8715,10.8715,0,1,1,10.872,10.875,10.87194,10.87194,0,0,1-10.872-10.875"/>
    <path class="cls-28" d="M181.453,107.49463a10.8715,10.8715,0,1,1,10.872,10.875A10.87194,10.87194,0,0,1,181.453,107.49463Z"/>
    <path class="cls-29" d="M194.1086,107.71262s-.781-.003-2.008,1.779a2.783,2.783,0,0,1-.052,2.77c-.519.845-2.034,2.281-1.35,3.551.995,1.848,7.688.024,8.24-3.125.711-4.049-2.983-5.046-4.83-4.975"/>
    <path class="cls-30" d="M194.1086,107.71262s-.781-.003-2.008,1.779a2.783,2.783,0,0,1-.052,2.77c-.519.845-2.034,2.281-1.35,3.551.995,1.848,7.688.024,8.24-3.125C199.64958,108.63864,195.95558,107.64163,194.1086,107.71262Z"/>
    <path class="cls-29" d="M190.4899,108.72244a4.72386,4.72386,0,0,0,.172-2.677,2.78086,2.78086,0,0,1-1.915-2.003c-.228-.964-.267-2.803-1.546-3.471-1.83-.955-5.382,5.297-3.644,8.025,2.1,3.295,5.673,1.478,6.933.126"/>
    <path class="cls-30" d="M190.4899,108.72244a4.72386,4.72386,0,0,0,.172-2.677,2.78086,2.78086,0,0,1-1.915-2.003c-.228-.964-.267-2.803-1.546-3.471-1.83-.955-5.382,5.297-3.644,8.025C185.65689,111.89145,189.22989,110.07446,190.4899,108.72244Z"/>
    <path class="cls-29" d="M191.63789,105.50662s.41.716,2.487,1.005a2.78244,2.78244,0,0,1,2.503-1.188c.988.087,3.057.872,3.781-.375,1.301-2.238-3.245-6.682-6.47-5.983-3.819.827-3.188,4.919-2.301,6.541"/>
    <path class="cls-30" d="M191.63789,105.50662s.41.716,2.487,1.005a2.78244,2.78244,0,0,1,2.503-1.188c.988.087,3.057.872,3.781-.375,1.301-2.238-3.245-6.682-6.47-5.983C190.11989,99.79263,190.75089,103.88464,191.63789,105.50662Z"/>
    <path class="cls-27" d="M190.3284,107.49463a1.996,1.996,0,1,1,1.996,1.997,1.99644,1.99644,0,0,1-1.996-1.997"/>
    <path class="cls-31" d="M190.3284,107.49463a1.996,1.996,0,1,1,1.996,1.997A1.99644,1.99644,0,0,1,190.3284,107.49463Z"/>
    <path class="cls-32" d="M181.453,141.22122a10.8715,10.8715,0,1,1,10.872,10.875,10.87194,10.87194,0,0,1-10.872-10.875"/>
    <path class="cls-33" d="M181.453,141.22122a10.8715,10.8715,0,1,1,10.872,10.875A10.87194,10.87194,0,0,1,181.453,141.22122Z"/>
    <path class="cls-29" d="M194.1087,141.43912s-.781-.003-2.008,1.779a2.783,2.783,0,0,1-.052,2.77c-.519.845-2.034,2.281-1.35,3.551.995,1.848,7.688.024,8.24-3.125.711-4.049-2.983-5.046-4.83-4.975"/>
    <path class="cls-30" d="M194.1087,141.43912s-.781-.003-2.008,1.779a2.783,2.783,0,0,1-.052,2.77c-.519.845-2.034,2.281-1.35,3.551.995,1.848,7.688.024,8.24-3.125C199.64969,142.36514,195.95569,141.36813,194.1087,141.43912Z"/>
    <path class="cls-29" d="M190.48981,142.44894a4.7238,4.7238,0,0,0,.172-2.677,2.78086,2.78086,0,0,1-1.915-2.003c-.228-.964-.267-2.803-1.546-3.471-1.83-.955-5.382,5.297-3.644,8.025,2.1,3.295,5.673,1.478,6.933.126"/>
    <path class="cls-30" d="M190.48981,142.44894a4.7238,4.7238,0,0,0,.172-2.677,2.78086,2.78086,0,0,1-1.915-2.003c-.228-.964-.267-2.803-1.546-3.471-1.83-.955-5.382,5.297-3.644,8.025C185.6568,145.618,189.2298,143.801,190.48981,142.44894Z"/>
    <path class="cls-29" d="M191.6378,139.23312s.411.716,2.487,1.005a2.78244,2.78244,0,0,1,2.503-1.188c.988.087,3.057.872,3.781-.375,1.301-2.238-3.245-6.682-6.47-5.983-3.819.827-3.187,4.919-2.301,6.541"/>
    <path class="cls-30" d="M191.6378,139.23312s.411.716,2.487,1.005a2.78244,2.78244,0,0,1,2.503-1.188c.988.087,3.057.872,3.781-.375,1.301-2.238-3.245-6.682-6.47-5.983C190.1198,133.51913,190.7518,137.61115,191.6378,139.23312Z"/>
    <path class="cls-32" d="M190.3284,141.22122a1.996,1.996,0,1,1,1.996,1.997,1.99644,1.99644,0,0,1-1.996-1.997"/>
    <path class="cls-31" d="M190.3284,141.22122a1.996,1.996,0,1,1,1.996,1.997A1.99644,1.99644,0,0,1,190.3284,141.22122Z"/>
    <path class="cls-34" d="M230.8116,102.18472s-7.264-3.432-12.45-.015c-5.187,3.416-12.451.015-12.451.015"/>
    <polyline class="cls-34" points="229.506 100.632 231.297 102.185 229.197 102.748"/>
    <path class="cls-34" d="M230.8116,105.57214s-7.264-3.432-12.45-.015c-5.187,3.416-12.451.015-12.451.015"/>
    <polyline class="cls-34" points="229.506 104.019 231.297 105.572 229.197 106.135"/>
    <path class="cls-34" d="M230.8116,108.95944s-7.264-3.432-12.45-.015c-5.187,3.416-12.451.015-12.451.015"/>
    <polyline class="cls-34" points="229.506 107.406 231.297 108.959 229.197 109.522"/>
    <path class="cls-34" d="M230.8116,112.34683s-7.264-3.432-12.45-.015c-5.187,3.416-12.451.015-12.451.015"/>
    <polyline class="cls-34" points="229.506 110.794 231.297 112.347 229.197 112.91"/>
    <path class="cls-35" d="M230.8116,136.37772s-7.264-3.432-12.45-.015c-5.187,3.416-12.451.015-12.451.015"/>
    <polyline class="cls-35" points="229.506 134.825 231.297 136.378 229.197 136.941"/>
    <path class="cls-35" d="M230.8116,139.67361s-7.264-3.432-12.45-.015c-5.187,3.416-12.451.015-12.451.015"/>
    <polyline class="cls-35" points="229.506 138.12 231.297 139.673 229.197 140.236"/>
    <path class="cls-35" d="M230.8116,142.96954s-7.264-3.432-12.45-.015c-5.187,3.416-12.451.015-12.451.015"/>
    <polyline class="cls-35" points="229.506 141.416 231.297 142.969 229.197 143.532"/>
    <path class="cls-35" d="M230.82,146.26544s-7.264-3.432-12.45-.015c-5.187,3.416-12.451.015-12.451.015"/>
    <polyline class="cls-35" points="229.514 144.712 231.305 146.265 229.205 146.828"/>
  </g>
  <text class="cls-44" transform="translate(31.86768 144.27612)">S</text>
  <text class="cls-44" transform="translate(36.48779 144.27612)"><tspan class="cls-45">E</tspan><tspan x="4.78271" y="0">E</tspan></text>
  <text class="cls-44" transform="translate(46.04785 144.27612)">R</text>
  <text class="cls-44" transform="translate(153.49756 144.44604)">S</text>
  <text class="cls-44" transform="translate(158.19775 144.44604)">C</text>
  <text class="cls-44" transform="translate(163.55762 144.44604)">O</text>
  <text class="cls-44" transform="translate(170.21777 144.44604)">P</text>
  <g class="cls-2">
    <polygon class="cls-46" points="207.298 472.35 202.462 472.35 201.857 472.961 201.857 492.603 200.651 493.829 192.794 493.217 188.562 489.534 175.871 489.534 172.85 492.603 172.85 507.334 169.827 511.015 169.827 514.084 180.705 524.518 183.122 524.518 185.54 522.062 188.562 524.518 191.584 524.518 214.547 501.194 225.427 501.194 219.383 495.057 215.153 499.354 209.11 493.217 209.11 480.327 211.527 477.871 211.527 468.052 207.298 472.35"/>
    <polygon class="cls-47" points="211.527 468.053 215.153 466.826 216.967 468.665 219.988 468.665 230.866 457.618 232.679 457.004 245.37 457.004 245.37 460.685 233.284 472.961 233.284 475.416 236.305 478.487 215.759 499.354 209.11 493.216 209.11 480.327 211.527 478.487 211.527 468.053"/>
    <polygon class="cls-48" points="280.422 432.454 276.797 436.75 276.797 444.114 273.775 446.57 273.171 446.57 271.961 445.341 269.543 445.341 267.73 447.183 267.73 449.639 269.543 451.481 265.314 455.777 263.499 453.935 259.27 453.935 256.25 457.003 244.766 457.003 244.766 460.686 233.285 472.96 233.285 475.416 236.306 478.486 219.384 495.056 224.823 500.582 229.053 496.286 227.845 495.056 232.075 490.761 235.095 493.83 237.514 493.83 239.931 491.375 241.14 491.375 246.578 496.899 250.81 496.899 256.25 491.375 259.27 491.375 269.543 501.809 269.543 504.263 267.73 506.106 267.73 509.787 273.775 515.928 274.982 515.928 291.904 498.126 293.113 496.286 293.113 493.216 292.511 491.375 285.257 484.623 268.941 484.623 267.73 482.782 267.73 472.349 272.566 467.439 272.566 463.141 271.356 461.913 271.356 460.074 274.378 457.003 275.586 458.232 278.005 458.232 280.422 456.39 280.422 453.935 279.213 452.708 279.213 451.481 282.234 448.412 282.234 432.454 280.422 432.454"/>
    <polygon class="cls-48" points="273.171 396.855 265.314 404.833 262.896 402.379 260.477 402.379 244.767 418.337 241.14 414.654 238.724 414.654 233.888 419.564 233.888 433.067 235.7 434.909 245.369 434.909 245.369 436.136 248.393 437.976 248.393 439.205 245.369 442.887 245.369 444.728 248.393 448.412 245.369 451.481 245.369 453.321 246.579 454.55 251.414 454.55 251.414 453.934 256.25 449.024 256.25 445.956 253.226 443.5 259.271 437.362 259.271 432.454 257.458 430.611 260.477 428.156 260.477 425.088 258.06 422.633 258.06 420.791 268.335 410.972 270.753 410.972 272.566 412.199 272.566 414.654 266.521 420.791 266.521 423.247 268.941 426.316 267.127 428.769 267.127 429.998 267.731 429.998 267.731 432.454 269.543 434.294 271.357 434.294 278.006 427.544 279.214 427.544 281.028 429.385 284.654 429.385 285.861 428.156 285.861 425.088 283.443 422.019 288.885 416.495 288.885 410.972 283.443 404.22 285.257 402.379 285.257 399.31 284.047 397.468 281.028 397.468 278.608 399.923 274.983 396.855 273.171 396.855"/>
    <polygon class="cls-47" points="239.327 440.433 233.887 445.342 233.887 449.026 239.931 455.776 241.14 455.776 244.163 452.094 244.767 451.48 241.14 447.798 244.767 444.114 241.14 440.433 239.327 440.433"/>
    <polygon class="cls-47" points="215.153 464.984 217.572 462.529 217.572 458.846 213.34 454.549 213.34 437.364 208.506 431.839 206.088 431.839 202.462 435.522 202.462 452.093 215.153 464.984"/>
    <polygon class="cls-49" points="199.44 455.163 199.44 460.686 194.606 464.983 196.419 466.825 213.339 466.825 215.153 464.983 202.461 452.094 199.44 455.163"/>
    <polygon class="cls-49" points="200.65 441.66 195.813 441.66 186.145 452.094 186.145 453.936 187.958 455.778 190.979 455.778 201.253 445.342 201.253 442.274 200.65 441.66"/>
    <polygon class="cls-50" points="209.714 410.972 209.11 412.199 209.11 415.881 209.714 416.495 212.133 416.495 212.736 415.269 212.736 412.199 212.133 410.972 209.714 410.972"/>
    <polygon class="cls-49" points="207.297 517.766 207.297 515.927 209.714 513.469 212.735 513.469 212.735 516.539 209.714 518.993 208.505 518.993 207.297 517.766"/>
    <polygon class="cls-49" points="230.262 509.788 232.075 507.334 234.492 509.788 234.492 514.7 232.679 515.927 231.471 515.927 230.262 514.7 230.262 509.788"/>
    <polygon class="cls-49" points="231.471 516.538 232.679 516.538 234.492 517.765 234.492 523.289 232.679 525.131 232.075 525.131 230.262 523.289 230.262 517.765 231.471 516.538"/>
    <polygon class="cls-49" points="250.81 532.497 261.084 522.677 261.084 519.608 248.998 507.334 244.163 512.243 252.019 520.221 252.019 522.062 247.184 526.973 246.578 528.2 246.578 530.042 247.184 531.883 248.998 532.497 250.81 532.497"/>
    <polygon class="cls-47" points="245.369 495.671 241.139 499.353 249.599 507.333 248.391 508.562 244.162 504.263 241.139 507.333 245.369 511.629 244.162 512.243 233.283 501.194 225.427 501.194 224.219 500.582 228.448 496.285 227.844 495.056 232.075 490.76 235.095 493.828 237.514 493.828 239.931 491.374 241.139 491.374 245.369 495.671"/>
    <polygon class="cls-47" points="270.148 512.243 267.729 514.7 267.729 518.381 269.544 520.221 270.148 520.221 273.774 517.154 275.586 517.154 278.607 520.836 279.214 520.836 290.694 509.174 290.694 506.72 287.071 503.036 274.982 515.311 273.17 515.311 270.148 512.243"/>
    <polygon class="cls-50" points="274.982 524.518 278.607 520.837 275.586 517.153 273.774 517.153 270.148 520.221 273.774 524.518 274.982 524.518"/>
    <polygon class="cls-49" points="276.19 531.883 282.235 526.359 282.235 523.29 279.818 520.836 278.609 520.836 274.982 524.517 273.774 524.517 270.148 520.221 269.544 520.221 267.731 522.063 267.731 526.972 272.566 531.883 276.19 531.883"/>
    <polygon class="cls-49" points="285.257 522.676 285.257 522.062 289.487 522.062 290.694 523.29 290.694 526.358 290.091 526.973 285.257 526.973 285.257 526.358 285.257 522.676"/>
    <polygon class="cls-46" points="280.422 535.567 279.818 536.179 279.818 538.636 280.422 539.249 285.256 539.249 285.861 538.636 285.861 536.794 284.654 535.567 280.422 535.567"/>
    <rect class="cls-46" x="250.20399" y="536.79503" width="1.21001" height="1.84"/>
    <polygon class="cls-47" points="181.914 498.74 184.331 496.898 186.748 496.898 192.188 502.422 192.188 506.106 190.98 507.333 189.167 507.333 181.914 500.582 181.914 498.74"/>
    <polygon class="cls-47" points="193.397 511.629 190.375 507.948 186.748 511.629 186.748 514.083 187.959 515.31 190.98 515.31 193.397 512.856 193.397 511.629"/>
    <polygon class="cls-47" points="204.275 503.036 205.483 501.809 205.483 498.74 203.067 496.286 201.254 496.286 198.231 499.355 201.856 503.036 204.275 503.036"/>
    <polygon class="cls-50" points="241.139 507.334 244.161 504.264 248.392 508.561 245.369 511.63 241.139 507.334"/>
  </g>
  <text class="cls-44" transform="translate(194.13672 342.36011)">kW</text>
  <text class="cls-44" transform="translate(185.67676 357.36011)">S</text>
  <text class="cls-44" transform="translate(190.37695 357.36011)">C</text>
  <text class="cls-44" transform="translate(195.73633 357.36011)">O</text>
  <text class="cls-44" transform="translate(202.39648 357.36011)">P</text>
  <text class="cls-44" transform="translate(156.79687 372.36011)">k</text>
  <text class="cls-44" transform="translate(161.34668 372.36011)">W</text>
  <text class="cls-44" transform="translate(170.25684 372.36011)">h</text>
  <text class="cls-44" transform="translate(175.49707 372.36011)">/</text>
  <text class="cls-44" transform="translate(179.06641 372.36011)">an</text>
  <text class="cls-44" transform="translate(189.10645 372.36011)">n</text>
  <text class="cls-44" transform="translate(194.34668 372.36011)">um</text>
  <text class="cls-44" transform="translate(67.31689 342.3103)">kW</text>
  <text class="cls-44" transform="translate(61.14648 357.3103)">S</text>
  <text class="cls-44" transform="translate(65.7666 357.3103)"><tspan class="cls-45">E</tspan><tspan x="4.78271" y="0">E</tspan></text>
  <text class="cls-44" transform="translate(75.32666 357.3103)">R</text>
  <text class="cls-44" transform="translate(29.97656 372.3103)">k</text>
  <text class="cls-44" transform="translate(34.52686 372.3103)">W</text>
  <text class="cls-44" transform="translate(43.43652 372.3103)">h</text>
  <text class="cls-44" transform="translate(48.67676 372.3103)">/</text>
  <text class="cls-44" transform="translate(52.24658 372.3103)">an</text>
  <text class="cls-44" transform="translate(62.28662 372.3103)">n</text>
  <text class="cls-44" transform="translate(67.52686 372.3103)">um</text>
  <g class="cls-2">
    <line class="cls-51" x1="239.3692" y1="163.40662" x2="239.3692" y2="392.60262"/>
    <line class="cls-51" x1="276.43869" y1="163.40662" x2="276.43869" y2="392.60262"/>
    <rect class="cls-52" x="215.03799" y="377.72102" width="11.339" height="11.339"/>
    <rect class="cls-53" x="252.58099" y="377.72102" width="11.33899" height="11.339"/>
    <rect class="cls-48" x="290.12299" y="377.72102" width="11.33899" height="11.339"/>
    <polygon class="cls-54" points="152.339 174.722 152.339 193.046 174.745 193.046 183.821 183.884 174.745 174.722 152.339 174.722"/>
    <polygon class="cls-53" points="152.339 196.476 152.339 214.799 178.114 214.799 187.199 205.638 178.114 196.476 152.339 196.476"/>
    <polygon class="cls-55" points="152.339 218.229 152.339 236.555 181.23 236.555 190.32 227.393 181.23 218.229 152.339 218.229"/>
    <polygon class="cls-17" points="152.339 239.984 152.339 258.306 184.347 258.306 193.438 249.144 184.347 239.984 152.339 239.984"/>
    <polygon class="cls-56" points="152.339 261.736 152.339 280.058 187.464 280.058 196.559 270.899 187.464 261.736 152.339 261.736"/>
    <polygon class="cls-57" points="152.339 283.489 152.339 301.814 190.581 301.814 199.681 292.652 190.581 283.489 152.339 283.489"/>
    <polygon class="cls-58" points="152.339 305.241 152.339 323.563 193.158 323.563 202.85 314.404 193.158 305.241 152.339 305.241"/>
  </g>
  <g class="cls-59">
    <text class="cls-60" transform="translate(152.4375 188.82837)"><tspan xml:space="preserve"> A</tspan></text>
  </g>
  <text class="cls-61" transform="translate(165.59961 182.3147)">+<tspan class="cls-62" x="3.78223" y="0">+</tspan></text>
  <text class="cls-63" transform="translate(173.17773 182.3147)">+</text>
  <g class="cls-59">
    <text class="cls-60" transform="translate(152.5708 210.69897)"><tspan xml:space="preserve"> A</tspan></text>
  </g>
  <text class="cls-63" transform="translate(165.73291 204.18481)">+</text>
  <text class="cls-63" transform="translate(169.52197 204.18481)">+</text>
  <g class="cls-59">
    <text class="cls-60" transform="translate(152.5708 232.34204)"><tspan xml:space="preserve"> A</tspan></text>
  </g>
  <text class="cls-63" transform="translate(165.73291 225.82837)">+</text>
  <g class="cls-59">
    <text class="cls-60" transform="translate(152.229 254.20581)"><tspan xml:space="preserve"> A</tspan></text>
    <text class="cls-60" transform="translate(152.40283 275.78296)"><tspan xml:space="preserve"> B</tspan></text>
    <text class="cls-60" transform="translate(152.40283 297.42358)"><tspan xml:space="preserve"> C</tspan></text>
    <text class="cls-60" transform="translate(152.05518 319.28589)"><tspan xml:space="preserve"> D</tspan></text>
  </g>
  <polygon class="cls-54" points="28.554 174.548 28.554 192.872 50.961 192.872 60.037 183.71 50.961 174.548 28.554 174.548"/>
  <polygon class="cls-53" points="28.554 196.302 28.554 214.625 54.33 214.625 63.415 205.464 54.33 196.302 28.554 196.302"/>
  <polygon class="cls-55" points="28.554 218.055 28.554 236.38 57.446 236.38 66.536 227.218 57.446 218.055 28.554 218.055"/>
  <polygon class="cls-17" points="28.554 239.81 28.554 258.133 60.563 258.133 69.654 248.97 60.563 239.81 28.554 239.81"/>
  <polygon class="cls-56" points="28.554 261.563 28.554 279.885 63.68 279.885 72.775 270.726 63.68 261.563 28.554 261.563"/>
  <polygon class="cls-57" points="28.554 283.315 28.554 301.64 66.797 301.64 75.897 292.478 66.797 283.315 28.554 283.315"/>
  <polygon class="cls-58" points="28.554 305.067 28.554 323.389 69.373 323.389 79.066 314.23 69.373 305.067 28.554 305.067"/>
  <g class="cls-64">
    <text class="cls-60" transform="translate(28.65332 188.65454)"><tspan xml:space="preserve"> A</tspan></text>
  </g>
  <text class="cls-63" transform="translate(41.81543 182.14087)"><tspan class="cls-65">+</tspan><tspan x="3.78223" y="0">+</tspan></text>
  <text class="cls-63" transform="translate(49.39355 182.14087)">+</text>
  <g class="cls-64">
    <text class="cls-60" transform="translate(28.78662 210.52515)"><tspan xml:space="preserve"> A</tspan></text>
  </g>
  <text class="cls-63" transform="translate(41.94873 204.01147)">+</text>
  <text class="cls-63" transform="translate(45.73779 204.01147)">+</text>
  <g class="cls-64">
    <text class="cls-60" transform="translate(28.78662 232.16821)"><tspan xml:space="preserve"> A</tspan></text>
  </g>
  <text class="cls-63" transform="translate(41.94873 225.65454)">+</text>
  <g class="cls-64">
    <text class="cls-60" transform="translate(28.44482 254.03198)"><tspan xml:space="preserve"> A</tspan></text>
    <text class="cls-60" transform="translate(28.61865 275.60913)"><tspan xml:space="preserve"> B</tspan></text>
    <text class="cls-60" transform="translate(28.61865 297.24976)"><tspan xml:space="preserve"> C</tspan></text>
    <text class="cls-60" transform="translate(28.271 319.11206)"><tspan xml:space="preserve"> D</tspan></text>
  </g>
  <text id="supplierLine1" class="cls-71" transform="translate(26.75977 101.38989)">X</text>
  <text id="supplierLine2" class="cls-71" transform="translate(26.75977 113.38989)">X</text>
  <text id="modelLine1" class="cls-71" transform="translate(178.58008 101.38989)">X</text>
  <text id="modelLine2" class="cls-71" transform="translate(178.58008 113.38989)">X</text>
  <g id="seerRating">
    <polyline id="seerRatingArrow" class="cls-72" points="106.53 183.69 119.68 170.42 137.68 170.42 137.68 197.41 120.1 197.41 106.53 183.69"/>
    <text id="seerRatingLetter" class="cls-73" transform="translate(114.18018 187.94019)">A</text>
    <text id="seerRatingPlusses" class="cls-74" transform="translate(123.9502 180.42993)">+++</text>
  </g>
  <text id="seerKw" class="cls-75" transform="translate(85.04004 342.32007)">X</text>
  <text id="seer" class="cls-75" transform="translate(85.04004 357.28003)">X</text>
  <text id="seerKwhAnnum" class="cls-75" transform="translate(85.04004 372.28003)">X</text>
  <g id="warmerScopRating">
    <polyline id="warmerScopRatingArrow" class="cls-72" points="205.31 183.69 218.47 170.42 236.47 170.42 236.47 197.41 218.89 197.41 205.31 183.69"/>
    <text id="warmerScopRatingLetter" class="cls-73" transform="translate(212.96973 187.94019)">A</text>
    <text id="warmerScopRatingPlusses" class="cls-74" transform="translate(222.74023 180.42993)">+++</text>
  </g>
  <g id="averageScopRating">
    <polyline id="averageScopRatingArrow" class="cls-72" points="242.732 183.69 255.892 170.42 273.892 170.42 273.892 197.41 256.312 197.41 242.732 183.69"/>
    <text id="averageScopRatingLetter" class="cls-73" transform="translate(250.39173 187.94019)">A</text>
    <text id="averageScopRatingPlusses" class="cls-74" transform="translate(260.16224 180.42993)">+++</text>
  </g>
  <g id="colderScopRating">
    <polyline id="colderScopRatingArrow" class="cls-72" points="279.465 183.69 292.625 170.42 310.625 170.42 310.625 197.41 293.045 197.41 279.465 183.69"/>
    <text id="colderScopRatingLetter" class="cls-73" transform="translate(287.12473 187.94019)">A</text>
    <text id="colderScopRatingPlusses" class="cls-74" transform="translate(296.89523 180.42993)">+++</text>
  </g>
  <text id="warmerScopKw" class="cls-75" transform="translate(212.67969 342.40015)">X</text>
  <text id="warmerScop" class="cls-75" transform="translate(212.67969 357.40015)">X</text>
  <text id="warmerScopKwhAnnum" class="cls-75" transform="translate(212.67969 372.39038)">X</text>
  <text id="averageScopKw" class="cls-75" transform="translate(248.67969 342.40015)">X</text>
  <text id="averageScop" class="cls-75" transform="translate(248.67969 357.40015)">X</text>
  <text id="averageScopKwhAnnum" class="cls-75" transform="translate(248.67969 372.39038)">X</text>
  <text id="colderScopKw" class="cls-75" transform="translate(287.00977 342.40015)">X</text>
  <text id="colderScop" class="cls-75" transform="translate(287.00977 357.40015)">X</text>
  <text id="colderScopKwhAnnum" class="cls-75" transform="translate(287.00977 372.39038)">X</text>
  <text id="insideDb" class="cls-76" transform="translate(89.66992 428.89038)">X</text>
  <text id="outsideDb" class="cls-76" transform="translate(90.81006 510.27026)">X</text>

</svg>