<svg xmlns="http://www.w3.org/2000/svg" xmlns:xlink="http://www.w3.org/1999/xlink" id="Layer_1" data-name="Layer 1" width="60mm" height="120mm" viewBox="0 0 170.08 340.16" data-rating-increment="13.3833" data-supplier-model-chars-per-row="12">
  <defs>
    <style>
      .fluidDynamicClassA #fluidDynamicClassALetter,
      .fluidDynamicClassB #fluidDynamicClassBLetter,
      .fluidDynamicClassC #fluidDynamicClassCLetter,
      .fluidDynamicClassD #fluidDynamicClassDLetter,
      .fluidDynamicClassE #fluidDynamicClassELetter,
      .fluidDynamicClassF #fluidDynamicClassFLetter,
      .fluidDynamicClassG #fluidDynamicClassGLetter,
      .lightingClassA #lightingClassALetter,
      .lightingClassB #lightingClassBLetter,
      .lightingClassC #lightingClassCLetter,
      .lightingClassD #lightingClassDLetter,
      .lightingClassE #lightingClassELetter,
      .lightingClassF #lightingClassFLetter,
      .lightingClassG #lightingClassGLetter,
      .greaseFilteringClassA #greaseFilteringClassALetter,
      .greaseFilteringClassB #greaseFilteringClassBLetter,
      .greaseFilteringClassC #greaseFilteringClassCLetter,
      .greaseFilteringClassD #greaseFilteringClassDLetter,
      .greaseFilteringClassE #greaseFilteringClassELetter,
      .greaseFilteringClassF #greaseFilteringClassFLetter,
      .greaseFilteringClassG #greaseFilteringClassGLetter{
        font-size: 11.5px;
        font-weight: 700;
        font-family: Calibri-Bold, Calibri;
      }

      .cls-1, .cls-14, .cls-18, .cls-24, .cls-25, .cls-27, .cls-29, .cls-31, .cls-32, .cls-33, .cls-34, .cls-35 {
        fill: none;
      }

      .cls-2 {
        clip-path: url(#clip-path);
      }

      .cls-3 {
        fill: #bfd730;
      }

      .cls-4 {
        fill: #50b848;
      }

      .cls-5 {
        fill: #00a651;
      }

      .cls-6 {
        fill: #fff200;
      }

      .cls-7 {
        fill: #fdb913;
      }

      .cls-8 {
        fill: #f37021;
      }

      .cls-9 {
        fill: #ed1c24;
      }

      .cls-10 {
        clip-path: url(#clip-path-3);
      }

      .cls-11, .cls-12, .cls-13, .cls-37, .cls-38 {
        fill: #fff;
      }

      .cls-12 {
        font-size: 10.2833px;
      }

      .cls-12, .cls-13 {
        font-family: MyriadPro-Bold, Myriad Pro;
      }

      .cls-12, .cls-13, .cls-19, .cls-20, .cls-37, .cls-39, .cls-40 {
        font-weight: 700;
      }

      .cls-13 {
        font-size: 6.8555px;
      }

      .cls-14, .cls-18, .cls-27, .cls-29, .cls-31, .cls-32, .cls-33, .cls-34 {
        stroke: #00aeef;
      }

      .cls-14 {
        stroke-width: 3px;
      }

      .cls-15 {
        clip-path: url(#clip-path-5);
      }

      .cls-16 {
        fill: #034ea2;
      }

      .cls-17 {
        fill: #00aeef;
      }

      .cls-19, .cls-21 {
        font-size: 8px;
      }

      .cls-19, .cls-20, .cls-21, .cls-22, .cls-36, .cls-39, .cls-40, .cls-41 {
        fill: #231f20;
      }

      .cls-19, .cls-20, .cls-37, .cls-39, .cls-40 {
        font-family: Calibri-Bold, Calibri;
      }

      .cls-20 {
        font-size: 10.4747px;
      }

      .cls-21, .cls-22, .cls-38, .cls-41 {
        font-family: Calibri;
      }

      .cls-22 {
        font-size: 6px;
      }

      .cls-23 {
        clip-path: url(#clip-path-9);
      }

      .cls-24 {
        stroke: #fff;
        stroke-width: 1.676px;
      }

      .cls-25 {
        stroke: #44c8f5;
        stroke-width: 1.915px;
      }

      .cls-25, .cls-27, .cls-29, .cls-33, .cls-34 {
        stroke-linecap: round;
      }

      .cls-25, .cls-31, .cls-32, .cls-33, .cls-34 {
        stroke-linejoin: round;
      }

      .cls-26 {
        fill: #8ed8f8;
      }

      .cls-27 {
        stroke-width: 0.529px;
      }

      .cls-28 {
        clip-path: url(#clip-path-11);
      }

      .cls-29 {
        stroke-width: 0.689px;
      }

      .cls-30 {
        clip-path: url(#clip-path-12);
      }

      .cls-31 {
        stroke-width: 0.991px;
      }

      .cls-32 {
        stroke-width: 0.803px;
      }

      .cls-33 {
        stroke-width: 0.714px;
      }

      .cls-34 {
        stroke-width: 0.434px;
      }

      .cls-35 {
        stroke: #ccc;
        stroke-miterlimit: 10;
      }

      .cls-37 {
        font-size: 17px;
      }

      .cls-38 {
        font-size: 12px;
      }

      .cls-39 {
        font-size: 21px;
      }

      .cls-40 {
        font-size: 11.5px;
      }

      .cls-41 {
        font-size: 11px;
      }
    </style>
    <clipPath id="clip-path">
      <rect class="cls-1" width="170.08" height="340.16"/>
    </clipPath>
    <clipPath id="clip-path-3">
      <rect class="cls-1" y="0.00299" width="170.07899" height="340.15701"/>
    </clipPath>
    <clipPath id="clip-path-5">
      <rect class="cls-1" x="10.904" y="11.284" width="144.38001" height="28.82001"/>
    </clipPath>
    <clipPath id="clip-path-9">
      <rect class="cls-1" x="132.787" y="250.982" width="18.061" height="20.948"/>
    </clipPath>
    <clipPath id="clip-path-11">
      <rect class="cls-1" x="18.622" y="252.51001" width="19.039" height="18.758"/>
    </clipPath>
    <clipPath id="clip-path-12">
      <rect class="cls-1" x="56.438" y="249.383" width="19.039" height="34.422"/>
    </clipPath>
  </defs>
  <title>range-hoods-2018</title>
  <g class="cls-2">
    <g class="cls-2">
      <polygon class="cls-3" points="11.607 110.774 11.607 122.024 69.12 122.024 74.692 116.399 69.12 110.774 11.607 110.774"/>
      <polygon class="cls-4" points="11.607 97.414 11.607 108.664 62.631 108.664 68.202 103.039 62.631 97.414 11.607 97.414"/>
      <polygon class="cls-5" points="11.607 84.219 11.607 95.304 56.144 95.304 61.714 89.679 56.308 84.219 11.607 84.219"/>
      <polygon class="cls-6" points="11.607 124.13 11.607 135.379 75.757 135.379 81.336 129.755 75.757 124.13 11.607 124.13"/>
      <polygon class="cls-7" points="11.607 137.485 11.607 148.736 82.241 148.736 87.822 143.111 82.241 137.485 11.607 137.485"/>
      <polygon class="cls-8" points="11.607 150.841 11.607 162.089 88.725 162.089 94.307 156.464 88.725 150.841 11.607 150.841"/>
      <polygon class="cls-9" points="11.607 164.196 11.607 175.445 95.209 175.445 100.793 169.821 95.209 164.196 11.607 164.196"/>
      <g class="cls-10">
        <path class="cls-11" d="M23.1421,116.872l-.432-1.48c-.124-.413-.246-.931-.35-1.344h-.02c-.103.413-.205.941-.319,1.344l-.411,1.48Zm-1.757,1.179-.494,1.788h-1.624l2.118-6.97h2.055l2.148,6.97h-1.686l-.534-1.788Z"/>
        <path class="cls-11" d="M20.8705,132.094a4.6384,4.6384,0,0,0,.607.022c.709,0,1.337-.28,1.337-1.003,0-.705-.628-.983-1.409-.983h-.535Zm0-3.092h.514c.823,0,1.264-.342,1.264-.858,0-.528-.4-.807-1.109-.807a4.24429,4.24429,0,0,0-.669.041Zm-1.551-2.669a12.39492,12.39492,0,0,1,2.025-.144,3.7976,3.7976,0,0,1,2.045.393,1.51646,1.51646,0,0,1,.832,1.364,1.57427,1.57427,0,0,1-1.141,1.49v.021a1.73991,1.73991,0,0,1,1.377,1.717,1.86386,1.86386,0,0,1-.718,1.479,4.35123,4.35123,0,0,1-2.725.631,11.96989,11.96989,0,0,1-1.695-.104Z"/>
        <path class="cls-11" d="M24.4401,146.386a4.37741,4.37741,0,0,1-1.779.311,3.31132,3.31132,0,0,1-3.627-3.496,3.54174,3.54174,0,0,1,3.781-3.703,4.0753,4.0753,0,0,1,1.707.31l-.318,1.252a3.37212,3.37212,0,0,0-1.316-.259,2.29234,2.29234,0,0,0,.01,4.582,3.92752,3.92752,0,0,0,1.306-.227Z"/>
        <path class="cls-11" d="M20.4485,158.765a2.775,2.775,0,0,0,.545.032,2.15624,2.15624,0,0,0,2.343-2.443,1.993,1.993,0,0,0-2.179-2.212,3.17419,3.17419,0,0,0-.709.062Zm-1.573-5.689a14.06747,14.06747,0,0,1,2.118-.144,4.427,4.427,0,0,1,2.836.745,3.08857,3.08857,0,0,1,1.171,2.625,3.53861,3.53861,0,0,1-1.151,2.824,4.94315,4.94315,0,0,1-3.196.901,13.42139,13.42139,0,0,1-1.778-.104Z"/>
        <polygon class="cls-11" points="22.963 170.32 20.414 170.32 20.414 171.975 23.261 171.975 23.261 173.267 18.842 173.267 18.842 166.296 23.117 166.296 23.117 167.59 20.414 167.59 20.414 169.038 22.963 169.038 22.963 170.32"/>
      </g>
      <text class="cls-12" transform="translate(16.79639 93.8309)"> </text>
      <text class="cls-12" transform="translate(18.87354 93.8309)">A</text>
      <text class="cls-13" transform="translate(25.88232 90.93442)">++</text>
      <text class="cls-12" transform="translate(16.79639 106.98129)"> </text>
      <text class="cls-12" transform="translate(18.87354 106.98129)">A</text>
      <text class="cls-13" transform="translate(25.88232 104.08286)">+</text>
      <g class="cls-10">
        <path class="cls-14" d="M12.4895,6.29141s-5.669,0-5.669,5.669v316.251s0,5.67,5.669,5.67h145.947s5.67,0,5.67-5.67V11.96042s0-5.669-5.67-5.669Z"/>
      </g>
      <g class="cls-15">
        
        <rect class="cls-17" x="55.43099" y="11.323" width="103.174" height="28.78"/>
      <g id="union-flag" transform="translate(10.904, 11.323) scale(0.9593333333333334)">
	<path id="blue" fill="#004289" d="M9.59,20L0,26.39V20H9.59z M39.59,0H27.5v8.06L39.59,0z M0,3.61V10h9.59L0,3.61z M17.5,0H5.41
		L17.5,8.06V0z M27.5,30h12.09L27.5,21.94V30z M45,10V3.61L35.41,10H45z M45,26.39V20h-9.59L45,26.39z M5.41,30H17.5v-8.06L5.41,30z
		"/>
	<path id="red" fill="#DC2F34" d="M45,18H25.5v12h-6V18H0v-6h19.5V0h6v12H45V18z M0,2.42L11.38,10h3.61L0,0.01V2.42z M45,27.58
		L33.62,20h-3.61L45,29.99V27.58z M17.5,20.74V20H15L0,30h3.61L17.5,20.74z M27.5,9.26V10H30L45,0h-3.61L27.5,9.26z"/>
</g><path id="energy-heading" d="M7.1581,7.21791H2.33537v3.7413H7.72769v1.90845H0V.13234H7.44305V2.04079H2.33537V5.32836H7.1581Zm3.53413,5.64975V.13234h2.677L16.67314,5.593a37.85159,37.85159,0,0,1,2.18339,4.27032h.038a51.82706,51.82706,0,0,1-.20865-5.29055V.13234h2.1644V12.86766H18.41992L15.07833,7.25572a43.774,43.774,0,0,1-2.2787-4.38342l-.076.0189c.095,1.64379.133,3.32538.133,5.42289v4.55357ZM31.63845,7.21791H26.81573v3.7413h5.392v1.90845H24.48V.13234h7.44305V2.04079H26.81573V5.32836h4.82272ZM35.19126.32139A20.16965,20.16965,0,0,1,38.72282.03781a5.98372,5.98372,0,0,1,3.94949,1.02056,3.228,3.228,0,0,1,1.1012,2.56949,3.347,3.347,0,0,1-2.3357,3.17446V6.859a3.16007,3.16007,0,0,1,1.7851,2.45638,32.106,32.106,0,0,0,1.00653,3.55224H41.83707a16.17761,16.17761,0,0,1-.85455-3.00431c-.37994-1.66269-.96854-2.19171-2.2977-2.22952H37.50764v5.23383H35.19126ZM37.50764,5.933h1.38647c1.57581,0,2.5437-.83119,2.5437-2.09719,0-1.37943-.96789-2.04079-2.487-2.04079a6.74576,6.74576,0,0,0-1.44314.11343Zm19.67341,6.34892A12.70364,12.70364,0,0,1,53.08022,13a6.96331,6.96331,0,0,1-5.032-1.7005,6.3681,6.3681,0,0,1-1.78446-4.68623C46.28243,2.56982,49.1494,0,53.38353,0a8.52961,8.52961,0,0,1,3.3989.60464l-.5126,1.87065a6.6378,6.6378,0,0,0-2.905-.54793c-2.73432,0-4.65207,1.606-4.65207,4.5728,0,2.89088,1.78509,4.61029,4.44342,4.61029a4.91246,4.91246,0,0,0,1.76578-.24577v-3.193H52.66228V5.8388h4.51877Zm6.23045.58573V7.55821L59.36734.13234h2.677l1.51914,3.269c.43661.94462.75924,1.66269,1.11987,2.53169h.038c.304-.81228.66458-1.606,1.10184-2.53169L67.361.13234H70L65.74719,7.50149v5.36617Z" fill="#fff" transform="translate(63.27264408715007, 19.3244920439018) scale(0.9593333333333334)"/></g>
      <g class="cls-10">
        
        
        
        
        
        
        
        
        
        
        
        

































        <line class="cls-18" x1="10.7036" y1="68.40509" x2="155.26959" y2="68.40509"/>
        <path class="cls-18" d="M18.8069,237.138s-7.087,0-7.087,7.086v59.415s0,7.087,7.087,7.087h18.669s7.086,0,7.086-7.087V244.224s0-7.086-7.086-7.086Z"/>
      </g>
      <text class="cls-19" transform="translate(11.60303 327.55649)">65/2014</text>
      <g class="cls-10">
        <path class="cls-18" d="M117.935,186.523s-7.087,0-7.087,7.086v24.992s0,7.086,7.087,7.086h32.81s7.087,0,7.087-7.086V193.609s0-7.086-7.087-7.086Z"/>
      </g>
      <text class="cls-20" transform="translate(150.74902 208.59848)"> </text>
      <text class="cls-21" transform="translate(114.17969 218.20004)">kWh/</text>
      <text class="cls-21" transform="translate(132.08301 218.20004)">annum</text>
      <g class="cls-10">
        <path class="cls-18" d="M56.418,237.138s-7.086,0-7.086,7.086v59.415s0,7.087,7.086,7.087H75.087s7.087,0,7.087-7.087V244.224s0-7.086-7.087-7.086Zm37.612,0s-7.087,0-7.087,7.086v59.415s0,7.087,7.087,7.087h18.669s7.086,0,7.086-7.087V244.224s0-7.086-7.086-7.086Zm37.611,0s-7.087,0-7.087,7.086v59.415s0,7.087,7.087,7.087H150.31s7.087,0,7.087-7.087V244.224s0-7.086-7.087-7.086Z"/>
      </g>
      <text class="cls-22" transform="translate(143.46875 299.63754)">dB</text>
      <g class="cls-23">
        <path class="cls-17" d="M137.907,266.869q-1.686-1.5045-3.373-3.009h-2.406v-4.808h2.406q1.686-1.50452,3.373-3.008l1.396-1.245v13.314Z"/>
        <path class="cls-24" d="M137.907,266.869q-1.686-1.5045-3.373-3.009h-2.406v-4.808h2.406q1.686-1.50452,3.373-3.008l1.396-1.245v13.314Z"/>
        <path class="cls-25" d="M140.865,257.239a6.61469,6.61469,0,0,1,.058,8.391m2.914-10.95a11.725,11.725,0,0,1,.037,13.53m3.046-16.11a17.056,17.056,0,0,1,.031,18.713"/>
      </g>
      <g class="cls-10">
        <path class="cls-26" d="M100.435,254.421c0-1.527,2.763-5.039,2.763-5.039s2.764,3.512,2.764,5.039a2.7635,2.7635,0,0,1-5.527,0"/>
        <path class="cls-27" d="M89.89,260.297h26.616m-26.742,3.356H116.38m-26.594,0,3.221-3.356m-1.098,3.356,3.221-3.356m-1.098,3.356,3.221-3.356m-1.098,3.356,3.22-3.356m-1.098,3.356,3.221-3.356m-1.098,3.356,3.221-3.356m-1.098,3.356,3.221-3.356m-1.098,3.356,3.221-3.356m-1.098,3.356,3.22-3.356m-1.098,3.356,3.221-3.356m-1.098,3.356,3.221-3.356m-1.098,3.356,3.221-3.356m.125,3.356-3.22-3.356m1.098,3.356-3.221-3.356m1.098,3.356-3.221-3.356m1.098,3.356-3.221-3.356m1.098,3.356-3.221-3.356m1.098,3.356-3.22-3.356m1.098,3.356-3.221-3.356m1.098,3.356-3.221-3.356m1.098,3.356-3.221-3.356m1.098,3.356-3.22-3.356m1.098,3.356-3.221-3.356m1.098,3.356-3.221-3.356m-.148,0v3.357m26.742-3.357v3.357"/>
        <path class="cls-26" d="M96.3212,275.991c0-1.527,2.763-5.04,2.763-5.04s2.763,3.513,2.763,5.04a2.763,2.763,0,1,1-5.526,0"/>
        <path class="cls-26" d="M103.199,270.763c0-1.526,2.763-5.039,2.763-5.039s2.762,3.513,2.762,5.039a2.7625,2.7625,0,1,1-5.525,0"/>
        <path class="cls-26" d="M102.262,281.843c0-1.527,2.763-5.04,2.763-5.04s2.764,3.513,2.764,5.04a2.7635,2.7635,0,0,1-5.527,0"/>
        <path class="cls-17" d="M33.5852,263.65691a9.15966,9.15966,0,0,1,1.993,2.596.73586.73586,0,0,1-.101.833.84648.84648,0,0,1-.863.184,9.68607,9.68607,0,0,1-2.945-1.588,8.85375,8.85375,0,0,1-2.715-4.124,9.73578,9.73578,0,0,1,4.631,2.099"/>
      </g>
      <g class="cls-28">
        <path class="cls-17" d="M23.0149,263.65691a9.15966,9.15966,0,0,0-1.993,2.596.73481.73481,0,0,0,.1.833.84651.84651,0,0,0,.863.184,9.68506,9.68506,0,0,0,2.946-1.588,8.86318,8.86318,0,0,0,2.715-4.124,9.73578,9.73578,0,0,0-4.631,2.099"/>
        <path class="cls-17" d="M29.6893,256.1916a9.16644,9.16644,0,0,0-.643-3.209.73421.73421,0,0,0-.693-.472.84411.84411,0,0,0-.707.528,9.67269,9.67269,0,0,0-.742,3.263,8.85337,8.85337,0,0,0,1.318,4.758,9.73886,9.73886,0,0,0,1.467-4.868"/>
        <path class="cls-29" d="M19.63,265.18131a9.18615,9.18615,0,0,1,5.775-12.192m8.48,15.914a9.17742,9.17742,0,0,1-11.486.002m8.504-15.908a9.18511,9.18511,0,0,1,5.879,11.843"/>
      </g>
      <g class="cls-30">
        <path class="cls-31" d="M62.7958,275.833c-1.557-.712-1.381-3.953-1.414-5.621-.107-5.32-3.664-6.771-3.715-11.852-.034-3.354,2.119-7.867,8.409-7.867h-.238c6.291,0,8.444,4.513,8.41,7.867-.052,5.081-3.609,6.532-3.715,11.852-.033,1.668.18,4.984-1.414,5.621C68.1338,276.228,64.04279,276.405,62.7958,275.833Z"/>
      </g>
      <g class="cls-10">
        <path class="cls-17" d="M70.4229,272.005h-9.077c.678.704-.36,3.271,1.703,4.155v2.088l6.047-.952v-1.305c1.784-1.659.743-3.38,1.327-3.986"/>
        <path class="cls-32" d="M70.4229,272.005h-9.077c.678.704-.36,3.271,1.703,4.155v2.088l6.047-.952v-1.305C70.87989,274.332,69.83889,272.611,70.4229,272.005Z"/>
        <path class="cls-33" d="M68.9734,278.656l-5.733.876m5.733.316-5.733.877"/>
        <polygon class="cls-17" points="63.48 281.722 64.968 282.972 67.032 282.972 68.808 281.074 63.48 281.722"/>
      </g>
      <g class="cls-30">
        <polygon class="cls-34" points="63.48 281.722 64.968 282.972 67.032 282.972 68.808 281.074 63.48 281.722"/>
      </g>
    </g>
  </g>
  <g id="rating">
    <polyline id="ratingArrow" class="cls-36" points="115.54 89.56 126.65 78.31 158.06 78.31 158.06 100.79 126.65 100.79 115.54 89.56"/>
    <text id="ratingLetter" class="cls-37" transform="translate(124.04004 94.95004)">A</text>
    <text id="ratingPlusses" class="cls-38" transform="translate(135.75977 92.95981)">++</text>
  </g>
  <text id="kwhAnnum" class="cls-39" transform="translate(134.34961 208.60043)" text-anchor="middle">X</text>
  <text id="db" class="cls-40" transform="translate(132.07031 299.62973)">X</text>
  <text id="fluidDynamicClass" class="cls-22" transform="translate(28.3 298.03989)" text-anchor="middle">
    <!-- Do not pretty-print these spans - they need to be all on one line to avoid whitespace between them when rendering -->
    <tspan id="fluidDynamicClassALetter">A</tspan><tspan id="fluidDynamicClassBLetter">B</tspan><tspan id="fluidDynamicClassCLetter">C</tspan><tspan id="fluidDynamicClassDLetter">D</tspan><tspan id="fluidDynamicClassELetter">E</tspan><tspan id="fluidDynamicClassFLetter">F</tspan><tspan id="fluidDynamicClassGLetter">G</tspan>
  </text>
  <text id="lightingClass" class="cls-22" transform="translate(66.30976 298.03989)" text-anchor="middle">
    <!-- Do not pretty-print these spans - they need to be all on one line to avoid whitespace between them when rendering -->
    <tspan id="lightingClassALetter">A</tspan><tspan id="lightingClassBLetter">B</tspan><tspan id="lightingClassCLetter">C</tspan><tspan id="lightingClassDLetter">D</tspan><tspan id="lightingClassELetter">E</tspan><tspan id="lightingClassFLetter">F</tspan><tspan id="lightingClassGLetter">G</tspan>
  </text>
  <text id="greaseFilteringClass" class="cls-22" transform="translate(103.92988 299.62973)" text-anchor="middle">
    <!-- Do not pretty-print these spans - they need to be all on one line to avoid whitespace between them when rendering -->
    <tspan id="greaseFilteringClassALetter">A</tspan><tspan id="greaseFilteringClassBLetter">B</tspan><tspan id="greaseFilteringClassCLetter">C</tspan><tspan id="greaseFilteringClassDLetter">D</tspan><tspan id="greaseFilteringClassELetter">E</tspan><tspan id="greaseFilteringClassFLetter">F</tspan><tspan id="greaseFilteringClassGLetter">G</tspan>
  </text>
  <text id="supplierLine2" class="cls-41" transform="translate(11.16992 65.14044)">X</text>
  <text id="supplierLine1" class="cls-41" transform="translate(11.16992 54.05939)">X</text>
  <text id="modelLine2" class="cls-41" transform="translate(85.04004 65.14044)">X</text>
  <text id="modelLine1" class="cls-41" transform="translate(85.04004 54.05939)">X</text>
</svg>