<svg id="Layer_1" data-name="Layer 1" xmlns="http://www.w3.org/2000/svg" xmlns:xlink="http://www.w3.org/1999/xlink" width="60mm" height="120mm" viewBox="0 0 170.08 340.16" data-rating-increment="13.5833" data-supplier-model-chars-per-row="12">
  <defs>
    <style>
      .secondaryRatingClassA #classALetter,
      .secondaryRatingClassB #classBLetter,
      .secondaryRatingClassC #classCLetter,
      .secondaryRatingClassD #classDLetter,
      .secondaryRatingClassE #classELetter,
      .secondaryRatingClassF #classFLetter,
      .secondaryRatingClassG #classGLetter {
        font-size: 11.5px;
        font-weight: 700;
        font-family: Calibri-Bold, Calibri;
      }    

      .cls-1, .cls-13, .cls-17, .cls-23, .cls-24, .cls-26, .cls-28, .cls-30, .cls-31, .cls-32, .cls-33 {
        fill: none;
      }

      .cls-2 {
        fill: #fff200;
      }

      .cls-3 {
        fill: #bfd730;
      }

      .cls-4 {
        fill: #50b848;
      }

      .cls-5 {
        fill: #00a651;
      }

      .cls-6 {
        fill: #fdb913;
      }

      .cls-7 {
        fill: #f37021;
      }

      .cls-8 {
        fill: #ed1c24;
      }

      .cls-9 {
        clip-path: url(#clip-path);
      }

      .cls-10, .cls-11, .cls-12, .cls-35, .cls-36 {
        fill: #fff;
      }

      .cls-11 {
        font-size: 10.3892px;
      }

      .cls-11, .cls-12 {
        font-family: MyriadPro-Bold, Myriad Pro;
      }

      .cls-11, .cls-12, .cls-18, .cls-19, .cls-35, .cls-37, .cls-38 {
        font-weight: 700;
      }

      .cls-12 {
        font-size: 6.9261px;
      }

      .cls-13, .cls-17, .cls-26, .cls-28, .cls-30, .cls-31, .cls-32, .cls-33 {
        stroke: #00aeef;
      }

      .cls-13 {
        stroke-width: 3px;
      }

      .cls-14 {
        clip-path: url(#clip-path-3);
      }

      .cls-15 {
        fill: #034ea2;
      }

      .cls-16 {
        fill: #00aeef;
      }

      .cls-18, .cls-20 {
        font-size: 8px;
      }

      .cls-18, .cls-19, .cls-20, .cls-21, .cls-34, .cls-37, .cls-38, .cls-39 {
        fill: #231f20;
      }

      .cls-18, .cls-19, .cls-35, .cls-37, .cls-38 {
        font-family: Calibri-Bold, Calibri;
      }

      .cls-19 {
        font-size: 10.4747px;
      }

      .cls-20, .cls-21, .cls-36, .cls-39 {
        font-family: Calibri;
      }

      .cls-21 {
        font-size: 6px;
      }

      .cls-22 {
        clip-path: url(#clip-path-7);
      }

      .cls-23 {
        stroke: #fff;
        stroke-width: 1.676px;
      }

      .cls-24 {
        stroke: #44c8f5;
        stroke-width: 1.915px;
      }

      .cls-24, .cls-26, .cls-28, .cls-32, .cls-33 {
        stroke-linecap: round;
      }

      .cls-24, .cls-30, .cls-31, .cls-32, .cls-33 {
        stroke-linejoin: round;
      }

      .cls-25 {
        fill: #8ed8f8;
      }

      .cls-26 {
        stroke-width: 0.529px;
      }

      .cls-27 {
        clip-path: url(#clip-path-9);
      }

      .cls-28 {
        stroke-width: 0.689px;
      }

      .cls-29 {
        clip-path: url(#clip-path-10);
      }

      .cls-30 {
        stroke-width: 0.991px;
      }

      .cls-31 {
        stroke-width: 0.803px;
      }

      .cls-32 {
        stroke-width: 0.714px;
      }

      .cls-33 {
        stroke-width: 0.434px;
      }

      .cls-35 {
        font-size: 17px;
      }

      .cls-36 {
        font-size: 12px;
      }

      .cls-37 {
        font-size: 21px;
      }

      .cls-38 {
        font-size: 11.5px;
      }

      .cls-39 {
        font-size: 11px;
      }
    </style>
    <clipPath id="clip-path">
      <rect class="cls-1" y="0.00299" width="170.07899" height="340.15701"/>
    </clipPath>
    <clipPath id="clip-path-3">
      <rect class="cls-1" x="10.904" y="11.284" width="144.38001" height="28.82001"/>
    </clipPath>
    <clipPath id="clip-path-7">
      <rect class="cls-1" x="132.787" y="250.982" width="18.061" height="20.948"/>
    </clipPath>
    <clipPath id="clip-path-9">
      <rect class="cls-1" x="18.622" y="252.51001" width="19.039" height="18.758"/>
    </clipPath>
    <clipPath id="clip-path-10">
      <rect class="cls-1" x="56.438" y="249.383" width="19.039" height="34.422"/>
    </clipPath>
  </defs>
  <title>range-hoods-2020</title>
  <polygon class="cls-2" points="11.22 124.916 11.22 136.282 69.507 136.282 75.135 130.599 69.507 124.916 11.22 124.916"/>
  <polygon class="cls-3" points="11.22 111.418 11.22 122.784 62.951 122.784 68.581 117.102 62.951 111.418 11.22 111.418"/>
  <polygon class="cls-4" points="11.22 97.921 11.22 109.286 56.397 109.286 62.027 103.605 56.397 97.921 11.22 97.921"/>
  <polygon class="cls-5" points="11.22 84.423 11.22 95.788 51.314 95.788 56.944 90.106 51.314 84.423 11.22 84.423"/>
  <polygon class="cls-6" points="11.22 138.409 11.22 149.774 76.213 149.774 81.848 144.092 76.213 138.409 11.22 138.409"/>
  <polygon class="cls-7" points="11.22 151.902 11.22 163.268 82.764 163.268 88.402 157.586 82.764 151.902 11.22 151.902"/>
  <polygon class="cls-8" points="11.22 165.395 11.22 176.759 89.315 176.759 94.953 171.077 89.315 165.395 11.22 165.395"/>
  <g class="cls-9">
    <path class="cls-10" d="M23.0544,131.076l-.436-1.494c-.125-.418-.249-.941-.354-1.358h-.02c-.103.417-.208.95-.321,1.358l-.417,1.494Zm-1.775,1.191-.499,1.807h-1.641l2.14-7.042h2.076l2.171,7.042h-1.704l-.54-1.807Z"/>
    <path class="cls-10" d="M20.7596,146.455a4.73988,4.73988,0,0,0,.614.022c.715,0,1.35-.282,1.35-1.013,0-.713-.635-.993-1.423-.993h-.541Zm0-3.124h.52c.832,0,1.278-.345,1.278-.867,0-.533-.406-.815-1.121-.815a4.18066,4.18066,0,0,0-.677.042Zm-1.567-2.696a12.49538,12.49538,0,0,1,2.046-.146,3.83668,3.83668,0,0,1,2.066.397,1.53284,1.53284,0,0,1,.84,1.379,1.59,1.59,0,0,1-1.151,1.505v.021a1.75835,1.75835,0,0,1,1.39,1.735,1.87979,1.87979,0,0,1-.726,1.494,4.39193,4.39193,0,0,1-2.752.637,12.02845,12.02845,0,0,1-1.713-.105Z"/>
    <path class="cls-10" d="M24.367,160.894a4.43109,4.43109,0,0,1-1.798.315,3.34543,3.34543,0,0,1-3.664-3.533,3.57716,3.57716,0,0,1,3.819-3.74,4.11771,4.11771,0,0,1,1.725.313l-.322,1.265a3.39372,3.39372,0,0,0-1.329-.262,2.31585,2.31585,0,0,0,.01,4.629,3.96648,3.96648,0,0,0,1.319-.229Z"/>
    <path class="cls-10" d="M20.334,173.4a2.739,2.739,0,0,0,.549.033,2.17758,2.17758,0,0,0,2.368-2.468,2.01287,2.01287,0,0,0-2.201-2.235,3.21862,3.21862,0,0,0-.716.063Zm-1.59-5.747a14.19941,14.19941,0,0,1,2.139-.146,4.47814,4.47814,0,0,1,2.866.753,3.12148,3.12148,0,0,1,1.184,2.653,3.57319,3.57319,0,0,1-1.164,2.853,4.99265,4.99265,0,0,1-3.227.909,13.50785,13.50785,0,0,1-1.798-.105Z"/>
  </g>
  <text class="cls-11" transform="translate(16.64795 94.11411)"> </text>
  <text class="cls-11" transform="translate(18.74658 94.11411)">A</text>
  <text class="cls-12" transform="translate(25.81982 91.90317)">+++</text>
  <text class="cls-11" transform="translate(16.64795 107.79379)"> </text>
  <text class="cls-11" transform="translate(18.74658 107.79379)">A</text>
  <text class="cls-12" transform="translate(25.81982 105.58286)">++</text>
  <text class="cls-11" transform="translate(16.64795 121.07504)"> </text>
  <text class="cls-11" transform="translate(18.74658 121.07504)">A</text>
  <text class="cls-12" transform="translate(25.81982 118.86411)">+</text>
  <g class="cls-9">
    <path class="cls-13" d="M12.4895,6.29141s-5.669,0-5.669,5.669v316.251s0,5.67,5.669,5.67h145.947s5.67,0,5.67-5.67V11.96042s0-5.669-5.67-5.669Z"/>
  </g>
  <g class="cls-14">
    <rect class="cls-15" x="10.904" y="11.323" width="43.102" height="28.78"/>
    <rect class="cls-16" x="55.43099" y="11.323" width="103.174" height="28.78"/>
  </g>
  <g class="cls-9">
    <polygon class="cls-2" points="41.364 20.918 42.29 20.245 41.145 20.245 40.791 19.156 40.438 20.245 39.292 20.245 40.219 20.918 39.865 22.007 40.792 21.334 41.718 22.007 41.364 20.918"/>
    <polygon class="cls-2" points="37.758 17.465 38.684 16.792 37.539 16.792 37.185 15.703 36.832 16.792 35.687 16.792 36.613 17.465 36.259 18.554 37.185 17.881 38.112 18.554 37.758 17.465"/>
    <polygon class="cls-2" points="33.106 16.229 34.032 15.557 32.887 15.557 32.534 14.467 32.18 15.557 31.034 15.557 31.961 16.229 31.607 17.319 32.534 16.646 33.46 17.319 33.106 16.229"/>
    <polygon class="cls-2" points="28.207 17.465 29.133 16.792 27.988 16.792 27.634 15.703 27.281 16.792 26.136 16.792 27.062 17.465 26.708 18.554 27.635 17.881 28.561 18.554 28.207 17.465"/>
    <polygon class="cls-2" points="24.708 21.087 25.634 20.414 24.489 20.414 24.135 19.325 23.782 20.414 22.636 20.414 23.563 21.087 23.209 22.176 24.136 21.503 25.062 22.176 24.708 21.087"/>
    <polygon class="cls-2" points="23.59 25.847 24.516 25.174 23.371 25.174 23.017 24.085 22.664 25.174 21.518 25.174 22.445 25.847 22.091 26.936 23.018 26.263 23.944 26.936 23.59 25.847"/>
    <polygon class="cls-2" points="24.743 30.669 25.669 29.996 24.524 29.996 24.17 28.907 23.817 29.996 22.671 29.996 23.598 30.669 23.244 31.758 24.171 31.085 25.097 31.758 24.743 30.669"/>
    <polygon class="cls-2" points="28.207 34.096 29.133 33.423 27.988 33.423 27.634 32.334 27.281 33.423 26.136 33.423 27.062 34.096 26.708 35.185 27.635 34.512 28.561 35.185 28.207 34.096"/>
    <polygon class="cls-2" points="33.106 35.373 34.032 34.7 32.887 34.7 32.533 33.611 32.179 34.7 31.034 34.7 31.961 35.373 31.607 36.462 32.534 35.789 33.46 36.462 33.106 35.373"/>
    <polygon class="cls-2" points="37.873 34.079 38.799 33.406 37.654 33.406 37.3 32.317 36.947 33.406 35.801 33.406 36.728 34.079 36.374 35.168 37.3 34.495 38.227 35.168 37.873 34.079"/>
    <polygon class="cls-2" points="41.34 30.638 42.266 29.965 41.121 29.965 40.767 28.876 40.414 29.965 39.269 29.965 40.195 30.638 39.841 31.727 40.768 31.054 41.694 31.727 41.34 30.638"/>
    <polygon class="cls-2" points="42.616 25.78 43.542 25.107 42.397 25.107 42.043 24.018 41.69 25.107 40.544 25.107 41.471 25.78 41.117 26.869 42.044 26.196 42.97 26.869 42.616 25.78"/>
    <polygon class="cls-10" points="67.928 23.07 63.306 23.07 63.306 26.673 68.474 26.673 68.474 28.511 61.067 28.511 61.067 16.245 68.201 16.245 68.201 18.083 63.306 18.083 63.306 21.25 67.928 21.25 67.928 23.07"/>
    <path class="cls-10" d="M71.3497,28.51111v-12.266h2.548l3.166,5.259a33.74588,33.74588,0,0,1,2.093,4.113h.037c-.146-1.638-.201-3.221-.201-5.095v-4.277h2.075v12.266h-2.311l-3.203-5.405a40.39947,40.39947,0,0,1-2.202-4.222l-.055.018c.091,1.583.109,3.203.109,5.223v4.386Z"/>
    <polygon class="cls-10" points="91.423 23.07 86.8 23.07 86.8 26.673 91.969 26.673 91.969 28.511 84.562 28.511 84.562 16.245 91.696 16.245 91.696 18.083 86.8 18.083 86.8 21.25 91.423 21.25 91.423 23.07"/>
    <path class="cls-10" d="M97.06409,21.83182h1.329c1.51,0,2.457-.8,2.457-2.02,0-1.346-.947-1.965-2.403-1.965a6.42147,6.42147,0,0,0-1.383.109Zm-2.22-5.423a21.19853,21.19853,0,0,1,3.385-.255,5.68465,5.68465,0,0,1,3.786.983,3.104,3.104,0,0,1,1.055,2.457,3.271,3.271,0,0,1-2.22,3.075v.055a3.12227,3.12227,0,0,1,1.71,2.366,24.52437,24.52437,0,0,0,.965,3.421h-2.311a17.256,17.256,0,0,1-.819-2.893c-.346-1.602-.929-2.111-2.202-2.148h-1.129v5.041h-2.22Z"/>
    <path class="cls-10" d="M115.9365,27.9469a12.15286,12.15286,0,0,1-3.949.692,6.60994,6.60994,0,0,1-4.805-1.638,6.075,6.075,0,0,1-1.71-4.514c0-3.876,2.766-6.369,6.824-6.369a8.14335,8.14335,0,0,1,3.258.582l-.492,1.802a6.60539,6.60539,0,0,0-2.784-.528,4.105,4.105,0,0,0-4.459,4.404c0,2.785,1.711,4.441,4.259,4.441a4.29774,4.29774,0,0,0,1.692-.255v-3.058h-2.165v-1.765h4.331Z"/>
    <path class="cls-10" d="M62.3457,32.9549a.697.697,0,0,0-.708-.775.809.809,0,0,0-.791.775Zm-1.499.56c.021.573.504.821,1.051.821a2.73744,2.73744,0,0,0,.945-.144l.126.554a3.40336,3.40336,0,0,1-1.191.202,1.56587,1.56587,0,0,1-1.757-1.609,1.61828,1.61828,0,0,1,1.666-1.706,1.41153,1.41153,0,0,1,1.471,1.543,1.843,1.843,0,0,1-.028.339Z"/>
    <polygon class="cls-10" points="64.74 31.704 64.74 32.915 66.057 32.915 66.057 31.704 66.918 31.704 66.918 34.876 66.057 34.876 66.057 33.541 64.74 33.541 64.74 34.876 63.879 34.876 63.879 31.704 64.74 31.704"/>
    <path class="cls-10" d="M69.9782,32.9549a.697.697,0,0,0-.708-.775.809.809,0,0,0-.791.775Zm-1.499.56c.021.573.504.821,1.051.821a2.73744,2.73744,0,0,0,.945-.144l.126.554a3.40336,3.40336,0,0,1-1.191.202,1.56587,1.56587,0,0,1-1.757-1.609,1.61828,1.61828,0,0,1,1.666-1.706,1.41153,1.41153,0,0,1,1.471,1.543,1.843,1.843,0,0,1-.028.339Z"/>
    <path class="cls-10" d="M72.37909,33.54742a.76611.76611,0,0,0,.785.782c.546,0,.868-.424.868-1.049,0-.56-.294-1.016-.847-1.016a.78947.78947,0,0,0-.77.593.647.647,0,0,0-.036.202Zm-.861-.788c0-.417-.014-.755-.028-1.055h.756l.042.488h.014a1.36172,1.36172,0,0,1,1.17-.56,1.48053,1.48053,0,0,1,1.436,1.615,1.556,1.556,0,0,1-1.555,1.7,1.15392,1.15392,0,0,1-.96-.423h-.014v1.641h-.861Z"/>
    <polygon class="cls-10" points="77.898 31.704 77.898 32.336 76.504 32.336 76.504 34.876 75.643 34.876 75.643 31.704 77.898 31.704"/>
    <path class="cls-10" d="M79.2698,31.70432v1.14c0,.501-.021.84-.049,1.283h.021c.182-.372.287-.606.462-.938l.841-1.485h1.043v3.172h-.819v-1.133c0-.508.021-.743.056-1.342h-.028c-.168.378-.28.606-.448.912-.267.469-.575,1.042-.869,1.563h-1.029v-3.172Z"/>
    <path class="cls-10" d="M84.4861,32.199a2.48514,2.48514,0,0,0-.427-.032c-.378,0-.763.123-.763.475,0,.332.427.476.763.476.203,0,.315,0,.427-.007Zm.855,2.677h-.855V33.619h-.322a.69694.69694,0,0,0-.525.208,2.03139,2.03139,0,0,0-.42.789,2.28078,2.28078,0,0,1-.133.26h-.925a1.60707,1.60707,0,0,0,.21-.352,2.66275,2.66275,0,0,1,.512-.912.82305.82305,0,0,1,.406-.214v-.02c-.406-.039-.889-.286-.889-.781a.79864.79864,0,0,1,.525-.736,2.95736,2.95736,0,0,1,1.204-.202,9.87655,9.87655,0,0,1,1.212.071Z"/>
    <path class="cls-10" d="M88.1345,33.6908a.5.5,0,0,1-.525-.515.50554.50554,0,0,1,.532-.514.51479.51479,0,1,1,0,1.029Z"/>
    <path class="cls-10" d="M91.5304,33.16971c-.406-.104-.63-.352-.63-.664,0-.43.462-.873,1.436-.873a2.15556,2.15556,0,0,1,1.092.241l-.161.515a1.928,1.928,0,0,0-.826-.189c-.414,0-.673.156-.673.377,0,.254.343.359.855.365h.371v.534h-.378c-.547.007-.96.111-.96.417,0,.3.371.456.791.456a2.437,2.437,0,0,0,.96-.222l.126.534a2.78418,2.78418,0,0,1-1.296.287c-.721,0-1.498-.254-1.498-.97a.86539.86539,0,0,1,.791-.782Z"/>
    <path class="cls-10" d="M94.6673,31.70432l.546,1.609c.098.28.161.534.246.807h.028a5.42,5.42,0,0,0,.714-2.142v-.274h.805a1.30313,1.30313,0,0,1,.021.241,6.25482,6.25482,0,0,1-1.239,2.931h-.834l-1.211-3.172Z"/>
    <path class="cls-10" d="M98.2034,33.16971c-.406-.104-.63-.352-.63-.664,0-.43.462-.873,1.436-.873a2.15552,2.15552,0,0,1,1.092.241l-.161.515a1.92921,1.92921,0,0,0-.827-.189c-.413,0-.672.156-.672.377,0,.254.343.359.854.365h.372v.534h-.378c-.547.007-.96.111-.96.417,0,.3.371.456.791.456a2.437,2.437,0,0,0,.96-.222l.126.534a2.78419,2.78419,0,0,1-1.296.287c-.721,0-1.498-.254-1.498-.97a.86539.86539,0,0,1,.791-.782Z"/>
    <path class="cls-10" d="M101.6485,33.61893a.99805.99805,0,0,0,.021.208.79388.79388,0,0,0,.756.502c.547,0,.862-.449.862-1.048,0-.561-.301-.99-.813-.99-.434,0-.826.351-.826,1.081Zm0,.951v.449a8.05914,8.05914,0,0,0,.049,1.147h-.833a5.42582,5.42582,0,0,1-.077-1.134v-1.452a1.78118,1.78118,0,0,1,.581-1.53,1.70283,1.70283,0,0,1,1.162-.417,1.53894,1.53894,0,0,1,1.632,1.628,1.57091,1.57091,0,0,1-1.576,1.687,1.141,1.141,0,0,1-.924-.378Z"/>
    <path class="cls-10" d="M105.6187,36.16541a6.7359,6.7359,0,0,0-.119-1.83,8.53433,8.53433,0,0,0-1.191-2.631h.967a7.37773,7.37773,0,0,1,.91,2.306h.029a4.9482,4.9482,0,0,0,.644-2.052c0-.124-.007-.189-.007-.254h.819a1.21122,1.21122,0,0,1,.014.234,5.3879,5.3879,0,0,1-1.205,2.794.25965.25965,0,0,0-.041.157c.014.319.014.84.021,1.276Z"/>
    <path class="cls-10" d="M108.8466,33.16971c-.406-.104-.63-.352-.63-.664,0-.43.462-.873,1.436-.873a2.15556,2.15556,0,0,1,1.092.241l-.161.515a1.928,1.928,0,0,0-.826-.189c-.414,0-.673.156-.673.377,0,.254.343.359.854.365h.372v.534h-.378c-.547.007-.96.111-.96.417,0,.3.371.456.791.456a2.437,2.437,0,0,0,.96-.222l.126.534a2.78418,2.78418,0,0,1-1.296.287c-.721,0-1.498-.254-1.498-.97a.86539.86539,0,0,1,.791-.782Z"/>
    <path class="cls-10" d="M112.3201,33.98392c0,.26.084.365.322.352l-.049.56a1.14964,1.14964,0,0,1-.371.052c-.462,0-.77-.183-.77-.886v-2.358h.868Z"/>
    <path class="cls-10" d="M113.9658,33.32632c0,.534.294.983.763.983a.85583.85583,0,0,0,.757-.684,2.0573,2.0573,0,0,0,.028-.371,1.25631,1.25631,0,0,0-.022-.299.7808.7808,0,0,0-.721-.704c-.483,0-.805.476-.805,1.068Zm2.472-1.622c-.042.43-.098,1.407-.098,2.162,0,.359.119.482.329.476l-.056.566a1.08041,1.08041,0,0,1-.301.039.63221.63221,0,0,1-.665-.618h-.021a1.27323,1.27323,0,0,1-1.128.618,1.44509,1.44509,0,0,1-1.408-1.595,1.62288,1.62288,0,0,1,1.541-1.72,1.05946,1.05946,0,0,1,.981.554h.028c.021-.195.049-.345.077-.482Z"/>
    <path class="cls-10" d="M120.5948,18.8483a6.245,6.245,0,1,1,6.245,6.244,6.245,6.245,0,0,1-6.245-6.244"/>
    <path class="cls-16" d="M126.4142,21.189V19.036l-1.632-3.011h1.073l.62,1.326c.177.383.307.674.445,1.026h.015c.13-.329.276-.651.452-1.026l.62-1.326h1.065l-1.715,2.988v2.176Z"/>
    <path class="cls-10" d="M134.9622,18.8483a6.245,6.245,0,1,1,6.245,6.244,6.245,6.245,0,0,1-6.245-6.244"/>
    <path class="cls-10" d="M120.5948,32.69519a6.245,6.245,0,1,1,6.245,6.245,6.245,6.245,0,0,1-6.245-6.245"/>
    <rect class="cls-16" x="124.46" y="29.87201" width="0.943" height="5.164"/>
    <polygon class="cls-16" points="129.371 32.745 127.425 32.745 127.425 34.262 129.601 34.262 129.601 35.036 126.483 35.036 126.483 29.872 129.486 29.872 129.486 30.646 127.425 30.646 127.425 31.979 129.371 31.979 129.371 32.745"/>
    <path class="cls-10" d="M134.9622,32.69519a6.245,6.245,0,1,1,6.245,6.245,6.245,6.245,0,0,1-6.245-6.245"/>
    <rect class="cls-16" x="136.862" y="16.02499" width="0.94299" height="5.164"/>
    <path class="cls-16" d="M139.9117,16.02521h.943v3.348c0,1.425-.69,1.9-1.717,1.9a2.50168,2.50168,0,0,1-.789-.123l.115-.758a2.05788,2.05788,0,0,0,.583.092c.536,0,.865-.245.865-1.142Z"/>
    <path class="cls-16" d="M144.40228,19.01373l-.406-1.272c-.1-.314-.185-.667-.261-.966h-.015c-.077.299-.154.659-.245.966l-.399,1.272Zm-1.479.712-.445,1.463h-.972l1.655-5.163h1.202l1.678,5.163h-1.011l-.468-1.463Z"/>
    <rect class="cls-16" x="138.36501" y="29.87201" width="0.942" height="5.164"/>
    <path class="cls-16" d="M142.90048,32.861l-.406-1.272c-.1-.314-.185-.667-.261-.966h-.015c-.077.299-.154.659-.245.966l-.399,1.272Zm-1.479.712-.444,1.463h-.973l1.655-5.163h1.202l1.678,5.163h-1.011l-.468-1.463Z"/>
    <line class="cls-17" x1="10.7036" y1="68.40509" x2="155.26959" y2="68.40509"/>
    <path class="cls-17" d="M18.8069,237.138s-7.087,0-7.087,7.086v59.415s0,7.087,7.087,7.087h18.669s7.086,0,7.086-7.087V244.224s0-7.086-7.086-7.086Z"/>
  </g>
  <text class="cls-18" transform="translate(11.60303 327.55649)">65/2014</text>
  <g class="cls-9">
    <path class="cls-17" d="M117.935,186.523s-7.087,0-7.087,7.086v24.992s0,7.086,7.087,7.086h32.81s7.087,0,7.087-7.086V193.609s0-7.086-7.087-7.086Z"/>
  </g>
  <text class="cls-19" transform="translate(150.74902 208.59848)"> </text>
  <text class="cls-20" transform="translate(114.17969 218.20004)">kWh/</text>
  <text class="cls-20" transform="translate(132.08301 218.20004)">annum</text>
  <g class="cls-9">
    <path class="cls-17" d="M56.418,237.138s-7.086,0-7.086,7.086v59.415s0,7.087,7.086,7.087H75.087s7.087,0,7.087-7.087V244.224s0-7.086-7.087-7.086Zm37.612,0s-7.087,0-7.087,7.086v59.415s0,7.087,7.087,7.087h18.669s7.086,0,7.086-7.087V244.224s0-7.086-7.086-7.086Zm37.611,0s-7.087,0-7.087,7.086v59.415s0,7.087,7.087,7.087H150.31s7.087,0,7.087-7.087V244.224s0-7.086-7.087-7.086Z"/>
  </g>
  <text class="cls-21" transform="translate(143.46875 299.63754)">dB</text>
  <g class="cls-22">
    <path class="cls-16" d="M137.907,266.869q-1.686-1.5045-3.373-3.009h-2.406v-4.808h2.406q1.686-1.50452,3.373-3.008l1.396-1.245v13.314Z"/>
    <path class="cls-23" d="M137.907,266.869q-1.686-1.5045-3.373-3.009h-2.406v-4.808h2.406q1.686-1.50452,3.373-3.008l1.396-1.245v13.314Z"/>
    <path class="cls-24" d="M140.865,257.239a6.61469,6.61469,0,0,1,.058,8.391m2.914-10.95a11.725,11.725,0,0,1,.037,13.53m3.046-16.11a17.056,17.056,0,0,1,.031,18.713"/>
  </g>
  <g class="cls-9">
    <path class="cls-25" d="M100.435,254.421c0-1.527,2.763-5.039,2.763-5.039s2.764,3.512,2.764,5.039a2.7635,2.7635,0,0,1-5.527,0"/>
    <path class="cls-26" d="M89.89,260.297h26.616m-26.742,3.356H116.38m-26.594,0,3.221-3.356m-1.098,3.356,3.221-3.356m-1.098,3.356,3.221-3.356m-1.098,3.356,3.22-3.356m-1.098,3.356,3.221-3.356m-1.098,3.356,3.221-3.356m-1.098,3.356,3.221-3.356m-1.098,3.356,3.221-3.356m-1.098,3.356,3.22-3.356m-1.098,3.356,3.221-3.356m-1.098,3.356,3.221-3.356m-1.098,3.356,3.221-3.356m.125,3.356-3.22-3.356m1.098,3.356-3.221-3.356m1.098,3.356-3.221-3.356m1.098,3.356-3.221-3.356m1.098,3.356-3.221-3.356m1.098,3.356-3.22-3.356m1.098,3.356-3.221-3.356m1.098,3.356-3.221-3.356m1.098,3.356-3.221-3.356m1.098,3.356-3.22-3.356m1.098,3.356-3.221-3.356m1.098,3.356-3.221-3.356m-.148,0v3.357m26.742-3.357v3.357"/>
    <path class="cls-25" d="M96.3212,275.991c0-1.527,2.763-5.04,2.763-5.04s2.763,3.513,2.763,5.04a2.763,2.763,0,1,1-5.526,0"/>
    <path class="cls-25" d="M103.199,270.763c0-1.526,2.763-5.039,2.763-5.039s2.762,3.513,2.762,5.039a2.7625,2.7625,0,1,1-5.525,0"/>
    <path class="cls-25" d="M102.262,281.843c0-1.527,2.763-5.04,2.763-5.04s2.764,3.513,2.764,5.04a2.7635,2.7635,0,0,1-5.527,0"/>
    <path class="cls-16" d="M33.5852,263.65691a9.15966,9.15966,0,0,1,1.993,2.596.73586.73586,0,0,1-.101.833.84648.84648,0,0,1-.863.184,9.68607,9.68607,0,0,1-2.945-1.588,8.85375,8.85375,0,0,1-2.715-4.124,9.73578,9.73578,0,0,1,4.631,2.099"/>
  </g>
  <g class="cls-27">
    <path class="cls-16" d="M23.0149,263.65691a9.15966,9.15966,0,0,0-1.993,2.596.73481.73481,0,0,0,.1.833.84651.84651,0,0,0,.863.184,9.68506,9.68506,0,0,0,2.946-1.588,8.86318,8.86318,0,0,0,2.715-4.124,9.73578,9.73578,0,0,0-4.631,2.099"/>
    <path class="cls-16" d="M29.6893,256.1916a9.16644,9.16644,0,0,0-.643-3.209.73421.73421,0,0,0-.693-.472.84411.84411,0,0,0-.707.528,9.67269,9.67269,0,0,0-.742,3.263,8.85337,8.85337,0,0,0,1.318,4.758,9.73886,9.73886,0,0,0,1.467-4.868"/>
    <path class="cls-28" d="M19.63,265.18131a9.18615,9.18615,0,0,1,5.775-12.192m8.48,15.914a9.17742,9.17742,0,0,1-11.486.002m8.504-15.908a9.18511,9.18511,0,0,1,5.879,11.843"/>
  </g>
  <g class="cls-29">
    <path class="cls-30" d="M62.7958,275.833c-1.557-.712-1.381-3.953-1.414-5.621-.107-5.32-3.664-6.771-3.715-11.852-.034-3.354,2.119-7.867,8.409-7.867h-.238c6.291,0,8.444,4.513,8.41,7.867-.052,5.081-3.609,6.532-3.715,11.852-.033,1.668.18,4.984-1.414,5.621C68.1338,276.228,64.04279,276.405,62.7958,275.833Z"/>
  </g>
  <g class="cls-9">
    <path class="cls-16" d="M70.4229,272.005h-9.077c.678.704-.36,3.271,1.703,4.155v2.088l6.047-.952v-1.305c1.784-1.659.743-3.38,1.327-3.986"/>
    <path class="cls-31" d="M70.4229,272.005h-9.077c.678.704-.36,3.271,1.703,4.155v2.088l6.047-.952v-1.305C70.87989,274.332,69.83889,272.611,70.4229,272.005Z"/>
    <path class="cls-32" d="M68.9734,278.656l-5.733.876m5.733.316-5.733.877"/>
    <polygon class="cls-16" points="63.48 281.722 64.968 282.972 67.032 282.972 68.808 281.074 63.48 281.722"/>
  </g>
  <g class="cls-29">
    <polygon class="cls-33" points="63.48 281.722 64.968 282.972 67.032 282.972 68.808 281.074 63.48 281.722"/>
  </g>
  <g id="rating">
    <polyline id="ratingArrow" class="cls-34" points="115.54 89.56 126.65 78.31 158.06 78.31 158.06 100.79 126.65 100.79 115.54 89.56"/>
    <text id="ratingLetter" class="cls-35" transform="translate(124.04004 94.95004)">A</text>
    <text id="ratingPlusses" class="cls-36" transform="translate(135.75977 92.95981)">+++</text>
  </g>
  <text id="kwhAnnum" class="cls-37" transform="translate(134.34961 208.60043)" text-anchor="middle">X</text>
  <text id="db" class="cls-38" transform="translate(132.07031 299.62973)">X</text>
  <text id="supplierLine2" class="cls-39" transform="translate(11.17004 65.13995)">X</text>
  <text id="supplierLine1" class="cls-39" transform="translate(11.17004 54.0589)">X</text>
  <text id="modelLine2" class="cls-39" transform="translate(85.04016 65.13995)">X</text>
  <text id="modelLine1" class="cls-39" transform="translate(85.04016 54.0589)">X</text>
  <text id="fluidDynamicClass" class="cls-21" transform="translate(28.3 298.03989)" text-anchor="middle">
    <!-- Do not pretty-print these spans - they need to be all on one line to avoid whitespace between them when rendering -->
    <tspan id="classALetter">A</tspan><tspan id="classBLetter">B</tspan><tspan id="classCLetter">C</tspan><tspan id="classDLetter">D</tspan><tspan id="classELetter">E</tspan><tspan id="classFLetter">F</tspan><tspan id="classGLetter">G</tspan>    
  </text>
  <text id="lightingClass" class="cls-21" transform="translate(66.30976 298.03989)" text-anchor="middle">
    <!-- Do not pretty-print these spans - they need to be all on one line to avoid whitespace between them when rendering -->
    <tspan id="classALetter">A</tspan><tspan id="classBLetter">B</tspan><tspan id="classCLetter">C</tspan><tspan id="classDLetter">D</tspan><tspan id="classELetter">E</tspan><tspan id="classFLetter">F</tspan><tspan id="classGLetter">G</tspan>      
  </text>
  <text id="greaseFilteringClass" class="cls-21" transform="translate(103.92988 299.62973)" text-anchor="middle">
    <!-- Do not pretty-print these spans - they need to be all on one line to avoid whitespace between them when rendering -->
    <tspan id="classALetter">A</tspan><tspan id="classBLetter">B</tspan><tspan id="classCLetter">C</tspan><tspan id="classDLetter">D</tspan><tspan id="classELetter">E</tspan><tspan id="classFLetter">F</tspan><tspan id="classGLetter">G</tspan>      
  </text>
</svg>
