<svg id="Layer_1" data-name="Layer 1" xmlns="http://www.w3.org/2000/svg" xmlns:xlink="http://www.w3.org/1999/xlink" width="100mm" height="200mm" viewBox="0 0 283.45999 566.92999" data-rating-increment="23.2333" data-supplier-model-chars-per-row="15">
  <defs>
    <style>
      .cls-1, .cls-11, .cls-12, .cls-17, .cls-18, .cls-2, .cls-20, .cls-21, .cls-22, .cls-43, .cls-45, .cls-46, .cls-48, .cls-49, .cls-50 {
        fill: none;
      }

      .cls-11, .cls-12, .cls-17, .cls-2, .cls-21 {
        stroke: #00aeef;
      }

      .cls-2 {
        stroke-width: 0.911px;
      }

      .cls-3 {
        fill: #034ea2;
      }

      .cls-4 {
        fill: #00aeef;
      }

      .cls-5 {
        fill: #fff200;
      }

      .cls-25, .cls-26, .cls-28, .cls-36, .cls-37, .cls-38, .cls-39, .cls-53, .cls-54, .cls-6 {
        fill: #fff;
      }

      .cls-7 {
        clip-path: url(#clip-path);
      }

      .cls-8, .cls-9 {
        font-size: 10px;
      }

      .cls-13, .cls-15, .cls-52, .cls-55, .cls-56, .cls-8, .cls-9 {
        fill: #231f20;
      }

      .cls-25, .cls-26, .cls-28, .cls-36, .cls-37, .cls-38, .cls-39, .cls-53, .cls-55, .cls-8 {
        font-family: Calibri-Bold, Calibri;
        font-weight: 700;
      }

      .cls-13, .cls-15, .cls-54, .cls-56, .cls-9 {
        font-family: Calibri;
      }

      .cls-10 {
        clip-path: url(#clip-path-2);
      }

      .cls-11 {
        stroke-width: 5px;
      }

      .cls-12 {
        stroke-width: 2px;
      }

      .cls-13, .cls-54 {
        font-size: 14px;
      }

      .cls-14 {
        letter-spacing: -0.02002em;
      }

      .cls-15 {
        font-size: 7px;
      }

      .cls-16 {
        clip-path: url(#clip-path-4);
      }

      .cls-17, .cls-21, .cls-49, .cls-50 {
        stroke-linecap: round;
      }

      .cls-17, .cls-21, .cls-45, .cls-49, .cls-50 {
        stroke-linejoin: round;
      }

      .cls-17 {
        stroke-width: 1.052px;
      }

      .cls-18, .cls-22, .cls-46 {
        stroke: #fff;
      }

      .cls-18 {
        stroke-width: 0.918px;
      }

      .cls-19 {
        fill: #2aace3;
      }

      .cls-20 {
        stroke: #2aace3;
        stroke-width: 0.739px;
      }

      .cls-21 {
        stroke-width: 1.869px;
      }

      .cls-22 {
        stroke-width: 0.966px;
      }

      .cls-23 {
        letter-spacing: 0.009em;
      }

      .cls-24 {
        clip-path: url(#clip-path-7);
      }

      .cls-25 {
        font-size: 29.2623px;
      }

      .cls-26, .cls-28 {
        font-size: 14.0893px;
      }

      .cls-26 {
        letter-spacing: 0.00998em;
      }

      .cls-27 {
        letter-spacing: -0.00007em;
      }

      .cls-29 {
        fill: #bfd730;
      }

      .cls-30 {
        fill: #50b848;
      }

      .cls-31 {
        fill: #00a651;
      }

      .cls-32 {
        fill: #fdb913;
      }

      .cls-33 {
        fill: #f37021;
      }

      .cls-34 {
        fill: #ed1c24;
      }

      .cls-35 {
        clip-path: url(#clip-path-9);
      }

      .cls-36 {
        font-size: 18px;
      }

      .cls-37 {
        font-size: 12px;
      }

      .cls-38 {
        font-size: 17px;
      }

      .cls-39, .cls-56 {
        font-size: 8px;
      }

      .cls-40 {
        letter-spacing: 0.01001em;
      }

      .cls-41 {
        clip-path: url(#clip-path-12);
      }

      .cls-42 {
        fill: #49c8f5;
      }

      .cls-43, .cls-49 {
        stroke: #49c8f5;
      }

      .cls-43, .cls-48 {
        stroke-width: 0.905px;
      }

      .cls-44 {
        fill: #f9f9fa;
      }

      .cls-45 {
        stroke: #f9f9fa;
        stroke-width: 0.699px;
      }

      .cls-46 {
        stroke-width: 0.504px;
      }

      .cls-47 {
        fill: #f05327;
      }

      .cls-48 {
        stroke: #f05327;
      }

      .cls-49, .cls-50 {
        stroke-width: 0.839px;
      }

      .cls-50 {
        stroke: #f05427;
      }

      .cls-51 {
        letter-spacing: -0.01001em;
      }

      .cls-53 {
        font-size: 30px;
      }

      .cls-55 {
        font-size: 22px;
      }

      .cls-57 {
        letter-spacing: -0.00928em;
      }

      .cls-58 {
        letter-spacing: -0.01709em;
      }

      .cls-59 {
        letter-spacing: -0.01465em;
      }
    </style>
    <clipPath id="clip-path">
      <rect class="cls-1" x="25.301" y="25.26099" width="232.863" height="45.561"/>
    </clipPath>
    <clipPath id="clip-path-2">
      <rect class="cls-1" y="0.00098" width="283.465" height="566.92902"/>
    </clipPath>
    <clipPath id="clip-path-4">
      <rect class="cls-1" x="61.484" y="432.20099" width="40.64" height="45.827"/>
    </clipPath>
    <clipPath id="clip-path-7">
      <rect class="cls-1" x="200.728" y="148.42099" width="57.22501" height="50.35901"/>
    </clipPath>
    <clipPath id="clip-path-9">
      <rect class="cls-1" x="22.677" y="156.57397" width="159.803" height="166.82602"/>
    </clipPath>
    <clipPath id="clip-path-12">
      <rect class="cls-1" x="49.928" y="109.487" width="55.181" height="26.09601"/>
    </clipPath>
  </defs>
  <title>cooling-only-double-duct-air-conditioners</title>
  <line class="cls-2" x1="24.9453" y1="104.49008" x2="258.65628" y2="104.49008"/>
  <rect class="cls-3" x="25.319" y="25.38397" width="67.936" height="45.37402"/>
  <rect class="cls-4" x="95.502" y="25.38397" width="162.662" height="45.37402"/>
  <polygon class="cls-5" points="73.324 40.51 74.784 39.45 72.979 39.45 72.421 37.733 71.863 39.45 70.058 39.45 71.519 40.51 70.961 42.228 72.422 41.167 73.882 42.228 73.324 40.51"/>
  <polygon class="cls-5" points="67.639 35.066 69.099 34.005 67.294 34.005 66.736 32.288 66.178 34.005 64.373 34.005 65.834 35.066 65.276 36.783 66.736 35.722 68.197 36.783 67.639 35.066"/>
  <polygon class="cls-5" points="60.305 33.119 61.766 32.058 59.96 32.058 59.403 30.341 58.844 32.058 57.039 32.058 58.5 33.119 57.942 34.836 59.403 33.775 60.863 34.836 60.305 33.119"/>
  <polygon class="cls-5" points="52.581 35.066 54.041 34.005 52.236 34.005 51.678 32.288 51.12 34.005 49.315 34.005 50.776 35.066 50.218 36.783 51.678 35.722 53.139 36.783 52.581 35.066"/>
  <polygon class="cls-5" points="47.064 40.777 48.524 39.716 46.719 39.716 46.161 37.999 45.603 39.716 43.798 39.716 45.259 40.777 44.701 42.494 46.161 41.433 47.622 42.494 47.064 40.777"/>
  <polygon class="cls-5" points="45.302 48.281 46.762 47.22 44.957 47.22 44.399 45.503 43.841 47.22 42.036 47.22 43.497 48.281 42.939 49.998 44.399 48.937 45.86 49.998 45.302 48.281"/>
  <polygon class="cls-5" points="47.119 55.884 48.58 54.823 46.774 54.823 46.216 53.106 45.658 54.823 43.853 54.823 45.314 55.884 44.756 57.601 46.216 56.54 47.677 57.601 47.119 55.884"/>
  <polygon class="cls-5" points="52.581 61.287 54.041 60.226 52.236 60.226 51.678 58.509 51.12 60.226 49.315 60.226 50.776 61.287 50.218 63.004 51.678 61.943 53.139 63.004 52.581 61.287"/>
  <polygon class="cls-5" points="60.305 63.299 61.765 62.238 59.96 62.238 59.402 60.521 58.844 62.238 57.039 62.238 58.5 63.299 57.942 65.016 59.403 63.955 60.863 65.016 60.305 63.299"/>
  <polygon class="cls-5" points="67.819 61.259 69.28 60.198 67.474 60.198 66.916 58.481 66.358 60.198 64.553 60.198 66.013 61.259 65.456 62.976 66.916 61.915 68.377 62.976 67.819 61.259"/>
  <polygon class="cls-5" points="73.285 55.835 74.745 54.774 72.94 54.774 72.382 53.057 71.824 54.774 70.019 54.774 71.48 55.835 70.921 57.552 72.383 56.491 73.843 57.552 73.285 55.835"/>
  <polygon class="cls-5" points="75.298 48.176 76.757 47.115 74.952 47.115 74.394 45.398 73.837 47.115 72.031 47.115 73.493 48.176 72.934 49.893 74.396 48.832 75.855 49.893 75.298 48.176"/>
  <polygon class="cls-6" points="115.204 43.903 107.916 43.903 107.916 49.584 116.065 49.584 116.065 52.482 104.387 52.482 104.387 33.143 115.634 33.143 115.634 36.041 107.916 36.041 107.916 41.034 115.204 41.034 115.204 43.903"/>
  <g class="cls-7">
    <path class="cls-6" d="M120.5985,52.48157v-19.339h4.017l4.992,8.292a53.33956,53.33956,0,0,1,3.3,6.48505h.057c-.229-2.582-.315-5.079-.315-8.034v-6.743h3.27v19.339h-3.643l-5.05-8.522a63.899,63.899,0,0,1-3.472-6.656l-.086.029c.143,2.496.172,5.049.172,8.234v6.915Z"/>
    <polygon class="cls-6" points="152.246 43.903 144.958 43.903 144.958 49.584 153.107 49.584 153.107 52.482 141.429 52.482 141.429 33.143 152.676 33.143 152.676 36.041 144.958 36.041 144.958 41.034 152.246 41.034 152.246 43.903"/>
    <path class="cls-6" d="M157.639,33.40161a33.45,33.45,0,0,1,5.337-.402c2.783,0,4.677.459,5.968,1.549a4.89684,4.89684,0,0,1,1.664,3.874,5.15873,5.15873,0,0,1-3.5,4.849v.086c1.377.51606,2.209,1.86506,2.697,3.73a38.47768,38.47768,0,0,0,1.521,5.394h-3.644a27.20969,27.20969,0,0,1-1.291-4.562c-.546-2.525-1.464-3.328-3.472-3.386H161.14v7.948h-3.501Zm3.501,8.55h2.094c2.382,0,3.874-1.26294,3.874-3.185,0-2.123-1.492-3.099-3.788-3.099a10.05384,10.05384,0,0,0-2.18.173Z"/>
    <path class="cls-6" d="M190.8932,51.592a19.15844,19.15844,0,0,1-6.226,1.09c-3.271,0-5.739-.832-7.575-2.582a9.57938,9.57938,0,0,1-2.697-7.116c0-6.111,4.361-10.042,10.76-10.042a12.83359,12.83359,0,0,1,5.135.918l-.775,2.841a10.41069,10.41069,0,0,0-4.389-.832c-4.132,0-7.03,2.439-7.03,6.943,0,4.39,2.697,7.001,6.714,7.001a6.7609,6.7609,0,0,0,2.669-.402v-4.82h-3.415V41.808h6.829Z"/>
    <path class="cls-6" d="M104.0397,60.37042c.033.904.795,1.294,1.656,1.294a4.33568,4.33568,0,0,0,1.491-.226l.199.873a5.39817,5.39817,0,0,1-1.878.318,2.46849,2.46849,0,0,1-2.771-2.536,2.55326,2.55326,0,0,1,2.628-2.691,2.2264,2.2264,0,0,1,2.319,2.434,2.80272,2.80272,0,0,1-.045.534Zm2.363-.883a1.09888,1.09888,0,0,0-1.115-1.222,1.27685,1.27685,0,0,0-1.248,1.222Z"/>
    <polygon class="cls-6" points="110.178 57.516 110.178 59.426 112.254 59.426 112.254 57.516 113.612 57.516 113.612 62.517 112.254 62.517 112.254 60.411 110.178 60.411 110.178 62.517 108.82 62.517 108.82 57.516 110.178 57.516"/>
    <path class="cls-6" d="M116.07269,60.37042c.034.904.795,1.294,1.657,1.294a4.32951,4.32951,0,0,0,1.49-.226l.199.873a5.39191,5.39191,0,0,1-1.877.318,2.46882,2.46882,0,0,1-2.772-2.536,2.55326,2.55326,0,0,1,2.628-2.691,2.2264,2.2264,0,0,1,2.319,2.434,2.9099,2.9099,0,0,1-.044.534Zm2.363-.883a1.09889,1.09889,0,0,0-1.115-1.222,1.27686,1.27686,0,0,0-1.248,1.222Z"/>
    <path class="cls-6" d="M120.8642,59.1788c0-.657-.022-1.19-.044-1.663h1.192l.067.77h.022a2.14226,2.14226,0,0,1,1.843-.883,2.33337,2.33337,0,0,1,2.264,2.547,2.45243,2.45243,0,0,1-2.451,2.679,1.81645,1.81645,0,0,1-1.513-.667h-.022v2.587h-1.358Zm1.358,1.243a1.20725,1.20725,0,0,0,1.236,1.232c.862,0,1.37-.667,1.37-1.653,0-.883-.464-1.602-1.336-1.602a1.24674,1.24674,0,0,0-1.215.935,1.068,1.068,0,0,0-.055.318Z"/>
    <polygon class="cls-6" points="130.922 57.516 130.922 58.512 128.725 58.512 128.725 62.517 127.366 62.517 127.366 57.516 130.922 57.516"/>
    <path class="cls-6" d="M133.08521,57.51578v1.797c0,.791-.033,1.324-.077,2.023h.033c.287-.586.453-.955.729-1.479l1.325-2.341h1.645v5.001h-1.292v-1.787c0-.801.033-1.171.088-2.115h-.044c-.265.595-.441.955-.707,1.437-.419.739-.905,1.643-1.369,2.465h-1.623v-5.001Z"/>
    <path class="cls-6" d="M142.65678,62.5162h-1.347v-1.981h-.508a1.0966,1.0966,0,0,0-.828.328,3.19155,3.19155,0,0,0-.662,1.242,3.79862,3.79862,0,0,1-.21.411h-1.458a2.51662,2.51662,0,0,0,.331-.554,4.19246,4.19246,0,0,1,.806-1.438,1.30778,1.30778,0,0,1,.641-.339v-.03c-.641-.062-1.402-.452-1.402-1.232a1.2596,1.2596,0,0,1,.828-1.161,4.6844,4.6844,0,0,1,1.899-.318,15.44149,15.44149,0,0,1,1.91.113Zm-1.347-4.22a3.83108,3.83108,0,0,0-.674-.051c-.596,0-1.203.195-1.203.749,0,.524.673.75,1.203.75.321,0,.497,0,.674-.01Z"/>
    <path class="cls-6" d="M147.0611,60.64771a.78806.78806,0,0,1-.828-.811.79716.79716,0,0,1,.839-.811.81146.81146,0,1,1,0,1.622Z"/>
    <path class="cls-6" d="M152.415,59.8262c-.64-.164-.994-.555-.994-1.047,0-.678.729-1.376,2.264-1.376a3.39348,3.39348,0,0,1,1.723.38l-.254.811a3.0622,3.0622,0,0,0-1.303-.298c-.652,0-1.061.247-1.061.596,0,.4.542.564,1.347.575h.586v.841h-.596c-.862.011-1.513.175-1.513.657,0,.473.585.719,1.247.719a3.841,3.841,0,0,0,1.513-.349l.199.842a4.39149,4.39149,0,0,1-2.043.452c-1.137,0-2.363-.4-2.363-1.53a1.36424,1.36424,0,0,1,1.248-1.232Z"/>
    <path class="cls-6" d="M157.3606,57.51578l.861,2.536c.155.442.254.842.387,1.274h.044a8.53717,8.53717,0,0,0,1.126-3.379v-.431h1.27a2.05183,2.05183,0,0,1,.033.38c0,1.417-.971,3.091-1.954,4.621h-1.314l-1.911-5.001Z"/>
    <path class="cls-6" d="M162.9355,59.8262c-.64-.164-.994-.555-.994-1.047,0-.678.729-1.376,2.264-1.376a3.39348,3.39348,0,0,1,1.723.38l-.254.811a3.06341,3.06341,0,0,0-1.304-.298c-.651,0-1.06.247-1.06.596,0,.4.542.564,1.347.575h.586v.841h-.596c-.862.011-1.513.175-1.513.657,0,.473.585.719,1.247.719a3.841,3.841,0,0,0,1.513-.349l.199.842a4.39149,4.39149,0,0,1-2.043.452c-1.137,0-2.363-.4-2.363-1.53a1.36424,1.36424,0,0,1,1.248-1.232Z"/>
    <path class="cls-6" d="M168.3671,62.03381v.708a12.72324,12.72324,0,0,0,.077,1.807h-1.314a8.67179,8.67179,0,0,1-.121-1.786v-2.29a2.81009,2.81009,0,0,1,.916-2.413,2.68924,2.68924,0,0,1,1.833-.657,2.42651,2.42651,0,0,1,2.573,2.567,2.47713,2.47713,0,0,1-2.484,2.66,1.79713,1.79713,0,0,1-1.458-.596Zm0-1.499a1.58528,1.58528,0,0,0,.033.328,1.25162,1.25162,0,0,0,1.192.791c.862,0,1.358-.708,1.358-1.653,0-.883-.474-1.561-1.28-1.561-.685,0-1.303.555-1.303,1.705Z"/>
    <path class="cls-6" d="M174.6264,64.54919a10.57172,10.57172,0,0,0-.188-2.885,13.46449,13.46449,0,0,0-1.877-4.148h1.524a11.63289,11.63289,0,0,1,1.436,3.635h.044a7.77125,7.77125,0,0,0,1.016-3.235c0-.195-.012-.298-.012-.4h1.293a2.00733,2.00733,0,0,1,.021.37,8.49949,8.49949,0,0,1-1.899,4.404.39972.39972,0,0,0-.066.247c.022.503.022,1.324.033,2.012Z"/>
    <path class="cls-6" d="M179.71539,59.8262c-.64-.164-.994-.555-.994-1.047,0-.678.729-1.376,2.264-1.376a3.38679,3.38679,0,0,1,1.722.38l-.254.811a3.05714,3.05714,0,0,0-1.302-.298c-.652,0-1.061.247-1.061.596,0,.4.542.564,1.347.575h.586v.841h-.596c-.862.011-1.513.175-1.513.657,0,.473.585.719,1.247.719a3.841,3.841,0,0,0,1.513-.349l.199.842a4.39149,4.39149,0,0,1-2.043.452c-1.137,0-2.363-.4-2.363-1.53a1.36424,1.36424,0,0,1,1.248-1.232Z"/>
    <path class="cls-6" d="M185.1916,61.1098c0,.41.132.575.508.555l-.077.882a1.77808,1.77808,0,0,1-.586.082c-.728,0-1.214-.287-1.214-1.396v-3.717h1.369Z"/>
    <path class="cls-6" d="M191.684,57.51572c-.067.678-.155,2.218-.155,3.409,0,.565.188.76.519.75l-.088.893a1.72792,1.72792,0,0,1-.475.062.99831.99831,0,0,1-1.049-.976h-.033a2.00733,2.00733,0,0,1-1.778.976,2.27872,2.27872,0,0,1-2.22-2.516,2.55816,2.55816,0,0,1,2.43-2.711,1.66714,1.66714,0,0,1,1.546.873h.044c.033-.308.077-.544.121-.76Zm-3.898,2.557c0,.842.464,1.55,1.204,1.55a1.34987,1.34987,0,0,0,1.192-1.078,3.25951,3.25951,0,0,0,.044-.585,2.08105,2.08105,0,0,0-.033-.472,1.23167,1.23167,0,0,0-1.137-1.109c-.762,0-1.27.749-1.27,1.684Z"/>
    <path class="cls-6" d="M198.2374,37.24731a9.8455,9.8455,0,1,1,9.846,9.845,9.84552,9.84552,0,0,1-9.846-9.845"/>
    <path class="cls-4" d="M207.41209,40.93762v-3.394l-2.573-4.747h1.691l.979,2.09c.277.603.483,1.063.7,1.618h.024c.206-.519.435-1.027.713-1.618l.978-2.09h1.679l-2.705,4.711v3.43Z"/>
    <path class="cls-6" d="M220.88879,37.24731a9.8455,9.8455,0,1,1,9.846,9.845,9.84553,9.84553,0,0,1-9.846-9.845"/>
    <path class="cls-6" d="M198.2374,59.07809a9.8455,9.8455,0,1,1,9.846,9.845,9.84636,9.84636,0,0,1-9.846-9.845"/>
    <rect class="cls-4" x="204.332" y="54.62799" width="1.48599" height="8.14099"/>
    <polygon class="cls-4" points="212.074 59.157 209.006 59.157 209.006 61.548 212.437 61.548 212.437 62.769 207.521 62.769 207.521 54.627 212.255 54.627 212.255 55.847 209.006 55.847 209.006 57.949 212.074 57.949 212.074 59.157"/>
    <path class="cls-6" d="M220.88879,59.07809a9.8455,9.8455,0,1,1,9.846,9.845,9.84636,9.84636,0,0,1-9.846-9.845"/>
    <rect class="cls-4" x="223.884" y="32.797" width="1.48599" height="8.14099"/>
    <path class="cls-4" d="M228.69209,32.79651h1.486v5.278c0,2.247-1.087,2.996-2.706,2.996a3.95621,3.95621,0,0,1-1.244-.193l.181-1.196a3.26939,3.26939,0,0,0,.918.145c.846,0,1.365-.387,1.365-1.8Z"/>
    <path class="cls-4" d="M233.44009,38.63031l-.701,2.307h-1.534l2.61-8.14106h1.896l2.645,8.14106h-1.594l-.737-2.307Zm2.331-1.123-.64-2.00494c-.157-.49506-.29-1.051-.411-1.522h-.024c-.121.471-.242,1.039-.386,1.522l-.629,2.00494Z"/>
    <rect class="cls-4" x="226.25201" y="54.62799" width="1.48599" height="8.14099"/>
    <path class="cls-4" d="M231.07259,60.4621l-.701,2.307h-1.534l2.609-8.141h1.897l2.645,8.141h-1.595l-.737-2.307Zm2.331-1.123-.64-2.005c-.158-.496-.291-1.051-.411-1.522h-.025c-.12.471-.241,1.038-.386,1.522l-.628,2.005Z"/>
  </g>
  <text class="cls-8" transform="translate(24.94531 540.85089)">626/2011</text>
  <text class="cls-9" transform="translate(64.7251 540.85089)"> </text>
  <g class="cls-10">
    <path class="cls-11" d="M26.371,16.45062s-9.921,0-9.921,9.921v514.187s0,9.92206,9.921,9.92206H257.094s9.921,0,9.921-9.92206V26.37164s0-9.921-9.921-9.921Z"/>
    <path class="cls-12" d="M156.0894,345.62869s-9.53,0-9.53,9.53v56.195s0,9.53,9.53,9.53h88.652s9.53,0,9.53-9.53v-56.195s0-9.53-9.53-9.53Z"/>
  </g>
  <text class="cls-13" transform="translate(190.0625 401.05011)"><tspan class="cls-14">E</tspan><tspan x="6.55566" y="0">E</tspan></text>
  <text class="cls-13" transform="translate(203.16699 401.05011)">R</text>
  <text class="cls-15" transform="translate(24.56689 524.12335)">* Минута</text>
  <text class="cls-15" transform="translate(52.37793 524.12335)"><tspan xml:space="preserve"> · </tspan></text>
  <text class="cls-15" transform="translate(57.31299 524.12335)">pe</text>
  <text class="cls-15" transform="translate(64.47363 524.12335)">r</text>
  <text class="cls-15" transform="translate(66.81885 524.12335)">c</text>
  <text class="cls-15" transform="translate(69.77295 524.12335)"><tspan xml:space="preserve"> · </tspan></text>
  <text class="cls-15" transform="translate(74.70801 524.12335)">Λεπ</text>
  <text class="cls-15" transform="translate(85.7749 524.12335)">τ</text>
  <text class="cls-15" transform="translate(88.44873 524.12335)">ά</text>
  <g class="cls-10">
    <path class="cls-12" d="M39.0397,427.69209s-9.53,0-9.53,9.53v56.195s0,9.53,9.53,9.53h88.652s9.53,0,9.53-9.53v-56.195s0-9.53-9.53-9.53Z"/>
  </g>
  <g class="cls-16">
    <polygon class="cls-17" points="62.895 471.933 62.895 477.11 101.599 477.11 101.599 450.36 82.246 432.727 62.895 450.36 62.895 471.933"/>
    <path class="cls-18" d="M72.5904,465.2104q-1.6005-1.4265-3.197-2.852h-2.28v-4.555h2.28q1.59752-1.425,3.197-2.851l1.322-1.178v12.616Z"/>
    <path class="cls-19" d="M72.1865,464.21389q-1.2885-1.1505-2.575-2.297h-1.836v-3.671h1.836q1.2855-1.146,2.575-2.296l1.066-.949v10.162Z"/>
    <path class="cls-20" d="M72.1865,464.21389q-1.2885-1.1505-2.575-2.297h-1.836v-3.671h1.836q1.2855-1.146,2.575-2.296l1.066-.949v10.162Z"/>
    <path class="cls-21" d="M84.21159,448.0467a21.92972,21.92972,0,0,1,.039,24.07m-4.004-20.751a15.085,15.085,0,0,1,.05,17.401m-3.871-14.112a8.51017,8.51017,0,0,1,.071,10.794"/>
    <polygon class="cls-17" points="62.895 524.848 62.895 530.025 101.599 530.025 101.599 503.275 82.246 485.642 62.895 503.275 62.895 524.848"/>
    <path class="cls-22" d="M56.0632,520.55509q1.683-1.5015,3.366-3.002h2.4v-4.796h-2.4q-1.6815-1.49852-3.366-3.003l-1.393-1.24v13.283Z"/>
    <path class="cls-19" d="M56.4883,519.50569q1.3575-1.209,2.711-2.418h1.934v-3.865h-1.934c-.903-.804-1.806-1.613-2.711-2.417l-1.122-1v10.699Z"/>
    <path class="cls-20" d="M56.4883,519.50569q1.3575-1.209,2.711-2.418h1.934v-3.865h-1.934c-.903-.804-1.806-1.613-2.711-2.417l-1.122-1v10.699Z"/>
    <path class="cls-21" d="M43.7853,527.82759a23.09343,23.09343,0,0,1,.042-25.343m4.122,21.816a15.87817,15.87817,0,0,1,.054-18.321m3.946,14.827a8.96414,8.96414,0,0,1,.075-11.365"/>
  </g>
  <text class="cls-13" transform="translate(86.18164 496.03741)">d</text>
  <text class="cls-13" transform="translate(93.40576 496.03741)">B</text>
  <g class="cls-10">
    <path class="cls-12" d="M156.01961,427.72409s-9.53,0-9.53,9.53v56.195s0,9.53,9.53,9.53h88.652s9.53,0,9.53-9.53v-56.195s0-9.53-9.53-9.53Z"/>
  </g>
  <text class="cls-13" transform="translate(163.83203 482.01886)">k</text>
  <text class="cls-13" transform="translate(170.08984 482.01886)">W</text>
  <text class="cls-13" transform="translate(182.46582 482.01886)">h</text>
  <text class="cls-13" transform="translate(189.66211 482.01886)">/</text>
  <text class="cls-13" transform="translate(194.63184 482.01886)"><tspan class="cls-23">6</tspan><tspan x="7.22168" y="0">0</tspan></text>
  <text class="cls-13" transform="translate(209.08008 482.01886)">m</text>
  <text class="cls-13" transform="translate(220.12598 482.01886)">i</text>
  <text class="cls-13" transform="translate(223.21973 482.01886)">n</text>
  <text class="cls-13" transform="translate(229.94043 482.01886)">*</text>
  <g class="cls-10">
    <path class="cls-12" d="M39.0397,345.62869s-9.53,0-9.53,9.53v56.195s0,9.53,9.53,9.53h88.652s9.53,0,9.53-9.53v-56.195s0-9.53-9.53-9.53Z"/>
  </g>
  <text class="cls-13" transform="translate(74.01416 399.92413)">k</text>
  <text class="cls-13" transform="translate(80.27197 399.92413)">W</text>
  <g class="cls-24">
    <text class="cls-25" transform="translate(207.54395 130.73126)"><tspan xml:space="preserve"> A</tspan></text>
    <text class="cls-26" transform="translate(231.49902 119.33624)">++<tspan class="cls-27" x="14.31641" y="0">+</tspan></text>
    <text class="cls-28" transform="translate(253.01367 119.33624)">+</text>
  </g>
  <g class="cls-24">
    <text class="cls-25" transform="translate(207.54395 232.79132)"><tspan xml:space="preserve"> A</tspan></text>
    <text class="cls-28" transform="translate(231.49902 221.41583)">+</text>
    <text class="cls-28" transform="translate(238.6709 221.41583)">+</text>
    <text class="cls-25" transform="translate(207.54395 283.82159)"><tspan xml:space="preserve"> A</tspan></text>
    <text class="cls-28" transform="translate(231.49902 272.42609)">+</text>
    <text class="cls-25" transform="translate(207.54395 334.85187)"><tspan xml:space="preserve"> A</tspan></text>
    <text class="cls-25" transform="translate(207.54395 385.88507)"><tspan xml:space="preserve"> B</tspan></text>
    <text class="cls-25" transform="translate(207.54395 436.91925)"><tspan xml:space="preserve"> C</tspan></text>
    <text class="cls-25" transform="translate(207.54395 487.95245)"><tspan xml:space="preserve"> D</tspan></text>
    <text class="cls-25" transform="translate(207.54395 538.98566)"><tspan xml:space="preserve"> E</tspan></text>
    <text class="cls-25" transform="translate(207.54395 590.01886)"><tspan xml:space="preserve"> F</tspan></text>
  </g>
  <rect class="cls-6" x="22.677" y="156.57397" width="159.803" height="166.82602"/>
  <polygon class="cls-5" points="25.545 232.977 25.545 252.669 137.568 252.669 147.32 242.823 137.568 232.977 25.545 232.977"/>
  <polygon class="cls-29" points="25.545 209.591 25.545 229.283 126.209 229.283 135.963 219.437 126.209 209.591 25.545 209.591"/>
  <polygon class="cls-30" points="25.545 186.206 25.545 205.897 114.854 205.897 124.608 196.052 114.854 186.206 25.545 186.206"/>
  <polygon class="cls-31" points="25.545 162.821 25.545 182.512 106.047 182.512 115.801 172.667 106.047 162.821 25.545 162.821"/>
  <polygon class="cls-32" points="25.545 256.355 25.545 276.046 149.188 276.046 158.951 266.201 149.188 256.355 25.545 256.355"/>
  <polygon class="cls-33" points="25.545 279.732 25.545 299.425 160.537 299.425 170.305 289.579 160.537 279.732 25.545 279.732"/>
  <polygon class="cls-34" points="25.545 303.111 25.545 322.801 171.887 322.801 181.656 312.955 171.887 303.111 25.545 303.111"/>
  <g class="cls-35">
    <path class="cls-6" d="M266.60767,245.71393l-.863,3.131h-2.842l3.705-12.201h3.597l3.762,12.201h-2.953l-.934-3.131Zm3.076-2.064-.756-2.589c-.217-.724-.432-1.63-.611-2.353h-.035c-.18.723-.362,1.647-.559,2.353l-.719,2.589Z"/>
    <path class="cls-6" d="M262.9921,260.2114a21.73041,21.73041,0,0,1,3.545-.253,6.64942,6.64942,0,0,1,3.58.688,2.65893,2.65893,0,0,1,1.457,2.389,2.75877,2.75877,0,0,1-1.996,2.608v.036a3.04776,3.04776,0,0,1,2.408,3.006,3.26065,3.26065,0,0,1-1.257,2.589c-.881.706-2.358,1.104-4.768,1.104a21.01327,21.01327,0,0,1-2.969-.182Zm2.717,4.671h.898c1.442,0,2.215-.598,2.215-1.502,0-.924-.703-1.412-1.943-1.412a7.361,7.361,0,0,0-1.17.072Zm0,5.413a8.20694,8.20694,0,0,0,1.063.038c1.24,0,2.337-.489,2.337-1.756,0-1.234-1.097-1.72-2.464-1.72h-.936Z"/>
    <path class="cls-6" d="M271.95709,295.312a7.66982,7.66982,0,0,1-3.113.545c-4.194,0-6.35-2.643-6.35-6.12,0-4.163,2.949-6.481,6.619-6.481a7.14344,7.14344,0,0,1,2.987.542l-.559,2.192a5.886,5.886,0,0,0-2.303-.454,4.01284,4.01284,0,0,0,.018,8.021,6.83067,6.83067,0,0,0,2.285-.398Z"/>
    <path class="cls-6" d="M262.21689,307.022a24.60906,24.60906,0,0,1,3.705-.252,7.75454,7.75454,0,0,1,4.965,1.304,5.40565,5.40565,0,0,1,2.051,4.596,6.19824,6.19824,0,0,1-2.014,4.943,8.66056,8.66056,0,0,1-5.594,1.576,23.47915,23.47915,0,0,1-3.113-.182Zm2.752,9.958a4.869,4.869,0,0,0,.953.056c2.485.017,4.102-1.36,4.102-4.275a3.48743,3.48743,0,0,0-3.813-3.873,5.56618,5.56618,0,0,0-1.242.109Z"/>
    <polygon class="cls-6" points="269.371 337.206 264.908 337.206 264.908 340.104 269.892 340.104 269.892 342.366 262.158 342.366 262.158 330.163 269.641 330.163 269.641 332.428 264.908 332.428 264.908 334.963 269.371 334.963 269.371 337.206"/>
    <polygon class="cls-6" points="262.658 353.569 270.07 353.569 270.07 355.834 265.41 355.834 265.41 358.62 269.763 358.62 269.763 360.867 265.41 360.867 265.41 365.771 262.658 365.771 262.658 353.569"/>
    <path class="cls-6" d="M273.211,388.5141a13.50014,13.50014,0,0,1-4.049.688,6.73078,6.73078,0,0,1-4.93-1.649,5.92707,5.92707,0,0,1-1.709-4.435c.018-4.055,2.952-6.373,6.926-6.373a8.29088,8.29088,0,0,1,3.364.598l-.575,2.209a6.67529,6.67529,0,0,0-2.824-.524,3.9756,3.9756,0,1,0,1.152,7.766v-2.554h-1.873v-2.154h4.518Z"/>
  </g>
  <g class="cls-35">
    <text class="cls-36" transform="translate(258.58984 156.04376)"><tspan xml:space="preserve"> A</tspan></text>
    <text class="cls-37" transform="translate(274.47461 150.98907)">-80%</text>
    <text class="cls-36" transform="translate(258.58984 179.60333)"><tspan xml:space="preserve"> A</tspan></text>
    <text class="cls-37" transform="translate(274.47461 174.54669)">-60%</text>
    <text class="cls-36" transform="translate(258.58984 203.31134)"><tspan xml:space="preserve"> A</tspan></text>
    <text class="cls-37" transform="translate(274.47461 198.25372)">-40%</text>
    <text class="cls-36" transform="translate(258.58984 226.32599)"><tspan xml:space="preserve"> A</tspan></text>
    <text class="cls-37" transform="translate(274.47461 221.26886)">-20%</text>
  </g>
  <text class="cls-38" transform="translate(36.3291 178.74689)"><tspan xml:space="preserve"> A</tspan></text>
  <text class="cls-39" transform="translate(50.47363 171.74689)"><tspan class="cls-40">+</tspan><tspan x="4.06445" y="0">+</tspan></text>
  <text class="cls-39" transform="translate(58.61768 171.74689)">+</text>
  <text class="cls-38" transform="translate(36.3291 202.74689)"><tspan xml:space="preserve"> A</tspan></text>
  <text class="cls-39" transform="translate(50.47363 195.74689)">+</text>
  <text class="cls-39" transform="translate(54.54541 195.74689)">+</text>
  <text class="cls-38" transform="translate(35.84619 248.8587)"><tspan xml:space="preserve"> A</tspan></text>
  <text class="cls-38" transform="translate(35.84619 225.0589)"><tspan xml:space="preserve"> A</tspan></text>
  <text class="cls-39" transform="translate(49.99463 218.0506)">+</text>
  <text class="cls-38" transform="translate(36.62598 271.60431)"><tspan xml:space="preserve"> B</tspan></text>
  <text class="cls-38" transform="translate(36.81299 294.7923)"><tspan xml:space="preserve"> C</tspan></text>
  <text class="cls-38" transform="translate(36.81299 318.04816)"><tspan xml:space="preserve"> D</tspan></text>
  <g class="cls-35">
    <text class="cls-38" transform="translate(36.43896 341.5423)"><tspan xml:space="preserve"> E</tspan></text>
    <text class="cls-38" transform="translate(36.43896 364.78156)"><tspan xml:space="preserve"> F</tspan></text>
    <text class="cls-38" transform="translate(36.43896 388.46222)"><tspan xml:space="preserve"> G</tspan></text>
  </g>
  <g class="cls-41">
    <path class="cls-42" d="M51.7383,122.33368a11.5475,11.5475,0,1,1,11.547,11.551,11.54752,11.54752,0,0,1-11.547-11.551"/>
    <path class="cls-43" d="M51.7383,122.33368a11.5475,11.5475,0,1,1,11.547,11.551A11.54752,11.54752,0,0,1,51.7383,122.33368Z"/>
    <path class="cls-44" d="M65.1806,122.56519s-.83-.003-2.133,1.889a2.95755,2.95755,0,0,1-.055,2.943c-.551.897-2.16,2.423-1.434,3.772,1.057,1.962,8.166.025,8.753-3.32.754-4.3-3.169-5.36-5.131-5.284"/>
    <path class="cls-45" d="M65.1806,122.56519s-.83-.003-2.133,1.889a2.95755,2.95755,0,0,1-.055,2.943c-.551.897-2.16,2.423-1.434,3.772,1.057,1.962,8.166.025,8.753-3.32C71.0656,123.54919,67.1426,122.4892,65.1806,122.56519Z"/>
    <path class="cls-44" d="M61.3369,123.6377a5.018,5.018,0,0,0,.183-2.843,2.95712,2.95712,0,0,1-2.035-2.127c-.241-1.025-.283-2.978-1.641-3.687-1.944-1.015-5.716,5.625-3.871,8.523,2.23,3.5,6.025,1.57,7.364.134"/>
    <path class="cls-45" d="M61.3369,123.6377a5.018,5.018,0,0,0,.183-2.843,2.95712,2.95712,0,0,1-2.035-2.127c-.241-1.025-.283-2.978-1.641-3.687-1.944-1.015-5.716,5.625-3.871,8.523C56.2029,127.00372,59.9979,125.0737,61.3369,123.6377Z"/>
    <path class="cls-44" d="M62.5562,120.222s.436.761,2.642,1.068a2.9522,2.9522,0,0,1,2.658-1.262c1.049.092,3.247.926,4.016-.398,1.382-2.378-3.447-7.098-6.872-6.356-4.056.879-3.386,5.225-2.444,6.948"/>
    <path class="cls-45" d="M62.5562,120.222s.436.761,2.642,1.068a2.9522,2.9522,0,0,1,2.658-1.262c1.049.092,3.247.926,4.016-.398,1.382-2.378-3.447-7.098-6.872-6.356C60.94419,114.153,61.6142,118.499,62.5562,120.222Z"/>
    <path class="cls-42" d="M61.1654,122.33368a2.1205,2.1205,0,1,1,2.12,2.121,2.11981,2.11981,0,0,1-2.12-2.121"/>
    <path class="cls-46" d="M61.1654,122.33368a2.1205,2.1205,0,1,1,2.12,2.121A2.11981,2.11981,0,0,1,61.1654,122.33368Z"/>
    <path class="cls-47" d="M51.7383,158.15659a11.5475,11.5475,0,1,1,11.547,11.551,11.54751,11.54751,0,0,1-11.547-11.551"/>
    <path class="cls-48" d="M51.7383,158.15659a11.5475,11.5475,0,1,1,11.547,11.551A11.54751,11.54751,0,0,1,51.7383,158.15659Z"/>
    <path class="cls-44" d="M65.1806,158.38809s-.83-.003-2.133,1.889a2.956,2.956,0,0,1-.056,2.943c-.55.897-2.159,2.423-1.433,3.772,1.056,1.962,8.166.025,8.753-3.32.754-4.3-3.169-5.36-5.131-5.284"/>
    <path class="cls-45" d="M65.1806,158.38809s-.83-.003-2.133,1.889a2.956,2.956,0,0,1-.056,2.943c-.55.897-2.159,2.423-1.433,3.772,1.056,1.962,8.166.025,8.753-3.32C71.0656,159.3721,67.1426,158.3121,65.1806,158.38809Z"/>
    <path class="cls-44" d="M61.3368,159.4606a5.018,5.018,0,0,0,.183-2.843,2.95492,2.95492,0,0,1-2.034-2.127c-.242-1.025-.284-2.978-1.642-3.687-1.944-1.015-5.716,5.625-3.871,8.523,2.23,3.5,6.025,1.57,7.364.134"/>
    <path class="cls-45" d="M61.3368,159.4606a5.018,5.018,0,0,0,.183-2.843,2.95492,2.95492,0,0,1-2.034-2.127c-.242-1.025-.284-2.978-1.642-3.687-1.944-1.015-5.716,5.625-3.871,8.523C56.2028,162.82663,59.9978,160.89661,61.3368,159.4606Z"/>
    <path class="cls-44" d="M62.5562,156.04489s.436.761,2.642,1.068a2.953,2.953,0,0,1,2.659-1.262c1.048.092,3.246.926,4.016-.398,1.381-2.378-3.448-7.098-6.873-6.356-4.056.879-3.386,5.225-2.444,6.948"/>
    <path class="cls-45" d="M62.5562,156.04489s.436.761,2.642,1.068a2.953,2.953,0,0,1,2.659-1.262c1.048.092,3.246.926,4.016-.398,1.381-2.378-3.448-7.098-6.873-6.356C60.94419,149.97592,61.6142,154.3219,62.5562,156.04489Z"/>
    <path class="cls-47" d="M61.1654,158.15659a2.1205,2.1205,0,1,1,2.12,2.121,2.11981,2.11981,0,0,1-2.12-2.121"/>
    <path class="cls-46" d="M61.1654,158.15659a2.1205,2.1205,0,1,1,2.12,2.121A2.11981,2.11981,0,0,1,61.1654,158.15659Z"/>
    <path class="cls-49" d="M104.1649,116.6937s-7.715-3.645-13.224-.016c-5.509,3.628-13.225.016-13.225.016"/>
    <polyline class="cls-49" points="102.778 115.044 104.68 116.694 102.45 117.292"/>
    <path class="cls-49" d="M104.1649,120.2916s-7.715-3.645-13.224-.016c-5.509,3.628-13.225.016-13.225.016"/>
    <polyline class="cls-49" points="102.778 118.642 104.68 120.292 102.45 120.89"/>
    <path class="cls-49" d="M104.1649,123.8895s-7.715-3.645-13.224-.016c-5.509,3.628-13.225.016-13.225.016"/>
    <polyline class="cls-49" points="102.778 122.24 104.68 123.89 102.45 124.488"/>
    <path class="cls-49" d="M104.1649,127.4874s-7.715-3.645-13.224-.016c-5.509,3.628-13.225.016-13.225.016"/>
    <polyline class="cls-49" points="102.778 125.838 104.68 127.488 102.45 128.086"/>
    <path class="cls-50" d="M104.1649,153.012s-7.715-3.645-13.224-.016c-5.509,3.628-13.225.016-13.225.016"/>
    <polyline class="cls-50" points="102.778 151.362 104.68 153.012 102.45 153.61"/>
    <path class="cls-50" d="M104.1649,156.51279s-7.715-3.645-13.224-.016c-5.509,3.628-13.225.016-13.225.016"/>
    <polyline class="cls-50" points="102.778 154.863 104.68 156.513 102.45 157.111"/>
    <path class="cls-50" d="M104.1649,160.01358s-7.715-3.645-13.224-.016c-5.509,3.628-13.225.016-13.225.016"/>
    <polyline class="cls-50" points="102.778 158.364 104.68 160.014 102.45 160.612"/>
    <path class="cls-50" d="M104.1738,163.51428s-7.715-3.645-13.224-.016c-5.509,3.628-13.225.016-13.225.016"/>
    <polyline class="cls-50" points="102.787 161.865 104.689 163.515 102.459 164.113"/>
  </g>
  <text class="cls-9" transform="translate(30.0752 125.02618)"><tspan class="cls-51">E</tspan><tspan x="4.78271" y="0">E</tspan></text>
  <text class="cls-9" transform="translate(39.63525 125.02618)">R</text>
  <g id="rating">
    <polyline id="ratingArrow" class="cls-52" points="200.72 172.66 221.87 151.34 257.95 151.34 257.95 194 221.87 194 200.72 172.66"/>
    <text id="ratingLetter" class="cls-53" transform="translate(214.88965 181.15997)">A</text>
    <text id="ratingPlusses" class="cls-54" transform="translate(231.94043 169.11993)">+++</text>
  </g>
  <text id="kw" class="cls-55" transform="translate(83.21338 383.09991)" text-anchor="middle">X</text>
  <text id="eer" class="cls-55" transform="translate(200.56585 384.21027)" text-anchor="middle">X</text>
  <text id="db" class="cls-55" transform="translate(63.2998 496.04034)">99</text>
  <text id="kwhHour" class="cls-55" transform="translate(200.75963 465.18976)" text-anchor="middle">X</text>
  <text class="cls-56" transform="translate(24.91347 515.12354)">ENE<tspan class="cls-57" x="12.97656" y="0">R</tspan><tspan x="17.24609" y="0">GIA · ЕНЕРГИЯ · ΕΝΕΡΓΕΙΑ · ENE</tspan><tspan class="cls-57" x="119.75" y="0">R</tspan><tspan x="124.01953" y="0">GI</tspan><tspan class="cls-58" x="131.08203" y="0">J</tspan><tspan x="133.49609" y="0">A · ENE</tspan><tspan class="cls-57" x="156.73828" y="0">R</tspan><tspan class="cls-59" x="161.00781" y="0">G</tspan><tspan x="165.9375" y="0">Y · ENE</tspan><tspan class="cls-57" x="188.44922" y="0">R</tspan><tspan x="192.71875" y="0">GIE · ENE</tspan><tspan class="cls-57" x="222.30078" y="0">R</tspan><tspan x="226.57031" y="0">GI</tspan></text>
  <text id="supplierLine2" class="cls-13" transform="translate(25.20024 101.37008)">X</text>
  <text id="supplierLine1" class="cls-13" transform="translate(25.20024 87.07858)">X</text>
  <text id="modelLine2" class="cls-13" transform="translate(144.57035 101.37008)">X</text>
  <text id="modelLine1" class="cls-13" transform="translate(144.57035 87.07858)">X</text>
</svg>
