<svg xmlns="http://www.w3.org/2000/svg" xmlns:xlink="http://www.w3.org/1999/xlink" id="Layer_1" data-name="Layer 1" width="100mm" height="200mm" viewBox="0 0 283.45999 566.92999" data-rating-increment="23.2333" data-supplier-model-chars-per-row="15">
  <defs>
    <style>
      .cls-1, .cls-11, .cls-12, .cls-17, .cls-18, .cls-2, .cls-20, .cls-21, .cls-22, .cls-43, .cls-45, .cls-46, .cls-48, .cls-49, .cls-50 {
        fill: none;
      }

      .cls-11, .cls-12, .cls-17, .cls-2, .cls-21 {
        stroke: #00aeef;
      }

      .cls-2 {
        stroke-width: 0.911px;
      }

      .cls-3 {
        fill: #034ea2;
      }

      .cls-4 {
        fill: #00aeef;
      }

      .cls-5 {
        fill: #fff200;
      }

      .cls-25, .cls-26, .cls-28, .cls-36, .cls-37, .cls-38, .cls-39, .cls-53, .cls-54, .cls-6 {
        fill: #fff;
      }

      .cls-7 {
        clip-path: url(#clip-path);
      }

      .cls-8, .cls-9 {
        font-size: 10px;
      }

      .cls-13, .cls-15, .cls-52, .cls-55, .cls-56, .cls-8, .cls-9 {
        fill: #231f20;
      }

      .cls-25, .cls-26, .cls-28, .cls-36, .cls-37, .cls-38, .cls-39, .cls-53, .cls-55, .cls-8 {
        font-family: Calibri-Bold, Calibri;
        font-weight: 700;
      }

      .cls-13, .cls-15, .cls-54, .cls-56, .cls-9 {
        font-family: Calibri;
      }

      .cls-10 {
        clip-path: url(#clip-path-2);
      }

      .cls-11 {
        stroke-width: 5px;
      }

      .cls-12 {
        stroke-width: 2px;
      }

      .cls-13, .cls-54 {
        font-size: 14px;
      }

      .cls-14 {
        letter-spacing: -0.02002em;
      }

      .cls-15 {
        font-size: 7px;
      }

      .cls-16 {
        clip-path: url(#clip-path-4);
      }

      .cls-17, .cls-21, .cls-49, .cls-50 {
        stroke-linecap: round;
      }

      .cls-17, .cls-21, .cls-45, .cls-49, .cls-50 {
        stroke-linejoin: round;
      }

      .cls-17 {
        stroke-width: 1.052px;
      }

      .cls-18, .cls-22, .cls-46 {
        stroke: #fff;
      }

      .cls-18 {
        stroke-width: 0.918px;
      }

      .cls-19 {
        fill: #2aace3;
      }

      .cls-20 {
        stroke: #2aace3;
        stroke-width: 0.739px;
      }

      .cls-21 {
        stroke-width: 1.869px;
      }

      .cls-22 {
        stroke-width: 0.966px;
      }

      .cls-23 {
        letter-spacing: 0.009em;
      }

      .cls-24 {
        clip-path: url(#clip-path-7);
      }

      .cls-25 {
        font-size: 29.2623px;
      }

      .cls-26, .cls-28 {
        font-size: 14.0893px;
      }

      .cls-26 {
        letter-spacing: 0.00998em;
      }

      .cls-27 {
        letter-spacing: -0.00007em;
      }

      .cls-29 {
        fill: #bfd730;
      }

      .cls-30 {
        fill: #50b848;
      }

      .cls-31 {
        fill: #00a651;
      }

      .cls-32 {
        fill: #fdb913;
      }

      .cls-33 {
        fill: #f37021;
      }

      .cls-34 {
        fill: #ed1c24;
      }

      .cls-35 {
        clip-path: url(#clip-path-9);
      }

      .cls-36 {
        font-size: 18px;
      }

      .cls-37 {
        font-size: 12px;
      }

      .cls-38 {
        font-size: 17px;
      }

      .cls-39, .cls-56 {
        font-size: 8px;
      }

      .cls-40 {
        letter-spacing: 0.01001em;
      }

      .cls-41 {
        clip-path: url(#clip-path-12);
      }

      .cls-42 {
        fill: #f05327;
      }

      .cls-43, .cls-49 {
        stroke: #f05327;
      }

      .cls-43, .cls-48 {
        stroke-width: 0.905px;
      }

      .cls-44 {
        fill: #f9f9fa;
      }

      .cls-45 {
        stroke: #f9f9fa;
        stroke-width: 0.699px;
      }

      .cls-46 {
        stroke-width: 0.504px;
      }

      .cls-47 {
        fill: #f05327;
      }

      .cls-48 {
        stroke: #f05327;
      }

      .cls-49, .cls-50 {
        stroke-width: 0.839px;
      }

      .cls-50 {
        stroke: #f05427;
      }

      .cls-51 {
        letter-spacing: -0.01001em;
      }

      .cls-53 {
        font-size: 30px;
      }

      .cls-55 {
        font-size: 22px;
      }

      .cls-57 {
        letter-spacing: -0.00928em;
      }

      .cls-58 {
        letter-spacing: -0.01709em;
      }

      .cls-59 {
        letter-spacing: -0.01465em;
      }
    </style>
    <clipPath id="clip-path">
      <rect class="cls-1" x="25.301" y="25.26099" width="232.863" height="45.561"/>
    </clipPath>
    <clipPath id="clip-path-2">
      <rect class="cls-1" y="0.00098" width="283.465" height="566.92902"/>
    </clipPath>
    <clipPath id="clip-path-4">
      <rect class="cls-1" x="61.484" y="432.20099" width="40.64" height="45.827"/>
    </clipPath>
    <clipPath id="clip-path-7">
      <rect class="cls-1" x="200.728" y="148.42099" width="57.22501" height="50.35901"/>
    </clipPath>
    <clipPath id="clip-path-9">
      <rect class="cls-1" x="22.677" y="156.57397" width="159.803" height="166.82602"/>
    </clipPath>
    <clipPath id="clip-path-12">
      <rect class="cls-1" x="49.928" y="109.487" width="55.181" height="26.09601"/>
    </clipPath>
  </defs>
  <title>cooling-only-double-duct-air-conditioners</title>
  <line class="cls-2" x1="24.9453" y1="104.49008" x2="258.65628" y2="104.49008"/>
  
  <rect class="cls-4" x="95.502" y="25.38397" width="162.662" height="45.37402"/>
  
  
  
  
  
  
  
  
  
  
  
  


  <text class="cls-8" transform="translate(24.94531 540.85089)">626/2011</text>
  <text class="cls-9" transform="translate(64.7251 540.85089)"> </text>
  <g class="cls-10">
    <path class="cls-11" d="M26.371,16.45062s-9.921,0-9.921,9.921v514.187s0,9.92206,9.921,9.92206H257.094s9.921,0,9.921-9.92206V26.37164s0-9.921-9.921-9.921Z"/>
    <path class="cls-12" d="M156.0894,345.62869s-9.53,0-9.53,9.53v56.195s0,9.53,9.53,9.53h88.652s9.53,0,9.53-9.53v-56.195s0-9.53-9.53-9.53Z"/>
  </g>
  <text class="cls-13" transform="translate(189.5 401.05011)"><tspan class="cls-14">C</tspan><tspan x="7" y="0">O</tspan></text>
  <text class="cls-13" transform="translate(204.7 401.05011)">P</text>









  <g class="cls-10">
    <path class="cls-12" d="M39.0397,427.69209s-9.53,0-9.53,9.53v56.195s0,9.53,9.53,9.53h88.652s9.53,0,9.53-9.53v-56.195s0-9.53-9.53-9.53Z"/>
  </g>
  <g class="cls-16">
    <polygon class="cls-17" points="62.895 471.933 62.895 477.11 101.599 477.11 101.599 450.36 82.246 432.727 62.895 450.36 62.895 471.933"/>
    <path class="cls-18" d="M72.5904,465.2104q-1.6005-1.4265-3.197-2.852h-2.28v-4.555h2.28q1.59752-1.425,3.197-2.851l1.322-1.178v12.616Z"/>
    <path class="cls-19" d="M72.1865,464.21389q-1.2885-1.1505-2.575-2.297h-1.836v-3.671h1.836q1.2855-1.146,2.575-2.296l1.066-.949v10.162Z"/>
    <path class="cls-20" d="M72.1865,464.21389q-1.2885-1.1505-2.575-2.297h-1.836v-3.671h1.836q1.2855-1.146,2.575-2.296l1.066-.949v10.162Z"/>
    <path class="cls-21" d="M84.21159,448.0467a21.92972,21.92972,0,0,1,.039,24.07m-4.004-20.751a15.085,15.085,0,0,1,.05,17.401m-3.871-14.112a8.51017,8.51017,0,0,1,.071,10.794"/>
    <polygon class="cls-17" points="62.895 524.848 62.895 530.025 101.599 530.025 101.599 503.275 82.246 485.642 62.895 503.275 62.895 524.848"/>
    <path class="cls-22" d="M56.0632,520.55509q1.683-1.5015,3.366-3.002h2.4v-4.796h-2.4q-1.6815-1.49852-3.366-3.003l-1.393-1.24v13.283Z"/>
    <path class="cls-19" d="M56.4883,519.50569q1.3575-1.209,2.711-2.418h1.934v-3.865h-1.934c-.903-.804-1.806-1.613-2.711-2.417l-1.122-1v10.699Z"/>
    <path class="cls-20" d="M56.4883,519.50569q1.3575-1.209,2.711-2.418h1.934v-3.865h-1.934c-.903-.804-1.806-1.613-2.711-2.417l-1.122-1v10.699Z"/>
    <path class="cls-21" d="M43.7853,527.82759a23.09343,23.09343,0,0,1,.042-25.343m4.122,21.816a15.87817,15.87817,0,0,1,.054-18.321m3.946,14.827a8.96414,8.96414,0,0,1,.075-11.365"/>
  </g>
  <text class="cls-13" transform="translate(86.18164 496.03741)">d</text>
  <text class="cls-13" transform="translate(93.40576 496.03741)">B</text>
  <g class="cls-10">
    <path class="cls-12" d="M156.01961,427.72409s-9.53,0-9.53,9.53v56.195s0,9.53,9.53,9.53h88.652s9.53,0,9.53-9.53v-56.195s0-9.53-9.53-9.53Z"/>
  </g>
  <text class="cls-13" transform="translate(166.83203 482.01886)">kWh/60min</text>

  <g class="cls-10">
    <path class="cls-12" d="M39.0397,345.62869s-9.53,0-9.53,9.53v56.195s0,9.53,9.53,9.53h88.652s9.53,0,9.53-9.53v-56.195s0-9.53-9.53-9.53Z"/>
  </g>
  <text class="cls-13" transform="translate(74.01416 399.92413)">k</text>
  <text class="cls-13" transform="translate(80.27197 399.92413)">W</text>
  <g class="cls-24">
    <text class="cls-25" transform="translate(207.54395 130.73126)"><tspan xml:space="preserve"> A</tspan></text>
    <text class="cls-26" transform="translate(231.49902 119.33624)">++<tspan class="cls-27" x="14.31641" y="0">+</tspan></text>
    <text class="cls-28" transform="translate(253.01367 119.33624)">+</text>
  </g>
  <g class="cls-24">
    <text class="cls-25" transform="translate(207.54395 232.79132)"><tspan xml:space="preserve"> A</tspan></text>
    <text class="cls-28" transform="translate(231.49902 221.41583)">+</text>
    <text class="cls-28" transform="translate(238.6709 221.41583)">+</text>
    <text class="cls-25" transform="translate(207.54395 283.82159)"><tspan xml:space="preserve"> A</tspan></text>
    <text class="cls-28" transform="translate(231.49902 272.42609)">+</text>
    <text class="cls-25" transform="translate(207.54395 334.85187)"><tspan xml:space="preserve"> A</tspan></text>
    <text class="cls-25" transform="translate(207.54395 385.88507)"><tspan xml:space="preserve"> B</tspan></text>
    <text class="cls-25" transform="translate(207.54395 436.91925)"><tspan xml:space="preserve"> C</tspan></text>
    <text class="cls-25" transform="translate(207.54395 487.95245)"><tspan xml:space="preserve"> D</tspan></text>
    <text class="cls-25" transform="translate(207.54395 538.98566)"><tspan xml:space="preserve"> E</tspan></text>
    <text class="cls-25" transform="translate(207.54395 590.01886)"><tspan xml:space="preserve"> F</tspan></text>
  </g>
  <rect class="cls-6" x="22.677" y="156.57397" width="159.803" height="166.82602"/>
  <polygon class="cls-5" points="25.545 232.977 25.545 252.669 137.568 252.669 147.32 242.823 137.568 232.977 25.545 232.977"/>
  <polygon class="cls-29" points="25.545 209.591 25.545 229.283 126.209 229.283 135.963 219.437 126.209 209.591 25.545 209.591"/>
  <polygon class="cls-30" points="25.545 186.206 25.545 205.897 114.854 205.897 124.608 196.052 114.854 186.206 25.545 186.206"/>
  <polygon class="cls-31" points="25.545 162.821 25.545 182.512 106.047 182.512 115.801 172.667 106.047 162.821 25.545 162.821"/>
  <polygon class="cls-32" points="25.545 256.355 25.545 276.046 149.188 276.046 158.951 266.201 149.188 256.355 25.545 256.355"/>
  <polygon class="cls-33" points="25.545 279.732 25.545 299.425 160.537 299.425 170.305 289.579 160.537 279.732 25.545 279.732"/>
  <polygon class="cls-34" points="25.545 303.111 25.545 322.801 171.887 322.801 181.656 312.955 171.887 303.111 25.545 303.111"/>
  <g class="cls-35">
    <path class="cls-6" d="M266.60767,245.71393l-.863,3.131h-2.842l3.705-12.201h3.597l3.762,12.201h-2.953l-.934-3.131Zm3.076-2.064-.756-2.589c-.217-.724-.432-1.63-.611-2.353h-.035c-.18.723-.362,1.647-.559,2.353l-.719,2.589Z"/>
    <path class="cls-6" d="M262.9921,260.2114a21.73041,21.73041,0,0,1,3.545-.253,6.64942,6.64942,0,0,1,3.58.688,2.65893,2.65893,0,0,1,1.457,2.389,2.75877,2.75877,0,0,1-1.996,2.608v.036a3.04776,3.04776,0,0,1,2.408,3.006,3.26065,3.26065,0,0,1-1.257,2.589c-.881.706-2.358,1.104-4.768,1.104a21.01327,21.01327,0,0,1-2.969-.182Zm2.717,4.671h.898c1.442,0,2.215-.598,2.215-1.502,0-.924-.703-1.412-1.943-1.412a7.361,7.361,0,0,0-1.17.072Zm0,5.413a8.20694,8.20694,0,0,0,1.063.038c1.24,0,2.337-.489,2.337-1.756,0-1.234-1.097-1.72-2.464-1.72h-.936Z"/>
    <path class="cls-6" d="M271.95709,295.312a7.66982,7.66982,0,0,1-3.113.545c-4.194,0-6.35-2.643-6.35-6.12,0-4.163,2.949-6.481,6.619-6.481a7.14344,7.14344,0,0,1,2.987.542l-.559,2.192a5.886,5.886,0,0,0-2.303-.454,4.01284,4.01284,0,0,0,.018,8.021,6.83067,6.83067,0,0,0,2.285-.398Z"/>
    <path class="cls-6" d="M262.21689,307.022a24.60906,24.60906,0,0,1,3.705-.252,7.75454,7.75454,0,0,1,4.965,1.304,5.40565,5.40565,0,0,1,2.051,4.596,6.19824,6.19824,0,0,1-2.014,4.943,8.66056,8.66056,0,0,1-5.594,1.576,23.47915,23.47915,0,0,1-3.113-.182Zm2.752,9.958a4.869,4.869,0,0,0,.953.056c2.485.017,4.102-1.36,4.102-4.275a3.48743,3.48743,0,0,0-3.813-3.873,5.56618,5.56618,0,0,0-1.242.109Z"/>
    <polygon class="cls-6" points="269.371 337.206 264.908 337.206 264.908 340.104 269.892 340.104 269.892 342.366 262.158 342.366 262.158 330.163 269.641 330.163 269.641 332.428 264.908 332.428 264.908 334.963 269.371 334.963 269.371 337.206"/>
    <polygon class="cls-6" points="262.658 353.569 270.07 353.569 270.07 355.834 265.41 355.834 265.41 358.62 269.763 358.62 269.763 360.867 265.41 360.867 265.41 365.771 262.658 365.771 262.658 353.569"/>
    <path class="cls-6" d="M273.211,388.5141a13.50014,13.50014,0,0,1-4.049.688,6.73078,6.73078,0,0,1-4.93-1.649,5.92707,5.92707,0,0,1-1.709-4.435c.018-4.055,2.952-6.373,6.926-6.373a8.29088,8.29088,0,0,1,3.364.598l-.575,2.209a6.67529,6.67529,0,0,0-2.824-.524,3.9756,3.9756,0,1,0,1.152,7.766v-2.554h-1.873v-2.154h4.518Z"/>
  </g>
  <g class="cls-35">
    <text class="cls-36" transform="translate(258.58984 156.04376)"><tspan xml:space="preserve"> A</tspan></text>
    <text class="cls-37" transform="translate(274.47461 150.98907)">-80%</text>
    <text class="cls-36" transform="translate(258.58984 179.60333)"><tspan xml:space="preserve"> A</tspan></text>
    <text class="cls-37" transform="translate(274.47461 174.54669)">-60%</text>
    <text class="cls-36" transform="translate(258.58984 203.31134)"><tspan xml:space="preserve"> A</tspan></text>
    <text class="cls-37" transform="translate(274.47461 198.25372)">-40%</text>
    <text class="cls-36" transform="translate(258.58984 226.32599)"><tspan xml:space="preserve"> A</tspan></text>
    <text class="cls-37" transform="translate(274.47461 221.26886)">-20%</text>
  </g>
  <text class="cls-38" transform="translate(36.3291 178.74689)"><tspan xml:space="preserve"> A</tspan></text>
  <text class="cls-39" transform="translate(50.47363 171.74689)"><tspan class="cls-40">+</tspan><tspan x="4.06445" y="0">+</tspan></text>
  <text class="cls-39" transform="translate(58.61768 171.74689)">+</text>
  <text class="cls-38" transform="translate(36.3291 202.74689)"><tspan xml:space="preserve"> A</tspan></text>
  <text class="cls-39" transform="translate(50.47363 195.74689)">+</text>
  <text class="cls-39" transform="translate(54.54541 195.74689)">+</text>
  <text class="cls-38" transform="translate(35.84619 248.8587)"><tspan xml:space="preserve"> A</tspan></text>
  <text class="cls-38" transform="translate(35.84619 225.0589)"><tspan xml:space="preserve"> A</tspan></text>
  <text class="cls-39" transform="translate(49.99463 218.0506)">+</text>
  <text class="cls-38" transform="translate(36.62598 271.60431)"><tspan xml:space="preserve"> B</tspan></text>
  <text class="cls-38" transform="translate(36.81299 294.7923)"><tspan xml:space="preserve"> C</tspan></text>
  <text class="cls-38" transform="translate(36.81299 318.04816)"><tspan xml:space="preserve"> D</tspan></text>
  <g class="cls-35">
    <text class="cls-38" transform="translate(36.43896 341.5423)"><tspan xml:space="preserve"> E</tspan></text>
    <text class="cls-38" transform="translate(36.43896 364.78156)"><tspan xml:space="preserve"> F</tspan></text>
    <text class="cls-38" transform="translate(36.43896 388.46222)"><tspan xml:space="preserve"> G</tspan></text>
  </g>
  <g class="cls-41">
    <path class="cls-42" d="M51.7383,122.33368a11.5475,11.5475,0,1,1,11.547,11.551,11.54752,11.54752,0,0,1-11.547-11.551"/>
    <path class="cls-43" d="M51.7383,122.33368a11.5475,11.5475,0,1,1,11.547,11.551A11.54752,11.54752,0,0,1,51.7383,122.33368Z"/>
    <path class="cls-44" d="M65.1806,122.56519s-.83-.003-2.133,1.889a2.95755,2.95755,0,0,1-.055,2.943c-.551.897-2.16,2.423-1.434,3.772,1.057,1.962,8.166.025,8.753-3.32.754-4.3-3.169-5.36-5.131-5.284"/>
    <path class="cls-45" d="M65.1806,122.56519s-.83-.003-2.133,1.889a2.95755,2.95755,0,0,1-.055,2.943c-.551.897-2.16,2.423-1.434,3.772,1.057,1.962,8.166.025,8.753-3.32C71.0656,123.54919,67.1426,122.4892,65.1806,122.56519Z"/>
    <path class="cls-44" d="M61.3369,123.6377a5.018,5.018,0,0,0,.183-2.843,2.95712,2.95712,0,0,1-2.035-2.127c-.241-1.025-.283-2.978-1.641-3.687-1.944-1.015-5.716,5.625-3.871,8.523,2.23,3.5,6.025,1.57,7.364.134"/>
    <path class="cls-45" d="M61.3369,123.6377a5.018,5.018,0,0,0,.183-2.843,2.95712,2.95712,0,0,1-2.035-2.127c-.241-1.025-.283-2.978-1.641-3.687-1.944-1.015-5.716,5.625-3.871,8.523C56.2029,127.00372,59.9979,125.0737,61.3369,123.6377Z"/>
    <path class="cls-44" d="M62.5562,120.222s.436.761,2.642,1.068a2.9522,2.9522,0,0,1,2.658-1.262c1.049.092,3.247.926,4.016-.398,1.382-2.378-3.447-7.098-6.872-6.356-4.056.879-3.386,5.225-2.444,6.948"/>
    <path class="cls-45" d="M62.5562,120.222s.436.761,2.642,1.068a2.9522,2.9522,0,0,1,2.658-1.262c1.049.092,3.247.926,4.016-.398,1.382-2.378-3.447-7.098-6.872-6.356C60.94419,114.153,61.6142,118.499,62.5562,120.222Z"/>
    <path class="cls-42" d="M61.1654,122.33368a2.1205,2.1205,0,1,1,2.12,2.121,2.11981,2.11981,0,0,1-2.12-2.121"/>
    <path class="cls-46" d="M61.1654,122.33368a2.1205,2.1205,0,1,1,2.12,2.121A2.11981,2.11981,0,0,1,61.1654,122.33368Z"/>
    <path class="cls-47" d="M51.7383,158.15659a11.5475,11.5475,0,1,1,11.547,11.551,11.54751,11.54751,0,0,1-11.547-11.551"/>
    <path class="cls-48" d="M51.7383,158.15659a11.5475,11.5475,0,1,1,11.547,11.551A11.54751,11.54751,0,0,1,51.7383,158.15659Z"/>
    <path class="cls-44" d="M65.1806,158.38809s-.83-.003-2.133,1.889a2.956,2.956,0,0,1-.056,2.943c-.55.897-2.159,2.423-1.433,3.772,1.056,1.962,8.166.025,8.753-3.32.754-4.3-3.169-5.36-5.131-5.284"/>
    <path class="cls-45" d="M65.1806,158.38809s-.83-.003-2.133,1.889a2.956,2.956,0,0,1-.056,2.943c-.55.897-2.159,2.423-1.433,3.772,1.056,1.962,8.166.025,8.753-3.32C71.0656,159.3721,67.1426,158.3121,65.1806,158.38809Z"/>
    <path class="cls-44" d="M61.3368,159.4606a5.018,5.018,0,0,0,.183-2.843,2.95492,2.95492,0,0,1-2.034-2.127c-.242-1.025-.284-2.978-1.642-3.687-1.944-1.015-5.716,5.625-3.871,8.523,2.23,3.5,6.025,1.57,7.364.134"/>
    <path class="cls-45" d="M61.3368,159.4606a5.018,5.018,0,0,0,.183-2.843,2.95492,2.95492,0,0,1-2.034-2.127c-.242-1.025-.284-2.978-1.642-3.687-1.944-1.015-5.716,5.625-3.871,8.523C56.2028,162.82663,59.9978,160.89661,61.3368,159.4606Z"/>
    <path class="cls-44" d="M62.5562,156.04489s.436.761,2.642,1.068a2.953,2.953,0,0,1,2.659-1.262c1.048.092,3.246.926,4.016-.398,1.381-2.378-3.448-7.098-6.873-6.356-4.056.879-3.386,5.225-2.444,6.948"/>
    <path class="cls-45" d="M62.5562,156.04489s.436.761,2.642,1.068a2.953,2.953,0,0,1,2.659-1.262c1.048.092,3.246.926,4.016-.398,1.381-2.378-3.448-7.098-6.873-6.356C60.94419,149.97592,61.6142,154.3219,62.5562,156.04489Z"/>
    <path class="cls-47" d="M61.1654,158.15659a2.1205,2.1205,0,1,1,2.12,2.121,2.11981,2.11981,0,0,1-2.12-2.121"/>
    <path class="cls-46" d="M61.1654,158.15659a2.1205,2.1205,0,1,1,2.12,2.121A2.11981,2.11981,0,0,1,61.1654,158.15659Z"/>
    <path class="cls-49" d="M104.1649,116.6937s-7.715-3.645-13.224-.016c-5.509,3.628-13.225.016-13.225.016"/>
    <polyline class="cls-49" points="102.778 115.044 104.68 116.694 102.45 117.292"/>
    <path class="cls-49" d="M104.1649,120.2916s-7.715-3.645-13.224-.016c-5.509,3.628-13.225.016-13.225.016"/>
    <polyline class="cls-49" points="102.778 118.642 104.68 120.292 102.45 120.89"/>
    <path class="cls-49" d="M104.1649,123.8895s-7.715-3.645-13.224-.016c-5.509,3.628-13.225.016-13.225.016"/>
    <polyline class="cls-49" points="102.778 122.24 104.68 123.89 102.45 124.488"/>
    <path class="cls-49" d="M104.1649,127.4874s-7.715-3.645-13.224-.016c-5.509,3.628-13.225.016-13.225.016"/>
    <polyline class="cls-49" points="102.778 125.838 104.68 127.488 102.45 128.086"/>
    <path class="cls-50" d="M104.1649,153.012s-7.715-3.645-13.224-.016c-5.509,3.628-13.225.016-13.225.016"/>
    <polyline class="cls-50" points="102.778 151.362 104.68 153.012 102.45 153.61"/>
    <path class="cls-50" d="M104.1649,156.51279s-7.715-3.645-13.224-.016c-5.509,3.628-13.225.016-13.225.016"/>
    <polyline class="cls-50" points="102.778 154.863 104.68 156.513 102.45 157.111"/>
    <path class="cls-50" d="M104.1649,160.01358s-7.715-3.645-13.224-.016c-5.509,3.628-13.225.016-13.225.016"/>
    <polyline class="cls-50" points="102.778 158.364 104.68 160.014 102.45 160.612"/>
    <path class="cls-50" d="M104.1738,163.51428s-7.715-3.645-13.224-.016c-5.509,3.628-13.225.016-13.225.016"/>
    <polyline class="cls-50" points="102.787 161.865 104.689 163.515 102.459 164.113"/>
  </g>
  <text class="cls-9" transform="translate(30.0752 125.02618)"><tspan class="cls-51">C</tspan><tspan x="5.78271" y="0">O</tspan></text>
  <text class="cls-9" transform="translate(42.63525 125.02618)">P</text>
  <g id="rating">
    <polyline id="ratingArrow" class="cls-52" points="200.72 172.66 221.87 151.34 257.95 151.34 257.95 194 221.87 194 200.72 172.66"/>
    <text id="ratingLetter" class="cls-53" transform="translate(214.88965 181.15997)">A</text>
    <text id="ratingPlusses" class="cls-54" transform="translate(231.94043 169.11993)">+++</text>
  </g>
  <text id="kw" class="cls-55" transform="translate(83.21338 383.09991)" text-anchor="middle">X</text>
  <text id="cop" class="cls-55" transform="translate(200.56585 384.21027)" text-anchor="middle">X</text>
  <text id="db" class="cls-55" transform="translate(63.2998 496.04034)">99</text>
  <text id="kwhHour" class="cls-55" transform="translate(200.75963 465.18976)" text-anchor="middle">X</text>

  <text id="supplierLine2" class="cls-13" transform="translate(25.20024 101.37008)">X</text>
  <text id="supplierLine1" class="cls-13" transform="translate(25.20024 87.07858)">X</text>
  <text id="modelLine2" class="cls-13" transform="translate(144.57035 101.37008)">X</text>
  <text id="modelLine1" class="cls-13" transform="translate(144.57035 87.07858)">X</text>
<g id="union-flag" transform="translate(25.319, 25.38397) scale(1.5124673333333334)">
	<path id="blue" fill="#004289" d="M9.59,20L0,26.39V20H9.59z M39.59,0H27.5v8.06L39.59,0z M0,3.61V10h9.59L0,3.61z M17.5,0H5.41
		L17.5,8.06V0z M27.5,30h12.09L27.5,21.94V30z M45,10V3.61L35.41,10H45z M45,26.39V20h-9.59L45,26.39z M5.41,30H17.5v-8.06L5.41,30z
		"/>
	<path id="red" fill="#DC2F34" d="M45,18H25.5v12h-6V18H0v-6h19.5V0h6v12H45V18z M0,2.42L11.38,10h3.61L0,0.01V2.42z M45,27.58
		L33.62,20h-3.61L45,29.99V27.58z M17.5,20.74V20H15L0,30h3.61L17.5,20.74z M27.5,9.26V10H30L45,0h-3.61L27.5,9.26z"/>
</g><path id="energy-heading" d="M7.1581,7.21791H2.33537v3.7413H7.72769v1.90845H0V.13234H7.44305V2.04079H2.33537V5.32836H7.1581Zm3.53413,5.64975V.13234h2.677L16.67314,5.593a37.85159,37.85159,0,0,1,2.18339,4.27032h.038a51.82706,51.82706,0,0,1-.20865-5.29055V.13234h2.1644V12.86766H18.41992L15.07833,7.25572a43.774,43.774,0,0,1-2.2787-4.38342l-.076.0189c.095,1.64379.133,3.32538.133,5.42289v4.55357ZM31.63845,7.21791H26.81573v3.7413h5.392v1.90845H24.48V.13234h7.44305V2.04079H26.81573V5.32836h4.82272ZM35.19126.32139A20.16965,20.16965,0,0,1,38.72282.03781a5.98372,5.98372,0,0,1,3.94949,1.02056,3.228,3.228,0,0,1,1.1012,2.56949,3.347,3.347,0,0,1-2.3357,3.17446V6.859a3.16007,3.16007,0,0,1,1.7851,2.45638,32.106,32.106,0,0,0,1.00653,3.55224H41.83707a16.17761,16.17761,0,0,1-.85455-3.00431c-.37994-1.66269-.96854-2.19171-2.2977-2.22952H37.50764v5.23383H35.19126ZM37.50764,5.933h1.38647c1.57581,0,2.5437-.83119,2.5437-2.09719,0-1.37943-.96789-2.04079-2.487-2.04079a6.74576,6.74576,0,0,0-1.44314.11343Zm19.67341,6.34892A12.70364,12.70364,0,0,1,53.08022,13a6.96331,6.96331,0,0,1-5.032-1.7005,6.3681,6.3681,0,0,1-1.78446-4.68623C46.28243,2.56982,49.1494,0,53.38353,0a8.52961,8.52961,0,0,1,3.3989.60464l-.5126,1.87065a6.6378,6.6378,0,0,0-2.905-.54793c-2.73432,0-4.65207,1.606-4.65207,4.5728,0,2.89088,1.78509,4.61029,4.44342,4.61029a4.91246,4.91246,0,0,0,1.76578-.24577v-3.193H52.66228V5.8388h4.51877Zm6.23045.58573V7.55821L59.36734.13234h2.677l1.51914,3.269c.43661.94462.75924,1.66269,1.11987,2.53169h.038c.304-.81228.66458-1.606,1.10184-2.53169L67.361.13234H70L65.74719,7.50149v5.36617Z" fill="#fff" transform="translate(107.88244350879879, 37.99897556045313) scale(1.5124673333333334)"/></svg>