<svg xmlns="http://www.w3.org/2000/svg" xmlns:xlink="http://www.w3.org/1999/xlink" id="Layer_1" data-name="Layer 1" width="100mm" height="200mm" viewBox="0 0 283.45999 566.92999" data-rating-increment="23.2333" data-supplier-model-chars-per-row="15">
  <defs>
    <style>
      .cls-1, .cls-27, .cls-29, .cls-3, .cls-36, .cls-38, .cls-39, .cls-4, .cls-40, .cls-42, .cls-44, .cls-45, .cls-47, .cls-48, .cls-49 {
        fill: none;
      }

      .cls-2 {
        clip-path: url(#clip-path);
      }

      .cls-3, .cls-4, .cls-42, .cls-44, .cls-48 {
        stroke: #00aeef;
      }

      .cls-3 {
        stroke-width: 2px;
      }

      .cls-4 {
        stroke-width: 0.911px;
      }

      .cls-5 {
        fill: #034ea2;
      }

      .cls-6 {
        fill: #00aeef;
      }

      .cls-7 {
        fill: #fff200;
      }

      .cls-19, .cls-20, .cls-21, .cls-51, .cls-52, .cls-60, .cls-61, .cls-8 {
        fill: #fff;
      }

      .cls-9 {
        clip-path: url(#clip-path-2);
      }

      .cls-10, .cls-11 {
        font-size: 10px;
      }

      .cls-10, .cls-11, .cls-54, .cls-55, .cls-59, .cls-62, .cls-63 {
        fill: #231f20;
      }

      .cls-10, .cls-19, .cls-20, .cls-21, .cls-51, .cls-52, .cls-60, .cls-62 {
        font-family: Calibri-Bold, Calibri;
        font-weight: 700;
      }

      .cls-11, .cls-54, .cls-55, .cls-61, .cls-63 {
        font-family: Calibri;
      }

      .cls-12 {
        fill: #00a651;
      }

      .cls-13 {
        fill: #50b848;
      }

      .cls-14 {
        fill: #bfd730;
      }

      .cls-15 {
        fill: #fdb913;
      }

      .cls-16 {
        fill: #f37021;
      }

      .cls-17 {
        fill: #ed1c24;
      }

      .cls-18 {
        clip-path: url(#clip-path-4);
      }

      .cls-19 {
        font-size: 16.8957px;
      }

      .cls-20 {
        font-size: 17.8896px;
      }

      .cls-21 {
        font-size: 7.9509px;
      }

      .cls-22 {
        letter-spacing: 0.00998em;
      }

      .cls-23 {
        clip-path: url(#clip-path-11);
      }

      .cls-24 {
        letter-spacing: 0.0101em;
      }

      .cls-25 {
        clip-path: url(#clip-path-18);
      }

      .cls-26 {
        fill: #49c8f5;
      }

      .cls-27, .cls-39 {
        stroke: #49c8f5;
      }

      .cls-27, .cls-38 {
        stroke-width: 0.905px;
      }

      .cls-28 {
        fill: #f9f9fa;
      }

      .cls-29 {
        stroke: #f9f9fa;
        stroke-width: 0.699px;
      }

      .cls-29, .cls-39, .cls-40, .cls-44, .cls-48 {
        stroke-linejoin: round;
      }

      .cls-30 {
        opacity: 0.28;
      }

      .cls-31 {
        clip-path: url(#clip-path-19);
      }

      .cls-32 {
        clip-path: url(#clip-path-21);
      }

      .cls-33 {
        clip-path: url(#clip-path-22);
      }

      .cls-34 {
        clip-path: url(#clip-path-23);
      }

      .cls-35 {
        clip-path: url(#clip-path-24);
      }

      .cls-36, .cls-45, .cls-49 {
        stroke: #fff;
      }

      .cls-36 {
        stroke-width: 0.504px;
      }

      .cls-37 {
        fill: #f05327;
      }

      .cls-38 {
        stroke: #f05327;
      }

      .cls-39, .cls-40, .cls-44, .cls-48 {
        stroke-linecap: round;
      }

      .cls-39, .cls-40 {
        stroke-width: 0.839px;
      }

      .cls-40 {
        stroke: #f05427;
      }

      .cls-41 {
        clip-path: url(#clip-path-25);
      }

      .cls-42 {
        stroke-width: 5px;
      }

      .cls-43 {
        clip-path: url(#clip-path-27);
      }

      .cls-44 {
        stroke-width: 1.005px;
      }

      .cls-45 {
        stroke-width: 0.877px;
      }

      .cls-46 {
        fill: #2aace3;
      }

      .cls-47 {
        stroke: #2aace3;
        stroke-width: 0.706px;
      }

      .cls-48 {
        stroke-width: 1.786px;
      }

      .cls-49 {
        stroke-width: 0.923px;
      }

      .cls-50 {
        clip-path: url(#clip-path-28);
      }

      .cls-51 {
        font-size: 18.1028px;
      }

      .cls-52 {
        font-size: 7.6589px;
      }

      .cls-53 {
        letter-spacing: 0.00995em;
      }

      .cls-54, .cls-61 {
        font-size: 7px;
      }

      .cls-55 {
        font-size: 14px;
      }

      .cls-56 {
        letter-spacing: -0.01998em;
      }

      .cls-57 {
        letter-spacing: 0.009em;
      }

      .cls-58 {
        letter-spacing: -0.01001em;
      }

      .cls-60 {
        font-size: 18px;
      }

      .cls-62 {
        font-size: 22px;
      }

      .cls-63 {
        font-size: 8px;
      }

      .cls-64 {
        letter-spacing: -0.00928em;
      }

      .cls-65 {
        letter-spacing: -0.01709em;
      }

      .cls-66 {
        letter-spacing: -0.01465em;
      }
    </style>
    <clipPath id="clip-path">
      <rect class="cls-1" y="0.00098" width="283.465" height="566.92902"/>
    </clipPath>
    <clipPath id="clip-path-2">
      <rect class="cls-1" x="25.301" y="25.26099" width="232.863" height="45.561"/>
    </clipPath>
    <clipPath id="clip-path-4">
      <rect class="cls-1" x="30.303" y="164.93597" width="86.699" height="161.75902"/>
    </clipPath>
    <clipPath id="clip-path-11">
      <rect class="cls-1" x="149.76401" y="164.93597" width="86.7" height="161.75902"/>
    </clipPath>
    <clipPath id="clip-path-18">
      <rect class="cls-1" x="167.77901" y="117.397" width="55.18199" height="26.09399"/>
    </clipPath>
    <clipPath id="clip-path-19">
      <rect class="cls-1" x="171.33" y="87.224" width="8.08499" height="10.603"/>
    </clipPath>
    <clipPath id="clip-path-21">
      <rect class="cls-1" x="179.703" y="85.48999" width="10.409" height="7.66"/>
    </clipPath>
    <clipPath id="clip-path-22">
      <rect class="cls-1" x="179.703" y="85.48999" width="10.408" height="7.66"/>
    </clipPath>
    <clipPath id="clip-path-23">
      <rect class="cls-1" x="179.589" y="94.892" width="8.661" height="9.543"/>
    </clipPath>
    <clipPath id="clip-path-24">
      <rect class="cls-1" x="179.589" y="94.89099" width="8.662" height="9.54401"/>
    </clipPath>
    <clipPath id="clip-path-25">
      <rect class="cls-1" x="47.993" y="117.397" width="55.182" height="26.09399"/>
    </clipPath>
    <clipPath id="clip-path-27">
      <rect class="cls-1" x="62.261" y="430.724" width="38.848" height="43.80699"/>
    </clipPath>
    <clipPath id="clip-path-28">
      <rect class="cls-1" x="222.194" y="160.15799" width="31.145" height="33.733"/>
    </clipPath>
  </defs>
  <title>reversible-double-duct-air-conditioners</title>
  <g class="cls-2">
    <path class="cls-3" d="M155.5361,111.66119s-9.921,0-9.921,9.921v285.291s0,9.922,9.921,9.922h92.289s9.921,0,9.921-9.922v-285.291s0-9.921-9.921-9.921Z"/>
    <path class="cls-3" d="M35.7772,111.59448s-9.921,0-9.921,9.921v285.291s0,9.922,9.921,9.922h92.289s9.921,0,9.921-9.922V121.5155s0-9.921-9.921-9.921Z"/>
  </g>
  <line class="cls-4" x1="24.9453" y1="104.49008" x2="258.65628" y2="104.49008"/>
  
  <rect class="cls-6" x="95.502" y="25.38397" width="162.662" height="45.37402"/>
  
  
  
  
  
  
  
  
  
  
  
  


  <g class="cls-2">
    <path class="cls-3" d="M35.7772,424.2878s-9.921,0-9.921,9.921v58.5s0,9.921,9.921,9.921h92.289s9.921,0,9.921-9.921v-58.5s0-9.921-9.921-9.921Z"/>
  </g>
  <text class="cls-10" transform="translate(24.94531 540.85089)">626/2011</text>
  <text class="cls-11" transform="translate(64.7251 540.85089)"> </text>
  <polygon class="cls-12" points="30.303 168.074 30.303 187.645 57.275 187.645 67.06 177.86 57.275 168.074 30.303 168.074"/>
  <polygon class="cls-13" points="30.303 191.31 30.303 210.88 63.916 210.88 73.713 201.095 63.916 191.31 30.303 191.31"/>
  <polygon class="cls-14" points="30.303 214.542 30.303 234.114 69.283 234.114 79.083 224.329 69.283 214.542 30.303 214.542"/>
  <polygon class="cls-7" points="30.303 237.778 30.303 257.347 74.651 257.347 84.452 247.561 74.651 237.778 30.303 237.778"/>
  <polygon class="cls-15" points="30.303 261.011 30.303 280.58 80.017 280.58 89.823 270.798 80.017 261.011 30.303 261.011"/>
  <polygon class="cls-16" points="30.303 284.244 30.303 303.815 85.385 303.815 95.196 294.031 85.385 284.244 30.303 284.244"/>
  <polygon class="cls-17" points="30.303 307.476 30.303 326.695 90.541 326.695 100.619 317.263 90.167 307.476 30.303 307.476"/>
  <g class="cls-18">
    <text class="cls-19" transform="translate(28.20703 183.14142) scale(1.00946 1)"> </text>
    <text class="cls-20" transform="translate(32.06299 183.14142) scale(1.00946 1)">A</text>
  </g>
  <text class="cls-21" transform="translate(43.00586 176.18439) scale(1.00946 1)"><tspan class="cls-22">+</tspan><tspan x="4.03943" y="0">+</tspan></text>
  <text class="cls-21" transform="translate(51.17627 176.18439) scale(1.00946 1)">+</text>
  <g class="cls-18">
    <text class="cls-19" transform="translate(28.20703 206.99396) scale(1.00946 1)"> </text>
  </g>
  <text class="cls-20" transform="translate(32.06299 206.99396) scale(1.00946 1)">A</text>
  <text class="cls-21" transform="translate(43.00586 200.03693) scale(1.00946 1)">+</text>
  <text class="cls-21" transform="translate(47.09131 200.03693) scale(1.00946 1)">+</text>
  <g class="cls-18">
    <text class="cls-19" transform="translate(28.20703 230.34991) scale(1.00946 1)"> </text>
  </g>
  <text class="cls-20" transform="translate(32.06299 230.34991) scale(1.00946 1)">A</text>
  <text class="cls-21" transform="translate(43.00586 223.39288) scale(1.00946 1)">+</text>
  <g class="cls-18">
    <text class="cls-19" transform="translate(28.98535 252.96808) scale(1.00946 1)"> </text>
  </g>
  <text class="cls-20" transform="translate(32.84131 252.96808) scale(1.00946 1)">A</text>
  <g class="cls-18">
    <text class="cls-19" transform="translate(29.16943 276.00763) scale(1.00946 1)"> </text>
  </g>
  <text class="cls-20" transform="translate(33.02539 276.00763) scale(1.00946 1)">B</text>
  <g class="cls-18">
    <text class="cls-19" transform="translate(29.16943 299.12433) scale(1.00946 1)"> </text>
  </g>
  <text class="cls-20" transform="translate(33.02539 299.12433) scale(1.00946 1)">C</text>
  <g class="cls-18">
    <text class="cls-19" transform="translate(28.80127 322.47589) scale(1.00946 1)"> </text>
    <text class="cls-20" transform="translate(32.65723 322.47589) scale(1.00946 1)">D</text>
  </g>
  <polygon class="cls-12" points="149.764 168.074 149.764 187.645 176.736 187.645 186.521 177.86 176.736 168.074 149.764 168.074"/>
  <polygon class="cls-13" points="149.764 191.31 149.764 210.88 183.377 210.88 193.174 201.095 183.377 191.31 149.764 191.31"/>
  <polygon class="cls-14" points="149.764 214.542 149.764 234.114 188.744 234.114 198.544 224.329 188.744 214.542 149.764 214.542"/>
  <polygon class="cls-7" points="149.764 237.778 149.764 257.347 194.112 257.347 203.913 247.561 194.112 237.778 149.764 237.778"/>
  <polygon class="cls-15" points="149.764 261.011 149.764 280.58 199.478 280.58 209.284 270.798 199.478 261.011 149.764 261.011"/>
  <polygon class="cls-16" points="149.764 284.244 149.764 303.815 204.846 303.815 214.657 294.031 204.846 284.244 149.764 284.244"/>
  <polygon class="cls-17" points="149.764 307.476 149.764 326.695 210.002 326.695 220.08 317.263 209.628 307.476 149.764 307.476"/>
  <g class="cls-23">
    <text class="cls-19" transform="translate(147.66797 183.14142) scale(1.00946 1)"> </text>
    <text class="cls-20" transform="translate(151.52344 183.14142) scale(1.00946 1)">A</text>
  </g>
  <text class="cls-21" transform="translate(162.4668 176.18439) scale(1.00946 1)"><tspan class="cls-24">+</tspan><tspan x="4.03992" y="0">+</tspan></text>
  <text class="cls-21" transform="translate(170.6377 176.18439) scale(1.00946 1)">+</text>
  <g class="cls-23">
    <text class="cls-19" transform="translate(147.66797 206.99396) scale(1.00946 1)"> </text>
  </g>
  <text class="cls-20" transform="translate(151.52344 206.99396) scale(1.00946 1)">A</text>
  <text class="cls-21" transform="translate(162.4668 200.03693) scale(1.00946 1)">+</text>
  <text class="cls-21" transform="translate(166.55176 200.03693) scale(1.00946 1)">+</text>
  <g class="cls-23">
    <text class="cls-19" transform="translate(147.66797 230.34991) scale(1.00946 1)"> </text>
  </g>
  <text class="cls-20" transform="translate(151.52344 230.34991) scale(1.00946 1)">A</text>
  <text class="cls-21" transform="translate(162.4668 223.39288) scale(1.00946 1)">+</text>
  <g class="cls-23">
    <text class="cls-19" transform="translate(148.44629 252.96808) scale(1.00946 1)"> </text>
  </g>
  <text class="cls-20" transform="translate(152.30176 252.96808) scale(1.00946 1)">A</text>
  <g class="cls-23">
    <text class="cls-19" transform="translate(148.62988 276.00763) scale(1.00946 1)"> </text>
  </g>
  <text class="cls-20" transform="translate(152.48633 276.00763) scale(1.00946 1)">B</text>
  <g class="cls-23">
    <text class="cls-19" transform="translate(148.62988 299.12433) scale(1.00946 1)"> </text>
  </g>
  <text class="cls-20" transform="translate(152.48633 299.12433) scale(1.00946 1)">C</text>
  <g class="cls-23">
    <text class="cls-19" transform="translate(148.26172 322.47589) scale(1.00946 1)"> </text>
    <text class="cls-20" transform="translate(152.11816 322.47589) scale(1.00946 1)">D</text>
  </g>
  <g class="cls-25">
    <path class="cls-26" d="M169.59,94.6814a11.54749,11.54749,0,1,1,11.547,11.551,11.5475,11.5475,0,0,1-11.547-11.551"/>
    <path class="cls-27" d="M169.59,94.6814a11.54749,11.54749,0,1,1,11.547,11.551A11.5475,11.5475,0,0,1,169.59,94.6814Z"/>
    <path class="cls-28" d="M183.0323,94.9129s-.83-.003-2.133,1.889a2.956,2.956,0,0,1-.056,2.943c-.55.897-2.159,2.423-1.433,3.772,1.057,1.962,8.166.025,8.753-3.32.754-4.3-3.169-5.36-5.131-5.284"/>
    <path class="cls-29" d="M183.0323,94.9129s-.83-.003-2.133,1.889a2.956,2.956,0,0,1-.056,2.943c-.55.897-2.159,2.423-1.433,3.772,1.057,1.962,8.166.025,8.753-3.32C188.9173,95.89691,184.99429,94.83691,183.0323,94.9129Z"/>
    <path class="cls-28" d="M179.1886,95.98538a5.018,5.018,0,0,0,.183-2.843,2.95715,2.95715,0,0,1-2.035-2.127c-.241-1.025-.283-2.978-1.641-3.687-1.944-1.015-5.716,5.625-3.871,8.523,2.23,3.5,6.025,1.57,7.364.134"/>
    <path class="cls-29" d="M179.1886,95.98538a5.018,5.018,0,0,0,.183-2.843,2.95715,2.95715,0,0,1-2.035-2.127c-.241-1.025-.283-2.978-1.641-3.687-1.944-1.015-5.716,5.625-3.871,8.523C174.0546,99.35141,177.84959,97.42139,179.1886,95.98538Z"/>
    <g class="cls-30">
      <g class="cls-31">
        <g class="cls-31">
          <path class="cls-8" d="M179.41541,95.14319a5.81514,5.81514,0,0,1-.227.842c-1.338,1.437-5.134,3.366-7.364-.134-1.845-2.897,1.927-9.538,3.871-8.523,0,0-2.338,5.005.254,7.13,2.301,1.886,3.466.685,3.466.685"/>
        </g>
      </g>
    </g>
    <path class="cls-28" d="M180.4079,92.5697s.436.761,2.642,1.068a2.95222,2.95222,0,0,1,2.658-1.262c1.049.092,3.247.926,4.016-.398,1.382-2.378-3.447-7.098-6.872-6.356-4.056.879-3.386,5.225-2.444,6.948"/>
    <path class="cls-29" d="M180.4079,92.5697s.436.761,2.642,1.068a2.95222,2.95222,0,0,1,2.658-1.262c1.049.092,3.247.926,4.016-.398,1.382-2.378-3.447-7.098-6.872-6.356C178.79588,86.50073,179.4659,90.84671,180.4079,92.5697Z"/>
    <g class="cls-30">
      <g class="cls-32">
        <g class="cls-33">
          <path class="cls-8" d="M181.3638,93.15a5.83438,5.83438,0,0,1-.757-.432c-1.052-1.658-1.96-5.818,1.991-7.091,3.269-1.054,8.74,4.274,7.267,5.899,0,0-4.251-3.527-6.962-1.557-2.407,1.751-1.539,3.181-1.539,3.181"/>
        </g>
      </g>
    </g>
    <g class="cls-30">
      <g class="cls-34">
        <g class="cls-35">
          <path class="cls-8" d="M182.0641,95.3811a5.897,5.897,0,0,1,.733-.473c1.955-.169,6.066.941,5.375,5.033-.57,3.388-7.819,5.789-8.583,3.733,0,0,5.089-2.148,4.589-5.462-.445-2.943-2.114-2.831-2.114-2.831"/>
        </g>
      </g>
    </g>
    <path class="cls-26" d="M179.01711,94.6814a2.1205,2.1205,0,1,1,2.12,2.121,2.11979,2.11979,0,0,1-2.12-2.121"/>
    <path class="cls-36" d="M179.01711,94.6814a2.1205,2.1205,0,1,1,2.12,2.121A2.11979,2.11979,0,0,1,179.01711,94.6814Z"/>
    <path class="cls-37" d="M169.59,130.5043a11.54749,11.54749,0,1,1,11.547,11.551,11.54749,11.54749,0,0,1-11.547-11.551"/>
    <path class="cls-38" d="M169.59,130.5043a11.54749,11.54749,0,1,1,11.547,11.551A11.54749,11.54749,0,0,1,169.59,130.5043Z"/>
    <path class="cls-28" d="M183.0323,130.73578s-.83-.003-2.133,1.889a2.956,2.956,0,0,1-.056,2.943c-.55.897-2.159,2.423-1.433,3.772,1.056,1.962,8.166.025,8.753-3.32.754-4.3-3.169-5.36-5.131-5.284"/>
    <path class="cls-29" d="M183.0323,130.73578s-.83-.003-2.133,1.889a2.956,2.956,0,0,1-.056,2.943c-.55.897-2.159,2.423-1.433,3.772,1.056,1.962,8.166.025,8.753-3.32C188.9173,131.71979,184.99429,130.65979,183.0323,130.73578Z"/>
    <path class="cls-28" d="M179.18851,131.80838a5.018,5.018,0,0,0,.183-2.843,2.955,2.955,0,0,1-2.034-2.127c-.242-1.025-.284-2.978-1.642-3.687-1.944-1.015-5.716,5.625-3.871,8.523,2.23,3.5,6.025,1.57,7.364.134"/>
    <path class="cls-29" d="M179.18851,131.80838a5.018,5.018,0,0,0,.183-2.843,2.955,2.955,0,0,1-2.034-2.127c-.242-1.025-.284-2.978-1.642-3.687-1.944-1.015-5.716,5.625-3.871,8.523C174.0545,135.17441,177.8495,133.24438,179.18851,131.80838Z"/>
    <path class="cls-28" d="M180.4079,128.39258s.436.761,2.642,1.068a2.953,2.953,0,0,1,2.659-1.262c1.048.092,3.246.926,4.016-.398,1.381-2.378-3.448-7.098-6.873-6.356-4.056.879-3.386,5.225-2.444,6.948"/>
    <path class="cls-29" d="M180.4079,128.39258s.436.761,2.642,1.068a2.953,2.953,0,0,1,2.659-1.262c1.048.092,3.246.926,4.016-.398,1.381-2.378-3.448-7.098-6.873-6.356C178.79588,122.32361,179.4659,126.66959,180.4079,128.39258Z"/>
    <path class="cls-37" d="M179.01711,130.5043a2.1205,2.1205,0,1,1,2.12,2.121,2.11978,2.11978,0,0,1-2.12-2.121"/>
    <path class="cls-36" d="M179.01711,130.5043a2.1205,2.1205,0,1,1,2.12,2.121A2.11978,2.11978,0,0,1,179.01711,130.5043Z"/>
    <path class="cls-39" d="M222.0166,89.04138s-7.715-3.645-13.224-.016c-5.509,3.628-13.225.016-13.225.016"/>
    <polyline class="cls-39" points="220.63 87.392 222.532 89.042 220.302 89.64"/>
    <path class="cls-39" d="M222.0166,92.6394s-7.715-3.645-13.224-.016c-5.509,3.628-13.225.016-13.225.016"/>
    <polyline class="cls-39" points="220.63 90.99 222.532 92.64 220.302 93.238"/>
    <path class="cls-39" d="M222.0166,96.23718s-7.715-3.645-13.224-.016c-5.509,3.628-13.225.016-13.225.016"/>
    <polyline class="cls-39" points="220.63 94.587 222.532 96.238 220.302 96.836"/>
    <path class="cls-39" d="M222.0166,99.83521s-7.715-3.645-13.224-.016c-5.509,3.628-13.225.016-13.225.016"/>
    <polyline class="cls-39" points="220.63 98.185 222.532 99.836 220.302 100.434"/>
    <path class="cls-40" d="M222.0166,125.35968s-7.715-3.645-13.224-.016c-5.509,3.628-13.225.016-13.225.016"/>
    <polyline class="cls-40" points="220.63 123.71 222.532 125.36 220.302 125.958"/>
    <path class="cls-40" d="M222.0166,128.8605s-7.715-3.645-13.224-.016c-5.509,3.628-13.225.016-13.225.016"/>
    <polyline class="cls-40" points="220.63 127.211 222.532 128.861 220.302 129.459"/>
    <path class="cls-40" d="M222.0166,132.3613s-7.715-3.645-13.224-.016c-5.509,3.628-13.225.016-13.225.016"/>
    <polyline class="cls-40" points="220.63 130.712 222.532 132.362 220.302 132.96"/>
    <path class="cls-40" d="M222.0255,135.862s-7.715-3.645-13.224-.016c-5.509,3.628-13.225.016-13.225.016"/>
    <polyline class="cls-40" points="220.639 134.212 222.54 135.862 220.311 136.46"/>
  </g>
  <g class="cls-41">
    <path class="cls-26" d="M49.8038,130.11438a11.5475,11.5475,0,1,1,11.547,11.551,11.54751,11.54751,0,0,1-11.547-11.551"/>
    <path class="cls-27" d="M49.8038,130.11438a11.5475,11.5475,0,1,1,11.547,11.551A11.54751,11.54751,0,0,1,49.8038,130.11438Z"/>
    <path class="cls-28" d="M63.2461,130.346s-.83-.003-2.133,1.889a2.956,2.956,0,0,1-.056,2.943c-.55.897-2.159,2.423-1.433,3.772,1.057,1.962,8.166.025,8.753-3.32.754-4.3-3.169-5.36-5.131-5.284"/>
    <path class="cls-29" d="M63.2461,130.346s-.83-.003-2.133,1.889a2.956,2.956,0,0,1-.056,2.943c-.55.897-2.159,2.423-1.433,3.772,1.057,1.962,8.166.025,8.753-3.32C69.1311,131.33,65.2081,130.27,63.2461,130.346Z"/>
    <path class="cls-28" d="M59.4024,131.41849a5.018,5.018,0,0,0,.183-2.843,2.95712,2.95712,0,0,1-2.035-2.127c-.241-1.025-.283-2.978-1.641-3.687-1.944-1.015-5.716,5.625-3.871,8.523,2.23,3.5,6.025,1.57,7.364.134"/>
    <path class="cls-29" d="M59.4024,131.41849a5.018,5.018,0,0,0,.183-2.843,2.95712,2.95712,0,0,1-2.035-2.127c-.241-1.025-.283-2.978-1.641-3.687-1.944-1.015-5.716,5.625-3.871,8.523C54.2684,134.78452,58.0634,132.85449,59.4024,131.41849Z"/>
    <path class="cls-28" d="M60.6217,128.00281s.436.761,2.642,1.068a2.95222,2.95222,0,0,1,2.658-1.262c1.049.092,3.247.926,4.016-.398,1.382-2.378-3.447-7.098-6.872-6.356-4.056.879-3.386,5.225-2.444,6.948"/>
    <path class="cls-29" d="M60.6217,128.00281s.436.761,2.642,1.068a2.95222,2.95222,0,0,1,2.658-1.262c1.049.092,3.247.926,4.016-.398,1.382-2.378-3.447-7.098-6.872-6.356C59.0097,121.93384,59.6797,126.27982,60.6217,128.00281Z"/>
    <path class="cls-26" d="M59.2309,130.11438a2.1205,2.1205,0,1,1,2.12,2.121,2.11981,2.11981,0,0,1-2.12-2.121"/>
    <path class="cls-36" d="M59.2309,130.11438a2.1205,2.1205,0,1,1,2.12,2.121A2.11981,2.11981,0,0,1,59.2309,130.11438Z"/>
    <path class="cls-37" d="M49.8038,165.93738a11.5475,11.5475,0,1,1,11.547,11.551,11.54752,11.54752,0,0,1-11.547-11.551"/>
    <path class="cls-38" d="M49.8038,165.93738a11.5475,11.5475,0,1,1,11.547,11.551A11.54752,11.54752,0,0,1,49.8038,165.93738Z"/>
    <path class="cls-28" d="M63.2461,166.16879s-.83-.003-2.133,1.889a2.95753,2.95753,0,0,1-.055,2.943c-.551.897-2.16,2.423-1.434,3.772,1.056,1.962,8.166.025,8.753-3.32.754-4.3-3.169-5.36-5.131-5.284"/>
    <path class="cls-29" d="M63.2461,166.16879s-.83-.003-2.133,1.889a2.95753,2.95753,0,0,1-.055,2.943c-.551.897-2.16,2.423-1.434,3.772,1.056,1.962,8.166.025,8.753-3.32C69.1311,167.1528,65.2081,166.0928,63.2461,166.16879Z"/>
    <path class="cls-28" d="M59.4023,167.24139a5.018,5.018,0,0,0,.183-2.843,2.95492,2.95492,0,0,1-2.034-2.127c-.242-1.025-.284-2.978-1.642-3.687-1.944-1.015-5.716,5.625-3.871,8.523,2.23,3.5,6.025,1.57,7.364.134"/>
    <path class="cls-29" d="M59.4023,167.24139a5.018,5.018,0,0,0,.183-2.843,2.95492,2.95492,0,0,1-2.034-2.127c-.242-1.025-.284-2.978-1.642-3.687-1.944-1.015-5.716,5.625-3.871,8.523C54.2683,170.60742,58.0633,168.6774,59.4023,167.24139Z"/>
    <path class="cls-28" d="M60.6217,163.82568s.436.761,2.642,1.068a2.953,2.953,0,0,1,2.659-1.262c1.048.092,3.246.926,4.016-.398,1.381-2.378-3.448-7.098-6.873-6.356-4.056.879-3.386,5.225-2.444,6.948"/>
    <path class="cls-29" d="M60.6217,163.82568s.436.761,2.642,1.068a2.953,2.953,0,0,1,2.659-1.262c1.048.092,3.246.926,4.016-.398,1.381-2.378-3.448-7.098-6.873-6.356C59.0097,157.75671,59.6797,162.10269,60.6217,163.82568Z"/>
    <path class="cls-37" d="M59.2309,165.93738a2.1205,2.1205,0,1,1,2.12,2.121,2.11981,2.11981,0,0,1-2.12-2.121"/>
    <path class="cls-36" d="M59.2309,165.93738a2.1205,2.1205,0,1,1,2.12,2.121A2.11981,2.11981,0,0,1,59.2309,165.93738Z"/>
    <path class="cls-39" d="M102.2304,124.4744s-7.715-3.645-13.224-.016c-5.509,3.628-13.225.016-13.225.016"/>
    <polyline class="cls-39" points="100.843 122.825 102.745 124.475 100.515 125.073"/>
    <path class="cls-39" d="M102.2304,128.07239s-7.715-3.645-13.224-.016c-5.509,3.628-13.225.016-13.225.016"/>
    <polyline class="cls-39" points="100.843 126.423 102.745 128.073 100.515 128.671"/>
    <path class="cls-39" d="M102.2304,131.67029s-7.715-3.645-13.224-.016c-5.509,3.628-13.225.016-13.225.016"/>
    <polyline class="cls-39" points="100.843 130.021 102.745 131.671 100.515 132.269"/>
    <path class="cls-39" d="M102.2304,135.26819s-7.715-3.645-13.224-.016c-5.509,3.628-13.225.016-13.225.016"/>
    <polyline class="cls-39" points="100.843 133.618 102.745 135.269 100.515 135.867"/>
    <path class="cls-40" d="M102.2304,160.79279s-7.715-3.645-13.224-.016c-5.509,3.628-13.225.016-13.225.016"/>
    <polyline class="cls-40" points="100.843 159.143 102.745 160.793 100.515 161.391"/>
    <path class="cls-40" d="M102.2304,164.29349s-7.715-3.645-13.224-.016c-5.509,3.628-13.225.016-13.225.016"/>
    <polyline class="cls-40" points="100.843 162.644 102.745 164.294 100.515 164.892"/>
    <path class="cls-40" d="M102.2304,167.79428s-7.715-3.645-13.224-.016c-5.509,3.628-13.225.016-13.225.016"/>
    <polyline class="cls-40" points="100.843 166.145 102.745 167.795 100.515 168.393"/>
    <path class="cls-40" d="M102.2393,171.2951s-7.715-3.645-13.224-.016c-5.509,3.628-13.225.016-13.225.016"/>
    <polyline class="cls-40" points="100.852 169.645 102.754 171.295 100.524 171.893"/>
  </g>
  <g class="cls-2">
    <path class="cls-42" d="M26.371,16.45062s-9.921,0-9.921,9.921v514.187s0,9.92206,9.921,9.92206H257.094s9.921,0,9.921-9.92206V26.37164s0-9.921-9.921-9.921Z"/>
  </g>
  <g class="cls-43">
    <polygon class="cls-44" points="63.609 468.704 63.609 473.653 100.607 473.653 100.607 448.082 82.107 431.226 63.609 448.082 63.609 468.704"/>
    <path class="cls-45" d="M72.8778,462.27779q-1.53-1.36348-3.056-2.726h-2.18v-4.355h2.18q1.527-1.362,3.056-2.726l1.264-1.125v12.06Z"/>
    <path class="cls-46" d="M72.4917,461.3252q-1.23152-1.0995-2.462-2.196h-1.755v-3.509h1.755q1.23-1.095,2.462-2.195l1.019-.907v9.714Z"/>
    <path class="cls-47" d="M72.4917,461.3252q-1.23152-1.0995-2.462-2.196h-1.755v-3.509h1.755q1.23-1.095,2.462-2.195l1.019-.907v9.714Z"/>
    <path class="cls-48" d="M83.98709,445.8702a20.96947,20.96947,0,0,1,.038,23.01m-3.829-19.837a14.41829,14.41829,0,0,1,.048,16.635m-3.7-13.491a8.13268,8.13268,0,0,1,.068,10.318"/>
    <polygon class="cls-44" points="63.609 519.288 63.609 524.237 100.607 524.237 100.607 498.666 82.107 481.81 63.609 498.666 63.609 519.288"/>
    <path class="cls-49" d="M57.0789,515.184q1.6095-1.43548,3.217-2.869h2.295v-4.586h-2.295q-1.6065-1.43251-3.217-2.87l-1.331-1.185v12.697Z"/>
    <path class="cls-46" d="M57.4851,514.18089q1.2975-1.155,2.591-2.311h1.849v-3.695h-1.849q-1.293-1.1535-2.591-2.311l-1.073-.956v10.228Z"/>
    <path class="cls-47" d="M57.4851,514.18089q1.2975-1.155,2.591-2.311h1.849v-3.695h-1.849q-1.293-1.1535-2.591-2.311l-1.073-.956v10.228Z"/>
    <path class="cls-48" d="M45.3422,522.1354a22.07605,22.07605,0,0,1,.04-24.226m3.94,20.855a15.18484,15.18484,0,0,1,.051-17.514m3.773,14.174a8.5702,8.5702,0,0,1,.072-10.865"/>
  </g>
  <g class="cls-50">
    <text class="cls-51" transform="translate(224.48438 148.6004)"><tspan xml:space="preserve"> A</tspan></text>
    <text class="cls-52" transform="translate(239.17773 140.92804)"><tspan class="cls-53">++</tspan><tspan x="7.78223" y="0">+</tspan></text>
    <text class="cls-52" transform="translate(250.87305 140.92804)">+</text>
  </g>
  <g class="cls-50">
    <text class="cls-51" transform="translate(224.48438 214.16779)"><tspan xml:space="preserve"> A</tspan></text>
    <text class="cls-52" transform="translate(239.17773 206.50714)">+</text>
    <text class="cls-52" transform="translate(243.07617 206.50714)">+</text>
    <text class="cls-51" transform="translate(224.48438 246.95099)"><tspan xml:space="preserve"> A</tspan></text>
    <text class="cls-52" transform="translate(239.17773 239.27814)">+</text>
    <text class="cls-51" transform="translate(224.48438 279.73468)"><tspan xml:space="preserve"> A</tspan></text>
    <text class="cls-51" transform="translate(224.48438 313.20636)"><tspan xml:space="preserve"> B</tspan></text>
    <text class="cls-51" transform="translate(224.48438 345.99054)"><tspan xml:space="preserve"> C</tspan></text>
    <text class="cls-51" transform="translate(224.48438 378.77472)"><tspan xml:space="preserve"> D</tspan></text>
    <text class="cls-51" transform="translate(224.48438 411.5589)"><tspan xml:space="preserve"> E</tspan></text>
    <text class="cls-51" transform="translate(224.48438 444.34308)"><tspan xml:space="preserve"> F</tspan></text>
    <text class="cls-51" transform="translate(224.48438 477.12726)"><tspan xml:space="preserve"> G</tspan></text>
  </g>









  <text class="cls-11" transform="translate(149.25391 132.9339)">C</text>
  <text class="cls-11" transform="translate(154.61426 132.9339)">O</text>
  <text class="cls-11" transform="translate(161.27344 132.9339)">P</text>
  <text class="cls-55" transform="translate(84.72314 494.63507)">d</text>
  <text class="cls-55" transform="translate(91.94727 494.63507)">B</text>
  <text class="cls-11" transform="translate(29.55811 132.9339)"><tspan class="cls-58">E</tspan><tspan x="4.78271" y="0">E</tspan></text>
  <text class="cls-11" transform="translate(39.11816 132.9339)">R</text>
  <g id="eerRating">
    <polyline id="eerRatingArrow" class="cls-59" points="102.44 177.85 116.02 164.13 133.57 164.13 133.57 191.57 116.02 191.57 102.44 177.85"/>
    <text id="eerRatingLetter" class="cls-60" transform="translate(110.1001 182.09991)">A</text>
    <text id="eerRatingPlusses" class="cls-61" transform="translate(119.87012 174.30011)">+++</text>
  </g>
  <g id="copRating">
    <polyline id="copRatingArrow" class="cls-59" points="222.21 177.85 235.79 164.13 253.33 164.13 253.33 191.57 235.79 191.57 222.21 177.85"/>
    <text id="copRatingLetter" class="cls-60" transform="translate(229.86035 182.09991)">A</text>
    <text id="copRatingPlusses" class="cls-61" transform="translate(239.63965 174.30011)">+++</text>
  </g>
  <text transform="translate(80.56982 359.34991)" text-anchor="middle">
    <tspan id="eerKw" class="cls-62">X</tspan><tspan class="cls-55">kW</tspan>
  </text>
  <text transform="translate(80.56982 382.34015)" text-anchor="middle">
    <tspan id="eer" class="cls-62">X</tspan><tspan class="cls-55">EER</tspan>
  </text>
  <text transform="translate(80.56982 405.33038)" text-anchor="middle">
    <tspan id="eerKwhHour" class="cls-62">X</tspan><tspan class="cls-55">kWh/60min</tspan>
  </text>
  <text transform="translate(200.56982 359.34991)" text-anchor="middle">
    <tspan id="copKw" class="cls-62">X</tspan><tspan class="cls-55">kW</tspan>
  </text>
  <text transform="translate(200.56982 382.34015)" text-anchor="middle">
    <tspan id="cop" class="cls-62">X</tspan><tspan class="cls-55">COP</tspan>
  </text>
  <text transform="translate(200.56982 405.33038)" text-anchor="middle">
    <tspan id="copKwhHour" class="cls-62">X</tspan><tspan class="cls-55">kWh/60min</tspan>
  </text>
  <text id="db" class="cls-62" transform="translate(61.02979 494.62042)">X</text>
  <text id="supplierLine2" class="cls-55" transform="translate(25.19998 101.37001)">X</text>
  <text id="supplierLine1" class="cls-55" transform="translate(25.19998 87.07851)">X</text>
  <text id="modelLine2" class="cls-55" transform="translate(144.5701 101.37001)">X</text>
  <text id="modelLine1" class="cls-55" transform="translate(144.5701 87.07851)">X</text>

<g id="union-flag" transform="translate(25.319, 25.38397) scale(1.5124673333333334)">
	<path id="blue" fill="#004289" d="M9.59,20L0,26.39V20H9.59z M39.59,0H27.5v8.06L39.59,0z M0,3.61V10h9.59L0,3.61z M17.5,0H5.41
		L17.5,8.06V0z M27.5,30h12.09L27.5,21.94V30z M45,10V3.61L35.41,10H45z M45,26.39V20h-9.59L45,26.39z M5.41,30H17.5v-8.06L5.41,30z
		"/>
	<path id="red" fill="#DC2F34" d="M45,18H25.5v12h-6V18H0v-6h19.5V0h6v12H45V18z M0,2.42L11.38,10h3.61L0,0.01V2.42z M45,27.58
		L33.62,20h-3.61L45,29.99V27.58z M17.5,20.74V20H15L0,30h3.61L17.5,20.74z M27.5,9.26V10H30L45,0h-3.61L27.5,9.26z"/>
</g><path id="energy-heading" d="M7.1581,7.21791H2.33537v3.7413H7.72769v1.90845H0V.13234H7.44305V2.04079H2.33537V5.32836H7.1581Zm3.53413,5.64975V.13234h2.677L16.67314,5.593a37.85159,37.85159,0,0,1,2.18339,4.27032h.038a51.82706,51.82706,0,0,1-.20865-5.29055V.13234h2.1644V12.86766H18.41992L15.07833,7.25572a43.774,43.774,0,0,1-2.2787-4.38342l-.076.0189c.095,1.64379.133,3.32538.133,5.42289v4.55357ZM31.63845,7.21791H26.81573v3.7413h5.392v1.90845H24.48V.13234h7.44305V2.04079H26.81573V5.32836h4.82272ZM35.19126.32139A20.16965,20.16965,0,0,1,38.72282.03781a5.98372,5.98372,0,0,1,3.94949,1.02056,3.228,3.228,0,0,1,1.1012,2.56949,3.347,3.347,0,0,1-2.3357,3.17446V6.859a3.16007,3.16007,0,0,1,1.7851,2.45638,32.106,32.106,0,0,0,1.00653,3.55224H41.83707a16.17761,16.17761,0,0,1-.85455-3.00431c-.37994-1.66269-.96854-2.19171-2.2977-2.22952H37.50764v5.23383H35.19126ZM37.50764,5.933h1.38647c1.57581,0,2.5437-.83119,2.5437-2.09719,0-1.37943-.96789-2.04079-2.487-2.04079a6.74576,6.74576,0,0,0-1.44314.11343Zm19.67341,6.34892A12.70364,12.70364,0,0,1,53.08022,13a6.96331,6.96331,0,0,1-5.032-1.7005,6.3681,6.3681,0,0,1-1.78446-4.68623C46.28243,2.56982,49.1494,0,53.38353,0a8.52961,8.52961,0,0,1,3.3989.60464l-.5126,1.87065a6.6378,6.6378,0,0,0-2.905-.54793c-2.73432,0-4.65207,1.606-4.65207,4.5728,0,2.89088,1.78509,4.61029,4.44342,4.61029a4.91246,4.91246,0,0,0,1.76578-.24577v-3.193H52.66228V5.8388h4.51877Zm6.23045.58573V7.55821L59.36734.13234h2.677l1.51914,3.269c.43661.94462.75924,1.66269,1.11987,2.53169h.038c.304-.81228.66458-1.606,1.10184-2.53169L67.361.13234H70L65.74719,7.50149v5.36617Z" fill="#fff" transform="translate(107.88244350879879, 37.99897556045313) scale(1.5124673333333334)"/></svg>