<svg xmlns="http://www.w3.org/2000/svg" xmlns:xlink="http://www.w3.org/1999/xlink" id="Layer_1" data-name="Layer 1" width="110mm" height="220mm" viewBox="0 0 311.81 623.62" data-rating-increment="23.37" data-supplier-model-chars-per-row="15">
  <defs>
    <style>
      #starRating&gt;* {
        visibility: hidden;
      }

      #starRating.starRating0 #zero {
        visibility: visible;
      }

      #starRating.starRating1 #one {
        visibility: visible;
      }

      #starRating.starRating2 #two {
        visibility: visible;
      }

      #starRating.starRating3 #three {
        visibility: visible;
      }

      #starRating.starRating4 #four {
        visibility: visible;
      }

      .cls-1, .cls-12, .cls-14, .cls-16, .cls-24, .cls-3, .cls-4, .cls-44, .cls-46, .cls-8, .cls-9 {
        fill: none;
      }

      .cls-2 {
        clip-path: url(#clip-path);
      }

      .cls-16, .cls-24, .cls-3, .cls-4, .cls-44, .cls-46 {
        stroke: #00aeef;
      }

      .cls-3 {
        stroke-width: 5px;
      }

      .cls-4 {
        stroke-width: 2px;
      }

      .cls-32, .cls-33, .cls-39, .cls-40, .cls-5 {
        fill: #fff;
      }

      .cls-6 {
        clip-path: url(#clip-path-2);
      }

      .cls-45, .cls-7 {
        fill: #00aeef;
      }

      .cls-8 {
        stroke: #fff;
        stroke-width: 3.78px;
      }

      .cls-12, .cls-9 {
        stroke: #44c8f5;
      }

      .cls-9 {
        stroke-linecap: round;
        stroke-linejoin: round;
        stroke-width: 4.32px;
      }

      .cls-10 {
        clip-path: url(#clip-path-4);
      }

      .cls-11 {
        fill: #44c8f5;
      }

      .cls-12 {
        stroke-width: 1.215px;
      }

      .cls-13 {
        fill: #5bcbf5;
      }

      .cls-14 {
        stroke: #231f20;
      }

      .cls-14, .cls-16 {
        stroke-width: 0.318px;
      }

      .cls-15 {
        fill: #00b9f2;
      }

      .cls-17 {
        fill: #abe1fa;
      }

      .cls-18 {
        fill: #6dcff6;
      }

      .cls-19 {
        fill: #d4effc;
      }

      .cls-20 {
        fill: #1b75bc;
      }

      .cls-21 {
        fill: #034ea2;
      }

      .cls-22 {
        fill: #fff200;
      }

      .cls-23 {
        clip-path: url(#clip-path-6);
      }

      .cls-25, .cls-36, .cls-37, .cls-38, .cls-41, .cls-42, .cls-43 {
        fill: #231f20;
      }

      .cls-26 {
        fill: #00a651;
      }

      .cls-27 {
        fill: #50b848;
      }

      .cls-28 {
        fill: #bfd730;
      }

      .cls-29 {
        fill: #fdb913;
      }

      .cls-30 {
        fill: #f37021;
      }

      .cls-31 {
        fill: #ed1c24;
      }

      .cls-32 {
        font-size: 19px;
      }

      .cls-32, .cls-33, .cls-36, .cls-38, .cls-39, .cls-42, .cls-43 {
        font-family: Calibri-Bold, Calibri;
        font-weight: 700;
      }

      .cls-33 {
        font-size: 13px;
      }

      .cls-34 {
        letter-spacing: 0.00999em;
      }

      .cls-35 {
        clip-path: url(#clip-path-8);
      }

      .cls-36 {
        font-size: 24px;
      }

      .cls-37 {
        font-size: 17px;
      }

      .cls-37, .cls-40, .cls-41 {
        font-family: Calibri;
      }

      .cls-38 {
        font-size: 11px;
      }

      .cls-39 {
        font-size: 29px;
      }

      .cls-40 {
        font-size: 18px;
      }

      .cls-41 {
        font-size: 16px;
      }

      .cls-42 {
        font-size: 45px;
      }

      .cls-43 {
        font-size: 25px;
      }

      .cls-44, .cls-46 {
        stroke-miterlimit: 10;
      }

      .cls-44 {
        stroke-width: 0.2px;
      }

      .cls-44, .cls-45, .cls-46 {
        fill-rule: evenodd;
      }

      .cls-46 {
        stroke-width: 0.24602px;
      }
    </style>
    <clipPath id="clip-path">
      <rect class="cls-1" y="-0.00201" width="311.811" height="623.62201"/>
    </clipPath>
    <clipPath id="clip-path-2">
      <rect class="cls-1" x="212.59801" y="490.39099" width="62.36299" height="56.694"/>
    </clipPath>
    <clipPath id="clip-path-4">
      <rect class="cls-1" x="124.725" y="487.55699" width="62.36201" height="56.693"/>
    </clipPath>
    <clipPath id="clip-path-6">
      <rect class="cls-1" x="25.512" y="25.508" width="260.78698" height="51.02502"/>
    </clipPath>
    <clipPath id="clip-path-8">
      <rect class="cls-1" x="24.803" y="145.84003" width="177.87399" height="167.09598"/>
    </clipPath>
  </defs>
  <title>household-refridgerating-appliances</title>
  <g class="cls-2">
    <path class="cls-3" d="M26.5945,16.67108s-9.921,0-9.921,9.921v570.433s0,9.922,9.921,9.922h258.622s9.921,0,9.921-9.922V26.5921s0-9.921-9.921-9.921Z"/>
    <path class="cls-4" d="M39.2677,482.8877s-9.921,0-9.921,9.921v80.205s0,9.921,9.921,9.921h57.528s9.921,0,9.921-9.921v-80.205s0-9.921-9.921-9.921Z"/>
    <path class="cls-4" d="M127.1417,482.8877s-9.921,0-9.921,9.921v80.205s0,9.921,9.921,9.921h57.528s9.921,0,9.921-9.921v-80.205s0-9.921-9.921-9.921Z"/>
    <path class="cls-4" d="M215.0157,482.8877s-9.921,0-9.921,9.921v80.205s0,9.921,9.921,9.921h57.528s9.921,0,9.921-9.921v-80.205s0-9.921-9.921-9.921Z"/>
    <rect class="cls-5" x="212.59801" y="490.39099" width="62.36299" height="56.694"/>
  </g>
  <g class="cls-6">
    <path class="cls-7" d="M237.0117,530.94469q-3.8025-3.393-7.609-6.786h-5.425v-10.844h5.425q3.804-3.3915,7.609-6.784l3.149-2.807v30.028Z"/>
    <path class="cls-8" d="M237.0117,530.94469q-3.8025-3.393-7.609-6.786h-5.425v-10.844h5.425q3.804-3.3915,7.609-6.784l3.149-2.807v30.028Z"/>
    <path class="cls-9" d="M257.33759,497.6364a38.46818,38.46818,0,0,1,.071,42.204m-7.024-36.385a26.44315,26.44315,0,0,1,.085,30.514m-6.786-24.744a14.9216,14.9216,0,0,1,.129,18.925"/>
  </g>
  <g class="cls-2">
    <rect class="cls-5" x="124.725" y="487.55699" width="62.36201" height="56.693"/>
  </g>
  <g class="cls-10">
    <path class="cls-11" d="M174.058,525.0182a.82927.82927,0,0,1,.301,1.159l-.319.517a.87864.87864,0,0,1-1.189.297l-4.631-2.743c-.407-.241-.716-.052-.687.421l.307,4.838a.63537.63537,0,0,1-.79.698l-.326-.062a1.15225,1.15225,0,0,1-.888-1.023l-.273-5.608a1.78834,1.78834,0,0,0-.783-1.298l-7.152-4.227c-.407-.241-.737-.051-.731.422l.099,8.307a1.79084,1.79084,0,0,0,.733,1.328l4.755,3.072a1.1152,1.1152,0,0,1,.417,1.272l-.1.26a.65544.65544,0,0,1-1.021.323l-4-2.688c-.394-.263-.711-.092-.708.382l.047,5.458a.8604.8604,0,0,1-.856.863h-.622a.85742.85742,0,0,1-.854-.863l.045-5.458c.004-.474-.314-.645-.707-.382l-4.001,2.688a.65559.65559,0,0,1-1.021-.323l-.098-.26a1.11333,1.11333,0,0,1,.416-1.272l4.755-3.072a1.7866,1.7866,0,0,0,.732-1.328l.099-8.307c.005-.473-.323-.663-.731-.422l-7.15,4.227a1.78335,1.78335,0,0,0-.784,1.298l-.273,5.608a1.15242,1.15242,0,0,1-.887,1.023l-.327.062a.63607.63607,0,0,1-.791-.698l.307-4.838c.03-.473-.28-.662-.687-.421l-4.63,2.743a.8815.8815,0,0,1-1.191-.297l-.317-.517a.82926.82926,0,0,1,.301-1.159l4.76-2.684c.413-.234.402-.595-.023-.804l-4.359-2.147a.64251.64251,0,0,1-.217-1.038l.165-.196a1.14968,1.14968,0,0,1,1.325-.273l5.077,2.551a1.81232,1.81232,0,0,0,1.519-.039l7.195-4.076a.44609.44609,0,0,0,0-.849l-7.195-4.076a1.80045,1.80045,0,0,0-1.517-.036l-5.08,2.575a1.1457,1.1457,0,0,1-1.324-.27l-.165-.196a.64231.64231,0,0,1,.217-1.038l4.359-2.147c.425-.21.436-.572.023-.804l-4.76-2.685a.83465.83465,0,0,1-.306-1.161l.327-.542a.86787.86787,0,0,1,1.184-.296l4.634,2.766c.407.244.715.055.685-.418l-.307-4.838a.64762.64762,0,0,1,.793-.71l.322.057a1.132,1.132,0,0,1,.889,1.01l.274,5.639a1.78447,1.78447,0,0,0,.784,1.297l7.15,4.227c.408.241.736.051.731-.422l-.099-8.307a1.7866,1.7866,0,0,0-.732-1.328l-4.755-3.072a1.12137,1.12137,0,0,1-.421-1.273l.107-.286a.65091.65091,0,0,1,1.017-.326l4.001,2.689c.393.264.711.092.707-.381l-.045-5.429a.85571.85571,0,0,1,.854-.861h.622a.85868.85868,0,0,1,.856.861l-.047,5.429c-.003.473.314.645.708.381l4-2.689a.65091.65091,0,0,1,1.017.326l.108.286a1.12139,1.12139,0,0,1-.421,1.273l-4.755,3.072a1.79084,1.79084,0,0,0-.733,1.328l-.099,8.307c-.006.473.324.663.731.422l7.152-4.227a1.78642,1.78642,0,0,0,.783-1.297l.273-5.639a1.13311,1.13311,0,0,1,.889-1.01l.321-.057a.64735.64735,0,0,1,.794.71l-.307,4.838c-.029.473.279.662.685.418l4.634-2.766a.86884.86884,0,0,1,1.185.296l.326.542a.83437.83437,0,0,1-.305,1.161l-4.76,2.685c-.413.232-.403.594.022.804l4.36,2.147a.64232.64232,0,0,1,.217,1.038l-.166.196a1.14537,1.14537,0,0,1-1.324.27l-5.079-2.575a1.80262,1.80262,0,0,0-1.518.036l-7.194,4.076a.44575.44575,0,0,0,0,.849l7.194,4.076a1.81232,1.81232,0,0,0,1.519.039l5.077-2.551a1.14936,1.14936,0,0,1,1.325.273l.166.196a.64251.64251,0,0,1-.217,1.038l-4.36,2.147c-.425.209-.435.57-.022.804Z"/>
    <path class="cls-12" d="M174.058,525.0182a.82927.82927,0,0,1,.301,1.159l-.319.517a.87864.87864,0,0,1-1.189.297l-4.631-2.743c-.407-.241-.716-.052-.687.421l.307,4.838a.63537.63537,0,0,1-.79.698l-.326-.062a1.15225,1.15225,0,0,1-.888-1.023l-.273-5.608a1.78834,1.78834,0,0,0-.783-1.298l-7.152-4.227c-.407-.241-.737-.051-.731.422l.099,8.307a1.79084,1.79084,0,0,0,.733,1.328l4.755,3.072a1.1152,1.1152,0,0,1,.417,1.272l-.1.26a.65544.65544,0,0,1-1.021.323l-4-2.688c-.394-.263-.711-.092-.708.382l.047,5.458a.8604.8604,0,0,1-.856.863h-.622a.85742.85742,0,0,1-.854-.863l.045-5.458c.004-.474-.314-.645-.707-.382l-4.001,2.688a.65559.65559,0,0,1-1.021-.323l-.098-.26a1.11333,1.11333,0,0,1,.416-1.272l4.755-3.072a1.7866,1.7866,0,0,0,.732-1.328l.099-8.307c.005-.473-.323-.663-.731-.422l-7.15,4.227a1.78335,1.78335,0,0,0-.784,1.298l-.273,5.608a1.15242,1.15242,0,0,1-.887,1.023l-.327.062a.63607.63607,0,0,1-.791-.698l.307-4.838c.03-.473-.28-.662-.687-.421l-4.63,2.743a.8815.8815,0,0,1-1.191-.297l-.317-.517a.82926.82926,0,0,1,.301-1.159l4.76-2.684c.413-.234.402-.595-.023-.804l-4.359-2.147a.64251.64251,0,0,1-.217-1.038l.165-.196a1.14968,1.14968,0,0,1,1.325-.273l5.077,2.551a1.81232,1.81232,0,0,0,1.519-.039l7.195-4.076a.44609.44609,0,0,0,0-.849l-7.195-4.076a1.80045,1.80045,0,0,0-1.517-.036l-5.08,2.575a1.1457,1.1457,0,0,1-1.324-.27l-.165-.196a.64231.64231,0,0,1,.217-1.038l4.359-2.147c.425-.21.436-.572.023-.804l-4.76-2.685a.83465.83465,0,0,1-.306-1.161l.327-.542a.86787.86787,0,0,1,1.184-.296l4.634,2.766c.407.244.715.055.685-.418l-.307-4.838a.64762.64762,0,0,1,.793-.71l.322.057a1.132,1.132,0,0,1,.889,1.01l.274,5.639a1.78447,1.78447,0,0,0,.784,1.297l7.15,4.227c.408.241.736.051.731-.422l-.099-8.307a1.7866,1.7866,0,0,0-.732-1.328l-4.755-3.072a1.12137,1.12137,0,0,1-.421-1.273l.107-.286a.65091.65091,0,0,1,1.017-.326l4.001,2.689c.393.264.711.092.707-.381l-.045-5.429a.85571.85571,0,0,1,.854-.861h.622a.85868.85868,0,0,1,.856.861l-.047,5.429c-.003.473.314.645.708.381l4-2.689a.65091.65091,0,0,1,1.017.326l.108.286a1.12139,1.12139,0,0,1-.421,1.273l-4.755,3.072a1.79084,1.79084,0,0,0-.733,1.328l-.099,8.307c-.006.473.324.663.731.422l7.152-4.227a1.78642,1.78642,0,0,0,.783-1.297l.273-5.639a1.13311,1.13311,0,0,1,.889-1.01l.321-.057a.64735.64735,0,0,1,.794.71l-.307,4.838c-.029.473.279.662.685.418l4.634-2.766a.86884.86884,0,0,1,1.185.296l.326.542a.83437.83437,0,0,1-.305,1.161l-4.76,2.685c-.413.232-.403.594.022.804l4.36,2.147a.64232.64232,0,0,1,.217,1.038l-.166.196a1.14537,1.14537,0,0,1-1.324.27l-5.079-2.575a1.80262,1.80262,0,0,0-1.518.036l-7.194,4.076a.44575.44575,0,0,0,0,.849l7.194,4.076a1.81232,1.81232,0,0,0,1.519.039l5.077-2.551a1.14936,1.14936,0,0,1,1.325.273l.166.196a.64251.64251,0,0,1-.217,1.038l-4.36,2.147c-.425.209-.435.57-.022.804Z"/>
  </g>
  <g class="cls-2">
    <rect class="cls-5" x="55.877" y="490.392" width="24.308" height="49.936"/>
    <polygon class="cls-13" points="68.232 495.578 73.931 495.078 79.23 499.578 78.13 500.977 63.432 502.777 68.232 495.578"/>
    <polygon class="cls-14" points="68.232 495.578 73.931 495.078 79.23 499.578 78.13 500.977 63.432 502.777 68.232 495.578"/>
    <polygon class="cls-15" points="73.031 494.178 79.23 499.577 71.431 495.978 63.632 492.978 73.031 494.178"/>
    <polygon class="cls-16" points="73.031 494.178 79.23 499.577 71.431 495.978 63.632 492.978 73.031 494.178"/>
    <polygon class="cls-17" points="79.23 535.773 79.23 499.577 67.232 500.927 67.232 539.373 79.23 535.773"/>
    <polygon class="cls-16" points="79.23 535.773 79.23 499.577 67.232 500.927 67.232 539.373 79.23 535.773"/>
    <polygon class="cls-18" points="67.232 539.373 67.232 500.927 56.833 499.378 56.833 535.773 67.232 539.373"/>
    <polygon class="cls-16" points="67.232 539.373 67.232 500.927 56.833 499.378 56.833 535.773 67.232 539.373"/>
    <polygon class="cls-19" points="73.031 494.178 67.232 500.927 56.833 499.377 63.632 492.978 73.031 494.178"/>
    <polygon class="cls-16" points="73.031 494.178 67.232 500.927 56.833 499.377 63.632 492.978 73.031 494.178"/>
    <polygon class="cls-5" points="73.031 494.178 73.031 491.978 63.632 491.028 63.632 492.978 73.031 494.178"/>
    <polygon class="cls-16" points="73.031 494.178 73.031 491.978 63.632 491.028 63.632 492.978 73.031 494.178"/>
    <polygon class="cls-20" points="70.711 514.143 70.683 514.149 69.016 515.355 68.722 514.106 70.935 512.531 72.378 512.222 72.378 521.368 70.711 521.737 70.711 514.143"/>
    <polygon class="cls-20" points="74.89 514.789 75.665 514.621 75.665 519.988 78.233 519.421 78.233 520.072 74.89 520.812 74.89 514.789"/>
    <rect class="cls-21" x="25.532" y="25.646" width="76.082" height="50.815"/>
    <rect class="cls-7" x="104.131" y="25.646" width="182.16801" height="50.815"/>
    <polygon class="cls-22" points="79.294 42.587 80.929 41.399 78.908 41.399 78.283 39.476 77.658 41.399 75.636 41.399 77.272 42.587 76.647 44.51 78.283 43.321 79.918 44.51 79.294 42.587"/>
    <polygon class="cls-22" points="72.927 36.49 74.562 35.302 72.541 35.302 71.916 33.379 71.291 35.302 69.27 35.302 70.905 36.49 70.28 38.413 71.916 37.224 73.552 38.413 72.927 36.49"/>
    <polygon class="cls-22" points="64.713 34.309 66.349 33.121 64.327 33.121 63.702 31.198 63.077 33.121 61.055 33.121 62.691 34.309 62.067 36.232 63.702 35.044 65.338 36.232 64.713 34.309"/>
    <polygon class="cls-22" points="56.064 36.49 57.699 35.302 55.678 35.302 55.053 33.379 54.428 35.302 52.406 35.302 54.042 36.49 53.417 38.413 55.053 37.224 56.689 38.413 56.064 36.49"/>
    <polygon class="cls-22" points="49.885 42.886 51.521 41.698 49.499 41.698 48.874 39.775 48.249 41.698 46.227 41.698 47.863 42.886 47.239 44.809 48.874 43.621 50.51 44.809 49.885 42.886"/>
    <polygon class="cls-22" points="47.912 51.29 49.548 50.102 47.526 50.102 46.901 48.179 46.276 50.102 44.254 50.102 45.89 51.29 45.265 53.213 46.901 52.024 48.537 53.213 47.912 51.29"/>
    <polygon class="cls-22" points="49.947 59.804 51.583 58.616 49.561 58.616 48.936 56.693 48.311 58.616 46.289 58.616 47.925 59.804 47.301 61.727 48.936 60.539 50.572 61.727 49.947 59.804"/>
    <polygon class="cls-22" points="56.064 65.855 57.699 64.666 55.678 64.666 55.053 62.744 54.428 64.666 52.406 64.666 54.042 65.855 53.417 67.778 55.053 66.589 56.689 67.777 56.064 65.855"/>
    <polygon class="cls-22" points="64.713 68.109 66.348 66.92 64.326 66.92 63.702 64.998 63.077 66.92 61.055 66.92 62.691 68.109 62.066 70.032 63.702 68.843 65.338 70.032 64.713 68.109"/>
    <polygon class="cls-22" points="73.129 65.824 74.765 64.635 72.742 64.635 72.118 62.713 71.493 64.635 69.471 64.635 71.107 65.824 70.483 67.747 72.118 66.559 73.753 67.747 73.129 65.824"/>
    <polygon class="cls-22" points="79.251 59.75 80.886 58.562 78.865 58.562 78.24 56.639 77.615 58.562 75.594 58.562 77.229 59.75 76.604 61.673 78.24 60.484 79.876 61.673 79.251 59.75"/>
    <polygon class="cls-22" points="81.504 51.172 83.139 49.984 81.118 49.984 80.493 48.061 79.869 49.984 77.846 49.984 79.482 51.172 78.857 53.095 80.493 51.906 82.128 53.095 81.504 51.172"/>

  </g>

  <g class="cls-2">
    <line class="cls-24" x1="24.8031" y1="126.63971" x2="287.00809" y2="126.63971"/>



    <path class="cls-25" d="M263.77438,433.52991a5.46887,5.46887,0,0,0-.128-1.199,2.71474,2.71474,0,0,0-.432-.992,2.18984,2.18984,0,0,0-.793-.677,2.61364,2.61364,0,0,0-1.212-.253,2.26344,2.26344,0,0,0-.593.079,2.62685,2.62685,0,0,0-.606.253,4.14735,4.14735,0,0,0-.647.457,7.57992,7.57992,0,0,0-.71.688,2.70179,2.70179,0,0,0-.332-.601,2.02884,2.02884,0,0,0-.482-.465,2.24259,2.24259,0,0,0-.651-.303,2.98134,2.98134,0,0,0-.835-.108,2.452,2.452,0,0,0-1.199.328,4.82742,4.82742,0,0,0-1.224,1.033v-.988a.20955.20955,0,0,0-.029-.112.27708.27708,0,0,0-.096-.083.48015.48015,0,0,0-.187-.049,3.58423,3.58423,0,0,0-.61,0,.55973.55973,0,0,0-.191.049.22349.22349,0,0,0-.099.083.22891.22891,0,0,0-.025.112v7.471a.19666.19666,0,0,0,.029.112.22035.22035,0,0,0,.108.079.818.818,0,0,0,.211.05,2.80423,2.80423,0,0,0,.333.016,2.87523,2.87523,0,0,0,.34-.016.7535.7535,0,0,0,.207-.05.253.253,0,0,0,.108-.079.18352.18352,0,0,0,.033-.112v-5.221a6.29727,6.29727,0,0,1,1.046-1.071,1.585,1.585,0,0,1,.955-.365,1.38581,1.38581,0,0,1,.66.149,1.25981,1.25981,0,0,1,.461.432,2.10886,2.10886,0,0,1,.273.672,3.79129,3.79129,0,0,1,.092.864v4.54a.19666.19666,0,0,0,.029.112.22016.22016,0,0,0,.108.079.82124.82124,0,0,0,.216.05,3.40274,3.40274,0,0,0,.659,0,.82716.82716,0,0,0,.212-.05.25033.25033,0,0,0,.112-.079.18358.18358,0,0,0,.033-.112v-5.221a6.61426,6.61426,0,0,1,1.05-1.071,1.56789,1.56789,0,0,1,.951-.365,1.40793,1.40793,0,0,1,.664.149,1.24808,1.24808,0,0,1,.465.432,1.9934,1.9934,0,0,1,.265.672,4.12132,4.12132,0,0,1,.083.864v4.54a.17786.17786,0,0,0,.034.112.25027.25027,0,0,0,.112.079.81818.81818,0,0,0,.211.05,2.88247,2.88247,0,0,0,.341.016,2.78575,2.78575,0,0,0,.332-.016.763.763,0,0,0,.207-.05.253.253,0,0,0,.108-.079.18351.18351,0,0,0,.033-.112Zm-13.613-2.748a.17184.17184,0,0,0-.037-.112.35466.35466,0,0,0-.112-.083.59365.59365,0,0,0-.208-.049c-.088-.009-.199-.013-.332-.013-.138,0-.25.004-.336.013a.67593.67593,0,0,0-.212.049.26054.26054,0,0,0-.112.083.20955.20955,0,0,0-.029.112v5.222a5.82866,5.82866,0,0,1-1.083,1.07,1.74929,1.74929,0,0,1-1.025.366,1.495,1.495,0,0,1-.697-.154,1.33364,1.33364,0,0,1-.494-.432,1.9649,1.9649,0,0,1-.291-.672,4.61325,4.61325,0,0,1-.095-1.05v-4.35a.18841.18841,0,0,0-.034-.112.2887.2887,0,0,0-.112-.083.63048.63048,0,0,0-.211-.049c-.089-.009-.2-.013-.332-.013-.133,0-.244.004-.332.013a.67637.67637,0,0,0-.216.049.24863.24863,0,0,0-.112.083.20105.20105,0,0,0-.029.112v4.533a5.9523,5.9523,0,0,0,.137,1.382,2.73437,2.73437,0,0,0,.452.996,2.20892,2.20892,0,0,0,.826.676,2.85472,2.85472,0,0,0,1.258.249,2.71489,2.71489,0,0,0,1.261-.323,4.64854,4.64854,0,0,0,1.262-1.03v.988a.22364.22364,0,0,0,.025.112.1931.1931,0,0,0,.095.079.679.679,0,0,0,.191.05,2.39159,2.39159,0,0,0,.312.016,2.21773,2.21773,0,0,0,.294-.016.74212.74212,0,0,0,.195-.05.22173.22173,0,0,0,.104-.079.20476.20476,0,0,0,.029-.112Zm-8.898,2.914a5.91747,5.91747,0,0,0-.137-1.365,2.69458,2.69458,0,0,0-.453-.992,2.25186,2.25186,0,0,0-.826-.677,2.807,2.807,0,0,0-1.257-.253,2.70224,2.70224,0,0,0-1.266.328,4.59061,4.59061,0,0,0-1.258,1.033v-.988a.20106.20106,0,0,0-.029-.112.264.264,0,0,0-.095-.083.49043.49043,0,0,0-.187-.049,3.58423,3.58423,0,0,0-.61,0,.55336.55336,0,0,0-.191.049.227.227,0,0,0-.1.083.24057.24057,0,0,0-.024.112v7.471a.1965.1965,0,0,0,.029.112.22021.22021,0,0,0,.108.079.81776.81776,0,0,0,.211.05,2.78564,2.78564,0,0,0,.332.016,2.89327,2.89327,0,0,0,.341-.016.763.763,0,0,0,.207-.05.25316.25316,0,0,0,.108-.079.18358.18358,0,0,0,.033-.112v-5.221a5.597,5.597,0,0,1,1.079-1.071,1.77333,1.77333,0,0,1,1.03-.365,1.57514,1.57514,0,0,1,.701.149,1.26343,1.26343,0,0,1,.494.432,2.12427,2.12427,0,0,1,.29.672,4.27945,4.27945,0,0,1,.1,1.03v4.374a.18352.18352,0,0,0,.033.112.253.253,0,0,0,.108.079.76185.76185,0,0,0,.208.05,2.86387,2.86387,0,0,0,.34.016,2.78587,2.78587,0,0,0,.332-.016.77186.77186,0,0,0,.208-.05.25571.25571,0,0,0,.107-.079.17774.17774,0,0,0,.034-.112Zm-8.932,0a5.918,5.918,0,0,0-.137-1.365,2.69327,2.69327,0,0,0-.452-.992,2.26811,2.26811,0,0,0-.826-.677,2.81447,2.81447,0,0,0-1.258-.253,2.70223,2.70223,0,0,0-1.266.328,4.57314,4.57314,0,0,0-1.257,1.033v-.988a.20964.20964,0,0,0-.029-.112.27722.27722,0,0,0-.096-.083.48027.48027,0,0,0-.187-.049,3.58423,3.58423,0,0,0-.61,0,.55973.55973,0,0,0-.191.049.22349.22349,0,0,0-.099.083.22891.22891,0,0,0-.025.112v7.471a.20475.20475,0,0,0,.029.112.22035.22035,0,0,0,.108.079.81643.81643,0,0,0,.212.05,2.77422,2.77422,0,0,0,.332.016,2.87516,2.87516,0,0,0,.34-.016.7535.7535,0,0,0,.207-.05.25313.25313,0,0,0,.108-.079.184.184,0,0,0,.034-.112v-5.221a5.5693,5.5693,0,0,1,1.079-1.071,1.77285,1.77285,0,0,1,1.029-.365,1.57215,1.57215,0,0,1,.701.149,1.26347,1.26347,0,0,1,.494.432,2.14863,2.14863,0,0,1,.291.672,4.33779,4.33779,0,0,1,.099,1.03v4.374a.17768.17768,0,0,0,.034.112.25308.25308,0,0,0,.108.079.74451.74451,0,0,0,.207.05,2.86447,2.86447,0,0,0,.34.016,2.77479,2.77479,0,0,0,.332-.016.762.762,0,0,0,.208-.05.25309.25309,0,0,0,.108-.079.18358.18358,0,0,0,.033-.112Zm-10.31,2.739a4.27614,4.27614,0,0,1-.967.839,1.92631,1.92631,0,0,1-1,.274,1.45373,1.45373,0,0,1-1.033-.345,1.2009,1.2009,0,0,1-.37-.925,1.343,1.343,0,0,1,.129-.602,1.15818,1.15818,0,0,1,.403-.448,2.00767,2.00767,0,0,1,.689-.283,4.44678,4.44678,0,0,1,.979-.095h1.17Zm1.362-3.212a4.23944,4.23944,0,0,0-.158-1.22,2.07284,2.07284,0,0,0-.506-.876,2.21487,2.21487,0,0,0-.913-.535,4.48153,4.48153,0,0,0-1.37-.183,4.61748,4.61748,0,0,0-.855.079,5.68065,5.68065,0,0,0-.78.199,4.21909,4.21909,0,0,0-.631.266,1.80992,1.80992,0,0,0-.386.253.47019.47019,0,0,0-.141.228,1.42522,1.42522,0,0,0-.029.328,1.45637,1.45637,0,0,0,.016.228.50746.50746,0,0,0,.054.17.2797.2797,0,0,0,.087.1.20825.20825,0,0,0,.117.033.704.704,0,0,0,.303-.12q.20249-.12.506-.266a4.79577,4.79577,0,0,1,.706-.265,3.13834,3.13834,0,0,1,.908-.121,2.47189,2.47189,0,0,1,.797.112,1.2704,1.2704,0,0,1,.527.332,1.30993,1.30993,0,0,1,.295.552,2.88973,2.88973,0,0,1,.091.764v.581h-1.029a7.28038,7.28038,0,0,0-1.569.154,3.62328,3.62328,0,0,0-1.178.46,2.137,2.137,0,0,0-.739.772,2.22279,2.22279,0,0,0-.257,1.096,2.37055,2.37055,0,0,0,.186.963,2.00475,2.00475,0,0,0,.523.714,2.2909,2.2909,0,0,0,.814.444,3.47814,3.47814,0,0,0,1.066.153,2.89278,2.89278,0,0,0,1.275-.29,3.69629,3.69629,0,0,0,1.091-.814v.747a.18523.18523,0,0,0,.058.15.41647.41647,0,0,0,.187.075,1.957,1.957,0,0,0,.344.024,1.81417,1.81417,0,0,0,.341-.024.47339.47339,0,0,0,.182-.075.17352.17352,0,0,0,.067-.15Zm-6.74-6.533a.35051.35051,0,0,0,.024-.191.20469.20469,0,0,0-.091-.133.61415.61415,0,0,0-.207-.078,1.603,1.603,0,0,0-.341-.029c-.116,0-.216.004-.299.012a.61525.61525,0,0,0-.203.05.4027.4027,0,0,0-.133.099.47257.47257,0,0,0-.087.171l-5.022,13.771a.3018.3018,0,0,0-.033.186.21475.21475,0,0,0,.091.133.56134.56134,0,0,0,.212.083,1.72473,1.72473,0,0,0,.344.029,2.2235,2.2235,0,0,0,.295-.016.92562.92562,0,0,0,.203-.05.33991.33991,0,0,0,.137-.096.47513.47513,0,0,0,.088-.17Zm-7.645,7.014a5.9619,5.9619,0,0,0-.137-1.373,2.71129,2.71129,0,0,0-.453-.992,2.25186,2.25186,0,0,0-.826-.677,2.807,2.807,0,0,0-1.257-.253,2.64168,2.64168,0,0,0-1.204.303,4.42692,4.42692,0,0,0-1.187.925v-4.474a.205.205,0,0,0-.033-.116.24293.24293,0,0,0-.108-.083.76222.76222,0,0,0-.208-.05,2.863,2.863,0,0,0-.34-.016,2.7851,2.7851,0,0,0-.332.016.82674.82674,0,0,0-.212.05.22211.22211,0,0,0-.108.083.22948.22948,0,0,0-.029.116v11.09a.20475.20475,0,0,0,.029.112.23026.23026,0,0,0,.108.079.82674.82674,0,0,0,.212.05,2.78564,2.78564,0,0,0,.332.016,2.86357,2.86357,0,0,0,.34-.016.76222.76222,0,0,0,.208-.05.25316.25316,0,0,0,.108-.079.18358.18358,0,0,0,.033-.112v-5.221a5.597,5.597,0,0,1,1.079-1.071,1.77285,1.77285,0,0,1,1.029-.365,1.57649,1.57649,0,0,1,.702.149,1.27041,1.27041,0,0,1,.494.432,2.12427,2.12427,0,0,1,.29.672,4.27945,4.27945,0,0,1,.1,1.03v4.374a.18352.18352,0,0,0,.033.112.25308.25308,0,0,0,.108.079.76221.76221,0,0,0,.208.05,2.85255,2.85255,0,0,0,.34.016,2.78609,2.78609,0,0,0,.332-.016.7536.7536,0,0,0,.207-.05.25309.25309,0,0,0,.108-.079.184.184,0,0,0,.034-.112Zm-8.268-5.47a1.82966,1.82966,0,0,0,.046-.299.19867.19867,0,0,0-.063-.166.41591.41591,0,0,0-.211-.079,3.11535,3.11535,0,0,0-.395-.02,3.60687,3.60687,0,0,0-.386.016.863.863,0,0,0-.224.05.17535.17535,0,0,0-.103.096,1.419,1.419,0,0,0-.05.145l-2.366,8.99h-.017l-2.465-8.982a.60828.60828,0,0,0-.062-.153.23348.23348,0,0,0-.121-.096.8896.8896,0,0,0-.22-.05,3.25208,3.25208,0,0,0-.369-.016,3.93236,3.93236,0,0,0-.402.016.93256.93256,0,0,0-.237.05.23092.23092,0,0,0-.12.096.608.608,0,0,0-.063.153l-2.291,8.982h-.008l-2.416-8.999a.58607.58607,0,0,0-.045-.149.203.203,0,0,0-.108-.091.77917.77917,0,0,0-.228-.046c-.1-.008-.236-.012-.407-.012-.177,0-.318.005-.423.016a.42972.42972,0,0,0-.229.075.1919.1919,0,0,0-.066.166,1.528,1.528,0,0,0,.054.299l2.839,9.919a.35635.35635,0,0,0,.265.295,1.41515,1.41515,0,0,0,.299.054c.122.011.274.016.457.016.177,0,.322-.005.435-.016a1.231,1.231,0,0,0,.279-.054.37.37,0,0,0,.166-.108.44282.44282,0,0,0,.083-.187l2.075-8.11h.016l2.25,8.11a.50237.50237,0,0,0,.091.187.36483.36483,0,0,0,.175.108,1.38573,1.38573,0,0,0,.294.054c.119.011.264.016.436.016.166,0,.306-.005.419-.016a1.38665,1.38665,0,0,0,.287-.054.42271.42271,0,0,0,.182-.108.44539.44539,0,0,0,.1-.187Zm-14.929,9.849a1.69019,1.69019,0,0,0-.154-.228l-3.038-3.943,2.706-2.706a1.19422,1.19422,0,0,0,.179-.233.41112.41112,0,0,0,.054-.199.18163.18163,0,0,0-.038-.12.2607.2607,0,0,0-.124-.075,1.0324,1.0324,0,0,0-.228-.041c-.094-.009-.211-.013-.349-.013-.133,0-.246.004-.34.013a.96473.96473,0,0,0-.245.049.73336.73336,0,0,0-.179.092.72446.72446,0,0,0-.141.137l-2.822,3.104v-6.757a.20489.20489,0,0,0-.033-.116.24286.24286,0,0,0-.108-.083.76221.76221,0,0,0-.208-.05,2.86326,2.86326,0,0,0-.34-.016,2.774,2.774,0,0,0-.332.016.82686.82686,0,0,0-.212.05.22214.22214,0,0,0-.108.083.22958.22958,0,0,0-.029.116v11.09a.20484.20484,0,0,0,.029.112.23029.23029,0,0,0,.108.079.82686.82686,0,0,0,.212.05,2.77456,2.77456,0,0,0,.332.016,2.86387,2.86387,0,0,0,.34-.016.76221.76221,0,0,0,.208-.05.25308.25308,0,0,0,.108-.079.18352.18352,0,0,0,.033-.112v-4.142l3.154,4.134a.67423.67423,0,0,0,.112.129.44182.44182,0,0,0,.162.083,1.29521,1.29521,0,0,0,.245.041q.1455.012.369.012a3.1862,3.1862,0,0,0,.357-.016.837.837,0,0,0,.22-.05.24033.24033,0,0,0,.112-.083.19821.19821,0,0,0,.034-.116.35776.35776,0,0,0-.046-.162"/>
    <path class="cls-4" d="M172.82561,363.47488s-11.668,0-11.668,11.668v84.566s0,11.668,11.668,11.668h97.795s11.668,0,11.668-11.668v-84.566s0-11.668-11.668-11.668Z"/>
  </g>
  <rect class="cls-5" x="24.803" y="145.841" width="177.87399" height="167.095"/>
  <polygon class="cls-26" points="24.803 153.234 24.803 172.926 122.53 172.926 132.283 163.08 122.53 153.234 24.803 153.234"/>
  <polygon class="cls-27" points="24.803 176.612 24.803 196.303 134.151 196.303 143.913 186.458 134.151 176.612 24.803 176.612"/>
  <polygon class="cls-28" points="24.803 199.989 24.803 219.682 145.5 219.682 155.268 209.836 145.5 199.989 24.803 199.989"/>
  <polygon class="cls-22" points="24.803 223.368 24.803 243.058 156.85 243.058 166.619 233.212 156.85 223.368 24.803 223.368"/>
  <polygon class="cls-29" points="24.803 246.744 24.803 266.434 168.199 266.434 177.973 256.591 168.199 246.744 24.803 246.744"/>
  <polygon class="cls-30" points="24.803 270.121 24.803 289.814 179.549 289.814 189.327 279.968 179.549 270.121 24.803 270.121"/>
  <polygon class="cls-31" points="24.803 293.496 24.803 312.935 190.581 312.935 200.733 303.343 190.315 293.496 24.803 293.496"/>
  <text class="cls-32" transform="translate(30.94824 168.84363)"><tspan xml:space="preserve"> A</tspan></text>
  <text class="cls-33" transform="translate(47.62158 163.7865)"><tspan class="cls-34">+</tspan><tspan x="6.60449" y="0">+</tspan></text>
  <text class="cls-33" transform="translate(60.85547 163.7865)">+</text>
  <text class="cls-32" transform="translate(31.09131 192.34753)"><tspan xml:space="preserve"> A</tspan></text>
  <text class="cls-33" transform="translate(47.13184 187.29041)">+</text>
  <text class="cls-33" transform="translate(53.74902 187.29041)">+</text>
  <text class="cls-32" transform="translate(31.09131 215.60632)"><tspan xml:space="preserve"> A</tspan></text>
  <text class="cls-32" transform="translate(30.73047 239.10925)"><tspan xml:space="preserve"> A</tspan></text>
  <text class="cls-32" transform="translate(30.92041 262.46033)"><tspan xml:space="preserve"> B</tspan></text>
  <text class="cls-32" transform="translate(30.92041 285.71619)"><tspan xml:space="preserve"> C</tspan></text>
  <g class="cls-35">
    <text class="cls-32" transform="translate(30.55957 309.21912)"><tspan xml:space="preserve"> D</tspan></text>
  </g>
  <text class="cls-33" transform="translate(47.13184 210.54919)">+</text>
  <text class="cls-36" transform="translate(245.45215 577.7196)"> </text>
  <text class="cls-37" transform="translate(250.03711 577.7196)">d</text>
  <text class="cls-37" transform="translate(259.37012 577.7196)">B</text>
  <text class="cls-36" transform="translate(163.07227 577.7196)"> </text>
  <text class="cls-37" transform="translate(167.6582 577.7196)">L</text>
  <text class="cls-36" transform="translate(82.6792 577.7196)"> </text>
  <text class="cls-37" transform="translate(87.26514 577.7196)">L</text>
  <text class="cls-38" transform="translate(28.10352 598.70496)">2010/1060</text>
  <g id="rating">
    <polyline class="cls-25" points="208.23 163.08 227.74 142.89 286.7 142.89 286.7 182.83 227.74 182.83 208.23 163.08"/>
    <text id="ratingLetter" class="cls-39" transform="translate(222.41016 171.57996)">A</text>
    <text id="ratingPlusses" class="cls-40" transform="translate(241.40039 162.37)">+++</text>
  </g>
  <text id="supplierLine2" class="cls-41" transform="translate(25.50977 119.05017)">X</text>
  <text id="supplierLine1" class="cls-41" transform="translate(25.50977 102.79181)">X</text>
  <text id="modelLine2" class="cls-41" transform="translate(164.41016 119.05017)">X</text>
  <text id="modelLine1" class="cls-41" transform="translate(164.41016 102.79181)">X</text>
  <text id="kwhAnnum" class="cls-42" transform="translate(221 422.4696)" text-anchor="middle">X</text>
  <text id="fridgeLitres" class="cls-43" transform="translate(79 577.16003)" text-anchor="end">X</text>
  <text id="freezerLitres" class="cls-43" transform="translate(164 577.16003)" text-anchor="end">X</text>
  <text id="db" class="cls-43" transform="translate(243.91992 577.16003)" text-anchor="end">X</text>
  <g id="starRating">
    <path id="zero" class="cls-44" d="M160.4533,549.94958c0-.636-.01561-1.301-.04591-1.88224-.10558-.863-.16112-1.37323-.64908-1.6155a7.44671,7.44671,0,0,0-6.89754,0c-.48843.24227-.544.75248-.64909,1.6155-.03122.58123-.04637,1.24627-.04637,1.88224,0,.63475.01515,1.29979.04637,1.881.10512.86189.16066,1.37323.64909,1.61544a7.45568,7.45568,0,0,0,6.89754,0c.488-.24221.5435-.75355.64908-1.61544.0303-.58123.04591-1.24627.04591-1.881"/>
    <g id="one">
      <path id="box" class="cls-44" d="M160.4533,549.94958c0-.636-.01561-1.301-.04591-1.88224-.10558-.863-.16112-1.37323-.64908-1.6155a7.44671,7.44671,0,0,0-6.89754,0c-.48843.24227-.544.75248-.64909,1.6155-.03122.58123-.04637,1.24627-.04637,1.88224,0,.63475.01515,1.29979.04637,1.881.10512.86189.16066,1.37323.64909,1.61544a7.45568,7.45568,0,0,0,6.89754,0c.488-.24221.5435-.75355.64908-1.61544.0303-.58123.04591-1.24627.04591-1.881"/>
      <path class="cls-45" d="M156.40263,550.48352c-.06683-.09792-.13365-.07372-.18663,0l-.61173,1.05987a.25235.25235,0,0,1-.34215.08985l-.03916-.02995a.2289.2289,0,0,1-.08987-.32948l.58292-1.01493c.08871-.14054.04377-.22234-.11174-.21543h-1.18774a.2395.2395,0,0,1-.24538-.24653V549.752a.24092.24092,0,0,1,.24538-.25459h1.17967c.10369,0,.26151,0,.11175-.19931l-.58176-1.02415a.23635.23635,0,0,1,.09677-.3433l.03916-.02995a.24035.24035,0,0,1,.33408.09792l.60482,1.07369c.08179.10368.14861.07488.20161-.00576l.61978-1.06793a.22047.22047,0,0,1,.32833-.08985l.05068.01266a.2437.2437,0,0,1,.08179.35252l-.58868,1.03107c-.04377.08985-.0818.17856.09677.19239h1.21078a.24091.24091,0,0,1,.24538.25459v.04493a.2395.2395,0,0,1-.24538.24653h-1.2246c-.09677,0-.16475.08871-.08986.20852l.59559,1.02184a.22879.22879,0,0,1-.09561.33639l-.03686.023a.24312.24312,0,0,1-.33524-.08985l-.61287-1.05987"/>
    </g>
    <g id="two">
      <path id="box-2" data-name="box" class="cls-44" d="M162.96861,549.94958c0-.636-.02508-1.301-.07377-1.88224-.16966-.863-.25892-1.37323-1.04307-1.6155a18.56026,18.56026,0,0,0-11.08419,0c-.78489.24227-.87415.75248-1.04307,1.6155-.05016.58123-.07451,1.24627-.07451,1.88224,0,.63475.02435,1.29979.07451,1.881.16892.86189.25818,1.37323,1.04307,1.61544a18.58435,18.58435,0,0,0,11.08419,0c.78415-.24221.87341-.75355,1.04307-1.61544.04869-.58123.07377-1.24627.07377-1.881"/>
      <g>
        <path class="cls-45" d="M159.80977,550.48352c-.06683-.09792-.13365-.07372-.18663,0l-.61173,1.05987a.25235.25235,0,0,1-.34215.08985l-.03916-.02995a.22889.22889,0,0,1-.08986-.32948l.58292-1.01493c.0887-.14054.04377-.22234-.11175-.21543h-1.18774a.23951.23951,0,0,1-.24538-.24653V549.752a.24092.24092,0,0,1,.24538-.25459h1.17967c.1037,0,.26152,0,.11175-.19931l-.58176-1.02415a.23635.23635,0,0,1,.09677-.3433l.03916-.02995a.24035.24035,0,0,1,.33408.09792l.60482,1.07369c.0818.10368.14861.07488.20161-.00576l.61978-1.06793a.22047.22047,0,0,1,.32833-.08985l.05068.01266a.24371.24371,0,0,1,.0818.35252l-.58869,1.03107c-.04377.08985-.08179.17856.09677.19239h1.21079a.2409.2409,0,0,1,.24537.25459v.04493a.23949.23949,0,0,1-.24537.24653h-1.22461c-.09677,0-.16474.08871-.08986.20852l.5956,1.02184a.22881.22881,0,0,1-.09561.33639l-.03687.023a.24312.24312,0,0,1-.33524-.08985l-.61287-1.05987"/>
        <path class="cls-45" d="M152.99549,550.48352c-.06684-.09792-.13365-.07372-.18663,0l-.61174,1.05987a.25234.25234,0,0,1-.34214.08985l-.03917-.02995a.2289.2289,0,0,1-.08986-.32948l.58292-1.01493c.0887-.14054.04377-.22234-.11175-.21543h-1.18774a.2395.2395,0,0,1-.24537-.24653V549.752a.24091.24091,0,0,1,.24537-.25459h1.17968c.10369,0,.26151,0,.11174-.19931l-.58176-1.02415a.23636.23636,0,0,1,.09677-.3433l.03917-.02995a.24035.24035,0,0,1,.33408.09792l.60482,1.07369c.08179.10368.14861.07488.20161-.00576l.61978-1.06793a.22047.22047,0,0,1,.32833-.08985l.05068.01266a.24371.24371,0,0,1,.08179.35252l-.58869,1.03107c-.04377.08985-.08179.17856.09677.19239h1.21079a.24091.24091,0,0,1,.24538.25459v.04493a.2395.2395,0,0,1-.24538.24653h-1.2246c-.09677,0-.16475.08871-.08986.20852l.59559,1.02184a.2288.2288,0,0,1-.09561.33639l-.03686.023a.24311.24311,0,0,1-.33524-.08985l-.61287-1.05987"/>
      </g>
    </g>
    <g id="three">
      <path id="box-3" data-name="box" class="cls-46" d="M166.38571,549.94958a15.44092,15.44092,0,0,0-.11162-1.88224c-.25672-.863-.39178-1.37323-1.5783-1.6155a41.94905,41.94905,0,0,0-16.77185,0c-1.18764.24227-1.3227.75248-1.57829,1.6155a15.75718,15.75718,0,0,0,0,3.76326c.25559.86189.39065,1.37323,1.57829,1.61544a42.005,42.005,0,0,0,16.77185,0c1.18652-.24221,1.32158-.75355,1.5783-1.61544a15.4354,15.4354,0,0,0,.11162-1.881"/>
      <g>
        <path class="cls-45" d="M156.40263,550.48352c-.06683-.09792-.13365-.07372-.18663,0l-.61173,1.05987a.25235.25235,0,0,1-.34215.08985l-.03916-.02995a.2289.2289,0,0,1-.08987-.32948l.58292-1.01493c.08871-.14054.04377-.22234-.11174-.21543h-1.18774a.2395.2395,0,0,1-.24538-.24653V549.752a.24092.24092,0,0,1,.24538-.25459h1.17967c.10369,0,.26151,0,.11175-.19931l-.58176-1.02415a.23635.23635,0,0,1,.09677-.3433l.03916-.02995a.24035.24035,0,0,1,.33408.09792l.60482,1.07369c.08179.10368.14861.07488.20161-.00576l.61978-1.06793a.22047.22047,0,0,1,.32833-.08985l.05068.01266a.2437.2437,0,0,1,.08179.35252l-.58868,1.03107c-.04377.08985-.0818.17856.09677.19239h1.21078a.24091.24091,0,0,1,.24538.25459v.04493a.2395.2395,0,0,1-.24538.24653h-1.2246c-.09677,0-.16475.08871-.08986.20852l.59559,1.02184a.22879.22879,0,0,1-.09561.33639l-.03686.023a.24312.24312,0,0,1-.33524-.08985l-.61287-1.05987"/>
        <path class="cls-45" d="M149.58834,550.48352c-.06683-.09792-.13365-.07372-.18663,0l-.61173,1.05987a.25235.25235,0,0,1-.34215.08985l-.03916-.02995a.2289.2289,0,0,1-.08986-.32948l.58292-1.01493c.0887-.14054.04377-.22234-.11175-.21543h-1.18774a.23951.23951,0,0,1-.24538-.24653V549.752a.24092.24092,0,0,1,.24538-.25459h1.17967c.1037,0,.26152,0,.11175-.19931l-.58176-1.02415a.23636.23636,0,0,1,.09677-.3433l.03916-.02995a.24035.24035,0,0,1,.33408.09792l.60483,1.07369c.08179.10368.1486.07488.2016-.00576l.61978-1.06793a.22048.22048,0,0,1,.32834-.08985l.05067.01266a.24371.24371,0,0,1,.0818.35252l-.58869,1.03107c-.04377.08985-.08179.17856.09677.19239h1.21079a.24091.24091,0,0,1,.24538.25459v.04493a.2395.2395,0,0,1-.24538.24653h-1.22461c-.09677,0-.16474.08871-.08986.20852l.5956,1.02184a.22881.22881,0,0,1-.09561.33639l-.03686.023a.24311.24311,0,0,1-.33524-.08985l-.61288-1.05987"/>
        <path class="cls-45" d="M163.21691,550.48352c-.06683-.09792-.13364-.07372-.18663,0l-.61173,1.05987a.25234.25234,0,0,1-.34214.08985l-.03917-.02995a.2289.2289,0,0,1-.08986-.32948l.58292-1.01493c.0887-.14054.04377-.22234-.11175-.21543h-1.18774a.23951.23951,0,0,1-.24538-.24653V549.752a.24092.24092,0,0,1,.24538-.25459h1.17967c.1037,0,.26152,0,.11175-.19931l-.58176-1.02415a.23636.23636,0,0,1,.09677-.3433l.03917-.02995a.24034.24034,0,0,1,.33407.09792l.60483,1.07369c.08179.10368.14861.07488.2016-.00576l.61979-1.06793a.22047.22047,0,0,1,.32833-.08985l.05068.01266a.24371.24371,0,0,1,.08179.35252l-.58869,1.03107c-.04377.08985-.08179.17856.09677.19239h1.21079a.24091.24091,0,0,1,.24538.25459v.04493a.2395.2395,0,0,1-.24538.24653h-1.2246c-.09677,0-.16475.08871-.08987.20852l.5956,1.02184a.22881.22881,0,0,1-.09561.33639l-.03686.023a.24311.24311,0,0,1-.33524-.08985l-.61288-1.05987"/>
      </g>
    </g>
    <path id="four" class="cls-45" d="M146.0002,551.80389l1.103,1.912a.43949.43949,0,0,0,.607.163l.067-.041a.41768.41768,0,0,0,.175-.607l-1.077-1.84406c-.135-.215-.014-.37695.161-.37695h2.208a.43231.43231,0,0,0,.445-.444v-.081a.43583.43583,0,0,0-.445-.458h-2.182c-.322-.026-.255-.187-.173-.35l1.063-1.858a.44125.44125,0,0,0-.147-.633l-.095-.027a.3992.3992,0,0,0-.593.162l-1.117,1.926c-.096.147-.216.201-.363.013l-1.091-1.939a.43815.43815,0,0,0-.607-.175l-.067.054a.42539.42539,0,0,0-.175.619l1.051,1.846c.269.362-.014.362-.202.362h-2.128a.43482.43482,0,0,0-.443.458v.081a.43125.43125,0,0,0,.443.444h2.141c.283-.013.364.135.203.38995l-1.051,1.83106a.40826.40826,0,0,0,.161.59295l.067.055a.45491.45491,0,0,0,.62-.163l1.104-1.912c.094-.133.216-.174.337,0m24.793-1.224a12.71151,12.71151,0,0,0-.1-1.616c-.23-.741-.351-1.179-1.414-1.387a39.18459,39.18459,0,0,0-15.026,0c-1.064.208-1.185.64606-1.414,1.387a12.96939,12.96939,0,0,0,0,3.231c.229.74.35,1.179,1.414,1.387a39.2365,39.2365,0,0,0,15.026,0c1.063-.20795,1.184-.647,1.414-1.387a12.70724,12.70724,0,0,0,.1-1.615m-31.479-4.895h33.17a.40543.40543,0,0,1,.429.417v8.913a.40566.40566,0,0,1-.429.418h-33.17a.40289.40289,0,0,1-.416-.418v-8.913a.40265.40265,0,0,1,.416-.417m16.41361,5.36551c-.058-.085-.116-.064-.162,0l-.531.92a.219.219,0,0,1-.297.078l-.034-.026a.19868.19868,0,0,1-.078-.286l.506-.881c.077-.122.038-.193-.097-.187h-1.031a.2079.2079,0,0,1-.213-.214v-.039a.20913.20913,0,0,1,.213-.221h1.024c.09,0,.227,0,.097-.173l-.505-.889a.20515.20515,0,0,1,.084-.298l.034-.026a.20863.20863,0,0,1,.29.085l.525.932c.071.09.129.065.175-.005l.538-.927a.19139.19139,0,0,1,.285-.078l.044.011a.21155.21155,0,0,1,.071.306l-.511.895c-.038.078-.071.155.084.167h1.051a.20912.20912,0,0,1,.213.221v.039a.20789.20789,0,0,1-.213.214h-1.063c-.084,0-.143.077-.078.181l.517.887a.19861.19861,0,0,1-.083.292l-.032.02a.211.211,0,0,1-.291-.078l-.532-.92m6.0782,0c-.059-.085-.117-.064-.162,0l-.531.92a.21879.21879,0,0,1-.297.078l-.033-.026a.19757.19757,0,0,1-.079-.286l.506-.881c.078-.122.039-.193-.097-.187h-1.031a.2093.2093,0,0,1-.214-.214v-.039a.21047.21047,0,0,1,.214-.221h1.025c.09,0,.226,0,.097-.173l-.505-.889a.20381.20381,0,0,1,.084-.298l.033-.026a.21.21,0,0,1,.291.085l.524.932c.071.09.13.065.175-.005l.537-.927a.19241.19241,0,0,1,.286-.078l.044.011a.21155.21155,0,0,1,.071.306l-.51.895c-.039.078-.071.155.084.167h1.05a.2099.2099,0,0,1,.214.221v.039a.20871.20871,0,0,1-.214.214h-1.063c-.084,0-.142.077-.078.181l.517.887a.19827.19827,0,0,1-.084.292l-.031.02a.21268.21268,0,0,1-.292-.078l-.531-.92m6.10941,0c-.059-.085-.117-.064-.162,0l-.531.92a.21879.21879,0,0,1-.297.078l-.033-.026a.19756.19756,0,0,1-.079-.286l.506-.881c.078-.122.039-.193-.097-.187h-1.031a.20849.20849,0,0,1-.213-.214v-.039a.2097.2097,0,0,1,.213-.221h1.025c.09,0,.226,0,.097-.173l-.505-.889a.2038.2038,0,0,1,.084-.298l.033-.026a.21.21,0,0,1,.291.085l.524.932c.072.09.13.065.175-.005l.537-.927a.19241.19241,0,0,1,.286-.078l.044.011a.21154.21154,0,0,1,.071.306l-.51.895c-.039.078-.071.155.084.167h1.05a.20912.20912,0,0,1,.213.221v.039a.2079.2079,0,0,1-.213.214h-1.063c-.084,0-.142.077-.078.181l.517.887a.19861.19861,0,0,1-.083.292l-.032.02a.21267.21267,0,0,1-.292-.078l-.531-.92"/>
  </g>
</svg>
