<svg xmlns="http://www.w3.org/2000/svg" xmlns:xlink="http://www.w3.org/1999/xlink" id="Layer_1" data-name="Layer 1" width="110mm" height="220mm" viewBox="0 0 311.81 623.62" data-rating-increment="23.37" data-supplier-model-chars-per-row="15">
  <defs>
    <style>
      #starRating>* {
        visibility: hidden;
      }

      #starRating.starRating0 #zero {
        visibility: visible;
      }

      #starRating.starRating1 #one {
        visibility: visible;
      }

      #starRating.starRating2 #two {
        visibility: visible;
      }

      #starRating.starRating3 #three {
        visibility: visible;
      }

      #starRating.starRating4 #four {
        visibility: visible;
      }

      .cls-1, .cls-12, .cls-14, .cls-16, .cls-25, .cls-3, .cls-4, .cls-8, .cls-9, .cls-49, .cls-51 {
        fill: none;
      }

      .cls-2 {
        clip-path: url(#clip-path);
      }

      .cls-16, .cls-25, .cls-3, .cls-4, .cls-49, .cls-51 {
        stroke: #00aeef;
      }

      .cls-3 {
        stroke-width: 5px;
      }

      .cls-4 {
        stroke-width: 2px;
      }

      .cls-33, .cls-34, .cls-35, .cls-36, .cls-42, .cls-43, .cls-45, .cls-5 {
        fill: #fff;
      }

      .cls-6 {
        clip-path: url(#clip-path-2);
      }

      .cls-7, .cls-50 {
        fill: #00aeef;
      }

      .cls-8 {
        stroke: #fff;
        stroke-width: 3.78px;
      }

      .cls-12, .cls-9 {
        stroke: #44c8f5;
      }

      .cls-9 {
        stroke-linecap: round;
        stroke-linejoin: round;
        stroke-width: 4.32px;
      }

      .cls-10 {
        clip-path: url(#clip-path-4);
      }

      .cls-11 {
        fill: #44c8f5;
      }

      .cls-12 {
        stroke-width: 1.215px;
      }

      .cls-13 {
        fill: #5bcbf5;
      }

      .cls-14 {
        stroke: #231f20;
      }

      .cls-14, .cls-16 {
        stroke-width: 0.318px;
      }

      .cls-15 {
        fill: #00b9f2;
      }

      .cls-17 {
        fill: #abe1fa;
      }

      .cls-18 {
        fill: #6dcff6;
      }

      .cls-19 {
        fill: #d4effc;
      }

      .cls-20 {
        fill: #1b75bc;
      }

      .cls-21, .cls-38, .cls-39, .cls-40, .cls-46, .cls-47 {
        fill: #231f20;
      }

      .cls-22 {
        fill: #034ea2;
      }

      .cls-23 {
        fill: #fff200;
      }

      .cls-24 {
        clip-path: url(#clip-path-6);
      }

      .cls-26 {
        fill: #bfd730;
      }

      .cls-27 {
        fill: #50b848;
      }

      .cls-28 {
        fill: #00a651;
      }

      .cls-29 {
        fill: #fdb913;
      }

      .cls-30 {
        fill: #f37021;
      }

      .cls-31 {
        fill: #ed1c24;
      }

      .cls-32 {
        clip-path: url(#clip-path-8);
      }

      .cls-33 {
        font-size: 18px;
      }

      .cls-33, .cls-34, .cls-35, .cls-36, .cls-38, .cls-40, .cls-42, .cls-43, .cls-45, .cls-46, .cls-48 {
        font-weight: 700;
      }

      .cls-34 {
        font-size: 12px;
      }

      .cls-35 {
        font-size: 19px;
      }

      .cls-35, .cls-36, .cls-38, .cls-40, .cls-42, .cls-43, .cls-45, .cls-46, .cls-48 {
        font-family: Calibri-Bold, Calibri;
      }

      .cls-36 {
        font-size: 13px;
      }

      .cls-37 {
        letter-spacing: 0.00999em;
      }

      .cls-38 {
        font-size: 24px;
      }

      .cls-39 {
        font-size: 17px;
      }

      .cls-39, .cls-47 {
        font-family: Calibri;
      }

      .cls-40 {
        font-size: 11px;
      }

      .cls-41 {
        clip-path: url(#clip-path-11);
      }

      .cls-42 {
        font-size: 29.0001px;
      }

      .cls-43 {
        font-size: 18.2071px;
      }

      .cls-44 {
        letter-spacing: 0.00998em;
      }

      .cls-45 {
        font-size: 29px;
      }

      .cls-46 {
        font-size: 32px;
      }

      .cls-47 {
        font-size: 16px;
      }

      .cls-48 {
        font-size: 25px;
      }

      .cls-49, .cls-51 {
        stroke-miterlimit: 10;
      }

      .cls-49 {
        stroke-width: 0.2px;
      }

      .cls-49, .cls-50, .cls-51 {
        fill-rule: evenodd;
      }

      .cls-51 {
        stroke-width: 0.24602px;
      }

      .cls-99 {
        visibility: hidden;
      }
    </style>
    <clipPath id="clip-path">
      <rect class="cls-1" y="-0.00201" width="311.811" height="623.62201"/>
    </clipPath>
    <clipPath id="clip-path-2">
      <rect class="cls-1" x="212.59801" y="490.39099" width="62.36299" height="56.694"/>
    </clipPath>
    <clipPath id="clip-path-4">
      <rect class="cls-1" x="124.725" y="487.55699" width="62.36201" height="56.693"/>
    </clipPath>
    <clipPath id="clip-path-6">
      <rect class="cls-1" x="25.512" y="25.508" width="260.78698" height="51.02502"/>
    </clipPath>
    <clipPath id="clip-path-8">
      <rect class="cls-1" x="24.803" y="148.34399" width="181.65299" height="235.03799"/>
    </clipPath>
    <clipPath id="clip-path-11">
      <rect class="cls-1" x="208.239" y="164.88" width="78.769" height="46.431"/>
    </clipPath>
  </defs>
  <title>household-refrigerating-appliances-e-to-g</title>
  <g class="cls-2">
    <path class="cls-3" d="M26.5945,16.67108s-9.921,0-9.921,9.921v570.433s0,9.922,9.921,9.922h258.622s9.921,0,9.921-9.922V26.5921s0-9.921-9.921-9.921Z"/>
    <path class="cls-4" d="M39.2677,482.8877s-9.921,0-9.921,9.921v80.205s0,9.921,9.921,9.921h57.528s9.921,0,9.921-9.921v-80.205s0-9.921-9.921-9.921Z"/>
    <path class="cls-4" d="M127.1417,482.8877s-9.921,0-9.921,9.921v80.205s0,9.921,9.921,9.921h57.528s9.921,0,9.921-9.921v-80.205s0-9.921-9.921-9.921Z"/>
    <path class="cls-4" d="M215.0157,482.8877s-9.921,0-9.921,9.921v80.205s0,9.921,9.921,9.921h57.528s9.921,0,9.921-9.921v-80.205s0-9.921-9.921-9.921Z"/>
    <rect class="cls-5" x="212.59801" y="490.39099" width="62.36299" height="56.694"/>
  </g>
  <g class="cls-6">
    <path class="cls-7" d="M237.0117,530.94469q-3.8025-3.393-7.609-6.786h-5.425v-10.844h5.425q3.804-3.3915,7.609-6.784l3.149-2.807v30.028Z"/>
    <path class="cls-8" d="M237.0117,530.94469q-3.8025-3.393-7.609-6.786h-5.425v-10.844h5.425q3.804-3.3915,7.609-6.784l3.149-2.807v30.028Z"/>
    <path class="cls-9" d="M257.33759,497.6364a38.46818,38.46818,0,0,1,.071,42.204m-7.024-36.385a26.44315,26.44315,0,0,1,.085,30.514m-6.786-24.744a14.9216,14.9216,0,0,1,.129,18.925"/>
  </g>
  <g class="cls-2">
    <rect class="cls-5" x="124.725" y="487.55699" width="62.36201" height="56.693"/>
  </g>
  <g class="cls-10">
    <path class="cls-11" d="M174.058,525.0182a.82927.82927,0,0,1,.301,1.159l-.319.517a.87864.87864,0,0,1-1.189.297l-4.631-2.743c-.407-.241-.716-.052-.687.421l.307,4.838a.63537.63537,0,0,1-.79.698l-.326-.062a1.15225,1.15225,0,0,1-.888-1.023l-.273-5.608a1.78834,1.78834,0,0,0-.783-1.298l-7.152-4.227c-.407-.241-.737-.051-.731.422l.099,8.307a1.79084,1.79084,0,0,0,.733,1.328l4.755,3.072a1.1152,1.1152,0,0,1,.417,1.272l-.1.26a.65544.65544,0,0,1-1.021.323l-4-2.688c-.394-.263-.711-.092-.708.382l.047,5.458a.8604.8604,0,0,1-.856.863h-.622a.85742.85742,0,0,1-.854-.863l.045-5.458c.004-.474-.314-.645-.707-.382l-4.001,2.688a.65559.65559,0,0,1-1.021-.323l-.098-.26a1.11333,1.11333,0,0,1,.416-1.272l4.755-3.072a1.7866,1.7866,0,0,0,.732-1.328l.099-8.307c.005-.473-.323-.663-.731-.422l-7.15,4.227a1.78335,1.78335,0,0,0-.784,1.298l-.273,5.608a1.15242,1.15242,0,0,1-.887,1.023l-.327.062a.63607.63607,0,0,1-.791-.698l.307-4.838c.03-.473-.28-.662-.687-.421l-4.63,2.743a.8815.8815,0,0,1-1.191-.297l-.317-.517a.82926.82926,0,0,1,.301-1.159l4.76-2.684c.413-.234.402-.595-.023-.804l-4.359-2.147a.64251.64251,0,0,1-.217-1.038l.165-.196a1.14968,1.14968,0,0,1,1.325-.273l5.077,2.551a1.81232,1.81232,0,0,0,1.519-.039l7.195-4.076a.44609.44609,0,0,0,0-.849l-7.195-4.076a1.80045,1.80045,0,0,0-1.517-.036l-5.08,2.575a1.1457,1.1457,0,0,1-1.324-.27l-.165-.196a.64231.64231,0,0,1,.217-1.038l4.359-2.147c.425-.21.436-.572.023-.804l-4.76-2.685a.83465.83465,0,0,1-.306-1.161l.327-.542a.86787.86787,0,0,1,1.184-.296l4.634,2.766c.407.244.715.055.685-.418l-.307-4.838a.64762.64762,0,0,1,.793-.71l.322.057a1.132,1.132,0,0,1,.889,1.01l.274,5.639a1.78447,1.78447,0,0,0,.784,1.297l7.15,4.227c.408.241.736.051.731-.422l-.099-8.307a1.7866,1.7866,0,0,0-.732-1.328l-4.755-3.072a1.12137,1.12137,0,0,1-.421-1.273l.107-.286a.65091.65091,0,0,1,1.017-.326l4.001,2.689c.393.264.711.092.707-.381l-.045-5.429a.85571.85571,0,0,1,.854-.861h.622a.85868.85868,0,0,1,.856.861l-.047,5.429c-.003.473.314.645.708.381l4-2.689a.65091.65091,0,0,1,1.017.326l.108.286a1.12139,1.12139,0,0,1-.421,1.273l-4.755,3.072a1.79084,1.79084,0,0,0-.733,1.328l-.099,8.307c-.006.473.324.663.731.422l7.152-4.227a1.78642,1.78642,0,0,0,.783-1.297l.273-5.639a1.13311,1.13311,0,0,1,.889-1.01l.321-.057a.64735.64735,0,0,1,.794.71l-.307,4.838c-.029.473.279.662.685.418l4.634-2.766a.86884.86884,0,0,1,1.185.296l.326.542a.83437.83437,0,0,1-.305,1.161l-4.76,2.685c-.413.232-.403.594.022.804l4.36,2.147a.64232.64232,0,0,1,.217,1.038l-.166.196a1.14537,1.14537,0,0,1-1.324.27l-5.079-2.575a1.80262,1.80262,0,0,0-1.518.036l-7.194,4.076a.44575.44575,0,0,0,0,.849l7.194,4.076a1.81232,1.81232,0,0,0,1.519.039l5.077-2.551a1.14936,1.14936,0,0,1,1.325.273l.166.196a.64251.64251,0,0,1-.217,1.038l-4.36,2.147c-.425.209-.435.57-.022.804Z"/>
    <path class="cls-12" d="M174.058,525.0182a.82927.82927,0,0,1,.301,1.159l-.319.517a.87864.87864,0,0,1-1.189.297l-4.631-2.743c-.407-.241-.716-.052-.687.421l.307,4.838a.63537.63537,0,0,1-.79.698l-.326-.062a1.15225,1.15225,0,0,1-.888-1.023l-.273-5.608a1.78834,1.78834,0,0,0-.783-1.298l-7.152-4.227c-.407-.241-.737-.051-.731.422l.099,8.307a1.79084,1.79084,0,0,0,.733,1.328l4.755,3.072a1.1152,1.1152,0,0,1,.417,1.272l-.1.26a.65544.65544,0,0,1-1.021.323l-4-2.688c-.394-.263-.711-.092-.708.382l.047,5.458a.8604.8604,0,0,1-.856.863h-.622a.85742.85742,0,0,1-.854-.863l.045-5.458c.004-.474-.314-.645-.707-.382l-4.001,2.688a.65559.65559,0,0,1-1.021-.323l-.098-.26a1.11333,1.11333,0,0,1,.416-1.272l4.755-3.072a1.7866,1.7866,0,0,0,.732-1.328l.099-8.307c.005-.473-.323-.663-.731-.422l-7.15,4.227a1.78335,1.78335,0,0,0-.784,1.298l-.273,5.608a1.15242,1.15242,0,0,1-.887,1.023l-.327.062a.63607.63607,0,0,1-.791-.698l.307-4.838c.03-.473-.28-.662-.687-.421l-4.63,2.743a.8815.8815,0,0,1-1.191-.297l-.317-.517a.82926.82926,0,0,1,.301-1.159l4.76-2.684c.413-.234.402-.595-.023-.804l-4.359-2.147a.64251.64251,0,0,1-.217-1.038l.165-.196a1.14968,1.14968,0,0,1,1.325-.273l5.077,2.551a1.81232,1.81232,0,0,0,1.519-.039l7.195-4.076a.44609.44609,0,0,0,0-.849l-7.195-4.076a1.80045,1.80045,0,0,0-1.517-.036l-5.08,2.575a1.1457,1.1457,0,0,1-1.324-.27l-.165-.196a.64231.64231,0,0,1,.217-1.038l4.359-2.147c.425-.21.436-.572.023-.804l-4.76-2.685a.83465.83465,0,0,1-.306-1.161l.327-.542a.86787.86787,0,0,1,1.184-.296l4.634,2.766c.407.244.715.055.685-.418l-.307-4.838a.64762.64762,0,0,1,.793-.71l.322.057a1.132,1.132,0,0,1,.889,1.01l.274,5.639a1.78447,1.78447,0,0,0,.784,1.297l7.15,4.227c.408.241.736.051.731-.422l-.099-8.307a1.7866,1.7866,0,0,0-.732-1.328l-4.755-3.072a1.12137,1.12137,0,0,1-.421-1.273l.107-.286a.65091.65091,0,0,1,1.017-.326l4.001,2.689c.393.264.711.092.707-.381l-.045-5.429a.85571.85571,0,0,1,.854-.861h.622a.85868.85868,0,0,1,.856.861l-.047,5.429c-.003.473.314.645.708.381l4-2.689a.65091.65091,0,0,1,1.017.326l.108.286a1.12139,1.12139,0,0,1-.421,1.273l-4.755,3.072a1.79084,1.79084,0,0,0-.733,1.328l-.099,8.307c-.006.473.324.663.731.422l7.152-4.227a1.78642,1.78642,0,0,0,.783-1.297l.273-5.639a1.13311,1.13311,0,0,1,.889-1.01l.321-.057a.64735.64735,0,0,1,.794.71l-.307,4.838c-.029.473.279.662.685.418l4.634-2.766a.86884.86884,0,0,1,1.185.296l.326.542a.83437.83437,0,0,1-.305,1.161l-4.76,2.685c-.413.232-.403.594.022.804l4.36,2.147a.64232.64232,0,0,1,.217,1.038l-.166.196a1.14537,1.14537,0,0,1-1.324.27l-5.079-2.575a1.80262,1.80262,0,0,0-1.518.036l-7.194,4.076a.44575.44575,0,0,0,0,.849l7.194,4.076a1.81232,1.81232,0,0,0,1.519.039l5.077-2.551a1.14936,1.14936,0,0,1,1.325.273l.166.196a.64251.64251,0,0,1-.217,1.038l-4.36,2.147c-.425.209-.435.57-.022.804Z"/>
  </g>
  <g class="cls-2">
    <rect class="cls-5" x="55.877" y="490.392" width="24.308" height="49.936"/>
    <polygon class="cls-13" points="68.232 495.578 73.931 495.078 79.23 499.578 78.13 500.977 63.432 502.777 68.232 495.578"/>
    <polygon class="cls-14" points="68.232 495.578 73.931 495.078 79.23 499.578 78.13 500.977 63.432 502.777 68.232 495.578"/>
    <polygon class="cls-15" points="73.031 494.178 79.23 499.577 71.431 495.978 63.632 492.978 73.031 494.178"/>
    <polygon class="cls-16" points="73.031 494.178 79.23 499.577 71.431 495.978 63.632 492.978 73.031 494.178"/>
    <polygon class="cls-17" points="79.23 535.773 79.23 499.577 67.232 500.927 67.232 539.373 79.23 535.773"/>
    <polygon class="cls-16" points="79.23 535.773 79.23 499.577 67.232 500.927 67.232 539.373 79.23 535.773"/>
    <polygon class="cls-18" points="67.232 539.373 67.232 500.927 56.833 499.378 56.833 535.773 67.232 539.373"/>
    <polygon class="cls-16" points="67.232 539.373 67.232 500.927 56.833 499.378 56.833 535.773 67.232 539.373"/>
    <polygon class="cls-19" points="73.031 494.178 67.232 500.927 56.833 499.377 63.632 492.978 73.031 494.178"/>
    <polygon class="cls-16" points="73.031 494.178 67.232 500.927 56.833 499.377 63.632 492.978 73.031 494.178"/>
    <polygon class="cls-5" points="73.031 494.178 73.031 491.978 63.632 491.028 63.632 492.978 73.031 494.178"/>
    <polygon class="cls-16" points="73.031 494.178 73.031 491.978 63.632 491.028 63.632 492.978 73.031 494.178"/>
    <polygon class="cls-20" points="70.711 514.143 70.683 514.149 69.016 515.355 68.722 514.106 70.935 512.531 72.378 512.222 72.378 521.368 70.711 521.737 70.711 514.143"/>
    <polygon class="cls-20" points="74.89 514.789 75.665 514.621 75.665 519.988 78.233 519.421 78.233 520.072 74.89 520.812 74.89 514.789"/>



    
    <rect class="cls-7" x="104.131" y="25.646" width="182.16801" height="50.815"/>
    
    
    
    
    
    
    
    
    
    
    
    

  <g id="union-flag" transform="translate(25.532, 25.646) scale(1.6938333333333333)">
	<path id="blue" fill="#004289" d="M9.59,20L0,26.39V20H9.59z M39.59,0H27.5v8.06L39.59,0z M0,3.61V10h9.59L0,3.61z M17.5,0H5.41
		L17.5,8.06V0z M27.5,30h12.09L27.5,21.94V30z M45,10V3.61L35.41,10H45z M45,26.39V20h-9.59L45,26.39z M5.41,30H17.5v-8.06L5.41,30z
		"/>
	<path id="red" fill="#DC2F34" d="M45,18H25.5v12h-6V18H0v-6h19.5V0h6v12H45V18z M0,2.42L11.38,10h3.61L0,0.01V2.42z M45,27.58
		L33.62,20h-3.61L45,29.99V27.58z M17.5,20.74V20H15L0,30h3.61L17.5,20.74z M27.5,9.26V10H30L45,0h-3.61L27.5,9.26z"/>
</g><path id="energy-heading" d="M7.1581,7.21791H2.33537v3.7413H7.72769v1.90845H0V.13234H7.44305V2.04079H2.33537V5.32836H7.1581Zm3.53413,5.64975V.13234h2.677L16.67314,5.593a37.85159,37.85159,0,0,1,2.18339,4.27032h.038a51.82706,51.82706,0,0,1-.20865-5.29055V.13234h2.1644V12.86766H18.41992L15.07833,7.25572a43.774,43.774,0,0,1-2.2787-4.38342l-.076.0189c.095,1.64379.133,3.32538.133,5.42289v4.55357ZM31.63845,7.21791H26.81573v3.7413h5.392v1.90845H24.48V.13234h7.44305V2.04079H26.81573V5.32836h4.82272ZM35.19126.32139A20.16965,20.16965,0,0,1,38.72282.03781a5.98372,5.98372,0,0,1,3.94949,1.02056,3.228,3.228,0,0,1,1.1012,2.56949,3.347,3.347,0,0,1-2.3357,3.17446V6.859a3.16007,3.16007,0,0,1,1.7851,2.45638,32.106,32.106,0,0,0,1.00653,3.55224H41.83707a16.17761,16.17761,0,0,1-.85455-3.00431c-.37994-1.66269-.96854-2.19171-2.2977-2.22952H37.50764v5.23383H35.19126ZM37.50764,5.933h1.38647c1.57581,0,2.5437-.83119,2.5437-2.09719,0-1.37943-.96789-2.04079-2.487-2.04079a6.74576,6.74576,0,0,0-1.44314.11343Zm19.67341,6.34892A12.70364,12.70364,0,0,1,53.08022,13a6.96331,6.96331,0,0,1-5.032-1.7005,6.3681,6.3681,0,0,1-1.78446-4.68623C46.28243,2.56982,49.1494,0,53.38353,0a8.52961,8.52961,0,0,1,3.3989.60464l-.5126,1.87065a6.6378,6.6378,0,0,0-2.905-.54793c-2.73432,0-4.65207,1.606-4.65207,4.5728,0,2.89088,1.78509,4.61029,4.44342,4.61029a4.91246,4.91246,0,0,0,1.76578-.24577v-3.193H52.66228V5.8388h4.51877Zm6.23045.58573V7.55821L59.36734.13234h2.677l1.51914,3.269c.43661.94462.75924,1.66269,1.11987,2.53169h.038c.304-.81228.66458-1.606,1.10184-2.53169L67.361.13234H70L65.74719,7.50149v5.36617Z" fill="#fff" transform="translate(117.99595584741246, 39.77372127209416) scale(1.6938333333333333)"/></g>

  <g class="cls-2">
    <line class="cls-25" x1="24.8031" y1="126.63971" x2="287.00809" y2="126.63971"/>
    <path class="cls-4" d="M215.0157,405.6436s-9.921,0-9.921,9.921v49.024s0,9.921,9.921,9.921h57.528s9.921,0,9.921-9.921v-49.024s0-9.921-9.921-9.921Z"/>
    <path class="cls-21" d="M278.41,454.7361a4.43705,4.43705,0,0,0-.106-.987,2.226,2.226,0,0,0-.355-.817,1.80033,1.80033,0,0,0-.653-.557,2.15517,2.15517,0,0,0-.998-.209,1.8993,1.8993,0,0,0-.489.065,2.15314,2.15314,0,0,0-.499.209,3.461,3.461,0,0,0-.533.376,6.44767,6.44767,0,0,0-.584.567,2.22311,2.22311,0,0,0-.274-.496,1.65427,1.65427,0,0,0-.396-.382,1.84361,1.84361,0,0,0-.537-.25,2.46047,2.46047,0,0,0-.687-.089,2.02377,2.02377,0,0,0-.988.27,3.99191,3.99191,0,0,0-1.008.851v-.813a.16574.16574,0,0,0-.024-.092.21891.21891,0,0,0-.079-.069.40912.40912,0,0,0-.153-.041,2.48739,2.48739,0,0,0-.25-.01,2.44556,2.44556,0,0,0-.253.01.477.477,0,0,0-.157.041.18815.18815,0,0,0-.082.069.18408.18408,0,0,0-.021.092v6.152a.16583.16583,0,0,0,.024.092.18294.18294,0,0,0,.089.065.64442.64442,0,0,0,.175.041,2.27014,2.27014,0,0,0,.273.014,2.35079,2.35079,0,0,0,.28-.014.59389.59389,0,0,0,.171-.041.20392.20392,0,0,0,.089-.065.152.152,0,0,0,.027-.092v-4.3a5.14924,5.14924,0,0,1,.862-.882,1.30177,1.30177,0,0,1,.786-.3,1.1308,1.1308,0,0,1,.543.123,1.0312,1.0312,0,0,1,.38.355,1.74892,1.74892,0,0,1,.225.554,3.12879,3.12879,0,0,1,.075.711v3.739a.16559.16559,0,0,0,.024.092.18265.18265,0,0,0,.089.065.6509.6509,0,0,0,.178.041,2.64128,2.64128,0,0,0,.543,0,.6539.6539,0,0,0,.175-.041.20362.20362,0,0,0,.092-.065.15187.15187,0,0,0,.027-.092v-4.3a5.46493,5.46493,0,0,1,.865-.882,1.2894,1.2894,0,0,1,.783-.3,1.15544,1.15544,0,0,1,.547.123,1.0238,1.0238,0,0,1,.383.355,1.63393,1.63393,0,0,1,.218.554,3.3903,3.3903,0,0,1,.069.711v3.739a.15207.15207,0,0,0,.027.092.20362.20362,0,0,0,.092.065.64439.64439,0,0,0,.175.041,2.33824,2.33824,0,0,0,.28.014,2.28215,2.28215,0,0,0,.273-.014.59447.59447,0,0,0,.171-.041.20434.20434,0,0,0,.089-.065.15194.15194,0,0,0,.027-.092Zm-11.211-2.262a.14136.14136,0,0,0-.03-.092.29621.29621,0,0,0-.093-.069.50912.50912,0,0,0-.171-.041c-.072-.007-.164-.01-.273-.01-.114,0-.206.003-.277.01a.57059.57059,0,0,0-.174.041.20773.20773,0,0,0-.092.069.16574.16574,0,0,0-.024.092v4.3a4.80986,4.80986,0,0,1-.892.881,1.4431,1.4431,0,0,1-.845.301,1.24474,1.24474,0,0,1-.574-.126,1.11543,1.11543,0,0,1-.407-.356,1.60555,1.60555,0,0,1-.239-.553,3.84772,3.84772,0,0,1-.078-.865v-3.582a.15227.15227,0,0,0-.028-.092.24234.24234,0,0,0-.092-.069.54945.54945,0,0,0-.174-.041c-.073-.007-.164-.01-.274-.01-.109,0-.2.003-.273.01a.58469.58469,0,0,0-.178.041.2078.2078,0,0,0-.092.069.16541.16541,0,0,0-.024.092v3.732a4.88341,4.88341,0,0,0,.113,1.138,2.2512,2.2512,0,0,0,.372.821,1.829,1.829,0,0,0,.68.557,2.35038,2.35038,0,0,0,1.036.205,2.228,2.228,0,0,0,1.039-.267,3.81943,3.81943,0,0,0,1.039-.847v.813a.18408.18408,0,0,0,.021.092.15325.15325,0,0,0,.078.065.52882.52882,0,0,0,.157.041,1.96725,1.96725,0,0,0,.257.014,1.82708,1.82708,0,0,0,.242-.014.57772.57772,0,0,0,.161-.041.18792.18792,0,0,0,.086-.065.17442.17442,0,0,0,.023-.092Zm-7.328,2.399a4.87551,4.87551,0,0,0-.112-1.124,2.23508,2.23508,0,0,0-.373-.817,1.85845,1.85845,0,0,0-.68-.557,2.31782,2.31782,0,0,0-1.036-.209,2.22577,2.22577,0,0,0-1.042.27,3.78477,3.78477,0,0,0-1.036.851v-.813a.16557.16557,0,0,0-.024-.092.219.219,0,0,0-.079-.069.40935.40935,0,0,0-.153-.041,2.47374,2.47374,0,0,0-.25-.01,2.44569,2.44569,0,0,0-.253.01.47722.47722,0,0,0-.157.041.1882.1882,0,0,0-.082.069.18419.18419,0,0,0-.021.092v6.152a.16566.16566,0,0,0,.024.092.18283.18283,0,0,0,.089.065.65388.65388,0,0,0,.175.041,2.26978,2.26978,0,0,0,.273.014,2.35055,2.35055,0,0,0,.28-.014.59413.59413,0,0,0,.171-.041.2041.2041,0,0,0,.089-.065.15194.15194,0,0,0,.027-.092v-4.3a4.60893,4.60893,0,0,1,.889-.882,1.46154,1.46154,0,0,1,.848-.3,1.28887,1.28887,0,0,1,.577.123,1.03306,1.03306,0,0,1,.407.355,1.73835,1.73835,0,0,1,.239.554,3.52639,3.52639,0,0,1,.082.848v3.602a.146.146,0,0,0,.028.092.20422.20422,0,0,0,.089.065.595.595,0,0,0,.17.041,2.36893,2.36893,0,0,0,.281.014,2.28191,2.28191,0,0,0,.273-.014.59429.59429,0,0,0,.171-.041.20422.20422,0,0,0,.089-.065.15188.15188,0,0,0,.027-.092Zm-7.355,0a4.86953,4.86953,0,0,0-.113-1.124,2.20267,2.20267,0,0,0-.373-.817,1.85034,1.85034,0,0,0-.68-.557,2.3133,2.3133,0,0,0-1.035-.209,2.22962,2.22962,0,0,0-1.043.27,3.78176,3.78176,0,0,0-1.035.851v-.813a.16565.16565,0,0,0-.024-.092.2279.2279,0,0,0-.079-.069.42089.42089,0,0,0-.154-.041,3.15171,3.15171,0,0,0-.502,0,.47709.47709,0,0,0-.157.041.15856.15856,0,0,0-.103.161v6.152a.16575.16575,0,0,0,.024.092.17806.17806,0,0,0,.089.065.63637.63637,0,0,0,.174.041,2.28858,2.28858,0,0,0,.274.014,2.36271,2.36271,0,0,0,.28-.014.59406.59406,0,0,0,.171-.041.21037.21037,0,0,0,.089-.065.15187.15187,0,0,0,.027-.092v-4.3a4.60951,4.60951,0,0,1,.889-.882,1.45874,1.45874,0,0,1,.847-.3,1.29346,1.29346,0,0,1,.578.123,1.04,1.04,0,0,1,.407.355,1.78421,1.78421,0,0,1,.239.554,3.5269,3.5269,0,0,1,.082.848v3.602a.152.152,0,0,0,.027.092.20429.20429,0,0,0,.089.065.59414.59414,0,0,0,.171.041,2.35055,2.35055,0,0,0,.28.014,2.28828,2.28828,0,0,0,.274-.014.594.594,0,0,0,.171-.041.21041.21041,0,0,0,.089-.065.152.152,0,0,0,.027-.092Zm-8.49,2.256a3.5342,3.5342,0,0,1-.797.69,1.57691,1.57691,0,0,1-.824.226,1.19733,1.19733,0,0,1-.851-.284.99423.99423,0,0,1-.304-.762,1.09916,1.09916,0,0,1,.106-.495.9629.9629,0,0,1,.332-.37,1.65718,1.65718,0,0,1,.567-.232,3.662,3.662,0,0,1,.807-.079h.964Zm1.121-2.645a3.51185,3.51185,0,0,0-.13-1.005,1.72145,1.72145,0,0,0-.417-.722,1.83146,1.83146,0,0,0-.752-.44,3.67077,3.67077,0,0,0-1.128-.151,3.8578,3.8578,0,0,0-.704.065,4.66882,4.66882,0,0,0-.643.164,3.43268,3.43268,0,0,0-.519.219,1.48043,1.48043,0,0,0-.318.208.391.391,0,0,0-.116.188,1.45869,1.45869,0,0,0-.011.458.4179.4179,0,0,0,.045.141.23306.23306,0,0,0,.072.082.16793.16793,0,0,0,.095.027.57761.57761,0,0,0,.25-.099q.16648-.099.417-.219a3.94755,3.94755,0,0,1,.581-.219,2.61068,2.61068,0,0,1,.748-.099,2.0439,2.0439,0,0,1,.657.092,1.05272,1.05272,0,0,1,.434.274,1.08118,1.08118,0,0,1,.242.455,2.33819,2.33819,0,0,1,.076.628v.479h-.848a6.04714,6.04714,0,0,0-1.292.126,3.00264,3.00264,0,0,0-.971.38,1.751,1.751,0,0,0-.608.636,1.83627,1.83627,0,0,0-.212.902,1.94139,1.94139,0,0,0,.154.793,1.6478,1.6478,0,0,0,.43.588,1.907,1.907,0,0,0,.67.365,2.84028,2.84028,0,0,0,.879.127,2.38771,2.38771,0,0,0,1.049-.239,3.05528,3.05528,0,0,0,.899-.67v.615a.15191.15191,0,0,0,.048.123.34315.34315,0,0,0,.154.062,1.61848,1.61848,0,0,0,.283.02,1.50858,1.50858,0,0,0,.281-.02.401.401,0,0,0,.15-.062.14443.14443,0,0,0,.055-.123Zm-5.551-5.38a.27581.27581,0,0,0,.02-.158.16642.16642,0,0,0-.075-.109.51316.51316,0,0,0-.171-.065,1.34205,1.34205,0,0,0-.28-.024c-.096,0-.178.004-.246.01a.54415.54415,0,0,0-.168.041.33268.33268,0,0,0-.109.083.36786.36786,0,0,0-.072.14l-4.135,11.34a.24813.24813,0,0,0-.028.154.1784.1784,0,0,0,.075.11.4802.4802,0,0,0,.175.068,1.38771,1.38771,0,0,0,.283.024,1.83054,1.83054,0,0,0,.243-.014.73655.73655,0,0,0,.168-.041.28277.28277,0,0,0,.112-.078.38082.38082,0,0,0,.072-.141Zm-6.296,5.776a4.90419,4.90419,0,0,0-.113-1.131,2.21688,2.21688,0,0,0-.372-.817,1.8618,1.8618,0,0,0-.681-.557,2.31329,2.31329,0,0,0-1.035-.209,2.16324,2.16324,0,0,0-.991.25,3.63841,3.63841,0,0,0-.978.762v-3.685a.168.168,0,0,0-.027-.095.208.208,0,0,0-.089-.069.62943.62943,0,0,0-.171-.041,2.3805,2.3805,0,0,0-.28-.013,2.31553,2.31553,0,0,0-.274.013.67547.67547,0,0,0-.174.041.18129.18129,0,0,0-.089.069.18368.18368,0,0,0-.024.095v9.133a.16566.16566,0,0,0,.024.092.18272.18272,0,0,0,.089.065.636.636,0,0,0,.174.041,2.2884,2.2884,0,0,0,.274.014,2.35055,2.35055,0,0,0,.28-.014.594.594,0,0,0,.171-.041.21041.21041,0,0,0,.089-.065.15194.15194,0,0,0,.027-.092v-4.3a4.60865,4.60865,0,0,1,.889-.882,1.45872,1.45872,0,0,1,.847-.3,1.29039,1.29039,0,0,1,.578.123,1.04,1.04,0,0,1,.407.355,1.76167,1.76167,0,0,1,.239.554,3.52741,3.52741,0,0,1,.082.848v3.602a.15188.15188,0,0,0,.027.092.21023.21023,0,0,0,.089.065.59413.59413,0,0,0,.171.041,2.36271,2.36271,0,0,0,.28.014,2.2884,2.2884,0,0,0,.274-.014.59413.59413,0,0,0,.171-.041.21023.21023,0,0,0,.089-.065.15188.15188,0,0,0,.027-.092Zm-6.809-4.505a1.47521,1.47521,0,0,0,.038-.246.166.166,0,0,0-.051-.137.35417.35417,0,0,0-.175-.065,2.47114,2.47114,0,0,0-.324-.017,2.95293,2.95293,0,0,0-.318.014.71352.71352,0,0,0-.185.041.145.145,0,0,0-.085.079c-.014.034-.027.074-.041.119l-1.948,7.404h-.014l-2.03-7.397a.493.493,0,0,0-.052-.126.18623.18623,0,0,0-.099-.079.74008.74008,0,0,0-.181-.041,2.67093,2.67093,0,0,0-.304-.014,3.24935,3.24935,0,0,0-.332.014.7664.7664,0,0,0-.194.041.19272.19272,0,0,0-.1.079.533.533,0,0,0-.051.126l-1.887,7.397h-.006l-1.99-7.411a.46156.46156,0,0,0-.037-.123.1694.1694,0,0,0-.089-.075.62555.62555,0,0,0-.188-.037c-.082-.007-.194-.011-.335-.011-.146,0-.262.005-.349.014a.3573.3573,0,0,0-.188.062.156.156,0,0,0-.054.136,1.2124,1.2124,0,0,0,.044.246l2.338,8.169a.3397.3397,0,0,0,.072.154.32255.32255,0,0,0,.147.089,1.17842,1.17842,0,0,0,.246.044c.1.009.225.014.376.014.146,0,.265-.005.359-.014a1.05752,1.05752,0,0,0,.229-.044.29966.29966,0,0,0,.136-.089.35958.35958,0,0,0,.069-.154l1.709-6.678h.013l1.853,6.678a.41811.41811,0,0,0,.075.154.30154.30154,0,0,0,.144.089,1.17228,1.17228,0,0,0,.242.044c.098.009.218.014.359.014.137,0,.252-.005.345-.014a1.172,1.172,0,0,0,.236-.044.35476.35476,0,0,0,.151-.089.38281.38281,0,0,0,.082-.154Zm-12.294,8.111a1.45239,1.45239,0,0,0-.126-.188l-2.502-3.247,2.228-2.229a.971.971,0,0,0,.147-.191.33819.33819,0,0,0,.045-.164.1541.1541,0,0,0-.031-.099.22386.22386,0,0,0-.103-.062.849.849,0,0,0-.188-.034c-.077-.007-.173-.01-.287-.01-.109,0-.203.003-.28.01a.83689.83689,0,0,0-.202.041.63158.63158,0,0,0-.147.075.6165.6165,0,0,0-.116.113l-2.324,2.557v-5.565a.16127.16127,0,0,0-.028-.095.19869.19869,0,0,0-.088-.069.62943.62943,0,0,0-.171-.041,2.39927,2.39927,0,0,0-.281-.013,2.30865,2.30865,0,0,0-.273.013.67547.67547,0,0,0-.174.041.17671.17671,0,0,0-.089.069.18368.18368,0,0,0-.024.095v9.133a.16566.16566,0,0,0,.024.092.178.178,0,0,0,.089.065.636.636,0,0,0,.174.041,2.28216,2.28216,0,0,0,.273.014,2.36917,2.36917,0,0,0,.281-.014.594.594,0,0,0,.171-.041.2006.2006,0,0,0,.088-.065.14606.14606,0,0,0,.028-.092v-3.411l2.597,3.404a.53573.53573,0,0,0,.093.106.3416.3416,0,0,0,.133.069,1.06942,1.06942,0,0,0,.202.034c.079.007.181.01.304.01a2.62937,2.62937,0,0,0,.294-.014.658.658,0,0,0,.181-.041.19976.19976,0,0,0,.092-.068.16945.16945,0,0,0,.028-.096.29115.29115,0,0,0-.038-.133"/>
  </g>
  <rect class="cls-5" x="24.803" y="148.34399" width="181.65299" height="235.03799"/>
  <polygon class="cls-23" points="24.803 223.682 24.803 243.374 122.794 243.374 132.546 233.528 122.794 223.682 24.803 223.682"/>
  <polygon class="cls-26" points="24.803 200.296 24.803 219.988 111.435 219.988 121.189 210.142 111.435 200.296 24.803 200.296"/>
  <polygon class="cls-27" points="24.803 176.91 24.803 196.601 100.08 196.601 109.834 186.756 100.08 176.91 24.803 176.91"/>
  <polygon class="cls-28" points="24.803 153.525 24.803 173.216 91.273 173.216 101.028 163.371 91.273 153.525 24.803 153.525"/>
  <polygon class="cls-29" points="24.803 247.059 24.803 266.75 134.414 266.75 144.177 256.905 134.414 247.059 24.803 247.059"/>
  <polygon class="cls-30" points="24.803 270.437 24.803 290.13 145.763 290.13 155.531 280.284 145.763 270.437 24.803 270.437"/>
  <polygon class="cls-31" points="24.803 293.815 24.803 313.505 157.113 313.505 166.882 303.659 157.113 293.815 24.803 293.815"/>
  <polygon class="cls-31" points="24.803 317.191 24.803 336.881 168.462 336.881 178.236 327.039 168.462 317.191 24.803 317.191"/>
  <polygon class="cls-31" points="24.803 340.567 24.803 360.26 179.812 360.26 189.591 350.414 179.812 340.567 24.803 340.567"/>
  <polygon class="cls-31" points="24.803 363.943 24.803 383.382 190.844 383.382 200.996 373.79 190.578 363.943 24.803 363.943"/>
  <g class="cls-32">
    <path class="cls-5" d="M251.834,236.41821l-.863,3.131h-2.842l3.705-12.201h3.597l3.762,12.201H256.24l-.934-3.131Zm3.076-2.064-.756-2.589c-.217-.724-.432-1.63-.611-2.353h-.035c-.18.723-.362,1.647-.559,2.353l-.719,2.589Z"/>
    <path class="cls-5" d="M248.21838,250.91571a21.73088,21.73088,0,0,1,3.545-.253,6.64928,6.64928,0,0,1,3.58.688,2.65889,2.65889,0,0,1,1.457,2.389,2.75877,2.75877,0,0,1-1.996,2.608v.036a3.04775,3.04775,0,0,1,2.408,3.006,3.26064,3.26064,0,0,1-1.257,2.589c-.881.706-2.358,1.104-4.768,1.104a21.014,21.014,0,0,1-2.969-.182Zm2.717,4.671h.898c1.442,0,2.215-.598,2.215-1.502,0-.924-.703-1.412-1.943-1.412a7.36177,7.36177,0,0,0-1.17.072Zm0,5.413a8.205,8.205,0,0,0,1.063.038c1.24,0,2.337-.489,2.337-1.756,0-1.234-1.097-1.72-2.464-1.72h-.936Z"/>
    <path class="cls-5" d="M257.18329,286.0163a7.67,7.67,0,0,1-3.113.545c-4.194,0-6.35-2.643-6.35-6.12,0-4.163,2.949-6.481,6.619-6.481a7.14333,7.14333,0,0,1,2.987.542l-.559,2.192a5.88589,5.88589,0,0,0-2.303-.454,4.01284,4.01284,0,0,0,.018,8.021,6.83034,6.83034,0,0,0,2.285-.398Z"/>
    <path class="cls-5" d="M247.44319,297.72632a24.60507,24.60507,0,0,1,3.705-.252,7.75448,7.75448,0,0,1,4.965,1.304,5.40556,5.40556,0,0,1,2.051,4.596,6.19828,6.19828,0,0,1-2.014,4.943,8.66044,8.66044,0,0,1-5.594,1.576,23.4794,23.4794,0,0,1-3.113-.182Zm2.752,9.958a4.8674,4.8674,0,0,0,.953.056c2.485.017,4.102-1.36,4.102-4.275a3.48739,3.48739,0,0,0-3.813-3.873,5.5665,5.5665,0,0,0-1.242.109Z"/>
    <polygon class="cls-5" points="254.598 327.911 250.134 327.911 250.134 330.808 255.118 330.808 255.118 333.07 247.384 333.07 247.384 320.868 254.867 320.868 254.867 323.133 250.134 323.133 250.134 325.667 254.598 325.667 254.598 327.911"/>
    <polygon class="cls-5" points="247.885 344.273 255.297 344.273 255.297 346.538 250.637 346.538 250.637 349.324 254.99 349.324 254.99 351.571 250.637 351.571 250.637 356.475 247.885 356.475 247.885 344.273"/>
    <path class="cls-5" d="M258.43729,379.2184a13.50014,13.50014,0,0,1-4.049.688,6.73081,6.73081,0,0,1-4.93-1.649,5.92714,5.92714,0,0,1-1.709-4.435c.018-4.055,2.952-6.373,6.926-6.373a8.29088,8.29088,0,0,1,3.364.598l-.575,2.209a6.67518,6.67518,0,0,0-2.824-.524,3.9756,3.9756,0,1,0,1.152,7.766v-2.554h-1.873v-2.154h4.518Z"/>
  </g>
  <text class="cls-35" transform="translate(30.79297 169.25525)"><tspan xml:space="preserve"> A</tspan></text>
  <text class="cls-36" transform="translate(47.46631 164.19812)"><tspan class="cls-37">+</tspan><tspan x="6.60449" y="0">+</tspan></text>
  <text class="cls-36" transform="translate(60.7002 164.19812)">+</text>
  <text class="cls-35" transform="translate(30.93604 192.75916)"><tspan xml:space="preserve"> A</tspan></text>
  <text class="cls-36" transform="translate(46.97656 187.70203)">+</text>
  <text class="cls-36" transform="translate(53.59375 187.70203)">+</text>
  <text class="cls-35" transform="translate(30.93604 216.01697)"><tspan xml:space="preserve"> A</tspan></text>
  <text class="cls-35" transform="translate(30.5752 239.5199)"><tspan xml:space="preserve"> A</tspan></text>
  <text class="cls-35" transform="translate(30.76514 262.35779)"><tspan xml:space="preserve"> B</tspan></text>
  <text class="cls-35" transform="translate(30.76514 285.61414)"><tspan xml:space="preserve"> C</tspan></text>
  <text class="cls-35" transform="translate(30.40381 309.11707)"><tspan xml:space="preserve"> D</tspan></text>
  <text class="cls-35" transform="translate(30.76514 332.77234)"><tspan xml:space="preserve"> E</tspan></text>
  <text class="cls-35" transform="translate(30.40381 356.27527)"><tspan xml:space="preserve"> F</tspan></text>
  <g class="cls-32">
    <text class="cls-35" transform="translate(30.40381 379.36023)"><tspan xml:space="preserve"> G</tspan></text>
  </g>
  <text class="cls-36" transform="translate(46.97656 210.95984)">+</text>
  <text class="cls-38" transform="translate(245.45215 577.7196)"> </text>
  <text class="cls-39" transform="translate(250.03711 577.7196)">d</text>
  <text class="cls-39" transform="translate(259.37012 577.7196)">B</text>
  <text class="cls-38" transform="translate(163.07227 577.7196)"> </text>
  <text class="cls-39" transform="translate(167.6582 577.7196)">L</text>
  <text class="cls-38" transform="translate(82.6792 577.7196)"> </text>
  <text class="cls-39" transform="translate(87.26514 577.7196)">L</text>
  <text class="cls-40" transform="translate(28.10352 598.70496)">2010/1060</text>
  <g class="cls-41">
    <text class="cls-42" transform="translate(214.52832 102.1781)"><tspan xml:space="preserve"> A</tspan></text>
    <text class="cls-43" transform="translate(238.63184 93.15808)"><tspan class="cls-44">++</tspan><tspan x="18.5" y="0">+</tspan></text>
    <text class="cls-43" transform="translate(266.43457 93.15808)">+</text>
    <text class="cls-42" transform="translate(214.52832 149.26306)"><tspan xml:space="preserve"> A</tspan></text>
    <text class="cls-43" transform="translate(238.63184 140.26208)"><tspan class="cls-44">+</tspan><tspan x="9.25" y="0">+</tspan></text>
    <text class="cls-43" transform="translate(257.16699 140.26208)">+</text>
  </g>
  <g class="cls-41">
    <text class="cls-42" transform="translate(214.52832 243.43298)"><tspan xml:space="preserve"> A</tspan></text>
    <text class="cls-43" transform="translate(238.63184 234.41248)">+</text>
    <text class="cls-42" transform="translate(214.52832 290.51843)"><tspan xml:space="preserve"> A</tspan></text>
    <text class="cls-42" transform="translate(214.52832 337.61414)"><tspan xml:space="preserve"> B</tspan></text>
    <text class="cls-42" transform="translate(214.52832 384.71082)"><tspan xml:space="preserve"> C</tspan></text>
    <text class="cls-42" transform="translate(214.52832 431.80652)"><tspan xml:space="preserve"> D</tspan></text>
    <text class="cls-42" transform="translate(214.52832 478.8739)"><tspan xml:space="preserve"> E</tspan></text>
    <text class="cls-42" transform="translate(214.52832 525.97058)"><tspan xml:space="preserve"> F</tspan></text>
    <text class="cls-42" transform="translate(214.52832 573.06628)"><tspan xml:space="preserve"> G</tspan></text>
  </g>
  <g id="rating">
    <polyline id="ratingArrow" class="cls-21" points="208.23 163.08 227.74 142.89 286.7 142.89 286.7 182.83 227.74 182.83 208.23 163.08"/>
    <text id="ratingLetter" class="cls-45" transform="translate(222.41016 171.57996)">D</text>
    <text id="ratingPlusses" class="cls-99" transform="translate(241.40039 162.37)"/>
  </g>
  <text id="kwhAnnum" class="cls-46" transform="translate(243.08984 442.82996)" text-anchor="middle">X</text>
  <text id="supplierLine2" class="cls-47" transform="translate(25.50959 119.05041)">X</text>
  <text id="supplierLine1" class="cls-47" transform="translate(25.50959 102.79205)">X</text>
  <text id="modelLine2" class="cls-47" transform="translate(164.40998 119.05041)">X</text>
  <text id="modelLine1" class="cls-47" transform="translate(164.40998 102.79205)">X</text>
  <text id="fridgeLitres" class="cls-48" transform="translate(79 577.16003)" text-anchor="end">X</text>
  <text id="freezerLitres" class="cls-48" transform="translate(164 577.16003)" text-anchor="end">X</text>
  <text id="db" class="cls-48" transform="translate(243.91992 577.16003)" text-anchor="end">X</text>
  <g id="starRating">
    <path id="zero" class="cls-49" d="M160.4533,549.94958c0-.636-.01561-1.301-.04591-1.88224-.10558-.863-.16112-1.37323-.64908-1.6155a7.44671,7.44671,0,0,0-6.89754,0c-.48843.24227-.544.75248-.64909,1.6155-.03122.58123-.04637,1.24627-.04637,1.88224,0,.63475.01515,1.29979.04637,1.881.10512.86189.16066,1.37323.64909,1.61544a7.45568,7.45568,0,0,0,6.89754,0c.488-.24221.5435-.75355.64908-1.61544.0303-.58123.04591-1.24627.04591-1.881"/>
    <g id="one">
      <path id="box" class="cls-49" d="M160.4533,549.94958c0-.636-.01561-1.301-.04591-1.88224-.10558-.863-.16112-1.37323-.64908-1.6155a7.44671,7.44671,0,0,0-6.89754,0c-.48843.24227-.544.75248-.64909,1.6155-.03122.58123-.04637,1.24627-.04637,1.88224,0,.63475.01515,1.29979.04637,1.881.10512.86189.16066,1.37323.64909,1.61544a7.45568,7.45568,0,0,0,6.89754,0c.488-.24221.5435-.75355.64908-1.61544.0303-.58123.04591-1.24627.04591-1.881"/>
      <path class="cls-50" d="M156.40263,550.48352c-.06683-.09792-.13365-.07372-.18663,0l-.61173,1.05987a.25235.25235,0,0,1-.34215.08985l-.03916-.02995a.2289.2289,0,0,1-.08987-.32948l.58292-1.01493c.08871-.14054.04377-.22234-.11174-.21543h-1.18774a.2395.2395,0,0,1-.24538-.24653V549.752a.24092.24092,0,0,1,.24538-.25459h1.17967c.10369,0,.26151,0,.11175-.19931l-.58176-1.02415a.23635.23635,0,0,1,.09677-.3433l.03916-.02995a.24035.24035,0,0,1,.33408.09792l.60482,1.07369c.08179.10368.14861.07488.20161-.00576l.61978-1.06793a.22047.22047,0,0,1,.32833-.08985l.05068.01266a.2437.2437,0,0,1,.08179.35252l-.58868,1.03107c-.04377.08985-.0818.17856.09677.19239h1.21078a.24091.24091,0,0,1,.24538.25459v.04493a.2395.2395,0,0,1-.24538.24653h-1.2246c-.09677,0-.16475.08871-.08986.20852l.59559,1.02184a.22879.22879,0,0,1-.09561.33639l-.03686.023a.24312.24312,0,0,1-.33524-.08985l-.61287-1.05987"/>
    </g>
    <g id="two">
      <path id="box-2" data-name="box" class="cls-49" d="M162.96861,549.94958c0-.636-.02508-1.301-.07377-1.88224-.16966-.863-.25892-1.37323-1.04307-1.6155a18.56026,18.56026,0,0,0-11.08419,0c-.78489.24227-.87415.75248-1.04307,1.6155-.05016.58123-.07451,1.24627-.07451,1.88224,0,.63475.02435,1.29979.07451,1.881.16892.86189.25818,1.37323,1.04307,1.61544a18.58435,18.58435,0,0,0,11.08419,0c.78415-.24221.87341-.75355,1.04307-1.61544.04869-.58123.07377-1.24627.07377-1.881"/>
      <g>
        <path class="cls-50" d="M159.80977,550.48352c-.06683-.09792-.13365-.07372-.18663,0l-.61173,1.05987a.25235.25235,0,0,1-.34215.08985l-.03916-.02995a.22889.22889,0,0,1-.08986-.32948l.58292-1.01493c.0887-.14054.04377-.22234-.11175-.21543h-1.18774a.23951.23951,0,0,1-.24538-.24653V549.752a.24092.24092,0,0,1,.24538-.25459h1.17967c.1037,0,.26152,0,.11175-.19931l-.58176-1.02415a.23635.23635,0,0,1,.09677-.3433l.03916-.02995a.24035.24035,0,0,1,.33408.09792l.60482,1.07369c.0818.10368.14861.07488.20161-.00576l.61978-1.06793a.22047.22047,0,0,1,.32833-.08985l.05068.01266a.24371.24371,0,0,1,.0818.35252l-.58869,1.03107c-.04377.08985-.08179.17856.09677.19239h1.21079a.2409.2409,0,0,1,.24537.25459v.04493a.23949.23949,0,0,1-.24537.24653h-1.22461c-.09677,0-.16474.08871-.08986.20852l.5956,1.02184a.22881.22881,0,0,1-.09561.33639l-.03687.023a.24312.24312,0,0,1-.33524-.08985l-.61287-1.05987"/>
        <path class="cls-50" d="M152.99549,550.48352c-.06684-.09792-.13365-.07372-.18663,0l-.61174,1.05987a.25234.25234,0,0,1-.34214.08985l-.03917-.02995a.2289.2289,0,0,1-.08986-.32948l.58292-1.01493c.0887-.14054.04377-.22234-.11175-.21543h-1.18774a.2395.2395,0,0,1-.24537-.24653V549.752a.24091.24091,0,0,1,.24537-.25459h1.17968c.10369,0,.26151,0,.11174-.19931l-.58176-1.02415a.23636.23636,0,0,1,.09677-.3433l.03917-.02995a.24035.24035,0,0,1,.33408.09792l.60482,1.07369c.08179.10368.14861.07488.20161-.00576l.61978-1.06793a.22047.22047,0,0,1,.32833-.08985l.05068.01266a.24371.24371,0,0,1,.08179.35252l-.58869,1.03107c-.04377.08985-.08179.17856.09677.19239h1.21079a.24091.24091,0,0,1,.24538.25459v.04493a.2395.2395,0,0,1-.24538.24653h-1.2246c-.09677,0-.16475.08871-.08986.20852l.59559,1.02184a.2288.2288,0,0,1-.09561.33639l-.03686.023a.24311.24311,0,0,1-.33524-.08985l-.61287-1.05987"/>
      </g>
    </g>
    <g id="three">
      <path id="box-3" data-name="box" class="cls-51" d="M166.38571,549.94958a15.44092,15.44092,0,0,0-.11162-1.88224c-.25672-.863-.39178-1.37323-1.5783-1.6155a41.94905,41.94905,0,0,0-16.77185,0c-1.18764.24227-1.3227.75248-1.57829,1.6155a15.75718,15.75718,0,0,0,0,3.76326c.25559.86189.39065,1.37323,1.57829,1.61544a42.005,42.005,0,0,0,16.77185,0c1.18652-.24221,1.32158-.75355,1.5783-1.61544a15.4354,15.4354,0,0,0,.11162-1.881"/>
      <g>
        <path class="cls-50" d="M156.40263,550.48352c-.06683-.09792-.13365-.07372-.18663,0l-.61173,1.05987a.25235.25235,0,0,1-.34215.08985l-.03916-.02995a.2289.2289,0,0,1-.08987-.32948l.58292-1.01493c.08871-.14054.04377-.22234-.11174-.21543h-1.18774a.2395.2395,0,0,1-.24538-.24653V549.752a.24092.24092,0,0,1,.24538-.25459h1.17967c.10369,0,.26151,0,.11175-.19931l-.58176-1.02415a.23635.23635,0,0,1,.09677-.3433l.03916-.02995a.24035.24035,0,0,1,.33408.09792l.60482,1.07369c.08179.10368.14861.07488.20161-.00576l.61978-1.06793a.22047.22047,0,0,1,.32833-.08985l.05068.01266a.2437.2437,0,0,1,.08179.35252l-.58868,1.03107c-.04377.08985-.0818.17856.09677.19239h1.21078a.24091.24091,0,0,1,.24538.25459v.04493a.2395.2395,0,0,1-.24538.24653h-1.2246c-.09677,0-.16475.08871-.08986.20852l.59559,1.02184a.22879.22879,0,0,1-.09561.33639l-.03686.023a.24312.24312,0,0,1-.33524-.08985l-.61287-1.05987"/>
        <path class="cls-50" d="M149.58834,550.48352c-.06683-.09792-.13365-.07372-.18663,0l-.61173,1.05987a.25235.25235,0,0,1-.34215.08985l-.03916-.02995a.2289.2289,0,0,1-.08986-.32948l.58292-1.01493c.0887-.14054.04377-.22234-.11175-.21543h-1.18774a.23951.23951,0,0,1-.24538-.24653V549.752a.24092.24092,0,0,1,.24538-.25459h1.17967c.1037,0,.26152,0,.11175-.19931l-.58176-1.02415a.23636.23636,0,0,1,.09677-.3433l.03916-.02995a.24035.24035,0,0,1,.33408.09792l.60483,1.07369c.08179.10368.1486.07488.2016-.00576l.61978-1.06793a.22048.22048,0,0,1,.32834-.08985l.05067.01266a.24371.24371,0,0,1,.0818.35252l-.58869,1.03107c-.04377.08985-.08179.17856.09677.19239h1.21079a.24091.24091,0,0,1,.24538.25459v.04493a.2395.2395,0,0,1-.24538.24653h-1.22461c-.09677,0-.16474.08871-.08986.20852l.5956,1.02184a.22881.22881,0,0,1-.09561.33639l-.03686.023a.24311.24311,0,0,1-.33524-.08985l-.61288-1.05987"/>
        <path class="cls-50" d="M163.21691,550.48352c-.06683-.09792-.13364-.07372-.18663,0l-.61173,1.05987a.25234.25234,0,0,1-.34214.08985l-.03917-.02995a.2289.2289,0,0,1-.08986-.32948l.58292-1.01493c.0887-.14054.04377-.22234-.11175-.21543h-1.18774a.23951.23951,0,0,1-.24538-.24653V549.752a.24092.24092,0,0,1,.24538-.25459h1.17967c.1037,0,.26152,0,.11175-.19931l-.58176-1.02415a.23636.23636,0,0,1,.09677-.3433l.03917-.02995a.24034.24034,0,0,1,.33407.09792l.60483,1.07369c.08179.10368.14861.07488.2016-.00576l.61979-1.06793a.22047.22047,0,0,1,.32833-.08985l.05068.01266a.24371.24371,0,0,1,.08179.35252l-.58869,1.03107c-.04377.08985-.08179.17856.09677.19239h1.21079a.24091.24091,0,0,1,.24538.25459v.04493a.2395.2395,0,0,1-.24538.24653h-1.2246c-.09677,0-.16475.08871-.08987.20852l.5956,1.02184a.22881.22881,0,0,1-.09561.33639l-.03686.023a.24311.24311,0,0,1-.33524-.08985l-.61288-1.05987"/>
      </g>
    </g>
    <path id="four" class="cls-50" d="M146.0002,551.80389l1.103,1.912a.43949.43949,0,0,0,.607.163l.067-.041a.41768.41768,0,0,0,.175-.607l-1.077-1.84406c-.135-.215-.014-.37695.161-.37695h2.208a.43231.43231,0,0,0,.445-.444v-.081a.43583.43583,0,0,0-.445-.458h-2.182c-.322-.026-.255-.187-.173-.35l1.063-1.858a.44125.44125,0,0,0-.147-.633l-.095-.027a.3992.3992,0,0,0-.593.162l-1.117,1.926c-.096.147-.216.201-.363.013l-1.091-1.939a.43815.43815,0,0,0-.607-.175l-.067.054a.42539.42539,0,0,0-.175.619l1.051,1.846c.269.362-.014.362-.202.362h-2.128a.43482.43482,0,0,0-.443.458v.081a.43125.43125,0,0,0,.443.444h2.141c.283-.013.364.135.203.38995l-1.051,1.83106a.40826.40826,0,0,0,.161.59295l.067.055a.45491.45491,0,0,0,.62-.163l1.104-1.912c.094-.133.216-.174.337,0m24.793-1.224a12.71151,12.71151,0,0,0-.1-1.616c-.23-.741-.351-1.179-1.414-1.387a39.18459,39.18459,0,0,0-15.026,0c-1.064.208-1.185.64606-1.414,1.387a12.96939,12.96939,0,0,0,0,3.231c.229.74.35,1.179,1.414,1.387a39.2365,39.2365,0,0,0,15.026,0c1.063-.20795,1.184-.647,1.414-1.387a12.70724,12.70724,0,0,0,.1-1.615m-31.479-4.895h33.17a.40543.40543,0,0,1,.429.417v8.913a.40566.40566,0,0,1-.429.418h-33.17a.40289.40289,0,0,1-.416-.418v-8.913a.40265.40265,0,0,1,.416-.417m16.41361,5.36551c-.058-.085-.116-.064-.162,0l-.531.92a.219.219,0,0,1-.297.078l-.034-.026a.19868.19868,0,0,1-.078-.286l.506-.881c.077-.122.038-.193-.097-.187h-1.031a.2079.2079,0,0,1-.213-.214v-.039a.20913.20913,0,0,1,.213-.221h1.024c.09,0,.227,0,.097-.173l-.505-.889a.20515.20515,0,0,1,.084-.298l.034-.026a.20863.20863,0,0,1,.29.085l.525.932c.071.09.129.065.175-.005l.538-.927a.19139.19139,0,0,1,.285-.078l.044.011a.21155.21155,0,0,1,.071.306l-.511.895c-.038.078-.071.155.084.167h1.051a.20912.20912,0,0,1,.213.221v.039a.20789.20789,0,0,1-.213.214h-1.063c-.084,0-.143.077-.078.181l.517.887a.19861.19861,0,0,1-.083.292l-.032.02a.211.211,0,0,1-.291-.078l-.532-.92m6.0782,0c-.059-.085-.117-.064-.162,0l-.531.92a.21879.21879,0,0,1-.297.078l-.033-.026a.19757.19757,0,0,1-.079-.286l.506-.881c.078-.122.039-.193-.097-.187h-1.031a.2093.2093,0,0,1-.214-.214v-.039a.21047.21047,0,0,1,.214-.221h1.025c.09,0,.226,0,.097-.173l-.505-.889a.20381.20381,0,0,1,.084-.298l.033-.026a.21.21,0,0,1,.291.085l.524.932c.071.09.13.065.175-.005l.537-.927a.19241.19241,0,0,1,.286-.078l.044.011a.21155.21155,0,0,1,.071.306l-.51.895c-.039.078-.071.155.084.167h1.05a.2099.2099,0,0,1,.214.221v.039a.20871.20871,0,0,1-.214.214h-1.063c-.084,0-.142.077-.078.181l.517.887a.19827.19827,0,0,1-.084.292l-.031.02a.21268.21268,0,0,1-.292-.078l-.531-.92m6.10941,0c-.059-.085-.117-.064-.162,0l-.531.92a.21879.21879,0,0,1-.297.078l-.033-.026a.19756.19756,0,0,1-.079-.286l.506-.881c.078-.122.039-.193-.097-.187h-1.031a.20849.20849,0,0,1-.213-.214v-.039a.2097.2097,0,0,1,.213-.221h1.025c.09,0,.226,0,.097-.173l-.505-.889a.2038.2038,0,0,1,.084-.298l.033-.026a.21.21,0,0,1,.291.085l.524.932c.072.09.13.065.175-.005l.537-.927a.19241.19241,0,0,1,.286-.078l.044.011a.21154.21154,0,0,1,.071.306l-.51.895c-.039.078-.071.155.084.167h1.05a.20912.20912,0,0,1,.213.221v.039a.2079.2079,0,0,1-.213.214h-1.063c-.084,0-.142.077-.078.181l.517.887a.19861.19861,0,0,1-.083.292l-.032.02a.21267.21267,0,0,1-.292-.078l-.531-.92"/>
  </g>
</svg>