<svg id="Layer_1" data-name="Layer 1" xmlns="http://www.w3.org/2000/svg" xmlns:xlink="http://www.w3.org/1999/xlink" width="110mm" height="220mm" viewBox="0 0 311.81 623.62" data-rating-increment="23.37" data-supplier-model-chars-per-row="15">
  <defs>
    <style>
      #starRating>* {
        visibility: hidden;
      }

      #starRating.starRating0 #zero {
        visibility: visible;        
      }    

      #starRating.starRating1 #one {
        visibility: visible;
      }            

      #starRating.starRating2 #two {
        visibility: visible;
      } 

      #starRating.starRating3 #three {
        visibility: visible;
      }

      #starRating.starRating4 #four {
        visibility: visible;
      }                     

      .cls-1, .cls-12, .cls-14, .cls-16, .cls-24, .cls-3, .cls-4, .cls-44, .cls-46, .cls-8, .cls-9 {
        fill: none;
      }

      .cls-2 {
        clip-path: url(#clip-path);
      }

      .cls-16, .cls-24, .cls-3, .cls-4, .cls-44, .cls-46 {
        stroke: #00aeef;
      }

      .cls-3 {
        stroke-width: 5px;
      }

      .cls-4 {
        stroke-width: 2px;
      }

      .cls-32, .cls-33, .cls-39, .cls-40, .cls-5 {
        fill: #fff;
      }

      .cls-6 {
        clip-path: url(#clip-path-2);
      }

      .cls-45, .cls-7 {
        fill: #00aeef;
      }

      .cls-8 {
        stroke: #fff;
        stroke-width: 3.78px;
      }

      .cls-12, .cls-9 {
        stroke: #44c8f5;
      }

      .cls-9 {
        stroke-linecap: round;
        stroke-linejoin: round;
        stroke-width: 4.32px;
      }

      .cls-10 {
        clip-path: url(#clip-path-4);
      }

      .cls-11 {
        fill: #44c8f5;
      }

      .cls-12 {
        stroke-width: 1.215px;
      }

      .cls-13 {
        fill: #5bcbf5;
      }

      .cls-14 {
        stroke: #231f20;
      }

      .cls-14, .cls-16 {
        stroke-width: 0.318px;
      }

      .cls-15 {
        fill: #00b9f2;
      }

      .cls-17 {
        fill: #abe1fa;
      }

      .cls-18 {
        fill: #6dcff6;
      }

      .cls-19 {
        fill: #d4effc;
      }

      .cls-20 {
        fill: #1b75bc;
      }

      .cls-21 {
        fill: #034ea2;
      }

      .cls-22 {
        fill: #fff200;
      }

      .cls-23 {
        clip-path: url(#clip-path-6);
      }

      .cls-25, .cls-36, .cls-37, .cls-38, .cls-41, .cls-42, .cls-43 {
        fill: #231f20;
      }

      .cls-26 {
        fill: #00a651;
      }

      .cls-27 {
        fill: #50b848;
      }

      .cls-28 {
        fill: #bfd730;
      }

      .cls-29 {
        fill: #fdb913;
      }

      .cls-30 {
        fill: #f37021;
      }

      .cls-31 {
        fill: #ed1c24;
      }

      .cls-32 {
        font-size: 19px;
      }

      .cls-32, .cls-33, .cls-36, .cls-38, .cls-39, .cls-42, .cls-43 {
        font-family: Calibri-Bold, Calibri;
        font-weight: 700;
      }

      .cls-33 {
        font-size: 13px;
      }

      .cls-34 {
        letter-spacing: 0.00999em;
      }

      .cls-35 {
        clip-path: url(#clip-path-8);
      }

      .cls-36 {
        font-size: 24px;
      }

      .cls-37 {
        font-size: 17px;
      }

      .cls-37, .cls-40, .cls-41 {
        font-family: Calibri;
      }

      .cls-38 {
        font-size: 11px;
      }

      .cls-39 {
        font-size: 29px;
      }

      .cls-40 {
        font-size: 18px;
      }

      .cls-41 {
        font-size: 16px;
      }

      .cls-42 {
        font-size: 45px;
      }

      .cls-43 {
        font-size: 25px;
      }

      .cls-44, .cls-46 {
        stroke-miterlimit: 10;
      }

      .cls-44 {
        stroke-width: 0.2px;
      }

      .cls-44, .cls-45, .cls-46 {
        fill-rule: evenodd;
      }

      .cls-46 {
        stroke-width: 0.24602px;
      }
    </style>
    <clipPath id="clip-path">
      <rect class="cls-1" y="-0.00201" width="311.811" height="623.62201"/>
    </clipPath>
    <clipPath id="clip-path-2">
      <rect class="cls-1" x="212.59801" y="490.39099" width="62.36299" height="56.694"/>
    </clipPath>
    <clipPath id="clip-path-4">
      <rect class="cls-1" x="124.725" y="487.55699" width="62.36201" height="56.693"/>
    </clipPath>
    <clipPath id="clip-path-6">
      <rect class="cls-1" x="25.512" y="25.508" width="260.78698" height="51.02502"/>
    </clipPath>
    <clipPath id="clip-path-8">
      <rect class="cls-1" x="24.803" y="145.84003" width="177.87399" height="167.09598"/>
    </clipPath>
  </defs>
  <title>household-refridgerating-appliances</title>
  <g class="cls-2">
    <path class="cls-3" d="M26.5945,16.67108s-9.921,0-9.921,9.921v570.433s0,9.922,9.921,9.922h258.622s9.921,0,9.921-9.922V26.5921s0-9.921-9.921-9.921Z"/>
    <path class="cls-4" d="M39.2677,482.8877s-9.921,0-9.921,9.921v80.205s0,9.921,9.921,9.921h57.528s9.921,0,9.921-9.921v-80.205s0-9.921-9.921-9.921Z"/>
    <path class="cls-4" d="M127.1417,482.8877s-9.921,0-9.921,9.921v80.205s0,9.921,9.921,9.921h57.528s9.921,0,9.921-9.921v-80.205s0-9.921-9.921-9.921Z"/>
    <path class="cls-4" d="M215.0157,482.8877s-9.921,0-9.921,9.921v80.205s0,9.921,9.921,9.921h57.528s9.921,0,9.921-9.921v-80.205s0-9.921-9.921-9.921Z"/>
    <rect class="cls-5" x="212.59801" y="490.39099" width="62.36299" height="56.694"/>
  </g>
  <g class="cls-6">
    <path class="cls-7" d="M237.0117,530.94469q-3.8025-3.393-7.609-6.786h-5.425v-10.844h5.425q3.804-3.3915,7.609-6.784l3.149-2.807v30.028Z"/>
    <path class="cls-8" d="M237.0117,530.94469q-3.8025-3.393-7.609-6.786h-5.425v-10.844h5.425q3.804-3.3915,7.609-6.784l3.149-2.807v30.028Z"/>
    <path class="cls-9" d="M257.33759,497.6364a38.46818,38.46818,0,0,1,.071,42.204m-7.024-36.385a26.44315,26.44315,0,0,1,.085,30.514m-6.786-24.744a14.9216,14.9216,0,0,1,.129,18.925"/>
  </g>
  <g class="cls-2">
    <rect class="cls-5" x="124.725" y="487.55699" width="62.36201" height="56.693"/>
  </g>
  <g class="cls-10">
    <path class="cls-11" d="M174.058,525.0182a.82927.82927,0,0,1,.301,1.159l-.319.517a.87864.87864,0,0,1-1.189.297l-4.631-2.743c-.407-.241-.716-.052-.687.421l.307,4.838a.63537.63537,0,0,1-.79.698l-.326-.062a1.15225,1.15225,0,0,1-.888-1.023l-.273-5.608a1.78834,1.78834,0,0,0-.783-1.298l-7.152-4.227c-.407-.241-.737-.051-.731.422l.099,8.307a1.79084,1.79084,0,0,0,.733,1.328l4.755,3.072a1.1152,1.1152,0,0,1,.417,1.272l-.1.26a.65544.65544,0,0,1-1.021.323l-4-2.688c-.394-.263-.711-.092-.708.382l.047,5.458a.8604.8604,0,0,1-.856.863h-.622a.85742.85742,0,0,1-.854-.863l.045-5.458c.004-.474-.314-.645-.707-.382l-4.001,2.688a.65559.65559,0,0,1-1.021-.323l-.098-.26a1.11333,1.11333,0,0,1,.416-1.272l4.755-3.072a1.7866,1.7866,0,0,0,.732-1.328l.099-8.307c.005-.473-.323-.663-.731-.422l-7.15,4.227a1.78335,1.78335,0,0,0-.784,1.298l-.273,5.608a1.15242,1.15242,0,0,1-.887,1.023l-.327.062a.63607.63607,0,0,1-.791-.698l.307-4.838c.03-.473-.28-.662-.687-.421l-4.63,2.743a.8815.8815,0,0,1-1.191-.297l-.317-.517a.82926.82926,0,0,1,.301-1.159l4.76-2.684c.413-.234.402-.595-.023-.804l-4.359-2.147a.64251.64251,0,0,1-.217-1.038l.165-.196a1.14968,1.14968,0,0,1,1.325-.273l5.077,2.551a1.81232,1.81232,0,0,0,1.519-.039l7.195-4.076a.44609.44609,0,0,0,0-.849l-7.195-4.076a1.80045,1.80045,0,0,0-1.517-.036l-5.08,2.575a1.1457,1.1457,0,0,1-1.324-.27l-.165-.196a.64231.64231,0,0,1,.217-1.038l4.359-2.147c.425-.21.436-.572.023-.804l-4.76-2.685a.83465.83465,0,0,1-.306-1.161l.327-.542a.86787.86787,0,0,1,1.184-.296l4.634,2.766c.407.244.715.055.685-.418l-.307-4.838a.64762.64762,0,0,1,.793-.71l.322.057a1.132,1.132,0,0,1,.889,1.01l.274,5.639a1.78447,1.78447,0,0,0,.784,1.297l7.15,4.227c.408.241.736.051.731-.422l-.099-8.307a1.7866,1.7866,0,0,0-.732-1.328l-4.755-3.072a1.12137,1.12137,0,0,1-.421-1.273l.107-.286a.65091.65091,0,0,1,1.017-.326l4.001,2.689c.393.264.711.092.707-.381l-.045-5.429a.85571.85571,0,0,1,.854-.861h.622a.85868.85868,0,0,1,.856.861l-.047,5.429c-.003.473.314.645.708.381l4-2.689a.65091.65091,0,0,1,1.017.326l.108.286a1.12139,1.12139,0,0,1-.421,1.273l-4.755,3.072a1.79084,1.79084,0,0,0-.733,1.328l-.099,8.307c-.006.473.324.663.731.422l7.152-4.227a1.78642,1.78642,0,0,0,.783-1.297l.273-5.639a1.13311,1.13311,0,0,1,.889-1.01l.321-.057a.64735.64735,0,0,1,.794.71l-.307,4.838c-.029.473.279.662.685.418l4.634-2.766a.86884.86884,0,0,1,1.185.296l.326.542a.83437.83437,0,0,1-.305,1.161l-4.76,2.685c-.413.232-.403.594.022.804l4.36,2.147a.64232.64232,0,0,1,.217,1.038l-.166.196a1.14537,1.14537,0,0,1-1.324.27l-5.079-2.575a1.80262,1.80262,0,0,0-1.518.036l-7.194,4.076a.44575.44575,0,0,0,0,.849l7.194,4.076a1.81232,1.81232,0,0,0,1.519.039l5.077-2.551a1.14936,1.14936,0,0,1,1.325.273l.166.196a.64251.64251,0,0,1-.217,1.038l-4.36,2.147c-.425.209-.435.57-.022.804Z"/>
    <path class="cls-12" d="M174.058,525.0182a.82927.82927,0,0,1,.301,1.159l-.319.517a.87864.87864,0,0,1-1.189.297l-4.631-2.743c-.407-.241-.716-.052-.687.421l.307,4.838a.63537.63537,0,0,1-.79.698l-.326-.062a1.15225,1.15225,0,0,1-.888-1.023l-.273-5.608a1.78834,1.78834,0,0,0-.783-1.298l-7.152-4.227c-.407-.241-.737-.051-.731.422l.099,8.307a1.79084,1.79084,0,0,0,.733,1.328l4.755,3.072a1.1152,1.1152,0,0,1,.417,1.272l-.1.26a.65544.65544,0,0,1-1.021.323l-4-2.688c-.394-.263-.711-.092-.708.382l.047,5.458a.8604.8604,0,0,1-.856.863h-.622a.85742.85742,0,0,1-.854-.863l.045-5.458c.004-.474-.314-.645-.707-.382l-4.001,2.688a.65559.65559,0,0,1-1.021-.323l-.098-.26a1.11333,1.11333,0,0,1,.416-1.272l4.755-3.072a1.7866,1.7866,0,0,0,.732-1.328l.099-8.307c.005-.473-.323-.663-.731-.422l-7.15,4.227a1.78335,1.78335,0,0,0-.784,1.298l-.273,5.608a1.15242,1.15242,0,0,1-.887,1.023l-.327.062a.63607.63607,0,0,1-.791-.698l.307-4.838c.03-.473-.28-.662-.687-.421l-4.63,2.743a.8815.8815,0,0,1-1.191-.297l-.317-.517a.82926.82926,0,0,1,.301-1.159l4.76-2.684c.413-.234.402-.595-.023-.804l-4.359-2.147a.64251.64251,0,0,1-.217-1.038l.165-.196a1.14968,1.14968,0,0,1,1.325-.273l5.077,2.551a1.81232,1.81232,0,0,0,1.519-.039l7.195-4.076a.44609.44609,0,0,0,0-.849l-7.195-4.076a1.80045,1.80045,0,0,0-1.517-.036l-5.08,2.575a1.1457,1.1457,0,0,1-1.324-.27l-.165-.196a.64231.64231,0,0,1,.217-1.038l4.359-2.147c.425-.21.436-.572.023-.804l-4.76-2.685a.83465.83465,0,0,1-.306-1.161l.327-.542a.86787.86787,0,0,1,1.184-.296l4.634,2.766c.407.244.715.055.685-.418l-.307-4.838a.64762.64762,0,0,1,.793-.71l.322.057a1.132,1.132,0,0,1,.889,1.01l.274,5.639a1.78447,1.78447,0,0,0,.784,1.297l7.15,4.227c.408.241.736.051.731-.422l-.099-8.307a1.7866,1.7866,0,0,0-.732-1.328l-4.755-3.072a1.12137,1.12137,0,0,1-.421-1.273l.107-.286a.65091.65091,0,0,1,1.017-.326l4.001,2.689c.393.264.711.092.707-.381l-.045-5.429a.85571.85571,0,0,1,.854-.861h.622a.85868.85868,0,0,1,.856.861l-.047,5.429c-.003.473.314.645.708.381l4-2.689a.65091.65091,0,0,1,1.017.326l.108.286a1.12139,1.12139,0,0,1-.421,1.273l-4.755,3.072a1.79084,1.79084,0,0,0-.733,1.328l-.099,8.307c-.006.473.324.663.731.422l7.152-4.227a1.78642,1.78642,0,0,0,.783-1.297l.273-5.639a1.13311,1.13311,0,0,1,.889-1.01l.321-.057a.64735.64735,0,0,1,.794.71l-.307,4.838c-.029.473.279.662.685.418l4.634-2.766a.86884.86884,0,0,1,1.185.296l.326.542a.83437.83437,0,0,1-.305,1.161l-4.76,2.685c-.413.232-.403.594.022.804l4.36,2.147a.64232.64232,0,0,1,.217,1.038l-.166.196a1.14537,1.14537,0,0,1-1.324.27l-5.079-2.575a1.80262,1.80262,0,0,0-1.518.036l-7.194,4.076a.44575.44575,0,0,0,0,.849l7.194,4.076a1.81232,1.81232,0,0,0,1.519.039l5.077-2.551a1.14936,1.14936,0,0,1,1.325.273l.166.196a.64251.64251,0,0,1-.217,1.038l-4.36,2.147c-.425.209-.435.57-.022.804Z"/>
  </g>
  <g class="cls-2">
    <rect class="cls-5" x="55.877" y="490.392" width="24.308" height="49.936"/>
    <polygon class="cls-13" points="68.232 495.578 73.931 495.078 79.23 499.578 78.13 500.977 63.432 502.777 68.232 495.578"/>
    <polygon class="cls-14" points="68.232 495.578 73.931 495.078 79.23 499.578 78.13 500.977 63.432 502.777 68.232 495.578"/>
    <polygon class="cls-15" points="73.031 494.178 79.23 499.577 71.431 495.978 63.632 492.978 73.031 494.178"/>
    <polygon class="cls-16" points="73.031 494.178 79.23 499.577 71.431 495.978 63.632 492.978 73.031 494.178"/>
    <polygon class="cls-17" points="79.23 535.773 79.23 499.577 67.232 500.927 67.232 539.373 79.23 535.773"/>
    <polygon class="cls-16" points="79.23 535.773 79.23 499.577 67.232 500.927 67.232 539.373 79.23 535.773"/>
    <polygon class="cls-18" points="67.232 539.373 67.232 500.927 56.833 499.378 56.833 535.773 67.232 539.373"/>
    <polygon class="cls-16" points="67.232 539.373 67.232 500.927 56.833 499.378 56.833 535.773 67.232 539.373"/>
    <polygon class="cls-19" points="73.031 494.178 67.232 500.927 56.833 499.377 63.632 492.978 73.031 494.178"/>
    <polygon class="cls-16" points="73.031 494.178 67.232 500.927 56.833 499.377 63.632 492.978 73.031 494.178"/>
    <polygon class="cls-5" points="73.031 494.178 73.031 491.978 63.632 491.028 63.632 492.978 73.031 494.178"/>
    <polygon class="cls-16" points="73.031 494.178 73.031 491.978 63.632 491.028 63.632 492.978 73.031 494.178"/>
    <polygon class="cls-20" points="70.711 514.143 70.683 514.149 69.016 515.355 68.722 514.106 70.935 512.531 72.378 512.222 72.378 521.368 70.711 521.737 70.711 514.143"/>
    <polygon class="cls-20" points="74.89 514.789 75.665 514.621 75.665 519.988 78.233 519.421 78.233 520.072 74.89 520.812 74.89 514.789"/>
    <rect class="cls-21" x="25.532" y="25.646" width="76.082" height="50.815"/>
    <rect class="cls-7" x="104.131" y="25.646" width="182.16801" height="50.815"/>
    <polygon class="cls-22" points="79.294 42.587 80.929 41.399 78.908 41.399 78.283 39.476 77.658 41.399 75.636 41.399 77.272 42.587 76.647 44.51 78.283 43.321 79.918 44.51 79.294 42.587"/>
    <polygon class="cls-22" points="72.927 36.49 74.562 35.302 72.541 35.302 71.916 33.379 71.291 35.302 69.27 35.302 70.905 36.49 70.28 38.413 71.916 37.224 73.552 38.413 72.927 36.49"/>
    <polygon class="cls-22" points="64.713 34.309 66.349 33.121 64.327 33.121 63.702 31.198 63.077 33.121 61.055 33.121 62.691 34.309 62.067 36.232 63.702 35.044 65.338 36.232 64.713 34.309"/>
    <polygon class="cls-22" points="56.064 36.49 57.699 35.302 55.678 35.302 55.053 33.379 54.428 35.302 52.406 35.302 54.042 36.49 53.417 38.413 55.053 37.224 56.689 38.413 56.064 36.49"/>
    <polygon class="cls-22" points="49.885 42.886 51.521 41.698 49.499 41.698 48.874 39.775 48.249 41.698 46.227 41.698 47.863 42.886 47.239 44.809 48.874 43.621 50.51 44.809 49.885 42.886"/>
    <polygon class="cls-22" points="47.912 51.29 49.548 50.102 47.526 50.102 46.901 48.179 46.276 50.102 44.254 50.102 45.89 51.29 45.265 53.213 46.901 52.024 48.537 53.213 47.912 51.29"/>
    <polygon class="cls-22" points="49.947 59.804 51.583 58.616 49.561 58.616 48.936 56.693 48.311 58.616 46.289 58.616 47.925 59.804 47.301 61.727 48.936 60.539 50.572 61.727 49.947 59.804"/>
    <polygon class="cls-22" points="56.064 65.855 57.699 64.666 55.678 64.666 55.053 62.744 54.428 64.666 52.406 64.666 54.042 65.855 53.417 67.778 55.053 66.589 56.689 67.777 56.064 65.855"/>
    <polygon class="cls-22" points="64.713 68.109 66.348 66.92 64.326 66.92 63.702 64.998 63.077 66.92 61.055 66.92 62.691 68.109 62.066 70.032 63.702 68.843 65.338 70.032 64.713 68.109"/>
    <polygon class="cls-22" points="73.129 65.824 74.765 64.635 72.742 64.635 72.118 62.713 71.493 64.635 69.471 64.635 71.107 65.824 70.483 67.747 72.118 66.559 73.753 67.747 73.129 65.824"/>
    <polygon class="cls-22" points="79.251 59.75 80.886 58.562 78.865 58.562 78.24 56.639 77.615 58.562 75.594 58.562 77.229 59.75 76.604 61.673 78.24 60.484 79.876 61.673 79.251 59.75"/>
    <polygon class="cls-22" points="81.504 51.172 83.139 49.984 81.118 49.984 80.493 48.061 79.869 49.984 77.846 49.984 79.482 51.172 78.857 53.095 80.493 51.906 82.128 53.095 81.504 51.172"/>
    <polygon class="cls-5" points="126.197 46.386 118.035 46.386 118.035 52.748 127.161 52.748 127.161 55.994 114.083 55.994 114.083 34.336 126.679 34.336 126.679 37.582 118.035 37.582 118.035 43.173 126.197 43.173 126.197 46.386"/>
  </g>
  <g class="cls-23">
    <path class="cls-5" d="M132.2375,55.9939v-21.658h4.499l5.591,9.287a59.51523,59.51523,0,0,1,3.695,7.262h.064c-.257-2.892-.353-5.68805-.353-8.997v-7.552h3.663v21.658h-4.081l-5.655-9.543a71.48873,71.48873,0,0,1-3.888-7.455l-.097.032c.161,2.795.193,5.655.193,9.222v7.744Z"/>
    <polygon class="cls-5" points="167.68 46.386 159.518 46.386 159.518 52.748 168.643 52.748 168.643 55.994 155.565 55.994 155.565 34.336 168.161 34.336 168.161 37.582 159.518 37.582 159.518 43.173 167.68 43.173 167.68 46.386"/>
    <path class="cls-5" d="M173.71959,34.62518a37.54578,37.54578,0,0,1,5.977-.45c3.117,0,5.238.515,6.684,1.736a5.48013,5.48013,0,0,1,1.864,4.338,5.77678,5.77678,0,0,1-3.92,5.43v.096c1.542.579,2.473,2.089,3.02,4.178a43.27412,43.27412,0,0,0,1.703,6.041h-4.081a30.58216,30.58216,0,0,1-1.446-5.11c-.61-2.827-1.639-3.727-3.888-3.791h-1.992v8.901h-3.921Zm3.921,9.576h2.346c2.666,0,4.338-1.41394,4.338-3.56695,0-2.378-1.672-3.47-4.242-3.47a11.31682,11.31682,0,0,0-2.442.193Z"/>
    <path class="cls-5" d="M210.9615,54.99768a21.45709,21.45709,0,0,1-6.973,1.221c-3.663,0-6.427-.932-8.483-2.892a10.72671,10.72671,0,0,1-3.02-7.969c0-6.844,4.884-11.246,12.05-11.246a14.37,14.37,0,0,1,5.751,1.028l-.868,3.181a11.66194,11.66194,0,0,0-4.916-.932c-4.627,0-7.872,2.732-7.872,7.776,0,4.917,3.02,7.841,7.519,7.841a7.57463,7.57463,0,0,0,2.988-.45v-5.398h-3.824v-3.117h7.648Z"/>
    <path class="cls-5" d="M113.6934,64.8288c.037,1.012.89,1.449,1.855,1.449a4.83772,4.83772,0,0,0,1.669-.253l.223.977a6.01689,6.01689,0,0,1-2.103.357c-1.954,0-3.104-1.127-3.104-2.841a2.85917,2.85917,0,0,1,2.943-3.013,2.49307,2.49307,0,0,1,2.597,2.726,3.22788,3.22788,0,0,1-.049.598Zm2.646-.989a1.23014,1.23014,0,0,0-1.249-1.368,1.42857,1.42857,0,0,0-1.397,1.368Z"/>
    <polygon class="cls-5" points="120.567 61.632 120.567 63.771 122.892 63.771 122.892 61.632 124.413 61.632 124.413 67.232 122.892 67.232 122.892 64.875 120.567 64.875 120.567 67.232 119.046 67.232 119.046 61.632 120.567 61.632"/>
    <path class="cls-5" d="M127.1693,64.8288c.037,1.012.89,1.449,1.855,1.449a4.82965,4.82965,0,0,0,1.669-.253l.223.977a6.01514,6.01514,0,0,1-2.102.357c-1.954,0-3.104-1.127-3.104-2.841a2.85859,2.85859,0,0,1,2.943-3.013,2.49363,2.49363,0,0,1,2.597,2.726,3.20883,3.20883,0,0,1-.05.598Zm2.646-.989a1.22956,1.22956,0,0,0-1.249-1.368,1.42858,1.42858,0,0,0-1.397,1.368Z"/>
    <path class="cls-5" d="M132.53479,63.49432c0-.736-.025-1.333-.049-1.863h1.335l.074.863h.025a2.40057,2.40057,0,0,1,2.065-.989,2.61274,2.61274,0,0,1,2.535,2.852,2.747,2.747,0,0,1-2.745,3.001,2.03428,2.03428,0,0,1-1.694-.747h-.025v2.897h-1.521Zm1.521,1.392a1.35111,1.35111,0,0,0,1.385,1.38c.964,0,1.533-.74695,1.533-1.851,0-.99005-.519-1.795-1.496-1.795a1.39567,1.39567,0,0,0-1.36,1.047,1.20207,1.20207,0,0,0-.062.357Z"/>
    <polygon class="cls-5" points="143.799 61.632 143.799 62.747 141.338 62.747 141.338 67.232 139.817 67.232 139.817 61.632 143.799 61.632"/>
    <path class="cls-5" d="M146.2215,61.63177v2.013c0,.885-.037,1.483-.087,2.265h.038c.321-.656.507-1.07.816-1.656l1.484-2.622h1.842v5.6h-1.447v-2.001c0-.89605.037-1.31.099-2.369h-.049c-.297.668-.495,1.07-.792,1.611-.47.827-1.014,1.83905-1.533,2.759h-1.818v-5.6Z"/>
    <path class="cls-5" d="M156.94128,67.23181h-1.509v-2.219h-.569a1.22458,1.22458,0,0,0-.927.368,3.56671,3.56671,0,0,0-.742,1.39105,4.00253,4.00253,0,0,1-.235.46h-1.632a2.88412,2.88412,0,0,0,.371-.621,4.69753,4.69753,0,0,1,.902-1.61,1.45775,1.45775,0,0,1,.718-.379v-.035c-.718-.069-1.571-.505-1.571-1.379a1.41136,1.41136,0,0,1,.927-1.3,5.25585,5.25585,0,0,1,2.128-.356,17.40325,17.40325,0,0,1,2.139.126Zm-1.509-4.726a4.35249,4.35249,0,0,0-.754-.057c-.668,0-1.348.218-1.348.839,0,.586.754.839,1.348.839.358,0,.556,0,.754-.011Z"/>
    <path class="cls-5" d="M161.8734,65.13928a.88282.88282,0,0,1-.927-.909.89253.89253,0,0,1,.939-.908.909.909,0,1,1,0,1.81695Z"/>
    <path class="cls-5" d="M167.86929,64.2193c-.717-.184-1.113-.621-1.113-1.173,0-.759.816-1.541,2.535-1.541a3.81861,3.81861,0,0,1,1.93.425l-.285.909a3.42741,3.42741,0,0,0-1.459-.334c-.73,0-1.188.277-1.188.667,0,.449.607.63306,1.509.64405h.656v.943h-.668c-.965.012-1.694.196-1.694.736,0,.529.655.805,1.397.805a4.304,4.304,0,0,0,1.694-.391l.223.94306a4.91277,4.91277,0,0,1-2.288.506c-1.274,0-2.646-.448-2.646-1.713a1.52822,1.52822,0,0,1,1.397-1.38Z"/>
    <path class="cls-5" d="M173.4079,61.63177l.965,2.841c.173.494.284.943.433,1.425h.049a9.55448,9.55448,0,0,0,1.261-3.783v-.483h1.422a2.26136,2.26136,0,0,1,.038.425c0,1.588-1.089,3.462-2.189,5.175h-1.472l-2.139-5.6Z"/>
    <path class="cls-5" d="M179.6514,64.2193c-.717-.184-1.113-.621-1.113-1.173,0-.759.816-1.541,2.535-1.541a3.81865,3.81865,0,0,1,1.93.425l-.285.909a3.42737,3.42737,0,0,0-1.459-.334c-.73,0-1.188.277-1.188.667,0,.449.607.63306,1.509.64405h.656v.943h-.668c-.965.012-1.694.196-1.694.736,0,.529.655.805,1.397.805a4.30394,4.30394,0,0,0,1.694-.391l.223.94306a4.91281,4.91281,0,0,1-2.288.506c-1.274,0-2.646-.448-2.646-1.713a1.52823,1.52823,0,0,1,1.397-1.38Z"/>
    <path class="cls-5" d="M185.73421,66.69183v.793a14.13911,14.13911,0,0,0,.087,2.024h-1.472a9.67622,9.67622,0,0,1-.136-2.001v-2.564a3.1471,3.1471,0,0,1,1.026-2.702,3.007,3.007,0,0,1,2.053-.737,2.71758,2.71758,0,0,1,2.881,2.876,2.77343,2.77343,0,0,1-2.782,2.978,2.01279,2.01279,0,0,1-1.632-.667Zm0-1.679a1.76094,1.76094,0,0,0,.037.368,1.40381,1.40381,0,0,0,1.335.886c.965,0,1.521-.794,1.521-1.852,0-.989-.531-1.748-1.434-1.748-.767,0-1.459.621-1.459,1.909Z"/>
    <path class="cls-5" d="M192.74409,69.50861a11.83457,11.83457,0,0,0-.21-3.231,15.11521,15.11521,0,0,0-2.102-4.646h1.706a13.00042,13.00042,0,0,1,1.608,4.071h.05a8.7037,8.7037,0,0,0,1.137-3.622c0-.218-.012-.334-.012-.449h1.447a2.21377,2.21377,0,0,1,.024.415,9.52174,9.52174,0,0,1-2.127,4.932.45206.45206,0,0,0-.074.276c.025.564.025,1.483.037,2.254Z"/>
    <path class="cls-5" d="M198.44341,64.2193c-.717-.184-1.113-.621-1.113-1.173,0-.759.816-1.541,2.535-1.541a3.812,3.812,0,0,1,1.929.425l-.284.909a3.43118,3.43118,0,0,0-1.459-.334c-.73,0-1.188.277-1.188.667,0,.449.607.63306,1.509.64405h.656v.943h-.668c-.965.012-1.694.196-1.694.736,0,.529.655.805,1.397.805a4.304,4.304,0,0,0,1.694-.391l.223.94306a4.91848,4.91848,0,0,1-2.288.506c-1.274,0-2.646-.448-2.646-1.713a1.52822,1.52822,0,0,1,1.397-1.38Z"/>
    <path class="cls-5" d="M204.57629,65.6568c0,.46.148.644.569.621l-.087.989a2.01546,2.01546,0,0,1-.655.092c-.816,0-1.36-.322-1.36-1.564v-4.163h1.533Z"/>
    <path class="cls-5" d="M211.84679,61.63135c-.074.76-.173,2.484-.173,3.818,0,.633.21.851.581.84l-.099,1a1.9157,1.9157,0,0,1-.531.069,1.11716,1.11716,0,0,1-1.175-1.092h-.037a2.24738,2.24738,0,0,1-1.991,1.092,2.55146,2.55146,0,0,1-2.486-2.817,2.86407,2.86407,0,0,1,2.721-3.036,1.86878,1.86878,0,0,1,1.731.977h.05a8.53,8.53,0,0,1,.135-.851Zm-4.365,2.864c0,.943.519,1.736,1.348,1.736a1.50983,1.50983,0,0,0,1.335-1.207,3.65854,3.65854,0,0,0,.05-.656,2.27978,2.27978,0,0,0-.038-.529,1.37883,1.37883,0,0,0-1.273-1.241c-.853,0-1.422.839-1.422,1.885Z"/>
    <path class="cls-5" d="M219.1864,38.9328a11.026,11.026,0,1,1,11.027,11.025,11.02617,11.02617,0,0,1-11.027-11.025"/>
    <path class="cls-7" d="M229.4613,43.06561v-3.801l-2.882-5.316h1.894l1.096,2.34c.311.676.541,1.19.785,1.812h.027c.23-.581.487-1.149.798-1.812l1.095-2.34h1.881l-3.03,5.275v3.842Z"/>
    <path class="cls-5" d="M244.55409,38.9328a11.026,11.026,0,1,1,11.026,11.025,11.026,11.026,0,0,1-11.026-11.025"/>
    <path class="cls-5" d="M219.1864,63.38147a11.026,11.026,0,1,1,11.027,11.026,11.0268,11.0268,0,0,1-11.027-11.026"/>
    <rect class="cls-7" x="226.01199" y="58.39703" width="1.664" height="9.11798"/>
    <polygon class="cls-7" points="234.683 63.47 231.247 63.47 231.247 66.148 235.09 66.148 235.09 67.515 229.584 67.515 229.584 58.397 234.886 58.397 234.886 59.764 231.247 59.764 231.247 62.117 234.683 62.117 234.683 63.47"/>
    <path class="cls-5" d="M244.55409,63.38147a11.026,11.026,0,1,1,11.026,11.026,11.02658,11.02658,0,0,1-11.026-11.026"/>
    <rect class="cls-7" x="247.909" y="33.94897" width="1.664" height="9.117"/>
    <path class="cls-7" d="M253.2932,33.94818h1.664v5.911c0,2.516-1.218,3.355-3.03,3.355a4.43577,4.43577,0,0,1-1.393-.216l.202-1.339a3.651,3.651,0,0,0,1.029.162c.947,0,1.528-.43305,1.528-2.016Z"/>
    <path class="cls-7" d="M258.61008,40.48193l-.785,2.584h-1.717l2.922-9.118h2.124l2.962,9.118h-1.786l-.825-2.584Zm2.611-1.258-.717-2.246c-.176-.554-.325-1.176-.46-1.704h-.027c-.135.52795-.27,1.163-.433,1.704l-.704,2.246Z"/>
    <rect class="cls-7" x="250.561" y="58.39801" width="1.664" height="9.117"/>
    <path class="cls-7" d="M255.9586,64.93176l-.785,2.58295h-1.717l2.922-9.11694h2.123l2.963,9.11694h-1.786l-.825-2.58295Zm2.611-1.258-.717-2.246c-.176-.555-.325-1.177-.46-1.704h-.027c-.135.527-.271,1.163-.433,1.704l-.704,2.246Z"/>
  </g>
  <g class="cls-2">
    <line class="cls-24" x1="24.8031" y1="126.63971" x2="287.00809" y2="126.63971"/>
    <path class="cls-25" d="M150.9957,434.32451a.13251.13251,0,0,0-.022-.075.1354.1354,0,0,0-.075-.051.77225.77225,0,0,0-.142-.033,1.53709,1.53709,0,0,0-.223-.013,1.43074,1.43074,0,0,0-.212.013.81257.81257,0,0,0-.145.033.15356.15356,0,0,0-.081.051.12015.12015,0,0,0-.024.075v6.671a.1367.1367,0,0,0,.021.075.154.154,0,0,0,.076.051.84784.84784,0,0,0,.145.032,1.758,1.758,0,0,0,.443,0,.87313.87313,0,0,0,.142-.032.14619.14619,0,0,0,.075-.051.13737.13737,0,0,0,.022-.075Zm-2.67.542a.38092.38092,0,0,0-.096-.161,1.47569,1.47569,0,0,0-.256-.18,2.52819,2.52819,0,0,0-.456-.204,4.80117,4.80117,0,0,0-.62-.164,3.85181,3.85181,0,0,0-.747-.07,3.68083,3.68083,0,0,0-1.41.261,3.14164,3.14164,0,0,0-1.09.733,3.28374,3.28374,0,0,0-.704,1.144,4.285,4.285,0,0,0-.25,1.499,4.24226,4.24226,0,0,0,.231,1.439,3.1105,3.1105,0,0,0,.669,1.107,2.92664,2.92664,0,0,0,1.072.711,3.88725,3.88725,0,0,0,1.439.25,4.45026,4.45026,0,0,0,1.063-.129,4.66083,4.66083,0,0,0,.511-.156,4.22816,4.22816,0,0,0,.403-.169.4287.4287,0,0,0,.204-.18.56172.56172,0,0,0,.048-.242v-2.647a.50464.50464,0,0,0-.027-.172.28965.28965,0,0,0-.075-.119.3286.3286,0,0,0-.108-.064.3454.3454,0,0,0-.118-.021h-2.207a.1478.1478,0,0,0-.081.021.18152.18152,0,0,0-.056.067.37517.37517,0,0,0-.035.118,1.24691,1.24691,0,0,0-.011.175.66094.66094,0,0,0,.046.285.14678.14678,0,0,0,.137.091h1.611v2.025a2.40552,2.40552,0,0,1-.615.233,2.8312,2.8312,0,0,1-.652.078,2.664,2.664,0,0,1-.997-.182,2.1425,2.1425,0,0,1-.781-.537,2.50918,2.50918,0,0,1-.513-.871,3.76686,3.76686,0,0,1-.016-2.288,2.56576,2.56576,0,0,1,.486-.88,2.21842,2.21842,0,0,1,.773-.581,2.45369,2.45369,0,0,1,1.031-.209,3.02485,3.02485,0,0,1,.836.102,3.72045,3.72045,0,0,1,.604.226,3.43764,3.43764,0,0,1,.403.225.48525.48525,0,0,0,.215.102.1218.1218,0,0,0,.069-.021.15719.15719,0,0,0,.054-.073.52617.52617,0,0,0,.032-.129,1.35712,1.35712,0,0,0,.011-.18.98284.98284,0,0,0-.027-.263m-7.903,1.714a.973.973,0,0,1-.261.373,1.24,1.24,0,0,1-.443.247,2.00529,2.00529,0,0,1-.631.089h-.902v-2.342h.778c.183,0,.331.005.444.016a1.78787,1.78787,0,0,1,.303.054,1.02786,1.02786,0,0,1,.612.405,1.24082,1.24082,0,0,1,.183.69,1.29729,1.29729,0,0,1-.083.468m1.453,4.294c-.015-.052-.047-.143-.097-.271l-.623-1.531c-.072-.176-.143-.333-.215-.473a2.60943,2.60943,0,0,0-.228-.37,1.61379,1.61379,0,0,0-.261-.277,1.31171,1.31171,0,0,0-.311-.191,2.6915,2.6915,0,0,0,.553-.263,1.77594,1.77594,0,0,0,.424-.368,1.49481,1.49481,0,0,0,.271-.489,1.92709,1.92709,0,0,0,.094-.625,1.96573,1.96573,0,0,0-.104-.658,1.548,1.548,0,0,0-.314-.529,1.70652,1.70652,0,0,0-.519-.382,2.68524,2.68524,0,0,0-.711-.22c-.094-.011-.198-.021-.315-.029-.116-.009-.262-.014-.437-.014h-1.477a.38256.38256,0,0,0-.234.083.34431.34431,0,0,0-.11.293v6.435a.13661.13661,0,0,0,.021.075.15536.15536,0,0,0,.075.051.88835.88835,0,0,0,.143.032,1.50787,1.50787,0,0,0,.223.014,1.52754,1.52754,0,0,0,.223-.014.78235.78235,0,0,0,.139-.032.16575.16575,0,0,0,.075-.051.11891.11891,0,0,0,.025-.075v-2.96h.617a1.42259,1.42259,0,0,1,.543.094,1.20135,1.20135,0,0,1,.392.263,1.63449,1.63449,0,0,1,.287.403q.1215.234.234.513l.639,1.638a.417.417,0,0,0,.051.108.19909.19909,0,0,0,.083.067.50584.50584,0,0,0,.143.035,1.98938,1.98938,0,0,0,.228.011,2.49528,2.49528,0,0,0,.258-.011.611.611,0,0,0,.15-.032.1316.1316,0,0,0,.07-.054.16529.16529,0,0,0,.016-.075.50033.50033,0,0,0-.021-.121m-6.129-.301a.34175.34175,0,0,0-.037-.118.1846.1846,0,0,0-.062-.067.144.144,0,0,0-.078-.022h-2.755v-2.487h2.331a.16508.16508,0,0,0,.077-.018.15612.15612,0,0,0,.06-.062.33642.33642,0,0,0,.034-.113,1.00255,1.00255,0,0,0,.011-.166,1.16227,1.16227,0,0,0-.011-.178.34687.34687,0,0,0-.034-.118.19636.19636,0,0,0-.06-.067.13249.13249,0,0,0-.077-.024h-2.331v-2.181h2.717a.14694.14694,0,0,0,.078-.021.16558.16558,0,0,0,.057-.067.52076.52076,0,0,0,.034-.119.92142.92142,0,0,0,.014-.169,1.01168,1.01168,0,0,0-.014-.18.59208.59208,0,0,0-.034-.121.154.154,0,0,0-.057-.069.13927.13927,0,0,0-.078-.022h-3.298a.38193.38193,0,0,0-.233.083.34431.34431,0,0,0-.11.293v6.198a.343.343,0,0,0,.11.293.37576.37576,0,0,0,.233.083h3.336a.15229.15229,0,0,0,.078-.021.18768.18768,0,0,0,.062-.07.37536.37536,0,0,0,.037-.121,1.1893,1.1893,0,0,0,.011-.169,1.27392,1.27392,0,0,0-.011-.18m-5.704-6.233a.122.122,0,0,0-.023-.07.18289.18289,0,0,0-.073-.056.47273.47273,0,0,0-.142-.035,1.8992,1.8992,0,0,0-.215-.011,2.00747,2.00747,0,0,0-.23.011.49783.49783,0,0,0-.142.035.18123.18123,0,0,0-.076.056.122.122,0,0,0-.023.07v3.77q0,.42451.003.884c.002.306.006.601.013.883h-.005q-.12452-.252-.252-.502c-.085-.166-.17-.335-.257-.507q-.129-.258-.27-.524-.1395-.2655-.29-.545l-1.63-3.051a2.46707,2.46707,0,0,0-.169-.277.77587.77587,0,0,0-.166-.171.55451.55451,0,0,0-.194-.089,1.13913,1.13913,0,0,0-.269-.027h-.455a.439.439,0,0,0-.266.091.35973.35973,0,0,0-.122.307v6.413a.13048.13048,0,0,0,.023.072.14484.14484,0,0,0,.073.054.8045.8045,0,0,0,.139.032,1.79773,1.79773,0,0,0,.448,0,.87313.87313,0,0,0,.142-.032.14521.14521,0,0,0,.076-.054.13048.13048,0,0,0,.023-.072v-4.195q0-.3975-.005-.8c-.004-.269-.009-.532-.017-.79h.011q.1455.3165.315.653.168.33448.335.641l2.12,3.954a2.8068,2.8068,0,0,0,.206.343,1.0463,1.0463,0,0,0,.195.212.56394.56394,0,0,0,.205.108,1.00079,1.00079,0,0,0,.253.029h.305a.514.514,0,0,0,.145-.021.35754.35754,0,0,0,.225-.193.42353.42353,0,0,0,.036-.183Zm-6.768,6.233a.32167.32167,0,0,0-.037-.118.18454.18454,0,0,0-.062-.067.13924.13924,0,0,0-.078-.022h-2.755v-2.487h2.331a.16912.16912,0,0,0,.078-.018.15416.15416,0,0,0,.059-.062.33485.33485,0,0,0,.035-.113,1.13694,1.13694,0,0,0,.01-.166,1.31873,1.31873,0,0,0-.01-.178.34483.34483,0,0,0-.035-.118.19406.19406,0,0,0-.059-.067.13551.13551,0,0,0-.078-.024h-2.331v-2.181h2.718a.14593.14593,0,0,0,.077-.021.15161.15161,0,0,0,.057-.067.51618.51618,0,0,0,.035-.119.929.929,0,0,0,.013-.169,1.02189,1.02189,0,0,0-.013-.18.5875.5875,0,0,0-.035-.121.14227.14227,0,0,0-.057-.069.13828.13828,0,0,0-.077-.022h-3.298a.38253.38253,0,0,0-.234.083.34717.34717,0,0,0-.11.293v6.198a.34588.34588,0,0,0,.11.293.37639.37639,0,0,0,.234.083h3.335a.14711.14711,0,0,0,.078-.021.18762.18762,0,0,0,.062-.07.35217.35217,0,0,0,.037-.121,1.05671,1.05671,0,0,0,.011-.169,1.13826,1.13826,0,0,0-.011-.18m-8.201-3.07a.62946.62946,0,0,0-.446-.123.6463.6463,0,0,0-.459.126.73677.73677,0,0,0-.126.508.71848.71848,0,0,0,.123.494.62774.62774,0,0,0,.446.123.6463.6463,0,0,0,.459-.126.73548.73548,0,0,0,.126-.507.71978.71978,0,0,0-.123-.495m-4.92,3.07a.321.321,0,0,0-.038-.118.17645.17645,0,0,0-.062-.067.13826.13826,0,0,0-.077-.022h-2.756v-2.487h2.331a.16621.16621,0,0,0,.078-.018.15416.15416,0,0,0,.059-.062.33485.33485,0,0,0,.035-.113,1.12327,1.12327,0,0,0,.011-.166,1.30365,1.30365,0,0,0-.011-.178.34483.34483,0,0,0-.035-.118.19406.19406,0,0,0-.059-.067.13328.13328,0,0,0-.078-.024h-2.331v-2.181h2.718a.14693.14693,0,0,0,.078-.021.15643.15643,0,0,0,.056-.067.471.471,0,0,0,.035-.119.92134.92134,0,0,0,.014-.169,1.01158,1.01158,0,0,0-.014-.18.53117.53117,0,0,0-.035-.121.14636.14636,0,0,0-.056-.069.13926.13926,0,0,0-.078-.022h-3.298a.38193.38193,0,0,0-.233.083.34462.34462,0,0,0-.111.293v6.198a.34334.34334,0,0,0,.111.293.37576.37576,0,0,0,.233.083h3.336a.14611.14611,0,0,0,.077-.021.17949.17949,0,0,0,.062-.07.35157.35157,0,0,0,.038-.121,1.1877,1.1877,0,0,0,.011-.169,1.27223,1.27223,0,0,0-.011-.18m-5.704-6.249a.12531.12531,0,0,0-.022-.075.13542.13542,0,0,0-.075-.051.77225.77225,0,0,0-.142-.033,1.53694,1.53694,0,0,0-.223-.013,1.43089,1.43089,0,0,0-.212.013.83393.83393,0,0,0-.145.033.1536.1536,0,0,0-.081.051.12015.12015,0,0,0-.024.075v6.671a.1367.1367,0,0,0,.021.075.154.154,0,0,0,.076.051.84777.84777,0,0,0,.145.032,1.7579,1.7579,0,0,0,.443,0,.87313.87313,0,0,0,.142-.032.14622.14622,0,0,0,.075-.051.12961.12961,0,0,0,.022-.075Zm-2.67.542a.3809.3809,0,0,0-.096-.161,1.49935,1.49935,0,0,0-.255-.18,2.573,2.573,0,0,0-.457-.204,4.80091,4.80091,0,0,0-.62-.164,3.85163,3.85163,0,0,0-.747-.07,3.68075,3.68075,0,0,0-1.41.261,3.14159,3.14159,0,0,0-1.09.733,3.28389,3.28389,0,0,0-.704,1.144,4.285,4.285,0,0,0-.25,1.499,4.24226,4.24226,0,0,0,.231,1.439,3.11038,3.11038,0,0,0,.669,1.107,2.92652,2.92652,0,0,0,1.072.711,3.88729,3.88729,0,0,0,1.439.25,4.46647,4.46647,0,0,0,1.064-.129,4.70957,4.70957,0,0,0,.51-.156,4.22816,4.22816,0,0,0,.403-.169.42865.42865,0,0,0,.204-.18.56157.56157,0,0,0,.048-.242v-2.647a.50489.50489,0,0,0-.027-.172.28966.28966,0,0,0-.075-.119.33469.33469,0,0,0-.107-.064.35532.35532,0,0,0-.119-.021h-2.207a.14782.14782,0,0,0-.081.021.18171.18171,0,0,0-.056.067.37517.37517,0,0,0-.035.118,1.24691,1.24691,0,0,0-.011.175.66094.66094,0,0,0,.046.285.14678.14678,0,0,0,.137.091h1.611v2.025a2.40552,2.40552,0,0,1-.615.233,2.82472,2.82472,0,0,1-.652.078,2.66406,2.66406,0,0,1-.997-.182,2.14254,2.14254,0,0,1-.781-.537,2.509,2.509,0,0,1-.513-.871,3.78707,3.78707,0,0,1-.016-2.288,2.59921,2.59921,0,0,1,.486-.88,2.21838,2.21838,0,0,1,.773-.581,2.45838,2.45838,0,0,1,1.032-.209,3.02231,3.02231,0,0,1,.835.102,3.72116,3.72116,0,0,1,.604.226,3.35754,3.35754,0,0,1,.403.225.48521.48521,0,0,0,.215.102.12185.12185,0,0,0,.069-.021.15726.15726,0,0,0,.054-.073.52707.52707,0,0,0,.032-.129,1.20634,1.20634,0,0,0,.011-.18.98276.98276,0,0,0-.027-.263m-7.903,1.714a.97285.97285,0,0,1-.261.373,1.24,1.24,0,0,1-.443.247,2.00088,2.00088,0,0,1-.631.089h-.902v-2.342h.779c.182,0,.33.005.443.016a1.77024,1.77024,0,0,1,.303.054,1.02482,1.02482,0,0,1,.612.405,1.2409,1.2409,0,0,1,.183.69,1.29708,1.29708,0,0,1-.083.468m1.453,4.294c-.015-.052-.047-.143-.097-.271l-.623-1.531c-.072-.176-.143-.333-.215-.473a2.60942,2.60942,0,0,0-.228-.37,1.61418,1.61418,0,0,0-.261-.277,1.312,1.312,0,0,0-.311-.191,2.6915,2.6915,0,0,0,.553-.263,1.776,1.776,0,0,0,.424-.368,1.51548,1.51548,0,0,0,.272-.489,2.11936,2.11936,0,0,0-.011-1.283,1.54818,1.54818,0,0,0-.314-.529,1.70639,1.70639,0,0,0-.519-.382,2.685,2.685,0,0,0-.711-.22c-.094-.011-.198-.021-.315-.029-.116-.009-.262-.014-.437-.014h-1.477a.38253.38253,0,0,0-.234.083.34717.34717,0,0,0-.11.293v6.435a.1367.1367,0,0,0,.021.075.154.154,0,0,0,.076.051.84888.84888,0,0,0,.142.032,1.78177,1.78177,0,0,0,.446,0,.7825.7825,0,0,0,.139-.032.17524.17524,0,0,0,.076-.051.1243.1243,0,0,0,.024-.075v-2.96h.617a1.42255,1.42255,0,0,1,.543.094,1.20125,1.20125,0,0,1,.392.263,1.63423,1.63423,0,0,1,.287.403q.1215.234.234.513l.639,1.638a.4173.4173,0,0,0,.051.108.20555.20555,0,0,0,.083.067.50576.50576,0,0,0,.143.035,1.98958,1.98958,0,0,0,.228.011,2.49555,2.49555,0,0,0,.258-.011.611.611,0,0,0,.15-.032.13159.13159,0,0,0,.07-.054.16529.16529,0,0,0,.016-.075.49983.49983,0,0,0-.021-.121m-6.129-.301a.32167.32167,0,0,0-.037-.118.18454.18454,0,0,0-.062-.067.13924.13924,0,0,0-.078-.022h-2.755v-2.487h2.331a.17211.17211,0,0,0,.078-.018.15416.15416,0,0,0,.059-.062.359.359,0,0,0,.035-.113,1.13694,1.13694,0,0,0,.01-.166,1.31873,1.31873,0,0,0-.01-.178.36856.36856,0,0,0-.035-.118.19406.19406,0,0,0-.059-.067.13781.13781,0,0,0-.078-.024h-2.331v-2.181h2.717a.14693.14693,0,0,0,.078-.021.15827.15827,0,0,0,.057-.067.51618.51618,0,0,0,.035-.119,1.0283,1.0283,0,0,0,.013-.169,1.128,1.128,0,0,0-.013-.18.5875.5875,0,0,0-.035-.121.14789.14789,0,0,0-.057-.069.13926.13926,0,0,0-.078-.022h-3.297a.38253.38253,0,0,0-.234.083.34431.34431,0,0,0-.11.293v6.198a.343.343,0,0,0,.11.293.37639.37639,0,0,0,.234.083h3.335a.14711.14711,0,0,0,.078-.021.18762.18762,0,0,0,.062-.07.35217.35217,0,0,0,.037-.121,1.1877,1.1877,0,0,0,.011-.169,1.27223,1.27223,0,0,0-.011-.18m-5.704-6.233a.11513.11513,0,0,0-.023-.07.18289.18289,0,0,0-.073-.056.47273.47273,0,0,0-.142-.035,1.88623,1.88623,0,0,0-.215-.011,2.00767,2.00767,0,0,0-.23.011.50685.50685,0,0,0-.142.035.18119.18119,0,0,0-.076.056.122.122,0,0,0-.023.07v3.77q0,.42451.003.884c.002.306.006.601.013.883h-.005q-.1245-.252-.252-.502c-.085-.166-.17-.335-.257-.507q-.129-.258-.27-.524-.1395-.2655-.29-.545l-1.63-3.051a2.32745,2.32745,0,0,0-.169-.277.77587.77587,0,0,0-.166-.171.55451.55451,0,0,0-.194-.089,1.13329,1.13329,0,0,0-.269-.027h-.455a.43905.43905,0,0,0-.266.091.35975.35975,0,0,0-.122.307v6.413a.13048.13048,0,0,0,.023.072.14349.14349,0,0,0,.074.054.79.79,0,0,0,.138.032,1.52281,1.52281,0,0,0,.224.014,1.50354,1.50354,0,0,0,.224-.014.87313.87313,0,0,0,.142-.032.14521.14521,0,0,0,.076-.054.13048.13048,0,0,0,.023-.072v-4.195q0-.3975-.005-.8-.006-.40348-.016-.79h.01q.1455.3165.315.653.168.33448.335.641l2.12,3.954a2.9408,2.9408,0,0,0,.206.343,1.0463,1.0463,0,0,0,.195.212.572.572,0,0,0,.205.108,1.00642,1.00642,0,0,0,.253.029h.306a.51244.51244,0,0,0,.144-.021.35755.35755,0,0,0,.225-.193.42353.42353,0,0,0,.036-.183Zm-6.767,6.233a.341.341,0,0,0-.038-.118.18454.18454,0,0,0-.062-.067.13924.13924,0,0,0-.078-.022h-2.755v-2.487h2.331a.16621.16621,0,0,0,.078-.018.15416.15416,0,0,0,.059-.062.33485.33485,0,0,0,.035-.113,1.12327,1.12327,0,0,0,.011-.166,1.30365,1.30365,0,0,0-.011-.178.34483.34483,0,0,0-.035-.118.19406.19406,0,0,0-.059-.067.13328.13328,0,0,0-.078-.024h-2.331v-2.181h2.718a.152.152,0,0,0,.078-.021.15643.15643,0,0,0,.056-.067.51618.51618,0,0,0,.035-.119.929.929,0,0,0,.013-.169,1.02189,1.02189,0,0,0-.013-.18.5875.5875,0,0,0-.035-.121.14636.14636,0,0,0-.056-.069.144.144,0,0,0-.078-.022h-3.298a.38468.38468,0,0,0-.234.083.34717.34717,0,0,0-.11.293v6.198a.34588.34588,0,0,0,.11.293.37846.37846,0,0,0,.234.083h3.335a.14711.14711,0,0,0,.078-.021.18762.18762,0,0,0,.062-.07.37474.37474,0,0,0,.038-.121,1.20044,1.20044,0,0,0,.01-.169,1.29123,1.29123,0,0,0-.01-.18m-8.202-3.07a.62946.62946,0,0,0-.446-.123.6463.6463,0,0,0-.459.126.73677.73677,0,0,0-.126.508.71848.71848,0,0,0,.123.494.62941.62941,0,0,0,.446.123.6463.6463,0,0,0,.459-.126.73548.73548,0,0,0,.126-.507.71978.71978,0,0,0-.123-.495m-4.587-2.991a.77217.77217,0,0,0,.072-.188.10577.10577,0,0,0-.029-.108.29511.29511,0,0,0-.153-.051,2.67408,2.67408,0,0,0-.304-.013,1.85421,1.85421,0,0,0-.231.011.68407.68407,0,0,0-.142.029.17728.17728,0,0,0-.08.057.26853.26853,0,0,0-.046.091l-.967,2.009c-.089.197-.178.396-.265.599-.087.202-.172.405-.253.609h-.011c-.093-.211-.184-.421-.272-.628-.089-.208-.179-.407-.268-.596l-.961-1.999a.44694.44694,0,0,0-.057-.088.1895.1895,0,0,0-.088-.054.88118.88118,0,0,0-.159-.029,2.28869,2.28869,0,0,0-.26-.011,2.64728,2.64728,0,0,0-.282.011.25263.25263,0,0,0-.145.048.10837.10837,0,0,0-.027.107.89478.89478,0,0,0,.072.194l1.966,3.921v2.562a.12961.12961,0,0,0,.022.075.14842.14842,0,0,0,.077.051.95838.95838,0,0,0,.144.032,1.74212,1.74212,0,0,0,.441,0,.87928.87928,0,0,0,.144-.032.15068.15068,0,0,0,.075-.051.1367.1367,0,0,0,.021-.075v-2.562Zm-5.763.354a.37316.37316,0,0,0-.097-.161,1.4194,1.4194,0,0,0-.255-.18,2.573,2.573,0,0,0-.457-.204,4.71535,4.71535,0,0,0-.62-.164,3.85163,3.85163,0,0,0-.747-.07,3.67921,3.67921,0,0,0-1.409.261,3.14567,3.14567,0,0,0-1.091.733,3.2818,3.2818,0,0,0-.703,1.144,4.6085,4.6085,0,0,0-.019,2.938,3.11038,3.11038,0,0,0,.669,1.107,2.92258,2.92258,0,0,0,1.071.711,3.8927,3.8927,0,0,0,1.44.25,4.4665,4.4665,0,0,0,1.063-.129,4.64219,4.64219,0,0,0,.51-.156,4.12009,4.12009,0,0,0,.403-.169.41926.41926,0,0,0,.204-.18.56134.56134,0,0,0,.049-.242v-2.647a.50489.50489,0,0,0-.027-.172.28126.28126,0,0,0-.076-.119.33469.33469,0,0,0-.107-.064.34969.34969,0,0,0-.118-.021h-2.208a.142.142,0,0,0-.08.021.18342.18342,0,0,0-.057.067.40344.40344,0,0,0-.035.118,1.26228,1.26228,0,0,0-.01.175.67926.67926,0,0,0,.045.285.14777.14777,0,0,0,.137.091h1.612v2.025a2.40552,2.40552,0,0,1-.615.233,2.8396,2.8396,0,0,1-.653.078,2.65509,2.65509,0,0,1-.996-.182,2.14627,2.14627,0,0,1-.782-.537,2.54021,2.54021,0,0,1-.513-.871,3.78707,3.78707,0,0,1-.016-2.288,2.59921,2.59921,0,0,1,.486-.88,2.2221,2.2221,0,0,1,.774-.581,2.4537,2.4537,0,0,1,1.031-.209,3.0173,3.0173,0,0,1,.835.102,3.68551,3.68551,0,0,1,.604.226,3.27976,3.27976,0,0,1,.403.225.48521.48521,0,0,0,.215.102.12742.12742,0,0,0,.07-.021.172.172,0,0,0,.054-.073.52707.52707,0,0,0,.032-.129,1.35712,1.35712,0,0,0,.011-.18.98276.98276,0,0,0-.027-.263m-7.904,1.714a.95968.95968,0,0,1-.26.373,1.24,1.24,0,0,1-.443.247,2.00967,2.00967,0,0,1-.631.089h-.903v-2.342h.779c.183,0,.33.005.443.016a1.78273,1.78273,0,0,1,.304.054,1.031,1.031,0,0,1,.612.405,1.24058,1.24058,0,0,1,.182.69,1.276,1.276,0,0,1-.083.468m1.453,4.294a2.8515,2.8515,0,0,0-.097-.271l-.623-1.531c-.071-.176-.143-.333-.214-.473a2.52251,2.52251,0,0,0-.229-.37,1.572,1.572,0,0,0-.26-.277,1.2985,1.2985,0,0,0-.312-.191,2.66691,2.66691,0,0,0,.553-.263,1.7811,1.7811,0,0,0,.425-.368,1.51326,1.51326,0,0,0,.271-.489,1.92682,1.92682,0,0,0,.094-.625,1.96576,1.96576,0,0,0-.105-.658,1.5325,1.5325,0,0,0-.314-.529,1.70177,1.70177,0,0,0-.518-.382,2.681,2.681,0,0,0-.712-.22c-.093-.011-.198-.021-.314-.029-.117-.009-.262-.014-.438-.014h-1.477a.38685.38685,0,0,0-.234.083.34717.34717,0,0,0-.11.293v6.435a.12961.12961,0,0,0,.022.075.14622.14622,0,0,0,.075.051.87313.87313,0,0,0,.142.032,1.78177,1.78177,0,0,0,.446,0,.79679.79679,0,0,0,.14-.032.1658.1658,0,0,0,.075-.051.1243.1243,0,0,0,.024-.075v-2.96h.618a1.4172,1.4172,0,0,1,.542.094,1.1908,1.1908,0,0,1,.392.263,1.66374,1.66374,0,0,1,.288.403q.12.234.233.513l.64,1.638a.4173.4173,0,0,0,.051.108.193.193,0,0,0,.083.067.498.498,0,0,0,.142.035,1.98958,1.98958,0,0,0,.228.011,2.468,2.468,0,0,0,.258-.011.60993.60993,0,0,0,.151-.032.12864.12864,0,0,0,.069-.054.16562.16562,0,0,0,.017-.075.51156.51156,0,0,0-.022-.121m-6.128-.301a.341.341,0,0,0-.038-.118.17645.17645,0,0,0-.062-.067.13924.13924,0,0,0-.078-.022h-2.755v-2.487h2.331a.16621.16621,0,0,0,.078-.018.15416.15416,0,0,0,.059-.062.33485.33485,0,0,0,.035-.113,1.12327,1.12327,0,0,0,.011-.166,1.30365,1.30365,0,0,0-.011-.178.34483.34483,0,0,0-.035-.118.19406.19406,0,0,0-.059-.067.13328.13328,0,0,0-.078-.024h-2.331v-2.181h2.718a.152.152,0,0,0,.078-.021.15643.15643,0,0,0,.056-.067.51618.51618,0,0,0,.035-.119.929.929,0,0,0,.013-.169,1.02189,1.02189,0,0,0-.013-.18.5875.5875,0,0,0-.035-.121.14636.14636,0,0,0-.056-.069.144.144,0,0,0-.078-.022h-3.298a.38685.38685,0,0,0-.234.083.34717.34717,0,0,0-.11.293v6.198a.34588.34588,0,0,0,.11.293.38055.38055,0,0,0,.234.083h3.335a.14711.14711,0,0,0,.078-.021.17949.17949,0,0,0,.062-.07.37474.37474,0,0,0,.038-.121,1.20044,1.20044,0,0,0,.01-.169,1.29123,1.29123,0,0,0-.01-.18m-5.704-6.233a.122.122,0,0,0-.023-.07.18694.18694,0,0,0-.074-.056.46482.46482,0,0,0-.142-.035,1.88623,1.88623,0,0,0-.215-.011,1.98837,1.98837,0,0,0-.229.011.49792.49792,0,0,0-.142.035.19211.19211,0,0,0-.077.056.12083.12083,0,0,0-.022.07v3.77q0,.42451.002.884c.002.306.007.601.014.883h-.006q-.1245-.252-.251-.502-.1275-.249-.257-.507-.1305-.258-.27-.524c-.094-.177-.19-.359-.291-.545l-1.63-3.051a2.32745,2.32745,0,0,0-.169-.277.75422.75422,0,0,0-.166-.171.54639.54639,0,0,0-.194-.089,1.13329,1.13329,0,0,0-.269-.027h-.454a.43905.43905,0,0,0-.266.091.357.357,0,0,0-.122.307v6.413a.12922.12922,0,0,0,.022.072.14779.14779,0,0,0,.074.054.7825.7825,0,0,0,.139.032,1.50354,1.50354,0,0,0,.224.014,1.52281,1.52281,0,0,0,.224-.014.883.883,0,0,0,.141-.032.14818.14818,0,0,0,.077-.054.12922.12922,0,0,0,.022-.072v-4.195c0-.265-.001-.532-.005-.8-.003-.269-.009-.532-.016-.79h.011c.097.211.201.429.314.653.113.223.224.437.335.641l2.121,3.954a2.68687,2.68687,0,0,0,.206.343,1.04425,1.04425,0,0,0,.194.212.576.576,0,0,0,.206.108.99521.99521,0,0,0,.253.029h.305a.52463.52463,0,0,0,.145-.021.3652.3652,0,0,0,.13-.07.3537.3537,0,0,0,.094-.123.42319.42319,0,0,0,.037-.183Zm-6.768,6.233a.32117.32117,0,0,0-.038-.118.18267.18267,0,0,0-.061-.067.14393.14393,0,0,0-.078-.022h-2.756v-2.487h2.331a.16621.16621,0,0,0,.078-.018.14788.14788,0,0,0,.059-.062.31381.31381,0,0,0,.035-.113,1.12327,1.12327,0,0,0,.011-.166,1.30365,1.30365,0,0,0-.011-.178.32405.32405,0,0,0-.035-.118.18444.18444,0,0,0-.059-.067.13328.13328,0,0,0-.078-.024h-2.331v-2.181h2.718a.14693.14693,0,0,0,.078-.021.15643.15643,0,0,0,.056-.067.471.471,0,0,0,.035-.119.92134.92134,0,0,0,.014-.169,1.01158,1.01158,0,0,0-.014-.18.53117.53117,0,0,0-.035-.121.14636.14636,0,0,0-.056-.069.13926.13926,0,0,0-.078-.022h-3.298a.38193.38193,0,0,0-.233.083.34431.34431,0,0,0-.11.293v6.198a.343.343,0,0,0,.11.293.37576.37576,0,0,0,.233.083h3.336a.15222.15222,0,0,0,.078-.021.18592.18592,0,0,0,.061-.07.35179.35179,0,0,0,.038-.121,1.1877,1.1877,0,0,0,.011-.169,1.27223,1.27223,0,0,0-.011-.18"/>
    <path class="cls-25" d="M119.7947,425.57251h-2.417l1.198-3.464h.005Zm-.553-4.221a.29763.29763,0,0,0-.059-.1.24446.24446,0,0,0-.108-.062.83394.83394,0,0,0-.182-.029c-.076-.005-.17-.008-.285-.008-.107,0-.196.003-.266.008a.773.773,0,0,0-.172.029.23791.23791,0,0,0-.102.06.27969.27969,0,0,0-.056.096l-2.331,6.456a.668.668,0,0,0-.046.191.1351.1351,0,0,0,.038.11.256.256,0,0,0,.139.051,1.96219,1.96219,0,0,0,.255.014,2.27626,2.27626,0,0,0,.245-.011.47941.47941,0,0,0,.145-.035.21135.21135,0,0,0,.078-.059.283.283,0,0,0,.043-.083l.569-1.671h2.89l.596,1.692a.3834.3834,0,0,0,.046.081.1658.1658,0,0,0,.075.051.61338.61338,0,0,0,.15.026c.066.006.155.009.266.009a2.628,2.628,0,0,0,.266-.011.25116.25116,0,0,0,.142-.049.12869.12869,0,0,0,.04-.11.64807.64807,0,0,0-.045-.19Zm-4.517-.033a.10669.10669,0,0,0-.025-.069.16944.16944,0,0,0-.075-.054.54592.54592,0,0,0-.142-.032,2.2355,2.2355,0,0,0-.443,0,.57725.57725,0,0,0-.142.032.157.157,0,0,0-.076.054.12181.12181,0,0,0-.021.069v4.974a3.0842,3.0842,0,0,1-.043.567.9209.9209,0,0,1-.129.341.43467.43467,0,0,1-.215.169.94843.94843,0,0,1-.311.046.93088.93088,0,0,1-.29-.041,1.5188,1.5188,0,0,1-.218-.088c-.063-.033-.116-.062-.161-.089a.231.231,0,0,0-.11-.04.13016.13016,0,0,0-.073.019.1566.1566,0,0,0-.051.064.39008.39008,0,0,0-.029.124,1.77879,1.77879,0,0,0-.008.196c0,.064.001.119.005.163a.58638.58638,0,0,0,.019.113.31591.31591,0,0,0,.032.078.45187.45187,0,0,0,.048.065.45874.45874,0,0,0,.121.077,1.54687,1.54687,0,0,0,.215.086,1.79239,1.79239,0,0,0,.271.065,1.86062,1.86062,0,0,0,.298.024,1.82609,1.82609,0,0,0,.739-.132,1.18813,1.18813,0,0,0,.481-.373,1.48875,1.48875,0,0,0,.257-.585,3.49413,3.49413,0,0,0,.076-.758Zm-3.524.006a.132.132,0,0,0-.021-.075.14314.14314,0,0,0-.075-.051.78556.78556,0,0,0-.143-.033,1.52763,1.52763,0,0,0-.223-.013,1.44012,1.44012,0,0,0-.212.013.85637.85637,0,0,0-.145.033.15453.15453,0,0,0-.08.051.1151.1151,0,0,0-.025.075v6.671a.13745.13745,0,0,0,.022.075.14622.14622,0,0,0,.075.051.87066.87066,0,0,0,.145.032,1.7579,1.7579,0,0,0,.443,0,.8886.8886,0,0,0,.143-.032.15541.15541,0,0,0,.075-.051.1367.1367,0,0,0,.021-.075Zm-2.669.542a.37316.37316,0,0,0-.097-.161,1.4194,1.4194,0,0,0-.255-.18,2.573,2.573,0,0,0-.457-.204,4.71535,4.71535,0,0,0-.62-.164,3.85163,3.85163,0,0,0-.747-.07,3.67921,3.67921,0,0,0-1.409.261,3.14567,3.14567,0,0,0-1.091.733,3.2818,3.2818,0,0,0-.703,1.144,4.6084,4.6084,0,0,0-.019,2.938,3.11021,3.11021,0,0,0,.669,1.107,2.92258,2.92258,0,0,0,1.071.711,3.8927,3.8927,0,0,0,1.44.25,4.4665,4.4665,0,0,0,1.063-.129,4.64219,4.64219,0,0,0,.51-.156,4.12009,4.12009,0,0,0,.403-.169.41926.41926,0,0,0,.204-.18.56134.56134,0,0,0,.049-.242v-2.647a.50489.50489,0,0,0-.027-.172.28126.28126,0,0,0-.076-.119.33469.33469,0,0,0-.107-.064.34969.34969,0,0,0-.118-.021h-2.208a.142.142,0,0,0-.08.021.18342.18342,0,0,0-.057.067.40344.40344,0,0,0-.035.118,1.26228,1.26228,0,0,0-.01.175.67926.67926,0,0,0,.045.285.14777.14777,0,0,0,.137.091h1.612v2.025a2.40552,2.40552,0,0,1-.615.233,2.8396,2.8396,0,0,1-.653.078,2.65509,2.65509,0,0,1-.996-.182,2.14627,2.14627,0,0,1-.782-.537,2.54021,2.54021,0,0,1-.513-.871,3.78707,3.78707,0,0,1-.016-2.288,2.59921,2.59921,0,0,1,.486-.88,2.2221,2.2221,0,0,1,.774-.581,2.4537,2.4537,0,0,1,1.031-.209,3.0173,3.0173,0,0,1,.835.102,3.68551,3.68551,0,0,1,.604.226,3.27976,3.27976,0,0,1,.403.225.48521.48521,0,0,0,.215.102.12742.12742,0,0,0,.07-.021.172.172,0,0,0,.054-.073.52707.52707,0,0,0,.032-.129,1.35712,1.35712,0,0,0,.011-.18.98276.98276,0,0,0-.027-.263m-7.904,1.714a.95968.95968,0,0,1-.26.373,1.24,1.24,0,0,1-.443.247,2.00963,2.00963,0,0,1-.631.089h-.903v-2.342h.779c.183,0,.33.005.443.016a1.78273,1.78273,0,0,1,.304.054,1.031,1.031,0,0,1,.612.405,1.24058,1.24058,0,0,1,.182.69,1.276,1.276,0,0,1-.083.468m1.453,4.294a2.8515,2.8515,0,0,0-.097-.271l-.623-1.531c-.071-.176-.143-.333-.214-.473a2.52251,2.52251,0,0,0-.229-.37,1.572,1.572,0,0,0-.26-.277,1.2985,1.2985,0,0,0-.312-.191,2.66691,2.66691,0,0,0,.553-.263,1.7811,1.7811,0,0,0,.425-.368,1.51326,1.51326,0,0,0,.271-.489,1.92682,1.92682,0,0,0,.094-.625,1.96576,1.96576,0,0,0-.105-.658,1.5325,1.5325,0,0,0-.314-.529,1.70177,1.70177,0,0,0-.518-.382,2.681,2.681,0,0,0-.712-.22c-.093-.011-.198-.021-.314-.029-.117-.009-.262-.014-.438-.014h-1.477a.38685.38685,0,0,0-.234.083.34717.34717,0,0,0-.11.293v6.435a.12961.12961,0,0,0,.022.075.14622.14622,0,0,0,.075.051.87313.87313,0,0,0,.142.032,1.78177,1.78177,0,0,0,.446,0,.79679.79679,0,0,0,.14-.032.1658.1658,0,0,0,.075-.051.1243.1243,0,0,0,.024-.075v-2.96h.618a1.41718,1.41718,0,0,1,.542.094,1.1908,1.1908,0,0,1,.392.263,1.66374,1.66374,0,0,1,.288.403q.12.234.233.513l.64,1.638a.4173.4173,0,0,0,.051.108.193.193,0,0,0,.083.067.498.498,0,0,0,.142.035,1.98958,1.98958,0,0,0,.228.011,2.468,2.468,0,0,0,.258-.011.60993.60993,0,0,0,.151-.032.12864.12864,0,0,0,.069-.054.16562.16562,0,0,0,.017-.075.51156.51156,0,0,0-.022-.121m-6.128-.301a.341.341,0,0,0-.038-.118.17645.17645,0,0,0-.062-.067.13924.13924,0,0,0-.078-.022h-2.755v-2.487h2.331a.16621.16621,0,0,0,.078-.018.15416.15416,0,0,0,.059-.062.33485.33485,0,0,0,.035-.113,1.12327,1.12327,0,0,0,.011-.166,1.30365,1.30365,0,0,0-.011-.178.34483.34483,0,0,0-.035-.118.20353.20353,0,0,0-.059-.067.13328.13328,0,0,0-.078-.024h-2.331v-2.181h2.718a.152.152,0,0,0,.078-.021.15643.15643,0,0,0,.056-.067.51618.51618,0,0,0,.035-.119.929.929,0,0,0,.013-.169,1.02189,1.02189,0,0,0-.013-.18.5875.5875,0,0,0-.035-.121.14636.14636,0,0,0-.056-.069.144.144,0,0,0-.078-.022h-3.298a.38685.38685,0,0,0-.234.083.34717.34717,0,0,0-.11.293v6.198a.34588.34588,0,0,0,.11.293.38055.38055,0,0,0,.234.083h3.335a.14711.14711,0,0,0,.078-.021.17949.17949,0,0,0,.062-.07.37474.37474,0,0,0,.038-.121,1.20044,1.20044,0,0,0,.01-.169,1.29123,1.29123,0,0,0-.01-.18m-5.704-6.233a.122.122,0,0,0-.023-.07.18694.18694,0,0,0-.074-.056.46482.46482,0,0,0-.142-.035,1.88623,1.88623,0,0,0-.215-.011,1.98837,1.98837,0,0,0-.229.011.49792.49792,0,0,0-.142.035.19211.19211,0,0,0-.077.056.12083.12083,0,0,0-.022.07v3.77q0,.42451.002.884c.002.306.007.601.014.883h-.006q-.1245-.252-.251-.502-.1275-.249-.257-.507-.1305-.258-.27-.524c-.094-.177-.19-.359-.291-.545l-1.63-3.051a2.32745,2.32745,0,0,0-.169-.277.75422.75422,0,0,0-.166-.171.54639.54639,0,0,0-.194-.089,1.13329,1.13329,0,0,0-.269-.027h-.454a.43905.43905,0,0,0-.266.091.357.357,0,0,0-.122.307v6.413a.12922.12922,0,0,0,.022.072.14779.14779,0,0,0,.074.054.7825.7825,0,0,0,.139.032,1.50354,1.50354,0,0,0,.224.014,1.52281,1.52281,0,0,0,.224-.014.883.883,0,0,0,.141-.032.14818.14818,0,0,0,.077-.054.12922.12922,0,0,0,.022-.072v-4.195c0-.265-.001-.532-.005-.8-.003-.269-.009-.532-.016-.79h.011c.097.211.201.429.314.653.113.223.224.437.335.641l2.121,3.954a2.68687,2.68687,0,0,0,.206.343,1.04425,1.04425,0,0,0,.194.212.576.576,0,0,0,.206.108.99521.99521,0,0,0,.253.029h.305a.52463.52463,0,0,0,.145-.021.3652.3652,0,0,0,.13-.07.3537.3537,0,0,0,.094-.123.42319.42319,0,0,0,.037-.183Zm-6.768,6.233a.32117.32117,0,0,0-.038-.118.18267.18267,0,0,0-.061-.067.14393.14393,0,0,0-.078-.022h-2.756v-2.487h2.331a.16621.16621,0,0,0,.078-.018.14788.14788,0,0,0,.059-.062.31381.31381,0,0,0,.035-.113,1.12327,1.12327,0,0,0,.011-.166,1.30365,1.30365,0,0,0-.011-.178.32405.32405,0,0,0-.035-.118.19292.19292,0,0,0-.059-.067.13328.13328,0,0,0-.078-.024h-2.331v-2.181h2.718a.14693.14693,0,0,0,.078-.021.15643.15643,0,0,0,.056-.067.471.471,0,0,0,.035-.119.92134.92134,0,0,0,.014-.169,1.01158,1.01158,0,0,0-.014-.18.53117.53117,0,0,0-.035-.121.14636.14636,0,0,0-.056-.069.13926.13926,0,0,0-.078-.022h-3.298a.38193.38193,0,0,0-.233.083.34431.34431,0,0,0-.11.293v6.198a.343.343,0,0,0,.11.293.37576.37576,0,0,0,.233.083h3.336a.15222.15222,0,0,0,.078-.021.18592.18592,0,0,0,.061-.07.35179.35179,0,0,0,.038-.121,1.1877,1.1877,0,0,0,.011-.169,1.27223,1.27223,0,0,0-.011-.18m-8.202-3.07a.62658.62658,0,0,0-.445-.123.64752.64752,0,0,0-.46.126.73677.73677,0,0,0-.126.508.71248.71248,0,0,0,.124.494.62652.62652,0,0,0,.445.123.65087.65087,0,0,0,.46-.126.73548.73548,0,0,0,.126-.507.71377.71377,0,0,0-.124-.495m-6.343,1.069h-2.417l1.198-3.464h.005Zm-.553-4.221a.28207.28207,0,0,0-.059-.1.24446.24446,0,0,0-.108-.062.83394.83394,0,0,0-.182-.029c-.075-.005-.17-.008-.285-.008-.107,0-.196.003-.266.008a.773.773,0,0,0-.172.029.2508.2508,0,0,0-.102.06.27969.27969,0,0,0-.056.096l-2.331,6.456a.66762.66762,0,0,0-.046.191.1351.1351,0,0,0,.038.11.256.256,0,0,0,.139.051,1.96806,1.96806,0,0,0,.256.014,2.26905,2.26905,0,0,0,.244-.011.47167.47167,0,0,0,.145-.035.21135.21135,0,0,0,.078-.059.283.283,0,0,0,.043-.083l.569-1.671h2.89l.596,1.692a.43221.43221,0,0,0,.046.081.1658.1658,0,0,0,.075.051.61338.61338,0,0,0,.15.026c.066.006.155.009.266.009a2.628,2.628,0,0,0,.266-.011.24827.24827,0,0,0,.142-.049.13207.13207,0,0,0,.041-.11.65548.65548,0,0,0-.046-.19Zm-4.721-.027a.13258.13258,0,0,0-.022-.075.13542.13542,0,0,0-.075-.051.77225.77225,0,0,0-.142-.033,1.53694,1.53694,0,0,0-.223-.013,1.43089,1.43089,0,0,0-.212.013.83393.83393,0,0,0-.145.033.1536.1536,0,0,0-.081.051.12015.12015,0,0,0-.024.075v6.671a.1367.1367,0,0,0,.021.075.154.154,0,0,0,.076.051.84777.84777,0,0,0,.145.032,1.7579,1.7579,0,0,0,.443,0,.87313.87313,0,0,0,.142-.032.14622.14622,0,0,0,.075-.051.13745.13745,0,0,0,.022-.075Zm-2.439,6.249a.34175.34175,0,0,0-.037-.118.18454.18454,0,0,0-.062-.067.14156.14156,0,0,0-.078-.022h-2.755v-2.487h2.331a.17211.17211,0,0,0,.078-.018.161.161,0,0,0,.059-.062.359.359,0,0,0,.035-.113,1.13694,1.13694,0,0,0,.01-.166,1.31873,1.31873,0,0,0-.01-.178.36856.36856,0,0,0-.035-.118.21543.21543,0,0,0-.059-.067.13781.13781,0,0,0-.078-.024h-2.331v-2.181h2.717a.14693.14693,0,0,0,.078-.021.1655.1655,0,0,0,.057-.067.51618.51618,0,0,0,.035-.119,1.0283,1.0283,0,0,0,.013-.169,1.128,1.128,0,0,0-.013-.18.5875.5875,0,0,0-.035-.121.154.154,0,0,0-.057-.069.13926.13926,0,0,0-.078-.022h-3.298a.38193.38193,0,0,0-.233.083.34431.34431,0,0,0-.11.293v6.198a.343.343,0,0,0,.11.293.37576.37576,0,0,0,.233.083h3.336a.14963.14963,0,0,0,.078-.021.18762.18762,0,0,0,.062-.07.37536.37536,0,0,0,.037-.121,1.1877,1.1877,0,0,0,.011-.169,1.27223,1.27223,0,0,0-.011-.18m-4.818-6.179a.34178.34178,0,0,0-.035-.121.1567.1567,0,0,0-.059-.067.13926.13926,0,0,0-.078-.022h-3.072a.39432.39432,0,0,0-.252.091.37408.37408,0,0,0-.113.307v6.413a.1367.1367,0,0,0,.021.075.154.154,0,0,0,.076.051.84777.84777,0,0,0,.145.032,1.51253,1.51253,0,0,0,.22.014,1.48979,1.48979,0,0,0,.225-.014.8675.8675,0,0,0,.14-.032.14622.14622,0,0,0,.075-.051.12961.12961,0,0,0,.022-.075v-6.043h2.513a.14693.14693,0,0,0,.078-.021.16935.16935,0,0,0,.059-.067.355.355,0,0,0,.035-.121,1.29336,1.29336,0,0,0,.011-.178,1.23815,1.23815,0,0,0-.011-.171m-6.091,2.478a1.24021,1.24021,0,0,1-.284.457,1.31474,1.31474,0,0,1-.465.298,1.92614,1.92614,0,0,1-.695.107h-.833v-2.787h.854a3.2585,3.2585,0,0,1,.486.037,1.323,1.323,0,0,1,.484.178,1.10808,1.10808,0,0,1,.392.424,1.44946,1.44946,0,0,1,.158.709,1.66,1.66,0,0,1-.097.577m.959-1.369a1.77263,1.77263,0,0,0-.314-.572,1.81852,1.81852,0,0,0-.497-.417,2.06186,2.06186,0,0,0-.575-.231,3.91991,3.91991,0,0,0-.488-.08c-.138-.013-.282-.019-.433-.019h-1.487a.395.395,0,0,0-.253.091.37408.37408,0,0,0-.113.307v6.413a.12961.12961,0,0,0,.022.075.14622.14622,0,0,0,.075.051.87313.87313,0,0,0,.142.032,1.78177,1.78177,0,0,0,.446,0,.79679.79679,0,0,0,.14-.032.1658.1658,0,0,0,.075-.051.1243.1243,0,0,0,.024-.075v-2.503h.79a3.41092,3.41092,0,0,0,1.109-.161,2.20461,2.20461,0,0,0,.784-.457,1.97866,1.97866,0,0,0,.491-.714,2.45215,2.45215,0,0,0,.172-.94,2.20147,2.20147,0,0,0-.11-.717m-5.674,5.07a.341.341,0,0,0-.038-.118.17645.17645,0,0,0-.062-.067.13924.13924,0,0,0-.078-.022h-2.755v-2.487h2.331a.16621.16621,0,0,0,.078-.018.15416.15416,0,0,0,.059-.062.33485.33485,0,0,0,.035-.113,1.12327,1.12327,0,0,0,.011-.166,1.30365,1.30365,0,0,0-.011-.178.34483.34483,0,0,0-.035-.118.20353.20353,0,0,0-.059-.067.13328.13328,0,0,0-.078-.024h-2.331v-2.181h2.718a.152.152,0,0,0,.078-.021.15643.15643,0,0,0,.056-.067.51618.51618,0,0,0,.035-.119.929.929,0,0,0,.013-.169,1.02189,1.02189,0,0,0-.013-.18.5875.5875,0,0,0-.035-.121.14636.14636,0,0,0-.056-.069.144.144,0,0,0-.078-.022h-3.298a.38685.38685,0,0,0-.234.083.34717.34717,0,0,0-.11.293v6.198a.34588.34588,0,0,0,.11.293.38055.38055,0,0,0,.234.083h3.335a.14711.14711,0,0,0,.078-.021.17949.17949,0,0,0,.062-.07.37474.37474,0,0,0,.038-.121,1.20044,1.20044,0,0,0,.01-.169,1.29123,1.29123,0,0,0-.01-.18m-5.704-6.233a.122.122,0,0,0-.023-.07.18694.18694,0,0,0-.074-.056.46482.46482,0,0,0-.142-.035,1.88623,1.88623,0,0,0-.215-.011,1.98837,1.98837,0,0,0-.229.011.49792.49792,0,0,0-.142.035.19211.19211,0,0,0-.077.056.12083.12083,0,0,0-.022.07v3.77q0,.42451.002.884c.002.306.007.601.014.883h-.006q-.1245-.252-.251-.502-.1275-.249-.257-.507-.1305-.258-.27-.524c-.094-.177-.19-.359-.291-.545l-1.63-3.051a2.32745,2.32745,0,0,0-.169-.277.75422.75422,0,0,0-.166-.171.54639.54639,0,0,0-.194-.089,1.13329,1.13329,0,0,0-.269-.027h-.454a.43905.43905,0,0,0-.266.091.357.357,0,0,0-.122.307v6.413a.12922.12922,0,0,0,.022.072.14779.14779,0,0,0,.074.054.7825.7825,0,0,0,.139.032,1.50354,1.50354,0,0,0,.224.014,1.52281,1.52281,0,0,0,.224-.014.883.883,0,0,0,.141-.032.14818.14818,0,0,0,.077-.054.12922.12922,0,0,0,.022-.072v-4.195c0-.265-.001-.532-.005-.8-.003-.269-.009-.532-.016-.79h.011c.097.211.201.429.314.653.113.223.224.437.335.641l2.121,3.954a2.68687,2.68687,0,0,0,.206.343,1.04425,1.04425,0,0,0,.194.212.576.576,0,0,0,.206.108.99521.99521,0,0,0,.253.029h.305a.52463.52463,0,0,0,.145-.021.3652.3652,0,0,0,.13-.07.3537.3537,0,0,0,.094-.123.42319.42319,0,0,0,.037-.183Zm-6.768,6.233a.32117.32117,0,0,0-.038-.118.18267.18267,0,0,0-.061-.067.14393.14393,0,0,0-.078-.022h-2.756v-2.487h2.331a.16621.16621,0,0,0,.078-.018.14788.14788,0,0,0,.059-.062.31381.31381,0,0,0,.035-.113,1.12327,1.12327,0,0,0,.011-.166,1.30365,1.30365,0,0,0-.011-.178.32405.32405,0,0,0-.035-.118.19292.19292,0,0,0-.059-.067.13328.13328,0,0,0-.078-.024h-2.331v-2.181h2.718a.14693.14693,0,0,0,.078-.021.15643.15643,0,0,0,.056-.067.471.471,0,0,0,.035-.119.92134.92134,0,0,0,.014-.169,1.01158,1.01158,0,0,0-.014-.18.53117.53117,0,0,0-.035-.121.14636.14636,0,0,0-.056-.069.13926.13926,0,0,0-.078-.022h-3.298a.38193.38193,0,0,0-.233.083.34431.34431,0,0,0-.11.293v6.198a.343.343,0,0,0,.11.293.37576.37576,0,0,0,.233.083h3.336a.15222.15222,0,0,0,.078-.021.18592.18592,0,0,0,.061-.07.35179.35179,0,0,0,.038-.121,1.1877,1.1877,0,0,0,.011-.169,1.27223,1.27223,0,0,0-.011-.18"/>
    <path class="cls-25" d="M115.2077,411.34251h-.908a2.55378,2.55378,0,0,1-.781-.094,1.2138,1.2138,0,0,1-.459-.26,1.01741,1.01741,0,0,1-.261-.387,1.33643,1.33643,0,0,1-.083-.473,1.38371,1.38371,0,0,1,.078-.47.92586.92586,0,0,1,.252-.376,1.2233,1.2233,0,0,1,.454-.247,2.91439,2.91439,0,0,1,.827-.088h.881Zm.924-2.782a.34953.34953,0,0,0-.108-.293.37754.37754,0,0,0-.236-.083h-1.439a4.236,4.236,0,0,0-1.271.148,2.05251,2.05251,0,0,0-.743.411,1.6507,1.6507,0,0,0-.441.625,2.11075,2.11075,0,0,0-.145.793,1.85383,1.85383,0,0,0,.094.607,1.54132,1.54132,0,0,0,.271.486,1.51584,1.51584,0,0,0,.435.354,2.42085,2.42085,0,0,0,.58.223,1.35268,1.35268,0,0,0-.333.185,1.57342,1.57342,0,0,0-.279.28,2.51062,2.51062,0,0,0-.242.378,4.53748,4.53748,0,0,0-.214.484l-.57,1.477a1.61176,1.61176,0,0,0-.08.233.58541.58541,0,0,0-.016.127.14462.14462,0,0,0,.016.072.12384.12384,0,0,0,.067.051.57293.57293,0,0,0,.142.035,1.75753,1.75753,0,0,0,.247.014,2.02153,2.02153,0,0,0,.229-.011.56685.56685,0,0,0,.147-.035.1948.1948,0,0,0,.089-.067.67013.67013,0,0,0,.056-.108l.596-1.6a5.57539,5.57539,0,0,1,.223-.516,1.50061,1.50061,0,0,1,.28-.395,1.09686,1.09686,0,0,1,.386-.249,1.84879,1.84879,0,0,1,.642-.086h.693v2.9a.1125.1125,0,0,0,.024.073.2045.2045,0,0,0,.075.051.54959.54959,0,0,0,.14.032,2.26591,2.26591,0,0,0,.446,0,.59012.59012,0,0,0,.142-.032.17481.17481,0,0,0,.075-.051.1172.1172,0,0,0,.022-.073Zm-6.107-.231a.14093.14093,0,0,0-.019-.078.1677.1677,0,0,0-.064-.053.36.36,0,0,0-.124-.035,1.38646,1.38646,0,0,0-.201-.011,1.08039,1.08039,0,0,0-.177.011.65231.65231,0,0,0-.121.029.28089.28089,0,0,0-.084.048.48884.48884,0,0,0-.059.068l-3.002,4.527q-.129.189-.245.379c-.077.127-.144.236-.201.325h-.011c.011-.104.017-.211.019-.322s.003-.215.003-.312v-4.587a.11563.11563,0,0,0-.022-.069.14912.14912,0,0,0-.075-.054.58868.58868,0,0,0-.142-.032,1.73764,1.73764,0,0,0-.223-.011,1.61572,1.61572,0,0,0-.212.011.62957.62957,0,0,0-.145.032.16913.16913,0,0,0-.081.054.11134.11134,0,0,0-.024.069v6.666a.13979.13979,0,0,0,.083.137.38368.38368,0,0,0,.124.035,1.548,1.548,0,0,0,.201.011,1.4163,1.4163,0,0,0,.177-.009.53258.53258,0,0,0,.121-.026.24829.24829,0,0,0,.084-.051.7272.7272,0,0,0,.064-.076l3.008-4.522c.039-.061.079-.123.118-.185.039-.063.079-.126.118-.188.04-.063.076-.123.11-.18.034-.058.066-.111.094-.161h.011c-.007.096-.013.205-.016.325-.004.12-.006.235-.006.346v4.56a.12382.12382,0,0,0,.022.073.17534.17534,0,0,0,.072.051.5562.5562,0,0,0,.143.032,2.2355,2.2355,0,0,0,.443,0,.59012.59012,0,0,0,.142-.032.17481.17481,0,0,0,.075-.051.1172.1172,0,0,0,.022-.073Zm-6.249-.048a.14627.14627,0,0,0-.137-.097h-3.207a.339.339,0,0,0-.244.094.36894.36894,0,0,0-.1.282v6.44a.12382.12382,0,0,0,.022.073.17481.17481,0,0,0,.075.051.59607.59607,0,0,0,.145.032,2.2356,2.2356,0,0,0,.443,0,.5997.5997,0,0,0,.143-.032.18848.18848,0,0,0,.075-.051.12333.12333,0,0,0,.021-.073v-6.021h2.627a.15222.15222,0,0,0,.078-.021.1736.1736,0,0,0,.059-.07.44836.44836,0,0,0,.035-.124,1.30324,1.30324,0,0,0,.01-.177.7677.7677,0,0,0-.045-.306m-6.169,2.591a1.22946,1.22946,0,0,1-.285.457,1.31046,1.31046,0,0,1-.464.298,1.93568,1.93568,0,0,1-.696.107h-.832v-2.787h.854a3.27857,3.27857,0,0,1,.486.037,1.325,1.325,0,0,1,.483.178,1.09305,1.09305,0,0,1,.392.424,1.4383,1.4383,0,0,1,.159.709,1.68363,1.68363,0,0,1-.097.577m.959-1.369a1.79172,1.79172,0,0,0-.314-.572,1.83347,1.83347,0,0,0-.497-.417,2.07394,2.07394,0,0,0-.575-.231,3.96227,3.96227,0,0,0-.489-.08c-.138-.013-.282-.019-.432-.019h-1.488a.39432.39432,0,0,0-.252.091.371.371,0,0,0-.113.307v6.413a.1367.1367,0,0,0,.021.075.15541.15541,0,0,0,.075.051.8886.8886,0,0,0,.143.032,1.78177,1.78177,0,0,0,.446,0,.7825.7825,0,0,0,.139-.032.1658.1658,0,0,0,.075-.051.119.119,0,0,0,.025-.075v-2.503h.789a3.40246,3.40246,0,0,0,1.109-.161,2.20461,2.20461,0,0,0,.784-.457,1.99356,1.99356,0,0,0,.492-.714,2.45215,2.45215,0,0,0,.172-.94,2.22857,2.22857,0,0,0-.11-.717m-5.675,5.07a.34175.34175,0,0,0-.037-.118.18454.18454,0,0,0-.062-.067.14156.14156,0,0,0-.078-.022h-2.755v-2.487h2.331a.165.165,0,0,0,.077-.018.15612.15612,0,0,0,.06-.062.336.336,0,0,0,.034-.113,1.00147,1.00147,0,0,0,.011-.166,1.161,1.161,0,0,0-.011-.178.34642.34642,0,0,0-.034-.118.206.206,0,0,0-.06-.067.13243.13243,0,0,0-.077-.024h-2.331v-2.181h2.717a.14693.14693,0,0,0,.078-.021.1655.1655,0,0,0,.057-.067.51618.51618,0,0,0,.035-.119,1.0283,1.0283,0,0,0,.013-.169,1.128,1.128,0,0,0-.013-.18.5875.5875,0,0,0-.035-.121.154.154,0,0,0-.057-.069.13926.13926,0,0,0-.078-.022h-3.298a.38193.38193,0,0,0-.233.083.34431.34431,0,0,0-.11.293v6.198a.343.343,0,0,0,.11.293.37576.37576,0,0,0,.233.083h3.336a.14963.14963,0,0,0,.078-.021.18762.18762,0,0,0,.062-.07.37536.37536,0,0,0,.037-.121,1.1877,1.1877,0,0,0,.011-.169,1.27223,1.27223,0,0,0-.011-.18m-5.704-6.249a.132.132,0,0,0-.021-.075.14215.14215,0,0,0-.076-.051.7527.7527,0,0,0-.142-.033,1.48526,1.48526,0,0,0-.217-.013,1.51727,1.51727,0,0,0-.226.013.787.787,0,0,0-.14.033.13542.13542,0,0,0-.075.051.132.132,0,0,0-.021.075v2.782h-3.164v-2.782a.132.132,0,0,0-.021-.075.14215.14215,0,0,0-.076-.051.7527.7527,0,0,0-.142-.033,1.89342,1.89342,0,0,0-.443,0,.77275.77275,0,0,0-.145.033.13542.13542,0,0,0-.075.051.12531.12531,0,0,0-.022.075v6.671a.12961.12961,0,0,0,.022.075.14622.14622,0,0,0,.075.051.87066.87066,0,0,0,.145.032,1.7579,1.7579,0,0,0,.443,0,.84888.84888,0,0,0,.142-.032.154.154,0,0,0,.076-.051.1367.1367,0,0,0,.021-.075v-3.083h3.164v3.083a.1367.1367,0,0,0,.021.075.14622.14622,0,0,0,.075.051.89373.89373,0,0,0,.14.032,1.49506,1.49506,0,0,0,.226.014,1.46842,1.46842,0,0,0,.217-.014.84888.84888,0,0,0,.142-.032.154.154,0,0,0,.076-.051.1367.1367,0,0,0,.021-.075Zm-6.52,6.249a.341.341,0,0,0-.038-.118.18454.18454,0,0,0-.062-.067.13924.13924,0,0,0-.078-.022h-2.755v-2.487h2.331a.16621.16621,0,0,0,.078-.018.15416.15416,0,0,0,.059-.062.33485.33485,0,0,0,.035-.113,1.12327,1.12327,0,0,0,.011-.166,1.30365,1.30365,0,0,0-.011-.178.34483.34483,0,0,0-.035-.118.20353.20353,0,0,0-.059-.067.13328.13328,0,0,0-.078-.024h-2.331v-2.181h2.718a.152.152,0,0,0,.078-.021.15643.15643,0,0,0,.056-.067.51618.51618,0,0,0,.035-.119.929.929,0,0,0,.013-.169,1.02189,1.02189,0,0,0-.013-.18.5875.5875,0,0,0-.035-.121.14636.14636,0,0,0-.056-.069.144.144,0,0,0-.078-.022h-3.298a.38468.38468,0,0,0-.234.083.34717.34717,0,0,0-.11.293v6.198a.34588.34588,0,0,0,.11.293.37846.37846,0,0,0,.234.083h3.335a.14711.14711,0,0,0,.078-.021.18762.18762,0,0,0,.062-.07.37474.37474,0,0,0,.038-.121,1.20044,1.20044,0,0,0,.01-.169,1.29123,1.29123,0,0,0-.01-.18m-8.202-3.07a.62946.62946,0,0,0-.446-.123.6463.6463,0,0,0-.459.126.73677.73677,0,0,0-.126.508.71848.71848,0,0,0,.123.494.62941.62941,0,0,0,.446.123.6463.6463,0,0,0,.459-.126.73548.73548,0,0,0,.126-.507.71978.71978,0,0,0-.123-.495m-6.343,1.069h-2.417l1.197-3.464h.006Zm-.554-4.221a.28207.28207,0,0,0-.059-.1.24632.24632,0,0,0-.107-.062.85506.85506,0,0,0-.183-.029c-.075-.005-.17-.008-.284-.008-.108,0-.196.003-.266.008a.773.773,0,0,0-.172.029.23791.23791,0,0,0-.102.06.28117.28117,0,0,0-.057.096l-2.331,6.456a.66023.66023,0,0,0-.045.191.1347.1347,0,0,0,.037.11.25983.25983,0,0,0,.14.051,1.94034,1.94034,0,0,0,.255.014,2.25573,2.25573,0,0,0,.244-.011.47167.47167,0,0,0,.145-.035.21135.21135,0,0,0,.078-.059.261.261,0,0,0,.043-.083l.57-1.671h2.889l.597,1.692a.43233.43233,0,0,0,.045.081.1658.1658,0,0,0,.075.051.61387.61387,0,0,0,.151.026c.066.006.155.009.266.009a2.606,2.606,0,0,0,.265-.011.25188.25188,0,0,0,.143-.049.13161.13161,0,0,0,.04-.11.65548.65548,0,0,0-.046-.19Zm-4.721-.027a.132.132,0,0,0-.021-.075.14314.14314,0,0,0-.075-.051.78556.78556,0,0,0-.143-.033,1.52763,1.52763,0,0,0-.223-.013,1.44012,1.44012,0,0,0-.212.013.85637.85637,0,0,0-.145.033.15453.15453,0,0,0-.08.051.1151.1151,0,0,0-.025.075v6.671a.13745.13745,0,0,0,.022.075.14622.14622,0,0,0,.075.051.87066.87066,0,0,0,.145.032,1.7579,1.7579,0,0,0,.443,0,.8886.8886,0,0,0,.143-.032.15541.15541,0,0,0,.075-.051.1367.1367,0,0,0,.021-.075Zm-2.669.542a.37316.37316,0,0,0-.097-.161,1.4194,1.4194,0,0,0-.255-.18,2.573,2.573,0,0,0-.457-.204,4.71535,4.71535,0,0,0-.62-.164,3.85163,3.85163,0,0,0-.747-.07,3.67921,3.67921,0,0,0-1.409.261,3.14567,3.14567,0,0,0-1.091.733,3.2818,3.2818,0,0,0-.703,1.144,4.6085,4.6085,0,0,0-.019,2.938,3.11038,3.11038,0,0,0,.669,1.107,2.92258,2.92258,0,0,0,1.071.711,3.8927,3.8927,0,0,0,1.44.25,4.4665,4.4665,0,0,0,1.063-.129,4.64219,4.64219,0,0,0,.51-.156,4.12009,4.12009,0,0,0,.403-.169.41926.41926,0,0,0,.204-.18.56134.56134,0,0,0,.049-.242v-2.647a.50489.50489,0,0,0-.027-.172.28126.28126,0,0,0-.076-.119.33469.33469,0,0,0-.107-.064.34969.34969,0,0,0-.118-.021h-2.208a.142.142,0,0,0-.08.021.18342.18342,0,0,0-.057.067.40344.40344,0,0,0-.035.118,1.26228,1.26228,0,0,0-.01.175.67926.67926,0,0,0,.045.285.14777.14777,0,0,0,.137.091h1.612v2.025a2.40552,2.40552,0,0,1-.615.233,2.8396,2.8396,0,0,1-.653.078,2.65509,2.65509,0,0,1-.996-.182,2.14627,2.14627,0,0,1-.782-.537,2.54021,2.54021,0,0,1-.513-.871,3.78707,3.78707,0,0,1-.016-2.288,2.59921,2.59921,0,0,1,.486-.88,2.2221,2.2221,0,0,1,.774-.581,2.4537,2.4537,0,0,1,1.031-.209,3.0173,3.0173,0,0,1,.835.102,3.68551,3.68551,0,0,1,.604.226,3.27976,3.27976,0,0,1,.403.225.48521.48521,0,0,0,.215.102.12742.12742,0,0,0,.07-.021.172.172,0,0,0,.054-.073.52707.52707,0,0,0,.032-.129,1.35712,1.35712,0,0,0,.011-.18.98276.98276,0,0,0-.027-.263m-7.904,1.714a.95968.95968,0,0,1-.26.373,1.24,1.24,0,0,1-.443.247,2.00967,2.00967,0,0,1-.631.089h-.903v-2.342h.779c.183,0,.33.005.443.016a1.78273,1.78273,0,0,1,.304.054,1.031,1.031,0,0,1,.612.405,1.24058,1.24058,0,0,1,.182.69,1.276,1.276,0,0,1-.083.468m1.453,4.294a2.8515,2.8515,0,0,0-.097-.271l-.623-1.531c-.071-.176-.143-.333-.214-.473a2.52251,2.52251,0,0,0-.229-.37,1.572,1.572,0,0,0-.26-.277,1.2985,1.2985,0,0,0-.312-.191,2.66691,2.66691,0,0,0,.553-.263,1.7811,1.7811,0,0,0,.425-.368,1.51326,1.51326,0,0,0,.271-.489,1.92682,1.92682,0,0,0,.094-.625,1.96576,1.96576,0,0,0-.105-.658,1.5325,1.5325,0,0,0-.314-.529,1.70177,1.70177,0,0,0-.518-.382,2.681,2.681,0,0,0-.712-.22c-.093-.011-.198-.021-.314-.029-.117-.009-.262-.014-.438-.014h-1.477a.38685.38685,0,0,0-.234.083.34717.34717,0,0,0-.11.293v6.435a.12961.12961,0,0,0,.022.075.14622.14622,0,0,0,.075.051.87313.87313,0,0,0,.142.032,1.78177,1.78177,0,0,0,.446,0,.79679.79679,0,0,0,.14-.032.1658.1658,0,0,0,.075-.051.1243.1243,0,0,0,.024-.075v-2.96h.618a1.4172,1.4172,0,0,1,.542.094,1.1908,1.1908,0,0,1,.392.263,1.66374,1.66374,0,0,1,.288.403q.12.234.233.513l.64,1.638a.4173.4173,0,0,0,.051.108.193.193,0,0,0,.083.067.498.498,0,0,0,.142.035,1.98958,1.98958,0,0,0,.228.011,2.468,2.468,0,0,0,.258-.011.60993.60993,0,0,0,.151-.032.12864.12864,0,0,0,.069-.054.16562.16562,0,0,0,.017-.075.51156.51156,0,0,0-.022-.121m-6.128-.301a.341.341,0,0,0-.038-.118.17645.17645,0,0,0-.062-.067.13924.13924,0,0,0-.078-.022h-2.755v-2.487h2.331a.16621.16621,0,0,0,.078-.018.15416.15416,0,0,0,.059-.062.33485.33485,0,0,0,.035-.113,1.12327,1.12327,0,0,0,.011-.166,1.30365,1.30365,0,0,0-.011-.178.34483.34483,0,0,0-.035-.118.20353.20353,0,0,0-.059-.067.13328.13328,0,0,0-.078-.024h-2.331v-2.181h2.718a.152.152,0,0,0,.078-.021.15643.15643,0,0,0,.056-.067.51618.51618,0,0,0,.035-.119.929.929,0,0,0,.013-.169,1.02189,1.02189,0,0,0-.013-.18.5875.5875,0,0,0-.035-.121.14636.14636,0,0,0-.056-.069.144.144,0,0,0-.078-.022h-3.298a.38685.38685,0,0,0-.234.083.34717.34717,0,0,0-.11.293v6.198a.34588.34588,0,0,0,.11.293.38055.38055,0,0,0,.234.083h3.335a.14711.14711,0,0,0,.078-.021.17949.17949,0,0,0,.062-.07.37474.37474,0,0,0,.038-.121,1.20044,1.20044,0,0,0,.01-.169,1.29123,1.29123,0,0,0-.01-.18m-5.704-6.233a.122.122,0,0,0-.023-.07.18694.18694,0,0,0-.074-.056.46482.46482,0,0,0-.142-.035,1.88623,1.88623,0,0,0-.215-.011,1.98837,1.98837,0,0,0-.229.011.49792.49792,0,0,0-.142.035.19211.19211,0,0,0-.077.056.12083.12083,0,0,0-.022.07v3.77q0,.42451.002.884c.002.306.007.601.014.883h-.006q-.1245-.252-.251-.502-.1275-.249-.257-.507-.1305-.258-.27-.524c-.094-.177-.19-.359-.291-.545l-1.63-3.051a2.32745,2.32745,0,0,0-.169-.277.75422.75422,0,0,0-.166-.171.54639.54639,0,0,0-.194-.089,1.13329,1.13329,0,0,0-.269-.027h-.454a.43905.43905,0,0,0-.266.091.357.357,0,0,0-.122.307v6.413a.12922.12922,0,0,0,.022.072.14779.14779,0,0,0,.074.054.7825.7825,0,0,0,.139.032,1.50354,1.50354,0,0,0,.224.014,1.52281,1.52281,0,0,0,.224-.014.883.883,0,0,0,.141-.032.14818.14818,0,0,0,.077-.054.12922.12922,0,0,0,.022-.072v-4.195c0-.265-.001-.532-.005-.8-.003-.269-.009-.532-.016-.79h.011c.097.211.201.429.314.653.113.223.224.437.335.641l2.121,3.954a2.68687,2.68687,0,0,0,.206.343,1.04425,1.04425,0,0,0,.194.212.576.576,0,0,0,.206.108.99521.99521,0,0,0,.253.029h.305a.52463.52463,0,0,0,.145-.021.3652.3652,0,0,0,.13-.07.3537.3537,0,0,0,.094-.123.42319.42319,0,0,0,.037-.183Zm-6.768,6.233a.32117.32117,0,0,0-.038-.118.18267.18267,0,0,0-.061-.067.14393.14393,0,0,0-.078-.022h-2.756v-2.487h2.331a.16621.16621,0,0,0,.078-.018.14788.14788,0,0,0,.059-.062.31381.31381,0,0,0,.035-.113,1.12327,1.12327,0,0,0,.011-.166,1.30365,1.30365,0,0,0-.011-.178.32405.32405,0,0,0-.035-.118.19292.19292,0,0,0-.059-.067.13328.13328,0,0,0-.078-.024h-2.331v-2.181h2.718a.14693.14693,0,0,0,.078-.021.15643.15643,0,0,0,.056-.067.471.471,0,0,0,.035-.119.92134.92134,0,0,0,.014-.169,1.01158,1.01158,0,0,0-.014-.18.53117.53117,0,0,0-.035-.121.14636.14636,0,0,0-.056-.069.13926.13926,0,0,0-.078-.022h-3.298a.38193.38193,0,0,0-.233.083.34431.34431,0,0,0-.11.293v6.198a.343.343,0,0,0,.11.293.37576.37576,0,0,0,.233.083h3.336a.15222.15222,0,0,0,.078-.021.18592.18592,0,0,0,.061-.07.35179.35179,0,0,0,.038-.121,1.1877,1.1877,0,0,0,.011-.169,1.27223,1.27223,0,0,0-.011-.18"/>
    <path class="cls-25" d="M263.77438,433.52991a5.46887,5.46887,0,0,0-.128-1.199,2.71474,2.71474,0,0,0-.432-.992,2.18984,2.18984,0,0,0-.793-.677,2.61364,2.61364,0,0,0-1.212-.253,2.26344,2.26344,0,0,0-.593.079,2.62685,2.62685,0,0,0-.606.253,4.14735,4.14735,0,0,0-.647.457,7.57992,7.57992,0,0,0-.71.688,2.70179,2.70179,0,0,0-.332-.601,2.02884,2.02884,0,0,0-.482-.465,2.24259,2.24259,0,0,0-.651-.303,2.98134,2.98134,0,0,0-.835-.108,2.452,2.452,0,0,0-1.199.328,4.82742,4.82742,0,0,0-1.224,1.033v-.988a.20955.20955,0,0,0-.029-.112.27708.27708,0,0,0-.096-.083.48015.48015,0,0,0-.187-.049,3.58423,3.58423,0,0,0-.61,0,.55973.55973,0,0,0-.191.049.22349.22349,0,0,0-.099.083.22891.22891,0,0,0-.025.112v7.471a.19666.19666,0,0,0,.029.112.22035.22035,0,0,0,.108.079.818.818,0,0,0,.211.05,2.80423,2.80423,0,0,0,.333.016,2.87523,2.87523,0,0,0,.34-.016.7535.7535,0,0,0,.207-.05.253.253,0,0,0,.108-.079.18352.18352,0,0,0,.033-.112v-5.221a6.29727,6.29727,0,0,1,1.046-1.071,1.585,1.585,0,0,1,.955-.365,1.38581,1.38581,0,0,1,.66.149,1.25981,1.25981,0,0,1,.461.432,2.10886,2.10886,0,0,1,.273.672,3.79129,3.79129,0,0,1,.092.864v4.54a.19666.19666,0,0,0,.029.112.22016.22016,0,0,0,.108.079.82124.82124,0,0,0,.216.05,3.40274,3.40274,0,0,0,.659,0,.82716.82716,0,0,0,.212-.05.25033.25033,0,0,0,.112-.079.18358.18358,0,0,0,.033-.112v-5.221a6.61426,6.61426,0,0,1,1.05-1.071,1.56789,1.56789,0,0,1,.951-.365,1.40793,1.40793,0,0,1,.664.149,1.24808,1.24808,0,0,1,.465.432,1.9934,1.9934,0,0,1,.265.672,4.12132,4.12132,0,0,1,.083.864v4.54a.17786.17786,0,0,0,.034.112.25027.25027,0,0,0,.112.079.81818.81818,0,0,0,.211.05,2.88247,2.88247,0,0,0,.341.016,2.78575,2.78575,0,0,0,.332-.016.763.763,0,0,0,.207-.05.253.253,0,0,0,.108-.079.18351.18351,0,0,0,.033-.112Zm-13.613-2.748a.17184.17184,0,0,0-.037-.112.35466.35466,0,0,0-.112-.083.59365.59365,0,0,0-.208-.049c-.088-.009-.199-.013-.332-.013-.138,0-.25.004-.336.013a.67593.67593,0,0,0-.212.049.26054.26054,0,0,0-.112.083.20955.20955,0,0,0-.029.112v5.222a5.82866,5.82866,0,0,1-1.083,1.07,1.74929,1.74929,0,0,1-1.025.366,1.495,1.495,0,0,1-.697-.154,1.33364,1.33364,0,0,1-.494-.432,1.9649,1.9649,0,0,1-.291-.672,4.61325,4.61325,0,0,1-.095-1.05v-4.35a.18841.18841,0,0,0-.034-.112.2887.2887,0,0,0-.112-.083.63048.63048,0,0,0-.211-.049c-.089-.009-.2-.013-.332-.013-.133,0-.244.004-.332.013a.67637.67637,0,0,0-.216.049.24863.24863,0,0,0-.112.083.20105.20105,0,0,0-.029.112v4.533a5.9523,5.9523,0,0,0,.137,1.382,2.73437,2.73437,0,0,0,.452.996,2.20892,2.20892,0,0,0,.826.676,2.85472,2.85472,0,0,0,1.258.249,2.71489,2.71489,0,0,0,1.261-.323,4.64854,4.64854,0,0,0,1.262-1.03v.988a.22364.22364,0,0,0,.025.112.1931.1931,0,0,0,.095.079.679.679,0,0,0,.191.05,2.39159,2.39159,0,0,0,.312.016,2.21773,2.21773,0,0,0,.294-.016.74212.74212,0,0,0,.195-.05.22173.22173,0,0,0,.104-.079.20476.20476,0,0,0,.029-.112Zm-8.898,2.914a5.91747,5.91747,0,0,0-.137-1.365,2.69458,2.69458,0,0,0-.453-.992,2.25186,2.25186,0,0,0-.826-.677,2.807,2.807,0,0,0-1.257-.253,2.70224,2.70224,0,0,0-1.266.328,4.59061,4.59061,0,0,0-1.258,1.033v-.988a.20106.20106,0,0,0-.029-.112.264.264,0,0,0-.095-.083.49043.49043,0,0,0-.187-.049,3.58423,3.58423,0,0,0-.61,0,.55336.55336,0,0,0-.191.049.227.227,0,0,0-.1.083.24057.24057,0,0,0-.024.112v7.471a.1965.1965,0,0,0,.029.112.22021.22021,0,0,0,.108.079.81776.81776,0,0,0,.211.05,2.78564,2.78564,0,0,0,.332.016,2.89327,2.89327,0,0,0,.341-.016.763.763,0,0,0,.207-.05.25316.25316,0,0,0,.108-.079.18358.18358,0,0,0,.033-.112v-5.221a5.597,5.597,0,0,1,1.079-1.071,1.77333,1.77333,0,0,1,1.03-.365,1.57514,1.57514,0,0,1,.701.149,1.26343,1.26343,0,0,1,.494.432,2.12427,2.12427,0,0,1,.29.672,4.27945,4.27945,0,0,1,.1,1.03v4.374a.18352.18352,0,0,0,.033.112.253.253,0,0,0,.108.079.76185.76185,0,0,0,.208.05,2.86387,2.86387,0,0,0,.34.016,2.78587,2.78587,0,0,0,.332-.016.77186.77186,0,0,0,.208-.05.25571.25571,0,0,0,.107-.079.17774.17774,0,0,0,.034-.112Zm-8.932,0a5.918,5.918,0,0,0-.137-1.365,2.69327,2.69327,0,0,0-.452-.992,2.26811,2.26811,0,0,0-.826-.677,2.81447,2.81447,0,0,0-1.258-.253,2.70223,2.70223,0,0,0-1.266.328,4.57314,4.57314,0,0,0-1.257,1.033v-.988a.20964.20964,0,0,0-.029-.112.27722.27722,0,0,0-.096-.083.48027.48027,0,0,0-.187-.049,3.58423,3.58423,0,0,0-.61,0,.55973.55973,0,0,0-.191.049.22349.22349,0,0,0-.099.083.22891.22891,0,0,0-.025.112v7.471a.20475.20475,0,0,0,.029.112.22035.22035,0,0,0,.108.079.81643.81643,0,0,0,.212.05,2.77422,2.77422,0,0,0,.332.016,2.87516,2.87516,0,0,0,.34-.016.7535.7535,0,0,0,.207-.05.25313.25313,0,0,0,.108-.079.184.184,0,0,0,.034-.112v-5.221a5.5693,5.5693,0,0,1,1.079-1.071,1.77285,1.77285,0,0,1,1.029-.365,1.57215,1.57215,0,0,1,.701.149,1.26347,1.26347,0,0,1,.494.432,2.14863,2.14863,0,0,1,.291.672,4.33779,4.33779,0,0,1,.099,1.03v4.374a.17768.17768,0,0,0,.034.112.25308.25308,0,0,0,.108.079.74451.74451,0,0,0,.207.05,2.86447,2.86447,0,0,0,.34.016,2.77479,2.77479,0,0,0,.332-.016.762.762,0,0,0,.208-.05.25309.25309,0,0,0,.108-.079.18358.18358,0,0,0,.033-.112Zm-10.31,2.739a4.27614,4.27614,0,0,1-.967.839,1.92631,1.92631,0,0,1-1,.274,1.45373,1.45373,0,0,1-1.033-.345,1.2009,1.2009,0,0,1-.37-.925,1.343,1.343,0,0,1,.129-.602,1.15818,1.15818,0,0,1,.403-.448,2.00767,2.00767,0,0,1,.689-.283,4.44678,4.44678,0,0,1,.979-.095h1.17Zm1.362-3.212a4.23944,4.23944,0,0,0-.158-1.22,2.07284,2.07284,0,0,0-.506-.876,2.21487,2.21487,0,0,0-.913-.535,4.48153,4.48153,0,0,0-1.37-.183,4.61748,4.61748,0,0,0-.855.079,5.68065,5.68065,0,0,0-.78.199,4.21909,4.21909,0,0,0-.631.266,1.80992,1.80992,0,0,0-.386.253.47019.47019,0,0,0-.141.228,1.42522,1.42522,0,0,0-.029.328,1.45637,1.45637,0,0,0,.016.228.50746.50746,0,0,0,.054.17.2797.2797,0,0,0,.087.1.20825.20825,0,0,0,.117.033.704.704,0,0,0,.303-.12q.20249-.12.506-.266a4.79577,4.79577,0,0,1,.706-.265,3.13834,3.13834,0,0,1,.908-.121,2.47189,2.47189,0,0,1,.797.112,1.2704,1.2704,0,0,1,.527.332,1.30993,1.30993,0,0,1,.295.552,2.88973,2.88973,0,0,1,.091.764v.581h-1.029a7.28038,7.28038,0,0,0-1.569.154,3.62328,3.62328,0,0,0-1.178.46,2.137,2.137,0,0,0-.739.772,2.22279,2.22279,0,0,0-.257,1.096,2.37055,2.37055,0,0,0,.186.963,2.00475,2.00475,0,0,0,.523.714,2.2909,2.2909,0,0,0,.814.444,3.47814,3.47814,0,0,0,1.066.153,2.89278,2.89278,0,0,0,1.275-.29,3.69629,3.69629,0,0,0,1.091-.814v.747a.18523.18523,0,0,0,.058.15.41647.41647,0,0,0,.187.075,1.957,1.957,0,0,0,.344.024,1.81417,1.81417,0,0,0,.341-.024.47339.47339,0,0,0,.182-.075.17352.17352,0,0,0,.067-.15Zm-6.74-6.533a.35051.35051,0,0,0,.024-.191.20469.20469,0,0,0-.091-.133.61415.61415,0,0,0-.207-.078,1.603,1.603,0,0,0-.341-.029c-.116,0-.216.004-.299.012a.61525.61525,0,0,0-.203.05.4027.4027,0,0,0-.133.099.47257.47257,0,0,0-.087.171l-5.022,13.771a.3018.3018,0,0,0-.033.186.21475.21475,0,0,0,.091.133.56134.56134,0,0,0,.212.083,1.72473,1.72473,0,0,0,.344.029,2.2235,2.2235,0,0,0,.295-.016.92562.92562,0,0,0,.203-.05.33991.33991,0,0,0,.137-.096.47513.47513,0,0,0,.088-.17Zm-7.645,7.014a5.9619,5.9619,0,0,0-.137-1.373,2.71129,2.71129,0,0,0-.453-.992,2.25186,2.25186,0,0,0-.826-.677,2.807,2.807,0,0,0-1.257-.253,2.64168,2.64168,0,0,0-1.204.303,4.42692,4.42692,0,0,0-1.187.925v-4.474a.205.205,0,0,0-.033-.116.24293.24293,0,0,0-.108-.083.76222.76222,0,0,0-.208-.05,2.863,2.863,0,0,0-.34-.016,2.7851,2.7851,0,0,0-.332.016.82674.82674,0,0,0-.212.05.22211.22211,0,0,0-.108.083.22948.22948,0,0,0-.029.116v11.09a.20475.20475,0,0,0,.029.112.23026.23026,0,0,0,.108.079.82674.82674,0,0,0,.212.05,2.78564,2.78564,0,0,0,.332.016,2.86357,2.86357,0,0,0,.34-.016.76222.76222,0,0,0,.208-.05.25316.25316,0,0,0,.108-.079.18358.18358,0,0,0,.033-.112v-5.221a5.597,5.597,0,0,1,1.079-1.071,1.77285,1.77285,0,0,1,1.029-.365,1.57649,1.57649,0,0,1,.702.149,1.27041,1.27041,0,0,1,.494.432,2.12427,2.12427,0,0,1,.29.672,4.27945,4.27945,0,0,1,.1,1.03v4.374a.18352.18352,0,0,0,.033.112.25308.25308,0,0,0,.108.079.76221.76221,0,0,0,.208.05,2.85255,2.85255,0,0,0,.34.016,2.78609,2.78609,0,0,0,.332-.016.7536.7536,0,0,0,.207-.05.25309.25309,0,0,0,.108-.079.184.184,0,0,0,.034-.112Zm-8.268-5.47a1.82966,1.82966,0,0,0,.046-.299.19867.19867,0,0,0-.063-.166.41591.41591,0,0,0-.211-.079,3.11535,3.11535,0,0,0-.395-.02,3.60687,3.60687,0,0,0-.386.016.863.863,0,0,0-.224.05.17535.17535,0,0,0-.103.096,1.419,1.419,0,0,0-.05.145l-2.366,8.99h-.017l-2.465-8.982a.60828.60828,0,0,0-.062-.153.23348.23348,0,0,0-.121-.096.8896.8896,0,0,0-.22-.05,3.25208,3.25208,0,0,0-.369-.016,3.93236,3.93236,0,0,0-.402.016.93256.93256,0,0,0-.237.05.23092.23092,0,0,0-.12.096.608.608,0,0,0-.063.153l-2.291,8.982h-.008l-2.416-8.999a.58607.58607,0,0,0-.045-.149.203.203,0,0,0-.108-.091.77917.77917,0,0,0-.228-.046c-.1-.008-.236-.012-.407-.012-.177,0-.318.005-.423.016a.42972.42972,0,0,0-.229.075.1919.1919,0,0,0-.066.166,1.528,1.528,0,0,0,.054.299l2.839,9.919a.35635.35635,0,0,0,.265.295,1.41515,1.41515,0,0,0,.299.054c.122.011.274.016.457.016.177,0,.322-.005.435-.016a1.231,1.231,0,0,0,.279-.054.37.37,0,0,0,.166-.108.44282.44282,0,0,0,.083-.187l2.075-8.11h.016l2.25,8.11a.50237.50237,0,0,0,.091.187.36483.36483,0,0,0,.175.108,1.38573,1.38573,0,0,0,.294.054c.119.011.264.016.436.016.166,0,.306-.005.419-.016a1.38665,1.38665,0,0,0,.287-.054.42271.42271,0,0,0,.182-.108.44539.44539,0,0,0,.1-.187Zm-14.929,9.849a1.69019,1.69019,0,0,0-.154-.228l-3.038-3.943,2.706-2.706a1.19422,1.19422,0,0,0,.179-.233.41112.41112,0,0,0,.054-.199.18163.18163,0,0,0-.038-.12.2607.2607,0,0,0-.124-.075,1.0324,1.0324,0,0,0-.228-.041c-.094-.009-.211-.013-.349-.013-.133,0-.246.004-.34.013a.96473.96473,0,0,0-.245.049.73336.73336,0,0,0-.179.092.72446.72446,0,0,0-.141.137l-2.822,3.104v-6.757a.20489.20489,0,0,0-.033-.116.24286.24286,0,0,0-.108-.083.76221.76221,0,0,0-.208-.05,2.86326,2.86326,0,0,0-.34-.016,2.774,2.774,0,0,0-.332.016.82686.82686,0,0,0-.212.05.22214.22214,0,0,0-.108.083.22958.22958,0,0,0-.029.116v11.09a.20484.20484,0,0,0,.029.112.23029.23029,0,0,0,.108.079.82686.82686,0,0,0,.212.05,2.77456,2.77456,0,0,0,.332.016,2.86387,2.86387,0,0,0,.34-.016.76221.76221,0,0,0,.208-.05.25308.25308,0,0,0,.108-.079.18352.18352,0,0,0,.033-.112v-4.142l3.154,4.134a.67423.67423,0,0,0,.112.129.44182.44182,0,0,0,.162.083,1.29521,1.29521,0,0,0,.245.041q.1455.012.369.012a3.1862,3.1862,0,0,0,.357-.016.837.837,0,0,0,.22-.05.24033.24033,0,0,0,.112-.083.19821.19821,0,0,0,.034-.116.35776.35776,0,0,0-.046-.162"/>
    <path class="cls-4" d="M172.82561,363.47488s-11.668,0-11.668,11.668v84.566s0,11.668,11.668,11.668h97.795s11.668,0,11.668-11.668v-84.566s0-11.668-11.668-11.668Z"/>
  </g>
  <rect class="cls-5" x="24.803" y="145.841" width="177.87399" height="167.095"/>
  <polygon class="cls-26" points="24.803 153.234 24.803 172.926 122.53 172.926 132.283 163.08 122.53 153.234 24.803 153.234"/>
  <polygon class="cls-27" points="24.803 176.612 24.803 196.303 134.151 196.303 143.913 186.458 134.151 176.612 24.803 176.612"/>
  <polygon class="cls-28" points="24.803 199.989 24.803 219.682 145.5 219.682 155.268 209.836 145.5 199.989 24.803 199.989"/>
  <polygon class="cls-22" points="24.803 223.368 24.803 243.058 156.85 243.058 166.619 233.212 156.85 223.368 24.803 223.368"/>
  <polygon class="cls-29" points="24.803 246.744 24.803 266.434 168.199 266.434 177.973 256.591 168.199 246.744 24.803 246.744"/>
  <polygon class="cls-30" points="24.803 270.121 24.803 289.814 179.549 289.814 189.327 279.968 179.549 270.121 24.803 270.121"/>
  <polygon class="cls-31" points="24.803 293.496 24.803 312.935 190.581 312.935 200.733 303.343 190.315 293.496 24.803 293.496"/>
  <text class="cls-32" transform="translate(30.94824 168.84363)"><tspan xml:space="preserve"> A</tspan></text>
  <text class="cls-33" transform="translate(47.62158 163.7865)"><tspan class="cls-34">+</tspan><tspan x="6.60449" y="0">+</tspan></text>
  <text class="cls-33" transform="translate(60.85547 163.7865)">+</text>
  <text class="cls-32" transform="translate(31.09131 192.34753)"><tspan xml:space="preserve"> A</tspan></text>
  <text class="cls-33" transform="translate(47.13184 187.29041)">+</text>
  <text class="cls-33" transform="translate(53.74902 187.29041)">+</text>
  <text class="cls-32" transform="translate(31.09131 215.60632)"><tspan xml:space="preserve"> A</tspan></text>
  <text class="cls-32" transform="translate(30.73047 239.10925)"><tspan xml:space="preserve"> A</tspan></text>
  <text class="cls-32" transform="translate(30.92041 262.46033)"><tspan xml:space="preserve"> B</tspan></text>
  <text class="cls-32" transform="translate(30.92041 285.71619)"><tspan xml:space="preserve"> C</tspan></text>
  <g class="cls-35">
    <text class="cls-32" transform="translate(30.55957 309.21912)"><tspan xml:space="preserve"> D</tspan></text>
  </g>
  <text class="cls-33" transform="translate(47.13184 210.54919)">+</text>
  <text class="cls-36" transform="translate(245.45215 577.7196)"> </text>
  <text class="cls-37" transform="translate(250.03711 577.7196)">d</text>
  <text class="cls-37" transform="translate(259.37012 577.7196)">B</text>
  <text class="cls-36" transform="translate(163.07227 577.7196)"> </text>
  <text class="cls-37" transform="translate(167.6582 577.7196)">L</text>
  <text class="cls-36" transform="translate(82.6792 577.7196)"> </text>
  <text class="cls-37" transform="translate(87.26514 577.7196)">L</text>
  <text class="cls-38" transform="translate(28.10352 598.70496)">2010/1060</text>
  <g id="rating">
    <polyline class="cls-25" points="208.23 163.08 227.74 142.89 286.7 142.89 286.7 182.83 227.74 182.83 208.23 163.08"/>
    <text id="ratingLetter" class="cls-39" transform="translate(222.41016 171.57996)">A</text>
    <text id="ratingPlusses" class="cls-40" transform="translate(241.40039 162.37)">+++</text>
  </g>
  <text id="supplierLineTwo" class="cls-41" transform="translate(25.50977 119.05017)">X</text>
  <text id="supplierLineOne" class="cls-41" transform="translate(25.50977 102.79181)">X</text>
  <text id="modelLineTwo" class="cls-41" transform="translate(164.41016 119.05017)">X</text>
  <text id="modelLineOne" class="cls-41" transform="translate(164.41016 102.79181)">X</text>
  <text id="kwhAnnum" class="cls-42" transform="translate(221 422.4696)" text-anchor="middle">X</text>
  <text id="fridgeLitres" class="cls-43" transform="translate(79 577.16003)" text-anchor="end">X</text>
  <text id="freezerLitres" class="cls-43" transform="translate(164 577.16003)" text-anchor="end">X</text>
  <text id="db" class="cls-43" transform="translate(243.91992 577.16003)" text-anchor="end">X</text>
  <g id="starRating">
    <path id="zero" class="cls-44" d="M160.4533,549.94958c0-.636-.01561-1.301-.04591-1.88224-.10558-.863-.16112-1.37323-.64908-1.6155a7.44671,7.44671,0,0,0-6.89754,0c-.48843.24227-.544.75248-.64909,1.6155-.03122.58123-.04637,1.24627-.04637,1.88224,0,.63475.01515,1.29979.04637,1.881.10512.86189.16066,1.37323.64909,1.61544a7.45568,7.45568,0,0,0,6.89754,0c.488-.24221.5435-.75355.64908-1.61544.0303-.58123.04591-1.24627.04591-1.881"/>
    <g id="one">
      <path id="box" class="cls-44" d="M160.4533,549.94958c0-.636-.01561-1.301-.04591-1.88224-.10558-.863-.16112-1.37323-.64908-1.6155a7.44671,7.44671,0,0,0-6.89754,0c-.48843.24227-.544.75248-.64909,1.6155-.03122.58123-.04637,1.24627-.04637,1.88224,0,.63475.01515,1.29979.04637,1.881.10512.86189.16066,1.37323.64909,1.61544a7.45568,7.45568,0,0,0,6.89754,0c.488-.24221.5435-.75355.64908-1.61544.0303-.58123.04591-1.24627.04591-1.881"/>
      <path class="cls-45" d="M156.40263,550.48352c-.06683-.09792-.13365-.07372-.18663,0l-.61173,1.05987a.25235.25235,0,0,1-.34215.08985l-.03916-.02995a.2289.2289,0,0,1-.08987-.32948l.58292-1.01493c.08871-.14054.04377-.22234-.11174-.21543h-1.18774a.2395.2395,0,0,1-.24538-.24653V549.752a.24092.24092,0,0,1,.24538-.25459h1.17967c.10369,0,.26151,0,.11175-.19931l-.58176-1.02415a.23635.23635,0,0,1,.09677-.3433l.03916-.02995a.24035.24035,0,0,1,.33408.09792l.60482,1.07369c.08179.10368.14861.07488.20161-.00576l.61978-1.06793a.22047.22047,0,0,1,.32833-.08985l.05068.01266a.2437.2437,0,0,1,.08179.35252l-.58868,1.03107c-.04377.08985-.0818.17856.09677.19239h1.21078a.24091.24091,0,0,1,.24538.25459v.04493a.2395.2395,0,0,1-.24538.24653h-1.2246c-.09677,0-.16475.08871-.08986.20852l.59559,1.02184a.22879.22879,0,0,1-.09561.33639l-.03686.023a.24312.24312,0,0,1-.33524-.08985l-.61287-1.05987"/>
    </g>
    <g id="two">
      <path id="box-2" data-name="box" class="cls-44" d="M162.96861,549.94958c0-.636-.02508-1.301-.07377-1.88224-.16966-.863-.25892-1.37323-1.04307-1.6155a18.56026,18.56026,0,0,0-11.08419,0c-.78489.24227-.87415.75248-1.04307,1.6155-.05016.58123-.07451,1.24627-.07451,1.88224,0,.63475.02435,1.29979.07451,1.881.16892.86189.25818,1.37323,1.04307,1.61544a18.58435,18.58435,0,0,0,11.08419,0c.78415-.24221.87341-.75355,1.04307-1.61544.04869-.58123.07377-1.24627.07377-1.881"/>
      <g>
        <path class="cls-45" d="M159.80977,550.48352c-.06683-.09792-.13365-.07372-.18663,0l-.61173,1.05987a.25235.25235,0,0,1-.34215.08985l-.03916-.02995a.22889.22889,0,0,1-.08986-.32948l.58292-1.01493c.0887-.14054.04377-.22234-.11175-.21543h-1.18774a.23951.23951,0,0,1-.24538-.24653V549.752a.24092.24092,0,0,1,.24538-.25459h1.17967c.1037,0,.26152,0,.11175-.19931l-.58176-1.02415a.23635.23635,0,0,1,.09677-.3433l.03916-.02995a.24035.24035,0,0,1,.33408.09792l.60482,1.07369c.0818.10368.14861.07488.20161-.00576l.61978-1.06793a.22047.22047,0,0,1,.32833-.08985l.05068.01266a.24371.24371,0,0,1,.0818.35252l-.58869,1.03107c-.04377.08985-.08179.17856.09677.19239h1.21079a.2409.2409,0,0,1,.24537.25459v.04493a.23949.23949,0,0,1-.24537.24653h-1.22461c-.09677,0-.16474.08871-.08986.20852l.5956,1.02184a.22881.22881,0,0,1-.09561.33639l-.03687.023a.24312.24312,0,0,1-.33524-.08985l-.61287-1.05987"/>
        <path class="cls-45" d="M152.99549,550.48352c-.06684-.09792-.13365-.07372-.18663,0l-.61174,1.05987a.25234.25234,0,0,1-.34214.08985l-.03917-.02995a.2289.2289,0,0,1-.08986-.32948l.58292-1.01493c.0887-.14054.04377-.22234-.11175-.21543h-1.18774a.2395.2395,0,0,1-.24537-.24653V549.752a.24091.24091,0,0,1,.24537-.25459h1.17968c.10369,0,.26151,0,.11174-.19931l-.58176-1.02415a.23636.23636,0,0,1,.09677-.3433l.03917-.02995a.24035.24035,0,0,1,.33408.09792l.60482,1.07369c.08179.10368.14861.07488.20161-.00576l.61978-1.06793a.22047.22047,0,0,1,.32833-.08985l.05068.01266a.24371.24371,0,0,1,.08179.35252l-.58869,1.03107c-.04377.08985-.08179.17856.09677.19239h1.21079a.24091.24091,0,0,1,.24538.25459v.04493a.2395.2395,0,0,1-.24538.24653h-1.2246c-.09677,0-.16475.08871-.08986.20852l.59559,1.02184a.2288.2288,0,0,1-.09561.33639l-.03686.023a.24311.24311,0,0,1-.33524-.08985l-.61287-1.05987"/>
      </g>
    </g>
    <g id="three">
      <path id="box-3" data-name="box" class="cls-46" d="M166.38571,549.94958a15.44092,15.44092,0,0,0-.11162-1.88224c-.25672-.863-.39178-1.37323-1.5783-1.6155a41.94905,41.94905,0,0,0-16.77185,0c-1.18764.24227-1.3227.75248-1.57829,1.6155a15.75718,15.75718,0,0,0,0,3.76326c.25559.86189.39065,1.37323,1.57829,1.61544a42.005,42.005,0,0,0,16.77185,0c1.18652-.24221,1.32158-.75355,1.5783-1.61544a15.4354,15.4354,0,0,0,.11162-1.881"/>
      <g>
        <path class="cls-45" d="M156.40263,550.48352c-.06683-.09792-.13365-.07372-.18663,0l-.61173,1.05987a.25235.25235,0,0,1-.34215.08985l-.03916-.02995a.2289.2289,0,0,1-.08987-.32948l.58292-1.01493c.08871-.14054.04377-.22234-.11174-.21543h-1.18774a.2395.2395,0,0,1-.24538-.24653V549.752a.24092.24092,0,0,1,.24538-.25459h1.17967c.10369,0,.26151,0,.11175-.19931l-.58176-1.02415a.23635.23635,0,0,1,.09677-.3433l.03916-.02995a.24035.24035,0,0,1,.33408.09792l.60482,1.07369c.08179.10368.14861.07488.20161-.00576l.61978-1.06793a.22047.22047,0,0,1,.32833-.08985l.05068.01266a.2437.2437,0,0,1,.08179.35252l-.58868,1.03107c-.04377.08985-.0818.17856.09677.19239h1.21078a.24091.24091,0,0,1,.24538.25459v.04493a.2395.2395,0,0,1-.24538.24653h-1.2246c-.09677,0-.16475.08871-.08986.20852l.59559,1.02184a.22879.22879,0,0,1-.09561.33639l-.03686.023a.24312.24312,0,0,1-.33524-.08985l-.61287-1.05987"/>
        <path class="cls-45" d="M149.58834,550.48352c-.06683-.09792-.13365-.07372-.18663,0l-.61173,1.05987a.25235.25235,0,0,1-.34215.08985l-.03916-.02995a.2289.2289,0,0,1-.08986-.32948l.58292-1.01493c.0887-.14054.04377-.22234-.11175-.21543h-1.18774a.23951.23951,0,0,1-.24538-.24653V549.752a.24092.24092,0,0,1,.24538-.25459h1.17967c.1037,0,.26152,0,.11175-.19931l-.58176-1.02415a.23636.23636,0,0,1,.09677-.3433l.03916-.02995a.24035.24035,0,0,1,.33408.09792l.60483,1.07369c.08179.10368.1486.07488.2016-.00576l.61978-1.06793a.22048.22048,0,0,1,.32834-.08985l.05067.01266a.24371.24371,0,0,1,.0818.35252l-.58869,1.03107c-.04377.08985-.08179.17856.09677.19239h1.21079a.24091.24091,0,0,1,.24538.25459v.04493a.2395.2395,0,0,1-.24538.24653h-1.22461c-.09677,0-.16474.08871-.08986.20852l.5956,1.02184a.22881.22881,0,0,1-.09561.33639l-.03686.023a.24311.24311,0,0,1-.33524-.08985l-.61288-1.05987"/>
        <path class="cls-45" d="M163.21691,550.48352c-.06683-.09792-.13364-.07372-.18663,0l-.61173,1.05987a.25234.25234,0,0,1-.34214.08985l-.03917-.02995a.2289.2289,0,0,1-.08986-.32948l.58292-1.01493c.0887-.14054.04377-.22234-.11175-.21543h-1.18774a.23951.23951,0,0,1-.24538-.24653V549.752a.24092.24092,0,0,1,.24538-.25459h1.17967c.1037,0,.26152,0,.11175-.19931l-.58176-1.02415a.23636.23636,0,0,1,.09677-.3433l.03917-.02995a.24034.24034,0,0,1,.33407.09792l.60483,1.07369c.08179.10368.14861.07488.2016-.00576l.61979-1.06793a.22047.22047,0,0,1,.32833-.08985l.05068.01266a.24371.24371,0,0,1,.08179.35252l-.58869,1.03107c-.04377.08985-.08179.17856.09677.19239h1.21079a.24091.24091,0,0,1,.24538.25459v.04493a.2395.2395,0,0,1-.24538.24653h-1.2246c-.09677,0-.16475.08871-.08987.20852l.5956,1.02184a.22881.22881,0,0,1-.09561.33639l-.03686.023a.24311.24311,0,0,1-.33524-.08985l-.61288-1.05987"/>
      </g>
    </g>
    <path id="four" class="cls-45" d="M146.0002,551.80389l1.103,1.912a.43949.43949,0,0,0,.607.163l.067-.041a.41768.41768,0,0,0,.175-.607l-1.077-1.84406c-.135-.215-.014-.37695.161-.37695h2.208a.43231.43231,0,0,0,.445-.444v-.081a.43583.43583,0,0,0-.445-.458h-2.182c-.322-.026-.255-.187-.173-.35l1.063-1.858a.44125.44125,0,0,0-.147-.633l-.095-.027a.3992.3992,0,0,0-.593.162l-1.117,1.926c-.096.147-.216.201-.363.013l-1.091-1.939a.43815.43815,0,0,0-.607-.175l-.067.054a.42539.42539,0,0,0-.175.619l1.051,1.846c.269.362-.014.362-.202.362h-2.128a.43482.43482,0,0,0-.443.458v.081a.43125.43125,0,0,0,.443.444h2.141c.283-.013.364.135.203.38995l-1.051,1.83106a.40826.40826,0,0,0,.161.59295l.067.055a.45491.45491,0,0,0,.62-.163l1.104-1.912c.094-.133.216-.174.337,0m24.793-1.224a12.71151,12.71151,0,0,0-.1-1.616c-.23-.741-.351-1.179-1.414-1.387a39.18459,39.18459,0,0,0-15.026,0c-1.064.208-1.185.64606-1.414,1.387a12.96939,12.96939,0,0,0,0,3.231c.229.74.35,1.179,1.414,1.387a39.2365,39.2365,0,0,0,15.026,0c1.063-.20795,1.184-.647,1.414-1.387a12.70724,12.70724,0,0,0,.1-1.615m-31.479-4.895h33.17a.40543.40543,0,0,1,.429.417v8.913a.40566.40566,0,0,1-.429.418h-33.17a.40289.40289,0,0,1-.416-.418v-8.913a.40265.40265,0,0,1,.416-.417m16.41361,5.36551c-.058-.085-.116-.064-.162,0l-.531.92a.219.219,0,0,1-.297.078l-.034-.026a.19868.19868,0,0,1-.078-.286l.506-.881c.077-.122.038-.193-.097-.187h-1.031a.2079.2079,0,0,1-.213-.214v-.039a.20913.20913,0,0,1,.213-.221h1.024c.09,0,.227,0,.097-.173l-.505-.889a.20515.20515,0,0,1,.084-.298l.034-.026a.20863.20863,0,0,1,.29.085l.525.932c.071.09.129.065.175-.005l.538-.927a.19139.19139,0,0,1,.285-.078l.044.011a.21155.21155,0,0,1,.071.306l-.511.895c-.038.078-.071.155.084.167h1.051a.20912.20912,0,0,1,.213.221v.039a.20789.20789,0,0,1-.213.214h-1.063c-.084,0-.143.077-.078.181l.517.887a.19861.19861,0,0,1-.083.292l-.032.02a.211.211,0,0,1-.291-.078l-.532-.92m6.0782,0c-.059-.085-.117-.064-.162,0l-.531.92a.21879.21879,0,0,1-.297.078l-.033-.026a.19757.19757,0,0,1-.079-.286l.506-.881c.078-.122.039-.193-.097-.187h-1.031a.2093.2093,0,0,1-.214-.214v-.039a.21047.21047,0,0,1,.214-.221h1.025c.09,0,.226,0,.097-.173l-.505-.889a.20381.20381,0,0,1,.084-.298l.033-.026a.21.21,0,0,1,.291.085l.524.932c.071.09.13.065.175-.005l.537-.927a.19241.19241,0,0,1,.286-.078l.044.011a.21155.21155,0,0,1,.071.306l-.51.895c-.039.078-.071.155.084.167h1.05a.2099.2099,0,0,1,.214.221v.039a.20871.20871,0,0,1-.214.214h-1.063c-.084,0-.142.077-.078.181l.517.887a.19827.19827,0,0,1-.084.292l-.031.02a.21268.21268,0,0,1-.292-.078l-.531-.92m6.10941,0c-.059-.085-.117-.064-.162,0l-.531.92a.21879.21879,0,0,1-.297.078l-.033-.026a.19756.19756,0,0,1-.079-.286l.506-.881c.078-.122.039-.193-.097-.187h-1.031a.20849.20849,0,0,1-.213-.214v-.039a.2097.2097,0,0,1,.213-.221h1.025c.09,0,.226,0,.097-.173l-.505-.889a.2038.2038,0,0,1,.084-.298l.033-.026a.21.21,0,0,1,.291.085l.524.932c.072.09.13.065.175-.005l.537-.927a.19241.19241,0,0,1,.286-.078l.044.011a.21154.21154,0,0,1,.071.306l-.51.895c-.039.078-.071.155.084.167h1.05a.20912.20912,0,0,1,.213.221v.039a.2079.2079,0,0,1-.213.214h-1.063c-.084,0-.142.077-.078.181l.517.887a.19861.19861,0,0,1-.083.292l-.032.02a.21267.21267,0,0,1-.292-.078l-.531-.92"/>
  </g>
</svg>
