<svg xmlns="http://www.w3.org/2000/svg" xmlns:xlink="http://www.w3.org/1999/xlink" id="Layer_1" data-name="Layer 1" width="110mm" height="220mm" viewBox="0 0 311.81 623.62" data-rating-increment="23.37" data-supplier-model-chars-per-row="15">
  <defs>
    <style>
      .cls-1, .cls-17, .cls-4, .cls-5, .cls-8, .cls-9 {
        fill: none;
      }

      .cls-2 {
        clip-path: url(#clip-path);
      }

      .cls-3 {
        clip-path: url(#clip-path-2);
      }

      .cls-17, .cls-4, .cls-5 {
        stroke: #2cabe2;
      }

      .cls-4 {
        stroke-width: 5px;
      }

      .cls-5 {
        stroke-width: 2px;
      }

      .cls-6 {
        clip-path: url(#clip-path-4);
      }

      .cls-7 {
        fill: #2cabe2;
      }

      .cls-8 {
        stroke: #fff;
        stroke-width: 3.78px;
      }

      .cls-9 {
        stroke: #67cef4;
        stroke-linecap: round;
        stroke-linejoin: round;
        stroke-width: 4.32px;
      }

      .cls-10, .cls-25, .cls-27, .cls-30, .cls-31, .cls-32 {
        fill: #231f20;
      }

      .cls-11 {
        clip-path: url(#clip-path-10);
      }

      .cls-12 {
        fill: #e7f6fc;
      }

      .cls-13 {
        fill: #294ca1;
      }

      .cls-14 {
        fill: #fcee21;
      }

      .cls-15, .cls-28, .cls-29 {
        fill: #fff;
      }

      .cls-16 {
        clip-path: url(#clip-path-13);
      }

      .cls-18 {
        fill: #b2d235;
      }

      .cls-19 {
        fill: #51b848;
      }

      .cls-20 {
        fill: #00a64e;
      }

      .cls-21 {
        fill: #f8b219;
      }

      .cls-22 {
        fill: #f15d22;
      }

      .cls-23 {
        fill: #ec2027;
      }

      .cls-24 {
        clip-path: url(#clip-path-16);
      }

      .cls-25 {
        font-size: 17px;
      }

      .cls-25, .cls-29, .cls-32 {
        font-family: Calibri;
      }

      .cls-26 {
        letter-spacing: 0.02298em;
      }

      .cls-27 {
        font-size: 11px;
      }

      .cls-27, .cls-28, .cls-30, .cls-31 {
        font-family: Calibri-Bold, Calibri;
        font-weight: 700;
      }

      .cls-28 {
        font-size: 29px;
      }

      .cls-29 {
        font-size: 18px;
      }

      .cls-30 {
        font-size: 30px;
      }

      .cls-31 {
        font-size: 25px;
      }

      .cls-32 {
        font-size: 16px;
      }
    </style>
    <clipPath id="clip-path">
      <rect class="cls-1" y="-0.00201" width="311.80899" height="623.62097"/>
    </clipPath>
    <clipPath id="clip-path-2">
      <rect class="cls-1" y="-0.00201" width="312" height="624"/>
    </clipPath>
    <clipPath id="clip-path-4">
      <rect class="cls-1" x="186.73" y="490.39299" width="62.36299" height="56.691"/>
    </clipPath>
    <clipPath id="clip-path-10">
      <rect class="cls-1" x="81.141" y="484.72099" width="17.719" height="69.449"/>
    </clipPath>
    <clipPath id="clip-path-13">
      <rect class="cls-1" x="25.512" y="25.51001" width="260.789" height="51.02301"/>
    </clipPath>
    <clipPath id="clip-path-16">
      <rect class="cls-1" x="24.805" y="148.53299" width="181.648" height="234.85201"/>
    </clipPath>
  </defs>
  <title>wine-storage-appliances</title>
  <g class="cls-2">
    <g class="cls-3">
      <g class="cls-3">
        <path class="cls-4" d="M24.102,16.67c-1.254.015-7.43.453-7.43,7.422V599.525c.016,1.227.441,7.422,7.422,7.422H287.715c1.23-.015,7.422-.441,7.422-7.422V24.092c-.012-1.227-.438-7.422-7.422-7.422Z"/>
        <path class="cls-5" d="M39.27,482.889s-9.922,0-9.922,9.921v80.204s0,9.921,9.922,9.921h98.628s9.922,0,9.922-9.921V492.81s0-9.921-9.922-9.921Z"/>
        <path class="cls-5" d="M166.117,482.889s-9.922,0-9.922,9.921v80.204s0,9.921,9.922,9.921H273.254s9.918,0,9.918-9.921V492.81s0-9.921-9.918-9.921Z"/>
      </g>
    </g>
  </g>
  <g class="cls-6">
    <g class="cls-3">
      <g class="cls-3">
        <path class="cls-7" d="M211.145,530.943q-3.804-3.39152-7.61-6.785h-5.422V513.314h5.422q3.80851-3.3915,7.61-6.785l3.148-2.804v30.027Z"/>
        <path class="cls-8" d="M211.145,530.943q-3.804-3.39152-7.61-6.785h-5.422V513.314h5.422q3.80851-3.3915,7.61-6.785l3.148-2.804v30.027Z"/>
        <path class="cls-9" d="M231.473,497.635a38.47067,38.47067,0,0,1,.07,42.207m-7.023-36.387a26.44844,26.44844,0,0,1,.082,30.516m-6.786-24.746a14.91814,14.91814,0,0,1,.129,18.925"/>
      </g>
    </g>
  </g>
  <g class="cls-2">
    <g class="cls-3">
      <g class="cls-3">
        <path class="cls-5" d="M215.016,405.643s-9.922,0-9.922,9.921v49.024s0,9.922,9.922,9.922h57.527s9.922,0,9.922-9.922V415.564s0-9.921-9.922-9.921Z"/>


      </g>
    </g>
  </g>
  <g class="cls-11">
    <g class="cls-3">
      <g class="cls-3">
        <path class="cls-7" d="M90,554.166a44.88856,44.88856,0,0,0,6.871-.504c1.715-.508,1.988-3.605,1.988-3.605V513.31a13.239,13.239,0,0,0-3.129-7.949c-.96-1.281-1.691-1.734-1.941-3.859-.176-1.481-.519-13.383-.519-13.383h.171V486.24l-.168-.023c0-1.496-.601-1.328-1.035-1.407-.437-.082-2.238-.082-2.238-.082s-1.801,0-2.234.082c-.438.079-1.039-.089-1.039,1.407l-.168.023v1.879h.171s-.343,11.902-.515,13.383c-.254,2.125-.985,2.578-1.945,3.859a13.239,13.239,0,0,0-3.129,7.949v36.747s.175,3.003,1.988,3.605c1.527.508,6.871.504,6.871.504"/>
        <path class="cls-12" d="M81.145,520.705v18.086c5.91.273,11.804.273,17.714.004V520.709a172.71,172.71,0,0,1-17.714-.004"/>
        <path class="cls-12" d="M95.492,508.951c.321.973.113,1.91-.453,2.098-.566.183-1.285-.453-1.601-1.422-.317-.973-.118-1.906.453-2.094.57-.187,1.285.449,1.601,1.418"/>
        <path class="cls-12" d="M92.57,489.498c0,.375-.191.676-.433.676-.239,0-.434-.301-.434-.676s.195-.676.434-.676c.242,0,.433.301.433.676"/>
      </g>
    </g>
  </g>
  
  <rect class="cls-7" x="104.133" y="25.646" width="182.16799" height="50.81598"/>
  
  
  
  
  
  
  
  
  
  
  
  


  <line class="cls-17" x1="24.805" y1="126.63901" x2="287.008" y2="126.63901"/>
  <rect class="cls-15" x="24.805" y="148.53299" width="181.648" height="234.85201"/>
  <polygon class="cls-14" points="24.805 223.682 24.805 243.373 122.797 243.373 132.547 233.525 122.797 223.682 24.805 223.682"/>
  <polygon class="cls-18" points="24.805 200.295 24.805 219.986 111.438 219.986 121.191 210.143 111.438 200.295 24.805 200.295"/>
  <polygon class="cls-19" points="24.805 176.908 24.805 196.6 100.082 196.6 109.836 186.756 100.082 176.908 24.805 176.908"/>
  <polygon class="cls-20" points="24.805 153.525 24.805 173.217 91.273 173.217 101.027 163.369 91.273 153.525 24.805 153.525"/>
  <polygon class="cls-21" points="24.805 247.06 24.805 266.748 134.414 266.748 144.18 256.904 134.414 247.06 24.805 247.06"/>
  <polygon class="cls-22" points="24.805 270.435 24.805 290.127 145.766 290.127 155.531 280.283 145.766 270.435 24.805 270.435"/>
  <polygon class="cls-23" points="24.805 293.814 24.805 313.502 157.113 313.502 166.883 303.658 157.113 293.814 24.805 293.814"/>
  <polygon class="cls-23" points="24.805 317.189 24.805 336.881 168.465 336.881 178.234 327.037 168.465 317.189 24.805 317.189"/>
  <polygon class="cls-23" points="24.805 340.564 24.805 360.26 179.813 360.26 189.594 350.416 179.813 340.564 24.805 340.564"/>
  <polygon class="cls-23" points="24.805 363.939 24.805 383.381 190.844 383.381 200.996 373.791 190.578 363.939 24.805 363.939"/>
  <g class="cls-24">
    <g class="cls-3">
      <g class="cls-3">
        <path class="cls-15" d="M251.836,236.416l-.863,3.133h-2.844l3.707-12.203h3.594l3.761,12.203h-2.953l-.933-3.133Zm3.074-2.063-.758-2.589c-.214-.723-.429-1.629-.609-2.352h-.035c-.18.723-.363,1.645-.559,2.352l-.719,2.589Z"/>
        <path class="cls-15" d="M248.219,250.916a21.38325,21.38325,0,0,1,3.543-.254,6.63852,6.63852,0,0,1,3.582.688,2.66044,2.66044,0,0,1,1.457,2.39,2.75988,2.75988,0,0,1-1.996,2.606v.035a3.04907,3.04907,0,0,1,2.406,3.008,3.26557,3.26557,0,0,1-1.254,2.589c-.883.707-2.359,1.102-4.769,1.102a21.24389,21.24389,0,0,1-2.969-.18Zm2.715,4.668h.898c1.445,0,2.215-.598,2.215-1.5,0-.926-.703-1.414-1.942-1.414a7.08066,7.08066,0,0,0-1.171.074Zm0,5.414a8.04129,8.04129,0,0,0,1.062.039c1.242,0,2.34-.488,2.34-1.758,0-1.234-1.098-1.719-2.465-1.719h-.937Z"/>
        <path class="cls-15" d="M257.184,286.014a7.6401,7.6401,0,0,1-3.114.546c-4.195,0-6.351-2.644-6.351-6.121,0-4.164,2.949-6.48,6.621-6.48a7.13183,7.13183,0,0,1,2.988.543l-.558,2.191a5.92453,5.92453,0,0,0-2.305-.453,4.0123,4.0123,0,0,0,.019,8.02,6.76979,6.76979,0,0,0,2.286-.399Z"/>
        <path class="cls-15" d="M247.441,297.725a24.66256,24.66256,0,0,1,3.707-.254,7.73769,7.73769,0,0,1,4.965,1.308,5.39516,5.39516,0,0,1,2.051,4.594,6.19276,6.19276,0,0,1-2.016,4.945,8.65814,8.65814,0,0,1-5.593,1.575,23.64476,23.64476,0,0,1-3.114-.184Zm2.754,9.957a4.714,4.714,0,0,0,.953.058c2.485.016,4.102-1.363,4.102-4.277a3.48653,3.48653,0,0,0-3.812-3.871,5.46812,5.46812,0,0,0-1.243.109Z"/>
        <polygon class="cls-15" points="254.598 327.908 250.133 327.908 250.133 330.807 255.117 330.807 255.117 333.068 247.383 333.068 247.383 320.865 254.867 320.865 254.867 323.135 250.133 323.135 250.133 325.666 254.598 325.666 254.598 327.908"/>
        <polygon class="cls-15" points="247.887 344.271 255.297 344.271 255.297 346.537 250.637 346.537 250.637 349.322 254.988 349.322 254.988 351.572 250.637 351.572 250.637 356.475 247.887 356.475 247.887 344.271"/>
        <path class="cls-15" d="M258.438,379.217a13.55726,13.55726,0,0,1-4.051.687,6.73958,6.73958,0,0,1-4.93-1.648,5.94261,5.94261,0,0,1-1.707-4.434c.016-4.054,2.953-6.375,6.926-6.375a8.29115,8.29115,0,0,1,3.363.598l-.574,2.211a6.63568,6.63568,0,0,0-2.824-.524,3.97679,3.97679,0,0,0-.2,7.95,3.62757,3.62757,0,0,0,1.352-.184v-2.555h-1.875v-2.156h4.52Z"/>
        <path class="cls-15" d="M251.469,143.631l-.864,3.117h-2.828l3.692-12.137h3.597l3.786,12.137h-2.973l-.938-3.117Zm3.078-2.051-.758-2.574c-.215-.723-.43-1.621-.609-2.34h-.035c-.18.719-.364,1.637-.563,2.34l-.719,2.574Z"/>
        <rect class="cls-15" x="260.06299" y="137.939" width="3.14099" height="1.211"/>
        <path class="cls-15" d="M265.34,137.674a1.92364,1.92364,0,0,1-1.129-1.715c0-1.316,1.191-2.195,2.75-2.195,1.824,0,2.578,1.058,2.578,2.004a1.88726,1.88726,0,0,1-1.141,1.714v.036a2.054,2.054,0,0,1,1.438,1.933c0,1.414-1.184,2.375-2.996,2.375-1.977,0-2.891-1.117-2.891-2.172a2.07488,2.07488,0,0,1,1.391-1.957Zm2.64,1.922c0-.684-.515-1.094-1.226-1.286a1.18438,1.18438,0,0,0-.945,1.165,1.06606,1.06606,0,0,0,1.105,1.089.98461.98461,0,0,0,1.066-.968m-2.039-3.696c0,.528.469.864,1.09,1.055a1.065,1.065,0,0,0,.793-.984.89585.89585,0,0,0-.949-.969.86419.86419,0,0,0-.934.898"/>
        <path class="cls-15" d="M276.484,137.76c0,2.398-.968,4.066-2.949,4.066-2.015,0-2.902-1.812-2.914-4.019,0-2.266.949-4.043,2.965-4.043,2.074,0,2.898,1.859,2.898,3.996m-4.039.047c0,1.789.434,2.64,1.129,2.64.707,0,1.09-.89,1.09-2.664,0-1.726-.371-2.64-1.105-2.64-.661,0-1.114.839-1.114,2.664"/>
        <path class="cls-15" d="M281.492,136.08a2.23352,2.23352,0,0,1-2.16,2.496,2.14428,2.14428,0,0,1-2.121-2.363,2.22749,2.22749,0,0,1,2.195-2.449,2.07358,2.07358,0,0,1,2.086,2.316m-2.926.098c-.015.812.274,1.402.801,1.402.516,0,.77-.527.77-1.418,0-.789-.219-1.402-.793-1.402-.539,0-.778.625-.778,1.418m.852,5.648,4.484-8.051h.973l-4.473,8.051Zm7.684-2.508a2.23034,2.23034,0,0,1-2.157,2.485,2.13859,2.13859,0,0,1-2.109-2.352,2.22494,2.22494,0,0,1,2.18-2.449,2.07359,2.07359,0,0,1,2.086,2.316m-2.911.082c-.015.817.274,1.407.789,1.407.516,0,.77-.528.77-1.407,0-.789-.215-1.402-.781-1.402-.539,0-.778.625-.778,1.402"/>
        <path class="cls-15" d="M251.469,167.193l-.864,3.114h-2.828l3.692-12.137h3.597l3.786,12.137h-2.973l-.938-3.114Zm3.078-2.054-.758-2.575c-.215-.718-.43-1.621-.609-2.339h-.035c-.18.718-.364,1.636-.563,2.339l-.719,2.575Z"/>
        <rect class="cls-15" x="260.06299" y="161.49399" width="3.14099" height="1.215"/>
        <path class="cls-15" d="M269.047,158.752a4.56444,4.56444,0,0,0-.707.023,2.49382,2.49382,0,0,0-2.543,1.86h.035a2.254,2.254,0,0,1,1.656-.614,2.366,2.366,0,0,1,2.41,2.543,2.78784,2.78784,0,0,1-2.867,2.817c-2.086,0-3.105-1.547-3.105-3.406a4.329,4.329,0,0,1,4.39-4.618,3.89555,3.89555,0,0,1,.731-.011Zm-.996,3.906a1.18786,1.18786,0,0,0-1.16-1.34,1.16686,1.16686,0,0,0-1.071.684.966.966,0,0,0-.082.465c.035.828.43,1.574,1.27,1.574.637,0,1.043-.59,1.043-1.383"/>
        <path class="cls-15" d="M276.484,161.318c0,2.399-.968,4.063-2.949,4.063-2.015,0-2.902-1.809-2.914-4.016,0-2.269.949-4.043,2.965-4.043,2.074,0,2.898,1.86,2.898,3.996m-4.039.047c0,1.785.434,2.637,1.129,2.637.707,0,1.09-.887,1.09-2.66,0-1.727-.371-2.641-1.105-2.641-.661,0-1.114.84-1.114,2.664"/>
        <path class="cls-15" d="M281.492,159.639a2.23211,2.23211,0,0,1-2.16,2.492,2.1421,2.1421,0,0,1-2.121-2.363,2.22489,2.22489,0,0,1,2.195-2.446,2.07439,2.07439,0,0,1,2.086,2.317m-2.926.093c-.015.817.274,1.407.801,1.407.516,0,.77-.532.77-1.418,0-.789-.219-1.403-.793-1.403-.539,0-.778.625-.778,1.414m.852,5.649,4.484-8.047h.973l-4.473,8.047Zm7.684-2.504a2.2258,2.2258,0,0,1-2.157,2.48,2.13553,2.13553,0,0,1-2.109-2.351,2.22231,2.22231,0,0,1,2.18-2.446,2.07439,2.07439,0,0,1,2.086,2.317m-2.911.082c-.015.816.274,1.402.789,1.402.516,0,.77-.527.77-1.402,0-.789-.215-1.402-.781-1.402-.539,0-.778.625-.778,1.402"/>
        <path class="cls-15" d="M251.469,190.9l-.864,3.114h-2.828l3.692-12.133h3.597l3.786,12.133h-2.973l-.938-3.114Zm3.078-2.054-.758-2.575c-.215-.718-.43-1.617-.609-2.339h-.035c-.18.722-.364,1.64-.563,2.339l-.719,2.575Z"/>
        <rect class="cls-15" x="260.06299" y="185.20099" width="3.14099" height="1.211"/>
        <path class="cls-15" d="M267.297,188.959V187.1h-3.453v-1.188l2.937-4.75h2.242v4.57h.922V187.1h-.922v1.859Zm0-3.227v-1.73c0-.465.023-.945.047-1.449h-.035c-.25.504-.469.961-.735,1.449l-1.031,1.707-.012.023Z"/>
        <path class="cls-15" d="M276.484,185.025c0,2.395-.968,4.063-2.949,4.063-2.015,0-2.902-1.809-2.914-4.016,0-2.265.949-4.043,2.965-4.043,2.074,0,2.898,1.86,2.898,3.996m-4.039.047c0,1.785.434,2.637,1.129,2.637.707,0,1.09-.887,1.09-2.664,0-1.723-.371-2.637-1.105-2.637-.661,0-1.114.84-1.114,2.664"/>
        <path class="cls-15" d="M281.492,183.346a2.2321,2.2321,0,0,1-2.16,2.492,2.1421,2.1421,0,0,1-2.121-2.363,2.2249,2.2249,0,0,1,2.195-2.446,2.07439,2.07439,0,0,1,2.086,2.317m-2.926.093c-.015.817.274,1.407.801,1.407.516,0,.77-.532.77-1.418,0-.789-.219-1.403-.793-1.403-.539,0-.778.625-.778,1.414m.852,5.649,4.484-8.047h.973l-4.473,8.047Zm7.684-2.504a2.22581,2.22581,0,0,1-2.157,2.48,2.13554,2.13554,0,0,1-2.109-2.351,2.22148,2.22148,0,0,1,2.18-2.445,2.07359,2.07359,0,0,1,2.086,2.316m-2.911.082c-.015.816.274,1.402.789,1.402.516,0,.77-.527.77-1.402,0-.789-.215-1.402-.781-1.402-.539,0-.778.625-.778,1.402"/>
        <path class="cls-15" d="M251.469,213.916l-.864,3.113h-2.828l3.692-12.136h3.597l3.786,12.136h-2.973l-.938-3.113Zm3.078-2.055-.758-2.574c-.215-.719-.43-1.621-.609-2.34h-.035c-.18.719-.364,1.637-.563,2.34l-.719,2.574Z"/>
        <rect class="cls-15" x="260.06299" y="208.21698" width="3.14099" height="1.211"/>
        <path class="cls-15" d="M264.082,211.971v-1.102l.996-.898c1.715-1.536,2.539-2.411,2.555-3.325,0-.636-.371-1.14-1.274-1.14a2.903,2.903,0,0,0-1.668.637l-.511-1.293a4.25094,4.25094,0,0,1,2.543-.805,2.41123,2.41123,0,0,1,2.73,2.433c0,1.321-.933,2.364-2.074,3.372l-.719.597v.028h2.949v1.496Z"/>
        <path class="cls-15" d="M276.484,208.037c0,2.398-.968,4.066-2.949,4.066-2.015,0-2.902-1.808-2.914-4.015,0-2.27.949-4.043,2.965-4.043,2.074,0,2.898,1.859,2.898,3.992m-4.039.051c0,1.785.434,2.637,1.129,2.637.707,0,1.09-.887,1.09-2.665,0-1.726-.371-2.636-1.105-2.636-.661,0-1.114.84-1.114,2.664"/>
        <path class="cls-15" d="M281.492,206.357a2.23353,2.23353,0,0,1-2.16,2.496,2.14157,2.14157,0,0,1-2.121-2.363,2.22458,2.22458,0,0,1,2.195-2.445,2.07224,2.07224,0,0,1,2.086,2.312m-2.926.098c-.015.816.274,1.402.801,1.402.516,0,.77-.527.77-1.414,0-.793-.219-1.406-.793-1.406-.539,0-.778.625-.778,1.418m.852,5.648,4.484-8.046h.973l-4.473,8.046Zm7.684-2.507a2.22721,2.22721,0,0,1-2.157,2.484,2.1364,2.1364,0,0,1-2.109-2.352,2.222,2.222,0,0,1,2.18-2.445,2.07306,2.07306,0,0,1,2.086,2.313m-2.911.086c-.015.816.274,1.402.789,1.402.516,0,.77-.527.77-1.402,0-.793-.215-1.403-.781-1.403-.539,0-.778.621-.778,1.403"/>
      </g>
    </g>
  </g>
  <path class="cls-15" d="M46.23,168.346a3.23847,3.23847,0,0,1,.141.527.32059.32059,0,0,1-.074.293.63251.63251,0,0,1-.363.121c-.172.016-.411.023-.715.023-.313,0-.559-.003-.735-.015a1.79293,1.79293,0,0,1-.406-.055.37333.37333,0,0,1-.195-.117.618.618,0,0,1-.09-.191l-.809-2.414H38.477l-.762,2.347a.77809.77809,0,0,1-.098.219.37544.37544,0,0,1-.195.137,1.35567,1.35567,0,0,1-.379.07c-.164.012-.379.019-.645.019a5.85449,5.85449,0,0,1-.668-.027.49832.49832,0,0,1-.335-.137.3534.3534,0,0,1-.063-.3,2.85466,2.85466,0,0,1,.137-.52l3.703-10.648a.86293.86293,0,0,1,.129-.258.468.468,0,0,1,.238-.149,1.96028,1.96028,0,0,1,.449-.062c.192-.012.446-.016.762-.016.363,0,.652.004.871.016a2.46655,2.46655,0,0,1,.504.062.49405.49405,0,0,1,.262.157.8828.8828,0,0,1,.133.277Zm-5.511-8.805h-.008l-1.695,5.102h3.402Z"/>
  <path class="cls-15" d="M53.613,160.549a2.22035,2.22035,0,0,1-.019.297.644.644,0,0,1-.059.191.22448.22448,0,0,1-.09.106.17644.17644,0,0,1-.105.031H51.363v2.152a.193.193,0,0,1-.031.113.22869.22869,0,0,1-.105.082,1.00485,1.00485,0,0,1-.204.055,2.53926,2.53926,0,0,1-.636,0,.91041.91041,0,0,1-.203-.055.27128.27128,0,0,1-.11-.082.19628.19628,0,0,1-.035-.113v-2.152H48.07a.16869.16869,0,0,1-.105-.031.27471.27471,0,0,1-.086-.106.78824.78824,0,0,1-.059-.191,1.66636,1.66636,0,0,1-.023-.297,2.22047,2.22047,0,0,1,.019-.297.667.667,0,0,1,.055-.195.24159.24159,0,0,1,.078-.106.16019.16019,0,0,1,.102-.031h1.988v-2.149a.22939.22939,0,0,1,.035-.117.26007.26007,0,0,1,.11-.086.73842.73842,0,0,1,.203-.054,2.53926,2.53926,0,0,1,.636,0,.80008.80008,0,0,1,.204.054.20865.20865,0,0,1,.136.203v2.149h1.996a.16224.16224,0,0,1,.098.031.23858.23858,0,0,1,.082.106.77546.77546,0,0,1,.055.195,2.22047,2.22047,0,0,1,.019.297"/>
  <path class="cls-15" d="M60.23,160.549a2.06485,2.06485,0,0,1-.019.297.54508.54508,0,0,1-.059.191.23674.23674,0,0,1-.086.106.18855.18855,0,0,1-.109.031H57.984v2.152a.18922.18922,0,0,1-.035.113.22347.22347,0,0,1-.105.082.926.926,0,0,1-.203.055,2.54726,2.54726,0,0,1-.637,0,.926.926,0,0,1-.203-.055.27128.27128,0,0,1-.11-.082.19628.19628,0,0,1-.035-.113v-2.152H54.688a.17742.17742,0,0,1-.106-.031.27471.27471,0,0,1-.086-.106.792.792,0,0,1-.058-.191,1.56918,1.56918,0,0,1-.024-.297,2.04944,2.04944,0,0,1,.02-.297.64.64,0,0,1,.054-.195.27676.27676,0,0,1,.078-.106.162.162,0,0,1,.102-.031h1.988v-2.149a.22939.22939,0,0,1,.035-.117.26007.26007,0,0,1,.11-.086.74852.74852,0,0,1,.203-.054,2.54726,2.54726,0,0,1,.637,0,.74852.74852,0,0,1,.203.054.21669.21669,0,0,1,.105.086.22016.22016,0,0,1,.035.117v2.149h1.993a.16143.16143,0,0,1,.097.031.23858.23858,0,0,1,.082.106.63736.63736,0,0,1,.055.195,2.065,2.065,0,0,1,.019.297"/>
  <path class="cls-15" d="M66.848,160.549a2.04934,2.04934,0,0,1-.02.297.56794.56794,0,0,1-.058.191.2505.2505,0,0,1-.086.106.19376.19376,0,0,1-.11.031H64.602v2.152a.19013.19013,0,0,1-.036.113.22347.22347,0,0,1-.105.082.86642.86642,0,0,1-.203.055,2.54726,2.54726,0,0,1-.637,0,.926.926,0,0,1-.203-.055.26072.26072,0,0,1-.109-.082.19013.19013,0,0,1-.036-.113v-2.152H61.305a.15311.15311,0,0,1-.102-.031.25578.25578,0,0,1-.09-.106.792.792,0,0,1-.058-.191,1.56918,1.56918,0,0,1-.024-.297,2.04944,2.04944,0,0,1,.02-.297.67.67,0,0,1,.054-.195.2678.2678,0,0,1,.079-.106.16486.16486,0,0,1,.101-.031h1.988v-2.149a.22167.22167,0,0,1,.036-.117.25054.25054,0,0,1,.109-.086.74852.74852,0,0,1,.203-.054,2.54726,2.54726,0,0,1,.637,0,.70952.70952,0,0,1,.203.054.21669.21669,0,0,1,.105.086.22167.22167,0,0,1,.036.117v2.149h1.992a.15368.15368,0,0,1,.097.031.23181.23181,0,0,1,.082.106.63736.63736,0,0,1,.055.195,2.04944,2.04944,0,0,1,.02.297"/>
  <path class="cls-15" d="M46.375,191.85a3.4611,3.4611,0,0,1,.141.527.33289.33289,0,0,1-.075.293.64123.64123,0,0,1-.363.121c-.176.016-.414.023-.715.023-.316,0-.562-.004-.738-.015a1.78988,1.78988,0,0,1-.402-.055.36069.36069,0,0,1-.196-.117.53735.53735,0,0,1-.093-.192l-.805-2.414H38.617l-.758,2.348a.87349.87349,0,0,1-.097.219.42943.42943,0,0,1-.196.137,1.36973,1.36973,0,0,1-.378.07c-.165.012-.383.019-.649.019a5.84321,5.84321,0,0,1-.668-.027.492.492,0,0,1-.332-.137.35442.35442,0,0,1-.066-.3,3.19437,3.19437,0,0,1,.14-.52l3.703-10.648a.91269.91269,0,0,1,.129-.258.44813.44813,0,0,1,.235-.149,1.987,1.987,0,0,1,.449-.062c.191-.012.445-.016.762-.016.367,0,.656.004.875.016a2.48691,2.48691,0,0,1,.504.062.45457.45457,0,0,1,.257.157.86106.86106,0,0,1,.137.277Zm-5.512-8.805h-.008l-1.699,5.101h3.407Z"/>
  <path class="cls-15" d="M53.121,184.053a1.70685,1.70685,0,0,1-.019.297.68445.68445,0,0,1-.055.191.23981.23981,0,0,1-.09.105.18267.18267,0,0,1-.109.032H50.875v2.152a.21656.21656,0,0,1-.031.113.27119.27119,0,0,1-.11.082.85209.85209,0,0,1-.203.055,2.214,2.214,0,0,1-.316.02,2.27211,2.27211,0,0,1-.317-.02.88008.88008,0,0,1-.203-.055.28315.28315,0,0,1-.113-.082.18741.18741,0,0,1-.035-.113v-2.152H47.582a.16365.16365,0,0,1-.105-.032.22833.22833,0,0,1-.086-.105.54508.54508,0,0,1-.059-.191,1.57787,1.57787,0,0,1-.023-.297,1.69989,1.69989,0,0,1,.019-.297.55371.55371,0,0,1,.055-.196.21041.21041,0,0,1,.078-.105.15148.15148,0,0,1,.102-.031h1.984v-2.149a.22938.22938,0,0,1,.035-.117.27078.27078,0,0,1,.113-.086.71923.71923,0,0,1,.203-.054,2.27231,2.27231,0,0,1,.317-.02,2.21418,2.21418,0,0,1,.316.02.70062.70062,0,0,1,.203.054.26007.26007,0,0,1,.11.086.26909.26909,0,0,1,.031.117v2.149h1.992a.17585.17585,0,0,1,.102.031.24823.24823,0,0,1,.082.105.86735.86735,0,0,1,.051.196,1.69989,1.69989,0,0,1,.019.297"/>
  <path class="cls-15" d="M59.738,184.053a1.70685,1.70685,0,0,1-.019.297.65223.65223,0,0,1-.055.191.23981.23981,0,0,1-.09.105.18267.18267,0,0,1-.109.032H57.492v2.152a.21656.21656,0,0,1-.031.113.24825.24825,0,0,1-.109.082.87592.87592,0,0,1-.204.055,2.214,2.214,0,0,1-.316.02,2.3,2.3,0,0,1-.316-.02.85209.85209,0,0,1-.203-.055.24606.24606,0,0,1-.11-.082.16729.16729,0,0,1-.039-.113v-2.152H54.199a.16365.16365,0,0,1-.105-.032.26354.26354,0,0,1-.086-.105.644.644,0,0,1-.059-.191,1.66652,1.66652,0,0,1-.023-.297,2.20907,2.20907,0,0,1,.019-.297.86735.86735,0,0,1,.051-.196.27377.27377,0,0,1,.082-.105.16019.16019,0,0,1,.102-.031h1.984v-2.149a.20223.20223,0,0,1,.039-.117.23724.23724,0,0,1,.11-.086.70062.70062,0,0,1,.203-.054,2.30019,2.30019,0,0,1,.316-.02,2.21418,2.21418,0,0,1,.316.02.71769.71769,0,0,1,.204.054.23927.23927,0,0,1,.109.086.26909.26909,0,0,1,.031.117v2.149h1.992a.15457.15457,0,0,1,.098.031.22068.22068,0,0,1,.086.105.69679.69679,0,0,1,.051.196,1.69989,1.69989,0,0,1,.019.297"/>
  <path class="cls-15" d="M46.375,215.107a3.49751,3.49751,0,0,1,.141.528.33291.33291,0,0,1-.075.293.61256.61256,0,0,1-.363.121q-.264.02253-.715.023c-.316,0-.562-.004-.738-.015a1.79036,1.79036,0,0,1-.402-.055.36649.36649,0,0,1-.196-.117.54571.54571,0,0,1-.093-.192l-.805-2.414H38.617l-.758,2.348a.94389.94389,0,0,1-.097.219.39451.39451,0,0,1-.196.136,1.32944,1.32944,0,0,1-.378.071c-.165.011-.383.019-.649.019a6.07818,6.07818,0,0,1-.668-.027.50132.50132,0,0,1-.332-.137.35579.35579,0,0,1-.066-.301,3.18859,3.18859,0,0,1,.14-.519l3.703-10.649a.91913.91913,0,0,1,.129-.257.47368.47368,0,0,1,.235-.149,1.93181,1.93181,0,0,1,.449-.062c.191-.012.445-.016.762-.016.367,0,.656.004.875.016a2.41767,2.41767,0,0,1,.504.062.459.459,0,0,1,.257.156.87757.87757,0,0,1,.137.278Zm-5.512-8.804h-.008l-1.699,5.101h3.407Z"/>
  <path class="cls-15" d="M46.012,238.611a3.35559,3.35559,0,0,1,.14.528.322.322,0,0,1-.074.293.66015.66015,0,0,1-.363.121c-.172.015-.41.023-.711.023-.316,0-.563-.008-.738-.016a1.804,1.804,0,0,1-.407-.054.36009.36009,0,0,1-.191-.117.58671.58671,0,0,1-.094-.196l-.808-2.41H38.258l-.762,2.348a.70061.70061,0,0,1-.098.215.37908.37908,0,0,1-.195.14,1.3503,1.3503,0,0,1-.379.071c-.164.011-.379.019-.644.019-.285,0-.508-.012-.668-.027a.53149.53149,0,0,1-.336-.137.36969.36969,0,0,1-.063-.301,3.12145,3.12145,0,0,1,.137-.519l3.703-10.653a1.10817,1.10817,0,0,1,.129-.254.467.467,0,0,1,.238-.148,1.87589,1.87589,0,0,1,.45-.066q.2865-.012.761-.012c.364,0,.653.004.871.012a2.40031,2.40031,0,0,1,.508.066.50261.50261,0,0,1,.258.152.90391.90391,0,0,1,.133.282Zm-5.508-8.804h-.012l-1.695,5.101h3.402Z"/>
  <path class="cls-15" d="M45.063,258.756a3.608,3.608,0,0,1-.176,1.16,3.08152,3.08152,0,0,1-1.231,1.605,4.2717,4.2717,0,0,1-.949.473,5.87806,5.87806,0,0,1-1.109.274,9.05439,9.05439,0,0,1-1.313.089H37.094a.78384.78384,0,0,1-.516-.179.75589.75589,0,0,1-.207-.59V251.123a.75013.75013,0,0,1,.207-.59.764.764,0,0,1,.516-.18h3.015a7.978,7.978,0,0,1,1.868.184,3.74652,3.74652,0,0,1,1.293.563,2.47214,2.47214,0,0,1,.8.949,3.1032,3.1032,0,0,1,.278,1.355,2.909,2.909,0,0,1-.11.821,2.41235,2.41235,0,0,1-.851,1.257,2.744,2.744,0,0,1-.707.391,3.14944,3.14944,0,0,1,.941.324,2.67807,2.67807,0,0,1,1.254,1.457,3.07682,3.07682,0,0,1,.188,1.102m-3.157-5.055a1.77946,1.77946,0,0,0-.109-.648,1.20418,1.20418,0,0,0-.336-.481,1.55689,1.55689,0,0,0-.559-.293,3.34573,3.34573,0,0,0-.906-.097H38.762v3.117h1.363a2.29,2.29,0,0,0,.848-.129,1.47667,1.47667,0,0,0,.523-.34,1.36888,1.36888,0,0,0,.309-.512,1.81526,1.81526,0,0,0,.101-.617m.625,5.141a1.89029,1.89029,0,0,0-.14-.746,1.44977,1.44977,0,0,0-.407-.555,1.9253,1.9253,0,0,0-.687-.344,4.13125,4.13125,0,0,0-1.086-.117H38.762v3.414h1.765a2.9762,2.9762,0,0,0,.856-.109,1.72881,1.72881,0,0,0,.605-.317,1.43009,1.43009,0,0,0,.399-.519,1.7062,1.7062,0,0,0,.144-.707"/>
  <path class="cls-15" d="M44.672,283.795c0,.152-.004.285-.012.394a2.05022,2.05022,0,0,1-.043.278.78077.78077,0,0,1-.074.199.89265.89265,0,0,1-.148.191,2.05624,2.05624,0,0,1-.395.274,4.80326,4.80326,0,0,1-.715.32,5.9289,5.9289,0,0,1-.965.254,6.54777,6.54777,0,0,1-1.172.102,6.158,6.158,0,0,1-2.226-.379,4.36428,4.36428,0,0,1-1.688-1.137,5.11914,5.11914,0,0,1-1.07-1.887,8.52747,8.52747,0,0,1-.371-2.636,8.33266,8.33266,0,0,1,.41-2.719,5.66682,5.66682,0,0,1,1.141-1.992,4.74589,4.74589,0,0,1,1.758-1.227,5.95819,5.95819,0,0,1,2.257-.418,5.11868,5.11868,0,0,1,.965.086,6.17033,6.17033,0,0,1,.86.215,4.48734,4.48734,0,0,1,.711.312,2.12341,2.12341,0,0,1,.437.301.9906.9906,0,0,1,.176.211.77694.77694,0,0,1,.07.211,1.98361,1.98361,0,0,1,.043.309c.012.117.016.261.016.433,0,.188-.008.344-.02.473a1.15414,1.15414,0,0,1-.066.316.4368.4368,0,0,1-.11.176.21562.21562,0,0,1-.148.059.63368.63368,0,0,1-.352-.164,5.635,5.635,0,0,0-.554-.364,4.27219,4.27219,0,0,0-.805-.359,3.4074,3.4074,0,0,0-1.117-.164,2.70207,2.70207,0,0,0-1.277.293,2.7448,2.7448,0,0,0-.958.836,3.92723,3.92723,0,0,0-.597,1.312,7.66251,7.66251,0,0,0,.015,3.567,3.55042,3.55042,0,0,0,.622,1.277,2.53644,2.53644,0,0,0,.972.746,3.2114,3.2114,0,0,0,1.285.246,3.58267,3.58267,0,0,0,1.125-.156,5.05123,5.05123,0,0,0,.809-.336,6.24371,6.24371,0,0,0,.559-.336.68826.68826,0,0,1,.339-.148.2512.2512,0,0,1,.149.039.27825.27825,0,0,1,.09.148,1.4217,1.4217,0,0,1,.054.309,4.86371,4.86371,0,0,1,.02.535"/>
  <path class="cls-15" d="M45.98,302.935a8.2149,8.2149,0,0,1-.429,2.829,4.81216,4.81216,0,0,1-1.238,1.914,4.98256,4.98256,0,0,1-1.961,1.09,9.7235,9.7235,0,0,1-2.754.347H36.73a.67974.67974,0,0,1-.722-.769V297.881a.67992.67992,0,0,1,.722-.77h3.083a8.62472,8.62472,0,0,1,2.722.375,4.91855,4.91855,0,0,1,1.883,1.114,4.76591,4.76591,0,0,1,1.164,1.824,7.25912,7.25912,0,0,1,.398,2.511m-2.523.086a6.0167,6.0167,0,0,0-.199-1.586,3.40616,3.40616,0,0,0-.641-1.273,2.983,2.983,0,0,0-1.133-.84,4.59948,4.59948,0,0,0-1.812-.301H38.438v8.164h1.273a4.817,4.817,0,0,0,1.687-.257,2.87192,2.87192,0,0,0,1.145-.785,3.381,3.381,0,0,0,.687-1.305,6.46292,6.46292,0,0,0,.227-1.817"/>
  <path class="cls-15" d="M43.484,331.814a3.53381,3.53381,0,0,1-.023.45,1.18876,1.18876,0,0,1-.07.293.36147.36147,0,0,1-.114.164.24542.24542,0,0,1-.152.05H37.094a.74687.74687,0,0,1-.516-.183.736.736,0,0,1-.207-.586V321.537a.73975.73975,0,0,1,.207-.59.76626.76626,0,0,1,.516-.183h5.992a.27821.27821,0,0,1,.148.046.40244.40244,0,0,1,.114.165,1.25252,1.25252,0,0,1,.07.296c.012.122.02.274.02.457,0,.176-.008.321-.02.446a1.14133,1.14133,0,0,1-.07.289.46177.46177,0,0,1-.114.164.22765.22765,0,0,1-.148.051H38.801v2.929h3.625a.25555.25555,0,0,1,.156.055.34938.34938,0,0,1,.113.156,1.03307,1.03307,0,0,1,.071.285,3.69182,3.69182,0,0,1,.023.442,3.59413,3.59413,0,0,1-.023.445.9915.9915,0,0,1-.071.281.33132.33132,0,0,1-.113.157.27216.27216,0,0,1-.156.043H38.801v3.386h4.324a.25094.25094,0,0,1,.152.055.34275.34275,0,0,1,.114.16,1.17766,1.17766,0,0,1,.07.293,3.52751,3.52751,0,0,1,.023.449"/>
  <path class="cls-15" d="M42.742,345.271a4.08023,4.08023,0,0,1-.023.469,1.11955,1.11955,0,0,1-.071.301.46484.46484,0,0,1-.117.164.21562.21562,0,0,1-.148.059H38.457v3.23h3.684a.24718.24718,0,0,1,.148.043.44536.44536,0,0,1,.117.16,1.04748,1.04748,0,0,1,.074.297,4.47784,4.47784,0,0,1,0,.926,1.19344,1.19344,0,0,1-.074.305.45024.45024,0,0,1-.117.175.24781.24781,0,0,1-.148.051H38.457v4.469a.28211.28211,0,0,1-.055.176.41621.41621,0,0,1-.199.125,1.64212,1.64212,0,0,1-.375.078,4.27836,4.27836,0,0,1-.594.031,4.20981,4.20981,0,0,1-.589-.031,1.49016,1.49016,0,0,1-.375-.078.41992.41992,0,0,1-.2-.125.24963.24963,0,0,1-.062-.176V345.037a.74639.74639,0,0,1,.207-.586.76185.76185,0,0,1,.515-.183h5.653a.2306.2306,0,0,1,.148.054.43031.43031,0,0,1,.117.164,1.23089,1.23089,0,0,1,.071.309,4.27728,4.27728,0,0,1,.023.476"/>
  <path class="cls-15" d="M45.637,369.217a3.82743,3.82743,0,0,1-.024.465,1.49576,1.49576,0,0,1-.062.312.348.348,0,0,1-.102.16.21541.21541,0,0,1-.144.047.88841.88841,0,0,1-.391-.168,6.09724,6.09724,0,0,0-.715-.359,7.01687,7.01687,0,0,0-1.062-.364,5.43444,5.43444,0,0,0-1.434-.164,3.93076,3.93076,0,0,0-1.574.301,3.36962,3.36962,0,0,0-1.207.852,3.78316,3.78316,0,0,0-.77,1.328,5.19119,5.19119,0,0,0-.269,1.711,5.51318,5.51318,0,0,0,.273,1.816,3.70087,3.70087,0,0,0,.766,1.309,3.13922,3.13922,0,0,0,1.183.797,4.09533,4.09533,0,0,0,1.524.273,3.732,3.732,0,0,0,.809-.094,2.97031,2.97031,0,0,0,.742-.281v-2.781H40.906a.2866.2866,0,0,1-.258-.211,1.894,1.894,0,0,1-.093-.707,3.57415,3.57415,0,0,1,.023-.438,1.07076,1.07076,0,0,1,.07-.281.40523.40523,0,0,1,.11-.16.25058.25058,0,0,1,.148-.047h4.055a.724.724,0,0,1,.266.047.56271.56271,0,0,1,.203.156.70776.70776,0,0,1,.133.246,1.04754,1.04754,0,0,1,.046.328v4.778a1.10053,1.10053,0,0,1-.097.484.68479.68479,0,0,1-.399.332,7.48957,7.48957,0,0,1-.746.25c-.297.086-.605.164-.922.223-.32.062-.64.109-.965.141-.328.027-.652.046-.98.046a7.54133,7.54133,0,0,1-2.574-.414,5.05058,5.05058,0,0,1-3.129-3.109,7.24909,7.24909,0,0,1-.418-2.555,7.40843,7.40843,0,0,1,.445-2.648,5.58742,5.58742,0,0,1,1.262-1.996,5.47344,5.47344,0,0,1,1.969-1.258,7.29328,7.29328,0,0,1,2.574-.434,8.71952,8.71952,0,0,1,1.422.106,7.39128,7.39128,0,0,1,1.117.262,4.38187,4.38187,0,0,1,.793.328,1.90759,1.90759,0,0,1,.441.308.75609.75609,0,0,1,.18.364,3.14834,3.14834,0,0,1,.055.699"/>
  <path class="cls-15" d="M53.121,207.31a1.69977,1.69977,0,0,1-.019.297.69216.69216,0,0,1-.055.192.2397.2397,0,0,1-.09.105.1816.1816,0,0,1-.109.031H50.875v2.153a.21662.21662,0,0,1-.031.113.28027.28027,0,0,1-.11.082.85214.85214,0,0,1-.203.055,2.23285,2.23285,0,0,1-.316.019,2.28987,2.28987,0,0,1-.317-.019.88013.88013,0,0,1-.203-.055.29284.29284,0,0,1-.113-.082.18747.18747,0,0,1-.035-.113v-2.153H47.582a.16283.16283,0,0,1-.105-.031.22823.22823,0,0,1-.086-.105.55091.55091,0,0,1-.059-.192,1.57067,1.57067,0,0,1-.023-.297,1.69475,1.69475,0,0,1,.019-.296.55383.55383,0,0,1,.055-.196.20609.20609,0,0,1,.078-.105.14657.14657,0,0,1,.102-.031h1.984v-2.149a.22938.22938,0,0,1,.035-.117.263.263,0,0,1,.113-.086.75057.75057,0,0,1,.203-.055,2.45624,2.45624,0,0,1,.317-.019,2.39214,2.39214,0,0,1,.316.019.73007.73007,0,0,1,.203.055.25271.25271,0,0,1,.11.086.26909.26909,0,0,1,.031.117v2.149h1.992a.169.169,0,0,1,.102.031.24215.24215,0,0,1,.082.105.8676.8676,0,0,1,.051.196,1.69475,1.69475,0,0,1,.019.296"/>
  <text class="cls-25" transform="translate(224.17285 576.44714)"><tspan class="cls-26">d</tspan><tspan x="9.32227" y="0">B</tspan></text>
  <path class="cls-10" d="M214.234,455.865a.20232.20232,0,0,1-.027.098.17726.17726,0,0,1-.09.066.78546.78546,0,0,1-.183.043c-.079.008-.176.012-.293.012a2.21957,2.21957,0,0,1-.305-.012.87769.87769,0,0,1-.203-.031.3369.3369,0,0,1-.133-.07.35957.35957,0,0,1-.09-.106l-2.601-3.402v3.41a.18526.18526,0,0,1-.024.094.22386.22386,0,0,1-.09.062.716.716,0,0,1-.172.043,2.65045,2.65045,0,0,1-.281.012,2.591,2.591,0,0,1-.273-.012.67983.67983,0,0,1-.172-.043.14481.14481,0,0,1-.113-.156V446.74a.20381.20381,0,0,1,.023-.097.18819.18819,0,0,1,.09-.067.724.724,0,0,1,.172-.043,2.5876,2.5876,0,0,1,.273-.012,2.647,2.647,0,0,1,.281.012.765.765,0,0,1,.172.043.23078.23078,0,0,1,.09.067.205.205,0,0,1,.024.097v5.567l2.324-2.559a.76705.76705,0,0,1,.117-.113.52777.52777,0,0,1,.148-.075.88967.88967,0,0,1,.2-.042c.078-.004.172-.008.281-.008.117,0,.211.004.289.008a.85581.85581,0,0,1,.187.035.22291.22291,0,0,1,.102.062.1531.1531,0,0,1,.031.098.35845.35845,0,0,1-.043.164.8926.8926,0,0,1-.148.191l-2.227,2.231,2.5,3.246a1.93453,1.93453,0,0,1,.129.187.3001.3001,0,0,1,.035.133"/>
  <path class="cls-10" d="M224.148,455.783a.355.355,0,0,1-.082.152.3482.3482,0,0,1-.152.09,1.099,1.099,0,0,1-.238.047c-.09.008-.207.012-.344.012-.141,0-.258-.004-.359-.012a1.10161,1.10161,0,0,1-.243-.047.30444.30444,0,0,1-.144-.09.41465.41465,0,0,1-.074-.152l-1.852-6.68h-.012l-1.71,6.68a.3696.3696,0,0,1-.067.152.2967.2967,0,0,1-.137.09,1.00631,1.00631,0,0,1-.23.047c-.094.008-.211.012-.359.012q-.2235,0-.375-.012a1.0961,1.0961,0,0,1-.247-.047.31792.31792,0,0,1-.148-.09.28354.28354,0,0,1-.07-.152l-2.34-8.168a1.09188,1.09188,0,0,1-.043-.246.1545.1545,0,0,1,.055-.137.3922.3922,0,0,1,.187-.062c.086-.008.203-.012.348-.012a2.60767,2.60767,0,0,1,.336.012.52079.52079,0,0,1,.187.035.18.18,0,0,1,.09.074.58.58,0,0,1,.039.125l1.988,7.41h.008l1.883-7.398a.79908.79908,0,0,1,.051-.125.19865.19865,0,0,1,.101-.078.81839.81839,0,0,1,.196-.043c.082-.008.195-.012.332-.012a3.04049,3.04049,0,0,1,.304.012.74345.74345,0,0,1,.18.043.17983.17983,0,0,1,.098.078.40442.40442,0,0,1,.054.125l2.028,7.398h.015l1.946-7.406a1.01461,1.01461,0,0,1,.043-.117.13965.13965,0,0,1,.086-.078.73722.73722,0,0,1,.183-.043c.082-.008.184-.012.317-.012a2.28918,2.28918,0,0,1,.324.016.33752.33752,0,0,1,.176.066.17042.17042,0,0,1,.054.137,2.40678,2.40678,0,0,1-.039.246Z"/>
  <path class="cls-10" d="M233.301,455.873a.18807.18807,0,0,1-.028.094.19493.19493,0,0,1-.089.062.637.637,0,0,1-.172.043,2.55821,2.55821,0,0,1-.274.012,2.704,2.704,0,0,1-.281-.012.64349.64349,0,0,1-.168-.043.2043.2043,0,0,1-.09-.062.198.198,0,0,1-.027-.094v-3.602a3.52392,3.52392,0,0,0-.082-.847,1.86366,1.86366,0,0,0-.238-.555,1.05319,1.05319,0,0,0-.407-.355,1.29637,1.29637,0,0,0-.578-.121,1.45035,1.45035,0,0,0-.847.296,4.80011,4.80011,0,0,0-.891.883v4.301a.16169.16169,0,0,1-.027.094.21511.21511,0,0,1-.086.062.72829.72829,0,0,1-.172.043,2.70363,2.70363,0,0,1-.281.012,2.59813,2.59813,0,0,1-.274-.012.76735.76735,0,0,1-.176-.043.17.17,0,0,1-.086-.062.198.198,0,0,1-.027-.094V446.74a.22056.22056,0,0,1,.027-.097.17528.17528,0,0,1,.086-.067.82151.82151,0,0,1,.176-.043,2.59474,2.59474,0,0,1,.274-.012,2.70009,2.70009,0,0,1,.281.012.77909.77909,0,0,1,.172.043.22282.22282,0,0,1,.086.067.17807.17807,0,0,1,.027.097v3.684a3.728,3.728,0,0,1,.98-.762,2.14925,2.14925,0,0,1,.989-.25,2.366,2.366,0,0,1,1.039.207,1.944,1.944,0,0,1,.679.559,2.26649,2.26649,0,0,1,.372.816,4.9848,4.9848,0,0,1,.113,1.133Z"/>
  <path class="cls-10" d="M235.461,457.689a.51617.51617,0,0,1-.07.145.36783.36783,0,0,1-.118.078.69646.69646,0,0,1-.168.039,1.98222,1.98222,0,0,1-.242.012,1.15289,1.15289,0,0,1-.281-.024.45623.45623,0,0,1-.176-.066.2042.2042,0,0,1-.074-.109.24459.24459,0,0,1,.027-.157l4.137-11.339a.40423.40423,0,0,1,.07-.141.32733.32733,0,0,1,.11-.082.45179.45179,0,0,1,.168-.039,2.10239,2.10239,0,0,1,.246-.012,1.36578,1.36578,0,0,1,.281.024.57554.57554,0,0,1,.168.066.16942.16942,0,0,1,.078.109.33191.33191,0,0,1-.019.157Z"/>
  <path class="cls-10" d="M245.148,455.881a.14381.14381,0,0,1-.054.121.45177.45177,0,0,1-.153.062,1.24462,1.24462,0,0,1-.277.02,1.37248,1.37248,0,0,1-.285-.02.365.365,0,0,1-.156-.062.16219.16219,0,0,1-.047-.121v-.617a2.96241,2.96241,0,0,1-.899.671,2.40712,2.40712,0,0,1-1.05.239,2.96276,2.96276,0,0,1-.879-.125,1.9353,1.9353,0,0,1-.668-.367,1.64658,1.64658,0,0,1-.43-.59,1.89929,1.89929,0,0,1-.156-.793,1.85478,1.85478,0,0,1,.215-.903,1.74227,1.74227,0,0,1,.609-.632,2.83619,2.83619,0,0,1,.969-.379,5.9082,5.9082,0,0,1,1.293-.129h.847v-.477a2.35072,2.35072,0,0,0-.074-.629,1.12366,1.12366,0,0,0-.242-.457,1.04645,1.04645,0,0,0-.438-.269,1.86185,1.86185,0,0,0-.656-.094,2.55891,2.55891,0,0,0-.746.098,4.21126,4.21126,0,0,0-.582.218c-.168.079-.305.153-.418.219a.58474.58474,0,0,1-.25.102.159.159,0,0,1-.094-.032.16116.16116,0,0,1-.07-.082.341.341,0,0,1-.047-.136,1.38466,1.38466,0,0,1-.015-.192,1.50187,1.50187,0,0,1,.023-.269.41353.41353,0,0,1,.121-.188,1.35291,1.35291,0,0,1,.316-.207,3.10539,3.10539,0,0,1,.52-.218,4.53425,4.53425,0,0,1,.641-.165,3.88107,3.88107,0,0,1,.703-.066,3.65768,3.65768,0,0,1,1.129.152,1.81872,1.81872,0,0,1,.754.442,1.683,1.683,0,0,1,.414.719,3.50831,3.50831,0,0,1,.132,1.003Zm-1.121-2.813h-.964a3.833,3.833,0,0,0-.809.078,1.742,1.742,0,0,0-.566.235.963.963,0,0,0-.333.371,1.10783,1.10783,0,0,0-.105.496.98547.98547,0,0,0,.305.758,1.19488,1.19488,0,0,0,.851.285,1.55944,1.55944,0,0,0,.824-.227,3.55461,3.55461,0,0,0,.797-.687Z"/>
  <path class="cls-10" d="M252.516,455.873a.1555.1555,0,0,1-.028.094.20824.20824,0,0,1-.086.062.71557.71557,0,0,1-.172.043,3.20515,3.20515,0,0,1-.554,0,.71557.71557,0,0,1-.172-.043.23119.23119,0,0,1-.09-.062.18724.18724,0,0,1-.027-.094v-3.602a3.37575,3.37575,0,0,0-.082-.847,1.74392,1.74392,0,0,0-.239-.555,1.01575,1.01575,0,0,0-.406-.355,1.28445,1.28445,0,0,0-.578-.121,1.47417,1.47417,0,0,0-.848.296,4.70154,4.70154,0,0,0-.886.883v4.301a.18827.18827,0,0,1-.028.094.19892.19892,0,0,1-.09.062.62827.62827,0,0,1-.171.043,2.58889,2.58889,0,0,1-.278.012,2.62043,2.62043,0,0,1-.277-.012.72835.72835,0,0,1-.172-.043.18324.18324,0,0,1-.09-.062.1953.1953,0,0,1-.023-.094v-6.152a.21079.21079,0,0,1,.019-.09.18854.18854,0,0,1,.082-.071.429.429,0,0,1,.16-.042c.063-.004.145-.008.25-.008.102,0,.184.004.25.008a.35012.35012,0,0,1,.153.042.15689.15689,0,0,1,.078.071.13793.13793,0,0,1,.027.09v.812a3.68049,3.68049,0,0,1,1.035-.848,2.19887,2.19887,0,0,1,1.043-.273,2.34929,2.34929,0,0,1,1.036.207,1.91785,1.91785,0,0,1,.679.559,2.25525,2.25525,0,0,1,.375.816,4.95614,4.95614,0,0,1,.11,1.125Z"/>
  <path class="cls-10" d="M259.871,455.873a.16148.16148,0,0,1-.027.094.21472.21472,0,0,1-.086.062.72809.72809,0,0,1-.172.043,2.59084,2.59084,0,0,1-.273.012,2.61916,2.61916,0,0,1-.282-.012.72809.72809,0,0,1-.172-.043.21994.21994,0,0,1-.089-.062.18827.18827,0,0,1-.028-.094v-3.602a3.33081,3.33081,0,0,0-.082-.847,1.76562,1.76562,0,0,0-.238-.555,1.02248,1.02248,0,0,0-.406-.355,1.29919,1.29919,0,0,0-.578-.121,1.46946,1.46946,0,0,0-.848.296,4.7321,4.7321,0,0,0-.887.883v4.301a.198.198,0,0,1-.027.094.2043.2043,0,0,1-.09.062.63677.63677,0,0,1-.172.043,2.56845,2.56845,0,0,1-.277.012,2.64137,2.64137,0,0,1-.278-.012.706.706,0,0,1-.171-.043.17856.17856,0,0,1-.09-.062.185.185,0,0,1-.024-.094v-6.152a.19657.19657,0,0,1,.02-.09.183.183,0,0,1,.082-.071.42913.42913,0,0,1,.16-.042c.062-.004.144-.008.25-.008.102,0,.184.004.25.008a.3496.3496,0,0,1,.152.042.15279.15279,0,0,1,.078.071.13294.13294,0,0,1,.028.09v.812a3.667,3.667,0,0,1,1.035-.848,2.19588,2.19588,0,0,1,1.043-.273,2.34471,2.34471,0,0,1,1.035.207,1.92093,1.92093,0,0,1,.68.559,2.32359,2.32359,0,0,1,.375.816,4.95994,4.95994,0,0,1,.109,1.125Z"/>
  <path class="cls-10" d="M267.199,455.873a.195.195,0,0,1-.023.094.16985.16985,0,0,1-.086.062.6174.6174,0,0,1-.16.043,2.09754,2.09754,0,0,1-.242.012,2.23015,2.23015,0,0,1-.258-.012.59108.59108,0,0,1-.157-.043.16314.16314,0,0,1-.078-.062.19312.19312,0,0,1-.019-.094v-.813a3.92885,3.92885,0,0,1-1.039.848,2.26941,2.26941,0,0,1-1.039.266,2.451,2.451,0,0,1-1.039-.203,1.8679,1.8679,0,0,1-.676-.559,2.25085,2.25085,0,0,1-.375-.82,5.015,5.015,0,0,1-.113-1.141v-3.73a.13259.13259,0,0,1,.027-.09.174.174,0,0,1,.09-.071.49424.49424,0,0,1,.176-.042c.074-.004.164-.008.277-.008.105,0,.199.004.269.008a.473.473,0,0,1,.176.042.23065.23065,0,0,1,.094.071.15751.15751,0,0,1,.027.09v3.582a3.70786,3.70786,0,0,0,.078.863,1.59937,1.59937,0,0,0,.239.555,1.145,1.145,0,0,0,.406.355,1.21719,1.21719,0,0,0,.574.125,1.45154,1.45154,0,0,0,.848-.301,4.87878,4.87878,0,0,0,.89-.879v-4.3a.15671.15671,0,0,1,.024-.09.18774.18774,0,0,1,.09-.071.51687.51687,0,0,1,.175-.042c.071-.004.165-.008.278-.008.109,0,.203.004.273.008a.47067.47067,0,0,1,.172.042.30221.30221,0,0,1,.094.071.15751.15751,0,0,1,.027.09Z"/>
  <path class="cls-10" d="M278.41,455.873a.16155.16155,0,0,1-.027.094.21483.21483,0,0,1-.086.062.72809.72809,0,0,1-.172.043,2.59084,2.59084,0,0,1-.273.012,2.61916,2.61916,0,0,1-.282-.012.75769.75769,0,0,1-.175-.043.17869.17869,0,0,1-.09-.062.15548.15548,0,0,1-.028-.094v-3.738a3.31477,3.31477,0,0,0-.07-.711,1.64025,1.64025,0,0,0-.219-.555.97424.97424,0,0,0-.383-.355,1.14847,1.14847,0,0,0-.546-.121,1.29109,1.29109,0,0,0-.782.296,5.7384,5.7384,0,0,0-.867.883v4.301a.195.195,0,0,1-.023.094.21992.21992,0,0,1-.094.062.71707.71707,0,0,1-.176.043,2.53828,2.53828,0,0,1-.273.012,2.56871,2.56871,0,0,1-.27-.012.78465.78465,0,0,1-.179-.043.16567.16567,0,0,1-.086-.062.18524.18524,0,0,1-.024-.094v-3.738a3.06933,3.06933,0,0,0-.074-.711,1.82877,1.82877,0,0,0-.227-.555,1.00607,1.00607,0,0,0-.382-.355,1.12782,1.12782,0,0,0-.543-.121,1.31054,1.31054,0,0,0-.786.296,5.38983,5.38983,0,0,0-.859.883v4.301a.19775.19775,0,0,1-.027.094.20436.20436,0,0,1-.09.062.63677.63677,0,0,1-.172.043,2.56845,2.56845,0,0,1-.277.012,2.64069,2.64069,0,0,1-.278-.012.72809.72809,0,0,1-.172-.043.17542.17542,0,0,1-.089-.062.18524.18524,0,0,1-.024-.094v-6.152a.19657.19657,0,0,1,.02-.09.18312.18312,0,0,1,.082-.071.42392.42392,0,0,1,.16-.042c.062-.004.144-.008.25-.008.101,0,.183.004.25.008a.34951.34951,0,0,1,.152.042.15284.15284,0,0,1,.078.071.133.133,0,0,1,.028.09v.812a3.79721,3.79721,0,0,1,1.008-.848,1.99356,1.99356,0,0,1,.988-.273,2.4153,2.4153,0,0,1,.683.09,1.78221,1.78221,0,0,1,.539.25,1.65131,1.65131,0,0,1,.399.383,2.2228,2.2228,0,0,1,.269.496,6.66432,6.66432,0,0,1,.586-.571,4.32442,4.32442,0,0,1,.532-.375,2.309,2.309,0,0,1,.5-.207,1.93518,1.93518,0,0,1,.492-.066,2.18425,2.18425,0,0,1,.996.207,1.85851,1.85851,0,0,1,.652.559,2.24281,2.24281,0,0,1,.356.816,4.53306,4.53306,0,0,1,.105.988Z"/>
  <text class="cls-27" transform="translate(28.10303 597.4325)">2010/1060</text>

  <polygon class="cls-15" points="229.68 204.85 229.664 204.85 227.074 212.639 232.273 212.639 229.68 204.85"/>

  <g id="rating">
    <polyline id="ratingArrow" class="cls-10" points="205.06 163.36 224.56 143.18 283.52 143.18 283.52 183.12 224.56 183.12 205.06 163.36"/>
    <text id="ratingLetter" class="cls-28" transform="translate(219.23047 171.86023)">A</text>
    <text id="ratingPlusses" class="cls-29" transform="translate(238.21973 162.64978)">+++</text>
  </g>
  <text id="kwhAnnum" class="cls-30" transform="translate(243.08984 440.04968)" text-anchor="middle">X</text>
  <text transform="translate(88.32422 576.60632)" text-anchor="middle">
    <tspan class="cls-25">X</tspan><tspan id="bottleCapacity" class="cls-31">X</tspan>
  </text>
  <text id="db" class="cls-31" transform="translate(220.58984 576.45007)" text-anchor="end">X</text>
  <text id="supplierLine2" class="cls-32" transform="translate(25.50959 119.05041)">X</text>
  <text id="supplierLine1" class="cls-32" transform="translate(25.50959 102.79204)">X</text>
  <text id="modelLine2" class="cls-32" transform="translate(164.40998 119.05041)">X</text>
  <text id="modelLine1" class="cls-32" transform="translate(164.40998 102.79204)">X</text>
<g id="union-flag" transform="translate(25.512, 25.646) scale(1.693866)">
	<path id="blue" fill="#004289" d="M9.59,20L0,26.39V20H9.59z M39.59,0H27.5v8.06L39.59,0z M0,3.61V10h9.59L0,3.61z M17.5,0H5.41
		L17.5,8.06V0z M27.5,30h12.09L27.5,21.94V30z M45,10V3.61L35.41,10H45z M45,26.39V20h-9.59L45,26.39z M5.41,30H17.5v-8.06L5.41,30z
		"/>
	<path id="red" fill="#DC2F34" d="M45,18H25.5v12h-6V18H0v-6h19.5V0h6v12H45V18z M0,2.42L11.38,10h3.61L0,0.01V2.42z M45,27.58
		L33.62,20h-3.61L45,29.99V27.58z M17.5,20.74V20H15L0,30h3.61L17.5,20.74z M27.5,9.26V10H30L45,0h-3.61L27.5,9.26z"/>
</g><path id="energy-heading" d="M7.1581,7.21791H2.33537v3.7413H7.72769v1.90845H0V.13234H7.44305V2.04079H2.33537V5.32836H7.1581Zm3.53413,5.64975V.13234h2.677L16.67314,5.593a37.85159,37.85159,0,0,1,2.18339,4.27032h.038a51.82706,51.82706,0,0,1-.20865-5.29055V.13234h2.1644V12.86766H18.41992L15.07833,7.25572a43.774,43.774,0,0,1-2.2787-4.38342l-.076.0189c.095,1.64379.133,3.32538.133,5.42289v4.55357ZM31.63845,7.21791H26.81573v3.7413h5.392v1.90845H24.48V.13234h7.44305V2.04079H26.81573V5.32836h4.82272ZM35.19126.32139A20.16965,20.16965,0,0,1,38.72282.03781a5.98372,5.98372,0,0,1,3.94949,1.02056,3.228,3.228,0,0,1,1.1012,2.56949,3.347,3.347,0,0,1-2.3357,3.17446V6.859a3.16007,3.16007,0,0,1,1.7851,2.45638,32.106,32.106,0,0,0,1.00653,3.55224H41.83707a16.17761,16.17761,0,0,1-.85455-3.00431c-.37994-1.66269-.96854-2.19171-2.2977-2.22952H37.50764v5.23383H35.19126ZM37.50764,5.933h1.38647c1.57581,0,2.5437-.83119,2.5437-2.09719,0-1.37943-.96789-2.04079-2.487-2.04079a6.74576,6.74576,0,0,0-1.44314.11343Zm19.67341,6.34892A12.70364,12.70364,0,0,1,53.08022,13a6.96331,6.96331,0,0,1-5.032-1.7005,6.3681,6.3681,0,0,1-1.78446-4.68623C46.28243,2.56982,49.1494,0,53.38353,0a8.52961,8.52961,0,0,1,3.3989.60464l-.5126,1.87065a6.6378,6.6378,0,0,0-2.905-.54793c-2.73432,0-4.65207,1.606-4.65207,4.5728,0,2.89088,1.78509,4.61029,4.44342,4.61029a4.91246,4.91246,0,0,0,1.76578-.24577v-3.193H52.66228V5.8388h4.51877Zm6.23045.58573V7.55821L59.36734.13234h2.677l1.51914,3.269c.43661.94462.75924,1.66269,1.11987,2.53169h.038c.304-.81228.66458-1.606,1.10184-2.53169L67.361.13234H70L65.74719,7.50149v5.36617Z" fill="#fff" transform="translate(117.97773907434804, 39.77399373429718) scale(1.693866)"/></svg>