<svg id="Layer_1" data-name="Layer 1" xmlns="http://www.w3.org/2000/svg" xmlns:xlink="http://www.w3.org/1999/xlink" width="110mm" height="220mm" viewBox="0 0 311.81 623.62" data-rating-increment="23.37" data-supplier-model-chars-per-row="15">
  <defs>
    <style>
      .cls-1, .cls-17, .cls-4, .cls-5, .cls-8, .cls-9 {
        fill: none;
      }

      .cls-2 {
        clip-path: url(#clip-path);
      }

      .cls-3 {
        clip-path: url(#clip-path-2);
      }

      .cls-17, .cls-4, .cls-5 {
        stroke: #2cabe2;
      }

      .cls-4 {
        stroke-width: 5px;
      }

      .cls-5 {
        stroke-width: 2px;
      }

      .cls-6 {
        clip-path: url(#clip-path-4);
      }

      .cls-7 {
        fill: #2cabe2;
      }

      .cls-8 {
        stroke: #fff;
        stroke-width: 3.78px;
      }

      .cls-9 {
        stroke: #67cef4;
        stroke-linecap: round;
        stroke-linejoin: round;
        stroke-width: 4.32px;
      }

      .cls-10, .cls-25, .cls-27, .cls-30, .cls-31, .cls-32 {
        fill: #231f20;
      }

      .cls-11 {
        clip-path: url(#clip-path-10);
      }

      .cls-12 {
        fill: #e7f6fc;
      }

      .cls-13 {
        fill: #294ca1;
      }

      .cls-14 {
        fill: #fcee21;
      }

      .cls-15, .cls-28, .cls-29 {
        fill: #fff;
      }

      .cls-16 {
        clip-path: url(#clip-path-13);
      }

      .cls-18 {
        fill: #b2d235;
      }

      .cls-19 {
        fill: #51b848;
      }

      .cls-20 {
        fill: #00a64e;
      }

      .cls-21 {
        fill: #f8b219;
      }

      .cls-22 {
        fill: #f15d22;
      }

      .cls-23 {
        fill: #ec2027;
      }

      .cls-24 {
        clip-path: url(#clip-path-16);
      }

      .cls-25 {
        font-size: 17px;
      }

      .cls-25, .cls-29, .cls-32 {
        font-family: Calibri;
      }

      .cls-26 {
        letter-spacing: 0.02298em;
      }

      .cls-27 {
        font-size: 11px;
      }

      .cls-27, .cls-28, .cls-30, .cls-31 {
        font-family: Calibri-Bold, Calibri;
        font-weight: 700;
      }

      .cls-28 {
        font-size: 29px;
      }

      .cls-29 {
        font-size: 18px;
      }

      .cls-30 {
        font-size: 30px;
      }

      .cls-31 {
        font-size: 25px;
      }

      .cls-32 {
        font-size: 16px;
      }
    </style>
    <clipPath id="clip-path">
      <rect class="cls-1" y="-0.00201" width="311.80899" height="623.62097"/>
    </clipPath>
    <clipPath id="clip-path-2">
      <rect class="cls-1" y="-0.00201" width="312" height="624"/>
    </clipPath>
    <clipPath id="clip-path-4">
      <rect class="cls-1" x="186.73" y="490.39299" width="62.36299" height="56.691"/>
    </clipPath>
    <clipPath id="clip-path-10">
      <rect class="cls-1" x="81.141" y="484.72099" width="17.719" height="69.449"/>
    </clipPath>
    <clipPath id="clip-path-13">
      <rect class="cls-1" x="25.512" y="25.51001" width="260.789" height="51.02301"/>
    </clipPath>
    <clipPath id="clip-path-16">
      <rect class="cls-1" x="24.805" y="148.53299" width="181.648" height="234.85201"/>
    </clipPath>
  </defs>
  <title>wine-storage-appliances</title>
  <g class="cls-2">
    <g class="cls-3">
      <g class="cls-3">
        <path class="cls-4" d="M24.102,16.67c-1.254.015-7.43.453-7.43,7.422V599.525c.016,1.227.441,7.422,7.422,7.422H287.715c1.23-.015,7.422-.441,7.422-7.422V24.092c-.012-1.227-.438-7.422-7.422-7.422Z"/>
        <path class="cls-5" d="M39.27,482.889s-9.922,0-9.922,9.921v80.204s0,9.921,9.922,9.921h98.628s9.922,0,9.922-9.921V492.81s0-9.921-9.922-9.921Z"/>
        <path class="cls-5" d="M166.117,482.889s-9.922,0-9.922,9.921v80.204s0,9.921,9.922,9.921H273.254s9.918,0,9.918-9.921V492.81s0-9.921-9.918-9.921Z"/>
      </g>
    </g>
  </g>
  <g class="cls-6">
    <g class="cls-3">
      <g class="cls-3">
        <path class="cls-7" d="M211.145,530.943q-3.804-3.39152-7.61-6.785h-5.422V513.314h5.422q3.80851-3.3915,7.61-6.785l3.148-2.804v30.027Z"/>
        <path class="cls-8" d="M211.145,530.943q-3.804-3.39152-7.61-6.785h-5.422V513.314h5.422q3.80851-3.3915,7.61-6.785l3.148-2.804v30.027Z"/>
        <path class="cls-9" d="M231.473,497.635a38.47067,38.47067,0,0,1,.07,42.207m-7.023-36.387a26.44844,26.44844,0,0,1,.082,30.516m-6.786-24.746a14.91814,14.91814,0,0,1,.129,18.925"/>
      </g>
    </g>
  </g>
  <g class="cls-2">
    <g class="cls-3">
      <g class="cls-3">
        <path class="cls-5" d="M215.016,405.643s-9.922,0-9.922,9.921v49.024s0,9.922,9.922,9.922h57.527s9.922,0,9.922-9.922V415.564s0-9.921-9.922-9.921Z"/>
        <path class="cls-10" d="M150.082,449.85h-2.609v-2.133h2.769v-.727h-3.648v6.738h3.801v-.73h-2.922v-2.43h2.609Zm-5.879,3.878h.879V446.99h-.879Zm-1.308-3.539h-2.219v.7h1.359V452.9a2.86877,2.86877,0,0,1-1.16.18,2.46678,2.46678,0,0,1-2.602-2.719,2.51981,2.51981,0,0,1,2.711-2.711,3.331,3.331,0,0,1,1.489.289l.222-.711a4.24671,4.24671,0,0,0-1.691-.308,3.37272,3.37272,0,0,0-3.649,3.48,3.16381,3.16381,0,0,0,3.458,3.399,6.1364,6.1364,0,0,0,2.082-.371Zm-9.68-2.5a3.8401,3.8401,0,0,1,.859-.07c.922,0,1.551.379,1.551,1.25,0,.77-.59,1.281-1.52,1.281h-.89Zm-.871,6.039h.871v-2.921h.82c.789.031,1.16.382,1.36,1.312a8.38052,8.38052,0,0,0,.441,1.609h.898a10.68421,10.68421,0,0,1-.519-1.851,1.68552,1.68552,0,0,0-.981-1.359v-.028a1.772,1.772,0,0,0,1.258-1.711,1.71814,1.71814,0,0,0-.527-1.289,2.78233,2.78233,0,0,0-1.949-.551,9.93748,9.93748,0,0,0-1.672.141Zm-1.442-3.878h-2.609v-2.133h2.77v-.727h-3.649v6.738h3.801v-.73h-2.922v-2.43h2.609Zm-9.238,3.878v-2.882c0-1.118-.012-1.93-.059-2.778l.028-.011a20.07587,20.07587,0,0,0,1.25,2.25l2.14,3.421h.879V446.99h-.816v2.817c0,1.054.019,1.871.098,2.773l-.028.008a19.02151,19.02151,0,0,0-1.203-2.188l-2.148-3.41h-.961v6.738Zm-2.262-3.878h-2.609v-2.133h2.77v-.727h-3.649v6.738h3.801v-.73h-2.922v-2.43h2.609Zm-7.406,1.878a.59126.59126,0,0,0,.609-.621.58527.58527,0,0,0-.589-.629.5925.5925,0,0,0-.602.629.58548.58548,0,0,0,.582.621m-5.41,2v-2.871l2.25-3.867h-.981l-.968,1.86c-.262.511-.5.949-.684,1.39h-.019c-.207-.472-.418-.879-.668-1.39l-.95-1.86h-1l2.141,3.879v2.859Zm-3.699-3.539h-2.223v.7h1.363V452.9a2.88859,2.88859,0,0,1-1.164.18,2.465,2.465,0,0,1-2.597-2.719,2.51932,2.51932,0,0,1,2.711-2.711,3.32927,3.32927,0,0,1,1.488.289l.219-.711a4.21294,4.21294,0,0,0-1.688-.308,3.37189,3.37189,0,0,0-3.648,3.48,3.16242,3.16242,0,0,0,3.457,3.399,6.15735,6.15735,0,0,0,2.082-.371Zm-9.684-2.5a3.91788,3.91788,0,0,1,.863-.07c.918,0,1.551.379,1.551,1.25,0,.77-.59,1.281-1.523,1.281h-.891Zm-.867,6.039h.867v-2.921h.82c.793.031,1.165.382,1.364,1.312a8.489,8.489,0,0,0,.437,1.609h.903a10.81755,10.81755,0,0,1-.524-1.851,1.69087,1.69087,0,0,0-.976-1.359v-.028a1.7724,1.7724,0,0,0,1.257-1.711,1.71814,1.71814,0,0,0-.527-1.289,2.7854,2.7854,0,0,0-1.953-.551,9.84975,9.84975,0,0,0-1.668.141Zm-1.441-3.878h-2.61v-2.133h2.77v-.727H87.406v6.738h3.797v-.73H88.285v-2.43h2.61Zm-9.239,3.878v-2.882c0-1.118-.011-1.93-.062-2.778l.031-.011a19.45837,19.45837,0,0,0,1.25,2.25l2.141,3.421h.879V446.99h-.821v2.817c0,1.054.024,1.871.102,2.773l-.031.008a18.37777,18.37777,0,0,0-1.2-2.188l-2.152-3.41h-.957v6.738Zm-2.261-3.878h-2.61v-2.133h2.77v-.727H75.906v6.738h3.797v-.73H76.785v-2.43h2.61Zm-7.411,1.878a.58982.58982,0,0,0,.61-.621.583.583,0,0,0-.586-.629.5925.5925,0,0,0-.602.629.583.583,0,0,0,.578.621m-7.226-.8.656-1.95c.141-.41.242-.828.344-1.222h.019c.098.394.2.793.348,1.234l.672,1.938Zm2.207.679.723,2.121h.925l-2.297-6.738H65.277l-2.3,6.738h.898l.699-2.121Zm-5.809-.179c0,1.32-.449,1.672-1.23,1.672a2.06369,2.06369,0,0,1-.738-.133l-.122.711a2.738,2.738,0,0,0,.93.16c1.16,0,2.039-.551,2.039-2.34V446.99h-.879Zm-3.769,2.3h.879V446.99h-.879Zm-1.313-3.539H53.855v.7h1.364V452.9a2.90686,2.90686,0,0,1-1.164.18,2.46578,2.46578,0,0,1-2.598-2.719,2.51822,2.51822,0,0,1,2.707-2.711,3.32975,3.32975,0,0,1,1.492.289l.219-.711a4.20711,4.20711,0,0,0-1.687-.308,3.376,3.376,0,0,0-3.653,3.48,3.16926,3.16926,0,0,0,3.461,3.399,6.10385,6.10385,0,0,0,2.078-.371Zm-9.679-2.5a3.91107,3.91107,0,0,1,.863-.07c.918,0,1.551.379,1.551,1.25,0,.77-.59,1.281-1.524,1.281h-.89Zm-.868,6.039h.868v-2.921h.82c.793.031,1.16.382,1.363,1.312a8.46116,8.46116,0,0,0,.438,1.609h.898a11.283,11.283,0,0,1-.519-1.851,1.69174,1.69174,0,0,0-.977-1.359v-.028a1.77325,1.77325,0,0,0,1.258-1.711,1.70628,1.70628,0,0,0-.531-1.289,2.77849,2.77849,0,0,0-1.95-.551,9.85907,9.85907,0,0,0-1.668.141Zm-1.441-3.878H41.477v-2.133h2.769v-.727H40.598v6.738h3.797v-.73H41.477v-2.43h2.609Zm-9.238,3.878v-2.882c0-1.118-.012-1.93-.063-2.778l.031-.011a19.76229,19.76229,0,0,0,1.25,2.25l2.141,3.421h.879V446.99h-.82v2.817c0,1.054.019,1.871.101,2.773l-.031.008a19.10279,19.10279,0,0,0-1.199-2.188l-2.153-3.41h-.957v6.738Zm-2.262-3.878H29.977v-2.133h2.769v-.727H29.098v6.738h3.797v-.73H29.977v-2.43h2.609Z"/>
        <path class="cls-10" d="M154.273,437.928l.661-1.95c.14-.41.238-.828.339-1.222h.02c.102.394.199.793.352,1.234l.668,1.938Zm2.207.679.723,2.121h.93l-2.301-6.738h-1.039l-2.301,6.738h.903l.699-2.121Zm-6.078,2.121h.879V433.99h-.879Zm-1.629-3.878h-2.609v-2.133h2.77v-.727h-3.649v6.738h3.797v-.73h-2.918v-2.43h2.609Zm-8.199-2.86v6.738h.879v-6.011h2.738v-.727Zm-4.64.707a3.67845,3.67845,0,0,1,.82-.07c.949,0,1.59.43,1.59,1.332,0,.91-.641,1.43-1.692,1.43a2.83725,2.83725,0,0,1-.718-.071Zm-.871,6.031h.871v-2.699a3.14367,3.14367,0,0,0,.699.059,2.82221,2.82221,0,0,0,2.062-.738,2.00923,2.00923,0,0,0,.52-1.442,1.8481,1.8481,0,0,0-.59-1.41,2.78056,2.78056,0,0,0-1.891-.559,10.09458,10.09458,0,0,0-1.671.129Zm-1.641-3.878h-2.609v-2.133h2.769v-.727h-3.648v6.738h3.8v-.73h-2.921v-2.43h2.609Zm-9.438,3.878v-2.882c0-1.118-.011-1.93-.062-2.778l.031-.011a19.45837,19.45837,0,0,0,1.25,2.25l2.141,3.421h.879V433.99h-.817v2.817c0,1.054.02,1.871.098,2.773l-.031.008a18.37777,18.37777,0,0,0-1.2-2.188l-2.152-3.41h-.957v6.738Zm-2.461-3.878h-2.609v-2.133h2.77v-.727h-3.649v6.738h3.797v-.73h-2.918v-2.43h2.609Zm-7.507,1.878a.626.626,0,1,0-.582-.621.59126.59126,0,0,0,.582.621m-4.871-1.601a6.715,6.715,0,0,1-.739.023c-.961,0-1.672-.472-1.672-1.281,0-.93.731-1.25,1.582-1.25a3.54443,3.54443,0,0,1,.829.078Zm-2.719,3.601c.09-.179.148-.32.219-.488a6.15815,6.15815,0,0,1,.89-2.101,1.27014,1.27014,0,0,1,.961-.332h.649v2.921h.871V434.08a8.61992,8.61992,0,0,0-1.61-.141,3.07675,3.07675,0,0,0-1.933.52,1.71559,1.71559,0,0,0-.618,1.367,1.66353,1.66353,0,0,0,1.489,1.664v.016a1.47538,1.47538,0,0,0-.571.351,6.3421,6.3421,0,0,0-1.007,2.262,3.56187,3.56187,0,0,1-.282.609Zm-7.102-6.738v6.738h.93l2.109-3.359a19.3814,19.3814,0,0,0,1.25-2.262l.032.012c-.071.848-.079,1.649-.079,2.738v2.871h.817V433.99h-.867l-2.18,3.469a24.051,24.051,0,0,0-1.242,2.23l-.031-.011c.062-.899.082-1.789.082-2.848v-2.84Zm-4.539,0v6.738h.879v-6.011h2.711v-.727Zm-4.64.707a3.70568,3.70568,0,0,1,.82-.07c.949,0,1.59.43,1.59,1.332,0,.91-.641,1.43-1.692,1.43a2.858,2.858,0,0,1-.718-.071Zm-.868,6.031h.868v-2.699a3.16574,3.16574,0,0,0,.699.059,2.81578,2.81578,0,0,0,2.062-.738,1.99224,1.99224,0,0,0,.52-1.442,1.84806,1.84806,0,0,0-.59-1.41,2.77339,2.77339,0,0,0-1.891-.559,10.06354,10.06354,0,0,0-1.668.129Zm-1.64-3.878H85.023v-2.133h2.77v-.727H84.145v6.738h3.8v-.73H85.023v-2.43h2.614Zm-10.211-2.86v6.738h.879v-3.16h3.261v3.16h.879V433.99h-.879v2.817H78.305V433.99Zm-1.633,2.86H73.184v-2.133h2.769v-.727H72.305v6.738h3.8v-.73H73.184v-2.43h2.609Zm-7.508,1.878a.58982.58982,0,0,0,.61-.621.5838.5838,0,0,0-.59-.629.59165.59165,0,0,0-.598.629.58237.58237,0,0,0,.578.621m-7.23-.8.66-1.95c.14-.41.242-.828.34-1.222h.019c.102.394.203.793.352,1.234l.672,1.938Zm2.211.679.718,2.121h.93l-2.297-6.738H61.574l-2.297,6.738h.899l.699-2.121Zm-5.879,2.121h.879V433.99h-.879Zm-1.313-3.539H53.855v.7h1.364V439.9a2.90686,2.90686,0,0,1-1.164.18,2.46578,2.46578,0,0,1-2.598-2.719,2.51822,2.51822,0,0,1,2.707-2.711,3.32975,3.32975,0,0,1,1.492.289l.219-.711a4.20711,4.20711,0,0,0-1.687-.308,3.376,3.376,0,0,0-3.653,3.48,3.16926,3.16926,0,0,0,3.461,3.399,6.10385,6.10385,0,0,0,2.078-.371Zm-9.679-2.5a3.91107,3.91107,0,0,1,.863-.07c.918,0,1.551.379,1.551,1.25,0,.77-.59,1.281-1.524,1.281h-.89Zm-.868,6.039h.868v-2.921h.82c.793.031,1.16.382,1.363,1.312a8.46116,8.46116,0,0,0,.438,1.609h.898a11.283,11.283,0,0,1-.519-1.851,1.69174,1.69174,0,0,0-.977-1.359v-.028a1.77325,1.77325,0,0,0,1.258-1.711,1.70628,1.70628,0,0,0-.531-1.289,2.77849,2.77849,0,0,0-1.95-.551,9.85907,9.85907,0,0,0-1.668.141Zm-1.441-3.878H41.477v-2.133h2.769v-.727H40.598v6.738h3.797v-.73H41.477v-2.43h2.609Zm-9.238,3.878v-2.882c0-1.118-.012-1.93-.063-2.778l.031-.011a19.76229,19.76229,0,0,0,1.25,2.25l2.141,3.421h.879V433.99h-.82v2.817c0,1.054.019,1.871.101,2.773l-.031.008a19.10279,19.10279,0,0,0-1.199-2.188l-2.153-3.41h-.957v6.738Zm-2.262-3.878H29.977v-2.133h2.769v-.727H29.098v6.738h3.797v-.73H29.977v-2.43h2.609Z"/>
      </g>
    </g>
  </g>
  <g class="cls-11">
    <g class="cls-3">
      <g class="cls-3">
        <path class="cls-7" d="M90,554.166a44.88856,44.88856,0,0,0,6.871-.504c1.715-.508,1.988-3.605,1.988-3.605V513.31a13.239,13.239,0,0,0-3.129-7.949c-.96-1.281-1.691-1.734-1.941-3.859-.176-1.481-.519-13.383-.519-13.383h.171V486.24l-.168-.023c0-1.496-.601-1.328-1.035-1.407-.437-.082-2.238-.082-2.238-.082s-1.801,0-2.234.082c-.438.079-1.039-.089-1.039,1.407l-.168.023v1.879h.171s-.343,11.902-.515,13.383c-.254,2.125-.985,2.578-1.945,3.859a13.239,13.239,0,0,0-3.129,7.949v36.747s.175,3.003,1.988,3.605c1.527.508,6.871.504,6.871.504"/>
        <path class="cls-12" d="M81.145,520.705v18.086c5.91.273,11.804.273,17.714.004V520.709a172.71,172.71,0,0,1-17.714-.004"/>
        <path class="cls-12" d="M95.492,508.951c.321.973.113,1.91-.453,2.098-.566.183-1.285-.453-1.601-1.422-.317-.973-.118-1.906.453-2.094.57-.187,1.285.449,1.601,1.418"/>
        <path class="cls-12" d="M92.57,489.498c0,.375-.191.676-.433.676-.239,0-.434-.301-.434-.676s.195-.676.434-.676c.242,0,.433.301.433.676"/>
      </g>
    </g>
  </g>
  <rect class="cls-13" x="25.512" y="25.646" width="76.102" height="50.81598"/>
  <rect class="cls-7" x="104.133" y="25.646" width="182.16799" height="50.81598"/>
  <polygon class="cls-14" points="79.293 42.588 80.93 41.4 78.91 41.4 78.285 39.475 77.66 41.4 75.637 41.4 77.273 42.588 76.648 44.51 78.285 43.322 79.918 44.51 79.293 42.588"/>
  <polygon class="cls-14" points="72.926 36.49 74.563 35.303 72.543 35.303 71.918 33.377 71.293 35.303 69.27 35.303 70.906 36.49 70.281 38.412 71.918 37.225 73.551 38.412 72.926 36.49"/>
  <polygon class="cls-14" points="64.715 34.31 66.348 33.119 64.328 33.119 63.703 31.197 63.078 33.119 61.055 33.119 62.691 34.31 62.066 36.232 63.703 35.045 65.34 36.232 64.715 34.31"/>
  <polygon class="cls-14" points="56.063 36.49 57.699 35.303 55.676 35.303 55.051 33.377 54.426 35.303 52.406 35.303 54.043 36.49 53.418 38.412 55.051 37.225 56.688 38.412 56.063 36.49"/>
  <polygon class="cls-14" points="49.887 42.885 51.52 41.697 49.5 41.697 48.875 39.775 48.25 41.697 46.227 41.697 47.863 42.885 47.238 44.81 48.875 43.623 50.512 44.81 49.887 42.885"/>
  <polygon class="cls-14" points="47.91 51.291 49.547 50.1 47.527 50.1 46.902 48.178 46.277 50.1 44.254 50.1 45.891 51.291 45.266 53.213 46.902 52.025 48.535 53.213 47.91 51.291"/>
  <polygon class="cls-14" points="49.945 59.803 51.582 58.615 49.563 58.615 48.938 56.693 48.313 58.615 46.289 58.615 47.926 59.803 47.301 61.728 48.938 60.541 50.57 61.728 49.945 59.803"/>
  <polygon class="cls-14" points="56.063 65.853 57.699 64.666 55.676 64.666 55.051 62.744 54.426 64.666 52.406 64.666 54.043 65.853 53.418 67.779 55.051 66.588 56.688 67.779 56.063 65.853"/>
  <polygon class="cls-14" points="64.715 68.107 66.348 66.92 64.328 66.92 63.703 64.998 63.078 66.92 61.055 66.92 62.691 68.107 62.066 70.033 63.703 68.842 65.34 70.033 64.715 68.107"/>
  <polygon class="cls-14" points="73.129 65.822 74.766 64.635 72.742 64.635 72.117 62.713 71.492 64.635 69.473 64.635 71.105 65.822 70.484 67.748 72.117 66.56 73.754 67.748 73.129 65.822"/>
  <polygon class="cls-14" points="79.25 59.748 80.887 58.56 78.863 58.56 78.238 56.639 77.613 58.56 75.594 58.56 77.23 59.748 76.605 61.674 78.238 60.482 79.875 61.674 79.25 59.748"/>
  <polygon class="cls-14" points="81.504 51.174 83.141 49.982 81.117 49.982 80.492 48.06 79.867 49.982 77.848 49.982 79.48 51.174 78.855 53.096 80.492 51.904 82.129 53.096 81.504 51.174"/>
  <polygon class="cls-15" points="126.195 46.385 118.035 46.385 118.035 52.748 127.16 52.748 127.16 55.994 114.082 55.994 114.082 34.338 126.68 34.338 126.68 37.584 118.035 37.584 118.035 43.174 126.195 43.174 126.195 46.385"/>
  <g class="cls-16">
    <g class="cls-3">
      <g class="cls-3">
        <path class="cls-15" d="M132.238,55.994V34.338h4.496l5.594,9.285a59.51318,59.51318,0,0,1,3.695,7.262h.063c-.258-2.891-.352-5.68805-.352-8.996V34.338h3.661V55.994h-4.079l-5.656-9.543a71.03074,71.03074,0,0,1-3.887-7.457l-.097.035c.16,2.793.191,5.653.191,9.223v7.742Z"/>
        <polygon class="cls-15" points="167.68 46.385 159.52 46.385 159.52 52.748 168.645 52.748 168.645 55.994 155.566 55.994 155.566 34.338 168.16 34.338 168.16 37.584 159.52 37.584 159.52 43.174 167.68 43.174 167.68 46.385"/>
        <path class="cls-15" d="M173.719,34.627a37.36963,37.36963,0,0,1,5.976-.453c3.118,0,5.239.51495,6.684,1.738a5.47158,5.47158,0,0,1,1.867,4.336,5.77644,5.77644,0,0,1-3.922,5.43v.097c1.543.578,2.473,2.09,3.02,4.18a43.689,43.689,0,0,0,1.703,6.039h-4.082A30.65964,30.65964,0,0,1,183.52,50.885c-.61-2.828-1.637-3.727-3.887-3.793h-1.992v8.902h-3.922Zm3.922,9.574h2.347c2.664,0,4.336-1.414,4.336-3.566,0-2.379-1.672-3.469-4.242-3.469a11.35216,11.35216,0,0,0-2.441.191Z"/>
        <path class="cls-15" d="M210.961,54.998a21.38512,21.38512,0,0,1-6.973,1.223c-3.664,0-6.425-.934-8.48-2.895a10.72891,10.72891,0,0,1-3.024-7.969c0-6.843,4.883-11.246,12.051-11.246a14.38948,14.38948,0,0,1,5.75,1.028l-.867,3.183a11.63528,11.63528,0,0,0-4.914-.933c-4.629,0-7.871,2.73-7.871,7.777,0,4.91394,3.015,7.84,7.515,7.84a7.585,7.585,0,0,0,2.989-.449V47.158h-3.824V44.041h7.648Z"/>
        <path class="cls-15" d="M113.695,64.83c.035,1.012.887,1.449,1.852,1.449a4.87583,4.87583,0,0,0,1.672-.254l.222.97705a6.04915,6.04915,0,0,1-2.105.355c-1.953,0-3.102-1.125-3.102-2.839a2.85925,2.85925,0,0,1,2.942-3.012,2.49059,2.49059,0,0,1,2.597,2.726,3.08318,3.08318,0,0,1-.05.598Zm2.645-.992a1.23044,1.23044,0,0,0-1.25-1.367,1.42571,1.42571,0,0,0-1.395,1.367Z"/>
        <polygon class="cls-15" points="120.566 61.631 120.566 63.771 122.891 63.771 122.891 61.631 124.414 61.631 124.414 67.232 122.891 67.232 122.891 64.873 120.566 64.873 120.566 67.232 119.047 67.232 119.047 61.631 120.566 61.631"/>
        <path class="cls-15" d="M127.168,64.83c.039,1.012.891,1.449,1.855,1.449a4.85953,4.85953,0,0,0,1.672-.254l.223.97705a6.06687,6.06687,0,0,1-2.105.355c-1.954,0-3.102-1.125-3.102-2.839a2.8567,2.8567,0,0,1,2.941-3.012,2.49139,2.49139,0,0,1,2.598,2.726,2.98948,2.98948,0,0,1-.051.598Zm2.648-.992a1.22984,1.22984,0,0,0-1.25-1.367,1.42861,1.42861,0,0,0-1.398,1.367Z"/>
        <path class="cls-15" d="M132.535,63.494c0-.734-.027-1.332-.051-1.863h1.336l.075.863h.023a2.40059,2.40059,0,0,1,2.066-.988,2.61029,2.61029,0,0,1,2.536,2.851,2.746,2.746,0,0,1-2.747,3,2.02612,2.02612,0,0,1-1.691-.746h-.027V69.51h-1.52Zm1.52,1.391a1.27631,1.27631,0,0,0,.05.38995,1.35848,1.35848,0,0,0,1.336.99305c.965,0,1.532-.75,1.532-1.852,0-.992-.52-1.79706-1.496-1.79706a1.39826,1.39826,0,0,0-1.36,1.04706,1.28827,1.28827,0,0,0-.062.35894Z"/>
        <polygon class="cls-15" points="143.797 61.631 143.797 62.748 141.336 62.748 141.336 67.232 139.816 67.232 139.816 61.631 143.797 61.631"/>
        <path class="cls-15" d="M146.223,61.631v2.015c0,.883-.039,1.481-.09,2.262h.039c.32-.656.508-1.07.816-1.656l1.485-2.621h1.843v5.601h-1.449v-2c0-.898.039-1.312.098-2.371h-.047c-.297.668-.496,1.071-.793,1.614-.469.824-1.012,1.835-1.531,2.757h-1.821V61.631Z"/>
        <path class="cls-15" d="M156.941,67.232h-1.507V65.014h-.571a1.21154,1.21154,0,0,0-.925.367,3.46684,3.46684,0,0,0-.743,1.39,4.08171,4.08171,0,0,1-.234.461h-1.633a2.85965,2.85965,0,0,0,.371-.621,4.6776,4.6776,0,0,1,.903-1.609,1.41983,1.41983,0,0,1,.714-.379v-.035c-.714-.07-1.57-.508-1.57-1.379a1.41657,1.41657,0,0,1,.93-1.301,5.23139,5.23139,0,0,1,2.125-.355,17.05365,17.05365,0,0,1,2.14.125Zm-1.507-4.726a4.25337,4.25337,0,0,0-.754-.059c-.668,0-1.348.21906-1.348.84,0,.586.754.84,1.348.84.355,0,.554,0,.754-.012Z"/>
        <path class="cls-15" d="M161.871,65.139a.88154.88154,0,0,1-.926-.907.89549.89549,0,0,1,.942-.91.90894.90894,0,1,1,0,1.817Z"/>
        <path class="cls-15" d="M167.867,64.221c-.715-.18805-1.109-.621-1.109-1.176,0-.758.812-1.539,2.535-1.539a3.79488,3.79488,0,0,1,1.93.426l-.285.906a3.45087,3.45087,0,0,0-1.461-.332c-.731,0-1.188.277-1.188.668,0,.449.606.633,1.508.63995h.656v.946h-.668c-.965.011-1.691.195-1.691.734,0,.531.652.805,1.394.805a4.34545,4.34545,0,0,0,1.696-.391l.222.945a4.93237,4.93237,0,0,1-2.289.504c-1.273,0-2.644-.449-2.644-1.711a1.52956,1.52956,0,0,1,1.394-1.382Z"/>
        <path class="cls-15" d="M173.406,61.631l.969,2.844c.172.492.281.941.43,1.421h.05a9.567,9.567,0,0,0,1.262-3.781v-.484h1.422a2.37405,2.37405,0,0,1,.039.426c0,1.589-1.09,3.461-2.191,5.175h-1.473l-2.137-5.601Z"/>
        <path class="cls-15" d="M179.652,64.221c-.718-.18805-1.113-.621-1.113-1.176,0-.758.816-1.539,2.535-1.539a3.79229,3.79229,0,0,1,1.93.426l-.285.906a3.45083,3.45083,0,0,0-1.461-.332c-.727,0-1.188.277-1.188.668,0,.449.61.633,1.512.63995h.656v.946h-.668c-.968.011-1.695.195-1.695.734,0,.531.656.805,1.395.805a4.31015,4.31015,0,0,0,1.695-.391l.223.945a4.93413,4.93413,0,0,1-2.286.504c-1.277,0-2.648-.449-2.648-1.711a1.53009,1.53009,0,0,1,1.398-1.382Z"/>
        <path class="cls-15" d="M185.734,66.693v.793a14.3272,14.3272,0,0,0,.086,2.024h-1.472a9.855,9.855,0,0,1-.133-2.004V64.943a3.15623,3.15623,0,0,1,1.023-2.703,3.0107,3.0107,0,0,1,2.055-.734,2.71572,2.71572,0,0,1,2.879,2.875,2.771,2.771,0,0,1-2.781,2.976,2.015,2.015,0,0,1-1.633-.664Zm0-1.679a1.84933,1.84933,0,0,0,.036.367,1.40661,1.40661,0,0,0,1.335.887c.965,0,1.524-.797,1.524-1.852,0-.992-.531-1.75-1.434-1.75-.769,0-1.461.621-1.461,1.91Z"/>
        <path class="cls-15" d="M192.742,69.51a11.86366,11.86366,0,0,0-.207-3.231,15.12553,15.12553,0,0,0-2.105-4.648h1.707a13.02494,13.02494,0,0,1,1.609,4.07h.051a8.6803,8.6803,0,0,0,1.137-3.621c0-.219-.012-.332-.012-.449h1.445a2.21781,2.21781,0,0,1,.024.414,9.52444,9.52444,0,0,1-2.125,4.933.444.444,0,0,0-.075.278c.024.562.024,1.48.036,2.254Z"/>
        <path class="cls-15" d="M198.445,64.221c-.718-.18805-1.113-.621-1.113-1.176,0-.758.813-1.539,2.535-1.539a3.76594,3.76594,0,0,1,1.926.426l-.281.906a3.45084,3.45084,0,0,0-1.461-.332c-.731,0-1.188.277-1.188.668,0,.449.606.633,1.508.63995h.656v.946h-.668c-.964.011-1.691.195-1.691.734,0,.531.652.805,1.395.805a4.32721,4.32721,0,0,0,1.695-.391l.222.945a4.944,4.944,0,0,1-2.289.504c-1.273,0-2.644-.449-2.644-1.711a1.5301,1.5301,0,0,1,1.398-1.382Z"/>
        <path class="cls-15" d="M204.578,65.658c0,.461.145.641.567.621l-.086.989a2.13719,2.13719,0,0,1-.657.089c-.816,0-1.359-.32-1.359-1.562V61.631h1.535Z"/>
        <path class="cls-15" d="M211.848,61.631c-.075.762-.176,2.484-.176,3.82,0,.633.211.848.582.84l-.098,1a1.92707,1.92707,0,0,1-.531.066,1.11511,1.11511,0,0,1-1.176-1.089h-.035a2.25392,2.25392,0,0,1-1.992,1.089,2.55087,2.55087,0,0,1-2.488-2.816,2.86512,2.86512,0,0,1,2.722-3.035,1.86586,1.86586,0,0,1,1.731.976h.051a7.748,7.748,0,0,1,.136-.851Zm-4.368,2.863c0,.945.52,1.738,1.352,1.738a1.50743,1.50743,0,0,0,1.332-1.207,3.4654,3.4654,0,0,0,.051-.656,2.24737,2.24737,0,0,0-.039-.531,1.37437,1.37437,0,0,0-1.274-1.238c-.851,0-1.422.839-1.422,1.882Z"/>
        <path class="cls-15" d="M219.188,38.932a11.025,11.025,0,1,1,11.027,11.027,11.02452,11.02452,0,0,1-11.027-11.027"/>
        <path class="cls-7" d="M229.461,43.064v-3.8l-2.883-5.317h1.895l1.097,2.34c.309.68.539,1.191.785,1.813h.028c.226-.579.484-1.149.797-1.813l1.093-2.34h1.883l-3.031,5.278v3.839Z"/>
        <path class="cls-15" d="M244.555,38.932a11.025,11.025,0,1,1,11.023,11.027,11.02367,11.02367,0,0,1-11.023-11.027"/>
        <path class="cls-15" d="M219.188,63.381a11.025,11.025,0,1,1,11.027,11.027,11.02451,11.02451,0,0,1-11.027-11.027"/>
        <rect class="cls-7" x="226.01199" y="58.396" width="1.664" height="9.117"/>
        <polygon class="cls-7" points="234.684 63.471 231.246 63.471 231.246 66.146 235.09 66.146 235.09 67.514 229.582 67.514 229.582 58.396 234.887 58.396 234.887 59.764 231.246 59.764 231.246 62.115 234.684 62.115 234.684 63.471"/>
        <path class="cls-15" d="M244.555,63.381a11.025,11.025,0,1,1,11.023,11.027,11.02367,11.02367,0,0,1-11.023-11.027"/>
        <rect class="cls-7" x="247.91" y="33.94696" width="1.664" height="9.117"/>
        <path class="cls-7" d="M253.293,33.947h1.664v5.91c0,2.52-1.219,3.356-3.031,3.356a4.38017,4.38017,0,0,1-1.391-.215l.199-1.34a3.6374,3.6374,0,0,0,1.032.164c.945,0,1.527-.433,1.527-2.01495Z"/>
        <path class="cls-7" d="M258.609,40.482l-.785,2.582h-1.715l2.922-9.117h2.125l2.961,9.117h-1.789l-.824-2.582Zm2.61-1.257-.715-2.247c-.176-.554-.324-1.175-.461-1.703h-.027c-.133.528-.27,1.16-.434,1.703l-.703,2.247Z"/>
        <rect class="cls-7" x="250.563" y="58.396" width="1.664" height="9.117"/>
        <path class="cls-7" d="M255.961,64.932l-.789,2.582h-1.715l2.922-9.118h2.125l2.961,9.118H259.68l-.828-2.582Zm2.609-1.258-.718-2.246c-.176-.555-.325-1.176-.461-1.703h-.024c-.137.527-.273,1.164-.433,1.703l-.707,2.246Z"/>
      </g>
    </g>
  </g>
  <line class="cls-17" x1="24.805" y1="126.63901" x2="287.008" y2="126.63901"/>
  <rect class="cls-15" x="24.805" y="148.53299" width="181.648" height="234.85201"/>
  <polygon class="cls-14" points="24.805 223.682 24.805 243.373 122.797 243.373 132.547 233.525 122.797 223.682 24.805 223.682"/>
  <polygon class="cls-18" points="24.805 200.295 24.805 219.986 111.438 219.986 121.191 210.143 111.438 200.295 24.805 200.295"/>
  <polygon class="cls-19" points="24.805 176.908 24.805 196.6 100.082 196.6 109.836 186.756 100.082 176.908 24.805 176.908"/>
  <polygon class="cls-20" points="24.805 153.525 24.805 173.217 91.273 173.217 101.027 163.369 91.273 153.525 24.805 153.525"/>
  <polygon class="cls-21" points="24.805 247.06 24.805 266.748 134.414 266.748 144.18 256.904 134.414 247.06 24.805 247.06"/>
  <polygon class="cls-22" points="24.805 270.435 24.805 290.127 145.766 290.127 155.531 280.283 145.766 270.435 24.805 270.435"/>
  <polygon class="cls-23" points="24.805 293.814 24.805 313.502 157.113 313.502 166.883 303.658 157.113 293.814 24.805 293.814"/>
  <polygon class="cls-23" points="24.805 317.189 24.805 336.881 168.465 336.881 178.234 327.037 168.465 317.189 24.805 317.189"/>
  <polygon class="cls-23" points="24.805 340.564 24.805 360.26 179.813 360.26 189.594 350.416 179.813 340.564 24.805 340.564"/>
  <polygon class="cls-23" points="24.805 363.939 24.805 383.381 190.844 383.381 200.996 373.791 190.578 363.939 24.805 363.939"/>
  <g class="cls-24">
    <g class="cls-3">
      <g class="cls-3">
        <path class="cls-15" d="M251.836,236.416l-.863,3.133h-2.844l3.707-12.203h3.594l3.761,12.203h-2.953l-.933-3.133Zm3.074-2.063-.758-2.589c-.214-.723-.429-1.629-.609-2.352h-.035c-.18.723-.363,1.645-.559,2.352l-.719,2.589Z"/>
        <path class="cls-15" d="M248.219,250.916a21.38325,21.38325,0,0,1,3.543-.254,6.63852,6.63852,0,0,1,3.582.688,2.66044,2.66044,0,0,1,1.457,2.39,2.75988,2.75988,0,0,1-1.996,2.606v.035a3.04907,3.04907,0,0,1,2.406,3.008,3.26557,3.26557,0,0,1-1.254,2.589c-.883.707-2.359,1.102-4.769,1.102a21.24389,21.24389,0,0,1-2.969-.18Zm2.715,4.668h.898c1.445,0,2.215-.598,2.215-1.5,0-.926-.703-1.414-1.942-1.414a7.08066,7.08066,0,0,0-1.171.074Zm0,5.414a8.04129,8.04129,0,0,0,1.062.039c1.242,0,2.34-.488,2.34-1.758,0-1.234-1.098-1.719-2.465-1.719h-.937Z"/>
        <path class="cls-15" d="M257.184,286.014a7.6401,7.6401,0,0,1-3.114.546c-4.195,0-6.351-2.644-6.351-6.121,0-4.164,2.949-6.48,6.621-6.48a7.13183,7.13183,0,0,1,2.988.543l-.558,2.191a5.92453,5.92453,0,0,0-2.305-.453,4.0123,4.0123,0,0,0,.019,8.02,6.76979,6.76979,0,0,0,2.286-.399Z"/>
        <path class="cls-15" d="M247.441,297.725a24.66256,24.66256,0,0,1,3.707-.254,7.73769,7.73769,0,0,1,4.965,1.308,5.39516,5.39516,0,0,1,2.051,4.594,6.19276,6.19276,0,0,1-2.016,4.945,8.65814,8.65814,0,0,1-5.593,1.575,23.64476,23.64476,0,0,1-3.114-.184Zm2.754,9.957a4.714,4.714,0,0,0,.953.058c2.485.016,4.102-1.363,4.102-4.277a3.48653,3.48653,0,0,0-3.812-3.871,5.46812,5.46812,0,0,0-1.243.109Z"/>
        <polygon class="cls-15" points="254.598 327.908 250.133 327.908 250.133 330.807 255.117 330.807 255.117 333.068 247.383 333.068 247.383 320.865 254.867 320.865 254.867 323.135 250.133 323.135 250.133 325.666 254.598 325.666 254.598 327.908"/>
        <polygon class="cls-15" points="247.887 344.271 255.297 344.271 255.297 346.537 250.637 346.537 250.637 349.322 254.988 349.322 254.988 351.572 250.637 351.572 250.637 356.475 247.887 356.475 247.887 344.271"/>
        <path class="cls-15" d="M258.438,379.217a13.55726,13.55726,0,0,1-4.051.687,6.73958,6.73958,0,0,1-4.93-1.648,5.94261,5.94261,0,0,1-1.707-4.434c.016-4.054,2.953-6.375,6.926-6.375a8.29115,8.29115,0,0,1,3.363.598l-.574,2.211a6.63568,6.63568,0,0,0-2.824-.524,3.97679,3.97679,0,0,0-.2,7.95,3.62757,3.62757,0,0,0,1.352-.184v-2.555h-1.875v-2.156h4.52Z"/>
        <path class="cls-15" d="M251.469,143.631l-.864,3.117h-2.828l3.692-12.137h3.597l3.786,12.137h-2.973l-.938-3.117Zm3.078-2.051-.758-2.574c-.215-.723-.43-1.621-.609-2.34h-.035c-.18.719-.364,1.637-.563,2.34l-.719,2.574Z"/>
        <rect class="cls-15" x="260.06299" y="137.939" width="3.14099" height="1.211"/>
        <path class="cls-15" d="M265.34,137.674a1.92364,1.92364,0,0,1-1.129-1.715c0-1.316,1.191-2.195,2.75-2.195,1.824,0,2.578,1.058,2.578,2.004a1.88726,1.88726,0,0,1-1.141,1.714v.036a2.054,2.054,0,0,1,1.438,1.933c0,1.414-1.184,2.375-2.996,2.375-1.977,0-2.891-1.117-2.891-2.172a2.07488,2.07488,0,0,1,1.391-1.957Zm2.64,1.922c0-.684-.515-1.094-1.226-1.286a1.18438,1.18438,0,0,0-.945,1.165,1.06606,1.06606,0,0,0,1.105,1.089.98461.98461,0,0,0,1.066-.968m-2.039-3.696c0,.528.469.864,1.09,1.055a1.065,1.065,0,0,0,.793-.984.89585.89585,0,0,0-.949-.969.86419.86419,0,0,0-.934.898"/>
        <path class="cls-15" d="M276.484,137.76c0,2.398-.968,4.066-2.949,4.066-2.015,0-2.902-1.812-2.914-4.019,0-2.266.949-4.043,2.965-4.043,2.074,0,2.898,1.859,2.898,3.996m-4.039.047c0,1.789.434,2.64,1.129,2.64.707,0,1.09-.89,1.09-2.664,0-1.726-.371-2.64-1.105-2.64-.661,0-1.114.839-1.114,2.664"/>
        <path class="cls-15" d="M281.492,136.08a2.23352,2.23352,0,0,1-2.16,2.496,2.14428,2.14428,0,0,1-2.121-2.363,2.22749,2.22749,0,0,1,2.195-2.449,2.07358,2.07358,0,0,1,2.086,2.316m-2.926.098c-.015.812.274,1.402.801,1.402.516,0,.77-.527.77-1.418,0-.789-.219-1.402-.793-1.402-.539,0-.778.625-.778,1.418m.852,5.648,4.484-8.051h.973l-4.473,8.051Zm7.684-2.508a2.23034,2.23034,0,0,1-2.157,2.485,2.13859,2.13859,0,0,1-2.109-2.352,2.22494,2.22494,0,0,1,2.18-2.449,2.07359,2.07359,0,0,1,2.086,2.316m-2.911.082c-.015.817.274,1.407.789,1.407.516,0,.77-.528.77-1.407,0-.789-.215-1.402-.781-1.402-.539,0-.778.625-.778,1.402"/>
        <path class="cls-15" d="M251.469,167.193l-.864,3.114h-2.828l3.692-12.137h3.597l3.786,12.137h-2.973l-.938-3.114Zm3.078-2.054-.758-2.575c-.215-.718-.43-1.621-.609-2.339h-.035c-.18.718-.364,1.636-.563,2.339l-.719,2.575Z"/>
        <rect class="cls-15" x="260.06299" y="161.49399" width="3.14099" height="1.215"/>
        <path class="cls-15" d="M269.047,158.752a4.56444,4.56444,0,0,0-.707.023,2.49382,2.49382,0,0,0-2.543,1.86h.035a2.254,2.254,0,0,1,1.656-.614,2.366,2.366,0,0,1,2.41,2.543,2.78784,2.78784,0,0,1-2.867,2.817c-2.086,0-3.105-1.547-3.105-3.406a4.329,4.329,0,0,1,4.39-4.618,3.89555,3.89555,0,0,1,.731-.011Zm-.996,3.906a1.18786,1.18786,0,0,0-1.16-1.34,1.16686,1.16686,0,0,0-1.071.684.966.966,0,0,0-.082.465c.035.828.43,1.574,1.27,1.574.637,0,1.043-.59,1.043-1.383"/>
        <path class="cls-15" d="M276.484,161.318c0,2.399-.968,4.063-2.949,4.063-2.015,0-2.902-1.809-2.914-4.016,0-2.269.949-4.043,2.965-4.043,2.074,0,2.898,1.86,2.898,3.996m-4.039.047c0,1.785.434,2.637,1.129,2.637.707,0,1.09-.887,1.09-2.66,0-1.727-.371-2.641-1.105-2.641-.661,0-1.114.84-1.114,2.664"/>
        <path class="cls-15" d="M281.492,159.639a2.23211,2.23211,0,0,1-2.16,2.492,2.1421,2.1421,0,0,1-2.121-2.363,2.22489,2.22489,0,0,1,2.195-2.446,2.07439,2.07439,0,0,1,2.086,2.317m-2.926.093c-.015.817.274,1.407.801,1.407.516,0,.77-.532.77-1.418,0-.789-.219-1.403-.793-1.403-.539,0-.778.625-.778,1.414m.852,5.649,4.484-8.047h.973l-4.473,8.047Zm7.684-2.504a2.2258,2.2258,0,0,1-2.157,2.48,2.13553,2.13553,0,0,1-2.109-2.351,2.22231,2.22231,0,0,1,2.18-2.446,2.07439,2.07439,0,0,1,2.086,2.317m-2.911.082c-.015.816.274,1.402.789,1.402.516,0,.77-.527.77-1.402,0-.789-.215-1.402-.781-1.402-.539,0-.778.625-.778,1.402"/>
        <path class="cls-15" d="M251.469,190.9l-.864,3.114h-2.828l3.692-12.133h3.597l3.786,12.133h-2.973l-.938-3.114Zm3.078-2.054-.758-2.575c-.215-.718-.43-1.617-.609-2.339h-.035c-.18.722-.364,1.64-.563,2.339l-.719,2.575Z"/>
        <rect class="cls-15" x="260.06299" y="185.20099" width="3.14099" height="1.211"/>
        <path class="cls-15" d="M267.297,188.959V187.1h-3.453v-1.188l2.937-4.75h2.242v4.57h.922V187.1h-.922v1.859Zm0-3.227v-1.73c0-.465.023-.945.047-1.449h-.035c-.25.504-.469.961-.735,1.449l-1.031,1.707-.012.023Z"/>
        <path class="cls-15" d="M276.484,185.025c0,2.395-.968,4.063-2.949,4.063-2.015,0-2.902-1.809-2.914-4.016,0-2.265.949-4.043,2.965-4.043,2.074,0,2.898,1.86,2.898,3.996m-4.039.047c0,1.785.434,2.637,1.129,2.637.707,0,1.09-.887,1.09-2.664,0-1.723-.371-2.637-1.105-2.637-.661,0-1.114.84-1.114,2.664"/>
        <path class="cls-15" d="M281.492,183.346a2.2321,2.2321,0,0,1-2.16,2.492,2.1421,2.1421,0,0,1-2.121-2.363,2.2249,2.2249,0,0,1,2.195-2.446,2.07439,2.07439,0,0,1,2.086,2.317m-2.926.093c-.015.817.274,1.407.801,1.407.516,0,.77-.532.77-1.418,0-.789-.219-1.403-.793-1.403-.539,0-.778.625-.778,1.414m.852,5.649,4.484-8.047h.973l-4.473,8.047Zm7.684-2.504a2.22581,2.22581,0,0,1-2.157,2.48,2.13554,2.13554,0,0,1-2.109-2.351,2.22148,2.22148,0,0,1,2.18-2.445,2.07359,2.07359,0,0,1,2.086,2.316m-2.911.082c-.015.816.274,1.402.789,1.402.516,0,.77-.527.77-1.402,0-.789-.215-1.402-.781-1.402-.539,0-.778.625-.778,1.402"/>
        <path class="cls-15" d="M251.469,213.916l-.864,3.113h-2.828l3.692-12.136h3.597l3.786,12.136h-2.973l-.938-3.113Zm3.078-2.055-.758-2.574c-.215-.719-.43-1.621-.609-2.34h-.035c-.18.719-.364,1.637-.563,2.34l-.719,2.574Z"/>
        <rect class="cls-15" x="260.06299" y="208.21698" width="3.14099" height="1.211"/>
        <path class="cls-15" d="M264.082,211.971v-1.102l.996-.898c1.715-1.536,2.539-2.411,2.555-3.325,0-.636-.371-1.14-1.274-1.14a2.903,2.903,0,0,0-1.668.637l-.511-1.293a4.25094,4.25094,0,0,1,2.543-.805,2.41123,2.41123,0,0,1,2.73,2.433c0,1.321-.933,2.364-2.074,3.372l-.719.597v.028h2.949v1.496Z"/>
        <path class="cls-15" d="M276.484,208.037c0,2.398-.968,4.066-2.949,4.066-2.015,0-2.902-1.808-2.914-4.015,0-2.27.949-4.043,2.965-4.043,2.074,0,2.898,1.859,2.898,3.992m-4.039.051c0,1.785.434,2.637,1.129,2.637.707,0,1.09-.887,1.09-2.665,0-1.726-.371-2.636-1.105-2.636-.661,0-1.114.84-1.114,2.664"/>
        <path class="cls-15" d="M281.492,206.357a2.23353,2.23353,0,0,1-2.16,2.496,2.14157,2.14157,0,0,1-2.121-2.363,2.22458,2.22458,0,0,1,2.195-2.445,2.07224,2.07224,0,0,1,2.086,2.312m-2.926.098c-.015.816.274,1.402.801,1.402.516,0,.77-.527.77-1.414,0-.793-.219-1.406-.793-1.406-.539,0-.778.625-.778,1.418m.852,5.648,4.484-8.046h.973l-4.473,8.046Zm7.684-2.507a2.22721,2.22721,0,0,1-2.157,2.484,2.1364,2.1364,0,0,1-2.109-2.352,2.222,2.222,0,0,1,2.18-2.445,2.07306,2.07306,0,0,1,2.086,2.313m-2.911.086c-.015.816.274,1.402.789,1.402.516,0,.77-.527.77-1.402,0-.793-.215-1.403-.781-1.403-.539,0-.778.621-.778,1.403"/>
      </g>
    </g>
  </g>
  <path class="cls-15" d="M46.23,168.346a3.23847,3.23847,0,0,1,.141.527.32059.32059,0,0,1-.074.293.63251.63251,0,0,1-.363.121c-.172.016-.411.023-.715.023-.313,0-.559-.003-.735-.015a1.79293,1.79293,0,0,1-.406-.055.37333.37333,0,0,1-.195-.117.618.618,0,0,1-.09-.191l-.809-2.414H38.477l-.762,2.347a.77809.77809,0,0,1-.098.219.37544.37544,0,0,1-.195.137,1.35567,1.35567,0,0,1-.379.07c-.164.012-.379.019-.645.019a5.85449,5.85449,0,0,1-.668-.027.49832.49832,0,0,1-.335-.137.3534.3534,0,0,1-.063-.3,2.85466,2.85466,0,0,1,.137-.52l3.703-10.648a.86293.86293,0,0,1,.129-.258.468.468,0,0,1,.238-.149,1.96028,1.96028,0,0,1,.449-.062c.192-.012.446-.016.762-.016.363,0,.652.004.871.016a2.46655,2.46655,0,0,1,.504.062.49405.49405,0,0,1,.262.157.8828.8828,0,0,1,.133.277Zm-5.511-8.805h-.008l-1.695,5.102h3.402Z"/>
  <path class="cls-15" d="M53.613,160.549a2.22035,2.22035,0,0,1-.019.297.644.644,0,0,1-.059.191.22448.22448,0,0,1-.09.106.17644.17644,0,0,1-.105.031H51.363v2.152a.193.193,0,0,1-.031.113.22869.22869,0,0,1-.105.082,1.00485,1.00485,0,0,1-.204.055,2.53926,2.53926,0,0,1-.636,0,.91041.91041,0,0,1-.203-.055.27128.27128,0,0,1-.11-.082.19628.19628,0,0,1-.035-.113v-2.152H48.07a.16869.16869,0,0,1-.105-.031.27471.27471,0,0,1-.086-.106.78824.78824,0,0,1-.059-.191,1.66636,1.66636,0,0,1-.023-.297,2.22047,2.22047,0,0,1,.019-.297.667.667,0,0,1,.055-.195.24159.24159,0,0,1,.078-.106.16019.16019,0,0,1,.102-.031h1.988v-2.149a.22939.22939,0,0,1,.035-.117.26007.26007,0,0,1,.11-.086.73842.73842,0,0,1,.203-.054,2.53926,2.53926,0,0,1,.636,0,.80008.80008,0,0,1,.204.054.20865.20865,0,0,1,.136.203v2.149h1.996a.16224.16224,0,0,1,.098.031.23858.23858,0,0,1,.082.106.77546.77546,0,0,1,.055.195,2.22047,2.22047,0,0,1,.019.297"/>
  <path class="cls-15" d="M60.23,160.549a2.06485,2.06485,0,0,1-.019.297.54508.54508,0,0,1-.059.191.23674.23674,0,0,1-.086.106.18855.18855,0,0,1-.109.031H57.984v2.152a.18922.18922,0,0,1-.035.113.22347.22347,0,0,1-.105.082.926.926,0,0,1-.203.055,2.54726,2.54726,0,0,1-.637,0,.926.926,0,0,1-.203-.055.27128.27128,0,0,1-.11-.082.19628.19628,0,0,1-.035-.113v-2.152H54.688a.17742.17742,0,0,1-.106-.031.27471.27471,0,0,1-.086-.106.792.792,0,0,1-.058-.191,1.56918,1.56918,0,0,1-.024-.297,2.04944,2.04944,0,0,1,.02-.297.64.64,0,0,1,.054-.195.27676.27676,0,0,1,.078-.106.162.162,0,0,1,.102-.031h1.988v-2.149a.22939.22939,0,0,1,.035-.117.26007.26007,0,0,1,.11-.086.74852.74852,0,0,1,.203-.054,2.54726,2.54726,0,0,1,.637,0,.74852.74852,0,0,1,.203.054.21669.21669,0,0,1,.105.086.22016.22016,0,0,1,.035.117v2.149h1.993a.16143.16143,0,0,1,.097.031.23858.23858,0,0,1,.082.106.63736.63736,0,0,1,.055.195,2.065,2.065,0,0,1,.019.297"/>
  <path class="cls-15" d="M66.848,160.549a2.04934,2.04934,0,0,1-.02.297.56794.56794,0,0,1-.058.191.2505.2505,0,0,1-.086.106.19376.19376,0,0,1-.11.031H64.602v2.152a.19013.19013,0,0,1-.036.113.22347.22347,0,0,1-.105.082.86642.86642,0,0,1-.203.055,2.54726,2.54726,0,0,1-.637,0,.926.926,0,0,1-.203-.055.26072.26072,0,0,1-.109-.082.19013.19013,0,0,1-.036-.113v-2.152H61.305a.15311.15311,0,0,1-.102-.031.25578.25578,0,0,1-.09-.106.792.792,0,0,1-.058-.191,1.56918,1.56918,0,0,1-.024-.297,2.04944,2.04944,0,0,1,.02-.297.67.67,0,0,1,.054-.195.2678.2678,0,0,1,.079-.106.16486.16486,0,0,1,.101-.031h1.988v-2.149a.22167.22167,0,0,1,.036-.117.25054.25054,0,0,1,.109-.086.74852.74852,0,0,1,.203-.054,2.54726,2.54726,0,0,1,.637,0,.70952.70952,0,0,1,.203.054.21669.21669,0,0,1,.105.086.22167.22167,0,0,1,.036.117v2.149h1.992a.15368.15368,0,0,1,.097.031.23181.23181,0,0,1,.082.106.63736.63736,0,0,1,.055.195,2.04944,2.04944,0,0,1,.02.297"/>
  <path class="cls-15" d="M46.375,191.85a3.4611,3.4611,0,0,1,.141.527.33289.33289,0,0,1-.075.293.64123.64123,0,0,1-.363.121c-.176.016-.414.023-.715.023-.316,0-.562-.004-.738-.015a1.78988,1.78988,0,0,1-.402-.055.36069.36069,0,0,1-.196-.117.53735.53735,0,0,1-.093-.192l-.805-2.414H38.617l-.758,2.348a.87349.87349,0,0,1-.097.219.42943.42943,0,0,1-.196.137,1.36973,1.36973,0,0,1-.378.07c-.165.012-.383.019-.649.019a5.84321,5.84321,0,0,1-.668-.027.492.492,0,0,1-.332-.137.35442.35442,0,0,1-.066-.3,3.19437,3.19437,0,0,1,.14-.52l3.703-10.648a.91269.91269,0,0,1,.129-.258.44813.44813,0,0,1,.235-.149,1.987,1.987,0,0,1,.449-.062c.191-.012.445-.016.762-.016.367,0,.656.004.875.016a2.48691,2.48691,0,0,1,.504.062.45457.45457,0,0,1,.257.157.86106.86106,0,0,1,.137.277Zm-5.512-8.805h-.008l-1.699,5.101h3.407Z"/>
  <path class="cls-15" d="M53.121,184.053a1.70685,1.70685,0,0,1-.019.297.68445.68445,0,0,1-.055.191.23981.23981,0,0,1-.09.105.18267.18267,0,0,1-.109.032H50.875v2.152a.21656.21656,0,0,1-.031.113.27119.27119,0,0,1-.11.082.85209.85209,0,0,1-.203.055,2.214,2.214,0,0,1-.316.02,2.27211,2.27211,0,0,1-.317-.02.88008.88008,0,0,1-.203-.055.28315.28315,0,0,1-.113-.082.18741.18741,0,0,1-.035-.113v-2.152H47.582a.16365.16365,0,0,1-.105-.032.22833.22833,0,0,1-.086-.105.54508.54508,0,0,1-.059-.191,1.57787,1.57787,0,0,1-.023-.297,1.69989,1.69989,0,0,1,.019-.297.55371.55371,0,0,1,.055-.196.21041.21041,0,0,1,.078-.105.15148.15148,0,0,1,.102-.031h1.984v-2.149a.22938.22938,0,0,1,.035-.117.27078.27078,0,0,1,.113-.086.71923.71923,0,0,1,.203-.054,2.27231,2.27231,0,0,1,.317-.02,2.21418,2.21418,0,0,1,.316.02.70062.70062,0,0,1,.203.054.26007.26007,0,0,1,.11.086.26909.26909,0,0,1,.031.117v2.149h1.992a.17585.17585,0,0,1,.102.031.24823.24823,0,0,1,.082.105.86735.86735,0,0,1,.051.196,1.69989,1.69989,0,0,1,.019.297"/>
  <path class="cls-15" d="M59.738,184.053a1.70685,1.70685,0,0,1-.019.297.65223.65223,0,0,1-.055.191.23981.23981,0,0,1-.09.105.18267.18267,0,0,1-.109.032H57.492v2.152a.21656.21656,0,0,1-.031.113.24825.24825,0,0,1-.109.082.87592.87592,0,0,1-.204.055,2.214,2.214,0,0,1-.316.02,2.3,2.3,0,0,1-.316-.02.85209.85209,0,0,1-.203-.055.24606.24606,0,0,1-.11-.082.16729.16729,0,0,1-.039-.113v-2.152H54.199a.16365.16365,0,0,1-.105-.032.26354.26354,0,0,1-.086-.105.644.644,0,0,1-.059-.191,1.66652,1.66652,0,0,1-.023-.297,2.20907,2.20907,0,0,1,.019-.297.86735.86735,0,0,1,.051-.196.27377.27377,0,0,1,.082-.105.16019.16019,0,0,1,.102-.031h1.984v-2.149a.20223.20223,0,0,1,.039-.117.23724.23724,0,0,1,.11-.086.70062.70062,0,0,1,.203-.054,2.30019,2.30019,0,0,1,.316-.02,2.21418,2.21418,0,0,1,.316.02.71769.71769,0,0,1,.204.054.23927.23927,0,0,1,.109.086.26909.26909,0,0,1,.031.117v2.149h1.992a.15457.15457,0,0,1,.098.031.22068.22068,0,0,1,.086.105.69679.69679,0,0,1,.051.196,1.69989,1.69989,0,0,1,.019.297"/>
  <path class="cls-15" d="M46.375,215.107a3.49751,3.49751,0,0,1,.141.528.33291.33291,0,0,1-.075.293.61256.61256,0,0,1-.363.121q-.264.02253-.715.023c-.316,0-.562-.004-.738-.015a1.79036,1.79036,0,0,1-.402-.055.36649.36649,0,0,1-.196-.117.54571.54571,0,0,1-.093-.192l-.805-2.414H38.617l-.758,2.348a.94389.94389,0,0,1-.097.219.39451.39451,0,0,1-.196.136,1.32944,1.32944,0,0,1-.378.071c-.165.011-.383.019-.649.019a6.07818,6.07818,0,0,1-.668-.027.50132.50132,0,0,1-.332-.137.35579.35579,0,0,1-.066-.301,3.18859,3.18859,0,0,1,.14-.519l3.703-10.649a.91913.91913,0,0,1,.129-.257.47368.47368,0,0,1,.235-.149,1.93181,1.93181,0,0,1,.449-.062c.191-.012.445-.016.762-.016.367,0,.656.004.875.016a2.41767,2.41767,0,0,1,.504.062.459.459,0,0,1,.257.156.87757.87757,0,0,1,.137.278Zm-5.512-8.804h-.008l-1.699,5.101h3.407Z"/>
  <path class="cls-15" d="M46.012,238.611a3.35559,3.35559,0,0,1,.14.528.322.322,0,0,1-.074.293.66015.66015,0,0,1-.363.121c-.172.015-.41.023-.711.023-.316,0-.563-.008-.738-.016a1.804,1.804,0,0,1-.407-.054.36009.36009,0,0,1-.191-.117.58671.58671,0,0,1-.094-.196l-.808-2.41H38.258l-.762,2.348a.70061.70061,0,0,1-.098.215.37908.37908,0,0,1-.195.14,1.3503,1.3503,0,0,1-.379.071c-.164.011-.379.019-.644.019-.285,0-.508-.012-.668-.027a.53149.53149,0,0,1-.336-.137.36969.36969,0,0,1-.063-.301,3.12145,3.12145,0,0,1,.137-.519l3.703-10.653a1.10817,1.10817,0,0,1,.129-.254.467.467,0,0,1,.238-.148,1.87589,1.87589,0,0,1,.45-.066q.2865-.012.761-.012c.364,0,.653.004.871.012a2.40031,2.40031,0,0,1,.508.066.50261.50261,0,0,1,.258.152.90391.90391,0,0,1,.133.282Zm-5.508-8.804h-.012l-1.695,5.101h3.402Z"/>
  <path class="cls-15" d="M45.063,258.756a3.608,3.608,0,0,1-.176,1.16,3.08152,3.08152,0,0,1-1.231,1.605,4.2717,4.2717,0,0,1-.949.473,5.87806,5.87806,0,0,1-1.109.274,9.05439,9.05439,0,0,1-1.313.089H37.094a.78384.78384,0,0,1-.516-.179.75589.75589,0,0,1-.207-.59V251.123a.75013.75013,0,0,1,.207-.59.764.764,0,0,1,.516-.18h3.015a7.978,7.978,0,0,1,1.868.184,3.74652,3.74652,0,0,1,1.293.563,2.47214,2.47214,0,0,1,.8.949,3.1032,3.1032,0,0,1,.278,1.355,2.909,2.909,0,0,1-.11.821,2.41235,2.41235,0,0,1-.851,1.257,2.744,2.744,0,0,1-.707.391,3.14944,3.14944,0,0,1,.941.324,2.67807,2.67807,0,0,1,1.254,1.457,3.07682,3.07682,0,0,1,.188,1.102m-3.157-5.055a1.77946,1.77946,0,0,0-.109-.648,1.20418,1.20418,0,0,0-.336-.481,1.55689,1.55689,0,0,0-.559-.293,3.34573,3.34573,0,0,0-.906-.097H38.762v3.117h1.363a2.29,2.29,0,0,0,.848-.129,1.47667,1.47667,0,0,0,.523-.34,1.36888,1.36888,0,0,0,.309-.512,1.81526,1.81526,0,0,0,.101-.617m.625,5.141a1.89029,1.89029,0,0,0-.14-.746,1.44977,1.44977,0,0,0-.407-.555,1.9253,1.9253,0,0,0-.687-.344,4.13125,4.13125,0,0,0-1.086-.117H38.762v3.414h1.765a2.9762,2.9762,0,0,0,.856-.109,1.72881,1.72881,0,0,0,.605-.317,1.43009,1.43009,0,0,0,.399-.519,1.7062,1.7062,0,0,0,.144-.707"/>
  <path class="cls-15" d="M44.672,283.795c0,.152-.004.285-.012.394a2.05022,2.05022,0,0,1-.043.278.78077.78077,0,0,1-.074.199.89265.89265,0,0,1-.148.191,2.05624,2.05624,0,0,1-.395.274,4.80326,4.80326,0,0,1-.715.32,5.9289,5.9289,0,0,1-.965.254,6.54777,6.54777,0,0,1-1.172.102,6.158,6.158,0,0,1-2.226-.379,4.36428,4.36428,0,0,1-1.688-1.137,5.11914,5.11914,0,0,1-1.07-1.887,8.52747,8.52747,0,0,1-.371-2.636,8.33266,8.33266,0,0,1,.41-2.719,5.66682,5.66682,0,0,1,1.141-1.992,4.74589,4.74589,0,0,1,1.758-1.227,5.95819,5.95819,0,0,1,2.257-.418,5.11868,5.11868,0,0,1,.965.086,6.17033,6.17033,0,0,1,.86.215,4.48734,4.48734,0,0,1,.711.312,2.12341,2.12341,0,0,1,.437.301.9906.9906,0,0,1,.176.211.77694.77694,0,0,1,.07.211,1.98361,1.98361,0,0,1,.043.309c.012.117.016.261.016.433,0,.188-.008.344-.02.473a1.15414,1.15414,0,0,1-.066.316.4368.4368,0,0,1-.11.176.21562.21562,0,0,1-.148.059.63368.63368,0,0,1-.352-.164,5.635,5.635,0,0,0-.554-.364,4.27219,4.27219,0,0,0-.805-.359,3.4074,3.4074,0,0,0-1.117-.164,2.70207,2.70207,0,0,0-1.277.293,2.7448,2.7448,0,0,0-.958.836,3.92723,3.92723,0,0,0-.597,1.312,7.66251,7.66251,0,0,0,.015,3.567,3.55042,3.55042,0,0,0,.622,1.277,2.53644,2.53644,0,0,0,.972.746,3.2114,3.2114,0,0,0,1.285.246,3.58267,3.58267,0,0,0,1.125-.156,5.05123,5.05123,0,0,0,.809-.336,6.24371,6.24371,0,0,0,.559-.336.68826.68826,0,0,1,.339-.148.2512.2512,0,0,1,.149.039.27825.27825,0,0,1,.09.148,1.4217,1.4217,0,0,1,.054.309,4.86371,4.86371,0,0,1,.02.535"/>
  <path class="cls-15" d="M45.98,302.935a8.2149,8.2149,0,0,1-.429,2.829,4.81216,4.81216,0,0,1-1.238,1.914,4.98256,4.98256,0,0,1-1.961,1.09,9.7235,9.7235,0,0,1-2.754.347H36.73a.67974.67974,0,0,1-.722-.769V297.881a.67992.67992,0,0,1,.722-.77h3.083a8.62472,8.62472,0,0,1,2.722.375,4.91855,4.91855,0,0,1,1.883,1.114,4.76591,4.76591,0,0,1,1.164,1.824,7.25912,7.25912,0,0,1,.398,2.511m-2.523.086a6.0167,6.0167,0,0,0-.199-1.586,3.40616,3.40616,0,0,0-.641-1.273,2.983,2.983,0,0,0-1.133-.84,4.59948,4.59948,0,0,0-1.812-.301H38.438v8.164h1.273a4.817,4.817,0,0,0,1.687-.257,2.87192,2.87192,0,0,0,1.145-.785,3.381,3.381,0,0,0,.687-1.305,6.46292,6.46292,0,0,0,.227-1.817"/>
  <path class="cls-15" d="M43.484,331.814a3.53381,3.53381,0,0,1-.023.45,1.18876,1.18876,0,0,1-.07.293.36147.36147,0,0,1-.114.164.24542.24542,0,0,1-.152.05H37.094a.74687.74687,0,0,1-.516-.183.736.736,0,0,1-.207-.586V321.537a.73975.73975,0,0,1,.207-.59.76626.76626,0,0,1,.516-.183h5.992a.27821.27821,0,0,1,.148.046.40244.40244,0,0,1,.114.165,1.25252,1.25252,0,0,1,.07.296c.012.122.02.274.02.457,0,.176-.008.321-.02.446a1.14133,1.14133,0,0,1-.07.289.46177.46177,0,0,1-.114.164.22765.22765,0,0,1-.148.051H38.801v2.929h3.625a.25555.25555,0,0,1,.156.055.34938.34938,0,0,1,.113.156,1.03307,1.03307,0,0,1,.071.285,3.69182,3.69182,0,0,1,.023.442,3.59413,3.59413,0,0,1-.023.445.9915.9915,0,0,1-.071.281.33132.33132,0,0,1-.113.157.27216.27216,0,0,1-.156.043H38.801v3.386h4.324a.25094.25094,0,0,1,.152.055.34275.34275,0,0,1,.114.16,1.17766,1.17766,0,0,1,.07.293,3.52751,3.52751,0,0,1,.023.449"/>
  <path class="cls-15" d="M42.742,345.271a4.08023,4.08023,0,0,1-.023.469,1.11955,1.11955,0,0,1-.071.301.46484.46484,0,0,1-.117.164.21562.21562,0,0,1-.148.059H38.457v3.23h3.684a.24718.24718,0,0,1,.148.043.44536.44536,0,0,1,.117.16,1.04748,1.04748,0,0,1,.074.297,4.47784,4.47784,0,0,1,0,.926,1.19344,1.19344,0,0,1-.074.305.45024.45024,0,0,1-.117.175.24781.24781,0,0,1-.148.051H38.457v4.469a.28211.28211,0,0,1-.055.176.41621.41621,0,0,1-.199.125,1.64212,1.64212,0,0,1-.375.078,4.27836,4.27836,0,0,1-.594.031,4.20981,4.20981,0,0,1-.589-.031,1.49016,1.49016,0,0,1-.375-.078.41992.41992,0,0,1-.2-.125.24963.24963,0,0,1-.062-.176V345.037a.74639.74639,0,0,1,.207-.586.76185.76185,0,0,1,.515-.183h5.653a.2306.2306,0,0,1,.148.054.43031.43031,0,0,1,.117.164,1.23089,1.23089,0,0,1,.071.309,4.27728,4.27728,0,0,1,.023.476"/>
  <path class="cls-15" d="M45.637,369.217a3.82743,3.82743,0,0,1-.024.465,1.49576,1.49576,0,0,1-.062.312.348.348,0,0,1-.102.16.21541.21541,0,0,1-.144.047.88841.88841,0,0,1-.391-.168,6.09724,6.09724,0,0,0-.715-.359,7.01687,7.01687,0,0,0-1.062-.364,5.43444,5.43444,0,0,0-1.434-.164,3.93076,3.93076,0,0,0-1.574.301,3.36962,3.36962,0,0,0-1.207.852,3.78316,3.78316,0,0,0-.77,1.328,5.19119,5.19119,0,0,0-.269,1.711,5.51318,5.51318,0,0,0,.273,1.816,3.70087,3.70087,0,0,0,.766,1.309,3.13922,3.13922,0,0,0,1.183.797,4.09533,4.09533,0,0,0,1.524.273,3.732,3.732,0,0,0,.809-.094,2.97031,2.97031,0,0,0,.742-.281v-2.781H40.906a.2866.2866,0,0,1-.258-.211,1.894,1.894,0,0,1-.093-.707,3.57415,3.57415,0,0,1,.023-.438,1.07076,1.07076,0,0,1,.07-.281.40523.40523,0,0,1,.11-.16.25058.25058,0,0,1,.148-.047h4.055a.724.724,0,0,1,.266.047.56271.56271,0,0,1,.203.156.70776.70776,0,0,1,.133.246,1.04754,1.04754,0,0,1,.046.328v4.778a1.10053,1.10053,0,0,1-.097.484.68479.68479,0,0,1-.399.332,7.48957,7.48957,0,0,1-.746.25c-.297.086-.605.164-.922.223-.32.062-.64.109-.965.141-.328.027-.652.046-.98.046a7.54133,7.54133,0,0,1-2.574-.414,5.05058,5.05058,0,0,1-3.129-3.109,7.24909,7.24909,0,0,1-.418-2.555,7.40843,7.40843,0,0,1,.445-2.648,5.58742,5.58742,0,0,1,1.262-1.996,5.47344,5.47344,0,0,1,1.969-1.258,7.29328,7.29328,0,0,1,2.574-.434,8.71952,8.71952,0,0,1,1.422.106,7.39128,7.39128,0,0,1,1.117.262,4.38187,4.38187,0,0,1,.793.328,1.90759,1.90759,0,0,1,.441.308.75609.75609,0,0,1,.18.364,3.14834,3.14834,0,0,1,.055.699"/>
  <path class="cls-15" d="M53.121,207.31a1.69977,1.69977,0,0,1-.019.297.69216.69216,0,0,1-.055.192.2397.2397,0,0,1-.09.105.1816.1816,0,0,1-.109.031H50.875v2.153a.21662.21662,0,0,1-.031.113.28027.28027,0,0,1-.11.082.85214.85214,0,0,1-.203.055,2.23285,2.23285,0,0,1-.316.019,2.28987,2.28987,0,0,1-.317-.019.88013.88013,0,0,1-.203-.055.29284.29284,0,0,1-.113-.082.18747.18747,0,0,1-.035-.113v-2.153H47.582a.16283.16283,0,0,1-.105-.031.22823.22823,0,0,1-.086-.105.55091.55091,0,0,1-.059-.192,1.57067,1.57067,0,0,1-.023-.297,1.69475,1.69475,0,0,1,.019-.296.55383.55383,0,0,1,.055-.196.20609.20609,0,0,1,.078-.105.14657.14657,0,0,1,.102-.031h1.984v-2.149a.22938.22938,0,0,1,.035-.117.263.263,0,0,1,.113-.086.75057.75057,0,0,1,.203-.055,2.45624,2.45624,0,0,1,.317-.019,2.39214,2.39214,0,0,1,.316.019.73007.73007,0,0,1,.203.055.25271.25271,0,0,1,.11.086.26909.26909,0,0,1,.031.117v2.149h1.992a.169.169,0,0,1,.102.031.24215.24215,0,0,1,.082.105.8676.8676,0,0,1,.051.196,1.69475,1.69475,0,0,1,.019.296"/>
  <text class="cls-25" transform="translate(224.17285 576.44714)"><tspan class="cls-26">d</tspan><tspan x="9.32227" y="0">B</tspan></text>
  <path class="cls-10" d="M214.234,455.865a.20232.20232,0,0,1-.027.098.17726.17726,0,0,1-.09.066.78546.78546,0,0,1-.183.043c-.079.008-.176.012-.293.012a2.21957,2.21957,0,0,1-.305-.012.87769.87769,0,0,1-.203-.031.3369.3369,0,0,1-.133-.07.35957.35957,0,0,1-.09-.106l-2.601-3.402v3.41a.18526.18526,0,0,1-.024.094.22386.22386,0,0,1-.09.062.716.716,0,0,1-.172.043,2.65045,2.65045,0,0,1-.281.012,2.591,2.591,0,0,1-.273-.012.67983.67983,0,0,1-.172-.043.14481.14481,0,0,1-.113-.156V446.74a.20381.20381,0,0,1,.023-.097.18819.18819,0,0,1,.09-.067.724.724,0,0,1,.172-.043,2.5876,2.5876,0,0,1,.273-.012,2.647,2.647,0,0,1,.281.012.765.765,0,0,1,.172.043.23078.23078,0,0,1,.09.067.205.205,0,0,1,.024.097v5.567l2.324-2.559a.76705.76705,0,0,1,.117-.113.52777.52777,0,0,1,.148-.075.88967.88967,0,0,1,.2-.042c.078-.004.172-.008.281-.008.117,0,.211.004.289.008a.85581.85581,0,0,1,.187.035.22291.22291,0,0,1,.102.062.1531.1531,0,0,1,.031.098.35845.35845,0,0,1-.043.164.8926.8926,0,0,1-.148.191l-2.227,2.231,2.5,3.246a1.93453,1.93453,0,0,1,.129.187.3001.3001,0,0,1,.035.133"/>
  <path class="cls-10" d="M224.148,455.783a.355.355,0,0,1-.082.152.3482.3482,0,0,1-.152.09,1.099,1.099,0,0,1-.238.047c-.09.008-.207.012-.344.012-.141,0-.258-.004-.359-.012a1.10161,1.10161,0,0,1-.243-.047.30444.30444,0,0,1-.144-.09.41465.41465,0,0,1-.074-.152l-1.852-6.68h-.012l-1.71,6.68a.3696.3696,0,0,1-.067.152.2967.2967,0,0,1-.137.09,1.00631,1.00631,0,0,1-.23.047c-.094.008-.211.012-.359.012q-.2235,0-.375-.012a1.0961,1.0961,0,0,1-.247-.047.31792.31792,0,0,1-.148-.09.28354.28354,0,0,1-.07-.152l-2.34-8.168a1.09188,1.09188,0,0,1-.043-.246.1545.1545,0,0,1,.055-.137.3922.3922,0,0,1,.187-.062c.086-.008.203-.012.348-.012a2.60767,2.60767,0,0,1,.336.012.52079.52079,0,0,1,.187.035.18.18,0,0,1,.09.074.58.58,0,0,1,.039.125l1.988,7.41h.008l1.883-7.398a.79908.79908,0,0,1,.051-.125.19865.19865,0,0,1,.101-.078.81839.81839,0,0,1,.196-.043c.082-.008.195-.012.332-.012a3.04049,3.04049,0,0,1,.304.012.74345.74345,0,0,1,.18.043.17983.17983,0,0,1,.098.078.40442.40442,0,0,1,.054.125l2.028,7.398h.015l1.946-7.406a1.01461,1.01461,0,0,1,.043-.117.13965.13965,0,0,1,.086-.078.73722.73722,0,0,1,.183-.043c.082-.008.184-.012.317-.012a2.28918,2.28918,0,0,1,.324.016.33752.33752,0,0,1,.176.066.17042.17042,0,0,1,.054.137,2.40678,2.40678,0,0,1-.039.246Z"/>
  <path class="cls-10" d="M233.301,455.873a.18807.18807,0,0,1-.028.094.19493.19493,0,0,1-.089.062.637.637,0,0,1-.172.043,2.55821,2.55821,0,0,1-.274.012,2.704,2.704,0,0,1-.281-.012.64349.64349,0,0,1-.168-.043.2043.2043,0,0,1-.09-.062.198.198,0,0,1-.027-.094v-3.602a3.52392,3.52392,0,0,0-.082-.847,1.86366,1.86366,0,0,0-.238-.555,1.05319,1.05319,0,0,0-.407-.355,1.29637,1.29637,0,0,0-.578-.121,1.45035,1.45035,0,0,0-.847.296,4.80011,4.80011,0,0,0-.891.883v4.301a.16169.16169,0,0,1-.027.094.21511.21511,0,0,1-.086.062.72829.72829,0,0,1-.172.043,2.70363,2.70363,0,0,1-.281.012,2.59813,2.59813,0,0,1-.274-.012.76735.76735,0,0,1-.176-.043.17.17,0,0,1-.086-.062.198.198,0,0,1-.027-.094V446.74a.22056.22056,0,0,1,.027-.097.17528.17528,0,0,1,.086-.067.82151.82151,0,0,1,.176-.043,2.59474,2.59474,0,0,1,.274-.012,2.70009,2.70009,0,0,1,.281.012.77909.77909,0,0,1,.172.043.22282.22282,0,0,1,.086.067.17807.17807,0,0,1,.027.097v3.684a3.728,3.728,0,0,1,.98-.762,2.14925,2.14925,0,0,1,.989-.25,2.366,2.366,0,0,1,1.039.207,1.944,1.944,0,0,1,.679.559,2.26649,2.26649,0,0,1,.372.816,4.9848,4.9848,0,0,1,.113,1.133Z"/>
  <path class="cls-10" d="M235.461,457.689a.51617.51617,0,0,1-.07.145.36783.36783,0,0,1-.118.078.69646.69646,0,0,1-.168.039,1.98222,1.98222,0,0,1-.242.012,1.15289,1.15289,0,0,1-.281-.024.45623.45623,0,0,1-.176-.066.2042.2042,0,0,1-.074-.109.24459.24459,0,0,1,.027-.157l4.137-11.339a.40423.40423,0,0,1,.07-.141.32733.32733,0,0,1,.11-.082.45179.45179,0,0,1,.168-.039,2.10239,2.10239,0,0,1,.246-.012,1.36578,1.36578,0,0,1,.281.024.57554.57554,0,0,1,.168.066.16942.16942,0,0,1,.078.109.33191.33191,0,0,1-.019.157Z"/>
  <path class="cls-10" d="M245.148,455.881a.14381.14381,0,0,1-.054.121.45177.45177,0,0,1-.153.062,1.24462,1.24462,0,0,1-.277.02,1.37248,1.37248,0,0,1-.285-.02.365.365,0,0,1-.156-.062.16219.16219,0,0,1-.047-.121v-.617a2.96241,2.96241,0,0,1-.899.671,2.40712,2.40712,0,0,1-1.05.239,2.96276,2.96276,0,0,1-.879-.125,1.9353,1.9353,0,0,1-.668-.367,1.64658,1.64658,0,0,1-.43-.59,1.89929,1.89929,0,0,1-.156-.793,1.85478,1.85478,0,0,1,.215-.903,1.74227,1.74227,0,0,1,.609-.632,2.83619,2.83619,0,0,1,.969-.379,5.9082,5.9082,0,0,1,1.293-.129h.847v-.477a2.35072,2.35072,0,0,0-.074-.629,1.12366,1.12366,0,0,0-.242-.457,1.04645,1.04645,0,0,0-.438-.269,1.86185,1.86185,0,0,0-.656-.094,2.55891,2.55891,0,0,0-.746.098,4.21126,4.21126,0,0,0-.582.218c-.168.079-.305.153-.418.219a.58474.58474,0,0,1-.25.102.159.159,0,0,1-.094-.032.16116.16116,0,0,1-.07-.082.341.341,0,0,1-.047-.136,1.38466,1.38466,0,0,1-.015-.192,1.50187,1.50187,0,0,1,.023-.269.41353.41353,0,0,1,.121-.188,1.35291,1.35291,0,0,1,.316-.207,3.10539,3.10539,0,0,1,.52-.218,4.53425,4.53425,0,0,1,.641-.165,3.88107,3.88107,0,0,1,.703-.066,3.65768,3.65768,0,0,1,1.129.152,1.81872,1.81872,0,0,1,.754.442,1.683,1.683,0,0,1,.414.719,3.50831,3.50831,0,0,1,.132,1.003Zm-1.121-2.813h-.964a3.833,3.833,0,0,0-.809.078,1.742,1.742,0,0,0-.566.235.963.963,0,0,0-.333.371,1.10783,1.10783,0,0,0-.105.496.98547.98547,0,0,0,.305.758,1.19488,1.19488,0,0,0,.851.285,1.55944,1.55944,0,0,0,.824-.227,3.55461,3.55461,0,0,0,.797-.687Z"/>
  <path class="cls-10" d="M252.516,455.873a.1555.1555,0,0,1-.028.094.20824.20824,0,0,1-.086.062.71557.71557,0,0,1-.172.043,3.20515,3.20515,0,0,1-.554,0,.71557.71557,0,0,1-.172-.043.23119.23119,0,0,1-.09-.062.18724.18724,0,0,1-.027-.094v-3.602a3.37575,3.37575,0,0,0-.082-.847,1.74392,1.74392,0,0,0-.239-.555,1.01575,1.01575,0,0,0-.406-.355,1.28445,1.28445,0,0,0-.578-.121,1.47417,1.47417,0,0,0-.848.296,4.70154,4.70154,0,0,0-.886.883v4.301a.18827.18827,0,0,1-.028.094.19892.19892,0,0,1-.09.062.62827.62827,0,0,1-.171.043,2.58889,2.58889,0,0,1-.278.012,2.62043,2.62043,0,0,1-.277-.012.72835.72835,0,0,1-.172-.043.18324.18324,0,0,1-.09-.062.1953.1953,0,0,1-.023-.094v-6.152a.21079.21079,0,0,1,.019-.09.18854.18854,0,0,1,.082-.071.429.429,0,0,1,.16-.042c.063-.004.145-.008.25-.008.102,0,.184.004.25.008a.35012.35012,0,0,1,.153.042.15689.15689,0,0,1,.078.071.13793.13793,0,0,1,.027.09v.812a3.68049,3.68049,0,0,1,1.035-.848,2.19887,2.19887,0,0,1,1.043-.273,2.34929,2.34929,0,0,1,1.036.207,1.91785,1.91785,0,0,1,.679.559,2.25525,2.25525,0,0,1,.375.816,4.95614,4.95614,0,0,1,.11,1.125Z"/>
  <path class="cls-10" d="M259.871,455.873a.16148.16148,0,0,1-.027.094.21472.21472,0,0,1-.086.062.72809.72809,0,0,1-.172.043,2.59084,2.59084,0,0,1-.273.012,2.61916,2.61916,0,0,1-.282-.012.72809.72809,0,0,1-.172-.043.21994.21994,0,0,1-.089-.062.18827.18827,0,0,1-.028-.094v-3.602a3.33081,3.33081,0,0,0-.082-.847,1.76562,1.76562,0,0,0-.238-.555,1.02248,1.02248,0,0,0-.406-.355,1.29919,1.29919,0,0,0-.578-.121,1.46946,1.46946,0,0,0-.848.296,4.7321,4.7321,0,0,0-.887.883v4.301a.198.198,0,0,1-.027.094.2043.2043,0,0,1-.09.062.63677.63677,0,0,1-.172.043,2.56845,2.56845,0,0,1-.277.012,2.64137,2.64137,0,0,1-.278-.012.706.706,0,0,1-.171-.043.17856.17856,0,0,1-.09-.062.185.185,0,0,1-.024-.094v-6.152a.19657.19657,0,0,1,.02-.09.183.183,0,0,1,.082-.071.42913.42913,0,0,1,.16-.042c.062-.004.144-.008.25-.008.102,0,.184.004.25.008a.3496.3496,0,0,1,.152.042.15279.15279,0,0,1,.078.071.13294.13294,0,0,1,.028.09v.812a3.667,3.667,0,0,1,1.035-.848,2.19588,2.19588,0,0,1,1.043-.273,2.34471,2.34471,0,0,1,1.035.207,1.92093,1.92093,0,0,1,.68.559,2.32359,2.32359,0,0,1,.375.816,4.95994,4.95994,0,0,1,.109,1.125Z"/>
  <path class="cls-10" d="M267.199,455.873a.195.195,0,0,1-.023.094.16985.16985,0,0,1-.086.062.6174.6174,0,0,1-.16.043,2.09754,2.09754,0,0,1-.242.012,2.23015,2.23015,0,0,1-.258-.012.59108.59108,0,0,1-.157-.043.16314.16314,0,0,1-.078-.062.19312.19312,0,0,1-.019-.094v-.813a3.92885,3.92885,0,0,1-1.039.848,2.26941,2.26941,0,0,1-1.039.266,2.451,2.451,0,0,1-1.039-.203,1.8679,1.8679,0,0,1-.676-.559,2.25085,2.25085,0,0,1-.375-.82,5.015,5.015,0,0,1-.113-1.141v-3.73a.13259.13259,0,0,1,.027-.09.174.174,0,0,1,.09-.071.49424.49424,0,0,1,.176-.042c.074-.004.164-.008.277-.008.105,0,.199.004.269.008a.473.473,0,0,1,.176.042.23065.23065,0,0,1,.094.071.15751.15751,0,0,1,.027.09v3.582a3.70786,3.70786,0,0,0,.078.863,1.59937,1.59937,0,0,0,.239.555,1.145,1.145,0,0,0,.406.355,1.21719,1.21719,0,0,0,.574.125,1.45154,1.45154,0,0,0,.848-.301,4.87878,4.87878,0,0,0,.89-.879v-4.3a.15671.15671,0,0,1,.024-.09.18774.18774,0,0,1,.09-.071.51687.51687,0,0,1,.175-.042c.071-.004.165-.008.278-.008.109,0,.203.004.273.008a.47067.47067,0,0,1,.172.042.30221.30221,0,0,1,.094.071.15751.15751,0,0,1,.027.09Z"/>
  <path class="cls-10" d="M278.41,455.873a.16155.16155,0,0,1-.027.094.21483.21483,0,0,1-.086.062.72809.72809,0,0,1-.172.043,2.59084,2.59084,0,0,1-.273.012,2.61916,2.61916,0,0,1-.282-.012.75769.75769,0,0,1-.175-.043.17869.17869,0,0,1-.09-.062.15548.15548,0,0,1-.028-.094v-3.738a3.31477,3.31477,0,0,0-.07-.711,1.64025,1.64025,0,0,0-.219-.555.97424.97424,0,0,0-.383-.355,1.14847,1.14847,0,0,0-.546-.121,1.29109,1.29109,0,0,0-.782.296,5.7384,5.7384,0,0,0-.867.883v4.301a.195.195,0,0,1-.023.094.21992.21992,0,0,1-.094.062.71707.71707,0,0,1-.176.043,2.53828,2.53828,0,0,1-.273.012,2.56871,2.56871,0,0,1-.27-.012.78465.78465,0,0,1-.179-.043.16567.16567,0,0,1-.086-.062.18524.18524,0,0,1-.024-.094v-3.738a3.06933,3.06933,0,0,0-.074-.711,1.82877,1.82877,0,0,0-.227-.555,1.00607,1.00607,0,0,0-.382-.355,1.12782,1.12782,0,0,0-.543-.121,1.31054,1.31054,0,0,0-.786.296,5.38983,5.38983,0,0,0-.859.883v4.301a.19775.19775,0,0,1-.027.094.20436.20436,0,0,1-.09.062.63677.63677,0,0,1-.172.043,2.56845,2.56845,0,0,1-.277.012,2.64069,2.64069,0,0,1-.278-.012.72809.72809,0,0,1-.172-.043.17542.17542,0,0,1-.089-.062.18524.18524,0,0,1-.024-.094v-6.152a.19657.19657,0,0,1,.02-.09.18312.18312,0,0,1,.082-.071.42392.42392,0,0,1,.16-.042c.062-.004.144-.008.25-.008.101,0,.183.004.25.008a.34951.34951,0,0,1,.152.042.15284.15284,0,0,1,.078.071.133.133,0,0,1,.028.09v.812a3.79721,3.79721,0,0,1,1.008-.848,1.99356,1.99356,0,0,1,.988-.273,2.4153,2.4153,0,0,1,.683.09,1.78221,1.78221,0,0,1,.539.25,1.65131,1.65131,0,0,1,.399.383,2.2228,2.2228,0,0,1,.269.496,6.66432,6.66432,0,0,1,.586-.571,4.32442,4.32442,0,0,1,.532-.375,2.309,2.309,0,0,1,.5-.207,1.93518,1.93518,0,0,1,.492-.066,2.18425,2.18425,0,0,1,.996.207,1.85851,1.85851,0,0,1,.652.559,2.24281,2.24281,0,0,1,.356.816,4.53306,4.53306,0,0,1,.105.988Z"/>
  <text class="cls-27" transform="translate(28.10303 597.4325)">2010/1060</text>
  
  <polygon class="cls-15" points="229.68 204.85 229.664 204.85 227.074 212.639 232.273 212.639 229.68 204.85"/>
  <path class="cls-10" d="M57.391,466.799h.879V460.06h-.879Zm-1.313-3.539H53.859v.699h1.36v2.012a2.82067,2.82067,0,0,1-1.16.179,2.46744,2.46744,0,0,1-2.602-2.718,2.5208,2.5208,0,0,1,2.711-2.711,3.316,3.316,0,0,1,1.492.289l.219-.707a4.19415,4.19415,0,0,0-1.691-.313,3.37505,3.37505,0,0,0-3.649,3.481A3.16276,3.16276,0,0,0,54,466.869a6.02721,6.02721,0,0,0,2.078-.371Zm-9.68-2.5a3.89355,3.89355,0,0,1,.86-.071c.922,0,1.551.379,1.551,1.25,0,.77-.59,1.282-1.52,1.282h-.891Zm-.867,6.039h.867v-2.918h.821c.793.027,1.16.379,1.359,1.308a8.69541,8.69541,0,0,0,.442,1.61h.898a10.49889,10.49889,0,0,1-.52-1.848,1.69577,1.69577,0,0,0-.976-1.363v-.028a1.77036,1.77036,0,0,0,1.258-1.71,1.71391,1.71391,0,0,0-.532-1.29,2.78085,2.78085,0,0,0-1.949-.55,10.30021,10.30021,0,0,0-1.668.14ZM44.09,462.92H41.48v-2.129h2.77v-.731H40.602v6.739h3.796v-.727H41.48v-2.433h2.61Zm-9.242,3.879V463.92c0-1.121-.008-1.93-.059-2.781l.031-.008a19.02045,19.02045,0,0,0,1.25,2.25l2.141,3.418h.879V460.06h-.82v2.821c0,1.051.019,1.871.101,2.769l-.031.012a18.87638,18.87638,0,0,0-1.199-2.191l-2.153-3.411h-.957v6.739ZM32.59,462.92H29.98v-2.129h2.77v-.731H29.102v6.739h3.796v-.727H29.98v-2.433h2.61Z"/>
  <g id="rating">
    <polyline id="ratingArrow" class="cls-10" points="205.06 163.36 224.56 143.18 283.52 143.18 283.52 183.12 224.56 183.12 205.06 163.36"/>
    <text id="ratingLetter" class="cls-28" transform="translate(219.23047 171.86023)">A</text>
    <text id="ratingPlusses" class="cls-29" transform="translate(238.21973 162.64978)">+++</text>
  </g>
  <text id="kwhAnnum" class="cls-30" transform="translate(243.08984 440.04968)" text-anchor="middle">X</text>
  <text transform="translate(88.32422 576.60632)" text-anchor="middle">
    <tspan class="cls-25">X</tspan><tspan id="bottleCapacity" class="cls-31">X</tspan>
  </text>
  <text id="db" class="cls-31" transform="translate(220.58984 576.45007)" text-anchor="end">X</text>
  <text id="supplierLine2" class="cls-32" transform="translate(25.50959 119.05041)">X</text>
  <text id="supplierLine1" class="cls-32" transform="translate(25.50959 102.79204)">X</text>
  <text id="modelLine2" class="cls-32" transform="translate(164.40998 119.05041)">X</text>
  <text id="modelLine1" class="cls-32" transform="translate(164.40998 102.79204)">X</text>
</svg>
