<svg id="Layer_1" data-name="Layer 1" xmlns="http://www.w3.org/2000/svg" xmlns:xlink="http://www.w3.org/1999/xlink" width="105.00078mm" height="200.0003mm" viewBox="0 0 297.64001 566.92999" data-rating-increment="22.5333" data-supplier-model-chars-per-row="25">
  <defs>
    <style>
      #combinationBoiler,
      #cogenerationBoiler {
        display: none;
      }

      #combinationBoiler.isCombinationBoiler,
      #cogenerationBoiler.isCogenerationBoiler {
        display: inline;
      }

      .cls-1, .cls-3, .cls-39, .cls-4, .cls-55 {
        fill: none;
      }

      .cls-2 {
        clip-path: url(#clip-path);
      }

      .cls-3, .cls-39, .cls-55 {
        stroke: #00aeef;
      }

      .cls-3 {
        stroke-width: 4px;
      }

      .cls-4 {
        stroke: #000;
        stroke-width: 1.114px;
      }

      .cls-5 {
        clip-path: url(#clip-path-2);
      }

      .cls-6 {
        fill: #8ed8f7;
      }

      .cls-7 {
        fill: #05090a;
      }

      .cls-8 {
        fill: #24b9ec;
      }

      .cls-9 {
        opacity: 0.49;
      }

      .cls-10 {
        clip-path: url(#clip-path-5);
      }

      .cls-11 {
        clip-path: url(#clip-path-6);
      }

      .cls-12, .cls-47, .cls-48, .cls-50, .cls-51, .cls-53, .cls-62, .cls-64, .cls-65 {
        fill: #fff;
      }

      .cls-13 {
        clip-path: url(#clip-path-9);
      }

      .cls-14 {
        clip-path: url(#clip-path-13);
      }

      .cls-15 {
        clip-path: url(#clip-path-17);
      }

      .cls-16 {
        clip-path: url(#clip-path-18);
      }

      .cls-17 {
        clip-path: url(#clip-path-21);
      }

      .cls-18 {
        clip-path: url(#clip-path-25);
      }

      .cls-19 {
        clip-path: url(#clip-path-26);
      }

      .cls-20 {
        clip-path: url(#clip-path-29);
      }

      .cls-21 {
        clip-path: url(#clip-path-33);
      }

      .cls-22 {
        clip-path: url(#clip-path-37);
      }

      .cls-23 {
        clip-path: url(#clip-path-38);
      }

      .cls-24 {
        clip-path: url(#clip-path-41);
      }

      .cls-25 {
        clip-path: url(#clip-path-44);
      }

      .cls-26 {
        clip-path: url(#clip-path-46);
      }

      .cls-27 {
        clip-path: url(#clip-path-47);
      }

      .cls-28 {
        clip-path: url(#clip-path-48);
      }

      .cls-29 {
        clip-path: url(#clip-path-49);
      }

      .cls-30 {
        clip-path: url(#clip-path-50);
      }

      .cls-31 {
        clip-path: url(#clip-path-52);
      }

      .cls-32 {
        clip-path: url(#clip-path-53);
      }

      .cls-33 {
        clip-path: url(#clip-path-54);
      }

      .cls-34 {
        clip-path: url(#clip-path-55);
      }

      .cls-35 {
        fill: #034ea2;
      }

      .cls-36, .cls-59 {
        fill: #00aeef;
      }

      .cls-37 {
        fill: #fff200;
      }

      .cls-38 {
        clip-path: url(#clip-path-57);
      }

      .cls-40 {
        fill: #bfd730;
      }

      .cls-41 {
        fill: #50b848;
      }

      .cls-42 {
        fill: #00a651;
      }

      .cls-43 {
        fill: #fdb913;
      }

      .cls-44 {
        fill: #f37021;
      }

      .cls-45 {
        fill: #ed1c24;
      }

      .cls-46 {
        clip-path: url(#clip-path-58);
      }

      .cls-47 {
        font-size: 19px;
      }

      .cls-47, .cls-48, .cls-50, .cls-51, .cls-53, .cls-54, .cls-56, .cls-64, .cls-66 {
        font-family: Calibri-Bold, Calibri;
        font-weight: 700;
      }

      .cls-48 {
        font-size: 13px;
      }

      .cls-49 {
        letter-spacing: 0.00999em;
      }

      .cls-50 {
        font-size: 16px;
      }

      .cls-51, .cls-53 {
        font-size: 9.328px;
      }

      .cls-51 {
        letter-spacing: 0.01em;
      }

      .cls-52 {
        letter-spacing: -0.00005em;
      }

      .cls-54 {
        font-size: 10px;
      }

      .cls-54, .cls-56, .cls-57, .cls-63, .cls-66, .cls-67 {
        fill: #231f20;
      }

      .cls-55 {
        stroke-width: 2px;
      }

      .cls-56, .cls-57 {
        font-size: 30px;
      }

      .cls-57, .cls-65, .cls-67 {
        font-family: Calibri;
      }

      .cls-58 {
        clip-path: url(#clip-path-59);
      }

      .cls-59, .cls-62 {
        fill-rule: evenodd;
      }

      .cls-60 {
        clip-path: url(#clip-path-60);
      }

      .cls-61 {
        fill: #00b9f2;
      }

      .cls-64 {
        font-size: 24px;
      }

      .cls-65 {
        font-size: 15px;
      }

      .cls-66 {
        font-size: 45px;
      }

      .cls-67 {
        font-size: 11.03156px;
      }
    </style>
    <clipPath id="clip-path">
      <rect class="cls-1" y="0.00098" width="297.638" height="566.92902"/>
    </clipPath>
    <clipPath id="clip-path-2">
      <rect class="cls-1" x="26.513" y="119.07999" width="42.918" height="31.72"/>
    </clipPath>
    <clipPath id="clip-path-5">
      <rect class="cls-1" x="53.7442" y="121.77499" width="1.1451" height="1.66199"/>
    </clipPath>
    <clipPath id="clip-path-6">
      <rect class="cls-1" x="53.745" y="121.77499" width="1.145" height="1.66199"/>
    </clipPath>
    <clipPath id="clip-path-9">
      <rect class="cls-1" x="59.3998" y="121.77499" width="1.145" height="1.66199"/>
    </clipPath>
    <clipPath id="clip-path-13">
      <rect class="cls-1" x="47.9428" y="121.77499" width="1.1451" height="1.66199"/>
    </clipPath>
    <clipPath id="clip-path-17">
      <rect class="cls-1" x="42.1261" y="121.77499" width="1.1452" height="1.66199"/>
    </clipPath>
    <clipPath id="clip-path-18">
      <rect class="cls-1" x="42.127" y="121.77499" width="1.145" height="1.66199"/>
    </clipPath>
    <clipPath id="clip-path-21">
      <rect class="cls-1" x="36.3247" y="121.77499" width="1.1452" height="1.66199"/>
    </clipPath>
    <clipPath id="clip-path-25">
      <rect class="cls-1" x="53.7442" y="144.12698" width="1.1451" height="1.66202"/>
    </clipPath>
    <clipPath id="clip-path-26">
      <rect class="cls-1" x="53.745" y="144.12701" width="1.145" height="1.66199"/>
    </clipPath>
    <clipPath id="clip-path-29">
      <rect class="cls-1" x="59.3998" y="144.12698" width="1.145" height="1.66202"/>
    </clipPath>
    <clipPath id="clip-path-33">
      <rect class="cls-1" x="47.9428" y="144.12698" width="1.1451" height="1.66202"/>
    </clipPath>
    <clipPath id="clip-path-37">
      <rect class="cls-1" x="42.1261" y="144.12698" width="1.1452" height="1.66202"/>
    </clipPath>
    <clipPath id="clip-path-38">
      <rect class="cls-1" x="42.127" y="144.12701" width="1.145" height="1.66199"/>
    </clipPath>
    <clipPath id="clip-path-41">
      <rect class="cls-1" x="36.3247" y="144.12698" width="1.1452" height="1.66202"/>
    </clipPath>
    <clipPath id="clip-path-44">
      <rect class="cls-1" x="60.876" y="120.44998" width="1.6253" height="26.677"/>
    </clipPath>
    <clipPath id="clip-path-46">
      <rect class="cls-1" x="55.086" y="120.44998" width="1.6252" height="26.677"/>
    </clipPath>
    <clipPath id="clip-path-47">
      <rect class="cls-1" x="55.086" y="120.44998" width="1.624" height="26.677"/>
    </clipPath>
    <clipPath id="clip-path-48">
      <rect class="cls-1" x="49.2963" y="120.44998" width="1.6257" height="26.677"/>
    </clipPath>
    <clipPath id="clip-path-49">
      <rect class="cls-1" x="49.297" y="120.44998" width="1.624" height="26.677"/>
    </clipPath>
    <clipPath id="clip-path-50">
      <rect class="cls-1" x="43.506" y="120.44998" width="1.6251" height="26.677"/>
    </clipPath>
    <clipPath id="clip-path-52">
      <rect class="cls-1" x="37.716" y="120.44998" width="1.6252" height="26.677"/>
    </clipPath>
    <clipPath id="clip-path-53">
      <rect class="cls-1" x="37.716" y="120.44998" width="1.624" height="26.677"/>
    </clipPath>
    <clipPath id="clip-path-54">
      <rect class="cls-1" x="31.9262" y="120.44998" width="1.6258" height="26.677"/>
    </clipPath>
    <clipPath id="clip-path-55">
      <rect class="cls-1" x="31.927" y="120.44998" width="1.624" height="26.677"/>
    </clipPath>
    <clipPath id="clip-path-57">
      <rect class="cls-1" x="26.964" y="26.36298" width="243.77999" height="48.18903"/>
    </clipPath>
    <clipPath id="clip-path-58">
      <rect class="cls-1" x="26.513" y="175.11899" width="145.089" height="155.47301"/>
    </clipPath>
    <clipPath id="clip-path-59">
      <rect class="cls-1" x="47.364" y="470.771" width="29.822" height="27.617"/>
    </clipPath>
    <clipPath id="clip-path-60">
      <rect class="cls-1" x="123.908" y="466.82199" width="36.061" height="35.124"/>
    </clipPath>
  </defs>
  <title>solid-fuel-boilers-2019</title>
  <g class="cls-2">
    <path class="cls-3" d="M24.0691,16.16577s-7.904,0-7.904,7.90405v518.791s0,7.904,7.904,7.904h249.5s7.904,0,7.904-7.904V24.06982s0-7.90405-7.904-7.90405Z"/>
    <line class="cls-4" x1="33.0593" y1="123.7561" x2="29.1123" y2="123.7561"/>
  </g>
  <g class="cls-5">
    <path class="cls-4" d="M64.0992,144.9595h1.348a1.2584,1.2584,0,0,1,1.385,1.299v1.967"/>
    <path d="M30.0121,122.44928a.18124.18124,0,0,1-.175.157h-1.283a.18045.18045,0,0,1-.175-.157l-.244-2.189a.1385.1385,0,0,1,.141-.156h1.839a.13726.13726,0,0,1,.14.156Z"/>
    <line class="cls-4" x1="29.2255" y1="148.39398" x2="29.2255" y2="121.677"/>
    <path class="cls-6" d="M64.3577,145.50269a2.106,2.106,0,0,1-1.856,1.856,2.13966,2.13966,0,0,1-1.857-1.856v-23.53a1.8565,1.8565,0,0,1,3.713,0Z"/>
    <polygon class="cls-7" points="36.325 145.888 34.035 146.259 34.035 143.66 36.325 144.032 36.325 145.888"/>
    <polygon class="cls-6" points="36.325 145.888 38.615 146.259 38.615 143.66 36.325 144.032 36.325 145.888"/>
    <polygon class="cls-6" points="42.127 145.888 39.837 146.259 39.837 143.66 42.127 144.032 42.127 145.888"/>
    <polygon class="cls-6" points="42.127 145.888 44.417 146.259 44.417 143.66 42.127 144.032 42.127 145.888"/>
    <polygon class="cls-6" points="47.943 145.888 45.653 146.259 45.653 143.66 47.943 144.032 47.943 145.888"/>
    <polygon class="cls-6" points="47.943 145.888 50.232 146.259 50.232 143.66 47.943 144.032 47.943 145.888"/>
    <polygon class="cls-6" points="53.745 145.888 51.456 146.259 51.456 143.66 53.745 144.032 53.745 145.888"/>
    <polygon class="cls-6" points="53.745 145.888 56.034 146.259 56.034 143.66 53.745 144.032 53.745 145.888"/>
    <polygon class="cls-6" points="59.732 145.888 57.443 146.259 57.443 143.66 59.732 144.032 59.732 145.888"/>
    <polygon class="cls-6" points="59.732 145.888 62.021 146.259 62.021 143.66 59.732 144.032 59.732 145.888"/>
    <polygon class="cls-7" points="36.325 123.534 34.035 123.905 34.035 121.306 36.325 121.678 36.325 123.534"/>
    <polygon class="cls-6" points="36.325 123.534 38.615 123.905 38.615 121.306 36.325 121.678 36.325 123.534"/>
    <polygon class="cls-6" points="42.127 123.534 39.837 123.905 39.837 121.306 42.127 121.678 42.127 123.534"/>
    <polygon class="cls-6" points="42.127 123.534 44.417 123.905 44.417 121.306 42.127 121.678 42.127 123.534"/>
    <polygon class="cls-6" points="47.943 123.534 45.653 123.905 45.653 121.306 47.943 121.678 47.943 123.534"/>
    <polygon class="cls-6" points="47.943 123.534 50.232 123.905 50.232 121.306 47.943 121.678 47.943 123.534"/>
    <polygon class="cls-6" points="53.745 123.534 51.456 123.905 51.456 121.306 53.745 121.678 53.745 123.534"/>
    <polygon class="cls-6" points="53.745 123.534 56.034 123.905 56.034 121.306 53.745 121.678 53.745 123.534"/>
    <polygon class="cls-8" points="53.745 123.199 54.89 123.438 54.89 121.775 53.745 122.013 53.745 123.199"/>
    <polygon class="cls-6" points="59.732 123.534 57.443 123.905 57.443 121.306 59.732 121.678 59.732 123.534"/>
    <polygon class="cls-6" points="59.732 123.534 62.021 123.905 62.021 121.306 59.732 121.678 59.732 123.534"/>
  </g>
  <g class="cls-2">
    <polygon class="cls-7" points="53.745 123.534 51.456 123.905 51.456 121.306 53.745 121.678 53.745 123.534"/>
    <polygon class="cls-7" points="53.745 123.534 56.034 123.905 56.034 121.306 53.745 121.678 53.745 123.534"/>
  </g>
  <g class="cls-5">
    <g class="cls-9">
      <g class="cls-10">
        <g class="cls-11">
          <polygon class="cls-12" points="54.889 121.775 53.744 122.013 53.744 123.2 54.889 123.437 54.889 121.775"/>
        </g>
      </g>
    </g>
  </g>
  <g class="cls-2">
    <polygon class="cls-7" points="59.4 123.534 57.111 123.905 57.111 121.306 59.4 121.678 59.4 123.534"/>
    <polygon class="cls-7" points="59.4 123.534 61.689 123.905 61.689 121.306 59.4 121.678 59.4 123.534"/>
  </g>
  <g class="cls-5">
    <g class="cls-9">
      <g class="cls-13">
        <g class="cls-13">
          <polygon class="cls-12" points="60.545 121.775 59.4 122.013 59.4 123.2 60.545 123.437 60.545 121.775"/>
        </g>
      </g>
    </g>
  </g>
  <g class="cls-2">
    <polygon class="cls-7" points="47.943 123.534 45.654 123.905 45.654 121.306 47.943 121.678 47.943 123.534"/>
    <polygon class="cls-7" points="47.943 123.534 50.232 123.905 50.232 121.306 47.943 121.678 47.943 123.534"/>
  </g>
  <g class="cls-5">
    <g class="cls-9">
      <g class="cls-14">
        <g class="cls-14">
          <polygon class="cls-12" points="49.088 121.775 47.943 122.013 47.943 123.2 49.088 123.437 49.088 121.775"/>
        </g>
      </g>
    </g>
  </g>
  <g class="cls-2">
    <polygon class="cls-7" points="42.127 123.534 39.838 123.905 39.838 121.306 42.127 121.678 42.127 123.534"/>
    <polygon class="cls-7" points="42.127 123.534 44.416 123.905 44.416 121.306 42.127 121.678 42.127 123.534"/>
  </g>
  <g class="cls-5">
    <g class="cls-9">
      <g class="cls-15">
        <g class="cls-16">
          <polygon class="cls-12" points="43.271 121.775 42.126 122.013 42.126 123.2 43.271 123.437 43.271 121.775"/>
        </g>
      </g>
    </g>
  </g>
  <g class="cls-2">
    <polygon class="cls-7" points="36.325 123.534 34.036 123.905 34.036 121.306 36.325 121.678 36.325 123.534"/>
    <polygon class="cls-7" points="36.325 123.534 38.614 123.905 38.614 121.306 36.325 121.678 36.325 123.534"/>
  </g>
  <g class="cls-5">
    <g class="cls-9">
      <g class="cls-17">
        <g class="cls-17">
          <polygon class="cls-12" points="37.47 121.775 36.325 122.013 36.325 123.2 37.47 123.437 37.47 121.775"/>
        </g>
      </g>
    </g>
  </g>
  <g class="cls-2">
    <polygon class="cls-7" points="53.745 145.886 51.456 146.257 51.456 143.658 53.745 144.03 53.745 145.886"/>
    <polygon class="cls-7" points="53.745 145.886 56.034 146.257 56.034 143.658 53.745 144.03 53.745 145.886"/>
  </g>
  <g class="cls-5">
    <g class="cls-9">
      <g class="cls-18">
        <g class="cls-19">
          <polygon class="cls-12" points="54.889 144.127 53.744 144.365 53.744 145.552 54.889 145.789 54.889 144.127"/>
        </g>
      </g>
    </g>
  </g>
  <g class="cls-2">
    <polygon class="cls-7" points="59.4 145.886 57.111 146.257 57.111 143.658 59.4 144.03 59.4 145.886"/>
    <polygon class="cls-7" points="59.4 145.886 61.689 146.257 61.689 143.658 59.4 144.03 59.4 145.886"/>
  </g>
  <g class="cls-5">
    <g class="cls-9">
      <g class="cls-20">
        <g class="cls-20">
          <polygon class="cls-12" points="60.545 144.127 59.4 144.365 59.4 145.552 60.545 145.789 60.545 144.127"/>
        </g>
      </g>
    </g>
  </g>
  <g class="cls-2">
    <polygon class="cls-7" points="47.943 145.886 45.654 146.257 45.654 143.658 47.943 144.03 47.943 145.886"/>
    <polygon class="cls-7" points="47.943 145.886 50.232 146.257 50.232 143.658 47.943 144.03 47.943 145.886"/>
  </g>
  <g class="cls-5">
    <g class="cls-9">
      <g class="cls-21">
        <g class="cls-21">
          <polygon class="cls-12" points="49.088 144.127 47.943 144.365 47.943 145.552 49.088 145.789 49.088 144.127"/>
        </g>
      </g>
    </g>
  </g>
  <g class="cls-2">
    <polygon class="cls-7" points="42.127 145.886 39.838 146.257 39.838 143.658 42.127 144.03 42.127 145.886"/>
    <polygon class="cls-7" points="42.127 145.886 44.416 146.257 44.416 143.658 42.127 144.03 42.127 145.886"/>
  </g>
  <g class="cls-5">
    <g class="cls-9">
      <g class="cls-22">
        <g class="cls-23">
          <polygon class="cls-12" points="43.271 144.127 42.126 144.365 42.126 145.552 43.271 145.789 43.271 144.127"/>
        </g>
      </g>
    </g>
  </g>
  <g class="cls-2">
    <polygon class="cls-7" points="36.325 145.886 34.036 146.257 34.036 143.658 36.325 144.03 36.325 145.886"/>
    <polygon class="cls-7" points="36.325 145.886 38.614 146.257 38.614 143.658 36.325 144.03 36.325 145.886"/>
  </g>
  <g class="cls-5">
    <g class="cls-9">
      <g class="cls-24">
        <g class="cls-24">
          <polygon class="cls-12" points="37.47 144.127 36.325 144.365 36.325 145.552 37.47 145.789 37.47 144.127"/>
        </g>
      </g>
    </g>
    <path class="cls-7" d="M64.3577,145.50269a2.106,2.106,0,0,1-1.856,1.856,2.13966,2.13966,0,0,1-1.857-1.856v-23.53a1.8565,1.8565,0,0,1,3.713,0Z"/>
    <path class="cls-7" d="M58.5407,145.50269a2.106,2.106,0,0,1-1.856,1.856,2.13966,2.13966,0,0,1-1.857-1.856v-23.53a1.8565,1.8565,0,0,1,3.713,0Z"/>
    <path class="cls-7" d="M52.7237,145.50269a2.106,2.106,0,0,1-1.856,1.856,2.13966,2.13966,0,0,1-1.857-1.856v-23.53a2.14445,2.14445,0,0,1,1.857-1.856,2.14349,2.14349,0,0,1,1.856,1.856Z"/>
    <path class="cls-7" d="M46.9071,145.50269a2.106,2.106,0,0,1-1.856,1.856,2.13966,2.13966,0,0,1-1.857-1.856v-23.53a2.14445,2.14445,0,0,1,1.857-1.856,2.14349,2.14349,0,0,1,1.856,1.856Z"/>
    <path class="cls-7" d="M41.0901,145.50269a2.106,2.106,0,0,1-1.856,1.856,2.13966,2.13966,0,0,1-1.857-1.856v-23.53a2.14445,2.14445,0,0,1,1.857-1.856,2.14349,2.14349,0,0,1,1.856,1.856Z"/>
    <path class="cls-7" d="M35.2731,145.50269a2.106,2.106,0,0,1-1.856,1.856,2.13966,2.13966,0,0,1-1.857-1.856v-23.53a2.14445,2.14445,0,0,1,1.857-1.856,2.14349,2.14349,0,0,1,1.856,1.856Z"/>
  </g>
  <g class="cls-5">
    <g class="cls-9">
      <g class="cls-25">
        <g class="cls-25">
          <path class="cls-12" d="M62.5013,147.12711a1.98712,1.98712,0,0,1-1.625-1.818v-23.041a1.99111,1.99111,0,0,1,1.625-1.818"/>
        </g>
      </g>
    </g>
    <g class="cls-9">
      <g class="cls-26">
        <g class="cls-27">
          <path class="cls-12" d="M56.7111,147.12711a1.98712,1.98712,0,0,1-1.625-1.818v-23.041a1.99111,1.99111,0,0,1,1.625-1.818"/>
        </g>
      </g>
    </g>
    <g class="cls-9">
      <g class="cls-28">
        <g class="cls-29">
          <path class="cls-12" d="M50.9213,147.12711a1.98712,1.98712,0,0,1-1.625-1.818v-23.041a1.99111,1.99111,0,0,1,1.625-1.818"/>
        </g>
      </g>
    </g>
    <g class="cls-9">
      <g class="cls-30">
        <g class="cls-30">
          <path class="cls-12" d="M45.1311,147.12711a1.98712,1.98712,0,0,1-1.625-1.818v-23.041a1.99111,1.99111,0,0,1,1.625-1.818"/>
        </g>
      </g>
    </g>
    <g class="cls-9">
      <g class="cls-31">
        <g class="cls-32">
          <path class="cls-12" d="M39.3412,147.12711a1.98712,1.98712,0,0,1-1.625-1.818v-23.041a1.99111,1.99111,0,0,1,1.625-1.818"/>
        </g>
      </g>
    </g>
    <g class="cls-9">
      <g class="cls-33">
        <g class="cls-34">
          <path class="cls-12" d="M33.5512,147.12711a1.98712,1.98712,0,0,1-1.625-1.818v-23.041a1.99111,1.99111,0,0,1,1.625-1.818"/>
        </g>
      </g>
    </g>
  </g>
  <g class="cls-2">
    <rect class="cls-35" x="26.983" y="26.492" width="71.121" height="48.05899"/>
    <rect class="cls-36" x="100.456" y="26.492" width="170.28799" height="48.06"/>
    <polygon class="cls-37" points="76.295 43.209 74.764 44.333 75.349 42.515 73.82 41.391 75.709 41.391 76.293 39.572 76.879 41.391 78.768 41.391 77.24 42.515 77.823 44.333 76.295 43.209"/>
    <polygon class="cls-37" points="69.397 36.747 67.868 35.624 69.758 35.624 70.342 33.806 70.926 35.624 72.816 35.624 71.287 36.747 71.871 38.566 70.342 37.443 68.813 38.567 69.397 36.747"/>
    <polygon class="cls-37" points="61.719 34.685 60.19 33.561 62.08 33.561 62.664 31.743 63.248 33.561 65.138 33.561 63.609 34.685 64.193 36.503 62.664 35.38 61.135 36.504 61.719 34.685"/>
    <polygon class="cls-37" points="53.633 36.747 52.104 35.624 53.994 35.624 54.578 33.806 55.162 35.624 57.052 35.624 55.523 36.747 56.107 38.566 54.578 37.443 53.049 38.567 53.633 36.747"/>
    <polygon class="cls-37" points="47.858 42.797 46.329 41.673 48.219 41.673 48.803 39.855 49.387 41.673 51.277 41.673 49.748 42.797 50.332 44.615 48.803 43.492 47.274 44.616 47.858 42.797"/>
    <polygon class="cls-37" points="46.013 50.745 44.484 49.621 46.374 49.621 46.958 47.803 47.542 49.621 49.432 49.621 47.903 50.745 48.487 52.563 46.958 51.44 45.429 52.564 46.013 50.745"/>
    <polygon class="cls-37" points="47.915 58.798 46.386 57.674 48.276 57.674 48.86 55.855 49.444 57.674 51.334 57.674 49.805 58.798 50.389 60.616 48.86 59.493 47.331 60.617 47.915 58.798"/>
    <polygon class="cls-37" points="53.633 64.521 52.104 63.397 53.994 63.397 54.578 61.578 55.162 63.397 57.052 63.397 55.523 64.521 56.107 66.339 54.578 65.216 53.049 66.339 53.633 64.521"/>
    <polygon class="cls-37" points="62.664 67.346 61.135 68.47 61.719 66.652 60.19 65.527 62.079 65.527 62.663 63.709 63.247 65.527 65.137 65.527 63.609 66.652 64.193 68.47 62.664 67.346"/>
    <polygon class="cls-37" points="70.531 65.186 69.002 66.31 69.586 64.491 68.057 63.367 69.947 63.367 70.531 61.548 71.115 63.367 73.005 63.367 71.476 64.491 72.06 66.31 70.531 65.186"/>
    <polygon class="cls-37" points="75.309 58.746 73.779 57.622 75.669 57.622 76.252 55.804 76.838 57.622 78.728 57.622 77.199 58.746 77.783 60.565 76.254 59.441 74.723 60.565 75.309 58.746"/>
    <polygon class="cls-37" points="77.415 50.634 75.886 49.51 77.776 49.51 78.359 47.692 78.944 49.51 80.834 49.51 79.305 50.634 79.889 52.452 78.36 51.329 76.831 52.453 77.415 50.634"/>
    <polygon class="cls-12" points="109.759 55.194 109.759 34.711 121.533 34.711 121.533 37.78 113.454 37.78 113.454 43.068 121.083 43.068 121.083 46.107 113.454 46.107 113.454 52.124 121.984 52.124 121.984 55.194 109.759 55.194"/>
  </g>
  <g class="cls-38">
    <path class="cls-12" d="M126.7294,55.19409v-20.483h4.205l5.227,8.783a56.67,56.67,0,0,1,3.454,6.868h.06c-.24-2.735-.331-5.379-.331-8.509v-7.142h3.425v20.483h-3.815l-5.286-9.02594a67.79232,67.79232,0,0,1-3.635-7.051l-.09.031c.15,2.644.18,5.348.18,8.722v7.324Z"/>
    <polygon class="cls-12" points="159.86 46.107 152.23 46.107 152.23 52.124 160.761 52.124 160.761 55.194 148.536 55.194 148.536 34.711 160.311 34.711 160.311 37.78 152.23 37.78 152.23 43.068 159.86 43.068 159.86 46.107"/>
    <path class="cls-12" d="M165.50648,34.9848a34.56123,34.56123,0,0,1,5.587-.426c2.914,0,4.896.486,6.248,1.64105a5.21468,5.21468,0,0,1,1.742,4.103,5.45665,5.45665,0,0,1-3.664,5.136v.091c1.441.547,2.312,1.975,2.823,3.951a41.339,41.339,0,0,0,1.592,5.713h-3.815a29.18451,29.18451,0,0,1-1.351-4.832c-.571-2.674-1.532-3.525-3.635-3.586h-1.862v8.418h-3.665Zm3.665,9.056h2.193c2.492,0,4.055-1.337,4.055-3.373,0-2.249-1.563-3.283-3.966-3.283a10.49222,10.49222,0,0,0-2.282.183Z"/>
    <path class="cls-12" d="M200.3194,54.25189a19.82717,19.82717,0,0,1-6.518,1.155c-3.425,0-6.008-.881-7.93-2.735a10.20833,10.20833,0,0,1-2.823-7.537c0-6.473,4.565-10.63605,11.264-10.63605a13.2947,13.2947,0,0,1,5.376.97205l-.811,3.009a10.78059,10.78059,0,0,0-4.596-.882c-4.325,0-7.359,2.583-7.359,7.355,0,4.649,2.824,7.415,7.029,7.415a6.99268,6.99268,0,0,0,2.794-.426v-5.105h-3.575v-2.948h7.149Z"/>
    <path class="cls-12" d="M109.3941,63.54953c.035.958.832,1.371,1.734,1.371a4.49446,4.49446,0,0,0,1.56-.239l.209.924a5.574,5.574,0,0,1-1.966.337,2.59732,2.59732,0,0,1-2.901-2.686,2.68981,2.68981,0,0,1,2.751-2.85,2.34774,2.34774,0,0,1,2.428,2.578,2.99886,2.99886,0,0,1-.047.565Zm2.474-.935a1.15991,1.15991,0,0,0-1.168-1.294,1.34493,1.34493,0,0,0-1.306,1.294Z"/>
    <polygon class="cls-12" points="115.82 60.526 115.82 62.549 117.993 62.549 117.993 60.526 119.415 60.526 119.415 65.823 117.993 65.823 117.993 63.593 115.82 63.593 115.82 65.823 114.398 65.823 114.398 60.526 115.82 60.526"/>
    <path class="cls-12" d="M121.99229,63.54953c.034.958.832,1.371,1.733,1.371a4.50461,4.50461,0,0,0,1.561-.239l.208.924a5.568,5.568,0,0,1-1.965.337,2.59732,2.59732,0,0,1-2.901-2.686,2.68923,2.68923,0,0,1,2.751-2.85,2.347,2.347,0,0,1,2.427,2.578,3.10744,3.10744,0,0,1-.046.565Zm2.473-.935a1.15853,1.15853,0,0,0-1.167-1.294,1.34344,1.34344,0,0,0-1.306,1.294Z"/>
    <path class="cls-12" d="M127.00719,62.2883c0-.696-.023-1.261-.046-1.762h1.248l.07.816h.023a2.23476,2.23476,0,0,1,1.93-.936,2.45993,2.45993,0,0,1,2.37,2.698,2.58433,2.58433,0,0,1-2.566,2.838,1.893,1.893,0,0,1-1.584-.707h-.023v2.741h-1.422Zm1.422,1.316a1.29071,1.29071,0,0,0,.046.37,1.27105,1.27105,0,0,0,1.248.935c.902,0,1.434-.707,1.434-1.751,0-.935-.486-1.697-1.399-1.697a1.30756,1.30756,0,0,0-1.271.99,1.14158,1.14158,0,0,0-.058.337Z"/>
    <polygon class="cls-12" points="137.537 60.526 137.537 61.581 135.236 61.581 135.236 65.823 133.815 65.823 133.815 60.526 137.537 60.526"/>
    <path class="cls-12" d="M139.8015,60.52631v1.904c0,.837-.034,1.402-.081,2.142h.035c.3-.62.474-1.011.763-1.566l1.387-2.48h1.722v5.297h-1.352v-1.893c0-.848.034-1.24.092-2.24h-.046c-.277.631-.462,1.011-.74,1.522-.439.783-.948,1.74-1.433,2.611h-1.699v-5.297Z"/>
    <path class="cls-12" d="M149.82159,65.82291h-1.41v-2.099h-.531a1.13684,1.13684,0,0,0-.867.348,3.394,3.394,0,0,0-.694,1.316,3.69765,3.69765,0,0,1-.22.435h-1.525a2.73668,2.73668,0,0,0,.346-.587,4.4474,4.4474,0,0,1,.844-1.523,1.36315,1.36315,0,0,1,.671-.359v-.032c-.671-.066-1.468-.479-1.468-1.305a1.33145,1.33145,0,0,1,.866-1.229,4.8467,4.8467,0,0,1,1.989-.337,16.11842,16.11842,0,0,1,1.999.119Zm-1.41-4.47a4.03826,4.03826,0,0,0-.705-.054c-.624,0-1.26.206-1.26.794,0,.554.705.794,1.26.794.335,0,.52,0,.705-.011Z"/>
    <path class="cls-12" d="M154.4326,63.84351a.8297.8297,0,0,1-.867-.859.83929.83929,0,0,1,.878-.859.85922.85922,0,1,1,0,1.718Z"/>
    <path class="cls-12" d="M160.0374,62.97348c-.67-.174-1.04-.587-1.04-1.109,0-.718.763-1.458,2.37-1.458a3.5225,3.5225,0,0,1,1.803.403l-.266.859a3.17965,3.17965,0,0,0-1.364-.316c-.682,0-1.11.262-1.11.631,0,.424.567.598,1.41.609h.613v.892h-.624c-.902.011-1.584.185-1.584.696,0,.501.613.761,1.306.761a4.01236,4.01236,0,0,0,1.584-.369l.208.891a4.5479,4.5479,0,0,1-2.138.479c-1.191,0-2.474-.424-2.474-1.62a1.436,1.436,0,0,1,1.306-1.305Z"/>
    <path class="cls-12" d="M165.2148,60.52631l.902,2.686c.162.468.266.892.404,1.349h.047a9.12321,9.12321,0,0,0,1.179-3.578v-.457h1.329a2.1965,2.1965,0,0,1,.035.402c0,1.502-1.018,3.274-2.046,4.895h-1.376l-2-5.297Z"/>
    <path class="cls-12" d="M171.0511,62.97348c-.67-.174-1.04-.587-1.04-1.109,0-.718.763-1.458,2.37-1.458a3.52257,3.52257,0,0,1,1.803.403l-.266.859a3.17965,3.17965,0,0,0-1.364-.316c-.682,0-1.11.262-1.11.631,0,.424.567.598,1.41.609h.613v.892h-.624c-.902.011-1.584.185-1.584.696,0,.501.613.761,1.306.761a4.01231,4.01231,0,0,0,1.584-.369l.208.891a4.54787,4.54787,0,0,1-2.138.479c-1.191,0-2.474-.424-2.474-1.62a1.436,1.436,0,0,1,1.306-1.305Z"/>
    <path class="cls-12" d="M176.7373,65.31192v.75a13.57149,13.57149,0,0,0,.081,1.914h-1.376a9.294,9.294,0,0,1-.127-1.892v-2.426a2.99458,2.99458,0,0,1,.959-2.555,2.79477,2.79477,0,0,1,1.919-.696,2.5554,2.5554,0,0,1,2.694,2.719,2.60856,2.60856,0,0,1-2.601,2.816,1.87264,1.87264,0,0,1-1.526-.63Zm0-1.588a1.70417,1.70417,0,0,0,.034.348,1.31444,1.31444,0,0,0,1.249.838c.902,0,1.422-.751,1.422-1.752,0-.935-.497-1.653-1.341-1.653-.717,0-1.364.588-1.364,1.806Z"/>
    <path class="cls-12" d="M183.29,67.976a11.38841,11.38841,0,0,0-.196-3.056,14.38329,14.38329,0,0,0-1.965-4.394h1.595a12.41416,12.41416,0,0,1,1.503,3.851h.046a8.29846,8.29846,0,0,0,1.063-3.426c0-.207-.011-.316-.011-.425h1.352a2.07335,2.07335,0,0,1,.023.392,9.062,9.062,0,0,1-1.988,4.666.42365.42365,0,0,0-.069.261c.023.532.023,1.402.034,2.131Z"/>
    <path class="cls-12" d="M188.6176,62.97348c-.67-.174-1.04-.587-1.04-1.109,0-.718.763-1.458,2.37-1.458a3.52257,3.52257,0,0,1,1.803.403l-.266.859a3.1834,3.1834,0,0,0-1.364-.316c-.682,0-1.11.262-1.11.631,0,.424.567.598,1.41.609h.613v.892h-.624c-.902.011-1.584.185-1.584.696,0,.501.613.761,1.306.761a4.01236,4.01236,0,0,0,1.584-.369l.208.891a4.54924,4.54924,0,0,1-2.139.479c-1.19,0-2.473-.424-2.473-1.62a1.436,1.436,0,0,1,1.306-1.305Z"/>
    <path class="cls-12" d="M194.3506,64.333c0,.435.138.609.531.587l-.08.935a1.8423,1.8423,0,0,1-.613.087c-.763,0-1.271-.304-1.271-1.479V60.526h1.433Z"/>
    <path class="cls-12" d="M201.14648,60.52643c-.069.718-.162,2.349-.162,3.611,0,.598.197.804.544.793l-.093.947a1.77862,1.77862,0,0,1-.496.065,1.0501,1.0501,0,0,1-1.099-1.033h-.034a2.0979,2.0979,0,0,1-1.862,1.033,2.40213,2.40213,0,0,1-2.323-2.664,2.69615,2.69615,0,0,1,2.543-2.872,1.74216,1.74216,0,0,1,1.618.925h.047a8.104,8.104,0,0,1,.127-.805Zm-4.08,2.708c0,.892.485,1.642,1.26,1.642a1.41694,1.41694,0,0,0,1.248-1.142,3.44038,3.44038,0,0,0,.047-.62,2.20774,2.20774,0,0,0-.035-.5,1.29694,1.29694,0,0,0-1.191-1.174c-.798,0-1.329.793-1.329,1.783Z"/>
    <path class="cls-12" d="M208.0078,39.05817a10.3077,10.3077,0,1,1,10.307,10.428,10.36842,10.36842,0,0,1-10.307-10.428"/>
    <path class="cls-36" d="M217.6127,42.96692V39.372l-2.694-5.028h1.771l1.024,2.213c.291.64.506,1.126.733,1.715h.026c.215-.551.455-1.088.746-1.715l1.024-2.213h1.758l-2.832,4.99v3.633Z"/>
    <path class="cls-12" d="M231.7211,39.05817a10.3077,10.3077,0,1,1,10.307,10.428,10.36842,10.36842,0,0,1-10.307-10.428"/>
    <path class="cls-12" d="M208.0078,62.181a10.3077,10.3077,0,1,1,10.307,10.428,10.3684,10.3684,0,0,1-10.307-10.428"/>
    <rect class="cls-36" x="214.38699" y="57.46701" width="1.556" height="8.62299"/>
    <polygon class="cls-36" points="222.493 62.265 219.281 62.265 219.281 64.798 222.873 64.798 222.873 66.09 217.726 66.09 217.726 57.467 222.683 57.467 222.683 58.76 219.281 58.76 219.281 60.985 222.493 60.985 222.493 62.265"/>
    <path class="cls-12" d="M231.7211,62.181a10.3077,10.3077,0,1,1,10.307,10.428,10.3684,10.3684,0,0,1-10.307-10.428"/>
    <rect class="cls-36" x="234.85699" y="34.34399" width="1.556" height="8.62299"/>
    <path class="cls-36" d="M239.8902,34.34387h1.556v5.591c0,2.38-1.139,3.173-2.833,3.173a4.09237,4.09237,0,0,1-1.302-.205l.189-1.267a3.3632,3.3632,0,0,0,.962.154c.884,0,1.428-.409,1.428-1.906Z"/>
    <path class="cls-36" d="M244.8611,40.5235l-.734,2.443h-1.606l2.732-8.623h1.985l2.769,8.623h-1.669l-.771-2.443Zm2.44-1.19-.67-2.124c-.165-.524-.304-1.113-.43-1.612h-.026c-.126.499-.252,1.1-.404,1.612l-.658,2.124Z"/>
    <rect class="cls-36" x="237.336" y="57.46701" width="1.556" height="8.62299"/>
    <path class="cls-36" d="M242.38159,63.64642l-.733,2.444h-1.606l2.731-8.623h1.986l2.769,8.623h-1.669l-.772-2.444Zm2.441-1.189-.67-2.124c-.165-.525-.304-1.113-.431-1.612h-.025c-.126.499-.253,1.1-.404,1.612l-.658,2.124Z"/>
  </g>
  <line class="cls-39" x1="26.5135" y1="112.0929" x2="271.18149" y2="112.0929"/>
  <rect class="cls-12" x="26.513" y="175.11899" width="145.089" height="155.47301"/>
  <polygon class="cls-40" points="26.513 220.315 26.513 240.007 114.33 240.007 124.083 230.161 114.33 220.315 26.513 220.315"/>
  <polygon class="cls-41" points="26.513 197.788 26.513 217.48 102.972 217.48 112.724 207.634 102.972 197.788 26.513 197.788"/>
  <polygon class="cls-42" points="26.513 175.262 26.513 194.953 91.618 194.953 101.369 185.108 91.618 175.262 26.513 175.262"/>
  <polygon class="cls-37" points="26.513 242.843 26.513 262.534 125.949 262.534 135.714 252.689 125.949 242.843 26.513 242.843"/>
  <polygon class="cls-43" points="26.513 265.369 26.513 285.062 137.298 285.062 147.066 275.216 137.298 265.369 26.513 265.369"/>
  <polygon class="cls-44" points="26.513 287.896 26.513 307.586 148.648 307.586 158.419 297.74 148.648 287.896 26.513 287.896"/>
  <polygon class="cls-45" points="26.513 310.42 26.513 330.11 159.997 330.11 169.771 320.268 159.997 310.42 26.513 310.42"/>
  <g class="cls-46">
    <text class="cls-47" transform="translate(234.52441 167.63019)"><tspan xml:space="preserve"> A</tspan></text>
    <text class="cls-48" transform="translate(251.19727 162.57306)"><tspan class="cls-49">+</tspan><tspan x="6.60449" y="0">+</tspan></text>
    <text class="cls-48" transform="translate(264.43164 162.57306)">+</text>
    <text class="cls-47" transform="translate(234.66699 191.13214)"><tspan xml:space="preserve"> A</tspan></text>
    <text class="cls-48" transform="translate(250.70703 186.07501)">+</text>
    <text class="cls-48" transform="translate(257.32422 186.07501)">+</text>
    <text class="cls-47" transform="translate(234.66699 214.39093)"><tspan xml:space="preserve"> A</tspan></text>
    <text class="cls-47" transform="translate(234.30566 237.09601)"><tspan xml:space="preserve"> A</tspan></text>
    <text class="cls-47" transform="translate(234.49609 260.73175)"><tspan xml:space="preserve"> B</tspan></text>
    <text class="cls-47" transform="translate(234.49609 283.9881)"><tspan xml:space="preserve"> C</tspan></text>
    <text class="cls-47" transform="translate(234.13477 307.49054)"><tspan xml:space="preserve"> D</tspan></text>
    <text class="cls-47" transform="translate(234.13477 330.63312)"><tspan xml:space="preserve"> E</tspan></text>
    <text class="cls-47" transform="translate(237.63086 354.04132)">F</text>
    <text class="cls-47" transform="translate(237.63086 377.46808)">G</text>
    <text class="cls-48" transform="translate(250.70703 209.3338)">+</text>
  </g>
  <text class="cls-50" transform="translate(33.34863 192.15851)"> </text>
  <text class="cls-50" transform="translate(36.96484 190.15851)">A</text>
  <text class="cls-51" transform="translate(46.66113 184.83038)">+<tspan class="cls-52" x="4.73926" y="0">+</tspan></text>
  <text class="cls-53" transform="translate(56.15723 184.83038)">+</text>
  <text class="cls-50" transform="translate(33.34863 214.65851)"> </text>
  <text class="cls-50" transform="translate(36.96484 212.65851)">A</text>
  <text class="cls-53" transform="translate(46.66113 207.33038)">+</text>
  <text class="cls-53" transform="translate(51.40918 207.33038)">+</text>
  <text class="cls-50" transform="translate(33.34863 237.15851)"> </text>
  <text class="cls-50" transform="translate(36.96484 235.15851)">A</text>
  <text class="cls-53" transform="translate(46.66113 229.83038)">+</text>
  <text class="cls-50" transform="translate(33.34863 257.65851)"><tspan xml:space="preserve"> A</tspan></text>
  <text class="cls-50" transform="translate(33.34863 280.1546)"><tspan xml:space="preserve"> B</tspan></text>
  <text class="cls-50" transform="translate(33.34863 302.6507)"><tspan xml:space="preserve"> C</tspan></text>
  <text class="cls-50" transform="translate(33.34863 325.14679)"><tspan xml:space="preserve"> D</tspan></text>
  <text class="cls-54" transform="translate(26.89258 541.54816)">2019</text>
  <text class="cls-54" transform="translate(226.45215 541.54816)">2015/1187</text>
  <path class="cls-55" d="M115.2952,348.3237s-7.904,0-7.904,7.904v69.058s0,7.904,7.904,7.904h147.61s7.904,0,7.904-7.904v-69.058s0-7.904-7.904-7.904Z"/>
  <text class="cls-56" transform="translate(189.51563 404.88116)"> </text>
  <g id="combinationBoiler">
    <rect class="cls-36" x="53.64091" y="473.08839" width="15.83417" height="1.97302" transform="translate(-2.16251 0.28582) rotate(-0.26144)"/>
    <g class="cls-58">
      <path class="cls-59" d="M56.1573,474.07449a2.6162,2.6162,0,0,0-2.597-2.639,2.58924,2.58924,0,0,0-2.597,2.639,2.617,2.617,0,0,0,2.597,2.64,2.64505,2.64505,0,0,0,2.597-2.64"/>
      <path class="cls-59" d="M72.1525,474.07449a2.61683,2.61683,0,0,0-2.597-2.639,2.58923,2.58923,0,0,0-2.597,2.639,2.617,2.617,0,0,0,2.597,2.64,2.64572,2.64572,0,0,0,2.597-2.64"/>
      <path class="cls-59" d="M64.8381,474.07449a3.28714,3.28714,0,0,0-3.306-3.305,3.24345,3.24345,0,0,0-3.253,3.305,3.27746,3.27746,0,0,0,3.253,3.306,3.322,3.322,0,0,0,3.306-3.306"/>
      <path class="cls-36" d="M64.8367,474.07449a3.28754,3.28754,0,0,0-3.305-3.305,3.24345,3.24345,0,0,0-3.253,3.305,3.27746,3.27746,0,0,0,3.253,3.306,3.32239,3.32239,0,0,0,3.305-3.306"/>
      <rect class="cls-36" x="60.412" y="474.12699" width="2.291" height="8.477"/>
      <path class="cls-59" d="M68.5705,487.4259a7.0192,7.0192,0,1,0-7.036,7.314,7.15427,7.15427,0,0,0,7.036-7.314"/>
      <path class="cls-59" d="M67.1977,491.72219s3.786.514,3.786,1.919v4.746h6.202l-.017-5.705c-.528-6-3.509-6.96-8.798-8.637l-1.635-.472.036.738-19.408-.107v7.358l19.834-.16v.32"/>
    </g>
    <path class="cls-55" d="M35.8024,442.26859s-7.904,0-7.904,7.904v69.058s0,7.904,7.904,7.904h53.464s7.905,0,7.905-7.904v-69.058s0-7.904-7.905-7.904Z"/>
  </g>
  <g id="cogenerationBoiler">
    <path class="cls-55" d="M115.2952,442.26859s-7.904,0-7.904,7.904v69.058s0,7.904,7.904,7.904h53.464s7.905,0,7.905-7.904v-69.058s0-7.904-7.905-7.904Z"/>
    <g class="cls-60">
      <path class="cls-61" d="M159.97031,484.71209c0,9.518-8.072,17.234-18.031,17.234s-18.031-7.716-18.031-17.234c0-9.517,8.072-17.234,18.031-17.234s18.031,7.717,18.031,17.234"/>
      <path class="cls-62" d="M139.4935,466.8223h6.522c-2.115,4.877-4.275,9.708-6.147,14.831,2.847-1.456,5.62-2.987,8.497-4.414-1.595,5.991-3.243,11.928-4.774,17.984.912-.264,1.54-.817,2.499-1.034a4.43881,4.43881,0,0,1-.575,1.009c-1.417,2.05-2.833,4.202-4.223,6.306-.093.14-.179.338-.35.403-.624-3.12-1.339-6.147-1.949-9.282.773.548,1.172,1.474,1.949,2.018.581-3.896,1.19-7.762,1.799-11.628-2.964,1.448-5.966,3.076-8.971,4.566,1.854-6.974,3.795-13.86,5.723-20.759"/>
    </g>
  </g>
  <g id="rating">
    <polyline id="ratingArrow" class="cls-63" points="208.26 185.1 224.9 168.29 270.94 168.29 270.94 202.2 225.21 202.2 208.26 185.1"/>
    <text id="ratingLetter" class="cls-64" transform="translate(221.01953 192.34015)">A</text>
    <text id="ratingPlusses" class="cls-65" transform="translate(236.98047 184.24982)">+++</text>
  </g>
  <text transform="translate(190.22998 404.87042)" text-anchor="middle">
    <tspan id="kw" class="cls-66">X</tspan>
    <tspan class="cls-57">kW</tspan>
  </text>
  <text id="supplierLine2" class="cls-67" transform="translate(26.7599 106.30006)">X</text>
  <text id="supplierLine1" class="cls-67" transform="translate(26.7599 95.03785)">X</text>
  <text id="modelLine2" class="cls-67" transform="translate(152.93763 106.30006)">X</text>
  <text id="modelLine1" class="cls-67" transform="translate(152.93763 95.03785)">X</text>
</svg>
