<svg xmlns="http://www.w3.org/2000/svg" xmlns:xlink="http://www.w3.org/1999/xlink" id="Layer_1" data-name="Layer 1" width="105mm" height="200mm" viewBox="0 0 297.64001 566.92999" data-rating-increment="17.6875" data-supplier-model-chars-per-row="25">
  <defs>
    <style>
      #combinationBoiler,
      #cogenerationBoiler {
        display: none;
      }

      #combinationBoiler.isCombinationBoiler,
      #cogenerationBoiler.isCogenerationBoiler {
        display: inline;
      }

      .cls-1, .cls-3, .cls-39, .cls-4, .cls-52 {
        fill: none;
      }

      .cls-2 {
        clip-path: url(#clip-path);
      }

      .cls-3, .cls-39, .cls-52 {
        stroke: #00aeef;
      }

      .cls-3 {
        stroke-width: 4px;
      }

      .cls-4 {
        stroke: #000;
        stroke-width: 1.114px;
      }

      .cls-5 {
        clip-path: url(#clip-path-2);
      }

      .cls-6 {
        fill: #8ed8f7;
      }

      .cls-7 {
        fill: #05090a;
      }

      .cls-8 {
        fill: #24b9ec;
      }

      .cls-9 {
        opacity: 0.49;
      }

      .cls-10 {
        clip-path: url(#clip-path-5);
      }

      .cls-11 {
        clip-path: url(#clip-path-6);
      }

      .cls-12, .cls-47, .cls-48, .cls-50, .cls-51, .cls-59, .cls-61, .cls-62 {
        fill: #fff;
      }

      .cls-13 {
        clip-path: url(#clip-path-9);
      }

      .cls-14 {
        clip-path: url(#clip-path-13);
      }

      .cls-15 {
        clip-path: url(#clip-path-17);
      }

      .cls-16 {
        clip-path: url(#clip-path-18);
      }

      .cls-17 {
        clip-path: url(#clip-path-21);
      }

      .cls-18 {
        clip-path: url(#clip-path-25);
      }

      .cls-19 {
        clip-path: url(#clip-path-26);
      }

      .cls-20 {
        clip-path: url(#clip-path-29);
      }

      .cls-21 {
        clip-path: url(#clip-path-33);
      }

      .cls-22 {
        clip-path: url(#clip-path-37);
      }

      .cls-23 {
        clip-path: url(#clip-path-38);
      }

      .cls-24 {
        clip-path: url(#clip-path-41);
      }

      .cls-25 {
        clip-path: url(#clip-path-44);
      }

      .cls-26 {
        clip-path: url(#clip-path-46);
      }

      .cls-27 {
        clip-path: url(#clip-path-47);
      }

      .cls-28 {
        clip-path: url(#clip-path-48);
      }

      .cls-29 {
        clip-path: url(#clip-path-49);
      }

      .cls-30 {
        clip-path: url(#clip-path-50);
      }

      .cls-31 {
        clip-path: url(#clip-path-52);
      }

      .cls-32 {
        clip-path: url(#clip-path-53);
      }

      .cls-33 {
        clip-path: url(#clip-path-54);
      }

      .cls-34 {
        clip-path: url(#clip-path-55);
      }

      .cls-35 {
        fill: #034ea2;
      }

      .cls-36, .cls-56 {
        fill: #00aeef;
      }

      .cls-37 {
        fill: #fff200;
      }

      .cls-38 {
        clip-path: url(#clip-path-57);
      }

      .cls-40 {
        fill: #bfd730;
      }

      .cls-41 {
        fill: #50b848;
      }

      .cls-42 {
        fill: #00a651;
      }

      .cls-43 {
        fill: #fdb913;
      }

      .cls-44 {
        fill: #f37021;
      }

      .cls-45 {
        fill: #ed1c24;
      }

      .cls-46 {
        clip-path: url(#clip-path-58);
      }

      .cls-47 {
        font-size: 19px;
      }

      .cls-47, .cls-48, .cls-50, .cls-51, .cls-53, .cls-61, .cls-63 {
        font-family: Calibri-Bold, Calibri;
        font-weight: 700;
      }

      .cls-48 {
        font-size: 13px;
      }

      .cls-49 {
        letter-spacing: 0.00999em;
      }

      .cls-50 {
        font-size: 14px;
      }

      .cls-51 {
        font-size: 8.162px;
      }

      .cls-52 {
        stroke-width: 2px;
      }

      .cls-53 {
        font-size: 10px;
      }

      .cls-53, .cls-54, .cls-60, .cls-63, .cls-64 {
        fill: #231f20;
      }

      .cls-54 {
        font-size: 30px;
      }

      .cls-54, .cls-62, .cls-64 {
        font-family: Calibri;
      }

      .cls-55 {
        clip-path: url(#clip-path-60);
      }

      .cls-56, .cls-59 {
        fill-rule: evenodd;
      }

      .cls-57 {
        clip-path: url(#clip-path-61);
      }

      .cls-58 {
        fill: #00b9f2;
      }

      .cls-61 {
        font-size: 24px;
      }

      .cls-62 {
        font-size: 15px;
      }

      .cls-63 {
        font-size: 45px;
      }

      .cls-64 {
        font-size: 11px;
      }
    </style>
    <clipPath id="clip-path">
      <rect class="cls-1" y="0.00098" width="297.638" height="566.92902"/>
    </clipPath>
    <clipPath id="clip-path-2">
      <rect class="cls-1" x="26.513" y="119.07999" width="42.918" height="31.72"/>
    </clipPath>
    <clipPath id="clip-path-5">
      <rect class="cls-1" x="53.7442" y="121.77499" width="1.1451" height="1.66199"/>
    </clipPath>
    <clipPath id="clip-path-6">
      <rect class="cls-1" x="53.745" y="121.77499" width="1.145" height="1.66199"/>
    </clipPath>
    <clipPath id="clip-path-9">
      <rect class="cls-1" x="59.3998" y="121.77499" width="1.145" height="1.66199"/>
    </clipPath>
    <clipPath id="clip-path-13">
      <rect class="cls-1" x="47.9428" y="121.77499" width="1.1451" height="1.66199"/>
    </clipPath>
    <clipPath id="clip-path-17">
      <rect class="cls-1" x="42.1261" y="121.77499" width="1.1452" height="1.66199"/>
    </clipPath>
    <clipPath id="clip-path-18">
      <rect class="cls-1" x="42.127" y="121.77499" width="1.145" height="1.66199"/>
    </clipPath>
    <clipPath id="clip-path-21">
      <rect class="cls-1" x="36.3247" y="121.77499" width="1.1452" height="1.66199"/>
    </clipPath>
    <clipPath id="clip-path-25">
      <rect class="cls-1" x="53.7442" y="144.12698" width="1.1451" height="1.66202"/>
    </clipPath>
    <clipPath id="clip-path-26">
      <rect class="cls-1" x="53.745" y="144.12701" width="1.145" height="1.66199"/>
    </clipPath>
    <clipPath id="clip-path-29">
      <rect class="cls-1" x="59.3998" y="144.12698" width="1.145" height="1.66202"/>
    </clipPath>
    <clipPath id="clip-path-33">
      <rect class="cls-1" x="47.9428" y="144.12698" width="1.1451" height="1.66202"/>
    </clipPath>
    <clipPath id="clip-path-37">
      <rect class="cls-1" x="42.1261" y="144.12698" width="1.1452" height="1.66202"/>
    </clipPath>
    <clipPath id="clip-path-38">
      <rect class="cls-1" x="42.127" y="144.12701" width="1.145" height="1.66199"/>
    </clipPath>
    <clipPath id="clip-path-41">
      <rect class="cls-1" x="36.3247" y="144.12698" width="1.1452" height="1.66202"/>
    </clipPath>
    <clipPath id="clip-path-44">
      <rect class="cls-1" x="60.876" y="120.44998" width="1.6253" height="26.677"/>
    </clipPath>
    <clipPath id="clip-path-46">
      <rect class="cls-1" x="55.086" y="120.44998" width="1.6252" height="26.677"/>
    </clipPath>
    <clipPath id="clip-path-47">
      <rect class="cls-1" x="55.086" y="120.44998" width="1.624" height="26.677"/>
    </clipPath>
    <clipPath id="clip-path-48">
      <rect class="cls-1" x="49.2963" y="120.44998" width="1.6257" height="26.677"/>
    </clipPath>
    <clipPath id="clip-path-49">
      <rect class="cls-1" x="49.297" y="120.44998" width="1.624" height="26.677"/>
    </clipPath>
    <clipPath id="clip-path-50">
      <rect class="cls-1" x="43.506" y="120.44998" width="1.6251" height="26.677"/>
    </clipPath>
    <clipPath id="clip-path-52">
      <rect class="cls-1" x="37.716" y="120.44998" width="1.6252" height="26.677"/>
    </clipPath>
    <clipPath id="clip-path-53">
      <rect class="cls-1" x="37.716" y="120.44998" width="1.624" height="26.677"/>
    </clipPath>
    <clipPath id="clip-path-54">
      <rect class="cls-1" x="31.9262" y="120.44998" width="1.6258" height="26.677"/>
    </clipPath>
    <clipPath id="clip-path-55">
      <rect class="cls-1" x="31.927" y="120.44998" width="1.624" height="26.677"/>
    </clipPath>
    <clipPath id="clip-path-57">
      <rect class="cls-1" x="26.964" y="26.36298" width="243.77999" height="48.18903"/>
    </clipPath>
    <clipPath id="clip-path-58">
      <rect class="cls-1" x="26.513" y="175.11798" width="135.912" height="174.01601"/>
    </clipPath>
    <clipPath id="clip-path-60">
      <rect class="cls-1" x="47.364" y="470.771" width="29.822" height="27.617"/>
    </clipPath>
    <clipPath id="clip-path-61">
      <rect class="cls-1" x="123.908" y="466.82199" width="36.061" height="35.124"/>
    </clipPath>
  </defs>
  <title>solid-fuel-boilers-2017</title>
  <g class="cls-2">
    <path class="cls-3" d="M24.0691,16.16577s-7.904,0-7.904,7.90405v518.791s0,7.904,7.904,7.904h249.5s7.904,0,7.904-7.904V24.06982s0-7.90405-7.904-7.90405Z"/>
    <line class="cls-4" x1="33.0593" y1="123.7561" x2="29.1123" y2="123.7561"/>
  </g>
  <g class="cls-5">
    <path class="cls-4" d="M64.0992,144.9595h1.348a1.2584,1.2584,0,0,1,1.385,1.299v1.967"/>
    <path d="M30.0121,122.44928a.18124.18124,0,0,1-.175.157h-1.283a.18045.18045,0,0,1-.175-.157l-.244-2.189a.1385.1385,0,0,1,.141-.156h1.839a.13726.13726,0,0,1,.14.156Z"/>
    <line class="cls-4" x1="29.2255" y1="148.39398" x2="29.2255" y2="121.677"/>
    <path class="cls-6" d="M64.3577,145.50269a2.106,2.106,0,0,1-1.856,1.856,2.13966,2.13966,0,0,1-1.857-1.856v-23.53a1.8565,1.8565,0,0,1,3.713,0Z"/>
    <polygon class="cls-7" points="36.325 145.888 34.035 146.259 34.035 143.66 36.325 144.032 36.325 145.888"/>
    <polygon class="cls-6" points="36.325 145.888 38.615 146.259 38.615 143.66 36.325 144.032 36.325 145.888"/>
    <polygon class="cls-6" points="42.127 145.888 39.837 146.259 39.837 143.66 42.127 144.032 42.127 145.888"/>
    <polygon class="cls-6" points="42.127 145.888 44.417 146.259 44.417 143.66 42.127 144.032 42.127 145.888"/>
    <polygon class="cls-6" points="47.943 145.888 45.653 146.259 45.653 143.66 47.943 144.032 47.943 145.888"/>
    <polygon class="cls-6" points="47.943 145.888 50.232 146.259 50.232 143.66 47.943 144.032 47.943 145.888"/>
    <polygon class="cls-6" points="53.745 145.888 51.456 146.259 51.456 143.66 53.745 144.032 53.745 145.888"/>
    <polygon class="cls-6" points="53.745 145.888 56.034 146.259 56.034 143.66 53.745 144.032 53.745 145.888"/>
    <polygon class="cls-6" points="59.732 145.888 57.443 146.259 57.443 143.66 59.732 144.032 59.732 145.888"/>
    <polygon class="cls-6" points="59.732 145.888 62.021 146.259 62.021 143.66 59.732 144.032 59.732 145.888"/>
    <polygon class="cls-7" points="36.325 123.534 34.035 123.905 34.035 121.306 36.325 121.678 36.325 123.534"/>
    <polygon class="cls-6" points="36.325 123.534 38.615 123.905 38.615 121.306 36.325 121.678 36.325 123.534"/>
    <polygon class="cls-6" points="42.127 123.534 39.837 123.905 39.837 121.306 42.127 121.678 42.127 123.534"/>
    <polygon class="cls-6" points="42.127 123.534 44.417 123.905 44.417 121.306 42.127 121.678 42.127 123.534"/>
    <polygon class="cls-6" points="47.943 123.534 45.653 123.905 45.653 121.306 47.943 121.678 47.943 123.534"/>
    <polygon class="cls-6" points="47.943 123.534 50.232 123.905 50.232 121.306 47.943 121.678 47.943 123.534"/>
    <polygon class="cls-6" points="53.745 123.534 51.456 123.905 51.456 121.306 53.745 121.678 53.745 123.534"/>
    <polygon class="cls-6" points="53.745 123.534 56.034 123.905 56.034 121.306 53.745 121.678 53.745 123.534"/>
    <polygon class="cls-8" points="53.745 123.199 54.89 123.438 54.89 121.775 53.745 122.013 53.745 123.199"/>
    <polygon class="cls-6" points="59.732 123.534 57.443 123.905 57.443 121.306 59.732 121.678 59.732 123.534"/>
    <polygon class="cls-6" points="59.732 123.534 62.021 123.905 62.021 121.306 59.732 121.678 59.732 123.534"/>
  </g>
  <g class="cls-2">
    <polygon class="cls-7" points="53.745 123.534 51.456 123.905 51.456 121.306 53.745 121.678 53.745 123.534"/>
    <polygon class="cls-7" points="53.745 123.534 56.034 123.905 56.034 121.306 53.745 121.678 53.745 123.534"/>
  </g>
  <g class="cls-5">
    <g class="cls-9">
      <g class="cls-10">
        <g class="cls-11">
          <polygon class="cls-12" points="54.889 121.775 53.744 122.013 53.744 123.2 54.889 123.437 54.889 121.775"/>
        </g>
      </g>
    </g>
  </g>
  <g class="cls-2">
    <polygon class="cls-7" points="59.4 123.534 57.111 123.905 57.111 121.306 59.4 121.678 59.4 123.534"/>
    <polygon class="cls-7" points="59.4 123.534 61.689 123.905 61.689 121.306 59.4 121.678 59.4 123.534"/>
  </g>
  <g class="cls-5">
    <g class="cls-9">
      <g class="cls-13">
        <g class="cls-13">
          <polygon class="cls-12" points="60.545 121.775 59.4 122.013 59.4 123.2 60.545 123.437 60.545 121.775"/>
        </g>
      </g>
    </g>
  </g>
  <g class="cls-2">
    <polygon class="cls-7" points="47.943 123.534 45.654 123.905 45.654 121.306 47.943 121.678 47.943 123.534"/>
    <polygon class="cls-7" points="47.943 123.534 50.232 123.905 50.232 121.306 47.943 121.678 47.943 123.534"/>
  </g>
  <g class="cls-5">
    <g class="cls-9">
      <g class="cls-14">
        <g class="cls-14">
          <polygon class="cls-12" points="49.088 121.775 47.943 122.013 47.943 123.2 49.088 123.437 49.088 121.775"/>
        </g>
      </g>
    </g>
  </g>
  <g class="cls-2">
    <polygon class="cls-7" points="42.127 123.534 39.838 123.905 39.838 121.306 42.127 121.678 42.127 123.534"/>
    <polygon class="cls-7" points="42.127 123.534 44.416 123.905 44.416 121.306 42.127 121.678 42.127 123.534"/>
  </g>
  <g class="cls-5">
    <g class="cls-9">
      <g class="cls-15">
        <g class="cls-16">
          <polygon class="cls-12" points="43.271 121.775 42.126 122.013 42.126 123.2 43.271 123.437 43.271 121.775"/>
        </g>
      </g>
    </g>
  </g>
  <g class="cls-2">
    <polygon class="cls-7" points="36.325 123.534 34.036 123.905 34.036 121.306 36.325 121.678 36.325 123.534"/>
    <polygon class="cls-7" points="36.325 123.534 38.614 123.905 38.614 121.306 36.325 121.678 36.325 123.534"/>
  </g>
  <g class="cls-5">
    <g class="cls-9">
      <g class="cls-17">
        <g class="cls-17">
          <polygon class="cls-12" points="37.47 121.775 36.325 122.013 36.325 123.2 37.47 123.437 37.47 121.775"/>
        </g>
      </g>
    </g>
  </g>
  <g class="cls-2">
    <polygon class="cls-7" points="53.745 145.886 51.456 146.257 51.456 143.658 53.745 144.03 53.745 145.886"/>
    <polygon class="cls-7" points="53.745 145.886 56.034 146.257 56.034 143.658 53.745 144.03 53.745 145.886"/>
  </g>
  <g class="cls-5">
    <g class="cls-9">
      <g class="cls-18">
        <g class="cls-19">
          <polygon class="cls-12" points="54.889 144.127 53.744 144.365 53.744 145.552 54.889 145.789 54.889 144.127"/>
        </g>
      </g>
    </g>
  </g>
  <g class="cls-2">
    <polygon class="cls-7" points="59.4 145.886 57.111 146.257 57.111 143.658 59.4 144.03 59.4 145.886"/>
    <polygon class="cls-7" points="59.4 145.886 61.689 146.257 61.689 143.658 59.4 144.03 59.4 145.886"/>
  </g>
  <g class="cls-5">
    <g class="cls-9">
      <g class="cls-20">
        <g class="cls-20">
          <polygon class="cls-12" points="60.545 144.127 59.4 144.365 59.4 145.552 60.545 145.789 60.545 144.127"/>
        </g>
      </g>
    </g>
  </g>
  <g class="cls-2">
    <polygon class="cls-7" points="47.943 145.886 45.654 146.257 45.654 143.658 47.943 144.03 47.943 145.886"/>
    <polygon class="cls-7" points="47.943 145.886 50.232 146.257 50.232 143.658 47.943 144.03 47.943 145.886"/>
  </g>
  <g class="cls-5">
    <g class="cls-9">
      <g class="cls-21">
        <g class="cls-21">
          <polygon class="cls-12" points="49.088 144.127 47.943 144.365 47.943 145.552 49.088 145.789 49.088 144.127"/>
        </g>
      </g>
    </g>
  </g>
  <g class="cls-2">
    <polygon class="cls-7" points="42.127 145.886 39.838 146.257 39.838 143.658 42.127 144.03 42.127 145.886"/>
    <polygon class="cls-7" points="42.127 145.886 44.416 146.257 44.416 143.658 42.127 144.03 42.127 145.886"/>
  </g>
  <g class="cls-5">
    <g class="cls-9">
      <g class="cls-22">
        <g class="cls-23">
          <polygon class="cls-12" points="43.271 144.127 42.126 144.365 42.126 145.552 43.271 145.789 43.271 144.127"/>
        </g>
      </g>
    </g>
  </g>
  <g class="cls-2">
    <polygon class="cls-7" points="36.325 145.886 34.036 146.257 34.036 143.658 36.325 144.03 36.325 145.886"/>
    <polygon class="cls-7" points="36.325 145.886 38.614 146.257 38.614 143.658 36.325 144.03 36.325 145.886"/>
  </g>
  <g class="cls-5">
    <g class="cls-9">
      <g class="cls-24">
        <g class="cls-24">
          <polygon class="cls-12" points="37.47 144.127 36.325 144.365 36.325 145.552 37.47 145.789 37.47 144.127"/>
        </g>
      </g>
    </g>
    <path class="cls-7" d="M64.3577,145.50269a2.106,2.106,0,0,1-1.856,1.856,2.13966,2.13966,0,0,1-1.857-1.856v-23.53a1.8565,1.8565,0,0,1,3.713,0Z"/>
    <path class="cls-7" d="M58.5407,145.50269a2.106,2.106,0,0,1-1.856,1.856,2.13966,2.13966,0,0,1-1.857-1.856v-23.53a1.8565,1.8565,0,0,1,3.713,0Z"/>
    <path class="cls-7" d="M52.7237,145.50269a2.106,2.106,0,0,1-1.856,1.856,2.13966,2.13966,0,0,1-1.857-1.856v-23.53a2.14445,2.14445,0,0,1,1.857-1.856,2.14349,2.14349,0,0,1,1.856,1.856Z"/>
    <path class="cls-7" d="M46.9071,145.50269a2.106,2.106,0,0,1-1.856,1.856,2.13966,2.13966,0,0,1-1.857-1.856v-23.53a2.14445,2.14445,0,0,1,1.857-1.856,2.14349,2.14349,0,0,1,1.856,1.856Z"/>
    <path class="cls-7" d="M41.0901,145.50269a2.106,2.106,0,0,1-1.856,1.856,2.13966,2.13966,0,0,1-1.857-1.856v-23.53a2.14445,2.14445,0,0,1,1.857-1.856,2.14349,2.14349,0,0,1,1.856,1.856Z"/>
    <path class="cls-7" d="M35.2731,145.50269a2.106,2.106,0,0,1-1.856,1.856,2.13966,2.13966,0,0,1-1.857-1.856v-23.53a2.14445,2.14445,0,0,1,1.857-1.856,2.14349,2.14349,0,0,1,1.856,1.856Z"/>
  </g>
  <g class="cls-5">
    <g class="cls-9">
      <g class="cls-25">
        <g class="cls-25">
          <path class="cls-12" d="M62.5013,147.12711a1.98712,1.98712,0,0,1-1.625-1.818v-23.041a1.99111,1.99111,0,0,1,1.625-1.818"/>
        </g>
      </g>
    </g>
    <g class="cls-9">
      <g class="cls-26">
        <g class="cls-27">
          <path class="cls-12" d="M56.7111,147.12711a1.98712,1.98712,0,0,1-1.625-1.818v-23.041a1.99111,1.99111,0,0,1,1.625-1.818"/>
        </g>
      </g>
    </g>
    <g class="cls-9">
      <g class="cls-28">
        <g class="cls-29">
          <path class="cls-12" d="M50.9213,147.12711a1.98712,1.98712,0,0,1-1.625-1.818v-23.041a1.99111,1.99111,0,0,1,1.625-1.818"/>
        </g>
      </g>
    </g>
    <g class="cls-9">
      <g class="cls-30">
        <g class="cls-30">
          <path class="cls-12" d="M45.1311,147.12711a1.98712,1.98712,0,0,1-1.625-1.818v-23.041a1.99111,1.99111,0,0,1,1.625-1.818"/>
        </g>
      </g>
    </g>
    <g class="cls-9">
      <g class="cls-31">
        <g class="cls-32">
          <path class="cls-12" d="M39.3412,147.12711a1.98712,1.98712,0,0,1-1.625-1.818v-23.041a1.99111,1.99111,0,0,1,1.625-1.818"/>
        </g>
      </g>
    </g>
    <g class="cls-9">
      <g class="cls-33">
        <g class="cls-34">
          <path class="cls-12" d="M33.5512,147.12711a1.98712,1.98712,0,0,1-1.625-1.818v-23.041a1.99111,1.99111,0,0,1,1.625-1.818"/>
        </g>
      </g>
    </g>
  </g>
  <g class="cls-2">
    
    <rect class="cls-36" x="100.456" y="26.492" width="170.28799" height="48.06"/>
    
    
    
    
    
    
    
    
    
    
    
    

  <g id="union-flag" transform="translate(26.983, 26.492) scale(1.6019663333333334)">
	<path id="blue" fill="#004289" d="M9.59,20L0,26.39V20H9.59z M39.59,0H27.5v8.06L39.59,0z M0,3.61V10h9.59L0,3.61z M17.5,0H5.41
		L17.5,8.06V0z M27.5,30h12.09L27.5,21.94V30z M45,10V3.61L35.41,10H45z M45,26.39V20h-9.59L45,26.39z M5.41,30H17.5v-8.06L5.41,30z
		"/>
	<path id="red" fill="#DC2F34" d="M45,18H25.5v12h-6V18H0v-6h19.5V0h6v12H45V18z M0,2.42L11.38,10h3.61L0,0.01V2.42z M45,27.58
		L33.62,20h-3.61L45,29.99V27.58z M17.5,20.74V20H15L0,30h3.61L17.5,20.74z M27.5,9.26V10H30L45,0h-3.61L27.5,9.26z"/>
</g><path id="energy-heading" d="M7.1581,7.21791H2.33537v3.7413H7.72769v1.90845H0V.13234H7.44305V2.04079H2.33537V5.32836H7.1581Zm3.53413,5.64975V.13234h2.677L16.67314,5.593a37.85159,37.85159,0,0,1,2.18339,4.27032h.038a51.82706,51.82706,0,0,1-.20865-5.29055V.13234h2.1644V12.86766H18.41992L15.07833,7.25572a43.774,43.774,0,0,1-2.2787-4.38342l-.076.0189c.095,1.64379.133,3.32538.133,5.42289v4.55357ZM31.63845,7.21791H26.81573v3.7413h5.392v1.90845H24.48V.13234h7.44305V2.04079H26.81573V5.32836h4.82272ZM35.19126.32139A20.16965,20.16965,0,0,1,38.72282.03781a5.98372,5.98372,0,0,1,3.94949,1.02056,3.228,3.228,0,0,1,1.1012,2.56949,3.347,3.347,0,0,1-2.3357,3.17446V6.859a3.16007,3.16007,0,0,1,1.7851,2.45638,32.106,32.106,0,0,0,1.00653,3.55224H41.83707a16.17761,16.17761,0,0,1-.85455-3.00431c-.37994-1.66269-.96854-2.19171-2.2977-2.22952H37.50764v5.23383H35.19126ZM37.50764,5.933h1.38647c1.57581,0,2.5437-.83119,2.5437-2.09719,0-1.37943-.96789-2.04079-2.487-2.04079a6.74576,6.74576,0,0,0-1.44314.11343Zm19.67341,6.34892A12.70364,12.70364,0,0,1,53.08022,13a6.96331,6.96331,0,0,1-5.032-1.7005,6.3681,6.3681,0,0,1-1.78446-4.68623C46.28243,2.56982,49.1494,0,53.38353,0a8.52961,8.52961,0,0,1,3.3989.60464l-.5126,1.87065a6.6378,6.6378,0,0,0-2.905-.54793c-2.73432,0-4.65207,1.606-4.65207,4.5728,0,2.89088,1.78509,4.61029,4.44342,4.61029a4.91246,4.91246,0,0,0,1.76578-.24577v-3.193H52.66228V5.8388h4.51877Zm6.23045.58573V7.55821L59.36734.13234h2.677l1.51914,3.269c.43661.94462.75924,1.66269,1.11987,2.53169h.038c.304-.81228.66458-1.606,1.10184-2.53169L67.361.13234H70L65.74719,7.50149v5.36617Z" fill="#fff" transform="translate(114.43206679978822, 39.853488051527314) scale(1.6019663333333334)"/></g>

  <line class="cls-39" x1="26.5135" y1="112.0929" x2="271.18149" y2="112.0929"/>
  <rect class="cls-12" x="26.513" y="175.11798" width="135.912" height="174.01601"/>
  <polygon class="cls-40" points="26.513 210.226 26.513 224.383 105.301 224.383 112.313 217.304 105.301 210.226 26.513 210.226"/>
  <polygon class="cls-41" points="26.513 192.504 26.513 206.661 97.137 206.661 104.146 199.582 97.137 192.504 26.513 192.504"/>
  <polygon class="cls-42" points="26.513 175.119 26.513 188.956 88.975 188.956 95.985 181.879 89.29 175.119 26.513 175.119"/>
  <polygon class="cls-37" points="26.513 227.921 26.513 242.077 113.655 242.077 120.675 234.998 113.655 227.921 26.513 227.921"/>
  <polygon class="cls-43" points="26.513 245.645 26.513 259.802 121.815 259.802 128.836 252.723 121.815 245.645 26.513 245.645"/>
  <polygon class="cls-44" points="26.513 263.336 26.513 277.492 129.972 277.492 137 270.412 129.972 263.336 26.513 263.336"/>
  <polygon class="cls-45" points="26.513 281.033 26.513 295.186 138.133 295.186 145.159 288.112 138.133 281.033 26.513 281.033"/>
  <polygon class="cls-45" points="26.513 298.73 26.513 312.888 146.289 312.888 153.322 305.81 146.289 298.73 26.513 298.73"/>
  <polygon class="cls-45" points="26.513 316.432 26.513 330.588 154.032 330.588 161.521 323.51 154.032 316.432 26.513 316.432"/>
  <rect class="cls-1" y="0.00098" width="297.638" height="566.92902"/>
  <g class="cls-46">
    <text class="cls-47" transform="translate(203.81543 167.15753)"><tspan xml:space="preserve"> A</tspan></text>
    <text class="cls-48" transform="translate(220.48828 162.1004)"><tspan class="cls-49">+</tspan><tspan x="6.60449" y="0">+</tspan></text>
    <text class="cls-48" transform="translate(233.72266 162.1004)">+</text>
    <text class="cls-47" transform="translate(203.95801 190.65948)"><tspan xml:space="preserve"> A</tspan></text>
    <text class="cls-48" transform="translate(219.99902 185.60236)">+</text>
    <text class="cls-48" transform="translate(226.61621 185.60236)">+</text>
    <text class="cls-47" transform="translate(203.95801 213.91827)"><tspan xml:space="preserve"> A</tspan></text>
    <text class="cls-47" transform="translate(203.59668 236.62335)"><tspan xml:space="preserve"> A</tspan></text>
    <text class="cls-47" transform="translate(203.78711 260.25909)"><tspan xml:space="preserve"> B</tspan></text>
    <text class="cls-47" transform="translate(203.78711 283.51544)"><tspan xml:space="preserve"> C</tspan></text>
    <text class="cls-47" transform="translate(203.42578 307.01788)"><tspan xml:space="preserve"> D</tspan></text>
    <text class="cls-47" transform="translate(203.42578 330.16046)"><tspan xml:space="preserve"> E</tspan></text>
    <text class="cls-47" transform="translate(206.92188 353.56866)">F</text>
    <text class="cls-47" transform="translate(206.92188 376.99542)">G</text>
    <text class="cls-48" transform="translate(219.99902 208.86115)">+</text>
  </g>
  <text class="cls-50" transform="translate(33.9873 186.53253)"><tspan xml:space="preserve"> A</tspan></text>
  <text class="cls-51" transform="translate(45.63574 181.87042)">+</text>
  <text class="cls-51" transform="translate(49.79004 181.87042)">+</text>
  <text class="cls-50" transform="translate(33.9873 204.18243)"><tspan xml:space="preserve"> A</tspan></text>
  <text class="cls-51" transform="translate(45.63574 199.52032)">+</text>
  <text class="cls-50" transform="translate(33.9873 223.83234)"> </text>
  <text class="cls-50" transform="translate(37.15137 221.83038)">A</text>
  <text class="cls-50" transform="translate(33.9873 239.48419)"><tspan xml:space="preserve"> B</tspan></text>
  <text class="cls-50" transform="translate(33.9873 257.13849)"><tspan xml:space="preserve"> C</tspan></text>
  <text class="cls-50" transform="translate(33.9873 274.7923)"><tspan xml:space="preserve"> D</tspan></text>
  <text class="cls-50" transform="translate(33.9873 292.44659)"><tspan xml:space="preserve"> E</tspan></text>
  <text class="cls-50" transform="translate(33.9873 310.09991)"><tspan xml:space="preserve"> F</tspan></text>
  <text class="cls-50" transform="translate(33.9873 327.75421)"><tspan xml:space="preserve"> G</tspan></text>
  <g class="cls-2">
    <path class="cls-52" d="M115.2952,348.3237s-7.904,0-7.904,7.904v69.058s0,7.904,7.904,7.904h147.61s7.904,0,7.904-7.904v-69.058s0-7.904-7.904-7.904Z"/>
  </g>
  <text class="cls-53" transform="translate(26.89258 541.54816)">2017</text>
  <text class="cls-53" transform="translate(226.45215 541.54816)">2015/1187</text>
  <rect class="cls-1" y="0.00098" width="297.638" height="566.92902"/>
  <g id="combinationBoiler">
    <rect class="cls-36" x="53.64091" y="473.08839" width="15.83417" height="1.97302" transform="translate(-2.16251 0.28582) rotate(-0.26144)"/>
    <g class="cls-55">
      <path class="cls-56" d="M56.1573,474.07449a2.6162,2.6162,0,0,0-2.597-2.639,2.58924,2.58924,0,0,0-2.597,2.639,2.617,2.617,0,0,0,2.597,2.64,2.64505,2.64505,0,0,0,2.597-2.64"/>
      <path class="cls-56" d="M72.1525,474.07449a2.61683,2.61683,0,0,0-2.597-2.639,2.58923,2.58923,0,0,0-2.597,2.639,2.617,2.617,0,0,0,2.597,2.64,2.64572,2.64572,0,0,0,2.597-2.64"/>
      <path class="cls-56" d="M64.8381,474.07449a3.28714,3.28714,0,0,0-3.306-3.305,3.24345,3.24345,0,0,0-3.253,3.305,3.27746,3.27746,0,0,0,3.253,3.306,3.322,3.322,0,0,0,3.306-3.306"/>
      <path class="cls-36" d="M64.8367,474.07449a3.28754,3.28754,0,0,0-3.305-3.305,3.24345,3.24345,0,0,0-3.253,3.305,3.27746,3.27746,0,0,0,3.253,3.306,3.32239,3.32239,0,0,0,3.305-3.306"/>
      <rect class="cls-36" x="60.412" y="474.12699" width="2.291" height="8.477"/>
      <path class="cls-56" d="M68.5705,487.4259a7.0192,7.0192,0,1,0-7.036,7.314,7.15427,7.15427,0,0,0,7.036-7.314"/>
      <path class="cls-56" d="M67.1977,491.72219s3.786.514,3.786,1.919v4.746h6.202l-.017-5.705c-.528-6-3.509-6.96-8.798-8.637l-1.635-.472.036.738-19.408-.107v7.358l19.834-.16v.32"/>
    </g>
    <path class="cls-52" d="M35.8024,442.26859s-7.904,0-7.904,7.904v69.058s0,7.904,7.904,7.904h53.464s7.905,0,7.905-7.904v-69.058s0-7.904-7.905-7.904Z"/>
  </g>
  <rect class="cls-1" y="0.00098" width="297.638" height="566.92902"/>
  <g id="cogenerationBoiler">
    <path class="cls-52" d="M115.2952,442.26859s-7.904,0-7.904,7.904v69.058s0,7.904,7.904,7.904h53.464s7.905,0,7.905-7.904v-69.058s0-7.904-7.905-7.904Z"/>
    <g class="cls-57">
      <path class="cls-58" d="M159.97031,484.71209c0,9.518-8.072,17.234-18.031,17.234s-18.031-7.716-18.031-17.234c0-9.517,8.072-17.234,18.031-17.234s18.031,7.717,18.031,17.234"/>
      <path class="cls-59" d="M139.4935,466.8223h6.522c-2.115,4.877-4.275,9.708-6.147,14.831,2.847-1.456,5.62-2.987,8.497-4.414-1.595,5.991-3.243,11.928-4.774,17.984.912-.264,1.54-.817,2.499-1.034a4.43881,4.43881,0,0,1-.575,1.009c-1.417,2.05-2.833,4.202-4.223,6.306-.093.14-.179.338-.35.403-.624-3.12-1.339-6.147-1.949-9.282.773.548,1.172,1.474,1.949,2.018.581-3.896,1.19-7.762,1.799-11.628-2.964,1.448-5.966,3.076-8.971,4.566,1.854-6.974,3.795-13.86,5.723-20.759"/>
    </g>
  </g>
  <g id="rating">
    <polyline id="ratingArrow" class="cls-60" points="208.26 181.87 224.9 165.06 270.94 165.06 270.94 198.96 225.21 198.96 208.26 181.87"/>
    <text id="ratingLetter" class="cls-61" transform="translate(221.01953 189.11017)">A</text>
    <text id="ratingPlusses" class="cls-62" transform="translate(236.98047 181.01984)">++</text>
  </g>
  <text transform="translate(190.22998 404.87042)" text-anchor="middle">
    <tspan id="kw" class="cls-63">X</tspan>
    <tspan class="cls-54">kW</tspan>
  </text>
  <text id="supplierLine2" class="cls-64" transform="translate(26.89258 106.22784)">X</text>
  <text id="supplierLine1" class="cls-64" transform="translate(26.89258 94.96564)">X</text>
  <text id="modelLine2" class="cls-64" transform="translate(153.07031 106.22784)">X</text>
  <text id="modelLine1" class="cls-64" transform="translate(153.07031 94.96564)">X</text>
</svg>