<svg id="Layer_1" data-name="Layer 1" xmlns="http://www.w3.org/2000/svg" xmlns:xlink="http://www.w3.org/1999/xlink" width="96mm" height="192mm" viewBox="0 0 272.12601 544.25201" data-rating-increment="28.3333" data-supplier-model-chars-per-row="20">
  <defs>
    <style>
      #hdrSection {
        visibility: hidden;
      }

      #hdrSection.hasHdrSection {
        visibility: visible;
      }

      .hdrRatingA #hdrRatingALetter,
      .hdrRatingB #hdrRatingBLetter,
      .hdrRatingC #hdrRatingCLetter,
      .hdrRatingD #hdrRatingDLetter,
      .hdrRatingE #hdrRatingELetter,
      .hdrRatingF #hdrRatingFLetter,
      .hdrRatingG #hdrRatingGLetter {
        font-size: 16px;
        font-weight: 700;
        font-family: Verdana-Bold, Verdana;
      }

      .cls-1, .cls-10, .cls-4, .cls-9 {
        fill: none;
      }

      .cls-2 {
        fill: #004289;
      }

      .cls-3 {
        fill: #da2e33;
      }

      .cls-10, .cls-4, .cls-9 {
        stroke: #1d1d1b;
      }

      .cls-4 {
        stroke-width: 0.5px;
      }

      .cls-5 {
        fill: #164194;
      }

      .cls-6 {
        clip-path: url(#clip-path);
      }

      .cls-7 {
        font-size: 6px;
      }

      .cls-19, .cls-20, .cls-21, .cls-23, .cls-24, .cls-28, .cls-30, .cls-7, .cls-8 {
        fill: #1d1d1b;
      }

      .cls-19, .cls-20, .cls-24, .cls-28, .cls-7 {
        font-family: Verdana;
      }

      .cls-9 {
        stroke-linecap: round;
        stroke-linejoin: round;
        stroke-width: 2.86px;
      }

      .cls-10 {
        stroke-width: 0.715px;
      }

      .cls-11 {
        fill: #e30613;
      }

      .cls-12 {
        fill: #ec6608;
      }

      .cls-13 {
        fill: #fbba00;
      }

      .cls-14 {
        fill: #ffed00;
      }

      .cls-15 {
        fill: #c8d400;
      }

      .cls-16 {
        fill: #52ae32;
      }

      .cls-17 {
        fill: #009640;
      }

      .cls-18 {
        font-size: 18.8299px;
      }

      .cls-18, .cls-22, .cls-29 {
        fill: #fff;
      }

      .cls-18, .cls-29 {
        font-family: Calibri-Bold, Calibri;
      }

      .cls-18, .cls-21, .cls-23, .cls-29, .cls-30 {
        font-weight: 700;
      }

      .cls-19, .cls-30 {
        font-size: 9px;
      }

      .cls-20 {
        font-size: 9.00003px;
      }

      .cls-21 {
        font-size: 28px;
      }

      .cls-21, .cls-23, .cls-30 {
        font-family: Verdana-Bold, Verdana;
      }

      .cls-23, .cls-28 {
        font-size: 16px;
      }

      .cls-24 {
        font-size: 10px;
      }

      .cls-25 {
        letter-spacing: 0.06899em;
      }

      .cls-26 {
        letter-spacing: 0.07002em;
      }

      .cls-27 {
        letter-spacing: 0.15908em;
      }

      .cls-29 {
        font-size: 32.075px;
      }

      .cls-31 {
        fill: #d0d0d0;
      }
    </style>
    <clipPath id="clip-path">
      <rect class="cls-1" width="272.12601" height="544.25201"/>
    </clipPath>
  </defs>
  <g id="ukFlag">
    <path class="cls-2" d="M15.6609,48.84064h15.993v-10.662Zm52.371-4.775v-8.453H55.3459Zm0-21.681v-8.453l-12.686,8.453Zm-23.15,26.456h15.993l-15.993-10.662Zm-13.228-39.685H15.6609l15.993,10.662Zm-23.15,4.776v8.453h12.686Zm52.371-4.776H44.8819v10.662Zm-39.685,26.457-12.686,8.453v-8.453Z"/>
    <path class="cls-3" d="M44.8815,21.405v.979h3.307l19.843-13.228h-4.775ZM31.6535,36.592v-.979h-3.307L8.5035,48.841h4.776Zm36.378,9.048L52.9775,35.613h-4.775l19.829,13.215ZM8.5035,12.35706l15.054,10.027h4.776l-19.83-13.215Zm59.528,20.61H42.2365V48.841h-7.937V32.967H8.5035V25.03h25.796V9.15607h7.937V25.03h25.795Z"/>
  </g>
  <line class="cls-4" x1="8.5972" y1="77.1694" x2="263.62219" y2="77.1694"/>
  <polygon class="cls-5" points="79.354 21.082 79.354 26.374 91.711 26.374 91.711 31.79 79.354 31.79 79.354 37.867 92.24 37.867 92.24 43.282 73.701 43.282 73.701 15.543 92.24 15.543 92.24 21.082 79.354 21.082"/>
  <polygon class="cls-5" points="119.033 15.543 119.033 43.282 112.284 43.282 100.94 24.844 100.94 43.282 95.287 43.282 95.287 15.543 102.037 15.543 113.38 34.229 113.38 15.543 119.033 15.543"/>
  <polygon class="cls-5" points="127.896 21.082 127.896 26.374 140.252 26.374 140.252 31.79 127.896 31.79 127.896 37.867 140.781 37.867 140.781 43.282 122.243 43.282 122.243 15.543 140.781 15.543 140.781 21.082 127.896 21.082"/>
  <g class="cls-6">
    <path class="cls-5" d="M149.399,27.98676h6.382a9.83271,9.83271,0,0,0,1.993-.165,3.3754,3.3754,0,0,0,1.138-.415q.612-.4965.612-2.521a8.06319,8.06319,0,0,0-.366-3.018c-.246-.551-1.044-.826-2.401-.826h-7.358Zm-5.691,15.29495v-27.739h13.011a14.68876,14.68876,0,0,1,3.902.45405,6.24154,6.24154,0,0,1,2.684,1.469,6.09634,6.09634,0,0,1,1.566,2.68695,14.22612,14.22612,0,0,1,.507,4.072,19.13017,19.13017,0,0,1-.163,2.521,14.5215,14.5215,0,0,1-.446,2.151,4.18631,4.18631,0,0,1-1.301,1.859,5.40743,5.40743,0,0,1,1.199,2.066,8.61855,8.61855,0,0,1,.385,2.647v7.813h-5.815v-7.194a2.61772,2.61772,0,0,0-.73-2.149,3.73731,3.73731,0,0,0-2.318-.579h-6.79v9.922Z"/>
    <path class="cls-5" d="M177.9006,27.987h13.211c.136,1.048.208,1.824.223,2.334.015.511.019.959.019,1.343v2.275a16.83927,16.83927,0,0,1-.892,5.705,4.88764,4.88764,0,0,1-1.891,2.459,8.27858,8.27858,0,0,1-3.599,1.179q-1.2195.123-2.519.165-1.30348.04051-2.601.042-6.50548,0-8.946-2.109-2.643-2.19149-2.643-8.641v-1.736c0-.578.015-1.171.042-1.776v-3.266q0-5.37608,2.155-7.938a6.88039,6.88039,0,0,1,3.108-1.984,14.7163,14.7163,0,0,1,4.658-.661h1.501c.488,0,.991.013,1.505.04h2.847q3.9825.12452,5.589,2.171a9.22356,9.22356,0,0,1,1.607,5.809v2.43805h-5.691a12.30012,12.30012,0,0,0-.45-4.341c-.136-.275-.703-.44-1.705-.496q-1.2585-.081-2.462-.102c-.797-.013-1.633-.021-2.499-.021q-3.13049,0-3.698.661-.573.70348-.65,4.589,0,.41244-.023.784c-.011.248-.019.525-.019.827v1.57306l.042,3.512c0,.717.026,1.394.079,2.026a10.3352,10.3352,0,0,0,.284,1.736v-.083a2.14437,2.14437,0,0,0,.65.808,2.74839,2.74839,0,0,0,1.301.475,12.29277,12.29277,0,0,0,1.667.122q.4875.04353.998.043h2.417a20.37078,20.37078,0,0,0,2.299-.104,1.99989,1.99989,0,0,0,1.198-.434c.378-.331.571-1.433.571-3.307v-.661h-7.683Z"/>
  </g>
  <polygon class="cls-5" points="199.062 15.418 205.335 15.418 202.844 23.392 209.671 22.266 199.892 43.747 202.844 28.175 196.294 28.457 199.062 15.418"/>
  <text class="cls-7" transform="translate(259.0332 503.21649) rotate(90)">2019/2013</text>
  <rect class="cls-8" x="131.83299" y="526.98601" width="8.32401" height="7.092"/>
  <rect class="cls-8" x="118.177" y="533.46601" width="35.996" height="2.502"/>
  <rect class="cls-9" x="97.74" y="480.70501" width="76.51" height="47.367"/>
  <line class="cls-10" x1="106.2595" y1="520.91381" x2="167.43149" y2="487.29581"/>
  <polygon class="cls-8" points="101.838 523.344 108.801 522.267 106.48 518.044 101.838 523.344"/>
  <polygon class="cls-8" points="171.854 484.866 164.89 485.943 167.211 490.166 171.854 484.866"/>
  <line class="cls-4" x1="8.504" y1="295.05321" x2="263.547" y2="295.05321"/>
  <line class="cls-4" x1="8.504" y1="351.57112" x2="263.547" y2="351.57112"/>
  <polygon class="cls-11" points="132.05 257.868 8.504 257.868 8.504 281.962 132.05 281.962 144.567 269.915 132.05 257.868"/>
  <polygon class="cls-12" points="120.729 229.521 8.504 229.521 8.504 253.615 120.729 253.615 133.228 241.568 120.729 229.521"/>
  <polygon class="cls-13" points="109.487 201.175 8.504 201.175 8.504 225.269 109.487 225.269 121.89 213.222 109.487 201.175"/>
  <polygon class="cls-14" points="98.238 172.922 8.484 172.922 8.484 197.016 98.238 197.016 110.531 184.969 98.238 172.922"/>
  <polygon class="cls-15" points="89.37 144.575 8.504 144.575 8.504 168.669 89.37 168.669 102.047 156.622 89.37 144.575"/>
  <polygon class="cls-16" points="78.116 116.229 8.504 116.229 8.504 140.323 78.116 140.323 90.708 128.276 78.116 116.229"/>
  <polygon class="cls-17" points="62.25 87.882 8.504 87.882 8.504 111.976 62.25 111.976 73.701 99.929 62.25 87.882"/>
  <text class="cls-18" transform="translate(15.18164 105.79254) scale(1 1.012)">A</text>
  <text class="cls-18" transform="translate(15.27539 134.33844) scale(1 1.012)">B</text>
  <text class="cls-18" transform="translate(15.31299 162.9986) scale(1 1.012)">C</text>
  <text class="cls-18" transform="translate(15.1626 190.95319) scale(1 1.012)">D</text>
  <text class="cls-18" transform="translate(15.1626 219.36578) scale(1 1.012)">E</text>
  <text class="cls-18" transform="translate(15.1626 247.93073) scale(1 1.012)">F</text>
  <text class="cls-18" transform="translate(15.1626 276.49518) scale(1 1.012)">G</text>
  <text class="cls-19" transform="translate(136.063005 474.88873)" text-anchor="middle">
    <tspan id="pxHorizontal">X</tspan>
    <tspan>px</tspan>
  </text>
  <text class="cls-19" transform="translate(181.92871 503.63461) rotate(90)" text-anchor="middle">
    <tspan id="pxVertical">X</tspan>
    <tspan>px</tspan>
  </text>
  <text class="cls-20" transform="translate(134.5 500.5) rotate(331.4)" text-anchor="middle">
    <tspan id="cm">X</tspan>
    <tspan>cm</tspan>
  </text>
  <text class="cls-20" transform="translate(141.6 513.7) rotate(331.4)" text-anchor="middle">
    <tspan id="inch">X</tspan><tspan>″</tspan>
  </text>
  <text transform="translate(136.063005 335.0069)" text-anchor="middle">
    <tspan id="kwh1000hSdr" class="cls-21">X</tspan>
    <tspan class="cls-28">kWh/1000h</tspan>
  </text>
  <g id="hdrSection">
    <rect class="cls-8" x="135.995" y="388.93001" width="39.105" height="35.683"/>
    <path class="cls-8" d="M119.0519,397.87732a.82107.82107,0,0,1,.153-.511.61857.61857,0,0,1,.522-.201h3.561q.4305,0,.537.231a1.1186,1.1186,0,0,1,.108.478v19.124a1.016,1.016,0,0,1-.108.462q-.1065.216-.537.216h-3.561a.598.598,0,0,1-.675-.678v-7.897h-5.986v7.897a1.02811,1.02811,0,0,1-.107.462q-.108.216-.538.216h-3.56a.59825.59825,0,0,1-.676-.678v-19.124a.81135.81135,0,0,1,.154-.509.61853.61853,0,0,1,.522-.2h3.56q.4305,0,.538.232a1.14125,1.14125,0,0,1,.107.48v7.122h5.986Z"/>
    <path class="cls-8" d="M139.37279,407.59042a8.57739,8.57739,0,0,0-1.043-4.781,3.68073,3.68073,0,0,0-3.254-1.511h-2.18v12.276h1.965a5.108,5.108,0,0,0,1.872-.324,3.41029,3.41029,0,0,0,1.412-1.033,5.03552,5.03552,0,0,0,.906-1.851,10.33222,10.33222,0,0,0,.322-2.776m-10.621,10.086a.6833.6833,0,0,1-.568-.185.80534.80534,0,0,1-.138-.493v-19.124a.80534.80534,0,0,1,.138-.493.63611.63611,0,0,1,.537-.186h6.692a10.28969,10.28969,0,0,1,4.421.833,7.13891,7.13891,0,0,1,2.762,2.221,8.59908,8.59908,0,0,1,1.428,3.239,17.75026,17.75026,0,0,1,.414,3.886,18.77151,18.77151,0,0,1-.399,3.933,8.71293,8.71293,0,0,1-1.412,3.284,7,7,0,0,1-2.763,2.252,10.36868,10.36868,0,0,1-4.451.833Z"/>
    <path class="cls-22" d="M158.09779,403.45721a1.91067,1.91067,0,0,0-.721-1.697,3.11641,3.11641,0,0,0-1.796-.493h-2.517v4.596h2.456a4.3602,4.3602,0,0,0,.859-.093,2.40862,2.40862,0,0,0,.844-.339,1.82546,1.82546,0,0,0,.63-.725,2.7448,2.7448,0,0,0,.245-1.249m5.464,13.448a.64248.64248,0,0,1,.046.555.4477.4477,0,0,1-.445.216h-3.775a1.75193,1.75193,0,0,1-.753-.139.92524.92524,0,0,1-.445-.539l-3.131-7.125h-1.995v7.125a1.016,1.016,0,0,1-.108.462c-.072.144-.25.216-.537.216h-3.53a.68329.68329,0,0,1-.568-.185.80527.80527,0,0,1-.138-.493v-19.155a.823.823,0,0,1,.138-.478.654.654,0,0,1,.568-.2h7.521a8.3081,8.3081,0,0,1,2.44.37,6.49138,6.49138,0,0,1,2.164,1.126,5.58826,5.58826,0,0,1,1.535,1.943,6.33686,6.33686,0,0,1,.583,2.822,7.88839,7.88839,0,0,1-.168,1.589,5.65225,5.65225,0,0,1-1.612,2.93,5.61867,5.61867,0,0,1-1.566,1.064Z"/>
    <path class="cls-22" d="M142.5961,400.24951a7.12624,7.12624,0,0,0-2.763-2.221,9.741,9.741,0,0,0-3.838-.821v4.169a3.405,3.405,0,0,1,2.334,1.433,8.56571,8.56571,0,0,1,1.044,4.781,10.37243,10.37243,0,0,1-.322,2.776,5.0512,5.0512,0,0,1-.906,1.851,3.41025,3.41025,0,0,1-1.412,1.033,4.40546,4.40546,0,0,1-.738.21v4.204a9.79856,9.79856,0,0,0,3.869-.821,7.01532,7.01532,0,0,0,2.763-2.252,8.7131,8.7131,0,0,0,1.412-3.284,18.7711,18.7711,0,0,0,.399-3.933,17.68867,17.68867,0,0,0-.415-3.886,8.61345,8.61345,0,0,0-1.427-3.239"/>
    <path class="cls-8" d="M97.471,424.03h77.048V389.513H97.471Zm78.209,1.167H96.31v-36.85h79.37Z"/>
    <text class="cls-24 cls-25" id="hdrRating" transform="translate(136.063005 381.86334)" text-anchor="middle">
      <!-- Do not pretty-print these spans - they need to be all on one line to avoid whitespace between them when rendering -->
      <tspan id="hdrRatingALetter">A</tspan><tspan id="hdrRatingBLetter">B</tspan><tspan id="hdrRatingCLetter">C</tspan><tspan id="hdrRatingDLetter">D</tspan><tspan id="hdrRatingELetter">E</tspan><tspan id="hdrRatingFLetter">F</tspan><tspan id="hdrRatingGLetter">G</tspan>
    </text>
    <text transform="translate(136.063005 442.086)" text-anchor="middle">
      <tspan id="kwh1000hHdr" class="cls-23">X</tspan>
      <tspan class="cls-24">kWh/1000h</tspan>
    </text>
  </g>
  <g id="rating">
    <polygon id="ratingArrow" points="219.514 82.63 198.351 100.344 219.514 116.646 263.547 116.646 263.547 82.63 219.514 82.63"/>
    <text id="ratingLetter" class="cls-29" transform="translate(231.84473 109.16608) scale(1 1.012)">A</text>
  </g>
  <text id="supplier" class="cls-30" transform="translate(8.59717 72.93561)">X</text>
  <text id="model" class="cls-19" transform="translate(264.55605 72.93561)" text-anchor="end">X</text>
  <g id="qrCode">
    <rect class="cls-31" x="216.85005" y="8.50397" width="46.77165" height="46.77165"/>
    <text class="cls-19" transform="translate(221.42295 34.41108)">QR code</text>
  </g>
</svg>
