<svg xmlns="http://www.w3.org/2000/svg" xmlns:xlink="http://www.w3.org/1999/xlink" id="Layer_1" data-name="Layer 1" width="36mm" height="67mm" viewBox="0 0 102.05 189.92126" data-rating-increment="16.4409">
  <defs>
    <style>
      .ratingAPP { transform: translateY(0mm); }
      .ratingAP { transform: translateY(4.35mm); }
      .ratingA { transform: translateY(8.7mm); }
      .ratingB { transform: translateY(13.05mm); }
      .ratingC { transform: translateY(17.6mm); }
      .ratingD { transform: translateY(21.75mm); }
      .ratingE { transform: translateX(0.15mm) translateY(26.1mm); }

      .cls-1, .cls-3 {
        fill: none;
      }

      .cls-2 {
        clip-path: url(#clip-path);
      }

      .cls-3 {
        stroke: #00aeef;
        stroke-width: 2px;
      }

      .cls-4 {
        fill: #bfd730;
      }

      .cls-5 {
        fill: #50b848;
      }

      .cls-6 {
        fill: #00a651;
      }

      .cls-7 {
        fill: #fff200;
      }

      .cls-8 {
        fill: #fdb913;
      }

      .cls-9 {
        fill: #f37021;
      }

      .cls-10 {
        fill: #ed1c24;
      }

      .cls-11 {
        font-size: 14px;
      }

      .cls-11, .cls-12, .cls-13, .cls-19, .cls-20, .cls-22, .cls-23 {
        fill: #fff;
      }

      .cls-11, .cls-12, .cls-13, .cls-14, .cls-22, .cls-24 {
        font-family: Calibri-Bold, Calibri;
        font-weight: 700;
      }

      .cls-12 {
        font-size: 8.162px;
      }

      .cls-13 {
        font-size: 19px;
      }

      .cls-14 {
        font-size: 11px;
      }

      .cls-14, .cls-15, .cls-21, .cls-24 {
        fill: #231f20;
      }

      .cls-15 {
        font-size: 9px;
      }

      .cls-15, .cls-23 {
        font-family: Calibri;
      }

      .cls-16 {
        fill: #034ea2;
      }

      .cls-17 {
        fill: #00aeef;
      }

      .cls-18 {
        clip-path: url(#clip-path-2);
      }

      .cls-19 {
        font-size: 7.2814px;
        font-weight: 600;
      }

      .cls-22 {
        font-size: 20px;
      }

      .cls-23 {
        font-size: 11.66px;
      }

      .cls-24 {
        font-size: 16px;
      }
    </style>
    <clipPath id="clip-path">
      <rect class="cls-1" y="0.002" width="102.047" height="188.26834"/>
    </clipPath>
    <clipPath id="clip-path-2">
      <rect class="cls-1" x="8.481" y="8.09901" width="85.06401" height="24.53799"/>
    </clipPath>
  </defs>
  <title>lamps-suppliers-name-model-on-packaging</title>
  <g class="cls-2">
    <path class="cls-3" d="M8.0866,5.2536a2.77657,2.77657,0,0,0-2.835,2.835V179.47493a2.77657,2.77657,0,0,0,2.835,2.835h85.874a2.77657,2.77657,0,0,0,2.835-2.835V8.08861a2.77657,2.77657,0,0,0-2.835-2.835Z"/>
  </g>
  <polygon class="cls-4" points="9.26 88.593 9.26 74.422 38.549 74.422 45.313 81.511 38.549 88.593 9.26 88.593"/>
  <polygon class="cls-5" points="9.26 72.157 9.26 57.987 34.386 57.987 41.151 65.07 34.386 72.158 9.26 72.157"/>
  <polygon class="cls-6" points="9.26 55.705 9.26 41.541 30.23 41.541 36.994 48.622 30.229 55.705 9.26 55.705"/>
  <polygon class="cls-7" points="9.26 105.024 9.26 90.857 42.889 90.858 49.665 97.942 42.889 105.024 9.26 105.024"/>
  <polygon class="cls-8" points="9.26 121.469 9.26 107.3 47.042 107.3 53.821 114.389 47.042 121.469 9.26 121.469"/>
  <polygon class="cls-9" points="9.26 137.899 9.26 123.733 51.2 123.734 57.979 130.811 51.2 137.9 9.26 137.899"/>
  <polygon class="cls-10" points="9.26 154.332 9.26 140.163 55.354 140.164 62.136 147.25 55.354 154.333 9.26 154.332"/>
  <text class="cls-11" transform="translate(8.13965 54.4012)"> </text>
  <text class="cls-11" transform="translate(11.30371 52.51106)">A</text>
  <text class="cls-12" transform="translate(19.78809 47.8553)">+</text>
  <text class="cls-12" transform="translate(23.94238 47.8553)">+</text>
  <text class="cls-11" transform="translate(8.13965 70.9012)"> </text>
  <text class="cls-11" transform="translate(11.30371 69.01106)">A</text>
  <text class="cls-12" transform="translate(19.78809 64.3553)">+</text>
  <text class="cls-11" transform="translate(8.13965 87.4012)"> </text>
  <text class="cls-11" transform="translate(11.30371 85.51155)">A</text>
  <text class="cls-11" transform="translate(8.13965 102.01741)"><tspan xml:space="preserve"> B</tspan></text>
  <text class="cls-11" transform="translate(8.13965 118.52327)"><tspan xml:space="preserve"> C</tspan></text>
  <text class="cls-11" transform="translate(8.13965 135.02913)"><tspan xml:space="preserve"> D</tspan></text>
  <text class="cls-11" transform="translate(8.13965 151.53498)"><tspan xml:space="preserve"> E</tspan></text>
  <text class="cls-13" transform="translate(64.13379 53.50666)"> </text>
  <text class="cls-14" transform="translate(41.74463 176.45198)"> </text>
  <text class="cls-15" transform="translate(44.23145 176.45198)">kWh/1000h</text>
  <rect class="cls-16" x="8.487" y="8.14301" width="24.817" height="16.575"/>
  <rect class="cls-17" x="34.124" y="8.14301" width="59.419" height="16.575"/>
  <polygon class="cls-7" points="26.023 13.669 26.556 13.281 25.897 13.281 25.693 12.654 25.489 13.281 24.83 13.281 25.364 13.669 25.16 14.296 25.693 13.909 26.227 14.296 26.023 13.669"/>
  <polygon class="cls-7" points="23.946 11.68 24.479 11.292 23.82 11.292 23.616 10.665 23.412 11.292 22.753 11.292 23.287 11.68 23.083 12.307 23.616 11.92 24.15 12.307 23.946 11.68"/>
  <polygon class="cls-7" points="21.267 10.968 21.801 10.58 21.141 10.58 20.937 9.953 20.733 10.58 20.074 10.58 20.607 10.968 20.404 11.595 20.937 11.208 21.471 11.595 21.267 10.968"/>
  <polygon class="cls-7" points="18.446 11.68 18.979 11.292 18.32 11.292 18.116 10.665 17.912 11.292 17.253 11.292 17.787 11.68 17.583 12.307 18.116 11.92 18.65 12.307 18.446 11.68"/>
  <polygon class="cls-7" points="16.43 13.766 16.963 13.378 16.304 13.378 16.1 12.751 15.896 13.378 15.237 13.378 15.771 13.766 15.567 14.393 16.1 14.006 16.634 14.393 16.43 13.766"/>
  <polygon class="cls-7" points="15.787 16.507 16.32 16.119 15.661 16.119 15.457 15.492 15.253 16.119 14.594 16.119 15.128 16.507 14.924 17.134 15.457 16.747 15.991 17.134 15.787 16.507"/>
  <polygon class="cls-7" points="16.45 19.284 16.984 18.896 16.324 18.896 16.12 18.269 15.916 18.896 15.257 18.896 15.791 19.284 15.587 19.911 16.12 19.524 16.654 19.911 16.45 19.284"/>
  <polygon class="cls-7" points="18.446 21.258 18.979 20.87 18.32 20.87 18.116 20.243 17.912 20.87 17.253 20.87 17.787 21.258 17.583 21.885 18.116 21.498 18.65 21.885 18.446 21.258"/>
  <polygon class="cls-7" points="21.267 21.993 21.8 21.605 21.141 21.605 20.937 20.978 20.733 21.605 20.074 21.605 20.607 21.993 20.404 22.62 20.937 22.233 21.471 22.62 21.267 21.993"/>
  <polygon class="cls-7" points="24.012 21.248 24.546 20.86 23.886 20.86 23.682 20.233 23.478 20.86 22.819 20.86 23.352 21.248 23.149 21.875 23.682 21.488 24.216 21.875 24.012 21.248"/>
  <polygon class="cls-7" points="26.009 19.266 26.542 18.878 25.883 18.878 25.679 18.251 25.475 18.878 24.816 18.878 25.35 19.266 25.146 19.893 25.679 19.506 26.213 19.893 26.009 19.266"/>
  <polygon class="cls-7" points="26.744 16.469 27.277 16.081 26.618 16.081 26.414 15.454 26.211 16.081 25.551 16.081 26.085 16.469 25.881 17.096 26.414 16.709 26.948 17.096 26.744 16.469"/>



  <g id="rating">
    <polyline id="ratingArrow" class="cls-21" points="61.65 48.64 72.06 38.12 93.54 38.12 93.54 57.96 72.06 57.96 61.65 48.64"/>
    <text id="ratingLetter" class="cls-22" transform="translate(70.16016 54.02034)">A</text>
    <text id="ratingPlusses" class="cls-23" transform="translate(80.86035 47.22053)">++</text>
  </g>
  <text id="kwh" class="cls-24" transform="translate(41.5 176.45002)" text-anchor="end">X</text>
</svg>
