<svg id="Layer_1" data-name="Layer 1" xmlns="http://www.w3.org/2000/svg" xmlns:xlink="http://www.w3.org/1999/xlink" width="105mm" height="200mm" viewBox="0 0 297.64001 566.92999" data-rating-increment="22.3333" data-supplier-model-chars-per-row="25">
  <defs>
    <style>
      #offPeakMode {
        visibility: hidden;
      }

      #offPeakMode.hasOffPeakMode {
        visibility: visible;
      }

      .cls-1, .cls-15, .cls-17, .cls-19, .cls-20 {
        fill: none;
      }

      .cls-2 {
        fill: #00aeef;
      }

      .cls-3 {
        fill: #034ea2;
      }

      .cls-4 {
        fill: #fff200;
      }

      .cls-29, .cls-30, .cls-34, .cls-35, .cls-5 {
        fill: #fff;
      }

      .cls-21, .cls-33, .cls-36, .cls-37, .cls-38, .cls-6, .cls-7 {
        fill: #231f20;
      }

      .cls-7 {
        font-size: 12px;
      }

      .cls-35, .cls-38, .cls-7 {
        font-family: Calibri;
      }

      .cls-8 {
        letter-spacing: 0.059em;
      }

      .cls-9 {
        fill: #b5e4f9;
      }

      .cls-10 {
        fill: #00c0f0;
      }

      .cls-11 {
        fill: #72d0f3;
      }

      .cls-12 {
        fill: #00c0ee;
      }

      .cls-13 {
        fill: #ddf2fd;
      }

      .cls-14 {
        clip-path: url(#clip-path);
      }

      .cls-15, .cls-20 {
        stroke: #00aeef;
        stroke-linecap: round;
        stroke-linejoin: round;
      }

      .cls-15 {
        stroke-width: 0.929px;
      }

      .cls-16 {
        clip-path: url(#clip-path-2);
      }

      .cls-17 {
        stroke: #fff;
        stroke-width: 0.81px;
      }

      .cls-18 {
        fill: #2aace3;
      }

      .cls-19 {
        stroke: #2aace3;
        stroke-width: 0.652px;
      }

      .cls-20 {
        stroke-width: 1.65px;
      }

      .cls-21, .cls-35 {
        font-size: 15px;
      }

      .cls-21, .cls-29, .cls-30, .cls-33, .cls-34, .cls-36, .cls-37 {
        font-family: Calibri-Bold, Calibri;
        font-weight: 700;
      }

      .cls-22 {
        clip-path: url(#clip-path-3);
      }

      .cls-23 {
        fill: #bfd730;
      }

      .cls-24 {
        fill: #50b848;
      }

      .cls-25 {
        fill: #00a651;
      }

      .cls-26 {
        fill: #fdb913;
      }

      .cls-27 {
        fill: #f37021;
      }

      .cls-28 {
        fill: #ed1c24;
      }

      .cls-29, .cls-37 {
        font-size: 16px;
      }

      .cls-30 {
        font-size: 9.328px;
      }

      .cls-31, .cls-32 {
        fill: #020304;
      }

      .cls-32 {
        fill-rule: evenodd;
      }

      .cls-33 {
        font-size: 10px;
      }

      .cls-34 {
        font-size: 24px;
      }

      .cls-36 {
        font-size: 20px;
      }

      .cls-38 {
        font-size: 11px;
      }
    </style>
    <clipPath id="clip-path">
      <rect class="cls-1" x="41.949" y="360.442" width="37.035" height="41.03"/>
    </clipPath>
    <clipPath id="clip-path-2">
      <rect class="cls-1" y="0.00098" width="297.638" height="566.92902"/>
    </clipPath>
    <clipPath id="clip-path-3">
      <rect class="cls-1" x="26.513" y="175.11902" width="157.123" height="156.70598"/>
    </clipPath>
  </defs>
  <title>conventional-water-heaters</title>
  <path class="cls-2" d="M114.641,347.806v-1a10.76834,10.76834,0,0,0-4.399,1.093,7.939,7.939,0,0,0-3.102,2.686,9.041,9.041,0,0,0-1.403,5.125v69.057a10.77923,10.77923,0,0,0,1.094,4.4,7.93791,7.93791,0,0,0,2.686,3.102,9.03749,9.03749,0,0,0,5.124,1.403h147.61a10.7978,10.7978,0,0,0,4.399-1.094,7.9391,7.9391,0,0,0,3.102-2.686,9.041,9.041,0,0,0,1.403-5.125V355.71a10.78219,10.78219,0,0,0-1.094-4.4,7.92833,7.92833,0,0,0-2.686-3.101,9.02967,9.02967,0,0,0-5.124-1.403H114.641v2h147.61a7.03073,7.03073,0,0,1,4.015,1.067,6.47989,6.47989,0,0,1,2.514,3.623,9.27573,9.27573,0,0,1,.329,1.599c.024.203.035.364.041.471l.004.118.001.025v69.058a7.03365,7.03365,0,0,1-1.067,4.015,6.48046,6.48046,0,0,1-3.624,2.515,9.34521,9.34521,0,0,1-1.598.329c-.203.023-.365.035-.471.04l-.118.005-.025.001H114.641a7.04615,7.04615,0,0,1-4.015-1.067,6.48185,6.48185,0,0,1-2.514-3.624,9.257,9.257,0,0,1-.329-1.599c-.024-.202-.035-.364-.041-.471l-.004-.118-.001-.025V355.71a7.03363,7.03363,0,0,1,1.067-4.015,6.48541,6.48541,0,0,1,3.624-2.515,9.4436,9.4436,0,0,1,1.598-.329c.203-.023.365-.035.471-.04l.118-.005h.026Z"/>
  <path class="cls-2" d="M26.0862,16.166v-2a14.241,14.241,0,0,0-5.855,1.45105,10.70676,10.70676,0,0,0-4.18,3.625,12.08512,12.08512,0,0,0-1.886,6.845V540.844a14.23975,14.23975,0,0,0,1.451,5.85505,10.71432,10.71432,0,0,0,3.625,4.18,12.08552,12.08552,0,0,0,6.845,1.886h245.466a14.24225,14.24225,0,0,0,5.855-1.451,10.72126,10.72126,0,0,0,4.18-3.625,12.09327,12.09327,0,0,0,1.886-6.845V26.087a14.2394,14.2394,0,0,0-1.451-5.855,10.71386,10.71386,0,0,0-3.625-4.18,12.08745,12.08745,0,0,0-6.845-1.886H26.0862v4h245.466a8.09766,8.09766,0,0,1,4.626,1.21405,6.443,6.443,0,0,1,1.847,1.903,9.50661,9.50661,0,0,1,1.264,3.275,10.45826,10.45826,0,0,1,.163,1.159c.011.137.016.241.019.306l.002.065.027-.001h-.027v.001l.027-.001h-.027V540.844a8.09265,8.09265,0,0,1-1.214,4.626,6.4436,6.4436,0,0,1-1.903,1.847,9.528,9.528,0,0,1-3.276,1.265,10.64717,10.64717,0,0,1-1.158.162c-.137.011-.242.017-.306.019l-.065.002.001.028v-.028h-.001l.001.028v-.028H26.0862a8.09246,8.09246,0,0,1-4.626-1.214,6.40671,6.40671,0,0,1-1.847-1.903,9.5232,9.5232,0,0,1-1.265-3.275,10.65527,10.65527,0,0,1-.162-1.159c-.011-.137-.017-.241-.019-.305l-.002-.066-.029.001h.029v-.001l-.029.001h.029V26.087a8.09489,8.09489,0,0,1,1.214-4.626,6.43029,6.43029,0,0,1,1.903-1.847,9.49883,9.49883,0,0,1,3.275-1.264,10.42044,10.42044,0,0,1,1.159-.163c.137-.011.241-.017.305-.019l.066-.002-.001-.028v.028h.001l-.001-.028V16.166Z"/>
  <rect class="cls-3" x="26.965" y="26.492" width="71.139" height="48.06"/>
  <rect class="cls-2" x="100.45599" y="26.492" width="170.28799" height="48.06"/>
  <polygon class="cls-4" points="77.239 42.515 78.768 41.391 76.878 41.391 76.294 39.573 75.71 41.391 73.82 41.391 75.349 42.515 74.765 44.334 76.294 43.21 77.823 44.334 77.239 42.515"/>
  <polygon class="cls-4" points="71.287 36.748 72.816 35.624 70.926 35.624 70.342 33.805 69.758 35.624 67.868 35.624 69.397 36.748 68.813 38.567 70.342 37.443 71.871 38.566 71.287 36.748"/>
  <polygon class="cls-4" points="63.609 34.685 65.138 33.561 63.248 33.561 62.664 31.743 62.08 33.561 60.19 33.561 61.719 34.685 61.135 36.504 62.664 35.38 64.193 36.504 63.609 34.685"/>
  <polygon class="cls-4" points="55.523 36.748 57.052 35.624 55.162 35.624 54.578 33.805 53.994 35.624 52.104 35.624 53.633 36.748 53.049 38.567 54.578 37.442 56.107 38.566 55.523 36.748"/>
  <polygon class="cls-4" points="49.748 42.797 51.277 41.673 49.387 41.673 48.803 39.855 48.219 41.673 46.329 41.673 47.858 42.797 47.274 44.616 48.803 43.492 50.332 44.616 49.748 42.797"/>
  <polygon class="cls-4" points="47.903 50.745 49.432 49.621 47.542 49.621 46.958 47.803 46.374 49.621 44.484 49.621 46.013 50.745 45.429 52.564 46.958 51.439 48.487 52.563 47.903 50.745"/>
  <polygon class="cls-4" points="49.805 58.798 51.334 57.674 49.444 57.674 48.86 55.856 48.276 57.674 46.386 57.674 47.915 58.798 47.331 60.617 48.86 59.493 50.389 60.617 49.805 58.798"/>
  <polygon class="cls-4" points="55.523 64.521 57.052 63.397 55.162 63.397 54.578 61.578 53.994 63.397 52.104 63.397 53.633 64.521 53.049 66.34 54.578 65.215 56.107 66.339 55.523 64.521"/>
  <polygon class="cls-4" points="63.609 66.652 65.137 65.528 63.248 65.528 62.664 63.71 62.08 65.528 60.19 65.528 61.719 66.652 61.135 68.47 62.664 67.347 64.193 68.47 63.609 66.652"/>
  <polygon class="cls-4" points="71.476 64.491 73.005 63.367 71.115 63.367 70.531 61.549 69.947 63.367 68.057 63.367 69.586 64.491 69.002 66.31 70.531 65.186 72.06 66.31 71.476 64.491"/>
  <polygon class="cls-4" points="77.198 58.746 78.727 57.622 76.837 57.622 76.253 55.804 75.669 57.622 73.779 57.622 75.308 58.746 74.724 60.565 76.253 59.441 77.782 60.565 77.198 58.746"/>
  <polygon class="cls-4" points="79.305 50.634 80.834 49.51 78.944 49.51 78.36 47.692 77.776 49.51 75.886 49.51 77.415 50.634 76.831 52.453 78.36 51.328 79.889 52.452 79.305 50.634"/>
  <polygon class="cls-5" points="121.082 46.107 113.453 46.107 113.453 52.125 121.983 52.125 121.983 55.194 109.758 55.194 109.758 34.711 121.533 34.711 121.533 37.781 113.453 37.781 113.453 43.069 121.082 43.069 121.082 46.107"/>
  <path class="cls-5" d="M126.7293,55.19418V34.71124h4.205l5.227,8.783a56.59573,56.59573,0,0,1,3.454,6.868h.06c-.24-2.735-.331-5.379-.331-8.509v-7.142h3.425V55.19418h-3.815l-5.287-9.026a67.97592,67.97592,0,0,1-3.634-7.051l-.09.031c.15,2.64405.18,5.349.18,8.72205v7.32394Z"/>
  <polygon class="cls-5" points="159.86 46.107 152.23 46.107 152.23 52.125 160.761 52.125 160.761 55.194 148.536 55.194 148.536 34.711 160.311 34.711 160.311 37.781 152.23 37.781 152.23 43.069 159.86 43.069 159.86 46.107"/>
  <path class="cls-5" d="M169.17149,44.04065h2.193c2.492,0,4.054-1.337,4.054-3.373,0-2.249-1.562-3.282-3.965-3.282a10.51347,10.51347,0,0,0-2.282.182Zm-3.665-9.056a34.69454,34.69454,0,0,1,5.587-.425c2.914,0,4.896.486,6.248,1.641a5.21127,5.21127,0,0,1,1.742,4.102,5.45757,5.45757,0,0,1-3.665,5.136v.091c1.442.547,2.313,1.976,2.824,3.951a41.26683,41.26683,0,0,0,1.592,5.714h-3.815a29.21907,29.21907,0,0,1-1.351-4.832c-.571-2.675-1.533-3.526-3.635-3.587h-1.862v8.419h-3.665Z"/>
  <path class="cls-5" d="M200.3192,54.252a19.85434,19.85434,0,0,1-6.518,1.155c-3.425,0-6.008-.881-7.93-2.735a10.20827,10.20827,0,0,1-2.823-7.537c0-6.473,4.565-10.637,11.264-10.637a13.29111,13.29111,0,0,1,5.376.973l-.811,3.009a10.78059,10.78059,0,0,0-4.596-.882c-4.325,0-7.359,2.583-7.359,7.355,0,4.649,2.824,7.415,7.029,7.415a7.01063,7.01063,0,0,0,2.794-.426V46.837h-3.575V43.889h7.149Z"/>
  <path class="cls-5" d="M111.8683,62.615a1.15947,1.15947,0,0,0-1.168-1.294,1.34427,1.34427,0,0,0-1.306,1.294Zm-2.474.935c.035.957.832,1.37,1.734,1.37a4.4707,4.4707,0,0,0,1.56-.239l.209.924a5.576,5.576,0,0,1-1.966.338,2.59755,2.59755,0,0,1-2.901-2.687,2.689,2.689,0,0,1,2.751-2.849,2.34743,2.34743,0,0,1,2.428,2.577,3.0108,3.0108,0,0,1-.047.566Z"/>
  <polygon class="cls-5" points="115.82 60.526 115.82 62.549 117.993 62.549 117.993 60.526 119.415 60.526 119.415 65.823 117.993 65.823 117.993 63.593 115.82 63.593 115.82 65.823 114.398 65.823 114.398 60.526 115.82 60.526"/>
  <path class="cls-5" d="M124.4647,62.615a1.15809,1.15809,0,0,0-1.167-1.294,1.34351,1.34351,0,0,0-1.306,1.294Zm-2.473.935c.035.957.832,1.37,1.734,1.37a4.47072,4.47072,0,0,0,1.56-.239l.208.924a5.56566,5.56566,0,0,1-1.965.338,2.59756,2.59756,0,0,1-2.901-2.687,2.689,2.689,0,0,1,2.751-2.849,2.34743,2.34743,0,0,1,2.428,2.577,3.10026,3.10026,0,0,1-.047.566Z"/>
  <path class="cls-5" d="M128.4292,63.6044a1.29083,1.29083,0,0,0,.046.37,1.271,1.271,0,0,0,1.248.935c.902,0,1.434-.707,1.434-1.751,0-.935-.486-1.697-1.399-1.697a1.30673,1.30673,0,0,0-1.271.99,1.14126,1.14126,0,0,0-.058.337Zm-1.422-1.316c0-.696-.023-1.261-.046-1.762h1.248l.07.816h.023a2.23476,2.23476,0,0,1,1.93-.936,2.4605,2.4605,0,0,1,2.37,2.698,2.58433,2.58433,0,0,1-2.566,2.838,1.89312,1.89312,0,0,1-1.584-.707h-.023v2.741h-1.422Z"/>
  <polygon class="cls-5" points="137.537 60.526 137.537 61.581 135.236 61.581 135.236 65.823 133.815 65.823 133.815 60.526 137.537 60.526"/>
  <path class="cls-5" d="M139.80141,60.5264v1.904c0,.837-.034,1.402-.081,2.142h.035c.3-.62.474-1.011.763-1.566l1.387-2.48h1.722v5.297h-1.352v-1.893c0-.848.034-1.24.092-2.24h-.046c-.277.631-.462,1.011-.74,1.522-.439.783-.948,1.74-1.433,2.611h-1.699v-5.297Z"/>
  <path class="cls-5" d="M148.412,61.35294a4.04735,4.04735,0,0,0-.706-.054c-.624,0-1.26.206-1.26.794,0,.554.706.794,1.26.794.336,0,.521,0,.706-.011Zm1.41,4.47h-1.41v-2.099h-.532a1.14206,1.14206,0,0,0-.867.348,3.41446,3.41446,0,0,0-.694,1.316,3.85046,3.85046,0,0,1-.219.435h-1.526a2.6997,2.6997,0,0,0,.347-.587,4.44507,4.44507,0,0,1,.843-1.523,1.36326,1.36326,0,0,1,.671-.359v-.032c-.671-.065-1.468-.479-1.468-1.305a1.33345,1.33345,0,0,1,.867-1.229,4.85848,4.85848,0,0,1,1.988-.337,16.13688,16.13688,0,0,1,2,.119Z"/>
  <path class="cls-5" d="M154.4324,63.84369a.8297.8297,0,0,1-.867-.859.83929.83929,0,0,1,.878-.859.85922.85922,0,1,1,0,1.718Z"/>
  <path class="cls-5" d="M160.03729,62.9736c-.67-.174-1.04-.587-1.04-1.109,0-.718.763-1.458,2.37-1.458a3.52258,3.52258,0,0,1,1.803.403l-.266.859a3.17965,3.17965,0,0,0-1.364-.316c-.682,0-1.11.262-1.11.631,0,.424.567.598,1.41.609h.613v.892h-.624c-.902.011-1.584.185-1.584.696,0,.501.613.761,1.306.761a4.01231,4.01231,0,0,0,1.584-.369l.208.891a4.54505,4.54505,0,0,1-2.138.479c-1.191,0-2.474-.424-2.474-1.62a1.436,1.436,0,0,1,1.306-1.305Z"/>
  <path class="cls-5" d="M165.21471,60.5264l.902,2.686c.162.468.266.892.404,1.349h.047a9.12336,9.12336,0,0,0,1.179-3.578v-.457h1.329a2.19742,2.19742,0,0,1,.035.402c0,1.502-1.018,3.274-2.046,4.895h-1.376l-2-5.297Z"/>
  <path class="cls-5" d="M171.051,62.9736c-.67-.174-1.04-.587-1.04-1.109,0-.718.763-1.458,2.37-1.458a3.52255,3.52255,0,0,1,1.803.403l-.266.859a3.17964,3.17964,0,0,0-1.364-.316c-.682,0-1.11.262-1.11.631,0,.424.567.598,1.41.609h.613v.892h-.624c-.902.011-1.584.185-1.584.696,0,.501.613.761,1.306.761a4.0124,4.0124,0,0,0,1.584-.369l.208.891a4.54505,4.54505,0,0,1-2.138.479c-1.191,0-2.474-.424-2.474-1.62a1.436,1.436,0,0,1,1.306-1.305Z"/>
  <path class="cls-5" d="M176.7372,63.72372a1.70391,1.70391,0,0,0,.034.348,1.31443,1.31443,0,0,0,1.249.838c.902,0,1.422-.751,1.422-1.751,0-.936-.497-1.653-1.341-1.653-.717,0-1.364.587-1.364,1.805Zm0,1.588v.75a13.57293,13.57293,0,0,0,.081,1.914h-1.376a9.294,9.294,0,0,1-.127-1.892v-2.425a2.99694,2.99694,0,0,1,.959-2.556,2.79478,2.79478,0,0,1,1.919-.696,2.55592,2.55592,0,0,1,2.694,2.719,2.60885,2.60885,0,0,1-2.601,2.817,1.87,1.87,0,0,1-1.526-.631Z"/>
  <path class="cls-5" d="M183.2899,67.9761a11.38843,11.38843,0,0,0-.196-3.056,14.38329,14.38329,0,0,0-1.965-4.394h1.595a12.41438,12.41438,0,0,1,1.503,3.851h.046a8.29846,8.29846,0,0,0,1.063-3.426c0-.207-.011-.316-.011-.425h1.352a2.068,2.068,0,0,1,.023.392,9.05944,9.05944,0,0,1-1.988,4.665.42643.42643,0,0,0-.069.262c.023.532.023,1.402.034,2.131Z"/>
  <path class="cls-5" d="M188.61749,62.9736c-.67-.174-1.04-.587-1.04-1.109,0-.718.763-1.458,2.37-1.458a3.52258,3.52258,0,0,1,1.803.403l-.266.859a3.1834,3.1834,0,0,0-1.364-.316c-.682,0-1.11.262-1.11.631,0,.424.567.598,1.41.609h.613v.892h-.624c-.902.011-1.584.185-1.584.696,0,.501.613.761,1.306.761a4.01231,4.01231,0,0,0,1.584-.369l.208.891a4.54921,4.54921,0,0,1-2.139.479c-1.19,0-2.473-.424-2.473-1.62a1.436,1.436,0,0,1,1.306-1.305Z"/>
  <path class="cls-5" d="M194.3504,64.3331c0,.435.138.609.532.587l-.081.935a1.842,1.842,0,0,1-.613.087c-.763,0-1.271-.304-1.271-1.479v-3.937h1.433Z"/>
  <path class="cls-5" d="M197.0666,63.23441c0,.892.485,1.642,1.26,1.642a1.418,1.418,0,0,0,1.248-1.141,3.45941,3.45941,0,0,0,.046-.62,2.21621,2.21621,0,0,0-.035-.501,1.296,1.296,0,0,0-1.19-1.174c-.798,0-1.329.794-1.329,1.783Zm4.08-2.708c-.069.718-.162,2.349-.162,3.611,0,.598.197.805.544.794l-.093.946a1.782,1.782,0,0,1-.497.065,1.04927,1.04927,0,0,1-1.098-1.033h-.035a2.09307,2.09307,0,0,1-1.861,1.033,2.40156,2.40156,0,0,1-2.323-2.664,2.69679,2.69679,0,0,1,2.543-2.872,1.74211,1.74211,0,0,1,1.618.925h.046c.035-.326.081-.577.127-.805Z"/>
  <path class="cls-5" d="M208.00771,39.05829a10.30769,10.30769,0,1,1,10.307,10.427,10.36842,10.36842,0,0,1-10.307-10.427"/>
  <path class="cls-2" d="M217.6125,42.967V39.372l-2.694-5.028h1.771l1.024,2.213c.291.64.506,1.126.733,1.715h.026c.215-.55.455-1.088.746-1.715l1.024-2.213h1.758l-2.832,4.99v3.633Z"/>
  <path class="cls-5" d="M231.721,39.05829a10.30769,10.30769,0,1,1,10.307,10.427,10.36842,10.36842,0,0,1-10.307-10.427"/>
  <path class="cls-5" d="M208.00771,62.18118a10.3077,10.3077,0,1,1,10.307,10.428,10.3684,10.3684,0,0,1-10.307-10.428"/>
  <rect class="cls-2" x="214.38699" y="57.46701" width="1.556" height="8.62299"/>
  <polygon class="cls-2" points="222.493 62.265 219.281 62.265 219.281 64.798 222.873 64.798 222.873 66.09 217.726 66.09 217.726 57.467 222.683 57.467 222.683 58.76 219.281 58.76 219.281 60.985 222.493 60.985 222.493 62.265"/>
  <path class="cls-5" d="M231.721,62.18118a10.3077,10.3077,0,1,1,10.307,10.428,10.3684,10.3684,0,0,1-10.307-10.428"/>
  <rect class="cls-2" x="234.85699" y="34.34399" width="1.556" height="8.62299"/>
  <path class="cls-2" d="M239.89,34.344h1.556v5.591c0,2.38-1.139,3.173-2.833,3.173a4.09238,4.09238,0,0,1-1.302-.205l.189-1.267a3.36326,3.36326,0,0,0,.962.154c.884,0,1.428-.409,1.428-1.906Z"/>
  <path class="cls-2" d="M247.30058,39.33344l-.67-2.124c-.164-.524-.304-1.113-.43-1.612h-.025c-.126.499-.253,1.101-.405,1.612l-.658,2.124Zm-2.44,1.18994-.734,2.444h-1.605l2.731-8.623h1.985l2.769,8.623h-1.669l-.771-2.444Z"/>
  <rect class="cls-2" x="237.336" y="57.46802" width="1.556" height="8.62299"/>
  <path class="cls-2" d="M244.8228,62.458l-.671-2.124c-.164-.525-.304-1.114-.43-1.612h-.025c-.126.498-.253,1.1-.405,1.612l-.657,2.124Zm-2.441,1.189-.734,2.444h-1.605l2.731-8.623h1.985l2.769,8.623h-1.669l-.771-2.444Z"/>
  <polyline class="cls-2" points="26.958 112.593 270.737 112.593 270.737 111.593 26.958 111.593"/>
  <rect class="cls-1" y="0.00098" width="297.638" height="566.92902"/>
  <g id="kwAnnumGroup">
    <text id="kwhAnnum" class="cls-36" transform="translate(153.97021 390.01984)" text-anchor="middle">X</text>
    <g>
      <path class="cls-6" d="M117.49121,402.08527h.02979c.18017-.25489.42041-.57032.63037-.8252l2.14453-2.50488h1.57519l-2.79,2.98535,3.19483,4.27441h-1.61963l-2.49023-3.47949-.67481.75V406.015H116.186V395.36554h1.30517Z"/>
      <path class="cls-6" d="M124.88623,406.015l-2.56494-10.10937h1.37988l1.19971,5.11426c.30029,1.26074.57031,2.5205.75,3.49511h.03027c.165-1.00488.48-2.20507.82471-3.50976l1.3501-5.09961h1.36474l1.23,5.12988c.28516,1.19922.55518,2.39942.70508,3.46485h.03028c.21-1.11036.49462-2.23536.80957-3.49512l1.335-5.09961h1.335L131.80078,406.015H130.436l-1.27491-5.26464a30.30621,30.30621,0,0,1-.66015-3.29981h-.03028a28.07357,28.07357,0,0,1-.77978,3.29981L126.251,406.015Z"/>
      <path class="cls-6" d="M135.83594,395.36554h1.32031v4.54492h.02979a2.48418,2.48418,0,0,1,.94482-.94531,2.711,2.711,0,0,1,1.3501-.36035c.97509,0,2.53515.60058,2.53515,3.09082V406.015H140.6958V401.845c0-1.16992-.43506-2.14453-1.67969-2.14453a1.91751,1.91751,0,0,0-1.77,1.30469,1.683,1.683,0,0,0-.08984.62988V406.015h-1.32031Z"/>
      <path class="cls-6" d="M143.021,406.59991l4.16992-10.875h1.03515l-4.20019,10.875Z"/>
    </g>
    <g>
      <path class="cls-6" d="M153.74609,404.27472a12.30706,12.30706,0,0,0,.1045,1.74023H152.666l-.1045-.915h-.04589A2.7015,2.7015,0,0,1,150.2959,406.18a2.06838,2.06838,0,0,1-2.21973-2.085c0-1.75488,1.55957-2.71484,4.36524-2.70019v-.14942a1.48646,1.48646,0,0,0-1.65039-1.665,3.50213,3.50213,0,0,0-1.90479.54l-.2998-.88476a4.70094,4.70094,0,0,1,2.3999-.63086c2.21972,0,2.75976,1.51562,2.75976,2.95508Zm-1.27539-1.96484c-1.43945-.0293-3.07422.22558-3.07422,1.63476a1.15659,1.15659,0,0,0,1.2295,1.26074,1.83309,1.83309,0,0,0,1.78515-1.21582,1.48745,1.48745,0,0,0,.05957-.41992Z"/>
      <path class="cls-6" d="M155.68066,400.72c0-.76465-.01464-1.36523-.05957-1.96484H156.791l.07519,1.20019h.0293a2.69036,2.69036,0,0,1,2.40039-1.35058c1.00488,0,2.56445.60058,2.56445,3.09082V406.015H160.541v-4.18457c0-1.16992-.43555-2.1455-1.68067-2.1455a1.93571,1.93571,0,0,0-1.85937,1.96484V406.015h-1.32032Z"/>
      <path class="cls-6" d="M163.82617,400.72c0-.76465-.01465-1.36523-.05957-1.96484h1.16992l.0752,1.20019h.0293a2.69036,2.69036,0,0,1,2.40039-1.35058c1.00488,0,2.56445.60058,2.56445,3.09082V406.015h-1.31934v-4.18457c0-1.16992-.43554-2.1455-1.68066-2.1455a1.93575,1.93575,0,0,0-1.85938,1.96484V406.015h-1.32031Z"/>
      <path class="cls-6" d="M178.03125,404.01984c0,.76562.01465,1.4248.05957,1.99511H176.9209l-.0752-1.18457h-.02929A2.71222,2.71222,0,0,1,174.416,406.18c-1.13965,0-2.50489-.64453-2.50489-3.17968v-4.24512h1.32032v4.00488c0,1.37988.43457,2.3252,1.62011,2.3252a1.89732,1.89732,0,0,0,1.73926-1.21485,1.80939,1.80939,0,0,0,.12012-.67578v-4.43945h1.32031Z"/>
    </g>
    <path class="cls-6" d="M180.07129,400.72c0-.76465-.0293-1.36523-.05957-1.96484h1.1543l.06054,1.18457h.04492a2.51078,2.51078,0,0,1,2.29493-1.335,2.14274,2.14274,0,0,1,2.04,1.45508h.03027a2.85472,2.85472,0,0,1,.82422-.94434,2.43618,2.43618,0,0,1,1.58984-.51074c.97559,0,2.40039.63086,2.40039,3.15039V406.015h-1.29v-4.09472c0-1.41016-.52539-2.23535-1.57519-2.23535a1.73352,1.73352,0,0,0-1.57422,1.18554,2.23149,2.23149,0,0,0-.10547.66016V406.015h-1.29v-4.34961c0-1.15527-.50976-1.98046-1.51465-1.98046a1.81865,1.81865,0,0,0-1.63476,1.32031,1.75819,1.75819,0,0,0-.10547.64453V406.015h-1.29Z"/>
  </g>
  <g id="gjAnnumGroup">
    <text id="gjAnnum" class="cls-36" transform="translate(231.54004 390.01984)" text-anchor="middle">X</text>
    <g>
      <path class="cls-6" d="M208.24121,405.56476a9.12262,9.12262,0,0,1-3.12012.55566,4.74829,4.74829,0,0,1-5.18945-5.10058c0-3.01465,2.085-5.21973,5.47461-5.21973a6.34242,6.34242,0,0,1,2.53516.46484l-.33008,1.06543a5.02278,5.02278,0,0,0-2.23535-.43554,3.781,3.781,0,0,0-4.06446,4.06543c0,2.56445,1.53028,4.08007,3.89942,4.08007a4.2458,4.2458,0,0,0,1.74023-.2705v-3.01465h-2.04v-1.04981h3.33008Z"/>
      <path class="cls-6" d="M212.33691,395.90558h1.31934v6.76465c0,2.68457-1.31934,3.50976-3.05957,3.50976a4.09694,4.09694,0,0,1-1.39551-.24023l.18067-1.06445a3.1474,3.1474,0,0,0,1.10937.19433c1.16992,0,1.8457-.52441,1.8457-2.50488Z"/>
    </g>
    <g>
      <path class="cls-6" d="M214.21191,406.59991l4.16993-10.875H219.416l-4.19922,10.875Z"/>
      <path class="cls-6" d="M224.96582,404.27472a12.153,12.153,0,0,0,.10547,1.74023h-1.18457l-.10547-.915h-.04492A2.70291,2.70291,0,0,1,221.5166,406.18a2.06838,2.06838,0,0,1-2.21972-2.085c0-1.75488,1.55957-2.71484,4.36425-2.70019v-.14942a1.48616,1.48616,0,0,0-1.64941-1.665,3.50016,3.50016,0,0,0-1.90527.54l-.29981-.88476a4.69776,4.69776,0,0,1,2.39941-.63086c2.21973,0,2.75977,1.51562,2.75977,2.95508Zm-1.27441-1.96484c-1.44043-.0293-3.0752.22558-3.0752,1.63476a1.1573,1.1573,0,0,0,1.23047,1.26074,1.83177,1.83177,0,0,0,1.78418-1.21582,1.45659,1.45659,0,0,0,.06055-.41992Z"/>
    </g>
    <g>
      <path class="cls-6" d="M226.916,400.72c0-.76465-.01465-1.36523-.05957-1.96484h1.16992l.07519,1.20019h.0293a2.69036,2.69036,0,0,1,2.40039-1.35058c1.00488,0,2.56445.60058,2.56445,3.09082V406.015h-1.31933v-4.18457c0-1.16992-.43555-2.1455-1.68067-2.1455a1.93571,1.93571,0,0,0-1.85937,1.96484V406.015H226.916Z"/>
      <path class="cls-6" d="M235.06055,400.72c0-.76465-.01465-1.36523-.05957-1.96484h1.16992l.07519,1.20019h.0293a2.69037,2.69037,0,0,1,2.40039-1.35058c1.00488,0,2.56445.60058,2.56445,3.09082V406.015H239.9209v-4.18457c0-1.16992-.43555-2.1455-1.68067-2.1455a1.93571,1.93571,0,0,0-1.85937,1.96484V406.015h-1.32031Z"/>
      <path class="cls-6" d="M249.2959,404.01984c0,.76562.01465,1.4248.05957,1.99511h-1.16992l-.0752-1.18457h-.0293a2.7122,2.7122,0,0,1-2.40039,1.34961c-1.13964,0-2.50488-.64453-2.50488-3.17968v-4.24512h1.32031v4.00488c0,1.37988.43457,2.3252,1.62012,2.3252a1.89732,1.89732,0,0,0,1.73926-1.21485,1.80959,1.80959,0,0,0,.12012-.67578v-4.43945h1.32031Z"/>
      <path class="cls-6" d="M251.32031,400.72c0-.76465-.02929-1.36523-.05957-1.96484h1.1543l.06055,1.18457h.04492a2.51076,2.51076,0,0,1,2.29492-1.335,2.14274,2.14274,0,0,1,2.04,1.45508h.03027a2.85483,2.85483,0,0,1,.82422-.94434,2.43619,2.43619,0,0,1,1.58984-.51074c.97559,0,2.4004.63086,2.4004,3.15039V406.015h-1.29v-4.09472c0-1.41016-.52539-2.23535-1.5752-2.23535a1.73352,1.73352,0,0,0-1.57422,1.18554,2.23182,2.23182,0,0,0-.10547.66016V406.015h-1.29v-4.34961c0-1.15527-.50976-1.98046-1.51464-1.98046a1.81866,1.81866,0,0,0-1.63477,1.32031,1.7584,1.7584,0,0,0-.10547.64453V406.015h-1.29Z"/>
    </g>
  </g>
  <text class="cls-7" transform="translate(34.15381 109.38214)"><tspan class="cls-8" xml:space="preserve">                </tspan><tspan x="54.73438" y="0"> </tspan></text>
  <g id="offPeakMode">
    <path class="cls-2" d="M35.2143,443.947v-1a10.79812,10.79812,0,0,0-4.399,1.094,7.93219,7.93219,0,0,0-3.102,2.686,9.03982,9.03982,0,0,0-1.403,5.124v69.058a10.77579,10.77579,0,0,0,1.094,4.399,7.92408,7.92408,0,0,0,2.686,3.102,9.0297,9.0297,0,0,0,5.124,1.403h53.465a10.76812,10.76812,0,0,0,4.399-1.093,7.949,7.949,0,0,0,3.102-2.687,9.03516,9.03516,0,0,0,1.403-5.124V451.851a10.79828,10.79828,0,0,0-1.094-4.399,7.946,7.946,0,0,0-2.686-3.102,9.03989,9.03989,0,0,0-5.124-1.403H35.2143v2h53.465a7.04024,7.04024,0,0,1,4.014,1.067,6.48377,6.48377,0,0,1,2.515,3.624,9.24069,9.24069,0,0,1,.329,1.599c.024.202.035.364.041.471l.004.118.001.025v69.058a7.04374,7.04374,0,0,1-1.067,4.015,6.48867,6.48867,0,0,1-3.624,2.515,9.452,9.452,0,0,1-1.599.329c-.202.023-.364.035-.471.04l-.118.005h-53.49a7.03593,7.03593,0,0,1-4.015-1.067,6.47966,6.47966,0,0,1-2.514-3.623,9.38965,9.38965,0,0,1-.33-1.599c-.023-.203-.034-.364-.04-.471l-.005-.118V451.851a7.03231,7.03231,0,0,1,1.067-4.014,6.48052,6.48052,0,0,1,3.624-2.515,9.2489,9.2489,0,0,1,1.598-.329c.203-.024.364-.035.471-.041l.118-.004.025-.001h.001Z"/>
    <path class="cls-9" d="M60.0051,493.722a3.43832,3.43832,0,0,1-.837-.103l2.126-15.303-13.634-7.02c2.744-4.06,8.52-8.408,13.793-8.438h.122a15.31528,15.31528,0,0,1,15.248,15.315c0,8.459-6.024,15.316-14.485,15.316-.945,0-1.583.233-2.333.233"/>
    <path class="cls-10" d="M61.3646,492.617a14.475,14.475,0,1,0-11.976-22.613l-1.388-.946a16.15763,16.15763,0,1,1,13.364,25.24Z"/>
    <polyline class="cls-10" points="62.049 465.511 62.049 478.346 60.369 478.346 60.369 465.511"/>
    <polyline class="cls-10" points="52.069 472.621 61.678 477.569 60.909 479.063 51.3 474.115"/>
    <path class="cls-10" d="M61.2925,479.365a1.191,1.191,0,1,0-1.192-1.192,1.19305,1.19305,0,0,0,1.192,1.192"/>
    <polyline class="cls-10" points="49.274 498.808 58.908 508.799 57.703 509.961 48.069 499.97"/>
    <polygon class="cls-10" points="59.056 504.55 59.421 510.545 53.487 509.913 53.664 508.247 57.63 508.67 57.385 504.652 59.056 504.55"/>
    <path class="cls-10" d="M49.3884,470.004a14.57943,14.57943,0,0,0-1.051,1.814l-1.511-.735a16.1427,16.1427,0,0,1,1.174-2.025Zm-1.828,3.761a14.25981,14.25981,0,0,0-.486,2.04l-1.658-.269a15.943,15.943,0,0,1,.542-2.278Zm-.671,4.129-.002.247a14.62342,14.62342,0,0,0,.116,1.848l-1.667.212a16.47551,16.47551,0,0,1-.13-2.06c0-.092.001-.184.003-.275Zm.529,4.149a14.46346,14.46346,0,0,0,.71,1.973l-1.535.683a16.08521,16.08521,0,0,1-.793-2.204Zm1.7,3.823a14.31235,14.31235,0,0,0,1.246,1.687l-1.276,1.093a16.353,16.353,0,0,1-1.391-1.882Zm2.721,3.178a14.49447,14.49447,0,0,0,1.674,1.262l-.912,1.411a16.13312,16.13312,0,0,1-1.868-1.408Zm3.512,2.27a14.3292,14.3292,0,0,0,1.964.73l-.469,1.613a16.0433,16.0433,0,0,1-2.194-.815Zm4.014,1.167a14.632,14.632,0,0,0,1.999.136v1.681a16.23447,16.23447,0,0,1-2.229-.153Z"/>
    <path class="cls-10" d="M72.6558,507.511a19.31079,19.31079,0,0,0-6.837,0h-3.498v2.024c0,1.287,3.097,2.329,6.917,2.329s6.917-1.042,6.917-2.329v-2.024Z"/>
    <path class="cls-10" d="M72.6558,507.511l-.035.185a19.09916,19.09916,0,0,0-6.766,0l-.018.004h-3.328v1.835a1.02123,1.02123,0,0,0,.473.759c.975.787,3.42,1.387,6.256,1.382a15.78378,15.78378,0,0,0,4.831-.672,4.779,4.779,0,0,0,1.425-.71,1.02127,1.02127,0,0,0,.473-.759V507.7h-3.329l-.017-.004.035-.185v-.188h3.687v2.212a1.38946,1.38946,0,0,1-.615,1.054c-1.125.886-3.596,1.458-6.49,1.463a16.13289,16.13289,0,0,1-4.951-.692,5.14874,5.14874,0,0,1-1.54-.771,1.39108,1.39108,0,0,1-.614-1.054v-2.212h3.686v.188l-.035-.184a19.45331,19.45331,0,0,1,6.907,0l-.035.184v0Z"/>
    <path class="cls-11" d="M62.321,507.511c0,1.287,3.097,2.33,6.917,2.33s6.917-1.043,6.917-2.33c0-1.286-3.097-2.328-6.917-2.328s-6.917,1.042-6.917,2.328"/>
    <path class="cls-12" d="M62.321,507.511h.188a1.02443,1.02443,0,0,0,.473.76c.975.787,3.419,1.387,6.256,1.382a15.78627,15.78627,0,0,0,4.831-.673,4.75684,4.75684,0,0,0,1.425-.709.84627.84627,0,0,0,0-1.519c-.975-.786-3.42-1.386-6.256-1.381a15.75371,15.75371,0,0,0-4.831.672,4.80411,4.80411,0,0,0-1.425.709,1.02448,1.02448,0,0,0-.473.759h-.376a1.38771,1.38771,0,0,1,.614-1.053c1.125-.886,3.597-1.458,6.491-1.464a16.16355,16.16355,0,0,1,4.951.692,5.13,5.13,0,0,1,1.539.772,1.20983,1.20983,0,0,1,0,2.107c-1.124.886-3.596,1.459-6.49,1.464a16.12823,16.12823,0,0,1-4.951-.692,5.1488,5.1488,0,0,1-1.54-.772,1.38785,1.38785,0,0,1-.614-1.054Z"/>
    <polyline class="cls-11" points="76.031 508.122 76.031 510.139 75.806 510.139 75.806 508.122"/>
    <polyline class="cls-11" points="75.666 508.397 75.666 510.413 75.441 510.413 75.441 508.397"/>
    <polyline class="cls-11" points="75.295 508.67 75.295 510.686 75.07 510.686 75.07 508.67"/>
    <polyline class="cls-11" points="74.924 508.882 74.924 510.899 74.699 510.899 74.699 508.882"/>
    <polyline class="cls-11" points="74.544 509.078 74.544 511.095 74.319 511.095 74.319 509.078"/>
    <polyline class="cls-11" points="74.121 509.275 74.121 511.292 73.896 511.292 73.896 509.275"/>
    <path class="cls-10" d="M74.3787,504.941a19.24806,19.24806,0,0,0-6.837,0h-3.498v2.023c0,1.287,3.097,2.329,6.917,2.329s6.917-1.042,6.917-2.329v-2.023Z"/>
    <path class="cls-10" d="M74.3787,504.941l-.036.184a19.09356,19.09356,0,0,0-6.765,0l-.018.004h-3.328v1.835a1.02125,1.02125,0,0,0,.473.759c.975.787,3.42,1.387,6.256,1.382a15.78375,15.78375,0,0,0,4.831-.672,4.77949,4.77949,0,0,0,1.425-.71,1.02131,1.02131,0,0,0,.473-.759v-1.835h-3.329l-.018-.004.036-.184v-.189h3.687v2.212a1.38946,1.38946,0,0,1-.615,1.054c-1.124.886-3.596,1.458-6.49,1.463a16.12848,16.12848,0,0,1-4.951-.692,5.13,5.13,0,0,1-1.539-.771,1.38943,1.38943,0,0,1-.615-1.054v-2.212h3.686v.189l-.035-.185a19.45269,19.45269,0,0,1,6.907,0l-.035.185v0Z"/>
    <path class="cls-11" d="M64.044,504.941c0,1.286,3.097,2.329,6.916,2.329,3.821,0,6.918-1.043,6.918-2.329,0-1.287-3.097-2.329-6.918-2.329-3.819,0-6.916,1.042-6.916,2.329"/>
    <path class="cls-12" d="M64.044,504.941h.188a1.02454,1.02454,0,0,0,.473.759c.975.787,3.419,1.387,6.255,1.382a15.78851,15.78851,0,0,0,4.832-.673,4.75684,4.75684,0,0,0,1.425-.709.84628.84628,0,0,0,0-1.519c-.975-.786-3.42-1.387-6.257-1.381a15.75088,15.75088,0,0,0-4.83.672,4.7917,4.7917,0,0,0-1.425.709,1.02447,1.02447,0,0,0-.473.76h-.376a1.38783,1.38783,0,0,1,.614-1.054c1.125-.886,3.597-1.458,6.49-1.464a16.16565,16.16565,0,0,1,4.952.692,5.14213,5.14213,0,0,1,1.539.772,1.20984,1.20984,0,0,1,0,2.107c-1.125.886-3.597,1.459-6.491,1.464a16.12135,16.12135,0,0,1-4.95-.692,5.14887,5.14887,0,0,1-1.54-.772,1.38773,1.38773,0,0,1-.614-1.053Z"/>
    <polyline class="cls-11" points="77.754 505.552 77.754 507.568 77.529 507.568 77.529 505.552"/>
    <polyline class="cls-11" points="77.389 505.826 77.389 507.842 77.164 507.842 77.164 505.826"/>
    <polyline class="cls-11" points="77.018 506.099 77.018 508.115 76.793 508.115 76.793 506.099"/>
    <polyline class="cls-11" points="76.647 506.311 76.647 508.328 76.422 508.328 76.422 506.311"/>
    <polyline class="cls-11" points="76.267 506.507 76.267 508.523 76.042 508.523 76.042 506.507"/>
    <polyline class="cls-11" points="75.844 506.704 75.844 508.721 75.619 508.721 75.619 506.704"/>
    <path class="cls-10" d="M73.1086,502.565a19.31079,19.31079,0,0,0-6.837,0h-3.498v2.023c0,1.287,3.097,2.329,6.917,2.329s6.916-1.042,6.916-2.329v-2.023Z"/>
    <path class="cls-10" d="M73.1086,502.565l-.036.185a19.09356,19.09356,0,0,0-6.765,0l-.018.003h-3.328v1.835a1.02574,1.02574,0,0,0,.472.76c.976.786,3.42,1.386,6.257,1.381a15.78886,15.78886,0,0,0,4.831-.672,4.804,4.804,0,0,0,1.425-.709,1.02574,1.02574,0,0,0,.472-.76v-1.835h-3.328l-.018-.003.036-.185v-.188h3.687v2.211a1.38625,1.38625,0,0,1-.615,1.054c-1.125.886-3.597,1.458-6.49,1.463a16.12619,16.12619,0,0,1-4.951-.691,5.13652,5.13652,0,0,1-1.54-.772,1.385,1.385,0,0,1-.614-1.054v-2.211h3.686v.188l-.035-.185a19.45884,19.45884,0,0,1,6.908,0l-.036.185v0Z"/>
    <path class="cls-11" d="M62.7734,502.565c0,1.286,3.097,2.329,6.917,2.329s6.917-1.043,6.917-2.329-3.097-2.329-6.917-2.329-6.917,1.043-6.917,2.329"/>
    <path class="cls-12" d="M62.7734,502.565h.188a1.02441,1.02441,0,0,0,.473.76c.975.786,3.42,1.387,6.256,1.381a15.75372,15.75372,0,0,0,4.831-.672,4.80418,4.80418,0,0,0,1.425-.709.84627.84627,0,0,0,0-1.519c-.975-.787-3.42-1.387-6.256-1.382a15.78413,15.78413,0,0,0-4.831.672,4.77941,4.77941,0,0,0-1.425.71,1.02127,1.02127,0,0,0-.473.759h-.376a1.39108,1.39108,0,0,1,.614-1.054c1.125-.885,3.597-1.458,6.491-1.463a16.12824,16.12824,0,0,1,4.951.692,5.1255,5.1255,0,0,1,1.54.771,1.21166,1.21166,0,0,1,0,2.108c-1.125.886-3.597,1.458-6.491,1.464a16.12551,16.12551,0,0,1-4.951-.693,5.12538,5.12538,0,0,1-1.54-.771,1.38948,1.38948,0,0,1-.614-1.054h.188"/>
    <polyline class="cls-11" points="76.484 503.176 76.484 505.192 76.259 505.192 76.259 503.176"/>
    <polyline class="cls-11" points="76.118 503.45 76.118 505.466 75.893 505.466 75.893 503.45"/>
    <polyline class="cls-11" points="75.747 503.724 75.747 505.74 75.522 505.74 75.522 503.724"/>
    <polyline class="cls-11" points="75.376 503.936 75.376 505.953 75.151 505.953 75.151 503.936"/>
    <polyline class="cls-11" points="74.996 504.131 74.996 506.148 74.771 506.148 74.771 504.131"/>
    <polyline class="cls-11" points="74.573 504.329 74.573 506.345 74.348 506.345 74.348 504.329"/>
    <path class="cls-10" d="M72.3617,499.79689a19.248,19.248,0,0,0-6.837,0h-3.498v2.023c0,1.287,3.096,2.33,6.917,2.33,3.82,0,6.916-1.043,6.916-2.33v-2.023h-3.498"/>
    <path class="cls-10" d="M72.3617,499.79689l-.036.185a19.03092,19.03092,0,0,0-6.765,0l-.018.003h-3.328v1.835a1.02576,1.02576,0,0,0,.472.76c.975.786,3.42,1.387,6.257,1.381a15.74655,15.74655,0,0,0,4.83-.672,4.77521,4.77521,0,0,0,1.426-.709,1.02576,1.02576,0,0,0,.472-.76v-1.835h-3.328l-.018-.003.036-.185v-.188h3.686v2.211a1.38786,1.38786,0,0,1-.614,1.054c-1.125.886-3.597,1.459-6.49,1.464a16.1657,16.1657,0,0,1-4.952-.692,5.14206,5.14206,0,0,1-1.539-.772,1.38207,1.38207,0,0,1-.614-1.054v-2.211h3.686v.188l-.035-.185a19.45889,19.45889,0,0,1,6.908,0l-.036.185v0"/>
    <path class="cls-11" d="M62.0265,499.79689c0,1.287,3.097,2.329,6.917,2.329s6.917-1.042,6.917-2.329c0-1.286-3.097-2.329-6.917-2.329s-6.917,1.043-6.917,2.329"/>
    <path class="cls-12" d="M62.0265,499.79689h.188a1.02439,1.02439,0,0,0,.473.76c.975.786,3.419,1.386,6.256,1.381a15.7842,15.7842,0,0,0,4.831-.672,4.80387,4.80387,0,0,0,1.425-.709.84626.84626,0,0,0,0-1.519c-.975-.787-3.42-1.387-6.256-1.382a15.81462,15.81462,0,0,0-4.831.672,4.76681,4.76681,0,0,0-1.425.71,1.02125,1.02125,0,0,0-.473.759h-.376a1.39107,1.39107,0,0,1,.614-1.054c1.125-.885,3.597-1.458,6.491-1.463a16.13293,16.13293,0,0,1,4.951.692,5.14187,5.14187,0,0,1,1.539.771,1.21067,1.21067,0,0,1,0,2.108c-1.125.886-3.596,1.458-6.49,1.463a16.09769,16.09769,0,0,1-4.951-.692,5.12538,5.12538,0,0,1-1.54-.771,1.38946,1.38946,0,0,1-.614-1.054h.188"/>
    <path class="cls-13" d="M73.3634,501.178a.22207.22207,0,0,1-.056-.437s.106-.028.271-.082a4.70247,4.70247,0,0,0,.913-.405,1.51931,1.51931,0,0,0,.354-.285.39843.39843,0,0,0,.115-.256v-.014c.008-.06-.1-.22-.349-.372a6.02378,6.02378,0,0,0-1.479-.59,6.42,6.42,0,0,0-1.124-.229h-.005a.22188.22188,0,0,1-.222-.214v-.016a.22187.22187,0,0,1,.222-.214,4.05351,4.05351,0,0,1,.725.114,9.298,9.298,0,0,1,1.636.52,3.087,3.087,0,0,1,.688.398.83824.83824,0,0,1,.352.581v.058a.94306.94306,0,0,1-.358.661,4.71541,4.71541,0,0,1-1.627.775.21011.21011,0,0,1-.056.007"/>
    <polyline class="cls-11" points="75.737 500.408 75.737 502.424 75.512 502.424 75.512 500.408"/>
    <polyline class="cls-11" points="75.371 500.682 75.371 502.698 75.146 502.698 75.146 500.682"/>
    <polyline class="cls-11" points="75 500.956 75 502.972 74.775 502.972 74.775 500.956"/>
    <polyline class="cls-11" points="74.629 501.168 74.629 503.185 74.404 503.185 74.404 501.168"/>
    <polyline class="cls-11" points="74.249 501.364 74.249 503.38 74.024 503.38 74.024 501.364"/>
    <polyline class="cls-11" points="73.826 501.561 73.826 503.577 73.601 503.577 73.601 501.561"/>
  </g>
  <path class="cls-2" d="M36.6037,348.433v-1a13.31461,13.31461,0,0,0-5.408,1.346,9.71382,9.71382,0,0,0-3.795,3.285,11.08554,11.08554,0,0,0-1.718,6.291v65.023a13.27817,13.27817,0,0,0,1.345,5.408,9.70206,9.70206,0,0,0,3.286,3.795,11.0798,11.0798,0,0,0,6.29,1.718h49.43a13.27809,13.27809,0,0,0,5.408-1.345,9.70717,9.70717,0,0,0,3.795-3.285,11.09334,11.09334,0,0,0,1.719-6.291V358.355a13.30817,13.30817,0,0,0-1.346-5.408,9.70711,9.70711,0,0,0-3.285-3.795,11.09329,11.09329,0,0,0-6.291-1.719h-49.43v2h49.43a9.0856,9.0856,0,0,1,5.181,1.383,8.38764,8.38764,0,0,1,3.26,4.687,12.08269,12.08269,0,0,1,.422,2.051c.03.26.044.468.052.607l.006.155v.035l.001.004v65.023a9.08561,9.08561,0,0,1-1.383,5.181,8.38079,8.38079,0,0,1-4.687,3.259,12.00232,12.00232,0,0,1-2.051.423c-.26.03-.468.044-.607.052l-.155.006H36.6037a9.07819,9.07819,0,0,1-5.181-1.382,8.38572,8.38572,0,0,1-3.259-4.687,11.88915,11.88915,0,0,1-.422-2.051c-.03-.26-.045-.468-.052-.607l-.007-.155V358.355a9.08588,9.08588,0,0,1,1.382-5.181,8.391,8.391,0,0,1,4.687-3.26,12.10393,12.10393,0,0,1,2.051-.422c.26-.03.468-.045.607-.052l.155-.006.035-.001h.004Z"/>
  <rect class="cls-1" y="0.00098" width="297.638" height="566.92902"/>
  <g class="cls-14">
    <polygon class="cls-15" points="43.451 396.418 43.451 400.99 77.63 400.99 77.63 377.367 60.54 361.795 43.451 377.367 43.451 396.418"/>
  </g>
  <g class="cls-16">
    <path class="cls-17" d="M52.0137,390.482q-1.413-1.26-2.823-2.518h-2.014v-4.023h2.014q1.41-1.2585,2.823-2.518l1.168-1.04v11.141Z"/>
    <path class="cls-18" d="M51.657,389.602q-1.1385-1.01549-2.274-2.029H47.761v-3.241h1.622q1.1355-1.0125,2.274-2.028l.941-.838v8.974Z"/>
    <path class="cls-19" d="M51.657,389.602q-1.1385-1.01549-2.274-2.029H47.761v-3.241h1.622q1.1355-1.0125,2.274-2.028l.941-.838v8.974Z"/>
    <path class="cls-20" d="M55.4007,381.16a7.51615,7.51615,0,0,1,.063,9.532m3.311-12.437a13.32391,13.32391,0,0,1,.044,15.368m3.458-18.298a19.36812,19.36812,0,0,1,.035,21.256"/>
  </g>
  <text class="cls-21" transform="translate(61.81006 418.71808)"> </text>
  <g>
    <path class="cls-6" d="M69.72021,418.58038a.134.134,0,0,1-.01708.06836.11031.11031,0,0,1-.0586.0459.47164.47164,0,0,1-.10986.02734,1.14891,1.14891,0,0,1-.166.00977,1.19,1.19,0,0,1-.1709-.00977.51711.51711,0,0,1-.1123-.02734.12594.12594,0,0,1-.06348-.0459.1184.1184,0,0,1-.01953-.06836v-.58105a2.95169,2.95169,0,0,1-.72021.58594,1.64387,1.64387,0,0,1-.81787.21,1.68263,1.68263,0,0,1-.8252-.18848,1.54312,1.54312,0,0,1-.5542-.50781,2.22283,2.22283,0,0,1-.31006-.752,4.118,4.118,0,0,1-.09765-.91015,3.95847,3.95847,0,0,1,.12207-1.02344,2.28324,2.28324,0,0,1,.36132-.77832,1.61227,1.61227,0,0,1,.59327-.49512,1.829,1.829,0,0,1,.81787-.17382,1.50183,1.50183,0,0,1,.70556.168,2.53459,2.53459,0,0,1,.63233.4961v-2.55371a.13632.13632,0,0,1,.01709-.06543.10774.10774,0,0,1,.06592-.04883.69124.69124,0,0,1,.12451-.0293,1.16391,1.16391,0,0,1,.19287-.01269,1.24974,1.24974,0,0,1,.20019.01269.56583.56583,0,0,1,.12207.0293.13219.13219,0,0,1,.06592.04883.11207.11207,0,0,1,.022.06543Zm-.81054-3.09082a3.13869,3.13869,0,0,0-.63233-.61718,1.09389,1.09389,0,0,0-.6372-.2129.90491.90491,0,0,0-.52246.14649,1.12751,1.12751,0,0,0-.34913.38574,1.83845,1.83845,0,0,0-.19531.542,3.12214,3.12214,0,0,0-.061.61524,4.066,4.066,0,0,0,.05127.64941,1.87526,1.87526,0,0,0,.17822.56348,1.07979,1.07979,0,0,0,.33691.39648.89422.89422,0,0,0,.52735.14844,1.08929,1.08929,0,0,0,.31006-.04394,1.15758,1.15758,0,0,0,.30517-.14649,2.3134,2.3134,0,0,0,.32715-.2666,4.02972,4.02972,0,0,0,.36133-.40234Z"/>
    <path class="cls-6" d="M75.46729,416.89093a1.91134,1.91134,0,0,1-.07569.5498,1.62619,1.62619,0,0,1-.2124.45118,1.56433,1.56433,0,0,1-.32959.35156,1.91254,1.91254,0,0,1-.43457.25391,2.54031,2.54031,0,0,1-.51758.15429,3.58033,3.58033,0,0,1-.63232.05078H71.61475a.34565.34565,0,0,1-.21241-.07617.31152.31152,0,0,1-.10009-.26562v-5.63477a.31152.31152,0,0,1,.10009-.26562.3456.3456,0,0,1,.21241-.07618h1.43554a3.34089,3.34089,0,0,1,.92774.10743,1.638,1.638,0,0,1,.603.3125,1.29587,1.29587,0,0,1,.36377.50293,1.75765,1.75765,0,0,1,.12207.67382,1.69823,1.69823,0,0,1-.05371.42969,1.41288,1.41288,0,0,1-.15869.37793,1.266,1.266,0,0,1-.26367.31055,1.406,1.406,0,0,1-.36377.22461,1.53092,1.53092,0,0,1,.4834.17773,1.47329,1.47329,0,0,1,.39307.33008,1.53962,1.53962,0,0,1,.26611.46875A1.72,1.72,0,0,1,75.46729,416.89093Zm-1.26465-2.82715a1.27257,1.27257,0,0,0-.06348-.415.76671.76671,0,0,0-.19971-.31543.90089.90089,0,0,0-.35547-.19726,1.99015,1.99015,0,0,0-.57959-.06836h-.86718v2.0459h.95459a1.3642,1.3642,0,0,0,.52636-.085.94521.94521,0,0,0,.33106-.23047.88537.88537,0,0,0,.19238-.33594A1.32084,1.32084,0,0,0,74.20264,414.06378Zm.38086,2.876a1.28207,1.28207,0,0,0-.09034-.498.93835.93835,0,0,0-.26318-.36133,1.15174,1.15174,0,0,0-.43359-.22168,2.378,2.378,0,0,0-.65528-.07617h-1.0039v2.22656h1.21826a1.64628,1.64628,0,0,0,.502-.06836,1.1254,1.1254,0,0,0,.37744-.20312.921.921,0,0,0,.25586-.334A1.09115,1.09115,0,0,0,74.5835,416.93976Z"/>
  </g>
  <g class="cls-22">
    <polygon class="cls-23" points="11.907 220.927 11.907 240.445 122.938 240.445 132.604 230.686 122.938 220.927 11.907 220.927"/>
    <polygon class="cls-24" points="11.907 198.599 11.907 218.117 111.68 218.117 121.346 208.358 111.68 198.599 11.907 198.599"/>
    <polygon class="cls-25" points="11.907 176.272 11.907 195.789 100.426 195.789 110.091 186.031 100.426 176.272 11.907 176.272"/>
    <polygon class="cls-4" points="11.907 243.256 11.907 262.773 134.454 262.773 144.133 253.015 134.454 243.256 11.907 243.256"/>
    <polygon class="cls-26" points="11.907 265.583 11.907 285.102 145.702 285.102 155.384 275.343 145.702 265.583 11.907 265.583"/>
    <polygon class="cls-27" points="11.907 287.911 11.907 307.427 156.952 307.427 166.637 297.668 156.952 287.911 11.907 287.911"/>
    <polygon class="cls-28" points="11.907 310.236 11.907 329.752 168.201 329.752 177.888 319.996 168.201 310.236 11.907 310.236"/>
  </g>
  <text class="cls-29" transform="translate(33.34912 192.16144)"> </text>
  <text class="cls-29" transform="translate(36.96533 190.16144)">A</text>
  <text class="cls-30" transform="translate(46.66162 184.83527)">+</text>
  <text class="cls-29" transform="translate(33.34912 214.66144)"> </text>
  <text class="cls-29" transform="translate(36.96533 212.66144)">A</text>
  <text class="cls-29" transform="translate(33.34912 237.15753)"> </text>
  <text class="cls-29" transform="translate(36.96533 235.15753)">B</text>
  <text class="cls-29" transform="translate(33.34912 257.65363)"> </text>
  <text class="cls-29" transform="translate(36.96484 257.65363)">C</text>
  <text class="cls-29" transform="translate(33.34912 280.14923)"> </text>
  <text class="cls-29" transform="translate(36.96484 280.14923)">D</text>
  <text class="cls-29" transform="translate(33.34912 302.64581)"> </text>
  <text class="cls-29" transform="translate(36.96484 302.64581)">E</text>
  <text class="cls-29" transform="translate(33.34912 325.14093)"> </text>
  <text class="cls-29" transform="translate(36.96484 325.14093)">F</text>
  <g class="cls-16">
    <rect class="cls-31" x="31.26284" y="121.37748" width="10.86012" height="1.35351" transform="translate(-0.54094 0.16393) rotate(-0.2541)"/>
    <path class="cls-32" d="M32.9887,122.054a1.79458,1.79458,0,0,0-1.781-1.81,1.77577,1.77577,0,0,0-1.781,1.81,1.79389,1.79389,0,0,0,1.781,1.81,1.81345,1.81345,0,0,0,1.781-1.81"/>
    <path class="cls-32" d="M43.9593,122.054a1.79458,1.79458,0,0,0-1.781-1.81,1.77577,1.77577,0,0,0-1.781,1.81,1.79389,1.79389,0,0,0,1.781,1.81,1.81345,1.81345,0,0,0,1.781-1.81"/>
    <path class="cls-32" d="M38.9426,122.054a2.25453,2.25453,0,0,0-2.268-2.267,2.224,2.224,0,0,0-2.23,2.267,2.24716,2.24716,0,0,0,2.23,2.267,2.27823,2.27823,0,0,0,2.268-2.267"/>
    <path class="cls-31" d="M38.9416,122.054a2.25493,2.25493,0,0,0-2.267-2.267,2.22484,2.22484,0,0,0-2.231,2.267,2.248,2.248,0,0,0,2.231,2.267,2.27867,2.27867,0,0,0,2.267-2.267"/>
    <rect class="cls-31" x="35.907" y="122.09" width="1.571" height="5.814"/>
    <path class="cls-32" d="M41.5025,131.211a4.81427,4.81427,0,1,0-4.826,5.017,4.90766,4.90766,0,0,0,4.826-5.017"/>
    <path class="cls-32" d="M40.561,134.158s2.597.352,2.597,1.316v3.255h4.254l-.012-3.913c-.362-4.115-2.407-4.773-6.034-5.924l-1.121-.323.024.506-13.311-.074v5.047l13.603-.11v.22"/>
  </g>
  <text class="cls-33" transform="translate(26.88818 541.5462)">2017</text>
  <text class="cls-33" transform="translate(231.51855 541.5462)">812/2013</text>
  <g id="rating">
    <polyline id="ratingArrow" class="cls-6" points="208.26 186.04 224.9 169.23 270.94 169.23 270.94 203.13 225.21 203.13 208.26 186.04"/>
    <text id="ratingLetter" class="cls-34" transform="translate(219.26953 193.28009)">A</text>
    <text id="ratingPlusses" class="cls-35" transform="translate(235.23047 186.03986)">+</text>
  </g>

  <text id="declaredLoadProfile" class="cls-37" transform="translate(50.50977 144.17023)">X</text>

  <text id="db" class="cls-21" transform="translate(46.6001 418.71027)">X</text>
  <text id="supplierLine2" class="cls-38" transform="translate(26.75991 106.26171)">X</text>
  <text id="supplierLine1" class="cls-38" transform="translate(26.75991 95.18065)">X</text>
  <text id="modelLine2" class="cls-38" transform="translate(153.22903 106.26171)">X</text>
  <text id="modelLine1" class="cls-38" transform="translate(153.22903 95.18065)">X</text>
</svg>
