<svg id="Layer_1" data-name="Layer 1" xmlns="http://www.w3.org/2000/svg" xmlns:xlink="http://www.w3.org/1999/xlink" width="105mm" height="200mm" viewBox="0 0 297.64001 566.92999" data-rating-increment="22.5416" data-supplier-model-chars-per-row="25">
  <defs>
    <style>
      #offPeakMode {
        visibility: hidden;
      }

      #offPeakMode.hasOffPeakMode {
        visibility: visible;
      }

      #insideDbSection {
        visibility: hidden;
      }

      #insideDbSection.hasInsideDb {
        visibility: visible;
      }

      .cls-1, .cls-12, .cls-13, .cls-15, .cls-16, .cls-18, .cls-19, .cls-20, .cls-21 {
        fill: none;
      }

      .cls-2 {
        clip-path: url(#clip-path);
      }

      .cls-3 {
        fill: #00aeef;
      }

      .cls-4, .cls-57 {
        font-size: 15px;
      }

      .cls-25, .cls-28, .cls-4, .cls-48, .cls-5, .cls-55, .cls-58, .cls-59, .cls-60, .cls-61 {
        fill: #231f20;
      }

      .cls-4, .cls-44, .cls-45, .cls-48, .cls-56, .cls-58, .cls-60 {
        font-family: Calibri-Bold, Calibri;
        font-weight: 700;
      }

      .cls-48, .cls-5 {
        font-size: 10px;
      }

      .cls-25, .cls-28, .cls-5, .cls-57, .cls-59, .cls-61 {
        font-family: Calibri;
      }

      .cls-6 {
        fill: #b5e4f9;
      }

      .cls-7 {
        fill: #00c0f0;
      }

      .cls-8 {
        fill: #72d0f3;
      }

      .cls-9 {
        fill: #00c0ee;
      }

      .cls-10 {
        fill: #ddf2fd;
      }

      .cls-11 {
        clip-path: url(#clip-path-2);
      }

      .cls-12, .cls-16, .cls-18, .cls-21 {
        stroke: #00aeef;
        stroke-linecap: round;
        stroke-linejoin: round;
      }

      .cls-12 {
        stroke-width: 0.8px;
      }

      .cls-13, .cls-19 {
        stroke: #fff;
      }

      .cls-13 {
        stroke-width: 0.698px;
      }

      .cls-14 {
        fill: #2aace3;
      }

      .cls-15, .cls-20 {
        stroke: #2aace3;
      }

      .cls-15 {
        stroke-width: 0.562px;
      }

      .cls-16 {
        stroke-width: 1.421px;
      }

      .cls-17 {
        clip-path: url(#clip-path-4);
      }

      .cls-18 {
        stroke-width: 0.702px;
      }

      .cls-19 {
        stroke-width: 0.645px;
      }

      .cls-20 {
        stroke-width: 0.493px;
      }

      .cls-21 {
        stroke-width: 1.247px;
      }

      .cls-22 {
        fill: #034ea2;
      }

      .cls-23 {
        fill: #fff200;
      }

      .cls-24, .cls-44, .cls-45, .cls-56, .cls-57 {
        fill: #fff;
      }

      .cls-25 {
        font-size: 12px;
      }

      .cls-26 {
        letter-spacing: 0.059em;
      }

      .cls-27 {
        fill: #1174bb;
      }

      .cls-28 {
        font-size: 11.0929px;
      }

      .cls-29 {
        letter-spacing: -0.00497em;
      }

      .cls-30 {
        letter-spacing: -0.00401em;
      }

      .cls-31 {
        letter-spacing: -0.00493em;
      }

      .cls-32 {
        letter-spacing: -0.00599em;
      }

      .cls-33 {
        letter-spacing: 2.83904em;
      }

      .cls-34 {
        letter-spacing: -0.025em;
      }

      .cls-35 {
        fill: #bbe5f5;
      }

      .cls-36, .cls-54 {
        fill: #68bfeb;
      }

      .cls-37 {
        clip-path: url(#clip-path-10);
      }

      .cls-38 {
        fill: #bfd730;
      }

      .cls-39 {
        fill: #50b848;
      }

      .cls-40 {
        fill: #00a651;
      }

      .cls-41 {
        fill: #fdb913;
      }

      .cls-42 {
        fill: #f37021;
      }

      .cls-43 {
        fill: #ed1c24;
      }

      .cls-44, .cls-58 {
        font-size: 16px;
      }

      .cls-45 {
        font-size: 9.328px;
      }

      .cls-46, .cls-47 {
        fill: #020304;
      }

      .cls-47, .cls-50, .cls-51, .cls-52, .cls-53, .cls-54 {
        fill-rule: evenodd;
      }

      .cls-49 {
        clip-path: url(#clip-path-13);
      }

      .cls-50 {
        fill: #bde3f9;
      }

      .cls-51 {
        fill: #5ec4f0;
      }

      .cls-52 {
        fill: #2898d5;
      }

      .cls-53 {
        fill: #1c9ad6;
      }

      .cls-56 {
        font-size: 24px;
      }

      .cls-59 {
        font-size: 13.31px;
      }

      .cls-60 {
        font-size: 16.64px;
      }

      .cls-61 {
        font-size: 10.9046px;
      }
    </style>
    <clipPath id="clip-path">
      <rect class="cls-1" y="0.00098" width="297.638" height="566.92902"/>
    </clipPath>
    <clipPath id="clip-path-2">
      <rect class="cls-1" x="44.013" y="354.582" width="33.061" height="34.849"/>
    </clipPath>
    <clipPath id="clip-path-4">
      <rect class="cls-1" x="41.148" y="409.64799" width="42.075" height="30.794"/>
    </clipPath>
    <clipPath id="clip-path-10">
      <rect class="cls-1" x="26.513" y="175.11899" width="145.089" height="155.472"/>
    </clipPath>
    <clipPath id="clip-path-13">
      <rect class="cls-1" x="146.83" y="430.159" width="85.013" height="93.543"/>
    </clipPath>
  </defs>
  <title>heat-pump-water-heaters</title>
  <g class="cls-2">
    <path class="cls-3" d="M35.2143,347.806v-1a10.76837,10.76837,0,0,0-4.399,1.093,7.93219,7.93219,0,0,0-3.102,2.686,9.041,9.041,0,0,0-1.403,5.125v98.429a10.7789,10.7789,0,0,0,1.094,4.399,7.931,7.931,0,0,0,2.686,3.102,9.03752,9.03752,0,0,0,5.124,1.403h53.465a10.79787,10.79787,0,0,0,4.399-1.094,7.946,7.946,0,0,0,3.102-2.686,9.03987,9.03987,0,0,0,1.403-5.124V355.71a10.80128,10.80128,0,0,0-1.094-4.4,7.93675,7.93675,0,0,0-2.686-3.101,9.03215,9.03215,0,0,0-5.124-1.403H35.2143v2h53.465a7.02472,7.02472,0,0,1,4.014,1.067,6.48168,6.48168,0,0,1,2.515,3.623,9.278,9.278,0,0,1,.329,1.599c.024.203.035.364.041.471l.004.118.001.025v98.43a7.04613,7.04613,0,0,1-1.067,4.015,6.48178,6.48178,0,0,1-3.624,2.514,9.25738,9.25738,0,0,1-1.599.329c-.202.024-.364.035-.471.041l-.118.004-.025.001H35.2143a7.04374,7.04374,0,0,1-4.015-1.067,6.47849,6.47849,0,0,1-2.514-3.624,9.35133,9.35133,0,0,1-.33-1.599c-.023-.202-.034-.364-.04-.471l-.005-.117V355.71a7.03355,7.03355,0,0,1,1.067-4.015,6.48538,6.48538,0,0,1,3.624-2.515,9.4436,9.4436,0,0,1,1.598-.329c.203-.023.364-.035.471-.04l.118-.005h.026Z"/>
    <path class="cls-3" d="M24.0691,16.166v-2a11.7328,11.7328,0,0,0-4.847,1.199,8.94493,8.94493,0,0,0-3.486,3.026,10.03567,10.03567,0,0,0-1.571,5.679V542.861a11.72523,11.72523,0,0,0,1.199,4.846,8.94088,8.94088,0,0,0,3.026,3.487,10.03328,10.03328,0,0,0,5.679,1.571h249.5a11.72477,11.72477,0,0,0,4.846-1.199,8.94834,8.94834,0,0,0,3.487-3.026,10.03579,10.03579,0,0,0,1.571-5.679V24.07007a11.72489,11.72489,0,0,0-1.199-4.846,8.9403,8.9403,0,0,0-3.026-3.487,10.03558,10.03558,0,0,0-5.679-1.571h-249.5v4h249.5a6.04592,6.04592,0,0,1,3.46.899,4.73306,4.73306,0,0,1,1.355,1.397,7.1815,7.1815,0,0,1,.95,2.468,8.2401,8.2401,0,0,1,.124.878c.008.103.012.18.013.226l.002.044v.003l1.189-.011h-1.189v.011l1.189-.011h-1.189V542.861a6.044,6.044,0,0,1-.899,3.46,4.71289,4.71289,0,0,1-1.398,1.355,7.1712,7.1712,0,0,1-2.467.95,7.98148,7.98148,0,0,1-.878.124c-.103.008-.181.012-.226.014l-.044.001h-.003l.011,1.191v-1.191h-.011l.011,1.191v-1.191h-249.5a6.04356,6.04356,0,0,1-3.46-.899,4.70964,4.70964,0,0,1-1.355-1.397,7.20526,7.20526,0,0,1-.951-2.46795,8.14846,8.14846,0,0,1-.123-.87805c-.008-.103-.012-.18-.014-.226l-.001-.044v-.003l-1.193.011h1.193v-.011l-1.193.011h1.193V24.07007a6.046,6.046,0,0,1,.899-3.46,4.70921,4.70921,0,0,1,1.397-1.355,7.18171,7.18171,0,0,1,2.468-.95,7.95158,7.95158,0,0,1,.878-.124c.103-.008.18-.012.226-.014l.044-.001h.003l-.011-1.18995V18.166h.011l-.011-1.18995V16.166Z"/>
  </g>
  <text class="cls-4" transform="translate(62.51318 402.58527)"> </text>
  <text class="cls-4" transform="translate(62.77881 454.70245)"> </text>
  <text class="cls-5" transform="translate(66.18018 454.7005)">dB</text>
  <g id="offPeakMode">
    <path class="cls-3" d="M35.2143,472.197v-1a10.76837,10.76837,0,0,0-4.399,1.093,7.93532,7.93532,0,0,0-3.102,2.687,9.03747,9.03747,0,0,0-1.403,5.124v40.808a10.77579,10.77579,0,0,0,1.094,4.399,7.92408,7.92408,0,0,0,2.686,3.102,9.0297,9.0297,0,0,0,5.124,1.403h53.465a10.76812,10.76812,0,0,0,4.399-1.093,7.949,7.949,0,0,0,3.102-2.687,9.03516,9.03516,0,0,0,1.403-5.124V480.101a10.79828,10.79828,0,0,0-1.094-4.399,7.93227,7.93227,0,0,0-2.686-3.102,9.03989,9.03989,0,0,0-5.124-1.403H35.2143v2h53.465a7.03243,7.03243,0,0,1,4.014,1.067,6.48048,6.48048,0,0,1,2.515,3.624,9.251,9.251,0,0,1,.329,1.598c.024.203.035.364.041.471l.004.118.001.025v40.809a7.04374,7.04374,0,0,1-1.067,4.015,6.48867,6.48867,0,0,1-3.624,2.515,9.452,9.452,0,0,1-1.599.329c-.202.023-.364.035-.471.04l-.118.005h-53.49a7.03593,7.03593,0,0,1-4.015-1.067,6.47966,6.47966,0,0,1-2.514-3.623,9.38965,9.38965,0,0,1-.33-1.599c-.023-.203-.034-.364-.04-.471l-.005-.118V480.101a7.03594,7.03594,0,0,1,1.067-4.015,6.47854,6.47854,0,0,1,3.624-2.514,9.36191,9.36191,0,0,1,1.598-.33c.203-.023.364-.034.471-.04l.118-.005h.026Z"/>
    <path class="cls-6" d="M60.18,506.828a3.14588,3.14588,0,0,1-.762-.093l1.935-13.926L48.946,486.42c2.496-3.694,7.75-7.649,12.547-7.678h.116a13.935,13.935,0,0,1,13.875,13.937c0,7.697-5.482,13.938-13.181,13.938-.86,0-1.441.211-2.123.211"/>
    <path class="cls-7" d="M61.4169,505.823a13.1725,13.1725,0,1,0-10.898-20.578l-1.264-.861a14.70366,14.70366,0,1,1,12.162,22.968Z"/>
    <polyline class="cls-7" points="62.04 481.157 62.04 492.836 60.511 492.836 60.511 481.157"/>
    <polyline class="cls-7" points="52.958 487.627 61.702 492.129 61.002 493.488 52.258 488.986"/>
    <path class="cls-7" d="M61.3514,493.763a1.0835,1.0835,0,1,0-1.084-1.084,1.08572,1.08572,0,0,0,1.084,1.084"/>
    <polyline class="cls-7" points="50.414 511.456 59.181 520.548 58.084 521.606 49.317 512.514"/>
    <polygon class="cls-7" points="59.316 516.682 59.648 522.137 54.248 521.562 54.409 520.046 58.018 520.431 57.795 516.775 59.316 516.682"/>
    <path class="cls-7" d="M50.5187,485.245a13.1839,13.1839,0,0,0-.957,1.651l-1.375-.669a14.58831,14.58831,0,0,1,1.069-1.843Zm-1.664,3.423a13.08693,13.08693,0,0,0-.442,1.855l-1.509-.245a14.6768,14.6768,0,0,1,.493-2.072Zm-.61,3.757-.002.225a13.30952,13.30952,0,0,0,.106,1.681l-1.517.193a14.87154,14.87154,0,0,1-.118-1.874l.002-.251Zm.482,3.775a13.001,13.001,0,0,0,.646,1.796l-1.397.621a14.48807,14.48807,0,0,1-.722-2.005Zm1.546,3.479a13.22784,13.22784,0,0,0,1.134,1.536l-1.162.994a14.78214,14.78214,0,0,1-1.265-1.713Zm2.477,2.892a13.14851,13.14851,0,0,0,1.523,1.149l-.83,1.284a14.77657,14.77657,0,0,1-1.7-1.282Zm3.195,2.066a13.1866,13.1866,0,0,0,1.788.664l-.427,1.468a14.41754,14.41754,0,0,1-1.997-.742Zm3.653,1.061a13.29331,13.29331,0,0,0,1.819.125v1.529a14.74907,14.74907,0,0,1-2.028-.139Z"/>
    <path class="cls-7" d="M71.6919,519.37689a17.47859,17.47859,0,0,0-6.221,0h-3.184v1.841c0,1.171,2.818,2.119,6.295,2.119,3.476,0,6.294-.948,6.294-2.119v-1.841Z"/>
    <path class="cls-7" d="M71.6919,519.37689l-.032.168a17.36808,17.36808,0,0,0-6.157,0l-.016.003h-3.029v1.67a.93038.93038,0,0,0,.431.691c.887.716,3.112,1.262,5.693,1.257a14.329,14.329,0,0,0,4.396-.612,4.3582,4.3582,0,0,0,1.297-.645.93167.93167,0,0,0,.43-.691v-1.67h-3.029l-.016-.003.032-.168v-.172h3.355v2.013a1.26388,1.26388,0,0,1-.559.959c-1.024.806-3.273,1.327-5.906,1.332a14.72259,14.72259,0,0,1-4.506-.63,4.67569,4.67569,0,0,1-1.401-.702,1.26388,1.26388,0,0,1-.559-.959v-2.013h3.355v.172l-.032-.169a17.71284,17.71284,0,0,1,6.285,0l-.032.169v0Z"/>
    <path class="cls-8" d="M62.2873,519.37689c0,1.171,2.818,2.119,6.294,2.119,3.477,0,6.295-.948,6.295-2.119s-2.818-2.12-6.295-2.12c-3.476,0-6.294.949-6.294,2.12"/>
    <path class="cls-9" d="M62.2873,519.37689h.171a.93168.93168,0,0,0,.43.691c.888.715,3.112,1.262,5.693,1.257a14.35012,14.35012,0,0,0,4.396-.612,4.35334,4.35334,0,0,0,1.298-.645.77021.77021,0,0,0,0-1.382c-.888-.716-3.112-1.262-5.694-1.258a14.39046,14.39046,0,0,0-4.396.612,4.33388,4.33388,0,0,0-1.297.646.93007.93007,0,0,0-.43.691h-.342a1.26227,1.26227,0,0,1,.559-.959c1.024-.806,3.273-1.327,5.906-1.332a14.66147,14.66147,0,0,1,4.506.63,4.676,4.676,0,0,1,1.401.702,1.10213,1.10213,0,0,1,0,1.918c-1.024.806-3.273,1.327-5.907,1.331a14.68337,14.68337,0,0,1-4.505-.629,4.68748,4.68748,0,0,1-1.401-.702,1.26387,1.26387,0,0,1-.559-.959Z"/>
    <polyline class="cls-8" points="74.764 519.933 74.764 521.768 74.56 521.768 74.56 519.933"/>
    <polyline class="cls-8" points="74.431 520.182 74.431 522.017 74.226 522.017 74.226 520.182"/>
    <polyline class="cls-8" points="74.093 520.431 74.093 522.266 73.889 522.266 73.889 520.431"/>
    <polyline class="cls-8" points="73.756 520.624 73.756 522.459 73.551 522.459 73.551 520.624"/>
    <polyline class="cls-8" points="73.41 520.802 73.41 522.637 73.205 522.637 73.205 520.802"/>
    <polyline class="cls-8" points="73.025 520.981 73.025 522.816 72.82 522.816 72.82 520.981"/>
    <path class="cls-7" d="M73.2598,517.037a17.54046,17.54046,0,0,0-6.221,0h-3.184v1.841c0,1.171,2.818,2.12,6.295,2.12,3.476,0,6.294-.949,6.294-2.12v-1.841Z"/>
    <path class="cls-7" d="M73.2598,517.037l-.032.168a17.3687,17.3687,0,0,0-6.157,0l-.016.003h-3.029v1.67a.93342.93342,0,0,0,.431.691c.887.716,3.112,1.262,5.693,1.258a14.3597,14.3597,0,0,0,4.396-.612,4.33388,4.33388,0,0,0,1.297-.646.93168.93168,0,0,0,.43-.691v-1.67h-3.029l-.016-.003.032-.168v-.171h3.355v2.012a1.26385,1.26385,0,0,1-.559.959c-1.024.806-3.273,1.327-5.906,1.332a14.6614,14.6614,0,0,1-4.506-.63,4.67569,4.67569,0,0,1-1.401-.702,1.26385,1.26385,0,0,1-.559-.959v-2.012h3.355v.171l-.032-.168a17.71222,17.71222,0,0,1,6.285,0l-.032.168v0Z"/>
    <path class="cls-8" d="M63.8552,517.037c0,1.171,2.818,2.12,6.294,2.12,3.477,0,6.295-.949,6.295-2.12s-2.818-2.119-6.295-2.119c-3.476,0-6.294.948-6.294,2.119"/>
    <path class="cls-9" d="M63.8552,517.037h.171a.93165.93165,0,0,0,.43.691c.888.716,3.112,1.262,5.693,1.257a14.35785,14.35785,0,0,0,4.396-.611,4.36917,4.36917,0,0,0,1.297-.646.76942.76942,0,0,0,0-1.382c-.887-.716-3.112-1.262-5.693-1.257a14.35965,14.35965,0,0,0-4.396.612,4.35839,4.35839,0,0,0-1.297.645.93165.93165,0,0,0-.43.691h-.342a1.26387,1.26387,0,0,1,.559-.959c1.024-.806,3.273-1.327,5.906-1.332a14.72259,14.72259,0,0,1,4.506.63,4.67569,4.67569,0,0,1,1.401.702,1.10211,1.10211,0,0,1,0,1.918c-1.024.806-3.274,1.327-5.907,1.332a14.68033,14.68033,0,0,1-4.505-.63,4.66365,4.66365,0,0,1-1.401-.702,1.26387,1.26387,0,0,1-.559-.959Z"/>
    <polyline class="cls-8" points="76.332 517.593 76.332 519.428 76.128 519.428 76.128 517.593"/>
    <polyline class="cls-8" points="75.999 517.842 75.999 519.677 75.794 519.677 75.794 517.842"/>
    <polyline class="cls-8" points="75.661 518.092 75.661 519.926 75.457 519.926 75.457 518.092"/>
    <polyline class="cls-8" points="75.324 518.285 75.324 520.12 75.119 520.12 75.119 518.285"/>
    <polyline class="cls-8" points="74.978 518.463 74.978 520.297 74.774 520.297 74.774 518.463"/>
    <polyline class="cls-8" points="74.593 518.642 74.593 520.477 74.389 520.477 74.389 518.642"/>
    <path class="cls-7" d="M72.104,514.875a17.54605,17.54605,0,0,0-6.222,0H62.699v1.842c0,1.171,2.818,2.119,6.295,2.119,3.475,0,6.294-.948,6.294-2.119v-1.842Z"/>
    <path class="cls-7" d="M72.104,514.875l-.032.168a17.36808,17.36808,0,0,0-6.157,0l-.016.004H62.87v1.67a.93165.93165,0,0,0,.43.691c.888.715,3.112,1.261,5.694,1.257a14.348,14.348,0,0,0,4.395-.612,4.346,4.346,0,0,0,1.297-.645.93168.93168,0,0,0,.43-.691v-1.67H72.088l-.016-.004.032-.168v-.171h3.355v2.013a1.26678,1.26678,0,0,1-.559.959c-1.024.806-3.274,1.326-5.906,1.331a14.6852,14.6852,0,0,1-4.506-.629,4.68672,4.68672,0,0,1-1.401-.702,1.26384,1.26384,0,0,1-.559-.959v-2.013h3.354v.171l-.032-.168a17.71781,17.71781,0,0,1,6.286,0l-.032.168v0Z"/>
    <path class="cls-8" d="M62.699,514.875c0,1.171,2.818,2.12,6.294,2.12,3.477,0,6.295-.949,6.295-2.12,0-1.17-2.818-2.119-6.295-2.119-3.476,0-6.294.949-6.294,2.119"/>
    <path class="cls-9" d="M62.699,514.875h.171a.93168.93168,0,0,0,.43.691c.888.716,3.112,1.263,5.693,1.258a14.36192,14.36192,0,0,0,4.397-.612,4.33388,4.33388,0,0,0,1.297-.646.771.771,0,0,0,0-1.382c-.888-.715-3.113-1.262-5.694-1.257a14.329,14.329,0,0,0-4.396.612,4.35839,4.35839,0,0,0-1.297.645.93168.93168,0,0,0-.43.691h-.342a1.26387,1.26387,0,0,1,.559-.959c1.024-.806,3.273-1.327,5.906-1.332a14.72261,14.72261,0,0,1,4.506.63,4.69942,4.69942,0,0,1,1.401.702,1.10212,1.10212,0,0,1,0,1.918c-1.024.806-3.273,1.327-5.907,1.332a14.65485,14.65485,0,0,1-4.505-.63,4.66382,4.66382,0,0,1-1.401-.702,1.26227,1.26227,0,0,1-.559-.959h.171"/>
    <polyline class="cls-8" points="75.176 515.432 75.176 517.266 74.972 517.266 74.972 515.432"/>
    <polyline class="cls-8" points="74.843 515.681 74.843 517.515 74.638 517.515 74.638 515.681"/>
    <polyline class="cls-8" points="74.505 515.93 74.505 517.765 74.3 517.765 74.3 515.93"/>
    <polyline class="cls-8" points="74.167 516.123 74.167 517.958 73.963 517.958 73.963 516.123"/>
    <polyline class="cls-8" points="73.822 516.301 73.822 518.136 73.618 518.136 73.618 516.301"/>
    <polyline class="cls-8" points="73.437 516.48 73.437 518.315 73.233 518.315 73.233 516.48"/>
    <path class="cls-7" d="M71.4242,512.35589a17.54046,17.54046,0,0,0-6.221,0h-3.184v1.841c0,1.172,2.818,2.12,6.295,2.12,3.476,0,6.294-.948,6.294-2.12v-1.841h-3.184"/>
    <path class="cls-7" d="M71.4242,512.35589l-.032.168a17.36808,17.36808,0,0,0-6.157,0l-.016.004h-3.029v1.669a.93162.93162,0,0,0,.43.692c.888.715,3.112,1.262,5.694,1.257a14.348,14.348,0,0,0,4.395-.612,4.346,4.346,0,0,0,1.297-.645.92862.92862,0,0,0,.43-.692v-1.669h-3.028l-.016-.004.032-.168v-.171h3.355v2.012a1.26693,1.26693,0,0,1-.559.96c-1.024.806-3.273,1.327-5.906,1.331a14.68987,14.68987,0,0,1-4.506-.629,4.68672,4.68672,0,0,1-1.401-.702,1.264,1.264,0,0,1-.559-.96v-2.012h3.355v.171l-.032-.168a17.71222,17.71222,0,0,1,6.285,0l-.032.168v0"/>
    <path class="cls-8" d="M62.0193,512.35589c0,1.171,2.818,2.12,6.294,2.12,3.477,0,6.295-.949,6.295-2.12,0-1.17-2.818-2.119-6.295-2.119-3.476,0-6.294.949-6.294,2.119"/>
    <path class="cls-9" d="M62.0193,512.35589h.171a.93322.93322,0,0,0,.43.692c.888.715,3.112,1.262,5.693,1.257a14.362,14.362,0,0,0,4.397-.612,4.3582,4.3582,0,0,0,1.297-.645.771.771,0,0,0,0-1.383c-.888-.715-3.113-1.262-5.694-1.257a14.35963,14.35963,0,0,0-4.396.612,4.35839,4.35839,0,0,0-1.297.645.9333.9333,0,0,0-.43.691h-.342a1.26385,1.26385,0,0,1,.559-.959c1.024-.806,3.273-1.326,5.906-1.331a14.66145,14.66145,0,0,1,4.506.63,4.69943,4.69943,0,0,1,1.401.701,1.10212,1.10212,0,0,1,0,1.918c-1.024.807-3.273,1.327-5.907,1.332a14.65482,14.65482,0,0,1-4.505-.63,4.664,4.664,0,0,1-1.401-.702,1.26069,1.26069,0,0,1-.559-.959h.171"/>
    <path class="cls-10" d="M72.3362,513.613a.20222.20222,0,0,1-.051-.398s.096-.025.246-.074a4.27508,4.27508,0,0,0,.831-.369,1.33147,1.33147,0,0,0,.323-.26l.104-.232v-.012c.007-.056-.091-.201-.317-.34a5.54594,5.54594,0,0,0-1.347-.536,5.82919,5.82919,0,0,0-1.022-.209h-.005a.20184.20184,0,0,1-.202-.194v-.016a.20246.20246,0,0,1,.194-.194h.017a3.848,3.848,0,0,1,.65.104,8.4222,8.4222,0,0,1,1.49.473,2.79967,2.79967,0,0,1,.625.363.75775.75775,0,0,1,.321.528v.054a.86138.86138,0,0,1-.326.601,4.26309,4.26309,0,0,1-1.48.704.17928.17928,0,0,1-.051.007m1.453-1.345v0"/>
    <polyline class="cls-8" points="74.496 512.913 74.496 514.747 74.291 514.747 74.291 512.913"/>
    <polyline class="cls-8" points="74.163 513.162 74.163 514.997 73.959 514.997 73.959 513.162"/>
    <polyline class="cls-8" points="73.826 513.411 73.826 515.246 73.621 515.246 73.621 513.411"/>
    <polyline class="cls-8" points="73.488 513.604 73.488 515.439 73.283 515.439 73.283 513.604"/>
    <polyline class="cls-8" points="73.142 513.782 73.142 515.617 72.938 515.617 72.938 513.782"/>
    <polyline class="cls-8" points="72.757 513.961 72.757 515.796 72.552 515.796 72.552 513.961"/>
  </g>
  <rect class="cls-1" y="0.00098" width="297.638" height="566.92902"/>
  <g class="cls-17">
    <polygon class="cls-18" points="57.04 436.636 57.04 440.091 82.872 440.091 82.872 422.238 69.955 410.468 57.04 422.238 57.04 436.636"/>
  </g>
  <g class="cls-2">
    <path class="cls-19" d="M52.48,433.771q1.1235-1.00349,2.247-2.004h1.601v-3.201H54.727q-1.1235-1.00052-2.247-2.004l-.93-.828v8.865Z"/>
    <path class="cls-14" d="M52.7637,433.07q.906-.807,1.809-1.614h1.291v-2.579h-1.291c-.602-.537-1.205-1.077-1.809-1.613l-.749-.668v7.141Z"/>
  </g>
  <g class="cls-17">
    <path class="cls-20" d="M52.7637,433.07q.906-.807,1.809-1.614h1.291v-2.579h-1.291c-.602-.537-1.205-1.077-1.809-1.613l-.749-.668v7.141Z"/>
    <path class="cls-21" d="M49.7345,433.938a5.98206,5.98206,0,0,1,.05-7.585m-2.72,9.917a10.6,10.6,0,0,1,.036-12.228m-2.815,14.582a15.41406,15.41406,0,0,1,.027-16.915"/>
  </g>
  <g class="cls-2">
    <rect class="cls-22" x="26.965" y="26.492" width="71.139" height="48.06"/>
    <rect class="cls-3" x="100.45599" y="26.492" width="170.28799" height="48.06"/>
    <polygon class="cls-23" points="77.239 42.515 78.768 41.391 76.878 41.391 76.294 39.573 75.71 41.391 73.82 41.391 75.349 42.515 74.765 44.334 76.294 43.21 77.823 44.334 77.239 42.515"/>
    <polygon class="cls-23" points="71.287 36.748 72.816 35.624 70.926 35.624 70.342 33.805 69.758 35.624 67.868 35.624 69.397 36.748 68.813 38.567 70.342 37.443 71.871 38.566 71.287 36.748"/>
    <polygon class="cls-23" points="63.609 34.685 65.138 33.561 63.248 33.561 62.664 31.743 62.08 33.561 60.19 33.561 61.719 34.685 61.135 36.504 62.664 35.38 64.193 36.504 63.609 34.685"/>
    <polygon class="cls-23" points="55.523 36.748 57.052 35.624 55.162 35.624 54.578 33.805 53.994 35.624 52.104 35.624 53.633 36.748 53.049 38.567 54.578 37.442 56.107 38.566 55.523 36.748"/>
    <polygon class="cls-23" points="49.748 42.797 51.277 41.673 49.387 41.673 48.803 39.855 48.219 41.673 46.329 41.673 47.858 42.797 47.274 44.616 48.803 43.492 50.332 44.616 49.748 42.797"/>
    <polygon class="cls-23" points="47.903 50.745 49.432 49.621 47.542 49.621 46.958 47.803 46.374 49.621 44.484 49.621 46.013 50.745 45.429 52.564 46.958 51.439 48.487 52.563 47.903 50.745"/>
    <polygon class="cls-23" points="49.805 58.798 51.334 57.674 49.444 57.674 48.86 55.856 48.276 57.674 46.386 57.674 47.915 58.798 47.331 60.617 48.86 59.493 50.389 60.617 49.805 58.798"/>
    <polygon class="cls-23" points="55.523 64.521 57.052 63.397 55.162 63.397 54.578 61.578 53.994 63.397 52.104 63.397 53.633 64.521 53.049 66.34 54.578 65.215 56.107 66.339 55.523 64.521"/>
    <polygon class="cls-23" points="63.609 66.652 65.137 65.528 63.248 65.528 62.664 63.71 62.08 65.528 60.19 65.528 61.719 66.652 61.135 68.47 62.664 67.347 64.193 68.47 63.609 66.652"/>
    <polygon class="cls-23" points="71.476 64.491 73.005 63.367 71.115 63.367 70.531 61.549 69.947 63.367 68.057 63.367 69.586 64.491 69.002 66.31 70.531 65.186 72.06 66.31 71.476 64.491"/>
    <polygon class="cls-23" points="77.198 58.746 78.727 57.622 76.837 57.622 76.253 55.804 75.669 57.622 73.779 57.622 75.308 58.746 74.724 60.565 76.253 59.441 77.782 60.565 77.198 58.746"/>
    <polygon class="cls-23" points="79.305 50.634 80.834 49.51 78.944 49.51 78.36 47.692 77.776 49.51 75.886 49.51 77.415 50.634 76.831 52.453 78.36 51.328 79.889 52.452 79.305 50.634"/>
    <polygon class="cls-24" points="121.082 46.107 113.453 46.107 113.453 52.125 121.983 52.125 121.983 55.194 109.758 55.194 109.758 34.711 121.533 34.711 121.533 37.781 113.453 37.781 113.453 43.069 121.082 43.069 121.082 46.107"/>
    <path class="cls-24" d="M126.7293,55.19418V34.71124h4.205l5.227,8.783a56.59573,56.59573,0,0,1,3.454,6.868h.06c-.24-2.735-.331-5.379-.331-8.509v-7.142h3.425V55.19418h-3.815l-5.287-9.026a67.97592,67.97592,0,0,1-3.634-7.051l-.09.031c.15,2.64405.18,5.349.18,8.72205v7.32394Z"/>
    <polygon class="cls-24" points="159.86 46.107 152.23 46.107 152.23 52.125 160.761 52.125 160.761 55.194 148.536 55.194 148.536 34.711 160.311 34.711 160.311 37.781 152.23 37.781 152.23 43.069 159.86 43.069 159.86 46.107"/>
    <path class="cls-24" d="M169.17149,44.04065h2.193c2.492,0,4.054-1.337,4.054-3.373,0-2.249-1.562-3.282-3.965-3.282a10.51347,10.51347,0,0,0-2.282.182Zm-3.665-9.056a34.69454,34.69454,0,0,1,5.587-.425c2.914,0,4.896.486,6.248,1.641a5.21127,5.21127,0,0,1,1.742,4.102,5.45757,5.45757,0,0,1-3.665,5.136v.091c1.442.547,2.313,1.976,2.824,3.951a41.26683,41.26683,0,0,0,1.592,5.714h-3.815a29.21907,29.21907,0,0,1-1.351-4.832c-.571-2.675-1.533-3.526-3.635-3.587h-1.862v8.419h-3.665Z"/>
    <path class="cls-24" d="M200.3192,54.252a19.85434,19.85434,0,0,1-6.518,1.155c-3.425,0-6.008-.881-7.93-2.735a10.20827,10.20827,0,0,1-2.823-7.537c0-6.473,4.565-10.637,11.264-10.637a13.29111,13.29111,0,0,1,5.376.973l-.811,3.009a10.78059,10.78059,0,0,0-4.596-.882c-4.325,0-7.359,2.583-7.359,7.355,0,4.649,2.824,7.415,7.029,7.415a7.01063,7.01063,0,0,0,2.794-.426V46.837h-3.575V43.889h7.149Z"/>
    <path class="cls-24" d="M111.8683,62.615a1.15947,1.15947,0,0,0-1.168-1.294,1.34427,1.34427,0,0,0-1.306,1.294Zm-2.474.935c.035.957.832,1.37,1.734,1.37a4.4707,4.4707,0,0,0,1.56-.239l.209.924a5.576,5.576,0,0,1-1.966.338,2.59755,2.59755,0,0,1-2.901-2.687,2.689,2.689,0,0,1,2.751-2.849,2.34743,2.34743,0,0,1,2.428,2.577,3.0108,3.0108,0,0,1-.047.566Z"/>
    <polygon class="cls-24" points="115.82 60.526 115.82 62.549 117.993 62.549 117.993 60.526 119.415 60.526 119.415 65.823 117.993 65.823 117.993 63.593 115.82 63.593 115.82 65.823 114.398 65.823 114.398 60.526 115.82 60.526"/>
    <path class="cls-24" d="M124.4647,62.615a1.15809,1.15809,0,0,0-1.167-1.294,1.34351,1.34351,0,0,0-1.306,1.294Zm-2.473.935c.035.957.832,1.37,1.734,1.37a4.47072,4.47072,0,0,0,1.56-.239l.208.924a5.56566,5.56566,0,0,1-1.965.338,2.59756,2.59756,0,0,1-2.901-2.687,2.689,2.689,0,0,1,2.751-2.849,2.34743,2.34743,0,0,1,2.428,2.577,3.10026,3.10026,0,0,1-.047.566Z"/>
    <path class="cls-24" d="M128.4292,63.6044a1.29083,1.29083,0,0,0,.046.37,1.271,1.271,0,0,0,1.248.935c.902,0,1.434-.707,1.434-1.751,0-.935-.486-1.697-1.399-1.697a1.30673,1.30673,0,0,0-1.271.99,1.14126,1.14126,0,0,0-.058.337Zm-1.422-1.316c0-.696-.023-1.261-.046-1.762h1.248l.07.816h.023a2.23476,2.23476,0,0,1,1.93-.936,2.4605,2.4605,0,0,1,2.37,2.698,2.58433,2.58433,0,0,1-2.566,2.838,1.89312,1.89312,0,0,1-1.584-.707h-.023v2.741h-1.422Z"/>
    <polygon class="cls-24" points="137.537 60.526 137.537 61.581 135.236 61.581 135.236 65.823 133.815 65.823 133.815 60.526 137.537 60.526"/>
    <path class="cls-24" d="M139.80141,60.5264v1.904c0,.837-.034,1.402-.081,2.142h.035c.3-.62.474-1.011.763-1.566l1.387-2.48h1.722v5.297h-1.352v-1.893c0-.848.034-1.24.092-2.24h-.046c-.277.631-.462,1.011-.74,1.522-.439.783-.948,1.74-1.433,2.611h-1.699v-5.297Z"/>
    <path class="cls-24" d="M148.412,61.35294a4.04735,4.04735,0,0,0-.706-.054c-.624,0-1.26.206-1.26.794,0,.554.706.794,1.26.794.336,0,.521,0,.706-.011Zm1.41,4.47h-1.41v-2.099h-.532a1.14206,1.14206,0,0,0-.867.348,3.41446,3.41446,0,0,0-.694,1.316,3.85046,3.85046,0,0,1-.219.435h-1.526a2.6997,2.6997,0,0,0,.347-.587,4.44507,4.44507,0,0,1,.843-1.523,1.36326,1.36326,0,0,1,.671-.359v-.032c-.671-.065-1.468-.479-1.468-1.305a1.33345,1.33345,0,0,1,.867-1.229,4.85848,4.85848,0,0,1,1.988-.337,16.13688,16.13688,0,0,1,2,.119Z"/>
    <path class="cls-24" d="M154.4324,63.84369a.8297.8297,0,0,1-.867-.859.83929.83929,0,0,1,.878-.859.85922.85922,0,1,1,0,1.718Z"/>
    <path class="cls-24" d="M160.03729,62.9736c-.67-.174-1.04-.587-1.04-1.109,0-.718.763-1.458,2.37-1.458a3.52258,3.52258,0,0,1,1.803.403l-.266.859a3.17965,3.17965,0,0,0-1.364-.316c-.682,0-1.11.262-1.11.631,0,.424.567.598,1.41.609h.613v.892h-.624c-.902.011-1.584.185-1.584.696,0,.501.613.761,1.306.761a4.01231,4.01231,0,0,0,1.584-.369l.208.891a4.54505,4.54505,0,0,1-2.138.479c-1.191,0-2.474-.424-2.474-1.62a1.436,1.436,0,0,1,1.306-1.305Z"/>
    <path class="cls-24" d="M165.21471,60.5264l.902,2.686c.162.468.266.892.404,1.349h.047a9.12336,9.12336,0,0,0,1.179-3.578v-.457h1.329a2.19742,2.19742,0,0,1,.035.402c0,1.502-1.018,3.274-2.046,4.895h-1.376l-2-5.297Z"/>
    <path class="cls-24" d="M171.051,62.9736c-.67-.174-1.04-.587-1.04-1.109,0-.718.763-1.458,2.37-1.458a3.52255,3.52255,0,0,1,1.803.403l-.266.859a3.17964,3.17964,0,0,0-1.364-.316c-.682,0-1.11.262-1.11.631,0,.424.567.598,1.41.609h.613v.892h-.624c-.902.011-1.584.185-1.584.696,0,.501.613.761,1.306.761a4.0124,4.0124,0,0,0,1.584-.369l.208.891a4.54505,4.54505,0,0,1-2.138.479c-1.191,0-2.474-.424-2.474-1.62a1.436,1.436,0,0,1,1.306-1.305Z"/>
    <path class="cls-24" d="M176.7372,63.72372a1.70391,1.70391,0,0,0,.034.348,1.31443,1.31443,0,0,0,1.249.838c.902,0,1.422-.751,1.422-1.751,0-.936-.497-1.653-1.341-1.653-.717,0-1.364.587-1.364,1.805Zm0,1.588v.75a13.57293,13.57293,0,0,0,.081,1.914h-1.376a9.294,9.294,0,0,1-.127-1.892v-2.425a2.99694,2.99694,0,0,1,.959-2.556,2.79478,2.79478,0,0,1,1.919-.696,2.55592,2.55592,0,0,1,2.694,2.719,2.60885,2.60885,0,0,1-2.601,2.817,1.87,1.87,0,0,1-1.526-.631Z"/>
    <path class="cls-24" d="M183.2899,67.9761a11.38843,11.38843,0,0,0-.196-3.056,14.38329,14.38329,0,0,0-1.965-4.394h1.595a12.41438,12.41438,0,0,1,1.503,3.851h.046a8.29846,8.29846,0,0,0,1.063-3.426c0-.207-.011-.316-.011-.425h1.352a2.068,2.068,0,0,1,.023.392,9.05944,9.05944,0,0,1-1.988,4.665.42643.42643,0,0,0-.069.262c.023.532.023,1.402.034,2.131Z"/>
    <path class="cls-24" d="M188.61749,62.9736c-.67-.174-1.04-.587-1.04-1.109,0-.718.763-1.458,2.37-1.458a3.52258,3.52258,0,0,1,1.803.403l-.266.859a3.1834,3.1834,0,0,0-1.364-.316c-.682,0-1.11.262-1.11.631,0,.424.567.598,1.41.609h.613v.892h-.624c-.902.011-1.584.185-1.584.696,0,.501.613.761,1.306.761a4.01231,4.01231,0,0,0,1.584-.369l.208.891a4.54921,4.54921,0,0,1-2.139.479c-1.19,0-2.473-.424-2.473-1.62a1.436,1.436,0,0,1,1.306-1.305Z"/>
    <path class="cls-24" d="M194.3504,64.3331c0,.435.138.609.532.587l-.081.935a1.842,1.842,0,0,1-.613.087c-.763,0-1.271-.304-1.271-1.479v-3.937h1.433Z"/>
    <path class="cls-24" d="M197.0666,63.23441c0,.892.485,1.642,1.26,1.642a1.418,1.418,0,0,0,1.248-1.141,3.45941,3.45941,0,0,0,.046-.62,2.21621,2.21621,0,0,0-.035-.501,1.296,1.296,0,0,0-1.19-1.174c-.798,0-1.329.794-1.329,1.783Zm4.08-2.708c-.069.718-.162,2.349-.162,3.611,0,.598.197.805.544.794l-.093.946a1.782,1.782,0,0,1-.497.065,1.04927,1.04927,0,0,1-1.098-1.033h-.035a2.09307,2.09307,0,0,1-1.861,1.033,2.40156,2.40156,0,0,1-2.323-2.664,2.69679,2.69679,0,0,1,2.543-2.872,1.74211,1.74211,0,0,1,1.618.925h.046c.035-.326.081-.577.127-.805Z"/>
    <path class="cls-24" d="M208.00771,39.05829a10.30769,10.30769,0,1,1,10.307,10.427,10.36842,10.36842,0,0,1-10.307-10.427"/>
    <path class="cls-3" d="M217.6125,42.967V39.372l-2.694-5.028h1.771l1.024,2.213c.291.64.506,1.126.733,1.715h.026c.215-.55.455-1.088.746-1.715l1.024-2.213h1.758l-2.832,4.99v3.633Z"/>
    <path class="cls-24" d="M231.721,39.05829a10.30769,10.30769,0,1,1,10.307,10.427,10.36842,10.36842,0,0,1-10.307-10.427"/>
    <path class="cls-24" d="M208.00771,62.18118a10.3077,10.3077,0,1,1,10.307,10.428,10.3684,10.3684,0,0,1-10.307-10.428"/>
    <rect class="cls-3" x="214.38699" y="57.46701" width="1.556" height="8.62299"/>
    <polygon class="cls-3" points="222.493 62.265 219.281 62.265 219.281 64.798 222.873 64.798 222.873 66.09 217.726 66.09 217.726 57.467 222.683 57.467 222.683 58.76 219.281 58.76 219.281 60.985 222.493 60.985 222.493 62.265"/>
    <path class="cls-24" d="M231.721,62.18118a10.3077,10.3077,0,1,1,10.307,10.428,10.3684,10.3684,0,0,1-10.307-10.428"/>
    <rect class="cls-3" x="234.85699" y="34.34399" width="1.556" height="8.62299"/>
    <path class="cls-3" d="M239.89,34.344h1.556v5.591c0,2.38-1.139,3.173-2.833,3.173a4.09238,4.09238,0,0,1-1.302-.205l.189-1.267a3.36326,3.36326,0,0,0,.962.154c.884,0,1.428-.409,1.428-1.906Z"/>
    <path class="cls-3" d="M247.30058,39.33344l-.67-2.124c-.164-.524-.304-1.113-.43-1.612h-.025c-.126.499-.253,1.101-.405,1.612l-.658,2.124Zm-2.44,1.18994-.734,2.444h-1.605l2.731-8.623h1.985l2.769,8.623h-1.669l-.771-2.444Z"/>
    <rect class="cls-3" x="237.336" y="57.46802" width="1.556" height="8.62299"/>
    <path class="cls-3" d="M244.8228,62.458l-.671-2.124c-.164-.525-.304-1.114-.43-1.612h-.025c-.126.498-.253,1.1-.405,1.612l-.657,2.124Zm-2.441,1.189-.734,2.444h-1.605l2.731-8.623h1.985l2.769,8.623h-1.669l-.771-2.444Z"/>
    <polyline class="cls-3" points="26.514 112.593 270.817 112.593 270.817 111.593 26.514 111.593"/>
  </g>
  <text class="cls-25" transform="translate(34.15381 109.38214)"><tspan class="cls-26" xml:space="preserve">                </tspan><tspan x="54.73438" y="0"> </tspan></text>

  <g id="kwhGroup">
    <rect class="cls-27" x="114.496" y="355.29601" width="7.538" height="7.53799"/>
    <rect class="cls-35" x="114.496" y="399.54999" width="7.538" height="7.537"/>
    <rect class="cls-36" x="114.496" y="377.31599" width="7.538" height="7.53799"/>
    <text id="colderKwhAnnum" class="cls-59" transform="translate(127.27979 363.31964)">X</text>
    <text id="averageKwhAnnum" class="cls-60" transform="translate(127.27979 386.69952)">X</text>
    <text id="warmerKwhAnnum" class="cls-59" transform="translate(127.27979 407.88019)">X</text>
    <text class="cls-28" transform="translate(128.60205 424.21808)"><tspan class="cls-29">k</tspan><tspan class="cls-30" x="4.9873" y="0">W</tspan><tspan class="cls-31" x="14.81152" y="0">h</tspan><tspan x="20.58447" y="0">/</tspan></text>
    <text class="cls-28" transform="translate(153.0957 424.21808)"><tspan class="cls-32">ann</tspan><tspan x="16.77051" y="0">u</tspan></text>
    <text class="cls-28" transform="translate(175.6582 424.21808)"><tspan class="cls-33">m</tspan></text>
  </g>
  <g id="gjGroup">
    <rect class="cls-27" x="202.881" y="355.29601" width="7.53799" height="7.53799"/>
    <rect class="cls-35" x="202.881" y="399.54999" width="7.53799" height="7.537"/>
    <rect class="cls-36" x="202.881" y="377.31599" width="7.53799" height="7.53799"/>
    <text id="colderGjAnnum" class="cls-59" transform="translate(215.66016 363.31964)">X</text>
    <text id="averageGjAnnum" class="cls-60" transform="translate(215.66016 386.69952)">X</text>
    <text id="warmerGjAnnum" class="cls-59" transform="translate(215.66016 407.88019)">X</text>
    <text class="cls-28" transform="translate(216.14648 424.21808)"><tspan class="cls-34">GJ</tspan><tspan x="10.25977" y="0">/</tspan></text>
    <text class="cls-28" transform="translate(230.30176 424.21808)"><tspan class="cls-32">ann</tspan><tspan x="16.77051" y="0">u</tspan></text>
    <text class="cls-28" transform="translate(252.86523 424.21808)">m</text>
  </g>

  <g class="cls-37">
    <rect class="cls-24" x="-423.30701" y="126.61499" width="1062.98999" height="255.118"/>
    <rect class="cls-24" x="-423.30701" y="126.61499" width="1062.98999" height="255.118"/>
    <polygon class="cls-38" points="2.309 220.315 2.309 240.007 114.33 240.007 124.083 230.161 114.33 220.315 2.309 220.315"/>
    <polygon class="cls-39" points="2.309 197.788 2.309 217.48 102.972 217.48 112.724 207.634 102.972 197.788 2.309 197.788"/>
    <polygon class="cls-40" points="2.309 175.261 2.309 194.952 91.618 194.952 101.369 185.107 91.618 175.261 2.309 175.261"/>
    <polygon class="cls-23" points="2.309 242.843 2.309 262.534 125.949 262.534 135.714 252.689 125.949 242.843 2.309 242.843"/>
    <polygon class="cls-41" points="2.309 265.369 2.309 285.062 137.298 285.062 147.066 275.216 137.298 265.369 2.309 265.369"/>
    <polygon class="cls-42" points="2.309 287.896 2.309 307.586 148.648 307.586 158.419 297.74 148.648 287.896 2.309 287.896"/>
    <polygon class="cls-43" points="2.309 310.421 2.309 330.111 159.997 330.111 169.771 320.268 159.997 310.421 2.309 310.421"/>
  </g>
  <text class="cls-44" transform="translate(33.34912 192.16144)"> </text>
  <text class="cls-44" transform="translate(36.96533 190.16144)">A</text>
  <text class="cls-45" transform="translate(46.66162 184.83527)">+</text>
  <text class="cls-44" transform="translate(36.96533 212.66144)">A</text>
  <text class="cls-44" transform="translate(36.96533 235.15753)">B</text>
  <text class="cls-44" transform="translate(36.96484 257.65363)">C</text>
  <text class="cls-44" transform="translate(36.96484 280.14923)">D</text>
  <text class="cls-44" transform="translate(36.96484 302.64581)">E</text>
  <text class="cls-44" transform="translate(36.96484 325.14093)">F</text>
  <g class="cls-2">
    <rect class="cls-46" x="30.61544" y="121.23548" width="10.86012" height="1.35351" transform="translate(-0.54032 0.16106) rotate(-0.2541)"/>
    <path class="cls-47" d="M32.3414,121.912a1.79458,1.79458,0,0,0-1.781-1.81,1.77577,1.77577,0,0,0-1.781,1.81,1.79454,1.79454,0,0,0,1.781,1.81,1.81413,1.81413,0,0,0,1.781-1.81"/>
    <path class="cls-47" d="M43.312,121.912a1.79458,1.79458,0,0,0-1.781-1.81,1.77577,1.77577,0,0,0-1.781,1.81,1.79454,1.79454,0,0,0,1.781,1.81,1.81413,1.81413,0,0,0,1.781-1.81"/>
    <path class="cls-47" d="M38.2952,121.912a2.25453,2.25453,0,0,0-2.268-2.267,2.224,2.224,0,0,0-2.23,2.267,2.24717,2.24717,0,0,0,2.23,2.267,2.27824,2.27824,0,0,0,2.268-2.267"/>
    <path class="cls-46" d="M38.2942,121.912a2.25493,2.25493,0,0,0-2.267-2.267,2.22484,2.22484,0,0,0-2.231,2.267,2.248,2.248,0,0,0,2.231,2.267,2.27868,2.27868,0,0,0,2.267-2.267"/>
    <rect class="cls-46" x="35.26" y="121.948" width="1.571" height="5.814"/>
    <path class="cls-47" d="M40.8552,131.069a4.81427,4.81427,0,1,0-4.826,5.017,4.90766,4.90766,0,0,0,4.826-5.017"/>
    <path class="cls-47" d="M39.9136,134.016s2.597.352,2.597,1.316v3.255h4.254l-.012-3.913c-.362-4.115-2.407-4.774-6.034-5.924l-1.121-.324.024.507-13.311-.074v5.047l13.603-.11v.22"/>
  </g>
  <text class="cls-48" transform="translate(26.88818 541.5462)">2017</text>
  <text class="cls-48" transform="translate(231.51855 541.5462)">812/2013</text>
  <g class="cls-2">
    <path class="cls-3" d="M114.778,347.806v-1a10.76834,10.76834,0,0,0-4.399,1.093,7.9391,7.9391,0,0,0-3.102,2.686,9.041,9.041,0,0,0-1.403,5.125V520.909a10.79519,10.79519,0,0,0,1.094,4.399,7.93235,7.93235,0,0,0,2.686,3.102,9.0321,9.0321,0,0,0,5.124,1.403h147.61a10.768,10.768,0,0,0,4.399-1.093,7.93514,7.93514,0,0,0,3.102-2.687,9.03522,9.03522,0,0,0,1.403-5.124V355.71a10.77151,10.77151,0,0,0-1.093-4.4,7.9397,7.9397,0,0,0-2.687-3.101,9.02974,9.02974,0,0,0-5.124-1.403H114.778v2h147.61a7.0282,7.0282,0,0,1,4.015,1.067,6.47969,6.47969,0,0,1,2.514,3.623,9.39046,9.39046,0,0,1,.33,1.599c.023.203.034.364.04.471l.005.118V520.909a7.036,7.036,0,0,1-1.067,4.015,6.48666,6.48666,0,0,1-3.623,2.515,9.47269,9.47269,0,0,1-1.599.329c-.203.023-.364.035-.471.04l-.118.005H114.778a7.03835,7.03835,0,0,1-4.015-1.067,6.47971,6.47971,0,0,1-2.514-3.623,9.27685,9.27685,0,0,1-.329-1.599c-.024-.203-.035-.364-.041-.471l-.004-.118-.001-.025V355.71a7.04144,7.04144,0,0,1,1.067-4.015,6.48541,6.48541,0,0,1,3.624-2.515,9.433,9.433,0,0,1,1.599-.329c.202-.023.364-.035.471-.04l.117-.005h.026Z"/>
  </g>
  <g>
    <g class="cls-49">
      <rect class="cls-24" x="146.83" y="424.79999" width="89.291" height="111.831"/>
      <rect class="cls-24" x="146.83" y="424.79999" width="89.291" height="111.83101"/>
    </g>
    <polygon class="cls-50" points="179.207 476.279 176.524 479.005 173.456 479.005 173.071 479.393 173.071 491.855 172.306 492.632 167.321 492.244 164.636 489.908 156.585 489.908 154.668 491.855 154.668 501.201 152.75 503.536 152.75 505.483 159.652 512.103 161.185 512.103 162.72 510.545 164.636 512.103 166.554 512.103 181.123 497.306 188.026 497.306 184.191 493.412 181.507 496.138 177.673 492.244 177.673 484.066 179.207 482.509 179.207 476.279"/>
    <polygon class="cls-51" points="179.207 476.279 181.507 475.501 182.658 476.667 184.574 476.667 191.476 469.659 192.626 469.269 200.678 469.269 200.678 471.605 193.01 479.393 193.01 480.951 194.927 482.899 181.891 496.138 177.673 492.244 177.673 484.066 179.207 482.899 179.207 476.279"/>
    <polygon class="cls-52" points="200.295 469.269 200.295 471.605 193.011 479.393 193.011 480.95 194.928 482.898 184.192 493.411 187.642 496.917 190.326 494.192 189.56 493.411 192.244 490.687 194.16 492.633 195.694 492.633 197.227 491.076 197.995 491.076 201.445 494.581 204.13 494.581 207.581 491.076 209.498 491.076 216.015 497.696 216.015 499.253 214.865 500.422 214.865 502.757 218.7 506.653 219.466 506.653 230.202 495.359 230.969 494.192 230.969 492.244 230.587 491.076 225.984 486.792 215.633 486.792 214.865 485.624 214.865 479.005 217.933 475.889 217.933 473.163 217.165 472.384 217.165 471.217 219.082 469.269 219.849 470.048 221.384 470.048 222.917 468.88 222.917 467.322 222.15 466.543 222.15 465.765 224.067 463.818 224.067 453.693 222.917 453.693 220.617 456.419 220.617 461.091 218.7 462.649 218.317 462.649 217.549 461.87 216.015 461.87 214.865 463.038 214.865 464.596 216.015 465.765 213.332 468.49 212.181 467.322 209.498 467.322 207.581 469.269 200.295 469.269"/>
    <polygon class="cls-52" points="193.393 454.082 193.393 445.516 196.461 442.401 197.995 442.401 200.296 444.737 210.262 434.613 211.798 434.613 213.332 436.169 218.317 431.108 219.466 431.108 221.766 433.055 223.302 431.497 225.217 431.497 225.985 432.665 225.985 434.613 224.833 435.78 228.286 440.064 228.286 443.569 224.833 447.073 226.368 449.02 226.368 450.967 225.602 451.746 223.302 451.746 222.15 450.578 221.384 450.578 217.166 454.861 216.015 454.861 214.865 453.693 214.865 452.135 214.482 452.135 214.482 451.356 215.633 449.799 214.098 447.852 214.098 446.294 217.933 442.401 217.933 440.843 216.782 440.064 215.249 440.064 208.73 446.294 208.73 447.463 210.262 449.02 210.262 450.967 208.347 452.525 209.498 453.693 209.498 456.808 205.663 460.702 207.581 462.26 207.581 464.207 204.513 467.322 204.513 467.712 201.445 467.712 200.678 466.932 200.678 465.765 202.596 463.818 200.678 461.481 200.678 460.313 202.596 457.976 202.596 457.197 200.678 456.029 200.678 455.251 194.544 455.251 193.393 454.082"/>
    <polygon class="cls-51" points="196.844 458.755 193.393 461.87 193.393 464.207 197.228 468.49 197.995 468.49 199.912 466.154 200.296 465.764 197.995 463.428 200.296 461.091 197.995 458.755 196.844 458.755"/>
    <polygon class="cls-51" points="181.507 474.332 183.042 472.774 183.042 470.438 180.357 467.711 180.357 456.808 177.29 453.303 175.756 453.303 173.455 455.64 173.455 466.153 181.507 474.332"/>
    <polygon class="cls-50" points="171.538 468.101 171.538 471.605 168.471 474.331 169.621 475.5 180.356 475.5 181.508 474.331 173.455 466.154 171.538 468.101"/>
    <polygon class="cls-50" points="172.306 459.534 169.238 459.534 163.103 466.154 163.103 467.322 164.254 468.491 166.17 468.491 172.689 461.87 172.689 459.923 172.306 459.534"/>
    <polygon class="cls-53" points="178.056 440.064 177.673 440.843 177.673 443.179 178.056 443.568 179.591 443.568 179.974 442.791 179.974 440.843 179.591 440.064 178.056 440.064"/>
    <polygon class="cls-50" points="176.523 507.82 176.523 506.653 178.057 505.093 179.974 505.093 179.974 507.041 178.057 508.598 177.29 508.598 176.523 507.82"/>
    <polygon class="cls-50" points="191.093 502.758 192.243 501.201 193.777 502.758 193.777 505.874 192.627 506.653 191.86 506.653 191.093 505.874 191.093 502.758"/>
    <polygon class="cls-50" points="191.86 507.041 192.626 507.041 193.777 507.819 193.777 511.324 192.626 512.493 192.243 512.493 191.093 511.324 191.093 507.819 191.86 507.041"/>
    <polygon class="cls-50" points="204.13 517.166 210.648 510.935 210.648 508.988 202.98 501.201 199.912 504.316 204.897 509.378 204.897 510.545 201.829 513.661 201.445 514.439 201.445 515.608 201.829 516.777 202.98 517.166 204.13 517.166"/>
    <polygon class="cls-51" points="200.678 493.802 197.994 496.138 203.362 501.201 202.596 501.98 199.913 499.253 197.994 501.201 200.678 503.926 199.913 504.316 193.01 497.306 188.026 497.306 187.259 496.917 189.942 494.191 189.559 493.412 192.244 490.686 194.16 492.632 195.694 492.632 197.228 491.075 197.994 491.075 200.678 493.802"/>
    <polygon class="cls-51" points="216.399 504.315 214.864 505.874 214.864 508.21 216.016 509.377 216.399 509.377 218.7 507.431 219.849 507.431 221.766 509.767 222.151 509.767 229.435 502.368 229.435 500.811 227.135 498.474 219.466 506.262 218.316 506.262 216.399 504.315"/>
    <polygon class="cls-52" points="219.466 512.103 221.766 509.768 219.849 507.431 218.7 507.431 216.399 509.377 218.7 512.103 219.466 512.103"/>
    <polygon class="cls-50" points="220.232 516.776 224.067 513.272 224.067 511.325 222.534 509.768 221.767 509.768 219.466 512.103 218.7 512.103 216.399 509.377 216.016 509.377 214.865 510.546 214.865 513.661 217.933 516.776 220.232 516.776"/>
    <polygon class="cls-50" points="225.985 510.935 225.985 510.546 228.669 510.546 229.434 511.324 229.434 513.271 229.052 513.661 225.985 513.661 225.985 513.271 225.985 510.935"/>
    <polygon class="cls-50" points="222.534 519.502 222.917 519.113 225.602 519.113 226.368 519.892 226.368 521.06 225.984 521.45 222.917 521.45 222.534 521.06 222.534 519.502"/>
    <rect class="cls-35" x="203.746" y="519.89199" width="0.767" height="1.168"/>
    <polygon class="cls-54" points="160.419 495.749 161.953 494.58 163.486 494.58 166.937 498.085 166.937 500.422 166.171 501.201 165.021 501.201 160.419 496.917 160.419 495.749"/>
    <polygon class="cls-54" points="167.704 503.926 165.787 501.591 163.486 503.926 163.486 505.483 164.254 506.262 166.171 506.262 167.704 504.705 167.704 503.926"/>
    <polygon class="cls-54" points="174.606 498.474 175.372 497.696 175.372 495.749 173.839 494.192 172.689 494.192 170.771 496.139 173.071 498.474 174.606 498.474"/>
    <polygon class="cls-52" points="197.994 501.201 199.912 499.253 202.596 501.979 200.678 503.927 197.994 501.201"/>
  </g>
  <g id="rating">
    <polyline id="ratingArrow" class="cls-55" points="208.26 185.1 224.9 168.29 270.94 168.29 270.94 202.2 225.21 202.2 208.26 185.1"/>
    <text id="ratingLetter" class="cls-56" transform="translate(219.26953 192.34015)">A</text>
    <text id="ratingPlusses" class="cls-57" transform="translate(235.23047 185.09991)">+</text>
  </g>
  <text id="declaredLoadProfile" class="cls-58" transform="translate(50.50977 144.17023)">X</text>


  <g id="insideDbSection">
    <g class="cls-11">
      <polygon class="cls-12" points="47.243 384.796 47.243 388.733 76.675 388.733 76.675 368.391 61.958 354.982 47.243 368.391 47.243 384.796"/>
    </g>
    <g class="cls-2">
      <path class="cls-13" d="M54.6158,379.684q-1.2165-1.08448-2.431-2.168h-1.734v-3.464h1.734q1.215-1.08452,2.431-2.169l1.005-.895v9.594Z"/>
      <path class="cls-14" d="M54.3087,378.926q-.9795-.87448-1.958-1.747h-1.396v-2.791h1.396q.978-.87148,1.958-1.746l.81-.722v7.728Z"/>
      <path class="cls-15" d="M54.3087,378.926q-.9795-.87448-1.958-1.747h-1.396v-2.791h1.396q.978-.87148,1.958-1.746l.81-.722v7.728Z"/>
      <path class="cls-16" d="M57.5322,371.657a6.47126,6.47126,0,0,1,.054,8.208m2.851-10.709a11.47139,11.47139,0,0,1,.039,13.233m2.977-15.757a16.68009,16.68009,0,0,1,.03,18.304"/>
    </g>
    <text id="insideDb" class="cls-4" transform="translate(47.31006 402.58038)">X</text>
    <text class="cls-5" transform="translate(65.896 402.58527)">dB</text>
  </g>
  <text id="outsideDb" class="cls-4" transform="translate(47.56982 454.71027)">X</text>
  <text id="supplierLine2" class="cls-61" transform="translate(26.75977 106.30001)">X</text>
  <text id="supplierLine1" class="cls-61" transform="translate(26.75977 95.21896)">X</text>
  <text id="modelLine2" class="cls-61" transform="translate(152.44141 106.30001)">X</text>
  <text id="modelLine1" class="cls-61" transform="translate(152.44141 95.21896)">X</text>
</svg>
