<svg id="Layer_1" data-name="Layer 1" xmlns="http://www.w3.org/2000/svg" xmlns:xlink="http://www.w3.org/1999/xlink" width="105mm" height="200mm" viewBox="0 0 297.64001 566.92999" data-rating-increment="19.2857" data-supplier-model-chars-per-row="25">
  <defs>
    <style>
      .cls-1, .cls-10, .cls-3, .cls-5 {
        fill: none;
      }

      .cls-2 {
        clip-path: url(#clip-path);
      }

      .cls-10, .cls-3, .cls-5 {
        stroke: #00aeef;
      }

      .cls-3 {
        stroke-width: 4px;
      }

      .cls-20, .cls-21, .cls-24, .cls-25, .cls-4 {
        fill: #fff;
      }

      .cls-5 {
        stroke-width: 2px;
      }

      .cls-27, .cls-6 {
        font-size: 30px;
      }

      .cls-11, .cls-22, .cls-23, .cls-26, .cls-27, .cls-28, .cls-6 {
        fill: #231f20;
      }

      .cls-20, .cls-21, .cls-22, .cls-24, .cls-26, .cls-6 {
        font-family: Calibri-Bold, Calibri;
        font-weight: 700;
      }

      .cls-7 {
        fill: #034ea2;
      }

      .cls-8 {
        fill: #00aeef;
      }

      .cls-9 {
        fill: #fff200;
      }

      .cls-11 {
        font-size: 12px;
      }

      .cls-11, .cls-25, .cls-27, .cls-28 {
        font-family: Calibri;
      }

      .cls-12 {
        letter-spacing: 0.059em;
      }

      .cls-13 {
        clip-path: url(#clip-path-3);
      }

      .cls-14 {
        fill: #bfd730;
      }

      .cls-15 {
        fill: #50b848;
      }

      .cls-16 {
        fill: #00a651;
      }

      .cls-17 {
        fill: #fdb913;
      }

      .cls-18 {
        fill: #f37021;
      }

      .cls-19 {
        fill: #ed1c24;
      }

      .cls-20 {
        font-size: 16px;
      }

      .cls-21 {
        font-size: 9.328px;
      }

      .cls-22 {
        font-size: 10px;
      }

      .cls-24 {
        font-size: 24px;
      }

      .cls-25 {
        font-size: 15px;
      }

      .cls-26 {
        font-size: 45px;
      }

      .cls-28 {
        font-size: 10.9046px;
      }
    </style>
    <clipPath id="clip-path">
      <rect class="cls-1" y="0.00098" width="297.638" height="566.92902"/>
    </clipPath>
    <clipPath id="clip-path-3">
      <rect class="cls-1" x="26.513" y="175.11899" width="145.089" height="155.47301"/>
    </clipPath>
  </defs>
  <title>hot-water-storage-tanks</title>
  <g class="cls-2">
    <path class="cls-3" d="M24.0691,16.166s-7.904,0-7.904,7.90405V542.861s0,7.904,7.904,7.904h249.5s7.904,0,7.904-7.904V24.07007s0-7.90405-7.904-7.90405Z"/>
    <path class="cls-4" d="M38.6116,130.545l-.472.587.707.349.615.144-.323-1.122s-.129.018-.527.042"/>
    <path d="M30.0318,147.901a.31776.31776,0,0,0,.319.308h13.693a.31776.31776,0,0,0,.319-.308V121.644a15.10394,15.10394,0,0,0-7.227-2.029,14.59655,14.59655,0,0,0-7.104,2.024Zm-.42,2.676a1.87781,1.87781,0,0,1-1.876-1.875V120.73c0-.401.332-.771,1.11-1.234a15.16978,15.16978,0,0,1,2.252-1.05,18.57449,18.57449,0,0,1,6.038-1.276,19.0875,19.0875,0,0,1,6.108,1.275c2.265.851,3.414,1.62,3.414,2.285v27.972a1.877,1.877,0,0,1-1.875,1.875Z"/>
    <path class="cls-4" d="M30.5457,121.909a11.25261,11.25261,0,0,1,2.187-.974,14.08745,14.08745,0,0,1,4.403-.806,14.5387,14.5387,0,0,1,4.457.81,12.14711,12.14711,0,0,1,2.256.979v25.777H30.5457Zm6.59-5.253a19.10762,19.10762,0,0,0-6.221,1.31,15.45427,15.45427,0,0,0-2.332,1.089c-.673.4-1.361.913-1.361,1.675v27.972a2.39167,2.39167,0,0,0,2.39,2.389h15.171a2.39081,2.39081,0,0,0,2.389-2.389V120.73c0-.767-.699-1.279-1.382-1.679a15.85217,15.85217,0,0,0-2.365-1.087,19.61709,19.61709,0,0,0-6.289-1.308m-6.785,32.067h13.693a.83014.83014,0,0,0,.833-.822V121.488c0-.452-4.08-2.387-7.741-2.387-3.685,0-7.618,1.935-7.618,2.387v26.413a.83014.83014,0,0,0,.833.822m6.785-31.039c3.796,0,9.008,2.296,9.008,3.046v27.972a1.364,1.364,0,0,1-1.361,1.362H29.6117a1.3642,1.3642,0,0,1-1.362-1.362V120.73c0-.75,5.12-3.046,8.886-3.046"/>
    <path class="cls-4" d="M37.1357,119.101c-3.685,0-7.618,1.935-7.618,2.387v26.413a.83014.83014,0,0,0,.833.822h13.693a.83014.83014,0,0,0,.833-.822V121.488c0-.452-4.08-2.387-7.741-2.387"/>
    <path d="M30.8666,129.439a1.96466,1.96466,0,0,0,1.604,1.068,2.12562,2.12562,0,0,0,1.593-1.051,1.96468,1.96468,0,0,0,1.594,1.051,2.12877,2.12877,0,0,0,1.594-1.051,1.96212,1.96212,0,0,0,1.595,1.051,2.12886,2.12886,0,0,0,1.593-1.051,1.96212,1.96212,0,0,0,1.595,1.051,2.12361,2.12361,0,0,0,1.589-1.047v-1.113a2.122,2.122,0,0,1-1.589,1.046,1.95989,1.95989,0,0,1-1.595-1.051,2.126,2.126,0,0,1-1.593,1.051,1.95989,1.95989,0,0,1-1.595-1.051,2.126,2.126,0,0,1-1.594,1.051,1.96244,1.96244,0,0,1-1.594-1.051,2.12282,2.12282,0,0,1-1.593,1.051,1.96463,1.96463,0,0,1-1.604-1.068l.006-.024h-.014v1.114h.014l-.006.024"/>
    <path d="M30.8666,131.962a1.96247,1.96247,0,0,0,1.604,1.068,2.12442,2.12442,0,0,0,1.593-1.052,1.96372,1.96372,0,0,0,1.594,1.052,2.12757,2.12757,0,0,0,1.594-1.052,1.96116,1.96116,0,0,0,1.595,1.052,2.12765,2.12765,0,0,0,1.593-1.052,1.96116,1.96116,0,0,0,1.595,1.052,2.12361,2.12361,0,0,0,1.589-1.047v-1.114a2.12355,2.12355,0,0,1-1.589,1.047,1.96115,1.96115,0,0,1-1.595-1.052,2.12483,2.12483,0,0,1-1.593,1.052,1.96115,1.96115,0,0,1-1.595-1.052,2.12475,2.12475,0,0,1-1.594,1.052,1.96372,1.96372,0,0,1-1.594-1.052,2.12161,2.12161,0,0,1-1.593,1.052,1.96372,1.96372,0,0,1-1.604-1.069l.006-.023h-.014v1.114h.014l-.006.024"/>
    <path d="M42.0343,134.438a1.95572,1.95572,0,0,1-1.594-1.05,2.12483,2.12483,0,0,1-1.594,1.05,1.95572,1.95572,0,0,1-1.594-1.05,2.12322,2.12322,0,0,1-1.594,1.05,1.96121,1.96121,0,0,1-1.595-1.05,2.11856,2.11856,0,0,1-1.592,1.05,1.9603,1.9603,0,0,1-1.605-1.068l.007-.023h-.015v1.114h.015l-.007.024a1.96482,1.96482,0,0,0,1.605,1.068,2.12841,2.12841,0,0,0,1.592-1.051,1.96255,1.96255,0,0,0,1.595,1.051,2.1331,2.1331,0,0,0,1.594-1.051,1.95705,1.95705,0,0,0,1.594,1.051,2.13473,2.13473,0,0,0,1.594-1.051,1.95705,1.95705,0,0,0,1.594,1.051,2.12786,2.12786,0,0,0,1.59-1.047v-1.114a2.11794,2.11794,0,0,1-1.59,1.046"/>
    <path class="cls-5" d="M114.641,347.806s-7.904,0-7.904,7.904v69.057s0,7.905,7.904,7.905h147.61s7.904,0,7.904-7.905V355.71s0-7.904-7.904-7.904Zm0,94.956s-7.904,0-7.904,7.904v69.058s0,7.904,7.904,7.904h147.61s7.904,0,7.904-7.904V450.666s0-7.904-7.904-7.904Z"/>
  </g>
  <text class="cls-6" transform="translate(196.96582 402.95245)"> </text>
  <text class="cls-6" transform="translate(214.03613 498.62238)"> </text>
  <g class="cls-2">
    <rect class="cls-7" x="26.965" y="26.492" width="71.139" height="48.06"/>
    <rect class="cls-8" x="100.45599" y="26.492" width="170.28799" height="48.06"/>
    <polygon class="cls-9" points="77.239 42.515 78.768 41.391 76.878 41.391 76.294 39.573 75.71 41.391 73.82 41.391 75.349 42.515 74.765 44.334 76.294 43.21 77.823 44.334 77.239 42.515"/>
    <polygon class="cls-9" points="71.287 36.748 72.816 35.624 70.926 35.624 70.342 33.805 69.758 35.624 67.868 35.624 69.397 36.748 68.813 38.567 70.342 37.443 71.871 38.566 71.287 36.748"/>
    <polygon class="cls-9" points="63.609 34.685 65.138 33.561 63.248 33.561 62.664 31.743 62.08 33.561 60.19 33.561 61.719 34.685 61.135 36.504 62.664 35.38 64.193 36.504 63.609 34.685"/>
    <polygon class="cls-9" points="55.523 36.748 57.052 35.624 55.162 35.624 54.578 33.805 53.994 35.624 52.104 35.624 53.633 36.748 53.049 38.567 54.578 37.442 56.107 38.566 55.523 36.748"/>
    <polygon class="cls-9" points="49.748 42.797 51.277 41.673 49.387 41.673 48.803 39.855 48.219 41.673 46.329 41.673 47.858 42.797 47.274 44.616 48.803 43.492 50.332 44.616 49.748 42.797"/>
    <polygon class="cls-9" points="47.903 50.745 49.432 49.621 47.542 49.621 46.958 47.803 46.374 49.621 44.484 49.621 46.013 50.745 45.429 52.564 46.958 51.439 48.487 52.563 47.903 50.745"/>
    <polygon class="cls-9" points="49.805 58.798 51.334 57.674 49.444 57.674 48.86 55.856 48.276 57.674 46.386 57.674 47.915 58.798 47.331 60.617 48.86 59.493 50.389 60.617 49.805 58.798"/>
    <polygon class="cls-9" points="55.523 64.521 57.052 63.397 55.162 63.397 54.578 61.578 53.994 63.397 52.104 63.397 53.633 64.521 53.049 66.34 54.578 65.215 56.107 66.339 55.523 64.521"/>
    <polygon class="cls-9" points="63.609 66.652 65.137 65.528 63.248 65.528 62.664 63.71 62.08 65.528 60.19 65.528 61.719 66.652 61.135 68.47 62.664 67.347 64.193 68.47 63.609 66.652"/>
    <polygon class="cls-9" points="71.476 64.491 73.005 63.367 71.115 63.367 70.531 61.549 69.947 63.367 68.057 63.367 69.586 64.491 69.002 66.31 70.531 65.186 72.06 66.31 71.476 64.491"/>
    <polygon class="cls-9" points="77.198 58.746 78.727 57.622 76.837 57.622 76.253 55.804 75.669 57.622 73.779 57.622 75.308 58.746 74.724 60.565 76.253 59.441 77.782 60.565 77.198 58.746"/>
    <polygon class="cls-9" points="79.305 50.634 80.834 49.51 78.944 49.51 78.36 47.692 77.776 49.51 75.886 49.51 77.415 50.634 76.831 52.453 78.36 51.328 79.889 52.452 79.305 50.634"/>
    <polygon class="cls-4" points="121.082 46.107 113.453 46.107 113.453 52.125 121.983 52.125 121.983 55.194 109.758 55.194 109.758 34.711 121.533 34.711 121.533 37.781 113.453 37.781 113.453 43.069 121.082 43.069 121.082 46.107"/>
    <path class="cls-4" d="M126.7293,55.19418V34.71124h4.205l5.227,8.783a56.59573,56.59573,0,0,1,3.454,6.868h.06c-.24-2.735-.331-5.379-.331-8.509v-7.142h3.425V55.19418h-3.815l-5.287-9.026a67.97592,67.97592,0,0,1-3.634-7.051l-.09.031c.15,2.64405.18,5.349.18,8.72205v7.32394Z"/>
    <polygon class="cls-4" points="159.86 46.107 152.23 46.107 152.23 52.125 160.761 52.125 160.761 55.194 148.536 55.194 148.536 34.711 160.311 34.711 160.311 37.781 152.23 37.781 152.23 43.069 159.86 43.069 159.86 46.107"/>
    <path class="cls-4" d="M169.17149,44.04065h2.193c2.492,0,4.054-1.337,4.054-3.373,0-2.249-1.562-3.282-3.965-3.282a10.51347,10.51347,0,0,0-2.282.182Zm-3.665-9.056a34.69454,34.69454,0,0,1,5.587-.425c2.914,0,4.896.486,6.248,1.641a5.21127,5.21127,0,0,1,1.742,4.102,5.45757,5.45757,0,0,1-3.665,5.136v.091c1.442.547,2.313,1.976,2.824,3.951a41.26683,41.26683,0,0,0,1.592,5.714h-3.815a29.21907,29.21907,0,0,1-1.351-4.832c-.571-2.675-1.533-3.526-3.635-3.587h-1.862v8.419h-3.665Z"/>
    <path class="cls-4" d="M200.3192,54.252a19.85434,19.85434,0,0,1-6.518,1.155c-3.425,0-6.008-.881-7.93-2.735a10.20827,10.20827,0,0,1-2.823-7.537c0-6.473,4.565-10.637,11.264-10.637a13.29111,13.29111,0,0,1,5.376.973l-.811,3.009a10.78059,10.78059,0,0,0-4.596-.882c-4.325,0-7.359,2.583-7.359,7.355,0,4.649,2.824,7.415,7.029,7.415a7.01063,7.01063,0,0,0,2.794-.426V46.837h-3.575V43.889h7.149Z"/>
    <path class="cls-4" d="M111.8683,62.615a1.15947,1.15947,0,0,0-1.168-1.294,1.34427,1.34427,0,0,0-1.306,1.294Zm-2.474.935c.035.957.832,1.37,1.734,1.37a4.4707,4.4707,0,0,0,1.56-.239l.209.924a5.576,5.576,0,0,1-1.966.338,2.59755,2.59755,0,0,1-2.901-2.687,2.689,2.689,0,0,1,2.751-2.849,2.34743,2.34743,0,0,1,2.428,2.577,3.0108,3.0108,0,0,1-.047.566Z"/>
    <polygon class="cls-4" points="115.82 60.526 115.82 62.549 117.993 62.549 117.993 60.526 119.415 60.526 119.415 65.823 117.993 65.823 117.993 63.593 115.82 63.593 115.82 65.823 114.398 65.823 114.398 60.526 115.82 60.526"/>
    <path class="cls-4" d="M124.4647,62.615a1.15809,1.15809,0,0,0-1.167-1.294,1.34351,1.34351,0,0,0-1.306,1.294Zm-2.473.935c.035.957.832,1.37,1.734,1.37a4.47072,4.47072,0,0,0,1.56-.239l.208.924a5.56566,5.56566,0,0,1-1.965.338,2.59756,2.59756,0,0,1-2.901-2.687,2.689,2.689,0,0,1,2.751-2.849,2.34743,2.34743,0,0,1,2.428,2.577,3.10026,3.10026,0,0,1-.047.566Z"/>
    <path class="cls-4" d="M128.4292,63.6044a1.29083,1.29083,0,0,0,.046.37,1.271,1.271,0,0,0,1.248.935c.902,0,1.434-.707,1.434-1.751,0-.935-.486-1.697-1.399-1.697a1.30673,1.30673,0,0,0-1.271.99,1.14126,1.14126,0,0,0-.058.337Zm-1.422-1.316c0-.696-.023-1.261-.046-1.762h1.248l.07.816h.023a2.23476,2.23476,0,0,1,1.93-.936,2.4605,2.4605,0,0,1,2.37,2.698,2.58433,2.58433,0,0,1-2.566,2.838,1.89312,1.89312,0,0,1-1.584-.707h-.023v2.741h-1.422Z"/>
    <polygon class="cls-4" points="137.537 60.526 137.537 61.581 135.236 61.581 135.236 65.823 133.815 65.823 133.815 60.526 137.537 60.526"/>
    <path class="cls-4" d="M139.80141,60.5264v1.904c0,.837-.034,1.402-.081,2.142h.035c.3-.62.474-1.011.763-1.566l1.387-2.48h1.722v5.297h-1.352v-1.893c0-.848.034-1.24.092-2.24h-.046c-.277.631-.462,1.011-.74,1.522-.439.783-.948,1.74-1.433,2.611h-1.699v-5.297Z"/>
    <path class="cls-4" d="M148.412,61.35294a4.04735,4.04735,0,0,0-.706-.054c-.624,0-1.26.206-1.26.794,0,.554.706.794,1.26.794.336,0,.521,0,.706-.011Zm1.41,4.47h-1.41v-2.099h-.532a1.14206,1.14206,0,0,0-.867.348,3.41446,3.41446,0,0,0-.694,1.316,3.85046,3.85046,0,0,1-.219.435h-1.526a2.6997,2.6997,0,0,0,.347-.587,4.44507,4.44507,0,0,1,.843-1.523,1.36326,1.36326,0,0,1,.671-.359v-.032c-.671-.065-1.468-.479-1.468-1.305a1.33345,1.33345,0,0,1,.867-1.229,4.85848,4.85848,0,0,1,1.988-.337,16.13688,16.13688,0,0,1,2,.119Z"/>
    <path class="cls-4" d="M154.4324,63.84369a.8297.8297,0,0,1-.867-.859.83929.83929,0,0,1,.878-.859.85922.85922,0,1,1,0,1.718Z"/>
    <path class="cls-4" d="M160.03729,62.9736c-.67-.174-1.04-.587-1.04-1.109,0-.718.763-1.458,2.37-1.458a3.52258,3.52258,0,0,1,1.803.403l-.266.859a3.17965,3.17965,0,0,0-1.364-.316c-.682,0-1.11.262-1.11.631,0,.424.567.598,1.41.609h.613v.892h-.624c-.902.011-1.584.185-1.584.696,0,.501.613.761,1.306.761a4.01231,4.01231,0,0,0,1.584-.369l.208.891a4.54505,4.54505,0,0,1-2.138.479c-1.191,0-2.474-.424-2.474-1.62a1.436,1.436,0,0,1,1.306-1.305Z"/>
    <path class="cls-4" d="M165.21471,60.5264l.902,2.686c.162.468.266.892.404,1.349h.047a9.12336,9.12336,0,0,0,1.179-3.578v-.457h1.329a2.19742,2.19742,0,0,1,.035.402c0,1.502-1.018,3.274-2.046,4.895h-1.376l-2-5.297Z"/>
    <path class="cls-4" d="M171.051,62.9736c-.67-.174-1.04-.587-1.04-1.109,0-.718.763-1.458,2.37-1.458a3.52255,3.52255,0,0,1,1.803.403l-.266.859a3.17964,3.17964,0,0,0-1.364-.316c-.682,0-1.11.262-1.11.631,0,.424.567.598,1.41.609h.613v.892h-.624c-.902.011-1.584.185-1.584.696,0,.501.613.761,1.306.761a4.0124,4.0124,0,0,0,1.584-.369l.208.891a4.54505,4.54505,0,0,1-2.138.479c-1.191,0-2.474-.424-2.474-1.62a1.436,1.436,0,0,1,1.306-1.305Z"/>
    <path class="cls-4" d="M176.7372,63.72372a1.70391,1.70391,0,0,0,.034.348,1.31443,1.31443,0,0,0,1.249.838c.902,0,1.422-.751,1.422-1.751,0-.936-.497-1.653-1.341-1.653-.717,0-1.364.587-1.364,1.805Zm0,1.588v.75a13.57293,13.57293,0,0,0,.081,1.914h-1.376a9.294,9.294,0,0,1-.127-1.892v-2.425a2.99694,2.99694,0,0,1,.959-2.556,2.79478,2.79478,0,0,1,1.919-.696,2.55592,2.55592,0,0,1,2.694,2.719,2.60885,2.60885,0,0,1-2.601,2.817,1.87,1.87,0,0,1-1.526-.631Z"/>
    <path class="cls-4" d="M183.2899,67.9761a11.38843,11.38843,0,0,0-.196-3.056,14.38329,14.38329,0,0,0-1.965-4.394h1.595a12.41438,12.41438,0,0,1,1.503,3.851h.046a8.29846,8.29846,0,0,0,1.063-3.426c0-.207-.011-.316-.011-.425h1.352a2.068,2.068,0,0,1,.023.392,9.05944,9.05944,0,0,1-1.988,4.665.42643.42643,0,0,0-.069.262c.023.532.023,1.402.034,2.131Z"/>
    <path class="cls-4" d="M188.61749,62.9736c-.67-.174-1.04-.587-1.04-1.109,0-.718.763-1.458,2.37-1.458a3.52258,3.52258,0,0,1,1.803.403l-.266.859a3.1834,3.1834,0,0,0-1.364-.316c-.682,0-1.11.262-1.11.631,0,.424.567.598,1.41.609h.613v.892h-.624c-.902.011-1.584.185-1.584.696,0,.501.613.761,1.306.761a4.01231,4.01231,0,0,0,1.584-.369l.208.891a4.54921,4.54921,0,0,1-2.139.479c-1.19,0-2.473-.424-2.473-1.62a1.436,1.436,0,0,1,1.306-1.305Z"/>
    <path class="cls-4" d="M194.3504,64.3331c0,.435.138.609.532.587l-.081.935a1.842,1.842,0,0,1-.613.087c-.763,0-1.271-.304-1.271-1.479v-3.937h1.433Z"/>
    <path class="cls-4" d="M197.0666,63.23441c0,.892.485,1.642,1.26,1.642a1.418,1.418,0,0,0,1.248-1.141,3.45941,3.45941,0,0,0,.046-.62,2.21621,2.21621,0,0,0-.035-.501,1.296,1.296,0,0,0-1.19-1.174c-.798,0-1.329.794-1.329,1.783Zm4.08-2.708c-.069.718-.162,2.349-.162,3.611,0,.598.197.805.544.794l-.093.946a1.782,1.782,0,0,1-.497.065,1.04927,1.04927,0,0,1-1.098-1.033h-.035a2.09307,2.09307,0,0,1-1.861,1.033,2.40156,2.40156,0,0,1-2.323-2.664,2.69679,2.69679,0,0,1,2.543-2.872,1.74211,1.74211,0,0,1,1.618.925h.046c.035-.326.081-.577.127-.805Z"/>
    <path class="cls-4" d="M208.00771,39.05829a10.30769,10.30769,0,1,1,10.307,10.427,10.36842,10.36842,0,0,1-10.307-10.427"/>
    <path class="cls-8" d="M217.6125,42.967V39.372l-2.694-5.028h1.771l1.024,2.213c.291.64.506,1.126.733,1.715h.026c.215-.55.455-1.088.746-1.715l1.024-2.213h1.758l-2.832,4.99v3.633Z"/>
    <path class="cls-4" d="M231.721,39.05829a10.30769,10.30769,0,1,1,10.307,10.427,10.36842,10.36842,0,0,1-10.307-10.427"/>
    <path class="cls-4" d="M208.00771,62.18118a10.3077,10.3077,0,1,1,10.307,10.428,10.3684,10.3684,0,0,1-10.307-10.428"/>
    <rect class="cls-8" x="214.38699" y="57.46701" width="1.556" height="8.62299"/>
    <polygon class="cls-8" points="222.493 62.265 219.281 62.265 219.281 64.798 222.873 64.798 222.873 66.09 217.726 66.09 217.726 57.467 222.683 57.467 222.683 58.76 219.281 58.76 219.281 60.985 222.493 60.985 222.493 62.265"/>
    <path class="cls-4" d="M231.721,62.18118a10.3077,10.3077,0,1,1,10.307,10.428,10.3684,10.3684,0,0,1-10.307-10.428"/>
    <rect class="cls-8" x="234.85699" y="34.34399" width="1.556" height="8.62299"/>
    <path class="cls-8" d="M239.89,34.344h1.556v5.591c0,2.38-1.139,3.173-2.833,3.173a4.09238,4.09238,0,0,1-1.302-.205l.189-1.267a3.36326,3.36326,0,0,0,.962.154c.884,0,1.428-.409,1.428-1.906Z"/>
    <path class="cls-8" d="M247.30058,39.33344l-.67-2.124c-.164-.524-.304-1.113-.43-1.612h-.025c-.126.499-.253,1.101-.405,1.612l-.658,2.124Zm-2.44,1.18994-.734,2.444h-1.605l2.731-8.623h1.985l2.769,8.623h-1.669l-.771-2.444Z"/>
    <rect class="cls-8" x="237.336" y="57.46802" width="1.556" height="8.62299"/>
    <path class="cls-8" d="M244.8228,62.458l-.671-2.124c-.164-.525-.304-1.114-.43-1.612h-.025c-.126.498-.253,1.1-.405,1.612l-.657,2.124Zm-2.441,1.189-.734,2.444h-1.605l2.731-8.623h1.985l2.769,8.623h-1.669l-.771-2.444Z"/>
    <line class="cls-10" x1="26.5135" y1="112.09299" x2="270.81747" y2="112.09299"/>
  </g>
  <text class="cls-11" transform="translate(34.15381 109.38214)"><tspan class="cls-12" xml:space="preserve">                </tspan><tspan x="54.73438" y="0"> </tspan></text>
  <g class="cls-13">
    <rect class="cls-4" x="-423.30701" y="126.61499" width="1062.98999" height="255.118"/>
    <polygon class="cls-14" points="2.309 220.315 2.309 240.007 114.33 240.007 124.083 230.161 114.33 220.315 2.309 220.315"/>
    <polygon class="cls-15" points="2.309 197.788 2.309 217.48 102.972 217.48 112.724 207.634 102.972 197.788 2.309 197.788"/>
    <polygon class="cls-16" points="2.309 175.261 2.309 194.952 91.618 194.952 101.369 185.107 91.618 175.261 2.309 175.261"/>
    <polygon class="cls-9" points="2.309 242.843 2.309 262.534 125.949 262.534 135.714 252.689 125.949 242.843 2.309 242.843"/>
    <polygon class="cls-17" points="2.309 265.369 2.309 285.062 137.298 285.062 147.066 275.216 137.298 265.369 2.309 265.369"/>
    <polygon class="cls-18" points="2.309 287.896 2.309 307.586 148.648 307.586 158.419 297.74 148.648 287.896 2.309 287.896"/>
    <polygon class="cls-19" points="2.309 310.421 2.309 330.111 159.997 330.111 169.771 320.268 159.997 310.421 2.309 310.421"/>
  </g>
  <text class="cls-20" transform="translate(33.34912 192.16144)"> </text>
  <text class="cls-20" transform="translate(36.96533 190.16144)">A</text>
  <text class="cls-21" transform="translate(46.66162 184.83527)">+</text>
  <text class="cls-20" transform="translate(33.34912 214.66144)"> </text>
  <text class="cls-20" transform="translate(36.96533 212.66144)">A</text>
  <text class="cls-20" transform="translate(33.34912 237.15753)"> </text>
  <text class="cls-20" transform="translate(36.96533 235.15753)">B</text>
  <text class="cls-20" transform="translate(33.34912 257.65363)"> </text>
  <text class="cls-20" transform="translate(36.96484 257.65363)">C</text>
  <text class="cls-20" transform="translate(33.34912 280.14923)"> </text>
  <text class="cls-20" transform="translate(36.96484 280.14923)">D</text>
  <text class="cls-20" transform="translate(33.34912 302.64581)"> </text>
  <text class="cls-20" transform="translate(36.96484 302.64581)">E</text>
  <text class="cls-20" transform="translate(33.34912 325.14093)"> </text>
  <text class="cls-20" transform="translate(36.96484 325.14093)">F</text>
  <text class="cls-22" transform="translate(26.88818 541.5462)">2017</text>
  <text class="cls-22" transform="translate(231.51855 541.5462)">812/2013</text>
  <g id="rating">
    <polyline id="ratingArrow" class="cls-23" points="208.26 185.1 224.9 168.29 270.94 168.29 270.94 202.2 225.21 202.2 208.26 185.1"/>
    <text id="ratingLetter" class="cls-24" transform="translate(219.26953 192.34015)">A</text>
    <text id="ratingPlusses" class="cls-25" transform="translate(235.23047 185.09991)">+</text>
  </g>
  <text transform="translate(189.96973 402.94952)" text-anchor="middle">
    <tspan id="watts" class="cls-26">X</tspan>
    <tspan class="cls-27">w</tspan>
  </text>
  <text transform="translate(189.96973 498.62042)" text-anchor="middle">
    <tspan id="litres" class="cls-26">X</tspan>
    <tspan class="cls-27">L</tspan>
  </text>
  <text id="supplierLine2" class="cls-28" transform="translate(27.38867 106.22736)">X</text>
  <text id="supplierLine1" class="cls-28" transform="translate(27.38867 95.1463)">X</text>
  <text id="modelLine2" class="cls-28" transform="translate(153.07031 106.22736)">X</text>
  <text id="modelLine1" class="cls-28" transform="translate(153.07031 95.1463)">X</text>
</svg>
