<svg xmlns="http://www.w3.org/2000/svg" xmlns:xlink="http://www.w3.org/1999/xlink" id="Layer_1" data-name="Layer 1" width="105mm" height="200mm" viewBox="0 0 297.64001 566.92999" data-rating-increment="22.5" data-supplier-model-chars-per-row="25">
  <defs>
    <style>
      .cls-1, .cls-10, .cls-3, .cls-5 {
        fill: none;
      }

      .cls-2 {
        clip-path: url(#clip-path);
      }

      .cls-10, .cls-3, .cls-5 {
        stroke: #00aeef;
      }

      .cls-3 {
        stroke-width: 4px;
      }

      .cls-20, .cls-21, .cls-24, .cls-25, .cls-4 {
        fill: #fff;
      }

      .cls-5 {
        stroke-width: 2px;
      }

      .cls-27, .cls-6 {
        font-size: 30px;
      }

      .cls-11, .cls-22, .cls-23, .cls-26, .cls-27, .cls-28, .cls-6 {
        fill: #231f20;
      }

      .cls-20, .cls-21, .cls-22, .cls-24, .cls-26, .cls-6 {
        font-family: Calibri-Bold, Calibri;
        font-weight: 700;
      }

      .cls-7 {
        fill: #034ea2;
      }

      .cls-8 {
        fill: #00aeef;
      }

      .cls-9 {
        fill: #fff200;
      }

      .cls-11 {
        font-size: 12px;
      }

      .cls-11, .cls-25, .cls-27, .cls-28 {
        font-family: Calibri;
      }

      .cls-12 {
        letter-spacing: 0.059em;
      }

      .cls-13 {
        clip-path: url(#clip-path-3);
      }

      .cls-14 {
        fill: #bfd730;
      }

      .cls-15 {
        fill: #50b848;
      }

      .cls-16 {
        fill: #00a651;
      }

      .cls-17 {
        fill: #fdb913;
      }

      .cls-18 {
        fill: #f37021;
      }

      .cls-19 {
        fill: #ed1c24;
      }

      .cls-20 {
        font-size: 16px;
      }

      .cls-21 {
        font-size: 9.328px;
      }

      .cls-22 {
        font-size: 10px;
      }

      .cls-24 {
        font-size: 24px;
      }

      .cls-25 {
        font-size: 15px;
      }

      .cls-26 {
        font-size: 45px;
      }

      .cls-28 {
        font-size: 10.9046px;
      }
    </style>
    <clipPath id="clip-path">
      <rect class="cls-1" y="0.00098" width="297.638" height="566.92902"/>
    </clipPath>
    <clipPath id="clip-path-3">
      <rect class="cls-1" x="26.513" y="175.11899" width="145.089" height="155.47301"/>
    </clipPath>
  </defs>
  <title>hot-water-storage-tanks</title>
  <g class="cls-2">
    <path class="cls-3" d="M24.0691,16.166s-7.904,0-7.904,7.90405V542.861s0,7.904,7.904,7.904h249.5s7.904,0,7.904-7.904V24.07007s0-7.90405-7.904-7.90405Z"/>
    <path class="cls-4" d="M38.6116,130.545l-.472.587.707.349.615.144-.323-1.122s-.129.018-.527.042"/>
    <path d="M30.0318,147.901a.31776.31776,0,0,0,.319.308h13.693a.31776.31776,0,0,0,.319-.308V121.644a15.10394,15.10394,0,0,0-7.227-2.029,14.59655,14.59655,0,0,0-7.104,2.024Zm-.42,2.676a1.87781,1.87781,0,0,1-1.876-1.875V120.73c0-.401.332-.771,1.11-1.234a15.16978,15.16978,0,0,1,2.252-1.05,18.57449,18.57449,0,0,1,6.038-1.276,19.0875,19.0875,0,0,1,6.108,1.275c2.265.851,3.414,1.62,3.414,2.285v27.972a1.877,1.877,0,0,1-1.875,1.875Z"/>
    <path class="cls-4" d="M30.5457,121.909a11.25261,11.25261,0,0,1,2.187-.974,14.08745,14.08745,0,0,1,4.403-.806,14.5387,14.5387,0,0,1,4.457.81,12.14711,12.14711,0,0,1,2.256.979v25.777H30.5457Zm6.59-5.253a19.10762,19.10762,0,0,0-6.221,1.31,15.45427,15.45427,0,0,0-2.332,1.089c-.673.4-1.361.913-1.361,1.675v27.972a2.39167,2.39167,0,0,0,2.39,2.389h15.171a2.39081,2.39081,0,0,0,2.389-2.389V120.73c0-.767-.699-1.279-1.382-1.679a15.85217,15.85217,0,0,0-2.365-1.087,19.61709,19.61709,0,0,0-6.289-1.308m-6.785,32.067h13.693a.83014.83014,0,0,0,.833-.822V121.488c0-.452-4.08-2.387-7.741-2.387-3.685,0-7.618,1.935-7.618,2.387v26.413a.83014.83014,0,0,0,.833.822m6.785-31.039c3.796,0,9.008,2.296,9.008,3.046v27.972a1.364,1.364,0,0,1-1.361,1.362H29.6117a1.3642,1.3642,0,0,1-1.362-1.362V120.73c0-.75,5.12-3.046,8.886-3.046"/>
    <path class="cls-4" d="M37.1357,119.101c-3.685,0-7.618,1.935-7.618,2.387v26.413a.83014.83014,0,0,0,.833.822h13.693a.83014.83014,0,0,0,.833-.822V121.488c0-.452-4.08-2.387-7.741-2.387"/>
    <path d="M30.8666,129.439a1.96466,1.96466,0,0,0,1.604,1.068,2.12562,2.12562,0,0,0,1.593-1.051,1.96468,1.96468,0,0,0,1.594,1.051,2.12877,2.12877,0,0,0,1.594-1.051,1.96212,1.96212,0,0,0,1.595,1.051,2.12886,2.12886,0,0,0,1.593-1.051,1.96212,1.96212,0,0,0,1.595,1.051,2.12361,2.12361,0,0,0,1.589-1.047v-1.113a2.122,2.122,0,0,1-1.589,1.046,1.95989,1.95989,0,0,1-1.595-1.051,2.126,2.126,0,0,1-1.593,1.051,1.95989,1.95989,0,0,1-1.595-1.051,2.126,2.126,0,0,1-1.594,1.051,1.96244,1.96244,0,0,1-1.594-1.051,2.12282,2.12282,0,0,1-1.593,1.051,1.96463,1.96463,0,0,1-1.604-1.068l.006-.024h-.014v1.114h.014l-.006.024"/>
    <path d="M30.8666,131.962a1.96247,1.96247,0,0,0,1.604,1.068,2.12442,2.12442,0,0,0,1.593-1.052,1.96372,1.96372,0,0,0,1.594,1.052,2.12757,2.12757,0,0,0,1.594-1.052,1.96116,1.96116,0,0,0,1.595,1.052,2.12765,2.12765,0,0,0,1.593-1.052,1.96116,1.96116,0,0,0,1.595,1.052,2.12361,2.12361,0,0,0,1.589-1.047v-1.114a2.12355,2.12355,0,0,1-1.589,1.047,1.96115,1.96115,0,0,1-1.595-1.052,2.12483,2.12483,0,0,1-1.593,1.052,1.96115,1.96115,0,0,1-1.595-1.052,2.12475,2.12475,0,0,1-1.594,1.052,1.96372,1.96372,0,0,1-1.594-1.052,2.12161,2.12161,0,0,1-1.593,1.052,1.96372,1.96372,0,0,1-1.604-1.069l.006-.023h-.014v1.114h.014l-.006.024"/>
    <path d="M42.0343,134.438a1.95572,1.95572,0,0,1-1.594-1.05,2.12483,2.12483,0,0,1-1.594,1.05,1.95572,1.95572,0,0,1-1.594-1.05,2.12322,2.12322,0,0,1-1.594,1.05,1.96121,1.96121,0,0,1-1.595-1.05,2.11856,2.11856,0,0,1-1.592,1.05,1.9603,1.9603,0,0,1-1.605-1.068l.007-.023h-.015v1.114h.015l-.007.024a1.96482,1.96482,0,0,0,1.605,1.068,2.12841,2.12841,0,0,0,1.592-1.051,1.96255,1.96255,0,0,0,1.595,1.051,2.1331,2.1331,0,0,0,1.594-1.051,1.95705,1.95705,0,0,0,1.594,1.051,2.13473,2.13473,0,0,0,1.594-1.051,1.95705,1.95705,0,0,0,1.594,1.051,2.12786,2.12786,0,0,0,1.59-1.047v-1.114a2.11794,2.11794,0,0,1-1.59,1.046"/>
    <path class="cls-5" d="M114.641,347.806s-7.904,0-7.904,7.904v69.057s0,7.905,7.904,7.905h147.61s7.904,0,7.904-7.905V355.71s0-7.904-7.904-7.904Zm0,94.956s-7.904,0-7.904,7.904v69.058s0,7.904,7.904,7.904h147.61s7.904,0,7.904-7.904V450.666s0-7.904-7.904-7.904Z"/>
  </g>
  <text class="cls-6" transform="translate(196.96582 402.95245)"> </text>
  <text class="cls-6" transform="translate(214.03613 498.62238)"> </text>
  <g class="cls-2">
    
    <rect class="cls-8" x="100.45599" y="26.492" width="170.28799" height="48.06"/>
    
    
    
    
    
    
    
    
    
    
    
    

































    <line class="cls-10" x1="26.5135" y1="112.09299" x2="270.81747" y2="112.09299"/>
  <g id="union-flag" transform="translate(26.965, 26.492) scale(1.602)">
	<path id="blue" fill="#004289" d="M9.59,20L0,26.39V20H9.59z M39.59,0H27.5v8.06L39.59,0z M0,3.61V10h9.59L0,3.61z M17.5,0H5.41
		L17.5,8.06V0z M27.5,30h12.09L27.5,21.94V30z M45,10V3.61L35.41,10H45z M45,26.39V20h-9.59L45,26.39z M5.41,30H17.5v-8.06L5.41,30z
		"/>
	<path id="red" fill="#DC2F34" d="M45,18H25.5v12h-6V18H0v-6h19.5V0h6v12H45V18z M0,2.42L11.38,10h3.61L0,0.01V2.42z M45,27.58
		L33.62,20h-3.61L45,29.99V27.58z M17.5,20.74V20H15L0,30h3.61L17.5,20.74z M27.5,9.26V10H30L45,0h-3.61L27.5,9.26z"/>
</g><path id="energy-heading" d="M7.1581,7.21791H2.33537v3.7413H7.72769v1.90845H0V.13234H7.44305V2.04079H2.33537V5.32836H7.1581Zm3.53413,5.64975V.13234h2.677L16.67314,5.593a37.85159,37.85159,0,0,1,2.18339,4.27032h.038a51.82706,51.82706,0,0,1-.20865-5.29055V.13234h2.1644V12.86766H18.41992L15.07833,7.25572a43.774,43.774,0,0,1-2.2787-4.38342l-.076.0189c.095,1.64379.133,3.32538.133,5.42289v4.55357ZM31.63845,7.21791H26.81573v3.7413h5.392v1.90845H24.48V.13234h7.44305V2.04079H26.81573V5.32836h4.82272ZM35.19126.32139A20.16965,20.16965,0,0,1,38.72282.03781a5.98372,5.98372,0,0,1,3.94949,1.02056,3.228,3.228,0,0,1,1.1012,2.56949,3.347,3.347,0,0,1-2.3357,3.17446V6.859a3.16007,3.16007,0,0,1,1.7851,2.45638,32.106,32.106,0,0,0,1.00653,3.55224H41.83707a16.17761,16.17761,0,0,1-.85455-3.00431c-.37994-1.66269-.96854-2.19171-2.2977-2.22952H37.50764v5.23383H35.19126ZM37.50764,5.933h1.38647c1.57581,0,2.5437-.83119,2.5437-2.09719,0-1.37943-.96789-2.04079-2.487-2.04079a6.74576,6.74576,0,0,0-1.44314.11343Zm19.67341,6.34892A12.70364,12.70364,0,0,1,53.08022,13a6.96331,6.96331,0,0,1-5.032-1.7005,6.3681,6.3681,0,0,1-1.78446-4.68623C46.28243,2.56982,49.1494,0,53.38353,0a8.52961,8.52961,0,0,1,3.3989.60464l-.5126,1.87065a6.6378,6.6378,0,0,0-2.905-.54793c-2.73432,0-4.65207,1.606-4.65207,4.5728,0,2.89088,1.78509,4.61029,4.44342,4.61029a4.91246,4.91246,0,0,0,1.76578-.24577v-3.193H52.66228V5.8388h4.51877Zm6.23045.58573V7.55821L59.36734.13234h2.677l1.51914,3.269c.43661.94462.75924,1.66269,1.11987,2.53169h.038c.304-.81228.66458-1.606,1.10184-2.53169L67.361.13234H70L65.74719,7.50149v5.36617Z" fill="#fff" transform="translate(114.41590461530343, 39.85376885441002) scale(1.602)"/></g>
  <text class="cls-11" transform="translate(34.15381 109.38214)"><tspan class="cls-12" xml:space="preserve">                </tspan><tspan x="54.73438" y="0"> </tspan></text>
  <g class="cls-13">
    <rect class="cls-4" x="-423.30701" y="126.61499" width="1062.98999" height="255.118"/>
    <polygon class="cls-14" points="2.309 220.315 2.309 240.007 114.33 240.007 124.083 230.161 114.33 220.315 2.309 220.315"/>
    <polygon class="cls-15" points="2.309 197.788 2.309 217.48 102.972 217.48 112.724 207.634 102.972 197.788 2.309 197.788"/>
    <polygon class="cls-16" points="2.309 175.261 2.309 194.952 91.618 194.952 101.369 185.107 91.618 175.261 2.309 175.261"/>
    <polygon class="cls-9" points="2.309 242.843 2.309 262.534 125.949 262.534 135.714 252.689 125.949 242.843 2.309 242.843"/>
    <polygon class="cls-17" points="2.309 265.369 2.309 285.062 137.298 285.062 147.066 275.216 137.298 265.369 2.309 265.369"/>
    <polygon class="cls-18" points="2.309 287.896 2.309 307.586 148.648 307.586 158.419 297.74 148.648 287.896 2.309 287.896"/>
    <polygon class="cls-19" points="2.309 310.421 2.309 330.111 159.997 330.111 169.771 320.268 159.997 310.421 2.309 310.421"/>
  </g>
  <text class="cls-20" transform="translate(33.34912 192.16144)"> </text>
  <text class="cls-20" transform="translate(36.96533 190.16144)">A</text>
  <text class="cls-21" transform="translate(46.66162 184.83527)">+</text>
  <text class="cls-20" transform="translate(33.34912 214.66144)"> </text>
  <text class="cls-20" transform="translate(36.96533 212.66144)">A</text>
  <text class="cls-20" transform="translate(33.34912 237.15753)"> </text>
  <text class="cls-20" transform="translate(36.96533 235.15753)">B</text>
  <text class="cls-20" transform="translate(33.34912 257.65363)"> </text>
  <text class="cls-20" transform="translate(36.96484 257.65363)">C</text>
  <text class="cls-20" transform="translate(33.34912 280.14923)"> </text>
  <text class="cls-20" transform="translate(36.96484 280.14923)">D</text>
  <text class="cls-20" transform="translate(33.34912 302.64581)"> </text>
  <text class="cls-20" transform="translate(36.96484 302.64581)">E</text>
  <text class="cls-20" transform="translate(33.34912 325.14093)"> </text>
  <text class="cls-20" transform="translate(36.96484 325.14093)">F</text>
  <text class="cls-22" transform="translate(26.88818 541.5462)">2017</text>
  <text class="cls-22" transform="translate(231.51855 541.5462)">812/2013</text>
  <g id="rating">
    <polyline id="ratingArrow" class="cls-23" points="208.26 185.1 224.9 168.29 270.94 168.29 270.94 202.2 225.21 202.2 208.26 185.1"/>
    <text id="ratingLetter" class="cls-24" transform="translate(219.26953 192.34015)">A</text>
    <text id="ratingPlusses" class="cls-25" transform="translate(235.23047 185.09991)">+</text>
  </g>
  <text transform="translate(189.96973 402.94952)" text-anchor="middle">
    <tspan id="watts" class="cls-26">X</tspan>
    <tspan class="cls-27">w</tspan>
  </text>
  <text transform="translate(189.96973 498.62042)" text-anchor="middle">
    <tspan id="litres" class="cls-26">X</tspan>
    <tspan class="cls-27">L</tspan>
  </text>
  <text id="supplierLine2" class="cls-28" transform="translate(27.38867 106.22736)">X</text>
  <text id="supplierLine1" class="cls-28" transform="translate(27.38867 95.1463)">X</text>
  <text id="modelLine2" class="cls-28" transform="translate(153.07031 106.22736)">X</text>
  <text id="modelLine1" class="cls-28" transform="translate(153.07031 95.1463)">X</text>
</svg>