<svg xmlns="http://www.w3.org/2000/svg" xmlns:xlink="http://www.w3.org/1999/xlink" id="Layer_1" data-name="Layer 1" width="210mm" height="297mm" viewBox="0 0 595.28003 841.89001" data-rating-increment="50.8111" data-supplier-model-chars-per-row="25">
  <defs>
    <style>
      #solarCollector,
      #hotWaterStorageTank {
        visibility: hidden;
      }

      #solarCollector.hasSolarCollector,
      #hotWaterStorageTank.hasHotWaterStorageTank {
        visibility: visible;
      }

      .cls-1, .cls-13, .cls-3, .cls-4, .cls-9 {
        fill: none;
      }

      .cls-2 {
        clip-path: url(#clip-path);
      }

      .cls-13, .cls-3, .cls-4, .cls-9 {
        stroke: #00aeef;
      }

      .cls-3 {
        stroke-width: 3px;
      }

      .cls-4 {
        stroke-width: 6px;
      }

      .cls-5 {
        fill: #034ea2;
      }

      .cls-14, .cls-6 {
        fill: #00aeef;
      }

      .cls-7 {
        fill: #fff200;
      }

      .cls-24, .cls-25, .cls-31, .cls-32, .cls-33, .cls-34, .cls-8 {
        fill: #fff;
      }

      .cls-9 {
        stroke-width: 2px;
      }

      .cls-10 {
        font-size: 25.865px;
      }

      .cls-10, .cls-12, .cls-15, .cls-27, .cls-35, .cls-36 {
        fill: #231f20;
      }

      .cls-10, .cls-32, .cls-34, .cls-36 {
        font-family: Calibri;
      }

      .cls-11 {
        letter-spacing: 0.05901em;
      }

      .cls-12 {
        font-size: 12px;
      }

      .cls-12, .cls-14, .cls-24, .cls-25, .cls-31, .cls-33, .cls-35 {
        font-family: Calibri-Bold, Calibri;
        font-weight: 700;
      }

      .cls-13 {
        stroke-width: 4px;
      }

      .cls-14 {
        font-size: 50px;
      }

      .cls-16 {
        clip-path: url(#clip-path-5);
      }

      .cls-17 {
        clip-path: url(#clip-path-6);
      }

      .cls-18 {
        fill: #ed1c24;
      }

      .cls-19 {
        fill: #bfd730;
      }

      .cls-20 {
        fill: #50b848;
      }

      .cls-21 {
        fill: #00a651;
      }

      .cls-22 {
        fill: #fdb913;
      }

      .cls-23 {
        fill: #f37021;
      }

      .cls-24 {
        font-size: 30px;
      }

      .cls-25 {
        font-size: 17.49px;
      }

      .cls-26 {
        letter-spacing: 0.011em;
      }

      .cls-27, .cls-30 {
        fill-rule: evenodd;
      }

      .cls-28 {
        clip-path: url(#clip-path-8);
      }

      .cls-29, .cls-30 {
        fill: #020304;
      }

      .cls-31 {
        font-size: 40px;
      }

      .cls-32 {
        font-size: 23.32px;
      }

      .cls-33 {
        font-size: 28px;
      }

      .cls-34 {
        font-size: 17px;
      }

      .cls-35, .cls-36 {
        font-size: 22px;
      }
    </style>
    <clipPath id="clip-path">
      <rect class="cls-1" width="595.276" height="841.89001"/>
    </clipPath>
    <clipPath id="clip-path-5">
      <rect class="cls-1" x="270.974" y="264.005" width="191.78198" height="526.57301"/>
    </clipPath>
    <clipPath id="clip-path-6">
      <rect class="cls-1" x="270.974" y="264.005" width="191.78198" height="508.26701"/>
    </clipPath>
    <clipPath id="clip-path-8">
      <rect class="cls-1" x="80.221" y="478.20001" width="69.46799" height="59.758"/>
    </clipPath>
  </defs>
  <title>packages-of-water-heater-and-solar-device</title>
  <g class="cls-2">
    <path class="cls-3" d="M35.545,243.558s-7.905,0-7.905,7.90406v100.632s0,7.904,7.905,7.904h208.9s7.905,0,7.905-7.904V251.4621s0-7.90406-7.905-7.90406Zm0,126.857s-7.905,0-7.905,7.904v416.426s0,7.904,7.905,7.904h208.9s7.905,0,7.905-7.904v-416.426s0-7.904-7.905-7.904ZM270.67,243.558s-7.904,0-7.904,7.90406v543.283s0,7.904,7.904,7.904H559.74s7.904,0,7.904-7.904V251.4621s0-7.90406-7.904-7.90406Z"/>
    <path class="cls-4" d="M26.0862,16.165s-9.921,0-9.921,9.921V815.804s0,9.921,9.921,9.921h543.103s9.922,0,9.922-9.921V26.08606s0-9.921-9.922-9.921Z"/>
    
    <rect class="cls-6" x="190.03796" y="27.22101" width="378.40302" height="105.55402"/>
    
    
    
    
    
    
    
    
    
    
    
    

































    <line class="cls-9" x1="26.8437" y1="191.33801" x2="568.34369" y2="190.48004"/>
  <g id="union-flag" transform="translate(26.729, 27.22101) scale(3.518467333333333)">
	<path id="blue" fill="#004289" d="M9.59,20L0,26.39V20H9.59z M39.59,0H27.5v8.06L39.59,0z M0,3.61V10h9.59L0,3.61z M17.5,0H5.41
		L17.5,8.06V0z M27.5,30h12.09L27.5,21.94V30z M45,10V3.61L35.41,10H45z M45,26.39V20h-9.59L45,26.39z M5.41,30H17.5v-8.06L5.41,30z
		"/>
	<path id="red" fill="#DC2F34" d="M45,18H25.5v12h-6V18H0v-6h19.5V0h6v12H45V18z M0,2.42L11.38,10h3.61L0,0.01V2.42z M45,27.58
		L33.62,20h-3.61L45,29.99V27.58z M17.5,20.74V20H15L0,30h3.61L17.5,20.74z M27.5,9.26V10H30L45,0h-3.61L27.5,9.26z"/>
</g><path id="energy-heading" d="M7.1581,7.21791H2.33537v3.7413H7.72769v1.90845H0V.13234H7.44305V2.04079H2.33537V5.32836H7.1581Zm3.53413,5.64975V.13234h2.677L16.67314,5.593a37.85159,37.85159,0,0,1,2.18339,4.27032h.038a51.82706,51.82706,0,0,1-.20865-5.29055V.13234h2.1644V12.86766H18.41992L15.07833,7.25572a43.774,43.774,0,0,1-2.2787-4.38342l-.076.0189c.095,1.64379.133,3.32538.133,5.42289v4.55357ZM31.63845,7.21791H26.81573v3.7413h5.392v1.90845H24.48V.13234h7.44305V2.04079H26.81573V5.32836h4.82272ZM35.19126.32139A20.16965,20.16965,0,0,1,38.72282.03781a5.98372,5.98372,0,0,1,3.94949,1.02056,3.228,3.228,0,0,1,1.1012,2.56949,3.347,3.347,0,0,1-2.3357,3.17446V6.859a3.16007,3.16007,0,0,1,1.7851,2.45638,32.106,32.106,0,0,0,1.00653,3.55224H41.83707a16.17761,16.17761,0,0,1-.85455-3.00431c-.37994-1.66269-.96854-2.19171-2.2977-2.22952H37.50764v5.23383H35.19126ZM37.50764,5.933h1.38647c1.57581,0,2.5437-.83119,2.5437-2.09719,0-1.37943-.96789-2.04079-2.487-2.04079a6.74576,6.74576,0,0,0-1.44314.11343Zm19.67341,6.34892A12.70364,12.70364,0,0,1,53.08022,13a6.96331,6.96331,0,0,1-5.032-1.7005,6.3681,6.3681,0,0,1-1.78446-4.68623C46.28243,2.56982,49.1494,0,53.38353,0a8.52961,8.52961,0,0,1,3.3989.60464l-.5126,1.87065a6.6378,6.6378,0,0,0-2.905-.54793c-2.73432,0-4.65207,1.606-4.65207,4.5728,0,2.89088,1.78509,4.61029,4.44342,4.61029a4.91246,4.91246,0,0,0,1.76578-.24577v-3.193H52.66228V5.8388h4.51877Zm6.23045.58573V7.55821L59.36734.13234h2.677l1.51914,3.269c.43661.94462.75924,1.66269,1.11987,2.53169h.038c.304-.81228.66458-1.606,1.10184-2.53169L67.361.13234H70L65.74719,7.50149v5.36617Z" fill="#fff" transform="translate(218.79713430673803, 56.56741900736105) scale(3.518467333333333)"/></g>
  <text class="cls-10" transform="translate(45.84961 184.63513)"><tspan class="cls-11" xml:space="preserve">                </tspan><tspan x="117.9751" y="0"> </tspan></text>
  <text class="cls-12" transform="translate(27.55078 817.57751)">2015</text>
  <g class="cls-2">
    <rect class="cls-8" x="91.544" y="635.02101" width="44.90299" height="77.506"/>
    <path class="cls-8" d="M117.18,666.28091l-1.062,1.322,1.592.784,1.384.325-.729-2.526s-.289.041-1.185.095"/>
    <path d="M97.8691,705.34593a.7143.7143,0,0,0,.717.693h30.821a.715.715,0,0,0,.717-.693v-59.099c-1.354-1.125-8.993-4.568-16.266-4.568-7.193,0-14.684,3.439-15.989,4.557Zm-.946,6.024a4.22573,4.22573,0,0,1-4.222-4.22v-62.959c0-.905.747-1.736,2.498-2.778a34.1044,34.1044,0,0,1,5.068-2.365c2.263-.863,8.118-2.871,13.591-2.871,5.516,0,11.452,2.007,13.749,2.869,5.098,1.915,7.683,3.647,7.683,5.145v62.959a4.22467,4.22467,0,0,1-4.22,4.22Z"/>
    <path class="cls-8" d="M99.026,646.84392a25.27511,25.27511,0,0,1,4.921-2.194,31.73115,31.73115,0,0,1,9.911-1.814,32.78085,32.78085,0,0,1,10.033,1.823,27.34725,27.34725,0,0,1,5.076,2.204v58.019H99.026Zm14.832-11.823c-5.665,0-11.68,2.061-14.003,2.946a34.9946,34.9946,0,0,0-5.248,2.452c-1.514.902-3.062,2.055-3.062,3.772v62.959a5.38316,5.38316,0,0,0,5.378,5.377H131.07a5.383,5.383,0,0,0,5.377-5.377v-62.959c0-1.727-1.572-2.88-3.111-3.781a35.74815,35.74815,0,0,0-5.323-2.447c-2.355-.884-8.449-2.942-14.155-2.942m-15.272,72.174h30.821a1.86665,1.86665,0,0,0,1.873-1.849v-59.451c0-1.016-9.181-5.373-17.422-5.373-8.294,0-17.146,4.357-17.146,5.373v59.451a1.86687,1.86687,0,0,0,1.874,1.849m15.272-69.861c8.543,0,20.276,5.168,20.276,6.857v62.959a3.06875,3.06875,0,0,1-3.064,3.064H96.923a3.069,3.069,0,0,1-3.065-3.064v-62.959c0-1.689,11.524-6.857,20-6.857"/>
    <path class="cls-8" d="M113.858,640.522c-8.294,0-17.146,4.357-17.146,5.373v59.451a1.86708,1.86708,0,0,0,1.874,1.85h30.821a1.86685,1.86685,0,0,0,1.873-1.85V645.895c0-1.016-9.181-5.373-17.422-5.373"/>
    <path d="M99.7475,663.791a4.418,4.418,0,0,0,3.612,2.404,4.78544,4.78544,0,0,0,3.584-2.366,4.4191,4.4191,0,0,0,3.589,2.366,4.78838,4.78838,0,0,0,3.587-2.366,4.40989,4.40989,0,0,0,3.59,2.366,4.79809,4.79809,0,0,0,3.587-2.366,4.40423,4.40423,0,0,0,3.588,2.366,4.78339,4.78339,0,0,0,3.577-2.355v-2.507a4.7708,4.7708,0,0,1-3.577,2.354,4.403,4.403,0,0,1-3.588-2.365,4.78553,4.78553,0,0,1-3.587,2.365,4.40866,4.40866,0,0,1-3.59-2.365,4.77589,4.77589,0,0,1-3.587,2.365,4.41787,4.41787,0,0,1-3.589-2.365,4.773,4.773,0,0,1-3.584,2.365,4.42116,4.42116,0,0,1-3.612-2.403c.004-.019.01-.034.014-.052h-.032v2.507h.032c-.004.019-.01.034-.014.052"/>
    <path d="M99.7475,669.46991a4.42026,4.42026,0,0,0,3.612,2.404,4.78427,4.78427,0,0,0,3.584-2.367,4.42267,4.42267,0,0,0,3.589,2.367,4.78721,4.78721,0,0,0,3.587-2.367,4.41344,4.41344,0,0,0,3.59,2.367,4.79691,4.79691,0,0,0,3.587-2.367,4.40777,4.40777,0,0,0,3.588,2.367,4.78218,4.78218,0,0,0,3.577-2.356v-2.507a4.77934,4.77934,0,0,1-3.577,2.356,4.40551,4.40551,0,0,1-3.588-2.367,4.79408,4.79408,0,0,1-3.587,2.367,4.41116,4.41116,0,0,1-3.59-2.367,4.7844,4.7844,0,0,1-3.587,2.367,4.42038,4.42038,0,0,1-3.589-2.367,4.78146,4.78146,0,0,1-3.584,2.367,4.42366,4.42366,0,0,1-3.612-2.405c.004-.017.01-.034.014-.052h-.032v2.507h.032c-.004.018-.01.035-.014.053"/>
    <path d="M124.884,675.04492a4.40931,4.40931,0,0,1-3.589-2.365,4.78346,4.78346,0,0,1-3.586,2.365,4.408,4.408,0,0,1-3.589-2.365,4.7817,4.7817,0,0,1-3.588,2.365,4.42007,4.42007,0,0,1-3.589-2.365,4.77389,4.77389,0,0,1-3.585,2.365,4.417,4.417,0,0,1-3.611-2.405c.004-.018.01-.032.014-.052h-.032v2.507h.032c-.004.02-.01.035-.014.054a4.41665,4.41665,0,0,0,3.611,2.403,4.78219,4.78219,0,0,0,3.585-2.365,4.41566,4.41566,0,0,0,3.589,2.365,4.79,4.79,0,0,0,3.588-2.365,4.40359,4.40359,0,0,0,3.589,2.365,4.7918,4.7918,0,0,0,3.586-2.365,4.40493,4.40493,0,0,0,3.589,2.365,4.78531,4.78531,0,0,0,3.578-2.356v-2.506a4.77539,4.77539,0,0,1-3.578,2.355"/>
    <rect class="cls-13" x="193.183" y="492.99902" width="30.015" height="30.01599"/>
  </g>
  <text class="cls-14" transform="translate(42.04297 520.93787)">+</text>
  <g class="cls-2">
    <rect class="cls-13" x="193.41901" y="658.76601" width="30.01601" height="30.01601"/>
  </g>
  <text class="cls-14" transform="translate(42.04297 686.71326)">+</text>
  <g class="cls-2">
    <rect class="cls-8" x="88.483" y="266.17303" width="44.903" height="70.30798"/>
    <path class="cls-15" d="M122.085,334.04294H99.783v-9.651h22.302Zm-31.02-67.87a2.58433,2.58433,0,0,0-2.582,2.581v53.056a2.58522,2.58522,0,0,0,2.582,2.582h6.252v9.507a2.58458,2.58458,0,0,0,2.582,2.582h22.014a2.58458,2.58458,0,0,0,2.582-2.582v-9.507h6.31a2.585,2.585,0,0,0,2.581-2.582V268.754a2.58411,2.58411,0,0,0-2.581-2.581Zm25.246,66.015a3.29148,3.29148,0,1,1,3.291-3.291,3.29577,3.29577,0,0,1-3.291,3.291m-10.754,0a3.29148,3.29148,0,1,1,3.293-3.291,3.29471,3.29471,0,0,1-3.293,3.291"/>
    <path class="cls-8" d="M130.982,320.29a1.57345,1.57345,0,0,1-1.579,1.558H92.466a1.57194,1.57194,0,0,1-1.578-1.558V270.191a1.57192,1.57192,0,0,1,1.578-1.558h36.937a1.57344,1.57344,0,0,1,1.579,1.558Z"/>
    <path class="cls-15" d="M110.935,276.005a16.24,16.24,0,1,0,16.239,16.24006A16.259,16.259,0,0,0,110.935,276.005"/>
    <path class="cls-8" d="M105.701,302.439l-.381-.225-.898-.535-.382-.228.227-.38a6.97025,6.97025,0,0,0,1.122-3.634,10.73884,10.73884,0,0,0-1.188-4.242l-.048-.111a11.94018,11.94018,0,0,1-1.3-4.834,8.36773,8.36773,0,0,1,1.384-4.474l.232-.378.378.232.89.546.376.232-.231.378a6.4976,6.4976,0,0,0-1.097,3.464,10.56792,10.56792,0,0,0,1.187,4.176l.021.048a12.38713,12.38713,0,0,1,1.328,4.963,8.88248,8.88248,0,0,1-1.393,4.621Z"/>
    <path class="cls-8" d="M104.148,301.424l1.526.908.186-.314a8.80249,8.80249,0,0,0,1.382-4.58,12.3097,12.3097,0,0,0-1.32-4.931l-.022-.05a10.61651,10.61651,0,0,1-1.194-4.208,6.58925,6.58925,0,0,1,1.109-3.504l.191-.311-1.512-.928-.191.311a8.31447,8.31447,0,0,0-1.372,4.432,11.88429,11.88429,0,0,0,1.294,4.803l.048.112a10.79232,10.79232,0,0,1,1.194,4.273,7.05685,7.05685,0,0,1-1.132,3.674Zm1.58,1.123-1.794-1.068.267-.448a6.90791,6.90791,0,0,0,1.11-3.594,10.70043,10.70043,0,0,0-1.18-4.209l-.05-.112a12.01248,12.01248,0,0,1-1.306-4.867,8.458,8.458,0,0,1,1.395-4.515l.273-.444,1.778,1.092-.273.444a6.45885,6.45885,0,0,0-1.086,3.42395,10.514,10.514,0,0,0,1.182,4.144l.021.049a12.44974,12.44974,0,0,1,1.334,4.995,8.949,8.949,0,0,1-1.404,4.661Z"/>
    <path class="cls-8" d="M106.237,283.9339a.965.965,0,1,1-.965-.96594.965.965,0,0,1,.965.96594"/>
    <path class="cls-8" d="M105.272,283.04694a.88651.88651,0,1,0,.887.887.88814.88814,0,0,0-.887-.887m0,1.93a1.043,1.043,0,1,1,1.043-1.043,1.04515,1.04515,0,0,1-1.043,1.043"/>
    <path class="cls-8" d="M105.832,301.952a.965.965,0,1,1-.966-.96595.96581.96581,0,0,1,.966.96595"/>
    <path class="cls-8" d="M104.866,301.0639a.887.887,0,1,0,.887.888.88834.88834,0,0,0-.887-.888m0,1.93a1.043,1.043,0,1,1,1.044-1.042,1.0441,1.0441,0,0,1-1.044,1.042"/>
    <path class="cls-8" d="M111.549,302.439l-.381-.225-.898-.535-.381-.228.227-.38a6.99608,6.99608,0,0,0,1.121-3.634,10.7555,10.7555,0,0,0-1.188-4.242l-.048-.111a11.94,11.94,0,0,1-1.3-4.834,8.36773,8.36773,0,0,1,1.384-4.474l.231-.378.378.232.89.546.377.232-.231.378a6.49942,6.49942,0,0,0-1.098,3.464,10.56993,10.56993,0,0,0,1.188,4.176l.021.048a12.38662,12.38662,0,0,1,1.327,4.963,8.87164,8.87164,0,0,1-1.392,4.621Z"/>
    <path class="cls-8" d="M109.996,301.424l1.526.908.187-.314a8.81012,8.81012,0,0,0,1.381-4.58,12.31455,12.31455,0,0,0-1.321-4.932l-.021-.049a10.61635,10.61635,0,0,1-1.194-4.208,6.58308,6.58308,0,0,1,1.109-3.504l.191-.312-1.512-.927-.191.311a8.30073,8.30073,0,0,0-1.372,4.432,11.8895,11.8895,0,0,0,1.294,4.804l.048.111a10.81122,10.81122,0,0,1,1.194,4.274,7.06536,7.06536,0,0,1-1.132,3.673Zm1.58,1.123-1.794-1.068.267-.448a6.90871,6.90871,0,0,0,1.109-3.594,10.67276,10.67276,0,0,0-1.181-4.211l-.048-.111a12.011,12.011,0,0,1-1.307-4.866,8.463,8.463,0,0,1,1.396-4.515l.273-.444,1.777,1.092-.272.444A6.44389,6.44389,0,0,0,110.71,288.25a10.49735,10.49735,0,0,0,1.182,4.144l.021.049a12.4616,12.4616,0,0,1,1.334,4.995,8.95817,8.95817,0,0,1-1.404,4.661Z"/>
    <path class="cls-8" d="M112.085,283.9339a.965.965,0,1,1-.965-.96594.965.965,0,0,1,.965.96594"/>
    <path class="cls-8" d="M111.12,283.04694a.88651.88651,0,1,0,.886.887.88814.88814,0,0,0-.886-.887m0,1.93a1.043,1.043,0,1,1,1.043-1.043,1.04515,1.04515,0,0,1-1.043,1.043"/>
    <path class="cls-8" d="M111.679,301.952a.965.965,0,1,1-.965-.96595.965.965,0,0,1,.965.96595"/>
    <path class="cls-8" d="M110.714,301.0639a.887.887,0,1,0,.887.888.88834.88834,0,0,0-.887-.888m0,1.93a1.043,1.043,0,1,1,1.043-1.042,1.0441,1.0441,0,0,1-1.043,1.042"/>
    <path class="cls-8" d="M117.397,302.439l-.381-.225-.898-.535-.381-.228.226-.38a6.98864,6.98864,0,0,0,1.122-3.634,10.7555,10.7555,0,0,0-1.188-4.242l-.049-.111a11.972,11.972,0,0,1-1.3-4.834,8.38509,8.38509,0,0,1,1.384-4.474l.232-.378.378.232.89.546.377.232-.231.378a6.49942,6.49942,0,0,0-1.098,3.464,10.58471,10.58471,0,0,0,1.187,4.176l.022.048a12.38662,12.38662,0,0,1,1.327,4.963,8.87164,8.87164,0,0,1-1.392,4.621Z"/>
    <path class="cls-8" d="M115.844,301.424l1.526.908.187-.314a8.79925,8.79925,0,0,0,1.38-4.58,12.28757,12.28757,0,0,0-1.319-4.929l-.022-.052a10.63448,10.63448,0,0,1-1.195-4.208,6.59974,6.59974,0,0,1,1.11-3.504l.191-.311-1.512-.928-.192.311a8.31289,8.31289,0,0,0-1.371,4.432,11.87338,11.87338,0,0,0,1.294,4.804l.047.111a10.81729,10.81729,0,0,1,1.195,4.273,7.0587,7.0587,0,0,1-1.133,3.674Zm1.58,1.123-1.795-1.068.266-.448a6.89126,6.89126,0,0,0,1.111-3.594,10.70016,10.70016,0,0,0-1.18-4.21l-.049-.111a12.01994,12.01994,0,0,1-1.307-4.867,8.4752,8.4752,0,0,1,1.395-4.515l.274-.444,1.777,1.092-.272.444a6.44133,6.44133,0,0,0-1.086,3.42395,10.51212,10.51212,0,0,0,1.181,4.144l.021.049a12.43564,12.43564,0,0,1,1.334,4.995,8.94991,8.94991,0,0,1-1.403,4.661Z"/>
    <path class="cls-8" d="M117.932,283.9339a.9645.9645,0,1,1-.965-.96594.965.965,0,0,1,.965.96594"/>
    <path class="cls-8" d="M116.967,283.04694a.88651.88651,0,1,0,.887.887.88878.88878,0,0,0-.887-.887m0,1.93a1.043,1.043,0,1,1,1.044-1.043,1.04494,1.04494,0,0,1-1.044,1.043"/>
    <path class="cls-8" d="M117.527,301.952a.965.965,0,1,1-.965-.96595.965.965,0,0,1,.965.96595"/>
    <path class="cls-8" d="M116.562,301.0639a.887.887,0,1,0,.887.888.88834.88834,0,0,0-.887-.888m0,1.93a1.043,1.043,0,1,1,1.043-1.042,1.04432,1.04432,0,0,1-1.043,1.042"/>
  </g>
  <g class="cls-16">
    <rect class="cls-8" x="-767.737" y="217.76001" width="2310.46698" height="554.51202"/>
  </g>
  <g class="cls-17">
    <polygon class="cls-18" points="156.449 730.04 156.449 772.272 431.734 772.272 452.422 751.443 431.167 730.04 156.449 730.04"/>
    <polygon class="cls-7" points="156.45 425.306 156.45 468.108 360.814 468.108 382.01 446.707 360.814 425.306 156.45 425.306"/>
    <polygon class="cls-19" points="156.45 374.476 156.45 417.278 349.166 417.278 370.367 395.877 349.166 374.476 156.45 374.476"/>
    <polygon class="cls-20" points="156.45 323.648 156.45 366.447 337.527 366.447 358.728 345.049 337.527 323.648 156.45 323.648"/>
    <polygon class="cls-21" points="156.45 272.818 156.45 315.617 325.935 315.617 347.134 294.219 325.935 272.818 156.45 272.818"/>
    <polygon class="cls-22" points="156.45 476.119 156.45 518.919 373.029 518.919 394.25 497.52 373.029 476.119 156.45 476.119"/>
    <polygon class="cls-23" points="156.45 526.93 156.45 569.734 384.656 569.734 405.887 548.333 384.656 526.93 156.45 526.93"/>
    <polygon class="cls-18" points="156.45 577.746 156.45 620.543 396.284 620.543 417.518 599.142 396.284 577.746 156.45 577.746"/>
    <polygon class="cls-18" points="156.45 628.555 156.45 671.352 407.911 671.352 429.155 649.958 407.911 628.555 156.45 628.555"/>
    <polygon class="cls-18" points="156.45 679.364 156.45 722.167 419.539 722.167 440.794 700.767 419.539 679.364 156.45 679.364"/>
  </g>
  <text class="cls-24" transform="translate(274.73047 303.12439)"> </text>
  <text class="cls-24" transform="translate(281.51025 303.12439)">A</text>
  <text class="cls-25" transform="translate(299.69141 293.13513)"><tspan class="cls-26">++</tspan><tspan x="17.80664" y="0">+</tspan></text>
  <text class="cls-24" transform="translate(274.73047 353.83044)"> </text>
  <text class="cls-24" transform="translate(281.51025 353.83044)">A</text>
  <text class="cls-25" transform="translate(299.69141 343.85388)"><tspan class="cls-26">+</tspan><tspan x="8.90332" y="0">+</tspan></text>
  <text class="cls-24" transform="translate(274.73047 404.53064)"> </text>
  <text class="cls-24" transform="translate(281.51025 404.53064)">A</text>
  <text class="cls-25" transform="translate(299.69141 394.54138)">+</text>
  <text class="cls-24" transform="translate(274.73047 460.61951)"> </text>
  <text class="cls-24" transform="translate(281.51074 455.24939)">A</text>
  <text class="cls-24" transform="translate(274.73047 505.94958)"> </text>
  <text class="cls-24" transform="translate(281.51025 505.94958)">B</text>
  <text class="cls-24" transform="translate(274.73047 556.64978)"> </text>
  <text class="cls-24" transform="translate(281.51025 556.64978)">C</text>
  <text class="cls-24" transform="translate(274.73047 607.34998)"> </text>
  <text class="cls-24" transform="translate(281.51025 607.34998)">D</text>
  <text class="cls-24" transform="translate(274.73047 658.04919)"> </text>
  <text class="cls-24" transform="translate(281.51025 658.04919)">E</text>
  <text class="cls-24" transform="translate(274.73047 708.74939)"> </text>
  <text class="cls-24" transform="translate(281.51025 708.74939)">F</text>
  <text class="cls-24" transform="translate(274.73047 759.44958)"> </text>
  <text class="cls-24" transform="translate(281.51025 759.44958)">G</text>
  <g id="solarIcon">
    <g class="cls-2">
      <rect class="cls-8" x="72.992" y="478.20001" width="82.008" height="59.61401"/>
      <path class="cls-27" d="M125.621,478.2h1.168a.48825.48825,0,0,1,.442.499l.447,6.535a.4628.4628,0,0,1-.44.501h-2.064a.465.465,0,0,1-.442-.501l.448-6.535a.48672.48672,0,0,1,.441-.499"/>
      <path class="cls-27" d="M137.499,481.1539l1.011.584a.48906.48906,0,0,1,.133.654l-2.878,5.881a.46519.46519,0,0,1-.633.214l-1.787-1.033a.46306.46306,0,0,1-.133-.654l3.654-5.435a.48861.48861,0,0,1,.633-.211"/>
      <path class="cls-27" d="M146.31,489.651l.583,1.011a.48825.48825,0,0,1-.213.633l-5.434,3.655a.46545.46545,0,0,1-.655-.133l-1.031-1.787a.4654.4654,0,0,1,.213-.633l5.881-2.879a.49109.49109,0,0,1,.656.133"/>
      <path class="cls-27" d="M149.689,501.414v1.169a.48921.48921,0,0,1-.5.441l-6.534.447a.46376.46376,0,0,1-.5-.44v-2.064a.46605.46605,0,0,1,.5-.443l6.534.449a.48772.48772,0,0,1,.5.441"/>
      <path class="cls-27" d="M146.735,513.2919l-.584,1.012a.49113.49113,0,0,1-.655.132l-5.881-2.88a.46141.46141,0,0,1-.212-.632l1.031-1.786a.4633.4633,0,0,1,.654-.133l5.435,3.654a.49075.49075,0,0,1,.212.633"/>
      <path class="cls-27" d="M105.361,490.39l.584-1.012a.48931.48931,0,0,1,.654-.133l5.882,2.879a.46647.46647,0,0,1,.213.633l-1.033,1.786a.4613.4613,0,0,1-.653.133l-5.434-3.653a.49011.49011,0,0,1-.213-.633"/>
    </g>
    <path class="cls-27" d="M113.859,481.5809l1.01-.585a.49024.49024,0,0,1,.633.213l3.655,5.433a.4659.4659,0,0,1-.133.655l-1.787,1.032a.46224.46224,0,0,1-.632-.214l-2.879-5.88a.48663.48663,0,0,1,.133-.654"/>
    <path class="cls-27" d="M91.5525,497.031h16.827q4.20452,0,8.411.003h8.42a3.36353,3.36353,0,0,1,3.013,1.838q.7275,1.8885,1.534,3.974.8475,2.193,1.794,4.637,1.00349,2.59347,2.121,5.498,1.19251,3.0855,2.546,6.601c.815,2.108-.067,3.947-2.011,3.947q-6.462,0-12.923.006H82.5385c-1.944,0-2.832-1.826-2.014-3.941q1.359-3.52051,2.547-6.606,1.12649-2.91147,2.133-5.507c.631-1.627,1.23-3.178,1.795-4.641q.80549-2.088,1.542-3.979a3.35622,3.35622,0,0,1,3.011-1.83"/>
    <path class="cls-24" d="M92.79549,500.36q3.78451,0,7.57.002c.418,0,.727.27.682.6-.136,1.024-.281,2.096-.432,3.23q-.23548,1.788-.502,3.781-.285,2.118-.601,4.503c-.226,1.698-.463,3.508-.72,5.444a1.41309,1.41309,0,0,1-1.286,1.255q-5.571,0-11.133.005c-.615,0-.911-.569-.662-1.26q1.0425-2.898,1.956-5.444c.753-2.087.96-2.663,1.626-4.503q.71849-1.99352,1.362-3.785.6105-1.695,1.166-3.227a1.06936,1.06936,0,0,1,.974-.601"/>
    <path class="cls-24" d="M104.5975,500.362q3.78149,0,7.564.001a.79666.79666,0,0,1,.829.602c.12,1.024.238,2.096.367,3.229.135,1.193.282,2.453.433,3.782q.237,2.115.509,4.5.288,2.547.618,5.439a1.05572,1.05572,0,0,1-.978,1.259q-5.565.00152-11.13.001a1.05289,1.05289,0,0,1-.978-1.255c.223-1.936.427-3.746.619-5.444.183-1.591.359-3.09.519-4.503q.225-1.99352.429-3.781.19352-1.69647.368-3.23a.7974.7974,0,0,1,.831-.6"/>
    <path class="cls-24" d="M116.39249,500.363q3.78151,0,7.571.005a1.06912,1.06912,0,0,1,.973.599q.555,1.533,1.162,3.229.642,1.78652,1.363,3.78.762,2.112,1.617,4.498.91349,2.538,1.955,5.44c.247.684-.049,1.253-.663,1.253q-5.56951,0-11.131.004a1.41852,1.41852,0,0,1-1.286-1.256q-.3825-2.8965-.718-5.439-.3165-2.3865-.594-4.5-.267-1.99347-.504-3.782-.22352-1.69948-.427-3.229c-.043-.333.263-.602.682-.602"/>
    <rect class="cls-1" x="80.221" y="478.20001" width="69.46799" height="59.758"/>
    <g class="cls-2">
      <path class="cls-15" d="M118.92,494.90292h8.421a3.36067,3.36067,0,0,1,3.012,1.837q.7305,1.89,1.536,3.975.846,2.19451,1.795,4.638,1.002,2.592,2.119,5.498c.169.433.339.875.51,1.32a14.60479,14.60479,0,1,0-23.086-17.27q2.847.00152,5.693.002"/>
      <rect class="cls-15" x="86.16501" y="506.84302" width="43.739" height="2.772"/>
      <polygon class="cls-15" points="101.797 526.248 115.852 526.247 118.884 537.958 99.175 537.954 101.797 526.248"/>
      <rect class="cls-29" x="35.39992" y="206.08999" width="14.93266" height="1.86052" transform="translate(-1.0015 0.2099) rotate(-0.27732)"/>
      <path class="cls-30" d="M37.7734,207.0199a2.46743,2.46743,0,0,0-2.449-2.489,2.44235,2.44235,0,0,0-2.449,2.489,2.46735,2.46735,0,0,0,2.449,2.489,2.49345,2.49345,0,0,0,2.449-2.489"/>
      <path class="cls-30" d="M52.858,207.0199a2.46807,2.46807,0,0,0-2.449-2.489,2.44235,2.44235,0,0,0-2.449,2.489,2.46735,2.46735,0,0,0,2.449,2.489,2.49412,2.49412,0,0,0,2.449-2.489"/>
      <path class="cls-30" d="M45.9599,207.0199a3.1,3.1,0,0,0-3.118-3.117,3.0586,3.0586,0,0,0-3.067,3.117,3.09139,3.09139,0,0,0,3.067,3.118,3.13353,3.13353,0,0,0,3.118-3.118"/>
      <path class="cls-29" d="M45.9586,207.0199a3.10039,3.10039,0,0,0-3.117-3.117,3.058,3.058,0,0,0-3.067,3.117,3.09074,3.09074,0,0,0,3.067,3.118,3.134,3.134,0,0,0,3.117-3.118"/>
      <rect class="cls-29" x="41.786" y="207.06903" width="2.161" height="7.995"/>
      <path class="cls-30" d="M49.4799,219.6109a6.61985,6.61985,0,1,0-6.636,6.898,6.7475,6.7475,0,0,0,6.636-6.898"/>
      <path class="cls-30" d="M48.1853,223.6629s3.57.484,3.57,1.81006v4.476h5.85l-.016-5.381c-.499-5.658-3.31-6.564-8.298-8.145l-1.541-.446.033.697-18.303-.101v6.939l18.705-.151v.30194"/>
    </g>
  </g>
  <text class="cls-12" transform="translate(521.17578 817.57751)">812/2013</text>
  <g id="rating">
    <text class="cls-31" transform="translate(475.75391 304.5072)"> </text>
    <polyline id="ratingArrow" class="cls-15" points="465.93 294.21 492.72 267.17 559.45 266.88 559.45 321.76 493.2 321.76 465.93 294.21"/>
    <text id="ratingLetter" class="cls-31" transform="translate(485.76953 305.55017)">A</text>
    <text id="ratingPlusses" class="cls-32" transform="translate(511.42969 292.78992)">+++</text>
  </g>
  <g id="waterHeatingRating">
    <polyline id="waterHeatingRatingArrow" class="cls-15" points="173 304.53 192.33 285 240.89 285 240.89 324.4 192.67 324.4 173 304.53"/>
    <text id="waterHeatingRatingLetter" class="cls-33" transform="translate(187.16992 311.76013)">A</text>
    <text id="waterHeatingRatingPlusses" class="cls-34" transform="translate(205.56006 303.82019)">+</text>
  </g>
  <text id="declaredLoadProfile" class="cls-35" transform="translate(61.8501 237.43005)">X</text>
  <path id="solarCollector" class="cls-15" d="M217.11572,517.5697a5.20676,5.20676,0,0,1,.41309.98438.52782.52782,0,0,1-.11426.5625,1.34042,1.34042,0,0,1-.76465.24609q-.55371.05274-1.53808.05274-.82617,0-1.30078-.03516a3.80561,3.80561,0,0,1-.74708-.11426.8162.8162,0,0,1-.3955-.21973,1.27207,1.27207,0,0,1-.21094-.35156l-4.27148-8.209-4.25391,8.209a1.65757,1.65757,0,0,1-.22852.35156.8162.8162,0,0,1-.3955.21973,3.83854,3.83854,0,0,1-.75586.11426q-.4834.03516-1.27442.03516-.91405,0-1.415-.05274a1.064,1.064,0,0,1-.67675-.24609.56462.56462,0,0,1-.07032-.5625,5.26086,5.26086,0,0,1,.43946-.98438l5.44921-9.93164-5.0625-9.334a6.88168,6.88168,0,0,1-.43066-1.01075.50992.50992,0,0,1,.08789-.5625,1.28771,1.28771,0,0,1,.74707-.22851q.54492-.04395,1.54688-.04395.82617,0,1.30957.03516a4.0208,4.0208,0,0,1,.76465.11426.7637.7637,0,0,1,.3955.21972,1.91882,1.91882,0,0,1,.21973.35157l3.99023,7.52343,3.88477-7.52343a1.91828,1.91828,0,0,1,.21973-.35157.74724.74724,0,0,1,.36914-.21972,3.36316,3.36316,0,0,1,.70312-.11426q.44825-.03516,1.23926-.03516.87891,0,1.38867.04395a1.13376,1.13376,0,0,1,.70313.2373.5503.5503,0,0,1,.09668.5625,6.23286,6.23286,0,0,1-.39551,1.002l-5.0625,9.28125Z"/>
  <path id="hotWaterStorageTank" class="cls-15" d="M217.11572,683.53943a5.20673,5.20673,0,0,1,.41309.98437.52781.52781,0,0,1-.11426.5625,1.34034,1.34034,0,0,1-.76465.2461q-.55371.05273-1.53808.05273-.82617,0-1.30078-.03515a3.80637,3.80637,0,0,1-.74708-.11426.81628.81628,0,0,1-.3955-.21973,1.27222,1.27222,0,0,1-.21094-.35156l-4.27148-8.209-4.25391,8.209a1.65783,1.65783,0,0,1-.22852.35156.81628.81628,0,0,1-.3955.21973,3.83929,3.83929,0,0,1-.75586.11426q-.4834.03515-1.27442.03515-.91405,0-1.415-.05273a1.064,1.064,0,0,1-.67675-.2461.56461.56461,0,0,1-.07032-.5625,5.26082,5.26082,0,0,1,.43946-.98437l5.44921-9.93164-5.0625-9.334a6.88166,6.88166,0,0,1-.43066-1.01074.50992.50992,0,0,1,.08789-.5625,1.28756,1.28756,0,0,1,.74707-.22851q.54492-.04395,1.54688-.04395.82617,0,1.30957.03516a4.02092,4.02092,0,0,1,.76465.11425.76377.76377,0,0,1,.3955.21973,1.91905,1.91905,0,0,1,.21973.35156l3.99023,7.52344,3.88477-7.52344a1.91851,1.91851,0,0,1,.21973-.35156.74732.74732,0,0,1,.36914-.21973,3.36326,3.36326,0,0,1,.70312-.11425q.44825-.03516,1.23926-.03516.87891,0,1.38867.04395a1.13364,1.13364,0,0,1,.70313.2373.5503.5503,0,0,1,.09668.5625,6.23282,6.23282,0,0,1-.39551,1.002l-5.0625,9.28125Z"/>
  <text id="supplierLine2" class="cls-36" transform="translate(28.34998 184.7376)">X</text>
  <text id="supplierLine1" class="cls-36" transform="translate(28.34998 162.35478)">X</text>
  <text id="modelLine2" class="cls-36" transform="translate(306.13953 184.7376)">X</text>
  <text id="modelLine1" class="cls-36" transform="translate(306.13953 162.35478)">X</text>
</svg>