<svg id="Layer_1" data-name="Layer 1" xmlns="http://www.w3.org/2000/svg" xmlns:xlink="http://www.w3.org/1999/xlink" width="105mm" height="200mm" viewBox="0 0 297.64001 566.92999" data-rating-increment="22.5416" data-supplier-model-chars-per-row="25">
  <defs>
    <style>
      .cls-1, .cls-10, .cls-3, .cls-31, .cls-4, .cls-6, .cls-7, .cls-9 {
        fill: none;
      }

      .cls-2 {
        clip-path: url(#clip-path);
      }

      .cls-10, .cls-3, .cls-31, .cls-4, .cls-6 {
        stroke: #00aeef;
      }

      .cls-3 {
        stroke-width: 2px;
      }

      .cls-4 {
        stroke-width: 4px;
      }

      .cls-5 {
        clip-path: url(#clip-path-2);
      }

      .cls-10, .cls-6 {
        stroke-linecap: round;
        stroke-linejoin: round;
      }

      .cls-6 {
        stroke-width: 0.958px;
      }

      .cls-7 {
        stroke: #fff;
        stroke-width: 0.836px;
      }

      .cls-8 {
        fill: #2aace3;
      }

      .cls-9 {
        stroke: #2aace3;
        stroke-width: 0.673px;
      }

      .cls-10 {
        stroke-width: 1.703px;
      }

      .cls-11, .cls-48 {
        font-size: 15px;
      }

      .cls-11, .cls-12, .cls-18, .cls-32, .cls-45, .cls-46, .cls-49, .cls-50, .cls-51, .cls-52 {
        fill: #231f20;
      }

      .cls-11, .cls-41, .cls-42, .cls-45, .cls-47, .cls-49, .cls-51 {
        font-family: Calibri-Bold, Calibri;
        font-weight: 700;
      }

      .cls-12, .cls-45 {
        font-size: 10px;
      }

      .cls-12, .cls-18, .cls-32, .cls-48, .cls-50, .cls-52 {
        font-family: Calibri;
      }

      .cls-13, .cls-16 {
        fill: #bae5f3;
      }

      .cls-13, .cls-14, .cls-15, .cls-44 {
        fill-rule: evenodd;
      }

      .cls-14 {
        fill: #67beeb;
      }

      .cls-15 {
        fill: #1e74bb;
      }

      .cls-17 {
        fill: #1174bb;
      }

      .cls-18 {
        font-size: 11.0929px;
      }

      .cls-19 {
        letter-spacing: -0.00497em;
      }

      .cls-20 {
        letter-spacing: -0.00401em;
      }

      .cls-21 {
        letter-spacing: -0.00493em;
      }

      .cls-22 {
        letter-spacing: -0.00599em;
      }

      .cls-23 {
        letter-spacing: 2.83904em;
      }

      .cls-24 {
        letter-spacing: -0.025em;
      }

      .cls-25 {
        fill: #bbe5f5;
      }

      .cls-26 {
        fill: #68bfeb;
      }

      .cls-27 {
        fill: #034ea2;
      }

      .cls-28 {
        fill: #00aeef;
      }

      .cls-29 {
        fill: #fff200;
      }

      .cls-30, .cls-41, .cls-42, .cls-47, .cls-48 {
        fill: #fff;
      }

      .cls-32 {
        font-size: 12px;
      }

      .cls-33 {
        letter-spacing: 0.059em;
      }

      .cls-34 {
        clip-path: url(#clip-path-6);
      }

      .cls-35 {
        fill: #bfd730;
      }

      .cls-36 {
        fill: #50b848;
      }

      .cls-37 {
        fill: #00a651;
      }

      .cls-38 {
        fill: #fdb913;
      }

      .cls-39 {
        fill: #f37021;
      }

      .cls-40 {
        fill: #ed1c24;
      }

      .cls-41, .cls-49 {
        font-size: 16px;
      }

      .cls-42 {
        font-size: 9.328px;
      }

      .cls-43, .cls-44 {
        fill: #020304;
      }

      .cls-47 {
        font-size: 24px;
      }

      .cls-50 {
        font-size: 13.31px;
      }

      .cls-51 {
        font-size: 16.64px;
      }

      .cls-52 {
        font-size: 11px;
      }
    </style>
    <clipPath id="clip-path">
      <rect class="cls-1" y="0.00098" width="297.638" height="566.92902"/>
    </clipPath>
    <clipPath id="clip-path-2">
      <rect class="cls-1" x="42.576" y="359.81499" width="37.035" height="41.03"/>
    </clipPath>
    <clipPath id="clip-path-6">
      <rect class="cls-1" x="26.513" y="175.11899" width="145.089" height="155.47301"/>
    </clipPath>
  </defs>
  <title>solar-water-heaters</title>
  <g class="cls-2">
    <path class="cls-3" d="M114.6413,347.806s-7.904,0-7.904,7.904V520.909s0,7.904,7.904,7.904h147.61s7.904,0,7.904-7.904V355.71s0-7.904-7.904-7.904Zm-79.427,0s-7.904,0-7.904,7.904v69.057s0,7.905,7.904,7.905h53.464s7.905,0,7.905-7.905V355.71s0-7.904-7.905-7.904Z"/>
    <path class="cls-4" d="M24.0691,16.166s-7.904,0-7.904,7.90405V542.861s0,7.904,7.904,7.904h249.5s7.904,0,7.904-7.904V24.07007s0-7.90405-7.904-7.90405Z"/>
  </g>
  <g class="cls-5">
    <polygon class="cls-6" points="43.862 396.022 43.862 400.74 79.133 400.74 79.133 376.363 61.496 360.294 43.862 376.363 43.862 396.022"/>
  </g>
  <g class="cls-2">
    <path class="cls-7" d="M52.6974,389.896q-1.458-1.299-2.913-2.599h-2.078v-4.151h2.078q1.455-1.29749,2.913-2.598l1.205-1.073v11.497Z"/>
    <path class="cls-8" d="M52.3294,388.988q-1.1745-1.04849-2.347-2.093h-1.673v-3.346h1.673c.782-.695,1.564-1.395,2.347-2.092l.971-.865v9.261Z"/>
    <path class="cls-9" d="M52.3294,388.988q-1.1745-1.04849-2.347-2.093h-1.673v-3.346h1.673c.782-.695,1.564-1.395,2.347-2.092l.971-.865v9.261Z"/>
    <path class="cls-10" d="M56.1921,380.277a7.75368,7.75368,0,0,1,.065,9.836m3.417-12.834a13.7477,13.7477,0,0,1,.046,15.858m3.568-18.882a19.98666,19.98666,0,0,1,.036,21.935"/>
  </g>
  <text class="cls-11" transform="translate(62.44287 418.07745)"> </text>
  <text class="cls-12" transform="translate(65.8335 418.07745)">dB</text>
  <g class="cls-2">
    <polygon class="cls-13" points="196.785 495.256 149.966 495.256 149.966 502.588 147.874 504.657 147.874 506.538 154.916 513.492 156.628 513.492 158.341 511.614 160.054 513.305 162.148 513.305 176.993 498.64 189.745 498.64 196.785 505.597 201.925 510.861 201.925 511.802 198.688 515.186 198.308 515.751 198.308 517.066 198.688 518.007 200.021 518.757 201.162 518.757 207.824 512.177 207.824 510.109 200.021 502.401 194.882 497.324 196.785 495.256"/>
    <polygon class="cls-13" points="187.65 504.657 188.792 503.529 189.933 504.657 189.933 507.288 189.174 507.853 188.412 507.853 187.65 507.1 187.65 504.657"/>
    <polygon class="cls-13" points="188.222 508.228 189.363 508.228 190.315 509.169 190.315 512.742 189.363 513.682 188.792 513.682 187.459 512.365 187.459 509.169 188.222 508.228"/>
    <polygon class="cls-13" points="172.424 508.981 172.424 508.04 174.138 506.35 176.041 506.35 176.041 508.228 174.138 510.109 173.376 510.109 172.424 508.981"/>
    <polygon class="cls-13" points="219.814 510.862 227.046 503.716 227.046 501.836 224.763 499.767 216.769 507.666 215.817 507.666 213.724 505.597 212.011 507.288 212.011 509.546 213.343 510.862 212.202 511.802 212.202 514.998 215.437 518.194 217.72 518.194 221.527 514.433 221.527 512.553 219.814 510.862"/>
    <polygon class="cls-13" points="217.15 508.793 219.434 510.862 216.96 513.305 216.198 513.305 213.914 510.862 216.009 508.793 217.15 508.793"/>
    <polygon class="cls-13" points="223.43 511.99 223.811 511.615 226.286 511.615 227.046 512.364 227.046 514.621 226.666 514.998 223.811 514.998 223.43 514.621 223.43 511.99"/>
    <polygon class="cls-13" points="220.004 520.825 220.385 520.451 223.24 520.451 224.192 521.202 224.192 522.331 223.62 522.706 220.385 522.706 220.004 522.331 220.004 520.825"/>
    <polygon class="cls-14" points="217.34 462.541 216.199 463.669 215.628 463.669 214.866 462.917 213.153 462.917 212.201 463.856 212.201 465.737 213.343 466.865 210.679 469.497 209.346 468.37 206.682 468.37 204.589 470.437 197.166 470.437 188.982 470.437 188.03 470.814 180.989 477.771 178.705 477.771 177.564 476.642 175.279 477.394 172.615 480.026 169.38 480.026 168.809 480.59 168.809 493 168.238 493.563 162.718 493.563 160.244 491.12 151.869 491.12 149.966 492.812 149.966 495.256 196.785 495.256 197.166 494.88 198.308 495.821 201.163 495.821 204.589 492.247 206.492 492.247 209.346 495.256 228.76 495.256 228.76 493.376 228.189 492.247 223.62 487.736 212.773 487.736 212.011 486.983 212.011 480.216 215.437 477.019 215.437 474.387 214.485 473.446 214.485 472.319 216.578 470.25 217.532 471.189 219.053 471.189 220.385 469.873 220.385 468.37 219.434 467.618 219.434 466.678 221.528 464.609 221.528 462.541 217.34 462.541"/>
    <polygon class="cls-15" points="221.527 462.541 221.527 454.832 220.386 454.832 217.912 457.277 217.912 462.165 217.34 462.541 221.527 462.541"/>
    <polygon class="cls-13" points="228.76 495.444 228.76 495.256 209.347 495.256 213.154 499.017 213.154 500.708 212.202 501.836 212.202 503.905 215.817 507.665 216.769 507.665 227.997 496.759 228.76 495.444"/>
    <polygon class="cls-15" points="203.828 462.541 197.357 462.541 197.357 461.224 199.451 459.157 199.451 458.217 197.357 457.089 197.357 456.148 191.266 456.148 189.933 455.021 189.933 446.372 193.17 443.175 194.692 443.175 196.977 445.431 207.254 435.279 208.966 435.279 210.679 436.97 215.817 431.895 216.96 431.895 219.052 433.962 220.766 432.27 222.669 432.27 223.62 433.211 223.62 435.279 222.288 436.783 226.095 440.731 226.095 444.304 222.288 448.063 224.192 449.757 224.192 451.636 223.24 452.577 220.766 452.577 219.434 451.448 219.052 451.448 214.675 455.772 213.343 455.772 212.011 454.645 212.011 452.953 211.631 452.953 211.631 452.2 213.154 450.884 211.25 449.004 211.25 447.312 215.437 443.363 215.437 441.671 214.295 440.731 212.582 440.731 205.731 447.312 205.731 448.252 207.442 449.757 207.442 451.636 205.539 453.704 206.491 454.645 206.491 457.841 202.686 461.6 203.828 462.541"/>
    <polygon class="cls-14" points="203.828 462.541 204.589 463.482 204.589 465.361 201.544 468.182 201.544 468.746 198.309 468.746 197.357 467.805 197.357 466.678 199.451 464.609 197.357 462.541 203.828 462.541"/>
    <polygon class="cls-14" points="169.38 462.541 169.38 467.241 177.564 475.514 179.467 473.634 179.467 471.566 176.421 468.746 176.421 462.541 169.38 462.541"/>
    <polygon class="cls-15" points="169.38 462.541 176.421 462.541 176.421 457.653 173.186 454.268 171.473 454.268 169.38 456.525 169.38 462.541"/>
    <polygon class="cls-14" points="167.287 469.31 167.287 472.505 164.241 475.514 165.383 476.455 176.422 476.642 177.564 475.514 169.38 467.241 167.287 469.31"/>
    <polygon class="cls-14" points="168.618 461.037 168.047 460.473 165.192 460.473 163.099 462.541 168.618 462.541 168.618 461.037"/>
    <polygon class="cls-14" points="168.618 462.917 161.767 469.497 159.673 469.497 158.533 468.369 158.533 467.054 163.099 462.541 168.618 462.541 168.618 462.917"/>
    <polygon class="cls-14" points="193.359 459.721 189.933 463.105 189.933 465.361 193.931 469.498 194.692 469.498 196.786 467.429 196.976 466.678 194.502 464.421 196.976 462.164 194.502 459.721 193.359 459.721"/>
    <polygon class="cls-15" points="173.947 441.107 173.568 441.483 173.568 443.927 173.947 444.303 175.47 444.303 176.042 443.739 176.042 441.483 175.66 441.107 173.947 441.107"/>
    <rect class="cls-16" x="200.783" y="521.203" width="0.75999" height="1.315"/>

  </g>

  <g id="kwhGroup">
    <rect class="cls-25" x="114.496" y="399.54999" width="7.538" height="7.537"/>
    <rect class="cls-26" x="114.496" y="377.31599" width="7.538" height="7.53799"/>
    <rect class="cls-17" x="114.496" y="355.29601" width="7.538" height="7.53799"/>
    <text id="colderKwhAnnum" class="cls-50" transform="translate(127.27979 363.31964)">X</text>
    <text id="averageKwhAnnum" class="cls-51" transform="translate(127.27979 386.69952)">X</text>
    <text id="warmerKwhAnnum" class="cls-50" transform="translate(127.27979 407.88019)">X</text>
    <text class="cls-18" transform="translate(128.60205 424.21808)"><tspan class="cls-19">k</tspan><tspan class="cls-20" x="4.9873" y="0">W</tspan><tspan class="cls-21" x="14.81152" y="0">h</tspan><tspan x="20.58447" y="0">/</tspan></text>
    <text class="cls-18" transform="translate(153.0957 424.21808)"><tspan class="cls-22">ann</tspan><tspan x="16.77051" y="0">u</tspan></text>
    <!-- TODO 'G' needs to be moved into second group -->
    <text class="cls-18" transform="translate(175.6582 424.21808)"><tspan class="cls-23">m</tspan><tspan x="40.35449" y="0">G</tspan></text>
  </g>
  <g id="gjGroup">
    <rect class="cls-25" x="202.881" y="399.54999" width="7.53799" height="7.537"/>
    <rect class="cls-26" x="202.881" y="377.31599" width="7.53799" height="7.53799"/>
    <rect class="cls-17" x="202.881" y="355.29601" width="7.53799" height="7.53799"/>
    <text id="colderGjAnnum" class="cls-50" transform="translate(215.66016 363.31964)">X</text>
    <text id="averageGjAnnum" class="cls-51" transform="translate(215.66016 386.69952)">X</text>
    <text id="warmerGjAnnum" class="cls-50" transform="translate(215.66016 407.88019)">X</text>
    <text class="cls-18" transform="translate(223.14648 424.21808)"><tspan class="cls-24">J</tspan><tspan x="3.25977" y="0">/</tspan></text>
    <text class="cls-18" transform="translate(230.30176 424.21808)"><tspan class="cls-22">ann</tspan><tspan x="16.77051" y="0">u</tspan></text>
    <text class="cls-18" transform="translate(252.86523 424.21808)">m</text>
  </g>
  <g class="cls-2">

    <rect class="cls-27" x="26.965" y="26.492" width="71.139" height="48.06"/>
    <rect class="cls-28" x="100.45599" y="26.492" width="170.28799" height="48.06"/>
    <polygon class="cls-29" points="77.239 42.515 78.768 41.391 76.878 41.391 76.294 39.573 75.71 41.391 73.82 41.391 75.349 42.515 74.765 44.334 76.294 43.21 77.823 44.334 77.239 42.515"/>
    <polygon class="cls-29" points="71.287 36.748 72.816 35.624 70.926 35.624 70.342 33.805 69.758 35.624 67.868 35.624 69.397 36.748 68.813 38.567 70.342 37.443 71.871 38.566 71.287 36.748"/>
    <polygon class="cls-29" points="63.609 34.685 65.138 33.561 63.248 33.561 62.664 31.743 62.08 33.561 60.19 33.561 61.719 34.685 61.135 36.504 62.664 35.38 64.193 36.504 63.609 34.685"/>
    <polygon class="cls-29" points="55.523 36.748 57.052 35.624 55.162 35.624 54.578 33.805 53.994 35.624 52.104 35.624 53.633 36.748 53.049 38.567 54.578 37.442 56.107 38.566 55.523 36.748"/>
    <polygon class="cls-29" points="49.748 42.797 51.277 41.673 49.387 41.673 48.803 39.855 48.219 41.673 46.329 41.673 47.858 42.797 47.274 44.616 48.803 43.492 50.332 44.616 49.748 42.797"/>
    <polygon class="cls-29" points="47.903 50.745 49.432 49.621 47.542 49.621 46.958 47.803 46.374 49.621 44.484 49.621 46.013 50.745 45.429 52.564 46.958 51.439 48.487 52.563 47.903 50.745"/>
    <polygon class="cls-29" points="49.805 58.798 51.334 57.674 49.444 57.674 48.86 55.856 48.276 57.674 46.386 57.674 47.915 58.798 47.331 60.617 48.86 59.493 50.389 60.617 49.805 58.798"/>
    <polygon class="cls-29" points="55.523 64.521 57.052 63.397 55.162 63.397 54.578 61.578 53.994 63.397 52.104 63.397 53.633 64.521 53.049 66.34 54.578 65.215 56.107 66.339 55.523 64.521"/>
    <polygon class="cls-29" points="63.609 66.652 65.137 65.528 63.248 65.528 62.664 63.71 62.08 65.528 60.19 65.528 61.719 66.652 61.135 68.47 62.664 67.347 64.193 68.47 63.609 66.652"/>
    <polygon class="cls-29" points="71.476 64.491 73.005 63.367 71.115 63.367 70.531 61.549 69.947 63.367 68.057 63.367 69.586 64.491 69.002 66.31 70.531 65.186 72.06 66.31 71.476 64.491"/>
    <polygon class="cls-29" points="77.198 58.746 78.727 57.622 76.837 57.622 76.253 55.804 75.669 57.622 73.779 57.622 75.308 58.746 74.724 60.565 76.253 59.441 77.782 60.565 77.198 58.746"/>
    <polygon class="cls-29" points="79.305 50.634 80.834 49.51 78.944 49.51 78.36 47.692 77.776 49.51 75.886 49.51 77.415 50.634 76.831 52.453 78.36 51.328 79.889 52.452 79.305 50.634"/>
    <polygon class="cls-30" points="121.082 46.107 113.453 46.107 113.453 52.125 121.983 52.125 121.983 55.194 109.758 55.194 109.758 34.711 121.533 34.711 121.533 37.781 113.453 37.781 113.453 43.069 121.082 43.069 121.082 46.107"/>
    <path class="cls-30" d="M126.7293,55.19418V34.71124h4.205l5.227,8.783a56.59573,56.59573,0,0,1,3.454,6.868h.06c-.24-2.735-.331-5.379-.331-8.509v-7.142h3.425V55.19418h-3.815l-5.287-9.026a67.97592,67.97592,0,0,1-3.634-7.051l-.09.031c.15,2.64405.18,5.349.18,8.72205v7.32394Z"/>
    <polygon class="cls-30" points="159.86 46.107 152.23 46.107 152.23 52.125 160.761 52.125 160.761 55.194 148.536 55.194 148.536 34.711 160.311 34.711 160.311 37.781 152.23 37.781 152.23 43.069 159.86 43.069 159.86 46.107"/>
    <path class="cls-30" d="M169.17149,44.04065h2.193c2.492,0,4.054-1.337,4.054-3.373,0-2.249-1.562-3.282-3.965-3.282a10.51347,10.51347,0,0,0-2.282.182Zm-3.665-9.056a34.69454,34.69454,0,0,1,5.587-.425c2.914,0,4.896.486,6.248,1.641a5.21127,5.21127,0,0,1,1.742,4.102,5.45757,5.45757,0,0,1-3.665,5.136v.091c1.442.547,2.313,1.976,2.824,3.951a41.26683,41.26683,0,0,0,1.592,5.714h-3.815a29.21907,29.21907,0,0,1-1.351-4.832c-.571-2.675-1.533-3.526-3.635-3.587h-1.862v8.419h-3.665Z"/>
    <path class="cls-30" d="M200.3192,54.252a19.85434,19.85434,0,0,1-6.518,1.155c-3.425,0-6.008-.881-7.93-2.735a10.20827,10.20827,0,0,1-2.823-7.537c0-6.473,4.565-10.637,11.264-10.637a13.29111,13.29111,0,0,1,5.376.973l-.811,3.009a10.78059,10.78059,0,0,0-4.596-.882c-4.325,0-7.359,2.583-7.359,7.355,0,4.649,2.824,7.415,7.029,7.415a7.01063,7.01063,0,0,0,2.794-.426V46.837h-3.575V43.889h7.149Z"/>
    <path class="cls-30" d="M111.8683,62.615a1.15947,1.15947,0,0,0-1.168-1.294,1.34427,1.34427,0,0,0-1.306,1.294Zm-2.474.935c.035.957.832,1.37,1.734,1.37a4.4707,4.4707,0,0,0,1.56-.239l.209.924a5.576,5.576,0,0,1-1.966.338,2.59755,2.59755,0,0,1-2.901-2.687,2.689,2.689,0,0,1,2.751-2.849,2.34743,2.34743,0,0,1,2.428,2.577,3.0108,3.0108,0,0,1-.047.566Z"/>
    <polygon class="cls-30" points="115.82 60.526 115.82 62.549 117.993 62.549 117.993 60.526 119.415 60.526 119.415 65.823 117.993 65.823 117.993 63.593 115.82 63.593 115.82 65.823 114.398 65.823 114.398 60.526 115.82 60.526"/>
    <path class="cls-30" d="M124.4647,62.615a1.15809,1.15809,0,0,0-1.167-1.294,1.34351,1.34351,0,0,0-1.306,1.294Zm-2.473.935c.035.957.832,1.37,1.734,1.37a4.47072,4.47072,0,0,0,1.56-.239l.208.924a5.56566,5.56566,0,0,1-1.965.338,2.59756,2.59756,0,0,1-2.901-2.687,2.689,2.689,0,0,1,2.751-2.849,2.34743,2.34743,0,0,1,2.428,2.577,3.10026,3.10026,0,0,1-.047.566Z"/>
    <path class="cls-30" d="M128.4292,63.6044a1.29083,1.29083,0,0,0,.046.37,1.271,1.271,0,0,0,1.248.935c.902,0,1.434-.707,1.434-1.751,0-.935-.486-1.697-1.399-1.697a1.30673,1.30673,0,0,0-1.271.99,1.14126,1.14126,0,0,0-.058.337Zm-1.422-1.316c0-.696-.023-1.261-.046-1.762h1.248l.07.816h.023a2.23476,2.23476,0,0,1,1.93-.936,2.4605,2.4605,0,0,1,2.37,2.698,2.58433,2.58433,0,0,1-2.566,2.838,1.89312,1.89312,0,0,1-1.584-.707h-.023v2.741h-1.422Z"/>
    <polygon class="cls-30" points="137.537 60.526 137.537 61.581 135.236 61.581 135.236 65.823 133.815 65.823 133.815 60.526 137.537 60.526"/>
    <path class="cls-30" d="M139.80141,60.5264v1.904c0,.837-.034,1.402-.081,2.142h.035c.3-.62.474-1.011.763-1.566l1.387-2.48h1.722v5.297h-1.352v-1.893c0-.848.034-1.24.092-2.24h-.046c-.277.631-.462,1.011-.74,1.522-.439.783-.948,1.74-1.433,2.611h-1.699v-5.297Z"/>
    <path class="cls-30" d="M148.412,61.35294a4.04735,4.04735,0,0,0-.706-.054c-.624,0-1.26.206-1.26.794,0,.554.706.794,1.26.794.336,0,.521,0,.706-.011Zm1.41,4.47h-1.41v-2.099h-.532a1.14206,1.14206,0,0,0-.867.348,3.41446,3.41446,0,0,0-.694,1.316,3.85046,3.85046,0,0,1-.219.435h-1.526a2.6997,2.6997,0,0,0,.347-.587,4.44507,4.44507,0,0,1,.843-1.523,1.36326,1.36326,0,0,1,.671-.359v-.032c-.671-.065-1.468-.479-1.468-1.305a1.33345,1.33345,0,0,1,.867-1.229,4.85848,4.85848,0,0,1,1.988-.337,16.13688,16.13688,0,0,1,2,.119Z"/>
    <path class="cls-30" d="M154.4324,63.84369a.8297.8297,0,0,1-.867-.859.83929.83929,0,0,1,.878-.859.85922.85922,0,1,1,0,1.718Z"/>
    <path class="cls-30" d="M160.03729,62.9736c-.67-.174-1.04-.587-1.04-1.109,0-.718.763-1.458,2.37-1.458a3.52258,3.52258,0,0,1,1.803.403l-.266.859a3.17965,3.17965,0,0,0-1.364-.316c-.682,0-1.11.262-1.11.631,0,.424.567.598,1.41.609h.613v.892h-.624c-.902.011-1.584.185-1.584.696,0,.501.613.761,1.306.761a4.01231,4.01231,0,0,0,1.584-.369l.208.891a4.54505,4.54505,0,0,1-2.138.479c-1.191,0-2.474-.424-2.474-1.62a1.436,1.436,0,0,1,1.306-1.305Z"/>
    <path class="cls-30" d="M165.21471,60.5264l.902,2.686c.162.468.266.892.404,1.349h.047a9.12336,9.12336,0,0,0,1.179-3.578v-.457h1.329a2.19742,2.19742,0,0,1,.035.402c0,1.502-1.018,3.274-2.046,4.895h-1.376l-2-5.297Z"/>
    <path class="cls-30" d="M171.051,62.9736c-.67-.174-1.04-.587-1.04-1.109,0-.718.763-1.458,2.37-1.458a3.52255,3.52255,0,0,1,1.803.403l-.266.859a3.17964,3.17964,0,0,0-1.364-.316c-.682,0-1.11.262-1.11.631,0,.424.567.598,1.41.609h.613v.892h-.624c-.902.011-1.584.185-1.584.696,0,.501.613.761,1.306.761a4.0124,4.0124,0,0,0,1.584-.369l.208.891a4.54505,4.54505,0,0,1-2.138.479c-1.191,0-2.474-.424-2.474-1.62a1.436,1.436,0,0,1,1.306-1.305Z"/>
    <path class="cls-30" d="M176.7372,63.72372a1.70391,1.70391,0,0,0,.034.348,1.31443,1.31443,0,0,0,1.249.838c.902,0,1.422-.751,1.422-1.751,0-.936-.497-1.653-1.341-1.653-.717,0-1.364.587-1.364,1.805Zm0,1.588v.75a13.57293,13.57293,0,0,0,.081,1.914h-1.376a9.294,9.294,0,0,1-.127-1.892v-2.425a2.99694,2.99694,0,0,1,.959-2.556,2.79478,2.79478,0,0,1,1.919-.696,2.55592,2.55592,0,0,1,2.694,2.719,2.60885,2.60885,0,0,1-2.601,2.817,1.87,1.87,0,0,1-1.526-.631Z"/>
    <path class="cls-30" d="M183.2899,67.9761a11.38843,11.38843,0,0,0-.196-3.056,14.38329,14.38329,0,0,0-1.965-4.394h1.595a12.41438,12.41438,0,0,1,1.503,3.851h.046a8.29846,8.29846,0,0,0,1.063-3.426c0-.207-.011-.316-.011-.425h1.352a2.068,2.068,0,0,1,.023.392,9.05944,9.05944,0,0,1-1.988,4.665.42643.42643,0,0,0-.069.262c.023.532.023,1.402.034,2.131Z"/>
    <path class="cls-30" d="M188.61749,62.9736c-.67-.174-1.04-.587-1.04-1.109,0-.718.763-1.458,2.37-1.458a3.52258,3.52258,0,0,1,1.803.403l-.266.859a3.1834,3.1834,0,0,0-1.364-.316c-.682,0-1.11.262-1.11.631,0,.424.567.598,1.41.609h.613v.892h-.624c-.902.011-1.584.185-1.584.696,0,.501.613.761,1.306.761a4.01231,4.01231,0,0,0,1.584-.369l.208.891a4.54921,4.54921,0,0,1-2.139.479c-1.19,0-2.473-.424-2.473-1.62a1.436,1.436,0,0,1,1.306-1.305Z"/>
    <path class="cls-30" d="M194.3504,64.3331c0,.435.138.609.532.587l-.081.935a1.842,1.842,0,0,1-.613.087c-.763,0-1.271-.304-1.271-1.479v-3.937h1.433Z"/>
    <path class="cls-30" d="M197.0666,63.23441c0,.892.485,1.642,1.26,1.642a1.418,1.418,0,0,0,1.248-1.141,3.45941,3.45941,0,0,0,.046-.62,2.21621,2.21621,0,0,0-.035-.501,1.296,1.296,0,0,0-1.19-1.174c-.798,0-1.329.794-1.329,1.783Zm4.08-2.708c-.069.718-.162,2.349-.162,3.611,0,.598.197.805.544.794l-.093.946a1.782,1.782,0,0,1-.497.065,1.04927,1.04927,0,0,1-1.098-1.033h-.035a2.09307,2.09307,0,0,1-1.861,1.033,2.40156,2.40156,0,0,1-2.323-2.664,2.69679,2.69679,0,0,1,2.543-2.872,1.74211,1.74211,0,0,1,1.618.925h.046c.035-.326.081-.577.127-.805Z"/>
    <path class="cls-30" d="M208.00771,39.05829a10.30769,10.30769,0,1,1,10.307,10.427,10.36842,10.36842,0,0,1-10.307-10.427"/>
    <path class="cls-28" d="M217.6125,42.967V39.372l-2.694-5.028h1.771l1.024,2.213c.291.64.506,1.126.733,1.715h.026c.215-.55.455-1.088.746-1.715l1.024-2.213h1.758l-2.832,4.99v3.633Z"/>
    <path class="cls-30" d="M231.721,39.05829a10.30769,10.30769,0,1,1,10.307,10.427,10.36842,10.36842,0,0,1-10.307-10.427"/>
    <path class="cls-30" d="M208.00771,62.18118a10.3077,10.3077,0,1,1,10.307,10.428,10.3684,10.3684,0,0,1-10.307-10.428"/>
    <rect class="cls-28" x="214.38699" y="57.46701" width="1.556" height="8.62299"/>
    <polygon class="cls-28" points="222.493 62.265 219.281 62.265 219.281 64.798 222.873 64.798 222.873 66.09 217.726 66.09 217.726 57.467 222.683 57.467 222.683 58.76 219.281 58.76 219.281 60.985 222.493 60.985 222.493 62.265"/>
    <path class="cls-30" d="M231.721,62.18118a10.3077,10.3077,0,1,1,10.307,10.428,10.3684,10.3684,0,0,1-10.307-10.428"/>
    <rect class="cls-28" x="234.85699" y="34.34399" width="1.556" height="8.62299"/>
    <path class="cls-28" d="M239.89,34.344h1.556v5.591c0,2.38-1.139,3.173-2.833,3.173a4.09238,4.09238,0,0,1-1.302-.205l.189-1.267a3.36326,3.36326,0,0,0,.962.154c.884,0,1.428-.409,1.428-1.906Z"/>
    <path class="cls-28" d="M247.30058,39.33344l-.67-2.124c-.164-.524-.304-1.113-.43-1.612h-.025c-.126.499-.253,1.101-.405,1.612l-.658,2.124Zm-2.44,1.18994-.734,2.444h-1.605l2.731-8.623h1.985l2.769,8.623h-1.669l-.771-2.444Z"/>
    <rect class="cls-28" x="237.336" y="57.46802" width="1.556" height="8.62299"/>
    <path class="cls-28" d="M244.8228,62.458l-.671-2.124c-.164-.525-.304-1.114-.43-1.612h-.025c-.126.498-.253,1.1-.405,1.612l-.657,2.124Zm-2.441,1.189-.734,2.444h-1.605l2.731-8.623h1.985l2.769,8.623h-1.669l-.771-2.444Z"/>
    <line class="cls-31" x1="26.5135" y1="112.09299" x2="270.81747" y2="112.09299"/>
  </g>
  <text class="cls-32" transform="translate(34.15381 109.38214)"><tspan class="cls-33" xml:space="preserve">                </tspan><tspan x="54.73438" y="0"> </tspan></text>
  <g class="cls-34">
    <rect class="cls-30" x="-423.30701" y="126.61499" width="1062.98999" height="255.118"/>
    <polygon class="cls-35" points="2.309 220.315 2.309 240.007 114.33 240.007 124.083 230.161 114.33 220.315 2.309 220.315"/>
    <polygon class="cls-36" points="2.309 197.788 2.309 217.48 102.972 217.48 112.724 207.634 102.972 197.788 2.309 197.788"/>
    <polygon class="cls-37" points="2.309 175.261 2.309 194.952 91.618 194.952 101.369 185.107 91.618 175.261 2.309 175.261"/>
    <polygon class="cls-29" points="2.309 242.843 2.309 262.534 125.949 262.534 135.714 252.689 125.949 242.843 2.309 242.843"/>
    <polygon class="cls-38" points="2.309 265.369 2.309 285.062 137.298 285.062 147.066 275.216 137.298 265.369 2.309 265.369"/>
    <polygon class="cls-39" points="2.309 287.896 2.309 307.586 148.648 307.586 158.419 297.74 148.648 287.896 2.309 287.896"/>
    <polygon class="cls-40" points="2.309 310.421 2.309 330.111 159.997 330.111 169.771 320.268 159.997 310.421 2.309 310.421"/>
  </g>
  <text class="cls-41" transform="translate(33.34912 192.16144)"> </text>
  <text class="cls-41" transform="translate(36.96533 190.16144)">A</text>
  <text class="cls-42" transform="translate(46.66162 184.83527)">+</text>
  <text class="cls-41" transform="translate(33.34912 214.66144)"> </text>
  <text class="cls-41" transform="translate(36.96533 212.66144)">A</text>
  <text class="cls-41" transform="translate(33.34912 237.15753)"> </text>
  <text class="cls-41" transform="translate(36.96533 235.15753)">B</text>
  <text class="cls-41" transform="translate(33.34912 257.65363)"> </text>
  <text class="cls-41" transform="translate(36.96484 257.65363)">C</text>
  <text class="cls-41" transform="translate(33.34912 280.14923)"> </text>
  <text class="cls-41" transform="translate(36.96484 280.14923)">D</text>
  <text class="cls-41" transform="translate(33.34912 302.64581)"> </text>
  <text class="cls-41" transform="translate(36.96484 302.64581)">E</text>
  <text class="cls-41" transform="translate(33.34912 325.14093)"> </text>
  <text class="cls-41" transform="translate(36.96484 325.14093)">F</text>
  <g class="cls-2">
    <rect class="cls-43" x="31.26284" y="121.37748" width="10.86012" height="1.35351" transform="translate(-0.54094 0.16393) rotate(-0.2541)"/>
    <path class="cls-44" d="M32.9887,122.054a1.79458,1.79458,0,0,0-1.781-1.81,1.77577,1.77577,0,0,0-1.781,1.81,1.79389,1.79389,0,0,0,1.781,1.81,1.81345,1.81345,0,0,0,1.781-1.81"/>
    <path class="cls-44" d="M43.9593,122.054a1.79458,1.79458,0,0,0-1.781-1.81,1.77577,1.77577,0,0,0-1.781,1.81,1.79389,1.79389,0,0,0,1.781,1.81,1.81345,1.81345,0,0,0,1.781-1.81"/>
    <path class="cls-44" d="M38.9426,122.054a2.25453,2.25453,0,0,0-2.268-2.267,2.224,2.224,0,0,0-2.23,2.267,2.24716,2.24716,0,0,0,2.23,2.267,2.27823,2.27823,0,0,0,2.268-2.267"/>
    <path class="cls-43" d="M38.9416,122.054a2.25493,2.25493,0,0,0-2.267-2.267,2.22484,2.22484,0,0,0-2.231,2.267,2.248,2.248,0,0,0,2.231,2.267,2.27867,2.27867,0,0,0,2.267-2.267"/>
    <rect class="cls-43" x="35.907" y="122.09" width="1.571" height="5.814"/>
    <path class="cls-44" d="M41.5025,131.211a4.81427,4.81427,0,1,0-4.826,5.017,4.90766,4.90766,0,0,0,4.826-5.017"/>
    <path class="cls-44" d="M40.561,134.158s2.597.352,2.597,1.316v3.255h4.254l-.012-3.913c-.362-4.115-2.407-4.773-6.034-5.924l-1.121-.323.024.506-13.311-.074v5.047l13.603-.11v.22"/>
  </g>
  <text class="cls-45" transform="translate(26.88818 541.5462)">2017</text>
  <text class="cls-45" transform="translate(231.51855 541.5462)">812/2013</text>
  <g id="rating">
    <polyline id="ratingArrow" class="cls-46" points="208.26 185.1 224.9 168.29 270.94 168.29 270.94 202.2 225.21 202.2 208.26 185.1"/>
    <text id="ratingLetter" class="cls-47" transform="translate(219.26953 192.34015)">A</text>
    <text id="ratingPlusses" class="cls-48" transform="translate(235.23047 185.09991)">+</text>
  </g>
  <text id="declaredLoadProfile" class="cls-49" transform="translate(50.50977 144.17023)">X</text>


  <text id="db" class="cls-11" transform="translate(47.22998 418.08038)">X</text>
  <text id="supplierLine2" class="cls-52" transform="translate(26.76001 106.29993)">X</text>
  <text id="supplierLine1" class="cls-52" transform="translate(26.76001 95.21888)">X</text>
  <text id="modelLine2" class="cls-52" transform="translate(153.22913 106.29993)">X</text>
  <text id="modelLine1" class="cls-52" transform="translate(153.22913 95.21888)">X</text>
</svg>
