<svg xmlns="http://www.w3.org/2000/svg" xmlns:xlink="http://www.w3.org/1999/xlink" id="Layer_1" data-name="Layer 1" width="105mm" height="200mm" viewBox="0 0 297.64001 566.92999" data-rating-increment="22.5416" data-supplier-model-chars-per-row="25">
  <defs>
    <style>
      .cls-1, .cls-10, .cls-3, .cls-31, .cls-4, .cls-6, .cls-7, .cls-9 {
        fill: none;
      }

      .cls-2 {
        clip-path: url(#clip-path);
      }

      .cls-10, .cls-3, .cls-31, .cls-4, .cls-6 {
        stroke: #00aeef;
      }

      .cls-3 {
        stroke-width: 2px;
      }

      .cls-4 {
        stroke-width: 4px;
      }

      .cls-5 {
        clip-path: url(#clip-path-2);
      }

      .cls-10, .cls-6 {
        stroke-linecap: round;
        stroke-linejoin: round;
      }

      .cls-6 {
        stroke-width: 0.958px;
      }

      .cls-7 {
        stroke: #fff;
        stroke-width: 0.836px;
      }

      .cls-8 {
        fill: #2aace3;
      }

      .cls-9 {
        stroke: #2aace3;
        stroke-width: 0.673px;
      }

      .cls-10 {
        stroke-width: 1.703px;
      }

      .cls-11, .cls-48 {
        font-size: 15px;
      }

      .cls-11, .cls-12, .cls-18, .cls-32, .cls-45, .cls-46, .cls-49, .cls-50, .cls-51, .cls-52 {
        fill: #231f20;
      }

      .cls-11, .cls-41, .cls-42, .cls-45, .cls-47, .cls-49, .cls-51 {
        font-family: Calibri-Bold, Calibri;
        font-weight: 700;
      }

      .cls-12, .cls-45 {
        font-size: 10px;
      }

      .cls-12, .cls-18, .cls-32, .cls-48, .cls-50, .cls-52 {
        font-family: Calibri;
      }

      .cls-13, .cls-16 {
        fill: #bae5f3;
      }

      .cls-13, .cls-14, .cls-15, .cls-44 {
        fill-rule: evenodd;
      }

      .cls-14 {
        fill: #67beeb;
      }

      .cls-15 {
        fill: #1e74bb;
      }

      .cls-17 {
        fill: #1174bb;
      }

      .cls-18 {
        font-size: 11.0929px;
      }

      .cls-19 {
        letter-spacing: -0.00497em;
      }

      .cls-20 {
        letter-spacing: -0.00401em;
      }

      .cls-21 {
        letter-spacing: -0.00493em;
      }

      .cls-22 {
        letter-spacing: -0.00599em;
      }

      .cls-23 {
        letter-spacing: 2.83904em;
      }

      .cls-24 {
        letter-spacing: -0.025em;
      }

      .cls-25 {
        fill: #bbe5f5;
      }

      .cls-26 {
        fill: #68bfeb;
      }

      .cls-27 {
        fill: #034ea2;
      }

      .cls-28 {
        fill: #00aeef;
      }

      .cls-29 {
        fill: #fff200;
      }

      .cls-30, .cls-41, .cls-42, .cls-47, .cls-48 {
        fill: #fff;
      }

      .cls-32 {
        font-size: 12px;
      }

      .cls-33 {
        letter-spacing: 0.059em;
      }

      .cls-34 {
        clip-path: url(#clip-path-6);
      }

      .cls-35 {
        fill: #bfd730;
      }

      .cls-36 {
        fill: #50b848;
      }

      .cls-37 {
        fill: #00a651;
      }

      .cls-38 {
        fill: #fdb913;
      }

      .cls-39 {
        fill: #f37021;
      }

      .cls-40 {
        fill: #ed1c24;
      }

      .cls-41, .cls-49 {
        font-size: 16px;
      }

      .cls-42 {
        font-size: 9.328px;
      }

      .cls-43, .cls-44 {
        fill: #020304;
      }

      .cls-47 {
        font-size: 24px;
      }

      .cls-50 {
        font-size: 13.31px;
      }

      .cls-51 {
        font-size: 16.64px;
      }

      .cls-52 {
        font-size: 11px;
      }
    </style>
    <clipPath id="clip-path">
      <rect class="cls-1" y="0.00098" width="297.638" height="566.92902"/>
    </clipPath>
    <clipPath id="clip-path-2">
      <rect class="cls-1" x="42.576" y="359.81499" width="37.035" height="41.03"/>
    </clipPath>
    <clipPath id="clip-path-6">
      <rect class="cls-1" x="26.513" y="175.11899" width="145.089" height="155.47301"/>
    </clipPath>
  </defs>
  <title>solar-water-heaters</title>
  <g class="cls-2">
    <path class="cls-3" d="M114.6413,347.806s-7.904,0-7.904,7.904V520.909s0,7.904,7.904,7.904h147.61s7.904,0,7.904-7.904V355.71s0-7.904-7.904-7.904Zm-79.427,0s-7.904,0-7.904,7.904v69.057s0,7.905,7.904,7.905h53.464s7.905,0,7.905-7.905V355.71s0-7.904-7.905-7.904Z"/>
    <path class="cls-4" d="M24.0691,16.166s-7.904,0-7.904,7.90405V542.861s0,7.904,7.904,7.904h249.5s7.904,0,7.904-7.904V24.07007s0-7.90405-7.904-7.90405Z"/>
  </g>
  <g class="cls-5">
    <polygon class="cls-6" points="43.862 396.022 43.862 400.74 79.133 400.74 79.133 376.363 61.496 360.294 43.862 376.363 43.862 396.022"/>
  </g>
  <g class="cls-2">
    <path class="cls-7" d="M52.6974,389.896q-1.458-1.299-2.913-2.599h-2.078v-4.151h2.078q1.455-1.29749,2.913-2.598l1.205-1.073v11.497Z"/>
    <path class="cls-8" d="M52.3294,388.988q-1.1745-1.04849-2.347-2.093h-1.673v-3.346h1.673c.782-.695,1.564-1.395,2.347-2.092l.971-.865v9.261Z"/>
    <path class="cls-9" d="M52.3294,388.988q-1.1745-1.04849-2.347-2.093h-1.673v-3.346h1.673c.782-.695,1.564-1.395,2.347-2.092l.971-.865v9.261Z"/>
    <path class="cls-10" d="M56.1921,380.277a7.75368,7.75368,0,0,1,.065,9.836m3.417-12.834a13.7477,13.7477,0,0,1,.046,15.858m3.568-18.882a19.98666,19.98666,0,0,1,.036,21.935"/>
  </g>
  <text class="cls-11" transform="translate(62.44287 418.07745)"> </text>
  <text class="cls-12" transform="translate(65.8335 418.07745)">dB</text>
  <g class="cls-2">
    <polygon class="cls-13" points="196.785 495.256 149.966 495.256 149.966 502.588 147.874 504.657 147.874 506.538 154.916 513.492 156.628 513.492 158.341 511.614 160.054 513.305 162.148 513.305 176.993 498.64 189.745 498.64 196.785 505.597 201.925 510.861 201.925 511.802 198.688 515.186 198.308 515.751 198.308 517.066 198.688 518.007 200.021 518.757 201.162 518.757 207.824 512.177 207.824 510.109 200.021 502.401 194.882 497.324 196.785 495.256"/>
    <polygon class="cls-13" points="187.65 504.657 188.792 503.529 189.933 504.657 189.933 507.288 189.174 507.853 188.412 507.853 187.65 507.1 187.65 504.657"/>
    <polygon class="cls-13" points="188.222 508.228 189.363 508.228 190.315 509.169 190.315 512.742 189.363 513.682 188.792 513.682 187.459 512.365 187.459 509.169 188.222 508.228"/>
    <polygon class="cls-13" points="172.424 508.981 172.424 508.04 174.138 506.35 176.041 506.35 176.041 508.228 174.138 510.109 173.376 510.109 172.424 508.981"/>
    <polygon class="cls-13" points="219.814 510.862 227.046 503.716 227.046 501.836 224.763 499.767 216.769 507.666 215.817 507.666 213.724 505.597 212.011 507.288 212.011 509.546 213.343 510.862 212.202 511.802 212.202 514.998 215.437 518.194 217.72 518.194 221.527 514.433 221.527 512.553 219.814 510.862"/>
    <polygon class="cls-13" points="217.15 508.793 219.434 510.862 216.96 513.305 216.198 513.305 213.914 510.862 216.009 508.793 217.15 508.793"/>
    <polygon class="cls-13" points="223.43 511.99 223.811 511.615 226.286 511.615 227.046 512.364 227.046 514.621 226.666 514.998 223.811 514.998 223.43 514.621 223.43 511.99"/>
    <polygon class="cls-13" points="220.004 520.825 220.385 520.451 223.24 520.451 224.192 521.202 224.192 522.331 223.62 522.706 220.385 522.706 220.004 522.331 220.004 520.825"/>
    <polygon class="cls-14" points="217.34 462.541 216.199 463.669 215.628 463.669 214.866 462.917 213.153 462.917 212.201 463.856 212.201 465.737 213.343 466.865 210.679 469.497 209.346 468.37 206.682 468.37 204.589 470.437 197.166 470.437 188.982 470.437 188.03 470.814 180.989 477.771 178.705 477.771 177.564 476.642 175.279 477.394 172.615 480.026 169.38 480.026 168.809 480.59 168.809 493 168.238 493.563 162.718 493.563 160.244 491.12 151.869 491.12 149.966 492.812 149.966 495.256 196.785 495.256 197.166 494.88 198.308 495.821 201.163 495.821 204.589 492.247 206.492 492.247 209.346 495.256 228.76 495.256 228.76 493.376 228.189 492.247 223.62 487.736 212.773 487.736 212.011 486.983 212.011 480.216 215.437 477.019 215.437 474.387 214.485 473.446 214.485 472.319 216.578 470.25 217.532 471.189 219.053 471.189 220.385 469.873 220.385 468.37 219.434 467.618 219.434 466.678 221.528 464.609 221.528 462.541 217.34 462.541"/>
    <polygon class="cls-15" points="221.527 462.541 221.527 454.832 220.386 454.832 217.912 457.277 217.912 462.165 217.34 462.541 221.527 462.541"/>
    <polygon class="cls-13" points="228.76 495.444 228.76 495.256 209.347 495.256 213.154 499.017 213.154 500.708 212.202 501.836 212.202 503.905 215.817 507.665 216.769 507.665 227.997 496.759 228.76 495.444"/>
    <polygon class="cls-15" points="203.828 462.541 197.357 462.541 197.357 461.224 199.451 459.157 199.451 458.217 197.357 457.089 197.357 456.148 191.266 456.148 189.933 455.021 189.933 446.372 193.17 443.175 194.692 443.175 196.977 445.431 207.254 435.279 208.966 435.279 210.679 436.97 215.817 431.895 216.96 431.895 219.052 433.962 220.766 432.27 222.669 432.27 223.62 433.211 223.62 435.279 222.288 436.783 226.095 440.731 226.095 444.304 222.288 448.063 224.192 449.757 224.192 451.636 223.24 452.577 220.766 452.577 219.434 451.448 219.052 451.448 214.675 455.772 213.343 455.772 212.011 454.645 212.011 452.953 211.631 452.953 211.631 452.2 213.154 450.884 211.25 449.004 211.25 447.312 215.437 443.363 215.437 441.671 214.295 440.731 212.582 440.731 205.731 447.312 205.731 448.252 207.442 449.757 207.442 451.636 205.539 453.704 206.491 454.645 206.491 457.841 202.686 461.6 203.828 462.541"/>
    <polygon class="cls-14" points="203.828 462.541 204.589 463.482 204.589 465.361 201.544 468.182 201.544 468.746 198.309 468.746 197.357 467.805 197.357 466.678 199.451 464.609 197.357 462.541 203.828 462.541"/>
    <polygon class="cls-14" points="169.38 462.541 169.38 467.241 177.564 475.514 179.467 473.634 179.467 471.566 176.421 468.746 176.421 462.541 169.38 462.541"/>
    <polygon class="cls-15" points="169.38 462.541 176.421 462.541 176.421 457.653 173.186 454.268 171.473 454.268 169.38 456.525 169.38 462.541"/>
    <polygon class="cls-14" points="167.287 469.31 167.287 472.505 164.241 475.514 165.383 476.455 176.422 476.642 177.564 475.514 169.38 467.241 167.287 469.31"/>
    <polygon class="cls-14" points="168.618 461.037 168.047 460.473 165.192 460.473 163.099 462.541 168.618 462.541 168.618 461.037"/>
    <polygon class="cls-14" points="168.618 462.917 161.767 469.497 159.673 469.497 158.533 468.369 158.533 467.054 163.099 462.541 168.618 462.541 168.618 462.917"/>
    <polygon class="cls-14" points="193.359 459.721 189.933 463.105 189.933 465.361 193.931 469.498 194.692 469.498 196.786 467.429 196.976 466.678 194.502 464.421 196.976 462.164 194.502 459.721 193.359 459.721"/>
    <polygon class="cls-15" points="173.947 441.107 173.568 441.483 173.568 443.927 173.947 444.303 175.47 444.303 176.042 443.739 176.042 441.483 175.66 441.107 173.947 441.107"/>
    <rect class="cls-16" x="200.783" y="521.203" width="0.75999" height="1.315"/>

  </g>

  <g id="kwhGroup">
    <rect class="cls-25" x="114.496" y="399.54999" width="7.538" height="7.537"/>
    <rect class="cls-26" x="114.496" y="377.31599" width="7.538" height="7.53799"/>
    <rect class="cls-17" x="114.496" y="355.29601" width="7.538" height="7.53799"/>
    <text id="colderKwhAnnum" class="cls-50" transform="translate(127.27979 363.31964)">X</text>
    <text id="averageKwhAnnum" class="cls-51" transform="translate(127.27979 386.69952)">X</text>
    <text id="warmerKwhAnnum" class="cls-50" transform="translate(127.27979 407.88019)">X</text>
    <text class="cls-18" transform="translate(128.60205 424.21808)"><tspan class="cls-19">k</tspan><tspan class="cls-20" x="4.9873" y="0">W</tspan><tspan class="cls-21" x="14.81152" y="0">h</tspan><tspan x="20.58447" y="0">/</tspan></text>
    <text class="cls-18" transform="translate(153.0957 424.21808)"><tspan class="cls-22">ann</tspan><tspan x="16.77051" y="0">u</tspan></text>
    <text class="cls-18" transform="translate(175.6582 424.21808)"><tspan class="cls-23">m</tspan></text>
  </g>
  <g id="gjGroup">
    <rect class="cls-25" x="202.881" y="399.54999" width="7.53799" height="7.537"/>
    <rect class="cls-26" x="202.881" y="377.31599" width="7.53799" height="7.53799"/>
    <rect class="cls-17" x="202.881" y="355.29601" width="7.53799" height="7.53799"/>
    <text id="colderGjAnnum" class="cls-50" transform="translate(215.66016 363.31964)">X</text>
    <text id="averageGjAnnum" class="cls-51" transform="translate(215.66016 386.69952)">X</text>
    <text id="warmerGjAnnum" class="cls-50" transform="translate(215.66016 407.88019)">X</text>
    <text class="cls-18" transform="translate(216.14648 424.21808)"><tspan class="cls-24">GJ</tspan><tspan x="10.25977" y="0">/</tspan></text>
    <text class="cls-18" transform="translate(230.30176 424.21808)"><tspan class="cls-22">ann</tspan><tspan x="16.77051" y="0">u</tspan></text>
    <text class="cls-18" transform="translate(252.86523 424.21808)">m</text>
  </g>
  <g class="cls-2">

    
    <rect class="cls-28" x="100.45599" y="26.492" width="170.28799" height="48.06"/>
    
    
    
    
    
    
    
    
    
    
    
    

































    <line class="cls-31" x1="26.5135" y1="112.09299" x2="270.81747" y2="112.09299"/>
  <g id="union-flag" transform="translate(26.965, 26.492) scale(1.602)">
	<path id="blue" fill="#004289" d="M9.59,20L0,26.39V20H9.59z M39.59,0H27.5v8.06L39.59,0z M0,3.61V10h9.59L0,3.61z M17.5,0H5.41
		L17.5,8.06V0z M27.5,30h12.09L27.5,21.94V30z M45,10V3.61L35.41,10H45z M45,26.39V20h-9.59L45,26.39z M5.41,30H17.5v-8.06L5.41,30z
		"/>
	<path id="red" fill="#DC2F34" d="M45,18H25.5v12h-6V18H0v-6h19.5V0h6v12H45V18z M0,2.42L11.38,10h3.61L0,0.01V2.42z M45,27.58
		L33.62,20h-3.61L45,29.99V27.58z M17.5,20.74V20H15L0,30h3.61L17.5,20.74z M27.5,9.26V10H30L45,0h-3.61L27.5,9.26z"/>
</g><path id="energy-heading" d="M7.1581,7.21791H2.33537v3.7413H7.72769v1.90845H0V.13234H7.44305V2.04079H2.33537V5.32836H7.1581Zm3.53413,5.64975V.13234h2.677L16.67314,5.593a37.85159,37.85159,0,0,1,2.18339,4.27032h.038a51.82706,51.82706,0,0,1-.20865-5.29055V.13234h2.1644V12.86766H18.41992L15.07833,7.25572a43.774,43.774,0,0,1-2.2787-4.38342l-.076.0189c.095,1.64379.133,3.32538.133,5.42289v4.55357ZM31.63845,7.21791H26.81573v3.7413h5.392v1.90845H24.48V.13234h7.44305V2.04079H26.81573V5.32836h4.82272ZM35.19126.32139A20.16965,20.16965,0,0,1,38.72282.03781a5.98372,5.98372,0,0,1,3.94949,1.02056,3.228,3.228,0,0,1,1.1012,2.56949,3.347,3.347,0,0,1-2.3357,3.17446V6.859a3.16007,3.16007,0,0,1,1.7851,2.45638,32.106,32.106,0,0,0,1.00653,3.55224H41.83707a16.17761,16.17761,0,0,1-.85455-3.00431c-.37994-1.66269-.96854-2.19171-2.2977-2.22952H37.50764v5.23383H35.19126ZM37.50764,5.933h1.38647c1.57581,0,2.5437-.83119,2.5437-2.09719,0-1.37943-.96789-2.04079-2.487-2.04079a6.74576,6.74576,0,0,0-1.44314.11343Zm19.67341,6.34892A12.70364,12.70364,0,0,1,53.08022,13a6.96331,6.96331,0,0,1-5.032-1.7005,6.3681,6.3681,0,0,1-1.78446-4.68623C46.28243,2.56982,49.1494,0,53.38353,0a8.52961,8.52961,0,0,1,3.3989.60464l-.5126,1.87065a6.6378,6.6378,0,0,0-2.905-.54793c-2.73432,0-4.65207,1.606-4.65207,4.5728,0,2.89088,1.78509,4.61029,4.44342,4.61029a4.91246,4.91246,0,0,0,1.76578-.24577v-3.193H52.66228V5.8388h4.51877Zm6.23045.58573V7.55821L59.36734.13234h2.677l1.51914,3.269c.43661.94462.75924,1.66269,1.11987,2.53169h.038c.304-.81228.66458-1.606,1.10184-2.53169L67.361.13234H70L65.74719,7.50149v5.36617Z" fill="#fff" transform="translate(114.41590461530343, 39.85376885441002) scale(1.602)"/></g>
  <text class="cls-32" transform="translate(34.15381 109.38214)"><tspan class="cls-33" xml:space="preserve">                </tspan><tspan x="54.73438" y="0"> </tspan></text>
  <g class="cls-34">
    <rect class="cls-30" x="-423.30701" y="126.61499" width="1062.98999" height="255.118"/>
    <polygon class="cls-35" points="2.309 220.315 2.309 240.007 114.33 240.007 124.083 230.161 114.33 220.315 2.309 220.315"/>
    <polygon class="cls-36" points="2.309 197.788 2.309 217.48 102.972 217.48 112.724 207.634 102.972 197.788 2.309 197.788"/>
    <polygon class="cls-37" points="2.309 175.261 2.309 194.952 91.618 194.952 101.369 185.107 91.618 175.261 2.309 175.261"/>
    <polygon class="cls-29" points="2.309 242.843 2.309 262.534 125.949 262.534 135.714 252.689 125.949 242.843 2.309 242.843"/>
    <polygon class="cls-38" points="2.309 265.369 2.309 285.062 137.298 285.062 147.066 275.216 137.298 265.369 2.309 265.369"/>
    <polygon class="cls-39" points="2.309 287.896 2.309 307.586 148.648 307.586 158.419 297.74 148.648 287.896 2.309 287.896"/>
    <polygon class="cls-40" points="2.309 310.421 2.309 330.111 159.997 330.111 169.771 320.268 159.997 310.421 2.309 310.421"/>
  </g>
  <text class="cls-41" transform="translate(33.34912 192.16144)"> </text>
  <text class="cls-41" transform="translate(36.96533 190.16144)">A</text>
  <text class="cls-42" transform="translate(46.66162 184.83527)">+</text>
  <text class="cls-41" transform="translate(33.34912 214.66144)"> </text>
  <text class="cls-41" transform="translate(36.96533 212.66144)">A</text>
  <text class="cls-41" transform="translate(33.34912 237.15753)"> </text>
  <text class="cls-41" transform="translate(36.96533 235.15753)">B</text>
  <text class="cls-41" transform="translate(33.34912 257.65363)"> </text>
  <text class="cls-41" transform="translate(36.96484 257.65363)">C</text>
  <text class="cls-41" transform="translate(33.34912 280.14923)"> </text>
  <text class="cls-41" transform="translate(36.96484 280.14923)">D</text>
  <text class="cls-41" transform="translate(33.34912 302.64581)"> </text>
  <text class="cls-41" transform="translate(36.96484 302.64581)">E</text>
  <text class="cls-41" transform="translate(33.34912 325.14093)"> </text>
  <text class="cls-41" transform="translate(36.96484 325.14093)">F</text>
  <g class="cls-2">
    <rect class="cls-43" x="31.26284" y="121.37748" width="10.86012" height="1.35351" transform="translate(-0.54094 0.16393) rotate(-0.2541)"/>
    <path class="cls-44" d="M32.9887,122.054a1.79458,1.79458,0,0,0-1.781-1.81,1.77577,1.77577,0,0,0-1.781,1.81,1.79389,1.79389,0,0,0,1.781,1.81,1.81345,1.81345,0,0,0,1.781-1.81"/>
    <path class="cls-44" d="M43.9593,122.054a1.79458,1.79458,0,0,0-1.781-1.81,1.77577,1.77577,0,0,0-1.781,1.81,1.79389,1.79389,0,0,0,1.781,1.81,1.81345,1.81345,0,0,0,1.781-1.81"/>
    <path class="cls-44" d="M38.9426,122.054a2.25453,2.25453,0,0,0-2.268-2.267,2.224,2.224,0,0,0-2.23,2.267,2.24716,2.24716,0,0,0,2.23,2.267,2.27823,2.27823,0,0,0,2.268-2.267"/>
    <path class="cls-43" d="M38.9416,122.054a2.25493,2.25493,0,0,0-2.267-2.267,2.22484,2.22484,0,0,0-2.231,2.267,2.248,2.248,0,0,0,2.231,2.267,2.27867,2.27867,0,0,0,2.267-2.267"/>
    <rect class="cls-43" x="35.907" y="122.09" width="1.571" height="5.814"/>
    <path class="cls-44" d="M41.5025,131.211a4.81427,4.81427,0,1,0-4.826,5.017,4.90766,4.90766,0,0,0,4.826-5.017"/>
    <path class="cls-44" d="M40.561,134.158s2.597.352,2.597,1.316v3.255h4.254l-.012-3.913c-.362-4.115-2.407-4.773-6.034-5.924l-1.121-.323.024.506-13.311-.074v5.047l13.603-.11v.22"/>
  </g>
  <text class="cls-45" transform="translate(26.88818 541.5462)">2017</text>
  <text class="cls-45" transform="translate(231.51855 541.5462)">812/2013</text>
  <g id="rating">
    <polyline id="ratingArrow" class="cls-46" points="208.26 185.1 224.9 168.29 270.94 168.29 270.94 202.2 225.21 202.2 208.26 185.1"/>
    <text id="ratingLetter" class="cls-47" transform="translate(219.26953 192.34015)">A</text>
    <text id="ratingPlusses" class="cls-48" transform="translate(235.23047 185.09991)">+</text>
  </g>
  <text id="declaredLoadProfile" class="cls-49" transform="translate(50.50977 144.17023)">X</text>


  <text id="db" class="cls-11" transform="translate(47.22998 418.08038)">X</text>
  <text id="supplierLine2" class="cls-52" transform="translate(26.76001 106.29993)">X</text>
  <text id="supplierLine1" class="cls-52" transform="translate(26.76001 95.21888)">X</text>
  <text id="modelLine2" class="cls-52" transform="translate(153.22913 106.29993)">X</text>
  <text id="modelLine1" class="cls-52" transform="translate(153.22913 95.21888)">X</text>
</svg>